<?xml version="1.0" encoding="utf-8" standalone="no"?>
<!DOCTYPE svg PUBLIC "-//W3C//DTD SVG 1.1//EN"
  "http://www.w3.org/Graphics/SVG/1.1/DTD/svg11.dtd">
<svg xmlns:xlink="http://www.w3.org/1999/xlink" width="864pt" height="432pt" viewBox="0 0 864 432" xmlns="http://www.w3.org/2000/svg" version="1.1">
 <metadata>
  <rdf:RDF xmlns:dc="http://purl.org/dc/elements/1.1/" xmlns:cc="http://creativecommons.org/ns#" xmlns:rdf="http://www.w3.org/1999/02/22-rdf-syntax-ns#">
   <cc:Work>
    <dc:type rdf:resource="http://purl.org/dc/dcmitype/StillImage"/>
    <dc:date>2024-07-30T05:31:48.041629</dc:date>
    <dc:format>image/svg+xml</dc:format>
    <dc:creator>
     <cc:Agent>
      <dc:title>Matplotlib v3.9.1, https://matplotlib.org/</dc:title>
     </cc:Agent>
    </dc:creator>
   </cc:Work>
  </rdf:RDF>
 </metadata>
 <defs>
  <style type="text/css">*{stroke-linejoin: round; stroke-linecap: butt}</style>
 </defs>
 <g id="figure_1">
  <g id="patch_1">
   <path d="M 0 432 
L 864 432 
L 864 0 
L 0 0 
z
" style="fill: #ffffff"/>
  </g>
  <g id="axes_1">
   <g id="patch_2">
    <path d="M 50.87 404.12 
L 828.36996 404.12 
L 828.36996 26.88 
L 50.87 26.88 
z
" style="fill: #ffffff"/>
   </g>
   <g id="matplotlib.axis_1">
    <g id="xtick_1">
     <g id="line2d_1">
      <path d="M 101.576519 404.12 
L 101.576519 26.88 
" clip-path="url(#p73cbe46fb6)" style="fill: none; stroke-dasharray: 2.96,1.28; stroke-dashoffset: 0; stroke: #b0b0b0; stroke-width: 0.8"/>
     </g>
     <g id="line2d_2">
      <defs>
       <path id="mb764d8e695" d="M 0 0 
L 0 3.5 
" style="stroke: #000000; stroke-width: 0.8"/>
      </defs>
      <g>
       <use xlink:href="#mb764d8e695" x="101.576519" y="404.12" style="stroke: #000000; stroke-width: 0.8"/>
      </g>
     </g>
     <g id="text_1">
      <!-- 2024-06-15 -->
      <g transform="translate(72.518707 418.718437) scale(0.1 -0.1)">
       <defs>
        <path id="DejaVuSans-32" d="M 1228 531 
L 3431 531 
L 3431 0 
L 469 0 
L 469 531 
Q 828 903 1448 1529 
Q 2069 2156 2228 2338 
Q 2531 2678 2651 2914 
Q 2772 3150 2772 3378 
Q 2772 3750 2511 3984 
Q 2250 4219 1831 4219 
Q 1534 4219 1204 4116 
Q 875 4013 500 3803 
L 500 4441 
Q 881 4594 1212 4672 
Q 1544 4750 1819 4750 
Q 2544 4750 2975 4387 
Q 3406 4025 3406 3419 
Q 3406 3131 3298 2873 
Q 3191 2616 2906 2266 
Q 2828 2175 2409 1742 
Q 1991 1309 1228 531 
z
" transform="scale(0.015625)"/>
        <path id="DejaVuSans-30" d="M 2034 4250 
Q 1547 4250 1301 3770 
Q 1056 3291 1056 2328 
Q 1056 1369 1301 889 
Q 1547 409 2034 409 
Q 2525 409 2770 889 
Q 3016 1369 3016 2328 
Q 3016 3291 2770 3770 
Q 2525 4250 2034 4250 
z
M 2034 4750 
Q 2819 4750 3233 4129 
Q 3647 3509 3647 2328 
Q 3647 1150 3233 529 
Q 2819 -91 2034 -91 
Q 1250 -91 836 529 
Q 422 1150 422 2328 
Q 422 3509 836 4129 
Q 1250 4750 2034 4750 
z
" transform="scale(0.015625)"/>
        <path id="DejaVuSans-34" d="M 2419 4116 
L 825 1625 
L 2419 1625 
L 2419 4116 
z
M 2253 4666 
L 3047 4666 
L 3047 1625 
L 3713 1625 
L 3713 1100 
L 3047 1100 
L 3047 0 
L 2419 0 
L 2419 1100 
L 313 1100 
L 313 1709 
L 2253 4666 
z
" transform="scale(0.015625)"/>
        <path id="DejaVuSans-2d" d="M 313 2009 
L 1997 2009 
L 1997 1497 
L 313 1497 
L 313 2009 
z
" transform="scale(0.015625)"/>
        <path id="DejaVuSans-36" d="M 2113 2584 
Q 1688 2584 1439 2293 
Q 1191 2003 1191 1497 
Q 1191 994 1439 701 
Q 1688 409 2113 409 
Q 2538 409 2786 701 
Q 3034 994 3034 1497 
Q 3034 2003 2786 2293 
Q 2538 2584 2113 2584 
z
M 3366 4563 
L 3366 3988 
Q 3128 4100 2886 4159 
Q 2644 4219 2406 4219 
Q 1781 4219 1451 3797 
Q 1122 3375 1075 2522 
Q 1259 2794 1537 2939 
Q 1816 3084 2150 3084 
Q 2853 3084 3261 2657 
Q 3669 2231 3669 1497 
Q 3669 778 3244 343 
Q 2819 -91 2113 -91 
Q 1303 -91 875 529 
Q 447 1150 447 2328 
Q 447 3434 972 4092 
Q 1497 4750 2381 4750 
Q 2619 4750 2861 4703 
Q 3103 4656 3366 4563 
z
" transform="scale(0.015625)"/>
        <path id="DejaVuSans-31" d="M 794 531 
L 1825 531 
L 1825 4091 
L 703 3866 
L 703 4441 
L 1819 4666 
L 2450 4666 
L 2450 531 
L 3481 531 
L 3481 0 
L 794 0 
L 794 531 
z
" transform="scale(0.015625)"/>
        <path id="DejaVuSans-35" d="M 691 4666 
L 3169 4666 
L 3169 4134 
L 1269 4134 
L 1269 2991 
Q 1406 3038 1543 3061 
Q 1681 3084 1819 3084 
Q 2600 3084 3056 2656 
Q 3513 2228 3513 1497 
Q 3513 744 3044 326 
Q 2575 -91 1722 -91 
Q 1428 -91 1123 -41 
Q 819 9 494 109 
L 494 744 
Q 775 591 1075 516 
Q 1375 441 1709 441 
Q 2250 441 2565 725 
Q 2881 1009 2881 1497 
Q 2881 1984 2565 2268 
Q 2250 2553 1709 2553 
Q 1456 2553 1204 2497 
Q 953 2441 691 2322 
L 691 4666 
z
" transform="scale(0.015625)"/>
       </defs>
       <use xlink:href="#DejaVuSans-32"/>
       <use xlink:href="#DejaVuSans-30" x="63.623047"/>
       <use xlink:href="#DejaVuSans-32" x="127.246094"/>
       <use xlink:href="#DejaVuSans-34" x="190.869141"/>
       <use xlink:href="#DejaVuSans-2d" x="254.492188"/>
       <use xlink:href="#DejaVuSans-30" x="290.576172"/>
       <use xlink:href="#DejaVuSans-36" x="354.199219"/>
       <use xlink:href="#DejaVuSans-2d" x="417.822266"/>
       <use xlink:href="#DejaVuSans-31" x="453.90625"/>
       <use xlink:href="#DejaVuSans-35" x="517.529297"/>
      </g>
     </g>
    </g>
    <g id="xtick_2">
     <g id="line2d_3">
      <path d="M 209.135802 404.12 
L 209.135802 26.88 
" clip-path="url(#p73cbe46fb6)" style="fill: none; stroke-dasharray: 2.96,1.28; stroke-dashoffset: 0; stroke: #b0b0b0; stroke-width: 0.8"/>
     </g>
     <g id="line2d_4">
      <g>
       <use xlink:href="#mb764d8e695" x="209.135802" y="404.12" style="stroke: #000000; stroke-width: 0.8"/>
      </g>
     </g>
     <g id="text_2">
      <!-- 2024-06-22 -->
      <g transform="translate(180.07799 418.718437) scale(0.1 -0.1)">
       <use xlink:href="#DejaVuSans-32"/>
       <use xlink:href="#DejaVuSans-30" x="63.623047"/>
       <use xlink:href="#DejaVuSans-32" x="127.246094"/>
       <use xlink:href="#DejaVuSans-34" x="190.869141"/>
       <use xlink:href="#DejaVuSans-2d" x="254.492188"/>
       <use xlink:href="#DejaVuSans-30" x="290.576172"/>
       <use xlink:href="#DejaVuSans-36" x="354.199219"/>
       <use xlink:href="#DejaVuSans-2d" x="417.822266"/>
       <use xlink:href="#DejaVuSans-32" x="453.90625"/>
       <use xlink:href="#DejaVuSans-32" x="517.529297"/>
      </g>
     </g>
    </g>
    <g id="xtick_3">
     <g id="line2d_5">
      <path d="M 347.426309 404.12 
L 347.426309 26.88 
" clip-path="url(#p73cbe46fb6)" style="fill: none; stroke-dasharray: 2.96,1.28; stroke-dashoffset: 0; stroke: #b0b0b0; stroke-width: 0.8"/>
     </g>
     <g id="line2d_6">
      <g>
       <use xlink:href="#mb764d8e695" x="347.426309" y="404.12" style="stroke: #000000; stroke-width: 0.8"/>
      </g>
     </g>
     <g id="text_3">
      <!-- 2024-07-01 -->
      <g transform="translate(318.368497 418.718437) scale(0.1 -0.1)">
       <defs>
        <path id="DejaVuSans-37" d="M 525 4666 
L 3525 4666 
L 3525 4397 
L 1831 0 
L 1172 0 
L 2766 4134 
L 525 4134 
L 525 4666 
z
" transform="scale(0.015625)"/>
       </defs>
       <use xlink:href="#DejaVuSans-32"/>
       <use xlink:href="#DejaVuSans-30" x="63.623047"/>
       <use xlink:href="#DejaVuSans-32" x="127.246094"/>
       <use xlink:href="#DejaVuSans-34" x="190.869141"/>
       <use xlink:href="#DejaVuSans-2d" x="254.492188"/>
       <use xlink:href="#DejaVuSans-30" x="290.576172"/>
       <use xlink:href="#DejaVuSans-37" x="354.199219"/>
       <use xlink:href="#DejaVuSans-2d" x="417.822266"/>
       <use xlink:href="#DejaVuSans-30" x="453.90625"/>
       <use xlink:href="#DejaVuSans-31" x="517.529297"/>
      </g>
     </g>
    </g>
    <g id="xtick_4">
     <g id="line2d_7">
      <path d="M 454.985592 404.12 
L 454.985592 26.88 
" clip-path="url(#p73cbe46fb6)" style="fill: none; stroke-dasharray: 2.96,1.28; stroke-dashoffset: 0; stroke: #b0b0b0; stroke-width: 0.8"/>
     </g>
     <g id="line2d_8">
      <g>
       <use xlink:href="#mb764d8e695" x="454.985592" y="404.12" style="stroke: #000000; stroke-width: 0.8"/>
      </g>
     </g>
     <g id="text_4">
      <!-- 2024-07-08 -->
      <g transform="translate(425.92778 418.718437) scale(0.1 -0.1)">
       <defs>
        <path id="DejaVuSans-38" d="M 2034 2216 
Q 1584 2216 1326 1975 
Q 1069 1734 1069 1313 
Q 1069 891 1326 650 
Q 1584 409 2034 409 
Q 2484 409 2743 651 
Q 3003 894 3003 1313 
Q 3003 1734 2745 1975 
Q 2488 2216 2034 2216 
z
M 1403 2484 
Q 997 2584 770 2862 
Q 544 3141 544 3541 
Q 544 4100 942 4425 
Q 1341 4750 2034 4750 
Q 2731 4750 3128 4425 
Q 3525 4100 3525 3541 
Q 3525 3141 3298 2862 
Q 3072 2584 2669 2484 
Q 3125 2378 3379 2068 
Q 3634 1759 3634 1313 
Q 3634 634 3220 271 
Q 2806 -91 2034 -91 
Q 1263 -91 848 271 
Q 434 634 434 1313 
Q 434 1759 690 2068 
Q 947 2378 1403 2484 
z
M 1172 3481 
Q 1172 3119 1398 2916 
Q 1625 2713 2034 2713 
Q 2441 2713 2670 2916 
Q 2900 3119 2900 3481 
Q 2900 3844 2670 4047 
Q 2441 4250 2034 4250 
Q 1625 4250 1398 4047 
Q 1172 3844 1172 3481 
z
" transform="scale(0.015625)"/>
       </defs>
       <use xlink:href="#DejaVuSans-32"/>
       <use xlink:href="#DejaVuSans-30" x="63.623047"/>
       <use xlink:href="#DejaVuSans-32" x="127.246094"/>
       <use xlink:href="#DejaVuSans-34" x="190.869141"/>
       <use xlink:href="#DejaVuSans-2d" x="254.492188"/>
       <use xlink:href="#DejaVuSans-30" x="290.576172"/>
       <use xlink:href="#DejaVuSans-37" x="354.199219"/>
       <use xlink:href="#DejaVuSans-2d" x="417.822266"/>
       <use xlink:href="#DejaVuSans-30" x="453.90625"/>
       <use xlink:href="#DejaVuSans-38" x="517.529297"/>
      </g>
     </g>
    </g>
    <g id="xtick_5">
     <g id="line2d_9">
      <path d="M 562.544875 404.12 
L 562.544875 26.88 
" clip-path="url(#p73cbe46fb6)" style="fill: none; stroke-dasharray: 2.96,1.28; stroke-dashoffset: 0; stroke: #b0b0b0; stroke-width: 0.8"/>
     </g>
     <g id="line2d_10">
      <g>
       <use xlink:href="#mb764d8e695" x="562.544875" y="404.12" style="stroke: #000000; stroke-width: 0.8"/>
      </g>
     </g>
     <g id="text_5">
      <!-- 2024-07-15 -->
      <g transform="translate(533.487063 418.718437) scale(0.1 -0.1)">
       <use xlink:href="#DejaVuSans-32"/>
       <use xlink:href="#DejaVuSans-30" x="63.623047"/>
       <use xlink:href="#DejaVuSans-32" x="127.246094"/>
       <use xlink:href="#DejaVuSans-34" x="190.869141"/>
       <use xlink:href="#DejaVuSans-2d" x="254.492188"/>
       <use xlink:href="#DejaVuSans-30" x="290.576172"/>
       <use xlink:href="#DejaVuSans-37" x="354.199219"/>
       <use xlink:href="#DejaVuSans-2d" x="417.822266"/>
       <use xlink:href="#DejaVuSans-31" x="453.90625"/>
       <use xlink:href="#DejaVuSans-35" x="517.529297"/>
      </g>
     </g>
    </g>
    <g id="xtick_6">
     <g id="line2d_11">
      <path d="M 670.104158 404.12 
L 670.104158 26.88 
" clip-path="url(#p73cbe46fb6)" style="fill: none; stroke-dasharray: 2.96,1.28; stroke-dashoffset: 0; stroke: #b0b0b0; stroke-width: 0.8"/>
     </g>
     <g id="line2d_12">
      <g>
       <use xlink:href="#mb764d8e695" x="670.104158" y="404.12" style="stroke: #000000; stroke-width: 0.8"/>
      </g>
     </g>
     <g id="text_6">
      <!-- 2024-07-22 -->
      <g transform="translate(641.046346 418.718437) scale(0.1 -0.1)">
       <use xlink:href="#DejaVuSans-32"/>
       <use xlink:href="#DejaVuSans-30" x="63.623047"/>
       <use xlink:href="#DejaVuSans-32" x="127.246094"/>
       <use xlink:href="#DejaVuSans-34" x="190.869141"/>
       <use xlink:href="#DejaVuSans-2d" x="254.492188"/>
       <use xlink:href="#DejaVuSans-30" x="290.576172"/>
       <use xlink:href="#DejaVuSans-37" x="354.199219"/>
       <use xlink:href="#DejaVuSans-2d" x="417.822266"/>
       <use xlink:href="#DejaVuSans-32" x="453.90625"/>
       <use xlink:href="#DejaVuSans-32" x="517.529297"/>
      </g>
     </g>
    </g>
    <g id="xtick_7">
     <g id="line2d_13">
      <path d="M 823.760277 404.12 
L 823.760277 26.88 
" clip-path="url(#p73cbe46fb6)" style="fill: none; stroke-dasharray: 2.96,1.28; stroke-dashoffset: 0; stroke: #b0b0b0; stroke-width: 0.8"/>
     </g>
     <g id="line2d_14">
      <g>
       <use xlink:href="#mb764d8e695" x="823.760277" y="404.12" style="stroke: #000000; stroke-width: 0.8"/>
      </g>
     </g>
     <g id="text_7">
      <!-- 2024-08-01 -->
      <g transform="translate(794.702464 418.718437) scale(0.1 -0.1)">
       <use xlink:href="#DejaVuSans-32"/>
       <use xlink:href="#DejaVuSans-30" x="63.623047"/>
       <use xlink:href="#DejaVuSans-32" x="127.246094"/>
       <use xlink:href="#DejaVuSans-34" x="190.869141"/>
       <use xlink:href="#DejaVuSans-2d" x="254.492188"/>
       <use xlink:href="#DejaVuSans-30" x="290.576172"/>
       <use xlink:href="#DejaVuSans-38" x="354.199219"/>
       <use xlink:href="#DejaVuSans-2d" x="417.822266"/>
       <use xlink:href="#DejaVuSans-30" x="453.90625"/>
       <use xlink:href="#DejaVuSans-31" x="517.529297"/>
      </g>
     </g>
    </g>
   </g>
   <g id="matplotlib.axis_2">
    <g id="ytick_1">
     <g id="line2d_15">
      <path d="M 50.87 393.52972 
L 828.36996 393.52972 
" clip-path="url(#p73cbe46fb6)" style="fill: none; stroke-dasharray: 2.96,1.28; stroke-dashoffset: 0; stroke: #b0b0b0; stroke-width: 0.8"/>
     </g>
     <g id="line2d_16">
      <defs>
       <path id="m4fd3b46fe7" d="M 0 0 
L -3.5 0 
" style="stroke: #000000; stroke-width: 0.8"/>
      </defs>
      <g>
       <use xlink:href="#m4fd3b46fe7" x="50.87" y="393.52972" style="stroke: #000000; stroke-width: 0.8"/>
      </g>
     </g>
     <g id="text_8">
      <!-- 0 -->
      <g transform="translate(37.5075 397.328939) scale(0.1 -0.1)">
       <use xlink:href="#DejaVuSans-30"/>
      </g>
     </g>
    </g>
    <g id="ytick_2">
     <g id="line2d_17">
      <path d="M 50.87 326.627529 
L 828.36996 326.627529 
" clip-path="url(#p73cbe46fb6)" style="fill: none; stroke-dasharray: 2.96,1.28; stroke-dashoffset: 0; stroke: #b0b0b0; stroke-width: 0.8"/>
     </g>
     <g id="line2d_18">
      <g>
       <use xlink:href="#m4fd3b46fe7" x="50.87" y="326.627529" style="stroke: #000000; stroke-width: 0.8"/>
      </g>
     </g>
     <g id="text_9">
      <!-- 50 -->
      <g transform="translate(31.145 330.426748) scale(0.1 -0.1)">
       <use xlink:href="#DejaVuSans-35"/>
       <use xlink:href="#DejaVuSans-30" x="63.623047"/>
      </g>
     </g>
    </g>
    <g id="ytick_3">
     <g id="line2d_19">
      <path d="M 50.87 259.725338 
L 828.36996 259.725338 
" clip-path="url(#p73cbe46fb6)" style="fill: none; stroke-dasharray: 2.96,1.28; stroke-dashoffset: 0; stroke: #b0b0b0; stroke-width: 0.8"/>
     </g>
     <g id="line2d_20">
      <g>
       <use xlink:href="#m4fd3b46fe7" x="50.87" y="259.725338" style="stroke: #000000; stroke-width: 0.8"/>
      </g>
     </g>
     <g id="text_10">
      <!-- 100 -->
      <g transform="translate(24.7825 263.524557) scale(0.1 -0.1)">
       <use xlink:href="#DejaVuSans-31"/>
       <use xlink:href="#DejaVuSans-30" x="63.623047"/>
       <use xlink:href="#DejaVuSans-30" x="127.246094"/>
      </g>
     </g>
    </g>
    <g id="ytick_4">
     <g id="line2d_21">
      <path d="M 50.87 192.823147 
L 828.36996 192.823147 
" clip-path="url(#p73cbe46fb6)" style="fill: none; stroke-dasharray: 2.96,1.28; stroke-dashoffset: 0; stroke: #b0b0b0; stroke-width: 0.8"/>
     </g>
     <g id="line2d_22">
      <g>
       <use xlink:href="#m4fd3b46fe7" x="50.87" y="192.823147" style="stroke: #000000; stroke-width: 0.8"/>
      </g>
     </g>
     <g id="text_11">
      <!-- 150 -->
      <g transform="translate(24.7825 196.622366) scale(0.1 -0.1)">
       <use xlink:href="#DejaVuSans-31"/>
       <use xlink:href="#DejaVuSans-35" x="63.623047"/>
       <use xlink:href="#DejaVuSans-30" x="127.246094"/>
      </g>
     </g>
    </g>
    <g id="ytick_5">
     <g id="line2d_23">
      <path d="M 50.87 125.920956 
L 828.36996 125.920956 
" clip-path="url(#p73cbe46fb6)" style="fill: none; stroke-dasharray: 2.96,1.28; stroke-dashoffset: 0; stroke: #b0b0b0; stroke-width: 0.8"/>
     </g>
     <g id="line2d_24">
      <g>
       <use xlink:href="#m4fd3b46fe7" x="50.87" y="125.920956" style="stroke: #000000; stroke-width: 0.8"/>
      </g>
     </g>
     <g id="text_12">
      <!-- 200 -->
      <g transform="translate(24.7825 129.720175) scale(0.1 -0.1)">
       <use xlink:href="#DejaVuSans-32"/>
       <use xlink:href="#DejaVuSans-30" x="63.623047"/>
       <use xlink:href="#DejaVuSans-30" x="127.246094"/>
      </g>
     </g>
    </g>
    <g id="ytick_6">
     <g id="line2d_25">
      <path d="M 50.87 59.018765 
L 828.36996 59.018765 
" clip-path="url(#p73cbe46fb6)" style="fill: none; stroke-dasharray: 2.96,1.28; stroke-dashoffset: 0; stroke: #b0b0b0; stroke-width: 0.8"/>
     </g>
     <g id="line2d_26">
      <g>
       <use xlink:href="#m4fd3b46fe7" x="50.87" y="59.018765" style="stroke: #000000; stroke-width: 0.8"/>
      </g>
     </g>
     <g id="text_13">
      <!-- 250 -->
      <g transform="translate(24.7825 62.817984) scale(0.1 -0.1)">
       <use xlink:href="#DejaVuSans-32"/>
       <use xlink:href="#DejaVuSans-35" x="63.623047"/>
       <use xlink:href="#DejaVuSans-30" x="127.246094"/>
      </g>
     </g>
    </g>
    <g id="text_14">
     <!-- Score -->
     <g transform="translate(18.702813 229.502344) rotate(-90) scale(0.1 -0.1)">
      <defs>
       <path id="DejaVuSans-53" d="M 3425 4513 
L 3425 3897 
Q 3066 4069 2747 4153 
Q 2428 4238 2131 4238 
Q 1616 4238 1336 4038 
Q 1056 3838 1056 3469 
Q 1056 3159 1242 3001 
Q 1428 2844 1947 2747 
L 2328 2669 
Q 3034 2534 3370 2195 
Q 3706 1856 3706 1288 
Q 3706 609 3251 259 
Q 2797 -91 1919 -91 
Q 1588 -91 1214 -16 
Q 841 59 441 206 
L 441 856 
Q 825 641 1194 531 
Q 1563 422 1919 422 
Q 2459 422 2753 634 
Q 3047 847 3047 1241 
Q 3047 1584 2836 1778 
Q 2625 1972 2144 2069 
L 1759 2144 
Q 1053 2284 737 2584 
Q 422 2884 422 3419 
Q 422 4038 858 4394 
Q 1294 4750 2059 4750 
Q 2388 4750 2728 4690 
Q 3069 4631 3425 4513 
z
" transform="scale(0.015625)"/>
       <path id="DejaVuSans-63" d="M 3122 3366 
L 3122 2828 
Q 2878 2963 2633 3030 
Q 2388 3097 2138 3097 
Q 1578 3097 1268 2742 
Q 959 2388 959 1747 
Q 959 1106 1268 751 
Q 1578 397 2138 397 
Q 2388 397 2633 464 
Q 2878 531 3122 666 
L 3122 134 
Q 2881 22 2623 -34 
Q 2366 -91 2075 -91 
Q 1284 -91 818 406 
Q 353 903 353 1747 
Q 353 2603 823 3093 
Q 1294 3584 2113 3584 
Q 2378 3584 2631 3529 
Q 2884 3475 3122 3366 
z
" transform="scale(0.015625)"/>
       <path id="DejaVuSans-6f" d="M 1959 3097 
Q 1497 3097 1228 2736 
Q 959 2375 959 1747 
Q 959 1119 1226 758 
Q 1494 397 1959 397 
Q 2419 397 2687 759 
Q 2956 1122 2956 1747 
Q 2956 2369 2687 2733 
Q 2419 3097 1959 3097 
z
M 1959 3584 
Q 2709 3584 3137 3096 
Q 3566 2609 3566 1747 
Q 3566 888 3137 398 
Q 2709 -91 1959 -91 
Q 1206 -91 779 398 
Q 353 888 353 1747 
Q 353 2609 779 3096 
Q 1206 3584 1959 3584 
z
" transform="scale(0.015625)"/>
       <path id="DejaVuSans-72" d="M 2631 2963 
Q 2534 3019 2420 3045 
Q 2306 3072 2169 3072 
Q 1681 3072 1420 2755 
Q 1159 2438 1159 1844 
L 1159 0 
L 581 0 
L 581 3500 
L 1159 3500 
L 1159 2956 
Q 1341 3275 1631 3429 
Q 1922 3584 2338 3584 
Q 2397 3584 2469 3576 
Q 2541 3569 2628 3553 
L 2631 2963 
z
" transform="scale(0.015625)"/>
       <path id="DejaVuSans-65" d="M 3597 1894 
L 3597 1613 
L 953 1613 
Q 991 1019 1311 708 
Q 1631 397 2203 397 
Q 2534 397 2845 478 
Q 3156 559 3463 722 
L 3463 178 
Q 3153 47 2828 -22 
Q 2503 -91 2169 -91 
Q 1331 -91 842 396 
Q 353 884 353 1716 
Q 353 2575 817 3079 
Q 1281 3584 2069 3584 
Q 2775 3584 3186 3129 
Q 3597 2675 3597 1894 
z
M 3022 2063 
Q 3016 2534 2758 2815 
Q 2500 3097 2075 3097 
Q 1594 3097 1305 2825 
Q 1016 2553 972 2059 
L 3022 2063 
z
" transform="scale(0.015625)"/>
      </defs>
      <use xlink:href="#DejaVuSans-53"/>
      <use xlink:href="#DejaVuSans-63" x="63.476562"/>
      <use xlink:href="#DejaVuSans-6f" x="118.457031"/>
      <use xlink:href="#DejaVuSans-72" x="179.638672"/>
      <use xlink:href="#DejaVuSans-65" x="218.501953"/>
     </g>
    </g>
   </g>
   <g id="line2d_27">
    <path d="M 86.210907 385.911319 
L 101.576519 362.782276 
L 116.942131 343.667364 
L 132.307743 329.187819 
L 147.673355 313.656953 
L 163.038967 290.145612 
L 178.404578 269.836018 
L 193.77019 259.179455 
L 209.135802 230.602661 
L 224.501414 207.61698 
L 239.867026 177.367632 
L 255.232638 161.263319 
L 270.59825 117.251235 
L 316.695085 117.251235 
L 332.060697 117.251235 
L 347.426309 117.251235 
L 362.791921 117.251235 
L 378.157533 117.251235 
L 408.888757 117.251235 
L 424.254368 117.251235 
L 439.61998 117.251235 
L 454.985592 117.251235 
L 470.351204 117.251235 
L 485.716816 107.215906 
L 501.082428 107.215906 
L 516.44804 107.215906 
L 531.813651 107.215906 
L 547.179263 107.215906 
L 562.544875 92.162913 
L 577.910487 92.162913 
L 593.276099 92.162913 
L 608.641711 92.162913 
L 624.007323 92.162913 
L 639.372935 92.162913 
L 654.738546 92.162913 
L 670.104158 92.162913 
L 685.46977 92.162913 
L 700.835382 92.162913 
L 716.200994 92.162913 
L 731.566606 92.162913 
L 746.932218 92.162913 
L 762.297829 92.162913 
L 777.663441 92.162913 
L 793.029053 92.162913 
" clip-path="url(#p73cbe46fb6)" style="fill: none; stroke: #1f77b4; stroke-width: 1.5; stroke-linecap: square"/>
    <defs>
     <path id="m389817b727" d="M 0 3.5 
C 0.928211 3.5 1.81853 3.131218 2.474874 2.474874 
C 3.131218 1.81853 3.5 0.928211 3.5 0 
C 3.5 -0.928211 3.131218 -1.81853 2.474874 -2.474874 
C 1.81853 -3.131218 0.928211 -3.5 0 -3.5 
C -0.928211 -3.5 -1.81853 -3.131218 -2.474874 -2.474874 
C -3.131218 -1.81853 -3.5 -0.928211 -3.5 0 
C -3.5 0.928211 -3.131218 1.81853 -2.474874 2.474874 
C -1.81853 3.131218 -0.928211 3.5 0 3.5 
z
" style="stroke: #1f77b4"/>
    </defs>
    <g clip-path="url(#p73cbe46fb6)">
     <use xlink:href="#m389817b727" x="86.210907" y="385.911319" style="fill: #1f77b4; stroke: #1f77b4"/>
     <use xlink:href="#m389817b727" x="101.576519" y="362.782276" style="fill: #1f77b4; stroke: #1f77b4"/>
     <use xlink:href="#m389817b727" x="116.942131" y="343.667364" style="fill: #1f77b4; stroke: #1f77b4"/>
     <use xlink:href="#m389817b727" x="132.307743" y="329.187819" style="fill: #1f77b4; stroke: #1f77b4"/>
     <use xlink:href="#m389817b727" x="147.673355" y="313.656953" style="fill: #1f77b4; stroke: #1f77b4"/>
     <use xlink:href="#m389817b727" x="163.038967" y="290.145612" style="fill: #1f77b4; stroke: #1f77b4"/>
     <use xlink:href="#m389817b727" x="178.404578" y="269.836018" style="fill: #1f77b4; stroke: #1f77b4"/>
     <use xlink:href="#m389817b727" x="193.77019" y="259.179455" style="fill: #1f77b4; stroke: #1f77b4"/>
     <use xlink:href="#m389817b727" x="209.135802" y="230.602661" style="fill: #1f77b4; stroke: #1f77b4"/>
     <use xlink:href="#m389817b727" x="224.501414" y="207.61698" style="fill: #1f77b4; stroke: #1f77b4"/>
     <use xlink:href="#m389817b727" x="239.867026" y="177.367632" style="fill: #1f77b4; stroke: #1f77b4"/>
     <use xlink:href="#m389817b727" x="255.232638" y="161.263319" style="fill: #1f77b4; stroke: #1f77b4"/>
     <use xlink:href="#m389817b727" x="270.59825" y="117.251235" style="fill: #1f77b4; stroke: #1f77b4"/>
     <use xlink:href="#m389817b727" x="316.695085" y="117.251235" style="fill: #1f77b4; stroke: #1f77b4"/>
     <use xlink:href="#m389817b727" x="332.060697" y="117.251235" style="fill: #1f77b4; stroke: #1f77b4"/>
     <use xlink:href="#m389817b727" x="347.426309" y="117.251235" style="fill: #1f77b4; stroke: #1f77b4"/>
     <use xlink:href="#m389817b727" x="362.791921" y="117.251235" style="fill: #1f77b4; stroke: #1f77b4"/>
     <use xlink:href="#m389817b727" x="378.157533" y="117.251235" style="fill: #1f77b4; stroke: #1f77b4"/>
     <use xlink:href="#m389817b727" x="408.888757" y="117.251235" style="fill: #1f77b4; stroke: #1f77b4"/>
     <use xlink:href="#m389817b727" x="424.254368" y="117.251235" style="fill: #1f77b4; stroke: #1f77b4"/>
     <use xlink:href="#m389817b727" x="439.61998" y="117.251235" style="fill: #1f77b4; stroke: #1f77b4"/>
     <use xlink:href="#m389817b727" x="454.985592" y="117.251235" style="fill: #1f77b4; stroke: #1f77b4"/>
     <use xlink:href="#m389817b727" x="470.351204" y="117.251235" style="fill: #1f77b4; stroke: #1f77b4"/>
     <use xlink:href="#m389817b727" x="485.716816" y="107.215906" style="fill: #1f77b4; stroke: #1f77b4"/>
     <use xlink:href="#m389817b727" x="501.082428" y="107.215906" style="fill: #1f77b4; stroke: #1f77b4"/>
     <use xlink:href="#m389817b727" x="516.44804" y="107.215906" style="fill: #1f77b4; stroke: #1f77b4"/>
     <use xlink:href="#m389817b727" x="531.813651" y="107.215906" style="fill: #1f77b4; stroke: #1f77b4"/>
     <use xlink:href="#m389817b727" x="547.179263" y="107.215906" style="fill: #1f77b4; stroke: #1f77b4"/>
     <use xlink:href="#m389817b727" x="562.544875" y="92.162913" style="fill: #1f77b4; stroke: #1f77b4"/>
     <use xlink:href="#m389817b727" x="577.910487" y="92.162913" style="fill: #1f77b4; stroke: #1f77b4"/>
     <use xlink:href="#m389817b727" x="593.276099" y="92.162913" style="fill: #1f77b4; stroke: #1f77b4"/>
     <use xlink:href="#m389817b727" x="608.641711" y="92.162913" style="fill: #1f77b4; stroke: #1f77b4"/>
     <use xlink:href="#m389817b727" x="624.007323" y="92.162913" style="fill: #1f77b4; stroke: #1f77b4"/>
     <use xlink:href="#m389817b727" x="639.372935" y="92.162913" style="fill: #1f77b4; stroke: #1f77b4"/>
     <use xlink:href="#m389817b727" x="654.738546" y="92.162913" style="fill: #1f77b4; stroke: #1f77b4"/>
     <use xlink:href="#m389817b727" x="670.104158" y="92.162913" style="fill: #1f77b4; stroke: #1f77b4"/>
     <use xlink:href="#m389817b727" x="685.46977" y="92.162913" style="fill: #1f77b4; stroke: #1f77b4"/>
     <use xlink:href="#m389817b727" x="700.835382" y="92.162913" style="fill: #1f77b4; stroke: #1f77b4"/>
     <use xlink:href="#m389817b727" x="716.200994" y="92.162913" style="fill: #1f77b4; stroke: #1f77b4"/>
     <use xlink:href="#m389817b727" x="731.566606" y="92.162913" style="fill: #1f77b4; stroke: #1f77b4"/>
     <use xlink:href="#m389817b727" x="746.932218" y="92.162913" style="fill: #1f77b4; stroke: #1f77b4"/>
     <use xlink:href="#m389817b727" x="762.297829" y="92.162913" style="fill: #1f77b4; stroke: #1f77b4"/>
     <use xlink:href="#m389817b727" x="777.663441" y="92.162913" style="fill: #1f77b4; stroke: #1f77b4"/>
     <use xlink:href="#m389817b727" x="793.029053" y="92.162913" style="fill: #1f77b4; stroke: #1f77b4"/>
    </g>
   </g>
   <g id="line2d_28">
    <path d="M 86.210907 384.406464 
L 101.576519 359.132303 
L 116.942131 334.006813 
L 132.307743 321.815747 
L 147.673355 301.893761 
L 163.038967 281.079746 
L 178.404578 264.577206 
L 193.77019 251.048096 
L 209.135802 215.961614 
L 224.501414 196.931657 
L 239.867026 168.089379 
L 255.232638 148.316065 
L 270.59825 105.796006 
L 316.695085 105.796006 
L 332.060697 105.796006 
L 347.426309 105.796006 
L 362.791921 105.796006 
L 378.157533 105.796006 
L 408.888757 105.796006 
L 424.254368 105.796006 
L 439.61998 105.796006 
L 454.985592 105.796006 
L 470.351204 105.796006 
L 485.716816 96.875714 
L 501.082428 96.875714 
L 516.44804 96.875714 
L 531.813651 96.875714 
L 547.179263 96.875714 
L 562.544875 79.778487 
L 577.910487 79.778487 
L 593.276099 79.778487 
L 608.641711 79.778487 
L 624.007323 79.778487 
L 639.372935 79.778487 
L 654.738546 79.778487 
L 670.104158 79.778487 
L 685.46977 79.778487 
L 700.835382 79.778487 
L 716.200994 79.778487 
L 731.566606 79.778487 
L 746.932218 79.778487 
L 762.297829 79.778487 
L 777.663441 79.778487 
L 793.029053 79.778487 
" clip-path="url(#p73cbe46fb6)" style="fill: none; stroke: #ff7f0e; stroke-width: 1.5; stroke-linecap: square"/>
    <defs>
     <path id="m5197daefa5" d="M 0 3.5 
C 0.928211 3.5 1.81853 3.131218 2.474874 2.474874 
C 3.131218 1.81853 3.5 0.928211 3.5 0 
C 3.5 -0.928211 3.131218 -1.81853 2.474874 -2.474874 
C 1.81853 -3.131218 0.928211 -3.5 0 -3.5 
C -0.928211 -3.5 -1.81853 -3.131218 -2.474874 -2.474874 
C -3.131218 -1.81853 -3.5 -0.928211 -3.5 0 
C -3.5 0.928211 -3.131218 1.81853 -2.474874 2.474874 
C -1.81853 3.131218 -0.928211 3.5 0 3.5 
z
" style="stroke: #ff7f0e"/>
    </defs>
    <g clip-path="url(#p73cbe46fb6)">
     <use xlink:href="#m5197daefa5" x="86.210907" y="384.406464" style="fill: #ff7f0e; stroke: #ff7f0e"/>
     <use xlink:href="#m5197daefa5" x="101.576519" y="359.132303" style="fill: #ff7f0e; stroke: #ff7f0e"/>
     <use xlink:href="#m5197daefa5" x="116.942131" y="334.006813" style="fill: #ff7f0e; stroke: #ff7f0e"/>
     <use xlink:href="#m5197daefa5" x="132.307743" y="321.815747" style="fill: #ff7f0e; stroke: #ff7f0e"/>
     <use xlink:href="#m5197daefa5" x="147.673355" y="301.893761" style="fill: #ff7f0e; stroke: #ff7f0e"/>
     <use xlink:href="#m5197daefa5" x="163.038967" y="281.079746" style="fill: #ff7f0e; stroke: #ff7f0e"/>
     <use xlink:href="#m5197daefa5" x="178.404578" y="264.577206" style="fill: #ff7f0e; stroke: #ff7f0e"/>
     <use xlink:href="#m5197daefa5" x="193.77019" y="251.048096" style="fill: #ff7f0e; stroke: #ff7f0e"/>
     <use xlink:href="#m5197daefa5" x="209.135802" y="215.961614" style="fill: #ff7f0e; stroke: #ff7f0e"/>
     <use xlink:href="#m5197daefa5" x="224.501414" y="196.931657" style="fill: #ff7f0e; stroke: #ff7f0e"/>
     <use xlink:href="#m5197daefa5" x="239.867026" y="168.089379" style="fill: #ff7f0e; stroke: #ff7f0e"/>
     <use xlink:href="#m5197daefa5" x="255.232638" y="148.316065" style="fill: #ff7f0e; stroke: #ff7f0e"/>
     <use xlink:href="#m5197daefa5" x="270.59825" y="105.796006" style="fill: #ff7f0e; stroke: #ff7f0e"/>
     <use xlink:href="#m5197daefa5" x="316.695085" y="105.796006" style="fill: #ff7f0e; stroke: #ff7f0e"/>
     <use xlink:href="#m5197daefa5" x="332.060697" y="105.796006" style="fill: #ff7f0e; stroke: #ff7f0e"/>
     <use xlink:href="#m5197daefa5" x="347.426309" y="105.796006" style="fill: #ff7f0e; stroke: #ff7f0e"/>
     <use xlink:href="#m5197daefa5" x="362.791921" y="105.796006" style="fill: #ff7f0e; stroke: #ff7f0e"/>
     <use xlink:href="#m5197daefa5" x="378.157533" y="105.796006" style="fill: #ff7f0e; stroke: #ff7f0e"/>
     <use xlink:href="#m5197daefa5" x="408.888757" y="105.796006" style="fill: #ff7f0e; stroke: #ff7f0e"/>
     <use xlink:href="#m5197daefa5" x="424.254368" y="105.796006" style="fill: #ff7f0e; stroke: #ff7f0e"/>
     <use xlink:href="#m5197daefa5" x="439.61998" y="105.796006" style="fill: #ff7f0e; stroke: #ff7f0e"/>
     <use xlink:href="#m5197daefa5" x="454.985592" y="105.796006" style="fill: #ff7f0e; stroke: #ff7f0e"/>
     <use xlink:href="#m5197daefa5" x="470.351204" y="105.796006" style="fill: #ff7f0e; stroke: #ff7f0e"/>
     <use xlink:href="#m5197daefa5" x="485.716816" y="96.875714" style="fill: #ff7f0e; stroke: #ff7f0e"/>
     <use xlink:href="#m5197daefa5" x="501.082428" y="96.875714" style="fill: #ff7f0e; stroke: #ff7f0e"/>
     <use xlink:href="#m5197daefa5" x="516.44804" y="96.875714" style="fill: #ff7f0e; stroke: #ff7f0e"/>
     <use xlink:href="#m5197daefa5" x="531.813651" y="96.875714" style="fill: #ff7f0e; stroke: #ff7f0e"/>
     <use xlink:href="#m5197daefa5" x="547.179263" y="96.875714" style="fill: #ff7f0e; stroke: #ff7f0e"/>
     <use xlink:href="#m5197daefa5" x="562.544875" y="79.778487" style="fill: #ff7f0e; stroke: #ff7f0e"/>
     <use xlink:href="#m5197daefa5" x="577.910487" y="79.778487" style="fill: #ff7f0e; stroke: #ff7f0e"/>
     <use xlink:href="#m5197daefa5" x="593.276099" y="79.778487" style="fill: #ff7f0e; stroke: #ff7f0e"/>
     <use xlink:href="#m5197daefa5" x="608.641711" y="79.778487" style="fill: #ff7f0e; stroke: #ff7f0e"/>
     <use xlink:href="#m5197daefa5" x="624.007323" y="79.778487" style="fill: #ff7f0e; stroke: #ff7f0e"/>
     <use xlink:href="#m5197daefa5" x="639.372935" y="79.778487" style="fill: #ff7f0e; stroke: #ff7f0e"/>
     <use xlink:href="#m5197daefa5" x="654.738546" y="79.778487" style="fill: #ff7f0e; stroke: #ff7f0e"/>
     <use xlink:href="#m5197daefa5" x="670.104158" y="79.778487" style="fill: #ff7f0e; stroke: #ff7f0e"/>
     <use xlink:href="#m5197daefa5" x="685.46977" y="79.778487" style="fill: #ff7f0e; stroke: #ff7f0e"/>
     <use xlink:href="#m5197daefa5" x="700.835382" y="79.778487" style="fill: #ff7f0e; stroke: #ff7f0e"/>
     <use xlink:href="#m5197daefa5" x="716.200994" y="79.778487" style="fill: #ff7f0e; stroke: #ff7f0e"/>
     <use xlink:href="#m5197daefa5" x="731.566606" y="79.778487" style="fill: #ff7f0e; stroke: #ff7f0e"/>
     <use xlink:href="#m5197daefa5" x="746.932218" y="79.778487" style="fill: #ff7f0e; stroke: #ff7f0e"/>
     <use xlink:href="#m5197daefa5" x="762.297829" y="79.778487" style="fill: #ff7f0e; stroke: #ff7f0e"/>
     <use xlink:href="#m5197daefa5" x="777.663441" y="79.778487" style="fill: #ff7f0e; stroke: #ff7f0e"/>
     <use xlink:href="#m5197daefa5" x="793.029053" y="79.778487" style="fill: #ff7f0e; stroke: #ff7f0e"/>
    </g>
   </g>
   <g id="line2d_29">
    <path d="M 86.210907 385.438333 
L 101.576519 362.978311 
L 116.942131 333.828071 
L 132.307743 317.293672 
L 147.673355 297.605313 
L 163.038967 277.63023 
L 178.404578 262.433876 
L 193.77019 245.517179 
L 209.135802 214.93332 
L 224.501414 193.620193 
L 239.867026 163.036335 
L 255.232638 145.737339 
L 270.59825 101.008446 
L 316.695085 101.008446 
L 332.060697 101.008446 
L 347.426309 101.008446 
L 362.791921 101.008446 
L 378.157533 101.008446 
L 408.888757 101.008446 
L 424.254368 101.008446 
L 439.61998 101.008446 
L 454.985592 101.008446 
L 470.351204 101.008446 
L 485.716816 93.840354 
L 501.082428 93.840354 
L 516.44804 93.840354 
L 531.813651 93.840354 
L 547.179263 93.840354 
L 562.544875 77.114806 
L 577.910487 77.114806 
L 593.276099 77.114806 
L 608.641711 77.114806 
L 624.007323 77.114806 
L 639.372935 77.114806 
L 654.738546 77.114806 
L 670.104158 77.114806 
L 685.46977 77.114806 
L 700.835382 77.114806 
L 716.200994 77.114806 
L 731.566606 77.114806 
L 746.932218 77.114806 
L 762.297829 77.114806 
L 777.663441 77.114806 
L 793.029053 77.114806 
" clip-path="url(#p73cbe46fb6)" style="fill: none; stroke: #2ca02c; stroke-width: 1.5; stroke-linecap: square"/>
    <defs>
     <path id="m97b3198a72" d="M 0 3.5 
C 0.928211 3.5 1.81853 3.131218 2.474874 2.474874 
C 3.131218 1.81853 3.5 0.928211 3.5 0 
C 3.5 -0.928211 3.131218 -1.81853 2.474874 -2.474874 
C 1.81853 -3.131218 0.928211 -3.5 0 -3.5 
C -0.928211 -3.5 -1.81853 -3.131218 -2.474874 -2.474874 
C -3.131218 -1.81853 -3.5 -0.928211 -3.5 0 
C -3.5 0.928211 -3.131218 1.81853 -2.474874 2.474874 
C -1.81853 3.131218 -0.928211 3.5 0 3.5 
z
" style="stroke: #2ca02c"/>
    </defs>
    <g clip-path="url(#p73cbe46fb6)">
     <use xlink:href="#m97b3198a72" x="86.210907" y="385.438333" style="fill: #2ca02c; stroke: #2ca02c"/>
     <use xlink:href="#m97b3198a72" x="101.576519" y="362.978311" style="fill: #2ca02c; stroke: #2ca02c"/>
     <use xlink:href="#m97b3198a72" x="116.942131" y="333.828071" style="fill: #2ca02c; stroke: #2ca02c"/>
     <use xlink:href="#m97b3198a72" x="132.307743" y="317.293672" style="fill: #2ca02c; stroke: #2ca02c"/>
     <use xlink:href="#m97b3198a72" x="147.673355" y="297.605313" style="fill: #2ca02c; stroke: #2ca02c"/>
     <use xlink:href="#m97b3198a72" x="163.038967" y="277.63023" style="fill: #2ca02c; stroke: #2ca02c"/>
     <use xlink:href="#m97b3198a72" x="178.404578" y="262.433876" style="fill: #2ca02c; stroke: #2ca02c"/>
     <use xlink:href="#m97b3198a72" x="193.77019" y="245.517179" style="fill: #2ca02c; stroke: #2ca02c"/>
     <use xlink:href="#m97b3198a72" x="209.135802" y="214.93332" style="fill: #2ca02c; stroke: #2ca02c"/>
     <use xlink:href="#m97b3198a72" x="224.501414" y="193.620193" style="fill: #2ca02c; stroke: #2ca02c"/>
     <use xlink:href="#m97b3198a72" x="239.867026" y="163.036335" style="fill: #2ca02c; stroke: #2ca02c"/>
     <use xlink:href="#m97b3198a72" x="255.232638" y="145.737339" style="fill: #2ca02c; stroke: #2ca02c"/>
     <use xlink:href="#m97b3198a72" x="270.59825" y="101.008446" style="fill: #2ca02c; stroke: #2ca02c"/>
     <use xlink:href="#m97b3198a72" x="316.695085" y="101.008446" style="fill: #2ca02c; stroke: #2ca02c"/>
     <use xlink:href="#m97b3198a72" x="332.060697" y="101.008446" style="fill: #2ca02c; stroke: #2ca02c"/>
     <use xlink:href="#m97b3198a72" x="347.426309" y="101.008446" style="fill: #2ca02c; stroke: #2ca02c"/>
     <use xlink:href="#m97b3198a72" x="362.791921" y="101.008446" style="fill: #2ca02c; stroke: #2ca02c"/>
     <use xlink:href="#m97b3198a72" x="378.157533" y="101.008446" style="fill: #2ca02c; stroke: #2ca02c"/>
     <use xlink:href="#m97b3198a72" x="408.888757" y="101.008446" style="fill: #2ca02c; stroke: #2ca02c"/>
     <use xlink:href="#m97b3198a72" x="424.254368" y="101.008446" style="fill: #2ca02c; stroke: #2ca02c"/>
     <use xlink:href="#m97b3198a72" x="439.61998" y="101.008446" style="fill: #2ca02c; stroke: #2ca02c"/>
     <use xlink:href="#m97b3198a72" x="454.985592" y="101.008446" style="fill: #2ca02c; stroke: #2ca02c"/>
     <use xlink:href="#m97b3198a72" x="470.351204" y="101.008446" style="fill: #2ca02c; stroke: #2ca02c"/>
     <use xlink:href="#m97b3198a72" x="485.716816" y="93.840354" style="fill: #2ca02c; stroke: #2ca02c"/>
     <use xlink:href="#m97b3198a72" x="501.082428" y="93.840354" style="fill: #2ca02c; stroke: #2ca02c"/>
     <use xlink:href="#m97b3198a72" x="516.44804" y="93.840354" style="fill: #2ca02c; stroke: #2ca02c"/>
     <use xlink:href="#m97b3198a72" x="531.813651" y="93.840354" style="fill: #2ca02c; stroke: #2ca02c"/>
     <use xlink:href="#m97b3198a72" x="547.179263" y="93.840354" style="fill: #2ca02c; stroke: #2ca02c"/>
     <use xlink:href="#m97b3198a72" x="562.544875" y="77.114806" style="fill: #2ca02c; stroke: #2ca02c"/>
     <use xlink:href="#m97b3198a72" x="577.910487" y="77.114806" style="fill: #2ca02c; stroke: #2ca02c"/>
     <use xlink:href="#m97b3198a72" x="593.276099" y="77.114806" style="fill: #2ca02c; stroke: #2ca02c"/>
     <use xlink:href="#m97b3198a72" x="608.641711" y="77.114806" style="fill: #2ca02c; stroke: #2ca02c"/>
     <use xlink:href="#m97b3198a72" x="624.007323" y="77.114806" style="fill: #2ca02c; stroke: #2ca02c"/>
     <use xlink:href="#m97b3198a72" x="639.372935" y="77.114806" style="fill: #2ca02c; stroke: #2ca02c"/>
     <use xlink:href="#m97b3198a72" x="654.738546" y="77.114806" style="fill: #2ca02c; stroke: #2ca02c"/>
     <use xlink:href="#m97b3198a72" x="670.104158" y="77.114806" style="fill: #2ca02c; stroke: #2ca02c"/>
     <use xlink:href="#m97b3198a72" x="685.46977" y="77.114806" style="fill: #2ca02c; stroke: #2ca02c"/>
     <use xlink:href="#m97b3198a72" x="700.835382" y="77.114806" style="fill: #2ca02c; stroke: #2ca02c"/>
     <use xlink:href="#m97b3198a72" x="716.200994" y="77.114806" style="fill: #2ca02c; stroke: #2ca02c"/>
     <use xlink:href="#m97b3198a72" x="731.566606" y="77.114806" style="fill: #2ca02c; stroke: #2ca02c"/>
     <use xlink:href="#m97b3198a72" x="746.932218" y="77.114806" style="fill: #2ca02c; stroke: #2ca02c"/>
     <use xlink:href="#m97b3198a72" x="762.297829" y="77.114806" style="fill: #2ca02c; stroke: #2ca02c"/>
     <use xlink:href="#m97b3198a72" x="777.663441" y="77.114806" style="fill: #2ca02c; stroke: #2ca02c"/>
     <use xlink:href="#m97b3198a72" x="793.029053" y="77.114806" style="fill: #2ca02c; stroke: #2ca02c"/>
    </g>
   </g>
   <g id="line2d_30">
    <path d="M 86.210907 385.534325 
L 101.576519 363.055189 
L 116.942131 337.364748 
L 132.307743 323.716701 
L 147.673355 308.552204 
L 163.038967 281.612922 
L 178.404578 251.997552 
L 193.77019 242.720448 
L 209.135802 213.997107 
L 224.501414 196.602538 
L 239.867026 165.203109 
L 255.232638 147.897743 
L 270.59825 92.681134 
L 316.695085 92.681134 
L 332.060697 92.681134 
L 347.426309 92.681134 
L 362.791921 92.681134 
L 378.157533 92.681134 
L 408.888757 92.681134 
L 424.254368 92.681134 
L 439.61998 92.681134 
L 454.985592 92.681134 
L 470.351204 92.681134 
L 485.716816 81.976784 
L 501.082428 81.976784 
L 516.44804 81.976784 
L 531.813651 81.976784 
L 547.179263 81.976784 
L 562.544875 75.732579 
L 577.910487 75.732579 
L 593.276099 75.732579 
L 608.641711 75.732579 
L 624.007323 75.732579 
L 639.372935 75.732579 
L 654.738546 75.732579 
L 670.104158 75.732579 
L 685.46977 75.732579 
L 700.835382 75.732579 
L 716.200994 75.732579 
L 731.566606 75.732579 
L 746.932218 75.732579 
L 762.297829 75.732579 
L 777.663441 75.732579 
L 793.029053 75.732579 
" clip-path="url(#p73cbe46fb6)" style="fill: none; stroke: #d62728; stroke-width: 1.5; stroke-linecap: square"/>
    <defs>
     <path id="m1ad82d1b2d" d="M 0 3.5 
C 0.928211 3.5 1.81853 3.131218 2.474874 2.474874 
C 3.131218 1.81853 3.5 0.928211 3.5 0 
C 3.5 -0.928211 3.131218 -1.81853 2.474874 -2.474874 
C 1.81853 -3.131218 0.928211 -3.5 0 -3.5 
C -0.928211 -3.5 -1.81853 -3.131218 -2.474874 -2.474874 
C -3.131218 -1.81853 -3.5 -0.928211 -3.5 0 
C -3.5 0.928211 -3.131218 1.81853 -2.474874 2.474874 
C -1.81853 3.131218 -0.928211 3.5 0 3.5 
z
" style="stroke: #d62728"/>
    </defs>
    <g clip-path="url(#p73cbe46fb6)">
     <use xlink:href="#m1ad82d1b2d" x="86.210907" y="385.534325" style="fill: #d62728; stroke: #d62728"/>
     <use xlink:href="#m1ad82d1b2d" x="101.576519" y="363.055189" style="fill: #d62728; stroke: #d62728"/>
     <use xlink:href="#m1ad82d1b2d" x="116.942131" y="337.364748" style="fill: #d62728; stroke: #d62728"/>
     <use xlink:href="#m1ad82d1b2d" x="132.307743" y="323.716701" style="fill: #d62728; stroke: #d62728"/>
     <use xlink:href="#m1ad82d1b2d" x="147.673355" y="308.552204" style="fill: #d62728; stroke: #d62728"/>
     <use xlink:href="#m1ad82d1b2d" x="163.038967" y="281.612922" style="fill: #d62728; stroke: #d62728"/>
     <use xlink:href="#m1ad82d1b2d" x="178.404578" y="251.997552" style="fill: #d62728; stroke: #d62728"/>
     <use xlink:href="#m1ad82d1b2d" x="193.77019" y="242.720448" style="fill: #d62728; stroke: #d62728"/>
     <use xlink:href="#m1ad82d1b2d" x="209.135802" y="213.997107" style="fill: #d62728; stroke: #d62728"/>
     <use xlink:href="#m1ad82d1b2d" x="224.501414" y="196.602538" style="fill: #d62728; stroke: #d62728"/>
     <use xlink:href="#m1ad82d1b2d" x="239.867026" y="165.203109" style="fill: #d62728; stroke: #d62728"/>
     <use xlink:href="#m1ad82d1b2d" x="255.232638" y="147.897743" style="fill: #d62728; stroke: #d62728"/>
     <use xlink:href="#m1ad82d1b2d" x="270.59825" y="92.681134" style="fill: #d62728; stroke: #d62728"/>
     <use xlink:href="#m1ad82d1b2d" x="316.695085" y="92.681134" style="fill: #d62728; stroke: #d62728"/>
     <use xlink:href="#m1ad82d1b2d" x="332.060697" y="92.681134" style="fill: #d62728; stroke: #d62728"/>
     <use xlink:href="#m1ad82d1b2d" x="347.426309" y="92.681134" style="fill: #d62728; stroke: #d62728"/>
     <use xlink:href="#m1ad82d1b2d" x="362.791921" y="92.681134" style="fill: #d62728; stroke: #d62728"/>
     <use xlink:href="#m1ad82d1b2d" x="378.157533" y="92.681134" style="fill: #d62728; stroke: #d62728"/>
     <use xlink:href="#m1ad82d1b2d" x="408.888757" y="92.681134" style="fill: #d62728; stroke: #d62728"/>
     <use xlink:href="#m1ad82d1b2d" x="424.254368" y="92.681134" style="fill: #d62728; stroke: #d62728"/>
     <use xlink:href="#m1ad82d1b2d" x="439.61998" y="92.681134" style="fill: #d62728; stroke: #d62728"/>
     <use xlink:href="#m1ad82d1b2d" x="454.985592" y="92.681134" style="fill: #d62728; stroke: #d62728"/>
     <use xlink:href="#m1ad82d1b2d" x="470.351204" y="92.681134" style="fill: #d62728; stroke: #d62728"/>
     <use xlink:href="#m1ad82d1b2d" x="485.716816" y="81.976784" style="fill: #d62728; stroke: #d62728"/>
     <use xlink:href="#m1ad82d1b2d" x="501.082428" y="81.976784" style="fill: #d62728; stroke: #d62728"/>
     <use xlink:href="#m1ad82d1b2d" x="516.44804" y="81.976784" style="fill: #d62728; stroke: #d62728"/>
     <use xlink:href="#m1ad82d1b2d" x="531.813651" y="81.976784" style="fill: #d62728; stroke: #d62728"/>
     <use xlink:href="#m1ad82d1b2d" x="547.179263" y="81.976784" style="fill: #d62728; stroke: #d62728"/>
     <use xlink:href="#m1ad82d1b2d" x="562.544875" y="75.732579" style="fill: #d62728; stroke: #d62728"/>
     <use xlink:href="#m1ad82d1b2d" x="577.910487" y="75.732579" style="fill: #d62728; stroke: #d62728"/>
     <use xlink:href="#m1ad82d1b2d" x="593.276099" y="75.732579" style="fill: #d62728; stroke: #d62728"/>
     <use xlink:href="#m1ad82d1b2d" x="608.641711" y="75.732579" style="fill: #d62728; stroke: #d62728"/>
     <use xlink:href="#m1ad82d1b2d" x="624.007323" y="75.732579" style="fill: #d62728; stroke: #d62728"/>
     <use xlink:href="#m1ad82d1b2d" x="639.372935" y="75.732579" style="fill: #d62728; stroke: #d62728"/>
     <use xlink:href="#m1ad82d1b2d" x="654.738546" y="75.732579" style="fill: #d62728; stroke: #d62728"/>
     <use xlink:href="#m1ad82d1b2d" x="670.104158" y="75.732579" style="fill: #d62728; stroke: #d62728"/>
     <use xlink:href="#m1ad82d1b2d" x="685.46977" y="75.732579" style="fill: #d62728; stroke: #d62728"/>
     <use xlink:href="#m1ad82d1b2d" x="700.835382" y="75.732579" style="fill: #d62728; stroke: #d62728"/>
     <use xlink:href="#m1ad82d1b2d" x="716.200994" y="75.732579" style="fill: #d62728; stroke: #d62728"/>
     <use xlink:href="#m1ad82d1b2d" x="731.566606" y="75.732579" style="fill: #d62728; stroke: #d62728"/>
     <use xlink:href="#m1ad82d1b2d" x="746.932218" y="75.732579" style="fill: #d62728; stroke: #d62728"/>
     <use xlink:href="#m1ad82d1b2d" x="762.297829" y="75.732579" style="fill: #d62728; stroke: #d62728"/>
     <use xlink:href="#m1ad82d1b2d" x="777.663441" y="75.732579" style="fill: #d62728; stroke: #d62728"/>
     <use xlink:href="#m1ad82d1b2d" x="793.029053" y="75.732579" style="fill: #d62728; stroke: #d62728"/>
    </g>
   </g>
   <g id="line2d_31">
    <path d="M 86.210907 386.972727 
L 101.576519 361.252552 
L 116.942131 341.627909 
L 132.307743 324.084668 
L 147.673355 307.136113 
L 163.038967 285.727411 
L 178.404578 273.685017 
L 193.77019 262.534652 
L 209.135802 232.949016 
L 224.501414 212.581016 
L 239.867026 172.142358 
L 255.232638 155.342475 
L 270.59825 108.213598 
L 316.695085 108.213598 
L 332.060697 108.213598 
L 347.426309 108.213598 
L 362.791921 108.213598 
L 378.157533 108.213598 
L 408.888757 108.213598 
L 424.254368 108.213598 
L 439.61998 108.213598 
L 454.985592 108.213598 
L 470.351204 108.213598 
L 485.716816 92.603087 
L 501.082428 92.603087 
L 516.44804 92.603087 
L 531.813651 92.603087 
L 547.179263 92.603087 
L 562.544875 73.275787 
L 577.910487 73.275787 
L 593.276099 73.275787 
L 608.641711 73.275787 
L 624.007323 73.275787 
L 639.372935 73.275787 
L 654.738546 73.275787 
L 670.104158 73.275787 
L 685.46977 73.275787 
L 700.835382 73.275787 
L 716.200994 73.275787 
L 731.566606 73.275787 
L 746.932218 73.275787 
L 762.297829 73.275787 
L 777.663441 73.275787 
L 793.029053 73.275787 
" clip-path="url(#p73cbe46fb6)" style="fill: none; stroke: #9467bd; stroke-width: 1.5; stroke-linecap: square"/>
    <defs>
     <path id="mf1b001ee53" d="M 0 3.5 
C 0.928211 3.5 1.81853 3.131218 2.474874 2.474874 
C 3.131218 1.81853 3.5 0.928211 3.5 0 
C 3.5 -0.928211 3.131218 -1.81853 2.474874 -2.474874 
C 1.81853 -3.131218 0.928211 -3.5 0 -3.5 
C -0.928211 -3.5 -1.81853 -3.131218 -2.474874 -2.474874 
C -3.131218 -1.81853 -3.5 -0.928211 -3.5 0 
C -3.5 0.928211 -3.131218 1.81853 -2.474874 2.474874 
C -1.81853 3.131218 -0.928211 3.5 0 3.5 
z
" style="stroke: #9467bd"/>
    </defs>
    <g clip-path="url(#p73cbe46fb6)">
     <use xlink:href="#mf1b001ee53" x="86.210907" y="386.972727" style="fill: #9467bd; stroke: #9467bd"/>
     <use xlink:href="#mf1b001ee53" x="101.576519" y="361.252552" style="fill: #9467bd; stroke: #9467bd"/>
     <use xlink:href="#mf1b001ee53" x="116.942131" y="341.627909" style="fill: #9467bd; stroke: #9467bd"/>
     <use xlink:href="#mf1b001ee53" x="132.307743" y="324.084668" style="fill: #9467bd; stroke: #9467bd"/>
     <use xlink:href="#mf1b001ee53" x="147.673355" y="307.136113" style="fill: #9467bd; stroke: #9467bd"/>
     <use xlink:href="#mf1b001ee53" x="163.038967" y="285.727411" style="fill: #9467bd; stroke: #9467bd"/>
     <use xlink:href="#mf1b001ee53" x="178.404578" y="273.685017" style="fill: #9467bd; stroke: #9467bd"/>
     <use xlink:href="#mf1b001ee53" x="193.77019" y="262.534652" style="fill: #9467bd; stroke: #9467bd"/>
     <use xlink:href="#mf1b001ee53" x="209.135802" y="232.949016" style="fill: #9467bd; stroke: #9467bd"/>
     <use xlink:href="#mf1b001ee53" x="224.501414" y="212.581016" style="fill: #9467bd; stroke: #9467bd"/>
     <use xlink:href="#mf1b001ee53" x="239.867026" y="172.142358" style="fill: #9467bd; stroke: #9467bd"/>
     <use xlink:href="#mf1b001ee53" x="255.232638" y="155.342475" style="fill: #9467bd; stroke: #9467bd"/>
     <use xlink:href="#mf1b001ee53" x="270.59825" y="108.213598" style="fill: #9467bd; stroke: #9467bd"/>
     <use xlink:href="#mf1b001ee53" x="316.695085" y="108.213598" style="fill: #9467bd; stroke: #9467bd"/>
     <use xlink:href="#mf1b001ee53" x="332.060697" y="108.213598" style="fill: #9467bd; stroke: #9467bd"/>
     <use xlink:href="#mf1b001ee53" x="347.426309" y="108.213598" style="fill: #9467bd; stroke: #9467bd"/>
     <use xlink:href="#mf1b001ee53" x="362.791921" y="108.213598" style="fill: #9467bd; stroke: #9467bd"/>
     <use xlink:href="#mf1b001ee53" x="378.157533" y="108.213598" style="fill: #9467bd; stroke: #9467bd"/>
     <use xlink:href="#mf1b001ee53" x="408.888757" y="108.213598" style="fill: #9467bd; stroke: #9467bd"/>
     <use xlink:href="#mf1b001ee53" x="424.254368" y="108.213598" style="fill: #9467bd; stroke: #9467bd"/>
     <use xlink:href="#mf1b001ee53" x="439.61998" y="108.213598" style="fill: #9467bd; stroke: #9467bd"/>
     <use xlink:href="#mf1b001ee53" x="454.985592" y="108.213598" style="fill: #9467bd; stroke: #9467bd"/>
     <use xlink:href="#mf1b001ee53" x="470.351204" y="108.213598" style="fill: #9467bd; stroke: #9467bd"/>
     <use xlink:href="#mf1b001ee53" x="485.716816" y="92.603087" style="fill: #9467bd; stroke: #9467bd"/>
     <use xlink:href="#mf1b001ee53" x="501.082428" y="92.603087" style="fill: #9467bd; stroke: #9467bd"/>
     <use xlink:href="#mf1b001ee53" x="516.44804" y="92.603087" style="fill: #9467bd; stroke: #9467bd"/>
     <use xlink:href="#mf1b001ee53" x="531.813651" y="92.603087" style="fill: #9467bd; stroke: #9467bd"/>
     <use xlink:href="#mf1b001ee53" x="547.179263" y="92.603087" style="fill: #9467bd; stroke: #9467bd"/>
     <use xlink:href="#mf1b001ee53" x="562.544875" y="73.275787" style="fill: #9467bd; stroke: #9467bd"/>
     <use xlink:href="#mf1b001ee53" x="577.910487" y="73.275787" style="fill: #9467bd; stroke: #9467bd"/>
     <use xlink:href="#mf1b001ee53" x="593.276099" y="73.275787" style="fill: #9467bd; stroke: #9467bd"/>
     <use xlink:href="#mf1b001ee53" x="608.641711" y="73.275787" style="fill: #9467bd; stroke: #9467bd"/>
     <use xlink:href="#mf1b001ee53" x="624.007323" y="73.275787" style="fill: #9467bd; stroke: #9467bd"/>
     <use xlink:href="#mf1b001ee53" x="639.372935" y="73.275787" style="fill: #9467bd; stroke: #9467bd"/>
     <use xlink:href="#mf1b001ee53" x="654.738546" y="73.275787" style="fill: #9467bd; stroke: #9467bd"/>
     <use xlink:href="#mf1b001ee53" x="670.104158" y="73.275787" style="fill: #9467bd; stroke: #9467bd"/>
     <use xlink:href="#mf1b001ee53" x="685.46977" y="73.275787" style="fill: #9467bd; stroke: #9467bd"/>
     <use xlink:href="#mf1b001ee53" x="700.835382" y="73.275787" style="fill: #9467bd; stroke: #9467bd"/>
     <use xlink:href="#mf1b001ee53" x="716.200994" y="73.275787" style="fill: #9467bd; stroke: #9467bd"/>
     <use xlink:href="#mf1b001ee53" x="731.566606" y="73.275787" style="fill: #9467bd; stroke: #9467bd"/>
     <use xlink:href="#mf1b001ee53" x="746.932218" y="73.275787" style="fill: #9467bd; stroke: #9467bd"/>
     <use xlink:href="#mf1b001ee53" x="762.297829" y="73.275787" style="fill: #9467bd; stroke: #9467bd"/>
     <use xlink:href="#mf1b001ee53" x="777.663441" y="73.275787" style="fill: #9467bd; stroke: #9467bd"/>
     <use xlink:href="#mf1b001ee53" x="793.029053" y="73.275787" style="fill: #9467bd; stroke: #9467bd"/>
    </g>
   </g>
   <g id="line2d_32">
    <path d="M 86.210907 381.214316 
L 101.576519 356.460505 
L 116.942131 330.145643 
L 132.307743 314.089117 
L 147.673355 296.248533 
L 163.038967 273.055773 
L 178.404578 253.208123 
L 193.77019 236.259568 
L 209.135802 201.916444 
L 224.501414 182.960823 
L 239.867026 148.840705 
L 255.232638 132.115158 
L 270.59825 79.708441 
L 316.695085 79.708441 
L 332.060697 79.708441 
L 347.426309 79.708441 
L 362.791921 79.708441 
L 378.157533 79.708441 
L 408.888757 79.708441 
L 424.254368 79.708441 
L 439.61998 79.708441 
L 454.985592 79.708441 
L 470.351204 79.708441 
L 485.716816 66.328003 
L 501.082428 66.328003 
L 516.44804 66.328003 
L 531.813651 66.328003 
L 547.179263 66.328003 
L 562.544875 44.027273 
L 577.910487 44.027273 
L 593.276099 44.027273 
L 608.641711 44.027273 
L 624.007323 44.027273 
L 639.372935 44.027273 
L 654.738546 44.027273 
L 670.104158 44.027273 
L 685.46977 44.027273 
L 700.835382 44.027273 
L 716.200994 44.027273 
L 731.566606 44.027273 
L 746.932218 44.027273 
L 762.297829 44.027273 
L 777.663441 44.027273 
L 793.029053 44.027273 
" clip-path="url(#p73cbe46fb6)" style="fill: none; stroke: #8c564b; stroke-width: 1.5; stroke-linecap: square"/>
    <defs>
     <path id="m7a7e4d5889" d="M 0 3.5 
C 0.928211 3.5 1.81853 3.131218 2.474874 2.474874 
C 3.131218 1.81853 3.5 0.928211 3.5 0 
C 3.5 -0.928211 3.131218 -1.81853 2.474874 -2.474874 
C 1.81853 -3.131218 0.928211 -3.5 0 -3.5 
C -0.928211 -3.5 -1.81853 -3.131218 -2.474874 -2.474874 
C -3.131218 -1.81853 -3.5 -0.928211 -3.5 0 
C -3.5 0.928211 -3.131218 1.81853 -2.474874 2.474874 
C -1.81853 3.131218 -0.928211 3.5 0 3.5 
z
" style="stroke: #8c564b"/>
    </defs>
    <g clip-path="url(#p73cbe46fb6)">
     <use xlink:href="#m7a7e4d5889" x="86.210907" y="381.214316" style="fill: #8c564b; stroke: #8c564b"/>
     <use xlink:href="#m7a7e4d5889" x="101.576519" y="356.460505" style="fill: #8c564b; stroke: #8c564b"/>
     <use xlink:href="#m7a7e4d5889" x="116.942131" y="330.145643" style="fill: #8c564b; stroke: #8c564b"/>
     <use xlink:href="#m7a7e4d5889" x="132.307743" y="314.089117" style="fill: #8c564b; stroke: #8c564b"/>
     <use xlink:href="#m7a7e4d5889" x="147.673355" y="296.248533" style="fill: #8c564b; stroke: #8c564b"/>
     <use xlink:href="#m7a7e4d5889" x="163.038967" y="273.055773" style="fill: #8c564b; stroke: #8c564b"/>
     <use xlink:href="#m7a7e4d5889" x="178.404578" y="253.208123" style="fill: #8c564b; stroke: #8c564b"/>
     <use xlink:href="#m7a7e4d5889" x="193.77019" y="236.259568" style="fill: #8c564b; stroke: #8c564b"/>
     <use xlink:href="#m7a7e4d5889" x="209.135802" y="201.916444" style="fill: #8c564b; stroke: #8c564b"/>
     <use xlink:href="#m7a7e4d5889" x="224.501414" y="182.960823" style="fill: #8c564b; stroke: #8c564b"/>
     <use xlink:href="#m7a7e4d5889" x="239.867026" y="148.840705" style="fill: #8c564b; stroke: #8c564b"/>
     <use xlink:href="#m7a7e4d5889" x="255.232638" y="132.115158" style="fill: #8c564b; stroke: #8c564b"/>
     <use xlink:href="#m7a7e4d5889" x="270.59825" y="79.708441" style="fill: #8c564b; stroke: #8c564b"/>
     <use xlink:href="#m7a7e4d5889" x="316.695085" y="79.708441" style="fill: #8c564b; stroke: #8c564b"/>
     <use xlink:href="#m7a7e4d5889" x="332.060697" y="79.708441" style="fill: #8c564b; stroke: #8c564b"/>
     <use xlink:href="#m7a7e4d5889" x="347.426309" y="79.708441" style="fill: #8c564b; stroke: #8c564b"/>
     <use xlink:href="#m7a7e4d5889" x="362.791921" y="79.708441" style="fill: #8c564b; stroke: #8c564b"/>
     <use xlink:href="#m7a7e4d5889" x="378.157533" y="79.708441" style="fill: #8c564b; stroke: #8c564b"/>
     <use xlink:href="#m7a7e4d5889" x="408.888757" y="79.708441" style="fill: #8c564b; stroke: #8c564b"/>
     <use xlink:href="#m7a7e4d5889" x="424.254368" y="79.708441" style="fill: #8c564b; stroke: #8c564b"/>
     <use xlink:href="#m7a7e4d5889" x="439.61998" y="79.708441" style="fill: #8c564b; stroke: #8c564b"/>
     <use xlink:href="#m7a7e4d5889" x="454.985592" y="79.708441" style="fill: #8c564b; stroke: #8c564b"/>
     <use xlink:href="#m7a7e4d5889" x="470.351204" y="79.708441" style="fill: #8c564b; stroke: #8c564b"/>
     <use xlink:href="#m7a7e4d5889" x="485.716816" y="66.328003" style="fill: #8c564b; stroke: #8c564b"/>
     <use xlink:href="#m7a7e4d5889" x="501.082428" y="66.328003" style="fill: #8c564b; stroke: #8c564b"/>
     <use xlink:href="#m7a7e4d5889" x="516.44804" y="66.328003" style="fill: #8c564b; stroke: #8c564b"/>
     <use xlink:href="#m7a7e4d5889" x="531.813651" y="66.328003" style="fill: #8c564b; stroke: #8c564b"/>
     <use xlink:href="#m7a7e4d5889" x="547.179263" y="66.328003" style="fill: #8c564b; stroke: #8c564b"/>
     <use xlink:href="#m7a7e4d5889" x="562.544875" y="44.027273" style="fill: #8c564b; stroke: #8c564b"/>
     <use xlink:href="#m7a7e4d5889" x="577.910487" y="44.027273" style="fill: #8c564b; stroke: #8c564b"/>
     <use xlink:href="#m7a7e4d5889" x="593.276099" y="44.027273" style="fill: #8c564b; stroke: #8c564b"/>
     <use xlink:href="#m7a7e4d5889" x="608.641711" y="44.027273" style="fill: #8c564b; stroke: #8c564b"/>
     <use xlink:href="#m7a7e4d5889" x="624.007323" y="44.027273" style="fill: #8c564b; stroke: #8c564b"/>
     <use xlink:href="#m7a7e4d5889" x="639.372935" y="44.027273" style="fill: #8c564b; stroke: #8c564b"/>
     <use xlink:href="#m7a7e4d5889" x="654.738546" y="44.027273" style="fill: #8c564b; stroke: #8c564b"/>
     <use xlink:href="#m7a7e4d5889" x="670.104158" y="44.027273" style="fill: #8c564b; stroke: #8c564b"/>
     <use xlink:href="#m7a7e4d5889" x="685.46977" y="44.027273" style="fill: #8c564b; stroke: #8c564b"/>
     <use xlink:href="#m7a7e4d5889" x="700.835382" y="44.027273" style="fill: #8c564b; stroke: #8c564b"/>
     <use xlink:href="#m7a7e4d5889" x="716.200994" y="44.027273" style="fill: #8c564b; stroke: #8c564b"/>
     <use xlink:href="#m7a7e4d5889" x="731.566606" y="44.027273" style="fill: #8c564b; stroke: #8c564b"/>
     <use xlink:href="#m7a7e4d5889" x="746.932218" y="44.027273" style="fill: #8c564b; stroke: #8c564b"/>
     <use xlink:href="#m7a7e4d5889" x="762.297829" y="44.027273" style="fill: #8c564b; stroke: #8c564b"/>
     <use xlink:href="#m7a7e4d5889" x="777.663441" y="44.027273" style="fill: #8c564b; stroke: #8c564b"/>
     <use xlink:href="#m7a7e4d5889" x="793.029053" y="44.027273" style="fill: #8c564b; stroke: #8c564b"/>
    </g>
   </g>
   <g id="patch_3">
    <path d="M 50.87 404.12 
L 50.87 26.88 
" style="fill: none; stroke: #000000; stroke-width: 0.8; stroke-linejoin: miter; stroke-linecap: square"/>
   </g>
   <g id="patch_4">
    <path d="M 828.36996 404.12 
L 828.36996 26.88 
" style="fill: none; stroke: #000000; stroke-width: 0.8; stroke-linejoin: miter; stroke-linecap: square"/>
   </g>
   <g id="patch_5">
    <path d="M 50.87 404.12 
L 828.36996 404.12 
" style="fill: none; stroke: #000000; stroke-width: 0.8; stroke-linejoin: miter; stroke-linecap: square"/>
   </g>
   <g id="patch_6">
    <path d="M 50.87 26.88 
L 828.36996 26.88 
" style="fill: none; stroke: #000000; stroke-width: 0.8; stroke-linejoin: miter; stroke-linecap: square"/>
   </g>
   <g id="text_15">
    <!-- Standings -->
    <g transform="translate(409.76623 20.88) scale(0.12 -0.12)">
     <defs>
      <path id="DejaVuSans-74" d="M 1172 4494 
L 1172 3500 
L 2356 3500 
L 2356 3053 
L 1172 3053 
L 1172 1153 
Q 1172 725 1289 603 
Q 1406 481 1766 481 
L 2356 481 
L 2356 0 
L 1766 0 
Q 1100 0 847 248 
Q 594 497 594 1153 
L 594 3053 
L 172 3053 
L 172 3500 
L 594 3500 
L 594 4494 
L 1172 4494 
z
" transform="scale(0.015625)"/>
      <path id="DejaVuSans-61" d="M 2194 1759 
Q 1497 1759 1228 1600 
Q 959 1441 959 1056 
Q 959 750 1161 570 
Q 1363 391 1709 391 
Q 2188 391 2477 730 
Q 2766 1069 2766 1631 
L 2766 1759 
L 2194 1759 
z
M 3341 1997 
L 3341 0 
L 2766 0 
L 2766 531 
Q 2569 213 2275 61 
Q 1981 -91 1556 -91 
Q 1019 -91 701 211 
Q 384 513 384 1019 
Q 384 1609 779 1909 
Q 1175 2209 1959 2209 
L 2766 2209 
L 2766 2266 
Q 2766 2663 2505 2880 
Q 2244 3097 1772 3097 
Q 1472 3097 1187 3025 
Q 903 2953 641 2809 
L 641 3341 
Q 956 3463 1253 3523 
Q 1550 3584 1831 3584 
Q 2591 3584 2966 3190 
Q 3341 2797 3341 1997 
z
" transform="scale(0.015625)"/>
      <path id="DejaVuSans-6e" d="M 3513 2113 
L 3513 0 
L 2938 0 
L 2938 2094 
Q 2938 2591 2744 2837 
Q 2550 3084 2163 3084 
Q 1697 3084 1428 2787 
Q 1159 2491 1159 1978 
L 1159 0 
L 581 0 
L 581 3500 
L 1159 3500 
L 1159 2956 
Q 1366 3272 1645 3428 
Q 1925 3584 2291 3584 
Q 2894 3584 3203 3211 
Q 3513 2838 3513 2113 
z
" transform="scale(0.015625)"/>
      <path id="DejaVuSans-64" d="M 2906 2969 
L 2906 4863 
L 3481 4863 
L 3481 0 
L 2906 0 
L 2906 525 
Q 2725 213 2448 61 
Q 2172 -91 1784 -91 
Q 1150 -91 751 415 
Q 353 922 353 1747 
Q 353 2572 751 3078 
Q 1150 3584 1784 3584 
Q 2172 3584 2448 3432 
Q 2725 3281 2906 2969 
z
M 947 1747 
Q 947 1113 1208 752 
Q 1469 391 1925 391 
Q 2381 391 2643 752 
Q 2906 1113 2906 1747 
Q 2906 2381 2643 2742 
Q 2381 3103 1925 3103 
Q 1469 3103 1208 2742 
Q 947 2381 947 1747 
z
" transform="scale(0.015625)"/>
      <path id="DejaVuSans-69" d="M 603 3500 
L 1178 3500 
L 1178 0 
L 603 0 
L 603 3500 
z
M 603 4863 
L 1178 4863 
L 1178 4134 
L 603 4134 
L 603 4863 
z
" transform="scale(0.015625)"/>
      <path id="DejaVuSans-67" d="M 2906 1791 
Q 2906 2416 2648 2759 
Q 2391 3103 1925 3103 
Q 1463 3103 1205 2759 
Q 947 2416 947 1791 
Q 947 1169 1205 825 
Q 1463 481 1925 481 
Q 2391 481 2648 825 
Q 2906 1169 2906 1791 
z
M 3481 434 
Q 3481 -459 3084 -895 
Q 2688 -1331 1869 -1331 
Q 1566 -1331 1297 -1286 
Q 1028 -1241 775 -1147 
L 775 -588 
Q 1028 -725 1275 -790 
Q 1522 -856 1778 -856 
Q 2344 -856 2625 -561 
Q 2906 -266 2906 331 
L 2906 616 
Q 2728 306 2450 153 
Q 2172 0 1784 0 
Q 1141 0 747 490 
Q 353 981 353 1791 
Q 353 2603 747 3093 
Q 1141 3584 1784 3584 
Q 2172 3584 2450 3431 
Q 2728 3278 2906 2969 
L 2906 3500 
L 3481 3500 
L 3481 434 
z
" transform="scale(0.015625)"/>
      <path id="DejaVuSans-73" d="M 2834 3397 
L 2834 2853 
Q 2591 2978 2328 3040 
Q 2066 3103 1784 3103 
Q 1356 3103 1142 2972 
Q 928 2841 928 2578 
Q 928 2378 1081 2264 
Q 1234 2150 1697 2047 
L 1894 2003 
Q 2506 1872 2764 1633 
Q 3022 1394 3022 966 
Q 3022 478 2636 193 
Q 2250 -91 1575 -91 
Q 1294 -91 989 -36 
Q 684 19 347 128 
L 347 722 
Q 666 556 975 473 
Q 1284 391 1588 391 
Q 1994 391 2212 530 
Q 2431 669 2431 922 
Q 2431 1156 2273 1281 
Q 2116 1406 1581 1522 
L 1381 1569 
Q 847 1681 609 1914 
Q 372 2147 372 2553 
Q 372 3047 722 3315 
Q 1072 3584 1716 3584 
Q 2034 3584 2315 3537 
Q 2597 3491 2834 3397 
z
" transform="scale(0.015625)"/>
     </defs>
     <use xlink:href="#DejaVuSans-53"/>
     <use xlink:href="#DejaVuSans-74" x="63.476562"/>
     <use xlink:href="#DejaVuSans-61" x="102.685547"/>
     <use xlink:href="#DejaVuSans-6e" x="163.964844"/>
     <use xlink:href="#DejaVuSans-64" x="227.34375"/>
     <use xlink:href="#DejaVuSans-69" x="290.820312"/>
     <use xlink:href="#DejaVuSans-6e" x="318.603516"/>
     <use xlink:href="#DejaVuSans-67" x="381.982422"/>
     <use xlink:href="#DejaVuSans-73" x="445.458984"/>
    </g>
   </g>
   <g id="legend_1">
    <g id="patch_7">
     <path d="M 614.521523 399.12 
L 821.36996 399.12 
Q 823.36996 399.12 823.36996 397.12 
L 823.36996 310.05125 
Q 823.36996 308.05125 821.36996 308.05125 
L 614.521523 308.05125 
Q 612.521523 308.05125 612.521523 310.05125 
L 612.521523 397.12 
Q 612.521523 399.12 614.521523 399.12 
z
" style="fill: #ffffff; opacity: 0.8; stroke: #cccccc; stroke-linejoin: miter"/>
    </g>
    <g id="line2d_33">
     <path d="M 616.521523 316.149688 
L 626.521523 316.149688 
L 636.521523 316.149688 
" style="fill: none; stroke: #1f77b4; stroke-width: 1.5; stroke-linecap: square"/>
     <g>
      <use xlink:href="#m389817b727" x="626.521523" y="316.149688" style="fill: #1f77b4; stroke: #1f77b4"/>
     </g>
    </g>
    <g id="text_16">
     <!-- European Sperm Bank -->
     <g transform="translate(644.521523 319.649688) scale(0.1 -0.1)">
      <defs>
       <path id="DejaVuSans-45" d="M 628 4666 
L 3578 4666 
L 3578 4134 
L 1259 4134 
L 1259 2753 
L 3481 2753 
L 3481 2222 
L 1259 2222 
L 1259 531 
L 3634 531 
L 3634 0 
L 628 0 
L 628 4666 
z
" transform="scale(0.015625)"/>
       <path id="DejaVuSans-75" d="M 544 1381 
L 544 3500 
L 1119 3500 
L 1119 1403 
Q 1119 906 1312 657 
Q 1506 409 1894 409 
Q 2359 409 2629 706 
Q 2900 1003 2900 1516 
L 2900 3500 
L 3475 3500 
L 3475 0 
L 2900 0 
L 2900 538 
Q 2691 219 2414 64 
Q 2138 -91 1772 -91 
Q 1169 -91 856 284 
Q 544 659 544 1381 
z
M 1991 3584 
L 1991 3584 
z
" transform="scale(0.015625)"/>
       <path id="DejaVuSans-70" d="M 1159 525 
L 1159 -1331 
L 581 -1331 
L 581 3500 
L 1159 3500 
L 1159 2969 
Q 1341 3281 1617 3432 
Q 1894 3584 2278 3584 
Q 2916 3584 3314 3078 
Q 3713 2572 3713 1747 
Q 3713 922 3314 415 
Q 2916 -91 2278 -91 
Q 1894 -91 1617 61 
Q 1341 213 1159 525 
z
M 3116 1747 
Q 3116 2381 2855 2742 
Q 2594 3103 2138 3103 
Q 1681 3103 1420 2742 
Q 1159 2381 1159 1747 
Q 1159 1113 1420 752 
Q 1681 391 2138 391 
Q 2594 391 2855 752 
Q 3116 1113 3116 1747 
z
" transform="scale(0.015625)"/>
       <path id="DejaVuSans-20" transform="scale(0.015625)"/>
       <path id="DejaVuSans-6d" d="M 3328 2828 
Q 3544 3216 3844 3400 
Q 4144 3584 4550 3584 
Q 5097 3584 5394 3201 
Q 5691 2819 5691 2113 
L 5691 0 
L 5113 0 
L 5113 2094 
Q 5113 2597 4934 2840 
Q 4756 3084 4391 3084 
Q 3944 3084 3684 2787 
Q 3425 2491 3425 1978 
L 3425 0 
L 2847 0 
L 2847 2094 
Q 2847 2600 2669 2842 
Q 2491 3084 2119 3084 
Q 1678 3084 1418 2786 
Q 1159 2488 1159 1978 
L 1159 0 
L 581 0 
L 581 3500 
L 1159 3500 
L 1159 2956 
Q 1356 3278 1631 3431 
Q 1906 3584 2284 3584 
Q 2666 3584 2933 3390 
Q 3200 3197 3328 2828 
z
" transform="scale(0.015625)"/>
       <path id="DejaVuSans-42" d="M 1259 2228 
L 1259 519 
L 2272 519 
Q 2781 519 3026 730 
Q 3272 941 3272 1375 
Q 3272 1813 3026 2020 
Q 2781 2228 2272 2228 
L 1259 2228 
z
M 1259 4147 
L 1259 2741 
L 2194 2741 
Q 2656 2741 2882 2914 
Q 3109 3088 3109 3444 
Q 3109 3797 2882 3972 
Q 2656 4147 2194 4147 
L 1259 4147 
z
M 628 4666 
L 2241 4666 
Q 2963 4666 3353 4366 
Q 3744 4066 3744 3513 
Q 3744 3084 3544 2831 
Q 3344 2578 2956 2516 
Q 3422 2416 3680 2098 
Q 3938 1781 3938 1306 
Q 3938 681 3513 340 
Q 3088 0 2303 0 
L 628 0 
L 628 4666 
z
" transform="scale(0.015625)"/>
       <path id="DejaVuSans-6b" d="M 581 4863 
L 1159 4863 
L 1159 1991 
L 2875 3500 
L 3609 3500 
L 1753 1863 
L 3688 0 
L 2938 0 
L 1159 1709 
L 1159 0 
L 581 0 
L 581 4863 
z
" transform="scale(0.015625)"/>
      </defs>
      <use xlink:href="#DejaVuSans-45"/>
      <use xlink:href="#DejaVuSans-75" x="63.183594"/>
      <use xlink:href="#DejaVuSans-72" x="126.5625"/>
      <use xlink:href="#DejaVuSans-6f" x="165.425781"/>
      <use xlink:href="#DejaVuSans-70" x="226.607422"/>
      <use xlink:href="#DejaVuSans-65" x="290.083984"/>
      <use xlink:href="#DejaVuSans-61" x="351.607422"/>
      <use xlink:href="#DejaVuSans-6e" x="412.886719"/>
      <use xlink:href="#DejaVuSans-20" x="476.265625"/>
      <use xlink:href="#DejaVuSans-53" x="508.052734"/>
      <use xlink:href="#DejaVuSans-70" x="571.529297"/>
      <use xlink:href="#DejaVuSans-65" x="635.005859"/>
      <use xlink:href="#DejaVuSans-72" x="696.529297"/>
      <use xlink:href="#DejaVuSans-6d" x="735.892578"/>
      <use xlink:href="#DejaVuSans-20" x="833.304688"/>
      <use xlink:href="#DejaVuSans-42" x="865.091797"/>
      <use xlink:href="#DejaVuSans-61" x="933.695312"/>
      <use xlink:href="#DejaVuSans-6e" x="994.974609"/>
      <use xlink:href="#DejaVuSans-6b" x="1058.353516"/>
     </g>
    </g>
    <g id="line2d_34">
     <path d="M 616.521523 330.827812 
L 626.521523 330.827812 
L 636.521523 330.827812 
" style="fill: none; stroke: #ff7f0e; stroke-width: 1.5; stroke-linecap: square"/>
     <g>
      <use xlink:href="#m5197daefa5" x="626.521523" y="330.827812" style="fill: #ff7f0e; stroke: #ff7f0e"/>
     </g>
    </g>
    <g id="text_17">
     <!-- Frederiksborg Gymnasium -->
     <g transform="translate(644.521523 334.327812) scale(0.1 -0.1)">
      <defs>
       <path id="DejaVuSans-46" d="M 628 4666 
L 3309 4666 
L 3309 4134 
L 1259 4134 
L 1259 2759 
L 3109 2759 
L 3109 2228 
L 1259 2228 
L 1259 0 
L 628 0 
L 628 4666 
z
" transform="scale(0.015625)"/>
       <path id="DejaVuSans-62" d="M 3116 1747 
Q 3116 2381 2855 2742 
Q 2594 3103 2138 3103 
Q 1681 3103 1420 2742 
Q 1159 2381 1159 1747 
Q 1159 1113 1420 752 
Q 1681 391 2138 391 
Q 2594 391 2855 752 
Q 3116 1113 3116 1747 
z
M 1159 2969 
Q 1341 3281 1617 3432 
Q 1894 3584 2278 3584 
Q 2916 3584 3314 3078 
Q 3713 2572 3713 1747 
Q 3713 922 3314 415 
Q 2916 -91 2278 -91 
Q 1894 -91 1617 61 
Q 1341 213 1159 525 
L 1159 0 
L 581 0 
L 581 4863 
L 1159 4863 
L 1159 2969 
z
" transform="scale(0.015625)"/>
       <path id="DejaVuSans-47" d="M 3809 666 
L 3809 1919 
L 2778 1919 
L 2778 2438 
L 4434 2438 
L 4434 434 
Q 4069 175 3628 42 
Q 3188 -91 2688 -91 
Q 1594 -91 976 548 
Q 359 1188 359 2328 
Q 359 3472 976 4111 
Q 1594 4750 2688 4750 
Q 3144 4750 3555 4637 
Q 3966 4525 4313 4306 
L 4313 3634 
Q 3963 3931 3569 4081 
Q 3175 4231 2741 4231 
Q 1884 4231 1454 3753 
Q 1025 3275 1025 2328 
Q 1025 1384 1454 906 
Q 1884 428 2741 428 
Q 3075 428 3337 486 
Q 3600 544 3809 666 
z
" transform="scale(0.015625)"/>
       <path id="DejaVuSans-79" d="M 2059 -325 
Q 1816 -950 1584 -1140 
Q 1353 -1331 966 -1331 
L 506 -1331 
L 506 -850 
L 844 -850 
Q 1081 -850 1212 -737 
Q 1344 -625 1503 -206 
L 1606 56 
L 191 3500 
L 800 3500 
L 1894 763 
L 2988 3500 
L 3597 3500 
L 2059 -325 
z
" transform="scale(0.015625)"/>
      </defs>
      <use xlink:href="#DejaVuSans-46"/>
      <use xlink:href="#DejaVuSans-72" x="50.269531"/>
      <use xlink:href="#DejaVuSans-65" x="89.132812"/>
      <use xlink:href="#DejaVuSans-64" x="150.65625"/>
      <use xlink:href="#DejaVuSans-65" x="214.132812"/>
      <use xlink:href="#DejaVuSans-72" x="275.65625"/>
      <use xlink:href="#DejaVuSans-69" x="316.769531"/>
      <use xlink:href="#DejaVuSans-6b" x="344.552734"/>
      <use xlink:href="#DejaVuSans-73" x="402.462891"/>
      <use xlink:href="#DejaVuSans-62" x="454.5625"/>
      <use xlink:href="#DejaVuSans-6f" x="518.039062"/>
      <use xlink:href="#DejaVuSans-72" x="579.220703"/>
      <use xlink:href="#DejaVuSans-67" x="618.583984"/>
      <use xlink:href="#DejaVuSans-20" x="682.060547"/>
      <use xlink:href="#DejaVuSans-47" x="713.847656"/>
      <use xlink:href="#DejaVuSans-79" x="791.337891"/>
      <use xlink:href="#DejaVuSans-6d" x="850.517578"/>
      <use xlink:href="#DejaVuSans-6e" x="947.929688"/>
      <use xlink:href="#DejaVuSans-61" x="1011.308594"/>
      <use xlink:href="#DejaVuSans-73" x="1072.587891"/>
      <use xlink:href="#DejaVuSans-69" x="1124.6875"/>
      <use xlink:href="#DejaVuSans-75" x="1152.470703"/>
      <use xlink:href="#DejaVuSans-6d" x="1215.849609"/>
     </g>
    </g>
    <g id="line2d_35">
     <path d="M 616.521523 345.505938 
L 626.521523 345.505938 
L 636.521523 345.505938 
" style="fill: none; stroke: #2ca02c; stroke-width: 1.5; stroke-linecap: square"/>
     <g>
      <use xlink:href="#m97b3198a72" x="626.521523" y="345.505938" style="fill: #2ca02c; stroke: #2ca02c"/>
     </g>
    </g>
    <g id="text_18">
     <!-- Friends and Family -->
     <g transform="translate(644.521523 349.005938) scale(0.1 -0.1)">
      <defs>
       <path id="DejaVuSans-6c" d="M 603 4863 
L 1178 4863 
L 1178 0 
L 603 0 
L 603 4863 
z
" transform="scale(0.015625)"/>
      </defs>
      <use xlink:href="#DejaVuSans-46"/>
      <use xlink:href="#DejaVuSans-72" x="50.269531"/>
      <use xlink:href="#DejaVuSans-69" x="91.382812"/>
      <use xlink:href="#DejaVuSans-65" x="119.166016"/>
      <use xlink:href="#DejaVuSans-6e" x="180.689453"/>
      <use xlink:href="#DejaVuSans-64" x="244.068359"/>
      <use xlink:href="#DejaVuSans-73" x="307.544922"/>
      <use xlink:href="#DejaVuSans-20" x="359.644531"/>
      <use xlink:href="#DejaVuSans-61" x="391.431641"/>
      <use xlink:href="#DejaVuSans-6e" x="452.710938"/>
      <use xlink:href="#DejaVuSans-64" x="516.089844"/>
      <use xlink:href="#DejaVuSans-20" x="579.566406"/>
      <use xlink:href="#DejaVuSans-46" x="611.353516"/>
      <use xlink:href="#DejaVuSans-61" x="659.748047"/>
      <use xlink:href="#DejaVuSans-6d" x="721.027344"/>
      <use xlink:href="#DejaVuSans-69" x="818.439453"/>
      <use xlink:href="#DejaVuSans-6c" x="846.222656"/>
      <use xlink:href="#DejaVuSans-79" x="874.005859"/>
     </g>
    </g>
    <g id="line2d_36">
     <path d="M 616.521523 360.184062 
L 626.521523 360.184062 
L 636.521523 360.184062 
" style="fill: none; stroke: #d62728; stroke-width: 1.5; stroke-linecap: square"/>
     <g>
      <use xlink:href="#m1ad82d1b2d" x="626.521523" y="360.184062" style="fill: #d62728; stroke: #d62728"/>
     </g>
    </g>
    <g id="text_19">
     <!-- GeH Fys -->
     <g transform="translate(644.521523 363.684062) scale(0.1 -0.1)">
      <defs>
       <path id="DejaVuSans-48" d="M 628 4666 
L 1259 4666 
L 1259 2753 
L 3553 2753 
L 3553 4666 
L 4184 4666 
L 4184 0 
L 3553 0 
L 3553 2222 
L 1259 2222 
L 1259 0 
L 628 0 
L 628 4666 
z
" transform="scale(0.015625)"/>
      </defs>
      <use xlink:href="#DejaVuSans-47"/>
      <use xlink:href="#DejaVuSans-65" x="77.490234"/>
      <use xlink:href="#DejaVuSans-48" x="139.013672"/>
      <use xlink:href="#DejaVuSans-20" x="214.208984"/>
      <use xlink:href="#DejaVuSans-46" x="245.996094"/>
      <use xlink:href="#DejaVuSans-79" x="294.390625"/>
      <use xlink:href="#DejaVuSans-73" x="353.570312"/>
     </g>
    </g>
    <g id="line2d_37">
     <path d="M 616.521523 374.862188 
L 626.521523 374.862188 
L 636.521523 374.862188 
" style="fill: none; stroke: #9467bd; stroke-width: 1.5; stroke-linecap: square"/>
     <g>
      <use xlink:href="#mf1b001ee53" x="626.521523" y="374.862188" style="fill: #9467bd; stroke: #9467bd"/>
     </g>
    </g>
    <g id="text_20">
     <!-- Next11 -->
     <g transform="translate(644.521523 378.362188) scale(0.1 -0.1)">
      <defs>
       <path id="DejaVuSans-4e" d="M 628 4666 
L 1478 4666 
L 3547 763 
L 3547 4666 
L 4159 4666 
L 4159 0 
L 3309 0 
L 1241 3903 
L 1241 0 
L 628 0 
L 628 4666 
z
" transform="scale(0.015625)"/>
       <path id="DejaVuSans-78" d="M 3513 3500 
L 2247 1797 
L 3578 0 
L 2900 0 
L 1881 1375 
L 863 0 
L 184 0 
L 1544 1831 
L 300 3500 
L 978 3500 
L 1906 2253 
L 2834 3500 
L 3513 3500 
z
" transform="scale(0.015625)"/>
      </defs>
      <use xlink:href="#DejaVuSans-4e"/>
      <use xlink:href="#DejaVuSans-65" x="74.804688"/>
      <use xlink:href="#DejaVuSans-78" x="134.578125"/>
      <use xlink:href="#DejaVuSans-74" x="193.757812"/>
      <use xlink:href="#DejaVuSans-31" x="232.966797"/>
      <use xlink:href="#DejaVuSans-31" x="296.589844"/>
     </g>
    </g>
    <g id="line2d_38">
     <path d="M 616.521523 389.540313 
L 626.521523 389.540313 
L 636.521523 389.540313 
" style="fill: none; stroke: #8c564b; stroke-width: 1.5; stroke-linecap: square"/>
     <g>
      <use xlink:href="#m7a7e4d5889" x="626.521523" y="389.540313" style="fill: #8c564b; stroke: #8c564b"/>
     </g>
    </g>
    <g id="text_21">
     <!-- Quantum and Laser Photonics DTU -->
     <g transform="translate(644.521523 393.040313) scale(0.1 -0.1)">
      <defs>
       <path id="DejaVuSans-51" d="M 2522 4238 
Q 1834 4238 1429 3725 
Q 1025 3213 1025 2328 
Q 1025 1447 1429 934 
Q 1834 422 2522 422 
Q 3209 422 3611 934 
Q 4013 1447 4013 2328 
Q 4013 3213 3611 3725 
Q 3209 4238 2522 4238 
z
M 3406 84 
L 4238 -825 
L 3475 -825 
L 2784 -78 
Q 2681 -84 2626 -87 
Q 2572 -91 2522 -91 
Q 1538 -91 948 567 
Q 359 1225 359 2328 
Q 359 3434 948 4092 
Q 1538 4750 2522 4750 
Q 3503 4750 4090 4092 
Q 4678 3434 4678 2328 
Q 4678 1516 4351 937 
Q 4025 359 3406 84 
z
" transform="scale(0.015625)"/>
       <path id="DejaVuSans-4c" d="M 628 4666 
L 1259 4666 
L 1259 531 
L 3531 531 
L 3531 0 
L 628 0 
L 628 4666 
z
" transform="scale(0.015625)"/>
       <path id="DejaVuSans-50" d="M 1259 4147 
L 1259 2394 
L 2053 2394 
Q 2494 2394 2734 2622 
Q 2975 2850 2975 3272 
Q 2975 3691 2734 3919 
Q 2494 4147 2053 4147 
L 1259 4147 
z
M 628 4666 
L 2053 4666 
Q 2838 4666 3239 4311 
Q 3641 3956 3641 3272 
Q 3641 2581 3239 2228 
Q 2838 1875 2053 1875 
L 1259 1875 
L 1259 0 
L 628 0 
L 628 4666 
z
" transform="scale(0.015625)"/>
       <path id="DejaVuSans-68" d="M 3513 2113 
L 3513 0 
L 2938 0 
L 2938 2094 
Q 2938 2591 2744 2837 
Q 2550 3084 2163 3084 
Q 1697 3084 1428 2787 
Q 1159 2491 1159 1978 
L 1159 0 
L 581 0 
L 581 4863 
L 1159 4863 
L 1159 2956 
Q 1366 3272 1645 3428 
Q 1925 3584 2291 3584 
Q 2894 3584 3203 3211 
Q 3513 2838 3513 2113 
z
" transform="scale(0.015625)"/>
       <path id="DejaVuSans-44" d="M 1259 4147 
L 1259 519 
L 2022 519 
Q 2988 519 3436 956 
Q 3884 1394 3884 2338 
Q 3884 3275 3436 3711 
Q 2988 4147 2022 4147 
L 1259 4147 
z
M 628 4666 
L 1925 4666 
Q 3281 4666 3915 4102 
Q 4550 3538 4550 2338 
Q 4550 1131 3912 565 
Q 3275 0 1925 0 
L 628 0 
L 628 4666 
z
" transform="scale(0.015625)"/>
       <path id="DejaVuSans-54" d="M -19 4666 
L 3928 4666 
L 3928 4134 
L 2272 4134 
L 2272 0 
L 1638 0 
L 1638 4134 
L -19 4134 
L -19 4666 
z
" transform="scale(0.015625)"/>
       <path id="DejaVuSans-55" d="M 556 4666 
L 1191 4666 
L 1191 1831 
Q 1191 1081 1462 751 
Q 1734 422 2344 422 
Q 2950 422 3222 751 
Q 3494 1081 3494 1831 
L 3494 4666 
L 4128 4666 
L 4128 1753 
Q 4128 841 3676 375 
Q 3225 -91 2344 -91 
Q 1459 -91 1007 375 
Q 556 841 556 1753 
L 556 4666 
z
" transform="scale(0.015625)"/>
      </defs>
      <use xlink:href="#DejaVuSans-51"/>
      <use xlink:href="#DejaVuSans-75" x="78.710938"/>
      <use xlink:href="#DejaVuSans-61" x="142.089844"/>
      <use xlink:href="#DejaVuSans-6e" x="203.369141"/>
      <use xlink:href="#DejaVuSans-74" x="266.748047"/>
      <use xlink:href="#DejaVuSans-75" x="305.957031"/>
      <use xlink:href="#DejaVuSans-6d" x="369.335938"/>
      <use xlink:href="#DejaVuSans-20" x="466.748047"/>
      <use xlink:href="#DejaVuSans-61" x="498.535156"/>
      <use xlink:href="#DejaVuSans-6e" x="559.814453"/>
      <use xlink:href="#DejaVuSans-64" x="623.193359"/>
      <use xlink:href="#DejaVuSans-20" x="686.669922"/>
      <use xlink:href="#DejaVuSans-4c" x="718.457031"/>
      <use xlink:href="#DejaVuSans-61" x="774.169922"/>
      <use xlink:href="#DejaVuSans-73" x="835.449219"/>
      <use xlink:href="#DejaVuSans-65" x="887.548828"/>
      <use xlink:href="#DejaVuSans-72" x="949.072266"/>
      <use xlink:href="#DejaVuSans-20" x="990.185547"/>
      <use xlink:href="#DejaVuSans-50" x="1021.972656"/>
      <use xlink:href="#DejaVuSans-68" x="1082.275391"/>
      <use xlink:href="#DejaVuSans-6f" x="1145.654297"/>
      <use xlink:href="#DejaVuSans-74" x="1206.835938"/>
      <use xlink:href="#DejaVuSans-6f" x="1246.044922"/>
      <use xlink:href="#DejaVuSans-6e" x="1307.226562"/>
      <use xlink:href="#DejaVuSans-69" x="1370.605469"/>
      <use xlink:href="#DejaVuSans-63" x="1398.388672"/>
      <use xlink:href="#DejaVuSans-73" x="1453.369141"/>
      <use xlink:href="#DejaVuSans-20" x="1505.46875"/>
      <use xlink:href="#DejaVuSans-44" x="1537.255859"/>
      <use xlink:href="#DejaVuSans-54" x="1614.257812"/>
      <use xlink:href="#DejaVuSans-55" x="1675.341797"/>
     </g>
    </g>
   </g>
  </g>
 </g>
 <defs>
  <clipPath id="p73cbe46fb6">
   <rect x="50.87" y="26.88" width="777.49996" height="377.24"/>
  </clipPath>
 </defs>
</svg>
