<?xml version="1.0" encoding="utf-8" standalone="no"?>
<!DOCTYPE svg PUBLIC "-//W3C//DTD SVG 1.1//EN"
  "http://www.w3.org/Graphics/SVG/1.1/DTD/svg11.dtd">
<svg xmlns:xlink="http://www.w3.org/1999/xlink" width="864pt" height="432pt" viewBox="0 0 864 432" xmlns="http://www.w3.org/2000/svg" version="1.1">
 <metadata>
  <rdf:RDF xmlns:dc="http://purl.org/dc/elements/1.1/" xmlns:cc="http://creativecommons.org/ns#" xmlns:rdf="http://www.w3.org/1999/02/22-rdf-syntax-ns#">
   <cc:Work>
    <dc:type rdf:resource="http://purl.org/dc/dcmitype/StillImage"/>
    <dc:date>2024-08-22T10:34:36.374120</dc:date>
    <dc:format>image/svg+xml</dc:format>
    <dc:creator>
     <cc:Agent>
      <dc:title>Matplotlib v3.9.2, https://matplotlib.org/</dc:title>
     </cc:Agent>
    </dc:creator>
   </cc:Work>
  </rdf:RDF>
 </metadata>
 <defs>
  <style type="text/css">*{stroke-linejoin: round; stroke-linecap: butt}</style>
 </defs>
 <g id="figure_1">
  <g id="patch_1">
   <path d="M 0 432 
L 864 432 
L 864 0 
L 0 0 
z
" style="fill: #ffffff"/>
  </g>
  <g id="axes_1">
   <g id="patch_2">
    <path d="M 50.87 404.12 
L 853.2 404.12 
L 853.2 26.88 
L 50.87 26.88 
z
" style="fill: #ffffff"/>
   </g>
   <g id="matplotlib.axis_1">
    <g id="xtick_1">
     <g id="line2d_1">
      <path d="M 97.910428 404.12 
L 97.910428 26.88 
" clip-path="url(#pe3abd78940)" style="fill: none; stroke-dasharray: 2.96,1.28; stroke-dashoffset: 0; stroke: #b0b0b0; stroke-width: 0.8"/>
     </g>
     <g id="line2d_2">
      <defs>
       <path id="m96de199b65" d="M 0 0 
L 0 3.5 
" style="stroke: #000000; stroke-width: 0.8"/>
      </defs>
      <g>
       <use xlink:href="#m96de199b65" x="97.910428" y="404.12" style="stroke: #000000; stroke-width: 0.8"/>
      </g>
     </g>
     <g id="text_1">
      <!-- 2024-06-15 -->
      <g transform="translate(68.852616 418.718437) scale(0.1 -0.1)">
       <defs>
        <path id="DejaVuSans-32" d="M 1228 531 
L 3431 531 
L 3431 0 
L 469 0 
L 469 531 
Q 828 903 1448 1529 
Q 2069 2156 2228 2338 
Q 2531 2678 2651 2914 
Q 2772 3150 2772 3378 
Q 2772 3750 2511 3984 
Q 2250 4219 1831 4219 
Q 1534 4219 1204 4116 
Q 875 4013 500 3803 
L 500 4441 
Q 881 4594 1212 4672 
Q 1544 4750 1819 4750 
Q 2544 4750 2975 4387 
Q 3406 4025 3406 3419 
Q 3406 3131 3298 2873 
Q 3191 2616 2906 2266 
Q 2828 2175 2409 1742 
Q 1991 1309 1228 531 
z
" transform="scale(0.015625)"/>
        <path id="DejaVuSans-30" d="M 2034 4250 
Q 1547 4250 1301 3770 
Q 1056 3291 1056 2328 
Q 1056 1369 1301 889 
Q 1547 409 2034 409 
Q 2525 409 2770 889 
Q 3016 1369 3016 2328 
Q 3016 3291 2770 3770 
Q 2525 4250 2034 4250 
z
M 2034 4750 
Q 2819 4750 3233 4129 
Q 3647 3509 3647 2328 
Q 3647 1150 3233 529 
Q 2819 -91 2034 -91 
Q 1250 -91 836 529 
Q 422 1150 422 2328 
Q 422 3509 836 4129 
Q 1250 4750 2034 4750 
z
" transform="scale(0.015625)"/>
        <path id="DejaVuSans-34" d="M 2419 4116 
L 825 1625 
L 2419 1625 
L 2419 4116 
z
M 2253 4666 
L 3047 4666 
L 3047 1625 
L 3713 1625 
L 3713 1100 
L 3047 1100 
L 3047 0 
L 2419 0 
L 2419 1100 
L 313 1100 
L 313 1709 
L 2253 4666 
z
" transform="scale(0.015625)"/>
        <path id="DejaVuSans-2d" d="M 313 2009 
L 1997 2009 
L 1997 1497 
L 313 1497 
L 313 2009 
z
" transform="scale(0.015625)"/>
        <path id="DejaVuSans-36" d="M 2113 2584 
Q 1688 2584 1439 2293 
Q 1191 2003 1191 1497 
Q 1191 994 1439 701 
Q 1688 409 2113 409 
Q 2538 409 2786 701 
Q 3034 994 3034 1497 
Q 3034 2003 2786 2293 
Q 2538 2584 2113 2584 
z
M 3366 4563 
L 3366 3988 
Q 3128 4100 2886 4159 
Q 2644 4219 2406 4219 
Q 1781 4219 1451 3797 
Q 1122 3375 1075 2522 
Q 1259 2794 1537 2939 
Q 1816 3084 2150 3084 
Q 2853 3084 3261 2657 
Q 3669 2231 3669 1497 
Q 3669 778 3244 343 
Q 2819 -91 2113 -91 
Q 1303 -91 875 529 
Q 447 1150 447 2328 
Q 447 3434 972 4092 
Q 1497 4750 2381 4750 
Q 2619 4750 2861 4703 
Q 3103 4656 3366 4563 
z
" transform="scale(0.015625)"/>
        <path id="DejaVuSans-31" d="M 794 531 
L 1825 531 
L 1825 4091 
L 703 3866 
L 703 4441 
L 1819 4666 
L 2450 4666 
L 2450 531 
L 3481 531 
L 3481 0 
L 794 0 
L 794 531 
z
" transform="scale(0.015625)"/>
        <path id="DejaVuSans-35" d="M 691 4666 
L 3169 4666 
L 3169 4134 
L 1269 4134 
L 1269 2991 
Q 1406 3038 1543 3061 
Q 1681 3084 1819 3084 
Q 2600 3084 3056 2656 
Q 3513 2228 3513 1497 
Q 3513 744 3044 326 
Q 2575 -91 1722 -91 
Q 1428 -91 1123 -41 
Q 819 9 494 109 
L 494 744 
Q 775 591 1075 516 
Q 1375 441 1709 441 
Q 2250 441 2565 725 
Q 2881 1009 2881 1497 
Q 2881 1984 2565 2268 
Q 2250 2553 1709 2553 
Q 1456 2553 1204 2497 
Q 953 2441 691 2322 
L 691 4666 
z
" transform="scale(0.015625)"/>
       </defs>
       <use xlink:href="#DejaVuSans-32"/>
       <use xlink:href="#DejaVuSans-30" x="63.623047"/>
       <use xlink:href="#DejaVuSans-32" x="127.246094"/>
       <use xlink:href="#DejaVuSans-34" x="190.869141"/>
       <use xlink:href="#DejaVuSans-2d" x="254.492188"/>
       <use xlink:href="#DejaVuSans-30" x="290.576172"/>
       <use xlink:href="#DejaVuSans-36" x="354.199219"/>
       <use xlink:href="#DejaVuSans-2d" x="417.822266"/>
       <use xlink:href="#DejaVuSans-31" x="453.90625"/>
       <use xlink:href="#DejaVuSans-35" x="517.529297"/>
      </g>
     </g>
    </g>
    <g id="xtick_2">
     <g id="line2d_3">
      <path d="M 267.044552 404.12 
L 267.044552 26.88 
" clip-path="url(#pe3abd78940)" style="fill: none; stroke-dasharray: 2.96,1.28; stroke-dashoffset: 0; stroke: #b0b0b0; stroke-width: 0.8"/>
     </g>
     <g id="line2d_4">
      <g>
       <use xlink:href="#m96de199b65" x="267.044552" y="404.12" style="stroke: #000000; stroke-width: 0.8"/>
      </g>
     </g>
     <g id="text_2">
      <!-- 2024-07-01 -->
      <g transform="translate(237.98674 418.718437) scale(0.1 -0.1)">
       <defs>
        <path id="DejaVuSans-37" d="M 525 4666 
L 3525 4666 
L 3525 4397 
L 1831 0 
L 1172 0 
L 2766 4134 
L 525 4134 
L 525 4666 
z
" transform="scale(0.015625)"/>
       </defs>
       <use xlink:href="#DejaVuSans-32"/>
       <use xlink:href="#DejaVuSans-30" x="63.623047"/>
       <use xlink:href="#DejaVuSans-32" x="127.246094"/>
       <use xlink:href="#DejaVuSans-34" x="190.869141"/>
       <use xlink:href="#DejaVuSans-2d" x="254.492188"/>
       <use xlink:href="#DejaVuSans-30" x="290.576172"/>
       <use xlink:href="#DejaVuSans-37" x="354.199219"/>
       <use xlink:href="#DejaVuSans-2d" x="417.822266"/>
       <use xlink:href="#DejaVuSans-30" x="453.90625"/>
       <use xlink:href="#DejaVuSans-31" x="517.529297"/>
      </g>
     </g>
    </g>
    <g id="xtick_3">
     <g id="line2d_5">
      <path d="M 415.03691 404.12 
L 415.03691 26.88 
" clip-path="url(#pe3abd78940)" style="fill: none; stroke-dasharray: 2.96,1.28; stroke-dashoffset: 0; stroke: #b0b0b0; stroke-width: 0.8"/>
     </g>
     <g id="line2d_6">
      <g>
       <use xlink:href="#m96de199b65" x="415.03691" y="404.12" style="stroke: #000000; stroke-width: 0.8"/>
      </g>
     </g>
     <g id="text_3">
      <!-- 2024-07-15 -->
      <g transform="translate(385.979098 418.718437) scale(0.1 -0.1)">
       <use xlink:href="#DejaVuSans-32"/>
       <use xlink:href="#DejaVuSans-30" x="63.623047"/>
       <use xlink:href="#DejaVuSans-32" x="127.246094"/>
       <use xlink:href="#DejaVuSans-34" x="190.869141"/>
       <use xlink:href="#DejaVuSans-2d" x="254.492188"/>
       <use xlink:href="#DejaVuSans-30" x="290.576172"/>
       <use xlink:href="#DejaVuSans-37" x="354.199219"/>
       <use xlink:href="#DejaVuSans-2d" x="417.822266"/>
       <use xlink:href="#DejaVuSans-31" x="453.90625"/>
       <use xlink:href="#DejaVuSans-35" x="517.529297"/>
      </g>
     </g>
    </g>
    <g id="xtick_4">
     <g id="line2d_7">
      <path d="M 594.741917 404.12 
L 594.741917 26.88 
" clip-path="url(#pe3abd78940)" style="fill: none; stroke-dasharray: 2.96,1.28; stroke-dashoffset: 0; stroke: #b0b0b0; stroke-width: 0.8"/>
     </g>
     <g id="line2d_8">
      <g>
       <use xlink:href="#m96de199b65" x="594.741917" y="404.12" style="stroke: #000000; stroke-width: 0.8"/>
      </g>
     </g>
     <g id="text_4">
      <!-- 2024-08-01 -->
      <g transform="translate(565.684104 418.718437) scale(0.1 -0.1)">
       <defs>
        <path id="DejaVuSans-38" d="M 2034 2216 
Q 1584 2216 1326 1975 
Q 1069 1734 1069 1313 
Q 1069 891 1326 650 
Q 1584 409 2034 409 
Q 2484 409 2743 651 
Q 3003 894 3003 1313 
Q 3003 1734 2745 1975 
Q 2488 2216 2034 2216 
z
M 1403 2484 
Q 997 2584 770 2862 
Q 544 3141 544 3541 
Q 544 4100 942 4425 
Q 1341 4750 2034 4750 
Q 2731 4750 3128 4425 
Q 3525 4100 3525 3541 
Q 3525 3141 3298 2862 
Q 3072 2584 2669 2484 
Q 3125 2378 3379 2068 
Q 3634 1759 3634 1313 
Q 3634 634 3220 271 
Q 2806 -91 2034 -91 
Q 1263 -91 848 271 
Q 434 634 434 1313 
Q 434 1759 690 2068 
Q 947 2378 1403 2484 
z
M 1172 3481 
Q 1172 3119 1398 2916 
Q 1625 2713 2034 2713 
Q 2441 2713 2670 2916 
Q 2900 3119 2900 3481 
Q 2900 3844 2670 4047 
Q 2441 4250 2034 4250 
Q 1625 4250 1398 4047 
Q 1172 3844 1172 3481 
z
" transform="scale(0.015625)"/>
       </defs>
       <use xlink:href="#DejaVuSans-32"/>
       <use xlink:href="#DejaVuSans-30" x="63.623047"/>
       <use xlink:href="#DejaVuSans-32" x="127.246094"/>
       <use xlink:href="#DejaVuSans-34" x="190.869141"/>
       <use xlink:href="#DejaVuSans-2d" x="254.492188"/>
       <use xlink:href="#DejaVuSans-30" x="290.576172"/>
       <use xlink:href="#DejaVuSans-38" x="354.199219"/>
       <use xlink:href="#DejaVuSans-2d" x="417.822266"/>
       <use xlink:href="#DejaVuSans-30" x="453.90625"/>
       <use xlink:href="#DejaVuSans-31" x="517.529297"/>
      </g>
     </g>
    </g>
    <g id="xtick_5">
     <g id="line2d_9">
      <path d="M 742.734275 404.12 
L 742.734275 26.88 
" clip-path="url(#pe3abd78940)" style="fill: none; stroke-dasharray: 2.96,1.28; stroke-dashoffset: 0; stroke: #b0b0b0; stroke-width: 0.8"/>
     </g>
     <g id="line2d_10">
      <g>
       <use xlink:href="#m96de199b65" x="742.734275" y="404.12" style="stroke: #000000; stroke-width: 0.8"/>
      </g>
     </g>
     <g id="text_5">
      <!-- 2024-08-15 -->
      <g transform="translate(713.676463 418.718437) scale(0.1 -0.1)">
       <use xlink:href="#DejaVuSans-32"/>
       <use xlink:href="#DejaVuSans-30" x="63.623047"/>
       <use xlink:href="#DejaVuSans-32" x="127.246094"/>
       <use xlink:href="#DejaVuSans-34" x="190.869141"/>
       <use xlink:href="#DejaVuSans-2d" x="254.492188"/>
       <use xlink:href="#DejaVuSans-30" x="290.576172"/>
       <use xlink:href="#DejaVuSans-38" x="354.199219"/>
       <use xlink:href="#DejaVuSans-2d" x="417.822266"/>
       <use xlink:href="#DejaVuSans-31" x="453.90625"/>
       <use xlink:href="#DejaVuSans-35" x="517.529297"/>
      </g>
     </g>
    </g>
   </g>
   <g id="matplotlib.axis_2">
    <g id="ytick_1">
     <g id="line2d_11">
      <path d="M 50.87 393.504171 
L 853.2 393.504171 
" clip-path="url(#pe3abd78940)" style="fill: none; stroke-dasharray: 2.96,1.28; stroke-dashoffset: 0; stroke: #b0b0b0; stroke-width: 0.8"/>
     </g>
     <g id="line2d_12">
      <defs>
       <path id="m4a9f5972a3" d="M 0 0 
L -3.5 0 
" style="stroke: #000000; stroke-width: 0.8"/>
      </defs>
      <g>
       <use xlink:href="#m4a9f5972a3" x="50.87" y="393.504171" style="stroke: #000000; stroke-width: 0.8"/>
      </g>
     </g>
     <g id="text_6">
      <!-- 0 -->
      <g transform="translate(37.5075 397.30339) scale(0.1 -0.1)">
       <use xlink:href="#DejaVuSans-30"/>
      </g>
     </g>
    </g>
    <g id="ytick_2">
     <g id="line2d_13">
      <path d="M 50.87 326.581345 
L 853.2 326.581345 
" clip-path="url(#pe3abd78940)" style="fill: none; stroke-dasharray: 2.96,1.28; stroke-dashoffset: 0; stroke: #b0b0b0; stroke-width: 0.8"/>
     </g>
     <g id="line2d_14">
      <g>
       <use xlink:href="#m4a9f5972a3" x="50.87" y="326.581345" style="stroke: #000000; stroke-width: 0.8"/>
      </g>
     </g>
     <g id="text_7">
      <!-- 50 -->
      <g transform="translate(31.145 330.380563) scale(0.1 -0.1)">
       <use xlink:href="#DejaVuSans-35"/>
       <use xlink:href="#DejaVuSans-30" x="63.623047"/>
      </g>
     </g>
    </g>
    <g id="ytick_3">
     <g id="line2d_15">
      <path d="M 50.87 259.658518 
L 853.2 259.658518 
" clip-path="url(#pe3abd78940)" style="fill: none; stroke-dasharray: 2.96,1.28; stroke-dashoffset: 0; stroke: #b0b0b0; stroke-width: 0.8"/>
     </g>
     <g id="line2d_16">
      <g>
       <use xlink:href="#m4a9f5972a3" x="50.87" y="259.658518" style="stroke: #000000; stroke-width: 0.8"/>
      </g>
     </g>
     <g id="text_8">
      <!-- 100 -->
      <g transform="translate(24.7825 263.457737) scale(0.1 -0.1)">
       <use xlink:href="#DejaVuSans-31"/>
       <use xlink:href="#DejaVuSans-30" x="63.623047"/>
       <use xlink:href="#DejaVuSans-30" x="127.246094"/>
      </g>
     </g>
    </g>
    <g id="ytick_4">
     <g id="line2d_17">
      <path d="M 50.87 192.735691 
L 853.2 192.735691 
" clip-path="url(#pe3abd78940)" style="fill: none; stroke-dasharray: 2.96,1.28; stroke-dashoffset: 0; stroke: #b0b0b0; stroke-width: 0.8"/>
     </g>
     <g id="line2d_18">
      <g>
       <use xlink:href="#m4a9f5972a3" x="50.87" y="192.735691" style="stroke: #000000; stroke-width: 0.8"/>
      </g>
     </g>
     <g id="text_9">
      <!-- 150 -->
      <g transform="translate(24.7825 196.53491) scale(0.1 -0.1)">
       <use xlink:href="#DejaVuSans-31"/>
       <use xlink:href="#DejaVuSans-35" x="63.623047"/>
       <use xlink:href="#DejaVuSans-30" x="127.246094"/>
      </g>
     </g>
    </g>
    <g id="ytick_5">
     <g id="line2d_19">
      <path d="M 50.87 125.812864 
L 853.2 125.812864 
" clip-path="url(#pe3abd78940)" style="fill: none; stroke-dasharray: 2.96,1.28; stroke-dashoffset: 0; stroke: #b0b0b0; stroke-width: 0.8"/>
     </g>
     <g id="line2d_20">
      <g>
       <use xlink:href="#m4a9f5972a3" x="50.87" y="125.812864" style="stroke: #000000; stroke-width: 0.8"/>
      </g>
     </g>
     <g id="text_10">
      <!-- 200 -->
      <g transform="translate(24.7825 129.612083) scale(0.1 -0.1)">
       <use xlink:href="#DejaVuSans-32"/>
       <use xlink:href="#DejaVuSans-30" x="63.623047"/>
       <use xlink:href="#DejaVuSans-30" x="127.246094"/>
      </g>
     </g>
    </g>
    <g id="ytick_6">
     <g id="line2d_21">
      <path d="M 50.87 58.890038 
L 853.2 58.890038 
" clip-path="url(#pe3abd78940)" style="fill: none; stroke-dasharray: 2.96,1.28; stroke-dashoffset: 0; stroke: #b0b0b0; stroke-width: 0.8"/>
     </g>
     <g id="line2d_22">
      <g>
       <use xlink:href="#m4a9f5972a3" x="50.87" y="58.890038" style="stroke: #000000; stroke-width: 0.8"/>
      </g>
     </g>
     <g id="text_11">
      <!-- 250 -->
      <g transform="translate(24.7825 62.689256) scale(0.1 -0.1)">
       <use xlink:href="#DejaVuSans-32"/>
       <use xlink:href="#DejaVuSans-35" x="63.623047"/>
       <use xlink:href="#DejaVuSans-30" x="127.246094"/>
      </g>
     </g>
    </g>
    <g id="text_12">
     <!-- Score -->
     <g transform="translate(18.702813 229.502344) rotate(-90) scale(0.1 -0.1)">
      <defs>
       <path id="DejaVuSans-53" d="M 3425 4513 
L 3425 3897 
Q 3066 4069 2747 4153 
Q 2428 4238 2131 4238 
Q 1616 4238 1336 4038 
Q 1056 3838 1056 3469 
Q 1056 3159 1242 3001 
Q 1428 2844 1947 2747 
L 2328 2669 
Q 3034 2534 3370 2195 
Q 3706 1856 3706 1288 
Q 3706 609 3251 259 
Q 2797 -91 1919 -91 
Q 1588 -91 1214 -16 
Q 841 59 441 206 
L 441 856 
Q 825 641 1194 531 
Q 1563 422 1919 422 
Q 2459 422 2753 634 
Q 3047 847 3047 1241 
Q 3047 1584 2836 1778 
Q 2625 1972 2144 2069 
L 1759 2144 
Q 1053 2284 737 2584 
Q 422 2884 422 3419 
Q 422 4038 858 4394 
Q 1294 4750 2059 4750 
Q 2388 4750 2728 4690 
Q 3069 4631 3425 4513 
z
" transform="scale(0.015625)"/>
       <path id="DejaVuSans-63" d="M 3122 3366 
L 3122 2828 
Q 2878 2963 2633 3030 
Q 2388 3097 2138 3097 
Q 1578 3097 1268 2742 
Q 959 2388 959 1747 
Q 959 1106 1268 751 
Q 1578 397 2138 397 
Q 2388 397 2633 464 
Q 2878 531 3122 666 
L 3122 134 
Q 2881 22 2623 -34 
Q 2366 -91 2075 -91 
Q 1284 -91 818 406 
Q 353 903 353 1747 
Q 353 2603 823 3093 
Q 1294 3584 2113 3584 
Q 2378 3584 2631 3529 
Q 2884 3475 3122 3366 
z
" transform="scale(0.015625)"/>
       <path id="DejaVuSans-6f" d="M 1959 3097 
Q 1497 3097 1228 2736 
Q 959 2375 959 1747 
Q 959 1119 1226 758 
Q 1494 397 1959 397 
Q 2419 397 2687 759 
Q 2956 1122 2956 1747 
Q 2956 2369 2687 2733 
Q 2419 3097 1959 3097 
z
M 1959 3584 
Q 2709 3584 3137 3096 
Q 3566 2609 3566 1747 
Q 3566 888 3137 398 
Q 2709 -91 1959 -91 
Q 1206 -91 779 398 
Q 353 888 353 1747 
Q 353 2609 779 3096 
Q 1206 3584 1959 3584 
z
" transform="scale(0.015625)"/>
       <path id="DejaVuSans-72" d="M 2631 2963 
Q 2534 3019 2420 3045 
Q 2306 3072 2169 3072 
Q 1681 3072 1420 2755 
Q 1159 2438 1159 1844 
L 1159 0 
L 581 0 
L 581 3500 
L 1159 3500 
L 1159 2956 
Q 1341 3275 1631 3429 
Q 1922 3584 2338 3584 
Q 2397 3584 2469 3576 
Q 2541 3569 2628 3553 
L 2631 2963 
z
" transform="scale(0.015625)"/>
       <path id="DejaVuSans-65" d="M 3597 1894 
L 3597 1613 
L 953 1613 
Q 991 1019 1311 708 
Q 1631 397 2203 397 
Q 2534 397 2845 478 
Q 3156 559 3463 722 
L 3463 178 
Q 3153 47 2828 -22 
Q 2503 -91 2169 -91 
Q 1331 -91 842 396 
Q 353 884 353 1716 
Q 353 2575 817 3079 
Q 1281 3584 2069 3584 
Q 2775 3584 3186 3129 
Q 3597 2675 3597 1894 
z
M 3022 2063 
Q 3016 2534 2758 2815 
Q 2500 3097 2075 3097 
Q 1594 3097 1305 2825 
Q 1016 2553 972 2059 
L 3022 2063 
z
" transform="scale(0.015625)"/>
      </defs>
      <use xlink:href="#DejaVuSans-53"/>
      <use xlink:href="#DejaVuSans-63" x="63.476562"/>
      <use xlink:href="#DejaVuSans-6f" x="118.457031"/>
      <use xlink:href="#DejaVuSans-72" x="179.638672"/>
      <use xlink:href="#DejaVuSans-65" x="218.501953"/>
     </g>
    </g>
   </g>
   <g id="line2d_23">
    <path d="M 87.339545 385.698609 
L 97.910428 362.562431 
L 108.481311 343.441624 
L 119.052194 328.957612 
L 129.623076 313.421956 
L 140.193959 289.903362 
L 150.764842 269.587504 
L 161.335725 258.927654 
L 171.906607 230.342047 
L 182.47749 207.349275 
L 193.048373 177.090597 
L 203.619256 160.981317 
L 214.190138 116.955657 
L 245.902787 116.955657 
L 256.473669 116.955657 
L 267.044552 116.955657 
L 277.615435 116.955657 
L 288.186318 116.955657 
L 309.328083 116.955657 
L 319.898966 116.955657 
L 330.469848 116.955657 
L 341.040731 116.955657 
L 351.611614 116.955657 
L 362.182497 106.917233 
L 372.753379 106.917233 
L 383.324262 106.917233 
L 393.895145 106.917233 
L 404.466028 106.917233 
L 415.03691 91.859597 
L 425.607793 91.859597 
L 436.178676 91.859597 
L 446.749559 91.859597 
L 457.320441 91.859597 
L 467.891324 91.859597 
L 478.462207 91.859597 
L 489.03309 91.859597 
L 499.603972 91.859597 
L 510.174855 91.859597 
L 520.745738 91.859597 
L 531.316621 91.859597 
L 541.887503 91.859597 
L 552.458386 91.859597 
L 563.029269 91.859597 
L 573.600152 91.859597 
L 584.171034 91.859597 
L 594.741917 91.859597 
L 605.3128 91.859597 
L 615.883682 91.859597 
L 626.454565 91.859597 
L 637.025448 91.859597 
L 647.596331 91.859597 
L 658.167213 91.859597 
L 668.738096 91.859597 
L 679.308979 91.859597 
L 689.879862 91.859597 
L 700.450744 91.859597 
L 711.021627 91.859597 
L 721.59251 91.859597 
L 732.163393 91.859597 
L 742.734275 91.859597 
L 753.305158 91.859597 
L 763.876041 91.859597 
L 774.446924 91.859597 
L 785.017806 91.859597 
L 795.588689 91.859597 
L 806.159572 91.859597 
L 816.730455 91.859597 
" clip-path="url(#pe3abd78940)" style="fill: none; stroke: #1f77b4; stroke-width: 1.5; stroke-linecap: square"/>
    <defs>
     <path id="m8256c5b7a7" d="M 0 3.5 
C 0.928211 3.5 1.81853 3.131218 2.474874 2.474874 
C 3.131218 1.81853 3.5 0.928211 3.5 0 
C 3.5 -0.928211 3.131218 -1.81853 2.474874 -2.474874 
C 1.81853 -3.131218 0.928211 -3.5 0 -3.5 
C -0.928211 -3.5 -1.81853 -3.131218 -2.474874 -2.474874 
C -3.131218 -1.81853 -3.5 -0.928211 -3.5 0 
C -3.5 0.928211 -3.131218 1.81853 -2.474874 2.474874 
C -1.81853 3.131218 -0.928211 3.5 0 3.5 
z
" style="stroke: #1f77b4"/>
    </defs>
    <g clip-path="url(#pe3abd78940)">
     <use xlink:href="#m8256c5b7a7" x="87.339545" y="385.698609" style="fill: #1f77b4; stroke: #1f77b4"/>
     <use xlink:href="#m8256c5b7a7" x="97.910428" y="362.562431" style="fill: #1f77b4; stroke: #1f77b4"/>
     <use xlink:href="#m8256c5b7a7" x="108.481311" y="343.441624" style="fill: #1f77b4; stroke: #1f77b4"/>
     <use xlink:href="#m8256c5b7a7" x="119.052194" y="328.957612" style="fill: #1f77b4; stroke: #1f77b4"/>
     <use xlink:href="#m8256c5b7a7" x="129.623076" y="313.421956" style="fill: #1f77b4; stroke: #1f77b4"/>
     <use xlink:href="#m8256c5b7a7" x="140.193959" y="289.903362" style="fill: #1f77b4; stroke: #1f77b4"/>
     <use xlink:href="#m8256c5b7a7" x="150.764842" y="269.587504" style="fill: #1f77b4; stroke: #1f77b4"/>
     <use xlink:href="#m8256c5b7a7" x="161.335725" y="258.927654" style="fill: #1f77b4; stroke: #1f77b4"/>
     <use xlink:href="#m8256c5b7a7" x="171.906607" y="230.342047" style="fill: #1f77b4; stroke: #1f77b4"/>
     <use xlink:href="#m8256c5b7a7" x="182.47749" y="207.349275" style="fill: #1f77b4; stroke: #1f77b4"/>
     <use xlink:href="#m8256c5b7a7" x="193.048373" y="177.090597" style="fill: #1f77b4; stroke: #1f77b4"/>
     <use xlink:href="#m8256c5b7a7" x="203.619256" y="160.981317" style="fill: #1f77b4; stroke: #1f77b4"/>
     <use xlink:href="#m8256c5b7a7" x="214.190138" y="116.955657" style="fill: #1f77b4; stroke: #1f77b4"/>
     <use xlink:href="#m8256c5b7a7" x="245.902787" y="116.955657" style="fill: #1f77b4; stroke: #1f77b4"/>
     <use xlink:href="#m8256c5b7a7" x="256.473669" y="116.955657" style="fill: #1f77b4; stroke: #1f77b4"/>
     <use xlink:href="#m8256c5b7a7" x="267.044552" y="116.955657" style="fill: #1f77b4; stroke: #1f77b4"/>
     <use xlink:href="#m8256c5b7a7" x="277.615435" y="116.955657" style="fill: #1f77b4; stroke: #1f77b4"/>
     <use xlink:href="#m8256c5b7a7" x="288.186318" y="116.955657" style="fill: #1f77b4; stroke: #1f77b4"/>
     <use xlink:href="#m8256c5b7a7" x="309.328083" y="116.955657" style="fill: #1f77b4; stroke: #1f77b4"/>
     <use xlink:href="#m8256c5b7a7" x="319.898966" y="116.955657" style="fill: #1f77b4; stroke: #1f77b4"/>
     <use xlink:href="#m8256c5b7a7" x="330.469848" y="116.955657" style="fill: #1f77b4; stroke: #1f77b4"/>
     <use xlink:href="#m8256c5b7a7" x="341.040731" y="116.955657" style="fill: #1f77b4; stroke: #1f77b4"/>
     <use xlink:href="#m8256c5b7a7" x="351.611614" y="116.955657" style="fill: #1f77b4; stroke: #1f77b4"/>
     <use xlink:href="#m8256c5b7a7" x="362.182497" y="106.917233" style="fill: #1f77b4; stroke: #1f77b4"/>
     <use xlink:href="#m8256c5b7a7" x="372.753379" y="106.917233" style="fill: #1f77b4; stroke: #1f77b4"/>
     <use xlink:href="#m8256c5b7a7" x="383.324262" y="106.917233" style="fill: #1f77b4; stroke: #1f77b4"/>
     <use xlink:href="#m8256c5b7a7" x="393.895145" y="106.917233" style="fill: #1f77b4; stroke: #1f77b4"/>
     <use xlink:href="#m8256c5b7a7" x="404.466028" y="106.917233" style="fill: #1f77b4; stroke: #1f77b4"/>
     <use xlink:href="#m8256c5b7a7" x="415.03691" y="91.859597" style="fill: #1f77b4; stroke: #1f77b4"/>
     <use xlink:href="#m8256c5b7a7" x="425.607793" y="91.859597" style="fill: #1f77b4; stroke: #1f77b4"/>
     <use xlink:href="#m8256c5b7a7" x="436.178676" y="91.859597" style="fill: #1f77b4; stroke: #1f77b4"/>
     <use xlink:href="#m8256c5b7a7" x="446.749559" y="91.859597" style="fill: #1f77b4; stroke: #1f77b4"/>
     <use xlink:href="#m8256c5b7a7" x="457.320441" y="91.859597" style="fill: #1f77b4; stroke: #1f77b4"/>
     <use xlink:href="#m8256c5b7a7" x="467.891324" y="91.859597" style="fill: #1f77b4; stroke: #1f77b4"/>
     <use xlink:href="#m8256c5b7a7" x="478.462207" y="91.859597" style="fill: #1f77b4; stroke: #1f77b4"/>
     <use xlink:href="#m8256c5b7a7" x="489.03309" y="91.859597" style="fill: #1f77b4; stroke: #1f77b4"/>
     <use xlink:href="#m8256c5b7a7" x="499.603972" y="91.859597" style="fill: #1f77b4; stroke: #1f77b4"/>
     <use xlink:href="#m8256c5b7a7" x="510.174855" y="91.859597" style="fill: #1f77b4; stroke: #1f77b4"/>
     <use xlink:href="#m8256c5b7a7" x="520.745738" y="91.859597" style="fill: #1f77b4; stroke: #1f77b4"/>
     <use xlink:href="#m8256c5b7a7" x="531.316621" y="91.859597" style="fill: #1f77b4; stroke: #1f77b4"/>
     <use xlink:href="#m8256c5b7a7" x="541.887503" y="91.859597" style="fill: #1f77b4; stroke: #1f77b4"/>
     <use xlink:href="#m8256c5b7a7" x="552.458386" y="91.859597" style="fill: #1f77b4; stroke: #1f77b4"/>
     <use xlink:href="#m8256c5b7a7" x="563.029269" y="91.859597" style="fill: #1f77b4; stroke: #1f77b4"/>
     <use xlink:href="#m8256c5b7a7" x="573.600152" y="91.859597" style="fill: #1f77b4; stroke: #1f77b4"/>
     <use xlink:href="#m8256c5b7a7" x="584.171034" y="91.859597" style="fill: #1f77b4; stroke: #1f77b4"/>
     <use xlink:href="#m8256c5b7a7" x="594.741917" y="91.859597" style="fill: #1f77b4; stroke: #1f77b4"/>
     <use xlink:href="#m8256c5b7a7" x="605.3128" y="91.859597" style="fill: #1f77b4; stroke: #1f77b4"/>
     <use xlink:href="#m8256c5b7a7" x="615.883682" y="91.859597" style="fill: #1f77b4; stroke: #1f77b4"/>
     <use xlink:href="#m8256c5b7a7" x="626.454565" y="91.859597" style="fill: #1f77b4; stroke: #1f77b4"/>
     <use xlink:href="#m8256c5b7a7" x="637.025448" y="91.859597" style="fill: #1f77b4; stroke: #1f77b4"/>
     <use xlink:href="#m8256c5b7a7" x="647.596331" y="91.859597" style="fill: #1f77b4; stroke: #1f77b4"/>
     <use xlink:href="#m8256c5b7a7" x="658.167213" y="91.859597" style="fill: #1f77b4; stroke: #1f77b4"/>
     <use xlink:href="#m8256c5b7a7" x="668.738096" y="91.859597" style="fill: #1f77b4; stroke: #1f77b4"/>
     <use xlink:href="#m8256c5b7a7" x="679.308979" y="91.859597" style="fill: #1f77b4; stroke: #1f77b4"/>
     <use xlink:href="#m8256c5b7a7" x="689.879862" y="91.859597" style="fill: #1f77b4; stroke: #1f77b4"/>
     <use xlink:href="#m8256c5b7a7" x="700.450744" y="91.859597" style="fill: #1f77b4; stroke: #1f77b4"/>
     <use xlink:href="#m8256c5b7a7" x="711.021627" y="91.859597" style="fill: #1f77b4; stroke: #1f77b4"/>
     <use xlink:href="#m8256c5b7a7" x="721.59251" y="91.859597" style="fill: #1f77b4; stroke: #1f77b4"/>
     <use xlink:href="#m8256c5b7a7" x="732.163393" y="91.859597" style="fill: #1f77b4; stroke: #1f77b4"/>
     <use xlink:href="#m8256c5b7a7" x="742.734275" y="91.859597" style="fill: #1f77b4; stroke: #1f77b4"/>
     <use xlink:href="#m8256c5b7a7" x="753.305158" y="91.859597" style="fill: #1f77b4; stroke: #1f77b4"/>
     <use xlink:href="#m8256c5b7a7" x="763.876041" y="91.859597" style="fill: #1f77b4; stroke: #1f77b4"/>
     <use xlink:href="#m8256c5b7a7" x="774.446924" y="91.859597" style="fill: #1f77b4; stroke: #1f77b4"/>
     <use xlink:href="#m8256c5b7a7" x="785.017806" y="91.859597" style="fill: #1f77b4; stroke: #1f77b4"/>
     <use xlink:href="#m8256c5b7a7" x="795.588689" y="91.859597" style="fill: #1f77b4; stroke: #1f77b4"/>
     <use xlink:href="#m8256c5b7a7" x="806.159572" y="91.859597" style="fill: #1f77b4; stroke: #1f77b4"/>
     <use xlink:href="#m8256c5b7a7" x="816.730455" y="91.859597" style="fill: #1f77b4; stroke: #1f77b4"/>
    </g>
   </g>
   <g id="line2d_24">
    <path d="M 87.339545 384.370308 
L 97.910428 359.088351 
L 108.481311 333.955112 
L 119.052194 321.760286 
L 129.623076 301.832155 
L 140.193959 281.01172 
L 150.764842 264.50409 
L 161.335725 250.970807 
L 171.906607 215.873502 
L 182.47749 196.837676 
L 193.048373 167.986502 
L 203.619256 148.207089 
L 214.190138 105.673914 
L 245.902787 105.673914 
L 256.473669 105.673914 
L 267.044552 105.673914 
L 277.615435 105.673914 
L 288.186318 105.673914 
L 309.328083 105.673914 
L 319.898966 105.673914 
L 330.469848 105.673914 
L 341.040731 105.673914 
L 351.611614 105.673914 
L 362.182497 96.750871 
L 372.753379 96.750871 
L 383.324262 96.750871 
L 393.895145 96.750871 
L 404.466028 96.750871 
L 415.03691 79.64837 
L 425.607793 79.64837 
L 436.178676 79.64837 
L 446.749559 79.64837 
L 457.320441 79.64837 
L 467.891324 79.64837 
L 478.462207 79.64837 
L 489.03309 79.64837 
L 499.603972 79.64837 
L 510.174855 79.64837 
L 520.745738 79.64837 
L 531.316621 79.64837 
L 541.887503 79.64837 
L 552.458386 79.64837 
L 563.029269 79.64837 
L 573.600152 79.64837 
L 584.171034 79.64837 
L 594.741917 79.64837 
L 605.3128 79.64837 
L 615.883682 79.64837 
L 626.454565 79.64837 
L 637.025448 79.64837 
L 647.596331 79.64837 
L 658.167213 79.64837 
L 668.738096 79.64837 
L 679.308979 79.64837 
L 689.879862 79.64837 
L 700.450744 79.64837 
L 711.021627 79.64837 
L 721.59251 79.64837 
L 732.163393 79.64837 
L 742.734275 79.64837 
L 753.305158 79.64837 
L 763.876041 79.64837 
L 774.446924 79.64837 
L 785.017806 79.64837 
L 795.588689 79.64837 
L 806.159572 79.64837 
L 816.730455 79.64837 
" clip-path="url(#pe3abd78940)" style="fill: none; stroke: #ff7f0e; stroke-width: 1.5; stroke-linecap: square"/>
    <defs>
     <path id="md7beb289d6" d="M 0 3.5 
C 0.928211 3.5 1.81853 3.131218 2.474874 2.474874 
C 3.131218 1.81853 3.5 0.928211 3.5 0 
C 3.5 -0.928211 3.131218 -1.81853 2.474874 -2.474874 
C 1.81853 -3.131218 0.928211 -3.5 0 -3.5 
C -0.928211 -3.5 -1.81853 -3.131218 -2.474874 -2.474874 
C -3.131218 -1.81853 -3.5 -0.928211 -3.5 0 
C -3.5 0.928211 -3.131218 1.81853 -2.474874 2.474874 
C -1.81853 3.131218 -0.928211 3.5 0 3.5 
z
" style="stroke: #ff7f0e"/>
    </defs>
    <g clip-path="url(#pe3abd78940)">
     <use xlink:href="#md7beb289d6" x="87.339545" y="384.370308" style="fill: #ff7f0e; stroke: #ff7f0e"/>
     <use xlink:href="#md7beb289d6" x="97.910428" y="359.088351" style="fill: #ff7f0e; stroke: #ff7f0e"/>
     <use xlink:href="#md7beb289d6" x="108.481311" y="333.955112" style="fill: #ff7f0e; stroke: #ff7f0e"/>
     <use xlink:href="#md7beb289d6" x="119.052194" y="321.760286" style="fill: #ff7f0e; stroke: #ff7f0e"/>
     <use xlink:href="#md7beb289d6" x="129.623076" y="301.832155" style="fill: #ff7f0e; stroke: #ff7f0e"/>
     <use xlink:href="#md7beb289d6" x="140.193959" y="281.01172" style="fill: #ff7f0e; stroke: #ff7f0e"/>
     <use xlink:href="#md7beb289d6" x="150.764842" y="264.50409" style="fill: #ff7f0e; stroke: #ff7f0e"/>
     <use xlink:href="#md7beb289d6" x="161.335725" y="250.970807" style="fill: #ff7f0e; stroke: #ff7f0e"/>
     <use xlink:href="#md7beb289d6" x="171.906607" y="215.873502" style="fill: #ff7f0e; stroke: #ff7f0e"/>
     <use xlink:href="#md7beb289d6" x="182.47749" y="196.837676" style="fill: #ff7f0e; stroke: #ff7f0e"/>
     <use xlink:href="#md7beb289d6" x="193.048373" y="167.986502" style="fill: #ff7f0e; stroke: #ff7f0e"/>
     <use xlink:href="#md7beb289d6" x="203.619256" y="148.207089" style="fill: #ff7f0e; stroke: #ff7f0e"/>
     <use xlink:href="#md7beb289d6" x="214.190138" y="105.673914" style="fill: #ff7f0e; stroke: #ff7f0e"/>
     <use xlink:href="#md7beb289d6" x="245.902787" y="105.673914" style="fill: #ff7f0e; stroke: #ff7f0e"/>
     <use xlink:href="#md7beb289d6" x="256.473669" y="105.673914" style="fill: #ff7f0e; stroke: #ff7f0e"/>
     <use xlink:href="#md7beb289d6" x="267.044552" y="105.673914" style="fill: #ff7f0e; stroke: #ff7f0e"/>
     <use xlink:href="#md7beb289d6" x="277.615435" y="105.673914" style="fill: #ff7f0e; stroke: #ff7f0e"/>
     <use xlink:href="#md7beb289d6" x="288.186318" y="105.673914" style="fill: #ff7f0e; stroke: #ff7f0e"/>
     <use xlink:href="#md7beb289d6" x="309.328083" y="105.673914" style="fill: #ff7f0e; stroke: #ff7f0e"/>
     <use xlink:href="#md7beb289d6" x="319.898966" y="105.673914" style="fill: #ff7f0e; stroke: #ff7f0e"/>
     <use xlink:href="#md7beb289d6" x="330.469848" y="105.673914" style="fill: #ff7f0e; stroke: #ff7f0e"/>
     <use xlink:href="#md7beb289d6" x="341.040731" y="105.673914" style="fill: #ff7f0e; stroke: #ff7f0e"/>
     <use xlink:href="#md7beb289d6" x="351.611614" y="105.673914" style="fill: #ff7f0e; stroke: #ff7f0e"/>
     <use xlink:href="#md7beb289d6" x="362.182497" y="96.750871" style="fill: #ff7f0e; stroke: #ff7f0e"/>
     <use xlink:href="#md7beb289d6" x="372.753379" y="96.750871" style="fill: #ff7f0e; stroke: #ff7f0e"/>
     <use xlink:href="#md7beb289d6" x="383.324262" y="96.750871" style="fill: #ff7f0e; stroke: #ff7f0e"/>
     <use xlink:href="#md7beb289d6" x="393.895145" y="96.750871" style="fill: #ff7f0e; stroke: #ff7f0e"/>
     <use xlink:href="#md7beb289d6" x="404.466028" y="96.750871" style="fill: #ff7f0e; stroke: #ff7f0e"/>
     <use xlink:href="#md7beb289d6" x="415.03691" y="79.64837" style="fill: #ff7f0e; stroke: #ff7f0e"/>
     <use xlink:href="#md7beb289d6" x="425.607793" y="79.64837" style="fill: #ff7f0e; stroke: #ff7f0e"/>
     <use xlink:href="#md7beb289d6" x="436.178676" y="79.64837" style="fill: #ff7f0e; stroke: #ff7f0e"/>
     <use xlink:href="#md7beb289d6" x="446.749559" y="79.64837" style="fill: #ff7f0e; stroke: #ff7f0e"/>
     <use xlink:href="#md7beb289d6" x="457.320441" y="79.64837" style="fill: #ff7f0e; stroke: #ff7f0e"/>
     <use xlink:href="#md7beb289d6" x="467.891324" y="79.64837" style="fill: #ff7f0e; stroke: #ff7f0e"/>
     <use xlink:href="#md7beb289d6" x="478.462207" y="79.64837" style="fill: #ff7f0e; stroke: #ff7f0e"/>
     <use xlink:href="#md7beb289d6" x="489.03309" y="79.64837" style="fill: #ff7f0e; stroke: #ff7f0e"/>
     <use xlink:href="#md7beb289d6" x="499.603972" y="79.64837" style="fill: #ff7f0e; stroke: #ff7f0e"/>
     <use xlink:href="#md7beb289d6" x="510.174855" y="79.64837" style="fill: #ff7f0e; stroke: #ff7f0e"/>
     <use xlink:href="#md7beb289d6" x="520.745738" y="79.64837" style="fill: #ff7f0e; stroke: #ff7f0e"/>
     <use xlink:href="#md7beb289d6" x="531.316621" y="79.64837" style="fill: #ff7f0e; stroke: #ff7f0e"/>
     <use xlink:href="#md7beb289d6" x="541.887503" y="79.64837" style="fill: #ff7f0e; stroke: #ff7f0e"/>
     <use xlink:href="#md7beb289d6" x="552.458386" y="79.64837" style="fill: #ff7f0e; stroke: #ff7f0e"/>
     <use xlink:href="#md7beb289d6" x="563.029269" y="79.64837" style="fill: #ff7f0e; stroke: #ff7f0e"/>
     <use xlink:href="#md7beb289d6" x="573.600152" y="79.64837" style="fill: #ff7f0e; stroke: #ff7f0e"/>
     <use xlink:href="#md7beb289d6" x="584.171034" y="79.64837" style="fill: #ff7f0e; stroke: #ff7f0e"/>
     <use xlink:href="#md7beb289d6" x="594.741917" y="79.64837" style="fill: #ff7f0e; stroke: #ff7f0e"/>
     <use xlink:href="#md7beb289d6" x="605.3128" y="79.64837" style="fill: #ff7f0e; stroke: #ff7f0e"/>
     <use xlink:href="#md7beb289d6" x="615.883682" y="79.64837" style="fill: #ff7f0e; stroke: #ff7f0e"/>
     <use xlink:href="#md7beb289d6" x="626.454565" y="79.64837" style="fill: #ff7f0e; stroke: #ff7f0e"/>
     <use xlink:href="#md7beb289d6" x="637.025448" y="79.64837" style="fill: #ff7f0e; stroke: #ff7f0e"/>
     <use xlink:href="#md7beb289d6" x="647.596331" y="79.64837" style="fill: #ff7f0e; stroke: #ff7f0e"/>
     <use xlink:href="#md7beb289d6" x="658.167213" y="79.64837" style="fill: #ff7f0e; stroke: #ff7f0e"/>
     <use xlink:href="#md7beb289d6" x="668.738096" y="79.64837" style="fill: #ff7f0e; stroke: #ff7f0e"/>
     <use xlink:href="#md7beb289d6" x="679.308979" y="79.64837" style="fill: #ff7f0e; stroke: #ff7f0e"/>
     <use xlink:href="#md7beb289d6" x="689.879862" y="79.64837" style="fill: #ff7f0e; stroke: #ff7f0e"/>
     <use xlink:href="#md7beb289d6" x="700.450744" y="79.64837" style="fill: #ff7f0e; stroke: #ff7f0e"/>
     <use xlink:href="#md7beb289d6" x="711.021627" y="79.64837" style="fill: #ff7f0e; stroke: #ff7f0e"/>
     <use xlink:href="#md7beb289d6" x="721.59251" y="79.64837" style="fill: #ff7f0e; stroke: #ff7f0e"/>
     <use xlink:href="#md7beb289d6" x="732.163393" y="79.64837" style="fill: #ff7f0e; stroke: #ff7f0e"/>
     <use xlink:href="#md7beb289d6" x="742.734275" y="79.64837" style="fill: #ff7f0e; stroke: #ff7f0e"/>
     <use xlink:href="#md7beb289d6" x="753.305158" y="79.64837" style="fill: #ff7f0e; stroke: #ff7f0e"/>
     <use xlink:href="#md7beb289d6" x="763.876041" y="79.64837" style="fill: #ff7f0e; stroke: #ff7f0e"/>
     <use xlink:href="#md7beb289d6" x="774.446924" y="79.64837" style="fill: #ff7f0e; stroke: #ff7f0e"/>
     <use xlink:href="#md7beb289d6" x="785.017806" y="79.64837" style="fill: #ff7f0e; stroke: #ff7f0e"/>
     <use xlink:href="#md7beb289d6" x="795.588689" y="79.64837" style="fill: #ff7f0e; stroke: #ff7f0e"/>
     <use xlink:href="#md7beb289d6" x="806.159572" y="79.64837" style="fill: #ff7f0e; stroke: #ff7f0e"/>
     <use xlink:href="#md7beb289d6" x="816.730455" y="79.64837" style="fill: #ff7f0e; stroke: #ff7f0e"/>
    </g>
   </g>
   <g id="line2d_25">
    <path d="M 87.339545 385.244834 
L 97.910428 362.777885 
L 108.481311 333.618653 
L 119.052194 317.079154 
L 129.623076 297.384723 
L 140.193959 277.403479 
L 150.764842 262.202437 
L 161.335725 245.280522 
L 171.906607 214.68723 
L 182.47749 193.367529 
L 193.048373 162.774237 
L 203.619256 145.469906 
L 214.190138 100.727216 
L 245.902787 100.727216 
L 256.473669 100.727216 
L 267.044552 100.727216 
L 277.615435 100.727216 
L 288.186318 100.727216 
L 309.328083 100.727216 
L 319.898966 100.727216 
L 330.469848 100.727216 
L 341.040731 100.727216 
L 351.611614 100.727216 
L 362.182497 93.556913 
L 372.753379 93.556913 
L 383.324262 93.556913 
L 393.895145 93.556913 
L 404.466028 93.556913 
L 415.03691 76.826207 
L 425.607793 76.826207 
L 436.178676 76.826207 
L 446.749559 76.826207 
L 457.320441 76.826207 
L 467.891324 76.826207 
L 478.462207 76.826207 
L 489.03309 76.826207 
L 499.603972 76.826207 
L 510.174855 76.826207 
L 520.745738 76.826207 
L 531.316621 76.826207 
L 541.887503 76.826207 
L 552.458386 76.826207 
L 563.029269 76.826207 
L 573.600152 76.826207 
L 584.171034 76.826207 
L 594.741917 76.826207 
L 605.3128 76.826207 
L 615.883682 76.826207 
L 626.454565 76.826207 
L 637.025448 76.826207 
L 647.596331 76.826207 
L 658.167213 76.826207 
L 668.738096 76.826207 
L 679.308979 76.826207 
L 689.879862 76.826207 
L 700.450744 76.826207 
L 711.021627 76.826207 
L 721.59251 76.826207 
L 732.163393 76.826207 
L 742.734275 76.826207 
L 753.305158 76.826207 
L 763.876041 76.826207 
L 774.446924 76.826207 
L 785.017806 76.826207 
L 795.588689 76.826207 
L 806.159572 76.826207 
L 816.730455 76.826207 
" clip-path="url(#pe3abd78940)" style="fill: none; stroke: #2ca02c; stroke-width: 1.5; stroke-linecap: square"/>
    <defs>
     <path id="m9e77a3e13c" d="M 0 3.5 
C 0.928211 3.5 1.81853 3.131218 2.474874 2.474874 
C 3.131218 1.81853 3.5 0.928211 3.5 0 
C 3.5 -0.928211 3.131218 -1.81853 2.474874 -2.474874 
C 1.81853 -3.131218 0.928211 -3.5 0 -3.5 
C -0.928211 -3.5 -1.81853 -3.131218 -2.474874 -2.474874 
C -3.131218 -1.81853 -3.5 -0.928211 -3.5 0 
C -3.5 0.928211 -3.131218 1.81853 -2.474874 2.474874 
C -1.81853 3.131218 -0.928211 3.5 0 3.5 
z
" style="stroke: #2ca02c"/>
    </defs>
    <g clip-path="url(#pe3abd78940)">
     <use xlink:href="#m9e77a3e13c" x="87.339545" y="385.244834" style="fill: #2ca02c; stroke: #2ca02c"/>
     <use xlink:href="#m9e77a3e13c" x="97.910428" y="362.777885" style="fill: #2ca02c; stroke: #2ca02c"/>
     <use xlink:href="#m9e77a3e13c" x="108.481311" y="333.618653" style="fill: #2ca02c; stroke: #2ca02c"/>
     <use xlink:href="#m9e77a3e13c" x="119.052194" y="317.079154" style="fill: #2ca02c; stroke: #2ca02c"/>
     <use xlink:href="#m9e77a3e13c" x="129.623076" y="297.384723" style="fill: #2ca02c; stroke: #2ca02c"/>
     <use xlink:href="#m9e77a3e13c" x="140.193959" y="277.403479" style="fill: #2ca02c; stroke: #2ca02c"/>
     <use xlink:href="#m9e77a3e13c" x="150.764842" y="262.202437" style="fill: #2ca02c; stroke: #2ca02c"/>
     <use xlink:href="#m9e77a3e13c" x="161.335725" y="245.280522" style="fill: #2ca02c; stroke: #2ca02c"/>
     <use xlink:href="#m9e77a3e13c" x="171.906607" y="214.68723" style="fill: #2ca02c; stroke: #2ca02c"/>
     <use xlink:href="#m9e77a3e13c" x="182.47749" y="193.367529" style="fill: #2ca02c; stroke: #2ca02c"/>
     <use xlink:href="#m9e77a3e13c" x="193.048373" y="162.774237" style="fill: #2ca02c; stroke: #2ca02c"/>
     <use xlink:href="#m9e77a3e13c" x="203.619256" y="145.469906" style="fill: #2ca02c; stroke: #2ca02c"/>
     <use xlink:href="#m9e77a3e13c" x="214.190138" y="100.727216" style="fill: #2ca02c; stroke: #2ca02c"/>
     <use xlink:href="#m9e77a3e13c" x="245.902787" y="100.727216" style="fill: #2ca02c; stroke: #2ca02c"/>
     <use xlink:href="#m9e77a3e13c" x="256.473669" y="100.727216" style="fill: #2ca02c; stroke: #2ca02c"/>
     <use xlink:href="#m9e77a3e13c" x="267.044552" y="100.727216" style="fill: #2ca02c; stroke: #2ca02c"/>
     <use xlink:href="#m9e77a3e13c" x="277.615435" y="100.727216" style="fill: #2ca02c; stroke: #2ca02c"/>
     <use xlink:href="#m9e77a3e13c" x="288.186318" y="100.727216" style="fill: #2ca02c; stroke: #2ca02c"/>
     <use xlink:href="#m9e77a3e13c" x="309.328083" y="100.727216" style="fill: #2ca02c; stroke: #2ca02c"/>
     <use xlink:href="#m9e77a3e13c" x="319.898966" y="100.727216" style="fill: #2ca02c; stroke: #2ca02c"/>
     <use xlink:href="#m9e77a3e13c" x="330.469848" y="100.727216" style="fill: #2ca02c; stroke: #2ca02c"/>
     <use xlink:href="#m9e77a3e13c" x="341.040731" y="100.727216" style="fill: #2ca02c; stroke: #2ca02c"/>
     <use xlink:href="#m9e77a3e13c" x="351.611614" y="100.727216" style="fill: #2ca02c; stroke: #2ca02c"/>
     <use xlink:href="#m9e77a3e13c" x="362.182497" y="93.556913" style="fill: #2ca02c; stroke: #2ca02c"/>
     <use xlink:href="#m9e77a3e13c" x="372.753379" y="93.556913" style="fill: #2ca02c; stroke: #2ca02c"/>
     <use xlink:href="#m9e77a3e13c" x="383.324262" y="93.556913" style="fill: #2ca02c; stroke: #2ca02c"/>
     <use xlink:href="#m9e77a3e13c" x="393.895145" y="93.556913" style="fill: #2ca02c; stroke: #2ca02c"/>
     <use xlink:href="#m9e77a3e13c" x="404.466028" y="93.556913" style="fill: #2ca02c; stroke: #2ca02c"/>
     <use xlink:href="#m9e77a3e13c" x="415.03691" y="76.826207" style="fill: #2ca02c; stroke: #2ca02c"/>
     <use xlink:href="#m9e77a3e13c" x="425.607793" y="76.826207" style="fill: #2ca02c; stroke: #2ca02c"/>
     <use xlink:href="#m9e77a3e13c" x="436.178676" y="76.826207" style="fill: #2ca02c; stroke: #2ca02c"/>
     <use xlink:href="#m9e77a3e13c" x="446.749559" y="76.826207" style="fill: #2ca02c; stroke: #2ca02c"/>
     <use xlink:href="#m9e77a3e13c" x="457.320441" y="76.826207" style="fill: #2ca02c; stroke: #2ca02c"/>
     <use xlink:href="#m9e77a3e13c" x="467.891324" y="76.826207" style="fill: #2ca02c; stroke: #2ca02c"/>
     <use xlink:href="#m9e77a3e13c" x="478.462207" y="76.826207" style="fill: #2ca02c; stroke: #2ca02c"/>
     <use xlink:href="#m9e77a3e13c" x="489.03309" y="76.826207" style="fill: #2ca02c; stroke: #2ca02c"/>
     <use xlink:href="#m9e77a3e13c" x="499.603972" y="76.826207" style="fill: #2ca02c; stroke: #2ca02c"/>
     <use xlink:href="#m9e77a3e13c" x="510.174855" y="76.826207" style="fill: #2ca02c; stroke: #2ca02c"/>
     <use xlink:href="#m9e77a3e13c" x="520.745738" y="76.826207" style="fill: #2ca02c; stroke: #2ca02c"/>
     <use xlink:href="#m9e77a3e13c" x="531.316621" y="76.826207" style="fill: #2ca02c; stroke: #2ca02c"/>
     <use xlink:href="#m9e77a3e13c" x="541.887503" y="76.826207" style="fill: #2ca02c; stroke: #2ca02c"/>
     <use xlink:href="#m9e77a3e13c" x="552.458386" y="76.826207" style="fill: #2ca02c; stroke: #2ca02c"/>
     <use xlink:href="#m9e77a3e13c" x="563.029269" y="76.826207" style="fill: #2ca02c; stroke: #2ca02c"/>
     <use xlink:href="#m9e77a3e13c" x="573.600152" y="76.826207" style="fill: #2ca02c; stroke: #2ca02c"/>
     <use xlink:href="#m9e77a3e13c" x="584.171034" y="76.826207" style="fill: #2ca02c; stroke: #2ca02c"/>
     <use xlink:href="#m9e77a3e13c" x="594.741917" y="76.826207" style="fill: #2ca02c; stroke: #2ca02c"/>
     <use xlink:href="#m9e77a3e13c" x="605.3128" y="76.826207" style="fill: #2ca02c; stroke: #2ca02c"/>
     <use xlink:href="#m9e77a3e13c" x="615.883682" y="76.826207" style="fill: #2ca02c; stroke: #2ca02c"/>
     <use xlink:href="#m9e77a3e13c" x="626.454565" y="76.826207" style="fill: #2ca02c; stroke: #2ca02c"/>
     <use xlink:href="#m9e77a3e13c" x="637.025448" y="76.826207" style="fill: #2ca02c; stroke: #2ca02c"/>
     <use xlink:href="#m9e77a3e13c" x="647.596331" y="76.826207" style="fill: #2ca02c; stroke: #2ca02c"/>
     <use xlink:href="#m9e77a3e13c" x="658.167213" y="76.826207" style="fill: #2ca02c; stroke: #2ca02c"/>
     <use xlink:href="#m9e77a3e13c" x="668.738096" y="76.826207" style="fill: #2ca02c; stroke: #2ca02c"/>
     <use xlink:href="#m9e77a3e13c" x="679.308979" y="76.826207" style="fill: #2ca02c; stroke: #2ca02c"/>
     <use xlink:href="#m9e77a3e13c" x="689.879862" y="76.826207" style="fill: #2ca02c; stroke: #2ca02c"/>
     <use xlink:href="#m9e77a3e13c" x="700.450744" y="76.826207" style="fill: #2ca02c; stroke: #2ca02c"/>
     <use xlink:href="#m9e77a3e13c" x="711.021627" y="76.826207" style="fill: #2ca02c; stroke: #2ca02c"/>
     <use xlink:href="#m9e77a3e13c" x="721.59251" y="76.826207" style="fill: #2ca02c; stroke: #2ca02c"/>
     <use xlink:href="#m9e77a3e13c" x="732.163393" y="76.826207" style="fill: #2ca02c; stroke: #2ca02c"/>
     <use xlink:href="#m9e77a3e13c" x="742.734275" y="76.826207" style="fill: #2ca02c; stroke: #2ca02c"/>
     <use xlink:href="#m9e77a3e13c" x="753.305158" y="76.826207" style="fill: #2ca02c; stroke: #2ca02c"/>
     <use xlink:href="#m9e77a3e13c" x="763.876041" y="76.826207" style="fill: #2ca02c; stroke: #2ca02c"/>
     <use xlink:href="#m9e77a3e13c" x="774.446924" y="76.826207" style="fill: #2ca02c; stroke: #2ca02c"/>
     <use xlink:href="#m9e77a3e13c" x="785.017806" y="76.826207" style="fill: #2ca02c; stroke: #2ca02c"/>
     <use xlink:href="#m9e77a3e13c" x="795.588689" y="76.826207" style="fill: #2ca02c; stroke: #2ca02c"/>
     <use xlink:href="#m9e77a3e13c" x="806.159572" y="76.826207" style="fill: #2ca02c; stroke: #2ca02c"/>
     <use xlink:href="#m9e77a3e13c" x="816.730455" y="76.826207" style="fill: #2ca02c; stroke: #2ca02c"/>
    </g>
   </g>
   <g id="line2d_26">
    <path d="M 87.339545 385.389977 
L 97.910428 362.903907 
L 108.481311 337.205541 
L 119.052194 323.553285 
L 129.623076 308.384111 
L 140.193959 281.436519 
L 150.764842 251.812015 
L 161.335725 242.532049 
L 171.906607 213.799849 
L 182.47749 196.399914 
L 193.048373 164.990801 
L 203.619256 147.680096 
L 214.190138 92.446457 
L 245.902787 92.446457 
L 256.473669 92.446457 
L 267.044552 92.446457 
L 277.615435 92.446457 
L 288.186318 92.446457 
L 309.328083 92.446457 
L 319.898966 92.446457 
L 330.469848 92.446457 
L 341.040731 92.446457 
L 351.611614 92.446457 
L 362.182497 81.738804 
L 372.753379 81.738804 
L 383.324262 81.738804 
L 393.895145 81.738804 
L 404.466028 81.738804 
L 415.03691 75.492674 
L 425.607793 75.492674 
L 436.178676 75.492674 
L 446.749559 75.492674 
L 457.320441 75.492674 
L 467.891324 75.492674 
L 478.462207 75.492674 
L 489.03309 75.492674 
L 499.603972 75.492674 
L 510.174855 75.492674 
L 520.745738 75.492674 
L 531.316621 75.492674 
L 541.887503 75.492674 
L 552.458386 75.492674 
L 563.029269 75.492674 
L 573.600152 75.492674 
L 584.171034 75.492674 
L 594.741917 75.492674 
L 605.3128 75.492674 
L 615.883682 75.492674 
L 626.454565 75.492674 
L 637.025448 75.492674 
L 647.596331 75.492674 
L 658.167213 75.492674 
L 668.738096 75.492674 
L 679.308979 75.492674 
L 689.879862 75.492674 
L 700.450744 75.492674 
L 711.021627 75.492674 
L 721.59251 75.492674 
L 732.163393 75.492674 
L 742.734275 75.492674 
L 753.305158 75.492674 
L 763.876041 75.492674 
L 774.446924 75.492674 
L 785.017806 75.492674 
L 795.588689 75.492674 
L 806.159572 75.492674 
L 816.730455 75.492674 
" clip-path="url(#pe3abd78940)" style="fill: none; stroke: #d62728; stroke-width: 1.5; stroke-linecap: square"/>
    <defs>
     <path id="m6c2cc165d3" d="M 0 3.5 
C 0.928211 3.5 1.81853 3.131218 2.474874 2.474874 
C 3.131218 1.81853 3.5 0.928211 3.5 0 
C 3.5 -0.928211 3.131218 -1.81853 2.474874 -2.474874 
C 1.81853 -3.131218 0.928211 -3.5 0 -3.5 
C -0.928211 -3.5 -1.81853 -3.131218 -2.474874 -2.474874 
C -3.131218 -1.81853 -3.5 -0.928211 -3.5 0 
C -3.5 0.928211 -3.131218 1.81853 -2.474874 2.474874 
C -1.81853 3.131218 -0.928211 3.5 0 3.5 
z
" style="stroke: #d62728"/>
    </defs>
    <g clip-path="url(#pe3abd78940)">
     <use xlink:href="#m6c2cc165d3" x="87.339545" y="385.389977" style="fill: #d62728; stroke: #d62728"/>
     <use xlink:href="#m6c2cc165d3" x="97.910428" y="362.903907" style="fill: #d62728; stroke: #d62728"/>
     <use xlink:href="#m6c2cc165d3" x="108.481311" y="337.205541" style="fill: #d62728; stroke: #d62728"/>
     <use xlink:href="#m6c2cc165d3" x="119.052194" y="323.553285" style="fill: #d62728; stroke: #d62728"/>
     <use xlink:href="#m6c2cc165d3" x="129.623076" y="308.384111" style="fill: #d62728; stroke: #d62728"/>
     <use xlink:href="#m6c2cc165d3" x="140.193959" y="281.436519" style="fill: #d62728; stroke: #d62728"/>
     <use xlink:href="#m6c2cc165d3" x="150.764842" y="251.812015" style="fill: #d62728; stroke: #d62728"/>
     <use xlink:href="#m6c2cc165d3" x="161.335725" y="242.532049" style="fill: #d62728; stroke: #d62728"/>
     <use xlink:href="#m6c2cc165d3" x="171.906607" y="213.799849" style="fill: #d62728; stroke: #d62728"/>
     <use xlink:href="#m6c2cc165d3" x="182.47749" y="196.399914" style="fill: #d62728; stroke: #d62728"/>
     <use xlink:href="#m6c2cc165d3" x="193.048373" y="164.990801" style="fill: #d62728; stroke: #d62728"/>
     <use xlink:href="#m6c2cc165d3" x="203.619256" y="147.680096" style="fill: #d62728; stroke: #d62728"/>
     <use xlink:href="#m6c2cc165d3" x="214.190138" y="92.446457" style="fill: #d62728; stroke: #d62728"/>
     <use xlink:href="#m6c2cc165d3" x="245.902787" y="92.446457" style="fill: #d62728; stroke: #d62728"/>
     <use xlink:href="#m6c2cc165d3" x="256.473669" y="92.446457" style="fill: #d62728; stroke: #d62728"/>
     <use xlink:href="#m6c2cc165d3" x="267.044552" y="92.446457" style="fill: #d62728; stroke: #d62728"/>
     <use xlink:href="#m6c2cc165d3" x="277.615435" y="92.446457" style="fill: #d62728; stroke: #d62728"/>
     <use xlink:href="#m6c2cc165d3" x="288.186318" y="92.446457" style="fill: #d62728; stroke: #d62728"/>
     <use xlink:href="#m6c2cc165d3" x="309.328083" y="92.446457" style="fill: #d62728; stroke: #d62728"/>
     <use xlink:href="#m6c2cc165d3" x="319.898966" y="92.446457" style="fill: #d62728; stroke: #d62728"/>
     <use xlink:href="#m6c2cc165d3" x="330.469848" y="92.446457" style="fill: #d62728; stroke: #d62728"/>
     <use xlink:href="#m6c2cc165d3" x="341.040731" y="92.446457" style="fill: #d62728; stroke: #d62728"/>
     <use xlink:href="#m6c2cc165d3" x="351.611614" y="92.446457" style="fill: #d62728; stroke: #d62728"/>
     <use xlink:href="#m6c2cc165d3" x="362.182497" y="81.738804" style="fill: #d62728; stroke: #d62728"/>
     <use xlink:href="#m6c2cc165d3" x="372.753379" y="81.738804" style="fill: #d62728; stroke: #d62728"/>
     <use xlink:href="#m6c2cc165d3" x="383.324262" y="81.738804" style="fill: #d62728; stroke: #d62728"/>
     <use xlink:href="#m6c2cc165d3" x="393.895145" y="81.738804" style="fill: #d62728; stroke: #d62728"/>
     <use xlink:href="#m6c2cc165d3" x="404.466028" y="81.738804" style="fill: #d62728; stroke: #d62728"/>
     <use xlink:href="#m6c2cc165d3" x="415.03691" y="75.492674" style="fill: #d62728; stroke: #d62728"/>
     <use xlink:href="#m6c2cc165d3" x="425.607793" y="75.492674" style="fill: #d62728; stroke: #d62728"/>
     <use xlink:href="#m6c2cc165d3" x="436.178676" y="75.492674" style="fill: #d62728; stroke: #d62728"/>
     <use xlink:href="#m6c2cc165d3" x="446.749559" y="75.492674" style="fill: #d62728; stroke: #d62728"/>
     <use xlink:href="#m6c2cc165d3" x="457.320441" y="75.492674" style="fill: #d62728; stroke: #d62728"/>
     <use xlink:href="#m6c2cc165d3" x="467.891324" y="75.492674" style="fill: #d62728; stroke: #d62728"/>
     <use xlink:href="#m6c2cc165d3" x="478.462207" y="75.492674" style="fill: #d62728; stroke: #d62728"/>
     <use xlink:href="#m6c2cc165d3" x="489.03309" y="75.492674" style="fill: #d62728; stroke: #d62728"/>
     <use xlink:href="#m6c2cc165d3" x="499.603972" y="75.492674" style="fill: #d62728; stroke: #d62728"/>
     <use xlink:href="#m6c2cc165d3" x="510.174855" y="75.492674" style="fill: #d62728; stroke: #d62728"/>
     <use xlink:href="#m6c2cc165d3" x="520.745738" y="75.492674" style="fill: #d62728; stroke: #d62728"/>
     <use xlink:href="#m6c2cc165d3" x="531.316621" y="75.492674" style="fill: #d62728; stroke: #d62728"/>
     <use xlink:href="#m6c2cc165d3" x="541.887503" y="75.492674" style="fill: #d62728; stroke: #d62728"/>
     <use xlink:href="#m6c2cc165d3" x="552.458386" y="75.492674" style="fill: #d62728; stroke: #d62728"/>
     <use xlink:href="#m6c2cc165d3" x="563.029269" y="75.492674" style="fill: #d62728; stroke: #d62728"/>
     <use xlink:href="#m6c2cc165d3" x="573.600152" y="75.492674" style="fill: #d62728; stroke: #d62728"/>
     <use xlink:href="#m6c2cc165d3" x="584.171034" y="75.492674" style="fill: #d62728; stroke: #d62728"/>
     <use xlink:href="#m6c2cc165d3" x="594.741917" y="75.492674" style="fill: #d62728; stroke: #d62728"/>
     <use xlink:href="#m6c2cc165d3" x="605.3128" y="75.492674" style="fill: #d62728; stroke: #d62728"/>
     <use xlink:href="#m6c2cc165d3" x="615.883682" y="75.492674" style="fill: #d62728; stroke: #d62728"/>
     <use xlink:href="#m6c2cc165d3" x="626.454565" y="75.492674" style="fill: #d62728; stroke: #d62728"/>
     <use xlink:href="#m6c2cc165d3" x="637.025448" y="75.492674" style="fill: #d62728; stroke: #d62728"/>
     <use xlink:href="#m6c2cc165d3" x="647.596331" y="75.492674" style="fill: #d62728; stroke: #d62728"/>
     <use xlink:href="#m6c2cc165d3" x="658.167213" y="75.492674" style="fill: #d62728; stroke: #d62728"/>
     <use xlink:href="#m6c2cc165d3" x="668.738096" y="75.492674" style="fill: #d62728; stroke: #d62728"/>
     <use xlink:href="#m6c2cc165d3" x="679.308979" y="75.492674" style="fill: #d62728; stroke: #d62728"/>
     <use xlink:href="#m6c2cc165d3" x="689.879862" y="75.492674" style="fill: #d62728; stroke: #d62728"/>
     <use xlink:href="#m6c2cc165d3" x="700.450744" y="75.492674" style="fill: #d62728; stroke: #d62728"/>
     <use xlink:href="#m6c2cc165d3" x="711.021627" y="75.492674" style="fill: #d62728; stroke: #d62728"/>
     <use xlink:href="#m6c2cc165d3" x="721.59251" y="75.492674" style="fill: #d62728; stroke: #d62728"/>
     <use xlink:href="#m6c2cc165d3" x="732.163393" y="75.492674" style="fill: #d62728; stroke: #d62728"/>
     <use xlink:href="#m6c2cc165d3" x="742.734275" y="75.492674" style="fill: #d62728; stroke: #d62728"/>
     <use xlink:href="#m6c2cc165d3" x="753.305158" y="75.492674" style="fill: #d62728; stroke: #d62728"/>
     <use xlink:href="#m6c2cc165d3" x="763.876041" y="75.492674" style="fill: #d62728; stroke: #d62728"/>
     <use xlink:href="#m6c2cc165d3" x="774.446924" y="75.492674" style="fill: #d62728; stroke: #d62728"/>
     <use xlink:href="#m6c2cc165d3" x="785.017806" y="75.492674" style="fill: #d62728; stroke: #d62728"/>
     <use xlink:href="#m6c2cc165d3" x="795.588689" y="75.492674" style="fill: #d62728; stroke: #d62728"/>
     <use xlink:href="#m6c2cc165d3" x="806.159572" y="75.492674" style="fill: #d62728; stroke: #d62728"/>
     <use xlink:href="#m6c2cc165d3" x="816.730455" y="75.492674" style="fill: #d62728; stroke: #d62728"/>
    </g>
   </g>
   <g id="line2d_27">
    <path d="M 87.339545 386.972727 
L 97.910428 361.244618 
L 108.481311 341.613922 
L 119.052194 324.06527 
L 129.623076 307.111487 
L 140.193959 285.696183 
L 150.764842 273.650074 
L 161.335725 262.49627 
L 171.906607 232.901508 
L 182.47749 212.527226 
L 193.048373 172.076095 
L 203.619256 155.271029 
L 214.190138 108.127616 
L 245.902787 108.127616 
L 256.473669 108.127616 
L 267.044552 108.127616 
L 277.615435 108.127616 
L 288.186318 108.127616 
L 309.328083 108.127616 
L 319.898966 108.127616 
L 330.469848 108.127616 
L 341.040731 108.127616 
L 351.611614 108.127616 
L 362.182497 92.51229 
L 372.753379 92.51229 
L 383.324262 92.51229 
L 393.895145 92.51229 
L 404.466028 92.51229 
L 415.03691 73.179029 
L 425.607793 73.179029 
L 436.178676 73.179029 
L 446.749559 73.179029 
L 457.320441 73.179029 
L 467.891324 73.179029 
L 478.462207 73.179029 
L 489.03309 73.179029 
L 499.603972 73.179029 
L 510.174855 73.179029 
L 520.745738 73.179029 
L 531.316621 73.179029 
L 541.887503 73.179029 
L 552.458386 73.179029 
L 563.029269 73.179029 
L 573.600152 73.179029 
L 584.171034 73.179029 
L 594.741917 73.179029 
L 605.3128 73.179029 
L 615.883682 73.179029 
L 626.454565 73.179029 
L 637.025448 73.179029 
L 647.596331 73.179029 
L 658.167213 73.179029 
L 668.738096 73.179029 
L 679.308979 73.179029 
L 689.879862 73.179029 
L 700.450744 73.179029 
L 711.021627 73.179029 
L 721.59251 73.179029 
L 732.163393 73.179029 
L 742.734275 73.179029 
L 753.305158 73.179029 
L 763.876041 73.179029 
L 774.446924 73.179029 
L 785.017806 73.179029 
L 795.588689 73.179029 
L 806.159572 73.179029 
L 816.730455 73.179029 
" clip-path="url(#pe3abd78940)" style="fill: none; stroke: #9467bd; stroke-width: 1.5; stroke-linecap: square"/>
    <defs>
     <path id="m52a69365b9" d="M 0 3.5 
C 0.928211 3.5 1.81853 3.131218 2.474874 2.474874 
C 3.131218 1.81853 3.5 0.928211 3.5 0 
C 3.5 -0.928211 3.131218 -1.81853 2.474874 -2.474874 
C 1.81853 -3.131218 0.928211 -3.5 0 -3.5 
C -0.928211 -3.5 -1.81853 -3.131218 -2.474874 -2.474874 
C -3.131218 -1.81853 -3.5 -0.928211 -3.5 0 
C -3.5 0.928211 -3.131218 1.81853 -2.474874 2.474874 
C -1.81853 3.131218 -0.928211 3.5 0 3.5 
z
" style="stroke: #9467bd"/>
    </defs>
    <g clip-path="url(#pe3abd78940)">
     <use xlink:href="#m52a69365b9" x="87.339545" y="386.972727" style="fill: #9467bd; stroke: #9467bd"/>
     <use xlink:href="#m52a69365b9" x="97.910428" y="361.244618" style="fill: #9467bd; stroke: #9467bd"/>
     <use xlink:href="#m52a69365b9" x="108.481311" y="341.613922" style="fill: #9467bd; stroke: #9467bd"/>
     <use xlink:href="#m52a69365b9" x="119.052194" y="324.06527" style="fill: #9467bd; stroke: #9467bd"/>
     <use xlink:href="#m52a69365b9" x="129.623076" y="307.111487" style="fill: #9467bd; stroke: #9467bd"/>
     <use xlink:href="#m52a69365b9" x="140.193959" y="285.696183" style="fill: #9467bd; stroke: #9467bd"/>
     <use xlink:href="#m52a69365b9" x="150.764842" y="273.650074" style="fill: #9467bd; stroke: #9467bd"/>
     <use xlink:href="#m52a69365b9" x="161.335725" y="262.49627" style="fill: #9467bd; stroke: #9467bd"/>
     <use xlink:href="#m52a69365b9" x="171.906607" y="232.901508" style="fill: #9467bd; stroke: #9467bd"/>
     <use xlink:href="#m52a69365b9" x="182.47749" y="212.527226" style="fill: #9467bd; stroke: #9467bd"/>
     <use xlink:href="#m52a69365b9" x="193.048373" y="172.076095" style="fill: #9467bd; stroke: #9467bd"/>
     <use xlink:href="#m52a69365b9" x="203.619256" y="155.271029" style="fill: #9467bd; stroke: #9467bd"/>
     <use xlink:href="#m52a69365b9" x="214.190138" y="108.127616" style="fill: #9467bd; stroke: #9467bd"/>
     <use xlink:href="#m52a69365b9" x="245.902787" y="108.127616" style="fill: #9467bd; stroke: #9467bd"/>
     <use xlink:href="#m52a69365b9" x="256.473669" y="108.127616" style="fill: #9467bd; stroke: #9467bd"/>
     <use xlink:href="#m52a69365b9" x="267.044552" y="108.127616" style="fill: #9467bd; stroke: #9467bd"/>
     <use xlink:href="#m52a69365b9" x="277.615435" y="108.127616" style="fill: #9467bd; stroke: #9467bd"/>
     <use xlink:href="#m52a69365b9" x="288.186318" y="108.127616" style="fill: #9467bd; stroke: #9467bd"/>
     <use xlink:href="#m52a69365b9" x="309.328083" y="108.127616" style="fill: #9467bd; stroke: #9467bd"/>
     <use xlink:href="#m52a69365b9" x="319.898966" y="108.127616" style="fill: #9467bd; stroke: #9467bd"/>
     <use xlink:href="#m52a69365b9" x="330.469848" y="108.127616" style="fill: #9467bd; stroke: #9467bd"/>
     <use xlink:href="#m52a69365b9" x="341.040731" y="108.127616" style="fill: #9467bd; stroke: #9467bd"/>
     <use xlink:href="#m52a69365b9" x="351.611614" y="108.127616" style="fill: #9467bd; stroke: #9467bd"/>
     <use xlink:href="#m52a69365b9" x="362.182497" y="92.51229" style="fill: #9467bd; stroke: #9467bd"/>
     <use xlink:href="#m52a69365b9" x="372.753379" y="92.51229" style="fill: #9467bd; stroke: #9467bd"/>
     <use xlink:href="#m52a69365b9" x="383.324262" y="92.51229" style="fill: #9467bd; stroke: #9467bd"/>
     <use xlink:href="#m52a69365b9" x="393.895145" y="92.51229" style="fill: #9467bd; stroke: #9467bd"/>
     <use xlink:href="#m52a69365b9" x="404.466028" y="92.51229" style="fill: #9467bd; stroke: #9467bd"/>
     <use xlink:href="#m52a69365b9" x="415.03691" y="73.179029" style="fill: #9467bd; stroke: #9467bd"/>
     <use xlink:href="#m52a69365b9" x="425.607793" y="73.179029" style="fill: #9467bd; stroke: #9467bd"/>
     <use xlink:href="#m52a69365b9" x="436.178676" y="73.179029" style="fill: #9467bd; stroke: #9467bd"/>
     <use xlink:href="#m52a69365b9" x="446.749559" y="73.179029" style="fill: #9467bd; stroke: #9467bd"/>
     <use xlink:href="#m52a69365b9" x="457.320441" y="73.179029" style="fill: #9467bd; stroke: #9467bd"/>
     <use xlink:href="#m52a69365b9" x="467.891324" y="73.179029" style="fill: #9467bd; stroke: #9467bd"/>
     <use xlink:href="#m52a69365b9" x="478.462207" y="73.179029" style="fill: #9467bd; stroke: #9467bd"/>
     <use xlink:href="#m52a69365b9" x="489.03309" y="73.179029" style="fill: #9467bd; stroke: #9467bd"/>
     <use xlink:href="#m52a69365b9" x="499.603972" y="73.179029" style="fill: #9467bd; stroke: #9467bd"/>
     <use xlink:href="#m52a69365b9" x="510.174855" y="73.179029" style="fill: #9467bd; stroke: #9467bd"/>
     <use xlink:href="#m52a69365b9" x="520.745738" y="73.179029" style="fill: #9467bd; stroke: #9467bd"/>
     <use xlink:href="#m52a69365b9" x="531.316621" y="73.179029" style="fill: #9467bd; stroke: #9467bd"/>
     <use xlink:href="#m52a69365b9" x="541.887503" y="73.179029" style="fill: #9467bd; stroke: #9467bd"/>
     <use xlink:href="#m52a69365b9" x="552.458386" y="73.179029" style="fill: #9467bd; stroke: #9467bd"/>
     <use xlink:href="#m52a69365b9" x="563.029269" y="73.179029" style="fill: #9467bd; stroke: #9467bd"/>
     <use xlink:href="#m52a69365b9" x="573.600152" y="73.179029" style="fill: #9467bd; stroke: #9467bd"/>
     <use xlink:href="#m52a69365b9" x="584.171034" y="73.179029" style="fill: #9467bd; stroke: #9467bd"/>
     <use xlink:href="#m52a69365b9" x="594.741917" y="73.179029" style="fill: #9467bd; stroke: #9467bd"/>
     <use xlink:href="#m52a69365b9" x="605.3128" y="73.179029" style="fill: #9467bd; stroke: #9467bd"/>
     <use xlink:href="#m52a69365b9" x="615.883682" y="73.179029" style="fill: #9467bd; stroke: #9467bd"/>
     <use xlink:href="#m52a69365b9" x="626.454565" y="73.179029" style="fill: #9467bd; stroke: #9467bd"/>
     <use xlink:href="#m52a69365b9" x="637.025448" y="73.179029" style="fill: #9467bd; stroke: #9467bd"/>
     <use xlink:href="#m52a69365b9" x="647.596331" y="73.179029" style="fill: #9467bd; stroke: #9467bd"/>
     <use xlink:href="#m52a69365b9" x="658.167213" y="73.179029" style="fill: #9467bd; stroke: #9467bd"/>
     <use xlink:href="#m52a69365b9" x="668.738096" y="73.179029" style="fill: #9467bd; stroke: #9467bd"/>
     <use xlink:href="#m52a69365b9" x="679.308979" y="73.179029" style="fill: #9467bd; stroke: #9467bd"/>
     <use xlink:href="#m52a69365b9" x="689.879862" y="73.179029" style="fill: #9467bd; stroke: #9467bd"/>
     <use xlink:href="#m52a69365b9" x="700.450744" y="73.179029" style="fill: #9467bd; stroke: #9467bd"/>
     <use xlink:href="#m52a69365b9" x="711.021627" y="73.179029" style="fill: #9467bd; stroke: #9467bd"/>
     <use xlink:href="#m52a69365b9" x="721.59251" y="73.179029" style="fill: #9467bd; stroke: #9467bd"/>
     <use xlink:href="#m52a69365b9" x="732.163393" y="73.179029" style="fill: #9467bd; stroke: #9467bd"/>
     <use xlink:href="#m52a69365b9" x="742.734275" y="73.179029" style="fill: #9467bd; stroke: #9467bd"/>
     <use xlink:href="#m52a69365b9" x="753.305158" y="73.179029" style="fill: #9467bd; stroke: #9467bd"/>
     <use xlink:href="#m52a69365b9" x="763.876041" y="73.179029" style="fill: #9467bd; stroke: #9467bd"/>
     <use xlink:href="#m52a69365b9" x="774.446924" y="73.179029" style="fill: #9467bd; stroke: #9467bd"/>
     <use xlink:href="#m52a69365b9" x="785.017806" y="73.179029" style="fill: #9467bd; stroke: #9467bd"/>
     <use xlink:href="#m52a69365b9" x="795.588689" y="73.179029" style="fill: #9467bd; stroke: #9467bd"/>
     <use xlink:href="#m52a69365b9" x="806.159572" y="73.179029" style="fill: #9467bd; stroke: #9467bd"/>
     <use xlink:href="#m52a69365b9" x="816.730455" y="73.179029" style="fill: #9467bd; stroke: #9467bd"/>
    </g>
   </g>
   <g id="line2d_28">
    <path d="M 87.339545 381.318319 
L 97.910428 356.556874 
L 108.481311 330.233895 
L 119.052194 314.172417 
L 129.623076 296.326329 
L 140.193959 273.126416 
L 150.764842 253.272644 
L 161.335725 236.318862 
L 171.906607 201.965144 
L 182.47749 183.003676 
L 193.048373 148.873035 
L 203.619256 132.142328 
L 214.190138 79.719447 
L 245.902787 79.719447 
L 256.473669 79.719447 
L 267.044552 79.719447 
L 277.615435 79.719447 
L 288.186318 79.719447 
L 309.328083 79.719447 
L 319.898966 79.719447 
L 330.469848 79.719447 
L 341.040731 79.719447 
L 351.611614 79.719447 
L 362.182497 66.334882 
L 372.753379 66.334882 
L 383.324262 66.334882 
L 393.895145 66.334882 
L 404.466028 66.334882 
L 415.03691 44.027273 
L 425.607793 44.027273 
L 436.178676 44.027273 
L 446.749559 44.027273 
L 457.320441 44.027273 
L 467.891324 44.027273 
L 478.462207 44.027273 
L 489.03309 44.027273 
L 499.603972 44.027273 
L 510.174855 44.027273 
L 520.745738 44.027273 
L 531.316621 44.027273 
L 541.887503 44.027273 
L 552.458386 44.027273 
L 563.029269 44.027273 
L 573.600152 44.027273 
L 584.171034 44.027273 
L 594.741917 44.027273 
L 605.3128 44.027273 
L 615.883682 44.027273 
L 626.454565 44.027273 
L 637.025448 44.027273 
L 647.596331 44.027273 
L 658.167213 44.027273 
L 668.738096 44.027273 
L 679.308979 44.027273 
L 689.879862 44.027273 
L 700.450744 44.027273 
L 711.021627 44.027273 
L 721.59251 44.027273 
L 732.163393 44.027273 
L 742.734275 44.027273 
L 753.305158 44.027273 
L 763.876041 44.027273 
L 774.446924 44.027273 
L 785.017806 44.027273 
L 795.588689 44.027273 
L 806.159572 44.027273 
L 816.730455 44.027273 
" clip-path="url(#pe3abd78940)" style="fill: none; stroke: #8c564b; stroke-width: 1.5; stroke-linecap: square"/>
    <defs>
     <path id="mafae82a891" d="M 0 3.5 
C 0.928211 3.5 1.81853 3.131218 2.474874 2.474874 
C 3.131218 1.81853 3.5 0.928211 3.5 0 
C 3.5 -0.928211 3.131218 -1.81853 2.474874 -2.474874 
C 1.81853 -3.131218 0.928211 -3.5 0 -3.5 
C -0.928211 -3.5 -1.81853 -3.131218 -2.474874 -2.474874 
C -3.131218 -1.81853 -3.5 -0.928211 -3.5 0 
C -3.5 0.928211 -3.131218 1.81853 -2.474874 2.474874 
C -1.81853 3.131218 -0.928211 3.5 0 3.5 
z
" style="stroke: #8c564b"/>
    </defs>
    <g clip-path="url(#pe3abd78940)">
     <use xlink:href="#mafae82a891" x="87.339545" y="381.318319" style="fill: #8c564b; stroke: #8c564b"/>
     <use xlink:href="#mafae82a891" x="97.910428" y="356.556874" style="fill: #8c564b; stroke: #8c564b"/>
     <use xlink:href="#mafae82a891" x="108.481311" y="330.233895" style="fill: #8c564b; stroke: #8c564b"/>
     <use xlink:href="#mafae82a891" x="119.052194" y="314.172417" style="fill: #8c564b; stroke: #8c564b"/>
     <use xlink:href="#mafae82a891" x="129.623076" y="296.326329" style="fill: #8c564b; stroke: #8c564b"/>
     <use xlink:href="#mafae82a891" x="140.193959" y="273.126416" style="fill: #8c564b; stroke: #8c564b"/>
     <use xlink:href="#mafae82a891" x="150.764842" y="253.272644" style="fill: #8c564b; stroke: #8c564b"/>
     <use xlink:href="#mafae82a891" x="161.335725" y="236.318862" style="fill: #8c564b; stroke: #8c564b"/>
     <use xlink:href="#mafae82a891" x="171.906607" y="201.965144" style="fill: #8c564b; stroke: #8c564b"/>
     <use xlink:href="#mafae82a891" x="182.47749" y="183.003676" style="fill: #8c564b; stroke: #8c564b"/>
     <use xlink:href="#mafae82a891" x="193.048373" y="148.873035" style="fill: #8c564b; stroke: #8c564b"/>
     <use xlink:href="#mafae82a891" x="203.619256" y="132.142328" style="fill: #8c564b; stroke: #8c564b"/>
     <use xlink:href="#mafae82a891" x="214.190138" y="79.719447" style="fill: #8c564b; stroke: #8c564b"/>
     <use xlink:href="#mafae82a891" x="245.902787" y="79.719447" style="fill: #8c564b; stroke: #8c564b"/>
     <use xlink:href="#mafae82a891" x="256.473669" y="79.719447" style="fill: #8c564b; stroke: #8c564b"/>
     <use xlink:href="#mafae82a891" x="267.044552" y="79.719447" style="fill: #8c564b; stroke: #8c564b"/>
     <use xlink:href="#mafae82a891" x="277.615435" y="79.719447" style="fill: #8c564b; stroke: #8c564b"/>
     <use xlink:href="#mafae82a891" x="288.186318" y="79.719447" style="fill: #8c564b; stroke: #8c564b"/>
     <use xlink:href="#mafae82a891" x="309.328083" y="79.719447" style="fill: #8c564b; stroke: #8c564b"/>
     <use xlink:href="#mafae82a891" x="319.898966" y="79.719447" style="fill: #8c564b; stroke: #8c564b"/>
     <use xlink:href="#mafae82a891" x="330.469848" y="79.719447" style="fill: #8c564b; stroke: #8c564b"/>
     <use xlink:href="#mafae82a891" x="341.040731" y="79.719447" style="fill: #8c564b; stroke: #8c564b"/>
     <use xlink:href="#mafae82a891" x="351.611614" y="79.719447" style="fill: #8c564b; stroke: #8c564b"/>
     <use xlink:href="#mafae82a891" x="362.182497" y="66.334882" style="fill: #8c564b; stroke: #8c564b"/>
     <use xlink:href="#mafae82a891" x="372.753379" y="66.334882" style="fill: #8c564b; stroke: #8c564b"/>
     <use xlink:href="#mafae82a891" x="383.324262" y="66.334882" style="fill: #8c564b; stroke: #8c564b"/>
     <use xlink:href="#mafae82a891" x="393.895145" y="66.334882" style="fill: #8c564b; stroke: #8c564b"/>
     <use xlink:href="#mafae82a891" x="404.466028" y="66.334882" style="fill: #8c564b; stroke: #8c564b"/>
     <use xlink:href="#mafae82a891" x="415.03691" y="44.027273" style="fill: #8c564b; stroke: #8c564b"/>
     <use xlink:href="#mafae82a891" x="425.607793" y="44.027273" style="fill: #8c564b; stroke: #8c564b"/>
     <use xlink:href="#mafae82a891" x="436.178676" y="44.027273" style="fill: #8c564b; stroke: #8c564b"/>
     <use xlink:href="#mafae82a891" x="446.749559" y="44.027273" style="fill: #8c564b; stroke: #8c564b"/>
     <use xlink:href="#mafae82a891" x="457.320441" y="44.027273" style="fill: #8c564b; stroke: #8c564b"/>
     <use xlink:href="#mafae82a891" x="467.891324" y="44.027273" style="fill: #8c564b; stroke: #8c564b"/>
     <use xlink:href="#mafae82a891" x="478.462207" y="44.027273" style="fill: #8c564b; stroke: #8c564b"/>
     <use xlink:href="#mafae82a891" x="489.03309" y="44.027273" style="fill: #8c564b; stroke: #8c564b"/>
     <use xlink:href="#mafae82a891" x="499.603972" y="44.027273" style="fill: #8c564b; stroke: #8c564b"/>
     <use xlink:href="#mafae82a891" x="510.174855" y="44.027273" style="fill: #8c564b; stroke: #8c564b"/>
     <use xlink:href="#mafae82a891" x="520.745738" y="44.027273" style="fill: #8c564b; stroke: #8c564b"/>
     <use xlink:href="#mafae82a891" x="531.316621" y="44.027273" style="fill: #8c564b; stroke: #8c564b"/>
     <use xlink:href="#mafae82a891" x="541.887503" y="44.027273" style="fill: #8c564b; stroke: #8c564b"/>
     <use xlink:href="#mafae82a891" x="552.458386" y="44.027273" style="fill: #8c564b; stroke: #8c564b"/>
     <use xlink:href="#mafae82a891" x="563.029269" y="44.027273" style="fill: #8c564b; stroke: #8c564b"/>
     <use xlink:href="#mafae82a891" x="573.600152" y="44.027273" style="fill: #8c564b; stroke: #8c564b"/>
     <use xlink:href="#mafae82a891" x="584.171034" y="44.027273" style="fill: #8c564b; stroke: #8c564b"/>
     <use xlink:href="#mafae82a891" x="594.741917" y="44.027273" style="fill: #8c564b; stroke: #8c564b"/>
     <use xlink:href="#mafae82a891" x="605.3128" y="44.027273" style="fill: #8c564b; stroke: #8c564b"/>
     <use xlink:href="#mafae82a891" x="615.883682" y="44.027273" style="fill: #8c564b; stroke: #8c564b"/>
     <use xlink:href="#mafae82a891" x="626.454565" y="44.027273" style="fill: #8c564b; stroke: #8c564b"/>
     <use xlink:href="#mafae82a891" x="637.025448" y="44.027273" style="fill: #8c564b; stroke: #8c564b"/>
     <use xlink:href="#mafae82a891" x="647.596331" y="44.027273" style="fill: #8c564b; stroke: #8c564b"/>
     <use xlink:href="#mafae82a891" x="658.167213" y="44.027273" style="fill: #8c564b; stroke: #8c564b"/>
     <use xlink:href="#mafae82a891" x="668.738096" y="44.027273" style="fill: #8c564b; stroke: #8c564b"/>
     <use xlink:href="#mafae82a891" x="679.308979" y="44.027273" style="fill: #8c564b; stroke: #8c564b"/>
     <use xlink:href="#mafae82a891" x="689.879862" y="44.027273" style="fill: #8c564b; stroke: #8c564b"/>
     <use xlink:href="#mafae82a891" x="700.450744" y="44.027273" style="fill: #8c564b; stroke: #8c564b"/>
     <use xlink:href="#mafae82a891" x="711.021627" y="44.027273" style="fill: #8c564b; stroke: #8c564b"/>
     <use xlink:href="#mafae82a891" x="721.59251" y="44.027273" style="fill: #8c564b; stroke: #8c564b"/>
     <use xlink:href="#mafae82a891" x="732.163393" y="44.027273" style="fill: #8c564b; stroke: #8c564b"/>
     <use xlink:href="#mafae82a891" x="742.734275" y="44.027273" style="fill: #8c564b; stroke: #8c564b"/>
     <use xlink:href="#mafae82a891" x="753.305158" y="44.027273" style="fill: #8c564b; stroke: #8c564b"/>
     <use xlink:href="#mafae82a891" x="763.876041" y="44.027273" style="fill: #8c564b; stroke: #8c564b"/>
     <use xlink:href="#mafae82a891" x="774.446924" y="44.027273" style="fill: #8c564b; stroke: #8c564b"/>
     <use xlink:href="#mafae82a891" x="785.017806" y="44.027273" style="fill: #8c564b; stroke: #8c564b"/>
     <use xlink:href="#mafae82a891" x="795.588689" y="44.027273" style="fill: #8c564b; stroke: #8c564b"/>
     <use xlink:href="#mafae82a891" x="806.159572" y="44.027273" style="fill: #8c564b; stroke: #8c564b"/>
     <use xlink:href="#mafae82a891" x="816.730455" y="44.027273" style="fill: #8c564b; stroke: #8c564b"/>
    </g>
   </g>
   <g id="patch_3">
    <path d="M 50.87 404.12 
L 50.87 26.88 
" style="fill: none; stroke: #000000; stroke-width: 0.8; stroke-linejoin: miter; stroke-linecap: square"/>
   </g>
   <g id="patch_4">
    <path d="M 853.2 404.12 
L 853.2 26.88 
" style="fill: none; stroke: #000000; stroke-width: 0.8; stroke-linejoin: miter; stroke-linecap: square"/>
   </g>
   <g id="patch_5">
    <path d="M 50.87 404.12 
L 853.2 404.12 
" style="fill: none; stroke: #000000; stroke-width: 0.8; stroke-linejoin: miter; stroke-linecap: square"/>
   </g>
   <g id="patch_6">
    <path d="M 50.87 26.88 
L 853.2 26.88 
" style="fill: none; stroke: #000000; stroke-width: 0.8; stroke-linejoin: miter; stroke-linecap: square"/>
   </g>
   <g id="text_13">
    <!-- Standings -->
    <g transform="translate(422.18125 20.88) scale(0.12 -0.12)">
     <defs>
      <path id="DejaVuSans-74" d="M 1172 4494 
L 1172 3500 
L 2356 3500 
L 2356 3053 
L 1172 3053 
L 1172 1153 
Q 1172 725 1289 603 
Q 1406 481 1766 481 
L 2356 481 
L 2356 0 
L 1766 0 
Q 1100 0 847 248 
Q 594 497 594 1153 
L 594 3053 
L 172 3053 
L 172 3500 
L 594 3500 
L 594 4494 
L 1172 4494 
z
" transform="scale(0.015625)"/>
      <path id="DejaVuSans-61" d="M 2194 1759 
Q 1497 1759 1228 1600 
Q 959 1441 959 1056 
Q 959 750 1161 570 
Q 1363 391 1709 391 
Q 2188 391 2477 730 
Q 2766 1069 2766 1631 
L 2766 1759 
L 2194 1759 
z
M 3341 1997 
L 3341 0 
L 2766 0 
L 2766 531 
Q 2569 213 2275 61 
Q 1981 -91 1556 -91 
Q 1019 -91 701 211 
Q 384 513 384 1019 
Q 384 1609 779 1909 
Q 1175 2209 1959 2209 
L 2766 2209 
L 2766 2266 
Q 2766 2663 2505 2880 
Q 2244 3097 1772 3097 
Q 1472 3097 1187 3025 
Q 903 2953 641 2809 
L 641 3341 
Q 956 3463 1253 3523 
Q 1550 3584 1831 3584 
Q 2591 3584 2966 3190 
Q 3341 2797 3341 1997 
z
" transform="scale(0.015625)"/>
      <path id="DejaVuSans-6e" d="M 3513 2113 
L 3513 0 
L 2938 0 
L 2938 2094 
Q 2938 2591 2744 2837 
Q 2550 3084 2163 3084 
Q 1697 3084 1428 2787 
Q 1159 2491 1159 1978 
L 1159 0 
L 581 0 
L 581 3500 
L 1159 3500 
L 1159 2956 
Q 1366 3272 1645 3428 
Q 1925 3584 2291 3584 
Q 2894 3584 3203 3211 
Q 3513 2838 3513 2113 
z
" transform="scale(0.015625)"/>
      <path id="DejaVuSans-64" d="M 2906 2969 
L 2906 4863 
L 3481 4863 
L 3481 0 
L 2906 0 
L 2906 525 
Q 2725 213 2448 61 
Q 2172 -91 1784 -91 
Q 1150 -91 751 415 
Q 353 922 353 1747 
Q 353 2572 751 3078 
Q 1150 3584 1784 3584 
Q 2172 3584 2448 3432 
Q 2725 3281 2906 2969 
z
M 947 1747 
Q 947 1113 1208 752 
Q 1469 391 1925 391 
Q 2381 391 2643 752 
Q 2906 1113 2906 1747 
Q 2906 2381 2643 2742 
Q 2381 3103 1925 3103 
Q 1469 3103 1208 2742 
Q 947 2381 947 1747 
z
" transform="scale(0.015625)"/>
      <path id="DejaVuSans-69" d="M 603 3500 
L 1178 3500 
L 1178 0 
L 603 0 
L 603 3500 
z
M 603 4863 
L 1178 4863 
L 1178 4134 
L 603 4134 
L 603 4863 
z
" transform="scale(0.015625)"/>
      <path id="DejaVuSans-67" d="M 2906 1791 
Q 2906 2416 2648 2759 
Q 2391 3103 1925 3103 
Q 1463 3103 1205 2759 
Q 947 2416 947 1791 
Q 947 1169 1205 825 
Q 1463 481 1925 481 
Q 2391 481 2648 825 
Q 2906 1169 2906 1791 
z
M 3481 434 
Q 3481 -459 3084 -895 
Q 2688 -1331 1869 -1331 
Q 1566 -1331 1297 -1286 
Q 1028 -1241 775 -1147 
L 775 -588 
Q 1028 -725 1275 -790 
Q 1522 -856 1778 -856 
Q 2344 -856 2625 -561 
Q 2906 -266 2906 331 
L 2906 616 
Q 2728 306 2450 153 
Q 2172 0 1784 0 
Q 1141 0 747 490 
Q 353 981 353 1791 
Q 353 2603 747 3093 
Q 1141 3584 1784 3584 
Q 2172 3584 2450 3431 
Q 2728 3278 2906 2969 
L 2906 3500 
L 3481 3500 
L 3481 434 
z
" transform="scale(0.015625)"/>
      <path id="DejaVuSans-73" d="M 2834 3397 
L 2834 2853 
Q 2591 2978 2328 3040 
Q 2066 3103 1784 3103 
Q 1356 3103 1142 2972 
Q 928 2841 928 2578 
Q 928 2378 1081 2264 
Q 1234 2150 1697 2047 
L 1894 2003 
Q 2506 1872 2764 1633 
Q 3022 1394 3022 966 
Q 3022 478 2636 193 
Q 2250 -91 1575 -91 
Q 1294 -91 989 -36 
Q 684 19 347 128 
L 347 722 
Q 666 556 975 473 
Q 1284 391 1588 391 
Q 1994 391 2212 530 
Q 2431 669 2431 922 
Q 2431 1156 2273 1281 
Q 2116 1406 1581 1522 
L 1381 1569 
Q 847 1681 609 1914 
Q 372 2147 372 2553 
Q 372 3047 722 3315 
Q 1072 3584 1716 3584 
Q 2034 3584 2315 3537 
Q 2597 3491 2834 3397 
z
" transform="scale(0.015625)"/>
     </defs>
     <use xlink:href="#DejaVuSans-53"/>
     <use xlink:href="#DejaVuSans-74" x="63.476562"/>
     <use xlink:href="#DejaVuSans-61" x="102.685547"/>
     <use xlink:href="#DejaVuSans-6e" x="163.964844"/>
     <use xlink:href="#DejaVuSans-64" x="227.34375"/>
     <use xlink:href="#DejaVuSans-69" x="290.820312"/>
     <use xlink:href="#DejaVuSans-6e" x="318.603516"/>
     <use xlink:href="#DejaVuSans-67" x="381.982422"/>
     <use xlink:href="#DejaVuSans-73" x="445.458984"/>
    </g>
   </g>
   <g id="legend_1">
    <g id="patch_7">
     <path d="M 639.351562 399.12 
L 846.2 399.12 
Q 848.2 399.12 848.2 397.12 
L 848.2 310.05125 
Q 848.2 308.05125 846.2 308.05125 
L 639.351562 308.05125 
Q 637.351562 308.05125 637.351562 310.05125 
L 637.351562 397.12 
Q 637.351562 399.12 639.351562 399.12 
z
" style="fill: #ffffff; opacity: 0.8; stroke: #cccccc; stroke-linejoin: miter"/>
    </g>
    <g id="line2d_29">
     <path d="M 641.351562 316.149688 
L 651.351562 316.149688 
L 661.351562 316.149688 
" style="fill: none; stroke: #1f77b4; stroke-width: 1.5; stroke-linecap: square"/>
     <g>
      <use xlink:href="#m8256c5b7a7" x="651.351562" y="316.149688" style="fill: #1f77b4; stroke: #1f77b4"/>
     </g>
    </g>
    <g id="text_14">
     <!-- European Sperm Bank -->
     <g transform="translate(669.351562 319.649688) scale(0.1 -0.1)">
      <defs>
       <path id="DejaVuSans-45" d="M 628 4666 
L 3578 4666 
L 3578 4134 
L 1259 4134 
L 1259 2753 
L 3481 2753 
L 3481 2222 
L 1259 2222 
L 1259 531 
L 3634 531 
L 3634 0 
L 628 0 
L 628 4666 
z
" transform="scale(0.015625)"/>
       <path id="DejaVuSans-75" d="M 544 1381 
L 544 3500 
L 1119 3500 
L 1119 1403 
Q 1119 906 1312 657 
Q 1506 409 1894 409 
Q 2359 409 2629 706 
Q 2900 1003 2900 1516 
L 2900 3500 
L 3475 3500 
L 3475 0 
L 2900 0 
L 2900 538 
Q 2691 219 2414 64 
Q 2138 -91 1772 -91 
Q 1169 -91 856 284 
Q 544 659 544 1381 
z
M 1991 3584 
L 1991 3584 
z
" transform="scale(0.015625)"/>
       <path id="DejaVuSans-70" d="M 1159 525 
L 1159 -1331 
L 581 -1331 
L 581 3500 
L 1159 3500 
L 1159 2969 
Q 1341 3281 1617 3432 
Q 1894 3584 2278 3584 
Q 2916 3584 3314 3078 
Q 3713 2572 3713 1747 
Q 3713 922 3314 415 
Q 2916 -91 2278 -91 
Q 1894 -91 1617 61 
Q 1341 213 1159 525 
z
M 3116 1747 
Q 3116 2381 2855 2742 
Q 2594 3103 2138 3103 
Q 1681 3103 1420 2742 
Q 1159 2381 1159 1747 
Q 1159 1113 1420 752 
Q 1681 391 2138 391 
Q 2594 391 2855 752 
Q 3116 1113 3116 1747 
z
" transform="scale(0.015625)"/>
       <path id="DejaVuSans-20" transform="scale(0.015625)"/>
       <path id="DejaVuSans-6d" d="M 3328 2828 
Q 3544 3216 3844 3400 
Q 4144 3584 4550 3584 
Q 5097 3584 5394 3201 
Q 5691 2819 5691 2113 
L 5691 0 
L 5113 0 
L 5113 2094 
Q 5113 2597 4934 2840 
Q 4756 3084 4391 3084 
Q 3944 3084 3684 2787 
Q 3425 2491 3425 1978 
L 3425 0 
L 2847 0 
L 2847 2094 
Q 2847 2600 2669 2842 
Q 2491 3084 2119 3084 
Q 1678 3084 1418 2786 
Q 1159 2488 1159 1978 
L 1159 0 
L 581 0 
L 581 3500 
L 1159 3500 
L 1159 2956 
Q 1356 3278 1631 3431 
Q 1906 3584 2284 3584 
Q 2666 3584 2933 3390 
Q 3200 3197 3328 2828 
z
" transform="scale(0.015625)"/>
       <path id="DejaVuSans-42" d="M 1259 2228 
L 1259 519 
L 2272 519 
Q 2781 519 3026 730 
Q 3272 941 3272 1375 
Q 3272 1813 3026 2020 
Q 2781 2228 2272 2228 
L 1259 2228 
z
M 1259 4147 
L 1259 2741 
L 2194 2741 
Q 2656 2741 2882 2914 
Q 3109 3088 3109 3444 
Q 3109 3797 2882 3972 
Q 2656 4147 2194 4147 
L 1259 4147 
z
M 628 4666 
L 2241 4666 
Q 2963 4666 3353 4366 
Q 3744 4066 3744 3513 
Q 3744 3084 3544 2831 
Q 3344 2578 2956 2516 
Q 3422 2416 3680 2098 
Q 3938 1781 3938 1306 
Q 3938 681 3513 340 
Q 3088 0 2303 0 
L 628 0 
L 628 4666 
z
" transform="scale(0.015625)"/>
       <path id="DejaVuSans-6b" d="M 581 4863 
L 1159 4863 
L 1159 1991 
L 2875 3500 
L 3609 3500 
L 1753 1863 
L 3688 0 
L 2938 0 
L 1159 1709 
L 1159 0 
L 581 0 
L 581 4863 
z
" transform="scale(0.015625)"/>
      </defs>
      <use xlink:href="#DejaVuSans-45"/>
      <use xlink:href="#DejaVuSans-75" x="63.183594"/>
      <use xlink:href="#DejaVuSans-72" x="126.5625"/>
      <use xlink:href="#DejaVuSans-6f" x="165.425781"/>
      <use xlink:href="#DejaVuSans-70" x="226.607422"/>
      <use xlink:href="#DejaVuSans-65" x="290.083984"/>
      <use xlink:href="#DejaVuSans-61" x="351.607422"/>
      <use xlink:href="#DejaVuSans-6e" x="412.886719"/>
      <use xlink:href="#DejaVuSans-20" x="476.265625"/>
      <use xlink:href="#DejaVuSans-53" x="508.052734"/>
      <use xlink:href="#DejaVuSans-70" x="571.529297"/>
      <use xlink:href="#DejaVuSans-65" x="635.005859"/>
      <use xlink:href="#DejaVuSans-72" x="696.529297"/>
      <use xlink:href="#DejaVuSans-6d" x="735.892578"/>
      <use xlink:href="#DejaVuSans-20" x="833.304688"/>
      <use xlink:href="#DejaVuSans-42" x="865.091797"/>
      <use xlink:href="#DejaVuSans-61" x="933.695312"/>
      <use xlink:href="#DejaVuSans-6e" x="994.974609"/>
      <use xlink:href="#DejaVuSans-6b" x="1058.353516"/>
     </g>
    </g>
    <g id="line2d_30">
     <path d="M 641.351562 330.827812 
L 651.351562 330.827812 
L 661.351562 330.827812 
" style="fill: none; stroke: #ff7f0e; stroke-width: 1.5; stroke-linecap: square"/>
     <g>
      <use xlink:href="#md7beb289d6" x="651.351562" y="330.827812" style="fill: #ff7f0e; stroke: #ff7f0e"/>
     </g>
    </g>
    <g id="text_15">
     <!-- Frederiksborg Gymnasium -->
     <g transform="translate(669.351562 334.327812) scale(0.1 -0.1)">
      <defs>
       <path id="DejaVuSans-46" d="M 628 4666 
L 3309 4666 
L 3309 4134 
L 1259 4134 
L 1259 2759 
L 3109 2759 
L 3109 2228 
L 1259 2228 
L 1259 0 
L 628 0 
L 628 4666 
z
" transform="scale(0.015625)"/>
       <path id="DejaVuSans-62" d="M 3116 1747 
Q 3116 2381 2855 2742 
Q 2594 3103 2138 3103 
Q 1681 3103 1420 2742 
Q 1159 2381 1159 1747 
Q 1159 1113 1420 752 
Q 1681 391 2138 391 
Q 2594 391 2855 752 
Q 3116 1113 3116 1747 
z
M 1159 2969 
Q 1341 3281 1617 3432 
Q 1894 3584 2278 3584 
Q 2916 3584 3314 3078 
Q 3713 2572 3713 1747 
Q 3713 922 3314 415 
Q 2916 -91 2278 -91 
Q 1894 -91 1617 61 
Q 1341 213 1159 525 
L 1159 0 
L 581 0 
L 581 4863 
L 1159 4863 
L 1159 2969 
z
" transform="scale(0.015625)"/>
       <path id="DejaVuSans-47" d="M 3809 666 
L 3809 1919 
L 2778 1919 
L 2778 2438 
L 4434 2438 
L 4434 434 
Q 4069 175 3628 42 
Q 3188 -91 2688 -91 
Q 1594 -91 976 548 
Q 359 1188 359 2328 
Q 359 3472 976 4111 
Q 1594 4750 2688 4750 
Q 3144 4750 3555 4637 
Q 3966 4525 4313 4306 
L 4313 3634 
Q 3963 3931 3569 4081 
Q 3175 4231 2741 4231 
Q 1884 4231 1454 3753 
Q 1025 3275 1025 2328 
Q 1025 1384 1454 906 
Q 1884 428 2741 428 
Q 3075 428 3337 486 
Q 3600 544 3809 666 
z
" transform="scale(0.015625)"/>
       <path id="DejaVuSans-79" d="M 2059 -325 
Q 1816 -950 1584 -1140 
Q 1353 -1331 966 -1331 
L 506 -1331 
L 506 -850 
L 844 -850 
Q 1081 -850 1212 -737 
Q 1344 -625 1503 -206 
L 1606 56 
L 191 3500 
L 800 3500 
L 1894 763 
L 2988 3500 
L 3597 3500 
L 2059 -325 
z
" transform="scale(0.015625)"/>
      </defs>
      <use xlink:href="#DejaVuSans-46"/>
      <use xlink:href="#DejaVuSans-72" x="50.269531"/>
      <use xlink:href="#DejaVuSans-65" x="89.132812"/>
      <use xlink:href="#DejaVuSans-64" x="150.65625"/>
      <use xlink:href="#DejaVuSans-65" x="214.132812"/>
      <use xlink:href="#DejaVuSans-72" x="275.65625"/>
      <use xlink:href="#DejaVuSans-69" x="316.769531"/>
      <use xlink:href="#DejaVuSans-6b" x="344.552734"/>
      <use xlink:href="#DejaVuSans-73" x="402.462891"/>
      <use xlink:href="#DejaVuSans-62" x="454.5625"/>
      <use xlink:href="#DejaVuSans-6f" x="518.039062"/>
      <use xlink:href="#DejaVuSans-72" x="579.220703"/>
      <use xlink:href="#DejaVuSans-67" x="618.583984"/>
      <use xlink:href="#DejaVuSans-20" x="682.060547"/>
      <use xlink:href="#DejaVuSans-47" x="713.847656"/>
      <use xlink:href="#DejaVuSans-79" x="791.337891"/>
      <use xlink:href="#DejaVuSans-6d" x="850.517578"/>
      <use xlink:href="#DejaVuSans-6e" x="947.929688"/>
      <use xlink:href="#DejaVuSans-61" x="1011.308594"/>
      <use xlink:href="#DejaVuSans-73" x="1072.587891"/>
      <use xlink:href="#DejaVuSans-69" x="1124.6875"/>
      <use xlink:href="#DejaVuSans-75" x="1152.470703"/>
      <use xlink:href="#DejaVuSans-6d" x="1215.849609"/>
     </g>
    </g>
    <g id="line2d_31">
     <path d="M 641.351562 345.505938 
L 651.351562 345.505938 
L 661.351562 345.505938 
" style="fill: none; stroke: #2ca02c; stroke-width: 1.5; stroke-linecap: square"/>
     <g>
      <use xlink:href="#m9e77a3e13c" x="651.351562" y="345.505938" style="fill: #2ca02c; stroke: #2ca02c"/>
     </g>
    </g>
    <g id="text_16">
     <!-- Friends and Family -->
     <g transform="translate(669.351562 349.005938) scale(0.1 -0.1)">
      <defs>
       <path id="DejaVuSans-6c" d="M 603 4863 
L 1178 4863 
L 1178 0 
L 603 0 
L 603 4863 
z
" transform="scale(0.015625)"/>
      </defs>
      <use xlink:href="#DejaVuSans-46"/>
      <use xlink:href="#DejaVuSans-72" x="50.269531"/>
      <use xlink:href="#DejaVuSans-69" x="91.382812"/>
      <use xlink:href="#DejaVuSans-65" x="119.166016"/>
      <use xlink:href="#DejaVuSans-6e" x="180.689453"/>
      <use xlink:href="#DejaVuSans-64" x="244.068359"/>
      <use xlink:href="#DejaVuSans-73" x="307.544922"/>
      <use xlink:href="#DejaVuSans-20" x="359.644531"/>
      <use xlink:href="#DejaVuSans-61" x="391.431641"/>
      <use xlink:href="#DejaVuSans-6e" x="452.710938"/>
      <use xlink:href="#DejaVuSans-64" x="516.089844"/>
      <use xlink:href="#DejaVuSans-20" x="579.566406"/>
      <use xlink:href="#DejaVuSans-46" x="611.353516"/>
      <use xlink:href="#DejaVuSans-61" x="659.748047"/>
      <use xlink:href="#DejaVuSans-6d" x="721.027344"/>
      <use xlink:href="#DejaVuSans-69" x="818.439453"/>
      <use xlink:href="#DejaVuSans-6c" x="846.222656"/>
      <use xlink:href="#DejaVuSans-79" x="874.005859"/>
     </g>
    </g>
    <g id="line2d_32">
     <path d="M 641.351562 360.184062 
L 651.351562 360.184062 
L 661.351562 360.184062 
" style="fill: none; stroke: #d62728; stroke-width: 1.5; stroke-linecap: square"/>
     <g>
      <use xlink:href="#m6c2cc165d3" x="651.351562" y="360.184062" style="fill: #d62728; stroke: #d62728"/>
     </g>
    </g>
    <g id="text_17">
     <!-- GeH Fys -->
     <g transform="translate(669.351562 363.684062) scale(0.1 -0.1)">
      <defs>
       <path id="DejaVuSans-48" d="M 628 4666 
L 1259 4666 
L 1259 2753 
L 3553 2753 
L 3553 4666 
L 4184 4666 
L 4184 0 
L 3553 0 
L 3553 2222 
L 1259 2222 
L 1259 0 
L 628 0 
L 628 4666 
z
" transform="scale(0.015625)"/>
      </defs>
      <use xlink:href="#DejaVuSans-47"/>
      <use xlink:href="#DejaVuSans-65" x="77.490234"/>
      <use xlink:href="#DejaVuSans-48" x="139.013672"/>
      <use xlink:href="#DejaVuSans-20" x="214.208984"/>
      <use xlink:href="#DejaVuSans-46" x="245.996094"/>
      <use xlink:href="#DejaVuSans-79" x="294.390625"/>
      <use xlink:href="#DejaVuSans-73" x="353.570312"/>
     </g>
    </g>
    <g id="line2d_33">
     <path d="M 641.351562 374.862188 
L 651.351562 374.862188 
L 661.351562 374.862188 
" style="fill: none; stroke: #9467bd; stroke-width: 1.5; stroke-linecap: square"/>
     <g>
      <use xlink:href="#m52a69365b9" x="651.351562" y="374.862188" style="fill: #9467bd; stroke: #9467bd"/>
     </g>
    </g>
    <g id="text_18">
     <!-- Next11 -->
     <g transform="translate(669.351562 378.362188) scale(0.1 -0.1)">
      <defs>
       <path id="DejaVuSans-4e" d="M 628 4666 
L 1478 4666 
L 3547 763 
L 3547 4666 
L 4159 4666 
L 4159 0 
L 3309 0 
L 1241 3903 
L 1241 0 
L 628 0 
L 628 4666 
z
" transform="scale(0.015625)"/>
       <path id="DejaVuSans-78" d="M 3513 3500 
L 2247 1797 
L 3578 0 
L 2900 0 
L 1881 1375 
L 863 0 
L 184 0 
L 1544 1831 
L 300 3500 
L 978 3500 
L 1906 2253 
L 2834 3500 
L 3513 3500 
z
" transform="scale(0.015625)"/>
      </defs>
      <use xlink:href="#DejaVuSans-4e"/>
      <use xlink:href="#DejaVuSans-65" x="74.804688"/>
      <use xlink:href="#DejaVuSans-78" x="134.578125"/>
      <use xlink:href="#DejaVuSans-74" x="193.757812"/>
      <use xlink:href="#DejaVuSans-31" x="232.966797"/>
      <use xlink:href="#DejaVuSans-31" x="296.589844"/>
     </g>
    </g>
    <g id="line2d_34">
     <path d="M 641.351562 389.540313 
L 651.351562 389.540313 
L 661.351562 389.540313 
" style="fill: none; stroke: #8c564b; stroke-width: 1.5; stroke-linecap: square"/>
     <g>
      <use xlink:href="#mafae82a891" x="651.351562" y="389.540313" style="fill: #8c564b; stroke: #8c564b"/>
     </g>
    </g>
    <g id="text_19">
     <!-- Quantum and Laser Photonics DTU -->
     <g transform="translate(669.351562 393.040313) scale(0.1 -0.1)">
      <defs>
       <path id="DejaVuSans-51" d="M 2522 4238 
Q 1834 4238 1429 3725 
Q 1025 3213 1025 2328 
Q 1025 1447 1429 934 
Q 1834 422 2522 422 
Q 3209 422 3611 934 
Q 4013 1447 4013 2328 
Q 4013 3213 3611 3725 
Q 3209 4238 2522 4238 
z
M 3406 84 
L 4238 -825 
L 3475 -825 
L 2784 -78 
Q 2681 -84 2626 -87 
Q 2572 -91 2522 -91 
Q 1538 -91 948 567 
Q 359 1225 359 2328 
Q 359 3434 948 4092 
Q 1538 4750 2522 4750 
Q 3503 4750 4090 4092 
Q 4678 3434 4678 2328 
Q 4678 1516 4351 937 
Q 4025 359 3406 84 
z
" transform="scale(0.015625)"/>
       <path id="DejaVuSans-4c" d="M 628 4666 
L 1259 4666 
L 1259 531 
L 3531 531 
L 3531 0 
L 628 0 
L 628 4666 
z
" transform="scale(0.015625)"/>
       <path id="DejaVuSans-50" d="M 1259 4147 
L 1259 2394 
L 2053 2394 
Q 2494 2394 2734 2622 
Q 2975 2850 2975 3272 
Q 2975 3691 2734 3919 
Q 2494 4147 2053 4147 
L 1259 4147 
z
M 628 4666 
L 2053 4666 
Q 2838 4666 3239 4311 
Q 3641 3956 3641 3272 
Q 3641 2581 3239 2228 
Q 2838 1875 2053 1875 
L 1259 1875 
L 1259 0 
L 628 0 
L 628 4666 
z
" transform="scale(0.015625)"/>
       <path id="DejaVuSans-68" d="M 3513 2113 
L 3513 0 
L 2938 0 
L 2938 2094 
Q 2938 2591 2744 2837 
Q 2550 3084 2163 3084 
Q 1697 3084 1428 2787 
Q 1159 2491 1159 1978 
L 1159 0 
L 581 0 
L 581 4863 
L 1159 4863 
L 1159 2956 
Q 1366 3272 1645 3428 
Q 1925 3584 2291 3584 
Q 2894 3584 3203 3211 
Q 3513 2838 3513 2113 
z
" transform="scale(0.015625)"/>
       <path id="DejaVuSans-44" d="M 1259 4147 
L 1259 519 
L 2022 519 
Q 2988 519 3436 956 
Q 3884 1394 3884 2338 
Q 3884 3275 3436 3711 
Q 2988 4147 2022 4147 
L 1259 4147 
z
M 628 4666 
L 1925 4666 
Q 3281 4666 3915 4102 
Q 4550 3538 4550 2338 
Q 4550 1131 3912 565 
Q 3275 0 1925 0 
L 628 0 
L 628 4666 
z
" transform="scale(0.015625)"/>
       <path id="DejaVuSans-54" d="M -19 4666 
L 3928 4666 
L 3928 4134 
L 2272 4134 
L 2272 0 
L 1638 0 
L 1638 4134 
L -19 4134 
L -19 4666 
z
" transform="scale(0.015625)"/>
       <path id="DejaVuSans-55" d="M 556 4666 
L 1191 4666 
L 1191 1831 
Q 1191 1081 1462 751 
Q 1734 422 2344 422 
Q 2950 422 3222 751 
Q 3494 1081 3494 1831 
L 3494 4666 
L 4128 4666 
L 4128 1753 
Q 4128 841 3676 375 
Q 3225 -91 2344 -91 
Q 1459 -91 1007 375 
Q 556 841 556 1753 
L 556 4666 
z
" transform="scale(0.015625)"/>
      </defs>
      <use xlink:href="#DejaVuSans-51"/>
      <use xlink:href="#DejaVuSans-75" x="78.710938"/>
      <use xlink:href="#DejaVuSans-61" x="142.089844"/>
      <use xlink:href="#DejaVuSans-6e" x="203.369141"/>
      <use xlink:href="#DejaVuSans-74" x="266.748047"/>
      <use xlink:href="#DejaVuSans-75" x="305.957031"/>
      <use xlink:href="#DejaVuSans-6d" x="369.335938"/>
      <use xlink:href="#DejaVuSans-20" x="466.748047"/>
      <use xlink:href="#DejaVuSans-61" x="498.535156"/>
      <use xlink:href="#DejaVuSans-6e" x="559.814453"/>
      <use xlink:href="#DejaVuSans-64" x="623.193359"/>
      <use xlink:href="#DejaVuSans-20" x="686.669922"/>
      <use xlink:href="#DejaVuSans-4c" x="718.457031"/>
      <use xlink:href="#DejaVuSans-61" x="774.169922"/>
      <use xlink:href="#DejaVuSans-73" x="835.449219"/>
      <use xlink:href="#DejaVuSans-65" x="887.548828"/>
      <use xlink:href="#DejaVuSans-72" x="949.072266"/>
      <use xlink:href="#DejaVuSans-20" x="990.185547"/>
      <use xlink:href="#DejaVuSans-50" x="1021.972656"/>
      <use xlink:href="#DejaVuSans-68" x="1082.275391"/>
      <use xlink:href="#DejaVuSans-6f" x="1145.654297"/>
      <use xlink:href="#DejaVuSans-74" x="1206.835938"/>
      <use xlink:href="#DejaVuSans-6f" x="1246.044922"/>
      <use xlink:href="#DejaVuSans-6e" x="1307.226562"/>
      <use xlink:href="#DejaVuSans-69" x="1370.605469"/>
      <use xlink:href="#DejaVuSans-63" x="1398.388672"/>
      <use xlink:href="#DejaVuSans-73" x="1453.369141"/>
      <use xlink:href="#DejaVuSans-20" x="1505.46875"/>
      <use xlink:href="#DejaVuSans-44" x="1537.255859"/>
      <use xlink:href="#DejaVuSans-54" x="1614.257812"/>
      <use xlink:href="#DejaVuSans-55" x="1675.341797"/>
     </g>
    </g>
   </g>
  </g>
 </g>
 <defs>
  <clipPath id="pe3abd78940">
   <rect x="50.87" y="26.88" width="802.33" height="377.24"/>
  </clipPath>
 </defs>
</svg>
