<?xml version="1.0" encoding="utf-8" standalone="no"?>
<!DOCTYPE svg PUBLIC "-//W3C//DTD SVG 1.1//EN"
  "http://www.w3.org/Graphics/SVG/1.1/DTD/svg11.dtd">
<svg xmlns:xlink="http://www.w3.org/1999/xlink" width="864pt" height="432pt" viewBox="0 0 864 432" xmlns="http://www.w3.org/2000/svg" version="1.1">
 <metadata>
  <rdf:RDF xmlns:dc="http://purl.org/dc/elements/1.1/" xmlns:cc="http://creativecommons.org/ns#" xmlns:rdf="http://www.w3.org/1999/02/22-rdf-syntax-ns#">
   <cc:Work>
    <dc:type rdf:resource="http://purl.org/dc/dcmitype/StillImage"/>
    <dc:date>2024-08-11T12:46:58.520708</dc:date>
    <dc:format>image/svg+xml</dc:format>
    <dc:creator>
     <cc:Agent>
      <dc:title>Matplotlib v3.9.1.post1, https://matplotlib.org/</dc:title>
     </cc:Agent>
    </dc:creator>
   </cc:Work>
  </rdf:RDF>
 </metadata>
 <defs>
  <style type="text/css">*{stroke-linejoin: round; stroke-linecap: butt}</style>
 </defs>
 <g id="figure_1">
  <g id="patch_1">
   <path d="M 0 432 
L 864 432 
L 864 0 
L 0 0 
z
" style="fill: #ffffff"/>
  </g>
  <g id="axes_1">
   <g id="patch_2">
    <path d="M 50.87 404.12 
L 853.2 404.12 
L 853.2 26.88 
L 50.87 26.88 
z
" style="fill: #ffffff"/>
   </g>
   <g id="matplotlib.axis_1">
    <g id="xtick_1">
     <g id="line2d_1">
      <path d="M 99.915251 404.12 
L 99.915251 26.88 
" clip-path="url(#pd88c86e6ff)" style="fill: none; stroke-dasharray: 2.96,1.28; stroke-dashoffset: 0; stroke: #b0b0b0; stroke-width: 0.8"/>
     </g>
     <g id="line2d_2">
      <defs>
       <path id="m2458e0c709" d="M 0 0 
L 0 3.5 
" style="stroke: #000000; stroke-width: 0.8"/>
      </defs>
      <g>
       <use xlink:href="#m2458e0c709" x="99.915251" y="404.12" style="stroke: #000000; stroke-width: 0.8"/>
      </g>
     </g>
     <g id="text_1">
      <!-- 2024-06-15 -->
      <g transform="translate(70.857438 418.718437) scale(0.1 -0.1)">
       <defs>
        <path id="DejaVuSans-32" d="M 1228 531 
L 3431 531 
L 3431 0 
L 469 0 
L 469 531 
Q 828 903 1448 1529 
Q 2069 2156 2228 2338 
Q 2531 2678 2651 2914 
Q 2772 3150 2772 3378 
Q 2772 3750 2511 3984 
Q 2250 4219 1831 4219 
Q 1534 4219 1204 4116 
Q 875 4013 500 3803 
L 500 4441 
Q 881 4594 1212 4672 
Q 1544 4750 1819 4750 
Q 2544 4750 2975 4387 
Q 3406 4025 3406 3419 
Q 3406 3131 3298 2873 
Q 3191 2616 2906 2266 
Q 2828 2175 2409 1742 
Q 1991 1309 1228 531 
z
" transform="scale(0.015625)"/>
        <path id="DejaVuSans-30" d="M 2034 4250 
Q 1547 4250 1301 3770 
Q 1056 3291 1056 2328 
Q 1056 1369 1301 889 
Q 1547 409 2034 409 
Q 2525 409 2770 889 
Q 3016 1369 3016 2328 
Q 3016 3291 2770 3770 
Q 2525 4250 2034 4250 
z
M 2034 4750 
Q 2819 4750 3233 4129 
Q 3647 3509 3647 2328 
Q 3647 1150 3233 529 
Q 2819 -91 2034 -91 
Q 1250 -91 836 529 
Q 422 1150 422 2328 
Q 422 3509 836 4129 
Q 1250 4750 2034 4750 
z
" transform="scale(0.015625)"/>
        <path id="DejaVuSans-34" d="M 2419 4116 
L 825 1625 
L 2419 1625 
L 2419 4116 
z
M 2253 4666 
L 3047 4666 
L 3047 1625 
L 3713 1625 
L 3713 1100 
L 3047 1100 
L 3047 0 
L 2419 0 
L 2419 1100 
L 313 1100 
L 313 1709 
L 2253 4666 
z
" transform="scale(0.015625)"/>
        <path id="DejaVuSans-2d" d="M 313 2009 
L 1997 2009 
L 1997 1497 
L 313 1497 
L 313 2009 
z
" transform="scale(0.015625)"/>
        <path id="DejaVuSans-36" d="M 2113 2584 
Q 1688 2584 1439 2293 
Q 1191 2003 1191 1497 
Q 1191 994 1439 701 
Q 1688 409 2113 409 
Q 2538 409 2786 701 
Q 3034 994 3034 1497 
Q 3034 2003 2786 2293 
Q 2538 2584 2113 2584 
z
M 3366 4563 
L 3366 3988 
Q 3128 4100 2886 4159 
Q 2644 4219 2406 4219 
Q 1781 4219 1451 3797 
Q 1122 3375 1075 2522 
Q 1259 2794 1537 2939 
Q 1816 3084 2150 3084 
Q 2853 3084 3261 2657 
Q 3669 2231 3669 1497 
Q 3669 778 3244 343 
Q 2819 -91 2113 -91 
Q 1303 -91 875 529 
Q 447 1150 447 2328 
Q 447 3434 972 4092 
Q 1497 4750 2381 4750 
Q 2619 4750 2861 4703 
Q 3103 4656 3366 4563 
z
" transform="scale(0.015625)"/>
        <path id="DejaVuSans-31" d="M 794 531 
L 1825 531 
L 1825 4091 
L 703 3866 
L 703 4441 
L 1819 4666 
L 2450 4666 
L 2450 531 
L 3481 531 
L 3481 0 
L 794 0 
L 794 531 
z
" transform="scale(0.015625)"/>
        <path id="DejaVuSans-35" d="M 691 4666 
L 3169 4666 
L 3169 4134 
L 1269 4134 
L 1269 2991 
Q 1406 3038 1543 3061 
Q 1681 3084 1819 3084 
Q 2600 3084 3056 2656 
Q 3513 2228 3513 1497 
Q 3513 744 3044 326 
Q 2575 -91 1722 -91 
Q 1428 -91 1123 -41 
Q 819 9 494 109 
L 494 744 
Q 775 591 1075 516 
Q 1375 441 1709 441 
Q 2250 441 2565 725 
Q 2881 1009 2881 1497 
Q 2881 1984 2565 2268 
Q 2250 2553 1709 2553 
Q 1456 2553 1204 2497 
Q 953 2441 691 2322 
L 691 4666 
z
" transform="scale(0.015625)"/>
       </defs>
       <use xlink:href="#DejaVuSans-32"/>
       <use xlink:href="#DejaVuSans-30" x="63.623047"/>
       <use xlink:href="#DejaVuSans-32" x="127.246094"/>
       <use xlink:href="#DejaVuSans-34" x="190.869141"/>
       <use xlink:href="#DejaVuSans-2d" x="254.492188"/>
       <use xlink:href="#DejaVuSans-30" x="290.576172"/>
       <use xlink:href="#DejaVuSans-36" x="354.199219"/>
       <use xlink:href="#DejaVuSans-2d" x="417.822266"/>
       <use xlink:href="#DejaVuSans-31" x="453.90625"/>
       <use xlink:href="#DejaVuSans-35" x="517.529297"/>
      </g>
     </g>
    </g>
    <g id="xtick_2">
     <g id="line2d_3">
      <path d="M 187.945188 404.12 
L 187.945188 26.88 
" clip-path="url(#pd88c86e6ff)" style="fill: none; stroke-dasharray: 2.96,1.28; stroke-dashoffset: 0; stroke: #b0b0b0; stroke-width: 0.8"/>
     </g>
     <g id="line2d_4">
      <g>
       <use xlink:href="#m2458e0c709" x="187.945188" y="404.12" style="stroke: #000000; stroke-width: 0.8"/>
      </g>
     </g>
     <g id="text_2">
      <!-- 2024-06-22 -->
      <g transform="translate(158.887376 418.718437) scale(0.1 -0.1)">
       <use xlink:href="#DejaVuSans-32"/>
       <use xlink:href="#DejaVuSans-30" x="63.623047"/>
       <use xlink:href="#DejaVuSans-32" x="127.246094"/>
       <use xlink:href="#DejaVuSans-34" x="190.869141"/>
       <use xlink:href="#DejaVuSans-2d" x="254.492188"/>
       <use xlink:href="#DejaVuSans-30" x="290.576172"/>
       <use xlink:href="#DejaVuSans-36" x="354.199219"/>
       <use xlink:href="#DejaVuSans-2d" x="417.822266"/>
       <use xlink:href="#DejaVuSans-32" x="453.90625"/>
       <use xlink:href="#DejaVuSans-32" x="517.529297"/>
      </g>
     </g>
    </g>
    <g id="xtick_3">
     <g id="line2d_5">
      <path d="M 301.126536 404.12 
L 301.126536 26.88 
" clip-path="url(#pd88c86e6ff)" style="fill: none; stroke-dasharray: 2.96,1.28; stroke-dashoffset: 0; stroke: #b0b0b0; stroke-width: 0.8"/>
     </g>
     <g id="line2d_6">
      <g>
       <use xlink:href="#m2458e0c709" x="301.126536" y="404.12" style="stroke: #000000; stroke-width: 0.8"/>
      </g>
     </g>
     <g id="text_3">
      <!-- 2024-07-01 -->
      <g transform="translate(272.068724 418.718437) scale(0.1 -0.1)">
       <defs>
        <path id="DejaVuSans-37" d="M 525 4666 
L 3525 4666 
L 3525 4397 
L 1831 0 
L 1172 0 
L 2766 4134 
L 525 4134 
L 525 4666 
z
" transform="scale(0.015625)"/>
       </defs>
       <use xlink:href="#DejaVuSans-32"/>
       <use xlink:href="#DejaVuSans-30" x="63.623047"/>
       <use xlink:href="#DejaVuSans-32" x="127.246094"/>
       <use xlink:href="#DejaVuSans-34" x="190.869141"/>
       <use xlink:href="#DejaVuSans-2d" x="254.492188"/>
       <use xlink:href="#DejaVuSans-30" x="290.576172"/>
       <use xlink:href="#DejaVuSans-37" x="354.199219"/>
       <use xlink:href="#DejaVuSans-2d" x="417.822266"/>
       <use xlink:href="#DejaVuSans-30" x="453.90625"/>
       <use xlink:href="#DejaVuSans-31" x="517.529297"/>
      </g>
     </g>
    </g>
    <g id="xtick_4">
     <g id="line2d_7">
      <path d="M 389.156473 404.12 
L 389.156473 26.88 
" clip-path="url(#pd88c86e6ff)" style="fill: none; stroke-dasharray: 2.96,1.28; stroke-dashoffset: 0; stroke: #b0b0b0; stroke-width: 0.8"/>
     </g>
     <g id="line2d_8">
      <g>
       <use xlink:href="#m2458e0c709" x="389.156473" y="404.12" style="stroke: #000000; stroke-width: 0.8"/>
      </g>
     </g>
     <g id="text_4">
      <!-- 2024-07-08 -->
      <g transform="translate(360.098661 418.718437) scale(0.1 -0.1)">
       <defs>
        <path id="DejaVuSans-38" d="M 2034 2216 
Q 1584 2216 1326 1975 
Q 1069 1734 1069 1313 
Q 1069 891 1326 650 
Q 1584 409 2034 409 
Q 2484 409 2743 651 
Q 3003 894 3003 1313 
Q 3003 1734 2745 1975 
Q 2488 2216 2034 2216 
z
M 1403 2484 
Q 997 2584 770 2862 
Q 544 3141 544 3541 
Q 544 4100 942 4425 
Q 1341 4750 2034 4750 
Q 2731 4750 3128 4425 
Q 3525 4100 3525 3541 
Q 3525 3141 3298 2862 
Q 3072 2584 2669 2484 
Q 3125 2378 3379 2068 
Q 3634 1759 3634 1313 
Q 3634 634 3220 271 
Q 2806 -91 2034 -91 
Q 1263 -91 848 271 
Q 434 634 434 1313 
Q 434 1759 690 2068 
Q 947 2378 1403 2484 
z
M 1172 3481 
Q 1172 3119 1398 2916 
Q 1625 2713 2034 2713 
Q 2441 2713 2670 2916 
Q 2900 3119 2900 3481 
Q 2900 3844 2670 4047 
Q 2441 4250 2034 4250 
Q 1625 4250 1398 4047 
Q 1172 3844 1172 3481 
z
" transform="scale(0.015625)"/>
       </defs>
       <use xlink:href="#DejaVuSans-32"/>
       <use xlink:href="#DejaVuSans-30" x="63.623047"/>
       <use xlink:href="#DejaVuSans-32" x="127.246094"/>
       <use xlink:href="#DejaVuSans-34" x="190.869141"/>
       <use xlink:href="#DejaVuSans-2d" x="254.492188"/>
       <use xlink:href="#DejaVuSans-30" x="290.576172"/>
       <use xlink:href="#DejaVuSans-37" x="354.199219"/>
       <use xlink:href="#DejaVuSans-2d" x="417.822266"/>
       <use xlink:href="#DejaVuSans-30" x="453.90625"/>
       <use xlink:href="#DejaVuSans-38" x="517.529297"/>
      </g>
     </g>
    </g>
    <g id="xtick_5">
     <g id="line2d_9">
      <path d="M 477.186411 404.12 
L 477.186411 26.88 
" clip-path="url(#pd88c86e6ff)" style="fill: none; stroke-dasharray: 2.96,1.28; stroke-dashoffset: 0; stroke: #b0b0b0; stroke-width: 0.8"/>
     </g>
     <g id="line2d_10">
      <g>
       <use xlink:href="#m2458e0c709" x="477.186411" y="404.12" style="stroke: #000000; stroke-width: 0.8"/>
      </g>
     </g>
     <g id="text_5">
      <!-- 2024-07-15 -->
      <g transform="translate(448.128598 418.718437) scale(0.1 -0.1)">
       <use xlink:href="#DejaVuSans-32"/>
       <use xlink:href="#DejaVuSans-30" x="63.623047"/>
       <use xlink:href="#DejaVuSans-32" x="127.246094"/>
       <use xlink:href="#DejaVuSans-34" x="190.869141"/>
       <use xlink:href="#DejaVuSans-2d" x="254.492188"/>
       <use xlink:href="#DejaVuSans-30" x="290.576172"/>
       <use xlink:href="#DejaVuSans-37" x="354.199219"/>
       <use xlink:href="#DejaVuSans-2d" x="417.822266"/>
       <use xlink:href="#DejaVuSans-31" x="453.90625"/>
       <use xlink:href="#DejaVuSans-35" x="517.529297"/>
      </g>
     </g>
    </g>
    <g id="xtick_6">
     <g id="line2d_11">
      <path d="M 565.216348 404.12 
L 565.216348 26.88 
" clip-path="url(#pd88c86e6ff)" style="fill: none; stroke-dasharray: 2.96,1.28; stroke-dashoffset: 0; stroke: #b0b0b0; stroke-width: 0.8"/>
     </g>
     <g id="line2d_12">
      <g>
       <use xlink:href="#m2458e0c709" x="565.216348" y="404.12" style="stroke: #000000; stroke-width: 0.8"/>
      </g>
     </g>
     <g id="text_6">
      <!-- 2024-07-22 -->
      <g transform="translate(536.158535 418.718437) scale(0.1 -0.1)">
       <use xlink:href="#DejaVuSans-32"/>
       <use xlink:href="#DejaVuSans-30" x="63.623047"/>
       <use xlink:href="#DejaVuSans-32" x="127.246094"/>
       <use xlink:href="#DejaVuSans-34" x="190.869141"/>
       <use xlink:href="#DejaVuSans-2d" x="254.492188"/>
       <use xlink:href="#DejaVuSans-30" x="290.576172"/>
       <use xlink:href="#DejaVuSans-37" x="354.199219"/>
       <use xlink:href="#DejaVuSans-2d" x="417.822266"/>
       <use xlink:href="#DejaVuSans-32" x="453.90625"/>
       <use xlink:href="#DejaVuSans-32" x="517.529297"/>
      </g>
     </g>
    </g>
    <g id="xtick_7">
     <g id="line2d_13">
      <path d="M 690.973401 404.12 
L 690.973401 26.88 
" clip-path="url(#pd88c86e6ff)" style="fill: none; stroke-dasharray: 2.96,1.28; stroke-dashoffset: 0; stroke: #b0b0b0; stroke-width: 0.8"/>
     </g>
     <g id="line2d_14">
      <g>
       <use xlink:href="#m2458e0c709" x="690.973401" y="404.12" style="stroke: #000000; stroke-width: 0.8"/>
      </g>
     </g>
     <g id="text_7">
      <!-- 2024-08-01 -->
      <g transform="translate(661.915589 418.718437) scale(0.1 -0.1)">
       <use xlink:href="#DejaVuSans-32"/>
       <use xlink:href="#DejaVuSans-30" x="63.623047"/>
       <use xlink:href="#DejaVuSans-32" x="127.246094"/>
       <use xlink:href="#DejaVuSans-34" x="190.869141"/>
       <use xlink:href="#DejaVuSans-2d" x="254.492188"/>
       <use xlink:href="#DejaVuSans-30" x="290.576172"/>
       <use xlink:href="#DejaVuSans-38" x="354.199219"/>
       <use xlink:href="#DejaVuSans-2d" x="417.822266"/>
       <use xlink:href="#DejaVuSans-30" x="453.90625"/>
       <use xlink:href="#DejaVuSans-31" x="517.529297"/>
      </g>
     </g>
    </g>
    <g id="xtick_8">
     <g id="line2d_15">
      <path d="M 779.003339 404.12 
L 779.003339 26.88 
" clip-path="url(#pd88c86e6ff)" style="fill: none; stroke-dasharray: 2.96,1.28; stroke-dashoffset: 0; stroke: #b0b0b0; stroke-width: 0.8"/>
     </g>
     <g id="line2d_16">
      <g>
       <use xlink:href="#m2458e0c709" x="779.003339" y="404.12" style="stroke: #000000; stroke-width: 0.8"/>
      </g>
     </g>
     <g id="text_8">
      <!-- 2024-08-08 -->
      <g transform="translate(749.945526 418.718437) scale(0.1 -0.1)">
       <use xlink:href="#DejaVuSans-32"/>
       <use xlink:href="#DejaVuSans-30" x="63.623047"/>
       <use xlink:href="#DejaVuSans-32" x="127.246094"/>
       <use xlink:href="#DejaVuSans-34" x="190.869141"/>
       <use xlink:href="#DejaVuSans-2d" x="254.492188"/>
       <use xlink:href="#DejaVuSans-30" x="290.576172"/>
       <use xlink:href="#DejaVuSans-38" x="354.199219"/>
       <use xlink:href="#DejaVuSans-2d" x="417.822266"/>
       <use xlink:href="#DejaVuSans-30" x="453.90625"/>
       <use xlink:href="#DejaVuSans-38" x="517.529297"/>
      </g>
     </g>
    </g>
   </g>
   <g id="matplotlib.axis_2">
    <g id="ytick_1">
     <g id="line2d_17">
      <path d="M 50.87 393.61135 
L 853.2 393.61135 
" clip-path="url(#pd88c86e6ff)" style="fill: none; stroke-dasharray: 2.96,1.28; stroke-dashoffset: 0; stroke: #b0b0b0; stroke-width: 0.8"/>
     </g>
     <g id="line2d_18">
      <defs>
       <path id="m1339fdb8dd" d="M 0 0 
L -3.5 0 
" style="stroke: #000000; stroke-width: 0.8"/>
      </defs>
      <g>
       <use xlink:href="#m1339fdb8dd" x="50.87" y="393.61135" style="stroke: #000000; stroke-width: 0.8"/>
      </g>
     </g>
     <g id="text_9">
      <!-- 0 -->
      <g transform="translate(37.5075 397.410568) scale(0.1 -0.1)">
       <use xlink:href="#DejaVuSans-30"/>
      </g>
     </g>
    </g>
    <g id="ytick_2">
     <g id="line2d_19">
      <path d="M 50.87 326.68953 
L 853.2 326.68953 
" clip-path="url(#pd88c86e6ff)" style="fill: none; stroke-dasharray: 2.96,1.28; stroke-dashoffset: 0; stroke: #b0b0b0; stroke-width: 0.8"/>
     </g>
     <g id="line2d_20">
      <g>
       <use xlink:href="#m1339fdb8dd" x="50.87" y="326.68953" style="stroke: #000000; stroke-width: 0.8"/>
      </g>
     </g>
     <g id="text_10">
      <!-- 50 -->
      <g transform="translate(31.145 330.488749) scale(0.1 -0.1)">
       <use xlink:href="#DejaVuSans-35"/>
       <use xlink:href="#DejaVuSans-30" x="63.623047"/>
      </g>
     </g>
    </g>
    <g id="ytick_3">
     <g id="line2d_21">
      <path d="M 50.87 259.767711 
L 853.2 259.767711 
" clip-path="url(#pd88c86e6ff)" style="fill: none; stroke-dasharray: 2.96,1.28; stroke-dashoffset: 0; stroke: #b0b0b0; stroke-width: 0.8"/>
     </g>
     <g id="line2d_22">
      <g>
       <use xlink:href="#m1339fdb8dd" x="50.87" y="259.767711" style="stroke: #000000; stroke-width: 0.8"/>
      </g>
     </g>
     <g id="text_11">
      <!-- 100 -->
      <g transform="translate(24.7825 263.566929) scale(0.1 -0.1)">
       <use xlink:href="#DejaVuSans-31"/>
       <use xlink:href="#DejaVuSans-30" x="63.623047"/>
       <use xlink:href="#DejaVuSans-30" x="127.246094"/>
      </g>
     </g>
    </g>
    <g id="ytick_4">
     <g id="line2d_23">
      <path d="M 50.87 192.845891 
L 853.2 192.845891 
" clip-path="url(#pd88c86e6ff)" style="fill: none; stroke-dasharray: 2.96,1.28; stroke-dashoffset: 0; stroke: #b0b0b0; stroke-width: 0.8"/>
     </g>
     <g id="line2d_24">
      <g>
       <use xlink:href="#m1339fdb8dd" x="50.87" y="192.845891" style="stroke: #000000; stroke-width: 0.8"/>
      </g>
     </g>
     <g id="text_12">
      <!-- 150 -->
      <g transform="translate(24.7825 196.64511) scale(0.1 -0.1)">
       <use xlink:href="#DejaVuSans-31"/>
       <use xlink:href="#DejaVuSans-35" x="63.623047"/>
       <use xlink:href="#DejaVuSans-30" x="127.246094"/>
      </g>
     </g>
    </g>
    <g id="ytick_5">
     <g id="line2d_25">
      <path d="M 50.87 125.924071 
L 853.2 125.924071 
" clip-path="url(#pd88c86e6ff)" style="fill: none; stroke-dasharray: 2.96,1.28; stroke-dashoffset: 0; stroke: #b0b0b0; stroke-width: 0.8"/>
     </g>
     <g id="line2d_26">
      <g>
       <use xlink:href="#m1339fdb8dd" x="50.87" y="125.924071" style="stroke: #000000; stroke-width: 0.8"/>
      </g>
     </g>
     <g id="text_13">
      <!-- 200 -->
      <g transform="translate(24.7825 129.72329) scale(0.1 -0.1)">
       <use xlink:href="#DejaVuSans-32"/>
       <use xlink:href="#DejaVuSans-30" x="63.623047"/>
       <use xlink:href="#DejaVuSans-30" x="127.246094"/>
      </g>
     </g>
    </g>
    <g id="ytick_6">
     <g id="line2d_27">
      <path d="M 50.87 59.002252 
L 853.2 59.002252 
" clip-path="url(#pd88c86e6ff)" style="fill: none; stroke-dasharray: 2.96,1.28; stroke-dashoffset: 0; stroke: #b0b0b0; stroke-width: 0.8"/>
     </g>
     <g id="line2d_28">
      <g>
       <use xlink:href="#m1339fdb8dd" x="50.87" y="59.002252" style="stroke: #000000; stroke-width: 0.8"/>
      </g>
     </g>
     <g id="text_14">
      <!-- 250 -->
      <g transform="translate(24.7825 62.801471) scale(0.1 -0.1)">
       <use xlink:href="#DejaVuSans-32"/>
       <use xlink:href="#DejaVuSans-35" x="63.623047"/>
       <use xlink:href="#DejaVuSans-30" x="127.246094"/>
      </g>
     </g>
    </g>
    <g id="text_15">
     <!-- Score -->
     <g transform="translate(18.702813 229.502344) rotate(-90) scale(0.1 -0.1)">
      <defs>
       <path id="DejaVuSans-53" d="M 3425 4513 
L 3425 3897 
Q 3066 4069 2747 4153 
Q 2428 4238 2131 4238 
Q 1616 4238 1336 4038 
Q 1056 3838 1056 3469 
Q 1056 3159 1242 3001 
Q 1428 2844 1947 2747 
L 2328 2669 
Q 3034 2534 3370 2195 
Q 3706 1856 3706 1288 
Q 3706 609 3251 259 
Q 2797 -91 1919 -91 
Q 1588 -91 1214 -16 
Q 841 59 441 206 
L 441 856 
Q 825 641 1194 531 
Q 1563 422 1919 422 
Q 2459 422 2753 634 
Q 3047 847 3047 1241 
Q 3047 1584 2836 1778 
Q 2625 1972 2144 2069 
L 1759 2144 
Q 1053 2284 737 2584 
Q 422 2884 422 3419 
Q 422 4038 858 4394 
Q 1294 4750 2059 4750 
Q 2388 4750 2728 4690 
Q 3069 4631 3425 4513 
z
" transform="scale(0.015625)"/>
       <path id="DejaVuSans-63" d="M 3122 3366 
L 3122 2828 
Q 2878 2963 2633 3030 
Q 2388 3097 2138 3097 
Q 1578 3097 1268 2742 
Q 959 2388 959 1747 
Q 959 1106 1268 751 
Q 1578 397 2138 397 
Q 2388 397 2633 464 
Q 2878 531 3122 666 
L 3122 134 
Q 2881 22 2623 -34 
Q 2366 -91 2075 -91 
Q 1284 -91 818 406 
Q 353 903 353 1747 
Q 353 2603 823 3093 
Q 1294 3584 2113 3584 
Q 2378 3584 2631 3529 
Q 2884 3475 3122 3366 
z
" transform="scale(0.015625)"/>
       <path id="DejaVuSans-6f" d="M 1959 3097 
Q 1497 3097 1228 2736 
Q 959 2375 959 1747 
Q 959 1119 1226 758 
Q 1494 397 1959 397 
Q 2419 397 2687 759 
Q 2956 1122 2956 1747 
Q 2956 2369 2687 2733 
Q 2419 3097 1959 3097 
z
M 1959 3584 
Q 2709 3584 3137 3096 
Q 3566 2609 3566 1747 
Q 3566 888 3137 398 
Q 2709 -91 1959 -91 
Q 1206 -91 779 398 
Q 353 888 353 1747 
Q 353 2609 779 3096 
Q 1206 3584 1959 3584 
z
" transform="scale(0.015625)"/>
       <path id="DejaVuSans-72" d="M 2631 2963 
Q 2534 3019 2420 3045 
Q 2306 3072 2169 3072 
Q 1681 3072 1420 2755 
Q 1159 2438 1159 1844 
L 1159 0 
L 581 0 
L 581 3500 
L 1159 3500 
L 1159 2956 
Q 1341 3275 1631 3429 
Q 1922 3584 2338 3584 
Q 2397 3584 2469 3576 
Q 2541 3569 2628 3553 
L 2631 2963 
z
" transform="scale(0.015625)"/>
       <path id="DejaVuSans-65" d="M 3597 1894 
L 3597 1613 
L 953 1613 
Q 991 1019 1311 708 
Q 1631 397 2203 397 
Q 2534 397 2845 478 
Q 3156 559 3463 722 
L 3463 178 
Q 3153 47 2828 -22 
Q 2503 -91 2169 -91 
Q 1331 -91 842 396 
Q 353 884 353 1716 
Q 353 2575 817 3079 
Q 1281 3584 2069 3584 
Q 2775 3584 3186 3129 
Q 3597 2675 3597 1894 
z
M 3022 2063 
Q 3016 2534 2758 2815 
Q 2500 3097 2075 3097 
Q 1594 3097 1305 2825 
Q 1016 2553 972 2059 
L 3022 2063 
z
" transform="scale(0.015625)"/>
      </defs>
      <use xlink:href="#DejaVuSans-53"/>
      <use xlink:href="#DejaVuSans-63" x="63.476562"/>
      <use xlink:href="#DejaVuSans-6f" x="118.457031"/>
      <use xlink:href="#DejaVuSans-72" x="179.638672"/>
      <use xlink:href="#DejaVuSans-65" x="218.501953"/>
     </g>
    </g>
   </g>
   <g id="line2d_29">
    <path d="M 87.339545 385.916589 
L 99.915251 362.78076 
L 112.490956 343.66024 
L 125.066661 329.176447 
L 137.642367 313.641024 
L 150.218072 290.122785 
L 162.793777 269.807232 
L 175.369483 259.147543 
L 187.945188 230.562365 
L 200.520893 207.56994 
L 213.096599 177.311718 
L 225.672304 161.20268 
L 238.248009 117.177683 
L 275.975125 117.177683 
L 288.550831 117.177683 
L 301.126536 117.177683 
L 313.702241 117.177683 
L 326.277947 117.177683 
L 351.429357 117.177683 
L 364.005063 117.177683 
L 376.580768 117.177683 
L 389.156473 117.177683 
L 401.732179 117.177683 
L 414.307884 107.13941 
L 426.883589 107.13941 
L 439.459295 107.13941 
L 452.035 107.13941 
L 464.610705 107.13941 
L 477.186411 92.082 
L 489.762116 92.082 
L 502.337821 92.082 
L 514.913527 92.082 
L 527.489232 92.082 
L 540.064937 92.082 
L 552.640643 92.082 
L 565.216348 92.082 
L 577.792053 92.082 
L 590.367759 92.082 
L 602.943464 92.082 
L 615.519169 92.082 
L 628.094875 92.082 
L 640.67058 92.082 
L 653.246285 92.082 
L 665.821991 92.082 
L 678.397696 92.082 
L 690.973401 92.082 
L 703.549107 92.082 
L 716.124812 92.082 
L 728.700517 92.082 
L 741.276223 92.082 
L 753.851928 92.082 
L 766.427633 92.082 
L 779.003339 92.082 
L 791.579044 92.082 
L 804.154749 92.082 
L 816.730455 92.082 
" clip-path="url(#pd88c86e6ff)" style="fill: none; stroke: #1f77b4; stroke-width: 1.5; stroke-linecap: square"/>
    <defs>
     <path id="mdadaea78e3" d="M 0 3.5 
C 0.928211 3.5 1.81853 3.131218 2.474874 2.474874 
C 3.131218 1.81853 3.5 0.928211 3.5 0 
C 3.5 -0.928211 3.131218 -1.81853 2.474874 -2.474874 
C 1.81853 -3.131218 0.928211 -3.5 0 -3.5 
C -0.928211 -3.5 -1.81853 -3.131218 -2.474874 -2.474874 
C -3.131218 -1.81853 -3.5 -0.928211 -3.5 0 
C -3.5 0.928211 -3.131218 1.81853 -2.474874 2.474874 
C -1.81853 3.131218 -0.928211 3.5 0 3.5 
z
" style="stroke: #1f77b4"/>
    </defs>
    <g clip-path="url(#pd88c86e6ff)">
     <use xlink:href="#mdadaea78e3" x="87.339545" y="385.916589" style="fill: #1f77b4; stroke: #1f77b4"/>
     <use xlink:href="#mdadaea78e3" x="99.915251" y="362.78076" style="fill: #1f77b4; stroke: #1f77b4"/>
     <use xlink:href="#mdadaea78e3" x="112.490956" y="343.66024" style="fill: #1f77b4; stroke: #1f77b4"/>
     <use xlink:href="#mdadaea78e3" x="125.066661" y="329.176447" style="fill: #1f77b4; stroke: #1f77b4"/>
     <use xlink:href="#mdadaea78e3" x="137.642367" y="313.641024" style="fill: #1f77b4; stroke: #1f77b4"/>
     <use xlink:href="#mdadaea78e3" x="150.218072" y="290.122785" style="fill: #1f77b4; stroke: #1f77b4"/>
     <use xlink:href="#mdadaea78e3" x="162.793777" y="269.807232" style="fill: #1f77b4; stroke: #1f77b4"/>
     <use xlink:href="#mdadaea78e3" x="175.369483" y="259.147543" style="fill: #1f77b4; stroke: #1f77b4"/>
     <use xlink:href="#mdadaea78e3" x="187.945188" y="230.562365" style="fill: #1f77b4; stroke: #1f77b4"/>
     <use xlink:href="#mdadaea78e3" x="200.520893" y="207.56994" style="fill: #1f77b4; stroke: #1f77b4"/>
     <use xlink:href="#mdadaea78e3" x="213.096599" y="177.311718" style="fill: #1f77b4; stroke: #1f77b4"/>
     <use xlink:href="#mdadaea78e3" x="225.672304" y="161.20268" style="fill: #1f77b4; stroke: #1f77b4"/>
     <use xlink:href="#mdadaea78e3" x="238.248009" y="117.177683" style="fill: #1f77b4; stroke: #1f77b4"/>
     <use xlink:href="#mdadaea78e3" x="275.975125" y="117.177683" style="fill: #1f77b4; stroke: #1f77b4"/>
     <use xlink:href="#mdadaea78e3" x="288.550831" y="117.177683" style="fill: #1f77b4; stroke: #1f77b4"/>
     <use xlink:href="#mdadaea78e3" x="301.126536" y="117.177683" style="fill: #1f77b4; stroke: #1f77b4"/>
     <use xlink:href="#mdadaea78e3" x="313.702241" y="117.177683" style="fill: #1f77b4; stroke: #1f77b4"/>
     <use xlink:href="#mdadaea78e3" x="326.277947" y="117.177683" style="fill: #1f77b4; stroke: #1f77b4"/>
     <use xlink:href="#mdadaea78e3" x="351.429357" y="117.177683" style="fill: #1f77b4; stroke: #1f77b4"/>
     <use xlink:href="#mdadaea78e3" x="364.005063" y="117.177683" style="fill: #1f77b4; stroke: #1f77b4"/>
     <use xlink:href="#mdadaea78e3" x="376.580768" y="117.177683" style="fill: #1f77b4; stroke: #1f77b4"/>
     <use xlink:href="#mdadaea78e3" x="389.156473" y="117.177683" style="fill: #1f77b4; stroke: #1f77b4"/>
     <use xlink:href="#mdadaea78e3" x="401.732179" y="117.177683" style="fill: #1f77b4; stroke: #1f77b4"/>
     <use xlink:href="#mdadaea78e3" x="414.307884" y="107.13941" style="fill: #1f77b4; stroke: #1f77b4"/>
     <use xlink:href="#mdadaea78e3" x="426.883589" y="107.13941" style="fill: #1f77b4; stroke: #1f77b4"/>
     <use xlink:href="#mdadaea78e3" x="439.459295" y="107.13941" style="fill: #1f77b4; stroke: #1f77b4"/>
     <use xlink:href="#mdadaea78e3" x="452.035" y="107.13941" style="fill: #1f77b4; stroke: #1f77b4"/>
     <use xlink:href="#mdadaea78e3" x="464.610705" y="107.13941" style="fill: #1f77b4; stroke: #1f77b4"/>
     <use xlink:href="#mdadaea78e3" x="477.186411" y="92.082" style="fill: #1f77b4; stroke: #1f77b4"/>
     <use xlink:href="#mdadaea78e3" x="489.762116" y="92.082" style="fill: #1f77b4; stroke: #1f77b4"/>
     <use xlink:href="#mdadaea78e3" x="502.337821" y="92.082" style="fill: #1f77b4; stroke: #1f77b4"/>
     <use xlink:href="#mdadaea78e3" x="514.913527" y="92.082" style="fill: #1f77b4; stroke: #1f77b4"/>
     <use xlink:href="#mdadaea78e3" x="527.489232" y="92.082" style="fill: #1f77b4; stroke: #1f77b4"/>
     <use xlink:href="#mdadaea78e3" x="540.064937" y="92.082" style="fill: #1f77b4; stroke: #1f77b4"/>
     <use xlink:href="#mdadaea78e3" x="552.640643" y="92.082" style="fill: #1f77b4; stroke: #1f77b4"/>
     <use xlink:href="#mdadaea78e3" x="565.216348" y="92.082" style="fill: #1f77b4; stroke: #1f77b4"/>
     <use xlink:href="#mdadaea78e3" x="577.792053" y="92.082" style="fill: #1f77b4; stroke: #1f77b4"/>
     <use xlink:href="#mdadaea78e3" x="590.367759" y="92.082" style="fill: #1f77b4; stroke: #1f77b4"/>
     <use xlink:href="#mdadaea78e3" x="602.943464" y="92.082" style="fill: #1f77b4; stroke: #1f77b4"/>
     <use xlink:href="#mdadaea78e3" x="615.519169" y="92.082" style="fill: #1f77b4; stroke: #1f77b4"/>
     <use xlink:href="#mdadaea78e3" x="628.094875" y="92.082" style="fill: #1f77b4; stroke: #1f77b4"/>
     <use xlink:href="#mdadaea78e3" x="640.67058" y="92.082" style="fill: #1f77b4; stroke: #1f77b4"/>
     <use xlink:href="#mdadaea78e3" x="653.246285" y="92.082" style="fill: #1f77b4; stroke: #1f77b4"/>
     <use xlink:href="#mdadaea78e3" x="665.821991" y="92.082" style="fill: #1f77b4; stroke: #1f77b4"/>
     <use xlink:href="#mdadaea78e3" x="678.397696" y="92.082" style="fill: #1f77b4; stroke: #1f77b4"/>
     <use xlink:href="#mdadaea78e3" x="690.973401" y="92.082" style="fill: #1f77b4; stroke: #1f77b4"/>
     <use xlink:href="#mdadaea78e3" x="703.549107" y="92.082" style="fill: #1f77b4; stroke: #1f77b4"/>
     <use xlink:href="#mdadaea78e3" x="716.124812" y="92.082" style="fill: #1f77b4; stroke: #1f77b4"/>
     <use xlink:href="#mdadaea78e3" x="728.700517" y="92.082" style="fill: #1f77b4; stroke: #1f77b4"/>
     <use xlink:href="#mdadaea78e3" x="741.276223" y="92.082" style="fill: #1f77b4; stroke: #1f77b4"/>
     <use xlink:href="#mdadaea78e3" x="753.851928" y="92.082" style="fill: #1f77b4; stroke: #1f77b4"/>
     <use xlink:href="#mdadaea78e3" x="766.427633" y="92.082" style="fill: #1f77b4; stroke: #1f77b4"/>
     <use xlink:href="#mdadaea78e3" x="779.003339" y="92.082" style="fill: #1f77b4; stroke: #1f77b4"/>
     <use xlink:href="#mdadaea78e3" x="791.579044" y="92.082" style="fill: #1f77b4; stroke: #1f77b4"/>
     <use xlink:href="#mdadaea78e3" x="804.154749" y="92.082" style="fill: #1f77b4; stroke: #1f77b4"/>
     <use xlink:href="#mdadaea78e3" x="816.730455" y="92.082" style="fill: #1f77b4; stroke: #1f77b4"/>
    </g>
   </g>
   <g id="line2d_30">
    <path d="M 87.339545 384.334922 
L 99.915251 359.053346 
L 112.490956 333.920485 
L 125.066661 321.725842 
L 137.642367 301.798012 
L 150.218072 280.97789 
L 162.793777 264.470508 
L 175.369483 250.937429 
L 187.945188 215.840652 
L 200.520893 196.805113 
L 213.096599 167.954373 
L 225.672304 148.175257 
L 238.248009 105.642723 
L 275.975125 105.642723 
L 288.550831 105.642723 
L 301.126536 105.642723 
L 313.702241 105.642723 
L 326.277947 105.642723 
L 351.429357 105.642723 
L 364.005063 105.642723 
L 376.580768 105.642723 
L 389.156473 105.642723 
L 401.732179 105.642723 
L 414.307884 96.719814 
L 426.883589 96.719814 
L 439.459295 96.719814 
L 452.035 96.719814 
L 464.610705 96.719814 
L 477.186411 79.617571 
L 489.762116 79.617571 
L 502.337821 79.617571 
L 514.913527 79.617571 
L 527.489232 79.617571 
L 540.064937 79.617571 
L 552.640643 79.617571 
L 565.216348 79.617571 
L 577.792053 79.617571 
L 590.367759 79.617571 
L 602.943464 79.617571 
L 615.519169 79.617571 
L 628.094875 79.617571 
L 640.67058 79.617571 
L 653.246285 79.617571 
L 665.821991 79.617571 
L 678.397696 79.617571 
L 690.973401 79.617571 
L 703.549107 79.617571 
L 716.124812 79.617571 
L 728.700517 79.617571 
L 741.276223 79.617571 
L 753.851928 79.617571 
L 766.427633 79.617571 
L 779.003339 79.617571 
L 791.579044 79.617571 
L 804.154749 79.617571 
L 816.730455 79.617571 
" clip-path="url(#pd88c86e6ff)" style="fill: none; stroke: #ff7f0e; stroke-width: 1.5; stroke-linecap: square"/>
    <defs>
     <path id="m4ef0d36824" d="M 0 3.5 
C 0.928211 3.5 1.81853 3.131218 2.474874 2.474874 
C 3.131218 1.81853 3.5 0.928211 3.5 0 
C 3.5 -0.928211 3.131218 -1.81853 2.474874 -2.474874 
C 1.81853 -3.131218 0.928211 -3.5 0 -3.5 
C -0.928211 -3.5 -1.81853 -3.131218 -2.474874 -2.474874 
C -3.131218 -1.81853 -3.5 -0.928211 -3.5 0 
C -3.5 0.928211 -3.131218 1.81853 -2.474874 2.474874 
C -1.81853 3.131218 -0.928211 3.5 0 3.5 
z
" style="stroke: #ff7f0e"/>
    </defs>
    <g clip-path="url(#pd88c86e6ff)">
     <use xlink:href="#m4ef0d36824" x="87.339545" y="384.334922" style="fill: #ff7f0e; stroke: #ff7f0e"/>
     <use xlink:href="#m4ef0d36824" x="99.915251" y="359.053346" style="fill: #ff7f0e; stroke: #ff7f0e"/>
     <use xlink:href="#m4ef0d36824" x="112.490956" y="333.920485" style="fill: #ff7f0e; stroke: #ff7f0e"/>
     <use xlink:href="#m4ef0d36824" x="125.066661" y="321.725842" style="fill: #ff7f0e; stroke: #ff7f0e"/>
     <use xlink:href="#m4ef0d36824" x="137.642367" y="301.798012" style="fill: #ff7f0e; stroke: #ff7f0e"/>
     <use xlink:href="#m4ef0d36824" x="150.218072" y="280.97789" style="fill: #ff7f0e; stroke: #ff7f0e"/>
     <use xlink:href="#m4ef0d36824" x="162.793777" y="264.470508" style="fill: #ff7f0e; stroke: #ff7f0e"/>
     <use xlink:href="#m4ef0d36824" x="175.369483" y="250.937429" style="fill: #ff7f0e; stroke: #ff7f0e"/>
     <use xlink:href="#m4ef0d36824" x="187.945188" y="215.840652" style="fill: #ff7f0e; stroke: #ff7f0e"/>
     <use xlink:href="#m4ef0d36824" x="200.520893" y="196.805113" style="fill: #ff7f0e; stroke: #ff7f0e"/>
     <use xlink:href="#m4ef0d36824" x="213.096599" y="167.954373" style="fill: #ff7f0e; stroke: #ff7f0e"/>
     <use xlink:href="#m4ef0d36824" x="225.672304" y="148.175257" style="fill: #ff7f0e; stroke: #ff7f0e"/>
     <use xlink:href="#m4ef0d36824" x="238.248009" y="105.642723" style="fill: #ff7f0e; stroke: #ff7f0e"/>
     <use xlink:href="#m4ef0d36824" x="275.975125" y="105.642723" style="fill: #ff7f0e; stroke: #ff7f0e"/>
     <use xlink:href="#m4ef0d36824" x="288.550831" y="105.642723" style="fill: #ff7f0e; stroke: #ff7f0e"/>
     <use xlink:href="#m4ef0d36824" x="301.126536" y="105.642723" style="fill: #ff7f0e; stroke: #ff7f0e"/>
     <use xlink:href="#m4ef0d36824" x="313.702241" y="105.642723" style="fill: #ff7f0e; stroke: #ff7f0e"/>
     <use xlink:href="#m4ef0d36824" x="326.277947" y="105.642723" style="fill: #ff7f0e; stroke: #ff7f0e"/>
     <use xlink:href="#m4ef0d36824" x="351.429357" y="105.642723" style="fill: #ff7f0e; stroke: #ff7f0e"/>
     <use xlink:href="#m4ef0d36824" x="364.005063" y="105.642723" style="fill: #ff7f0e; stroke: #ff7f0e"/>
     <use xlink:href="#m4ef0d36824" x="376.580768" y="105.642723" style="fill: #ff7f0e; stroke: #ff7f0e"/>
     <use xlink:href="#m4ef0d36824" x="389.156473" y="105.642723" style="fill: #ff7f0e; stroke: #ff7f0e"/>
     <use xlink:href="#m4ef0d36824" x="401.732179" y="105.642723" style="fill: #ff7f0e; stroke: #ff7f0e"/>
     <use xlink:href="#m4ef0d36824" x="414.307884" y="96.719814" style="fill: #ff7f0e; stroke: #ff7f0e"/>
     <use xlink:href="#m4ef0d36824" x="426.883589" y="96.719814" style="fill: #ff7f0e; stroke: #ff7f0e"/>
     <use xlink:href="#m4ef0d36824" x="439.459295" y="96.719814" style="fill: #ff7f0e; stroke: #ff7f0e"/>
     <use xlink:href="#m4ef0d36824" x="452.035" y="96.719814" style="fill: #ff7f0e; stroke: #ff7f0e"/>
     <use xlink:href="#m4ef0d36824" x="464.610705" y="96.719814" style="fill: #ff7f0e; stroke: #ff7f0e"/>
     <use xlink:href="#m4ef0d36824" x="477.186411" y="79.617571" style="fill: #ff7f0e; stroke: #ff7f0e"/>
     <use xlink:href="#m4ef0d36824" x="489.762116" y="79.617571" style="fill: #ff7f0e; stroke: #ff7f0e"/>
     <use xlink:href="#m4ef0d36824" x="502.337821" y="79.617571" style="fill: #ff7f0e; stroke: #ff7f0e"/>
     <use xlink:href="#m4ef0d36824" x="514.913527" y="79.617571" style="fill: #ff7f0e; stroke: #ff7f0e"/>
     <use xlink:href="#m4ef0d36824" x="527.489232" y="79.617571" style="fill: #ff7f0e; stroke: #ff7f0e"/>
     <use xlink:href="#m4ef0d36824" x="540.064937" y="79.617571" style="fill: #ff7f0e; stroke: #ff7f0e"/>
     <use xlink:href="#m4ef0d36824" x="552.640643" y="79.617571" style="fill: #ff7f0e; stroke: #ff7f0e"/>
     <use xlink:href="#m4ef0d36824" x="565.216348" y="79.617571" style="fill: #ff7f0e; stroke: #ff7f0e"/>
     <use xlink:href="#m4ef0d36824" x="577.792053" y="79.617571" style="fill: #ff7f0e; stroke: #ff7f0e"/>
     <use xlink:href="#m4ef0d36824" x="590.367759" y="79.617571" style="fill: #ff7f0e; stroke: #ff7f0e"/>
     <use xlink:href="#m4ef0d36824" x="602.943464" y="79.617571" style="fill: #ff7f0e; stroke: #ff7f0e"/>
     <use xlink:href="#m4ef0d36824" x="615.519169" y="79.617571" style="fill: #ff7f0e; stroke: #ff7f0e"/>
     <use xlink:href="#m4ef0d36824" x="628.094875" y="79.617571" style="fill: #ff7f0e; stroke: #ff7f0e"/>
     <use xlink:href="#m4ef0d36824" x="640.67058" y="79.617571" style="fill: #ff7f0e; stroke: #ff7f0e"/>
     <use xlink:href="#m4ef0d36824" x="653.246285" y="79.617571" style="fill: #ff7f0e; stroke: #ff7f0e"/>
     <use xlink:href="#m4ef0d36824" x="665.821991" y="79.617571" style="fill: #ff7f0e; stroke: #ff7f0e"/>
     <use xlink:href="#m4ef0d36824" x="678.397696" y="79.617571" style="fill: #ff7f0e; stroke: #ff7f0e"/>
     <use xlink:href="#m4ef0d36824" x="690.973401" y="79.617571" style="fill: #ff7f0e; stroke: #ff7f0e"/>
     <use xlink:href="#m4ef0d36824" x="703.549107" y="79.617571" style="fill: #ff7f0e; stroke: #ff7f0e"/>
     <use xlink:href="#m4ef0d36824" x="716.124812" y="79.617571" style="fill: #ff7f0e; stroke: #ff7f0e"/>
     <use xlink:href="#m4ef0d36824" x="728.700517" y="79.617571" style="fill: #ff7f0e; stroke: #ff7f0e"/>
     <use xlink:href="#m4ef0d36824" x="741.276223" y="79.617571" style="fill: #ff7f0e; stroke: #ff7f0e"/>
     <use xlink:href="#m4ef0d36824" x="753.851928" y="79.617571" style="fill: #ff7f0e; stroke: #ff7f0e"/>
     <use xlink:href="#m4ef0d36824" x="766.427633" y="79.617571" style="fill: #ff7f0e; stroke: #ff7f0e"/>
     <use xlink:href="#m4ef0d36824" x="779.003339" y="79.617571" style="fill: #ff7f0e; stroke: #ff7f0e"/>
     <use xlink:href="#m4ef0d36824" x="791.579044" y="79.617571" style="fill: #ff7f0e; stroke: #ff7f0e"/>
     <use xlink:href="#m4ef0d36824" x="804.154749" y="79.617571" style="fill: #ff7f0e; stroke: #ff7f0e"/>
     <use xlink:href="#m4ef0d36824" x="816.730455" y="79.617571" style="fill: #ff7f0e; stroke: #ff7f0e"/>
    </g>
   </g>
   <g id="line2d_31">
    <path d="M 87.339545 385.528083 
L 99.915251 363.061472 
L 112.490956 333.902679 
L 125.066661 317.36343 
L 137.642367 297.669294 
L 150.218072 277.688351 
L 162.793777 262.487538 
L 175.369483 245.565877 
L 187.945188 214.973046 
L 200.520893 193.653666 
L 213.096599 163.060834 
L 225.672304 145.756764 
L 238.248009 101.014747 
L 275.975125 101.014747 
L 288.550831 101.014747 
L 301.126536 101.014747 
L 313.702241 101.014747 
L 326.277947 101.014747 
L 351.429357 101.014747 
L 364.005063 101.014747 
L 376.580768 101.014747 
L 389.156473 101.014747 
L 401.732179 101.014747 
L 414.307884 93.844552 
L 426.883589 93.844552 
L 439.459295 93.844552 
L 452.035 93.844552 
L 464.610705 93.844552 
L 477.186411 77.114097 
L 489.762116 77.114097 
L 502.337821 77.114097 
L 514.913527 77.114097 
L 527.489232 77.114097 
L 540.064937 77.114097 
L 552.640643 77.114097 
L 565.216348 77.114097 
L 577.792053 77.114097 
L 590.367759 77.114097 
L 602.943464 77.114097 
L 615.519169 77.114097 
L 628.094875 77.114097 
L 640.67058 77.114097 
L 653.246285 77.114097 
L 665.821991 77.114097 
L 678.397696 77.114097 
L 690.973401 77.114097 
L 703.549107 77.114097 
L 716.124812 77.114097 
L 728.700517 77.114097 
L 741.276223 77.114097 
L 753.851928 77.114097 
L 766.427633 77.114097 
L 779.003339 77.114097 
L 791.579044 77.114097 
L 804.154749 77.114097 
L 816.730455 77.114097 
" clip-path="url(#pd88c86e6ff)" style="fill: none; stroke: #2ca02c; stroke-width: 1.5; stroke-linecap: square"/>
    <defs>
     <path id="m02cf346d8e" d="M 0 3.5 
C 0.928211 3.5 1.81853 3.131218 2.474874 2.474874 
C 3.131218 1.81853 3.5 0.928211 3.5 0 
C 3.5 -0.928211 3.131218 -1.81853 2.474874 -2.474874 
C 1.81853 -3.131218 0.928211 -3.5 0 -3.5 
C -0.928211 -3.5 -1.81853 -3.131218 -2.474874 -2.474874 
C -3.131218 -1.81853 -3.5 -0.928211 -3.5 0 
C -3.5 0.928211 -3.131218 1.81853 -2.474874 2.474874 
C -1.81853 3.131218 -0.928211 3.5 0 3.5 
z
" style="stroke: #2ca02c"/>
    </defs>
    <g clip-path="url(#pd88c86e6ff)">
     <use xlink:href="#m02cf346d8e" x="87.339545" y="385.528083" style="fill: #2ca02c; stroke: #2ca02c"/>
     <use xlink:href="#m02cf346d8e" x="99.915251" y="363.061472" style="fill: #2ca02c; stroke: #2ca02c"/>
     <use xlink:href="#m02cf346d8e" x="112.490956" y="333.902679" style="fill: #2ca02c; stroke: #2ca02c"/>
     <use xlink:href="#m02cf346d8e" x="125.066661" y="317.36343" style="fill: #2ca02c; stroke: #2ca02c"/>
     <use xlink:href="#m02cf346d8e" x="137.642367" y="297.669294" style="fill: #2ca02c; stroke: #2ca02c"/>
     <use xlink:href="#m02cf346d8e" x="150.218072" y="277.688351" style="fill: #2ca02c; stroke: #2ca02c"/>
     <use xlink:href="#m02cf346d8e" x="162.793777" y="262.487538" style="fill: #2ca02c; stroke: #2ca02c"/>
     <use xlink:href="#m02cf346d8e" x="175.369483" y="245.565877" style="fill: #2ca02c; stroke: #2ca02c"/>
     <use xlink:href="#m02cf346d8e" x="187.945188" y="214.973046" style="fill: #2ca02c; stroke: #2ca02c"/>
     <use xlink:href="#m02cf346d8e" x="200.520893" y="193.653666" style="fill: #2ca02c; stroke: #2ca02c"/>
     <use xlink:href="#m02cf346d8e" x="213.096599" y="163.060834" style="fill: #2ca02c; stroke: #2ca02c"/>
     <use xlink:href="#m02cf346d8e" x="225.672304" y="145.756764" style="fill: #2ca02c; stroke: #2ca02c"/>
     <use xlink:href="#m02cf346d8e" x="238.248009" y="101.014747" style="fill: #2ca02c; stroke: #2ca02c"/>
     <use xlink:href="#m02cf346d8e" x="275.975125" y="101.014747" style="fill: #2ca02c; stroke: #2ca02c"/>
     <use xlink:href="#m02cf346d8e" x="288.550831" y="101.014747" style="fill: #2ca02c; stroke: #2ca02c"/>
     <use xlink:href="#m02cf346d8e" x="301.126536" y="101.014747" style="fill: #2ca02c; stroke: #2ca02c"/>
     <use xlink:href="#m02cf346d8e" x="313.702241" y="101.014747" style="fill: #2ca02c; stroke: #2ca02c"/>
     <use xlink:href="#m02cf346d8e" x="326.277947" y="101.014747" style="fill: #2ca02c; stroke: #2ca02c"/>
     <use xlink:href="#m02cf346d8e" x="351.429357" y="101.014747" style="fill: #2ca02c; stroke: #2ca02c"/>
     <use xlink:href="#m02cf346d8e" x="364.005063" y="101.014747" style="fill: #2ca02c; stroke: #2ca02c"/>
     <use xlink:href="#m02cf346d8e" x="376.580768" y="101.014747" style="fill: #2ca02c; stroke: #2ca02c"/>
     <use xlink:href="#m02cf346d8e" x="389.156473" y="101.014747" style="fill: #2ca02c; stroke: #2ca02c"/>
     <use xlink:href="#m02cf346d8e" x="401.732179" y="101.014747" style="fill: #2ca02c; stroke: #2ca02c"/>
     <use xlink:href="#m02cf346d8e" x="414.307884" y="93.844552" style="fill: #2ca02c; stroke: #2ca02c"/>
     <use xlink:href="#m02cf346d8e" x="426.883589" y="93.844552" style="fill: #2ca02c; stroke: #2ca02c"/>
     <use xlink:href="#m02cf346d8e" x="439.459295" y="93.844552" style="fill: #2ca02c; stroke: #2ca02c"/>
     <use xlink:href="#m02cf346d8e" x="452.035" y="93.844552" style="fill: #2ca02c; stroke: #2ca02c"/>
     <use xlink:href="#m02cf346d8e" x="464.610705" y="93.844552" style="fill: #2ca02c; stroke: #2ca02c"/>
     <use xlink:href="#m02cf346d8e" x="477.186411" y="77.114097" style="fill: #2ca02c; stroke: #2ca02c"/>
     <use xlink:href="#m02cf346d8e" x="489.762116" y="77.114097" style="fill: #2ca02c; stroke: #2ca02c"/>
     <use xlink:href="#m02cf346d8e" x="502.337821" y="77.114097" style="fill: #2ca02c; stroke: #2ca02c"/>
     <use xlink:href="#m02cf346d8e" x="514.913527" y="77.114097" style="fill: #2ca02c; stroke: #2ca02c"/>
     <use xlink:href="#m02cf346d8e" x="527.489232" y="77.114097" style="fill: #2ca02c; stroke: #2ca02c"/>
     <use xlink:href="#m02cf346d8e" x="540.064937" y="77.114097" style="fill: #2ca02c; stroke: #2ca02c"/>
     <use xlink:href="#m02cf346d8e" x="552.640643" y="77.114097" style="fill: #2ca02c; stroke: #2ca02c"/>
     <use xlink:href="#m02cf346d8e" x="565.216348" y="77.114097" style="fill: #2ca02c; stroke: #2ca02c"/>
     <use xlink:href="#m02cf346d8e" x="577.792053" y="77.114097" style="fill: #2ca02c; stroke: #2ca02c"/>
     <use xlink:href="#m02cf346d8e" x="590.367759" y="77.114097" style="fill: #2ca02c; stroke: #2ca02c"/>
     <use xlink:href="#m02cf346d8e" x="602.943464" y="77.114097" style="fill: #2ca02c; stroke: #2ca02c"/>
     <use xlink:href="#m02cf346d8e" x="615.519169" y="77.114097" style="fill: #2ca02c; stroke: #2ca02c"/>
     <use xlink:href="#m02cf346d8e" x="628.094875" y="77.114097" style="fill: #2ca02c; stroke: #2ca02c"/>
     <use xlink:href="#m02cf346d8e" x="640.67058" y="77.114097" style="fill: #2ca02c; stroke: #2ca02c"/>
     <use xlink:href="#m02cf346d8e" x="653.246285" y="77.114097" style="fill: #2ca02c; stroke: #2ca02c"/>
     <use xlink:href="#m02cf346d8e" x="665.821991" y="77.114097" style="fill: #2ca02c; stroke: #2ca02c"/>
     <use xlink:href="#m02cf346d8e" x="678.397696" y="77.114097" style="fill: #2ca02c; stroke: #2ca02c"/>
     <use xlink:href="#m02cf346d8e" x="690.973401" y="77.114097" style="fill: #2ca02c; stroke: #2ca02c"/>
     <use xlink:href="#m02cf346d8e" x="703.549107" y="77.114097" style="fill: #2ca02c; stroke: #2ca02c"/>
     <use xlink:href="#m02cf346d8e" x="716.124812" y="77.114097" style="fill: #2ca02c; stroke: #2ca02c"/>
     <use xlink:href="#m02cf346d8e" x="728.700517" y="77.114097" style="fill: #2ca02c; stroke: #2ca02c"/>
     <use xlink:href="#m02cf346d8e" x="741.276223" y="77.114097" style="fill: #2ca02c; stroke: #2ca02c"/>
     <use xlink:href="#m02cf346d8e" x="753.851928" y="77.114097" style="fill: #2ca02c; stroke: #2ca02c"/>
     <use xlink:href="#m02cf346d8e" x="766.427633" y="77.114097" style="fill: #2ca02c; stroke: #2ca02c"/>
     <use xlink:href="#m02cf346d8e" x="779.003339" y="77.114097" style="fill: #2ca02c; stroke: #2ca02c"/>
     <use xlink:href="#m02cf346d8e" x="791.579044" y="77.114097" style="fill: #2ca02c; stroke: #2ca02c"/>
     <use xlink:href="#m02cf346d8e" x="804.154749" y="77.114097" style="fill: #2ca02c; stroke: #2ca02c"/>
     <use xlink:href="#m02cf346d8e" x="816.730455" y="77.114097" style="fill: #2ca02c; stroke: #2ca02c"/>
    </g>
   </g>
   <g id="line2d_32">
    <path d="M 87.339545 385.538389 
L 99.915251 363.052657 
L 112.490956 337.354679 
L 125.066661 323.702627 
L 137.642367 308.533682 
L 150.218072 281.586496 
L 162.793777 251.962437 
L 175.369483 242.682611 
L 187.945188 213.950843 
L 200.520893 196.55117 
L 213.096599 165.14253 
L 225.672304 147.832086 
L 238.248009 92.599277 
L 275.975125 92.599277 
L 288.550831 92.599277 
L 301.126536 92.599277 
L 313.702241 92.599277 
L 326.277947 92.599277 
L 351.429357 92.599277 
L 364.005063 92.599277 
L 376.580768 92.599277 
L 389.156473 92.599277 
L 401.732179 92.599277 
L 414.307884 81.891786 
L 426.883589 81.891786 
L 439.459295 81.891786 
L 452.035 81.891786 
L 464.610705 81.891786 
L 477.186411 75.64575 
L 489.762116 75.64575 
L 502.337821 75.64575 
L 514.913527 75.64575 
L 527.489232 75.64575 
L 540.064937 75.64575 
L 552.640643 75.64575 
L 565.216348 75.64575 
L 577.792053 75.64575 
L 590.367759 75.64575 
L 602.943464 75.64575 
L 615.519169 75.64575 
L 628.094875 75.64575 
L 640.67058 75.64575 
L 653.246285 75.64575 
L 665.821991 75.64575 
L 678.397696 75.64575 
L 690.973401 75.64575 
L 703.549107 75.64575 
L 716.124812 75.64575 
L 728.700517 75.64575 
L 741.276223 75.64575 
L 753.851928 75.64575 
L 766.427633 75.64575 
L 779.003339 75.64575 
L 791.579044 75.64575 
L 804.154749 75.64575 
L 816.730455 75.64575 
" clip-path="url(#pd88c86e6ff)" style="fill: none; stroke: #d62728; stroke-width: 1.5; stroke-linecap: square"/>
    <defs>
     <path id="m4ad13be65f" d="M 0 3.5 
C 0.928211 3.5 1.81853 3.131218 2.474874 2.474874 
C 3.131218 1.81853 3.5 0.928211 3.5 0 
C 3.5 -0.928211 3.131218 -1.81853 2.474874 -2.474874 
C 1.81853 -3.131218 0.928211 -3.5 0 -3.5 
C -0.928211 -3.5 -1.81853 -3.131218 -2.474874 -2.474874 
C -3.131218 -1.81853 -3.5 -0.928211 -3.5 0 
C -3.5 0.928211 -3.131218 1.81853 -2.474874 2.474874 
C -1.81853 3.131218 -0.928211 3.5 0 3.5 
z
" style="stroke: #d62728"/>
    </defs>
    <g clip-path="url(#pd88c86e6ff)">
     <use xlink:href="#m4ad13be65f" x="87.339545" y="385.538389" style="fill: #d62728; stroke: #d62728"/>
     <use xlink:href="#m4ad13be65f" x="99.915251" y="363.052657" style="fill: #d62728; stroke: #d62728"/>
     <use xlink:href="#m4ad13be65f" x="112.490956" y="337.354679" style="fill: #d62728; stroke: #d62728"/>
     <use xlink:href="#m4ad13be65f" x="125.066661" y="323.702627" style="fill: #d62728; stroke: #d62728"/>
     <use xlink:href="#m4ad13be65f" x="137.642367" y="308.533682" style="fill: #d62728; stroke: #d62728"/>
     <use xlink:href="#m4ad13be65f" x="150.218072" y="281.586496" style="fill: #d62728; stroke: #d62728"/>
     <use xlink:href="#m4ad13be65f" x="162.793777" y="251.962437" style="fill: #d62728; stroke: #d62728"/>
     <use xlink:href="#m4ad13be65f" x="175.369483" y="242.682611" style="fill: #d62728; stroke: #d62728"/>
     <use xlink:href="#m4ad13be65f" x="187.945188" y="213.950843" style="fill: #d62728; stroke: #d62728"/>
     <use xlink:href="#m4ad13be65f" x="200.520893" y="196.55117" style="fill: #d62728; stroke: #d62728"/>
     <use xlink:href="#m4ad13be65f" x="213.096599" y="165.14253" style="fill: #d62728; stroke: #d62728"/>
     <use xlink:href="#m4ad13be65f" x="225.672304" y="147.832086" style="fill: #d62728; stroke: #d62728"/>
     <use xlink:href="#m4ad13be65f" x="238.248009" y="92.599277" style="fill: #d62728; stroke: #d62728"/>
     <use xlink:href="#m4ad13be65f" x="275.975125" y="92.599277" style="fill: #d62728; stroke: #d62728"/>
     <use xlink:href="#m4ad13be65f" x="288.550831" y="92.599277" style="fill: #d62728; stroke: #d62728"/>
     <use xlink:href="#m4ad13be65f" x="301.126536" y="92.599277" style="fill: #d62728; stroke: #d62728"/>
     <use xlink:href="#m4ad13be65f" x="313.702241" y="92.599277" style="fill: #d62728; stroke: #d62728"/>
     <use xlink:href="#m4ad13be65f" x="326.277947" y="92.599277" style="fill: #d62728; stroke: #d62728"/>
     <use xlink:href="#m4ad13be65f" x="351.429357" y="92.599277" style="fill: #d62728; stroke: #d62728"/>
     <use xlink:href="#m4ad13be65f" x="364.005063" y="92.599277" style="fill: #d62728; stroke: #d62728"/>
     <use xlink:href="#m4ad13be65f" x="376.580768" y="92.599277" style="fill: #d62728; stroke: #d62728"/>
     <use xlink:href="#m4ad13be65f" x="389.156473" y="92.599277" style="fill: #d62728; stroke: #d62728"/>
     <use xlink:href="#m4ad13be65f" x="401.732179" y="92.599277" style="fill: #d62728; stroke: #d62728"/>
     <use xlink:href="#m4ad13be65f" x="414.307884" y="81.891786" style="fill: #d62728; stroke: #d62728"/>
     <use xlink:href="#m4ad13be65f" x="426.883589" y="81.891786" style="fill: #d62728; stroke: #d62728"/>
     <use xlink:href="#m4ad13be65f" x="439.459295" y="81.891786" style="fill: #d62728; stroke: #d62728"/>
     <use xlink:href="#m4ad13be65f" x="452.035" y="81.891786" style="fill: #d62728; stroke: #d62728"/>
     <use xlink:href="#m4ad13be65f" x="464.610705" y="81.891786" style="fill: #d62728; stroke: #d62728"/>
     <use xlink:href="#m4ad13be65f" x="477.186411" y="75.64575" style="fill: #d62728; stroke: #d62728"/>
     <use xlink:href="#m4ad13be65f" x="489.762116" y="75.64575" style="fill: #d62728; stroke: #d62728"/>
     <use xlink:href="#m4ad13be65f" x="502.337821" y="75.64575" style="fill: #d62728; stroke: #d62728"/>
     <use xlink:href="#m4ad13be65f" x="514.913527" y="75.64575" style="fill: #d62728; stroke: #d62728"/>
     <use xlink:href="#m4ad13be65f" x="527.489232" y="75.64575" style="fill: #d62728; stroke: #d62728"/>
     <use xlink:href="#m4ad13be65f" x="540.064937" y="75.64575" style="fill: #d62728; stroke: #d62728"/>
     <use xlink:href="#m4ad13be65f" x="552.640643" y="75.64575" style="fill: #d62728; stroke: #d62728"/>
     <use xlink:href="#m4ad13be65f" x="565.216348" y="75.64575" style="fill: #d62728; stroke: #d62728"/>
     <use xlink:href="#m4ad13be65f" x="577.792053" y="75.64575" style="fill: #d62728; stroke: #d62728"/>
     <use xlink:href="#m4ad13be65f" x="590.367759" y="75.64575" style="fill: #d62728; stroke: #d62728"/>
     <use xlink:href="#m4ad13be65f" x="602.943464" y="75.64575" style="fill: #d62728; stroke: #d62728"/>
     <use xlink:href="#m4ad13be65f" x="615.519169" y="75.64575" style="fill: #d62728; stroke: #d62728"/>
     <use xlink:href="#m4ad13be65f" x="628.094875" y="75.64575" style="fill: #d62728; stroke: #d62728"/>
     <use xlink:href="#m4ad13be65f" x="640.67058" y="75.64575" style="fill: #d62728; stroke: #d62728"/>
     <use xlink:href="#m4ad13be65f" x="653.246285" y="75.64575" style="fill: #d62728; stroke: #d62728"/>
     <use xlink:href="#m4ad13be65f" x="665.821991" y="75.64575" style="fill: #d62728; stroke: #d62728"/>
     <use xlink:href="#m4ad13be65f" x="678.397696" y="75.64575" style="fill: #d62728; stroke: #d62728"/>
     <use xlink:href="#m4ad13be65f" x="690.973401" y="75.64575" style="fill: #d62728; stroke: #d62728"/>
     <use xlink:href="#m4ad13be65f" x="703.549107" y="75.64575" style="fill: #d62728; stroke: #d62728"/>
     <use xlink:href="#m4ad13be65f" x="716.124812" y="75.64575" style="fill: #d62728; stroke: #d62728"/>
     <use xlink:href="#m4ad13be65f" x="728.700517" y="75.64575" style="fill: #d62728; stroke: #d62728"/>
     <use xlink:href="#m4ad13be65f" x="741.276223" y="75.64575" style="fill: #d62728; stroke: #d62728"/>
     <use xlink:href="#m4ad13be65f" x="753.851928" y="75.64575" style="fill: #d62728; stroke: #d62728"/>
     <use xlink:href="#m4ad13be65f" x="766.427633" y="75.64575" style="fill: #d62728; stroke: #d62728"/>
     <use xlink:href="#m4ad13be65f" x="779.003339" y="75.64575" style="fill: #d62728; stroke: #d62728"/>
     <use xlink:href="#m4ad13be65f" x="791.579044" y="75.64575" style="fill: #d62728; stroke: #d62728"/>
     <use xlink:href="#m4ad13be65f" x="804.154749" y="75.64575" style="fill: #d62728; stroke: #d62728"/>
     <use xlink:href="#m4ad13be65f" x="816.730455" y="75.64575" style="fill: #d62728; stroke: #d62728"/>
    </g>
   </g>
   <g id="line2d_33">
    <path d="M 87.339545 386.972727 
L 99.915251 361.245006 
L 112.490956 341.614605 
L 125.066661 324.066217 
L 137.642367 307.112689 
L 150.218072 285.697707 
L 162.793777 273.65178 
L 175.369483 262.498143 
L 187.945188 232.903827 
L 200.520893 212.529851 
L 213.096599 172.079329 
L 225.672304 155.274517 
L 238.248009 108.131813 
L 275.975125 108.131813 
L 288.550831 108.131813 
L 301.126536 108.131813 
L 313.702241 108.131813 
L 326.277947 108.131813 
L 351.429357 108.131813 
L 364.005063 108.131813 
L 376.580768 108.131813 
L 389.156473 108.131813 
L 401.732179 108.131813 
L 414.307884 92.516721 
L 426.883589 92.516721 
L 439.459295 92.516721 
L 452.035 92.516721 
L 464.610705 92.516721 
L 477.186411 73.183751 
L 489.762116 73.183751 
L 502.337821 73.183751 
L 514.913527 73.183751 
L 527.489232 73.183751 
L 540.064937 73.183751 
L 552.640643 73.183751 
L 565.216348 73.183751 
L 577.792053 73.183751 
L 590.367759 73.183751 
L 602.943464 73.183751 
L 615.519169 73.183751 
L 628.094875 73.183751 
L 640.67058 73.183751 
L 653.246285 73.183751 
L 665.821991 73.183751 
L 678.397696 73.183751 
L 690.973401 73.183751 
L 703.549107 73.183751 
L 716.124812 73.183751 
L 728.700517 73.183751 
L 741.276223 73.183751 
L 753.851928 73.183751 
L 766.427633 73.183751 
L 779.003339 73.183751 
L 791.579044 73.183751 
L 804.154749 73.183751 
L 816.730455 73.183751 
" clip-path="url(#pd88c86e6ff)" style="fill: none; stroke: #9467bd; stroke-width: 1.5; stroke-linecap: square"/>
    <defs>
     <path id="m32d17bd636" d="M 0 3.5 
C 0.928211 3.5 1.81853 3.131218 2.474874 2.474874 
C 3.131218 1.81853 3.5 0.928211 3.5 0 
C 3.5 -0.928211 3.131218 -1.81853 2.474874 -2.474874 
C 1.81853 -3.131218 0.928211 -3.5 0 -3.5 
C -0.928211 -3.5 -1.81853 -3.131218 -2.474874 -2.474874 
C -3.131218 -1.81853 -3.5 -0.928211 -3.5 0 
C -3.5 0.928211 -3.131218 1.81853 -2.474874 2.474874 
C -1.81853 3.131218 -0.928211 3.5 0 3.5 
z
" style="stroke: #9467bd"/>
    </defs>
    <g clip-path="url(#pd88c86e6ff)">
     <use xlink:href="#m32d17bd636" x="87.339545" y="386.972727" style="fill: #9467bd; stroke: #9467bd"/>
     <use xlink:href="#m32d17bd636" x="99.915251" y="361.245006" style="fill: #9467bd; stroke: #9467bd"/>
     <use xlink:href="#m32d17bd636" x="112.490956" y="341.614605" style="fill: #9467bd; stroke: #9467bd"/>
     <use xlink:href="#m32d17bd636" x="125.066661" y="324.066217" style="fill: #9467bd; stroke: #9467bd"/>
     <use xlink:href="#m32d17bd636" x="137.642367" y="307.112689" style="fill: #9467bd; stroke: #9467bd"/>
     <use xlink:href="#m32d17bd636" x="150.218072" y="285.697707" style="fill: #9467bd; stroke: #9467bd"/>
     <use xlink:href="#m32d17bd636" x="162.793777" y="273.65178" style="fill: #9467bd; stroke: #9467bd"/>
     <use xlink:href="#m32d17bd636" x="175.369483" y="262.498143" style="fill: #9467bd; stroke: #9467bd"/>
     <use xlink:href="#m32d17bd636" x="187.945188" y="232.903827" style="fill: #9467bd; stroke: #9467bd"/>
     <use xlink:href="#m32d17bd636" x="200.520893" y="212.529851" style="fill: #9467bd; stroke: #9467bd"/>
     <use xlink:href="#m32d17bd636" x="213.096599" y="172.079329" style="fill: #9467bd; stroke: #9467bd"/>
     <use xlink:href="#m32d17bd636" x="225.672304" y="155.274517" style="fill: #9467bd; stroke: #9467bd"/>
     <use xlink:href="#m32d17bd636" x="238.248009" y="108.131813" style="fill: #9467bd; stroke: #9467bd"/>
     <use xlink:href="#m32d17bd636" x="275.975125" y="108.131813" style="fill: #9467bd; stroke: #9467bd"/>
     <use xlink:href="#m32d17bd636" x="288.550831" y="108.131813" style="fill: #9467bd; stroke: #9467bd"/>
     <use xlink:href="#m32d17bd636" x="301.126536" y="108.131813" style="fill: #9467bd; stroke: #9467bd"/>
     <use xlink:href="#m32d17bd636" x="313.702241" y="108.131813" style="fill: #9467bd; stroke: #9467bd"/>
     <use xlink:href="#m32d17bd636" x="326.277947" y="108.131813" style="fill: #9467bd; stroke: #9467bd"/>
     <use xlink:href="#m32d17bd636" x="351.429357" y="108.131813" style="fill: #9467bd; stroke: #9467bd"/>
     <use xlink:href="#m32d17bd636" x="364.005063" y="108.131813" style="fill: #9467bd; stroke: #9467bd"/>
     <use xlink:href="#m32d17bd636" x="376.580768" y="108.131813" style="fill: #9467bd; stroke: #9467bd"/>
     <use xlink:href="#m32d17bd636" x="389.156473" y="108.131813" style="fill: #9467bd; stroke: #9467bd"/>
     <use xlink:href="#m32d17bd636" x="401.732179" y="108.131813" style="fill: #9467bd; stroke: #9467bd"/>
     <use xlink:href="#m32d17bd636" x="414.307884" y="92.516721" style="fill: #9467bd; stroke: #9467bd"/>
     <use xlink:href="#m32d17bd636" x="426.883589" y="92.516721" style="fill: #9467bd; stroke: #9467bd"/>
     <use xlink:href="#m32d17bd636" x="439.459295" y="92.516721" style="fill: #9467bd; stroke: #9467bd"/>
     <use xlink:href="#m32d17bd636" x="452.035" y="92.516721" style="fill: #9467bd; stroke: #9467bd"/>
     <use xlink:href="#m32d17bd636" x="464.610705" y="92.516721" style="fill: #9467bd; stroke: #9467bd"/>
     <use xlink:href="#m32d17bd636" x="477.186411" y="73.183751" style="fill: #9467bd; stroke: #9467bd"/>
     <use xlink:href="#m32d17bd636" x="489.762116" y="73.183751" style="fill: #9467bd; stroke: #9467bd"/>
     <use xlink:href="#m32d17bd636" x="502.337821" y="73.183751" style="fill: #9467bd; stroke: #9467bd"/>
     <use xlink:href="#m32d17bd636" x="514.913527" y="73.183751" style="fill: #9467bd; stroke: #9467bd"/>
     <use xlink:href="#m32d17bd636" x="527.489232" y="73.183751" style="fill: #9467bd; stroke: #9467bd"/>
     <use xlink:href="#m32d17bd636" x="540.064937" y="73.183751" style="fill: #9467bd; stroke: #9467bd"/>
     <use xlink:href="#m32d17bd636" x="552.640643" y="73.183751" style="fill: #9467bd; stroke: #9467bd"/>
     <use xlink:href="#m32d17bd636" x="565.216348" y="73.183751" style="fill: #9467bd; stroke: #9467bd"/>
     <use xlink:href="#m32d17bd636" x="577.792053" y="73.183751" style="fill: #9467bd; stroke: #9467bd"/>
     <use xlink:href="#m32d17bd636" x="590.367759" y="73.183751" style="fill: #9467bd; stroke: #9467bd"/>
     <use xlink:href="#m32d17bd636" x="602.943464" y="73.183751" style="fill: #9467bd; stroke: #9467bd"/>
     <use xlink:href="#m32d17bd636" x="615.519169" y="73.183751" style="fill: #9467bd; stroke: #9467bd"/>
     <use xlink:href="#m32d17bd636" x="628.094875" y="73.183751" style="fill: #9467bd; stroke: #9467bd"/>
     <use xlink:href="#m32d17bd636" x="640.67058" y="73.183751" style="fill: #9467bd; stroke: #9467bd"/>
     <use xlink:href="#m32d17bd636" x="653.246285" y="73.183751" style="fill: #9467bd; stroke: #9467bd"/>
     <use xlink:href="#m32d17bd636" x="665.821991" y="73.183751" style="fill: #9467bd; stroke: #9467bd"/>
     <use xlink:href="#m32d17bd636" x="678.397696" y="73.183751" style="fill: #9467bd; stroke: #9467bd"/>
     <use xlink:href="#m32d17bd636" x="690.973401" y="73.183751" style="fill: #9467bd; stroke: #9467bd"/>
     <use xlink:href="#m32d17bd636" x="703.549107" y="73.183751" style="fill: #9467bd; stroke: #9467bd"/>
     <use xlink:href="#m32d17bd636" x="716.124812" y="73.183751" style="fill: #9467bd; stroke: #9467bd"/>
     <use xlink:href="#m32d17bd636" x="728.700517" y="73.183751" style="fill: #9467bd; stroke: #9467bd"/>
     <use xlink:href="#m32d17bd636" x="741.276223" y="73.183751" style="fill: #9467bd; stroke: #9467bd"/>
     <use xlink:href="#m32d17bd636" x="753.851928" y="73.183751" style="fill: #9467bd; stroke: #9467bd"/>
     <use xlink:href="#m32d17bd636" x="766.427633" y="73.183751" style="fill: #9467bd; stroke: #9467bd"/>
     <use xlink:href="#m32d17bd636" x="779.003339" y="73.183751" style="fill: #9467bd; stroke: #9467bd"/>
     <use xlink:href="#m32d17bd636" x="791.579044" y="73.183751" style="fill: #9467bd; stroke: #9467bd"/>
     <use xlink:href="#m32d17bd636" x="804.154749" y="73.183751" style="fill: #9467bd; stroke: #9467bd"/>
     <use xlink:href="#m32d17bd636" x="816.730455" y="73.183751" style="fill: #9467bd; stroke: #9467bd"/>
    </g>
   </g>
   <g id="line2d_34">
    <path d="M 87.339545 381.313243 
L 99.915251 356.55217 
L 112.490956 330.229588 
L 125.066661 314.168351 
L 137.642367 296.322532 
L 150.218072 273.122968 
L 162.793777 253.269495 
L 175.369483 236.315968 
L 187.945188 201.962767 
L 200.520893 183.001585 
L 213.096599 148.871457 
L 225.672304 132.141002 
L 238.248009 79.71891 
L 275.975125 79.71891 
L 288.550831 79.71891 
L 301.126536 79.71891 
L 313.702241 79.71891 
L 326.277947 79.71891 
L 351.429357 79.71891 
L 364.005063 79.71891 
L 376.580768 79.71891 
L 389.156473 79.71891 
L 401.732179 79.71891 
L 414.307884 66.334546 
L 426.883589 66.334546 
L 439.459295 66.334546 
L 452.035 66.334546 
L 464.610705 66.334546 
L 477.186411 44.027273 
L 489.762116 44.027273 
L 502.337821 44.027273 
L 514.913527 44.027273 
L 527.489232 44.027273 
L 540.064937 44.027273 
L 552.640643 44.027273 
L 565.216348 44.027273 
L 577.792053 44.027273 
L 590.367759 44.027273 
L 602.943464 44.027273 
L 615.519169 44.027273 
L 628.094875 44.027273 
L 640.67058 44.027273 
L 653.246285 44.027273 
L 665.821991 44.027273 
L 678.397696 44.027273 
L 690.973401 44.027273 
L 703.549107 44.027273 
L 716.124812 44.027273 
L 728.700517 44.027273 
L 741.276223 44.027273 
L 753.851928 44.027273 
L 766.427633 44.027273 
L 779.003339 44.027273 
L 791.579044 44.027273 
L 804.154749 44.027273 
L 816.730455 44.027273 
" clip-path="url(#pd88c86e6ff)" style="fill: none; stroke: #8c564b; stroke-width: 1.5; stroke-linecap: square"/>
    <defs>
     <path id="mb0a8fe5655" d="M 0 3.5 
C 0.928211 3.5 1.81853 3.131218 2.474874 2.474874 
C 3.131218 1.81853 3.5 0.928211 3.5 0 
C 3.5 -0.928211 3.131218 -1.81853 2.474874 -2.474874 
C 1.81853 -3.131218 0.928211 -3.5 0 -3.5 
C -0.928211 -3.5 -1.81853 -3.131218 -2.474874 -2.474874 
C -3.131218 -1.81853 -3.5 -0.928211 -3.5 0 
C -3.5 0.928211 -3.131218 1.81853 -2.474874 2.474874 
C -1.81853 3.131218 -0.928211 3.5 0 3.5 
z
" style="stroke: #8c564b"/>
    </defs>
    <g clip-path="url(#pd88c86e6ff)">
     <use xlink:href="#mb0a8fe5655" x="87.339545" y="381.313243" style="fill: #8c564b; stroke: #8c564b"/>
     <use xlink:href="#mb0a8fe5655" x="99.915251" y="356.55217" style="fill: #8c564b; stroke: #8c564b"/>
     <use xlink:href="#mb0a8fe5655" x="112.490956" y="330.229588" style="fill: #8c564b; stroke: #8c564b"/>
     <use xlink:href="#mb0a8fe5655" x="125.066661" y="314.168351" style="fill: #8c564b; stroke: #8c564b"/>
     <use xlink:href="#mb0a8fe5655" x="137.642367" y="296.322532" style="fill: #8c564b; stroke: #8c564b"/>
     <use xlink:href="#mb0a8fe5655" x="150.218072" y="273.122968" style="fill: #8c564b; stroke: #8c564b"/>
     <use xlink:href="#mb0a8fe5655" x="162.793777" y="253.269495" style="fill: #8c564b; stroke: #8c564b"/>
     <use xlink:href="#mb0a8fe5655" x="175.369483" y="236.315968" style="fill: #8c564b; stroke: #8c564b"/>
     <use xlink:href="#mb0a8fe5655" x="187.945188" y="201.962767" style="fill: #8c564b; stroke: #8c564b"/>
     <use xlink:href="#mb0a8fe5655" x="200.520893" y="183.001585" style="fill: #8c564b; stroke: #8c564b"/>
     <use xlink:href="#mb0a8fe5655" x="213.096599" y="148.871457" style="fill: #8c564b; stroke: #8c564b"/>
     <use xlink:href="#mb0a8fe5655" x="225.672304" y="132.141002" style="fill: #8c564b; stroke: #8c564b"/>
     <use xlink:href="#mb0a8fe5655" x="238.248009" y="79.71891" style="fill: #8c564b; stroke: #8c564b"/>
     <use xlink:href="#mb0a8fe5655" x="275.975125" y="79.71891" style="fill: #8c564b; stroke: #8c564b"/>
     <use xlink:href="#mb0a8fe5655" x="288.550831" y="79.71891" style="fill: #8c564b; stroke: #8c564b"/>
     <use xlink:href="#mb0a8fe5655" x="301.126536" y="79.71891" style="fill: #8c564b; stroke: #8c564b"/>
     <use xlink:href="#mb0a8fe5655" x="313.702241" y="79.71891" style="fill: #8c564b; stroke: #8c564b"/>
     <use xlink:href="#mb0a8fe5655" x="326.277947" y="79.71891" style="fill: #8c564b; stroke: #8c564b"/>
     <use xlink:href="#mb0a8fe5655" x="351.429357" y="79.71891" style="fill: #8c564b; stroke: #8c564b"/>
     <use xlink:href="#mb0a8fe5655" x="364.005063" y="79.71891" style="fill: #8c564b; stroke: #8c564b"/>
     <use xlink:href="#mb0a8fe5655" x="376.580768" y="79.71891" style="fill: #8c564b; stroke: #8c564b"/>
     <use xlink:href="#mb0a8fe5655" x="389.156473" y="79.71891" style="fill: #8c564b; stroke: #8c564b"/>
     <use xlink:href="#mb0a8fe5655" x="401.732179" y="79.71891" style="fill: #8c564b; stroke: #8c564b"/>
     <use xlink:href="#mb0a8fe5655" x="414.307884" y="66.334546" style="fill: #8c564b; stroke: #8c564b"/>
     <use xlink:href="#mb0a8fe5655" x="426.883589" y="66.334546" style="fill: #8c564b; stroke: #8c564b"/>
     <use xlink:href="#mb0a8fe5655" x="439.459295" y="66.334546" style="fill: #8c564b; stroke: #8c564b"/>
     <use xlink:href="#mb0a8fe5655" x="452.035" y="66.334546" style="fill: #8c564b; stroke: #8c564b"/>
     <use xlink:href="#mb0a8fe5655" x="464.610705" y="66.334546" style="fill: #8c564b; stroke: #8c564b"/>
     <use xlink:href="#mb0a8fe5655" x="477.186411" y="44.027273" style="fill: #8c564b; stroke: #8c564b"/>
     <use xlink:href="#mb0a8fe5655" x="489.762116" y="44.027273" style="fill: #8c564b; stroke: #8c564b"/>
     <use xlink:href="#mb0a8fe5655" x="502.337821" y="44.027273" style="fill: #8c564b; stroke: #8c564b"/>
     <use xlink:href="#mb0a8fe5655" x="514.913527" y="44.027273" style="fill: #8c564b; stroke: #8c564b"/>
     <use xlink:href="#mb0a8fe5655" x="527.489232" y="44.027273" style="fill: #8c564b; stroke: #8c564b"/>
     <use xlink:href="#mb0a8fe5655" x="540.064937" y="44.027273" style="fill: #8c564b; stroke: #8c564b"/>
     <use xlink:href="#mb0a8fe5655" x="552.640643" y="44.027273" style="fill: #8c564b; stroke: #8c564b"/>
     <use xlink:href="#mb0a8fe5655" x="565.216348" y="44.027273" style="fill: #8c564b; stroke: #8c564b"/>
     <use xlink:href="#mb0a8fe5655" x="577.792053" y="44.027273" style="fill: #8c564b; stroke: #8c564b"/>
     <use xlink:href="#mb0a8fe5655" x="590.367759" y="44.027273" style="fill: #8c564b; stroke: #8c564b"/>
     <use xlink:href="#mb0a8fe5655" x="602.943464" y="44.027273" style="fill: #8c564b; stroke: #8c564b"/>
     <use xlink:href="#mb0a8fe5655" x="615.519169" y="44.027273" style="fill: #8c564b; stroke: #8c564b"/>
     <use xlink:href="#mb0a8fe5655" x="628.094875" y="44.027273" style="fill: #8c564b; stroke: #8c564b"/>
     <use xlink:href="#mb0a8fe5655" x="640.67058" y="44.027273" style="fill: #8c564b; stroke: #8c564b"/>
     <use xlink:href="#mb0a8fe5655" x="653.246285" y="44.027273" style="fill: #8c564b; stroke: #8c564b"/>
     <use xlink:href="#mb0a8fe5655" x="665.821991" y="44.027273" style="fill: #8c564b; stroke: #8c564b"/>
     <use xlink:href="#mb0a8fe5655" x="678.397696" y="44.027273" style="fill: #8c564b; stroke: #8c564b"/>
     <use xlink:href="#mb0a8fe5655" x="690.973401" y="44.027273" style="fill: #8c564b; stroke: #8c564b"/>
     <use xlink:href="#mb0a8fe5655" x="703.549107" y="44.027273" style="fill: #8c564b; stroke: #8c564b"/>
     <use xlink:href="#mb0a8fe5655" x="716.124812" y="44.027273" style="fill: #8c564b; stroke: #8c564b"/>
     <use xlink:href="#mb0a8fe5655" x="728.700517" y="44.027273" style="fill: #8c564b; stroke: #8c564b"/>
     <use xlink:href="#mb0a8fe5655" x="741.276223" y="44.027273" style="fill: #8c564b; stroke: #8c564b"/>
     <use xlink:href="#mb0a8fe5655" x="753.851928" y="44.027273" style="fill: #8c564b; stroke: #8c564b"/>
     <use xlink:href="#mb0a8fe5655" x="766.427633" y="44.027273" style="fill: #8c564b; stroke: #8c564b"/>
     <use xlink:href="#mb0a8fe5655" x="779.003339" y="44.027273" style="fill: #8c564b; stroke: #8c564b"/>
     <use xlink:href="#mb0a8fe5655" x="791.579044" y="44.027273" style="fill: #8c564b; stroke: #8c564b"/>
     <use xlink:href="#mb0a8fe5655" x="804.154749" y="44.027273" style="fill: #8c564b; stroke: #8c564b"/>
     <use xlink:href="#mb0a8fe5655" x="816.730455" y="44.027273" style="fill: #8c564b; stroke: #8c564b"/>
    </g>
   </g>
   <g id="patch_3">
    <path d="M 50.87 404.12 
L 50.87 26.88 
" style="fill: none; stroke: #000000; stroke-width: 0.8; stroke-linejoin: miter; stroke-linecap: square"/>
   </g>
   <g id="patch_4">
    <path d="M 853.2 404.12 
L 853.2 26.88 
" style="fill: none; stroke: #000000; stroke-width: 0.8; stroke-linejoin: miter; stroke-linecap: square"/>
   </g>
   <g id="patch_5">
    <path d="M 50.87 404.12 
L 853.2 404.12 
" style="fill: none; stroke: #000000; stroke-width: 0.8; stroke-linejoin: miter; stroke-linecap: square"/>
   </g>
   <g id="patch_6">
    <path d="M 50.87 26.88 
L 853.2 26.88 
" style="fill: none; stroke: #000000; stroke-width: 0.8; stroke-linejoin: miter; stroke-linecap: square"/>
   </g>
   <g id="text_16">
    <!-- Standings -->
    <g transform="translate(422.18125 20.88) scale(0.12 -0.12)">
     <defs>
      <path id="DejaVuSans-74" d="M 1172 4494 
L 1172 3500 
L 2356 3500 
L 2356 3053 
L 1172 3053 
L 1172 1153 
Q 1172 725 1289 603 
Q 1406 481 1766 481 
L 2356 481 
L 2356 0 
L 1766 0 
Q 1100 0 847 248 
Q 594 497 594 1153 
L 594 3053 
L 172 3053 
L 172 3500 
L 594 3500 
L 594 4494 
L 1172 4494 
z
" transform="scale(0.015625)"/>
      <path id="DejaVuSans-61" d="M 2194 1759 
Q 1497 1759 1228 1600 
Q 959 1441 959 1056 
Q 959 750 1161 570 
Q 1363 391 1709 391 
Q 2188 391 2477 730 
Q 2766 1069 2766 1631 
L 2766 1759 
L 2194 1759 
z
M 3341 1997 
L 3341 0 
L 2766 0 
L 2766 531 
Q 2569 213 2275 61 
Q 1981 -91 1556 -91 
Q 1019 -91 701 211 
Q 384 513 384 1019 
Q 384 1609 779 1909 
Q 1175 2209 1959 2209 
L 2766 2209 
L 2766 2266 
Q 2766 2663 2505 2880 
Q 2244 3097 1772 3097 
Q 1472 3097 1187 3025 
Q 903 2953 641 2809 
L 641 3341 
Q 956 3463 1253 3523 
Q 1550 3584 1831 3584 
Q 2591 3584 2966 3190 
Q 3341 2797 3341 1997 
z
" transform="scale(0.015625)"/>
      <path id="DejaVuSans-6e" d="M 3513 2113 
L 3513 0 
L 2938 0 
L 2938 2094 
Q 2938 2591 2744 2837 
Q 2550 3084 2163 3084 
Q 1697 3084 1428 2787 
Q 1159 2491 1159 1978 
L 1159 0 
L 581 0 
L 581 3500 
L 1159 3500 
L 1159 2956 
Q 1366 3272 1645 3428 
Q 1925 3584 2291 3584 
Q 2894 3584 3203 3211 
Q 3513 2838 3513 2113 
z
" transform="scale(0.015625)"/>
      <path id="DejaVuSans-64" d="M 2906 2969 
L 2906 4863 
L 3481 4863 
L 3481 0 
L 2906 0 
L 2906 525 
Q 2725 213 2448 61 
Q 2172 -91 1784 -91 
Q 1150 -91 751 415 
Q 353 922 353 1747 
Q 353 2572 751 3078 
Q 1150 3584 1784 3584 
Q 2172 3584 2448 3432 
Q 2725 3281 2906 2969 
z
M 947 1747 
Q 947 1113 1208 752 
Q 1469 391 1925 391 
Q 2381 391 2643 752 
Q 2906 1113 2906 1747 
Q 2906 2381 2643 2742 
Q 2381 3103 1925 3103 
Q 1469 3103 1208 2742 
Q 947 2381 947 1747 
z
" transform="scale(0.015625)"/>
      <path id="DejaVuSans-69" d="M 603 3500 
L 1178 3500 
L 1178 0 
L 603 0 
L 603 3500 
z
M 603 4863 
L 1178 4863 
L 1178 4134 
L 603 4134 
L 603 4863 
z
" transform="scale(0.015625)"/>
      <path id="DejaVuSans-67" d="M 2906 1791 
Q 2906 2416 2648 2759 
Q 2391 3103 1925 3103 
Q 1463 3103 1205 2759 
Q 947 2416 947 1791 
Q 947 1169 1205 825 
Q 1463 481 1925 481 
Q 2391 481 2648 825 
Q 2906 1169 2906 1791 
z
M 3481 434 
Q 3481 -459 3084 -895 
Q 2688 -1331 1869 -1331 
Q 1566 -1331 1297 -1286 
Q 1028 -1241 775 -1147 
L 775 -588 
Q 1028 -725 1275 -790 
Q 1522 -856 1778 -856 
Q 2344 -856 2625 -561 
Q 2906 -266 2906 331 
L 2906 616 
Q 2728 306 2450 153 
Q 2172 0 1784 0 
Q 1141 0 747 490 
Q 353 981 353 1791 
Q 353 2603 747 3093 
Q 1141 3584 1784 3584 
Q 2172 3584 2450 3431 
Q 2728 3278 2906 2969 
L 2906 3500 
L 3481 3500 
L 3481 434 
z
" transform="scale(0.015625)"/>
      <path id="DejaVuSans-73" d="M 2834 3397 
L 2834 2853 
Q 2591 2978 2328 3040 
Q 2066 3103 1784 3103 
Q 1356 3103 1142 2972 
Q 928 2841 928 2578 
Q 928 2378 1081 2264 
Q 1234 2150 1697 2047 
L 1894 2003 
Q 2506 1872 2764 1633 
Q 3022 1394 3022 966 
Q 3022 478 2636 193 
Q 2250 -91 1575 -91 
Q 1294 -91 989 -36 
Q 684 19 347 128 
L 347 722 
Q 666 556 975 473 
Q 1284 391 1588 391 
Q 1994 391 2212 530 
Q 2431 669 2431 922 
Q 2431 1156 2273 1281 
Q 2116 1406 1581 1522 
L 1381 1569 
Q 847 1681 609 1914 
Q 372 2147 372 2553 
Q 372 3047 722 3315 
Q 1072 3584 1716 3584 
Q 2034 3584 2315 3537 
Q 2597 3491 2834 3397 
z
" transform="scale(0.015625)"/>
     </defs>
     <use xlink:href="#DejaVuSans-53"/>
     <use xlink:href="#DejaVuSans-74" x="63.476562"/>
     <use xlink:href="#DejaVuSans-61" x="102.685547"/>
     <use xlink:href="#DejaVuSans-6e" x="163.964844"/>
     <use xlink:href="#DejaVuSans-64" x="227.34375"/>
     <use xlink:href="#DejaVuSans-69" x="290.820312"/>
     <use xlink:href="#DejaVuSans-6e" x="318.603516"/>
     <use xlink:href="#DejaVuSans-67" x="381.982422"/>
     <use xlink:href="#DejaVuSans-73" x="445.458984"/>
    </g>
   </g>
   <g id="legend_1">
    <g id="patch_7">
     <path d="M 639.351562 399.12 
L 846.2 399.12 
Q 848.2 399.12 848.2 397.12 
L 848.2 310.05125 
Q 848.2 308.05125 846.2 308.05125 
L 639.351562 308.05125 
Q 637.351562 308.05125 637.351562 310.05125 
L 637.351562 397.12 
Q 637.351562 399.12 639.351562 399.12 
z
" style="fill: #ffffff; opacity: 0.8; stroke: #cccccc; stroke-linejoin: miter"/>
    </g>
    <g id="line2d_35">
     <path d="M 641.351562 316.149688 
L 651.351562 316.149688 
L 661.351562 316.149688 
" style="fill: none; stroke: #1f77b4; stroke-width: 1.5; stroke-linecap: square"/>
     <g>
      <use xlink:href="#mdadaea78e3" x="651.351562" y="316.149688" style="fill: #1f77b4; stroke: #1f77b4"/>
     </g>
    </g>
    <g id="text_17">
     <!-- European Sperm Bank -->
     <g transform="translate(669.351562 319.649688) scale(0.1 -0.1)">
      <defs>
       <path id="DejaVuSans-45" d="M 628 4666 
L 3578 4666 
L 3578 4134 
L 1259 4134 
L 1259 2753 
L 3481 2753 
L 3481 2222 
L 1259 2222 
L 1259 531 
L 3634 531 
L 3634 0 
L 628 0 
L 628 4666 
z
" transform="scale(0.015625)"/>
       <path id="DejaVuSans-75" d="M 544 1381 
L 544 3500 
L 1119 3500 
L 1119 1403 
Q 1119 906 1312 657 
Q 1506 409 1894 409 
Q 2359 409 2629 706 
Q 2900 1003 2900 1516 
L 2900 3500 
L 3475 3500 
L 3475 0 
L 2900 0 
L 2900 538 
Q 2691 219 2414 64 
Q 2138 -91 1772 -91 
Q 1169 -91 856 284 
Q 544 659 544 1381 
z
M 1991 3584 
L 1991 3584 
z
" transform="scale(0.015625)"/>
       <path id="DejaVuSans-70" d="M 1159 525 
L 1159 -1331 
L 581 -1331 
L 581 3500 
L 1159 3500 
L 1159 2969 
Q 1341 3281 1617 3432 
Q 1894 3584 2278 3584 
Q 2916 3584 3314 3078 
Q 3713 2572 3713 1747 
Q 3713 922 3314 415 
Q 2916 -91 2278 -91 
Q 1894 -91 1617 61 
Q 1341 213 1159 525 
z
M 3116 1747 
Q 3116 2381 2855 2742 
Q 2594 3103 2138 3103 
Q 1681 3103 1420 2742 
Q 1159 2381 1159 1747 
Q 1159 1113 1420 752 
Q 1681 391 2138 391 
Q 2594 391 2855 752 
Q 3116 1113 3116 1747 
z
" transform="scale(0.015625)"/>
       <path id="DejaVuSans-20" transform="scale(0.015625)"/>
       <path id="DejaVuSans-6d" d="M 3328 2828 
Q 3544 3216 3844 3400 
Q 4144 3584 4550 3584 
Q 5097 3584 5394 3201 
Q 5691 2819 5691 2113 
L 5691 0 
L 5113 0 
L 5113 2094 
Q 5113 2597 4934 2840 
Q 4756 3084 4391 3084 
Q 3944 3084 3684 2787 
Q 3425 2491 3425 1978 
L 3425 0 
L 2847 0 
L 2847 2094 
Q 2847 2600 2669 2842 
Q 2491 3084 2119 3084 
Q 1678 3084 1418 2786 
Q 1159 2488 1159 1978 
L 1159 0 
L 581 0 
L 581 3500 
L 1159 3500 
L 1159 2956 
Q 1356 3278 1631 3431 
Q 1906 3584 2284 3584 
Q 2666 3584 2933 3390 
Q 3200 3197 3328 2828 
z
" transform="scale(0.015625)"/>
       <path id="DejaVuSans-42" d="M 1259 2228 
L 1259 519 
L 2272 519 
Q 2781 519 3026 730 
Q 3272 941 3272 1375 
Q 3272 1813 3026 2020 
Q 2781 2228 2272 2228 
L 1259 2228 
z
M 1259 4147 
L 1259 2741 
L 2194 2741 
Q 2656 2741 2882 2914 
Q 3109 3088 3109 3444 
Q 3109 3797 2882 3972 
Q 2656 4147 2194 4147 
L 1259 4147 
z
M 628 4666 
L 2241 4666 
Q 2963 4666 3353 4366 
Q 3744 4066 3744 3513 
Q 3744 3084 3544 2831 
Q 3344 2578 2956 2516 
Q 3422 2416 3680 2098 
Q 3938 1781 3938 1306 
Q 3938 681 3513 340 
Q 3088 0 2303 0 
L 628 0 
L 628 4666 
z
" transform="scale(0.015625)"/>
       <path id="DejaVuSans-6b" d="M 581 4863 
L 1159 4863 
L 1159 1991 
L 2875 3500 
L 3609 3500 
L 1753 1863 
L 3688 0 
L 2938 0 
L 1159 1709 
L 1159 0 
L 581 0 
L 581 4863 
z
" transform="scale(0.015625)"/>
      </defs>
      <use xlink:href="#DejaVuSans-45"/>
      <use xlink:href="#DejaVuSans-75" x="63.183594"/>
      <use xlink:href="#DejaVuSans-72" x="126.5625"/>
      <use xlink:href="#DejaVuSans-6f" x="165.425781"/>
      <use xlink:href="#DejaVuSans-70" x="226.607422"/>
      <use xlink:href="#DejaVuSans-65" x="290.083984"/>
      <use xlink:href="#DejaVuSans-61" x="351.607422"/>
      <use xlink:href="#DejaVuSans-6e" x="412.886719"/>
      <use xlink:href="#DejaVuSans-20" x="476.265625"/>
      <use xlink:href="#DejaVuSans-53" x="508.052734"/>
      <use xlink:href="#DejaVuSans-70" x="571.529297"/>
      <use xlink:href="#DejaVuSans-65" x="635.005859"/>
      <use xlink:href="#DejaVuSans-72" x="696.529297"/>
      <use xlink:href="#DejaVuSans-6d" x="735.892578"/>
      <use xlink:href="#DejaVuSans-20" x="833.304688"/>
      <use xlink:href="#DejaVuSans-42" x="865.091797"/>
      <use xlink:href="#DejaVuSans-61" x="933.695312"/>
      <use xlink:href="#DejaVuSans-6e" x="994.974609"/>
      <use xlink:href="#DejaVuSans-6b" x="1058.353516"/>
     </g>
    </g>
    <g id="line2d_36">
     <path d="M 641.351562 330.827812 
L 651.351562 330.827812 
L 661.351562 330.827812 
" style="fill: none; stroke: #ff7f0e; stroke-width: 1.5; stroke-linecap: square"/>
     <g>
      <use xlink:href="#m4ef0d36824" x="651.351562" y="330.827812" style="fill: #ff7f0e; stroke: #ff7f0e"/>
     </g>
    </g>
    <g id="text_18">
     <!-- Frederiksborg Gymnasium -->
     <g transform="translate(669.351562 334.327812) scale(0.1 -0.1)">
      <defs>
       <path id="DejaVuSans-46" d="M 628 4666 
L 3309 4666 
L 3309 4134 
L 1259 4134 
L 1259 2759 
L 3109 2759 
L 3109 2228 
L 1259 2228 
L 1259 0 
L 628 0 
L 628 4666 
z
" transform="scale(0.015625)"/>
       <path id="DejaVuSans-62" d="M 3116 1747 
Q 3116 2381 2855 2742 
Q 2594 3103 2138 3103 
Q 1681 3103 1420 2742 
Q 1159 2381 1159 1747 
Q 1159 1113 1420 752 
Q 1681 391 2138 391 
Q 2594 391 2855 752 
Q 3116 1113 3116 1747 
z
M 1159 2969 
Q 1341 3281 1617 3432 
Q 1894 3584 2278 3584 
Q 2916 3584 3314 3078 
Q 3713 2572 3713 1747 
Q 3713 922 3314 415 
Q 2916 -91 2278 -91 
Q 1894 -91 1617 61 
Q 1341 213 1159 525 
L 1159 0 
L 581 0 
L 581 4863 
L 1159 4863 
L 1159 2969 
z
" transform="scale(0.015625)"/>
       <path id="DejaVuSans-47" d="M 3809 666 
L 3809 1919 
L 2778 1919 
L 2778 2438 
L 4434 2438 
L 4434 434 
Q 4069 175 3628 42 
Q 3188 -91 2688 -91 
Q 1594 -91 976 548 
Q 359 1188 359 2328 
Q 359 3472 976 4111 
Q 1594 4750 2688 4750 
Q 3144 4750 3555 4637 
Q 3966 4525 4313 4306 
L 4313 3634 
Q 3963 3931 3569 4081 
Q 3175 4231 2741 4231 
Q 1884 4231 1454 3753 
Q 1025 3275 1025 2328 
Q 1025 1384 1454 906 
Q 1884 428 2741 428 
Q 3075 428 3337 486 
Q 3600 544 3809 666 
z
" transform="scale(0.015625)"/>
       <path id="DejaVuSans-79" d="M 2059 -325 
Q 1816 -950 1584 -1140 
Q 1353 -1331 966 -1331 
L 506 -1331 
L 506 -850 
L 844 -850 
Q 1081 -850 1212 -737 
Q 1344 -625 1503 -206 
L 1606 56 
L 191 3500 
L 800 3500 
L 1894 763 
L 2988 3500 
L 3597 3500 
L 2059 -325 
z
" transform="scale(0.015625)"/>
      </defs>
      <use xlink:href="#DejaVuSans-46"/>
      <use xlink:href="#DejaVuSans-72" x="50.269531"/>
      <use xlink:href="#DejaVuSans-65" x="89.132812"/>
      <use xlink:href="#DejaVuSans-64" x="150.65625"/>
      <use xlink:href="#DejaVuSans-65" x="214.132812"/>
      <use xlink:href="#DejaVuSans-72" x="275.65625"/>
      <use xlink:href="#DejaVuSans-69" x="316.769531"/>
      <use xlink:href="#DejaVuSans-6b" x="344.552734"/>
      <use xlink:href="#DejaVuSans-73" x="402.462891"/>
      <use xlink:href="#DejaVuSans-62" x="454.5625"/>
      <use xlink:href="#DejaVuSans-6f" x="518.039062"/>
      <use xlink:href="#DejaVuSans-72" x="579.220703"/>
      <use xlink:href="#DejaVuSans-67" x="618.583984"/>
      <use xlink:href="#DejaVuSans-20" x="682.060547"/>
      <use xlink:href="#DejaVuSans-47" x="713.847656"/>
      <use xlink:href="#DejaVuSans-79" x="791.337891"/>
      <use xlink:href="#DejaVuSans-6d" x="850.517578"/>
      <use xlink:href="#DejaVuSans-6e" x="947.929688"/>
      <use xlink:href="#DejaVuSans-61" x="1011.308594"/>
      <use xlink:href="#DejaVuSans-73" x="1072.587891"/>
      <use xlink:href="#DejaVuSans-69" x="1124.6875"/>
      <use xlink:href="#DejaVuSans-75" x="1152.470703"/>
      <use xlink:href="#DejaVuSans-6d" x="1215.849609"/>
     </g>
    </g>
    <g id="line2d_37">
     <path d="M 641.351562 345.505938 
L 651.351562 345.505938 
L 661.351562 345.505938 
" style="fill: none; stroke: #2ca02c; stroke-width: 1.5; stroke-linecap: square"/>
     <g>
      <use xlink:href="#m02cf346d8e" x="651.351562" y="345.505938" style="fill: #2ca02c; stroke: #2ca02c"/>
     </g>
    </g>
    <g id="text_19">
     <!-- Friends and Family -->
     <g transform="translate(669.351562 349.005938) scale(0.1 -0.1)">
      <defs>
       <path id="DejaVuSans-6c" d="M 603 4863 
L 1178 4863 
L 1178 0 
L 603 0 
L 603 4863 
z
" transform="scale(0.015625)"/>
      </defs>
      <use xlink:href="#DejaVuSans-46"/>
      <use xlink:href="#DejaVuSans-72" x="50.269531"/>
      <use xlink:href="#DejaVuSans-69" x="91.382812"/>
      <use xlink:href="#DejaVuSans-65" x="119.166016"/>
      <use xlink:href="#DejaVuSans-6e" x="180.689453"/>
      <use xlink:href="#DejaVuSans-64" x="244.068359"/>
      <use xlink:href="#DejaVuSans-73" x="307.544922"/>
      <use xlink:href="#DejaVuSans-20" x="359.644531"/>
      <use xlink:href="#DejaVuSans-61" x="391.431641"/>
      <use xlink:href="#DejaVuSans-6e" x="452.710938"/>
      <use xlink:href="#DejaVuSans-64" x="516.089844"/>
      <use xlink:href="#DejaVuSans-20" x="579.566406"/>
      <use xlink:href="#DejaVuSans-46" x="611.353516"/>
      <use xlink:href="#DejaVuSans-61" x="659.748047"/>
      <use xlink:href="#DejaVuSans-6d" x="721.027344"/>
      <use xlink:href="#DejaVuSans-69" x="818.439453"/>
      <use xlink:href="#DejaVuSans-6c" x="846.222656"/>
      <use xlink:href="#DejaVuSans-79" x="874.005859"/>
     </g>
    </g>
    <g id="line2d_38">
     <path d="M 641.351562 360.184062 
L 651.351562 360.184062 
L 661.351562 360.184062 
" style="fill: none; stroke: #d62728; stroke-width: 1.5; stroke-linecap: square"/>
     <g>
      <use xlink:href="#m4ad13be65f" x="651.351562" y="360.184062" style="fill: #d62728; stroke: #d62728"/>
     </g>
    </g>
    <g id="text_20">
     <!-- GeH Fys -->
     <g transform="translate(669.351562 363.684062) scale(0.1 -0.1)">
      <defs>
       <path id="DejaVuSans-48" d="M 628 4666 
L 1259 4666 
L 1259 2753 
L 3553 2753 
L 3553 4666 
L 4184 4666 
L 4184 0 
L 3553 0 
L 3553 2222 
L 1259 2222 
L 1259 0 
L 628 0 
L 628 4666 
z
" transform="scale(0.015625)"/>
      </defs>
      <use xlink:href="#DejaVuSans-47"/>
      <use xlink:href="#DejaVuSans-65" x="77.490234"/>
      <use xlink:href="#DejaVuSans-48" x="139.013672"/>
      <use xlink:href="#DejaVuSans-20" x="214.208984"/>
      <use xlink:href="#DejaVuSans-46" x="245.996094"/>
      <use xlink:href="#DejaVuSans-79" x="294.390625"/>
      <use xlink:href="#DejaVuSans-73" x="353.570312"/>
     </g>
    </g>
    <g id="line2d_39">
     <path d="M 641.351562 374.862188 
L 651.351562 374.862188 
L 661.351562 374.862188 
" style="fill: none; stroke: #9467bd; stroke-width: 1.5; stroke-linecap: square"/>
     <g>
      <use xlink:href="#m32d17bd636" x="651.351562" y="374.862188" style="fill: #9467bd; stroke: #9467bd"/>
     </g>
    </g>
    <g id="text_21">
     <!-- Next11 -->
     <g transform="translate(669.351562 378.362188) scale(0.1 -0.1)">
      <defs>
       <path id="DejaVuSans-4e" d="M 628 4666 
L 1478 4666 
L 3547 763 
L 3547 4666 
L 4159 4666 
L 4159 0 
L 3309 0 
L 1241 3903 
L 1241 0 
L 628 0 
L 628 4666 
z
" transform="scale(0.015625)"/>
       <path id="DejaVuSans-78" d="M 3513 3500 
L 2247 1797 
L 3578 0 
L 2900 0 
L 1881 1375 
L 863 0 
L 184 0 
L 1544 1831 
L 300 3500 
L 978 3500 
L 1906 2253 
L 2834 3500 
L 3513 3500 
z
" transform="scale(0.015625)"/>
      </defs>
      <use xlink:href="#DejaVuSans-4e"/>
      <use xlink:href="#DejaVuSans-65" x="74.804688"/>
      <use xlink:href="#DejaVuSans-78" x="134.578125"/>
      <use xlink:href="#DejaVuSans-74" x="193.757812"/>
      <use xlink:href="#DejaVuSans-31" x="232.966797"/>
      <use xlink:href="#DejaVuSans-31" x="296.589844"/>
     </g>
    </g>
    <g id="line2d_40">
     <path d="M 641.351562 389.540313 
L 651.351562 389.540313 
L 661.351562 389.540313 
" style="fill: none; stroke: #8c564b; stroke-width: 1.5; stroke-linecap: square"/>
     <g>
      <use xlink:href="#mb0a8fe5655" x="651.351562" y="389.540313" style="fill: #8c564b; stroke: #8c564b"/>
     </g>
    </g>
    <g id="text_22">
     <!-- Quantum and Laser Photonics DTU -->
     <g transform="translate(669.351562 393.040313) scale(0.1 -0.1)">
      <defs>
       <path id="DejaVuSans-51" d="M 2522 4238 
Q 1834 4238 1429 3725 
Q 1025 3213 1025 2328 
Q 1025 1447 1429 934 
Q 1834 422 2522 422 
Q 3209 422 3611 934 
Q 4013 1447 4013 2328 
Q 4013 3213 3611 3725 
Q 3209 4238 2522 4238 
z
M 3406 84 
L 4238 -825 
L 3475 -825 
L 2784 -78 
Q 2681 -84 2626 -87 
Q 2572 -91 2522 -91 
Q 1538 -91 948 567 
Q 359 1225 359 2328 
Q 359 3434 948 4092 
Q 1538 4750 2522 4750 
Q 3503 4750 4090 4092 
Q 4678 3434 4678 2328 
Q 4678 1516 4351 937 
Q 4025 359 3406 84 
z
" transform="scale(0.015625)"/>
       <path id="DejaVuSans-4c" d="M 628 4666 
L 1259 4666 
L 1259 531 
L 3531 531 
L 3531 0 
L 628 0 
L 628 4666 
z
" transform="scale(0.015625)"/>
       <path id="DejaVuSans-50" d="M 1259 4147 
L 1259 2394 
L 2053 2394 
Q 2494 2394 2734 2622 
Q 2975 2850 2975 3272 
Q 2975 3691 2734 3919 
Q 2494 4147 2053 4147 
L 1259 4147 
z
M 628 4666 
L 2053 4666 
Q 2838 4666 3239 4311 
Q 3641 3956 3641 3272 
Q 3641 2581 3239 2228 
Q 2838 1875 2053 1875 
L 1259 1875 
L 1259 0 
L 628 0 
L 628 4666 
z
" transform="scale(0.015625)"/>
       <path id="DejaVuSans-68" d="M 3513 2113 
L 3513 0 
L 2938 0 
L 2938 2094 
Q 2938 2591 2744 2837 
Q 2550 3084 2163 3084 
Q 1697 3084 1428 2787 
Q 1159 2491 1159 1978 
L 1159 0 
L 581 0 
L 581 4863 
L 1159 4863 
L 1159 2956 
Q 1366 3272 1645 3428 
Q 1925 3584 2291 3584 
Q 2894 3584 3203 3211 
Q 3513 2838 3513 2113 
z
" transform="scale(0.015625)"/>
       <path id="DejaVuSans-44" d="M 1259 4147 
L 1259 519 
L 2022 519 
Q 2988 519 3436 956 
Q 3884 1394 3884 2338 
Q 3884 3275 3436 3711 
Q 2988 4147 2022 4147 
L 1259 4147 
z
M 628 4666 
L 1925 4666 
Q 3281 4666 3915 4102 
Q 4550 3538 4550 2338 
Q 4550 1131 3912 565 
Q 3275 0 1925 0 
L 628 0 
L 628 4666 
z
" transform="scale(0.015625)"/>
       <path id="DejaVuSans-54" d="M -19 4666 
L 3928 4666 
L 3928 4134 
L 2272 4134 
L 2272 0 
L 1638 0 
L 1638 4134 
L -19 4134 
L -19 4666 
z
" transform="scale(0.015625)"/>
       <path id="DejaVuSans-55" d="M 556 4666 
L 1191 4666 
L 1191 1831 
Q 1191 1081 1462 751 
Q 1734 422 2344 422 
Q 2950 422 3222 751 
Q 3494 1081 3494 1831 
L 3494 4666 
L 4128 4666 
L 4128 1753 
Q 4128 841 3676 375 
Q 3225 -91 2344 -91 
Q 1459 -91 1007 375 
Q 556 841 556 1753 
L 556 4666 
z
" transform="scale(0.015625)"/>
      </defs>
      <use xlink:href="#DejaVuSans-51"/>
      <use xlink:href="#DejaVuSans-75" x="78.710938"/>
      <use xlink:href="#DejaVuSans-61" x="142.089844"/>
      <use xlink:href="#DejaVuSans-6e" x="203.369141"/>
      <use xlink:href="#DejaVuSans-74" x="266.748047"/>
      <use xlink:href="#DejaVuSans-75" x="305.957031"/>
      <use xlink:href="#DejaVuSans-6d" x="369.335938"/>
      <use xlink:href="#DejaVuSans-20" x="466.748047"/>
      <use xlink:href="#DejaVuSans-61" x="498.535156"/>
      <use xlink:href="#DejaVuSans-6e" x="559.814453"/>
      <use xlink:href="#DejaVuSans-64" x="623.193359"/>
      <use xlink:href="#DejaVuSans-20" x="686.669922"/>
      <use xlink:href="#DejaVuSans-4c" x="718.457031"/>
      <use xlink:href="#DejaVuSans-61" x="774.169922"/>
      <use xlink:href="#DejaVuSans-73" x="835.449219"/>
      <use xlink:href="#DejaVuSans-65" x="887.548828"/>
      <use xlink:href="#DejaVuSans-72" x="949.072266"/>
      <use xlink:href="#DejaVuSans-20" x="990.185547"/>
      <use xlink:href="#DejaVuSans-50" x="1021.972656"/>
      <use xlink:href="#DejaVuSans-68" x="1082.275391"/>
      <use xlink:href="#DejaVuSans-6f" x="1145.654297"/>
      <use xlink:href="#DejaVuSans-74" x="1206.835938"/>
      <use xlink:href="#DejaVuSans-6f" x="1246.044922"/>
      <use xlink:href="#DejaVuSans-6e" x="1307.226562"/>
      <use xlink:href="#DejaVuSans-69" x="1370.605469"/>
      <use xlink:href="#DejaVuSans-63" x="1398.388672"/>
      <use xlink:href="#DejaVuSans-73" x="1453.369141"/>
      <use xlink:href="#DejaVuSans-20" x="1505.46875"/>
      <use xlink:href="#DejaVuSans-44" x="1537.255859"/>
      <use xlink:href="#DejaVuSans-54" x="1614.257812"/>
      <use xlink:href="#DejaVuSans-55" x="1675.341797"/>
     </g>
    </g>
   </g>
  </g>
 </g>
 <defs>
  <clipPath id="pd88c86e6ff">
   <rect x="50.87" y="26.88" width="802.33" height="377.24"/>
  </clipPath>
 </defs>
</svg>
