<?xml version="1.0" encoding="utf-8" standalone="no"?>
<!DOCTYPE svg PUBLIC "-//W3C//DTD SVG 1.1//EN"
  "http://www.w3.org/Graphics/SVG/1.1/DTD/svg11.dtd">
<svg xmlns:xlink="http://www.w3.org/1999/xlink" width="864pt" height="432pt" viewBox="0 0 864 432" xmlns="http://www.w3.org/2000/svg" version="1.1">
 <metadata>
  <rdf:RDF xmlns:dc="http://purl.org/dc/elements/1.1/" xmlns:cc="http://creativecommons.org/ns#" xmlns:rdf="http://www.w3.org/1999/02/22-rdf-syntax-ns#">
   <cc:Work>
    <dc:type rdf:resource="http://purl.org/dc/dcmitype/StillImage"/>
    <dc:date>2024-08-25T14:29:18.431026</dc:date>
    <dc:format>image/svg+xml</dc:format>
    <dc:creator>
     <cc:Agent>
      <dc:title>Matplotlib v3.9.2, https://matplotlib.org/</dc:title>
     </cc:Agent>
    </dc:creator>
   </cc:Work>
  </rdf:RDF>
 </metadata>
 <defs>
  <style type="text/css">*{stroke-linejoin: round; stroke-linecap: butt}</style>
 </defs>
 <g id="figure_1">
  <g id="patch_1">
   <path d="M 0 432 
L 864 432 
L 864 0 
L 0 0 
z
" style="fill: #ffffff"/>
  </g>
  <g id="axes_1">
   <g id="patch_2">
    <path d="M 50.87 404.12 
L 853.2 404.12 
L 853.2 26.88 
L 50.87 26.88 
z
" style="fill: #ffffff"/>
   </g>
   <g id="matplotlib.axis_1">
    <g id="xtick_1">
     <g id="line2d_1">
      <path d="M 97.469975 404.12 
L 97.469975 26.88 
" clip-path="url(#pd7f99c036c)" style="fill: none; stroke-dasharray: 2.96,1.28; stroke-dashoffset: 0; stroke: #b0b0b0; stroke-width: 0.8"/>
     </g>
     <g id="line2d_2">
      <defs>
       <path id="m01c76c532b" d="M 0 0 
L 0 3.5 
" style="stroke: #000000; stroke-width: 0.8"/>
      </defs>
      <g>
       <use xlink:href="#m01c76c532b" x="97.469975" y="404.12" style="stroke: #000000; stroke-width: 0.8"/>
      </g>
     </g>
     <g id="text_1">
      <!-- 2024-06-15 -->
      <g transform="translate(68.412162 418.718437) scale(0.1 -0.1)">
       <defs>
        <path id="DejaVuSans-32" d="M 1228 531 
L 3431 531 
L 3431 0 
L 469 0 
L 469 531 
Q 828 903 1448 1529 
Q 2069 2156 2228 2338 
Q 2531 2678 2651 2914 
Q 2772 3150 2772 3378 
Q 2772 3750 2511 3984 
Q 2250 4219 1831 4219 
Q 1534 4219 1204 4116 
Q 875 4013 500 3803 
L 500 4441 
Q 881 4594 1212 4672 
Q 1544 4750 1819 4750 
Q 2544 4750 2975 4387 
Q 3406 4025 3406 3419 
Q 3406 3131 3298 2873 
Q 3191 2616 2906 2266 
Q 2828 2175 2409 1742 
Q 1991 1309 1228 531 
z
" transform="scale(0.015625)"/>
        <path id="DejaVuSans-30" d="M 2034 4250 
Q 1547 4250 1301 3770 
Q 1056 3291 1056 2328 
Q 1056 1369 1301 889 
Q 1547 409 2034 409 
Q 2525 409 2770 889 
Q 3016 1369 3016 2328 
Q 3016 3291 2770 3770 
Q 2525 4250 2034 4250 
z
M 2034 4750 
Q 2819 4750 3233 4129 
Q 3647 3509 3647 2328 
Q 3647 1150 3233 529 
Q 2819 -91 2034 -91 
Q 1250 -91 836 529 
Q 422 1150 422 2328 
Q 422 3509 836 4129 
Q 1250 4750 2034 4750 
z
" transform="scale(0.015625)"/>
        <path id="DejaVuSans-34" d="M 2419 4116 
L 825 1625 
L 2419 1625 
L 2419 4116 
z
M 2253 4666 
L 3047 4666 
L 3047 1625 
L 3713 1625 
L 3713 1100 
L 3047 1100 
L 3047 0 
L 2419 0 
L 2419 1100 
L 313 1100 
L 313 1709 
L 2253 4666 
z
" transform="scale(0.015625)"/>
        <path id="DejaVuSans-2d" d="M 313 2009 
L 1997 2009 
L 1997 1497 
L 313 1497 
L 313 2009 
z
" transform="scale(0.015625)"/>
        <path id="DejaVuSans-36" d="M 2113 2584 
Q 1688 2584 1439 2293 
Q 1191 2003 1191 1497 
Q 1191 994 1439 701 
Q 1688 409 2113 409 
Q 2538 409 2786 701 
Q 3034 994 3034 1497 
Q 3034 2003 2786 2293 
Q 2538 2584 2113 2584 
z
M 3366 4563 
L 3366 3988 
Q 3128 4100 2886 4159 
Q 2644 4219 2406 4219 
Q 1781 4219 1451 3797 
Q 1122 3375 1075 2522 
Q 1259 2794 1537 2939 
Q 1816 3084 2150 3084 
Q 2853 3084 3261 2657 
Q 3669 2231 3669 1497 
Q 3669 778 3244 343 
Q 2819 -91 2113 -91 
Q 1303 -91 875 529 
Q 447 1150 447 2328 
Q 447 3434 972 4092 
Q 1497 4750 2381 4750 
Q 2619 4750 2861 4703 
Q 3103 4656 3366 4563 
z
" transform="scale(0.015625)"/>
        <path id="DejaVuSans-31" d="M 794 531 
L 1825 531 
L 1825 4091 
L 703 3866 
L 703 4441 
L 1819 4666 
L 2450 4666 
L 2450 531 
L 3481 531 
L 3481 0 
L 794 0 
L 794 531 
z
" transform="scale(0.015625)"/>
        <path id="DejaVuSans-35" d="M 691 4666 
L 3169 4666 
L 3169 4134 
L 1269 4134 
L 1269 2991 
Q 1406 3038 1543 3061 
Q 1681 3084 1819 3084 
Q 2600 3084 3056 2656 
Q 3513 2228 3513 1497 
Q 3513 744 3044 326 
Q 2575 -91 1722 -91 
Q 1428 -91 1123 -41 
Q 819 9 494 109 
L 494 744 
Q 775 591 1075 516 
Q 1375 441 1709 441 
Q 2250 441 2565 725 
Q 2881 1009 2881 1497 
Q 2881 1984 2565 2268 
Q 2250 2553 1709 2553 
Q 1456 2553 1204 2497 
Q 953 2441 691 2322 
L 691 4666 
z
" transform="scale(0.015625)"/>
       </defs>
       <use xlink:href="#DejaVuSans-32"/>
       <use xlink:href="#DejaVuSans-30" x="63.623047"/>
       <use xlink:href="#DejaVuSans-32" x="127.246094"/>
       <use xlink:href="#DejaVuSans-34" x="190.869141"/>
       <use xlink:href="#DejaVuSans-2d" x="254.492188"/>
       <use xlink:href="#DejaVuSans-30" x="290.576172"/>
       <use xlink:href="#DejaVuSans-36" x="354.199219"/>
       <use xlink:href="#DejaVuSans-2d" x="417.822266"/>
       <use xlink:href="#DejaVuSans-31" x="453.90625"/>
       <use xlink:href="#DejaVuSans-35" x="517.529297"/>
      </g>
     </g>
    </g>
    <g id="xtick_2">
     <g id="line2d_3">
      <path d="M 259.556843 404.12 
L 259.556843 26.88 
" clip-path="url(#pd7f99c036c)" style="fill: none; stroke-dasharray: 2.96,1.28; stroke-dashoffset: 0; stroke: #b0b0b0; stroke-width: 0.8"/>
     </g>
     <g id="line2d_4">
      <g>
       <use xlink:href="#m01c76c532b" x="259.556843" y="404.12" style="stroke: #000000; stroke-width: 0.8"/>
      </g>
     </g>
     <g id="text_2">
      <!-- 2024-07-01 -->
      <g transform="translate(230.499031 418.718437) scale(0.1 -0.1)">
       <defs>
        <path id="DejaVuSans-37" d="M 525 4666 
L 3525 4666 
L 3525 4397 
L 1831 0 
L 1172 0 
L 2766 4134 
L 525 4134 
L 525 4666 
z
" transform="scale(0.015625)"/>
       </defs>
       <use xlink:href="#DejaVuSans-32"/>
       <use xlink:href="#DejaVuSans-30" x="63.623047"/>
       <use xlink:href="#DejaVuSans-32" x="127.246094"/>
       <use xlink:href="#DejaVuSans-34" x="190.869141"/>
       <use xlink:href="#DejaVuSans-2d" x="254.492188"/>
       <use xlink:href="#DejaVuSans-30" x="290.576172"/>
       <use xlink:href="#DejaVuSans-37" x="354.199219"/>
       <use xlink:href="#DejaVuSans-2d" x="417.822266"/>
       <use xlink:href="#DejaVuSans-30" x="453.90625"/>
       <use xlink:href="#DejaVuSans-31" x="517.529297"/>
      </g>
     </g>
    </g>
    <g id="xtick_3">
     <g id="line2d_5">
      <path d="M 401.382854 404.12 
L 401.382854 26.88 
" clip-path="url(#pd7f99c036c)" style="fill: none; stroke-dasharray: 2.96,1.28; stroke-dashoffset: 0; stroke: #b0b0b0; stroke-width: 0.8"/>
     </g>
     <g id="line2d_6">
      <g>
       <use xlink:href="#m01c76c532b" x="401.382854" y="404.12" style="stroke: #000000; stroke-width: 0.8"/>
      </g>
     </g>
     <g id="text_3">
      <!-- 2024-07-15 -->
      <g transform="translate(372.325041 418.718437) scale(0.1 -0.1)">
       <use xlink:href="#DejaVuSans-32"/>
       <use xlink:href="#DejaVuSans-30" x="63.623047"/>
       <use xlink:href="#DejaVuSans-32" x="127.246094"/>
       <use xlink:href="#DejaVuSans-34" x="190.869141"/>
       <use xlink:href="#DejaVuSans-2d" x="254.492188"/>
       <use xlink:href="#DejaVuSans-30" x="290.576172"/>
       <use xlink:href="#DejaVuSans-37" x="354.199219"/>
       <use xlink:href="#DejaVuSans-2d" x="417.822266"/>
       <use xlink:href="#DejaVuSans-31" x="453.90625"/>
       <use xlink:href="#DejaVuSans-35" x="517.529297"/>
      </g>
     </g>
    </g>
    <g id="xtick_4">
     <g id="line2d_7">
      <path d="M 573.600152 404.12 
L 573.600152 26.88 
" clip-path="url(#pd7f99c036c)" style="fill: none; stroke-dasharray: 2.96,1.28; stroke-dashoffset: 0; stroke: #b0b0b0; stroke-width: 0.8"/>
     </g>
     <g id="line2d_8">
      <g>
       <use xlink:href="#m01c76c532b" x="573.600152" y="404.12" style="stroke: #000000; stroke-width: 0.8"/>
      </g>
     </g>
     <g id="text_4">
      <!-- 2024-08-01 -->
      <g transform="translate(544.542339 418.718437) scale(0.1 -0.1)">
       <defs>
        <path id="DejaVuSans-38" d="M 2034 2216 
Q 1584 2216 1326 1975 
Q 1069 1734 1069 1313 
Q 1069 891 1326 650 
Q 1584 409 2034 409 
Q 2484 409 2743 651 
Q 3003 894 3003 1313 
Q 3003 1734 2745 1975 
Q 2488 2216 2034 2216 
z
M 1403 2484 
Q 997 2584 770 2862 
Q 544 3141 544 3541 
Q 544 4100 942 4425 
Q 1341 4750 2034 4750 
Q 2731 4750 3128 4425 
Q 3525 4100 3525 3541 
Q 3525 3141 3298 2862 
Q 3072 2584 2669 2484 
Q 3125 2378 3379 2068 
Q 3634 1759 3634 1313 
Q 3634 634 3220 271 
Q 2806 -91 2034 -91 
Q 1263 -91 848 271 
Q 434 634 434 1313 
Q 434 1759 690 2068 
Q 947 2378 1403 2484 
z
M 1172 3481 
Q 1172 3119 1398 2916 
Q 1625 2713 2034 2713 
Q 2441 2713 2670 2916 
Q 2900 3119 2900 3481 
Q 2900 3844 2670 4047 
Q 2441 4250 2034 4250 
Q 1625 4250 1398 4047 
Q 1172 3844 1172 3481 
z
" transform="scale(0.015625)"/>
       </defs>
       <use xlink:href="#DejaVuSans-32"/>
       <use xlink:href="#DejaVuSans-30" x="63.623047"/>
       <use xlink:href="#DejaVuSans-32" x="127.246094"/>
       <use xlink:href="#DejaVuSans-34" x="190.869141"/>
       <use xlink:href="#DejaVuSans-2d" x="254.492188"/>
       <use xlink:href="#DejaVuSans-30" x="290.576172"/>
       <use xlink:href="#DejaVuSans-38" x="354.199219"/>
       <use xlink:href="#DejaVuSans-2d" x="417.822266"/>
       <use xlink:href="#DejaVuSans-30" x="453.90625"/>
       <use xlink:href="#DejaVuSans-31" x="517.529297"/>
      </g>
     </g>
    </g>
    <g id="xtick_5">
     <g id="line2d_9">
      <path d="M 715.426162 404.12 
L 715.426162 26.88 
" clip-path="url(#pd7f99c036c)" style="fill: none; stroke-dasharray: 2.96,1.28; stroke-dashoffset: 0; stroke: #b0b0b0; stroke-width: 0.8"/>
     </g>
     <g id="line2d_10">
      <g>
       <use xlink:href="#m01c76c532b" x="715.426162" y="404.12" style="stroke: #000000; stroke-width: 0.8"/>
      </g>
     </g>
     <g id="text_5">
      <!-- 2024-08-15 -->
      <g transform="translate(686.368349 418.718437) scale(0.1 -0.1)">
       <use xlink:href="#DejaVuSans-32"/>
       <use xlink:href="#DejaVuSans-30" x="63.623047"/>
       <use xlink:href="#DejaVuSans-32" x="127.246094"/>
       <use xlink:href="#DejaVuSans-34" x="190.869141"/>
       <use xlink:href="#DejaVuSans-2d" x="254.492188"/>
       <use xlink:href="#DejaVuSans-30" x="290.576172"/>
       <use xlink:href="#DejaVuSans-38" x="354.199219"/>
       <use xlink:href="#DejaVuSans-2d" x="417.822266"/>
       <use xlink:href="#DejaVuSans-31" x="453.90625"/>
       <use xlink:href="#DejaVuSans-35" x="517.529297"/>
      </g>
     </g>
    </g>
   </g>
   <g id="matplotlib.axis_2">
    <g id="ytick_1">
     <g id="line2d_11">
      <path d="M 50.87 393.641584 
L 853.2 393.641584 
" clip-path="url(#pd7f99c036c)" style="fill: none; stroke-dasharray: 2.96,1.28; stroke-dashoffset: 0; stroke: #b0b0b0; stroke-width: 0.8"/>
     </g>
     <g id="line2d_12">
      <defs>
       <path id="m3876958611" d="M 0 0 
L -3.5 0 
" style="stroke: #000000; stroke-width: 0.8"/>
      </defs>
      <g>
       <use xlink:href="#m3876958611" x="50.87" y="393.641584" style="stroke: #000000; stroke-width: 0.8"/>
      </g>
     </g>
     <g id="text_6">
      <!-- 0 -->
      <g transform="translate(37.5075 397.440803) scale(0.1 -0.1)">
       <use xlink:href="#DejaVuSans-30"/>
      </g>
     </g>
    </g>
    <g id="ytick_2">
     <g id="line2d_13">
      <path d="M 50.87 326.732411 
L 853.2 326.732411 
" clip-path="url(#pd7f99c036c)" style="fill: none; stroke-dasharray: 2.96,1.28; stroke-dashoffset: 0; stroke: #b0b0b0; stroke-width: 0.8"/>
     </g>
     <g id="line2d_14">
      <g>
       <use xlink:href="#m3876958611" x="50.87" y="326.732411" style="stroke: #000000; stroke-width: 0.8"/>
      </g>
     </g>
     <g id="text_7">
      <!-- 50 -->
      <g transform="translate(31.145 330.53163) scale(0.1 -0.1)">
       <use xlink:href="#DejaVuSans-35"/>
       <use xlink:href="#DejaVuSans-30" x="63.623047"/>
      </g>
     </g>
    </g>
    <g id="ytick_3">
     <g id="line2d_15">
      <path d="M 50.87 259.823238 
L 853.2 259.823238 
" clip-path="url(#pd7f99c036c)" style="fill: none; stroke-dasharray: 2.96,1.28; stroke-dashoffset: 0; stroke: #b0b0b0; stroke-width: 0.8"/>
     </g>
     <g id="line2d_16">
      <g>
       <use xlink:href="#m3876958611" x="50.87" y="259.823238" style="stroke: #000000; stroke-width: 0.8"/>
      </g>
     </g>
     <g id="text_8">
      <!-- 100 -->
      <g transform="translate(24.7825 263.622457) scale(0.1 -0.1)">
       <use xlink:href="#DejaVuSans-31"/>
       <use xlink:href="#DejaVuSans-30" x="63.623047"/>
       <use xlink:href="#DejaVuSans-30" x="127.246094"/>
      </g>
     </g>
    </g>
    <g id="ytick_4">
     <g id="line2d_17">
      <path d="M 50.87 192.914065 
L 853.2 192.914065 
" clip-path="url(#pd7f99c036c)" style="fill: none; stroke-dasharray: 2.96,1.28; stroke-dashoffset: 0; stroke: #b0b0b0; stroke-width: 0.8"/>
     </g>
     <g id="line2d_18">
      <g>
       <use xlink:href="#m3876958611" x="50.87" y="192.914065" style="stroke: #000000; stroke-width: 0.8"/>
      </g>
     </g>
     <g id="text_9">
      <!-- 150 -->
      <g transform="translate(24.7825 196.713284) scale(0.1 -0.1)">
       <use xlink:href="#DejaVuSans-31"/>
       <use xlink:href="#DejaVuSans-35" x="63.623047"/>
       <use xlink:href="#DejaVuSans-30" x="127.246094"/>
      </g>
     </g>
    </g>
    <g id="ytick_5">
     <g id="line2d_19">
      <path d="M 50.87 126.004892 
L 853.2 126.004892 
" clip-path="url(#pd7f99c036c)" style="fill: none; stroke-dasharray: 2.96,1.28; stroke-dashoffset: 0; stroke: #b0b0b0; stroke-width: 0.8"/>
     </g>
     <g id="line2d_20">
      <g>
       <use xlink:href="#m3876958611" x="50.87" y="126.004892" style="stroke: #000000; stroke-width: 0.8"/>
      </g>
     </g>
     <g id="text_10">
      <!-- 200 -->
      <g transform="translate(24.7825 129.804111) scale(0.1 -0.1)">
       <use xlink:href="#DejaVuSans-32"/>
       <use xlink:href="#DejaVuSans-30" x="63.623047"/>
       <use xlink:href="#DejaVuSans-30" x="127.246094"/>
      </g>
     </g>
    </g>
    <g id="ytick_6">
     <g id="line2d_21">
      <path d="M 50.87 59.095719 
L 853.2 59.095719 
" clip-path="url(#pd7f99c036c)" style="fill: none; stroke-dasharray: 2.96,1.28; stroke-dashoffset: 0; stroke: #b0b0b0; stroke-width: 0.8"/>
     </g>
     <g id="line2d_22">
      <g>
       <use xlink:href="#m3876958611" x="50.87" y="59.095719" style="stroke: #000000; stroke-width: 0.8"/>
      </g>
     </g>
     <g id="text_11">
      <!-- 250 -->
      <g transform="translate(24.7825 62.894938) scale(0.1 -0.1)">
       <use xlink:href="#DejaVuSans-32"/>
       <use xlink:href="#DejaVuSans-35" x="63.623047"/>
       <use xlink:href="#DejaVuSans-30" x="127.246094"/>
      </g>
     </g>
    </g>
    <g id="text_12">
     <!-- Score -->
     <g transform="translate(18.702813 229.502344) rotate(-90) scale(0.1 -0.1)">
      <defs>
       <path id="DejaVuSans-53" d="M 3425 4513 
L 3425 3897 
Q 3066 4069 2747 4153 
Q 2428 4238 2131 4238 
Q 1616 4238 1336 4038 
Q 1056 3838 1056 3469 
Q 1056 3159 1242 3001 
Q 1428 2844 1947 2747 
L 2328 2669 
Q 3034 2534 3370 2195 
Q 3706 1856 3706 1288 
Q 3706 609 3251 259 
Q 2797 -91 1919 -91 
Q 1588 -91 1214 -16 
Q 841 59 441 206 
L 441 856 
Q 825 641 1194 531 
Q 1563 422 1919 422 
Q 2459 422 2753 634 
Q 3047 847 3047 1241 
Q 3047 1584 2836 1778 
Q 2625 1972 2144 2069 
L 1759 2144 
Q 1053 2284 737 2584 
Q 422 2884 422 3419 
Q 422 4038 858 4394 
Q 1294 4750 2059 4750 
Q 2388 4750 2728 4690 
Q 3069 4631 3425 4513 
z
" transform="scale(0.015625)"/>
       <path id="DejaVuSans-63" d="M 3122 3366 
L 3122 2828 
Q 2878 2963 2633 3030 
Q 2388 3097 2138 3097 
Q 1578 3097 1268 2742 
Q 959 2388 959 1747 
Q 959 1106 1268 751 
Q 1578 397 2138 397 
Q 2388 397 2633 464 
Q 2878 531 3122 666 
L 3122 134 
Q 2881 22 2623 -34 
Q 2366 -91 2075 -91 
Q 1284 -91 818 406 
Q 353 903 353 1747 
Q 353 2603 823 3093 
Q 1294 3584 2113 3584 
Q 2378 3584 2631 3529 
Q 2884 3475 3122 3366 
z
" transform="scale(0.015625)"/>
       <path id="DejaVuSans-6f" d="M 1959 3097 
Q 1497 3097 1228 2736 
Q 959 2375 959 1747 
Q 959 1119 1226 758 
Q 1494 397 1959 397 
Q 2419 397 2687 759 
Q 2956 1122 2956 1747 
Q 2956 2369 2687 2733 
Q 2419 3097 1959 3097 
z
M 1959 3584 
Q 2709 3584 3137 3096 
Q 3566 2609 3566 1747 
Q 3566 888 3137 398 
Q 2709 -91 1959 -91 
Q 1206 -91 779 398 
Q 353 888 353 1747 
Q 353 2609 779 3096 
Q 1206 3584 1959 3584 
z
" transform="scale(0.015625)"/>
       <path id="DejaVuSans-72" d="M 2631 2963 
Q 2534 3019 2420 3045 
Q 2306 3072 2169 3072 
Q 1681 3072 1420 2755 
Q 1159 2438 1159 1844 
L 1159 0 
L 581 0 
L 581 3500 
L 1159 3500 
L 1159 2956 
Q 1341 3275 1631 3429 
Q 1922 3584 2338 3584 
Q 2397 3584 2469 3576 
Q 2541 3569 2628 3553 
L 2631 2963 
z
" transform="scale(0.015625)"/>
       <path id="DejaVuSans-65" d="M 3597 1894 
L 3597 1613 
L 953 1613 
Q 991 1019 1311 708 
Q 1631 397 2203 397 
Q 2534 397 2845 478 
Q 3156 559 3463 722 
L 3463 178 
Q 3153 47 2828 -22 
Q 2503 -91 2169 -91 
Q 1331 -91 842 396 
Q 353 884 353 1716 
Q 353 2575 817 3079 
Q 1281 3584 2069 3584 
Q 2775 3584 3186 3129 
Q 3597 2675 3597 1894 
z
M 3022 2063 
Q 3016 2534 2758 2815 
Q 2500 3097 2075 3097 
Q 1594 3097 1305 2825 
Q 1016 2553 972 2059 
L 3022 2063 
z
" transform="scale(0.015625)"/>
      </defs>
      <use xlink:href="#DejaVuSans-53"/>
      <use xlink:href="#DejaVuSans-63" x="63.476562"/>
      <use xlink:href="#DejaVuSans-6f" x="118.457031"/>
      <use xlink:href="#DejaVuSans-72" x="179.638672"/>
      <use xlink:href="#DejaVuSans-65" x="218.501953"/>
     </g>
    </g>
   </g>
   <g id="line2d_23">
    <path d="M 87.339545 385.959466 
L 97.469975 362.828009 
L 107.600404 343.711102 
L 117.730833 329.230045 
L 127.861263 313.697559 
L 137.991692 290.183764 
L 148.122121 269.872051 
L 158.252551 259.214375 
L 168.38298 230.6346 
L 178.513409 207.64652 
L 188.643838 177.394015 
L 198.774268 161.288021 
L 208.904697 117.271344 
L 239.295985 117.271344 
L 249.426414 117.271344 
L 259.556843 117.271344 
L 269.687273 117.271344 
L 279.817702 117.271344 
L 300.078561 117.271344 
L 310.20899 117.271344 
L 320.339419 117.271344 
L 330.469848 117.271344 
L 340.600278 117.271344 
L 350.730707 107.234968 
L 360.861136 107.234968 
L 370.991566 107.234968 
L 381.121995 107.234968 
L 391.252424 107.234968 
L 401.382854 92.180404 
L 411.513283 92.180404 
L 421.643712 92.180404 
L 431.774141 92.180404 
L 441.904571 92.180404 
L 452.035 92.180404 
L 462.165429 92.180404 
L 472.295859 92.180404 
L 482.426288 92.180404 
L 492.556717 92.180404 
L 502.687146 92.180404 
L 512.817576 92.180404 
L 522.948005 92.180404 
L 533.078434 92.180404 
L 543.208864 92.180404 
L 553.339293 92.180404 
L 563.469722 92.180404 
L 573.600152 92.180404 
L 583.730581 92.180404 
L 593.86101 92.180404 
L 603.991439 92.180404 
L 614.121869 92.180404 
L 624.252298 92.180404 
L 634.382727 92.180404 
L 644.513157 92.180404 
L 654.643586 92.180404 
L 664.774015 92.180404 
L 674.904444 92.180404 
L 685.034874 92.180404 
L 695.165303 92.180404 
L 705.295732 92.180404 
L 715.426162 92.180404 
L 725.556591 92.180404 
L 735.68702 92.180404 
L 745.817449 92.180404 
L 755.947879 92.180404 
L 766.078308 92.180404 
L 776.208737 92.180404 
L 786.339167 92.180404 
L 796.469596 92.180404 
L 806.600025 92.180404 
L 816.730455 92.180404 
" clip-path="url(#pd7f99c036c)" style="fill: none; stroke: #1f77b4; stroke-width: 1.5; stroke-linecap: square"/>
    <defs>
     <path id="mff1f008999" d="M 0 3.5 
C 0.928211 3.5 1.81853 3.131218 2.474874 2.474874 
C 3.131218 1.81853 3.5 0.928211 3.5 0 
C 3.5 -0.928211 3.131218 -1.81853 2.474874 -2.474874 
C 1.81853 -3.131218 0.928211 -3.5 0 -3.5 
C -0.928211 -3.5 -1.81853 -3.131218 -2.474874 -2.474874 
C -3.131218 -1.81853 -3.5 -0.928211 -3.5 0 
C -3.5 0.928211 -3.131218 1.81853 -2.474874 2.474874 
C -1.81853 3.131218 -0.928211 3.5 0 3.5 
z
" style="stroke: #1f77b4"/>
    </defs>
    <g clip-path="url(#pd7f99c036c)">
     <use xlink:href="#mff1f008999" x="87.339545" y="385.959466" style="fill: #1f77b4; stroke: #1f77b4"/>
     <use xlink:href="#mff1f008999" x="97.469975" y="362.828009" style="fill: #1f77b4; stroke: #1f77b4"/>
     <use xlink:href="#mff1f008999" x="107.600404" y="343.711102" style="fill: #1f77b4; stroke: #1f77b4"/>
     <use xlink:href="#mff1f008999" x="117.730833" y="329.230045" style="fill: #1f77b4; stroke: #1f77b4"/>
     <use xlink:href="#mff1f008999" x="127.861263" y="313.697559" style="fill: #1f77b4; stroke: #1f77b4"/>
     <use xlink:href="#mff1f008999" x="137.991692" y="290.183764" style="fill: #1f77b4; stroke: #1f77b4"/>
     <use xlink:href="#mff1f008999" x="148.122121" y="269.872051" style="fill: #1f77b4; stroke: #1f77b4"/>
     <use xlink:href="#mff1f008999" x="158.252551" y="259.214375" style="fill: #1f77b4; stroke: #1f77b4"/>
     <use xlink:href="#mff1f008999" x="168.38298" y="230.6346" style="fill: #1f77b4; stroke: #1f77b4"/>
     <use xlink:href="#mff1f008999" x="178.513409" y="207.64652" style="fill: #1f77b4; stroke: #1f77b4"/>
     <use xlink:href="#mff1f008999" x="188.643838" y="177.394015" style="fill: #1f77b4; stroke: #1f77b4"/>
     <use xlink:href="#mff1f008999" x="198.774268" y="161.288021" style="fill: #1f77b4; stroke: #1f77b4"/>
     <use xlink:href="#mff1f008999" x="208.904697" y="117.271344" style="fill: #1f77b4; stroke: #1f77b4"/>
     <use xlink:href="#mff1f008999" x="239.295985" y="117.271344" style="fill: #1f77b4; stroke: #1f77b4"/>
     <use xlink:href="#mff1f008999" x="249.426414" y="117.271344" style="fill: #1f77b4; stroke: #1f77b4"/>
     <use xlink:href="#mff1f008999" x="259.556843" y="117.271344" style="fill: #1f77b4; stroke: #1f77b4"/>
     <use xlink:href="#mff1f008999" x="269.687273" y="117.271344" style="fill: #1f77b4; stroke: #1f77b4"/>
     <use xlink:href="#mff1f008999" x="279.817702" y="117.271344" style="fill: #1f77b4; stroke: #1f77b4"/>
     <use xlink:href="#mff1f008999" x="300.078561" y="117.271344" style="fill: #1f77b4; stroke: #1f77b4"/>
     <use xlink:href="#mff1f008999" x="310.20899" y="117.271344" style="fill: #1f77b4; stroke: #1f77b4"/>
     <use xlink:href="#mff1f008999" x="320.339419" y="117.271344" style="fill: #1f77b4; stroke: #1f77b4"/>
     <use xlink:href="#mff1f008999" x="330.469848" y="117.271344" style="fill: #1f77b4; stroke: #1f77b4"/>
     <use xlink:href="#mff1f008999" x="340.600278" y="117.271344" style="fill: #1f77b4; stroke: #1f77b4"/>
     <use xlink:href="#mff1f008999" x="350.730707" y="107.234968" style="fill: #1f77b4; stroke: #1f77b4"/>
     <use xlink:href="#mff1f008999" x="360.861136" y="107.234968" style="fill: #1f77b4; stroke: #1f77b4"/>
     <use xlink:href="#mff1f008999" x="370.991566" y="107.234968" style="fill: #1f77b4; stroke: #1f77b4"/>
     <use xlink:href="#mff1f008999" x="381.121995" y="107.234968" style="fill: #1f77b4; stroke: #1f77b4"/>
     <use xlink:href="#mff1f008999" x="391.252424" y="107.234968" style="fill: #1f77b4; stroke: #1f77b4"/>
     <use xlink:href="#mff1f008999" x="401.382854" y="92.180404" style="fill: #1f77b4; stroke: #1f77b4"/>
     <use xlink:href="#mff1f008999" x="411.513283" y="92.180404" style="fill: #1f77b4; stroke: #1f77b4"/>
     <use xlink:href="#mff1f008999" x="421.643712" y="92.180404" style="fill: #1f77b4; stroke: #1f77b4"/>
     <use xlink:href="#mff1f008999" x="431.774141" y="92.180404" style="fill: #1f77b4; stroke: #1f77b4"/>
     <use xlink:href="#mff1f008999" x="441.904571" y="92.180404" style="fill: #1f77b4; stroke: #1f77b4"/>
     <use xlink:href="#mff1f008999" x="452.035" y="92.180404" style="fill: #1f77b4; stroke: #1f77b4"/>
     <use xlink:href="#mff1f008999" x="462.165429" y="92.180404" style="fill: #1f77b4; stroke: #1f77b4"/>
     <use xlink:href="#mff1f008999" x="472.295859" y="92.180404" style="fill: #1f77b4; stroke: #1f77b4"/>
     <use xlink:href="#mff1f008999" x="482.426288" y="92.180404" style="fill: #1f77b4; stroke: #1f77b4"/>
     <use xlink:href="#mff1f008999" x="492.556717" y="92.180404" style="fill: #1f77b4; stroke: #1f77b4"/>
     <use xlink:href="#mff1f008999" x="502.687146" y="92.180404" style="fill: #1f77b4; stroke: #1f77b4"/>
     <use xlink:href="#mff1f008999" x="512.817576" y="92.180404" style="fill: #1f77b4; stroke: #1f77b4"/>
     <use xlink:href="#mff1f008999" x="522.948005" y="92.180404" style="fill: #1f77b4; stroke: #1f77b4"/>
     <use xlink:href="#mff1f008999" x="533.078434" y="92.180404" style="fill: #1f77b4; stroke: #1f77b4"/>
     <use xlink:href="#mff1f008999" x="543.208864" y="92.180404" style="fill: #1f77b4; stroke: #1f77b4"/>
     <use xlink:href="#mff1f008999" x="553.339293" y="92.180404" style="fill: #1f77b4; stroke: #1f77b4"/>
     <use xlink:href="#mff1f008999" x="563.469722" y="92.180404" style="fill: #1f77b4; stroke: #1f77b4"/>
     <use xlink:href="#mff1f008999" x="573.600152" y="92.180404" style="fill: #1f77b4; stroke: #1f77b4"/>
     <use xlink:href="#mff1f008999" x="583.730581" y="92.180404" style="fill: #1f77b4; stroke: #1f77b4"/>
     <use xlink:href="#mff1f008999" x="593.86101" y="92.180404" style="fill: #1f77b4; stroke: #1f77b4"/>
     <use xlink:href="#mff1f008999" x="603.991439" y="92.180404" style="fill: #1f77b4; stroke: #1f77b4"/>
     <use xlink:href="#mff1f008999" x="614.121869" y="92.180404" style="fill: #1f77b4; stroke: #1f77b4"/>
     <use xlink:href="#mff1f008999" x="624.252298" y="92.180404" style="fill: #1f77b4; stroke: #1f77b4"/>
     <use xlink:href="#mff1f008999" x="634.382727" y="92.180404" style="fill: #1f77b4; stroke: #1f77b4"/>
     <use xlink:href="#mff1f008999" x="644.513157" y="92.180404" style="fill: #1f77b4; stroke: #1f77b4"/>
     <use xlink:href="#mff1f008999" x="654.643586" y="92.180404" style="fill: #1f77b4; stroke: #1f77b4"/>
     <use xlink:href="#mff1f008999" x="664.774015" y="92.180404" style="fill: #1f77b4; stroke: #1f77b4"/>
     <use xlink:href="#mff1f008999" x="674.904444" y="92.180404" style="fill: #1f77b4; stroke: #1f77b4"/>
     <use xlink:href="#mff1f008999" x="685.034874" y="92.180404" style="fill: #1f77b4; stroke: #1f77b4"/>
     <use xlink:href="#mff1f008999" x="695.165303" y="92.180404" style="fill: #1f77b4; stroke: #1f77b4"/>
     <use xlink:href="#mff1f008999" x="705.295732" y="92.180404" style="fill: #1f77b4; stroke: #1f77b4"/>
     <use xlink:href="#mff1f008999" x="715.426162" y="92.180404" style="fill: #1f77b4; stroke: #1f77b4"/>
     <use xlink:href="#mff1f008999" x="725.556591" y="92.180404" style="fill: #1f77b4; stroke: #1f77b4"/>
     <use xlink:href="#mff1f008999" x="735.68702" y="92.180404" style="fill: #1f77b4; stroke: #1f77b4"/>
     <use xlink:href="#mff1f008999" x="745.817449" y="92.180404" style="fill: #1f77b4; stroke: #1f77b4"/>
     <use xlink:href="#mff1f008999" x="755.947879" y="92.180404" style="fill: #1f77b4; stroke: #1f77b4"/>
     <use xlink:href="#mff1f008999" x="766.078308" y="92.180404" style="fill: #1f77b4; stroke: #1f77b4"/>
     <use xlink:href="#mff1f008999" x="776.208737" y="92.180404" style="fill: #1f77b4; stroke: #1f77b4"/>
     <use xlink:href="#mff1f008999" x="786.339167" y="92.180404" style="fill: #1f77b4; stroke: #1f77b4"/>
     <use xlink:href="#mff1f008999" x="796.469596" y="92.180404" style="fill: #1f77b4; stroke: #1f77b4"/>
     <use xlink:href="#mff1f008999" x="806.600025" y="92.180404" style="fill: #1f77b4; stroke: #1f77b4"/>
     <use xlink:href="#mff1f008999" x="816.730455" y="92.180404" style="fill: #1f77b4; stroke: #1f77b4"/>
    </g>
   </g>
   <g id="line2d_24">
    <path d="M 87.339545 384.301297 
L 97.469975 359.024498 
L 107.600404 333.896386 
L 117.730833 321.704048 
L 127.861263 301.779983 
L 137.991692 280.963796 
L 148.122121 264.459533 
L 158.252551 250.929012 
L 168.38298 215.838868 
L 178.513409 196.806925 
L 188.643838 167.961637 
L 198.774268 148.186259 
L 208.904697 105.661763 
L 239.295985 105.661763 
L 249.426414 105.661763 
L 259.556843 105.661763 
L 269.687273 105.661763 
L 279.817702 105.661763 
L 300.078561 105.661763 
L 310.20899 105.661763 
L 320.339419 105.661763 
L 330.469848 105.661763 
L 340.600278 105.661763 
L 350.730707 96.74054 
L 360.861136 96.74054 
L 370.991566 96.74054 
L 381.121995 96.74054 
L 391.252424 96.74054 
L 401.382854 79.641529 
L 411.513283 79.641529 
L 421.643712 79.641529 
L 431.774141 79.641529 
L 441.904571 79.641529 
L 452.035 79.641529 
L 462.165429 79.641529 
L 472.295859 79.641529 
L 482.426288 79.641529 
L 492.556717 79.641529 
L 502.687146 79.641529 
L 512.817576 79.641529 
L 522.948005 79.641529 
L 533.078434 79.641529 
L 543.208864 79.641529 
L 553.339293 79.641529 
L 563.469722 79.641529 
L 573.600152 79.641529 
L 583.730581 79.641529 
L 593.86101 79.641529 
L 603.991439 79.641529 
L 614.121869 79.641529 
L 624.252298 79.641529 
L 634.382727 79.641529 
L 644.513157 79.641529 
L 654.643586 79.641529 
L 664.774015 79.641529 
L 674.904444 79.641529 
L 685.034874 79.641529 
L 695.165303 79.641529 
L 705.295732 79.641529 
L 715.426162 79.641529 
L 725.556591 79.641529 
L 735.68702 79.641529 
L 745.817449 79.641529 
L 755.947879 79.641529 
L 766.078308 79.641529 
L 776.208737 79.641529 
L 786.339167 79.641529 
L 796.469596 79.641529 
L 806.600025 79.641529 
L 816.730455 79.641529 
" clip-path="url(#pd7f99c036c)" style="fill: none; stroke: #ff7f0e; stroke-width: 1.5; stroke-linecap: square"/>
    <defs>
     <path id="m7b28bb1f11" d="M 0 3.5 
C 0.928211 3.5 1.81853 3.131218 2.474874 2.474874 
C 3.131218 1.81853 3.5 0.928211 3.5 0 
C 3.5 -0.928211 3.131218 -1.81853 2.474874 -2.474874 
C 1.81853 -3.131218 0.928211 -3.5 0 -3.5 
C -0.928211 -3.5 -1.81853 -3.131218 -2.474874 -2.474874 
C -3.131218 -1.81853 -3.5 -0.928211 -3.5 0 
C -3.5 0.928211 -3.131218 1.81853 -2.474874 2.474874 
C -1.81853 3.131218 -0.928211 3.5 0 3.5 
z
" style="stroke: #ff7f0e"/>
    </defs>
    <g clip-path="url(#pd7f99c036c)">
     <use xlink:href="#m7b28bb1f11" x="87.339545" y="384.301297" style="fill: #ff7f0e; stroke: #ff7f0e"/>
     <use xlink:href="#m7b28bb1f11" x="97.469975" y="359.024498" style="fill: #ff7f0e; stroke: #ff7f0e"/>
     <use xlink:href="#m7b28bb1f11" x="107.600404" y="333.896386" style="fill: #ff7f0e; stroke: #ff7f0e"/>
     <use xlink:href="#m7b28bb1f11" x="117.730833" y="321.704048" style="fill: #ff7f0e; stroke: #ff7f0e"/>
     <use xlink:href="#m7b28bb1f11" x="127.861263" y="301.779983" style="fill: #ff7f0e; stroke: #ff7f0e"/>
     <use xlink:href="#m7b28bb1f11" x="137.991692" y="280.963796" style="fill: #ff7f0e; stroke: #ff7f0e"/>
     <use xlink:href="#m7b28bb1f11" x="148.122121" y="264.459533" style="fill: #ff7f0e; stroke: #ff7f0e"/>
     <use xlink:href="#m7b28bb1f11" x="158.252551" y="250.929012" style="fill: #ff7f0e; stroke: #ff7f0e"/>
     <use xlink:href="#m7b28bb1f11" x="168.38298" y="215.838868" style="fill: #ff7f0e; stroke: #ff7f0e"/>
     <use xlink:href="#m7b28bb1f11" x="178.513409" y="196.806925" style="fill: #ff7f0e; stroke: #ff7f0e"/>
     <use xlink:href="#m7b28bb1f11" x="188.643838" y="167.961637" style="fill: #ff7f0e; stroke: #ff7f0e"/>
     <use xlink:href="#m7b28bb1f11" x="198.774268" y="148.186259" style="fill: #ff7f0e; stroke: #ff7f0e"/>
     <use xlink:href="#m7b28bb1f11" x="208.904697" y="105.661763" style="fill: #ff7f0e; stroke: #ff7f0e"/>
     <use xlink:href="#m7b28bb1f11" x="239.295985" y="105.661763" style="fill: #ff7f0e; stroke: #ff7f0e"/>
     <use xlink:href="#m7b28bb1f11" x="249.426414" y="105.661763" style="fill: #ff7f0e; stroke: #ff7f0e"/>
     <use xlink:href="#m7b28bb1f11" x="259.556843" y="105.661763" style="fill: #ff7f0e; stroke: #ff7f0e"/>
     <use xlink:href="#m7b28bb1f11" x="269.687273" y="105.661763" style="fill: #ff7f0e; stroke: #ff7f0e"/>
     <use xlink:href="#m7b28bb1f11" x="279.817702" y="105.661763" style="fill: #ff7f0e; stroke: #ff7f0e"/>
     <use xlink:href="#m7b28bb1f11" x="300.078561" y="105.661763" style="fill: #ff7f0e; stroke: #ff7f0e"/>
     <use xlink:href="#m7b28bb1f11" x="310.20899" y="105.661763" style="fill: #ff7f0e; stroke: #ff7f0e"/>
     <use xlink:href="#m7b28bb1f11" x="320.339419" y="105.661763" style="fill: #ff7f0e; stroke: #ff7f0e"/>
     <use xlink:href="#m7b28bb1f11" x="330.469848" y="105.661763" style="fill: #ff7f0e; stroke: #ff7f0e"/>
     <use xlink:href="#m7b28bb1f11" x="340.600278" y="105.661763" style="fill: #ff7f0e; stroke: #ff7f0e"/>
     <use xlink:href="#m7b28bb1f11" x="350.730707" y="96.74054" style="fill: #ff7f0e; stroke: #ff7f0e"/>
     <use xlink:href="#m7b28bb1f11" x="360.861136" y="96.74054" style="fill: #ff7f0e; stroke: #ff7f0e"/>
     <use xlink:href="#m7b28bb1f11" x="370.991566" y="96.74054" style="fill: #ff7f0e; stroke: #ff7f0e"/>
     <use xlink:href="#m7b28bb1f11" x="381.121995" y="96.74054" style="fill: #ff7f0e; stroke: #ff7f0e"/>
     <use xlink:href="#m7b28bb1f11" x="391.252424" y="96.74054" style="fill: #ff7f0e; stroke: #ff7f0e"/>
     <use xlink:href="#m7b28bb1f11" x="401.382854" y="79.641529" style="fill: #ff7f0e; stroke: #ff7f0e"/>
     <use xlink:href="#m7b28bb1f11" x="411.513283" y="79.641529" style="fill: #ff7f0e; stroke: #ff7f0e"/>
     <use xlink:href="#m7b28bb1f11" x="421.643712" y="79.641529" style="fill: #ff7f0e; stroke: #ff7f0e"/>
     <use xlink:href="#m7b28bb1f11" x="431.774141" y="79.641529" style="fill: #ff7f0e; stroke: #ff7f0e"/>
     <use xlink:href="#m7b28bb1f11" x="441.904571" y="79.641529" style="fill: #ff7f0e; stroke: #ff7f0e"/>
     <use xlink:href="#m7b28bb1f11" x="452.035" y="79.641529" style="fill: #ff7f0e; stroke: #ff7f0e"/>
     <use xlink:href="#m7b28bb1f11" x="462.165429" y="79.641529" style="fill: #ff7f0e; stroke: #ff7f0e"/>
     <use xlink:href="#m7b28bb1f11" x="472.295859" y="79.641529" style="fill: #ff7f0e; stroke: #ff7f0e"/>
     <use xlink:href="#m7b28bb1f11" x="482.426288" y="79.641529" style="fill: #ff7f0e; stroke: #ff7f0e"/>
     <use xlink:href="#m7b28bb1f11" x="492.556717" y="79.641529" style="fill: #ff7f0e; stroke: #ff7f0e"/>
     <use xlink:href="#m7b28bb1f11" x="502.687146" y="79.641529" style="fill: #ff7f0e; stroke: #ff7f0e"/>
     <use xlink:href="#m7b28bb1f11" x="512.817576" y="79.641529" style="fill: #ff7f0e; stroke: #ff7f0e"/>
     <use xlink:href="#m7b28bb1f11" x="522.948005" y="79.641529" style="fill: #ff7f0e; stroke: #ff7f0e"/>
     <use xlink:href="#m7b28bb1f11" x="533.078434" y="79.641529" style="fill: #ff7f0e; stroke: #ff7f0e"/>
     <use xlink:href="#m7b28bb1f11" x="543.208864" y="79.641529" style="fill: #ff7f0e; stroke: #ff7f0e"/>
     <use xlink:href="#m7b28bb1f11" x="553.339293" y="79.641529" style="fill: #ff7f0e; stroke: #ff7f0e"/>
     <use xlink:href="#m7b28bb1f11" x="563.469722" y="79.641529" style="fill: #ff7f0e; stroke: #ff7f0e"/>
     <use xlink:href="#m7b28bb1f11" x="573.600152" y="79.641529" style="fill: #ff7f0e; stroke: #ff7f0e"/>
     <use xlink:href="#m7b28bb1f11" x="583.730581" y="79.641529" style="fill: #ff7f0e; stroke: #ff7f0e"/>
     <use xlink:href="#m7b28bb1f11" x="593.86101" y="79.641529" style="fill: #ff7f0e; stroke: #ff7f0e"/>
     <use xlink:href="#m7b28bb1f11" x="603.991439" y="79.641529" style="fill: #ff7f0e; stroke: #ff7f0e"/>
     <use xlink:href="#m7b28bb1f11" x="614.121869" y="79.641529" style="fill: #ff7f0e; stroke: #ff7f0e"/>
     <use xlink:href="#m7b28bb1f11" x="624.252298" y="79.641529" style="fill: #ff7f0e; stroke: #ff7f0e"/>
     <use xlink:href="#m7b28bb1f11" x="634.382727" y="79.641529" style="fill: #ff7f0e; stroke: #ff7f0e"/>
     <use xlink:href="#m7b28bb1f11" x="644.513157" y="79.641529" style="fill: #ff7f0e; stroke: #ff7f0e"/>
     <use xlink:href="#m7b28bb1f11" x="654.643586" y="79.641529" style="fill: #ff7f0e; stroke: #ff7f0e"/>
     <use xlink:href="#m7b28bb1f11" x="664.774015" y="79.641529" style="fill: #ff7f0e; stroke: #ff7f0e"/>
     <use xlink:href="#m7b28bb1f11" x="674.904444" y="79.641529" style="fill: #ff7f0e; stroke: #ff7f0e"/>
     <use xlink:href="#m7b28bb1f11" x="685.034874" y="79.641529" style="fill: #ff7f0e; stroke: #ff7f0e"/>
     <use xlink:href="#m7b28bb1f11" x="695.165303" y="79.641529" style="fill: #ff7f0e; stroke: #ff7f0e"/>
     <use xlink:href="#m7b28bb1f11" x="705.295732" y="79.641529" style="fill: #ff7f0e; stroke: #ff7f0e"/>
     <use xlink:href="#m7b28bb1f11" x="715.426162" y="79.641529" style="fill: #ff7f0e; stroke: #ff7f0e"/>
     <use xlink:href="#m7b28bb1f11" x="725.556591" y="79.641529" style="fill: #ff7f0e; stroke: #ff7f0e"/>
     <use xlink:href="#m7b28bb1f11" x="735.68702" y="79.641529" style="fill: #ff7f0e; stroke: #ff7f0e"/>
     <use xlink:href="#m7b28bb1f11" x="745.817449" y="79.641529" style="fill: #ff7f0e; stroke: #ff7f0e"/>
     <use xlink:href="#m7b28bb1f11" x="755.947879" y="79.641529" style="fill: #ff7f0e; stroke: #ff7f0e"/>
     <use xlink:href="#m7b28bb1f11" x="766.078308" y="79.641529" style="fill: #ff7f0e; stroke: #ff7f0e"/>
     <use xlink:href="#m7b28bb1f11" x="776.208737" y="79.641529" style="fill: #ff7f0e; stroke: #ff7f0e"/>
     <use xlink:href="#m7b28bb1f11" x="786.339167" y="79.641529" style="fill: #ff7f0e; stroke: #ff7f0e"/>
     <use xlink:href="#m7b28bb1f11" x="796.469596" y="79.641529" style="fill: #ff7f0e; stroke: #ff7f0e"/>
     <use xlink:href="#m7b28bb1f11" x="806.600025" y="79.641529" style="fill: #ff7f0e; stroke: #ff7f0e"/>
     <use xlink:href="#m7b28bb1f11" x="816.730455" y="79.641529" style="fill: #ff7f0e; stroke: #ff7f0e"/>
    </g>
   </g>
   <g id="line2d_25">
    <path d="M 87.339545 385.446845 
L 97.469975 362.98448 
L 107.600404 333.831197 
L 117.730833 317.295073 
L 127.861263 297.604659 
L 137.991692 277.627492 
L 148.122121 262.429551 
L 158.252551 245.511089 
L 168.38298 214.924038 
L 178.513409 193.608688 
L 188.643838 163.021637 
L 198.774268 145.720837 
L 208.904697 100.987275 
L 239.295985 100.987275 
L 249.426414 100.987275 
L 259.556843 100.987275 
L 269.687273 100.987275 
L 279.817702 100.987275 
L 300.078561 100.987275 
L 310.20899 100.987275 
L 320.339419 100.987275 
L 330.469848 100.987275 
L 340.600278 100.987275 
L 350.730707 93.818435 
L 360.861136 93.818435 
L 370.991566 93.818435 
L 381.121995 93.818435 
L 391.252424 93.818435 
L 401.382854 77.091142 
L 411.513283 77.091142 
L 421.643712 77.091142 
L 431.774141 77.091142 
L 441.904571 77.091142 
L 452.035 77.091142 
L 462.165429 77.091142 
L 472.295859 77.091142 
L 482.426288 77.091142 
L 492.556717 77.091142 
L 502.687146 77.091142 
L 512.817576 77.091142 
L 522.948005 77.091142 
L 533.078434 77.091142 
L 543.208864 77.091142 
L 553.339293 77.091142 
L 563.469722 77.091142 
L 573.600152 77.091142 
L 583.730581 77.091142 
L 593.86101 77.091142 
L 603.991439 77.091142 
L 614.121869 77.091142 
L 624.252298 77.091142 
L 634.382727 77.091142 
L 644.513157 77.091142 
L 654.643586 77.091142 
L 664.774015 77.091142 
L 674.904444 77.091142 
L 685.034874 77.091142 
L 695.165303 77.091142 
L 705.295732 77.091142 
L 715.426162 77.091142 
L 725.556591 77.091142 
L 735.68702 77.091142 
L 745.817449 77.091142 
L 755.947879 77.091142 
L 766.078308 77.091142 
L 776.208737 77.091142 
L 786.339167 77.091142 
L 796.469596 77.091142 
L 806.600025 77.091142 
L 816.730455 77.091142 
" clip-path="url(#pd7f99c036c)" style="fill: none; stroke: #2ca02c; stroke-width: 1.5; stroke-linecap: square"/>
    <defs>
     <path id="m3cddb8b08d" d="M 0 3.5 
C 0.928211 3.5 1.81853 3.131218 2.474874 2.474874 
C 3.131218 1.81853 3.5 0.928211 3.5 0 
C 3.5 -0.928211 3.131218 -1.81853 2.474874 -2.474874 
C 1.81853 -3.131218 0.928211 -3.5 0 -3.5 
C -0.928211 -3.5 -1.81853 -3.131218 -2.474874 -2.474874 
C -3.131218 -1.81853 -3.5 -0.928211 -3.5 0 
C -3.5 0.928211 -3.131218 1.81853 -2.474874 2.474874 
C -1.81853 3.131218 -0.928211 3.5 0 3.5 
z
" style="stroke: #2ca02c"/>
    </defs>
    <g clip-path="url(#pd7f99c036c)">
     <use xlink:href="#m3cddb8b08d" x="87.339545" y="385.446845" style="fill: #2ca02c; stroke: #2ca02c"/>
     <use xlink:href="#m3cddb8b08d" x="97.469975" y="362.98448" style="fill: #2ca02c; stroke: #2ca02c"/>
     <use xlink:href="#m3cddb8b08d" x="107.600404" y="333.831197" style="fill: #2ca02c; stroke: #2ca02c"/>
     <use xlink:href="#m3cddb8b08d" x="117.730833" y="317.295073" style="fill: #2ca02c; stroke: #2ca02c"/>
     <use xlink:href="#m3cddb8b08d" x="127.861263" y="297.604659" style="fill: #2ca02c; stroke: #2ca02c"/>
     <use xlink:href="#m3cddb8b08d" x="137.991692" y="277.627492" style="fill: #2ca02c; stroke: #2ca02c"/>
     <use xlink:href="#m3cddb8b08d" x="148.122121" y="262.429551" style="fill: #2ca02c; stroke: #2ca02c"/>
     <use xlink:href="#m3cddb8b08d" x="158.252551" y="245.511089" style="fill: #2ca02c; stroke: #2ca02c"/>
     <use xlink:href="#m3cddb8b08d" x="168.38298" y="214.924038" style="fill: #2ca02c; stroke: #2ca02c"/>
     <use xlink:href="#m3cddb8b08d" x="178.513409" y="193.608688" style="fill: #2ca02c; stroke: #2ca02c"/>
     <use xlink:href="#m3cddb8b08d" x="188.643838" y="163.021637" style="fill: #2ca02c; stroke: #2ca02c"/>
     <use xlink:href="#m3cddb8b08d" x="198.774268" y="145.720837" style="fill: #2ca02c; stroke: #2ca02c"/>
     <use xlink:href="#m3cddb8b08d" x="208.904697" y="100.987275" style="fill: #2ca02c; stroke: #2ca02c"/>
     <use xlink:href="#m3cddb8b08d" x="239.295985" y="100.987275" style="fill: #2ca02c; stroke: #2ca02c"/>
     <use xlink:href="#m3cddb8b08d" x="249.426414" y="100.987275" style="fill: #2ca02c; stroke: #2ca02c"/>
     <use xlink:href="#m3cddb8b08d" x="259.556843" y="100.987275" style="fill: #2ca02c; stroke: #2ca02c"/>
     <use xlink:href="#m3cddb8b08d" x="269.687273" y="100.987275" style="fill: #2ca02c; stroke: #2ca02c"/>
     <use xlink:href="#m3cddb8b08d" x="279.817702" y="100.987275" style="fill: #2ca02c; stroke: #2ca02c"/>
     <use xlink:href="#m3cddb8b08d" x="300.078561" y="100.987275" style="fill: #2ca02c; stroke: #2ca02c"/>
     <use xlink:href="#m3cddb8b08d" x="310.20899" y="100.987275" style="fill: #2ca02c; stroke: #2ca02c"/>
     <use xlink:href="#m3cddb8b08d" x="320.339419" y="100.987275" style="fill: #2ca02c; stroke: #2ca02c"/>
     <use xlink:href="#m3cddb8b08d" x="330.469848" y="100.987275" style="fill: #2ca02c; stroke: #2ca02c"/>
     <use xlink:href="#m3cddb8b08d" x="340.600278" y="100.987275" style="fill: #2ca02c; stroke: #2ca02c"/>
     <use xlink:href="#m3cddb8b08d" x="350.730707" y="93.818435" style="fill: #2ca02c; stroke: #2ca02c"/>
     <use xlink:href="#m3cddb8b08d" x="360.861136" y="93.818435" style="fill: #2ca02c; stroke: #2ca02c"/>
     <use xlink:href="#m3cddb8b08d" x="370.991566" y="93.818435" style="fill: #2ca02c; stroke: #2ca02c"/>
     <use xlink:href="#m3cddb8b08d" x="381.121995" y="93.818435" style="fill: #2ca02c; stroke: #2ca02c"/>
     <use xlink:href="#m3cddb8b08d" x="391.252424" y="93.818435" style="fill: #2ca02c; stroke: #2ca02c"/>
     <use xlink:href="#m3cddb8b08d" x="401.382854" y="77.091142" style="fill: #2ca02c; stroke: #2ca02c"/>
     <use xlink:href="#m3cddb8b08d" x="411.513283" y="77.091142" style="fill: #2ca02c; stroke: #2ca02c"/>
     <use xlink:href="#m3cddb8b08d" x="421.643712" y="77.091142" style="fill: #2ca02c; stroke: #2ca02c"/>
     <use xlink:href="#m3cddb8b08d" x="431.774141" y="77.091142" style="fill: #2ca02c; stroke: #2ca02c"/>
     <use xlink:href="#m3cddb8b08d" x="441.904571" y="77.091142" style="fill: #2ca02c; stroke: #2ca02c"/>
     <use xlink:href="#m3cddb8b08d" x="452.035" y="77.091142" style="fill: #2ca02c; stroke: #2ca02c"/>
     <use xlink:href="#m3cddb8b08d" x="462.165429" y="77.091142" style="fill: #2ca02c; stroke: #2ca02c"/>
     <use xlink:href="#m3cddb8b08d" x="472.295859" y="77.091142" style="fill: #2ca02c; stroke: #2ca02c"/>
     <use xlink:href="#m3cddb8b08d" x="482.426288" y="77.091142" style="fill: #2ca02c; stroke: #2ca02c"/>
     <use xlink:href="#m3cddb8b08d" x="492.556717" y="77.091142" style="fill: #2ca02c; stroke: #2ca02c"/>
     <use xlink:href="#m3cddb8b08d" x="502.687146" y="77.091142" style="fill: #2ca02c; stroke: #2ca02c"/>
     <use xlink:href="#m3cddb8b08d" x="512.817576" y="77.091142" style="fill: #2ca02c; stroke: #2ca02c"/>
     <use xlink:href="#m3cddb8b08d" x="522.948005" y="77.091142" style="fill: #2ca02c; stroke: #2ca02c"/>
     <use xlink:href="#m3cddb8b08d" x="533.078434" y="77.091142" style="fill: #2ca02c; stroke: #2ca02c"/>
     <use xlink:href="#m3cddb8b08d" x="543.208864" y="77.091142" style="fill: #2ca02c; stroke: #2ca02c"/>
     <use xlink:href="#m3cddb8b08d" x="553.339293" y="77.091142" style="fill: #2ca02c; stroke: #2ca02c"/>
     <use xlink:href="#m3cddb8b08d" x="563.469722" y="77.091142" style="fill: #2ca02c; stroke: #2ca02c"/>
     <use xlink:href="#m3cddb8b08d" x="573.600152" y="77.091142" style="fill: #2ca02c; stroke: #2ca02c"/>
     <use xlink:href="#m3cddb8b08d" x="583.730581" y="77.091142" style="fill: #2ca02c; stroke: #2ca02c"/>
     <use xlink:href="#m3cddb8b08d" x="593.86101" y="77.091142" style="fill: #2ca02c; stroke: #2ca02c"/>
     <use xlink:href="#m3cddb8b08d" x="603.991439" y="77.091142" style="fill: #2ca02c; stroke: #2ca02c"/>
     <use xlink:href="#m3cddb8b08d" x="614.121869" y="77.091142" style="fill: #2ca02c; stroke: #2ca02c"/>
     <use xlink:href="#m3cddb8b08d" x="624.252298" y="77.091142" style="fill: #2ca02c; stroke: #2ca02c"/>
     <use xlink:href="#m3cddb8b08d" x="634.382727" y="77.091142" style="fill: #2ca02c; stroke: #2ca02c"/>
     <use xlink:href="#m3cddb8b08d" x="644.513157" y="77.091142" style="fill: #2ca02c; stroke: #2ca02c"/>
     <use xlink:href="#m3cddb8b08d" x="654.643586" y="77.091142" style="fill: #2ca02c; stroke: #2ca02c"/>
     <use xlink:href="#m3cddb8b08d" x="664.774015" y="77.091142" style="fill: #2ca02c; stroke: #2ca02c"/>
     <use xlink:href="#m3cddb8b08d" x="674.904444" y="77.091142" style="fill: #2ca02c; stroke: #2ca02c"/>
     <use xlink:href="#m3cddb8b08d" x="685.034874" y="77.091142" style="fill: #2ca02c; stroke: #2ca02c"/>
     <use xlink:href="#m3cddb8b08d" x="695.165303" y="77.091142" style="fill: #2ca02c; stroke: #2ca02c"/>
     <use xlink:href="#m3cddb8b08d" x="705.295732" y="77.091142" style="fill: #2ca02c; stroke: #2ca02c"/>
     <use xlink:href="#m3cddb8b08d" x="715.426162" y="77.091142" style="fill: #2ca02c; stroke: #2ca02c"/>
     <use xlink:href="#m3cddb8b08d" x="725.556591" y="77.091142" style="fill: #2ca02c; stroke: #2ca02c"/>
     <use xlink:href="#m3cddb8b08d" x="735.68702" y="77.091142" style="fill: #2ca02c; stroke: #2ca02c"/>
     <use xlink:href="#m3cddb8b08d" x="745.817449" y="77.091142" style="fill: #2ca02c; stroke: #2ca02c"/>
     <use xlink:href="#m3cddb8b08d" x="755.947879" y="77.091142" style="fill: #2ca02c; stroke: #2ca02c"/>
     <use xlink:href="#m3cddb8b08d" x="766.078308" y="77.091142" style="fill: #2ca02c; stroke: #2ca02c"/>
     <use xlink:href="#m3cddb8b08d" x="776.208737" y="77.091142" style="fill: #2ca02c; stroke: #2ca02c"/>
     <use xlink:href="#m3cddb8b08d" x="786.339167" y="77.091142" style="fill: #2ca02c; stroke: #2ca02c"/>
     <use xlink:href="#m3cddb8b08d" x="796.469596" y="77.091142" style="fill: #2ca02c; stroke: #2ca02c"/>
     <use xlink:href="#m3cddb8b08d" x="806.600025" y="77.091142" style="fill: #2ca02c; stroke: #2ca02c"/>
     <use xlink:href="#m3cddb8b08d" x="816.730455" y="77.091142" style="fill: #2ca02c; stroke: #2ca02c"/>
    </g>
   </g>
   <g id="line2d_26">
    <path d="M 87.339545 385.651692 
L 97.469975 363.17021 
L 107.600404 337.477087 
L 117.730833 323.827616 
L 127.861263 308.661537 
L 137.991692 281.719443 
L 148.122121 252.100982 
L 158.252551 242.82291 
L 168.38298 214.096572 
L 178.513409 196.700187 
L 188.643838 165.297482 
L 198.774268 147.990309 
L 208.904697 92.767938 
L 239.295985 92.767938 
L 249.426414 92.767938 
L 259.556843 92.767938 
L 269.687273 92.767938 
L 279.817702 92.767938 
L 300.078561 92.767938 
L 310.20899 92.767938 
L 320.339419 92.767938 
L 330.469848 92.767938 
L 340.600278 92.767938 
L 350.730707 82.062471 
L 360.861136 82.062471 
L 370.991566 82.062471 
L 381.121995 82.062471 
L 391.252424 82.062471 
L 401.382854 75.817615 
L 411.513283 75.817615 
L 421.643712 75.817615 
L 431.774141 75.817615 
L 441.904571 75.817615 
L 452.035 75.817615 
L 462.165429 75.817615 
L 472.295859 75.817615 
L 482.426288 75.817615 
L 492.556717 75.817615 
L 502.687146 75.817615 
L 512.817576 75.817615 
L 522.948005 75.817615 
L 533.078434 75.817615 
L 543.208864 75.817615 
L 553.339293 75.817615 
L 563.469722 75.817615 
L 573.600152 75.817615 
L 583.730581 75.817615 
L 593.86101 75.817615 
L 603.991439 75.817615 
L 614.121869 75.817615 
L 624.252298 75.817615 
L 634.382727 75.817615 
L 644.513157 75.817615 
L 654.643586 75.817615 
L 664.774015 75.817615 
L 674.904444 75.817615 
L 685.034874 75.817615 
L 695.165303 75.817615 
L 705.295732 75.817615 
L 715.426162 75.817615 
L 725.556591 75.817615 
L 735.68702 75.817615 
L 745.817449 75.817615 
L 755.947879 75.817615 
L 766.078308 75.817615 
L 776.208737 75.817615 
L 786.339167 75.817615 
L 796.469596 75.817615 
L 806.600025 75.817615 
L 816.730455 75.817615 
" clip-path="url(#pd7f99c036c)" style="fill: none; stroke: #d62728; stroke-width: 1.5; stroke-linecap: square"/>
    <defs>
     <path id="me698b06d3d" d="M 0 3.5 
C 0.928211 3.5 1.81853 3.131218 2.474874 2.474874 
C 3.131218 1.81853 3.5 0.928211 3.5 0 
C 3.5 -0.928211 3.131218 -1.81853 2.474874 -2.474874 
C 1.81853 -3.131218 0.928211 -3.5 0 -3.5 
C -0.928211 -3.5 -1.81853 -3.131218 -2.474874 -2.474874 
C -3.131218 -1.81853 -3.5 -0.928211 -3.5 0 
C -3.5 0.928211 -3.131218 1.81853 -2.474874 2.474874 
C -1.81853 3.131218 -0.928211 3.5 0 3.5 
z
" style="stroke: #d62728"/>
    </defs>
    <g clip-path="url(#pd7f99c036c)">
     <use xlink:href="#me698b06d3d" x="87.339545" y="385.651692" style="fill: #d62728; stroke: #d62728"/>
     <use xlink:href="#me698b06d3d" x="97.469975" y="363.17021" style="fill: #d62728; stroke: #d62728"/>
     <use xlink:href="#me698b06d3d" x="107.600404" y="337.477087" style="fill: #d62728; stroke: #d62728"/>
     <use xlink:href="#me698b06d3d" x="117.730833" y="323.827616" style="fill: #d62728; stroke: #d62728"/>
     <use xlink:href="#me698b06d3d" x="127.861263" y="308.661537" style="fill: #d62728; stroke: #d62728"/>
     <use xlink:href="#me698b06d3d" x="137.991692" y="281.719443" style="fill: #d62728; stroke: #d62728"/>
     <use xlink:href="#me698b06d3d" x="148.122121" y="252.100982" style="fill: #d62728; stroke: #d62728"/>
     <use xlink:href="#me698b06d3d" x="158.252551" y="242.82291" style="fill: #d62728; stroke: #d62728"/>
     <use xlink:href="#me698b06d3d" x="168.38298" y="214.096572" style="fill: #d62728; stroke: #d62728"/>
     <use xlink:href="#me698b06d3d" x="178.513409" y="196.700187" style="fill: #d62728; stroke: #d62728"/>
     <use xlink:href="#me698b06d3d" x="188.643838" y="165.297482" style="fill: #d62728; stroke: #d62728"/>
     <use xlink:href="#me698b06d3d" x="198.774268" y="147.990309" style="fill: #d62728; stroke: #d62728"/>
     <use xlink:href="#me698b06d3d" x="208.904697" y="92.767938" style="fill: #d62728; stroke: #d62728"/>
     <use xlink:href="#me698b06d3d" x="239.295985" y="92.767938" style="fill: #d62728; stroke: #d62728"/>
     <use xlink:href="#me698b06d3d" x="249.426414" y="92.767938" style="fill: #d62728; stroke: #d62728"/>
     <use xlink:href="#me698b06d3d" x="259.556843" y="92.767938" style="fill: #d62728; stroke: #d62728"/>
     <use xlink:href="#me698b06d3d" x="269.687273" y="92.767938" style="fill: #d62728; stroke: #d62728"/>
     <use xlink:href="#me698b06d3d" x="279.817702" y="92.767938" style="fill: #d62728; stroke: #d62728"/>
     <use xlink:href="#me698b06d3d" x="300.078561" y="92.767938" style="fill: #d62728; stroke: #d62728"/>
     <use xlink:href="#me698b06d3d" x="310.20899" y="92.767938" style="fill: #d62728; stroke: #d62728"/>
     <use xlink:href="#me698b06d3d" x="320.339419" y="92.767938" style="fill: #d62728; stroke: #d62728"/>
     <use xlink:href="#me698b06d3d" x="330.469848" y="92.767938" style="fill: #d62728; stroke: #d62728"/>
     <use xlink:href="#me698b06d3d" x="340.600278" y="92.767938" style="fill: #d62728; stroke: #d62728"/>
     <use xlink:href="#me698b06d3d" x="350.730707" y="82.062471" style="fill: #d62728; stroke: #d62728"/>
     <use xlink:href="#me698b06d3d" x="360.861136" y="82.062471" style="fill: #d62728; stroke: #d62728"/>
     <use xlink:href="#me698b06d3d" x="370.991566" y="82.062471" style="fill: #d62728; stroke: #d62728"/>
     <use xlink:href="#me698b06d3d" x="381.121995" y="82.062471" style="fill: #d62728; stroke: #d62728"/>
     <use xlink:href="#me698b06d3d" x="391.252424" y="82.062471" style="fill: #d62728; stroke: #d62728"/>
     <use xlink:href="#me698b06d3d" x="401.382854" y="75.817615" style="fill: #d62728; stroke: #d62728"/>
     <use xlink:href="#me698b06d3d" x="411.513283" y="75.817615" style="fill: #d62728; stroke: #d62728"/>
     <use xlink:href="#me698b06d3d" x="421.643712" y="75.817615" style="fill: #d62728; stroke: #d62728"/>
     <use xlink:href="#me698b06d3d" x="431.774141" y="75.817615" style="fill: #d62728; stroke: #d62728"/>
     <use xlink:href="#me698b06d3d" x="441.904571" y="75.817615" style="fill: #d62728; stroke: #d62728"/>
     <use xlink:href="#me698b06d3d" x="452.035" y="75.817615" style="fill: #d62728; stroke: #d62728"/>
     <use xlink:href="#me698b06d3d" x="462.165429" y="75.817615" style="fill: #d62728; stroke: #d62728"/>
     <use xlink:href="#me698b06d3d" x="472.295859" y="75.817615" style="fill: #d62728; stroke: #d62728"/>
     <use xlink:href="#me698b06d3d" x="482.426288" y="75.817615" style="fill: #d62728; stroke: #d62728"/>
     <use xlink:href="#me698b06d3d" x="492.556717" y="75.817615" style="fill: #d62728; stroke: #d62728"/>
     <use xlink:href="#me698b06d3d" x="502.687146" y="75.817615" style="fill: #d62728; stroke: #d62728"/>
     <use xlink:href="#me698b06d3d" x="512.817576" y="75.817615" style="fill: #d62728; stroke: #d62728"/>
     <use xlink:href="#me698b06d3d" x="522.948005" y="75.817615" style="fill: #d62728; stroke: #d62728"/>
     <use xlink:href="#me698b06d3d" x="533.078434" y="75.817615" style="fill: #d62728; stroke: #d62728"/>
     <use xlink:href="#me698b06d3d" x="543.208864" y="75.817615" style="fill: #d62728; stroke: #d62728"/>
     <use xlink:href="#me698b06d3d" x="553.339293" y="75.817615" style="fill: #d62728; stroke: #d62728"/>
     <use xlink:href="#me698b06d3d" x="563.469722" y="75.817615" style="fill: #d62728; stroke: #d62728"/>
     <use xlink:href="#me698b06d3d" x="573.600152" y="75.817615" style="fill: #d62728; stroke: #d62728"/>
     <use xlink:href="#me698b06d3d" x="583.730581" y="75.817615" style="fill: #d62728; stroke: #d62728"/>
     <use xlink:href="#me698b06d3d" x="593.86101" y="75.817615" style="fill: #d62728; stroke: #d62728"/>
     <use xlink:href="#me698b06d3d" x="603.991439" y="75.817615" style="fill: #d62728; stroke: #d62728"/>
     <use xlink:href="#me698b06d3d" x="614.121869" y="75.817615" style="fill: #d62728; stroke: #d62728"/>
     <use xlink:href="#me698b06d3d" x="624.252298" y="75.817615" style="fill: #d62728; stroke: #d62728"/>
     <use xlink:href="#me698b06d3d" x="634.382727" y="75.817615" style="fill: #d62728; stroke: #d62728"/>
     <use xlink:href="#me698b06d3d" x="644.513157" y="75.817615" style="fill: #d62728; stroke: #d62728"/>
     <use xlink:href="#me698b06d3d" x="654.643586" y="75.817615" style="fill: #d62728; stroke: #d62728"/>
     <use xlink:href="#me698b06d3d" x="664.774015" y="75.817615" style="fill: #d62728; stroke: #d62728"/>
     <use xlink:href="#me698b06d3d" x="674.904444" y="75.817615" style="fill: #d62728; stroke: #d62728"/>
     <use xlink:href="#me698b06d3d" x="685.034874" y="75.817615" style="fill: #d62728; stroke: #d62728"/>
     <use xlink:href="#me698b06d3d" x="695.165303" y="75.817615" style="fill: #d62728; stroke: #d62728"/>
     <use xlink:href="#me698b06d3d" x="705.295732" y="75.817615" style="fill: #d62728; stroke: #d62728"/>
     <use xlink:href="#me698b06d3d" x="715.426162" y="75.817615" style="fill: #d62728; stroke: #d62728"/>
     <use xlink:href="#me698b06d3d" x="725.556591" y="75.817615" style="fill: #d62728; stroke: #d62728"/>
     <use xlink:href="#me698b06d3d" x="735.68702" y="75.817615" style="fill: #d62728; stroke: #d62728"/>
     <use xlink:href="#me698b06d3d" x="745.817449" y="75.817615" style="fill: #d62728; stroke: #d62728"/>
     <use xlink:href="#me698b06d3d" x="755.947879" y="75.817615" style="fill: #d62728; stroke: #d62728"/>
     <use xlink:href="#me698b06d3d" x="766.078308" y="75.817615" style="fill: #d62728; stroke: #d62728"/>
     <use xlink:href="#me698b06d3d" x="776.208737" y="75.817615" style="fill: #d62728; stroke: #d62728"/>
     <use xlink:href="#me698b06d3d" x="786.339167" y="75.817615" style="fill: #d62728; stroke: #d62728"/>
     <use xlink:href="#me698b06d3d" x="796.469596" y="75.817615" style="fill: #d62728; stroke: #d62728"/>
     <use xlink:href="#me698b06d3d" x="806.600025" y="75.817615" style="fill: #d62728; stroke: #d62728"/>
     <use xlink:href="#me698b06d3d" x="816.730455" y="75.817615" style="fill: #d62728; stroke: #d62728"/>
    </g>
   </g>
   <g id="line2d_27">
    <path d="M 87.339545 386.972727 
L 97.469975 361.249867 
L 107.600404 341.623177 
L 117.730833 324.078105 
L 127.861263 307.127781 
L 137.991692 285.716845 
L 148.122121 273.673194 
L 158.252551 262.521665 
L 168.38298 232.932942 
L 178.513409 212.562816 
L 188.643838 172.119938 
L 198.774268 155.318302 
L 208.904697 108.184506 
L 239.295985 108.184506 
L 249.426414 108.184506 
L 259.556843 108.184506 
L 269.687273 108.184506 
L 279.817702 108.184506 
L 300.078561 108.184506 
L 310.20899 108.184506 
L 320.339419 108.184506 
L 330.469848 108.184506 
L 340.600278 108.184506 
L 350.730707 92.572366 
L 360.861136 92.572366 
L 370.991566 92.572366 
L 381.121995 92.572366 
L 391.252424 92.572366 
L 401.382854 73.243049 
L 411.513283 73.243049 
L 421.643712 73.243049 
L 431.774141 73.243049 
L 441.904571 73.243049 
L 452.035 73.243049 
L 462.165429 73.243049 
L 472.295859 73.243049 
L 482.426288 73.243049 
L 492.556717 73.243049 
L 502.687146 73.243049 
L 512.817576 73.243049 
L 522.948005 73.243049 
L 533.078434 73.243049 
L 543.208864 73.243049 
L 553.339293 73.243049 
L 563.469722 73.243049 
L 573.600152 73.243049 
L 583.730581 73.243049 
L 593.86101 73.243049 
L 603.991439 73.243049 
L 614.121869 73.243049 
L 624.252298 73.243049 
L 634.382727 73.243049 
L 644.513157 73.243049 
L 654.643586 73.243049 
L 664.774015 73.243049 
L 674.904444 73.243049 
L 685.034874 73.243049 
L 695.165303 73.243049 
L 705.295732 73.243049 
L 715.426162 73.243049 
L 725.556591 73.243049 
L 735.68702 73.243049 
L 745.817449 73.243049 
L 755.947879 73.243049 
L 766.078308 73.243049 
L 776.208737 73.243049 
L 786.339167 73.243049 
L 796.469596 73.243049 
L 806.600025 73.243049 
L 816.730455 73.243049 
" clip-path="url(#pd7f99c036c)" style="fill: none; stroke: #9467bd; stroke-width: 1.5; stroke-linecap: square"/>
    <defs>
     <path id="mf95d2f05ea" d="M 0 3.5 
C 0.928211 3.5 1.81853 3.131218 2.474874 2.474874 
C 3.131218 1.81853 3.5 0.928211 3.5 0 
C 3.5 -0.928211 3.131218 -1.81853 2.474874 -2.474874 
C 1.81853 -3.131218 0.928211 -3.5 0 -3.5 
C -0.928211 -3.5 -1.81853 -3.131218 -2.474874 -2.474874 
C -3.131218 -1.81853 -3.5 -0.928211 -3.5 0 
C -3.5 0.928211 -3.131218 1.81853 -2.474874 2.474874 
C -1.81853 3.131218 -0.928211 3.5 0 3.5 
z
" style="stroke: #9467bd"/>
    </defs>
    <g clip-path="url(#pd7f99c036c)">
     <use xlink:href="#mf95d2f05ea" x="87.339545" y="386.972727" style="fill: #9467bd; stroke: #9467bd"/>
     <use xlink:href="#mf95d2f05ea" x="97.469975" y="361.249867" style="fill: #9467bd; stroke: #9467bd"/>
     <use xlink:href="#mf95d2f05ea" x="107.600404" y="341.623177" style="fill: #9467bd; stroke: #9467bd"/>
     <use xlink:href="#mf95d2f05ea" x="117.730833" y="324.078105" style="fill: #9467bd; stroke: #9467bd"/>
     <use xlink:href="#mf95d2f05ea" x="127.861263" y="307.127781" style="fill: #9467bd; stroke: #9467bd"/>
     <use xlink:href="#mf95d2f05ea" x="137.991692" y="285.716845" style="fill: #9467bd; stroke: #9467bd"/>
     <use xlink:href="#mf95d2f05ea" x="148.122121" y="273.673194" style="fill: #9467bd; stroke: #9467bd"/>
     <use xlink:href="#mf95d2f05ea" x="158.252551" y="262.521665" style="fill: #9467bd; stroke: #9467bd"/>
     <use xlink:href="#mf95d2f05ea" x="168.38298" y="232.932942" style="fill: #9467bd; stroke: #9467bd"/>
     <use xlink:href="#mf95d2f05ea" x="178.513409" y="212.562816" style="fill: #9467bd; stroke: #9467bd"/>
     <use xlink:href="#mf95d2f05ea" x="188.643838" y="172.119938" style="fill: #9467bd; stroke: #9467bd"/>
     <use xlink:href="#mf95d2f05ea" x="198.774268" y="155.318302" style="fill: #9467bd; stroke: #9467bd"/>
     <use xlink:href="#mf95d2f05ea" x="208.904697" y="108.184506" style="fill: #9467bd; stroke: #9467bd"/>
     <use xlink:href="#mf95d2f05ea" x="239.295985" y="108.184506" style="fill: #9467bd; stroke: #9467bd"/>
     <use xlink:href="#mf95d2f05ea" x="249.426414" y="108.184506" style="fill: #9467bd; stroke: #9467bd"/>
     <use xlink:href="#mf95d2f05ea" x="259.556843" y="108.184506" style="fill: #9467bd; stroke: #9467bd"/>
     <use xlink:href="#mf95d2f05ea" x="269.687273" y="108.184506" style="fill: #9467bd; stroke: #9467bd"/>
     <use xlink:href="#mf95d2f05ea" x="279.817702" y="108.184506" style="fill: #9467bd; stroke: #9467bd"/>
     <use xlink:href="#mf95d2f05ea" x="300.078561" y="108.184506" style="fill: #9467bd; stroke: #9467bd"/>
     <use xlink:href="#mf95d2f05ea" x="310.20899" y="108.184506" style="fill: #9467bd; stroke: #9467bd"/>
     <use xlink:href="#mf95d2f05ea" x="320.339419" y="108.184506" style="fill: #9467bd; stroke: #9467bd"/>
     <use xlink:href="#mf95d2f05ea" x="330.469848" y="108.184506" style="fill: #9467bd; stroke: #9467bd"/>
     <use xlink:href="#mf95d2f05ea" x="340.600278" y="108.184506" style="fill: #9467bd; stroke: #9467bd"/>
     <use xlink:href="#mf95d2f05ea" x="350.730707" y="92.572366" style="fill: #9467bd; stroke: #9467bd"/>
     <use xlink:href="#mf95d2f05ea" x="360.861136" y="92.572366" style="fill: #9467bd; stroke: #9467bd"/>
     <use xlink:href="#mf95d2f05ea" x="370.991566" y="92.572366" style="fill: #9467bd; stroke: #9467bd"/>
     <use xlink:href="#mf95d2f05ea" x="381.121995" y="92.572366" style="fill: #9467bd; stroke: #9467bd"/>
     <use xlink:href="#mf95d2f05ea" x="391.252424" y="92.572366" style="fill: #9467bd; stroke: #9467bd"/>
     <use xlink:href="#mf95d2f05ea" x="401.382854" y="73.243049" style="fill: #9467bd; stroke: #9467bd"/>
     <use xlink:href="#mf95d2f05ea" x="411.513283" y="73.243049" style="fill: #9467bd; stroke: #9467bd"/>
     <use xlink:href="#mf95d2f05ea" x="421.643712" y="73.243049" style="fill: #9467bd; stroke: #9467bd"/>
     <use xlink:href="#mf95d2f05ea" x="431.774141" y="73.243049" style="fill: #9467bd; stroke: #9467bd"/>
     <use xlink:href="#mf95d2f05ea" x="441.904571" y="73.243049" style="fill: #9467bd; stroke: #9467bd"/>
     <use xlink:href="#mf95d2f05ea" x="452.035" y="73.243049" style="fill: #9467bd; stroke: #9467bd"/>
     <use xlink:href="#mf95d2f05ea" x="462.165429" y="73.243049" style="fill: #9467bd; stroke: #9467bd"/>
     <use xlink:href="#mf95d2f05ea" x="472.295859" y="73.243049" style="fill: #9467bd; stroke: #9467bd"/>
     <use xlink:href="#mf95d2f05ea" x="482.426288" y="73.243049" style="fill: #9467bd; stroke: #9467bd"/>
     <use xlink:href="#mf95d2f05ea" x="492.556717" y="73.243049" style="fill: #9467bd; stroke: #9467bd"/>
     <use xlink:href="#mf95d2f05ea" x="502.687146" y="73.243049" style="fill: #9467bd; stroke: #9467bd"/>
     <use xlink:href="#mf95d2f05ea" x="512.817576" y="73.243049" style="fill: #9467bd; stroke: #9467bd"/>
     <use xlink:href="#mf95d2f05ea" x="522.948005" y="73.243049" style="fill: #9467bd; stroke: #9467bd"/>
     <use xlink:href="#mf95d2f05ea" x="533.078434" y="73.243049" style="fill: #9467bd; stroke: #9467bd"/>
     <use xlink:href="#mf95d2f05ea" x="543.208864" y="73.243049" style="fill: #9467bd; stroke: #9467bd"/>
     <use xlink:href="#mf95d2f05ea" x="553.339293" y="73.243049" style="fill: #9467bd; stroke: #9467bd"/>
     <use xlink:href="#mf95d2f05ea" x="563.469722" y="73.243049" style="fill: #9467bd; stroke: #9467bd"/>
     <use xlink:href="#mf95d2f05ea" x="573.600152" y="73.243049" style="fill: #9467bd; stroke: #9467bd"/>
     <use xlink:href="#mf95d2f05ea" x="583.730581" y="73.243049" style="fill: #9467bd; stroke: #9467bd"/>
     <use xlink:href="#mf95d2f05ea" x="593.86101" y="73.243049" style="fill: #9467bd; stroke: #9467bd"/>
     <use xlink:href="#mf95d2f05ea" x="603.991439" y="73.243049" style="fill: #9467bd; stroke: #9467bd"/>
     <use xlink:href="#mf95d2f05ea" x="614.121869" y="73.243049" style="fill: #9467bd; stroke: #9467bd"/>
     <use xlink:href="#mf95d2f05ea" x="624.252298" y="73.243049" style="fill: #9467bd; stroke: #9467bd"/>
     <use xlink:href="#mf95d2f05ea" x="634.382727" y="73.243049" style="fill: #9467bd; stroke: #9467bd"/>
     <use xlink:href="#mf95d2f05ea" x="644.513157" y="73.243049" style="fill: #9467bd; stroke: #9467bd"/>
     <use xlink:href="#mf95d2f05ea" x="654.643586" y="73.243049" style="fill: #9467bd; stroke: #9467bd"/>
     <use xlink:href="#mf95d2f05ea" x="664.774015" y="73.243049" style="fill: #9467bd; stroke: #9467bd"/>
     <use xlink:href="#mf95d2f05ea" x="674.904444" y="73.243049" style="fill: #9467bd; stroke: #9467bd"/>
     <use xlink:href="#mf95d2f05ea" x="685.034874" y="73.243049" style="fill: #9467bd; stroke: #9467bd"/>
     <use xlink:href="#mf95d2f05ea" x="695.165303" y="73.243049" style="fill: #9467bd; stroke: #9467bd"/>
     <use xlink:href="#mf95d2f05ea" x="705.295732" y="73.243049" style="fill: #9467bd; stroke: #9467bd"/>
     <use xlink:href="#mf95d2f05ea" x="715.426162" y="73.243049" style="fill: #9467bd; stroke: #9467bd"/>
     <use xlink:href="#mf95d2f05ea" x="725.556591" y="73.243049" style="fill: #9467bd; stroke: #9467bd"/>
     <use xlink:href="#mf95d2f05ea" x="735.68702" y="73.243049" style="fill: #9467bd; stroke: #9467bd"/>
     <use xlink:href="#mf95d2f05ea" x="745.817449" y="73.243049" style="fill: #9467bd; stroke: #9467bd"/>
     <use xlink:href="#mf95d2f05ea" x="755.947879" y="73.243049" style="fill: #9467bd; stroke: #9467bd"/>
     <use xlink:href="#mf95d2f05ea" x="766.078308" y="73.243049" style="fill: #9467bd; stroke: #9467bd"/>
     <use xlink:href="#mf95d2f05ea" x="776.208737" y="73.243049" style="fill: #9467bd; stroke: #9467bd"/>
     <use xlink:href="#mf95d2f05ea" x="786.339167" y="73.243049" style="fill: #9467bd; stroke: #9467bd"/>
     <use xlink:href="#mf95d2f05ea" x="796.469596" y="73.243049" style="fill: #9467bd; stroke: #9467bd"/>
     <use xlink:href="#mf95d2f05ea" x="806.600025" y="73.243049" style="fill: #9467bd; stroke: #9467bd"/>
     <use xlink:href="#mf95d2f05ea" x="816.730455" y="73.243049" style="fill: #9467bd; stroke: #9467bd"/>
    </g>
   </g>
   <g id="line2d_28">
    <path d="M 87.339545 381.249505 
L 97.469975 356.493111 
L 107.600404 330.175503 
L 117.730833 314.117301 
L 127.861263 296.274855 
L 137.991692 273.079675 
L 148.122121 253.229954 
L 158.252551 236.27963 
L 168.38298 201.932921 
L 178.513409 182.975322 
L 188.643838 148.851644 
L 198.774268 132.124351 
L 208.904697 79.712165 
L 239.295985 79.712165 
L 249.426414 79.712165 
L 259.556843 79.712165 
L 269.687273 79.712165 
L 279.817702 79.712165 
L 300.078561 79.712165 
L 310.20899 79.712165 
L 320.339419 79.712165 
L 330.469848 79.712165 
L 340.600278 79.712165 
L 350.730707 66.33033 
L 360.861136 66.33033 
L 370.991566 66.33033 
L 381.121995 66.33033 
L 391.252424 66.33033 
L 401.382854 44.027273 
L 411.513283 44.027273 
L 421.643712 44.027273 
L 431.774141 44.027273 
L 441.904571 44.027273 
L 452.035 44.027273 
L 462.165429 44.027273 
L 472.295859 44.027273 
L 482.426288 44.027273 
L 492.556717 44.027273 
L 502.687146 44.027273 
L 512.817576 44.027273 
L 522.948005 44.027273 
L 533.078434 44.027273 
L 543.208864 44.027273 
L 553.339293 44.027273 
L 563.469722 44.027273 
L 573.600152 44.027273 
L 583.730581 44.027273 
L 593.86101 44.027273 
L 603.991439 44.027273 
L 614.121869 44.027273 
L 624.252298 44.027273 
L 634.382727 44.027273 
L 644.513157 44.027273 
L 654.643586 44.027273 
L 664.774015 44.027273 
L 674.904444 44.027273 
L 685.034874 44.027273 
L 695.165303 44.027273 
L 705.295732 44.027273 
L 715.426162 44.027273 
L 725.556591 44.027273 
L 735.68702 44.027273 
L 745.817449 44.027273 
L 755.947879 44.027273 
L 766.078308 44.027273 
L 776.208737 44.027273 
L 786.339167 44.027273 
L 796.469596 44.027273 
L 806.600025 44.027273 
L 816.730455 44.027273 
" clip-path="url(#pd7f99c036c)" style="fill: none; stroke: #8c564b; stroke-width: 1.5; stroke-linecap: square"/>
    <defs>
     <path id="m63da7f6161" d="M 0 3.5 
C 0.928211 3.5 1.81853 3.131218 2.474874 2.474874 
C 3.131218 1.81853 3.5 0.928211 3.5 0 
C 3.5 -0.928211 3.131218 -1.81853 2.474874 -2.474874 
C 1.81853 -3.131218 0.928211 -3.5 0 -3.5 
C -0.928211 -3.5 -1.81853 -3.131218 -2.474874 -2.474874 
C -3.131218 -1.81853 -3.5 -0.928211 -3.5 0 
C -3.5 0.928211 -3.131218 1.81853 -2.474874 2.474874 
C -1.81853 3.131218 -0.928211 3.5 0 3.5 
z
" style="stroke: #8c564b"/>
    </defs>
    <g clip-path="url(#pd7f99c036c)">
     <use xlink:href="#m63da7f6161" x="87.339545" y="381.249505" style="fill: #8c564b; stroke: #8c564b"/>
     <use xlink:href="#m63da7f6161" x="97.469975" y="356.493111" style="fill: #8c564b; stroke: #8c564b"/>
     <use xlink:href="#m63da7f6161" x="107.600404" y="330.175503" style="fill: #8c564b; stroke: #8c564b"/>
     <use xlink:href="#m63da7f6161" x="117.730833" y="314.117301" style="fill: #8c564b; stroke: #8c564b"/>
     <use xlink:href="#m63da7f6161" x="127.861263" y="296.274855" style="fill: #8c564b; stroke: #8c564b"/>
     <use xlink:href="#m63da7f6161" x="137.991692" y="273.079675" style="fill: #8c564b; stroke: #8c564b"/>
     <use xlink:href="#m63da7f6161" x="148.122121" y="253.229954" style="fill: #8c564b; stroke: #8c564b"/>
     <use xlink:href="#m63da7f6161" x="158.252551" y="236.27963" style="fill: #8c564b; stroke: #8c564b"/>
     <use xlink:href="#m63da7f6161" x="168.38298" y="201.932921" style="fill: #8c564b; stroke: #8c564b"/>
     <use xlink:href="#m63da7f6161" x="178.513409" y="182.975322" style="fill: #8c564b; stroke: #8c564b"/>
     <use xlink:href="#m63da7f6161" x="188.643838" y="148.851644" style="fill: #8c564b; stroke: #8c564b"/>
     <use xlink:href="#m63da7f6161" x="198.774268" y="132.124351" style="fill: #8c564b; stroke: #8c564b"/>
     <use xlink:href="#m63da7f6161" x="208.904697" y="79.712165" style="fill: #8c564b; stroke: #8c564b"/>
     <use xlink:href="#m63da7f6161" x="239.295985" y="79.712165" style="fill: #8c564b; stroke: #8c564b"/>
     <use xlink:href="#m63da7f6161" x="249.426414" y="79.712165" style="fill: #8c564b; stroke: #8c564b"/>
     <use xlink:href="#m63da7f6161" x="259.556843" y="79.712165" style="fill: #8c564b; stroke: #8c564b"/>
     <use xlink:href="#m63da7f6161" x="269.687273" y="79.712165" style="fill: #8c564b; stroke: #8c564b"/>
     <use xlink:href="#m63da7f6161" x="279.817702" y="79.712165" style="fill: #8c564b; stroke: #8c564b"/>
     <use xlink:href="#m63da7f6161" x="300.078561" y="79.712165" style="fill: #8c564b; stroke: #8c564b"/>
     <use xlink:href="#m63da7f6161" x="310.20899" y="79.712165" style="fill: #8c564b; stroke: #8c564b"/>
     <use xlink:href="#m63da7f6161" x="320.339419" y="79.712165" style="fill: #8c564b; stroke: #8c564b"/>
     <use xlink:href="#m63da7f6161" x="330.469848" y="79.712165" style="fill: #8c564b; stroke: #8c564b"/>
     <use xlink:href="#m63da7f6161" x="340.600278" y="79.712165" style="fill: #8c564b; stroke: #8c564b"/>
     <use xlink:href="#m63da7f6161" x="350.730707" y="66.33033" style="fill: #8c564b; stroke: #8c564b"/>
     <use xlink:href="#m63da7f6161" x="360.861136" y="66.33033" style="fill: #8c564b; stroke: #8c564b"/>
     <use xlink:href="#m63da7f6161" x="370.991566" y="66.33033" style="fill: #8c564b; stroke: #8c564b"/>
     <use xlink:href="#m63da7f6161" x="381.121995" y="66.33033" style="fill: #8c564b; stroke: #8c564b"/>
     <use xlink:href="#m63da7f6161" x="391.252424" y="66.33033" style="fill: #8c564b; stroke: #8c564b"/>
     <use xlink:href="#m63da7f6161" x="401.382854" y="44.027273" style="fill: #8c564b; stroke: #8c564b"/>
     <use xlink:href="#m63da7f6161" x="411.513283" y="44.027273" style="fill: #8c564b; stroke: #8c564b"/>
     <use xlink:href="#m63da7f6161" x="421.643712" y="44.027273" style="fill: #8c564b; stroke: #8c564b"/>
     <use xlink:href="#m63da7f6161" x="431.774141" y="44.027273" style="fill: #8c564b; stroke: #8c564b"/>
     <use xlink:href="#m63da7f6161" x="441.904571" y="44.027273" style="fill: #8c564b; stroke: #8c564b"/>
     <use xlink:href="#m63da7f6161" x="452.035" y="44.027273" style="fill: #8c564b; stroke: #8c564b"/>
     <use xlink:href="#m63da7f6161" x="462.165429" y="44.027273" style="fill: #8c564b; stroke: #8c564b"/>
     <use xlink:href="#m63da7f6161" x="472.295859" y="44.027273" style="fill: #8c564b; stroke: #8c564b"/>
     <use xlink:href="#m63da7f6161" x="482.426288" y="44.027273" style="fill: #8c564b; stroke: #8c564b"/>
     <use xlink:href="#m63da7f6161" x="492.556717" y="44.027273" style="fill: #8c564b; stroke: #8c564b"/>
     <use xlink:href="#m63da7f6161" x="502.687146" y="44.027273" style="fill: #8c564b; stroke: #8c564b"/>
     <use xlink:href="#m63da7f6161" x="512.817576" y="44.027273" style="fill: #8c564b; stroke: #8c564b"/>
     <use xlink:href="#m63da7f6161" x="522.948005" y="44.027273" style="fill: #8c564b; stroke: #8c564b"/>
     <use xlink:href="#m63da7f6161" x="533.078434" y="44.027273" style="fill: #8c564b; stroke: #8c564b"/>
     <use xlink:href="#m63da7f6161" x="543.208864" y="44.027273" style="fill: #8c564b; stroke: #8c564b"/>
     <use xlink:href="#m63da7f6161" x="553.339293" y="44.027273" style="fill: #8c564b; stroke: #8c564b"/>
     <use xlink:href="#m63da7f6161" x="563.469722" y="44.027273" style="fill: #8c564b; stroke: #8c564b"/>
     <use xlink:href="#m63da7f6161" x="573.600152" y="44.027273" style="fill: #8c564b; stroke: #8c564b"/>
     <use xlink:href="#m63da7f6161" x="583.730581" y="44.027273" style="fill: #8c564b; stroke: #8c564b"/>
     <use xlink:href="#m63da7f6161" x="593.86101" y="44.027273" style="fill: #8c564b; stroke: #8c564b"/>
     <use xlink:href="#m63da7f6161" x="603.991439" y="44.027273" style="fill: #8c564b; stroke: #8c564b"/>
     <use xlink:href="#m63da7f6161" x="614.121869" y="44.027273" style="fill: #8c564b; stroke: #8c564b"/>
     <use xlink:href="#m63da7f6161" x="624.252298" y="44.027273" style="fill: #8c564b; stroke: #8c564b"/>
     <use xlink:href="#m63da7f6161" x="634.382727" y="44.027273" style="fill: #8c564b; stroke: #8c564b"/>
     <use xlink:href="#m63da7f6161" x="644.513157" y="44.027273" style="fill: #8c564b; stroke: #8c564b"/>
     <use xlink:href="#m63da7f6161" x="654.643586" y="44.027273" style="fill: #8c564b; stroke: #8c564b"/>
     <use xlink:href="#m63da7f6161" x="664.774015" y="44.027273" style="fill: #8c564b; stroke: #8c564b"/>
     <use xlink:href="#m63da7f6161" x="674.904444" y="44.027273" style="fill: #8c564b; stroke: #8c564b"/>
     <use xlink:href="#m63da7f6161" x="685.034874" y="44.027273" style="fill: #8c564b; stroke: #8c564b"/>
     <use xlink:href="#m63da7f6161" x="695.165303" y="44.027273" style="fill: #8c564b; stroke: #8c564b"/>
     <use xlink:href="#m63da7f6161" x="705.295732" y="44.027273" style="fill: #8c564b; stroke: #8c564b"/>
     <use xlink:href="#m63da7f6161" x="715.426162" y="44.027273" style="fill: #8c564b; stroke: #8c564b"/>
     <use xlink:href="#m63da7f6161" x="725.556591" y="44.027273" style="fill: #8c564b; stroke: #8c564b"/>
     <use xlink:href="#m63da7f6161" x="735.68702" y="44.027273" style="fill: #8c564b; stroke: #8c564b"/>
     <use xlink:href="#m63da7f6161" x="745.817449" y="44.027273" style="fill: #8c564b; stroke: #8c564b"/>
     <use xlink:href="#m63da7f6161" x="755.947879" y="44.027273" style="fill: #8c564b; stroke: #8c564b"/>
     <use xlink:href="#m63da7f6161" x="766.078308" y="44.027273" style="fill: #8c564b; stroke: #8c564b"/>
     <use xlink:href="#m63da7f6161" x="776.208737" y="44.027273" style="fill: #8c564b; stroke: #8c564b"/>
     <use xlink:href="#m63da7f6161" x="786.339167" y="44.027273" style="fill: #8c564b; stroke: #8c564b"/>
     <use xlink:href="#m63da7f6161" x="796.469596" y="44.027273" style="fill: #8c564b; stroke: #8c564b"/>
     <use xlink:href="#m63da7f6161" x="806.600025" y="44.027273" style="fill: #8c564b; stroke: #8c564b"/>
     <use xlink:href="#m63da7f6161" x="816.730455" y="44.027273" style="fill: #8c564b; stroke: #8c564b"/>
    </g>
   </g>
   <g id="patch_3">
    <path d="M 50.87 404.12 
L 50.87 26.88 
" style="fill: none; stroke: #000000; stroke-width: 0.8; stroke-linejoin: miter; stroke-linecap: square"/>
   </g>
   <g id="patch_4">
    <path d="M 853.2 404.12 
L 853.2 26.88 
" style="fill: none; stroke: #000000; stroke-width: 0.8; stroke-linejoin: miter; stroke-linecap: square"/>
   </g>
   <g id="patch_5">
    <path d="M 50.87 404.12 
L 853.2 404.12 
" style="fill: none; stroke: #000000; stroke-width: 0.8; stroke-linejoin: miter; stroke-linecap: square"/>
   </g>
   <g id="patch_6">
    <path d="M 50.87 26.88 
L 853.2 26.88 
" style="fill: none; stroke: #000000; stroke-width: 0.8; stroke-linejoin: miter; stroke-linecap: square"/>
   </g>
   <g id="text_13">
    <!-- Standings -->
    <g transform="translate(422.18125 20.88) scale(0.12 -0.12)">
     <defs>
      <path id="DejaVuSans-74" d="M 1172 4494 
L 1172 3500 
L 2356 3500 
L 2356 3053 
L 1172 3053 
L 1172 1153 
Q 1172 725 1289 603 
Q 1406 481 1766 481 
L 2356 481 
L 2356 0 
L 1766 0 
Q 1100 0 847 248 
Q 594 497 594 1153 
L 594 3053 
L 172 3053 
L 172 3500 
L 594 3500 
L 594 4494 
L 1172 4494 
z
" transform="scale(0.015625)"/>
      <path id="DejaVuSans-61" d="M 2194 1759 
Q 1497 1759 1228 1600 
Q 959 1441 959 1056 
Q 959 750 1161 570 
Q 1363 391 1709 391 
Q 2188 391 2477 730 
Q 2766 1069 2766 1631 
L 2766 1759 
L 2194 1759 
z
M 3341 1997 
L 3341 0 
L 2766 0 
L 2766 531 
Q 2569 213 2275 61 
Q 1981 -91 1556 -91 
Q 1019 -91 701 211 
Q 384 513 384 1019 
Q 384 1609 779 1909 
Q 1175 2209 1959 2209 
L 2766 2209 
L 2766 2266 
Q 2766 2663 2505 2880 
Q 2244 3097 1772 3097 
Q 1472 3097 1187 3025 
Q 903 2953 641 2809 
L 641 3341 
Q 956 3463 1253 3523 
Q 1550 3584 1831 3584 
Q 2591 3584 2966 3190 
Q 3341 2797 3341 1997 
z
" transform="scale(0.015625)"/>
      <path id="DejaVuSans-6e" d="M 3513 2113 
L 3513 0 
L 2938 0 
L 2938 2094 
Q 2938 2591 2744 2837 
Q 2550 3084 2163 3084 
Q 1697 3084 1428 2787 
Q 1159 2491 1159 1978 
L 1159 0 
L 581 0 
L 581 3500 
L 1159 3500 
L 1159 2956 
Q 1366 3272 1645 3428 
Q 1925 3584 2291 3584 
Q 2894 3584 3203 3211 
Q 3513 2838 3513 2113 
z
" transform="scale(0.015625)"/>
      <path id="DejaVuSans-64" d="M 2906 2969 
L 2906 4863 
L 3481 4863 
L 3481 0 
L 2906 0 
L 2906 525 
Q 2725 213 2448 61 
Q 2172 -91 1784 -91 
Q 1150 -91 751 415 
Q 353 922 353 1747 
Q 353 2572 751 3078 
Q 1150 3584 1784 3584 
Q 2172 3584 2448 3432 
Q 2725 3281 2906 2969 
z
M 947 1747 
Q 947 1113 1208 752 
Q 1469 391 1925 391 
Q 2381 391 2643 752 
Q 2906 1113 2906 1747 
Q 2906 2381 2643 2742 
Q 2381 3103 1925 3103 
Q 1469 3103 1208 2742 
Q 947 2381 947 1747 
z
" transform="scale(0.015625)"/>
      <path id="DejaVuSans-69" d="M 603 3500 
L 1178 3500 
L 1178 0 
L 603 0 
L 603 3500 
z
M 603 4863 
L 1178 4863 
L 1178 4134 
L 603 4134 
L 603 4863 
z
" transform="scale(0.015625)"/>
      <path id="DejaVuSans-67" d="M 2906 1791 
Q 2906 2416 2648 2759 
Q 2391 3103 1925 3103 
Q 1463 3103 1205 2759 
Q 947 2416 947 1791 
Q 947 1169 1205 825 
Q 1463 481 1925 481 
Q 2391 481 2648 825 
Q 2906 1169 2906 1791 
z
M 3481 434 
Q 3481 -459 3084 -895 
Q 2688 -1331 1869 -1331 
Q 1566 -1331 1297 -1286 
Q 1028 -1241 775 -1147 
L 775 -588 
Q 1028 -725 1275 -790 
Q 1522 -856 1778 -856 
Q 2344 -856 2625 -561 
Q 2906 -266 2906 331 
L 2906 616 
Q 2728 306 2450 153 
Q 2172 0 1784 0 
Q 1141 0 747 490 
Q 353 981 353 1791 
Q 353 2603 747 3093 
Q 1141 3584 1784 3584 
Q 2172 3584 2450 3431 
Q 2728 3278 2906 2969 
L 2906 3500 
L 3481 3500 
L 3481 434 
z
" transform="scale(0.015625)"/>
      <path id="DejaVuSans-73" d="M 2834 3397 
L 2834 2853 
Q 2591 2978 2328 3040 
Q 2066 3103 1784 3103 
Q 1356 3103 1142 2972 
Q 928 2841 928 2578 
Q 928 2378 1081 2264 
Q 1234 2150 1697 2047 
L 1894 2003 
Q 2506 1872 2764 1633 
Q 3022 1394 3022 966 
Q 3022 478 2636 193 
Q 2250 -91 1575 -91 
Q 1294 -91 989 -36 
Q 684 19 347 128 
L 347 722 
Q 666 556 975 473 
Q 1284 391 1588 391 
Q 1994 391 2212 530 
Q 2431 669 2431 922 
Q 2431 1156 2273 1281 
Q 2116 1406 1581 1522 
L 1381 1569 
Q 847 1681 609 1914 
Q 372 2147 372 2553 
Q 372 3047 722 3315 
Q 1072 3584 1716 3584 
Q 2034 3584 2315 3537 
Q 2597 3491 2834 3397 
z
" transform="scale(0.015625)"/>
     </defs>
     <use xlink:href="#DejaVuSans-53"/>
     <use xlink:href="#DejaVuSans-74" x="63.476562"/>
     <use xlink:href="#DejaVuSans-61" x="102.685547"/>
     <use xlink:href="#DejaVuSans-6e" x="163.964844"/>
     <use xlink:href="#DejaVuSans-64" x="227.34375"/>
     <use xlink:href="#DejaVuSans-69" x="290.820312"/>
     <use xlink:href="#DejaVuSans-6e" x="318.603516"/>
     <use xlink:href="#DejaVuSans-67" x="381.982422"/>
     <use xlink:href="#DejaVuSans-73" x="445.458984"/>
    </g>
   </g>
   <g id="legend_1">
    <g id="patch_7">
     <path d="M 639.351562 399.12 
L 846.2 399.12 
Q 848.2 399.12 848.2 397.12 
L 848.2 310.05125 
Q 848.2 308.05125 846.2 308.05125 
L 639.351562 308.05125 
Q 637.351562 308.05125 637.351562 310.05125 
L 637.351562 397.12 
Q 637.351562 399.12 639.351562 399.12 
z
" style="fill: #ffffff; opacity: 0.8; stroke: #cccccc; stroke-linejoin: miter"/>
    </g>
    <g id="line2d_29">
     <path d="M 641.351562 316.149688 
L 651.351562 316.149688 
L 661.351562 316.149688 
" style="fill: none; stroke: #1f77b4; stroke-width: 1.5; stroke-linecap: square"/>
     <g>
      <use xlink:href="#mff1f008999" x="651.351562" y="316.149688" style="fill: #1f77b4; stroke: #1f77b4"/>
     </g>
    </g>
    <g id="text_14">
     <!-- European Sperm Bank -->
     <g transform="translate(669.351562 319.649688) scale(0.1 -0.1)">
      <defs>
       <path id="DejaVuSans-45" d="M 628 4666 
L 3578 4666 
L 3578 4134 
L 1259 4134 
L 1259 2753 
L 3481 2753 
L 3481 2222 
L 1259 2222 
L 1259 531 
L 3634 531 
L 3634 0 
L 628 0 
L 628 4666 
z
" transform="scale(0.015625)"/>
       <path id="DejaVuSans-75" d="M 544 1381 
L 544 3500 
L 1119 3500 
L 1119 1403 
Q 1119 906 1312 657 
Q 1506 409 1894 409 
Q 2359 409 2629 706 
Q 2900 1003 2900 1516 
L 2900 3500 
L 3475 3500 
L 3475 0 
L 2900 0 
L 2900 538 
Q 2691 219 2414 64 
Q 2138 -91 1772 -91 
Q 1169 -91 856 284 
Q 544 659 544 1381 
z
M 1991 3584 
L 1991 3584 
z
" transform="scale(0.015625)"/>
       <path id="DejaVuSans-70" d="M 1159 525 
L 1159 -1331 
L 581 -1331 
L 581 3500 
L 1159 3500 
L 1159 2969 
Q 1341 3281 1617 3432 
Q 1894 3584 2278 3584 
Q 2916 3584 3314 3078 
Q 3713 2572 3713 1747 
Q 3713 922 3314 415 
Q 2916 -91 2278 -91 
Q 1894 -91 1617 61 
Q 1341 213 1159 525 
z
M 3116 1747 
Q 3116 2381 2855 2742 
Q 2594 3103 2138 3103 
Q 1681 3103 1420 2742 
Q 1159 2381 1159 1747 
Q 1159 1113 1420 752 
Q 1681 391 2138 391 
Q 2594 391 2855 752 
Q 3116 1113 3116 1747 
z
" transform="scale(0.015625)"/>
       <path id="DejaVuSans-20" transform="scale(0.015625)"/>
       <path id="DejaVuSans-6d" d="M 3328 2828 
Q 3544 3216 3844 3400 
Q 4144 3584 4550 3584 
Q 5097 3584 5394 3201 
Q 5691 2819 5691 2113 
L 5691 0 
L 5113 0 
L 5113 2094 
Q 5113 2597 4934 2840 
Q 4756 3084 4391 3084 
Q 3944 3084 3684 2787 
Q 3425 2491 3425 1978 
L 3425 0 
L 2847 0 
L 2847 2094 
Q 2847 2600 2669 2842 
Q 2491 3084 2119 3084 
Q 1678 3084 1418 2786 
Q 1159 2488 1159 1978 
L 1159 0 
L 581 0 
L 581 3500 
L 1159 3500 
L 1159 2956 
Q 1356 3278 1631 3431 
Q 1906 3584 2284 3584 
Q 2666 3584 2933 3390 
Q 3200 3197 3328 2828 
z
" transform="scale(0.015625)"/>
       <path id="DejaVuSans-42" d="M 1259 2228 
L 1259 519 
L 2272 519 
Q 2781 519 3026 730 
Q 3272 941 3272 1375 
Q 3272 1813 3026 2020 
Q 2781 2228 2272 2228 
L 1259 2228 
z
M 1259 4147 
L 1259 2741 
L 2194 2741 
Q 2656 2741 2882 2914 
Q 3109 3088 3109 3444 
Q 3109 3797 2882 3972 
Q 2656 4147 2194 4147 
L 1259 4147 
z
M 628 4666 
L 2241 4666 
Q 2963 4666 3353 4366 
Q 3744 4066 3744 3513 
Q 3744 3084 3544 2831 
Q 3344 2578 2956 2516 
Q 3422 2416 3680 2098 
Q 3938 1781 3938 1306 
Q 3938 681 3513 340 
Q 3088 0 2303 0 
L 628 0 
L 628 4666 
z
" transform="scale(0.015625)"/>
       <path id="DejaVuSans-6b" d="M 581 4863 
L 1159 4863 
L 1159 1991 
L 2875 3500 
L 3609 3500 
L 1753 1863 
L 3688 0 
L 2938 0 
L 1159 1709 
L 1159 0 
L 581 0 
L 581 4863 
z
" transform="scale(0.015625)"/>
      </defs>
      <use xlink:href="#DejaVuSans-45"/>
      <use xlink:href="#DejaVuSans-75" x="63.183594"/>
      <use xlink:href="#DejaVuSans-72" x="126.5625"/>
      <use xlink:href="#DejaVuSans-6f" x="165.425781"/>
      <use xlink:href="#DejaVuSans-70" x="226.607422"/>
      <use xlink:href="#DejaVuSans-65" x="290.083984"/>
      <use xlink:href="#DejaVuSans-61" x="351.607422"/>
      <use xlink:href="#DejaVuSans-6e" x="412.886719"/>
      <use xlink:href="#DejaVuSans-20" x="476.265625"/>
      <use xlink:href="#DejaVuSans-53" x="508.052734"/>
      <use xlink:href="#DejaVuSans-70" x="571.529297"/>
      <use xlink:href="#DejaVuSans-65" x="635.005859"/>
      <use xlink:href="#DejaVuSans-72" x="696.529297"/>
      <use xlink:href="#DejaVuSans-6d" x="735.892578"/>
      <use xlink:href="#DejaVuSans-20" x="833.304688"/>
      <use xlink:href="#DejaVuSans-42" x="865.091797"/>
      <use xlink:href="#DejaVuSans-61" x="933.695312"/>
      <use xlink:href="#DejaVuSans-6e" x="994.974609"/>
      <use xlink:href="#DejaVuSans-6b" x="1058.353516"/>
     </g>
    </g>
    <g id="line2d_30">
     <path d="M 641.351562 330.827812 
L 651.351562 330.827812 
L 661.351562 330.827812 
" style="fill: none; stroke: #ff7f0e; stroke-width: 1.5; stroke-linecap: square"/>
     <g>
      <use xlink:href="#m7b28bb1f11" x="651.351562" y="330.827812" style="fill: #ff7f0e; stroke: #ff7f0e"/>
     </g>
    </g>
    <g id="text_15">
     <!-- Frederiksborg Gymnasium -->
     <g transform="translate(669.351562 334.327812) scale(0.1 -0.1)">
      <defs>
       <path id="DejaVuSans-46" d="M 628 4666 
L 3309 4666 
L 3309 4134 
L 1259 4134 
L 1259 2759 
L 3109 2759 
L 3109 2228 
L 1259 2228 
L 1259 0 
L 628 0 
L 628 4666 
z
" transform="scale(0.015625)"/>
       <path id="DejaVuSans-62" d="M 3116 1747 
Q 3116 2381 2855 2742 
Q 2594 3103 2138 3103 
Q 1681 3103 1420 2742 
Q 1159 2381 1159 1747 
Q 1159 1113 1420 752 
Q 1681 391 2138 391 
Q 2594 391 2855 752 
Q 3116 1113 3116 1747 
z
M 1159 2969 
Q 1341 3281 1617 3432 
Q 1894 3584 2278 3584 
Q 2916 3584 3314 3078 
Q 3713 2572 3713 1747 
Q 3713 922 3314 415 
Q 2916 -91 2278 -91 
Q 1894 -91 1617 61 
Q 1341 213 1159 525 
L 1159 0 
L 581 0 
L 581 4863 
L 1159 4863 
L 1159 2969 
z
" transform="scale(0.015625)"/>
       <path id="DejaVuSans-47" d="M 3809 666 
L 3809 1919 
L 2778 1919 
L 2778 2438 
L 4434 2438 
L 4434 434 
Q 4069 175 3628 42 
Q 3188 -91 2688 -91 
Q 1594 -91 976 548 
Q 359 1188 359 2328 
Q 359 3472 976 4111 
Q 1594 4750 2688 4750 
Q 3144 4750 3555 4637 
Q 3966 4525 4313 4306 
L 4313 3634 
Q 3963 3931 3569 4081 
Q 3175 4231 2741 4231 
Q 1884 4231 1454 3753 
Q 1025 3275 1025 2328 
Q 1025 1384 1454 906 
Q 1884 428 2741 428 
Q 3075 428 3337 486 
Q 3600 544 3809 666 
z
" transform="scale(0.015625)"/>
       <path id="DejaVuSans-79" d="M 2059 -325 
Q 1816 -950 1584 -1140 
Q 1353 -1331 966 -1331 
L 506 -1331 
L 506 -850 
L 844 -850 
Q 1081 -850 1212 -737 
Q 1344 -625 1503 -206 
L 1606 56 
L 191 3500 
L 800 3500 
L 1894 763 
L 2988 3500 
L 3597 3500 
L 2059 -325 
z
" transform="scale(0.015625)"/>
      </defs>
      <use xlink:href="#DejaVuSans-46"/>
      <use xlink:href="#DejaVuSans-72" x="50.269531"/>
      <use xlink:href="#DejaVuSans-65" x="89.132812"/>
      <use xlink:href="#DejaVuSans-64" x="150.65625"/>
      <use xlink:href="#DejaVuSans-65" x="214.132812"/>
      <use xlink:href="#DejaVuSans-72" x="275.65625"/>
      <use xlink:href="#DejaVuSans-69" x="316.769531"/>
      <use xlink:href="#DejaVuSans-6b" x="344.552734"/>
      <use xlink:href="#DejaVuSans-73" x="402.462891"/>
      <use xlink:href="#DejaVuSans-62" x="454.5625"/>
      <use xlink:href="#DejaVuSans-6f" x="518.039062"/>
      <use xlink:href="#DejaVuSans-72" x="579.220703"/>
      <use xlink:href="#DejaVuSans-67" x="618.583984"/>
      <use xlink:href="#DejaVuSans-20" x="682.060547"/>
      <use xlink:href="#DejaVuSans-47" x="713.847656"/>
      <use xlink:href="#DejaVuSans-79" x="791.337891"/>
      <use xlink:href="#DejaVuSans-6d" x="850.517578"/>
      <use xlink:href="#DejaVuSans-6e" x="947.929688"/>
      <use xlink:href="#DejaVuSans-61" x="1011.308594"/>
      <use xlink:href="#DejaVuSans-73" x="1072.587891"/>
      <use xlink:href="#DejaVuSans-69" x="1124.6875"/>
      <use xlink:href="#DejaVuSans-75" x="1152.470703"/>
      <use xlink:href="#DejaVuSans-6d" x="1215.849609"/>
     </g>
    </g>
    <g id="line2d_31">
     <path d="M 641.351562 345.505938 
L 651.351562 345.505938 
L 661.351562 345.505938 
" style="fill: none; stroke: #2ca02c; stroke-width: 1.5; stroke-linecap: square"/>
     <g>
      <use xlink:href="#m3cddb8b08d" x="651.351562" y="345.505938" style="fill: #2ca02c; stroke: #2ca02c"/>
     </g>
    </g>
    <g id="text_16">
     <!-- Friends and Family -->
     <g transform="translate(669.351562 349.005938) scale(0.1 -0.1)">
      <defs>
       <path id="DejaVuSans-6c" d="M 603 4863 
L 1178 4863 
L 1178 0 
L 603 0 
L 603 4863 
z
" transform="scale(0.015625)"/>
      </defs>
      <use xlink:href="#DejaVuSans-46"/>
      <use xlink:href="#DejaVuSans-72" x="50.269531"/>
      <use xlink:href="#DejaVuSans-69" x="91.382812"/>
      <use xlink:href="#DejaVuSans-65" x="119.166016"/>
      <use xlink:href="#DejaVuSans-6e" x="180.689453"/>
      <use xlink:href="#DejaVuSans-64" x="244.068359"/>
      <use xlink:href="#DejaVuSans-73" x="307.544922"/>
      <use xlink:href="#DejaVuSans-20" x="359.644531"/>
      <use xlink:href="#DejaVuSans-61" x="391.431641"/>
      <use xlink:href="#DejaVuSans-6e" x="452.710938"/>
      <use xlink:href="#DejaVuSans-64" x="516.089844"/>
      <use xlink:href="#DejaVuSans-20" x="579.566406"/>
      <use xlink:href="#DejaVuSans-46" x="611.353516"/>
      <use xlink:href="#DejaVuSans-61" x="659.748047"/>
      <use xlink:href="#DejaVuSans-6d" x="721.027344"/>
      <use xlink:href="#DejaVuSans-69" x="818.439453"/>
      <use xlink:href="#DejaVuSans-6c" x="846.222656"/>
      <use xlink:href="#DejaVuSans-79" x="874.005859"/>
     </g>
    </g>
    <g id="line2d_32">
     <path d="M 641.351562 360.184062 
L 651.351562 360.184062 
L 661.351562 360.184062 
" style="fill: none; stroke: #d62728; stroke-width: 1.5; stroke-linecap: square"/>
     <g>
      <use xlink:href="#me698b06d3d" x="651.351562" y="360.184062" style="fill: #d62728; stroke: #d62728"/>
     </g>
    </g>
    <g id="text_17">
     <!-- GeH Fys -->
     <g transform="translate(669.351562 363.684062) scale(0.1 -0.1)">
      <defs>
       <path id="DejaVuSans-48" d="M 628 4666 
L 1259 4666 
L 1259 2753 
L 3553 2753 
L 3553 4666 
L 4184 4666 
L 4184 0 
L 3553 0 
L 3553 2222 
L 1259 2222 
L 1259 0 
L 628 0 
L 628 4666 
z
" transform="scale(0.015625)"/>
      </defs>
      <use xlink:href="#DejaVuSans-47"/>
      <use xlink:href="#DejaVuSans-65" x="77.490234"/>
      <use xlink:href="#DejaVuSans-48" x="139.013672"/>
      <use xlink:href="#DejaVuSans-20" x="214.208984"/>
      <use xlink:href="#DejaVuSans-46" x="245.996094"/>
      <use xlink:href="#DejaVuSans-79" x="294.390625"/>
      <use xlink:href="#DejaVuSans-73" x="353.570312"/>
     </g>
    </g>
    <g id="line2d_33">
     <path d="M 641.351562 374.862188 
L 651.351562 374.862188 
L 661.351562 374.862188 
" style="fill: none; stroke: #9467bd; stroke-width: 1.5; stroke-linecap: square"/>
     <g>
      <use xlink:href="#mf95d2f05ea" x="651.351562" y="374.862188" style="fill: #9467bd; stroke: #9467bd"/>
     </g>
    </g>
    <g id="text_18">
     <!-- Next11 -->
     <g transform="translate(669.351562 378.362188) scale(0.1 -0.1)">
      <defs>
       <path id="DejaVuSans-4e" d="M 628 4666 
L 1478 4666 
L 3547 763 
L 3547 4666 
L 4159 4666 
L 4159 0 
L 3309 0 
L 1241 3903 
L 1241 0 
L 628 0 
L 628 4666 
z
" transform="scale(0.015625)"/>
       <path id="DejaVuSans-78" d="M 3513 3500 
L 2247 1797 
L 3578 0 
L 2900 0 
L 1881 1375 
L 863 0 
L 184 0 
L 1544 1831 
L 300 3500 
L 978 3500 
L 1906 2253 
L 2834 3500 
L 3513 3500 
z
" transform="scale(0.015625)"/>
      </defs>
      <use xlink:href="#DejaVuSans-4e"/>
      <use xlink:href="#DejaVuSans-65" x="74.804688"/>
      <use xlink:href="#DejaVuSans-78" x="134.578125"/>
      <use xlink:href="#DejaVuSans-74" x="193.757812"/>
      <use xlink:href="#DejaVuSans-31" x="232.966797"/>
      <use xlink:href="#DejaVuSans-31" x="296.589844"/>
     </g>
    </g>
    <g id="line2d_34">
     <path d="M 641.351562 389.540313 
L 651.351562 389.540313 
L 661.351562 389.540313 
" style="fill: none; stroke: #8c564b; stroke-width: 1.5; stroke-linecap: square"/>
     <g>
      <use xlink:href="#m63da7f6161" x="651.351562" y="389.540313" style="fill: #8c564b; stroke: #8c564b"/>
     </g>
    </g>
    <g id="text_19">
     <!-- Quantum and Laser Photonics DTU -->
     <g transform="translate(669.351562 393.040313) scale(0.1 -0.1)">
      <defs>
       <path id="DejaVuSans-51" d="M 2522 4238 
Q 1834 4238 1429 3725 
Q 1025 3213 1025 2328 
Q 1025 1447 1429 934 
Q 1834 422 2522 422 
Q 3209 422 3611 934 
Q 4013 1447 4013 2328 
Q 4013 3213 3611 3725 
Q 3209 4238 2522 4238 
z
M 3406 84 
L 4238 -825 
L 3475 -825 
L 2784 -78 
Q 2681 -84 2626 -87 
Q 2572 -91 2522 -91 
Q 1538 -91 948 567 
Q 359 1225 359 2328 
Q 359 3434 948 4092 
Q 1538 4750 2522 4750 
Q 3503 4750 4090 4092 
Q 4678 3434 4678 2328 
Q 4678 1516 4351 937 
Q 4025 359 3406 84 
z
" transform="scale(0.015625)"/>
       <path id="DejaVuSans-4c" d="M 628 4666 
L 1259 4666 
L 1259 531 
L 3531 531 
L 3531 0 
L 628 0 
L 628 4666 
z
" transform="scale(0.015625)"/>
       <path id="DejaVuSans-50" d="M 1259 4147 
L 1259 2394 
L 2053 2394 
Q 2494 2394 2734 2622 
Q 2975 2850 2975 3272 
Q 2975 3691 2734 3919 
Q 2494 4147 2053 4147 
L 1259 4147 
z
M 628 4666 
L 2053 4666 
Q 2838 4666 3239 4311 
Q 3641 3956 3641 3272 
Q 3641 2581 3239 2228 
Q 2838 1875 2053 1875 
L 1259 1875 
L 1259 0 
L 628 0 
L 628 4666 
z
" transform="scale(0.015625)"/>
       <path id="DejaVuSans-68" d="M 3513 2113 
L 3513 0 
L 2938 0 
L 2938 2094 
Q 2938 2591 2744 2837 
Q 2550 3084 2163 3084 
Q 1697 3084 1428 2787 
Q 1159 2491 1159 1978 
L 1159 0 
L 581 0 
L 581 4863 
L 1159 4863 
L 1159 2956 
Q 1366 3272 1645 3428 
Q 1925 3584 2291 3584 
Q 2894 3584 3203 3211 
Q 3513 2838 3513 2113 
z
" transform="scale(0.015625)"/>
       <path id="DejaVuSans-44" d="M 1259 4147 
L 1259 519 
L 2022 519 
Q 2988 519 3436 956 
Q 3884 1394 3884 2338 
Q 3884 3275 3436 3711 
Q 2988 4147 2022 4147 
L 1259 4147 
z
M 628 4666 
L 1925 4666 
Q 3281 4666 3915 4102 
Q 4550 3538 4550 2338 
Q 4550 1131 3912 565 
Q 3275 0 1925 0 
L 628 0 
L 628 4666 
z
" transform="scale(0.015625)"/>
       <path id="DejaVuSans-54" d="M -19 4666 
L 3928 4666 
L 3928 4134 
L 2272 4134 
L 2272 0 
L 1638 0 
L 1638 4134 
L -19 4134 
L -19 4666 
z
" transform="scale(0.015625)"/>
       <path id="DejaVuSans-55" d="M 556 4666 
L 1191 4666 
L 1191 1831 
Q 1191 1081 1462 751 
Q 1734 422 2344 422 
Q 2950 422 3222 751 
Q 3494 1081 3494 1831 
L 3494 4666 
L 4128 4666 
L 4128 1753 
Q 4128 841 3676 375 
Q 3225 -91 2344 -91 
Q 1459 -91 1007 375 
Q 556 841 556 1753 
L 556 4666 
z
" transform="scale(0.015625)"/>
      </defs>
      <use xlink:href="#DejaVuSans-51"/>
      <use xlink:href="#DejaVuSans-75" x="78.710938"/>
      <use xlink:href="#DejaVuSans-61" x="142.089844"/>
      <use xlink:href="#DejaVuSans-6e" x="203.369141"/>
      <use xlink:href="#DejaVuSans-74" x="266.748047"/>
      <use xlink:href="#DejaVuSans-75" x="305.957031"/>
      <use xlink:href="#DejaVuSans-6d" x="369.335938"/>
      <use xlink:href="#DejaVuSans-20" x="466.748047"/>
      <use xlink:href="#DejaVuSans-61" x="498.535156"/>
      <use xlink:href="#DejaVuSans-6e" x="559.814453"/>
      <use xlink:href="#DejaVuSans-64" x="623.193359"/>
      <use xlink:href="#DejaVuSans-20" x="686.669922"/>
      <use xlink:href="#DejaVuSans-4c" x="718.457031"/>
      <use xlink:href="#DejaVuSans-61" x="774.169922"/>
      <use xlink:href="#DejaVuSans-73" x="835.449219"/>
      <use xlink:href="#DejaVuSans-65" x="887.548828"/>
      <use xlink:href="#DejaVuSans-72" x="949.072266"/>
      <use xlink:href="#DejaVuSans-20" x="990.185547"/>
      <use xlink:href="#DejaVuSans-50" x="1021.972656"/>
      <use xlink:href="#DejaVuSans-68" x="1082.275391"/>
      <use xlink:href="#DejaVuSans-6f" x="1145.654297"/>
      <use xlink:href="#DejaVuSans-74" x="1206.835938"/>
      <use xlink:href="#DejaVuSans-6f" x="1246.044922"/>
      <use xlink:href="#DejaVuSans-6e" x="1307.226562"/>
      <use xlink:href="#DejaVuSans-69" x="1370.605469"/>
      <use xlink:href="#DejaVuSans-63" x="1398.388672"/>
      <use xlink:href="#DejaVuSans-73" x="1453.369141"/>
      <use xlink:href="#DejaVuSans-20" x="1505.46875"/>
      <use xlink:href="#DejaVuSans-44" x="1537.255859"/>
      <use xlink:href="#DejaVuSans-54" x="1614.257812"/>
      <use xlink:href="#DejaVuSans-55" x="1675.341797"/>
     </g>
    </g>
   </g>
  </g>
 </g>
 <defs>
  <clipPath id="pd7f99c036c">
   <rect x="50.87" y="26.88" width="802.33" height="377.24"/>
  </clipPath>
 </defs>
</svg>
