<?xml version="1.0" encoding="utf-8" standalone="no"?>
<!DOCTYPE svg PUBLIC "-//W3C//DTD SVG 1.1//EN"
  "http://www.w3.org/Graphics/SVG/1.1/DTD/svg11.dtd">
<svg xmlns:xlink="http://www.w3.org/1999/xlink" width="864pt" height="432pt" viewBox="0 0 864 432" xmlns="http://www.w3.org/2000/svg" version="1.1">
 <metadata>
  <rdf:RDF xmlns:dc="http://purl.org/dc/elements/1.1/" xmlns:cc="http://creativecommons.org/ns#" xmlns:rdf="http://www.w3.org/1999/02/22-rdf-syntax-ns#">
   <cc:Work>
    <dc:type rdf:resource="http://purl.org/dc/dcmitype/StillImage"/>
    <dc:date>2024-08-16T20:29:39.770214</dc:date>
    <dc:format>image/svg+xml</dc:format>
    <dc:creator>
     <cc:Agent>
      <dc:title>Matplotlib v3.9.2, https://matplotlib.org/</dc:title>
     </cc:Agent>
    </dc:creator>
   </cc:Work>
  </rdf:RDF>
 </metadata>
 <defs>
  <style type="text/css">*{stroke-linejoin: round; stroke-linecap: butt}</style>
 </defs>
 <g id="figure_1">
  <g id="patch_1">
   <path d="M 0 432 
L 864 432 
L 864 0 
L 0 0 
z
" style="fill: #ffffff"/>
  </g>
  <g id="axes_1">
   <g id="patch_2">
    <path d="M 50.87 404.12 
L 853.2 404.12 
L 853.2 26.88 
L 50.87 26.88 
z
" style="fill: #ffffff"/>
   </g>
   <g id="matplotlib.axis_1">
    <g id="xtick_1">
     <g id="line2d_1">
      <path d="M 98.917179 404.12 
L 98.917179 26.88 
" clip-path="url(#p2730e245be)" style="fill: none; stroke-dasharray: 2.96,1.28; stroke-dashoffset: 0; stroke: #b0b0b0; stroke-width: 0.8"/>
     </g>
     <g id="line2d_2">
      <defs>
       <path id="meb95b50e99" d="M 0 0 
L 0 3.5 
" style="stroke: #000000; stroke-width: 0.8"/>
      </defs>
      <g>
       <use xlink:href="#meb95b50e99" x="98.917179" y="404.12" style="stroke: #000000; stroke-width: 0.8"/>
      </g>
     </g>
     <g id="text_1">
      <!-- 2024-06-15 -->
      <g transform="translate(69.859366 418.718437) scale(0.1 -0.1)">
       <defs>
        <path id="DejaVuSans-32" d="M 1228 531 
L 3431 531 
L 3431 0 
L 469 0 
L 469 531 
Q 828 903 1448 1529 
Q 2069 2156 2228 2338 
Q 2531 2678 2651 2914 
Q 2772 3150 2772 3378 
Q 2772 3750 2511 3984 
Q 2250 4219 1831 4219 
Q 1534 4219 1204 4116 
Q 875 4013 500 3803 
L 500 4441 
Q 881 4594 1212 4672 
Q 1544 4750 1819 4750 
Q 2544 4750 2975 4387 
Q 3406 4025 3406 3419 
Q 3406 3131 3298 2873 
Q 3191 2616 2906 2266 
Q 2828 2175 2409 1742 
Q 1991 1309 1228 531 
z
" transform="scale(0.015625)"/>
        <path id="DejaVuSans-30" d="M 2034 4250 
Q 1547 4250 1301 3770 
Q 1056 3291 1056 2328 
Q 1056 1369 1301 889 
Q 1547 409 2034 409 
Q 2525 409 2770 889 
Q 3016 1369 3016 2328 
Q 3016 3291 2770 3770 
Q 2525 4250 2034 4250 
z
M 2034 4750 
Q 2819 4750 3233 4129 
Q 3647 3509 3647 2328 
Q 3647 1150 3233 529 
Q 2819 -91 2034 -91 
Q 1250 -91 836 529 
Q 422 1150 422 2328 
Q 422 3509 836 4129 
Q 1250 4750 2034 4750 
z
" transform="scale(0.015625)"/>
        <path id="DejaVuSans-34" d="M 2419 4116 
L 825 1625 
L 2419 1625 
L 2419 4116 
z
M 2253 4666 
L 3047 4666 
L 3047 1625 
L 3713 1625 
L 3713 1100 
L 3047 1100 
L 3047 0 
L 2419 0 
L 2419 1100 
L 313 1100 
L 313 1709 
L 2253 4666 
z
" transform="scale(0.015625)"/>
        <path id="DejaVuSans-2d" d="M 313 2009 
L 1997 2009 
L 1997 1497 
L 313 1497 
L 313 2009 
z
" transform="scale(0.015625)"/>
        <path id="DejaVuSans-36" d="M 2113 2584 
Q 1688 2584 1439 2293 
Q 1191 2003 1191 1497 
Q 1191 994 1439 701 
Q 1688 409 2113 409 
Q 2538 409 2786 701 
Q 3034 994 3034 1497 
Q 3034 2003 2786 2293 
Q 2538 2584 2113 2584 
z
M 3366 4563 
L 3366 3988 
Q 3128 4100 2886 4159 
Q 2644 4219 2406 4219 
Q 1781 4219 1451 3797 
Q 1122 3375 1075 2522 
Q 1259 2794 1537 2939 
Q 1816 3084 2150 3084 
Q 2853 3084 3261 2657 
Q 3669 2231 3669 1497 
Q 3669 778 3244 343 
Q 2819 -91 2113 -91 
Q 1303 -91 875 529 
Q 447 1150 447 2328 
Q 447 3434 972 4092 
Q 1497 4750 2381 4750 
Q 2619 4750 2861 4703 
Q 3103 4656 3366 4563 
z
" transform="scale(0.015625)"/>
        <path id="DejaVuSans-31" d="M 794 531 
L 1825 531 
L 1825 4091 
L 703 3866 
L 703 4441 
L 1819 4666 
L 2450 4666 
L 2450 531 
L 3481 531 
L 3481 0 
L 794 0 
L 794 531 
z
" transform="scale(0.015625)"/>
        <path id="DejaVuSans-35" d="M 691 4666 
L 3169 4666 
L 3169 4134 
L 1269 4134 
L 1269 2991 
Q 1406 3038 1543 3061 
Q 1681 3084 1819 3084 
Q 2600 3084 3056 2656 
Q 3513 2228 3513 1497 
Q 3513 744 3044 326 
Q 2575 -91 1722 -91 
Q 1428 -91 1123 -41 
Q 819 9 494 109 
L 494 744 
Q 775 591 1075 516 
Q 1375 441 1709 441 
Q 2250 441 2565 725 
Q 2881 1009 2881 1497 
Q 2881 1984 2565 2268 
Q 2250 2553 1709 2553 
Q 1456 2553 1204 2497 
Q 953 2441 691 2322 
L 691 4666 
z
" transform="scale(0.015625)"/>
       </defs>
       <use xlink:href="#DejaVuSans-32"/>
       <use xlink:href="#DejaVuSans-30" x="63.623047"/>
       <use xlink:href="#DejaVuSans-32" x="127.246094"/>
       <use xlink:href="#DejaVuSans-34" x="190.869141"/>
       <use xlink:href="#DejaVuSans-2d" x="254.492188"/>
       <use xlink:href="#DejaVuSans-30" x="290.576172"/>
       <use xlink:href="#DejaVuSans-36" x="354.199219"/>
       <use xlink:href="#DejaVuSans-2d" x="417.822266"/>
       <use xlink:href="#DejaVuSans-31" x="453.90625"/>
       <use xlink:href="#DejaVuSans-35" x="517.529297"/>
      </g>
     </g>
    </g>
    <g id="xtick_2">
     <g id="line2d_3">
      <path d="M 179.960613 404.12 
L 179.960613 26.88 
" clip-path="url(#p2730e245be)" style="fill: none; stroke-dasharray: 2.96,1.28; stroke-dashoffset: 0; stroke: #b0b0b0; stroke-width: 0.8"/>
     </g>
     <g id="line2d_4">
      <g>
       <use xlink:href="#meb95b50e99" x="179.960613" y="404.12" style="stroke: #000000; stroke-width: 0.8"/>
      </g>
     </g>
     <g id="text_2">
      <!-- 2024-06-22 -->
      <g transform="translate(150.902801 418.718437) scale(0.1 -0.1)">
       <use xlink:href="#DejaVuSans-32"/>
       <use xlink:href="#DejaVuSans-30" x="63.623047"/>
       <use xlink:href="#DejaVuSans-32" x="127.246094"/>
       <use xlink:href="#DejaVuSans-34" x="190.869141"/>
       <use xlink:href="#DejaVuSans-2d" x="254.492188"/>
       <use xlink:href="#DejaVuSans-30" x="290.576172"/>
       <use xlink:href="#DejaVuSans-36" x="354.199219"/>
       <use xlink:href="#DejaVuSans-2d" x="417.822266"/>
       <use xlink:href="#DejaVuSans-32" x="453.90625"/>
       <use xlink:href="#DejaVuSans-32" x="517.529297"/>
      </g>
     </g>
    </g>
    <g id="xtick_3">
     <g id="line2d_5">
      <path d="M 284.159315 404.12 
L 284.159315 26.88 
" clip-path="url(#p2730e245be)" style="fill: none; stroke-dasharray: 2.96,1.28; stroke-dashoffset: 0; stroke: #b0b0b0; stroke-width: 0.8"/>
     </g>
     <g id="line2d_6">
      <g>
       <use xlink:href="#meb95b50e99" x="284.159315" y="404.12" style="stroke: #000000; stroke-width: 0.8"/>
      </g>
     </g>
     <g id="text_3">
      <!-- 2024-07-01 -->
      <g transform="translate(255.101502 418.718437) scale(0.1 -0.1)">
       <defs>
        <path id="DejaVuSans-37" d="M 525 4666 
L 3525 4666 
L 3525 4397 
L 1831 0 
L 1172 0 
L 2766 4134 
L 525 4134 
L 525 4666 
z
" transform="scale(0.015625)"/>
       </defs>
       <use xlink:href="#DejaVuSans-32"/>
       <use xlink:href="#DejaVuSans-30" x="63.623047"/>
       <use xlink:href="#DejaVuSans-32" x="127.246094"/>
       <use xlink:href="#DejaVuSans-34" x="190.869141"/>
       <use xlink:href="#DejaVuSans-2d" x="254.492188"/>
       <use xlink:href="#DejaVuSans-30" x="290.576172"/>
       <use xlink:href="#DejaVuSans-37" x="354.199219"/>
       <use xlink:href="#DejaVuSans-2d" x="417.822266"/>
       <use xlink:href="#DejaVuSans-30" x="453.90625"/>
       <use xlink:href="#DejaVuSans-31" x="517.529297"/>
      </g>
     </g>
    </g>
    <g id="xtick_4">
     <g id="line2d_7">
      <path d="M 365.202749 404.12 
L 365.202749 26.88 
" clip-path="url(#p2730e245be)" style="fill: none; stroke-dasharray: 2.96,1.28; stroke-dashoffset: 0; stroke: #b0b0b0; stroke-width: 0.8"/>
     </g>
     <g id="line2d_8">
      <g>
       <use xlink:href="#meb95b50e99" x="365.202749" y="404.12" style="stroke: #000000; stroke-width: 0.8"/>
      </g>
     </g>
     <g id="text_4">
      <!-- 2024-07-08 -->
      <g transform="translate(336.144936 418.718437) scale(0.1 -0.1)">
       <defs>
        <path id="DejaVuSans-38" d="M 2034 2216 
Q 1584 2216 1326 1975 
Q 1069 1734 1069 1313 
Q 1069 891 1326 650 
Q 1584 409 2034 409 
Q 2484 409 2743 651 
Q 3003 894 3003 1313 
Q 3003 1734 2745 1975 
Q 2488 2216 2034 2216 
z
M 1403 2484 
Q 997 2584 770 2862 
Q 544 3141 544 3541 
Q 544 4100 942 4425 
Q 1341 4750 2034 4750 
Q 2731 4750 3128 4425 
Q 3525 4100 3525 3541 
Q 3525 3141 3298 2862 
Q 3072 2584 2669 2484 
Q 3125 2378 3379 2068 
Q 3634 1759 3634 1313 
Q 3634 634 3220 271 
Q 2806 -91 2034 -91 
Q 1263 -91 848 271 
Q 434 634 434 1313 
Q 434 1759 690 2068 
Q 947 2378 1403 2484 
z
M 1172 3481 
Q 1172 3119 1398 2916 
Q 1625 2713 2034 2713 
Q 2441 2713 2670 2916 
Q 2900 3119 2900 3481 
Q 2900 3844 2670 4047 
Q 2441 4250 2034 4250 
Q 1625 4250 1398 4047 
Q 1172 3844 1172 3481 
z
" transform="scale(0.015625)"/>
       </defs>
       <use xlink:href="#DejaVuSans-32"/>
       <use xlink:href="#DejaVuSans-30" x="63.623047"/>
       <use xlink:href="#DejaVuSans-32" x="127.246094"/>
       <use xlink:href="#DejaVuSans-34" x="190.869141"/>
       <use xlink:href="#DejaVuSans-2d" x="254.492188"/>
       <use xlink:href="#DejaVuSans-30" x="290.576172"/>
       <use xlink:href="#DejaVuSans-37" x="354.199219"/>
       <use xlink:href="#DejaVuSans-2d" x="417.822266"/>
       <use xlink:href="#DejaVuSans-30" x="453.90625"/>
       <use xlink:href="#DejaVuSans-38" x="517.529297"/>
      </g>
     </g>
    </g>
    <g id="xtick_5">
     <g id="line2d_9">
      <path d="M 446.246183 404.12 
L 446.246183 26.88 
" clip-path="url(#p2730e245be)" style="fill: none; stroke-dasharray: 2.96,1.28; stroke-dashoffset: 0; stroke: #b0b0b0; stroke-width: 0.8"/>
     </g>
     <g id="line2d_10">
      <g>
       <use xlink:href="#meb95b50e99" x="446.246183" y="404.12" style="stroke: #000000; stroke-width: 0.8"/>
      </g>
     </g>
     <g id="text_5">
      <!-- 2024-07-15 -->
      <g transform="translate(417.188371 418.718437) scale(0.1 -0.1)">
       <use xlink:href="#DejaVuSans-32"/>
       <use xlink:href="#DejaVuSans-30" x="63.623047"/>
       <use xlink:href="#DejaVuSans-32" x="127.246094"/>
       <use xlink:href="#DejaVuSans-34" x="190.869141"/>
       <use xlink:href="#DejaVuSans-2d" x="254.492188"/>
       <use xlink:href="#DejaVuSans-30" x="290.576172"/>
       <use xlink:href="#DejaVuSans-37" x="354.199219"/>
       <use xlink:href="#DejaVuSans-2d" x="417.822266"/>
       <use xlink:href="#DejaVuSans-31" x="453.90625"/>
       <use xlink:href="#DejaVuSans-35" x="517.529297"/>
      </g>
     </g>
    </g>
    <g id="xtick_6">
     <g id="line2d_11">
      <path d="M 527.289618 404.12 
L 527.289618 26.88 
" clip-path="url(#p2730e245be)" style="fill: none; stroke-dasharray: 2.96,1.28; stroke-dashoffset: 0; stroke: #b0b0b0; stroke-width: 0.8"/>
     </g>
     <g id="line2d_12">
      <g>
       <use xlink:href="#meb95b50e99" x="527.289618" y="404.12" style="stroke: #000000; stroke-width: 0.8"/>
      </g>
     </g>
     <g id="text_6">
      <!-- 2024-07-22 -->
      <g transform="translate(498.231805 418.718437) scale(0.1 -0.1)">
       <use xlink:href="#DejaVuSans-32"/>
       <use xlink:href="#DejaVuSans-30" x="63.623047"/>
       <use xlink:href="#DejaVuSans-32" x="127.246094"/>
       <use xlink:href="#DejaVuSans-34" x="190.869141"/>
       <use xlink:href="#DejaVuSans-2d" x="254.492188"/>
       <use xlink:href="#DejaVuSans-30" x="290.576172"/>
       <use xlink:href="#DejaVuSans-37" x="354.199219"/>
       <use xlink:href="#DejaVuSans-2d" x="417.822266"/>
       <use xlink:href="#DejaVuSans-32" x="453.90625"/>
       <use xlink:href="#DejaVuSans-32" x="517.529297"/>
      </g>
     </g>
    </g>
    <g id="xtick_7">
     <g id="line2d_13">
      <path d="M 643.065952 404.12 
L 643.065952 26.88 
" clip-path="url(#p2730e245be)" style="fill: none; stroke-dasharray: 2.96,1.28; stroke-dashoffset: 0; stroke: #b0b0b0; stroke-width: 0.8"/>
     </g>
     <g id="line2d_14">
      <g>
       <use xlink:href="#meb95b50e99" x="643.065952" y="404.12" style="stroke: #000000; stroke-width: 0.8"/>
      </g>
     </g>
     <g id="text_7">
      <!-- 2024-08-01 -->
      <g transform="translate(614.00814 418.718437) scale(0.1 -0.1)">
       <use xlink:href="#DejaVuSans-32"/>
       <use xlink:href="#DejaVuSans-30" x="63.623047"/>
       <use xlink:href="#DejaVuSans-32" x="127.246094"/>
       <use xlink:href="#DejaVuSans-34" x="190.869141"/>
       <use xlink:href="#DejaVuSans-2d" x="254.492188"/>
       <use xlink:href="#DejaVuSans-30" x="290.576172"/>
       <use xlink:href="#DejaVuSans-38" x="354.199219"/>
       <use xlink:href="#DejaVuSans-2d" x="417.822266"/>
       <use xlink:href="#DejaVuSans-30" x="453.90625"/>
       <use xlink:href="#DejaVuSans-31" x="517.529297"/>
      </g>
     </g>
    </g>
    <g id="xtick_8">
     <g id="line2d_15">
      <path d="M 724.109387 404.12 
L 724.109387 26.88 
" clip-path="url(#p2730e245be)" style="fill: none; stroke-dasharray: 2.96,1.28; stroke-dashoffset: 0; stroke: #b0b0b0; stroke-width: 0.8"/>
     </g>
     <g id="line2d_16">
      <g>
       <use xlink:href="#meb95b50e99" x="724.109387" y="404.12" style="stroke: #000000; stroke-width: 0.8"/>
      </g>
     </g>
     <g id="text_8">
      <!-- 2024-08-08 -->
      <g transform="translate(695.051574 418.718437) scale(0.1 -0.1)">
       <use xlink:href="#DejaVuSans-32"/>
       <use xlink:href="#DejaVuSans-30" x="63.623047"/>
       <use xlink:href="#DejaVuSans-32" x="127.246094"/>
       <use xlink:href="#DejaVuSans-34" x="190.869141"/>
       <use xlink:href="#DejaVuSans-2d" x="254.492188"/>
       <use xlink:href="#DejaVuSans-30" x="290.576172"/>
       <use xlink:href="#DejaVuSans-38" x="354.199219"/>
       <use xlink:href="#DejaVuSans-2d" x="417.822266"/>
       <use xlink:href="#DejaVuSans-30" x="453.90625"/>
       <use xlink:href="#DejaVuSans-38" x="517.529297"/>
      </g>
     </g>
    </g>
    <g id="xtick_9">
     <g id="line2d_17">
      <path d="M 805.152821 404.12 
L 805.152821 26.88 
" clip-path="url(#p2730e245be)" style="fill: none; stroke-dasharray: 2.96,1.28; stroke-dashoffset: 0; stroke: #b0b0b0; stroke-width: 0.8"/>
     </g>
     <g id="line2d_18">
      <g>
       <use xlink:href="#meb95b50e99" x="805.152821" y="404.12" style="stroke: #000000; stroke-width: 0.8"/>
      </g>
     </g>
     <g id="text_9">
      <!-- 2024-08-15 -->
      <g transform="translate(776.095009 418.718437) scale(0.1 -0.1)">
       <use xlink:href="#DejaVuSans-32"/>
       <use xlink:href="#DejaVuSans-30" x="63.623047"/>
       <use xlink:href="#DejaVuSans-32" x="127.246094"/>
       <use xlink:href="#DejaVuSans-34" x="190.869141"/>
       <use xlink:href="#DejaVuSans-2d" x="254.492188"/>
       <use xlink:href="#DejaVuSans-30" x="290.576172"/>
       <use xlink:href="#DejaVuSans-38" x="354.199219"/>
       <use xlink:href="#DejaVuSans-2d" x="417.822266"/>
       <use xlink:href="#DejaVuSans-31" x="453.90625"/>
       <use xlink:href="#DejaVuSans-35" x="517.529297"/>
      </g>
     </g>
    </g>
   </g>
   <g id="matplotlib.axis_2">
    <g id="ytick_1">
     <g id="line2d_19">
      <path d="M 50.87 393.520826 
L 853.2 393.520826 
" clip-path="url(#p2730e245be)" style="fill: none; stroke-dasharray: 2.96,1.28; stroke-dashoffset: 0; stroke: #b0b0b0; stroke-width: 0.8"/>
     </g>
     <g id="line2d_20">
      <defs>
       <path id="m20898111b8" d="M 0 0 
L -3.5 0 
" style="stroke: #000000; stroke-width: 0.8"/>
      </defs>
      <g>
       <use xlink:href="#m20898111b8" x="50.87" y="393.520826" style="stroke: #000000; stroke-width: 0.8"/>
      </g>
     </g>
     <g id="text_10">
      <!-- 0 -->
      <g transform="translate(37.5075 397.320045) scale(0.1 -0.1)">
       <use xlink:href="#DejaVuSans-30"/>
      </g>
     </g>
    </g>
    <g id="ytick_2">
     <g id="line2d_21">
      <path d="M 50.87 326.62276 
L 853.2 326.62276 
" clip-path="url(#p2730e245be)" style="fill: none; stroke-dasharray: 2.96,1.28; stroke-dashoffset: 0; stroke: #b0b0b0; stroke-width: 0.8"/>
     </g>
     <g id="line2d_22">
      <g>
       <use xlink:href="#m20898111b8" x="50.87" y="326.62276" style="stroke: #000000; stroke-width: 0.8"/>
      </g>
     </g>
     <g id="text_11">
      <!-- 50 -->
      <g transform="translate(31.145 330.421979) scale(0.1 -0.1)">
       <use xlink:href="#DejaVuSans-35"/>
       <use xlink:href="#DejaVuSans-30" x="63.623047"/>
      </g>
     </g>
    </g>
    <g id="ytick_3">
     <g id="line2d_23">
      <path d="M 50.87 259.724694 
L 853.2 259.724694 
" clip-path="url(#p2730e245be)" style="fill: none; stroke-dasharray: 2.96,1.28; stroke-dashoffset: 0; stroke: #b0b0b0; stroke-width: 0.8"/>
     </g>
     <g id="line2d_24">
      <g>
       <use xlink:href="#m20898111b8" x="50.87" y="259.724694" style="stroke: #000000; stroke-width: 0.8"/>
      </g>
     </g>
     <g id="text_12">
      <!-- 100 -->
      <g transform="translate(24.7825 263.523913) scale(0.1 -0.1)">
       <use xlink:href="#DejaVuSans-31"/>
       <use xlink:href="#DejaVuSans-30" x="63.623047"/>
       <use xlink:href="#DejaVuSans-30" x="127.246094"/>
      </g>
     </g>
    </g>
    <g id="ytick_4">
     <g id="line2d_25">
      <path d="M 50.87 192.826628 
L 853.2 192.826628 
" clip-path="url(#p2730e245be)" style="fill: none; stroke-dasharray: 2.96,1.28; stroke-dashoffset: 0; stroke: #b0b0b0; stroke-width: 0.8"/>
     </g>
     <g id="line2d_26">
      <g>
       <use xlink:href="#m20898111b8" x="50.87" y="192.826628" style="stroke: #000000; stroke-width: 0.8"/>
      </g>
     </g>
     <g id="text_13">
      <!-- 150 -->
      <g transform="translate(24.7825 196.625847) scale(0.1 -0.1)">
       <use xlink:href="#DejaVuSans-31"/>
       <use xlink:href="#DejaVuSans-35" x="63.623047"/>
       <use xlink:href="#DejaVuSans-30" x="127.246094"/>
      </g>
     </g>
    </g>
    <g id="ytick_5">
     <g id="line2d_27">
      <path d="M 50.87 125.928562 
L 853.2 125.928562 
" clip-path="url(#p2730e245be)" style="fill: none; stroke-dasharray: 2.96,1.28; stroke-dashoffset: 0; stroke: #b0b0b0; stroke-width: 0.8"/>
     </g>
     <g id="line2d_28">
      <g>
       <use xlink:href="#m20898111b8" x="50.87" y="125.928562" style="stroke: #000000; stroke-width: 0.8"/>
      </g>
     </g>
     <g id="text_14">
      <!-- 200 -->
      <g transform="translate(24.7825 129.727781) scale(0.1 -0.1)">
       <use xlink:href="#DejaVuSans-32"/>
       <use xlink:href="#DejaVuSans-30" x="63.623047"/>
       <use xlink:href="#DejaVuSans-30" x="127.246094"/>
      </g>
     </g>
    </g>
    <g id="ytick_6">
     <g id="line2d_29">
      <path d="M 50.87 59.030496 
L 853.2 59.030496 
" clip-path="url(#p2730e245be)" style="fill: none; stroke-dasharray: 2.96,1.28; stroke-dashoffset: 0; stroke: #b0b0b0; stroke-width: 0.8"/>
     </g>
     <g id="line2d_30">
      <g>
       <use xlink:href="#m20898111b8" x="50.87" y="59.030496" style="stroke: #000000; stroke-width: 0.8"/>
      </g>
     </g>
     <g id="text_15">
      <!-- 250 -->
      <g transform="translate(24.7825 62.829715) scale(0.1 -0.1)">
       <use xlink:href="#DejaVuSans-32"/>
       <use xlink:href="#DejaVuSans-35" x="63.623047"/>
       <use xlink:href="#DejaVuSans-30" x="127.246094"/>
      </g>
     </g>
    </g>
    <g id="text_16">
     <!-- Score -->
     <g transform="translate(18.702813 229.502344) rotate(-90) scale(0.1 -0.1)">
      <defs>
       <path id="DejaVuSans-53" d="M 3425 4513 
L 3425 3897 
Q 3066 4069 2747 4153 
Q 2428 4238 2131 4238 
Q 1616 4238 1336 4038 
Q 1056 3838 1056 3469 
Q 1056 3159 1242 3001 
Q 1428 2844 1947 2747 
L 2328 2669 
Q 3034 2534 3370 2195 
Q 3706 1856 3706 1288 
Q 3706 609 3251 259 
Q 2797 -91 1919 -91 
Q 1588 -91 1214 -16 
Q 841 59 441 206 
L 441 856 
Q 825 641 1194 531 
Q 1563 422 1919 422 
Q 2459 422 2753 634 
Q 3047 847 3047 1241 
Q 3047 1584 2836 1778 
Q 2625 1972 2144 2069 
L 1759 2144 
Q 1053 2284 737 2584 
Q 422 2884 422 3419 
Q 422 4038 858 4394 
Q 1294 4750 2059 4750 
Q 2388 4750 2728 4690 
Q 3069 4631 3425 4513 
z
" transform="scale(0.015625)"/>
       <path id="DejaVuSans-63" d="M 3122 3366 
L 3122 2828 
Q 2878 2963 2633 3030 
Q 2388 3097 2138 3097 
Q 1578 3097 1268 2742 
Q 959 2388 959 1747 
Q 959 1106 1268 751 
Q 1578 397 2138 397 
Q 2388 397 2633 464 
Q 2878 531 3122 666 
L 3122 134 
Q 2881 22 2623 -34 
Q 2366 -91 2075 -91 
Q 1284 -91 818 406 
Q 353 903 353 1747 
Q 353 2603 823 3093 
Q 1294 3584 2113 3584 
Q 2378 3584 2631 3529 
Q 2884 3475 3122 3366 
z
" transform="scale(0.015625)"/>
       <path id="DejaVuSans-6f" d="M 1959 3097 
Q 1497 3097 1228 2736 
Q 959 2375 959 1747 
Q 959 1119 1226 758 
Q 1494 397 1959 397 
Q 2419 397 2687 759 
Q 2956 1122 2956 1747 
Q 2956 2369 2687 2733 
Q 2419 3097 1959 3097 
z
M 1959 3584 
Q 2709 3584 3137 3096 
Q 3566 2609 3566 1747 
Q 3566 888 3137 398 
Q 2709 -91 1959 -91 
Q 1206 -91 779 398 
Q 353 888 353 1747 
Q 353 2609 779 3096 
Q 1206 3584 1959 3584 
z
" transform="scale(0.015625)"/>
       <path id="DejaVuSans-72" d="M 2631 2963 
Q 2534 3019 2420 3045 
Q 2306 3072 2169 3072 
Q 1681 3072 1420 2755 
Q 1159 2438 1159 1844 
L 1159 0 
L 581 0 
L 581 3500 
L 1159 3500 
L 1159 2956 
Q 1341 3275 1631 3429 
Q 1922 3584 2338 3584 
Q 2397 3584 2469 3576 
Q 2541 3569 2628 3553 
L 2631 2963 
z
" transform="scale(0.015625)"/>
       <path id="DejaVuSans-65" d="M 3597 1894 
L 3597 1613 
L 953 1613 
Q 991 1019 1311 708 
Q 1631 397 2203 397 
Q 2534 397 2845 478 
Q 3156 559 3463 722 
L 3463 178 
Q 3153 47 2828 -22 
Q 2503 -91 2169 -91 
Q 1331 -91 842 396 
Q 353 884 353 1716 
Q 353 2575 817 3079 
Q 1281 3584 2069 3584 
Q 2775 3584 3186 3129 
Q 3597 2675 3597 1894 
z
M 3022 2063 
Q 3016 2534 2758 2815 
Q 2500 3097 2075 3097 
Q 1594 3097 1305 2825 
Q 1016 2553 972 2059 
L 3022 2063 
z
" transform="scale(0.015625)"/>
      </defs>
      <use xlink:href="#DejaVuSans-53"/>
      <use xlink:href="#DejaVuSans-63" x="63.476562"/>
      <use xlink:href="#DejaVuSans-6f" x="118.457031"/>
      <use xlink:href="#DejaVuSans-72" x="179.638672"/>
      <use xlink:href="#DejaVuSans-65" x="218.501953"/>
     </g>
    </g>
   </g>
   <g id="line2d_31">
    <path d="M 87.339545 385.841875 
L 98.917179 362.714258 
L 110.494812 343.600525 
L 122.072446 329.121872 
L 133.650079 313.591964 
L 145.227713 290.082072 
L 156.805346 269.773731 
L 168.38298 259.117824 
L 179.960613 230.542793 
L 191.538247 207.558529 
L 203.11588 177.311047 
L 214.693514 161.207726 
L 226.271147 117.198356 
L 261.004048 117.198356 
L 272.581681 117.198356 
L 284.159315 117.198356 
L 295.736948 117.198356 
L 307.314582 117.198356 
L 330.469848 117.198356 
L 342.047482 117.198356 
L 353.625115 117.198356 
L 365.202749 117.198356 
L 376.780382 117.198356 
L 388.358016 107.163646 
L 399.935649 107.163646 
L 411.513283 107.163646 
L 423.090916 107.163646 
L 434.66855 107.163646 
L 446.246183 92.111581 
L 457.823817 92.111581 
L 469.40145 92.111581 
L 480.979084 92.111581 
L 492.556717 92.111581 
L 504.134351 92.111581 
L 515.711984 92.111581 
L 527.289618 92.111581 
L 538.867251 92.111581 
L 550.444885 92.111581 
L 562.022518 92.111581 
L 573.600152 92.111581 
L 585.177785 92.111581 
L 596.755418 92.111581 
L 608.333052 92.111581 
L 619.910685 92.111581 
L 631.488319 92.111581 
L 643.065952 92.111581 
L 654.643586 92.111581 
L 666.221219 92.111581 
L 677.798853 92.111581 
L 689.376486 92.111581 
L 700.95412 92.111581 
L 712.531753 92.111581 
L 724.109387 92.111581 
L 735.68702 92.111581 
L 747.264654 92.111581 
L 758.842287 92.111581 
L 770.419921 92.111581 
L 781.997554 92.111581 
L 793.575188 92.111581 
L 805.152821 92.111581 
L 816.730455 92.111581 
" clip-path="url(#p2730e245be)" style="fill: none; stroke: #1f77b4; stroke-width: 1.5; stroke-linecap: square"/>
    <defs>
     <path id="m0ffd27bd85" d="M 0 3.5 
C 0.928211 3.5 1.81853 3.131218 2.474874 2.474874 
C 3.131218 1.81853 3.5 0.928211 3.5 0 
C 3.5 -0.928211 3.131218 -1.81853 2.474874 -2.474874 
C 1.81853 -3.131218 0.928211 -3.5 0 -3.5 
C -0.928211 -3.5 -1.81853 -3.131218 -2.474874 -2.474874 
C -3.131218 -1.81853 -3.5 -0.928211 -3.5 0 
C -3.5 0.928211 -3.131218 1.81853 -2.474874 2.474874 
C -1.81853 3.131218 -0.928211 3.5 0 3.5 
z
" style="stroke: #1f77b4"/>
    </defs>
    <g clip-path="url(#p2730e245be)">
     <use xlink:href="#m0ffd27bd85" x="87.339545" y="385.841875" style="fill: #1f77b4; stroke: #1f77b4"/>
     <use xlink:href="#m0ffd27bd85" x="98.917179" y="362.714258" style="fill: #1f77b4; stroke: #1f77b4"/>
     <use xlink:href="#m0ffd27bd85" x="110.494812" y="343.600525" style="fill: #1f77b4; stroke: #1f77b4"/>
     <use xlink:href="#m0ffd27bd85" x="122.072446" y="329.121872" style="fill: #1f77b4; stroke: #1f77b4"/>
     <use xlink:href="#m0ffd27bd85" x="133.650079" y="313.591964" style="fill: #1f77b4; stroke: #1f77b4"/>
     <use xlink:href="#m0ffd27bd85" x="145.227713" y="290.082072" style="fill: #1f77b4; stroke: #1f77b4"/>
     <use xlink:href="#m0ffd27bd85" x="156.805346" y="269.773731" style="fill: #1f77b4; stroke: #1f77b4"/>
     <use xlink:href="#m0ffd27bd85" x="168.38298" y="259.117824" style="fill: #1f77b4; stroke: #1f77b4"/>
     <use xlink:href="#m0ffd27bd85" x="179.960613" y="230.542793" style="fill: #1f77b4; stroke: #1f77b4"/>
     <use xlink:href="#m0ffd27bd85" x="191.538247" y="207.558529" style="fill: #1f77b4; stroke: #1f77b4"/>
     <use xlink:href="#m0ffd27bd85" x="203.11588" y="177.311047" style="fill: #1f77b4; stroke: #1f77b4"/>
     <use xlink:href="#m0ffd27bd85" x="214.693514" y="161.207726" style="fill: #1f77b4; stroke: #1f77b4"/>
     <use xlink:href="#m0ffd27bd85" x="226.271147" y="117.198356" style="fill: #1f77b4; stroke: #1f77b4"/>
     <use xlink:href="#m0ffd27bd85" x="261.004048" y="117.198356" style="fill: #1f77b4; stroke: #1f77b4"/>
     <use xlink:href="#m0ffd27bd85" x="272.581681" y="117.198356" style="fill: #1f77b4; stroke: #1f77b4"/>
     <use xlink:href="#m0ffd27bd85" x="284.159315" y="117.198356" style="fill: #1f77b4; stroke: #1f77b4"/>
     <use xlink:href="#m0ffd27bd85" x="295.736948" y="117.198356" style="fill: #1f77b4; stroke: #1f77b4"/>
     <use xlink:href="#m0ffd27bd85" x="307.314582" y="117.198356" style="fill: #1f77b4; stroke: #1f77b4"/>
     <use xlink:href="#m0ffd27bd85" x="330.469848" y="117.198356" style="fill: #1f77b4; stroke: #1f77b4"/>
     <use xlink:href="#m0ffd27bd85" x="342.047482" y="117.198356" style="fill: #1f77b4; stroke: #1f77b4"/>
     <use xlink:href="#m0ffd27bd85" x="353.625115" y="117.198356" style="fill: #1f77b4; stroke: #1f77b4"/>
     <use xlink:href="#m0ffd27bd85" x="365.202749" y="117.198356" style="fill: #1f77b4; stroke: #1f77b4"/>
     <use xlink:href="#m0ffd27bd85" x="376.780382" y="117.198356" style="fill: #1f77b4; stroke: #1f77b4"/>
     <use xlink:href="#m0ffd27bd85" x="388.358016" y="107.163646" style="fill: #1f77b4; stroke: #1f77b4"/>
     <use xlink:href="#m0ffd27bd85" x="399.935649" y="107.163646" style="fill: #1f77b4; stroke: #1f77b4"/>
     <use xlink:href="#m0ffd27bd85" x="411.513283" y="107.163646" style="fill: #1f77b4; stroke: #1f77b4"/>
     <use xlink:href="#m0ffd27bd85" x="423.090916" y="107.163646" style="fill: #1f77b4; stroke: #1f77b4"/>
     <use xlink:href="#m0ffd27bd85" x="434.66855" y="107.163646" style="fill: #1f77b4; stroke: #1f77b4"/>
     <use xlink:href="#m0ffd27bd85" x="446.246183" y="92.111581" style="fill: #1f77b4; stroke: #1f77b4"/>
     <use xlink:href="#m0ffd27bd85" x="457.823817" y="92.111581" style="fill: #1f77b4; stroke: #1f77b4"/>
     <use xlink:href="#m0ffd27bd85" x="469.40145" y="92.111581" style="fill: #1f77b4; stroke: #1f77b4"/>
     <use xlink:href="#m0ffd27bd85" x="480.979084" y="92.111581" style="fill: #1f77b4; stroke: #1f77b4"/>
     <use xlink:href="#m0ffd27bd85" x="492.556717" y="92.111581" style="fill: #1f77b4; stroke: #1f77b4"/>
     <use xlink:href="#m0ffd27bd85" x="504.134351" y="92.111581" style="fill: #1f77b4; stroke: #1f77b4"/>
     <use xlink:href="#m0ffd27bd85" x="515.711984" y="92.111581" style="fill: #1f77b4; stroke: #1f77b4"/>
     <use xlink:href="#m0ffd27bd85" x="527.289618" y="92.111581" style="fill: #1f77b4; stroke: #1f77b4"/>
     <use xlink:href="#m0ffd27bd85" x="538.867251" y="92.111581" style="fill: #1f77b4; stroke: #1f77b4"/>
     <use xlink:href="#m0ffd27bd85" x="550.444885" y="92.111581" style="fill: #1f77b4; stroke: #1f77b4"/>
     <use xlink:href="#m0ffd27bd85" x="562.022518" y="92.111581" style="fill: #1f77b4; stroke: #1f77b4"/>
     <use xlink:href="#m0ffd27bd85" x="573.600152" y="92.111581" style="fill: #1f77b4; stroke: #1f77b4"/>
     <use xlink:href="#m0ffd27bd85" x="585.177785" y="92.111581" style="fill: #1f77b4; stroke: #1f77b4"/>
     <use xlink:href="#m0ffd27bd85" x="596.755418" y="92.111581" style="fill: #1f77b4; stroke: #1f77b4"/>
     <use xlink:href="#m0ffd27bd85" x="608.333052" y="92.111581" style="fill: #1f77b4; stroke: #1f77b4"/>
     <use xlink:href="#m0ffd27bd85" x="619.910685" y="92.111581" style="fill: #1f77b4; stroke: #1f77b4"/>
     <use xlink:href="#m0ffd27bd85" x="631.488319" y="92.111581" style="fill: #1f77b4; stroke: #1f77b4"/>
     <use xlink:href="#m0ffd27bd85" x="643.065952" y="92.111581" style="fill: #1f77b4; stroke: #1f77b4"/>
     <use xlink:href="#m0ffd27bd85" x="654.643586" y="92.111581" style="fill: #1f77b4; stroke: #1f77b4"/>
     <use xlink:href="#m0ffd27bd85" x="666.221219" y="92.111581" style="fill: #1f77b4; stroke: #1f77b4"/>
     <use xlink:href="#m0ffd27bd85" x="677.798853" y="92.111581" style="fill: #1f77b4; stroke: #1f77b4"/>
     <use xlink:href="#m0ffd27bd85" x="689.376486" y="92.111581" style="fill: #1f77b4; stroke: #1f77b4"/>
     <use xlink:href="#m0ffd27bd85" x="700.95412" y="92.111581" style="fill: #1f77b4; stroke: #1f77b4"/>
     <use xlink:href="#m0ffd27bd85" x="712.531753" y="92.111581" style="fill: #1f77b4; stroke: #1f77b4"/>
     <use xlink:href="#m0ffd27bd85" x="724.109387" y="92.111581" style="fill: #1f77b4; stroke: #1f77b4"/>
     <use xlink:href="#m0ffd27bd85" x="735.68702" y="92.111581" style="fill: #1f77b4; stroke: #1f77b4"/>
     <use xlink:href="#m0ffd27bd85" x="747.264654" y="92.111581" style="fill: #1f77b4; stroke: #1f77b4"/>
     <use xlink:href="#m0ffd27bd85" x="758.842287" y="92.111581" style="fill: #1f77b4; stroke: #1f77b4"/>
     <use xlink:href="#m0ffd27bd85" x="770.419921" y="92.111581" style="fill: #1f77b4; stroke: #1f77b4"/>
     <use xlink:href="#m0ffd27bd85" x="781.997554" y="92.111581" style="fill: #1f77b4; stroke: #1f77b4"/>
     <use xlink:href="#m0ffd27bd85" x="793.575188" y="92.111581" style="fill: #1f77b4; stroke: #1f77b4"/>
     <use xlink:href="#m0ffd27bd85" x="805.152821" y="92.111581" style="fill: #1f77b4; stroke: #1f77b4"/>
     <use xlink:href="#m0ffd27bd85" x="816.730455" y="92.111581" style="fill: #1f77b4; stroke: #1f77b4"/>
    </g>
   </g>
   <g id="line2d_32">
    <path d="M 87.339545 384.240593 
L 98.917179 358.96799 
L 110.494812 333.84405 
L 122.072446 321.653736 
L 133.650079 301.732979 
L 145.227713 280.920247 
L 156.805346 264.418724 
L 168.38298 250.890448 
L 179.960613 215.806129 
L 191.538247 196.777346 
L 203.11588 167.936847 
L 214.693514 148.164752 
L 226.271147 105.647314 
L 261.004048 105.647314 
L 272.581681 105.647314 
L 284.159315 105.647314 
L 295.736948 105.647314 
L 307.314582 105.647314 
L 330.469848 105.647314 
L 342.047482 105.647314 
L 353.625115 105.647314 
L 365.202749 105.647314 
L 376.780382 105.647314 
L 388.358016 96.727572 
L 399.935649 96.727572 
L 411.513283 96.727572 
L 423.090916 96.727572 
L 434.66855 96.727572 
L 446.246183 79.6314 
L 457.823817 79.6314 
L 469.40145 79.6314 
L 480.979084 79.6314 
L 492.556717 79.6314 
L 504.134351 79.6314 
L 515.711984 79.6314 
L 527.289618 79.6314 
L 538.867251 79.6314 
L 550.444885 79.6314 
L 562.022518 79.6314 
L 573.600152 79.6314 
L 585.177785 79.6314 
L 596.755418 79.6314 
L 608.333052 79.6314 
L 619.910685 79.6314 
L 631.488319 79.6314 
L 643.065952 79.6314 
L 654.643586 79.6314 
L 666.221219 79.6314 
L 677.798853 79.6314 
L 689.376486 79.6314 
L 700.95412 79.6314 
L 712.531753 79.6314 
L 724.109387 79.6314 
L 735.68702 79.6314 
L 747.264654 79.6314 
L 758.842287 79.6314 
L 770.419921 79.6314 
L 781.997554 79.6314 
L 793.575188 79.6314 
L 805.152821 79.6314 
L 816.730455 79.6314 
" clip-path="url(#p2730e245be)" style="fill: none; stroke: #ff7f0e; stroke-width: 1.5; stroke-linecap: square"/>
    <defs>
     <path id="m92f5453b1d" d="M 0 3.5 
C 0.928211 3.5 1.81853 3.131218 2.474874 2.474874 
C 3.131218 1.81853 3.5 0.928211 3.5 0 
C 3.5 -0.928211 3.131218 -1.81853 2.474874 -2.474874 
C 1.81853 -3.131218 0.928211 -3.5 0 -3.5 
C -0.928211 -3.5 -1.81853 -3.131218 -2.474874 -2.474874 
C -3.131218 -1.81853 -3.5 -0.928211 -3.5 0 
C -3.5 0.928211 -3.131218 1.81853 -2.474874 2.474874 
C -1.81853 3.131218 -0.928211 3.5 0 3.5 
z
" style="stroke: #ff7f0e"/>
    </defs>
    <g clip-path="url(#p2730e245be)">
     <use xlink:href="#m92f5453b1d" x="87.339545" y="384.240593" style="fill: #ff7f0e; stroke: #ff7f0e"/>
     <use xlink:href="#m92f5453b1d" x="98.917179" y="358.96799" style="fill: #ff7f0e; stroke: #ff7f0e"/>
     <use xlink:href="#m92f5453b1d" x="110.494812" y="333.84405" style="fill: #ff7f0e; stroke: #ff7f0e"/>
     <use xlink:href="#m92f5453b1d" x="122.072446" y="321.653736" style="fill: #ff7f0e; stroke: #ff7f0e"/>
     <use xlink:href="#m92f5453b1d" x="133.650079" y="301.732979" style="fill: #ff7f0e; stroke: #ff7f0e"/>
     <use xlink:href="#m92f5453b1d" x="145.227713" y="280.920247" style="fill: #ff7f0e; stroke: #ff7f0e"/>
     <use xlink:href="#m92f5453b1d" x="156.805346" y="264.418724" style="fill: #ff7f0e; stroke: #ff7f0e"/>
     <use xlink:href="#m92f5453b1d" x="168.38298" y="250.890448" style="fill: #ff7f0e; stroke: #ff7f0e"/>
     <use xlink:href="#m92f5453b1d" x="179.960613" y="215.806129" style="fill: #ff7f0e; stroke: #ff7f0e"/>
     <use xlink:href="#m92f5453b1d" x="191.538247" y="196.777346" style="fill: #ff7f0e; stroke: #ff7f0e"/>
     <use xlink:href="#m92f5453b1d" x="203.11588" y="167.936847" style="fill: #ff7f0e; stroke: #ff7f0e"/>
     <use xlink:href="#m92f5453b1d" x="214.693514" y="148.164752" style="fill: #ff7f0e; stroke: #ff7f0e"/>
     <use xlink:href="#m92f5453b1d" x="226.271147" y="105.647314" style="fill: #ff7f0e; stroke: #ff7f0e"/>
     <use xlink:href="#m92f5453b1d" x="261.004048" y="105.647314" style="fill: #ff7f0e; stroke: #ff7f0e"/>
     <use xlink:href="#m92f5453b1d" x="272.581681" y="105.647314" style="fill: #ff7f0e; stroke: #ff7f0e"/>
     <use xlink:href="#m92f5453b1d" x="284.159315" y="105.647314" style="fill: #ff7f0e; stroke: #ff7f0e"/>
     <use xlink:href="#m92f5453b1d" x="295.736948" y="105.647314" style="fill: #ff7f0e; stroke: #ff7f0e"/>
     <use xlink:href="#m92f5453b1d" x="307.314582" y="105.647314" style="fill: #ff7f0e; stroke: #ff7f0e"/>
     <use xlink:href="#m92f5453b1d" x="330.469848" y="105.647314" style="fill: #ff7f0e; stroke: #ff7f0e"/>
     <use xlink:href="#m92f5453b1d" x="342.047482" y="105.647314" style="fill: #ff7f0e; stroke: #ff7f0e"/>
     <use xlink:href="#m92f5453b1d" x="353.625115" y="105.647314" style="fill: #ff7f0e; stroke: #ff7f0e"/>
     <use xlink:href="#m92f5453b1d" x="365.202749" y="105.647314" style="fill: #ff7f0e; stroke: #ff7f0e"/>
     <use xlink:href="#m92f5453b1d" x="376.780382" y="105.647314" style="fill: #ff7f0e; stroke: #ff7f0e"/>
     <use xlink:href="#m92f5453b1d" x="388.358016" y="96.727572" style="fill: #ff7f0e; stroke: #ff7f0e"/>
     <use xlink:href="#m92f5453b1d" x="399.935649" y="96.727572" style="fill: #ff7f0e; stroke: #ff7f0e"/>
     <use xlink:href="#m92f5453b1d" x="411.513283" y="96.727572" style="fill: #ff7f0e; stroke: #ff7f0e"/>
     <use xlink:href="#m92f5453b1d" x="423.090916" y="96.727572" style="fill: #ff7f0e; stroke: #ff7f0e"/>
     <use xlink:href="#m92f5453b1d" x="434.66855" y="96.727572" style="fill: #ff7f0e; stroke: #ff7f0e"/>
     <use xlink:href="#m92f5453b1d" x="446.246183" y="79.6314" style="fill: #ff7f0e; stroke: #ff7f0e"/>
     <use xlink:href="#m92f5453b1d" x="457.823817" y="79.6314" style="fill: #ff7f0e; stroke: #ff7f0e"/>
     <use xlink:href="#m92f5453b1d" x="469.40145" y="79.6314" style="fill: #ff7f0e; stroke: #ff7f0e"/>
     <use xlink:href="#m92f5453b1d" x="480.979084" y="79.6314" style="fill: #ff7f0e; stroke: #ff7f0e"/>
     <use xlink:href="#m92f5453b1d" x="492.556717" y="79.6314" style="fill: #ff7f0e; stroke: #ff7f0e"/>
     <use xlink:href="#m92f5453b1d" x="504.134351" y="79.6314" style="fill: #ff7f0e; stroke: #ff7f0e"/>
     <use xlink:href="#m92f5453b1d" x="515.711984" y="79.6314" style="fill: #ff7f0e; stroke: #ff7f0e"/>
     <use xlink:href="#m92f5453b1d" x="527.289618" y="79.6314" style="fill: #ff7f0e; stroke: #ff7f0e"/>
     <use xlink:href="#m92f5453b1d" x="538.867251" y="79.6314" style="fill: #ff7f0e; stroke: #ff7f0e"/>
     <use xlink:href="#m92f5453b1d" x="550.444885" y="79.6314" style="fill: #ff7f0e; stroke: #ff7f0e"/>
     <use xlink:href="#m92f5453b1d" x="562.022518" y="79.6314" style="fill: #ff7f0e; stroke: #ff7f0e"/>
     <use xlink:href="#m92f5453b1d" x="573.600152" y="79.6314" style="fill: #ff7f0e; stroke: #ff7f0e"/>
     <use xlink:href="#m92f5453b1d" x="585.177785" y="79.6314" style="fill: #ff7f0e; stroke: #ff7f0e"/>
     <use xlink:href="#m92f5453b1d" x="596.755418" y="79.6314" style="fill: #ff7f0e; stroke: #ff7f0e"/>
     <use xlink:href="#m92f5453b1d" x="608.333052" y="79.6314" style="fill: #ff7f0e; stroke: #ff7f0e"/>
     <use xlink:href="#m92f5453b1d" x="619.910685" y="79.6314" style="fill: #ff7f0e; stroke: #ff7f0e"/>
     <use xlink:href="#m92f5453b1d" x="631.488319" y="79.6314" style="fill: #ff7f0e; stroke: #ff7f0e"/>
     <use xlink:href="#m92f5453b1d" x="643.065952" y="79.6314" style="fill: #ff7f0e; stroke: #ff7f0e"/>
     <use xlink:href="#m92f5453b1d" x="654.643586" y="79.6314" style="fill: #ff7f0e; stroke: #ff7f0e"/>
     <use xlink:href="#m92f5453b1d" x="666.221219" y="79.6314" style="fill: #ff7f0e; stroke: #ff7f0e"/>
     <use xlink:href="#m92f5453b1d" x="677.798853" y="79.6314" style="fill: #ff7f0e; stroke: #ff7f0e"/>
     <use xlink:href="#m92f5453b1d" x="689.376486" y="79.6314" style="fill: #ff7f0e; stroke: #ff7f0e"/>
     <use xlink:href="#m92f5453b1d" x="700.95412" y="79.6314" style="fill: #ff7f0e; stroke: #ff7f0e"/>
     <use xlink:href="#m92f5453b1d" x="712.531753" y="79.6314" style="fill: #ff7f0e; stroke: #ff7f0e"/>
     <use xlink:href="#m92f5453b1d" x="724.109387" y="79.6314" style="fill: #ff7f0e; stroke: #ff7f0e"/>
     <use xlink:href="#m92f5453b1d" x="735.68702" y="79.6314" style="fill: #ff7f0e; stroke: #ff7f0e"/>
     <use xlink:href="#m92f5453b1d" x="747.264654" y="79.6314" style="fill: #ff7f0e; stroke: #ff7f0e"/>
     <use xlink:href="#m92f5453b1d" x="758.842287" y="79.6314" style="fill: #ff7f0e; stroke: #ff7f0e"/>
     <use xlink:href="#m92f5453b1d" x="770.419921" y="79.6314" style="fill: #ff7f0e; stroke: #ff7f0e"/>
     <use xlink:href="#m92f5453b1d" x="781.997554" y="79.6314" style="fill: #ff7f0e; stroke: #ff7f0e"/>
     <use xlink:href="#m92f5453b1d" x="793.575188" y="79.6314" style="fill: #ff7f0e; stroke: #ff7f0e"/>
     <use xlink:href="#m92f5453b1d" x="805.152821" y="79.6314" style="fill: #ff7f0e; stroke: #ff7f0e"/>
     <use xlink:href="#m92f5453b1d" x="816.730455" y="79.6314" style="fill: #ff7f0e; stroke: #ff7f0e"/>
    </g>
   </g>
   <g id="line2d_33">
    <path d="M 87.339545 385.332598 
L 98.917179 362.873961 
L 110.494812 333.725518 
L 122.072446 317.192139 
L 133.650079 297.504994 
L 145.227713 277.531143 
L 156.805346 262.335725 
L 168.38298 245.420071 
L 179.960613 214.838099 
L 191.538247 193.526286 
L 203.11588 162.944313 
L 214.693514 145.646385 
L 226.271147 100.920249 
L 261.004048 100.920249 
L 272.581681 100.920249 
L 284.159315 100.920249 
L 295.736948 100.920249 
L 307.314582 100.920249 
L 330.469848 100.920249 
L 342.047482 100.920249 
L 353.625115 100.920249 
L 365.202749 100.920249 
L 376.780382 100.920249 
L 388.358016 93.752599 
L 399.935649 93.752599 
L 411.513283 93.752599 
L 423.090916 93.752599 
L 434.66855 93.752599 
L 446.246183 77.028083 
L 457.823817 77.028083 
L 469.40145 77.028083 
L 480.979084 77.028083 
L 492.556717 77.028083 
L 504.134351 77.028083 
L 515.711984 77.028083 
L 527.289618 77.028083 
L 538.867251 77.028083 
L 550.444885 77.028083 
L 562.022518 77.028083 
L 573.600152 77.028083 
L 585.177785 77.028083 
L 596.755418 77.028083 
L 608.333052 77.028083 
L 619.910685 77.028083 
L 631.488319 77.028083 
L 643.065952 77.028083 
L 654.643586 77.028083 
L 666.221219 77.028083 
L 677.798853 77.028083 
L 689.376486 77.028083 
L 700.95412 77.028083 
L 712.531753 77.028083 
L 724.109387 77.028083 
L 735.68702 77.028083 
L 747.264654 77.028083 
L 758.842287 77.028083 
L 770.419921 77.028083 
L 781.997554 77.028083 
L 793.575188 77.028083 
L 805.152821 77.028083 
L 816.730455 77.028083 
" clip-path="url(#p2730e245be)" style="fill: none; stroke: #2ca02c; stroke-width: 1.5; stroke-linecap: square"/>
    <defs>
     <path id="mf8e927dc09" d="M 0 3.5 
C 0.928211 3.5 1.81853 3.131218 2.474874 2.474874 
C 3.131218 1.81853 3.5 0.928211 3.5 0 
C 3.5 -0.928211 3.131218 -1.81853 2.474874 -2.474874 
C 1.81853 -3.131218 0.928211 -3.5 0 -3.5 
C -0.928211 -3.5 -1.81853 -3.131218 -2.474874 -2.474874 
C -3.131218 -1.81853 -3.5 -0.928211 -3.5 0 
C -3.5 0.928211 -3.131218 1.81853 -2.474874 2.474874 
C -1.81853 3.131218 -0.928211 3.5 0 3.5 
z
" style="stroke: #2ca02c"/>
    </defs>
    <g clip-path="url(#p2730e245be)">
     <use xlink:href="#mf8e927dc09" x="87.339545" y="385.332598" style="fill: #2ca02c; stroke: #2ca02c"/>
     <use xlink:href="#mf8e927dc09" x="98.917179" y="362.873961" style="fill: #2ca02c; stroke: #2ca02c"/>
     <use xlink:href="#mf8e927dc09" x="110.494812" y="333.725518" style="fill: #2ca02c; stroke: #2ca02c"/>
     <use xlink:href="#mf8e927dc09" x="122.072446" y="317.192139" style="fill: #2ca02c; stroke: #2ca02c"/>
     <use xlink:href="#mf8e927dc09" x="133.650079" y="297.504994" style="fill: #2ca02c; stroke: #2ca02c"/>
     <use xlink:href="#mf8e927dc09" x="145.227713" y="277.531143" style="fill: #2ca02c; stroke: #2ca02c"/>
     <use xlink:href="#mf8e927dc09" x="156.805346" y="262.335725" style="fill: #2ca02c; stroke: #2ca02c"/>
     <use xlink:href="#mf8e927dc09" x="168.38298" y="245.420071" style="fill: #2ca02c; stroke: #2ca02c"/>
     <use xlink:href="#mf8e927dc09" x="179.960613" y="214.838099" style="fill: #2ca02c; stroke: #2ca02c"/>
     <use xlink:href="#mf8e927dc09" x="191.538247" y="193.526286" style="fill: #2ca02c; stroke: #2ca02c"/>
     <use xlink:href="#mf8e927dc09" x="203.11588" y="162.944313" style="fill: #2ca02c; stroke: #2ca02c"/>
     <use xlink:href="#mf8e927dc09" x="214.693514" y="145.646385" style="fill: #2ca02c; stroke: #2ca02c"/>
     <use xlink:href="#mf8e927dc09" x="226.271147" y="100.920249" style="fill: #2ca02c; stroke: #2ca02c"/>
     <use xlink:href="#mf8e927dc09" x="261.004048" y="100.920249" style="fill: #2ca02c; stroke: #2ca02c"/>
     <use xlink:href="#mf8e927dc09" x="272.581681" y="100.920249" style="fill: #2ca02c; stroke: #2ca02c"/>
     <use xlink:href="#mf8e927dc09" x="284.159315" y="100.920249" style="fill: #2ca02c; stroke: #2ca02c"/>
     <use xlink:href="#mf8e927dc09" x="295.736948" y="100.920249" style="fill: #2ca02c; stroke: #2ca02c"/>
     <use xlink:href="#mf8e927dc09" x="307.314582" y="100.920249" style="fill: #2ca02c; stroke: #2ca02c"/>
     <use xlink:href="#mf8e927dc09" x="330.469848" y="100.920249" style="fill: #2ca02c; stroke: #2ca02c"/>
     <use xlink:href="#mf8e927dc09" x="342.047482" y="100.920249" style="fill: #2ca02c; stroke: #2ca02c"/>
     <use xlink:href="#mf8e927dc09" x="353.625115" y="100.920249" style="fill: #2ca02c; stroke: #2ca02c"/>
     <use xlink:href="#mf8e927dc09" x="365.202749" y="100.920249" style="fill: #2ca02c; stroke: #2ca02c"/>
     <use xlink:href="#mf8e927dc09" x="376.780382" y="100.920249" style="fill: #2ca02c; stroke: #2ca02c"/>
     <use xlink:href="#mf8e927dc09" x="388.358016" y="93.752599" style="fill: #2ca02c; stroke: #2ca02c"/>
     <use xlink:href="#mf8e927dc09" x="399.935649" y="93.752599" style="fill: #2ca02c; stroke: #2ca02c"/>
     <use xlink:href="#mf8e927dc09" x="411.513283" y="93.752599" style="fill: #2ca02c; stroke: #2ca02c"/>
     <use xlink:href="#mf8e927dc09" x="423.090916" y="93.752599" style="fill: #2ca02c; stroke: #2ca02c"/>
     <use xlink:href="#mf8e927dc09" x="434.66855" y="93.752599" style="fill: #2ca02c; stroke: #2ca02c"/>
     <use xlink:href="#mf8e927dc09" x="446.246183" y="77.028083" style="fill: #2ca02c; stroke: #2ca02c"/>
     <use xlink:href="#mf8e927dc09" x="457.823817" y="77.028083" style="fill: #2ca02c; stroke: #2ca02c"/>
     <use xlink:href="#mf8e927dc09" x="469.40145" y="77.028083" style="fill: #2ca02c; stroke: #2ca02c"/>
     <use xlink:href="#mf8e927dc09" x="480.979084" y="77.028083" style="fill: #2ca02c; stroke: #2ca02c"/>
     <use xlink:href="#mf8e927dc09" x="492.556717" y="77.028083" style="fill: #2ca02c; stroke: #2ca02c"/>
     <use xlink:href="#mf8e927dc09" x="504.134351" y="77.028083" style="fill: #2ca02c; stroke: #2ca02c"/>
     <use xlink:href="#mf8e927dc09" x="515.711984" y="77.028083" style="fill: #2ca02c; stroke: #2ca02c"/>
     <use xlink:href="#mf8e927dc09" x="527.289618" y="77.028083" style="fill: #2ca02c; stroke: #2ca02c"/>
     <use xlink:href="#mf8e927dc09" x="538.867251" y="77.028083" style="fill: #2ca02c; stroke: #2ca02c"/>
     <use xlink:href="#mf8e927dc09" x="550.444885" y="77.028083" style="fill: #2ca02c; stroke: #2ca02c"/>
     <use xlink:href="#mf8e927dc09" x="562.022518" y="77.028083" style="fill: #2ca02c; stroke: #2ca02c"/>
     <use xlink:href="#mf8e927dc09" x="573.600152" y="77.028083" style="fill: #2ca02c; stroke: #2ca02c"/>
     <use xlink:href="#mf8e927dc09" x="585.177785" y="77.028083" style="fill: #2ca02c; stroke: #2ca02c"/>
     <use xlink:href="#mf8e927dc09" x="596.755418" y="77.028083" style="fill: #2ca02c; stroke: #2ca02c"/>
     <use xlink:href="#mf8e927dc09" x="608.333052" y="77.028083" style="fill: #2ca02c; stroke: #2ca02c"/>
     <use xlink:href="#mf8e927dc09" x="619.910685" y="77.028083" style="fill: #2ca02c; stroke: #2ca02c"/>
     <use xlink:href="#mf8e927dc09" x="631.488319" y="77.028083" style="fill: #2ca02c; stroke: #2ca02c"/>
     <use xlink:href="#mf8e927dc09" x="643.065952" y="77.028083" style="fill: #2ca02c; stroke: #2ca02c"/>
     <use xlink:href="#mf8e927dc09" x="654.643586" y="77.028083" style="fill: #2ca02c; stroke: #2ca02c"/>
     <use xlink:href="#mf8e927dc09" x="666.221219" y="77.028083" style="fill: #2ca02c; stroke: #2ca02c"/>
     <use xlink:href="#mf8e927dc09" x="677.798853" y="77.028083" style="fill: #2ca02c; stroke: #2ca02c"/>
     <use xlink:href="#mf8e927dc09" x="689.376486" y="77.028083" style="fill: #2ca02c; stroke: #2ca02c"/>
     <use xlink:href="#mf8e927dc09" x="700.95412" y="77.028083" style="fill: #2ca02c; stroke: #2ca02c"/>
     <use xlink:href="#mf8e927dc09" x="712.531753" y="77.028083" style="fill: #2ca02c; stroke: #2ca02c"/>
     <use xlink:href="#mf8e927dc09" x="724.109387" y="77.028083" style="fill: #2ca02c; stroke: #2ca02c"/>
     <use xlink:href="#mf8e927dc09" x="735.68702" y="77.028083" style="fill: #2ca02c; stroke: #2ca02c"/>
     <use xlink:href="#mf8e927dc09" x="747.264654" y="77.028083" style="fill: #2ca02c; stroke: #2ca02c"/>
     <use xlink:href="#mf8e927dc09" x="758.842287" y="77.028083" style="fill: #2ca02c; stroke: #2ca02c"/>
     <use xlink:href="#mf8e927dc09" x="770.419921" y="77.028083" style="fill: #2ca02c; stroke: #2ca02c"/>
     <use xlink:href="#mf8e927dc09" x="781.997554" y="77.028083" style="fill: #2ca02c; stroke: #2ca02c"/>
     <use xlink:href="#mf8e927dc09" x="793.575188" y="77.028083" style="fill: #2ca02c; stroke: #2ca02c"/>
     <use xlink:href="#mf8e927dc09" x="805.152821" y="77.028083" style="fill: #2ca02c; stroke: #2ca02c"/>
     <use xlink:href="#mf8e927dc09" x="816.730455" y="77.028083" style="fill: #2ca02c; stroke: #2ca02c"/>
    </g>
   </g>
   <g id="line2d_34">
    <path d="M 87.339545 385.433563 
L 98.917179 362.955813 
L 110.494812 337.266956 
L 122.072446 323.61975 
L 133.650079 308.456189 
L 145.227713 281.518568 
L 156.805346 251.905024 
L 168.38298 242.628492 
L 179.960613 213.906922 
L 191.538247 196.513425 
L 203.11588 165.115933 
L 214.693514 147.811633 
L 226.271147 92.598429 
L 261.004048 92.598429 
L 272.581681 92.598429 
L 284.159315 92.598429 
L 295.736948 92.598429 
L 307.314582 92.598429 
L 330.469848 92.598429 
L 342.047482 92.598429 
L 353.625115 92.598429 
L 365.202749 92.598429 
L 376.780382 92.598429 
L 388.358016 81.894739 
L 399.935649 81.894739 
L 411.513283 81.894739 
L 423.090916 81.894739 
L 434.66855 81.894739 
L 446.246183 75.650919 
L 457.823817 75.650919 
L 469.40145 75.650919 
L 480.979084 75.650919 
L 492.556717 75.650919 
L 504.134351 75.650919 
L 515.711984 75.650919 
L 527.289618 75.650919 
L 538.867251 75.650919 
L 550.444885 75.650919 
L 562.022518 75.650919 
L 573.600152 75.650919 
L 585.177785 75.650919 
L 596.755418 75.650919 
L 608.333052 75.650919 
L 619.910685 75.650919 
L 631.488319 75.650919 
L 643.065952 75.650919 
L 654.643586 75.650919 
L 666.221219 75.650919 
L 677.798853 75.650919 
L 689.376486 75.650919 
L 700.95412 75.650919 
L 712.531753 75.650919 
L 724.109387 75.650919 
L 735.68702 75.650919 
L 747.264654 75.650919 
L 758.842287 75.650919 
L 770.419921 75.650919 
L 781.997554 75.650919 
L 793.575188 75.650919 
L 805.152821 75.650919 
L 816.730455 75.650919 
" clip-path="url(#p2730e245be)" style="fill: none; stroke: #d62728; stroke-width: 1.5; stroke-linecap: square"/>
    <defs>
     <path id="mcbb9f635a5" d="M 0 3.5 
C 0.928211 3.5 1.81853 3.131218 2.474874 2.474874 
C 3.131218 1.81853 3.5 0.928211 3.5 0 
C 3.5 -0.928211 3.131218 -1.81853 2.474874 -2.474874 
C 1.81853 -3.131218 0.928211 -3.5 0 -3.5 
C -0.928211 -3.5 -1.81853 -3.131218 -2.474874 -2.474874 
C -3.131218 -1.81853 -3.5 -0.928211 -3.5 0 
C -3.5 0.928211 -3.131218 1.81853 -2.474874 2.474874 
C -1.81853 3.131218 -0.928211 3.5 0 3.5 
z
" style="stroke: #d62728"/>
    </defs>
    <g clip-path="url(#p2730e245be)">
     <use xlink:href="#mcbb9f635a5" x="87.339545" y="385.433563" style="fill: #d62728; stroke: #d62728"/>
     <use xlink:href="#mcbb9f635a5" x="98.917179" y="362.955813" style="fill: #d62728; stroke: #d62728"/>
     <use xlink:href="#mcbb9f635a5" x="110.494812" y="337.266956" style="fill: #d62728; stroke: #d62728"/>
     <use xlink:href="#mcbb9f635a5" x="122.072446" y="323.61975" style="fill: #d62728; stroke: #d62728"/>
     <use xlink:href="#mcbb9f635a5" x="133.650079" y="308.456189" style="fill: #d62728; stroke: #d62728"/>
     <use xlink:href="#mcbb9f635a5" x="145.227713" y="281.518568" style="fill: #d62728; stroke: #d62728"/>
     <use xlink:href="#mcbb9f635a5" x="156.805346" y="251.905024" style="fill: #d62728; stroke: #d62728"/>
     <use xlink:href="#mcbb9f635a5" x="168.38298" y="242.628492" style="fill: #d62728; stroke: #d62728"/>
     <use xlink:href="#mcbb9f635a5" x="179.960613" y="213.906922" style="fill: #d62728; stroke: #d62728"/>
     <use xlink:href="#mcbb9f635a5" x="191.538247" y="196.513425" style="fill: #d62728; stroke: #d62728"/>
     <use xlink:href="#mcbb9f635a5" x="203.11588" y="165.115933" style="fill: #d62728; stroke: #d62728"/>
     <use xlink:href="#mcbb9f635a5" x="214.693514" y="147.811633" style="fill: #d62728; stroke: #d62728"/>
     <use xlink:href="#mcbb9f635a5" x="226.271147" y="92.598429" style="fill: #d62728; stroke: #d62728"/>
     <use xlink:href="#mcbb9f635a5" x="261.004048" y="92.598429" style="fill: #d62728; stroke: #d62728"/>
     <use xlink:href="#mcbb9f635a5" x="272.581681" y="92.598429" style="fill: #d62728; stroke: #d62728"/>
     <use xlink:href="#mcbb9f635a5" x="284.159315" y="92.598429" style="fill: #d62728; stroke: #d62728"/>
     <use xlink:href="#mcbb9f635a5" x="295.736948" y="92.598429" style="fill: #d62728; stroke: #d62728"/>
     <use xlink:href="#mcbb9f635a5" x="307.314582" y="92.598429" style="fill: #d62728; stroke: #d62728"/>
     <use xlink:href="#mcbb9f635a5" x="330.469848" y="92.598429" style="fill: #d62728; stroke: #d62728"/>
     <use xlink:href="#mcbb9f635a5" x="342.047482" y="92.598429" style="fill: #d62728; stroke: #d62728"/>
     <use xlink:href="#mcbb9f635a5" x="353.625115" y="92.598429" style="fill: #d62728; stroke: #d62728"/>
     <use xlink:href="#mcbb9f635a5" x="365.202749" y="92.598429" style="fill: #d62728; stroke: #d62728"/>
     <use xlink:href="#mcbb9f635a5" x="376.780382" y="92.598429" style="fill: #d62728; stroke: #d62728"/>
     <use xlink:href="#mcbb9f635a5" x="388.358016" y="81.894739" style="fill: #d62728; stroke: #d62728"/>
     <use xlink:href="#mcbb9f635a5" x="399.935649" y="81.894739" style="fill: #d62728; stroke: #d62728"/>
     <use xlink:href="#mcbb9f635a5" x="411.513283" y="81.894739" style="fill: #d62728; stroke: #d62728"/>
     <use xlink:href="#mcbb9f635a5" x="423.090916" y="81.894739" style="fill: #d62728; stroke: #d62728"/>
     <use xlink:href="#mcbb9f635a5" x="434.66855" y="81.894739" style="fill: #d62728; stroke: #d62728"/>
     <use xlink:href="#mcbb9f635a5" x="446.246183" y="75.650919" style="fill: #d62728; stroke: #d62728"/>
     <use xlink:href="#mcbb9f635a5" x="457.823817" y="75.650919" style="fill: #d62728; stroke: #d62728"/>
     <use xlink:href="#mcbb9f635a5" x="469.40145" y="75.650919" style="fill: #d62728; stroke: #d62728"/>
     <use xlink:href="#mcbb9f635a5" x="480.979084" y="75.650919" style="fill: #d62728; stroke: #d62728"/>
     <use xlink:href="#mcbb9f635a5" x="492.556717" y="75.650919" style="fill: #d62728; stroke: #d62728"/>
     <use xlink:href="#mcbb9f635a5" x="504.134351" y="75.650919" style="fill: #d62728; stroke: #d62728"/>
     <use xlink:href="#mcbb9f635a5" x="515.711984" y="75.650919" style="fill: #d62728; stroke: #d62728"/>
     <use xlink:href="#mcbb9f635a5" x="527.289618" y="75.650919" style="fill: #d62728; stroke: #d62728"/>
     <use xlink:href="#mcbb9f635a5" x="538.867251" y="75.650919" style="fill: #d62728; stroke: #d62728"/>
     <use xlink:href="#mcbb9f635a5" x="550.444885" y="75.650919" style="fill: #d62728; stroke: #d62728"/>
     <use xlink:href="#mcbb9f635a5" x="562.022518" y="75.650919" style="fill: #d62728; stroke: #d62728"/>
     <use xlink:href="#mcbb9f635a5" x="573.600152" y="75.650919" style="fill: #d62728; stroke: #d62728"/>
     <use xlink:href="#mcbb9f635a5" x="585.177785" y="75.650919" style="fill: #d62728; stroke: #d62728"/>
     <use xlink:href="#mcbb9f635a5" x="596.755418" y="75.650919" style="fill: #d62728; stroke: #d62728"/>
     <use xlink:href="#mcbb9f635a5" x="608.333052" y="75.650919" style="fill: #d62728; stroke: #d62728"/>
     <use xlink:href="#mcbb9f635a5" x="619.910685" y="75.650919" style="fill: #d62728; stroke: #d62728"/>
     <use xlink:href="#mcbb9f635a5" x="631.488319" y="75.650919" style="fill: #d62728; stroke: #d62728"/>
     <use xlink:href="#mcbb9f635a5" x="643.065952" y="75.650919" style="fill: #d62728; stroke: #d62728"/>
     <use xlink:href="#mcbb9f635a5" x="654.643586" y="75.650919" style="fill: #d62728; stroke: #d62728"/>
     <use xlink:href="#mcbb9f635a5" x="666.221219" y="75.650919" style="fill: #d62728; stroke: #d62728"/>
     <use xlink:href="#mcbb9f635a5" x="677.798853" y="75.650919" style="fill: #d62728; stroke: #d62728"/>
     <use xlink:href="#mcbb9f635a5" x="689.376486" y="75.650919" style="fill: #d62728; stroke: #d62728"/>
     <use xlink:href="#mcbb9f635a5" x="700.95412" y="75.650919" style="fill: #d62728; stroke: #d62728"/>
     <use xlink:href="#mcbb9f635a5" x="712.531753" y="75.650919" style="fill: #d62728; stroke: #d62728"/>
     <use xlink:href="#mcbb9f635a5" x="724.109387" y="75.650919" style="fill: #d62728; stroke: #d62728"/>
     <use xlink:href="#mcbb9f635a5" x="735.68702" y="75.650919" style="fill: #d62728; stroke: #d62728"/>
     <use xlink:href="#mcbb9f635a5" x="747.264654" y="75.650919" style="fill: #d62728; stroke: #d62728"/>
     <use xlink:href="#mcbb9f635a5" x="758.842287" y="75.650919" style="fill: #d62728; stroke: #d62728"/>
     <use xlink:href="#mcbb9f635a5" x="770.419921" y="75.650919" style="fill: #d62728; stroke: #d62728"/>
     <use xlink:href="#mcbb9f635a5" x="781.997554" y="75.650919" style="fill: #d62728; stroke: #d62728"/>
     <use xlink:href="#mcbb9f635a5" x="793.575188" y="75.650919" style="fill: #d62728; stroke: #d62728"/>
     <use xlink:href="#mcbb9f635a5" x="805.152821" y="75.650919" style="fill: #d62728; stroke: #d62728"/>
     <use xlink:href="#mcbb9f635a5" x="816.730455" y="75.650919" style="fill: #d62728; stroke: #d62728"/>
    </g>
   </g>
   <g id="line2d_35">
    <path d="M 87.339545 386.972727 
L 98.917179 361.254137 
L 110.494812 341.630705 
L 122.072446 324.088545 
L 133.650079 307.141035 
L 145.227713 285.733654 
L 156.805346 273.692002 
L 168.38298 262.542325 
L 179.960613 232.958513 
L 191.538247 212.591769 
L 203.11588 172.155605 
L 214.693514 155.356757 
L 226.271147 108.230786 
L 261.004048 108.230786 
L 272.581681 108.230786 
L 284.159315 108.230786 
L 295.736948 108.230786 
L 307.314582 108.230786 
L 330.469848 108.230786 
L 342.047482 108.230786 
L 353.625115 108.230786 
L 365.202749 108.230786 
L 376.780382 108.230786 
L 388.358016 92.621237 
L 399.935649 92.621237 
L 411.513283 92.621237 
L 423.090916 92.621237 
L 434.66855 92.621237 
L 446.246183 73.295129 
L 457.823817 73.295129 
L 469.40145 73.295129 
L 480.979084 73.295129 
L 492.556717 73.295129 
L 504.134351 73.295129 
L 515.711984 73.295129 
L 527.289618 73.295129 
L 538.867251 73.295129 
L 550.444885 73.295129 
L 562.022518 73.295129 
L 573.600152 73.295129 
L 585.177785 73.295129 
L 596.755418 73.295129 
L 608.333052 73.295129 
L 619.910685 73.295129 
L 631.488319 73.295129 
L 643.065952 73.295129 
L 654.643586 73.295129 
L 666.221219 73.295129 
L 677.798853 73.295129 
L 689.376486 73.295129 
L 700.95412 73.295129 
L 712.531753 73.295129 
L 724.109387 73.295129 
L 735.68702 73.295129 
L 747.264654 73.295129 
L 758.842287 73.295129 
L 770.419921 73.295129 
L 781.997554 73.295129 
L 793.575188 73.295129 
L 805.152821 73.295129 
L 816.730455 73.295129 
" clip-path="url(#p2730e245be)" style="fill: none; stroke: #9467bd; stroke-width: 1.5; stroke-linecap: square"/>
    <defs>
     <path id="m2b799aaf19" d="M 0 3.5 
C 0.928211 3.5 1.81853 3.131218 2.474874 2.474874 
C 3.131218 1.81853 3.5 0.928211 3.5 0 
C 3.5 -0.928211 3.131218 -1.81853 2.474874 -2.474874 
C 1.81853 -3.131218 0.928211 -3.5 0 -3.5 
C -0.928211 -3.5 -1.81853 -3.131218 -2.474874 -2.474874 
C -3.131218 -1.81853 -3.5 -0.928211 -3.5 0 
C -3.5 0.928211 -3.131218 1.81853 -2.474874 2.474874 
C -1.81853 3.131218 -0.928211 3.5 0 3.5 
z
" style="stroke: #9467bd"/>
    </defs>
    <g clip-path="url(#p2730e245be)">
     <use xlink:href="#m2b799aaf19" x="87.339545" y="386.972727" style="fill: #9467bd; stroke: #9467bd"/>
     <use xlink:href="#m2b799aaf19" x="98.917179" y="361.254137" style="fill: #9467bd; stroke: #9467bd"/>
     <use xlink:href="#m2b799aaf19" x="110.494812" y="341.630705" style="fill: #9467bd; stroke: #9467bd"/>
     <use xlink:href="#m2b799aaf19" x="122.072446" y="324.088545" style="fill: #9467bd; stroke: #9467bd"/>
     <use xlink:href="#m2b799aaf19" x="133.650079" y="307.141035" style="fill: #9467bd; stroke: #9467bd"/>
     <use xlink:href="#m2b799aaf19" x="145.227713" y="285.733654" style="fill: #9467bd; stroke: #9467bd"/>
     <use xlink:href="#m2b799aaf19" x="156.805346" y="273.692002" style="fill: #9467bd; stroke: #9467bd"/>
     <use xlink:href="#m2b799aaf19" x="168.38298" y="262.542325" style="fill: #9467bd; stroke: #9467bd"/>
     <use xlink:href="#m2b799aaf19" x="179.960613" y="232.958513" style="fill: #9467bd; stroke: #9467bd"/>
     <use xlink:href="#m2b799aaf19" x="191.538247" y="212.591769" style="fill: #9467bd; stroke: #9467bd"/>
     <use xlink:href="#m2b799aaf19" x="203.11588" y="172.155605" style="fill: #9467bd; stroke: #9467bd"/>
     <use xlink:href="#m2b799aaf19" x="214.693514" y="155.356757" style="fill: #9467bd; stroke: #9467bd"/>
     <use xlink:href="#m2b799aaf19" x="226.271147" y="108.230786" style="fill: #9467bd; stroke: #9467bd"/>
     <use xlink:href="#m2b799aaf19" x="261.004048" y="108.230786" style="fill: #9467bd; stroke: #9467bd"/>
     <use xlink:href="#m2b799aaf19" x="272.581681" y="108.230786" style="fill: #9467bd; stroke: #9467bd"/>
     <use xlink:href="#m2b799aaf19" x="284.159315" y="108.230786" style="fill: #9467bd; stroke: #9467bd"/>
     <use xlink:href="#m2b799aaf19" x="295.736948" y="108.230786" style="fill: #9467bd; stroke: #9467bd"/>
     <use xlink:href="#m2b799aaf19" x="307.314582" y="108.230786" style="fill: #9467bd; stroke: #9467bd"/>
     <use xlink:href="#m2b799aaf19" x="330.469848" y="108.230786" style="fill: #9467bd; stroke: #9467bd"/>
     <use xlink:href="#m2b799aaf19" x="342.047482" y="108.230786" style="fill: #9467bd; stroke: #9467bd"/>
     <use xlink:href="#m2b799aaf19" x="353.625115" y="108.230786" style="fill: #9467bd; stroke: #9467bd"/>
     <use xlink:href="#m2b799aaf19" x="365.202749" y="108.230786" style="fill: #9467bd; stroke: #9467bd"/>
     <use xlink:href="#m2b799aaf19" x="376.780382" y="108.230786" style="fill: #9467bd; stroke: #9467bd"/>
     <use xlink:href="#m2b799aaf19" x="388.358016" y="92.621237" style="fill: #9467bd; stroke: #9467bd"/>
     <use xlink:href="#m2b799aaf19" x="399.935649" y="92.621237" style="fill: #9467bd; stroke: #9467bd"/>
     <use xlink:href="#m2b799aaf19" x="411.513283" y="92.621237" style="fill: #9467bd; stroke: #9467bd"/>
     <use xlink:href="#m2b799aaf19" x="423.090916" y="92.621237" style="fill: #9467bd; stroke: #9467bd"/>
     <use xlink:href="#m2b799aaf19" x="434.66855" y="92.621237" style="fill: #9467bd; stroke: #9467bd"/>
     <use xlink:href="#m2b799aaf19" x="446.246183" y="73.295129" style="fill: #9467bd; stroke: #9467bd"/>
     <use xlink:href="#m2b799aaf19" x="457.823817" y="73.295129" style="fill: #9467bd; stroke: #9467bd"/>
     <use xlink:href="#m2b799aaf19" x="469.40145" y="73.295129" style="fill: #9467bd; stroke: #9467bd"/>
     <use xlink:href="#m2b799aaf19" x="480.979084" y="73.295129" style="fill: #9467bd; stroke: #9467bd"/>
     <use xlink:href="#m2b799aaf19" x="492.556717" y="73.295129" style="fill: #9467bd; stroke: #9467bd"/>
     <use xlink:href="#m2b799aaf19" x="504.134351" y="73.295129" style="fill: #9467bd; stroke: #9467bd"/>
     <use xlink:href="#m2b799aaf19" x="515.711984" y="73.295129" style="fill: #9467bd; stroke: #9467bd"/>
     <use xlink:href="#m2b799aaf19" x="527.289618" y="73.295129" style="fill: #9467bd; stroke: #9467bd"/>
     <use xlink:href="#m2b799aaf19" x="538.867251" y="73.295129" style="fill: #9467bd; stroke: #9467bd"/>
     <use xlink:href="#m2b799aaf19" x="550.444885" y="73.295129" style="fill: #9467bd; stroke: #9467bd"/>
     <use xlink:href="#m2b799aaf19" x="562.022518" y="73.295129" style="fill: #9467bd; stroke: #9467bd"/>
     <use xlink:href="#m2b799aaf19" x="573.600152" y="73.295129" style="fill: #9467bd; stroke: #9467bd"/>
     <use xlink:href="#m2b799aaf19" x="585.177785" y="73.295129" style="fill: #9467bd; stroke: #9467bd"/>
     <use xlink:href="#m2b799aaf19" x="596.755418" y="73.295129" style="fill: #9467bd; stroke: #9467bd"/>
     <use xlink:href="#m2b799aaf19" x="608.333052" y="73.295129" style="fill: #9467bd; stroke: #9467bd"/>
     <use xlink:href="#m2b799aaf19" x="619.910685" y="73.295129" style="fill: #9467bd; stroke: #9467bd"/>
     <use xlink:href="#m2b799aaf19" x="631.488319" y="73.295129" style="fill: #9467bd; stroke: #9467bd"/>
     <use xlink:href="#m2b799aaf19" x="643.065952" y="73.295129" style="fill: #9467bd; stroke: #9467bd"/>
     <use xlink:href="#m2b799aaf19" x="654.643586" y="73.295129" style="fill: #9467bd; stroke: #9467bd"/>
     <use xlink:href="#m2b799aaf19" x="666.221219" y="73.295129" style="fill: #9467bd; stroke: #9467bd"/>
     <use xlink:href="#m2b799aaf19" x="677.798853" y="73.295129" style="fill: #9467bd; stroke: #9467bd"/>
     <use xlink:href="#m2b799aaf19" x="689.376486" y="73.295129" style="fill: #9467bd; stroke: #9467bd"/>
     <use xlink:href="#m2b799aaf19" x="700.95412" y="73.295129" style="fill: #9467bd; stroke: #9467bd"/>
     <use xlink:href="#m2b799aaf19" x="712.531753" y="73.295129" style="fill: #9467bd; stroke: #9467bd"/>
     <use xlink:href="#m2b799aaf19" x="724.109387" y="73.295129" style="fill: #9467bd; stroke: #9467bd"/>
     <use xlink:href="#m2b799aaf19" x="735.68702" y="73.295129" style="fill: #9467bd; stroke: #9467bd"/>
     <use xlink:href="#m2b799aaf19" x="747.264654" y="73.295129" style="fill: #9467bd; stroke: #9467bd"/>
     <use xlink:href="#m2b799aaf19" x="758.842287" y="73.295129" style="fill: #9467bd; stroke: #9467bd"/>
     <use xlink:href="#m2b799aaf19" x="770.419921" y="73.295129" style="fill: #9467bd; stroke: #9467bd"/>
     <use xlink:href="#m2b799aaf19" x="781.997554" y="73.295129" style="fill: #9467bd; stroke: #9467bd"/>
     <use xlink:href="#m2b799aaf19" x="793.575188" y="73.295129" style="fill: #9467bd; stroke: #9467bd"/>
     <use xlink:href="#m2b799aaf19" x="805.152821" y="73.295129" style="fill: #9467bd; stroke: #9467bd"/>
     <use xlink:href="#m2b799aaf19" x="816.730455" y="73.295129" style="fill: #9467bd; stroke: #9467bd"/>
    </g>
   </g>
   <g id="line2d_36">
    <path d="M 87.339545 381.193525 
L 98.917179 356.441241 
L 110.494812 330.128001 
L 122.072446 314.072465 
L 133.650079 296.232981 
L 145.227713 273.041652 
L 156.805346 253.195225 
L 168.38298 236.247715 
L 179.960613 201.906708 
L 191.538247 182.952256 
L 203.11588 148.834243 
L 214.693514 132.109726 
L 226.271147 79.706241 
L 261.004048 79.706241 
L 272.581681 79.706241 
L 284.159315 79.706241 
L 295.736948 79.706241 
L 307.314582 79.706241 
L 330.469848 79.706241 
L 342.047482 79.706241 
L 353.625115 79.706241 
L 365.202749 79.706241 
L 376.780382 79.706241 
L 388.358016 66.326628 
L 399.935649 66.326628 
L 411.513283 66.326628 
L 423.090916 66.326628 
L 434.66855 66.326628 
L 446.246183 44.027273 
L 457.823817 44.027273 
L 469.40145 44.027273 
L 480.979084 44.027273 
L 492.556717 44.027273 
L 504.134351 44.027273 
L 515.711984 44.027273 
L 527.289618 44.027273 
L 538.867251 44.027273 
L 550.444885 44.027273 
L 562.022518 44.027273 
L 573.600152 44.027273 
L 585.177785 44.027273 
L 596.755418 44.027273 
L 608.333052 44.027273 
L 619.910685 44.027273 
L 631.488319 44.027273 
L 643.065952 44.027273 
L 654.643586 44.027273 
L 666.221219 44.027273 
L 677.798853 44.027273 
L 689.376486 44.027273 
L 700.95412 44.027273 
L 712.531753 44.027273 
L 724.109387 44.027273 
L 735.68702 44.027273 
L 747.264654 44.027273 
L 758.842287 44.027273 
L 770.419921 44.027273 
L 781.997554 44.027273 
L 793.575188 44.027273 
L 805.152821 44.027273 
L 816.730455 44.027273 
" clip-path="url(#p2730e245be)" style="fill: none; stroke: #8c564b; stroke-width: 1.5; stroke-linecap: square"/>
    <defs>
     <path id="ma6025f2e4f" d="M 0 3.5 
C 0.928211 3.5 1.81853 3.131218 2.474874 2.474874 
C 3.131218 1.81853 3.5 0.928211 3.5 0 
C 3.5 -0.928211 3.131218 -1.81853 2.474874 -2.474874 
C 1.81853 -3.131218 0.928211 -3.5 0 -3.5 
C -0.928211 -3.5 -1.81853 -3.131218 -2.474874 -2.474874 
C -3.131218 -1.81853 -3.5 -0.928211 -3.5 0 
C -3.5 0.928211 -3.131218 1.81853 -2.474874 2.474874 
C -1.81853 3.131218 -0.928211 3.5 0 3.5 
z
" style="stroke: #8c564b"/>
    </defs>
    <g clip-path="url(#p2730e245be)">
     <use xlink:href="#ma6025f2e4f" x="87.339545" y="381.193525" style="fill: #8c564b; stroke: #8c564b"/>
     <use xlink:href="#ma6025f2e4f" x="98.917179" y="356.441241" style="fill: #8c564b; stroke: #8c564b"/>
     <use xlink:href="#ma6025f2e4f" x="110.494812" y="330.128001" style="fill: #8c564b; stroke: #8c564b"/>
     <use xlink:href="#ma6025f2e4f" x="122.072446" y="314.072465" style="fill: #8c564b; stroke: #8c564b"/>
     <use xlink:href="#ma6025f2e4f" x="133.650079" y="296.232981" style="fill: #8c564b; stroke: #8c564b"/>
     <use xlink:href="#ma6025f2e4f" x="145.227713" y="273.041652" style="fill: #8c564b; stroke: #8c564b"/>
     <use xlink:href="#ma6025f2e4f" x="156.805346" y="253.195225" style="fill: #8c564b; stroke: #8c564b"/>
     <use xlink:href="#ma6025f2e4f" x="168.38298" y="236.247715" style="fill: #8c564b; stroke: #8c564b"/>
     <use xlink:href="#ma6025f2e4f" x="179.960613" y="201.906708" style="fill: #8c564b; stroke: #8c564b"/>
     <use xlink:href="#ma6025f2e4f" x="191.538247" y="182.952256" style="fill: #8c564b; stroke: #8c564b"/>
     <use xlink:href="#ma6025f2e4f" x="203.11588" y="148.834243" style="fill: #8c564b; stroke: #8c564b"/>
     <use xlink:href="#ma6025f2e4f" x="214.693514" y="132.109726" style="fill: #8c564b; stroke: #8c564b"/>
     <use xlink:href="#ma6025f2e4f" x="226.271147" y="79.706241" style="fill: #8c564b; stroke: #8c564b"/>
     <use xlink:href="#ma6025f2e4f" x="261.004048" y="79.706241" style="fill: #8c564b; stroke: #8c564b"/>
     <use xlink:href="#ma6025f2e4f" x="272.581681" y="79.706241" style="fill: #8c564b; stroke: #8c564b"/>
     <use xlink:href="#ma6025f2e4f" x="284.159315" y="79.706241" style="fill: #8c564b; stroke: #8c564b"/>
     <use xlink:href="#ma6025f2e4f" x="295.736948" y="79.706241" style="fill: #8c564b; stroke: #8c564b"/>
     <use xlink:href="#ma6025f2e4f" x="307.314582" y="79.706241" style="fill: #8c564b; stroke: #8c564b"/>
     <use xlink:href="#ma6025f2e4f" x="330.469848" y="79.706241" style="fill: #8c564b; stroke: #8c564b"/>
     <use xlink:href="#ma6025f2e4f" x="342.047482" y="79.706241" style="fill: #8c564b; stroke: #8c564b"/>
     <use xlink:href="#ma6025f2e4f" x="353.625115" y="79.706241" style="fill: #8c564b; stroke: #8c564b"/>
     <use xlink:href="#ma6025f2e4f" x="365.202749" y="79.706241" style="fill: #8c564b; stroke: #8c564b"/>
     <use xlink:href="#ma6025f2e4f" x="376.780382" y="79.706241" style="fill: #8c564b; stroke: #8c564b"/>
     <use xlink:href="#ma6025f2e4f" x="388.358016" y="66.326628" style="fill: #8c564b; stroke: #8c564b"/>
     <use xlink:href="#ma6025f2e4f" x="399.935649" y="66.326628" style="fill: #8c564b; stroke: #8c564b"/>
     <use xlink:href="#ma6025f2e4f" x="411.513283" y="66.326628" style="fill: #8c564b; stroke: #8c564b"/>
     <use xlink:href="#ma6025f2e4f" x="423.090916" y="66.326628" style="fill: #8c564b; stroke: #8c564b"/>
     <use xlink:href="#ma6025f2e4f" x="434.66855" y="66.326628" style="fill: #8c564b; stroke: #8c564b"/>
     <use xlink:href="#ma6025f2e4f" x="446.246183" y="44.027273" style="fill: #8c564b; stroke: #8c564b"/>
     <use xlink:href="#ma6025f2e4f" x="457.823817" y="44.027273" style="fill: #8c564b; stroke: #8c564b"/>
     <use xlink:href="#ma6025f2e4f" x="469.40145" y="44.027273" style="fill: #8c564b; stroke: #8c564b"/>
     <use xlink:href="#ma6025f2e4f" x="480.979084" y="44.027273" style="fill: #8c564b; stroke: #8c564b"/>
     <use xlink:href="#ma6025f2e4f" x="492.556717" y="44.027273" style="fill: #8c564b; stroke: #8c564b"/>
     <use xlink:href="#ma6025f2e4f" x="504.134351" y="44.027273" style="fill: #8c564b; stroke: #8c564b"/>
     <use xlink:href="#ma6025f2e4f" x="515.711984" y="44.027273" style="fill: #8c564b; stroke: #8c564b"/>
     <use xlink:href="#ma6025f2e4f" x="527.289618" y="44.027273" style="fill: #8c564b; stroke: #8c564b"/>
     <use xlink:href="#ma6025f2e4f" x="538.867251" y="44.027273" style="fill: #8c564b; stroke: #8c564b"/>
     <use xlink:href="#ma6025f2e4f" x="550.444885" y="44.027273" style="fill: #8c564b; stroke: #8c564b"/>
     <use xlink:href="#ma6025f2e4f" x="562.022518" y="44.027273" style="fill: #8c564b; stroke: #8c564b"/>
     <use xlink:href="#ma6025f2e4f" x="573.600152" y="44.027273" style="fill: #8c564b; stroke: #8c564b"/>
     <use xlink:href="#ma6025f2e4f" x="585.177785" y="44.027273" style="fill: #8c564b; stroke: #8c564b"/>
     <use xlink:href="#ma6025f2e4f" x="596.755418" y="44.027273" style="fill: #8c564b; stroke: #8c564b"/>
     <use xlink:href="#ma6025f2e4f" x="608.333052" y="44.027273" style="fill: #8c564b; stroke: #8c564b"/>
     <use xlink:href="#ma6025f2e4f" x="619.910685" y="44.027273" style="fill: #8c564b; stroke: #8c564b"/>
     <use xlink:href="#ma6025f2e4f" x="631.488319" y="44.027273" style="fill: #8c564b; stroke: #8c564b"/>
     <use xlink:href="#ma6025f2e4f" x="643.065952" y="44.027273" style="fill: #8c564b; stroke: #8c564b"/>
     <use xlink:href="#ma6025f2e4f" x="654.643586" y="44.027273" style="fill: #8c564b; stroke: #8c564b"/>
     <use xlink:href="#ma6025f2e4f" x="666.221219" y="44.027273" style="fill: #8c564b; stroke: #8c564b"/>
     <use xlink:href="#ma6025f2e4f" x="677.798853" y="44.027273" style="fill: #8c564b; stroke: #8c564b"/>
     <use xlink:href="#ma6025f2e4f" x="689.376486" y="44.027273" style="fill: #8c564b; stroke: #8c564b"/>
     <use xlink:href="#ma6025f2e4f" x="700.95412" y="44.027273" style="fill: #8c564b; stroke: #8c564b"/>
     <use xlink:href="#ma6025f2e4f" x="712.531753" y="44.027273" style="fill: #8c564b; stroke: #8c564b"/>
     <use xlink:href="#ma6025f2e4f" x="724.109387" y="44.027273" style="fill: #8c564b; stroke: #8c564b"/>
     <use xlink:href="#ma6025f2e4f" x="735.68702" y="44.027273" style="fill: #8c564b; stroke: #8c564b"/>
     <use xlink:href="#ma6025f2e4f" x="747.264654" y="44.027273" style="fill: #8c564b; stroke: #8c564b"/>
     <use xlink:href="#ma6025f2e4f" x="758.842287" y="44.027273" style="fill: #8c564b; stroke: #8c564b"/>
     <use xlink:href="#ma6025f2e4f" x="770.419921" y="44.027273" style="fill: #8c564b; stroke: #8c564b"/>
     <use xlink:href="#ma6025f2e4f" x="781.997554" y="44.027273" style="fill: #8c564b; stroke: #8c564b"/>
     <use xlink:href="#ma6025f2e4f" x="793.575188" y="44.027273" style="fill: #8c564b; stroke: #8c564b"/>
     <use xlink:href="#ma6025f2e4f" x="805.152821" y="44.027273" style="fill: #8c564b; stroke: #8c564b"/>
     <use xlink:href="#ma6025f2e4f" x="816.730455" y="44.027273" style="fill: #8c564b; stroke: #8c564b"/>
    </g>
   </g>
   <g id="patch_3">
    <path d="M 50.87 404.12 
L 50.87 26.88 
" style="fill: none; stroke: #000000; stroke-width: 0.8; stroke-linejoin: miter; stroke-linecap: square"/>
   </g>
   <g id="patch_4">
    <path d="M 853.2 404.12 
L 853.2 26.88 
" style="fill: none; stroke: #000000; stroke-width: 0.8; stroke-linejoin: miter; stroke-linecap: square"/>
   </g>
   <g id="patch_5">
    <path d="M 50.87 404.12 
L 853.2 404.12 
" style="fill: none; stroke: #000000; stroke-width: 0.8; stroke-linejoin: miter; stroke-linecap: square"/>
   </g>
   <g id="patch_6">
    <path d="M 50.87 26.88 
L 853.2 26.88 
" style="fill: none; stroke: #000000; stroke-width: 0.8; stroke-linejoin: miter; stroke-linecap: square"/>
   </g>
   <g id="text_17">
    <!-- Standings -->
    <g transform="translate(422.18125 20.88) scale(0.12 -0.12)">
     <defs>
      <path id="DejaVuSans-74" d="M 1172 4494 
L 1172 3500 
L 2356 3500 
L 2356 3053 
L 1172 3053 
L 1172 1153 
Q 1172 725 1289 603 
Q 1406 481 1766 481 
L 2356 481 
L 2356 0 
L 1766 0 
Q 1100 0 847 248 
Q 594 497 594 1153 
L 594 3053 
L 172 3053 
L 172 3500 
L 594 3500 
L 594 4494 
L 1172 4494 
z
" transform="scale(0.015625)"/>
      <path id="DejaVuSans-61" d="M 2194 1759 
Q 1497 1759 1228 1600 
Q 959 1441 959 1056 
Q 959 750 1161 570 
Q 1363 391 1709 391 
Q 2188 391 2477 730 
Q 2766 1069 2766 1631 
L 2766 1759 
L 2194 1759 
z
M 3341 1997 
L 3341 0 
L 2766 0 
L 2766 531 
Q 2569 213 2275 61 
Q 1981 -91 1556 -91 
Q 1019 -91 701 211 
Q 384 513 384 1019 
Q 384 1609 779 1909 
Q 1175 2209 1959 2209 
L 2766 2209 
L 2766 2266 
Q 2766 2663 2505 2880 
Q 2244 3097 1772 3097 
Q 1472 3097 1187 3025 
Q 903 2953 641 2809 
L 641 3341 
Q 956 3463 1253 3523 
Q 1550 3584 1831 3584 
Q 2591 3584 2966 3190 
Q 3341 2797 3341 1997 
z
" transform="scale(0.015625)"/>
      <path id="DejaVuSans-6e" d="M 3513 2113 
L 3513 0 
L 2938 0 
L 2938 2094 
Q 2938 2591 2744 2837 
Q 2550 3084 2163 3084 
Q 1697 3084 1428 2787 
Q 1159 2491 1159 1978 
L 1159 0 
L 581 0 
L 581 3500 
L 1159 3500 
L 1159 2956 
Q 1366 3272 1645 3428 
Q 1925 3584 2291 3584 
Q 2894 3584 3203 3211 
Q 3513 2838 3513 2113 
z
" transform="scale(0.015625)"/>
      <path id="DejaVuSans-64" d="M 2906 2969 
L 2906 4863 
L 3481 4863 
L 3481 0 
L 2906 0 
L 2906 525 
Q 2725 213 2448 61 
Q 2172 -91 1784 -91 
Q 1150 -91 751 415 
Q 353 922 353 1747 
Q 353 2572 751 3078 
Q 1150 3584 1784 3584 
Q 2172 3584 2448 3432 
Q 2725 3281 2906 2969 
z
M 947 1747 
Q 947 1113 1208 752 
Q 1469 391 1925 391 
Q 2381 391 2643 752 
Q 2906 1113 2906 1747 
Q 2906 2381 2643 2742 
Q 2381 3103 1925 3103 
Q 1469 3103 1208 2742 
Q 947 2381 947 1747 
z
" transform="scale(0.015625)"/>
      <path id="DejaVuSans-69" d="M 603 3500 
L 1178 3500 
L 1178 0 
L 603 0 
L 603 3500 
z
M 603 4863 
L 1178 4863 
L 1178 4134 
L 603 4134 
L 603 4863 
z
" transform="scale(0.015625)"/>
      <path id="DejaVuSans-67" d="M 2906 1791 
Q 2906 2416 2648 2759 
Q 2391 3103 1925 3103 
Q 1463 3103 1205 2759 
Q 947 2416 947 1791 
Q 947 1169 1205 825 
Q 1463 481 1925 481 
Q 2391 481 2648 825 
Q 2906 1169 2906 1791 
z
M 3481 434 
Q 3481 -459 3084 -895 
Q 2688 -1331 1869 -1331 
Q 1566 -1331 1297 -1286 
Q 1028 -1241 775 -1147 
L 775 -588 
Q 1028 -725 1275 -790 
Q 1522 -856 1778 -856 
Q 2344 -856 2625 -561 
Q 2906 -266 2906 331 
L 2906 616 
Q 2728 306 2450 153 
Q 2172 0 1784 0 
Q 1141 0 747 490 
Q 353 981 353 1791 
Q 353 2603 747 3093 
Q 1141 3584 1784 3584 
Q 2172 3584 2450 3431 
Q 2728 3278 2906 2969 
L 2906 3500 
L 3481 3500 
L 3481 434 
z
" transform="scale(0.015625)"/>
      <path id="DejaVuSans-73" d="M 2834 3397 
L 2834 2853 
Q 2591 2978 2328 3040 
Q 2066 3103 1784 3103 
Q 1356 3103 1142 2972 
Q 928 2841 928 2578 
Q 928 2378 1081 2264 
Q 1234 2150 1697 2047 
L 1894 2003 
Q 2506 1872 2764 1633 
Q 3022 1394 3022 966 
Q 3022 478 2636 193 
Q 2250 -91 1575 -91 
Q 1294 -91 989 -36 
Q 684 19 347 128 
L 347 722 
Q 666 556 975 473 
Q 1284 391 1588 391 
Q 1994 391 2212 530 
Q 2431 669 2431 922 
Q 2431 1156 2273 1281 
Q 2116 1406 1581 1522 
L 1381 1569 
Q 847 1681 609 1914 
Q 372 2147 372 2553 
Q 372 3047 722 3315 
Q 1072 3584 1716 3584 
Q 2034 3584 2315 3537 
Q 2597 3491 2834 3397 
z
" transform="scale(0.015625)"/>
     </defs>
     <use xlink:href="#DejaVuSans-53"/>
     <use xlink:href="#DejaVuSans-74" x="63.476562"/>
     <use xlink:href="#DejaVuSans-61" x="102.685547"/>
     <use xlink:href="#DejaVuSans-6e" x="163.964844"/>
     <use xlink:href="#DejaVuSans-64" x="227.34375"/>
     <use xlink:href="#DejaVuSans-69" x="290.820312"/>
     <use xlink:href="#DejaVuSans-6e" x="318.603516"/>
     <use xlink:href="#DejaVuSans-67" x="381.982422"/>
     <use xlink:href="#DejaVuSans-73" x="445.458984"/>
    </g>
   </g>
   <g id="legend_1">
    <g id="patch_7">
     <path d="M 639.351562 399.12 
L 846.2 399.12 
Q 848.2 399.12 848.2 397.12 
L 848.2 310.05125 
Q 848.2 308.05125 846.2 308.05125 
L 639.351562 308.05125 
Q 637.351562 308.05125 637.351562 310.05125 
L 637.351562 397.12 
Q 637.351562 399.12 639.351562 399.12 
z
" style="fill: #ffffff; opacity: 0.8; stroke: #cccccc; stroke-linejoin: miter"/>
    </g>
    <g id="line2d_37">
     <path d="M 641.351562 316.149688 
L 651.351562 316.149688 
L 661.351562 316.149688 
" style="fill: none; stroke: #1f77b4; stroke-width: 1.5; stroke-linecap: square"/>
     <g>
      <use xlink:href="#m0ffd27bd85" x="651.351562" y="316.149688" style="fill: #1f77b4; stroke: #1f77b4"/>
     </g>
    </g>
    <g id="text_18">
     <!-- European Sperm Bank -->
     <g transform="translate(669.351562 319.649688) scale(0.1 -0.1)">
      <defs>
       <path id="DejaVuSans-45" d="M 628 4666 
L 3578 4666 
L 3578 4134 
L 1259 4134 
L 1259 2753 
L 3481 2753 
L 3481 2222 
L 1259 2222 
L 1259 531 
L 3634 531 
L 3634 0 
L 628 0 
L 628 4666 
z
" transform="scale(0.015625)"/>
       <path id="DejaVuSans-75" d="M 544 1381 
L 544 3500 
L 1119 3500 
L 1119 1403 
Q 1119 906 1312 657 
Q 1506 409 1894 409 
Q 2359 409 2629 706 
Q 2900 1003 2900 1516 
L 2900 3500 
L 3475 3500 
L 3475 0 
L 2900 0 
L 2900 538 
Q 2691 219 2414 64 
Q 2138 -91 1772 -91 
Q 1169 -91 856 284 
Q 544 659 544 1381 
z
M 1991 3584 
L 1991 3584 
z
" transform="scale(0.015625)"/>
       <path id="DejaVuSans-70" d="M 1159 525 
L 1159 -1331 
L 581 -1331 
L 581 3500 
L 1159 3500 
L 1159 2969 
Q 1341 3281 1617 3432 
Q 1894 3584 2278 3584 
Q 2916 3584 3314 3078 
Q 3713 2572 3713 1747 
Q 3713 922 3314 415 
Q 2916 -91 2278 -91 
Q 1894 -91 1617 61 
Q 1341 213 1159 525 
z
M 3116 1747 
Q 3116 2381 2855 2742 
Q 2594 3103 2138 3103 
Q 1681 3103 1420 2742 
Q 1159 2381 1159 1747 
Q 1159 1113 1420 752 
Q 1681 391 2138 391 
Q 2594 391 2855 752 
Q 3116 1113 3116 1747 
z
" transform="scale(0.015625)"/>
       <path id="DejaVuSans-20" transform="scale(0.015625)"/>
       <path id="DejaVuSans-6d" d="M 3328 2828 
Q 3544 3216 3844 3400 
Q 4144 3584 4550 3584 
Q 5097 3584 5394 3201 
Q 5691 2819 5691 2113 
L 5691 0 
L 5113 0 
L 5113 2094 
Q 5113 2597 4934 2840 
Q 4756 3084 4391 3084 
Q 3944 3084 3684 2787 
Q 3425 2491 3425 1978 
L 3425 0 
L 2847 0 
L 2847 2094 
Q 2847 2600 2669 2842 
Q 2491 3084 2119 3084 
Q 1678 3084 1418 2786 
Q 1159 2488 1159 1978 
L 1159 0 
L 581 0 
L 581 3500 
L 1159 3500 
L 1159 2956 
Q 1356 3278 1631 3431 
Q 1906 3584 2284 3584 
Q 2666 3584 2933 3390 
Q 3200 3197 3328 2828 
z
" transform="scale(0.015625)"/>
       <path id="DejaVuSans-42" d="M 1259 2228 
L 1259 519 
L 2272 519 
Q 2781 519 3026 730 
Q 3272 941 3272 1375 
Q 3272 1813 3026 2020 
Q 2781 2228 2272 2228 
L 1259 2228 
z
M 1259 4147 
L 1259 2741 
L 2194 2741 
Q 2656 2741 2882 2914 
Q 3109 3088 3109 3444 
Q 3109 3797 2882 3972 
Q 2656 4147 2194 4147 
L 1259 4147 
z
M 628 4666 
L 2241 4666 
Q 2963 4666 3353 4366 
Q 3744 4066 3744 3513 
Q 3744 3084 3544 2831 
Q 3344 2578 2956 2516 
Q 3422 2416 3680 2098 
Q 3938 1781 3938 1306 
Q 3938 681 3513 340 
Q 3088 0 2303 0 
L 628 0 
L 628 4666 
z
" transform="scale(0.015625)"/>
       <path id="DejaVuSans-6b" d="M 581 4863 
L 1159 4863 
L 1159 1991 
L 2875 3500 
L 3609 3500 
L 1753 1863 
L 3688 0 
L 2938 0 
L 1159 1709 
L 1159 0 
L 581 0 
L 581 4863 
z
" transform="scale(0.015625)"/>
      </defs>
      <use xlink:href="#DejaVuSans-45"/>
      <use xlink:href="#DejaVuSans-75" x="63.183594"/>
      <use xlink:href="#DejaVuSans-72" x="126.5625"/>
      <use xlink:href="#DejaVuSans-6f" x="165.425781"/>
      <use xlink:href="#DejaVuSans-70" x="226.607422"/>
      <use xlink:href="#DejaVuSans-65" x="290.083984"/>
      <use xlink:href="#DejaVuSans-61" x="351.607422"/>
      <use xlink:href="#DejaVuSans-6e" x="412.886719"/>
      <use xlink:href="#DejaVuSans-20" x="476.265625"/>
      <use xlink:href="#DejaVuSans-53" x="508.052734"/>
      <use xlink:href="#DejaVuSans-70" x="571.529297"/>
      <use xlink:href="#DejaVuSans-65" x="635.005859"/>
      <use xlink:href="#DejaVuSans-72" x="696.529297"/>
      <use xlink:href="#DejaVuSans-6d" x="735.892578"/>
      <use xlink:href="#DejaVuSans-20" x="833.304688"/>
      <use xlink:href="#DejaVuSans-42" x="865.091797"/>
      <use xlink:href="#DejaVuSans-61" x="933.695312"/>
      <use xlink:href="#DejaVuSans-6e" x="994.974609"/>
      <use xlink:href="#DejaVuSans-6b" x="1058.353516"/>
     </g>
    </g>
    <g id="line2d_38">
     <path d="M 641.351562 330.827812 
L 651.351562 330.827812 
L 661.351562 330.827812 
" style="fill: none; stroke: #ff7f0e; stroke-width: 1.5; stroke-linecap: square"/>
     <g>
      <use xlink:href="#m92f5453b1d" x="651.351562" y="330.827812" style="fill: #ff7f0e; stroke: #ff7f0e"/>
     </g>
    </g>
    <g id="text_19">
     <!-- Frederiksborg Gymnasium -->
     <g transform="translate(669.351562 334.327812) scale(0.1 -0.1)">
      <defs>
       <path id="DejaVuSans-46" d="M 628 4666 
L 3309 4666 
L 3309 4134 
L 1259 4134 
L 1259 2759 
L 3109 2759 
L 3109 2228 
L 1259 2228 
L 1259 0 
L 628 0 
L 628 4666 
z
" transform="scale(0.015625)"/>
       <path id="DejaVuSans-62" d="M 3116 1747 
Q 3116 2381 2855 2742 
Q 2594 3103 2138 3103 
Q 1681 3103 1420 2742 
Q 1159 2381 1159 1747 
Q 1159 1113 1420 752 
Q 1681 391 2138 391 
Q 2594 391 2855 752 
Q 3116 1113 3116 1747 
z
M 1159 2969 
Q 1341 3281 1617 3432 
Q 1894 3584 2278 3584 
Q 2916 3584 3314 3078 
Q 3713 2572 3713 1747 
Q 3713 922 3314 415 
Q 2916 -91 2278 -91 
Q 1894 -91 1617 61 
Q 1341 213 1159 525 
L 1159 0 
L 581 0 
L 581 4863 
L 1159 4863 
L 1159 2969 
z
" transform="scale(0.015625)"/>
       <path id="DejaVuSans-47" d="M 3809 666 
L 3809 1919 
L 2778 1919 
L 2778 2438 
L 4434 2438 
L 4434 434 
Q 4069 175 3628 42 
Q 3188 -91 2688 -91 
Q 1594 -91 976 548 
Q 359 1188 359 2328 
Q 359 3472 976 4111 
Q 1594 4750 2688 4750 
Q 3144 4750 3555 4637 
Q 3966 4525 4313 4306 
L 4313 3634 
Q 3963 3931 3569 4081 
Q 3175 4231 2741 4231 
Q 1884 4231 1454 3753 
Q 1025 3275 1025 2328 
Q 1025 1384 1454 906 
Q 1884 428 2741 428 
Q 3075 428 3337 486 
Q 3600 544 3809 666 
z
" transform="scale(0.015625)"/>
       <path id="DejaVuSans-79" d="M 2059 -325 
Q 1816 -950 1584 -1140 
Q 1353 -1331 966 -1331 
L 506 -1331 
L 506 -850 
L 844 -850 
Q 1081 -850 1212 -737 
Q 1344 -625 1503 -206 
L 1606 56 
L 191 3500 
L 800 3500 
L 1894 763 
L 2988 3500 
L 3597 3500 
L 2059 -325 
z
" transform="scale(0.015625)"/>
      </defs>
      <use xlink:href="#DejaVuSans-46"/>
      <use xlink:href="#DejaVuSans-72" x="50.269531"/>
      <use xlink:href="#DejaVuSans-65" x="89.132812"/>
      <use xlink:href="#DejaVuSans-64" x="150.65625"/>
      <use xlink:href="#DejaVuSans-65" x="214.132812"/>
      <use xlink:href="#DejaVuSans-72" x="275.65625"/>
      <use xlink:href="#DejaVuSans-69" x="316.769531"/>
      <use xlink:href="#DejaVuSans-6b" x="344.552734"/>
      <use xlink:href="#DejaVuSans-73" x="402.462891"/>
      <use xlink:href="#DejaVuSans-62" x="454.5625"/>
      <use xlink:href="#DejaVuSans-6f" x="518.039062"/>
      <use xlink:href="#DejaVuSans-72" x="579.220703"/>
      <use xlink:href="#DejaVuSans-67" x="618.583984"/>
      <use xlink:href="#DejaVuSans-20" x="682.060547"/>
      <use xlink:href="#DejaVuSans-47" x="713.847656"/>
      <use xlink:href="#DejaVuSans-79" x="791.337891"/>
      <use xlink:href="#DejaVuSans-6d" x="850.517578"/>
      <use xlink:href="#DejaVuSans-6e" x="947.929688"/>
      <use xlink:href="#DejaVuSans-61" x="1011.308594"/>
      <use xlink:href="#DejaVuSans-73" x="1072.587891"/>
      <use xlink:href="#DejaVuSans-69" x="1124.6875"/>
      <use xlink:href="#DejaVuSans-75" x="1152.470703"/>
      <use xlink:href="#DejaVuSans-6d" x="1215.849609"/>
     </g>
    </g>
    <g id="line2d_39">
     <path d="M 641.351562 345.505938 
L 651.351562 345.505938 
L 661.351562 345.505938 
" style="fill: none; stroke: #2ca02c; stroke-width: 1.5; stroke-linecap: square"/>
     <g>
      <use xlink:href="#mf8e927dc09" x="651.351562" y="345.505938" style="fill: #2ca02c; stroke: #2ca02c"/>
     </g>
    </g>
    <g id="text_20">
     <!-- Friends and Family -->
     <g transform="translate(669.351562 349.005938) scale(0.1 -0.1)">
      <defs>
       <path id="DejaVuSans-6c" d="M 603 4863 
L 1178 4863 
L 1178 0 
L 603 0 
L 603 4863 
z
" transform="scale(0.015625)"/>
      </defs>
      <use xlink:href="#DejaVuSans-46"/>
      <use xlink:href="#DejaVuSans-72" x="50.269531"/>
      <use xlink:href="#DejaVuSans-69" x="91.382812"/>
      <use xlink:href="#DejaVuSans-65" x="119.166016"/>
      <use xlink:href="#DejaVuSans-6e" x="180.689453"/>
      <use xlink:href="#DejaVuSans-64" x="244.068359"/>
      <use xlink:href="#DejaVuSans-73" x="307.544922"/>
      <use xlink:href="#DejaVuSans-20" x="359.644531"/>
      <use xlink:href="#DejaVuSans-61" x="391.431641"/>
      <use xlink:href="#DejaVuSans-6e" x="452.710938"/>
      <use xlink:href="#DejaVuSans-64" x="516.089844"/>
      <use xlink:href="#DejaVuSans-20" x="579.566406"/>
      <use xlink:href="#DejaVuSans-46" x="611.353516"/>
      <use xlink:href="#DejaVuSans-61" x="659.748047"/>
      <use xlink:href="#DejaVuSans-6d" x="721.027344"/>
      <use xlink:href="#DejaVuSans-69" x="818.439453"/>
      <use xlink:href="#DejaVuSans-6c" x="846.222656"/>
      <use xlink:href="#DejaVuSans-79" x="874.005859"/>
     </g>
    </g>
    <g id="line2d_40">
     <path d="M 641.351562 360.184062 
L 651.351562 360.184062 
L 661.351562 360.184062 
" style="fill: none; stroke: #d62728; stroke-width: 1.5; stroke-linecap: square"/>
     <g>
      <use xlink:href="#mcbb9f635a5" x="651.351562" y="360.184062" style="fill: #d62728; stroke: #d62728"/>
     </g>
    </g>
    <g id="text_21">
     <!-- GeH Fys -->
     <g transform="translate(669.351562 363.684062) scale(0.1 -0.1)">
      <defs>
       <path id="DejaVuSans-48" d="M 628 4666 
L 1259 4666 
L 1259 2753 
L 3553 2753 
L 3553 4666 
L 4184 4666 
L 4184 0 
L 3553 0 
L 3553 2222 
L 1259 2222 
L 1259 0 
L 628 0 
L 628 4666 
z
" transform="scale(0.015625)"/>
      </defs>
      <use xlink:href="#DejaVuSans-47"/>
      <use xlink:href="#DejaVuSans-65" x="77.490234"/>
      <use xlink:href="#DejaVuSans-48" x="139.013672"/>
      <use xlink:href="#DejaVuSans-20" x="214.208984"/>
      <use xlink:href="#DejaVuSans-46" x="245.996094"/>
      <use xlink:href="#DejaVuSans-79" x="294.390625"/>
      <use xlink:href="#DejaVuSans-73" x="353.570312"/>
     </g>
    </g>
    <g id="line2d_41">
     <path d="M 641.351562 374.862188 
L 651.351562 374.862188 
L 661.351562 374.862188 
" style="fill: none; stroke: #9467bd; stroke-width: 1.5; stroke-linecap: square"/>
     <g>
      <use xlink:href="#m2b799aaf19" x="651.351562" y="374.862188" style="fill: #9467bd; stroke: #9467bd"/>
     </g>
    </g>
    <g id="text_22">
     <!-- Next11 -->
     <g transform="translate(669.351562 378.362188) scale(0.1 -0.1)">
      <defs>
       <path id="DejaVuSans-4e" d="M 628 4666 
L 1478 4666 
L 3547 763 
L 3547 4666 
L 4159 4666 
L 4159 0 
L 3309 0 
L 1241 3903 
L 1241 0 
L 628 0 
L 628 4666 
z
" transform="scale(0.015625)"/>
       <path id="DejaVuSans-78" d="M 3513 3500 
L 2247 1797 
L 3578 0 
L 2900 0 
L 1881 1375 
L 863 0 
L 184 0 
L 1544 1831 
L 300 3500 
L 978 3500 
L 1906 2253 
L 2834 3500 
L 3513 3500 
z
" transform="scale(0.015625)"/>
      </defs>
      <use xlink:href="#DejaVuSans-4e"/>
      <use xlink:href="#DejaVuSans-65" x="74.804688"/>
      <use xlink:href="#DejaVuSans-78" x="134.578125"/>
      <use xlink:href="#DejaVuSans-74" x="193.757812"/>
      <use xlink:href="#DejaVuSans-31" x="232.966797"/>
      <use xlink:href="#DejaVuSans-31" x="296.589844"/>
     </g>
    </g>
    <g id="line2d_42">
     <path d="M 641.351562 389.540313 
L 651.351562 389.540313 
L 661.351562 389.540313 
" style="fill: none; stroke: #8c564b; stroke-width: 1.5; stroke-linecap: square"/>
     <g>
      <use xlink:href="#ma6025f2e4f" x="651.351562" y="389.540313" style="fill: #8c564b; stroke: #8c564b"/>
     </g>
    </g>
    <g id="text_23">
     <!-- Quantum and Laser Photonics DTU -->
     <g transform="translate(669.351562 393.040313) scale(0.1 -0.1)">
      <defs>
       <path id="DejaVuSans-51" d="M 2522 4238 
Q 1834 4238 1429 3725 
Q 1025 3213 1025 2328 
Q 1025 1447 1429 934 
Q 1834 422 2522 422 
Q 3209 422 3611 934 
Q 4013 1447 4013 2328 
Q 4013 3213 3611 3725 
Q 3209 4238 2522 4238 
z
M 3406 84 
L 4238 -825 
L 3475 -825 
L 2784 -78 
Q 2681 -84 2626 -87 
Q 2572 -91 2522 -91 
Q 1538 -91 948 567 
Q 359 1225 359 2328 
Q 359 3434 948 4092 
Q 1538 4750 2522 4750 
Q 3503 4750 4090 4092 
Q 4678 3434 4678 2328 
Q 4678 1516 4351 937 
Q 4025 359 3406 84 
z
" transform="scale(0.015625)"/>
       <path id="DejaVuSans-4c" d="M 628 4666 
L 1259 4666 
L 1259 531 
L 3531 531 
L 3531 0 
L 628 0 
L 628 4666 
z
" transform="scale(0.015625)"/>
       <path id="DejaVuSans-50" d="M 1259 4147 
L 1259 2394 
L 2053 2394 
Q 2494 2394 2734 2622 
Q 2975 2850 2975 3272 
Q 2975 3691 2734 3919 
Q 2494 4147 2053 4147 
L 1259 4147 
z
M 628 4666 
L 2053 4666 
Q 2838 4666 3239 4311 
Q 3641 3956 3641 3272 
Q 3641 2581 3239 2228 
Q 2838 1875 2053 1875 
L 1259 1875 
L 1259 0 
L 628 0 
L 628 4666 
z
" transform="scale(0.015625)"/>
       <path id="DejaVuSans-68" d="M 3513 2113 
L 3513 0 
L 2938 0 
L 2938 2094 
Q 2938 2591 2744 2837 
Q 2550 3084 2163 3084 
Q 1697 3084 1428 2787 
Q 1159 2491 1159 1978 
L 1159 0 
L 581 0 
L 581 4863 
L 1159 4863 
L 1159 2956 
Q 1366 3272 1645 3428 
Q 1925 3584 2291 3584 
Q 2894 3584 3203 3211 
Q 3513 2838 3513 2113 
z
" transform="scale(0.015625)"/>
       <path id="DejaVuSans-44" d="M 1259 4147 
L 1259 519 
L 2022 519 
Q 2988 519 3436 956 
Q 3884 1394 3884 2338 
Q 3884 3275 3436 3711 
Q 2988 4147 2022 4147 
L 1259 4147 
z
M 628 4666 
L 1925 4666 
Q 3281 4666 3915 4102 
Q 4550 3538 4550 2338 
Q 4550 1131 3912 565 
Q 3275 0 1925 0 
L 628 0 
L 628 4666 
z
" transform="scale(0.015625)"/>
       <path id="DejaVuSans-54" d="M -19 4666 
L 3928 4666 
L 3928 4134 
L 2272 4134 
L 2272 0 
L 1638 0 
L 1638 4134 
L -19 4134 
L -19 4666 
z
" transform="scale(0.015625)"/>
       <path id="DejaVuSans-55" d="M 556 4666 
L 1191 4666 
L 1191 1831 
Q 1191 1081 1462 751 
Q 1734 422 2344 422 
Q 2950 422 3222 751 
Q 3494 1081 3494 1831 
L 3494 4666 
L 4128 4666 
L 4128 1753 
Q 4128 841 3676 375 
Q 3225 -91 2344 -91 
Q 1459 -91 1007 375 
Q 556 841 556 1753 
L 556 4666 
z
" transform="scale(0.015625)"/>
      </defs>
      <use xlink:href="#DejaVuSans-51"/>
      <use xlink:href="#DejaVuSans-75" x="78.710938"/>
      <use xlink:href="#DejaVuSans-61" x="142.089844"/>
      <use xlink:href="#DejaVuSans-6e" x="203.369141"/>
      <use xlink:href="#DejaVuSans-74" x="266.748047"/>
      <use xlink:href="#DejaVuSans-75" x="305.957031"/>
      <use xlink:href="#DejaVuSans-6d" x="369.335938"/>
      <use xlink:href="#DejaVuSans-20" x="466.748047"/>
      <use xlink:href="#DejaVuSans-61" x="498.535156"/>
      <use xlink:href="#DejaVuSans-6e" x="559.814453"/>
      <use xlink:href="#DejaVuSans-64" x="623.193359"/>
      <use xlink:href="#DejaVuSans-20" x="686.669922"/>
      <use xlink:href="#DejaVuSans-4c" x="718.457031"/>
      <use xlink:href="#DejaVuSans-61" x="774.169922"/>
      <use xlink:href="#DejaVuSans-73" x="835.449219"/>
      <use xlink:href="#DejaVuSans-65" x="887.548828"/>
      <use xlink:href="#DejaVuSans-72" x="949.072266"/>
      <use xlink:href="#DejaVuSans-20" x="990.185547"/>
      <use xlink:href="#DejaVuSans-50" x="1021.972656"/>
      <use xlink:href="#DejaVuSans-68" x="1082.275391"/>
      <use xlink:href="#DejaVuSans-6f" x="1145.654297"/>
      <use xlink:href="#DejaVuSans-74" x="1206.835938"/>
      <use xlink:href="#DejaVuSans-6f" x="1246.044922"/>
      <use xlink:href="#DejaVuSans-6e" x="1307.226562"/>
      <use xlink:href="#DejaVuSans-69" x="1370.605469"/>
      <use xlink:href="#DejaVuSans-63" x="1398.388672"/>
      <use xlink:href="#DejaVuSans-73" x="1453.369141"/>
      <use xlink:href="#DejaVuSans-20" x="1505.46875"/>
      <use xlink:href="#DejaVuSans-44" x="1537.255859"/>
      <use xlink:href="#DejaVuSans-54" x="1614.257812"/>
      <use xlink:href="#DejaVuSans-55" x="1675.341797"/>
     </g>
    </g>
   </g>
  </g>
 </g>
 <defs>
  <clipPath id="p2730e245be">
   <rect x="50.87" y="26.88" width="802.33" height="377.24"/>
  </clipPath>
 </defs>
</svg>
