<?xml version="1.0" encoding="utf-8" standalone="no"?>
<!DOCTYPE svg PUBLIC "-//W3C//DTD SVG 1.1//EN"
  "http://www.w3.org/Graphics/SVG/1.1/DTD/svg11.dtd">
<svg xmlns:xlink="http://www.w3.org/1999/xlink" width="864pt" height="432pt" viewBox="0 0 864 432" xmlns="http://www.w3.org/2000/svg" version="1.1">
 <metadata>
  <rdf:RDF xmlns:dc="http://purl.org/dc/elements/1.1/" xmlns:cc="http://creativecommons.org/ns#" xmlns:rdf="http://www.w3.org/1999/02/22-rdf-syntax-ns#">
   <cc:Work>
    <dc:type rdf:resource="http://purl.org/dc/dcmitype/StillImage"/>
    <dc:date>2024-07-27T03:31:46.789170</dc:date>
    <dc:format>image/svg+xml</dc:format>
    <dc:creator>
     <cc:Agent>
      <dc:title>Matplotlib v3.9.1, https://matplotlib.org/</dc:title>
     </cc:Agent>
    </dc:creator>
   </cc:Work>
  </rdf:RDF>
 </metadata>
 <defs>
  <style type="text/css">*{stroke-linejoin: round; stroke-linecap: butt}</style>
 </defs>
 <g id="figure_1">
  <g id="patch_1">
   <path d="M 0 432 
L 864 432 
L 864 0 
L 0 0 
z
" style="fill: #ffffff"/>
  </g>
  <g id="axes_1">
   <g id="patch_2">
    <path d="M 50.87 404.12 
L 853.2 404.12 
L 853.2 26.88 
L 50.87 26.88 
z
" style="fill: #ffffff"/>
   </g>
   <g id="matplotlib.axis_1">
    <g id="xtick_1">
     <g id="line2d_1">
      <path d="M 104.302125 404.12 
L 104.302125 26.88 
" clip-path="url(#p04e8a8b7e6)" style="fill: none; stroke-dasharray: 2.96,1.28; stroke-dashoffset: 0; stroke: #b0b0b0; stroke-width: 0.8"/>
     </g>
     <g id="line2d_2">
      <defs>
       <path id="m942009c834" d="M 0 0 
L 0 3.5 
" style="stroke: #000000; stroke-width: 0.8"/>
      </defs>
      <g>
       <use xlink:href="#m942009c834" x="104.302125" y="404.12" style="stroke: #000000; stroke-width: 0.8"/>
      </g>
     </g>
     <g id="text_1">
      <!-- 2024-06-15 -->
      <g transform="translate(75.244312 418.718437) scale(0.1 -0.1)">
       <defs>
        <path id="DejaVuSans-32" d="M 1228 531 
L 3431 531 
L 3431 0 
L 469 0 
L 469 531 
Q 828 903 1448 1529 
Q 2069 2156 2228 2338 
Q 2531 2678 2651 2914 
Q 2772 3150 2772 3378 
Q 2772 3750 2511 3984 
Q 2250 4219 1831 4219 
Q 1534 4219 1204 4116 
Q 875 4013 500 3803 
L 500 4441 
Q 881 4594 1212 4672 
Q 1544 4750 1819 4750 
Q 2544 4750 2975 4387 
Q 3406 4025 3406 3419 
Q 3406 3131 3298 2873 
Q 3191 2616 2906 2266 
Q 2828 2175 2409 1742 
Q 1991 1309 1228 531 
z
" transform="scale(0.015625)"/>
        <path id="DejaVuSans-30" d="M 2034 4250 
Q 1547 4250 1301 3770 
Q 1056 3291 1056 2328 
Q 1056 1369 1301 889 
Q 1547 409 2034 409 
Q 2525 409 2770 889 
Q 3016 1369 3016 2328 
Q 3016 3291 2770 3770 
Q 2525 4250 2034 4250 
z
M 2034 4750 
Q 2819 4750 3233 4129 
Q 3647 3509 3647 2328 
Q 3647 1150 3233 529 
Q 2819 -91 2034 -91 
Q 1250 -91 836 529 
Q 422 1150 422 2328 
Q 422 3509 836 4129 
Q 1250 4750 2034 4750 
z
" transform="scale(0.015625)"/>
        <path id="DejaVuSans-34" d="M 2419 4116 
L 825 1625 
L 2419 1625 
L 2419 4116 
z
M 2253 4666 
L 3047 4666 
L 3047 1625 
L 3713 1625 
L 3713 1100 
L 3047 1100 
L 3047 0 
L 2419 0 
L 2419 1100 
L 313 1100 
L 313 1709 
L 2253 4666 
z
" transform="scale(0.015625)"/>
        <path id="DejaVuSans-2d" d="M 313 2009 
L 1997 2009 
L 1997 1497 
L 313 1497 
L 313 2009 
z
" transform="scale(0.015625)"/>
        <path id="DejaVuSans-36" d="M 2113 2584 
Q 1688 2584 1439 2293 
Q 1191 2003 1191 1497 
Q 1191 994 1439 701 
Q 1688 409 2113 409 
Q 2538 409 2786 701 
Q 3034 994 3034 1497 
Q 3034 2003 2786 2293 
Q 2538 2584 2113 2584 
z
M 3366 4563 
L 3366 3988 
Q 3128 4100 2886 4159 
Q 2644 4219 2406 4219 
Q 1781 4219 1451 3797 
Q 1122 3375 1075 2522 
Q 1259 2794 1537 2939 
Q 1816 3084 2150 3084 
Q 2853 3084 3261 2657 
Q 3669 2231 3669 1497 
Q 3669 778 3244 343 
Q 2819 -91 2113 -91 
Q 1303 -91 875 529 
Q 447 1150 447 2328 
Q 447 3434 972 4092 
Q 1497 4750 2381 4750 
Q 2619 4750 2861 4703 
Q 3103 4656 3366 4563 
z
" transform="scale(0.015625)"/>
        <path id="DejaVuSans-31" d="M 794 531 
L 1825 531 
L 1825 4091 
L 703 3866 
L 703 4441 
L 1819 4666 
L 2450 4666 
L 2450 531 
L 3481 531 
L 3481 0 
L 794 0 
L 794 531 
z
" transform="scale(0.015625)"/>
        <path id="DejaVuSans-35" d="M 691 4666 
L 3169 4666 
L 3169 4134 
L 1269 4134 
L 1269 2991 
Q 1406 3038 1543 3061 
Q 1681 3084 1819 3084 
Q 2600 3084 3056 2656 
Q 3513 2228 3513 1497 
Q 3513 744 3044 326 
Q 2575 -91 1722 -91 
Q 1428 -91 1123 -41 
Q 819 9 494 109 
L 494 744 
Q 775 591 1075 516 
Q 1375 441 1709 441 
Q 2250 441 2565 725 
Q 2881 1009 2881 1497 
Q 2881 1984 2565 2268 
Q 2250 2553 1709 2553 
Q 1456 2553 1204 2497 
Q 953 2441 691 2322 
L 691 4666 
z
" transform="scale(0.015625)"/>
       </defs>
       <use xlink:href="#DejaVuSans-32"/>
       <use xlink:href="#DejaVuSans-30" x="63.623047"/>
       <use xlink:href="#DejaVuSans-32" x="127.246094"/>
       <use xlink:href="#DejaVuSans-34" x="190.869141"/>
       <use xlink:href="#DejaVuSans-2d" x="254.492188"/>
       <use xlink:href="#DejaVuSans-30" x="290.576172"/>
       <use xlink:href="#DejaVuSans-36" x="354.199219"/>
       <use xlink:href="#DejaVuSans-2d" x="417.822266"/>
       <use xlink:href="#DejaVuSans-31" x="453.90625"/>
       <use xlink:href="#DejaVuSans-35" x="517.529297"/>
      </g>
     </g>
    </g>
    <g id="xtick_2">
     <g id="line2d_3">
      <path d="M 223.04018 404.12 
L 223.04018 26.88 
" clip-path="url(#p04e8a8b7e6)" style="fill: none; stroke-dasharray: 2.96,1.28; stroke-dashoffset: 0; stroke: #b0b0b0; stroke-width: 0.8"/>
     </g>
     <g id="line2d_4">
      <g>
       <use xlink:href="#m942009c834" x="223.04018" y="404.12" style="stroke: #000000; stroke-width: 0.8"/>
      </g>
     </g>
     <g id="text_2">
      <!-- 2024-06-22 -->
      <g transform="translate(193.982367 418.718437) scale(0.1 -0.1)">
       <use xlink:href="#DejaVuSans-32"/>
       <use xlink:href="#DejaVuSans-30" x="63.623047"/>
       <use xlink:href="#DejaVuSans-32" x="127.246094"/>
       <use xlink:href="#DejaVuSans-34" x="190.869141"/>
       <use xlink:href="#DejaVuSans-2d" x="254.492188"/>
       <use xlink:href="#DejaVuSans-30" x="290.576172"/>
       <use xlink:href="#DejaVuSans-36" x="354.199219"/>
       <use xlink:href="#DejaVuSans-2d" x="417.822266"/>
       <use xlink:href="#DejaVuSans-32" x="453.90625"/>
       <use xlink:href="#DejaVuSans-32" x="517.529297"/>
      </g>
     </g>
    </g>
    <g id="xtick_3">
     <g id="line2d_5">
      <path d="M 375.703393 404.12 
L 375.703393 26.88 
" clip-path="url(#p04e8a8b7e6)" style="fill: none; stroke-dasharray: 2.96,1.28; stroke-dashoffset: 0; stroke: #b0b0b0; stroke-width: 0.8"/>
     </g>
     <g id="line2d_6">
      <g>
       <use xlink:href="#m942009c834" x="375.703393" y="404.12" style="stroke: #000000; stroke-width: 0.8"/>
      </g>
     </g>
     <g id="text_3">
      <!-- 2024-07-01 -->
      <g transform="translate(346.645581 418.718437) scale(0.1 -0.1)">
       <defs>
        <path id="DejaVuSans-37" d="M 525 4666 
L 3525 4666 
L 3525 4397 
L 1831 0 
L 1172 0 
L 2766 4134 
L 525 4134 
L 525 4666 
z
" transform="scale(0.015625)"/>
       </defs>
       <use xlink:href="#DejaVuSans-32"/>
       <use xlink:href="#DejaVuSans-30" x="63.623047"/>
       <use xlink:href="#DejaVuSans-32" x="127.246094"/>
       <use xlink:href="#DejaVuSans-34" x="190.869141"/>
       <use xlink:href="#DejaVuSans-2d" x="254.492188"/>
       <use xlink:href="#DejaVuSans-30" x="290.576172"/>
       <use xlink:href="#DejaVuSans-37" x="354.199219"/>
       <use xlink:href="#DejaVuSans-2d" x="417.822266"/>
       <use xlink:href="#DejaVuSans-30" x="453.90625"/>
       <use xlink:href="#DejaVuSans-31" x="517.529297"/>
      </g>
     </g>
    </g>
    <g id="xtick_4">
     <g id="line2d_7">
      <path d="M 494.441448 404.12 
L 494.441448 26.88 
" clip-path="url(#p04e8a8b7e6)" style="fill: none; stroke-dasharray: 2.96,1.28; stroke-dashoffset: 0; stroke: #b0b0b0; stroke-width: 0.8"/>
     </g>
     <g id="line2d_8">
      <g>
       <use xlink:href="#m942009c834" x="494.441448" y="404.12" style="stroke: #000000; stroke-width: 0.8"/>
      </g>
     </g>
     <g id="text_4">
      <!-- 2024-07-08 -->
      <g transform="translate(465.383636 418.718437) scale(0.1 -0.1)">
       <defs>
        <path id="DejaVuSans-38" d="M 2034 2216 
Q 1584 2216 1326 1975 
Q 1069 1734 1069 1313 
Q 1069 891 1326 650 
Q 1584 409 2034 409 
Q 2484 409 2743 651 
Q 3003 894 3003 1313 
Q 3003 1734 2745 1975 
Q 2488 2216 2034 2216 
z
M 1403 2484 
Q 997 2584 770 2862 
Q 544 3141 544 3541 
Q 544 4100 942 4425 
Q 1341 4750 2034 4750 
Q 2731 4750 3128 4425 
Q 3525 4100 3525 3541 
Q 3525 3141 3298 2862 
Q 3072 2584 2669 2484 
Q 3125 2378 3379 2068 
Q 3634 1759 3634 1313 
Q 3634 634 3220 271 
Q 2806 -91 2034 -91 
Q 1263 -91 848 271 
Q 434 634 434 1313 
Q 434 1759 690 2068 
Q 947 2378 1403 2484 
z
M 1172 3481 
Q 1172 3119 1398 2916 
Q 1625 2713 2034 2713 
Q 2441 2713 2670 2916 
Q 2900 3119 2900 3481 
Q 2900 3844 2670 4047 
Q 2441 4250 2034 4250 
Q 1625 4250 1398 4047 
Q 1172 3844 1172 3481 
z
" transform="scale(0.015625)"/>
       </defs>
       <use xlink:href="#DejaVuSans-32"/>
       <use xlink:href="#DejaVuSans-30" x="63.623047"/>
       <use xlink:href="#DejaVuSans-32" x="127.246094"/>
       <use xlink:href="#DejaVuSans-34" x="190.869141"/>
       <use xlink:href="#DejaVuSans-2d" x="254.492188"/>
       <use xlink:href="#DejaVuSans-30" x="290.576172"/>
       <use xlink:href="#DejaVuSans-37" x="354.199219"/>
       <use xlink:href="#DejaVuSans-2d" x="417.822266"/>
       <use xlink:href="#DejaVuSans-30" x="453.90625"/>
       <use xlink:href="#DejaVuSans-38" x="517.529297"/>
      </g>
     </g>
    </g>
    <g id="xtick_5">
     <g id="line2d_9">
      <path d="M 613.179503 404.12 
L 613.179503 26.88 
" clip-path="url(#p04e8a8b7e6)" style="fill: none; stroke-dasharray: 2.96,1.28; stroke-dashoffset: 0; stroke: #b0b0b0; stroke-width: 0.8"/>
     </g>
     <g id="line2d_10">
      <g>
       <use xlink:href="#m942009c834" x="613.179503" y="404.12" style="stroke: #000000; stroke-width: 0.8"/>
      </g>
     </g>
     <g id="text_5">
      <!-- 2024-07-15 -->
      <g transform="translate(584.121691 418.718437) scale(0.1 -0.1)">
       <use xlink:href="#DejaVuSans-32"/>
       <use xlink:href="#DejaVuSans-30" x="63.623047"/>
       <use xlink:href="#DejaVuSans-32" x="127.246094"/>
       <use xlink:href="#DejaVuSans-34" x="190.869141"/>
       <use xlink:href="#DejaVuSans-2d" x="254.492188"/>
       <use xlink:href="#DejaVuSans-30" x="290.576172"/>
       <use xlink:href="#DejaVuSans-37" x="354.199219"/>
       <use xlink:href="#DejaVuSans-2d" x="417.822266"/>
       <use xlink:href="#DejaVuSans-31" x="453.90625"/>
       <use xlink:href="#DejaVuSans-35" x="517.529297"/>
      </g>
     </g>
    </g>
    <g id="xtick_6">
     <g id="line2d_11">
      <path d="M 731.917558 404.12 
L 731.917558 26.88 
" clip-path="url(#p04e8a8b7e6)" style="fill: none; stroke-dasharray: 2.96,1.28; stroke-dashoffset: 0; stroke: #b0b0b0; stroke-width: 0.8"/>
     </g>
     <g id="line2d_12">
      <g>
       <use xlink:href="#m942009c834" x="731.917558" y="404.12" style="stroke: #000000; stroke-width: 0.8"/>
      </g>
     </g>
     <g id="text_6">
      <!-- 2024-07-22 -->
      <g transform="translate(702.859746 418.718437) scale(0.1 -0.1)">
       <use xlink:href="#DejaVuSans-32"/>
       <use xlink:href="#DejaVuSans-30" x="63.623047"/>
       <use xlink:href="#DejaVuSans-32" x="127.246094"/>
       <use xlink:href="#DejaVuSans-34" x="190.869141"/>
       <use xlink:href="#DejaVuSans-2d" x="254.492188"/>
       <use xlink:href="#DejaVuSans-30" x="290.576172"/>
       <use xlink:href="#DejaVuSans-37" x="354.199219"/>
       <use xlink:href="#DejaVuSans-2d" x="417.822266"/>
       <use xlink:href="#DejaVuSans-32" x="453.90625"/>
       <use xlink:href="#DejaVuSans-32" x="517.529297"/>
      </g>
     </g>
    </g>
   </g>
   <g id="matplotlib.axis_2">
    <g id="ytick_1">
     <g id="line2d_13">
      <path d="M 50.87 389.441939 
L 853.2 389.441939 
" clip-path="url(#p04e8a8b7e6)" style="fill: none; stroke-dasharray: 2.96,1.28; stroke-dashoffset: 0; stroke: #b0b0b0; stroke-width: 0.8"/>
     </g>
     <g id="line2d_14">
      <defs>
       <path id="m779111c329" d="M 0 0 
L -3.5 0 
" style="stroke: #000000; stroke-width: 0.8"/>
      </defs>
      <g>
       <use xlink:href="#m779111c329" x="50.87" y="389.441939" style="stroke: #000000; stroke-width: 0.8"/>
      </g>
     </g>
     <g id="text_7">
      <!-- 0 -->
      <g transform="translate(37.5075 393.241158) scale(0.1 -0.1)">
       <use xlink:href="#DejaVuSans-30"/>
      </g>
     </g>
    </g>
    <g id="ytick_2">
     <g id="line2d_15">
      <path d="M 50.87 327.781989 
L 853.2 327.781989 
" clip-path="url(#p04e8a8b7e6)" style="fill: none; stroke-dasharray: 2.96,1.28; stroke-dashoffset: 0; stroke: #b0b0b0; stroke-width: 0.8"/>
     </g>
     <g id="line2d_16">
      <g>
       <use xlink:href="#m779111c329" x="50.87" y="327.781989" style="stroke: #000000; stroke-width: 0.8"/>
      </g>
     </g>
     <g id="text_8">
      <!-- 50 -->
      <g transform="translate(31.145 331.581207) scale(0.1 -0.1)">
       <use xlink:href="#DejaVuSans-35"/>
       <use xlink:href="#DejaVuSans-30" x="63.623047"/>
      </g>
     </g>
    </g>
    <g id="ytick_3">
     <g id="line2d_17">
      <path d="M 50.87 266.122038 
L 853.2 266.122038 
" clip-path="url(#p04e8a8b7e6)" style="fill: none; stroke-dasharray: 2.96,1.28; stroke-dashoffset: 0; stroke: #b0b0b0; stroke-width: 0.8"/>
     </g>
     <g id="line2d_18">
      <g>
       <use xlink:href="#m779111c329" x="50.87" y="266.122038" style="stroke: #000000; stroke-width: 0.8"/>
      </g>
     </g>
     <g id="text_9">
      <!-- 100 -->
      <g transform="translate(24.7825 269.921257) scale(0.1 -0.1)">
       <use xlink:href="#DejaVuSans-31"/>
       <use xlink:href="#DejaVuSans-30" x="63.623047"/>
       <use xlink:href="#DejaVuSans-30" x="127.246094"/>
      </g>
     </g>
    </g>
    <g id="ytick_4">
     <g id="line2d_19">
      <path d="M 50.87 204.462088 
L 853.2 204.462088 
" clip-path="url(#p04e8a8b7e6)" style="fill: none; stroke-dasharray: 2.96,1.28; stroke-dashoffset: 0; stroke: #b0b0b0; stroke-width: 0.8"/>
     </g>
     <g id="line2d_20">
      <g>
       <use xlink:href="#m779111c329" x="50.87" y="204.462088" style="stroke: #000000; stroke-width: 0.8"/>
      </g>
     </g>
     <g id="text_10">
      <!-- 150 -->
      <g transform="translate(24.7825 208.261306) scale(0.1 -0.1)">
       <use xlink:href="#DejaVuSans-31"/>
       <use xlink:href="#DejaVuSans-35" x="63.623047"/>
       <use xlink:href="#DejaVuSans-30" x="127.246094"/>
      </g>
     </g>
    </g>
    <g id="ytick_5">
     <g id="line2d_21">
      <path d="M 50.87 142.802137 
L 853.2 142.802137 
" clip-path="url(#p04e8a8b7e6)" style="fill: none; stroke-dasharray: 2.96,1.28; stroke-dashoffset: 0; stroke: #b0b0b0; stroke-width: 0.8"/>
     </g>
     <g id="line2d_22">
      <g>
       <use xlink:href="#m779111c329" x="50.87" y="142.802137" style="stroke: #000000; stroke-width: 0.8"/>
      </g>
     </g>
     <g id="text_11">
      <!-- 200 -->
      <g transform="translate(24.7825 146.601356) scale(0.1 -0.1)">
       <use xlink:href="#DejaVuSans-32"/>
       <use xlink:href="#DejaVuSans-30" x="63.623047"/>
       <use xlink:href="#DejaVuSans-30" x="127.246094"/>
      </g>
     </g>
    </g>
    <g id="ytick_6">
     <g id="line2d_23">
      <path d="M 50.87 81.142187 
L 853.2 81.142187 
" clip-path="url(#p04e8a8b7e6)" style="fill: none; stroke-dasharray: 2.96,1.28; stroke-dashoffset: 0; stroke: #b0b0b0; stroke-width: 0.8"/>
     </g>
     <g id="line2d_24">
      <g>
       <use xlink:href="#m779111c329" x="50.87" y="81.142187" style="stroke: #000000; stroke-width: 0.8"/>
      </g>
     </g>
     <g id="text_12">
      <!-- 250 -->
      <g transform="translate(24.7825 84.941405) scale(0.1 -0.1)">
       <use xlink:href="#DejaVuSans-32"/>
       <use xlink:href="#DejaVuSans-35" x="63.623047"/>
       <use xlink:href="#DejaVuSans-30" x="127.246094"/>
      </g>
     </g>
    </g>
    <g id="text_13">
     <!-- Score -->
     <g transform="translate(18.702813 229.502344) rotate(-90) scale(0.1 -0.1)">
      <defs>
       <path id="DejaVuSans-53" d="M 3425 4513 
L 3425 3897 
Q 3066 4069 2747 4153 
Q 2428 4238 2131 4238 
Q 1616 4238 1336 4038 
Q 1056 3838 1056 3469 
Q 1056 3159 1242 3001 
Q 1428 2844 1947 2747 
L 2328 2669 
Q 3034 2534 3370 2195 
Q 3706 1856 3706 1288 
Q 3706 609 3251 259 
Q 2797 -91 1919 -91 
Q 1588 -91 1214 -16 
Q 841 59 441 206 
L 441 856 
Q 825 641 1194 531 
Q 1563 422 1919 422 
Q 2459 422 2753 634 
Q 3047 847 3047 1241 
Q 3047 1584 2836 1778 
Q 2625 1972 2144 2069 
L 1759 2144 
Q 1053 2284 737 2584 
Q 422 2884 422 3419 
Q 422 4038 858 4394 
Q 1294 4750 2059 4750 
Q 2388 4750 2728 4690 
Q 3069 4631 3425 4513 
z
" transform="scale(0.015625)"/>
       <path id="DejaVuSans-63" d="M 3122 3366 
L 3122 2828 
Q 2878 2963 2633 3030 
Q 2388 3097 2138 3097 
Q 1578 3097 1268 2742 
Q 959 2388 959 1747 
Q 959 1106 1268 751 
Q 1578 397 2138 397 
Q 2388 397 2633 464 
Q 2878 531 3122 666 
L 3122 134 
Q 2881 22 2623 -34 
Q 2366 -91 2075 -91 
Q 1284 -91 818 406 
Q 353 903 353 1747 
Q 353 2603 823 3093 
Q 1294 3584 2113 3584 
Q 2378 3584 2631 3529 
Q 2884 3475 3122 3366 
z
" transform="scale(0.015625)"/>
       <path id="DejaVuSans-6f" d="M 1959 3097 
Q 1497 3097 1228 2736 
Q 959 2375 959 1747 
Q 959 1119 1226 758 
Q 1494 397 1959 397 
Q 2419 397 2687 759 
Q 2956 1122 2956 1747 
Q 2956 2369 2687 2733 
Q 2419 3097 1959 3097 
z
M 1959 3584 
Q 2709 3584 3137 3096 
Q 3566 2609 3566 1747 
Q 3566 888 3137 398 
Q 2709 -91 1959 -91 
Q 1206 -91 779 398 
Q 353 888 353 1747 
Q 353 2609 779 3096 
Q 1206 3584 1959 3584 
z
" transform="scale(0.015625)"/>
       <path id="DejaVuSans-72" d="M 2631 2963 
Q 2534 3019 2420 3045 
Q 2306 3072 2169 3072 
Q 1681 3072 1420 2755 
Q 1159 2438 1159 1844 
L 1159 0 
L 581 0 
L 581 3500 
L 1159 3500 
L 1159 2956 
Q 1341 3275 1631 3429 
Q 1922 3584 2338 3584 
Q 2397 3584 2469 3576 
Q 2541 3569 2628 3553 
L 2631 2963 
z
" transform="scale(0.015625)"/>
       <path id="DejaVuSans-65" d="M 3597 1894 
L 3597 1613 
L 953 1613 
Q 991 1019 1311 708 
Q 1631 397 2203 397 
Q 2534 397 2845 478 
Q 3156 559 3463 722 
L 3463 178 
Q 3153 47 2828 -22 
Q 2503 -91 2169 -91 
Q 1331 -91 842 396 
Q 353 884 353 1716 
Q 353 2575 817 3079 
Q 1281 3584 2069 3584 
Q 2775 3584 3186 3129 
Q 3597 2675 3597 1894 
z
M 3022 2063 
Q 3016 2534 2758 2815 
Q 2500 3097 2075 3097 
Q 1594 3097 1305 2825 
Q 1016 2553 972 2059 
L 3022 2063 
z
" transform="scale(0.015625)"/>
      </defs>
      <use xlink:href="#DejaVuSans-53"/>
      <use xlink:href="#DejaVuSans-63" x="63.476562"/>
      <use xlink:href="#DejaVuSans-6f" x="118.457031"/>
      <use xlink:href="#DejaVuSans-72" x="179.638672"/>
      <use xlink:href="#DejaVuSans-65" x="218.501953"/>
     </g>
    </g>
   </g>
   <g id="line2d_25">
    <path d="M 87.339545 383.206997 
L 104.302125 352.377022 
L 121.264704 327.713042 
L 138.227283 315.381052 
L 155.189863 296.883067 
L 172.152442 275.918683 
L 189.115021 268.519489 
L 206.0776 259.887096 
L 223.04018 241.389111 
L 240.002759 220.424728 
L 256.965338 187.128355 
L 273.927918 169.863569 
L 290.890497 142.73319 
L 341.778235 142.73319 
L 358.740814 142.73319 
L 375.703393 142.73319 
L 392.665973 142.73319 
L 409.628552 142.73319 
L 443.55371 142.73319 
L 460.51629 142.73319 
L 477.478869 142.73319 
L 494.441448 142.73319 
L 511.404027 142.73319 
L 528.366607 124.235205 
L 545.329186 124.235205 
L 562.291765 124.235205 
L 579.254345 124.235205 
L 596.216924 124.235205 
L 613.179503 81.07324 
L 630.142082 81.07324 
L 647.104662 81.07324 
L 664.067241 81.07324 
L 681.02982 81.07324 
L 697.9924 81.07324 
L 714.954979 81.07324 
L 731.917558 81.07324 
L 748.880137 81.07324 
L 765.842717 81.07324 
L 782.805296 81.07324 
L 799.767875 81.07324 
L 816.730455 81.07324 
" clip-path="url(#p04e8a8b7e6)" style="fill: none; stroke: #1f77b4; stroke-width: 1.5; stroke-linecap: square"/>
    <defs>
     <path id="m069a2a1d3f" d="M 0 3.5 
C 0.928211 3.5 1.81853 3.131218 2.474874 2.474874 
C 3.131218 1.81853 3.5 0.928211 3.5 0 
C 3.5 -0.928211 3.131218 -1.81853 2.474874 -2.474874 
C 1.81853 -3.131218 0.928211 -3.5 0 -3.5 
C -0.928211 -3.5 -1.81853 -3.131218 -2.474874 -2.474874 
C -3.131218 -1.81853 -3.5 -0.928211 -3.5 0 
C -3.5 0.928211 -3.131218 1.81853 -2.474874 2.474874 
C -1.81853 3.131218 -0.928211 3.5 0 3.5 
z
" style="stroke: #1f77b4"/>
    </defs>
    <g clip-path="url(#p04e8a8b7e6)">
     <use xlink:href="#m069a2a1d3f" x="87.339545" y="383.206997" style="fill: #1f77b4; stroke: #1f77b4"/>
     <use xlink:href="#m069a2a1d3f" x="104.302125" y="352.377022" style="fill: #1f77b4; stroke: #1f77b4"/>
     <use xlink:href="#m069a2a1d3f" x="121.264704" y="327.713042" style="fill: #1f77b4; stroke: #1f77b4"/>
     <use xlink:href="#m069a2a1d3f" x="138.227283" y="315.381052" style="fill: #1f77b4; stroke: #1f77b4"/>
     <use xlink:href="#m069a2a1d3f" x="155.189863" y="296.883067" style="fill: #1f77b4; stroke: #1f77b4"/>
     <use xlink:href="#m069a2a1d3f" x="172.152442" y="275.918683" style="fill: #1f77b4; stroke: #1f77b4"/>
     <use xlink:href="#m069a2a1d3f" x="189.115021" y="268.519489" style="fill: #1f77b4; stroke: #1f77b4"/>
     <use xlink:href="#m069a2a1d3f" x="206.0776" y="259.887096" style="fill: #1f77b4; stroke: #1f77b4"/>
     <use xlink:href="#m069a2a1d3f" x="223.04018" y="241.389111" style="fill: #1f77b4; stroke: #1f77b4"/>
     <use xlink:href="#m069a2a1d3f" x="240.002759" y="220.424728" style="fill: #1f77b4; stroke: #1f77b4"/>
     <use xlink:href="#m069a2a1d3f" x="256.965338" y="187.128355" style="fill: #1f77b4; stroke: #1f77b4"/>
     <use xlink:href="#m069a2a1d3f" x="273.927918" y="169.863569" style="fill: #1f77b4; stroke: #1f77b4"/>
     <use xlink:href="#m069a2a1d3f" x="290.890497" y="142.73319" style="fill: #1f77b4; stroke: #1f77b4"/>
     <use xlink:href="#m069a2a1d3f" x="341.778235" y="142.73319" style="fill: #1f77b4; stroke: #1f77b4"/>
     <use xlink:href="#m069a2a1d3f" x="358.740814" y="142.73319" style="fill: #1f77b4; stroke: #1f77b4"/>
     <use xlink:href="#m069a2a1d3f" x="375.703393" y="142.73319" style="fill: #1f77b4; stroke: #1f77b4"/>
     <use xlink:href="#m069a2a1d3f" x="392.665973" y="142.73319" style="fill: #1f77b4; stroke: #1f77b4"/>
     <use xlink:href="#m069a2a1d3f" x="409.628552" y="142.73319" style="fill: #1f77b4; stroke: #1f77b4"/>
     <use xlink:href="#m069a2a1d3f" x="443.55371" y="142.73319" style="fill: #1f77b4; stroke: #1f77b4"/>
     <use xlink:href="#m069a2a1d3f" x="460.51629" y="142.73319" style="fill: #1f77b4; stroke: #1f77b4"/>
     <use xlink:href="#m069a2a1d3f" x="477.478869" y="142.73319" style="fill: #1f77b4; stroke: #1f77b4"/>
     <use xlink:href="#m069a2a1d3f" x="494.441448" y="142.73319" style="fill: #1f77b4; stroke: #1f77b4"/>
     <use xlink:href="#m069a2a1d3f" x="511.404027" y="142.73319" style="fill: #1f77b4; stroke: #1f77b4"/>
     <use xlink:href="#m069a2a1d3f" x="528.366607" y="124.235205" style="fill: #1f77b4; stroke: #1f77b4"/>
     <use xlink:href="#m069a2a1d3f" x="545.329186" y="124.235205" style="fill: #1f77b4; stroke: #1f77b4"/>
     <use xlink:href="#m069a2a1d3f" x="562.291765" y="124.235205" style="fill: #1f77b4; stroke: #1f77b4"/>
     <use xlink:href="#m069a2a1d3f" x="579.254345" y="124.235205" style="fill: #1f77b4; stroke: #1f77b4"/>
     <use xlink:href="#m069a2a1d3f" x="596.216924" y="124.235205" style="fill: #1f77b4; stroke: #1f77b4"/>
     <use xlink:href="#m069a2a1d3f" x="613.179503" y="81.07324" style="fill: #1f77b4; stroke: #1f77b4"/>
     <use xlink:href="#m069a2a1d3f" x="630.142082" y="81.07324" style="fill: #1f77b4; stroke: #1f77b4"/>
     <use xlink:href="#m069a2a1d3f" x="647.104662" y="81.07324" style="fill: #1f77b4; stroke: #1f77b4"/>
     <use xlink:href="#m069a2a1d3f" x="664.067241" y="81.07324" style="fill: #1f77b4; stroke: #1f77b4"/>
     <use xlink:href="#m069a2a1d3f" x="681.02982" y="81.07324" style="fill: #1f77b4; stroke: #1f77b4"/>
     <use xlink:href="#m069a2a1d3f" x="697.9924" y="81.07324" style="fill: #1f77b4; stroke: #1f77b4"/>
     <use xlink:href="#m069a2a1d3f" x="714.954979" y="81.07324" style="fill: #1f77b4; stroke: #1f77b4"/>
     <use xlink:href="#m069a2a1d3f" x="731.917558" y="81.07324" style="fill: #1f77b4; stroke: #1f77b4"/>
     <use xlink:href="#m069a2a1d3f" x="748.880137" y="81.07324" style="fill: #1f77b4; stroke: #1f77b4"/>
     <use xlink:href="#m069a2a1d3f" x="765.842717" y="81.07324" style="fill: #1f77b4; stroke: #1f77b4"/>
     <use xlink:href="#m069a2a1d3f" x="782.805296" y="81.07324" style="fill: #1f77b4; stroke: #1f77b4"/>
     <use xlink:href="#m069a2a1d3f" x="799.767875" y="81.07324" style="fill: #1f77b4; stroke: #1f77b4"/>
     <use xlink:href="#m069a2a1d3f" x="816.730455" y="81.07324" style="fill: #1f77b4; stroke: #1f77b4"/>
    </g>
   </g>
   <g id="line2d_26">
    <path d="M 87.339545 383.306568 
L 104.302125 358.642588 
L 121.264704 343.8442 
L 138.227283 325.346215 
L 155.189863 300.682235 
L 172.152442 285.883847 
L 189.115021 261.219866 
L 206.0776 246.421478 
L 223.04018 215.591503 
L 240.002759 200.793115 
L 256.965338 176.129135 
L 273.927918 161.330747 
L 290.890497 112.002786 
L 341.778235 112.002786 
L 358.740814 112.002786 
L 375.703393 112.002786 
L 392.665973 112.002786 
L 409.628552 112.002786 
L 443.55371 112.002786 
L 460.51629 112.002786 
L 477.478869 112.002786 
L 494.441448 112.002786 
L 511.404027 112.002786 
L 528.366607 112.002786 
L 545.329186 112.002786 
L 562.291765 112.002786 
L 579.254345 112.002786 
L 596.216924 112.002786 
L 613.179503 93.504801 
L 630.142082 93.504801 
L 647.104662 93.504801 
L 664.067241 93.504801 
L 681.02982 93.504801 
L 697.9924 93.504801 
L 714.954979 93.504801 
L 731.917558 93.504801 
L 748.880137 93.504801 
L 765.842717 93.504801 
L 782.805296 93.504801 
L 799.767875 93.504801 
L 816.730455 93.504801 
" clip-path="url(#p04e8a8b7e6)" style="fill: none; stroke: #ff7f0e; stroke-width: 1.5; stroke-linecap: square"/>
    <defs>
     <path id="md07febaf6c" d="M 0 3.5 
C 0.928211 3.5 1.81853 3.131218 2.474874 2.474874 
C 3.131218 1.81853 3.5 0.928211 3.5 0 
C 3.5 -0.928211 3.131218 -1.81853 2.474874 -2.474874 
C 1.81853 -3.131218 0.928211 -3.5 0 -3.5 
C -0.928211 -3.5 -1.81853 -3.131218 -2.474874 -2.474874 
C -3.131218 -1.81853 -3.5 -0.928211 -3.5 0 
C -3.5 0.928211 -3.131218 1.81853 -2.474874 2.474874 
C -1.81853 3.131218 -0.928211 3.5 0 3.5 
z
" style="stroke: #ff7f0e"/>
    </defs>
    <g clip-path="url(#p04e8a8b7e6)">
     <use xlink:href="#md07febaf6c" x="87.339545" y="383.306568" style="fill: #ff7f0e; stroke: #ff7f0e"/>
     <use xlink:href="#md07febaf6c" x="104.302125" y="358.642588" style="fill: #ff7f0e; stroke: #ff7f0e"/>
     <use xlink:href="#md07febaf6c" x="121.264704" y="343.8442" style="fill: #ff7f0e; stroke: #ff7f0e"/>
     <use xlink:href="#md07febaf6c" x="138.227283" y="325.346215" style="fill: #ff7f0e; stroke: #ff7f0e"/>
     <use xlink:href="#md07febaf6c" x="155.189863" y="300.682235" style="fill: #ff7f0e; stroke: #ff7f0e"/>
     <use xlink:href="#md07febaf6c" x="172.152442" y="285.883847" style="fill: #ff7f0e; stroke: #ff7f0e"/>
     <use xlink:href="#md07febaf6c" x="189.115021" y="261.219866" style="fill: #ff7f0e; stroke: #ff7f0e"/>
     <use xlink:href="#md07febaf6c" x="206.0776" y="246.421478" style="fill: #ff7f0e; stroke: #ff7f0e"/>
     <use xlink:href="#md07febaf6c" x="223.04018" y="215.591503" style="fill: #ff7f0e; stroke: #ff7f0e"/>
     <use xlink:href="#md07febaf6c" x="240.002759" y="200.793115" style="fill: #ff7f0e; stroke: #ff7f0e"/>
     <use xlink:href="#md07febaf6c" x="256.965338" y="176.129135" style="fill: #ff7f0e; stroke: #ff7f0e"/>
     <use xlink:href="#md07febaf6c" x="273.927918" y="161.330747" style="fill: #ff7f0e; stroke: #ff7f0e"/>
     <use xlink:href="#md07febaf6c" x="290.890497" y="112.002786" style="fill: #ff7f0e; stroke: #ff7f0e"/>
     <use xlink:href="#md07febaf6c" x="341.778235" y="112.002786" style="fill: #ff7f0e; stroke: #ff7f0e"/>
     <use xlink:href="#md07febaf6c" x="358.740814" y="112.002786" style="fill: #ff7f0e; stroke: #ff7f0e"/>
     <use xlink:href="#md07febaf6c" x="375.703393" y="112.002786" style="fill: #ff7f0e; stroke: #ff7f0e"/>
     <use xlink:href="#md07febaf6c" x="392.665973" y="112.002786" style="fill: #ff7f0e; stroke: #ff7f0e"/>
     <use xlink:href="#md07febaf6c" x="409.628552" y="112.002786" style="fill: #ff7f0e; stroke: #ff7f0e"/>
     <use xlink:href="#md07febaf6c" x="443.55371" y="112.002786" style="fill: #ff7f0e; stroke: #ff7f0e"/>
     <use xlink:href="#md07febaf6c" x="460.51629" y="112.002786" style="fill: #ff7f0e; stroke: #ff7f0e"/>
     <use xlink:href="#md07febaf6c" x="477.478869" y="112.002786" style="fill: #ff7f0e; stroke: #ff7f0e"/>
     <use xlink:href="#md07febaf6c" x="494.441448" y="112.002786" style="fill: #ff7f0e; stroke: #ff7f0e"/>
     <use xlink:href="#md07febaf6c" x="511.404027" y="112.002786" style="fill: #ff7f0e; stroke: #ff7f0e"/>
     <use xlink:href="#md07febaf6c" x="528.366607" y="112.002786" style="fill: #ff7f0e; stroke: #ff7f0e"/>
     <use xlink:href="#md07febaf6c" x="545.329186" y="112.002786" style="fill: #ff7f0e; stroke: #ff7f0e"/>
     <use xlink:href="#md07febaf6c" x="562.291765" y="112.002786" style="fill: #ff7f0e; stroke: #ff7f0e"/>
     <use xlink:href="#md07febaf6c" x="579.254345" y="112.002786" style="fill: #ff7f0e; stroke: #ff7f0e"/>
     <use xlink:href="#md07febaf6c" x="596.216924" y="112.002786" style="fill: #ff7f0e; stroke: #ff7f0e"/>
     <use xlink:href="#md07febaf6c" x="613.179503" y="93.504801" style="fill: #ff7f0e; stroke: #ff7f0e"/>
     <use xlink:href="#md07febaf6c" x="630.142082" y="93.504801" style="fill: #ff7f0e; stroke: #ff7f0e"/>
     <use xlink:href="#md07febaf6c" x="647.104662" y="93.504801" style="fill: #ff7f0e; stroke: #ff7f0e"/>
     <use xlink:href="#md07febaf6c" x="664.067241" y="93.504801" style="fill: #ff7f0e; stroke: #ff7f0e"/>
     <use xlink:href="#md07febaf6c" x="681.02982" y="93.504801" style="fill: #ff7f0e; stroke: #ff7f0e"/>
     <use xlink:href="#md07febaf6c" x="697.9924" y="93.504801" style="fill: #ff7f0e; stroke: #ff7f0e"/>
     <use xlink:href="#md07febaf6c" x="714.954979" y="93.504801" style="fill: #ff7f0e; stroke: #ff7f0e"/>
     <use xlink:href="#md07febaf6c" x="731.917558" y="93.504801" style="fill: #ff7f0e; stroke: #ff7f0e"/>
     <use xlink:href="#md07febaf6c" x="748.880137" y="93.504801" style="fill: #ff7f0e; stroke: #ff7f0e"/>
     <use xlink:href="#md07febaf6c" x="765.842717" y="93.504801" style="fill: #ff7f0e; stroke: #ff7f0e"/>
     <use xlink:href="#md07febaf6c" x="782.805296" y="93.504801" style="fill: #ff7f0e; stroke: #ff7f0e"/>
     <use xlink:href="#md07febaf6c" x="799.767875" y="93.504801" style="fill: #ff7f0e; stroke: #ff7f0e"/>
     <use xlink:href="#md07febaf6c" x="816.730455" y="93.504801" style="fill: #ff7f0e; stroke: #ff7f0e"/>
    </g>
   </g>
   <g id="line2d_27">
    <path d="M 87.339545 383.372243 
L 104.302125 352.542267 
L 121.264704 343.909874 
L 138.227283 337.743879 
L 155.189863 325.411889 
L 172.152442 301.981108 
L 189.115021 294.581914 
L 206.0776 279.783526 
L 223.04018 252.653148 
L 240.002759 231.688765 
L 256.965338 176.194809 
L 273.927918 161.396421 
L 290.890497 119.467655 
L 341.778235 119.467655 
L 358.740814 119.467655 
L 375.703393 119.467655 
L 392.665973 119.467655 
L 409.628552 119.467655 
L 443.55371 119.467655 
L 460.51629 119.467655 
L 477.478869 119.467655 
L 494.441448 119.467655 
L 511.404027 119.467655 
L 528.366607 100.96967 
L 545.329186 100.96967 
L 562.291765 100.96967 
L 579.254345 100.96967 
L 596.216924 100.96967 
L 613.179503 82.471684 
L 630.142082 82.471684 
L 647.104662 82.471684 
L 664.067241 82.471684 
L 681.02982 82.471684 
L 697.9924 82.471684 
L 714.954979 82.471684 
L 731.917558 82.471684 
L 748.880137 82.471684 
L 765.842717 82.471684 
L 782.805296 82.471684 
L 799.767875 82.471684 
L 816.730455 82.471684 
" clip-path="url(#p04e8a8b7e6)" style="fill: none; stroke: #2ca02c; stroke-width: 1.5; stroke-linecap: square"/>
    <defs>
     <path id="m73a56305b2" d="M 0 3.5 
C 0.928211 3.5 1.81853 3.131218 2.474874 2.474874 
C 3.131218 1.81853 3.5 0.928211 3.5 0 
C 3.5 -0.928211 3.131218 -1.81853 2.474874 -2.474874 
C 1.81853 -3.131218 0.928211 -3.5 0 -3.5 
C -0.928211 -3.5 -1.81853 -3.131218 -2.474874 -2.474874 
C -3.131218 -1.81853 -3.5 -0.928211 -3.5 0 
C -3.5 0.928211 -3.131218 1.81853 -2.474874 2.474874 
C -1.81853 3.131218 -0.928211 3.5 0 3.5 
z
" style="stroke: #2ca02c"/>
    </defs>
    <g clip-path="url(#p04e8a8b7e6)">
     <use xlink:href="#m73a56305b2" x="87.339545" y="383.372243" style="fill: #2ca02c; stroke: #2ca02c"/>
     <use xlink:href="#m73a56305b2" x="104.302125" y="352.542267" style="fill: #2ca02c; stroke: #2ca02c"/>
     <use xlink:href="#m73a56305b2" x="121.264704" y="343.909874" style="fill: #2ca02c; stroke: #2ca02c"/>
     <use xlink:href="#m73a56305b2" x="138.227283" y="337.743879" style="fill: #2ca02c; stroke: #2ca02c"/>
     <use xlink:href="#m73a56305b2" x="155.189863" y="325.411889" style="fill: #2ca02c; stroke: #2ca02c"/>
     <use xlink:href="#m73a56305b2" x="172.152442" y="301.981108" style="fill: #2ca02c; stroke: #2ca02c"/>
     <use xlink:href="#m73a56305b2" x="189.115021" y="294.581914" style="fill: #2ca02c; stroke: #2ca02c"/>
     <use xlink:href="#m73a56305b2" x="206.0776" y="279.783526" style="fill: #2ca02c; stroke: #2ca02c"/>
     <use xlink:href="#m73a56305b2" x="223.04018" y="252.653148" style="fill: #2ca02c; stroke: #2ca02c"/>
     <use xlink:href="#m73a56305b2" x="240.002759" y="231.688765" style="fill: #2ca02c; stroke: #2ca02c"/>
     <use xlink:href="#m73a56305b2" x="256.965338" y="176.194809" style="fill: #2ca02c; stroke: #2ca02c"/>
     <use xlink:href="#m73a56305b2" x="273.927918" y="161.396421" style="fill: #2ca02c; stroke: #2ca02c"/>
     <use xlink:href="#m73a56305b2" x="290.890497" y="119.467655" style="fill: #2ca02c; stroke: #2ca02c"/>
     <use xlink:href="#m73a56305b2" x="341.778235" y="119.467655" style="fill: #2ca02c; stroke: #2ca02c"/>
     <use xlink:href="#m73a56305b2" x="358.740814" y="119.467655" style="fill: #2ca02c; stroke: #2ca02c"/>
     <use xlink:href="#m73a56305b2" x="375.703393" y="119.467655" style="fill: #2ca02c; stroke: #2ca02c"/>
     <use xlink:href="#m73a56305b2" x="392.665973" y="119.467655" style="fill: #2ca02c; stroke: #2ca02c"/>
     <use xlink:href="#m73a56305b2" x="409.628552" y="119.467655" style="fill: #2ca02c; stroke: #2ca02c"/>
     <use xlink:href="#m73a56305b2" x="443.55371" y="119.467655" style="fill: #2ca02c; stroke: #2ca02c"/>
     <use xlink:href="#m73a56305b2" x="460.51629" y="119.467655" style="fill: #2ca02c; stroke: #2ca02c"/>
     <use xlink:href="#m73a56305b2" x="477.478869" y="119.467655" style="fill: #2ca02c; stroke: #2ca02c"/>
     <use xlink:href="#m73a56305b2" x="494.441448" y="119.467655" style="fill: #2ca02c; stroke: #2ca02c"/>
     <use xlink:href="#m73a56305b2" x="511.404027" y="119.467655" style="fill: #2ca02c; stroke: #2ca02c"/>
     <use xlink:href="#m73a56305b2" x="528.366607" y="100.96967" style="fill: #2ca02c; stroke: #2ca02c"/>
     <use xlink:href="#m73a56305b2" x="545.329186" y="100.96967" style="fill: #2ca02c; stroke: #2ca02c"/>
     <use xlink:href="#m73a56305b2" x="562.291765" y="100.96967" style="fill: #2ca02c; stroke: #2ca02c"/>
     <use xlink:href="#m73a56305b2" x="579.254345" y="100.96967" style="fill: #2ca02c; stroke: #2ca02c"/>
     <use xlink:href="#m73a56305b2" x="596.216924" y="100.96967" style="fill: #2ca02c; stroke: #2ca02c"/>
     <use xlink:href="#m73a56305b2" x="613.179503" y="82.471684" style="fill: #2ca02c; stroke: #2ca02c"/>
     <use xlink:href="#m73a56305b2" x="630.142082" y="82.471684" style="fill: #2ca02c; stroke: #2ca02c"/>
     <use xlink:href="#m73a56305b2" x="647.104662" y="82.471684" style="fill: #2ca02c; stroke: #2ca02c"/>
     <use xlink:href="#m73a56305b2" x="664.067241" y="82.471684" style="fill: #2ca02c; stroke: #2ca02c"/>
     <use xlink:href="#m73a56305b2" x="681.02982" y="82.471684" style="fill: #2ca02c; stroke: #2ca02c"/>
     <use xlink:href="#m73a56305b2" x="697.9924" y="82.471684" style="fill: #2ca02c; stroke: #2ca02c"/>
     <use xlink:href="#m73a56305b2" x="714.954979" y="82.471684" style="fill: #2ca02c; stroke: #2ca02c"/>
     <use xlink:href="#m73a56305b2" x="731.917558" y="82.471684" style="fill: #2ca02c; stroke: #2ca02c"/>
     <use xlink:href="#m73a56305b2" x="748.880137" y="82.471684" style="fill: #2ca02c; stroke: #2ca02c"/>
     <use xlink:href="#m73a56305b2" x="765.842717" y="82.471684" style="fill: #2ca02c; stroke: #2ca02c"/>
     <use xlink:href="#m73a56305b2" x="782.805296" y="82.471684" style="fill: #2ca02c; stroke: #2ca02c"/>
     <use xlink:href="#m73a56305b2" x="799.767875" y="82.471684" style="fill: #2ca02c; stroke: #2ca02c"/>
     <use xlink:href="#m73a56305b2" x="816.730455" y="82.471684" style="fill: #2ca02c; stroke: #2ca02c"/>
    </g>
   </g>
   <g id="line2d_28">
    <path d="M 87.339545 383.272182 
L 104.302125 362.307799 
L 121.264704 347.509411 
L 138.227283 332.711023 
L 155.189863 326.545028 
L 172.152442 303.114246 
L 189.115021 292.015455 
L 206.0776 284.616261 
L 223.04018 259.952281 
L 240.002759 236.5215 
L 256.965338 199.52553 
L 273.927918 183.493943 
L 290.890497 156.363564 
L 341.778235 156.363564 
L 358.740814 156.363564 
L 375.703393 156.363564 
L 392.665973 156.363564 
L 409.628552 156.363564 
L 443.55371 156.363564 
L 460.51629 156.363564 
L 477.478869 156.363564 
L 494.441448 156.363564 
L 511.404027 156.363564 
L 528.366607 137.865579 
L 545.329186 137.865579 
L 562.291765 137.865579 
L 579.254345 137.865579 
L 596.216924 137.865579 
L 613.179503 107.035604 
L 630.142082 107.035604 
L 647.104662 107.035604 
L 664.067241 107.035604 
L 681.02982 107.035604 
L 697.9924 107.035604 
L 714.954979 107.035604 
L 731.917558 107.035604 
L 748.880137 107.035604 
L 765.842717 107.035604 
L 782.805296 107.035604 
L 799.767875 107.035604 
L 816.730455 107.035604 
" clip-path="url(#p04e8a8b7e6)" style="fill: none; stroke: #d62728; stroke-width: 1.5; stroke-linecap: square"/>
    <defs>
     <path id="m9138f2d7f6" d="M 0 3.5 
C 0.928211 3.5 1.81853 3.131218 2.474874 2.474874 
C 3.131218 1.81853 3.5 0.928211 3.5 0 
C 3.5 -0.928211 3.131218 -1.81853 2.474874 -2.474874 
C 1.81853 -3.131218 0.928211 -3.5 0 -3.5 
C -0.928211 -3.5 -1.81853 -3.131218 -2.474874 -2.474874 
C -3.131218 -1.81853 -3.5 -0.928211 -3.5 0 
C -3.5 0.928211 -3.131218 1.81853 -2.474874 2.474874 
C -1.81853 3.131218 -0.928211 3.5 0 3.5 
z
" style="stroke: #d62728"/>
    </defs>
    <g clip-path="url(#p04e8a8b7e6)">
     <use xlink:href="#m9138f2d7f6" x="87.339545" y="383.272182" style="fill: #d62728; stroke: #d62728"/>
     <use xlink:href="#m9138f2d7f6" x="104.302125" y="362.307799" style="fill: #d62728; stroke: #d62728"/>
     <use xlink:href="#m9138f2d7f6" x="121.264704" y="347.509411" style="fill: #d62728; stroke: #d62728"/>
     <use xlink:href="#m9138f2d7f6" x="138.227283" y="332.711023" style="fill: #d62728; stroke: #d62728"/>
     <use xlink:href="#m9138f2d7f6" x="155.189863" y="326.545028" style="fill: #d62728; stroke: #d62728"/>
     <use xlink:href="#m9138f2d7f6" x="172.152442" y="303.114246" style="fill: #d62728; stroke: #d62728"/>
     <use xlink:href="#m9138f2d7f6" x="189.115021" y="292.015455" style="fill: #d62728; stroke: #d62728"/>
     <use xlink:href="#m9138f2d7f6" x="206.0776" y="284.616261" style="fill: #d62728; stroke: #d62728"/>
     <use xlink:href="#m9138f2d7f6" x="223.04018" y="259.952281" style="fill: #d62728; stroke: #d62728"/>
     <use xlink:href="#m9138f2d7f6" x="240.002759" y="236.5215" style="fill: #d62728; stroke: #d62728"/>
     <use xlink:href="#m9138f2d7f6" x="256.965338" y="199.52553" style="fill: #d62728; stroke: #d62728"/>
     <use xlink:href="#m9138f2d7f6" x="273.927918" y="183.493943" style="fill: #d62728; stroke: #d62728"/>
     <use xlink:href="#m9138f2d7f6" x="290.890497" y="156.363564" style="fill: #d62728; stroke: #d62728"/>
     <use xlink:href="#m9138f2d7f6" x="341.778235" y="156.363564" style="fill: #d62728; stroke: #d62728"/>
     <use xlink:href="#m9138f2d7f6" x="358.740814" y="156.363564" style="fill: #d62728; stroke: #d62728"/>
     <use xlink:href="#m9138f2d7f6" x="375.703393" y="156.363564" style="fill: #d62728; stroke: #d62728"/>
     <use xlink:href="#m9138f2d7f6" x="392.665973" y="156.363564" style="fill: #d62728; stroke: #d62728"/>
     <use xlink:href="#m9138f2d7f6" x="409.628552" y="156.363564" style="fill: #d62728; stroke: #d62728"/>
     <use xlink:href="#m9138f2d7f6" x="443.55371" y="156.363564" style="fill: #d62728; stroke: #d62728"/>
     <use xlink:href="#m9138f2d7f6" x="460.51629" y="156.363564" style="fill: #d62728; stroke: #d62728"/>
     <use xlink:href="#m9138f2d7f6" x="477.478869" y="156.363564" style="fill: #d62728; stroke: #d62728"/>
     <use xlink:href="#m9138f2d7f6" x="494.441448" y="156.363564" style="fill: #d62728; stroke: #d62728"/>
     <use xlink:href="#m9138f2d7f6" x="511.404027" y="156.363564" style="fill: #d62728; stroke: #d62728"/>
     <use xlink:href="#m9138f2d7f6" x="528.366607" y="137.865579" style="fill: #d62728; stroke: #d62728"/>
     <use xlink:href="#m9138f2d7f6" x="545.329186" y="137.865579" style="fill: #d62728; stroke: #d62728"/>
     <use xlink:href="#m9138f2d7f6" x="562.291765" y="137.865579" style="fill: #d62728; stroke: #d62728"/>
     <use xlink:href="#m9138f2d7f6" x="579.254345" y="137.865579" style="fill: #d62728; stroke: #d62728"/>
     <use xlink:href="#m9138f2d7f6" x="596.216924" y="137.865579" style="fill: #d62728; stroke: #d62728"/>
     <use xlink:href="#m9138f2d7f6" x="613.179503" y="107.035604" style="fill: #d62728; stroke: #d62728"/>
     <use xlink:href="#m9138f2d7f6" x="630.142082" y="107.035604" style="fill: #d62728; stroke: #d62728"/>
     <use xlink:href="#m9138f2d7f6" x="647.104662" y="107.035604" style="fill: #d62728; stroke: #d62728"/>
     <use xlink:href="#m9138f2d7f6" x="664.067241" y="107.035604" style="fill: #d62728; stroke: #d62728"/>
     <use xlink:href="#m9138f2d7f6" x="681.02982" y="107.035604" style="fill: #d62728; stroke: #d62728"/>
     <use xlink:href="#m9138f2d7f6" x="697.9924" y="107.035604" style="fill: #d62728; stroke: #d62728"/>
     <use xlink:href="#m9138f2d7f6" x="714.954979" y="107.035604" style="fill: #d62728; stroke: #d62728"/>
     <use xlink:href="#m9138f2d7f6" x="731.917558" y="107.035604" style="fill: #d62728; stroke: #d62728"/>
     <use xlink:href="#m9138f2d7f6" x="748.880137" y="107.035604" style="fill: #d62728; stroke: #d62728"/>
     <use xlink:href="#m9138f2d7f6" x="765.842717" y="107.035604" style="fill: #d62728; stroke: #d62728"/>
     <use xlink:href="#m9138f2d7f6" x="782.805296" y="107.035604" style="fill: #d62728; stroke: #d62728"/>
     <use xlink:href="#m9138f2d7f6" x="799.767875" y="107.035604" style="fill: #d62728; stroke: #d62728"/>
     <use xlink:href="#m9138f2d7f6" x="816.730455" y="107.035604" style="fill: #d62728; stroke: #d62728"/>
    </g>
   </g>
   <g id="line2d_29">
    <path d="M 87.339545 383.389966 
L 104.302125 350.093593 
L 121.264704 322.963215 
L 138.227283 308.164827 
L 155.189863 293.366438 
L 172.152442 278.56805 
L 189.115021 276.101652 
L 206.0776 255.137269 
L 223.04018 224.307294 
L 240.002759 200.876513 
L 256.965338 163.880543 
L 273.927918 149.082154 
L 290.890497 121.951776 
L 341.778235 121.951776 
L 358.740814 121.951776 
L 375.703393 121.951776 
L 392.665973 121.951776 
L 409.628552 121.951776 
L 443.55371 121.951776 
L 460.51629 121.951776 
L 477.478869 121.951776 
L 494.441448 121.951776 
L 511.404027 121.951776 
L 528.366607 103.453791 
L 545.329186 103.453791 
L 562.291765 103.453791 
L 579.254345 103.453791 
L 596.216924 103.453791 
L 613.179503 78.789811 
L 630.142082 78.789811 
L 647.104662 78.789811 
L 664.067241 78.789811 
L 681.02982 78.789811 
L 697.9924 78.789811 
L 714.954979 78.789811 
L 731.917558 78.789811 
L 748.880137 78.789811 
L 765.842717 78.789811 
L 782.805296 78.789811 
L 799.767875 78.789811 
L 816.730455 78.789811 
" clip-path="url(#p04e8a8b7e6)" style="fill: none; stroke: #9467bd; stroke-width: 1.5; stroke-linecap: square"/>
    <defs>
     <path id="m7867b9c35d" d="M 0 3.5 
C 0.928211 3.5 1.81853 3.131218 2.474874 2.474874 
C 3.131218 1.81853 3.5 0.928211 3.5 0 
C 3.5 -0.928211 3.131218 -1.81853 2.474874 -2.474874 
C 1.81853 -3.131218 0.928211 -3.5 0 -3.5 
C -0.928211 -3.5 -1.81853 -3.131218 -2.474874 -2.474874 
C -3.131218 -1.81853 -3.5 -0.928211 -3.5 0 
C -3.5 0.928211 -3.131218 1.81853 -2.474874 2.474874 
C -1.81853 3.131218 -0.928211 3.5 0 3.5 
z
" style="stroke: #9467bd"/>
    </defs>
    <g clip-path="url(#p04e8a8b7e6)">
     <use xlink:href="#m7867b9c35d" x="87.339545" y="383.389966" style="fill: #9467bd; stroke: #9467bd"/>
     <use xlink:href="#m7867b9c35d" x="104.302125" y="350.093593" style="fill: #9467bd; stroke: #9467bd"/>
     <use xlink:href="#m7867b9c35d" x="121.264704" y="322.963215" style="fill: #9467bd; stroke: #9467bd"/>
     <use xlink:href="#m7867b9c35d" x="138.227283" y="308.164827" style="fill: #9467bd; stroke: #9467bd"/>
     <use xlink:href="#m7867b9c35d" x="155.189863" y="293.366438" style="fill: #9467bd; stroke: #9467bd"/>
     <use xlink:href="#m7867b9c35d" x="172.152442" y="278.56805" style="fill: #9467bd; stroke: #9467bd"/>
     <use xlink:href="#m7867b9c35d" x="189.115021" y="276.101652" style="fill: #9467bd; stroke: #9467bd"/>
     <use xlink:href="#m7867b9c35d" x="206.0776" y="255.137269" style="fill: #9467bd; stroke: #9467bd"/>
     <use xlink:href="#m7867b9c35d" x="223.04018" y="224.307294" style="fill: #9467bd; stroke: #9467bd"/>
     <use xlink:href="#m7867b9c35d" x="240.002759" y="200.876513" style="fill: #9467bd; stroke: #9467bd"/>
     <use xlink:href="#m7867b9c35d" x="256.965338" y="163.880543" style="fill: #9467bd; stroke: #9467bd"/>
     <use xlink:href="#m7867b9c35d" x="273.927918" y="149.082154" style="fill: #9467bd; stroke: #9467bd"/>
     <use xlink:href="#m7867b9c35d" x="290.890497" y="121.951776" style="fill: #9467bd; stroke: #9467bd"/>
     <use xlink:href="#m7867b9c35d" x="341.778235" y="121.951776" style="fill: #9467bd; stroke: #9467bd"/>
     <use xlink:href="#m7867b9c35d" x="358.740814" y="121.951776" style="fill: #9467bd; stroke: #9467bd"/>
     <use xlink:href="#m7867b9c35d" x="375.703393" y="121.951776" style="fill: #9467bd; stroke: #9467bd"/>
     <use xlink:href="#m7867b9c35d" x="392.665973" y="121.951776" style="fill: #9467bd; stroke: #9467bd"/>
     <use xlink:href="#m7867b9c35d" x="409.628552" y="121.951776" style="fill: #9467bd; stroke: #9467bd"/>
     <use xlink:href="#m7867b9c35d" x="443.55371" y="121.951776" style="fill: #9467bd; stroke: #9467bd"/>
     <use xlink:href="#m7867b9c35d" x="460.51629" y="121.951776" style="fill: #9467bd; stroke: #9467bd"/>
     <use xlink:href="#m7867b9c35d" x="477.478869" y="121.951776" style="fill: #9467bd; stroke: #9467bd"/>
     <use xlink:href="#m7867b9c35d" x="494.441448" y="121.951776" style="fill: #9467bd; stroke: #9467bd"/>
     <use xlink:href="#m7867b9c35d" x="511.404027" y="121.951776" style="fill: #9467bd; stroke: #9467bd"/>
     <use xlink:href="#m7867b9c35d" x="528.366607" y="103.453791" style="fill: #9467bd; stroke: #9467bd"/>
     <use xlink:href="#m7867b9c35d" x="545.329186" y="103.453791" style="fill: #9467bd; stroke: #9467bd"/>
     <use xlink:href="#m7867b9c35d" x="562.291765" y="103.453791" style="fill: #9467bd; stroke: #9467bd"/>
     <use xlink:href="#m7867b9c35d" x="579.254345" y="103.453791" style="fill: #9467bd; stroke: #9467bd"/>
     <use xlink:href="#m7867b9c35d" x="596.216924" y="103.453791" style="fill: #9467bd; stroke: #9467bd"/>
     <use xlink:href="#m7867b9c35d" x="613.179503" y="78.789811" style="fill: #9467bd; stroke: #9467bd"/>
     <use xlink:href="#m7867b9c35d" x="630.142082" y="78.789811" style="fill: #9467bd; stroke: #9467bd"/>
     <use xlink:href="#m7867b9c35d" x="647.104662" y="78.789811" style="fill: #9467bd; stroke: #9467bd"/>
     <use xlink:href="#m7867b9c35d" x="664.067241" y="78.789811" style="fill: #9467bd; stroke: #9467bd"/>
     <use xlink:href="#m7867b9c35d" x="681.02982" y="78.789811" style="fill: #9467bd; stroke: #9467bd"/>
     <use xlink:href="#m7867b9c35d" x="697.9924" y="78.789811" style="fill: #9467bd; stroke: #9467bd"/>
     <use xlink:href="#m7867b9c35d" x="714.954979" y="78.789811" style="fill: #9467bd; stroke: #9467bd"/>
     <use xlink:href="#m7867b9c35d" x="731.917558" y="78.789811" style="fill: #9467bd; stroke: #9467bd"/>
     <use xlink:href="#m7867b9c35d" x="748.880137" y="78.789811" style="fill: #9467bd; stroke: #9467bd"/>
     <use xlink:href="#m7867b9c35d" x="765.842717" y="78.789811" style="fill: #9467bd; stroke: #9467bd"/>
     <use xlink:href="#m7867b9c35d" x="782.805296" y="78.789811" style="fill: #9467bd; stroke: #9467bd"/>
     <use xlink:href="#m7867b9c35d" x="799.767875" y="78.789811" style="fill: #9467bd; stroke: #9467bd"/>
     <use xlink:href="#m7867b9c35d" x="816.730455" y="78.789811" style="fill: #9467bd; stroke: #9467bd"/>
    </g>
   </g>
   <g id="line2d_30">
    <path d="M 87.339545 383.157 
L 104.302125 352.327025 
L 121.264704 327.663045 
L 138.227283 302.999065 
L 155.189863 284.50108 
L 172.152442 263.536696 
L 189.115021 261.070298 
L 206.0776 256.137502 
L 223.04018 212.975537 
L 240.002759 189.544756 
L 256.965338 158.714781 
L 273.927918 138.983596 
L 290.890497 81.023243 
L 341.778235 81.023243 
L 358.740814 81.023243 
L 375.703393 81.023243 
L 392.665973 81.023243 
L 409.628552 81.023243 
L 443.55371 81.023243 
L 460.51629 81.023243 
L 477.478869 81.023243 
L 494.441448 81.023243 
L 511.404027 81.023243 
L 528.366607 62.525258 
L 545.329186 62.525258 
L 562.291765 62.525258 
L 579.254345 62.525258 
L 596.216924 62.525258 
L 613.179503 44.027273 
L 630.142082 44.027273 
L 647.104662 44.027273 
L 664.067241 44.027273 
L 681.02982 44.027273 
L 697.9924 44.027273 
L 714.954979 44.027273 
L 731.917558 44.027273 
L 748.880137 44.027273 
L 765.842717 44.027273 
L 782.805296 44.027273 
L 799.767875 44.027273 
L 816.730455 44.027273 
" clip-path="url(#p04e8a8b7e6)" style="fill: none; stroke: #8c564b; stroke-width: 1.5; stroke-linecap: square"/>
    <defs>
     <path id="mcad8d7d732" d="M 0 3.5 
C 0.928211 3.5 1.81853 3.131218 2.474874 2.474874 
C 3.131218 1.81853 3.5 0.928211 3.5 0 
C 3.5 -0.928211 3.131218 -1.81853 2.474874 -2.474874 
C 1.81853 -3.131218 0.928211 -3.5 0 -3.5 
C -0.928211 -3.5 -1.81853 -3.131218 -2.474874 -2.474874 
C -3.131218 -1.81853 -3.5 -0.928211 -3.5 0 
C -3.5 0.928211 -3.131218 1.81853 -2.474874 2.474874 
C -1.81853 3.131218 -0.928211 3.5 0 3.5 
z
" style="stroke: #8c564b"/>
    </defs>
    <g clip-path="url(#p04e8a8b7e6)">
     <use xlink:href="#mcad8d7d732" x="87.339545" y="383.157" style="fill: #8c564b; stroke: #8c564b"/>
     <use xlink:href="#mcad8d7d732" x="104.302125" y="352.327025" style="fill: #8c564b; stroke: #8c564b"/>
     <use xlink:href="#mcad8d7d732" x="121.264704" y="327.663045" style="fill: #8c564b; stroke: #8c564b"/>
     <use xlink:href="#mcad8d7d732" x="138.227283" y="302.999065" style="fill: #8c564b; stroke: #8c564b"/>
     <use xlink:href="#mcad8d7d732" x="155.189863" y="284.50108" style="fill: #8c564b; stroke: #8c564b"/>
     <use xlink:href="#mcad8d7d732" x="172.152442" y="263.536696" style="fill: #8c564b; stroke: #8c564b"/>
     <use xlink:href="#mcad8d7d732" x="189.115021" y="261.070298" style="fill: #8c564b; stroke: #8c564b"/>
     <use xlink:href="#mcad8d7d732" x="206.0776" y="256.137502" style="fill: #8c564b; stroke: #8c564b"/>
     <use xlink:href="#mcad8d7d732" x="223.04018" y="212.975537" style="fill: #8c564b; stroke: #8c564b"/>
     <use xlink:href="#mcad8d7d732" x="240.002759" y="189.544756" style="fill: #8c564b; stroke: #8c564b"/>
     <use xlink:href="#mcad8d7d732" x="256.965338" y="158.714781" style="fill: #8c564b; stroke: #8c564b"/>
     <use xlink:href="#mcad8d7d732" x="273.927918" y="138.983596" style="fill: #8c564b; stroke: #8c564b"/>
     <use xlink:href="#mcad8d7d732" x="290.890497" y="81.023243" style="fill: #8c564b; stroke: #8c564b"/>
     <use xlink:href="#mcad8d7d732" x="341.778235" y="81.023243" style="fill: #8c564b; stroke: #8c564b"/>
     <use xlink:href="#mcad8d7d732" x="358.740814" y="81.023243" style="fill: #8c564b; stroke: #8c564b"/>
     <use xlink:href="#mcad8d7d732" x="375.703393" y="81.023243" style="fill: #8c564b; stroke: #8c564b"/>
     <use xlink:href="#mcad8d7d732" x="392.665973" y="81.023243" style="fill: #8c564b; stroke: #8c564b"/>
     <use xlink:href="#mcad8d7d732" x="409.628552" y="81.023243" style="fill: #8c564b; stroke: #8c564b"/>
     <use xlink:href="#mcad8d7d732" x="443.55371" y="81.023243" style="fill: #8c564b; stroke: #8c564b"/>
     <use xlink:href="#mcad8d7d732" x="460.51629" y="81.023243" style="fill: #8c564b; stroke: #8c564b"/>
     <use xlink:href="#mcad8d7d732" x="477.478869" y="81.023243" style="fill: #8c564b; stroke: #8c564b"/>
     <use xlink:href="#mcad8d7d732" x="494.441448" y="81.023243" style="fill: #8c564b; stroke: #8c564b"/>
     <use xlink:href="#mcad8d7d732" x="511.404027" y="81.023243" style="fill: #8c564b; stroke: #8c564b"/>
     <use xlink:href="#mcad8d7d732" x="528.366607" y="62.525258" style="fill: #8c564b; stroke: #8c564b"/>
     <use xlink:href="#mcad8d7d732" x="545.329186" y="62.525258" style="fill: #8c564b; stroke: #8c564b"/>
     <use xlink:href="#mcad8d7d732" x="562.291765" y="62.525258" style="fill: #8c564b; stroke: #8c564b"/>
     <use xlink:href="#mcad8d7d732" x="579.254345" y="62.525258" style="fill: #8c564b; stroke: #8c564b"/>
     <use xlink:href="#mcad8d7d732" x="596.216924" y="62.525258" style="fill: #8c564b; stroke: #8c564b"/>
     <use xlink:href="#mcad8d7d732" x="613.179503" y="44.027273" style="fill: #8c564b; stroke: #8c564b"/>
     <use xlink:href="#mcad8d7d732" x="630.142082" y="44.027273" style="fill: #8c564b; stroke: #8c564b"/>
     <use xlink:href="#mcad8d7d732" x="647.104662" y="44.027273" style="fill: #8c564b; stroke: #8c564b"/>
     <use xlink:href="#mcad8d7d732" x="664.067241" y="44.027273" style="fill: #8c564b; stroke: #8c564b"/>
     <use xlink:href="#mcad8d7d732" x="681.02982" y="44.027273" style="fill: #8c564b; stroke: #8c564b"/>
     <use xlink:href="#mcad8d7d732" x="697.9924" y="44.027273" style="fill: #8c564b; stroke: #8c564b"/>
     <use xlink:href="#mcad8d7d732" x="714.954979" y="44.027273" style="fill: #8c564b; stroke: #8c564b"/>
     <use xlink:href="#mcad8d7d732" x="731.917558" y="44.027273" style="fill: #8c564b; stroke: #8c564b"/>
     <use xlink:href="#mcad8d7d732" x="748.880137" y="44.027273" style="fill: #8c564b; stroke: #8c564b"/>
     <use xlink:href="#mcad8d7d732" x="765.842717" y="44.027273" style="fill: #8c564b; stroke: #8c564b"/>
     <use xlink:href="#mcad8d7d732" x="782.805296" y="44.027273" style="fill: #8c564b; stroke: #8c564b"/>
     <use xlink:href="#mcad8d7d732" x="799.767875" y="44.027273" style="fill: #8c564b; stroke: #8c564b"/>
     <use xlink:href="#mcad8d7d732" x="816.730455" y="44.027273" style="fill: #8c564b; stroke: #8c564b"/>
    </g>
   </g>
   <g id="line2d_31">
    <path d="M 87.339545 386.972727 
L 104.302125 384.506329 
L 121.264704 382.039931 
L 138.227283 351.209956 
L 155.189863 345.043961 
L 172.152442 342.577563 
L 189.115021 317.913583 
L 206.0776 310.514389 
L 223.04018 298.182399 
L 240.002759 287.083608 
L 256.965338 268.585622 
L 273.927918 255.020433 
L 290.890497 188.427687 
L 341.778235 188.427687 
L 358.740814 188.427687 
L 375.703393 188.427687 
L 392.665973 188.427687 
L 409.628552 188.427687 
L 443.55371 188.427687 
L 460.51629 188.427687 
L 477.478869 188.427687 
L 494.441448 188.427687 
L 511.404027 188.427687 
L 528.366607 188.427687 
L 545.329186 188.427687 
L 562.291765 188.427687 
L 579.254345 188.427687 
L 596.216924 188.427687 
L 613.179503 188.427687 
L 630.142082 188.427687 
L 647.104662 188.427687 
L 664.067241 188.427687 
L 681.02982 188.427687 
L 697.9924 188.427687 
L 714.954979 188.427687 
L 731.917558 188.427687 
L 748.880137 188.427687 
L 765.842717 188.427687 
L 782.805296 188.427687 
L 799.767875 188.427687 
L 816.730455 188.427687 
" clip-path="url(#p04e8a8b7e6)" style="fill: none; stroke: #e377c2; stroke-width: 1.5; stroke-linecap: square"/>
    <defs>
     <path id="m1e12bce438" d="M 0 3.5 
C 0.928211 3.5 1.81853 3.131218 2.474874 2.474874 
C 3.131218 1.81853 3.5 0.928211 3.5 0 
C 3.5 -0.928211 3.131218 -1.81853 2.474874 -2.474874 
C 1.81853 -3.131218 0.928211 -3.5 0 -3.5 
C -0.928211 -3.5 -1.81853 -3.131218 -2.474874 -2.474874 
C -3.131218 -1.81853 -3.5 -0.928211 -3.5 0 
C -3.5 0.928211 -3.131218 1.81853 -2.474874 2.474874 
C -1.81853 3.131218 -0.928211 3.5 0 3.5 
z
" style="stroke: #e377c2"/>
    </defs>
    <g clip-path="url(#p04e8a8b7e6)">
     <use xlink:href="#m1e12bce438" x="87.339545" y="386.972727" style="fill: #e377c2; stroke: #e377c2"/>
     <use xlink:href="#m1e12bce438" x="104.302125" y="384.506329" style="fill: #e377c2; stroke: #e377c2"/>
     <use xlink:href="#m1e12bce438" x="121.264704" y="382.039931" style="fill: #e377c2; stroke: #e377c2"/>
     <use xlink:href="#m1e12bce438" x="138.227283" y="351.209956" style="fill: #e377c2; stroke: #e377c2"/>
     <use xlink:href="#m1e12bce438" x="155.189863" y="345.043961" style="fill: #e377c2; stroke: #e377c2"/>
     <use xlink:href="#m1e12bce438" x="172.152442" y="342.577563" style="fill: #e377c2; stroke: #e377c2"/>
     <use xlink:href="#m1e12bce438" x="189.115021" y="317.913583" style="fill: #e377c2; stroke: #e377c2"/>
     <use xlink:href="#m1e12bce438" x="206.0776" y="310.514389" style="fill: #e377c2; stroke: #e377c2"/>
     <use xlink:href="#m1e12bce438" x="223.04018" y="298.182399" style="fill: #e377c2; stroke: #e377c2"/>
     <use xlink:href="#m1e12bce438" x="240.002759" y="287.083608" style="fill: #e377c2; stroke: #e377c2"/>
     <use xlink:href="#m1e12bce438" x="256.965338" y="268.585622" style="fill: #e377c2; stroke: #e377c2"/>
     <use xlink:href="#m1e12bce438" x="273.927918" y="255.020433" style="fill: #e377c2; stroke: #e377c2"/>
     <use xlink:href="#m1e12bce438" x="290.890497" y="188.427687" style="fill: #e377c2; stroke: #e377c2"/>
     <use xlink:href="#m1e12bce438" x="341.778235" y="188.427687" style="fill: #e377c2; stroke: #e377c2"/>
     <use xlink:href="#m1e12bce438" x="358.740814" y="188.427687" style="fill: #e377c2; stroke: #e377c2"/>
     <use xlink:href="#m1e12bce438" x="375.703393" y="188.427687" style="fill: #e377c2; stroke: #e377c2"/>
     <use xlink:href="#m1e12bce438" x="392.665973" y="188.427687" style="fill: #e377c2; stroke: #e377c2"/>
     <use xlink:href="#m1e12bce438" x="409.628552" y="188.427687" style="fill: #e377c2; stroke: #e377c2"/>
     <use xlink:href="#m1e12bce438" x="443.55371" y="188.427687" style="fill: #e377c2; stroke: #e377c2"/>
     <use xlink:href="#m1e12bce438" x="460.51629" y="188.427687" style="fill: #e377c2; stroke: #e377c2"/>
     <use xlink:href="#m1e12bce438" x="477.478869" y="188.427687" style="fill: #e377c2; stroke: #e377c2"/>
     <use xlink:href="#m1e12bce438" x="494.441448" y="188.427687" style="fill: #e377c2; stroke: #e377c2"/>
     <use xlink:href="#m1e12bce438" x="511.404027" y="188.427687" style="fill: #e377c2; stroke: #e377c2"/>
     <use xlink:href="#m1e12bce438" x="528.366607" y="188.427687" style="fill: #e377c2; stroke: #e377c2"/>
     <use xlink:href="#m1e12bce438" x="545.329186" y="188.427687" style="fill: #e377c2; stroke: #e377c2"/>
     <use xlink:href="#m1e12bce438" x="562.291765" y="188.427687" style="fill: #e377c2; stroke: #e377c2"/>
     <use xlink:href="#m1e12bce438" x="579.254345" y="188.427687" style="fill: #e377c2; stroke: #e377c2"/>
     <use xlink:href="#m1e12bce438" x="596.216924" y="188.427687" style="fill: #e377c2; stroke: #e377c2"/>
     <use xlink:href="#m1e12bce438" x="613.179503" y="188.427687" style="fill: #e377c2; stroke: #e377c2"/>
     <use xlink:href="#m1e12bce438" x="630.142082" y="188.427687" style="fill: #e377c2; stroke: #e377c2"/>
     <use xlink:href="#m1e12bce438" x="647.104662" y="188.427687" style="fill: #e377c2; stroke: #e377c2"/>
     <use xlink:href="#m1e12bce438" x="664.067241" y="188.427687" style="fill: #e377c2; stroke: #e377c2"/>
     <use xlink:href="#m1e12bce438" x="681.02982" y="188.427687" style="fill: #e377c2; stroke: #e377c2"/>
     <use xlink:href="#m1e12bce438" x="697.9924" y="188.427687" style="fill: #e377c2; stroke: #e377c2"/>
     <use xlink:href="#m1e12bce438" x="714.954979" y="188.427687" style="fill: #e377c2; stroke: #e377c2"/>
     <use xlink:href="#m1e12bce438" x="731.917558" y="188.427687" style="fill: #e377c2; stroke: #e377c2"/>
     <use xlink:href="#m1e12bce438" x="748.880137" y="188.427687" style="fill: #e377c2; stroke: #e377c2"/>
     <use xlink:href="#m1e12bce438" x="765.842717" y="188.427687" style="fill: #e377c2; stroke: #e377c2"/>
     <use xlink:href="#m1e12bce438" x="782.805296" y="188.427687" style="fill: #e377c2; stroke: #e377c2"/>
     <use xlink:href="#m1e12bce438" x="799.767875" y="188.427687" style="fill: #e377c2; stroke: #e377c2"/>
     <use xlink:href="#m1e12bce438" x="816.730455" y="188.427687" style="fill: #e377c2; stroke: #e377c2"/>
    </g>
   </g>
   <g id="line2d_32">
    <path d="M 87.339545 386.876277 
L 104.302125 359.745898 
L 121.264704 332.61552 
L 138.227283 323.983127 
L 155.189863 299.319147 
L 172.152442 275.888366 
L 189.115021 261.089978 
L 206.0776 258.62358 
L 223.04018 231.493201 
L 240.002759 225.327206 
L 256.965338 175.999246 
L 273.927918 162.434057 
L 290.890497 120.505291 
L 341.778235 120.505291 
L 358.740814 120.505291 
L 375.703393 120.505291 
L 392.665973 120.505291 
L 409.628552 120.505291 
L 443.55371 120.505291 
L 460.51629 120.505291 
L 477.478869 120.505291 
L 494.441448 120.505291 
L 511.404027 120.505291 
L 528.366607 102.007305 
L 545.329186 102.007305 
L 562.291765 102.007305 
L 579.254345 102.007305 
L 596.216924 102.007305 
L 613.179503 95.84131 
L 630.142082 95.84131 
L 647.104662 95.84131 
L 664.067241 95.84131 
L 681.02982 95.84131 
L 697.9924 95.84131 
L 714.954979 95.84131 
L 731.917558 95.84131 
L 748.880137 95.84131 
L 765.842717 95.84131 
L 782.805296 95.84131 
L 799.767875 95.84131 
L 816.730455 95.84131 
" clip-path="url(#p04e8a8b7e6)" style="fill: none; stroke: #7f7f7f; stroke-width: 1.5; stroke-linecap: square"/>
    <defs>
     <path id="medb4af6de5" d="M 0 3.5 
C 0.928211 3.5 1.81853 3.131218 2.474874 2.474874 
C 3.131218 1.81853 3.5 0.928211 3.5 0 
C 3.5 -0.928211 3.131218 -1.81853 2.474874 -2.474874 
C 1.81853 -3.131218 0.928211 -3.5 0 -3.5 
C -0.928211 -3.5 -1.81853 -3.131218 -2.474874 -2.474874 
C -3.131218 -1.81853 -3.5 -0.928211 -3.5 0 
C -3.5 0.928211 -3.131218 1.81853 -2.474874 2.474874 
C -1.81853 3.131218 -0.928211 3.5 0 3.5 
z
" style="stroke: #7f7f7f"/>
    </defs>
    <g clip-path="url(#p04e8a8b7e6)">
     <use xlink:href="#medb4af6de5" x="87.339545" y="386.876277" style="fill: #7f7f7f; stroke: #7f7f7f"/>
     <use xlink:href="#medb4af6de5" x="104.302125" y="359.745898" style="fill: #7f7f7f; stroke: #7f7f7f"/>
     <use xlink:href="#medb4af6de5" x="121.264704" y="332.61552" style="fill: #7f7f7f; stroke: #7f7f7f"/>
     <use xlink:href="#medb4af6de5" x="138.227283" y="323.983127" style="fill: #7f7f7f; stroke: #7f7f7f"/>
     <use xlink:href="#medb4af6de5" x="155.189863" y="299.319147" style="fill: #7f7f7f; stroke: #7f7f7f"/>
     <use xlink:href="#medb4af6de5" x="172.152442" y="275.888366" style="fill: #7f7f7f; stroke: #7f7f7f"/>
     <use xlink:href="#medb4af6de5" x="189.115021" y="261.089978" style="fill: #7f7f7f; stroke: #7f7f7f"/>
     <use xlink:href="#medb4af6de5" x="206.0776" y="258.62358" style="fill: #7f7f7f; stroke: #7f7f7f"/>
     <use xlink:href="#medb4af6de5" x="223.04018" y="231.493201" style="fill: #7f7f7f; stroke: #7f7f7f"/>
     <use xlink:href="#medb4af6de5" x="240.002759" y="225.327206" style="fill: #7f7f7f; stroke: #7f7f7f"/>
     <use xlink:href="#medb4af6de5" x="256.965338" y="175.999246" style="fill: #7f7f7f; stroke: #7f7f7f"/>
     <use xlink:href="#medb4af6de5" x="273.927918" y="162.434057" style="fill: #7f7f7f; stroke: #7f7f7f"/>
     <use xlink:href="#medb4af6de5" x="290.890497" y="120.505291" style="fill: #7f7f7f; stroke: #7f7f7f"/>
     <use xlink:href="#medb4af6de5" x="341.778235" y="120.505291" style="fill: #7f7f7f; stroke: #7f7f7f"/>
     <use xlink:href="#medb4af6de5" x="358.740814" y="120.505291" style="fill: #7f7f7f; stroke: #7f7f7f"/>
     <use xlink:href="#medb4af6de5" x="375.703393" y="120.505291" style="fill: #7f7f7f; stroke: #7f7f7f"/>
     <use xlink:href="#medb4af6de5" x="392.665973" y="120.505291" style="fill: #7f7f7f; stroke: #7f7f7f"/>
     <use xlink:href="#medb4af6de5" x="409.628552" y="120.505291" style="fill: #7f7f7f; stroke: #7f7f7f"/>
     <use xlink:href="#medb4af6de5" x="443.55371" y="120.505291" style="fill: #7f7f7f; stroke: #7f7f7f"/>
     <use xlink:href="#medb4af6de5" x="460.51629" y="120.505291" style="fill: #7f7f7f; stroke: #7f7f7f"/>
     <use xlink:href="#medb4af6de5" x="477.478869" y="120.505291" style="fill: #7f7f7f; stroke: #7f7f7f"/>
     <use xlink:href="#medb4af6de5" x="494.441448" y="120.505291" style="fill: #7f7f7f; stroke: #7f7f7f"/>
     <use xlink:href="#medb4af6de5" x="511.404027" y="120.505291" style="fill: #7f7f7f; stroke: #7f7f7f"/>
     <use xlink:href="#medb4af6de5" x="528.366607" y="102.007305" style="fill: #7f7f7f; stroke: #7f7f7f"/>
     <use xlink:href="#medb4af6de5" x="545.329186" y="102.007305" style="fill: #7f7f7f; stroke: #7f7f7f"/>
     <use xlink:href="#medb4af6de5" x="562.291765" y="102.007305" style="fill: #7f7f7f; stroke: #7f7f7f"/>
     <use xlink:href="#medb4af6de5" x="579.254345" y="102.007305" style="fill: #7f7f7f; stroke: #7f7f7f"/>
     <use xlink:href="#medb4af6de5" x="596.216924" y="102.007305" style="fill: #7f7f7f; stroke: #7f7f7f"/>
     <use xlink:href="#medb4af6de5" x="613.179503" y="95.84131" style="fill: #7f7f7f; stroke: #7f7f7f"/>
     <use xlink:href="#medb4af6de5" x="630.142082" y="95.84131" style="fill: #7f7f7f; stroke: #7f7f7f"/>
     <use xlink:href="#medb4af6de5" x="647.104662" y="95.84131" style="fill: #7f7f7f; stroke: #7f7f7f"/>
     <use xlink:href="#medb4af6de5" x="664.067241" y="95.84131" style="fill: #7f7f7f; stroke: #7f7f7f"/>
     <use xlink:href="#medb4af6de5" x="681.02982" y="95.84131" style="fill: #7f7f7f; stroke: #7f7f7f"/>
     <use xlink:href="#medb4af6de5" x="697.9924" y="95.84131" style="fill: #7f7f7f; stroke: #7f7f7f"/>
     <use xlink:href="#medb4af6de5" x="714.954979" y="95.84131" style="fill: #7f7f7f; stroke: #7f7f7f"/>
     <use xlink:href="#medb4af6de5" x="731.917558" y="95.84131" style="fill: #7f7f7f; stroke: #7f7f7f"/>
     <use xlink:href="#medb4af6de5" x="748.880137" y="95.84131" style="fill: #7f7f7f; stroke: #7f7f7f"/>
     <use xlink:href="#medb4af6de5" x="765.842717" y="95.84131" style="fill: #7f7f7f; stroke: #7f7f7f"/>
     <use xlink:href="#medb4af6de5" x="782.805296" y="95.84131" style="fill: #7f7f7f; stroke: #7f7f7f"/>
     <use xlink:href="#medb4af6de5" x="799.767875" y="95.84131" style="fill: #7f7f7f; stroke: #7f7f7f"/>
     <use xlink:href="#medb4af6de5" x="816.730455" y="95.84131" style="fill: #7f7f7f; stroke: #7f7f7f"/>
    </g>
   </g>
   <g id="line2d_33">
    <path d="M 87.339545 377.198425 
L 104.302125 364.866435 
L 121.264704 346.368449 
L 138.227283 331.570061 
L 155.189863 316.771673 
L 172.152442 283.4753 
L 189.115021 278.542504 
L 206.0776 267.443713 
L 223.04018 236.613738 
L 240.002759 211.949757 
L 256.965338 162.621797 
L 273.927918 147.823409 
L 290.890497 96.029051 
L 341.778235 96.029051 
L 358.740814 96.029051 
L 375.703393 96.029051 
L 392.665973 96.029051 
L 409.628552 96.029051 
L 443.55371 96.029051 
L 460.51629 96.029051 
L 477.478869 96.029051 
L 494.441448 96.029051 
L 511.404027 96.029051 
L 528.366607 77.531065 
L 545.329186 77.531065 
L 562.291765 77.531065 
L 579.254345 77.531065 
L 596.216924 77.531065 
L 613.179503 77.531065 
L 630.142082 77.531065 
L 647.104662 77.531065 
L 664.067241 77.531065 
L 681.02982 77.531065 
L 697.9924 77.531065 
L 714.954979 77.531065 
L 731.917558 77.531065 
L 748.880137 77.531065 
L 765.842717 77.531065 
L 782.805296 77.531065 
L 799.767875 77.531065 
L 816.730455 77.531065 
" clip-path="url(#p04e8a8b7e6)" style="fill: none; stroke: #bcbd22; stroke-width: 1.5; stroke-linecap: square"/>
    <defs>
     <path id="maad54e348a" d="M 0 3.5 
C 0.928211 3.5 1.81853 3.131218 2.474874 2.474874 
C 3.131218 1.81853 3.5 0.928211 3.5 0 
C 3.5 -0.928211 3.131218 -1.81853 2.474874 -2.474874 
C 1.81853 -3.131218 0.928211 -3.5 0 -3.5 
C -0.928211 -3.5 -1.81853 -3.131218 -2.474874 -2.474874 
C -3.131218 -1.81853 -3.5 -0.928211 -3.5 0 
C -3.5 0.928211 -3.131218 1.81853 -2.474874 2.474874 
C -1.81853 3.131218 -0.928211 3.5 0 3.5 
z
" style="stroke: #bcbd22"/>
    </defs>
    <g clip-path="url(#p04e8a8b7e6)">
     <use xlink:href="#maad54e348a" x="87.339545" y="377.198425" style="fill: #bcbd22; stroke: #bcbd22"/>
     <use xlink:href="#maad54e348a" x="104.302125" y="364.866435" style="fill: #bcbd22; stroke: #bcbd22"/>
     <use xlink:href="#maad54e348a" x="121.264704" y="346.368449" style="fill: #bcbd22; stroke: #bcbd22"/>
     <use xlink:href="#maad54e348a" x="138.227283" y="331.570061" style="fill: #bcbd22; stroke: #bcbd22"/>
     <use xlink:href="#maad54e348a" x="155.189863" y="316.771673" style="fill: #bcbd22; stroke: #bcbd22"/>
     <use xlink:href="#maad54e348a" x="172.152442" y="283.4753" style="fill: #bcbd22; stroke: #bcbd22"/>
     <use xlink:href="#maad54e348a" x="189.115021" y="278.542504" style="fill: #bcbd22; stroke: #bcbd22"/>
     <use xlink:href="#maad54e348a" x="206.0776" y="267.443713" style="fill: #bcbd22; stroke: #bcbd22"/>
     <use xlink:href="#maad54e348a" x="223.04018" y="236.613738" style="fill: #bcbd22; stroke: #bcbd22"/>
     <use xlink:href="#maad54e348a" x="240.002759" y="211.949757" style="fill: #bcbd22; stroke: #bcbd22"/>
     <use xlink:href="#maad54e348a" x="256.965338" y="162.621797" style="fill: #bcbd22; stroke: #bcbd22"/>
     <use xlink:href="#maad54e348a" x="273.927918" y="147.823409" style="fill: #bcbd22; stroke: #bcbd22"/>
     <use xlink:href="#maad54e348a" x="290.890497" y="96.029051" style="fill: #bcbd22; stroke: #bcbd22"/>
     <use xlink:href="#maad54e348a" x="341.778235" y="96.029051" style="fill: #bcbd22; stroke: #bcbd22"/>
     <use xlink:href="#maad54e348a" x="358.740814" y="96.029051" style="fill: #bcbd22; stroke: #bcbd22"/>
     <use xlink:href="#maad54e348a" x="375.703393" y="96.029051" style="fill: #bcbd22; stroke: #bcbd22"/>
     <use xlink:href="#maad54e348a" x="392.665973" y="96.029051" style="fill: #bcbd22; stroke: #bcbd22"/>
     <use xlink:href="#maad54e348a" x="409.628552" y="96.029051" style="fill: #bcbd22; stroke: #bcbd22"/>
     <use xlink:href="#maad54e348a" x="443.55371" y="96.029051" style="fill: #bcbd22; stroke: #bcbd22"/>
     <use xlink:href="#maad54e348a" x="460.51629" y="96.029051" style="fill: #bcbd22; stroke: #bcbd22"/>
     <use xlink:href="#maad54e348a" x="477.478869" y="96.029051" style="fill: #bcbd22; stroke: #bcbd22"/>
     <use xlink:href="#maad54e348a" x="494.441448" y="96.029051" style="fill: #bcbd22; stroke: #bcbd22"/>
     <use xlink:href="#maad54e348a" x="511.404027" y="96.029051" style="fill: #bcbd22; stroke: #bcbd22"/>
     <use xlink:href="#maad54e348a" x="528.366607" y="77.531065" style="fill: #bcbd22; stroke: #bcbd22"/>
     <use xlink:href="#maad54e348a" x="545.329186" y="77.531065" style="fill: #bcbd22; stroke: #bcbd22"/>
     <use xlink:href="#maad54e348a" x="562.291765" y="77.531065" style="fill: #bcbd22; stroke: #bcbd22"/>
     <use xlink:href="#maad54e348a" x="579.254345" y="77.531065" style="fill: #bcbd22; stroke: #bcbd22"/>
     <use xlink:href="#maad54e348a" x="596.216924" y="77.531065" style="fill: #bcbd22; stroke: #bcbd22"/>
     <use xlink:href="#maad54e348a" x="613.179503" y="77.531065" style="fill: #bcbd22; stroke: #bcbd22"/>
     <use xlink:href="#maad54e348a" x="630.142082" y="77.531065" style="fill: #bcbd22; stroke: #bcbd22"/>
     <use xlink:href="#maad54e348a" x="647.104662" y="77.531065" style="fill: #bcbd22; stroke: #bcbd22"/>
     <use xlink:href="#maad54e348a" x="664.067241" y="77.531065" style="fill: #bcbd22; stroke: #bcbd22"/>
     <use xlink:href="#maad54e348a" x="681.02982" y="77.531065" style="fill: #bcbd22; stroke: #bcbd22"/>
     <use xlink:href="#maad54e348a" x="697.9924" y="77.531065" style="fill: #bcbd22; stroke: #bcbd22"/>
     <use xlink:href="#maad54e348a" x="714.954979" y="77.531065" style="fill: #bcbd22; stroke: #bcbd22"/>
     <use xlink:href="#maad54e348a" x="731.917558" y="77.531065" style="fill: #bcbd22; stroke: #bcbd22"/>
     <use xlink:href="#maad54e348a" x="748.880137" y="77.531065" style="fill: #bcbd22; stroke: #bcbd22"/>
     <use xlink:href="#maad54e348a" x="765.842717" y="77.531065" style="fill: #bcbd22; stroke: #bcbd22"/>
     <use xlink:href="#maad54e348a" x="782.805296" y="77.531065" style="fill: #bcbd22; stroke: #bcbd22"/>
     <use xlink:href="#maad54e348a" x="799.767875" y="77.531065" style="fill: #bcbd22; stroke: #bcbd22"/>
     <use xlink:href="#maad54e348a" x="816.730455" y="77.531065" style="fill: #bcbd22; stroke: #bcbd22"/>
    </g>
   </g>
   <g id="patch_3">
    <path d="M 50.87 404.12 
L 50.87 26.88 
" style="fill: none; stroke: #000000; stroke-width: 0.8; stroke-linejoin: miter; stroke-linecap: square"/>
   </g>
   <g id="patch_4">
    <path d="M 853.2 404.12 
L 853.2 26.88 
" style="fill: none; stroke: #000000; stroke-width: 0.8; stroke-linejoin: miter; stroke-linecap: square"/>
   </g>
   <g id="patch_5">
    <path d="M 50.87 404.12 
L 853.2 404.12 
" style="fill: none; stroke: #000000; stroke-width: 0.8; stroke-linejoin: miter; stroke-linecap: square"/>
   </g>
   <g id="patch_6">
    <path d="M 50.87 26.88 
L 853.2 26.88 
" style="fill: none; stroke: #000000; stroke-width: 0.8; stroke-linejoin: miter; stroke-linecap: square"/>
   </g>
   <g id="text_14">
    <!-- Standings -->
    <g transform="translate(422.18125 20.88) scale(0.12 -0.12)">
     <defs>
      <path id="DejaVuSans-74" d="M 1172 4494 
L 1172 3500 
L 2356 3500 
L 2356 3053 
L 1172 3053 
L 1172 1153 
Q 1172 725 1289 603 
Q 1406 481 1766 481 
L 2356 481 
L 2356 0 
L 1766 0 
Q 1100 0 847 248 
Q 594 497 594 1153 
L 594 3053 
L 172 3053 
L 172 3500 
L 594 3500 
L 594 4494 
L 1172 4494 
z
" transform="scale(0.015625)"/>
      <path id="DejaVuSans-61" d="M 2194 1759 
Q 1497 1759 1228 1600 
Q 959 1441 959 1056 
Q 959 750 1161 570 
Q 1363 391 1709 391 
Q 2188 391 2477 730 
Q 2766 1069 2766 1631 
L 2766 1759 
L 2194 1759 
z
M 3341 1997 
L 3341 0 
L 2766 0 
L 2766 531 
Q 2569 213 2275 61 
Q 1981 -91 1556 -91 
Q 1019 -91 701 211 
Q 384 513 384 1019 
Q 384 1609 779 1909 
Q 1175 2209 1959 2209 
L 2766 2209 
L 2766 2266 
Q 2766 2663 2505 2880 
Q 2244 3097 1772 3097 
Q 1472 3097 1187 3025 
Q 903 2953 641 2809 
L 641 3341 
Q 956 3463 1253 3523 
Q 1550 3584 1831 3584 
Q 2591 3584 2966 3190 
Q 3341 2797 3341 1997 
z
" transform="scale(0.015625)"/>
      <path id="DejaVuSans-6e" d="M 3513 2113 
L 3513 0 
L 2938 0 
L 2938 2094 
Q 2938 2591 2744 2837 
Q 2550 3084 2163 3084 
Q 1697 3084 1428 2787 
Q 1159 2491 1159 1978 
L 1159 0 
L 581 0 
L 581 3500 
L 1159 3500 
L 1159 2956 
Q 1366 3272 1645 3428 
Q 1925 3584 2291 3584 
Q 2894 3584 3203 3211 
Q 3513 2838 3513 2113 
z
" transform="scale(0.015625)"/>
      <path id="DejaVuSans-64" d="M 2906 2969 
L 2906 4863 
L 3481 4863 
L 3481 0 
L 2906 0 
L 2906 525 
Q 2725 213 2448 61 
Q 2172 -91 1784 -91 
Q 1150 -91 751 415 
Q 353 922 353 1747 
Q 353 2572 751 3078 
Q 1150 3584 1784 3584 
Q 2172 3584 2448 3432 
Q 2725 3281 2906 2969 
z
M 947 1747 
Q 947 1113 1208 752 
Q 1469 391 1925 391 
Q 2381 391 2643 752 
Q 2906 1113 2906 1747 
Q 2906 2381 2643 2742 
Q 2381 3103 1925 3103 
Q 1469 3103 1208 2742 
Q 947 2381 947 1747 
z
" transform="scale(0.015625)"/>
      <path id="DejaVuSans-69" d="M 603 3500 
L 1178 3500 
L 1178 0 
L 603 0 
L 603 3500 
z
M 603 4863 
L 1178 4863 
L 1178 4134 
L 603 4134 
L 603 4863 
z
" transform="scale(0.015625)"/>
      <path id="DejaVuSans-67" d="M 2906 1791 
Q 2906 2416 2648 2759 
Q 2391 3103 1925 3103 
Q 1463 3103 1205 2759 
Q 947 2416 947 1791 
Q 947 1169 1205 825 
Q 1463 481 1925 481 
Q 2391 481 2648 825 
Q 2906 1169 2906 1791 
z
M 3481 434 
Q 3481 -459 3084 -895 
Q 2688 -1331 1869 -1331 
Q 1566 -1331 1297 -1286 
Q 1028 -1241 775 -1147 
L 775 -588 
Q 1028 -725 1275 -790 
Q 1522 -856 1778 -856 
Q 2344 -856 2625 -561 
Q 2906 -266 2906 331 
L 2906 616 
Q 2728 306 2450 153 
Q 2172 0 1784 0 
Q 1141 0 747 490 
Q 353 981 353 1791 
Q 353 2603 747 3093 
Q 1141 3584 1784 3584 
Q 2172 3584 2450 3431 
Q 2728 3278 2906 2969 
L 2906 3500 
L 3481 3500 
L 3481 434 
z
" transform="scale(0.015625)"/>
      <path id="DejaVuSans-73" d="M 2834 3397 
L 2834 2853 
Q 2591 2978 2328 3040 
Q 2066 3103 1784 3103 
Q 1356 3103 1142 2972 
Q 928 2841 928 2578 
Q 928 2378 1081 2264 
Q 1234 2150 1697 2047 
L 1894 2003 
Q 2506 1872 2764 1633 
Q 3022 1394 3022 966 
Q 3022 478 2636 193 
Q 2250 -91 1575 -91 
Q 1294 -91 989 -36 
Q 684 19 347 128 
L 347 722 
Q 666 556 975 473 
Q 1284 391 1588 391 
Q 1994 391 2212 530 
Q 2431 669 2431 922 
Q 2431 1156 2273 1281 
Q 2116 1406 1581 1522 
L 1381 1569 
Q 847 1681 609 1914 
Q 372 2147 372 2553 
Q 372 3047 722 3315 
Q 1072 3584 1716 3584 
Q 2034 3584 2315 3537 
Q 2597 3491 2834 3397 
z
" transform="scale(0.015625)"/>
     </defs>
     <use xlink:href="#DejaVuSans-53"/>
     <use xlink:href="#DejaVuSans-74" x="63.476562"/>
     <use xlink:href="#DejaVuSans-61" x="102.685547"/>
     <use xlink:href="#DejaVuSans-6e" x="163.964844"/>
     <use xlink:href="#DejaVuSans-64" x="227.34375"/>
     <use xlink:href="#DejaVuSans-69" x="290.820312"/>
     <use xlink:href="#DejaVuSans-6e" x="318.603516"/>
     <use xlink:href="#DejaVuSans-67" x="381.982422"/>
     <use xlink:href="#DejaVuSans-73" x="445.458984"/>
    </g>
   </g>
   <g id="legend_1">
    <g id="patch_7">
     <path d="M 57.87 166.983125 
L 149.490313 166.983125 
Q 151.490313 166.983125 151.490313 164.983125 
L 151.490313 33.88 
Q 151.490313 31.88 149.490313 31.88 
L 57.87 31.88 
Q 55.87 31.88 55.87 33.88 
L 55.87 164.983125 
Q 55.87 166.983125 57.87 166.983125 
z
" style="fill: #ffffff; opacity: 0.8; stroke: #cccccc; stroke-linejoin: miter"/>
    </g>
    <g id="line2d_34">
     <path d="M 59.87 39.978437 
L 69.87 39.978437 
L 79.87 39.978437 
" style="fill: none; stroke: #1f77b4; stroke-width: 1.5; stroke-linecap: square"/>
     <g>
      <use xlink:href="#m069a2a1d3f" x="69.87" y="39.978437" style="fill: #1f77b4; stroke: #1f77b4"/>
     </g>
    </g>
    <g id="text_15">
     <!-- Martin Ba -->
     <g transform="translate(87.87 43.478437) scale(0.1 -0.1)">
      <defs>
       <path id="DejaVuSans-4d" d="M 628 4666 
L 1569 4666 
L 2759 1491 
L 3956 4666 
L 4897 4666 
L 4897 0 
L 4281 0 
L 4281 4097 
L 3078 897 
L 2444 897 
L 1241 4097 
L 1241 0 
L 628 0 
L 628 4666 
z
" transform="scale(0.015625)"/>
       <path id="DejaVuSans-20" transform="scale(0.015625)"/>
       <path id="DejaVuSans-42" d="M 1259 2228 
L 1259 519 
L 2272 519 
Q 2781 519 3026 730 
Q 3272 941 3272 1375 
Q 3272 1813 3026 2020 
Q 2781 2228 2272 2228 
L 1259 2228 
z
M 1259 4147 
L 1259 2741 
L 2194 2741 
Q 2656 2741 2882 2914 
Q 3109 3088 3109 3444 
Q 3109 3797 2882 3972 
Q 2656 4147 2194 4147 
L 1259 4147 
z
M 628 4666 
L 2241 4666 
Q 2963 4666 3353 4366 
Q 3744 4066 3744 3513 
Q 3744 3084 3544 2831 
Q 3344 2578 2956 2516 
Q 3422 2416 3680 2098 
Q 3938 1781 3938 1306 
Q 3938 681 3513 340 
Q 3088 0 2303 0 
L 628 0 
L 628 4666 
z
" transform="scale(0.015625)"/>
      </defs>
      <use xlink:href="#DejaVuSans-4d"/>
      <use xlink:href="#DejaVuSans-61" x="86.279297"/>
      <use xlink:href="#DejaVuSans-72" x="147.558594"/>
      <use xlink:href="#DejaVuSans-74" x="188.671875"/>
      <use xlink:href="#DejaVuSans-69" x="227.880859"/>
      <use xlink:href="#DejaVuSans-6e" x="255.664062"/>
      <use xlink:href="#DejaVuSans-20" x="319.042969"/>
      <use xlink:href="#DejaVuSans-42" x="350.830078"/>
      <use xlink:href="#DejaVuSans-61" x="419.433594"/>
     </g>
    </g>
    <g id="line2d_35">
     <path d="M 59.87 54.656563 
L 69.87 54.656563 
L 79.87 54.656563 
" style="fill: none; stroke: #ff7f0e; stroke-width: 1.5; stroke-linecap: square"/>
     <g>
      <use xlink:href="#md07febaf6c" x="69.87" y="54.656563" style="fill: #ff7f0e; stroke: #ff7f0e"/>
     </g>
    </g>
    <g id="text_16">
     <!-- Maren St -->
     <g transform="translate(87.87 58.156563) scale(0.1 -0.1)">
      <use xlink:href="#DejaVuSans-4d"/>
      <use xlink:href="#DejaVuSans-61" x="86.279297"/>
      <use xlink:href="#DejaVuSans-72" x="147.558594"/>
      <use xlink:href="#DejaVuSans-65" x="186.421875"/>
      <use xlink:href="#DejaVuSans-6e" x="247.945312"/>
      <use xlink:href="#DejaVuSans-20" x="311.324219"/>
      <use xlink:href="#DejaVuSans-53" x="343.111328"/>
      <use xlink:href="#DejaVuSans-74" x="406.587891"/>
     </g>
    </g>
    <g id="line2d_36">
     <path d="M 59.87 69.334687 
L 69.87 69.334687 
L 79.87 69.334687 
" style="fill: none; stroke: #2ca02c; stroke-width: 1.5; stroke-linecap: square"/>
     <g>
      <use xlink:href="#m73a56305b2" x="69.87" y="69.334687" style="fill: #2ca02c; stroke: #2ca02c"/>
     </g>
    </g>
    <g id="text_17">
     <!-- Jakob Ve -->
     <g transform="translate(87.87 72.834687) scale(0.1 -0.1)">
      <defs>
       <path id="DejaVuSans-4a" d="M 628 4666 
L 1259 4666 
L 1259 325 
Q 1259 -519 939 -900 
Q 619 -1281 -91 -1281 
L -331 -1281 
L -331 -750 
L -134 -750 
Q 284 -750 456 -515 
Q 628 -281 628 325 
L 628 4666 
z
" transform="scale(0.015625)"/>
       <path id="DejaVuSans-6b" d="M 581 4863 
L 1159 4863 
L 1159 1991 
L 2875 3500 
L 3609 3500 
L 1753 1863 
L 3688 0 
L 2938 0 
L 1159 1709 
L 1159 0 
L 581 0 
L 581 4863 
z
" transform="scale(0.015625)"/>
       <path id="DejaVuSans-62" d="M 3116 1747 
Q 3116 2381 2855 2742 
Q 2594 3103 2138 3103 
Q 1681 3103 1420 2742 
Q 1159 2381 1159 1747 
Q 1159 1113 1420 752 
Q 1681 391 2138 391 
Q 2594 391 2855 752 
Q 3116 1113 3116 1747 
z
M 1159 2969 
Q 1341 3281 1617 3432 
Q 1894 3584 2278 3584 
Q 2916 3584 3314 3078 
Q 3713 2572 3713 1747 
Q 3713 922 3314 415 
Q 2916 -91 2278 -91 
Q 1894 -91 1617 61 
Q 1341 213 1159 525 
L 1159 0 
L 581 0 
L 581 4863 
L 1159 4863 
L 1159 2969 
z
" transform="scale(0.015625)"/>
       <path id="DejaVuSans-56" d="M 1831 0 
L 50 4666 
L 709 4666 
L 2188 738 
L 3669 4666 
L 4325 4666 
L 2547 0 
L 1831 0 
z
" transform="scale(0.015625)"/>
      </defs>
      <use xlink:href="#DejaVuSans-4a"/>
      <use xlink:href="#DejaVuSans-61" x="29.492188"/>
      <use xlink:href="#DejaVuSans-6b" x="90.771484"/>
      <use xlink:href="#DejaVuSans-6f" x="145.056641"/>
      <use xlink:href="#DejaVuSans-62" x="206.238281"/>
      <use xlink:href="#DejaVuSans-20" x="269.714844"/>
      <use xlink:href="#DejaVuSans-56" x="301.501953"/>
      <use xlink:href="#DejaVuSans-65" x="362.160156"/>
     </g>
    </g>
    <g id="line2d_37">
     <path d="M 59.87 84.012812 
L 69.87 84.012812 
L 79.87 84.012812 
" style="fill: none; stroke: #d62728; stroke-width: 1.5; stroke-linecap: square"/>
     <g>
      <use xlink:href="#m9138f2d7f6" x="69.87" y="84.012812" style="fill: #d62728; stroke: #d62728"/>
     </g>
    </g>
    <g id="text_18">
     <!-- Mathas Po -->
     <g transform="translate(87.87 87.512812) scale(0.1 -0.1)">
      <defs>
       <path id="DejaVuSans-68" d="M 3513 2113 
L 3513 0 
L 2938 0 
L 2938 2094 
Q 2938 2591 2744 2837 
Q 2550 3084 2163 3084 
Q 1697 3084 1428 2787 
Q 1159 2491 1159 1978 
L 1159 0 
L 581 0 
L 581 4863 
L 1159 4863 
L 1159 2956 
Q 1366 3272 1645 3428 
Q 1925 3584 2291 3584 
Q 2894 3584 3203 3211 
Q 3513 2838 3513 2113 
z
" transform="scale(0.015625)"/>
       <path id="DejaVuSans-50" d="M 1259 4147 
L 1259 2394 
L 2053 2394 
Q 2494 2394 2734 2622 
Q 2975 2850 2975 3272 
Q 2975 3691 2734 3919 
Q 2494 4147 2053 4147 
L 1259 4147 
z
M 628 4666 
L 2053 4666 
Q 2838 4666 3239 4311 
Q 3641 3956 3641 3272 
Q 3641 2581 3239 2228 
Q 2838 1875 2053 1875 
L 1259 1875 
L 1259 0 
L 628 0 
L 628 4666 
z
" transform="scale(0.015625)"/>
      </defs>
      <use xlink:href="#DejaVuSans-4d"/>
      <use xlink:href="#DejaVuSans-61" x="86.279297"/>
      <use xlink:href="#DejaVuSans-74" x="147.558594"/>
      <use xlink:href="#DejaVuSans-68" x="186.767578"/>
      <use xlink:href="#DejaVuSans-61" x="250.146484"/>
      <use xlink:href="#DejaVuSans-73" x="311.425781"/>
      <use xlink:href="#DejaVuSans-20" x="363.525391"/>
      <use xlink:href="#DejaVuSans-50" x="395.3125"/>
      <use xlink:href="#DejaVuSans-6f" x="451.990234"/>
     </g>
    </g>
    <g id="line2d_38">
     <path d="M 59.87 98.690938 
L 69.87 98.690938 
L 79.87 98.690938 
" style="fill: none; stroke: #9467bd; stroke-width: 1.5; stroke-linecap: square"/>
     <g>
      <use xlink:href="#m7867b9c35d" x="69.87" y="98.690938" style="fill: #9467bd; stroke: #9467bd"/>
     </g>
    </g>
    <g id="text_19">
     <!-- Christian Gr -->
     <g transform="translate(87.87 102.190938) scale(0.1 -0.1)">
      <defs>
       <path id="DejaVuSans-43" d="M 4122 4306 
L 4122 3641 
Q 3803 3938 3442 4084 
Q 3081 4231 2675 4231 
Q 1875 4231 1450 3742 
Q 1025 3253 1025 2328 
Q 1025 1406 1450 917 
Q 1875 428 2675 428 
Q 3081 428 3442 575 
Q 3803 722 4122 1019 
L 4122 359 
Q 3791 134 3420 21 
Q 3050 -91 2638 -91 
Q 1578 -91 968 557 
Q 359 1206 359 2328 
Q 359 3453 968 4101 
Q 1578 4750 2638 4750 
Q 3056 4750 3426 4639 
Q 3797 4528 4122 4306 
z
" transform="scale(0.015625)"/>
       <path id="DejaVuSans-47" d="M 3809 666 
L 3809 1919 
L 2778 1919 
L 2778 2438 
L 4434 2438 
L 4434 434 
Q 4069 175 3628 42 
Q 3188 -91 2688 -91 
Q 1594 -91 976 548 
Q 359 1188 359 2328 
Q 359 3472 976 4111 
Q 1594 4750 2688 4750 
Q 3144 4750 3555 4637 
Q 3966 4525 4313 4306 
L 4313 3634 
Q 3963 3931 3569 4081 
Q 3175 4231 2741 4231 
Q 1884 4231 1454 3753 
Q 1025 3275 1025 2328 
Q 1025 1384 1454 906 
Q 1884 428 2741 428 
Q 3075 428 3337 486 
Q 3600 544 3809 666 
z
" transform="scale(0.015625)"/>
      </defs>
      <use xlink:href="#DejaVuSans-43"/>
      <use xlink:href="#DejaVuSans-68" x="69.824219"/>
      <use xlink:href="#DejaVuSans-72" x="133.203125"/>
      <use xlink:href="#DejaVuSans-69" x="174.316406"/>
      <use xlink:href="#DejaVuSans-73" x="202.099609"/>
      <use xlink:href="#DejaVuSans-74" x="254.199219"/>
      <use xlink:href="#DejaVuSans-69" x="293.408203"/>
      <use xlink:href="#DejaVuSans-61" x="321.191406"/>
      <use xlink:href="#DejaVuSans-6e" x="382.470703"/>
      <use xlink:href="#DejaVuSans-20" x="445.849609"/>
      <use xlink:href="#DejaVuSans-47" x="477.636719"/>
      <use xlink:href="#DejaVuSans-72" x="555.126953"/>
     </g>
    </g>
    <g id="line2d_39">
     <path d="M 59.87 113.369062 
L 69.87 113.369062 
L 79.87 113.369062 
" style="fill: none; stroke: #8c564b; stroke-width: 1.5; stroke-linecap: square"/>
     <g>
      <use xlink:href="#mcad8d7d732" x="69.87" y="113.369062" style="fill: #8c564b; stroke: #8c564b"/>
     </g>
    </g>
    <g id="text_20">
     <!-- RIKKE GR -->
     <g transform="translate(87.87 116.869062) scale(0.1 -0.1)">
      <defs>
       <path id="DejaVuSans-52" d="M 2841 2188 
Q 3044 2119 3236 1894 
Q 3428 1669 3622 1275 
L 4263 0 
L 3584 0 
L 2988 1197 
Q 2756 1666 2539 1819 
Q 2322 1972 1947 1972 
L 1259 1972 
L 1259 0 
L 628 0 
L 628 4666 
L 2053 4666 
Q 2853 4666 3247 4331 
Q 3641 3997 3641 3322 
Q 3641 2881 3436 2590 
Q 3231 2300 2841 2188 
z
M 1259 4147 
L 1259 2491 
L 2053 2491 
Q 2509 2491 2742 2702 
Q 2975 2913 2975 3322 
Q 2975 3731 2742 3939 
Q 2509 4147 2053 4147 
L 1259 4147 
z
" transform="scale(0.015625)"/>
       <path id="DejaVuSans-49" d="M 628 4666 
L 1259 4666 
L 1259 0 
L 628 0 
L 628 4666 
z
" transform="scale(0.015625)"/>
       <path id="DejaVuSans-4b" d="M 628 4666 
L 1259 4666 
L 1259 2694 
L 3353 4666 
L 4166 4666 
L 1850 2491 
L 4331 0 
L 3500 0 
L 1259 2247 
L 1259 0 
L 628 0 
L 628 4666 
z
" transform="scale(0.015625)"/>
       <path id="DejaVuSans-45" d="M 628 4666 
L 3578 4666 
L 3578 4134 
L 1259 4134 
L 1259 2753 
L 3481 2753 
L 3481 2222 
L 1259 2222 
L 1259 531 
L 3634 531 
L 3634 0 
L 628 0 
L 628 4666 
z
" transform="scale(0.015625)"/>
      </defs>
      <use xlink:href="#DejaVuSans-52"/>
      <use xlink:href="#DejaVuSans-49" x="69.482422"/>
      <use xlink:href="#DejaVuSans-4b" x="98.974609"/>
      <use xlink:href="#DejaVuSans-4b" x="164.550781"/>
      <use xlink:href="#DejaVuSans-45" x="230.126953"/>
      <use xlink:href="#DejaVuSans-20" x="293.310547"/>
      <use xlink:href="#DejaVuSans-47" x="325.097656"/>
      <use xlink:href="#DejaVuSans-52" x="402.587891"/>
     </g>
    </g>
    <g id="line2d_40">
     <path d="M 59.87 128.047187 
L 69.87 128.047187 
L 79.87 128.047187 
" style="fill: none; stroke: #e377c2; stroke-width: 1.5; stroke-linecap: square"/>
     <g>
      <use xlink:href="#m1e12bce438" x="69.87" y="128.047187" style="fill: #e377c2; stroke: #e377c2"/>
     </g>
    </g>
    <g id="text_21">
     <!-- lea bo -->
     <g transform="translate(87.87 131.547187) scale(0.1 -0.1)">
      <defs>
       <path id="DejaVuSans-6c" d="M 603 4863 
L 1178 4863 
L 1178 0 
L 603 0 
L 603 4863 
z
" transform="scale(0.015625)"/>
      </defs>
      <use xlink:href="#DejaVuSans-6c"/>
      <use xlink:href="#DejaVuSans-65" x="27.783203"/>
      <use xlink:href="#DejaVuSans-61" x="89.306641"/>
      <use xlink:href="#DejaVuSans-20" x="150.585938"/>
      <use xlink:href="#DejaVuSans-62" x="182.373047"/>
      <use xlink:href="#DejaVuSans-6f" x="245.849609"/>
     </g>
    </g>
    <g id="line2d_41">
     <path d="M 59.87 142.725312 
L 69.87 142.725312 
L 79.87 142.725312 
" style="fill: none; stroke: #7f7f7f; stroke-width: 1.5; stroke-linecap: square"/>
     <g>
      <use xlink:href="#medb4af6de5" x="69.87" y="142.725312" style="fill: #7f7f7f; stroke: #7f7f7f"/>
     </g>
    </g>
    <g id="text_22">
     <!-- Andreas Ku -->
     <g transform="translate(87.87 146.225312) scale(0.1 -0.1)">
      <defs>
       <path id="DejaVuSans-41" d="M 2188 4044 
L 1331 1722 
L 3047 1722 
L 2188 4044 
z
M 1831 4666 
L 2547 4666 
L 4325 0 
L 3669 0 
L 3244 1197 
L 1141 1197 
L 716 0 
L 50 0 
L 1831 4666 
z
" transform="scale(0.015625)"/>
       <path id="DejaVuSans-75" d="M 544 1381 
L 544 3500 
L 1119 3500 
L 1119 1403 
Q 1119 906 1312 657 
Q 1506 409 1894 409 
Q 2359 409 2629 706 
Q 2900 1003 2900 1516 
L 2900 3500 
L 3475 3500 
L 3475 0 
L 2900 0 
L 2900 538 
Q 2691 219 2414 64 
Q 2138 -91 1772 -91 
Q 1169 -91 856 284 
Q 544 659 544 1381 
z
M 1991 3584 
L 1991 3584 
z
" transform="scale(0.015625)"/>
      </defs>
      <use xlink:href="#DejaVuSans-41"/>
      <use xlink:href="#DejaVuSans-6e" x="68.408203"/>
      <use xlink:href="#DejaVuSans-64" x="131.787109"/>
      <use xlink:href="#DejaVuSans-72" x="195.263672"/>
      <use xlink:href="#DejaVuSans-65" x="234.126953"/>
      <use xlink:href="#DejaVuSans-61" x="295.650391"/>
      <use xlink:href="#DejaVuSans-73" x="356.929688"/>
      <use xlink:href="#DejaVuSans-20" x="409.029297"/>
      <use xlink:href="#DejaVuSans-4b" x="440.816406"/>
      <use xlink:href="#DejaVuSans-75" x="501.392578"/>
     </g>
    </g>
    <g id="line2d_42">
     <path d="M 59.87 157.403437 
L 69.87 157.403437 
L 79.87 157.403437 
" style="fill: none; stroke: #bcbd22; stroke-width: 1.5; stroke-linecap: square"/>
     <g>
      <use xlink:href="#maad54e348a" x="69.87" y="157.403437" style="fill: #bcbd22; stroke: #bcbd22"/>
     </g>
    </g>
    <g id="text_23">
     <!-- Salty Gu -->
     <g transform="translate(87.87 160.903437) scale(0.1 -0.1)">
      <defs>
       <path id="DejaVuSans-79" d="M 2059 -325 
Q 1816 -950 1584 -1140 
Q 1353 -1331 966 -1331 
L 506 -1331 
L 506 -850 
L 844 -850 
Q 1081 -850 1212 -737 
Q 1344 -625 1503 -206 
L 1606 56 
L 191 3500 
L 800 3500 
L 1894 763 
L 2988 3500 
L 3597 3500 
L 2059 -325 
z
" transform="scale(0.015625)"/>
      </defs>
      <use xlink:href="#DejaVuSans-53"/>
      <use xlink:href="#DejaVuSans-61" x="63.476562"/>
      <use xlink:href="#DejaVuSans-6c" x="124.755859"/>
      <use xlink:href="#DejaVuSans-74" x="152.539062"/>
      <use xlink:href="#DejaVuSans-79" x="191.748047"/>
      <use xlink:href="#DejaVuSans-20" x="250.927734"/>
      <use xlink:href="#DejaVuSans-47" x="282.714844"/>
      <use xlink:href="#DejaVuSans-75" x="360.205078"/>
     </g>
    </g>
   </g>
  </g>
 </g>
 <defs>
  <clipPath id="p04e8a8b7e6">
   <rect x="50.87" y="26.88" width="802.33" height="377.24"/>
  </clipPath>
 </defs>
</svg>
