<?xml version="1.0" encoding="utf-8" standalone="no"?>
<!DOCTYPE svg PUBLIC "-//W3C//DTD SVG 1.1//EN"
  "http://www.w3.org/Graphics/SVG/1.1/DTD/svg11.dtd">
<svg xmlns:xlink="http://www.w3.org/1999/xlink" width="864pt" height="432pt" viewBox="0 0 864 432" xmlns="http://www.w3.org/2000/svg" version="1.1">
 <metadata>
  <rdf:RDF xmlns:dc="http://purl.org/dc/elements/1.1/" xmlns:cc="http://creativecommons.org/ns#" xmlns:rdf="http://www.w3.org/1999/02/22-rdf-syntax-ns#">
   <cc:Work>
    <dc:type rdf:resource="http://purl.org/dc/dcmitype/StillImage"/>
    <dc:date>2024-07-23T19:24:08.491081</dc:date>
    <dc:format>image/svg+xml</dc:format>
    <dc:creator>
     <cc:Agent>
      <dc:title>Matplotlib v3.9.1, https://matplotlib.org/</dc:title>
     </cc:Agent>
    </dc:creator>
   </cc:Work>
  </rdf:RDF>
 </metadata>
 <defs>
  <style type="text/css">*{stroke-linejoin: round; stroke-linecap: butt}</style>
 </defs>
 <g id="figure_1">
  <g id="patch_1">
   <path d="M 0 432 
L 864 432 
L 864 0 
L 0 0 
z
" style="fill: #ffffff"/>
  </g>
  <g id="axes_1">
   <g id="patch_2">
    <path d="M 50.87 404.12 
L 853.2 404.12 
L 853.2 26.88 
L 50.87 26.88 
z
" style="fill: #ffffff"/>
   </g>
   <g id="matplotlib.axis_1">
    <g id="xtick_1">
     <g id="line2d_1">
      <path d="M 106.041876 404.12 
L 106.041876 26.88 
" clip-path="url(#p44e9483b70)" style="fill: none; stroke-dasharray: 2.96,1.28; stroke-dashoffset: 0; stroke: #b0b0b0; stroke-width: 0.8"/>
     </g>
     <g id="line2d_2">
      <defs>
       <path id="md3f05b3ba0" d="M 0 0 
L 0 3.5 
" style="stroke: #000000; stroke-width: 0.8"/>
      </defs>
      <g>
       <use xlink:href="#md3f05b3ba0" x="106.041876" y="404.12" style="stroke: #000000; stroke-width: 0.8"/>
      </g>
     </g>
     <g id="text_1">
      <!-- 2024-06-15 -->
      <g transform="translate(76.984064 418.718437) scale(0.1 -0.1)">
       <defs>
        <path id="DejaVuSans-32" d="M 1228 531 
L 3431 531 
L 3431 0 
L 469 0 
L 469 531 
Q 828 903 1448 1529 
Q 2069 2156 2228 2338 
Q 2531 2678 2651 2914 
Q 2772 3150 2772 3378 
Q 2772 3750 2511 3984 
Q 2250 4219 1831 4219 
Q 1534 4219 1204 4116 
Q 875 4013 500 3803 
L 500 4441 
Q 881 4594 1212 4672 
Q 1544 4750 1819 4750 
Q 2544 4750 2975 4387 
Q 3406 4025 3406 3419 
Q 3406 3131 3298 2873 
Q 3191 2616 2906 2266 
Q 2828 2175 2409 1742 
Q 1991 1309 1228 531 
z
" transform="scale(0.015625)"/>
        <path id="DejaVuSans-30" d="M 2034 4250 
Q 1547 4250 1301 3770 
Q 1056 3291 1056 2328 
Q 1056 1369 1301 889 
Q 1547 409 2034 409 
Q 2525 409 2770 889 
Q 3016 1369 3016 2328 
Q 3016 3291 2770 3770 
Q 2525 4250 2034 4250 
z
M 2034 4750 
Q 2819 4750 3233 4129 
Q 3647 3509 3647 2328 
Q 3647 1150 3233 529 
Q 2819 -91 2034 -91 
Q 1250 -91 836 529 
Q 422 1150 422 2328 
Q 422 3509 836 4129 
Q 1250 4750 2034 4750 
z
" transform="scale(0.015625)"/>
        <path id="DejaVuSans-34" d="M 2419 4116 
L 825 1625 
L 2419 1625 
L 2419 4116 
z
M 2253 4666 
L 3047 4666 
L 3047 1625 
L 3713 1625 
L 3713 1100 
L 3047 1100 
L 3047 0 
L 2419 0 
L 2419 1100 
L 313 1100 
L 313 1709 
L 2253 4666 
z
" transform="scale(0.015625)"/>
        <path id="DejaVuSans-2d" d="M 313 2009 
L 1997 2009 
L 1997 1497 
L 313 1497 
L 313 2009 
z
" transform="scale(0.015625)"/>
        <path id="DejaVuSans-36" d="M 2113 2584 
Q 1688 2584 1439 2293 
Q 1191 2003 1191 1497 
Q 1191 994 1439 701 
Q 1688 409 2113 409 
Q 2538 409 2786 701 
Q 3034 994 3034 1497 
Q 3034 2003 2786 2293 
Q 2538 2584 2113 2584 
z
M 3366 4563 
L 3366 3988 
Q 3128 4100 2886 4159 
Q 2644 4219 2406 4219 
Q 1781 4219 1451 3797 
Q 1122 3375 1075 2522 
Q 1259 2794 1537 2939 
Q 1816 3084 2150 3084 
Q 2853 3084 3261 2657 
Q 3669 2231 3669 1497 
Q 3669 778 3244 343 
Q 2819 -91 2113 -91 
Q 1303 -91 875 529 
Q 447 1150 447 2328 
Q 447 3434 972 4092 
Q 1497 4750 2381 4750 
Q 2619 4750 2861 4703 
Q 3103 4656 3366 4563 
z
" transform="scale(0.015625)"/>
        <path id="DejaVuSans-31" d="M 794 531 
L 1825 531 
L 1825 4091 
L 703 3866 
L 703 4441 
L 1819 4666 
L 2450 4666 
L 2450 531 
L 3481 531 
L 3481 0 
L 794 0 
L 794 531 
z
" transform="scale(0.015625)"/>
        <path id="DejaVuSans-35" d="M 691 4666 
L 3169 4666 
L 3169 4134 
L 1269 4134 
L 1269 2991 
Q 1406 3038 1543 3061 
Q 1681 3084 1819 3084 
Q 2600 3084 3056 2656 
Q 3513 2228 3513 1497 
Q 3513 744 3044 326 
Q 2575 -91 1722 -91 
Q 1428 -91 1123 -41 
Q 819 9 494 109 
L 494 744 
Q 775 591 1075 516 
Q 1375 441 1709 441 
Q 2250 441 2565 725 
Q 2881 1009 2881 1497 
Q 2881 1984 2565 2268 
Q 2250 2553 1709 2553 
Q 1456 2553 1204 2497 
Q 953 2441 691 2322 
L 691 4666 
z
" transform="scale(0.015625)"/>
       </defs>
       <use xlink:href="#DejaVuSans-32"/>
       <use xlink:href="#DejaVuSans-30" x="63.623047"/>
       <use xlink:href="#DejaVuSans-32" x="127.246094"/>
       <use xlink:href="#DejaVuSans-34" x="190.869141"/>
       <use xlink:href="#DejaVuSans-2d" x="254.492188"/>
       <use xlink:href="#DejaVuSans-30" x="290.576172"/>
       <use xlink:href="#DejaVuSans-36" x="354.199219"/>
       <use xlink:href="#DejaVuSans-2d" x="417.822266"/>
       <use xlink:href="#DejaVuSans-31" x="453.90625"/>
       <use xlink:href="#DejaVuSans-35" x="517.529297"/>
      </g>
     </g>
    </g>
    <g id="xtick_2">
     <g id="line2d_3">
      <path d="M 236.958193 404.12 
L 236.958193 26.88 
" clip-path="url(#p44e9483b70)" style="fill: none; stroke-dasharray: 2.96,1.28; stroke-dashoffset: 0; stroke: #b0b0b0; stroke-width: 0.8"/>
     </g>
     <g id="line2d_4">
      <g>
       <use xlink:href="#md3f05b3ba0" x="236.958193" y="404.12" style="stroke: #000000; stroke-width: 0.8"/>
      </g>
     </g>
     <g id="text_2">
      <!-- 2024-06-22 -->
      <g transform="translate(207.900381 418.718437) scale(0.1 -0.1)">
       <use xlink:href="#DejaVuSans-32"/>
       <use xlink:href="#DejaVuSans-30" x="63.623047"/>
       <use xlink:href="#DejaVuSans-32" x="127.246094"/>
       <use xlink:href="#DejaVuSans-34" x="190.869141"/>
       <use xlink:href="#DejaVuSans-2d" x="254.492188"/>
       <use xlink:href="#DejaVuSans-30" x="290.576172"/>
       <use xlink:href="#DejaVuSans-36" x="354.199219"/>
       <use xlink:href="#DejaVuSans-2d" x="417.822266"/>
       <use xlink:href="#DejaVuSans-32" x="453.90625"/>
       <use xlink:href="#DejaVuSans-32" x="517.529297"/>
      </g>
     </g>
    </g>
    <g id="xtick_3">
     <g id="line2d_5">
      <path d="M 405.279172 404.12 
L 405.279172 26.88 
" clip-path="url(#p44e9483b70)" style="fill: none; stroke-dasharray: 2.96,1.28; stroke-dashoffset: 0; stroke: #b0b0b0; stroke-width: 0.8"/>
     </g>
     <g id="line2d_6">
      <g>
       <use xlink:href="#md3f05b3ba0" x="405.279172" y="404.12" style="stroke: #000000; stroke-width: 0.8"/>
      </g>
     </g>
     <g id="text_3">
      <!-- 2024-07-01 -->
      <g transform="translate(376.22136 418.718437) scale(0.1 -0.1)">
       <defs>
        <path id="DejaVuSans-37" d="M 525 4666 
L 3525 4666 
L 3525 4397 
L 1831 0 
L 1172 0 
L 2766 4134 
L 525 4134 
L 525 4666 
z
" transform="scale(0.015625)"/>
       </defs>
       <use xlink:href="#DejaVuSans-32"/>
       <use xlink:href="#DejaVuSans-30" x="63.623047"/>
       <use xlink:href="#DejaVuSans-32" x="127.246094"/>
       <use xlink:href="#DejaVuSans-34" x="190.869141"/>
       <use xlink:href="#DejaVuSans-2d" x="254.492188"/>
       <use xlink:href="#DejaVuSans-30" x="290.576172"/>
       <use xlink:href="#DejaVuSans-37" x="354.199219"/>
       <use xlink:href="#DejaVuSans-2d" x="417.822266"/>
       <use xlink:href="#DejaVuSans-30" x="453.90625"/>
       <use xlink:href="#DejaVuSans-31" x="517.529297"/>
      </g>
     </g>
    </g>
    <g id="xtick_4">
     <g id="line2d_7">
      <path d="M 536.19549 404.12 
L 536.19549 26.88 
" clip-path="url(#p44e9483b70)" style="fill: none; stroke-dasharray: 2.96,1.28; stroke-dashoffset: 0; stroke: #b0b0b0; stroke-width: 0.8"/>
     </g>
     <g id="line2d_8">
      <g>
       <use xlink:href="#md3f05b3ba0" x="536.19549" y="404.12" style="stroke: #000000; stroke-width: 0.8"/>
      </g>
     </g>
     <g id="text_4">
      <!-- 2024-07-08 -->
      <g transform="translate(507.137677 418.718437) scale(0.1 -0.1)">
       <defs>
        <path id="DejaVuSans-38" d="M 2034 2216 
Q 1584 2216 1326 1975 
Q 1069 1734 1069 1313 
Q 1069 891 1326 650 
Q 1584 409 2034 409 
Q 2484 409 2743 651 
Q 3003 894 3003 1313 
Q 3003 1734 2745 1975 
Q 2488 2216 2034 2216 
z
M 1403 2484 
Q 997 2584 770 2862 
Q 544 3141 544 3541 
Q 544 4100 942 4425 
Q 1341 4750 2034 4750 
Q 2731 4750 3128 4425 
Q 3525 4100 3525 3541 
Q 3525 3141 3298 2862 
Q 3072 2584 2669 2484 
Q 3125 2378 3379 2068 
Q 3634 1759 3634 1313 
Q 3634 634 3220 271 
Q 2806 -91 2034 -91 
Q 1263 -91 848 271 
Q 434 634 434 1313 
Q 434 1759 690 2068 
Q 947 2378 1403 2484 
z
M 1172 3481 
Q 1172 3119 1398 2916 
Q 1625 2713 2034 2713 
Q 2441 2713 2670 2916 
Q 2900 3119 2900 3481 
Q 2900 3844 2670 4047 
Q 2441 4250 2034 4250 
Q 1625 4250 1398 4047 
Q 1172 3844 1172 3481 
z
" transform="scale(0.015625)"/>
       </defs>
       <use xlink:href="#DejaVuSans-32"/>
       <use xlink:href="#DejaVuSans-30" x="63.623047"/>
       <use xlink:href="#DejaVuSans-32" x="127.246094"/>
       <use xlink:href="#DejaVuSans-34" x="190.869141"/>
       <use xlink:href="#DejaVuSans-2d" x="254.492188"/>
       <use xlink:href="#DejaVuSans-30" x="290.576172"/>
       <use xlink:href="#DejaVuSans-37" x="354.199219"/>
       <use xlink:href="#DejaVuSans-2d" x="417.822266"/>
       <use xlink:href="#DejaVuSans-30" x="453.90625"/>
       <use xlink:href="#DejaVuSans-38" x="517.529297"/>
      </g>
     </g>
    </g>
    <g id="xtick_5">
     <g id="line2d_9">
      <path d="M 667.111807 404.12 
L 667.111807 26.88 
" clip-path="url(#p44e9483b70)" style="fill: none; stroke-dasharray: 2.96,1.28; stroke-dashoffset: 0; stroke: #b0b0b0; stroke-width: 0.8"/>
     </g>
     <g id="line2d_10">
      <g>
       <use xlink:href="#md3f05b3ba0" x="667.111807" y="404.12" style="stroke: #000000; stroke-width: 0.8"/>
      </g>
     </g>
     <g id="text_5">
      <!-- 2024-07-15 -->
      <g transform="translate(638.053994 418.718437) scale(0.1 -0.1)">
       <use xlink:href="#DejaVuSans-32"/>
       <use xlink:href="#DejaVuSans-30" x="63.623047"/>
       <use xlink:href="#DejaVuSans-32" x="127.246094"/>
       <use xlink:href="#DejaVuSans-34" x="190.869141"/>
       <use xlink:href="#DejaVuSans-2d" x="254.492188"/>
       <use xlink:href="#DejaVuSans-30" x="290.576172"/>
       <use xlink:href="#DejaVuSans-37" x="354.199219"/>
       <use xlink:href="#DejaVuSans-2d" x="417.822266"/>
       <use xlink:href="#DejaVuSans-31" x="453.90625"/>
       <use xlink:href="#DejaVuSans-35" x="517.529297"/>
      </g>
     </g>
    </g>
    <g id="xtick_6">
     <g id="line2d_11">
      <path d="M 798.028124 404.12 
L 798.028124 26.88 
" clip-path="url(#p44e9483b70)" style="fill: none; stroke-dasharray: 2.96,1.28; stroke-dashoffset: 0; stroke: #b0b0b0; stroke-width: 0.8"/>
     </g>
     <g id="line2d_12">
      <g>
       <use xlink:href="#md3f05b3ba0" x="798.028124" y="404.12" style="stroke: #000000; stroke-width: 0.8"/>
      </g>
     </g>
     <g id="text_6">
      <!-- 2024-07-22 -->
      <g transform="translate(768.970311 418.718437) scale(0.1 -0.1)">
       <use xlink:href="#DejaVuSans-32"/>
       <use xlink:href="#DejaVuSans-30" x="63.623047"/>
       <use xlink:href="#DejaVuSans-32" x="127.246094"/>
       <use xlink:href="#DejaVuSans-34" x="190.869141"/>
       <use xlink:href="#DejaVuSans-2d" x="254.492188"/>
       <use xlink:href="#DejaVuSans-30" x="290.576172"/>
       <use xlink:href="#DejaVuSans-37" x="354.199219"/>
       <use xlink:href="#DejaVuSans-2d" x="417.822266"/>
       <use xlink:href="#DejaVuSans-32" x="453.90625"/>
       <use xlink:href="#DejaVuSans-32" x="517.529297"/>
      </g>
     </g>
    </g>
   </g>
   <g id="matplotlib.axis_2">
    <g id="ytick_1">
     <g id="line2d_13">
      <path d="M 50.87 389.574787 
L 853.2 389.574787 
" clip-path="url(#p44e9483b70)" style="fill: none; stroke-dasharray: 2.96,1.28; stroke-dashoffset: 0; stroke: #b0b0b0; stroke-width: 0.8"/>
     </g>
     <g id="line2d_14">
      <defs>
       <path id="m6518ce8f1a" d="M 0 0 
L -3.5 0 
" style="stroke: #000000; stroke-width: 0.8"/>
      </defs>
      <g>
       <use xlink:href="#m6518ce8f1a" x="50.87" y="389.574787" style="stroke: #000000; stroke-width: 0.8"/>
      </g>
     </g>
     <g id="text_7">
      <!-- 0 -->
      <g transform="translate(37.5075 393.374006) scale(0.1 -0.1)">
       <use xlink:href="#DejaVuSans-30"/>
      </g>
     </g>
    </g>
    <g id="ytick_2">
     <g id="line2d_15">
      <path d="M 50.87 326.520798 
L 853.2 326.520798 
" clip-path="url(#p44e9483b70)" style="fill: none; stroke-dasharray: 2.96,1.28; stroke-dashoffset: 0; stroke: #b0b0b0; stroke-width: 0.8"/>
     </g>
     <g id="line2d_16">
      <g>
       <use xlink:href="#m6518ce8f1a" x="50.87" y="326.520798" style="stroke: #000000; stroke-width: 0.8"/>
      </g>
     </g>
     <g id="text_8">
      <!-- 50 -->
      <g transform="translate(31.145 330.320017) scale(0.1 -0.1)">
       <use xlink:href="#DejaVuSans-35"/>
       <use xlink:href="#DejaVuSans-30" x="63.623047"/>
      </g>
     </g>
    </g>
    <g id="ytick_3">
     <g id="line2d_17">
      <path d="M 50.87 263.466809 
L 853.2 263.466809 
" clip-path="url(#p44e9483b70)" style="fill: none; stroke-dasharray: 2.96,1.28; stroke-dashoffset: 0; stroke: #b0b0b0; stroke-width: 0.8"/>
     </g>
     <g id="line2d_18">
      <g>
       <use xlink:href="#m6518ce8f1a" x="50.87" y="263.466809" style="stroke: #000000; stroke-width: 0.8"/>
      </g>
     </g>
     <g id="text_9">
      <!-- 100 -->
      <g transform="translate(24.7825 267.266027) scale(0.1 -0.1)">
       <use xlink:href="#DejaVuSans-31"/>
       <use xlink:href="#DejaVuSans-30" x="63.623047"/>
       <use xlink:href="#DejaVuSans-30" x="127.246094"/>
      </g>
     </g>
    </g>
    <g id="ytick_4">
     <g id="line2d_19">
      <path d="M 50.87 200.412819 
L 853.2 200.412819 
" clip-path="url(#p44e9483b70)" style="fill: none; stroke-dasharray: 2.96,1.28; stroke-dashoffset: 0; stroke: #b0b0b0; stroke-width: 0.8"/>
     </g>
     <g id="line2d_20">
      <g>
       <use xlink:href="#m6518ce8f1a" x="50.87" y="200.412819" style="stroke: #000000; stroke-width: 0.8"/>
      </g>
     </g>
     <g id="text_10">
      <!-- 150 -->
      <g transform="translate(24.7825 204.212038) scale(0.1 -0.1)">
       <use xlink:href="#DejaVuSans-31"/>
       <use xlink:href="#DejaVuSans-35" x="63.623047"/>
       <use xlink:href="#DejaVuSans-30" x="127.246094"/>
      </g>
     </g>
    </g>
    <g id="ytick_5">
     <g id="line2d_21">
      <path d="M 50.87 137.35883 
L 853.2 137.35883 
" clip-path="url(#p44e9483b70)" style="fill: none; stroke-dasharray: 2.96,1.28; stroke-dashoffset: 0; stroke: #b0b0b0; stroke-width: 0.8"/>
     </g>
     <g id="line2d_22">
      <g>
       <use xlink:href="#m6518ce8f1a" x="50.87" y="137.35883" style="stroke: #000000; stroke-width: 0.8"/>
      </g>
     </g>
     <g id="text_11">
      <!-- 200 -->
      <g transform="translate(24.7825 141.158049) scale(0.1 -0.1)">
       <use xlink:href="#DejaVuSans-32"/>
       <use xlink:href="#DejaVuSans-30" x="63.623047"/>
       <use xlink:href="#DejaVuSans-30" x="127.246094"/>
      </g>
     </g>
    </g>
    <g id="ytick_6">
     <g id="line2d_23">
      <path d="M 50.87 74.304841 
L 853.2 74.304841 
" clip-path="url(#p44e9483b70)" style="fill: none; stroke-dasharray: 2.96,1.28; stroke-dashoffset: 0; stroke: #b0b0b0; stroke-width: 0.8"/>
     </g>
     <g id="line2d_24">
      <g>
       <use xlink:href="#m6518ce8f1a" x="50.87" y="74.304841" style="stroke: #000000; stroke-width: 0.8"/>
      </g>
     </g>
     <g id="text_12">
      <!-- 250 -->
      <g transform="translate(24.7825 78.10406) scale(0.1 -0.1)">
       <use xlink:href="#DejaVuSans-32"/>
       <use xlink:href="#DejaVuSans-35" x="63.623047"/>
       <use xlink:href="#DejaVuSans-30" x="127.246094"/>
      </g>
     </g>
    </g>
    <g id="text_13">
     <!-- Score -->
     <g transform="translate(18.702813 229.502344) rotate(-90) scale(0.1 -0.1)">
      <defs>
       <path id="DejaVuSans-53" d="M 3425 4513 
L 3425 3897 
Q 3066 4069 2747 4153 
Q 2428 4238 2131 4238 
Q 1616 4238 1336 4038 
Q 1056 3838 1056 3469 
Q 1056 3159 1242 3001 
Q 1428 2844 1947 2747 
L 2328 2669 
Q 3034 2534 3370 2195 
Q 3706 1856 3706 1288 
Q 3706 609 3251 259 
Q 2797 -91 1919 -91 
Q 1588 -91 1214 -16 
Q 841 59 441 206 
L 441 856 
Q 825 641 1194 531 
Q 1563 422 1919 422 
Q 2459 422 2753 634 
Q 3047 847 3047 1241 
Q 3047 1584 2836 1778 
Q 2625 1972 2144 2069 
L 1759 2144 
Q 1053 2284 737 2584 
Q 422 2884 422 3419 
Q 422 4038 858 4394 
Q 1294 4750 2059 4750 
Q 2388 4750 2728 4690 
Q 3069 4631 3425 4513 
z
" transform="scale(0.015625)"/>
       <path id="DejaVuSans-63" d="M 3122 3366 
L 3122 2828 
Q 2878 2963 2633 3030 
Q 2388 3097 2138 3097 
Q 1578 3097 1268 2742 
Q 959 2388 959 1747 
Q 959 1106 1268 751 
Q 1578 397 2138 397 
Q 2388 397 2633 464 
Q 2878 531 3122 666 
L 3122 134 
Q 2881 22 2623 -34 
Q 2366 -91 2075 -91 
Q 1284 -91 818 406 
Q 353 903 353 1747 
Q 353 2603 823 3093 
Q 1294 3584 2113 3584 
Q 2378 3584 2631 3529 
Q 2884 3475 3122 3366 
z
" transform="scale(0.015625)"/>
       <path id="DejaVuSans-6f" d="M 1959 3097 
Q 1497 3097 1228 2736 
Q 959 2375 959 1747 
Q 959 1119 1226 758 
Q 1494 397 1959 397 
Q 2419 397 2687 759 
Q 2956 1122 2956 1747 
Q 2956 2369 2687 2733 
Q 2419 3097 1959 3097 
z
M 1959 3584 
Q 2709 3584 3137 3096 
Q 3566 2609 3566 1747 
Q 3566 888 3137 398 
Q 2709 -91 1959 -91 
Q 1206 -91 779 398 
Q 353 888 353 1747 
Q 353 2609 779 3096 
Q 1206 3584 1959 3584 
z
" transform="scale(0.015625)"/>
       <path id="DejaVuSans-72" d="M 2631 2963 
Q 2534 3019 2420 3045 
Q 2306 3072 2169 3072 
Q 1681 3072 1420 2755 
Q 1159 2438 1159 1844 
L 1159 0 
L 581 0 
L 581 3500 
L 1159 3500 
L 1159 2956 
Q 1341 3275 1631 3429 
Q 1922 3584 2338 3584 
Q 2397 3584 2469 3576 
Q 2541 3569 2628 3553 
L 2631 2963 
z
" transform="scale(0.015625)"/>
       <path id="DejaVuSans-65" d="M 3597 1894 
L 3597 1613 
L 953 1613 
Q 991 1019 1311 708 
Q 1631 397 2203 397 
Q 2534 397 2845 478 
Q 3156 559 3463 722 
L 3463 178 
Q 3153 47 2828 -22 
Q 2503 -91 2169 -91 
Q 1331 -91 842 396 
Q 353 884 353 1716 
Q 353 2575 817 3079 
Q 1281 3584 2069 3584 
Q 2775 3584 3186 3129 
Q 3597 2675 3597 1894 
z
M 3022 2063 
Q 3016 2534 2758 2815 
Q 2500 3097 2075 3097 
Q 1594 3097 1305 2825 
Q 1016 2553 972 2059 
L 3022 2063 
z
" transform="scale(0.015625)"/>
      </defs>
      <use xlink:href="#DejaVuSans-53"/>
      <use xlink:href="#DejaVuSans-63" x="63.476562"/>
      <use xlink:href="#DejaVuSans-6f" x="118.457031"/>
      <use xlink:href="#DejaVuSans-72" x="179.638672"/>
      <use xlink:href="#DejaVuSans-65" x="218.501953"/>
     </g>
    </g>
   </g>
   <g id="line2d_25">
    <path d="M 87.339545 383.296583 
L 106.041876 358.074987 
L 124.744207 346.725269 
L 143.446538 337.897711 
L 162.148869 325.286913 
L 180.8512 313.937195 
L 199.553531 313.937195 
L 218.255862 295.020998 
L 236.958193 260.971844 
L 255.660524 237.011328 
L 274.362855 209.267573 
L 293.065186 191.612456 
L 311.767517 161.346541 
L 367.87451 161.346541 
L 386.576841 161.346541 
L 405.279172 161.346541 
L 423.981503 161.346541 
L 442.683834 161.346541 
L 480.088497 161.346541 
L 498.790828 161.346541 
L 517.493159 161.346541 
L 536.19549 161.346541 
L 554.897821 161.346541 
L 573.600152 161.346541 
L 592.302483 161.346541 
L 611.004814 161.346541 
L 629.707145 161.346541 
L 648.409476 161.346541 
L 667.111807 123.514147 
L 685.814138 123.514147 
L 704.516469 123.514147 
L 723.2188 123.514147 
L 741.921131 123.514147 
L 760.623462 123.514147 
L 779.325793 123.514147 
L 798.028124 123.514147 
L 816.730455 123.514147 
" clip-path="url(#p44e9483b70)" style="fill: none; stroke: #1f77b4; stroke-width: 1.5; stroke-linecap: square"/>
    <defs>
     <path id="m93f45d74fe" d="M 0 3.5 
C 0.928211 3.5 1.81853 3.131218 2.474874 2.474874 
C 3.131218 1.81853 3.5 0.928211 3.5 0 
C 3.5 -0.928211 3.131218 -1.81853 2.474874 -2.474874 
C 1.81853 -3.131218 0.928211 -3.5 0 -3.5 
C -0.928211 -3.5 -1.81853 -3.131218 -2.474874 -2.474874 
C -3.131218 -1.81853 -3.5 -0.928211 -3.5 0 
C -3.5 0.928211 -3.131218 1.81853 -2.474874 2.474874 
C -1.81853 3.131218 -0.928211 3.5 0 3.5 
z
" style="stroke: #1f77b4"/>
    </defs>
    <g clip-path="url(#p44e9483b70)">
     <use xlink:href="#m93f45d74fe" x="87.339545" y="383.296583" style="fill: #1f77b4; stroke: #1f77b4"/>
     <use xlink:href="#m93f45d74fe" x="106.041876" y="358.074987" style="fill: #1f77b4; stroke: #1f77b4"/>
     <use xlink:href="#m93f45d74fe" x="124.744207" y="346.725269" style="fill: #1f77b4; stroke: #1f77b4"/>
     <use xlink:href="#m93f45d74fe" x="143.446538" y="337.897711" style="fill: #1f77b4; stroke: #1f77b4"/>
     <use xlink:href="#m93f45d74fe" x="162.148869" y="325.286913" style="fill: #1f77b4; stroke: #1f77b4"/>
     <use xlink:href="#m93f45d74fe" x="180.8512" y="313.937195" style="fill: #1f77b4; stroke: #1f77b4"/>
     <use xlink:href="#m93f45d74fe" x="199.553531" y="313.937195" style="fill: #1f77b4; stroke: #1f77b4"/>
     <use xlink:href="#m93f45d74fe" x="218.255862" y="295.020998" style="fill: #1f77b4; stroke: #1f77b4"/>
     <use xlink:href="#m93f45d74fe" x="236.958193" y="260.971844" style="fill: #1f77b4; stroke: #1f77b4"/>
     <use xlink:href="#m93f45d74fe" x="255.660524" y="237.011328" style="fill: #1f77b4; stroke: #1f77b4"/>
     <use xlink:href="#m93f45d74fe" x="274.362855" y="209.267573" style="fill: #1f77b4; stroke: #1f77b4"/>
     <use xlink:href="#m93f45d74fe" x="293.065186" y="191.612456" style="fill: #1f77b4; stroke: #1f77b4"/>
     <use xlink:href="#m93f45d74fe" x="311.767517" y="161.346541" style="fill: #1f77b4; stroke: #1f77b4"/>
     <use xlink:href="#m93f45d74fe" x="367.87451" y="161.346541" style="fill: #1f77b4; stroke: #1f77b4"/>
     <use xlink:href="#m93f45d74fe" x="386.576841" y="161.346541" style="fill: #1f77b4; stroke: #1f77b4"/>
     <use xlink:href="#m93f45d74fe" x="405.279172" y="161.346541" style="fill: #1f77b4; stroke: #1f77b4"/>
     <use xlink:href="#m93f45d74fe" x="423.981503" y="161.346541" style="fill: #1f77b4; stroke: #1f77b4"/>
     <use xlink:href="#m93f45d74fe" x="442.683834" y="161.346541" style="fill: #1f77b4; stroke: #1f77b4"/>
     <use xlink:href="#m93f45d74fe" x="480.088497" y="161.346541" style="fill: #1f77b4; stroke: #1f77b4"/>
     <use xlink:href="#m93f45d74fe" x="498.790828" y="161.346541" style="fill: #1f77b4; stroke: #1f77b4"/>
     <use xlink:href="#m93f45d74fe" x="517.493159" y="161.346541" style="fill: #1f77b4; stroke: #1f77b4"/>
     <use xlink:href="#m93f45d74fe" x="536.19549" y="161.346541" style="fill: #1f77b4; stroke: #1f77b4"/>
     <use xlink:href="#m93f45d74fe" x="554.897821" y="161.346541" style="fill: #1f77b4; stroke: #1f77b4"/>
     <use xlink:href="#m93f45d74fe" x="573.600152" y="161.346541" style="fill: #1f77b4; stroke: #1f77b4"/>
     <use xlink:href="#m93f45d74fe" x="592.302483" y="161.346541" style="fill: #1f77b4; stroke: #1f77b4"/>
     <use xlink:href="#m93f45d74fe" x="611.004814" y="161.346541" style="fill: #1f77b4; stroke: #1f77b4"/>
     <use xlink:href="#m93f45d74fe" x="629.707145" y="161.346541" style="fill: #1f77b4; stroke: #1f77b4"/>
     <use xlink:href="#m93f45d74fe" x="648.409476" y="161.346541" style="fill: #1f77b4; stroke: #1f77b4"/>
     <use xlink:href="#m93f45d74fe" x="667.111807" y="123.514147" style="fill: #1f77b4; stroke: #1f77b4"/>
     <use xlink:href="#m93f45d74fe" x="685.814138" y="123.514147" style="fill: #1f77b4; stroke: #1f77b4"/>
     <use xlink:href="#m93f45d74fe" x="704.516469" y="123.514147" style="fill: #1f77b4; stroke: #1f77b4"/>
     <use xlink:href="#m93f45d74fe" x="723.2188" y="123.514147" style="fill: #1f77b4; stroke: #1f77b4"/>
     <use xlink:href="#m93f45d74fe" x="741.921131" y="123.514147" style="fill: #1f77b4; stroke: #1f77b4"/>
     <use xlink:href="#m93f45d74fe" x="760.623462" y="123.514147" style="fill: #1f77b4; stroke: #1f77b4"/>
     <use xlink:href="#m93f45d74fe" x="779.325793" y="123.514147" style="fill: #1f77b4; stroke: #1f77b4"/>
     <use xlink:href="#m93f45d74fe" x="798.028124" y="123.514147" style="fill: #1f77b4; stroke: #1f77b4"/>
     <use xlink:href="#m93f45d74fe" x="816.730455" y="123.514147" style="fill: #1f77b4; stroke: #1f77b4"/>
    </g>
   </g>
   <g id="line2d_26">
    <path d="M 87.339545 386.972727 
L 106.041876 349.140334 
L 124.744207 321.396578 
L 143.446538 306.263621 
L 162.148869 287.347424 
L 180.8512 269.692307 
L 199.553531 245.731791 
L 218.255862 240.687472 
L 236.958193 206.638318 
L 255.660524 197.81076 
L 274.362855 176.372403 
L 293.065186 162.500526 
L 311.767517 125.929212 
L 367.87451 125.929212 
L 386.576841 125.929212 
L 405.279172 125.929212 
L 423.981503 125.929212 
L 442.683834 125.929212 
L 480.088497 125.929212 
L 498.790828 125.929212 
L 517.493159 125.929212 
L 536.19549 125.929212 
L 554.897821 125.929212 
L 573.600152 125.929212 
L 592.302483 125.929212 
L 611.004814 125.929212 
L 629.707145 125.929212 
L 648.409476 125.929212 
L 667.111807 119.623813 
L 685.814138 119.623813 
L 704.516469 119.623813 
L 723.2188 119.623813 
L 741.921131 119.623813 
L 760.623462 119.623813 
L 779.325793 119.623813 
L 798.028124 119.623813 
L 816.730455 119.623813 
" clip-path="url(#p44e9483b70)" style="fill: none; stroke: #ff7f0e; stroke-width: 1.5; stroke-linecap: square"/>
    <defs>
     <path id="m1acb264500" d="M 0 3.5 
C 0.928211 3.5 1.81853 3.131218 2.474874 2.474874 
C 3.131218 1.81853 3.5 0.928211 3.5 0 
C 3.5 -0.928211 3.131218 -1.81853 2.474874 -2.474874 
C 1.81853 -3.131218 0.928211 -3.5 0 -3.5 
C -0.928211 -3.5 -1.81853 -3.131218 -2.474874 -2.474874 
C -3.131218 -1.81853 -3.5 -0.928211 -3.5 0 
C -3.5 0.928211 -3.131218 1.81853 -2.474874 2.474874 
C -1.81853 3.131218 -0.928211 3.5 0 3.5 
z
" style="stroke: #ff7f0e"/>
    </defs>
    <g clip-path="url(#p44e9483b70)">
     <use xlink:href="#m1acb264500" x="87.339545" y="386.972727" style="fill: #ff7f0e; stroke: #ff7f0e"/>
     <use xlink:href="#m1acb264500" x="106.041876" y="349.140334" style="fill: #ff7f0e; stroke: #ff7f0e"/>
     <use xlink:href="#m1acb264500" x="124.744207" y="321.396578" style="fill: #ff7f0e; stroke: #ff7f0e"/>
     <use xlink:href="#m1acb264500" x="143.446538" y="306.263621" style="fill: #ff7f0e; stroke: #ff7f0e"/>
     <use xlink:href="#m1acb264500" x="162.148869" y="287.347424" style="fill: #ff7f0e; stroke: #ff7f0e"/>
     <use xlink:href="#m1acb264500" x="180.8512" y="269.692307" style="fill: #ff7f0e; stroke: #ff7f0e"/>
     <use xlink:href="#m1acb264500" x="199.553531" y="245.731791" style="fill: #ff7f0e; stroke: #ff7f0e"/>
     <use xlink:href="#m1acb264500" x="218.255862" y="240.687472" style="fill: #ff7f0e; stroke: #ff7f0e"/>
     <use xlink:href="#m1acb264500" x="236.958193" y="206.638318" style="fill: #ff7f0e; stroke: #ff7f0e"/>
     <use xlink:href="#m1acb264500" x="255.660524" y="197.81076" style="fill: #ff7f0e; stroke: #ff7f0e"/>
     <use xlink:href="#m1acb264500" x="274.362855" y="176.372403" style="fill: #ff7f0e; stroke: #ff7f0e"/>
     <use xlink:href="#m1acb264500" x="293.065186" y="162.500526" style="fill: #ff7f0e; stroke: #ff7f0e"/>
     <use xlink:href="#m1acb264500" x="311.767517" y="125.929212" style="fill: #ff7f0e; stroke: #ff7f0e"/>
     <use xlink:href="#m1acb264500" x="367.87451" y="125.929212" style="fill: #ff7f0e; stroke: #ff7f0e"/>
     <use xlink:href="#m1acb264500" x="386.576841" y="125.929212" style="fill: #ff7f0e; stroke: #ff7f0e"/>
     <use xlink:href="#m1acb264500" x="405.279172" y="125.929212" style="fill: #ff7f0e; stroke: #ff7f0e"/>
     <use xlink:href="#m1acb264500" x="423.981503" y="125.929212" style="fill: #ff7f0e; stroke: #ff7f0e"/>
     <use xlink:href="#m1acb264500" x="442.683834" y="125.929212" style="fill: #ff7f0e; stroke: #ff7f0e"/>
     <use xlink:href="#m1acb264500" x="480.088497" y="125.929212" style="fill: #ff7f0e; stroke: #ff7f0e"/>
     <use xlink:href="#m1acb264500" x="498.790828" y="125.929212" style="fill: #ff7f0e; stroke: #ff7f0e"/>
     <use xlink:href="#m1acb264500" x="517.493159" y="125.929212" style="fill: #ff7f0e; stroke: #ff7f0e"/>
     <use xlink:href="#m1acb264500" x="536.19549" y="125.929212" style="fill: #ff7f0e; stroke: #ff7f0e"/>
     <use xlink:href="#m1acb264500" x="554.897821" y="125.929212" style="fill: #ff7f0e; stroke: #ff7f0e"/>
     <use xlink:href="#m1acb264500" x="573.600152" y="125.929212" style="fill: #ff7f0e; stroke: #ff7f0e"/>
     <use xlink:href="#m1acb264500" x="592.302483" y="125.929212" style="fill: #ff7f0e; stroke: #ff7f0e"/>
     <use xlink:href="#m1acb264500" x="611.004814" y="125.929212" style="fill: #ff7f0e; stroke: #ff7f0e"/>
     <use xlink:href="#m1acb264500" x="629.707145" y="125.929212" style="fill: #ff7f0e; stroke: #ff7f0e"/>
     <use xlink:href="#m1acb264500" x="648.409476" y="125.929212" style="fill: #ff7f0e; stroke: #ff7f0e"/>
     <use xlink:href="#m1acb264500" x="667.111807" y="119.623813" style="fill: #ff7f0e; stroke: #ff7f0e"/>
     <use xlink:href="#m1acb264500" x="685.814138" y="119.623813" style="fill: #ff7f0e; stroke: #ff7f0e"/>
     <use xlink:href="#m1acb264500" x="704.516469" y="119.623813" style="fill: #ff7f0e; stroke: #ff7f0e"/>
     <use xlink:href="#m1acb264500" x="723.2188" y="119.623813" style="fill: #ff7f0e; stroke: #ff7f0e"/>
     <use xlink:href="#m1acb264500" x="741.921131" y="119.623813" style="fill: #ff7f0e; stroke: #ff7f0e"/>
     <use xlink:href="#m1acb264500" x="760.623462" y="119.623813" style="fill: #ff7f0e; stroke: #ff7f0e"/>
     <use xlink:href="#m1acb264500" x="779.325793" y="119.623813" style="fill: #ff7f0e; stroke: #ff7f0e"/>
     <use xlink:href="#m1acb264500" x="798.028124" y="119.623813" style="fill: #ff7f0e; stroke: #ff7f0e"/>
     <use xlink:href="#m1acb264500" x="816.730455" y="119.623813" style="fill: #ff7f0e; stroke: #ff7f0e"/>
    </g>
   </g>
   <g id="line2d_27">
    <path d="M 87.339545 377.063144 
L 106.041876 351.841548 
L 124.744207 332.925352 
L 143.446538 320.314554 
L 162.148869 288.787559 
L 180.8512 271.132442 
L 199.553531 259.782724 
L 218.255862 225.73357 
L 236.958193 194.206575 
L 255.660524 166.46282 
L 274.362855 145.024464 
L 293.065186 137.457985 
L 311.767517 80.709395 
L 367.87451 80.709395 
L 386.576841 80.709395 
L 405.279172 80.709395 
L 423.981503 80.709395 
L 442.683834 80.709395 
L 480.088497 80.709395 
L 498.790828 80.709395 
L 517.493159 80.709395 
L 536.19549 80.709395 
L 554.897821 80.709395 
L 573.600152 80.709395 
L 592.302483 80.709395 
L 611.004814 80.709395 
L 629.707145 80.709395 
L 648.409476 80.709395 
L 667.111807 80.709395 
L 685.814138 80.709395 
L 704.516469 80.709395 
L 723.2188 80.709395 
L 741.921131 80.709395 
L 760.623462 80.709395 
L 779.325793 80.709395 
L 798.028124 80.709395 
L 816.730455 80.709395 
" clip-path="url(#p44e9483b70)" style="fill: none; stroke: #2ca02c; stroke-width: 1.5; stroke-linecap: square"/>
    <defs>
     <path id="m78ac07a52e" d="M 0 3.5 
C 0.928211 3.5 1.81853 3.131218 2.474874 2.474874 
C 3.131218 1.81853 3.5 0.928211 3.5 0 
C 3.5 -0.928211 3.131218 -1.81853 2.474874 -2.474874 
C 1.81853 -3.131218 0.928211 -3.5 0 -3.5 
C -0.928211 -3.5 -1.81853 -3.131218 -2.474874 -2.474874 
C -3.131218 -1.81853 -3.5 -0.928211 -3.5 0 
C -3.5 0.928211 -3.131218 1.81853 -2.474874 2.474874 
C -1.81853 3.131218 -0.928211 3.5 0 3.5 
z
" style="stroke: #2ca02c"/>
    </defs>
    <g clip-path="url(#p44e9483b70)">
     <use xlink:href="#m78ac07a52e" x="87.339545" y="377.063144" style="fill: #2ca02c; stroke: #2ca02c"/>
     <use xlink:href="#m78ac07a52e" x="106.041876" y="351.841548" style="fill: #2ca02c; stroke: #2ca02c"/>
     <use xlink:href="#m78ac07a52e" x="124.744207" y="332.925352" style="fill: #2ca02c; stroke: #2ca02c"/>
     <use xlink:href="#m78ac07a52e" x="143.446538" y="320.314554" style="fill: #2ca02c; stroke: #2ca02c"/>
     <use xlink:href="#m78ac07a52e" x="162.148869" y="288.787559" style="fill: #2ca02c; stroke: #2ca02c"/>
     <use xlink:href="#m78ac07a52e" x="180.8512" y="271.132442" style="fill: #2ca02c; stroke: #2ca02c"/>
     <use xlink:href="#m78ac07a52e" x="199.553531" y="259.782724" style="fill: #2ca02c; stroke: #2ca02c"/>
     <use xlink:href="#m78ac07a52e" x="218.255862" y="225.73357" style="fill: #2ca02c; stroke: #2ca02c"/>
     <use xlink:href="#m78ac07a52e" x="236.958193" y="194.206575" style="fill: #2ca02c; stroke: #2ca02c"/>
     <use xlink:href="#m78ac07a52e" x="255.660524" y="166.46282" style="fill: #2ca02c; stroke: #2ca02c"/>
     <use xlink:href="#m78ac07a52e" x="274.362855" y="145.024464" style="fill: #2ca02c; stroke: #2ca02c"/>
     <use xlink:href="#m78ac07a52e" x="293.065186" y="137.457985" style="fill: #2ca02c; stroke: #2ca02c"/>
     <use xlink:href="#m78ac07a52e" x="311.767517" y="80.709395" style="fill: #2ca02c; stroke: #2ca02c"/>
     <use xlink:href="#m78ac07a52e" x="367.87451" y="80.709395" style="fill: #2ca02c; stroke: #2ca02c"/>
     <use xlink:href="#m78ac07a52e" x="386.576841" y="80.709395" style="fill: #2ca02c; stroke: #2ca02c"/>
     <use xlink:href="#m78ac07a52e" x="405.279172" y="80.709395" style="fill: #2ca02c; stroke: #2ca02c"/>
     <use xlink:href="#m78ac07a52e" x="423.981503" y="80.709395" style="fill: #2ca02c; stroke: #2ca02c"/>
     <use xlink:href="#m78ac07a52e" x="442.683834" y="80.709395" style="fill: #2ca02c; stroke: #2ca02c"/>
     <use xlink:href="#m78ac07a52e" x="480.088497" y="80.709395" style="fill: #2ca02c; stroke: #2ca02c"/>
     <use xlink:href="#m78ac07a52e" x="498.790828" y="80.709395" style="fill: #2ca02c; stroke: #2ca02c"/>
     <use xlink:href="#m78ac07a52e" x="517.493159" y="80.709395" style="fill: #2ca02c; stroke: #2ca02c"/>
     <use xlink:href="#m78ac07a52e" x="536.19549" y="80.709395" style="fill: #2ca02c; stroke: #2ca02c"/>
     <use xlink:href="#m78ac07a52e" x="554.897821" y="80.709395" style="fill: #2ca02c; stroke: #2ca02c"/>
     <use xlink:href="#m78ac07a52e" x="573.600152" y="80.709395" style="fill: #2ca02c; stroke: #2ca02c"/>
     <use xlink:href="#m78ac07a52e" x="592.302483" y="80.709395" style="fill: #2ca02c; stroke: #2ca02c"/>
     <use xlink:href="#m78ac07a52e" x="611.004814" y="80.709395" style="fill: #2ca02c; stroke: #2ca02c"/>
     <use xlink:href="#m78ac07a52e" x="629.707145" y="80.709395" style="fill: #2ca02c; stroke: #2ca02c"/>
     <use xlink:href="#m78ac07a52e" x="648.409476" y="80.709395" style="fill: #2ca02c; stroke: #2ca02c"/>
     <use xlink:href="#m78ac07a52e" x="667.111807" y="80.709395" style="fill: #2ca02c; stroke: #2ca02c"/>
     <use xlink:href="#m78ac07a52e" x="685.814138" y="80.709395" style="fill: #2ca02c; stroke: #2ca02c"/>
     <use xlink:href="#m78ac07a52e" x="704.516469" y="80.709395" style="fill: #2ca02c; stroke: #2ca02c"/>
     <use xlink:href="#m78ac07a52e" x="723.2188" y="80.709395" style="fill: #2ca02c; stroke: #2ca02c"/>
     <use xlink:href="#m78ac07a52e" x="741.921131" y="80.709395" style="fill: #2ca02c; stroke: #2ca02c"/>
     <use xlink:href="#m78ac07a52e" x="760.623462" y="80.709395" style="fill: #2ca02c; stroke: #2ca02c"/>
     <use xlink:href="#m78ac07a52e" x="779.325793" y="80.709395" style="fill: #2ca02c; stroke: #2ca02c"/>
     <use xlink:href="#m78ac07a52e" x="798.028124" y="80.709395" style="fill: #2ca02c; stroke: #2ca02c"/>
     <use xlink:href="#m78ac07a52e" x="816.730455" y="80.709395" style="fill: #2ca02c; stroke: #2ca02c"/>
    </g>
   </g>
   <g id="line2d_28">
    <path d="M 87.339545 376.952336 
L 106.041876 355.51398 
L 124.744207 317.681586 
L 143.446538 308.854028 
L 162.148869 289.937831 
L 180.8512 271.021634 
L 199.553531 243.277879 
L 218.255862 231.928161 
L 236.958193 200.401166 
L 255.660524 189.051448 
L 274.362855 155.002294 
L 293.065186 134.825017 
L 311.767517 75.554267 
L 367.87451 75.554267 
L 386.576841 75.554267 
L 405.279172 75.554267 
L 423.981503 75.554267 
L 442.683834 75.554267 
L 480.088497 75.554267 
L 498.790828 75.554267 
L 517.493159 75.554267 
L 536.19549 75.554267 
L 554.897821 75.554267 
L 573.600152 56.638071 
L 592.302483 56.638071 
L 611.004814 56.638071 
L 629.707145 56.638071 
L 648.409476 56.638071 
L 667.111807 44.027273 
L 685.814138 44.027273 
L 704.516469 44.027273 
L 723.2188 44.027273 
L 741.921131 44.027273 
L 760.623462 44.027273 
L 779.325793 44.027273 
L 798.028124 44.027273 
L 816.730455 44.027273 
" clip-path="url(#p44e9483b70)" style="fill: none; stroke: #d62728; stroke-width: 1.5; stroke-linecap: square"/>
    <defs>
     <path id="m32aa20a211" d="M 0 3.5 
C 0.928211 3.5 1.81853 3.131218 2.474874 2.474874 
C 3.131218 1.81853 3.5 0.928211 3.5 0 
C 3.5 -0.928211 3.131218 -1.81853 2.474874 -2.474874 
C 1.81853 -3.131218 0.928211 -3.5 0 -3.5 
C -0.928211 -3.5 -1.81853 -3.131218 -2.474874 -2.474874 
C -3.131218 -1.81853 -3.5 -0.928211 -3.5 0 
C -3.5 0.928211 -3.131218 1.81853 -2.474874 2.474874 
C -1.81853 3.131218 -0.928211 3.5 0 3.5 
z
" style="stroke: #d62728"/>
    </defs>
    <g clip-path="url(#p44e9483b70)">
     <use xlink:href="#m32aa20a211" x="87.339545" y="376.952336" style="fill: #d62728; stroke: #d62728"/>
     <use xlink:href="#m32aa20a211" x="106.041876" y="355.51398" style="fill: #d62728; stroke: #d62728"/>
     <use xlink:href="#m32aa20a211" x="124.744207" y="317.681586" style="fill: #d62728; stroke: #d62728"/>
     <use xlink:href="#m32aa20a211" x="143.446538" y="308.854028" style="fill: #d62728; stroke: #d62728"/>
     <use xlink:href="#m32aa20a211" x="162.148869" y="289.937831" style="fill: #d62728; stroke: #d62728"/>
     <use xlink:href="#m32aa20a211" x="180.8512" y="271.021634" style="fill: #d62728; stroke: #d62728"/>
     <use xlink:href="#m32aa20a211" x="199.553531" y="243.277879" style="fill: #d62728; stroke: #d62728"/>
     <use xlink:href="#m32aa20a211" x="218.255862" y="231.928161" style="fill: #d62728; stroke: #d62728"/>
     <use xlink:href="#m32aa20a211" x="236.958193" y="200.401166" style="fill: #d62728; stroke: #d62728"/>
     <use xlink:href="#m32aa20a211" x="255.660524" y="189.051448" style="fill: #d62728; stroke: #d62728"/>
     <use xlink:href="#m32aa20a211" x="274.362855" y="155.002294" style="fill: #d62728; stroke: #d62728"/>
     <use xlink:href="#m32aa20a211" x="293.065186" y="134.825017" style="fill: #d62728; stroke: #d62728"/>
     <use xlink:href="#m32aa20a211" x="311.767517" y="75.554267" style="fill: #d62728; stroke: #d62728"/>
     <use xlink:href="#m32aa20a211" x="367.87451" y="75.554267" style="fill: #d62728; stroke: #d62728"/>
     <use xlink:href="#m32aa20a211" x="386.576841" y="75.554267" style="fill: #d62728; stroke: #d62728"/>
     <use xlink:href="#m32aa20a211" x="405.279172" y="75.554267" style="fill: #d62728; stroke: #d62728"/>
     <use xlink:href="#m32aa20a211" x="423.981503" y="75.554267" style="fill: #d62728; stroke: #d62728"/>
     <use xlink:href="#m32aa20a211" x="442.683834" y="75.554267" style="fill: #d62728; stroke: #d62728"/>
     <use xlink:href="#m32aa20a211" x="480.088497" y="75.554267" style="fill: #d62728; stroke: #d62728"/>
     <use xlink:href="#m32aa20a211" x="498.790828" y="75.554267" style="fill: #d62728; stroke: #d62728"/>
     <use xlink:href="#m32aa20a211" x="517.493159" y="75.554267" style="fill: #d62728; stroke: #d62728"/>
     <use xlink:href="#m32aa20a211" x="536.19549" y="75.554267" style="fill: #d62728; stroke: #d62728"/>
     <use xlink:href="#m32aa20a211" x="554.897821" y="75.554267" style="fill: #d62728; stroke: #d62728"/>
     <use xlink:href="#m32aa20a211" x="573.600152" y="56.638071" style="fill: #d62728; stroke: #d62728"/>
     <use xlink:href="#m32aa20a211" x="592.302483" y="56.638071" style="fill: #d62728; stroke: #d62728"/>
     <use xlink:href="#m32aa20a211" x="611.004814" y="56.638071" style="fill: #d62728; stroke: #d62728"/>
     <use xlink:href="#m32aa20a211" x="629.707145" y="56.638071" style="fill: #d62728; stroke: #d62728"/>
     <use xlink:href="#m32aa20a211" x="648.409476" y="56.638071" style="fill: #d62728; stroke: #d62728"/>
     <use xlink:href="#m32aa20a211" x="667.111807" y="44.027273" style="fill: #d62728; stroke: #d62728"/>
     <use xlink:href="#m32aa20a211" x="685.814138" y="44.027273" style="fill: #d62728; stroke: #d62728"/>
     <use xlink:href="#m32aa20a211" x="704.516469" y="44.027273" style="fill: #d62728; stroke: #d62728"/>
     <use xlink:href="#m32aa20a211" x="723.2188" y="44.027273" style="fill: #d62728; stroke: #d62728"/>
     <use xlink:href="#m32aa20a211" x="741.921131" y="44.027273" style="fill: #d62728; stroke: #d62728"/>
     <use xlink:href="#m32aa20a211" x="760.623462" y="44.027273" style="fill: #d62728; stroke: #d62728"/>
     <use xlink:href="#m32aa20a211" x="779.325793" y="44.027273" style="fill: #d62728; stroke: #d62728"/>
     <use xlink:href="#m32aa20a211" x="798.028124" y="44.027273" style="fill: #d62728; stroke: #d62728"/>
     <use xlink:href="#m32aa20a211" x="816.730455" y="44.027273" style="fill: #d62728; stroke: #d62728"/>
    </g>
   </g>
   <g id="line2d_29">
    <path d="M 87.339545 383.268844 
L 106.041876 349.21969 
L 124.744207 321.475934 
L 143.446538 306.342977 
L 162.148869 291.210019 
L 180.8512 276.077062 
L 199.553531 273.554902 
L 218.255862 252.116546 
L 236.958193 220.589551 
L 255.660524 196.629036 
L 274.362855 158.796642 
L 293.065186 143.663685 
L 311.767517 115.919929 
L 367.87451 115.919929 
L 386.576841 115.919929 
L 405.279172 115.919929 
L 423.981503 115.919929 
L 442.683834 115.919929 
L 480.088497 115.919929 
L 498.790828 115.919929 
L 517.493159 115.919929 
L 536.19549 115.919929 
L 554.897821 115.919929 
L 573.600152 97.003733 
L 592.302483 97.003733 
L 611.004814 97.003733 
L 629.707145 97.003733 
L 648.409476 97.003733 
L 667.111807 71.782137 
L 685.814138 71.782137 
L 704.516469 71.782137 
L 723.2188 71.782137 
L 741.921131 71.782137 
L 760.623462 71.782137 
L 779.325793 71.782137 
L 798.028124 71.782137 
L 816.730455 71.782137 
" clip-path="url(#p44e9483b70)" style="fill: none; stroke: #9467bd; stroke-width: 1.5; stroke-linecap: square"/>
    <defs>
     <path id="m4e41dfc15a" d="M 0 3.5 
C 0.928211 3.5 1.81853 3.131218 2.474874 2.474874 
C 3.131218 1.81853 3.5 0.928211 3.5 0 
C 3.5 -0.928211 3.131218 -1.81853 2.474874 -2.474874 
C 1.81853 -3.131218 0.928211 -3.5 0 -3.5 
C -0.928211 -3.5 -1.81853 -3.131218 -2.474874 -2.474874 
C -3.131218 -1.81853 -3.5 -0.928211 -3.5 0 
C -3.5 0.928211 -3.131218 1.81853 -2.474874 2.474874 
C -1.81853 3.131218 -0.928211 3.5 0 3.5 
z
" style="stroke: #9467bd"/>
    </defs>
    <g clip-path="url(#p44e9483b70)">
     <use xlink:href="#m4e41dfc15a" x="87.339545" y="383.268844" style="fill: #9467bd; stroke: #9467bd"/>
     <use xlink:href="#m4e41dfc15a" x="106.041876" y="349.21969" style="fill: #9467bd; stroke: #9467bd"/>
     <use xlink:href="#m4e41dfc15a" x="124.744207" y="321.475934" style="fill: #9467bd; stroke: #9467bd"/>
     <use xlink:href="#m4e41dfc15a" x="143.446538" y="306.342977" style="fill: #9467bd; stroke: #9467bd"/>
     <use xlink:href="#m4e41dfc15a" x="162.148869" y="291.210019" style="fill: #9467bd; stroke: #9467bd"/>
     <use xlink:href="#m4e41dfc15a" x="180.8512" y="276.077062" style="fill: #9467bd; stroke: #9467bd"/>
     <use xlink:href="#m4e41dfc15a" x="199.553531" y="273.554902" style="fill: #9467bd; stroke: #9467bd"/>
     <use xlink:href="#m4e41dfc15a" x="218.255862" y="252.116546" style="fill: #9467bd; stroke: #9467bd"/>
     <use xlink:href="#m4e41dfc15a" x="236.958193" y="220.589551" style="fill: #9467bd; stroke: #9467bd"/>
     <use xlink:href="#m4e41dfc15a" x="255.660524" y="196.629036" style="fill: #9467bd; stroke: #9467bd"/>
     <use xlink:href="#m4e41dfc15a" x="274.362855" y="158.796642" style="fill: #9467bd; stroke: #9467bd"/>
     <use xlink:href="#m4e41dfc15a" x="293.065186" y="143.663685" style="fill: #9467bd; stroke: #9467bd"/>
     <use xlink:href="#m4e41dfc15a" x="311.767517" y="115.919929" style="fill: #9467bd; stroke: #9467bd"/>
     <use xlink:href="#m4e41dfc15a" x="367.87451" y="115.919929" style="fill: #9467bd; stroke: #9467bd"/>
     <use xlink:href="#m4e41dfc15a" x="386.576841" y="115.919929" style="fill: #9467bd; stroke: #9467bd"/>
     <use xlink:href="#m4e41dfc15a" x="405.279172" y="115.919929" style="fill: #9467bd; stroke: #9467bd"/>
     <use xlink:href="#m4e41dfc15a" x="423.981503" y="115.919929" style="fill: #9467bd; stroke: #9467bd"/>
     <use xlink:href="#m4e41dfc15a" x="442.683834" y="115.919929" style="fill: #9467bd; stroke: #9467bd"/>
     <use xlink:href="#m4e41dfc15a" x="480.088497" y="115.919929" style="fill: #9467bd; stroke: #9467bd"/>
     <use xlink:href="#m4e41dfc15a" x="498.790828" y="115.919929" style="fill: #9467bd; stroke: #9467bd"/>
     <use xlink:href="#m4e41dfc15a" x="517.493159" y="115.919929" style="fill: #9467bd; stroke: #9467bd"/>
     <use xlink:href="#m4e41dfc15a" x="536.19549" y="115.919929" style="fill: #9467bd; stroke: #9467bd"/>
     <use xlink:href="#m4e41dfc15a" x="554.897821" y="115.919929" style="fill: #9467bd; stroke: #9467bd"/>
     <use xlink:href="#m4e41dfc15a" x="573.600152" y="97.003733" style="fill: #9467bd; stroke: #9467bd"/>
     <use xlink:href="#m4e41dfc15a" x="592.302483" y="97.003733" style="fill: #9467bd; stroke: #9467bd"/>
     <use xlink:href="#m4e41dfc15a" x="611.004814" y="97.003733" style="fill: #9467bd; stroke: #9467bd"/>
     <use xlink:href="#m4e41dfc15a" x="629.707145" y="97.003733" style="fill: #9467bd; stroke: #9467bd"/>
     <use xlink:href="#m4e41dfc15a" x="648.409476" y="97.003733" style="fill: #9467bd; stroke: #9467bd"/>
     <use xlink:href="#m4e41dfc15a" x="667.111807" y="71.782137" style="fill: #9467bd; stroke: #9467bd"/>
     <use xlink:href="#m4e41dfc15a" x="685.814138" y="71.782137" style="fill: #9467bd; stroke: #9467bd"/>
     <use xlink:href="#m4e41dfc15a" x="704.516469" y="71.782137" style="fill: #9467bd; stroke: #9467bd"/>
     <use xlink:href="#m4e41dfc15a" x="723.2188" y="71.782137" style="fill: #9467bd; stroke: #9467bd"/>
     <use xlink:href="#m4e41dfc15a" x="741.921131" y="71.782137" style="fill: #9467bd; stroke: #9467bd"/>
     <use xlink:href="#m4e41dfc15a" x="760.623462" y="71.782137" style="fill: #9467bd; stroke: #9467bd"/>
     <use xlink:href="#m4e41dfc15a" x="779.325793" y="71.782137" style="fill: #9467bd; stroke: #9467bd"/>
     <use xlink:href="#m4e41dfc15a" x="798.028124" y="71.782137" style="fill: #9467bd; stroke: #9467bd"/>
     <use xlink:href="#m4e41dfc15a" x="816.730455" y="71.782137" style="fill: #9467bd; stroke: #9467bd"/>
    </g>
   </g>
   <g id="line2d_30">
    <path d="M 87.339545 376.933724 
L 106.041876 364.322927 
L 124.744207 342.88457 
L 143.446538 330.273772 
L 162.148869 305.052177 
L 180.8512 271.003023 
L 199.553531 253.347906 
L 218.255862 253.347906 
L 236.958193 221.820911 
L 255.660524 210.471193 
L 274.362855 182.727438 
L 293.065186 175.160959 
L 311.767517 136.067486 
L 367.87451 136.067486 
L 386.576841 136.067486 
L 405.279172 136.067486 
L 423.981503 136.067486 
L 442.683834 136.067486 
L 480.088497 136.067486 
L 498.790828 136.067486 
L 517.493159 136.067486 
L 536.19549 136.067486 
L 554.897821 136.067486 
L 573.600152 136.067486 
L 592.302483 136.067486 
L 611.004814 136.067486 
L 629.707145 136.067486 
L 648.409476 136.067486 
L 667.111807 117.151289 
L 685.814138 117.151289 
L 704.516469 117.151289 
L 723.2188 117.151289 
L 741.921131 117.151289 
L 760.623462 117.151289 
L 779.325793 117.151289 
L 798.028124 117.151289 
L 816.730455 117.151289 
" clip-path="url(#p44e9483b70)" style="fill: none; stroke: #8c564b; stroke-width: 1.5; stroke-linecap: square"/>
    <defs>
     <path id="m7470cc140f" d="M 0 3.5 
C 0.928211 3.5 1.81853 3.131218 2.474874 2.474874 
C 3.131218 1.81853 3.5 0.928211 3.5 0 
C 3.5 -0.928211 3.131218 -1.81853 2.474874 -2.474874 
C 1.81853 -3.131218 0.928211 -3.5 0 -3.5 
C -0.928211 -3.5 -1.81853 -3.131218 -2.474874 -2.474874 
C -3.131218 -1.81853 -3.5 -0.928211 -3.5 0 
C -3.5 0.928211 -3.131218 1.81853 -2.474874 2.474874 
C -1.81853 3.131218 -0.928211 3.5 0 3.5 
z
" style="stroke: #8c564b"/>
    </defs>
    <g clip-path="url(#p44e9483b70)">
     <use xlink:href="#m7470cc140f" x="87.339545" y="376.933724" style="fill: #8c564b; stroke: #8c564b"/>
     <use xlink:href="#m7470cc140f" x="106.041876" y="364.322927" style="fill: #8c564b; stroke: #8c564b"/>
     <use xlink:href="#m7470cc140f" x="124.744207" y="342.88457" style="fill: #8c564b; stroke: #8c564b"/>
     <use xlink:href="#m7470cc140f" x="143.446538" y="330.273772" style="fill: #8c564b; stroke: #8c564b"/>
     <use xlink:href="#m7470cc140f" x="162.148869" y="305.052177" style="fill: #8c564b; stroke: #8c564b"/>
     <use xlink:href="#m7470cc140f" x="180.8512" y="271.003023" style="fill: #8c564b; stroke: #8c564b"/>
     <use xlink:href="#m7470cc140f" x="199.553531" y="253.347906" style="fill: #8c564b; stroke: #8c564b"/>
     <use xlink:href="#m7470cc140f" x="218.255862" y="253.347906" style="fill: #8c564b; stroke: #8c564b"/>
     <use xlink:href="#m7470cc140f" x="236.958193" y="221.820911" style="fill: #8c564b; stroke: #8c564b"/>
     <use xlink:href="#m7470cc140f" x="255.660524" y="210.471193" style="fill: #8c564b; stroke: #8c564b"/>
     <use xlink:href="#m7470cc140f" x="274.362855" y="182.727438" style="fill: #8c564b; stroke: #8c564b"/>
     <use xlink:href="#m7470cc140f" x="293.065186" y="175.160959" style="fill: #8c564b; stroke: #8c564b"/>
     <use xlink:href="#m7470cc140f" x="311.767517" y="136.067486" style="fill: #8c564b; stroke: #8c564b"/>
     <use xlink:href="#m7470cc140f" x="367.87451" y="136.067486" style="fill: #8c564b; stroke: #8c564b"/>
     <use xlink:href="#m7470cc140f" x="386.576841" y="136.067486" style="fill: #8c564b; stroke: #8c564b"/>
     <use xlink:href="#m7470cc140f" x="405.279172" y="136.067486" style="fill: #8c564b; stroke: #8c564b"/>
     <use xlink:href="#m7470cc140f" x="423.981503" y="136.067486" style="fill: #8c564b; stroke: #8c564b"/>
     <use xlink:href="#m7470cc140f" x="442.683834" y="136.067486" style="fill: #8c564b; stroke: #8c564b"/>
     <use xlink:href="#m7470cc140f" x="480.088497" y="136.067486" style="fill: #8c564b; stroke: #8c564b"/>
     <use xlink:href="#m7470cc140f" x="498.790828" y="136.067486" style="fill: #8c564b; stroke: #8c564b"/>
     <use xlink:href="#m7470cc140f" x="517.493159" y="136.067486" style="fill: #8c564b; stroke: #8c564b"/>
     <use xlink:href="#m7470cc140f" x="536.19549" y="136.067486" style="fill: #8c564b; stroke: #8c564b"/>
     <use xlink:href="#m7470cc140f" x="554.897821" y="136.067486" style="fill: #8c564b; stroke: #8c564b"/>
     <use xlink:href="#m7470cc140f" x="573.600152" y="136.067486" style="fill: #8c564b; stroke: #8c564b"/>
     <use xlink:href="#m7470cc140f" x="592.302483" y="136.067486" style="fill: #8c564b; stroke: #8c564b"/>
     <use xlink:href="#m7470cc140f" x="611.004814" y="136.067486" style="fill: #8c564b; stroke: #8c564b"/>
     <use xlink:href="#m7470cc140f" x="629.707145" y="136.067486" style="fill: #8c564b; stroke: #8c564b"/>
     <use xlink:href="#m7470cc140f" x="648.409476" y="136.067486" style="fill: #8c564b; stroke: #8c564b"/>
     <use xlink:href="#m7470cc140f" x="667.111807" y="117.151289" style="fill: #8c564b; stroke: #8c564b"/>
     <use xlink:href="#m7470cc140f" x="685.814138" y="117.151289" style="fill: #8c564b; stroke: #8c564b"/>
     <use xlink:href="#m7470cc140f" x="704.516469" y="117.151289" style="fill: #8c564b; stroke: #8c564b"/>
     <use xlink:href="#m7470cc140f" x="723.2188" y="117.151289" style="fill: #8c564b; stroke: #8c564b"/>
     <use xlink:href="#m7470cc140f" x="741.921131" y="117.151289" style="fill: #8c564b; stroke: #8c564b"/>
     <use xlink:href="#m7470cc140f" x="760.623462" y="117.151289" style="fill: #8c564b; stroke: #8c564b"/>
     <use xlink:href="#m7470cc140f" x="779.325793" y="117.151289" style="fill: #8c564b; stroke: #8c564b"/>
     <use xlink:href="#m7470cc140f" x="798.028124" y="117.151289" style="fill: #8c564b; stroke: #8c564b"/>
     <use xlink:href="#m7470cc140f" x="816.730455" y="117.151289" style="fill: #8c564b; stroke: #8c564b"/>
    </g>
   </g>
   <g id="line2d_31">
    <path d="M 87.339545 376.914186 
L 106.041876 351.692591 
L 124.744207 330.254234 
L 143.446538 311.338038 
L 162.148869 302.510479 
L 180.8512 270.983484 
L 199.553531 263.417006 
L 218.255862 260.894846 
L 236.958193 233.151091 
L 255.660524 224.323532 
L 274.362855 190.274378 
L 293.065186 175.141421 
L 311.767517 134.786868 
L 367.87451 134.786868 
L 386.576841 134.786868 
L 405.279172 134.786868 
L 423.981503 134.786868 
L 442.683834 134.786868 
L 480.088497 134.786868 
L 498.790828 134.786868 
L 517.493159 134.786868 
L 536.19549 134.786868 
L 554.897821 134.786868 
L 573.600152 115.870671 
L 592.302483 115.870671 
L 611.004814 115.870671 
L 629.707145 115.870671 
L 648.409476 115.870671 
L 667.111807 115.870671 
L 685.814138 115.870671 
L 704.516469 115.870671 
L 723.2188 115.870671 
L 741.921131 115.870671 
L 760.623462 115.870671 
L 779.325793 115.870671 
L 798.028124 115.870671 
L 816.730455 115.870671 
" clip-path="url(#p44e9483b70)" style="fill: none; stroke: #e377c2; stroke-width: 1.5; stroke-linecap: square"/>
    <defs>
     <path id="mf6e000ce4e" d="M 0 3.5 
C 0.928211 3.5 1.81853 3.131218 2.474874 2.474874 
C 3.131218 1.81853 3.5 0.928211 3.5 0 
C 3.5 -0.928211 3.131218 -1.81853 2.474874 -2.474874 
C 1.81853 -3.131218 0.928211 -3.5 0 -3.5 
C -0.928211 -3.5 -1.81853 -3.131218 -2.474874 -2.474874 
C -3.131218 -1.81853 -3.5 -0.928211 -3.5 0 
C -3.5 0.928211 -3.131218 1.81853 -2.474874 2.474874 
C -1.81853 3.131218 -0.928211 3.5 0 3.5 
z
" style="stroke: #e377c2"/>
    </defs>
    <g clip-path="url(#p44e9483b70)">
     <use xlink:href="#mf6e000ce4e" x="87.339545" y="376.914186" style="fill: #e377c2; stroke: #e377c2"/>
     <use xlink:href="#mf6e000ce4e" x="106.041876" y="351.692591" style="fill: #e377c2; stroke: #e377c2"/>
     <use xlink:href="#mf6e000ce4e" x="124.744207" y="330.254234" style="fill: #e377c2; stroke: #e377c2"/>
     <use xlink:href="#mf6e000ce4e" x="143.446538" y="311.338038" style="fill: #e377c2; stroke: #e377c2"/>
     <use xlink:href="#mf6e000ce4e" x="162.148869" y="302.510479" style="fill: #e377c2; stroke: #e377c2"/>
     <use xlink:href="#mf6e000ce4e" x="180.8512" y="270.983484" style="fill: #e377c2; stroke: #e377c2"/>
     <use xlink:href="#mf6e000ce4e" x="199.553531" y="263.417006" style="fill: #e377c2; stroke: #e377c2"/>
     <use xlink:href="#mf6e000ce4e" x="218.255862" y="260.894846" style="fill: #e377c2; stroke: #e377c2"/>
     <use xlink:href="#mf6e000ce4e" x="236.958193" y="233.151091" style="fill: #e377c2; stroke: #e377c2"/>
     <use xlink:href="#mf6e000ce4e" x="255.660524" y="224.323532" style="fill: #e377c2; stroke: #e377c2"/>
     <use xlink:href="#mf6e000ce4e" x="274.362855" y="190.274378" style="fill: #e377c2; stroke: #e377c2"/>
     <use xlink:href="#mf6e000ce4e" x="293.065186" y="175.141421" style="fill: #e377c2; stroke: #e377c2"/>
     <use xlink:href="#mf6e000ce4e" x="311.767517" y="134.786868" style="fill: #e377c2; stroke: #e377c2"/>
     <use xlink:href="#mf6e000ce4e" x="367.87451" y="134.786868" style="fill: #e377c2; stroke: #e377c2"/>
     <use xlink:href="#mf6e000ce4e" x="386.576841" y="134.786868" style="fill: #e377c2; stroke: #e377c2"/>
     <use xlink:href="#mf6e000ce4e" x="405.279172" y="134.786868" style="fill: #e377c2; stroke: #e377c2"/>
     <use xlink:href="#mf6e000ce4e" x="423.981503" y="134.786868" style="fill: #e377c2; stroke: #e377c2"/>
     <use xlink:href="#mf6e000ce4e" x="442.683834" y="134.786868" style="fill: #e377c2; stroke: #e377c2"/>
     <use xlink:href="#mf6e000ce4e" x="480.088497" y="134.786868" style="fill: #e377c2; stroke: #e377c2"/>
     <use xlink:href="#mf6e000ce4e" x="498.790828" y="134.786868" style="fill: #e377c2; stroke: #e377c2"/>
     <use xlink:href="#mf6e000ce4e" x="517.493159" y="134.786868" style="fill: #e377c2; stroke: #e377c2"/>
     <use xlink:href="#mf6e000ce4e" x="536.19549" y="134.786868" style="fill: #e377c2; stroke: #e377c2"/>
     <use xlink:href="#mf6e000ce4e" x="554.897821" y="134.786868" style="fill: #e377c2; stroke: #e377c2"/>
     <use xlink:href="#mf6e000ce4e" x="573.600152" y="115.870671" style="fill: #e377c2; stroke: #e377c2"/>
     <use xlink:href="#mf6e000ce4e" x="592.302483" y="115.870671" style="fill: #e377c2; stroke: #e377c2"/>
     <use xlink:href="#mf6e000ce4e" x="611.004814" y="115.870671" style="fill: #e377c2; stroke: #e377c2"/>
     <use xlink:href="#mf6e000ce4e" x="629.707145" y="115.870671" style="fill: #e377c2; stroke: #e377c2"/>
     <use xlink:href="#mf6e000ce4e" x="648.409476" y="115.870671" style="fill: #e377c2; stroke: #e377c2"/>
     <use xlink:href="#mf6e000ce4e" x="667.111807" y="115.870671" style="fill: #e377c2; stroke: #e377c2"/>
     <use xlink:href="#mf6e000ce4e" x="685.814138" y="115.870671" style="fill: #e377c2; stroke: #e377c2"/>
     <use xlink:href="#mf6e000ce4e" x="704.516469" y="115.870671" style="fill: #e377c2; stroke: #e377c2"/>
     <use xlink:href="#mf6e000ce4e" x="723.2188" y="115.870671" style="fill: #e377c2; stroke: #e377c2"/>
     <use xlink:href="#mf6e000ce4e" x="741.921131" y="115.870671" style="fill: #e377c2; stroke: #e377c2"/>
     <use xlink:href="#mf6e000ce4e" x="760.623462" y="115.870671" style="fill: #e377c2; stroke: #e377c2"/>
     <use xlink:href="#mf6e000ce4e" x="779.325793" y="115.870671" style="fill: #e377c2; stroke: #e377c2"/>
     <use xlink:href="#mf6e000ce4e" x="798.028124" y="115.870671" style="fill: #e377c2; stroke: #e377c2"/>
     <use xlink:href="#mf6e000ce4e" x="816.730455" y="115.870671" style="fill: #e377c2; stroke: #e377c2"/>
    </g>
   </g>
   <g id="line2d_32">
    <path d="M 87.339545 383.39241 
L 106.041876 375.825931 
L 124.744207 356.909734 
L 143.446538 354.387575 
L 162.148869 335.471378 
L 180.8512 332.949218 
L 199.553531 311.510862 
L 218.255862 292.594665 
L 236.958193 248.456873 
L 255.660524 243.412554 
L 274.362855 230.801756 
L 293.065186 187.925043 
L 311.767517 151.353729 
L 367.87451 151.353729 
L 386.576841 151.353729 
L 405.279172 151.353729 
L 423.981503 151.353729 
L 442.683834 151.353729 
L 480.088497 151.353729 
L 498.790828 151.353729 
L 517.493159 151.353729 
L 536.19549 151.353729 
L 554.897821 151.353729 
L 573.600152 132.437533 
L 592.302483 132.437533 
L 611.004814 132.437533 
L 629.707145 132.437533 
L 648.409476 132.437533 
L 667.111807 107.215937 
L 685.814138 107.215937 
L 704.516469 107.215937 
L 723.2188 107.215937 
L 741.921131 107.215937 
L 760.623462 107.215937 
L 779.325793 107.215937 
L 798.028124 107.215937 
L 816.730455 107.215937 
" clip-path="url(#p44e9483b70)" style="fill: none; stroke: #7f7f7f; stroke-width: 1.5; stroke-linecap: square"/>
    <defs>
     <path id="m9a9381fe67" d="M 0 3.5 
C 0.928211 3.5 1.81853 3.131218 2.474874 2.474874 
C 3.131218 1.81853 3.5 0.928211 3.5 0 
C 3.5 -0.928211 3.131218 -1.81853 2.474874 -2.474874 
C 1.81853 -3.131218 0.928211 -3.5 0 -3.5 
C -0.928211 -3.5 -1.81853 -3.131218 -2.474874 -2.474874 
C -3.131218 -1.81853 -3.5 -0.928211 -3.5 0 
C -3.5 0.928211 -3.131218 1.81853 -2.474874 2.474874 
C -1.81853 3.131218 -0.928211 3.5 0 3.5 
z
" style="stroke: #7f7f7f"/>
    </defs>
    <g clip-path="url(#p44e9483b70)">
     <use xlink:href="#m9a9381fe67" x="87.339545" y="383.39241" style="fill: #7f7f7f; stroke: #7f7f7f"/>
     <use xlink:href="#m9a9381fe67" x="106.041876" y="375.825931" style="fill: #7f7f7f; stroke: #7f7f7f"/>
     <use xlink:href="#m9a9381fe67" x="124.744207" y="356.909734" style="fill: #7f7f7f; stroke: #7f7f7f"/>
     <use xlink:href="#m9a9381fe67" x="143.446538" y="354.387575" style="fill: #7f7f7f; stroke: #7f7f7f"/>
     <use xlink:href="#m9a9381fe67" x="162.148869" y="335.471378" style="fill: #7f7f7f; stroke: #7f7f7f"/>
     <use xlink:href="#m9a9381fe67" x="180.8512" y="332.949218" style="fill: #7f7f7f; stroke: #7f7f7f"/>
     <use xlink:href="#m9a9381fe67" x="199.553531" y="311.510862" style="fill: #7f7f7f; stroke: #7f7f7f"/>
     <use xlink:href="#m9a9381fe67" x="218.255862" y="292.594665" style="fill: #7f7f7f; stroke: #7f7f7f"/>
     <use xlink:href="#m9a9381fe67" x="236.958193" y="248.456873" style="fill: #7f7f7f; stroke: #7f7f7f"/>
     <use xlink:href="#m9a9381fe67" x="255.660524" y="243.412554" style="fill: #7f7f7f; stroke: #7f7f7f"/>
     <use xlink:href="#m9a9381fe67" x="274.362855" y="230.801756" style="fill: #7f7f7f; stroke: #7f7f7f"/>
     <use xlink:href="#m9a9381fe67" x="293.065186" y="187.925043" style="fill: #7f7f7f; stroke: #7f7f7f"/>
     <use xlink:href="#m9a9381fe67" x="311.767517" y="151.353729" style="fill: #7f7f7f; stroke: #7f7f7f"/>
     <use xlink:href="#m9a9381fe67" x="367.87451" y="151.353729" style="fill: #7f7f7f; stroke: #7f7f7f"/>
     <use xlink:href="#m9a9381fe67" x="386.576841" y="151.353729" style="fill: #7f7f7f; stroke: #7f7f7f"/>
     <use xlink:href="#m9a9381fe67" x="405.279172" y="151.353729" style="fill: #7f7f7f; stroke: #7f7f7f"/>
     <use xlink:href="#m9a9381fe67" x="423.981503" y="151.353729" style="fill: #7f7f7f; stroke: #7f7f7f"/>
     <use xlink:href="#m9a9381fe67" x="442.683834" y="151.353729" style="fill: #7f7f7f; stroke: #7f7f7f"/>
     <use xlink:href="#m9a9381fe67" x="480.088497" y="151.353729" style="fill: #7f7f7f; stroke: #7f7f7f"/>
     <use xlink:href="#m9a9381fe67" x="498.790828" y="151.353729" style="fill: #7f7f7f; stroke: #7f7f7f"/>
     <use xlink:href="#m9a9381fe67" x="517.493159" y="151.353729" style="fill: #7f7f7f; stroke: #7f7f7f"/>
     <use xlink:href="#m9a9381fe67" x="536.19549" y="151.353729" style="fill: #7f7f7f; stroke: #7f7f7f"/>
     <use xlink:href="#m9a9381fe67" x="554.897821" y="151.353729" style="fill: #7f7f7f; stroke: #7f7f7f"/>
     <use xlink:href="#m9a9381fe67" x="573.600152" y="132.437533" style="fill: #7f7f7f; stroke: #7f7f7f"/>
     <use xlink:href="#m9a9381fe67" x="592.302483" y="132.437533" style="fill: #7f7f7f; stroke: #7f7f7f"/>
     <use xlink:href="#m9a9381fe67" x="611.004814" y="132.437533" style="fill: #7f7f7f; stroke: #7f7f7f"/>
     <use xlink:href="#m9a9381fe67" x="629.707145" y="132.437533" style="fill: #7f7f7f; stroke: #7f7f7f"/>
     <use xlink:href="#m9a9381fe67" x="648.409476" y="132.437533" style="fill: #7f7f7f; stroke: #7f7f7f"/>
     <use xlink:href="#m9a9381fe67" x="667.111807" y="107.215937" style="fill: #7f7f7f; stroke: #7f7f7f"/>
     <use xlink:href="#m9a9381fe67" x="685.814138" y="107.215937" style="fill: #7f7f7f; stroke: #7f7f7f"/>
     <use xlink:href="#m9a9381fe67" x="704.516469" y="107.215937" style="fill: #7f7f7f; stroke: #7f7f7f"/>
     <use xlink:href="#m9a9381fe67" x="723.2188" y="107.215937" style="fill: #7f7f7f; stroke: #7f7f7f"/>
     <use xlink:href="#m9a9381fe67" x="741.921131" y="107.215937" style="fill: #7f7f7f; stroke: #7f7f7f"/>
     <use xlink:href="#m9a9381fe67" x="760.623462" y="107.215937" style="fill: #7f7f7f; stroke: #7f7f7f"/>
     <use xlink:href="#m9a9381fe67" x="779.325793" y="107.215937" style="fill: #7f7f7f; stroke: #7f7f7f"/>
     <use xlink:href="#m9a9381fe67" x="798.028124" y="107.215937" style="fill: #7f7f7f; stroke: #7f7f7f"/>
     <use xlink:href="#m9a9381fe67" x="816.730455" y="107.215937" style="fill: #7f7f7f; stroke: #7f7f7f"/>
    </g>
   </g>
   <g id="line2d_33">
    <path d="M 87.339545 383.281015 
L 106.041876 358.059419 
L 124.744207 330.315664 
L 143.446538 321.488106 
L 162.148869 302.571909 
L 180.8512 274.828154 
L 199.553531 247.084398 
L 218.255862 244.562239 
L 236.958193 213.035244 
L 255.660524 172.680691 
L 274.362855 144.936936 
L 293.065186 117.193181 
L 311.767517 83.144026 
L 367.87451 83.144026 
L 386.576841 83.144026 
L 405.279172 83.144026 
L 423.981503 83.144026 
L 442.683834 83.144026 
L 480.088497 83.144026 
L 498.790828 83.144026 
L 517.493159 83.144026 
L 536.19549 83.144026 
L 554.897821 83.144026 
L 573.600152 83.144026 
L 592.302483 83.144026 
L 611.004814 83.144026 
L 629.707145 83.144026 
L 648.409476 83.144026 
L 667.111807 64.22783 
L 685.814138 64.22783 
L 704.516469 64.22783 
L 723.2188 64.22783 
L 741.921131 64.22783 
L 760.623462 64.22783 
L 779.325793 64.22783 
L 798.028124 64.22783 
L 816.730455 64.22783 
" clip-path="url(#p44e9483b70)" style="fill: none; stroke: #bcbd22; stroke-width: 1.5; stroke-linecap: square"/>
    <defs>
     <path id="m1b9888d01c" d="M 0 3.5 
C 0.928211 3.5 1.81853 3.131218 2.474874 2.474874 
C 3.131218 1.81853 3.5 0.928211 3.5 0 
C 3.5 -0.928211 3.131218 -1.81853 2.474874 -2.474874 
C 1.81853 -3.131218 0.928211 -3.5 0 -3.5 
C -0.928211 -3.5 -1.81853 -3.131218 -2.474874 -2.474874 
C -3.131218 -1.81853 -3.5 -0.928211 -3.5 0 
C -3.5 0.928211 -3.131218 1.81853 -2.474874 2.474874 
C -1.81853 3.131218 -0.928211 3.5 0 3.5 
z
" style="stroke: #bcbd22"/>
    </defs>
    <g clip-path="url(#p44e9483b70)">
     <use xlink:href="#m1b9888d01c" x="87.339545" y="383.281015" style="fill: #bcbd22; stroke: #bcbd22"/>
     <use xlink:href="#m1b9888d01c" x="106.041876" y="358.059419" style="fill: #bcbd22; stroke: #bcbd22"/>
     <use xlink:href="#m1b9888d01c" x="124.744207" y="330.315664" style="fill: #bcbd22; stroke: #bcbd22"/>
     <use xlink:href="#m1b9888d01c" x="143.446538" y="321.488106" style="fill: #bcbd22; stroke: #bcbd22"/>
     <use xlink:href="#m1b9888d01c" x="162.148869" y="302.571909" style="fill: #bcbd22; stroke: #bcbd22"/>
     <use xlink:href="#m1b9888d01c" x="180.8512" y="274.828154" style="fill: #bcbd22; stroke: #bcbd22"/>
     <use xlink:href="#m1b9888d01c" x="199.553531" y="247.084398" style="fill: #bcbd22; stroke: #bcbd22"/>
     <use xlink:href="#m1b9888d01c" x="218.255862" y="244.562239" style="fill: #bcbd22; stroke: #bcbd22"/>
     <use xlink:href="#m1b9888d01c" x="236.958193" y="213.035244" style="fill: #bcbd22; stroke: #bcbd22"/>
     <use xlink:href="#m1b9888d01c" x="255.660524" y="172.680691" style="fill: #bcbd22; stroke: #bcbd22"/>
     <use xlink:href="#m1b9888d01c" x="274.362855" y="144.936936" style="fill: #bcbd22; stroke: #bcbd22"/>
     <use xlink:href="#m1b9888d01c" x="293.065186" y="117.193181" style="fill: #bcbd22; stroke: #bcbd22"/>
     <use xlink:href="#m1b9888d01c" x="311.767517" y="83.144026" style="fill: #bcbd22; stroke: #bcbd22"/>
     <use xlink:href="#m1b9888d01c" x="367.87451" y="83.144026" style="fill: #bcbd22; stroke: #bcbd22"/>
     <use xlink:href="#m1b9888d01c" x="386.576841" y="83.144026" style="fill: #bcbd22; stroke: #bcbd22"/>
     <use xlink:href="#m1b9888d01c" x="405.279172" y="83.144026" style="fill: #bcbd22; stroke: #bcbd22"/>
     <use xlink:href="#m1b9888d01c" x="423.981503" y="83.144026" style="fill: #bcbd22; stroke: #bcbd22"/>
     <use xlink:href="#m1b9888d01c" x="442.683834" y="83.144026" style="fill: #bcbd22; stroke: #bcbd22"/>
     <use xlink:href="#m1b9888d01c" x="480.088497" y="83.144026" style="fill: #bcbd22; stroke: #bcbd22"/>
     <use xlink:href="#m1b9888d01c" x="498.790828" y="83.144026" style="fill: #bcbd22; stroke: #bcbd22"/>
     <use xlink:href="#m1b9888d01c" x="517.493159" y="83.144026" style="fill: #bcbd22; stroke: #bcbd22"/>
     <use xlink:href="#m1b9888d01c" x="536.19549" y="83.144026" style="fill: #bcbd22; stroke: #bcbd22"/>
     <use xlink:href="#m1b9888d01c" x="554.897821" y="83.144026" style="fill: #bcbd22; stroke: #bcbd22"/>
     <use xlink:href="#m1b9888d01c" x="573.600152" y="83.144026" style="fill: #bcbd22; stroke: #bcbd22"/>
     <use xlink:href="#m1b9888d01c" x="592.302483" y="83.144026" style="fill: #bcbd22; stroke: #bcbd22"/>
     <use xlink:href="#m1b9888d01c" x="611.004814" y="83.144026" style="fill: #bcbd22; stroke: #bcbd22"/>
     <use xlink:href="#m1b9888d01c" x="629.707145" y="83.144026" style="fill: #bcbd22; stroke: #bcbd22"/>
     <use xlink:href="#m1b9888d01c" x="648.409476" y="83.144026" style="fill: #bcbd22; stroke: #bcbd22"/>
     <use xlink:href="#m1b9888d01c" x="667.111807" y="64.22783" style="fill: #bcbd22; stroke: #bcbd22"/>
     <use xlink:href="#m1b9888d01c" x="685.814138" y="64.22783" style="fill: #bcbd22; stroke: #bcbd22"/>
     <use xlink:href="#m1b9888d01c" x="704.516469" y="64.22783" style="fill: #bcbd22; stroke: #bcbd22"/>
     <use xlink:href="#m1b9888d01c" x="723.2188" y="64.22783" style="fill: #bcbd22; stroke: #bcbd22"/>
     <use xlink:href="#m1b9888d01c" x="741.921131" y="64.22783" style="fill: #bcbd22; stroke: #bcbd22"/>
     <use xlink:href="#m1b9888d01c" x="760.623462" y="64.22783" style="fill: #bcbd22; stroke: #bcbd22"/>
     <use xlink:href="#m1b9888d01c" x="779.325793" y="64.22783" style="fill: #bcbd22; stroke: #bcbd22"/>
     <use xlink:href="#m1b9888d01c" x="798.028124" y="64.22783" style="fill: #bcbd22; stroke: #bcbd22"/>
     <use xlink:href="#m1b9888d01c" x="816.730455" y="64.22783" style="fill: #bcbd22; stroke: #bcbd22"/>
    </g>
   </g>
   <g id="patch_3">
    <path d="M 50.87 404.12 
L 50.87 26.88 
" style="fill: none; stroke: #000000; stroke-width: 0.8; stroke-linejoin: miter; stroke-linecap: square"/>
   </g>
   <g id="patch_4">
    <path d="M 853.2 404.12 
L 853.2 26.88 
" style="fill: none; stroke: #000000; stroke-width: 0.8; stroke-linejoin: miter; stroke-linecap: square"/>
   </g>
   <g id="patch_5">
    <path d="M 50.87 404.12 
L 853.2 404.12 
" style="fill: none; stroke: #000000; stroke-width: 0.8; stroke-linejoin: miter; stroke-linecap: square"/>
   </g>
   <g id="patch_6">
    <path d="M 50.87 26.88 
L 853.2 26.88 
" style="fill: none; stroke: #000000; stroke-width: 0.8; stroke-linejoin: miter; stroke-linecap: square"/>
   </g>
   <g id="text_14">
    <!-- Standings -->
    <g transform="translate(422.18125 20.88) scale(0.12 -0.12)">
     <defs>
      <path id="DejaVuSans-74" d="M 1172 4494 
L 1172 3500 
L 2356 3500 
L 2356 3053 
L 1172 3053 
L 1172 1153 
Q 1172 725 1289 603 
Q 1406 481 1766 481 
L 2356 481 
L 2356 0 
L 1766 0 
Q 1100 0 847 248 
Q 594 497 594 1153 
L 594 3053 
L 172 3053 
L 172 3500 
L 594 3500 
L 594 4494 
L 1172 4494 
z
" transform="scale(0.015625)"/>
      <path id="DejaVuSans-61" d="M 2194 1759 
Q 1497 1759 1228 1600 
Q 959 1441 959 1056 
Q 959 750 1161 570 
Q 1363 391 1709 391 
Q 2188 391 2477 730 
Q 2766 1069 2766 1631 
L 2766 1759 
L 2194 1759 
z
M 3341 1997 
L 3341 0 
L 2766 0 
L 2766 531 
Q 2569 213 2275 61 
Q 1981 -91 1556 -91 
Q 1019 -91 701 211 
Q 384 513 384 1019 
Q 384 1609 779 1909 
Q 1175 2209 1959 2209 
L 2766 2209 
L 2766 2266 
Q 2766 2663 2505 2880 
Q 2244 3097 1772 3097 
Q 1472 3097 1187 3025 
Q 903 2953 641 2809 
L 641 3341 
Q 956 3463 1253 3523 
Q 1550 3584 1831 3584 
Q 2591 3584 2966 3190 
Q 3341 2797 3341 1997 
z
" transform="scale(0.015625)"/>
      <path id="DejaVuSans-6e" d="M 3513 2113 
L 3513 0 
L 2938 0 
L 2938 2094 
Q 2938 2591 2744 2837 
Q 2550 3084 2163 3084 
Q 1697 3084 1428 2787 
Q 1159 2491 1159 1978 
L 1159 0 
L 581 0 
L 581 3500 
L 1159 3500 
L 1159 2956 
Q 1366 3272 1645 3428 
Q 1925 3584 2291 3584 
Q 2894 3584 3203 3211 
Q 3513 2838 3513 2113 
z
" transform="scale(0.015625)"/>
      <path id="DejaVuSans-64" d="M 2906 2969 
L 2906 4863 
L 3481 4863 
L 3481 0 
L 2906 0 
L 2906 525 
Q 2725 213 2448 61 
Q 2172 -91 1784 -91 
Q 1150 -91 751 415 
Q 353 922 353 1747 
Q 353 2572 751 3078 
Q 1150 3584 1784 3584 
Q 2172 3584 2448 3432 
Q 2725 3281 2906 2969 
z
M 947 1747 
Q 947 1113 1208 752 
Q 1469 391 1925 391 
Q 2381 391 2643 752 
Q 2906 1113 2906 1747 
Q 2906 2381 2643 2742 
Q 2381 3103 1925 3103 
Q 1469 3103 1208 2742 
Q 947 2381 947 1747 
z
" transform="scale(0.015625)"/>
      <path id="DejaVuSans-69" d="M 603 3500 
L 1178 3500 
L 1178 0 
L 603 0 
L 603 3500 
z
M 603 4863 
L 1178 4863 
L 1178 4134 
L 603 4134 
L 603 4863 
z
" transform="scale(0.015625)"/>
      <path id="DejaVuSans-67" d="M 2906 1791 
Q 2906 2416 2648 2759 
Q 2391 3103 1925 3103 
Q 1463 3103 1205 2759 
Q 947 2416 947 1791 
Q 947 1169 1205 825 
Q 1463 481 1925 481 
Q 2391 481 2648 825 
Q 2906 1169 2906 1791 
z
M 3481 434 
Q 3481 -459 3084 -895 
Q 2688 -1331 1869 -1331 
Q 1566 -1331 1297 -1286 
Q 1028 -1241 775 -1147 
L 775 -588 
Q 1028 -725 1275 -790 
Q 1522 -856 1778 -856 
Q 2344 -856 2625 -561 
Q 2906 -266 2906 331 
L 2906 616 
Q 2728 306 2450 153 
Q 2172 0 1784 0 
Q 1141 0 747 490 
Q 353 981 353 1791 
Q 353 2603 747 3093 
Q 1141 3584 1784 3584 
Q 2172 3584 2450 3431 
Q 2728 3278 2906 2969 
L 2906 3500 
L 3481 3500 
L 3481 434 
z
" transform="scale(0.015625)"/>
      <path id="DejaVuSans-73" d="M 2834 3397 
L 2834 2853 
Q 2591 2978 2328 3040 
Q 2066 3103 1784 3103 
Q 1356 3103 1142 2972 
Q 928 2841 928 2578 
Q 928 2378 1081 2264 
Q 1234 2150 1697 2047 
L 1894 2003 
Q 2506 1872 2764 1633 
Q 3022 1394 3022 966 
Q 3022 478 2636 193 
Q 2250 -91 1575 -91 
Q 1294 -91 989 -36 
Q 684 19 347 128 
L 347 722 
Q 666 556 975 473 
Q 1284 391 1588 391 
Q 1994 391 2212 530 
Q 2431 669 2431 922 
Q 2431 1156 2273 1281 
Q 2116 1406 1581 1522 
L 1381 1569 
Q 847 1681 609 1914 
Q 372 2147 372 2553 
Q 372 3047 722 3315 
Q 1072 3584 1716 3584 
Q 2034 3584 2315 3537 
Q 2597 3491 2834 3397 
z
" transform="scale(0.015625)"/>
     </defs>
     <use xlink:href="#DejaVuSans-53"/>
     <use xlink:href="#DejaVuSans-74" x="63.476562"/>
     <use xlink:href="#DejaVuSans-61" x="102.685547"/>
     <use xlink:href="#DejaVuSans-6e" x="163.964844"/>
     <use xlink:href="#DejaVuSans-64" x="227.34375"/>
     <use xlink:href="#DejaVuSans-69" x="290.820312"/>
     <use xlink:href="#DejaVuSans-6e" x="318.603516"/>
     <use xlink:href="#DejaVuSans-67" x="381.982422"/>
     <use xlink:href="#DejaVuSans-73" x="445.458984"/>
    </g>
   </g>
   <g id="legend_1">
    <g id="patch_7">
     <path d="M 57.87 166.983125 
L 153.949688 166.983125 
Q 155.949688 166.983125 155.949688 164.983125 
L 155.949688 33.88 
Q 155.949688 31.88 153.949688 31.88 
L 57.87 31.88 
Q 55.87 31.88 55.87 33.88 
L 55.87 164.983125 
Q 55.87 166.983125 57.87 166.983125 
z
" style="fill: #ffffff; opacity: 0.8; stroke: #cccccc; stroke-linejoin: miter"/>
    </g>
    <g id="line2d_34">
     <path d="M 59.87 39.978437 
L 69.87 39.978437 
L 79.87 39.978437 
" style="fill: none; stroke: #1f77b4; stroke-width: 1.5; stroke-linecap: square"/>
     <g>
      <use xlink:href="#m93f45d74fe" x="69.87" y="39.978437" style="fill: #1f77b4; stroke: #1f77b4"/>
     </g>
    </g>
    <g id="text_15">
     <!-- Alan Ce -->
     <g transform="translate(87.87 43.478437) scale(0.1 -0.1)">
      <defs>
       <path id="DejaVuSans-41" d="M 2188 4044 
L 1331 1722 
L 3047 1722 
L 2188 4044 
z
M 1831 4666 
L 2547 4666 
L 4325 0 
L 3669 0 
L 3244 1197 
L 1141 1197 
L 716 0 
L 50 0 
L 1831 4666 
z
" transform="scale(0.015625)"/>
       <path id="DejaVuSans-6c" d="M 603 4863 
L 1178 4863 
L 1178 0 
L 603 0 
L 603 4863 
z
" transform="scale(0.015625)"/>
       <path id="DejaVuSans-20" transform="scale(0.015625)"/>
       <path id="DejaVuSans-43" d="M 4122 4306 
L 4122 3641 
Q 3803 3938 3442 4084 
Q 3081 4231 2675 4231 
Q 1875 4231 1450 3742 
Q 1025 3253 1025 2328 
Q 1025 1406 1450 917 
Q 1875 428 2675 428 
Q 3081 428 3442 575 
Q 3803 722 4122 1019 
L 4122 359 
Q 3791 134 3420 21 
Q 3050 -91 2638 -91 
Q 1578 -91 968 557 
Q 359 1206 359 2328 
Q 359 3453 968 4101 
Q 1578 4750 2638 4750 
Q 3056 4750 3426 4639 
Q 3797 4528 4122 4306 
z
" transform="scale(0.015625)"/>
      </defs>
      <use xlink:href="#DejaVuSans-41"/>
      <use xlink:href="#DejaVuSans-6c" x="68.408203"/>
      <use xlink:href="#DejaVuSans-61" x="96.191406"/>
      <use xlink:href="#DejaVuSans-6e" x="157.470703"/>
      <use xlink:href="#DejaVuSans-20" x="220.849609"/>
      <use xlink:href="#DejaVuSans-43" x="252.636719"/>
      <use xlink:href="#DejaVuSans-65" x="322.460938"/>
     </g>
    </g>
    <g id="line2d_35">
     <path d="M 59.87 54.656563 
L 69.87 54.656563 
L 79.87 54.656563 
" style="fill: none; stroke: #ff7f0e; stroke-width: 1.5; stroke-linecap: square"/>
     <g>
      <use xlink:href="#m1acb264500" x="69.87" y="54.656563" style="fill: #ff7f0e; stroke: #ff7f0e"/>
     </g>
    </g>
    <g id="text_16">
     <!-- Sebastian Le -->
     <g transform="translate(87.87 58.156563) scale(0.1 -0.1)">
      <defs>
       <path id="DejaVuSans-62" d="M 3116 1747 
Q 3116 2381 2855 2742 
Q 2594 3103 2138 3103 
Q 1681 3103 1420 2742 
Q 1159 2381 1159 1747 
Q 1159 1113 1420 752 
Q 1681 391 2138 391 
Q 2594 391 2855 752 
Q 3116 1113 3116 1747 
z
M 1159 2969 
Q 1341 3281 1617 3432 
Q 1894 3584 2278 3584 
Q 2916 3584 3314 3078 
Q 3713 2572 3713 1747 
Q 3713 922 3314 415 
Q 2916 -91 2278 -91 
Q 1894 -91 1617 61 
Q 1341 213 1159 525 
L 1159 0 
L 581 0 
L 581 4863 
L 1159 4863 
L 1159 2969 
z
" transform="scale(0.015625)"/>
       <path id="DejaVuSans-4c" d="M 628 4666 
L 1259 4666 
L 1259 531 
L 3531 531 
L 3531 0 
L 628 0 
L 628 4666 
z
" transform="scale(0.015625)"/>
      </defs>
      <use xlink:href="#DejaVuSans-53"/>
      <use xlink:href="#DejaVuSans-65" x="63.476562"/>
      <use xlink:href="#DejaVuSans-62" x="125"/>
      <use xlink:href="#DejaVuSans-61" x="188.476562"/>
      <use xlink:href="#DejaVuSans-73" x="249.755859"/>
      <use xlink:href="#DejaVuSans-74" x="301.855469"/>
      <use xlink:href="#DejaVuSans-69" x="341.064453"/>
      <use xlink:href="#DejaVuSans-61" x="368.847656"/>
      <use xlink:href="#DejaVuSans-6e" x="430.126953"/>
      <use xlink:href="#DejaVuSans-20" x="493.505859"/>
      <use xlink:href="#DejaVuSans-4c" x="525.292969"/>
      <use xlink:href="#DejaVuSans-65" x="579.255859"/>
     </g>
    </g>
    <g id="line2d_36">
     <path d="M 59.87 69.334687 
L 69.87 69.334687 
L 79.87 69.334687 
" style="fill: none; stroke: #2ca02c; stroke-width: 1.5; stroke-linecap: square"/>
     <g>
      <use xlink:href="#m78ac07a52e" x="69.87" y="69.334687" style="fill: #2ca02c; stroke: #2ca02c"/>
     </g>
    </g>
    <g id="text_17">
     <!-- Sarah Gy -->
     <g transform="translate(87.87 72.834687) scale(0.1 -0.1)">
      <defs>
       <path id="DejaVuSans-68" d="M 3513 2113 
L 3513 0 
L 2938 0 
L 2938 2094 
Q 2938 2591 2744 2837 
Q 2550 3084 2163 3084 
Q 1697 3084 1428 2787 
Q 1159 2491 1159 1978 
L 1159 0 
L 581 0 
L 581 4863 
L 1159 4863 
L 1159 2956 
Q 1366 3272 1645 3428 
Q 1925 3584 2291 3584 
Q 2894 3584 3203 3211 
Q 3513 2838 3513 2113 
z
" transform="scale(0.015625)"/>
       <path id="DejaVuSans-47" d="M 3809 666 
L 3809 1919 
L 2778 1919 
L 2778 2438 
L 4434 2438 
L 4434 434 
Q 4069 175 3628 42 
Q 3188 -91 2688 -91 
Q 1594 -91 976 548 
Q 359 1188 359 2328 
Q 359 3472 976 4111 
Q 1594 4750 2688 4750 
Q 3144 4750 3555 4637 
Q 3966 4525 4313 4306 
L 4313 3634 
Q 3963 3931 3569 4081 
Q 3175 4231 2741 4231 
Q 1884 4231 1454 3753 
Q 1025 3275 1025 2328 
Q 1025 1384 1454 906 
Q 1884 428 2741 428 
Q 3075 428 3337 486 
Q 3600 544 3809 666 
z
" transform="scale(0.015625)"/>
       <path id="DejaVuSans-79" d="M 2059 -325 
Q 1816 -950 1584 -1140 
Q 1353 -1331 966 -1331 
L 506 -1331 
L 506 -850 
L 844 -850 
Q 1081 -850 1212 -737 
Q 1344 -625 1503 -206 
L 1606 56 
L 191 3500 
L 800 3500 
L 1894 763 
L 2988 3500 
L 3597 3500 
L 2059 -325 
z
" transform="scale(0.015625)"/>
      </defs>
      <use xlink:href="#DejaVuSans-53"/>
      <use xlink:href="#DejaVuSans-61" x="63.476562"/>
      <use xlink:href="#DejaVuSans-72" x="124.755859"/>
      <use xlink:href="#DejaVuSans-61" x="165.869141"/>
      <use xlink:href="#DejaVuSans-68" x="227.148438"/>
      <use xlink:href="#DejaVuSans-20" x="290.527344"/>
      <use xlink:href="#DejaVuSans-47" x="322.314453"/>
      <use xlink:href="#DejaVuSans-79" x="399.804688"/>
     </g>
    </g>
    <g id="line2d_37">
     <path d="M 59.87 84.012812 
L 69.87 84.012812 
L 79.87 84.012812 
" style="fill: none; stroke: #d62728; stroke-width: 1.5; stroke-linecap: square"/>
     <g>
      <use xlink:href="#m32aa20a211" x="69.87" y="84.012812" style="fill: #d62728; stroke: #d62728"/>
     </g>
    </g>
    <g id="text_18">
     <!-- Matias BN -->
     <g transform="translate(87.87 87.512812) scale(0.1 -0.1)">
      <defs>
       <path id="DejaVuSans-4d" d="M 628 4666 
L 1569 4666 
L 2759 1491 
L 3956 4666 
L 4897 4666 
L 4897 0 
L 4281 0 
L 4281 4097 
L 3078 897 
L 2444 897 
L 1241 4097 
L 1241 0 
L 628 0 
L 628 4666 
z
" transform="scale(0.015625)"/>
       <path id="DejaVuSans-42" d="M 1259 2228 
L 1259 519 
L 2272 519 
Q 2781 519 3026 730 
Q 3272 941 3272 1375 
Q 3272 1813 3026 2020 
Q 2781 2228 2272 2228 
L 1259 2228 
z
M 1259 4147 
L 1259 2741 
L 2194 2741 
Q 2656 2741 2882 2914 
Q 3109 3088 3109 3444 
Q 3109 3797 2882 3972 
Q 2656 4147 2194 4147 
L 1259 4147 
z
M 628 4666 
L 2241 4666 
Q 2963 4666 3353 4366 
Q 3744 4066 3744 3513 
Q 3744 3084 3544 2831 
Q 3344 2578 2956 2516 
Q 3422 2416 3680 2098 
Q 3938 1781 3938 1306 
Q 3938 681 3513 340 
Q 3088 0 2303 0 
L 628 0 
L 628 4666 
z
" transform="scale(0.015625)"/>
       <path id="DejaVuSans-4e" d="M 628 4666 
L 1478 4666 
L 3547 763 
L 3547 4666 
L 4159 4666 
L 4159 0 
L 3309 0 
L 1241 3903 
L 1241 0 
L 628 0 
L 628 4666 
z
" transform="scale(0.015625)"/>
      </defs>
      <use xlink:href="#DejaVuSans-4d"/>
      <use xlink:href="#DejaVuSans-61" x="86.279297"/>
      <use xlink:href="#DejaVuSans-74" x="147.558594"/>
      <use xlink:href="#DejaVuSans-69" x="186.767578"/>
      <use xlink:href="#DejaVuSans-61" x="214.550781"/>
      <use xlink:href="#DejaVuSans-73" x="275.830078"/>
      <use xlink:href="#DejaVuSans-20" x="327.929688"/>
      <use xlink:href="#DejaVuSans-42" x="359.716797"/>
      <use xlink:href="#DejaVuSans-4e" x="428.320312"/>
     </g>
    </g>
    <g id="line2d_38">
     <path d="M 59.87 98.690938 
L 69.87 98.690938 
L 79.87 98.690938 
" style="fill: none; stroke: #9467bd; stroke-width: 1.5; stroke-linecap: square"/>
     <g>
      <use xlink:href="#m4e41dfc15a" x="69.87" y="98.690938" style="fill: #9467bd; stroke: #9467bd"/>
     </g>
    </g>
    <g id="text_19">
     <!-- Christian Gr -->
     <g transform="translate(87.87 102.190938) scale(0.1 -0.1)">
      <use xlink:href="#DejaVuSans-43"/>
      <use xlink:href="#DejaVuSans-68" x="69.824219"/>
      <use xlink:href="#DejaVuSans-72" x="133.203125"/>
      <use xlink:href="#DejaVuSans-69" x="174.316406"/>
      <use xlink:href="#DejaVuSans-73" x="202.099609"/>
      <use xlink:href="#DejaVuSans-74" x="254.199219"/>
      <use xlink:href="#DejaVuSans-69" x="293.408203"/>
      <use xlink:href="#DejaVuSans-61" x="321.191406"/>
      <use xlink:href="#DejaVuSans-6e" x="382.470703"/>
      <use xlink:href="#DejaVuSans-20" x="445.849609"/>
      <use xlink:href="#DejaVuSans-47" x="477.636719"/>
      <use xlink:href="#DejaVuSans-72" x="555.126953"/>
     </g>
    </g>
    <g id="line2d_39">
     <path d="M 59.87 113.369062 
L 69.87 113.369062 
L 79.87 113.369062 
" style="fill: none; stroke: #8c564b; stroke-width: 1.5; stroke-linecap: square"/>
     <g>
      <use xlink:href="#m7470cc140f" x="69.87" y="113.369062" style="fill: #8c564b; stroke: #8c564b"/>
     </g>
    </g>
    <g id="text_20">
     <!-- Oscar En -->
     <g transform="translate(87.87 116.869062) scale(0.1 -0.1)">
      <defs>
       <path id="DejaVuSans-4f" d="M 2522 4238 
Q 1834 4238 1429 3725 
Q 1025 3213 1025 2328 
Q 1025 1447 1429 934 
Q 1834 422 2522 422 
Q 3209 422 3611 934 
Q 4013 1447 4013 2328 
Q 4013 3213 3611 3725 
Q 3209 4238 2522 4238 
z
M 2522 4750 
Q 3503 4750 4090 4092 
Q 4678 3434 4678 2328 
Q 4678 1225 4090 567 
Q 3503 -91 2522 -91 
Q 1538 -91 948 565 
Q 359 1222 359 2328 
Q 359 3434 948 4092 
Q 1538 4750 2522 4750 
z
" transform="scale(0.015625)"/>
       <path id="DejaVuSans-45" d="M 628 4666 
L 3578 4666 
L 3578 4134 
L 1259 4134 
L 1259 2753 
L 3481 2753 
L 3481 2222 
L 1259 2222 
L 1259 531 
L 3634 531 
L 3634 0 
L 628 0 
L 628 4666 
z
" transform="scale(0.015625)"/>
      </defs>
      <use xlink:href="#DejaVuSans-4f"/>
      <use xlink:href="#DejaVuSans-73" x="78.710938"/>
      <use xlink:href="#DejaVuSans-63" x="130.810547"/>
      <use xlink:href="#DejaVuSans-61" x="185.791016"/>
      <use xlink:href="#DejaVuSans-72" x="247.070312"/>
      <use xlink:href="#DejaVuSans-20" x="288.183594"/>
      <use xlink:href="#DejaVuSans-45" x="319.970703"/>
      <use xlink:href="#DejaVuSans-6e" x="383.154297"/>
     </g>
    </g>
    <g id="line2d_40">
     <path d="M 59.87 128.047187 
L 69.87 128.047187 
L 79.87 128.047187 
" style="fill: none; stroke: #e377c2; stroke-width: 1.5; stroke-linecap: square"/>
     <g>
      <use xlink:href="#mf6e000ce4e" x="69.87" y="128.047187" style="fill: #e377c2; stroke: #e377c2"/>
     </g>
    </g>
    <g id="text_21">
     <!-- Bjarke Ha -->
     <g transform="translate(87.87 131.547187) scale(0.1 -0.1)">
      <defs>
       <path id="DejaVuSans-6a" d="M 603 3500 
L 1178 3500 
L 1178 -63 
Q 1178 -731 923 -1031 
Q 669 -1331 103 -1331 
L -116 -1331 
L -116 -844 
L 38 -844 
Q 366 -844 484 -692 
Q 603 -541 603 -63 
L 603 3500 
z
M 603 4863 
L 1178 4863 
L 1178 4134 
L 603 4134 
L 603 4863 
z
" transform="scale(0.015625)"/>
       <path id="DejaVuSans-6b" d="M 581 4863 
L 1159 4863 
L 1159 1991 
L 2875 3500 
L 3609 3500 
L 1753 1863 
L 3688 0 
L 2938 0 
L 1159 1709 
L 1159 0 
L 581 0 
L 581 4863 
z
" transform="scale(0.015625)"/>
       <path id="DejaVuSans-48" d="M 628 4666 
L 1259 4666 
L 1259 2753 
L 3553 2753 
L 3553 4666 
L 4184 4666 
L 4184 0 
L 3553 0 
L 3553 2222 
L 1259 2222 
L 1259 0 
L 628 0 
L 628 4666 
z
" transform="scale(0.015625)"/>
      </defs>
      <use xlink:href="#DejaVuSans-42"/>
      <use xlink:href="#DejaVuSans-6a" x="68.603516"/>
      <use xlink:href="#DejaVuSans-61" x="96.386719"/>
      <use xlink:href="#DejaVuSans-72" x="157.666016"/>
      <use xlink:href="#DejaVuSans-6b" x="198.779297"/>
      <use xlink:href="#DejaVuSans-65" x="253.064453"/>
      <use xlink:href="#DejaVuSans-20" x="314.587891"/>
      <use xlink:href="#DejaVuSans-48" x="346.375"/>
      <use xlink:href="#DejaVuSans-61" x="421.570312"/>
     </g>
    </g>
    <g id="line2d_41">
     <path d="M 59.87 142.725312 
L 69.87 142.725312 
L 79.87 142.725312 
" style="fill: none; stroke: #7f7f7f; stroke-width: 1.5; stroke-linecap: square"/>
     <g>
      <use xlink:href="#m9a9381fe67" x="69.87" y="142.725312" style="fill: #7f7f7f; stroke: #7f7f7f"/>
     </g>
    </g>
    <g id="text_22">
     <!-- Sif Ma -->
     <g transform="translate(87.87 146.225312) scale(0.1 -0.1)">
      <defs>
       <path id="DejaVuSans-66" d="M 2375 4863 
L 2375 4384 
L 1825 4384 
Q 1516 4384 1395 4259 
Q 1275 4134 1275 3809 
L 1275 3500 
L 2222 3500 
L 2222 3053 
L 1275 3053 
L 1275 0 
L 697 0 
L 697 3053 
L 147 3053 
L 147 3500 
L 697 3500 
L 697 3744 
Q 697 4328 969 4595 
Q 1241 4863 1831 4863 
L 2375 4863 
z
" transform="scale(0.015625)"/>
      </defs>
      <use xlink:href="#DejaVuSans-53"/>
      <use xlink:href="#DejaVuSans-69" x="63.476562"/>
      <use xlink:href="#DejaVuSans-66" x="91.259766"/>
      <use xlink:href="#DejaVuSans-20" x="126.464844"/>
      <use xlink:href="#DejaVuSans-4d" x="158.251953"/>
      <use xlink:href="#DejaVuSans-61" x="244.53125"/>
     </g>
    </g>
    <g id="line2d_42">
     <path d="M 59.87 157.403437 
L 69.87 157.403437 
L 79.87 157.403437 
" style="fill: none; stroke: #bcbd22; stroke-width: 1.5; stroke-linecap: square"/>
     <g>
      <use xlink:href="#m1b9888d01c" x="69.87" y="157.403437" style="fill: #bcbd22; stroke: #bcbd22"/>
     </g>
    </g>
    <g id="text_23">
     <!-- Helene Cl -->
     <g transform="translate(87.87 160.903437) scale(0.1 -0.1)">
      <use xlink:href="#DejaVuSans-48"/>
      <use xlink:href="#DejaVuSans-65" x="75.195312"/>
      <use xlink:href="#DejaVuSans-6c" x="136.71875"/>
      <use xlink:href="#DejaVuSans-65" x="164.501953"/>
      <use xlink:href="#DejaVuSans-6e" x="226.025391"/>
      <use xlink:href="#DejaVuSans-65" x="289.404297"/>
      <use xlink:href="#DejaVuSans-20" x="350.927734"/>
      <use xlink:href="#DejaVuSans-43" x="382.714844"/>
      <use xlink:href="#DejaVuSans-6c" x="452.539062"/>
     </g>
    </g>
   </g>
  </g>
 </g>
 <defs>
  <clipPath id="p44e9483b70">
   <rect x="50.87" y="26.88" width="802.33" height="377.24"/>
  </clipPath>
 </defs>
</svg>
