<?xml version="1.0" encoding="utf-8" standalone="no"?>
<!DOCTYPE svg PUBLIC "-//W3C//DTD SVG 1.1//EN"
  "http://www.w3.org/Graphics/SVG/1.1/DTD/svg11.dtd">
<svg xmlns:xlink="http://www.w3.org/1999/xlink" width="864pt" height="432pt" viewBox="0 0 864 432" xmlns="http://www.w3.org/2000/svg" version="1.1">
 <metadata>
  <rdf:RDF xmlns:dc="http://purl.org/dc/elements/1.1/" xmlns:cc="http://creativecommons.org/ns#" xmlns:rdf="http://www.w3.org/1999/02/22-rdf-syntax-ns#">
   <cc:Work>
    <dc:type rdf:resource="http://purl.org/dc/dcmitype/StillImage"/>
    <dc:date>2024-07-28T01:49:35.617490</dc:date>
    <dc:format>image/svg+xml</dc:format>
    <dc:creator>
     <cc:Agent>
      <dc:title>Matplotlib v3.9.1, https://matplotlib.org/</dc:title>
     </cc:Agent>
    </dc:creator>
   </cc:Work>
  </rdf:RDF>
 </metadata>
 <defs>
  <style type="text/css">*{stroke-linejoin: round; stroke-linecap: butt}</style>
 </defs>
 <g id="figure_1">
  <g id="patch_1">
   <path d="M 0 432 
L 864 432 
L 864 0 
L 0 0 
z
" style="fill: #ffffff"/>
  </g>
  <g id="axes_1">
   <g id="patch_2">
    <path d="M 50.87 404.12 
L 853.2 404.12 
L 853.2 26.88 
L 50.87 26.88 
z
" style="fill: #ffffff"/>
   </g>
   <g id="matplotlib.axis_1">
    <g id="xtick_1">
     <g id="line2d_1">
      <path d="M 103.916612 404.12 
L 103.916612 26.88 
" clip-path="url(#p942e494474)" style="fill: none; stroke-dasharray: 2.96,1.28; stroke-dashoffset: 0; stroke: #b0b0b0; stroke-width: 0.8"/>
     </g>
     <g id="line2d_2">
      <defs>
       <path id="mfc3300728a" d="M 0 0 
L 0 3.5 
" style="stroke: #000000; stroke-width: 0.8"/>
      </defs>
      <g>
       <use xlink:href="#mfc3300728a" x="103.916612" y="404.12" style="stroke: #000000; stroke-width: 0.8"/>
      </g>
     </g>
     <g id="text_1">
      <!-- 2024-06-15 -->
      <g transform="translate(74.858799 418.718437) scale(0.1 -0.1)">
       <defs>
        <path id="DejaVuSans-32" d="M 1228 531 
L 3431 531 
L 3431 0 
L 469 0 
L 469 531 
Q 828 903 1448 1529 
Q 2069 2156 2228 2338 
Q 2531 2678 2651 2914 
Q 2772 3150 2772 3378 
Q 2772 3750 2511 3984 
Q 2250 4219 1831 4219 
Q 1534 4219 1204 4116 
Q 875 4013 500 3803 
L 500 4441 
Q 881 4594 1212 4672 
Q 1544 4750 1819 4750 
Q 2544 4750 2975 4387 
Q 3406 4025 3406 3419 
Q 3406 3131 3298 2873 
Q 3191 2616 2906 2266 
Q 2828 2175 2409 1742 
Q 1991 1309 1228 531 
z
" transform="scale(0.015625)"/>
        <path id="DejaVuSans-30" d="M 2034 4250 
Q 1547 4250 1301 3770 
Q 1056 3291 1056 2328 
Q 1056 1369 1301 889 
Q 1547 409 2034 409 
Q 2525 409 2770 889 
Q 3016 1369 3016 2328 
Q 3016 3291 2770 3770 
Q 2525 4250 2034 4250 
z
M 2034 4750 
Q 2819 4750 3233 4129 
Q 3647 3509 3647 2328 
Q 3647 1150 3233 529 
Q 2819 -91 2034 -91 
Q 1250 -91 836 529 
Q 422 1150 422 2328 
Q 422 3509 836 4129 
Q 1250 4750 2034 4750 
z
" transform="scale(0.015625)"/>
        <path id="DejaVuSans-34" d="M 2419 4116 
L 825 1625 
L 2419 1625 
L 2419 4116 
z
M 2253 4666 
L 3047 4666 
L 3047 1625 
L 3713 1625 
L 3713 1100 
L 3047 1100 
L 3047 0 
L 2419 0 
L 2419 1100 
L 313 1100 
L 313 1709 
L 2253 4666 
z
" transform="scale(0.015625)"/>
        <path id="DejaVuSans-2d" d="M 313 2009 
L 1997 2009 
L 1997 1497 
L 313 1497 
L 313 2009 
z
" transform="scale(0.015625)"/>
        <path id="DejaVuSans-36" d="M 2113 2584 
Q 1688 2584 1439 2293 
Q 1191 2003 1191 1497 
Q 1191 994 1439 701 
Q 1688 409 2113 409 
Q 2538 409 2786 701 
Q 3034 994 3034 1497 
Q 3034 2003 2786 2293 
Q 2538 2584 2113 2584 
z
M 3366 4563 
L 3366 3988 
Q 3128 4100 2886 4159 
Q 2644 4219 2406 4219 
Q 1781 4219 1451 3797 
Q 1122 3375 1075 2522 
Q 1259 2794 1537 2939 
Q 1816 3084 2150 3084 
Q 2853 3084 3261 2657 
Q 3669 2231 3669 1497 
Q 3669 778 3244 343 
Q 2819 -91 2113 -91 
Q 1303 -91 875 529 
Q 447 1150 447 2328 
Q 447 3434 972 4092 
Q 1497 4750 2381 4750 
Q 2619 4750 2861 4703 
Q 3103 4656 3366 4563 
z
" transform="scale(0.015625)"/>
        <path id="DejaVuSans-31" d="M 794 531 
L 1825 531 
L 1825 4091 
L 703 3866 
L 703 4441 
L 1819 4666 
L 2450 4666 
L 2450 531 
L 3481 531 
L 3481 0 
L 794 0 
L 794 531 
z
" transform="scale(0.015625)"/>
        <path id="DejaVuSans-35" d="M 691 4666 
L 3169 4666 
L 3169 4134 
L 1269 4134 
L 1269 2991 
Q 1406 3038 1543 3061 
Q 1681 3084 1819 3084 
Q 2600 3084 3056 2656 
Q 3513 2228 3513 1497 
Q 3513 744 3044 326 
Q 2575 -91 1722 -91 
Q 1428 -91 1123 -41 
Q 819 9 494 109 
L 494 744 
Q 775 591 1075 516 
Q 1375 441 1709 441 
Q 2250 441 2565 725 
Q 2881 1009 2881 1497 
Q 2881 1984 2565 2268 
Q 2250 2553 1709 2553 
Q 1456 2553 1204 2497 
Q 953 2441 691 2322 
L 691 4666 
z
" transform="scale(0.015625)"/>
       </defs>
       <use xlink:href="#DejaVuSans-32"/>
       <use xlink:href="#DejaVuSans-30" x="63.623047"/>
       <use xlink:href="#DejaVuSans-32" x="127.246094"/>
       <use xlink:href="#DejaVuSans-34" x="190.869141"/>
       <use xlink:href="#DejaVuSans-2d" x="254.492188"/>
       <use xlink:href="#DejaVuSans-30" x="290.576172"/>
       <use xlink:href="#DejaVuSans-36" x="354.199219"/>
       <use xlink:href="#DejaVuSans-2d" x="417.822266"/>
       <use xlink:href="#DejaVuSans-31" x="453.90625"/>
       <use xlink:href="#DejaVuSans-35" x="517.529297"/>
      </g>
     </g>
    </g>
    <g id="xtick_2">
     <g id="line2d_3">
      <path d="M 219.956074 404.12 
L 219.956074 26.88 
" clip-path="url(#p942e494474)" style="fill: none; stroke-dasharray: 2.96,1.28; stroke-dashoffset: 0; stroke: #b0b0b0; stroke-width: 0.8"/>
     </g>
     <g id="line2d_4">
      <g>
       <use xlink:href="#mfc3300728a" x="219.956074" y="404.12" style="stroke: #000000; stroke-width: 0.8"/>
      </g>
     </g>
     <g id="text_2">
      <!-- 2024-06-22 -->
      <g transform="translate(190.898262 418.718437) scale(0.1 -0.1)">
       <use xlink:href="#DejaVuSans-32"/>
       <use xlink:href="#DejaVuSans-30" x="63.623047"/>
       <use xlink:href="#DejaVuSans-32" x="127.246094"/>
       <use xlink:href="#DejaVuSans-34" x="190.869141"/>
       <use xlink:href="#DejaVuSans-2d" x="254.492188"/>
       <use xlink:href="#DejaVuSans-30" x="290.576172"/>
       <use xlink:href="#DejaVuSans-36" x="354.199219"/>
       <use xlink:href="#DejaVuSans-2d" x="417.822266"/>
       <use xlink:href="#DejaVuSans-32" x="453.90625"/>
       <use xlink:href="#DejaVuSans-32" x="517.529297"/>
      </g>
     </g>
    </g>
    <g id="xtick_3">
     <g id="line2d_5">
      <path d="M 369.149669 404.12 
L 369.149669 26.88 
" clip-path="url(#p942e494474)" style="fill: none; stroke-dasharray: 2.96,1.28; stroke-dashoffset: 0; stroke: #b0b0b0; stroke-width: 0.8"/>
     </g>
     <g id="line2d_6">
      <g>
       <use xlink:href="#mfc3300728a" x="369.149669" y="404.12" style="stroke: #000000; stroke-width: 0.8"/>
      </g>
     </g>
     <g id="text_3">
      <!-- 2024-07-01 -->
      <g transform="translate(340.091857 418.718437) scale(0.1 -0.1)">
       <defs>
        <path id="DejaVuSans-37" d="M 525 4666 
L 3525 4666 
L 3525 4397 
L 1831 0 
L 1172 0 
L 2766 4134 
L 525 4134 
L 525 4666 
z
" transform="scale(0.015625)"/>
       </defs>
       <use xlink:href="#DejaVuSans-32"/>
       <use xlink:href="#DejaVuSans-30" x="63.623047"/>
       <use xlink:href="#DejaVuSans-32" x="127.246094"/>
       <use xlink:href="#DejaVuSans-34" x="190.869141"/>
       <use xlink:href="#DejaVuSans-2d" x="254.492188"/>
       <use xlink:href="#DejaVuSans-30" x="290.576172"/>
       <use xlink:href="#DejaVuSans-37" x="354.199219"/>
       <use xlink:href="#DejaVuSans-2d" x="417.822266"/>
       <use xlink:href="#DejaVuSans-30" x="453.90625"/>
       <use xlink:href="#DejaVuSans-31" x="517.529297"/>
      </g>
     </g>
    </g>
    <g id="xtick_4">
     <g id="line2d_7">
      <path d="M 485.189132 404.12 
L 485.189132 26.88 
" clip-path="url(#p942e494474)" style="fill: none; stroke-dasharray: 2.96,1.28; stroke-dashoffset: 0; stroke: #b0b0b0; stroke-width: 0.8"/>
     </g>
     <g id="line2d_8">
      <g>
       <use xlink:href="#mfc3300728a" x="485.189132" y="404.12" style="stroke: #000000; stroke-width: 0.8"/>
      </g>
     </g>
     <g id="text_4">
      <!-- 2024-07-08 -->
      <g transform="translate(456.13132 418.718437) scale(0.1 -0.1)">
       <defs>
        <path id="DejaVuSans-38" d="M 2034 2216 
Q 1584 2216 1326 1975 
Q 1069 1734 1069 1313 
Q 1069 891 1326 650 
Q 1584 409 2034 409 
Q 2484 409 2743 651 
Q 3003 894 3003 1313 
Q 3003 1734 2745 1975 
Q 2488 2216 2034 2216 
z
M 1403 2484 
Q 997 2584 770 2862 
Q 544 3141 544 3541 
Q 544 4100 942 4425 
Q 1341 4750 2034 4750 
Q 2731 4750 3128 4425 
Q 3525 4100 3525 3541 
Q 3525 3141 3298 2862 
Q 3072 2584 2669 2484 
Q 3125 2378 3379 2068 
Q 3634 1759 3634 1313 
Q 3634 634 3220 271 
Q 2806 -91 2034 -91 
Q 1263 -91 848 271 
Q 434 634 434 1313 
Q 434 1759 690 2068 
Q 947 2378 1403 2484 
z
M 1172 3481 
Q 1172 3119 1398 2916 
Q 1625 2713 2034 2713 
Q 2441 2713 2670 2916 
Q 2900 3119 2900 3481 
Q 2900 3844 2670 4047 
Q 2441 4250 2034 4250 
Q 1625 4250 1398 4047 
Q 1172 3844 1172 3481 
z
" transform="scale(0.015625)"/>
       </defs>
       <use xlink:href="#DejaVuSans-32"/>
       <use xlink:href="#DejaVuSans-30" x="63.623047"/>
       <use xlink:href="#DejaVuSans-32" x="127.246094"/>
       <use xlink:href="#DejaVuSans-34" x="190.869141"/>
       <use xlink:href="#DejaVuSans-2d" x="254.492188"/>
       <use xlink:href="#DejaVuSans-30" x="290.576172"/>
       <use xlink:href="#DejaVuSans-37" x="354.199219"/>
       <use xlink:href="#DejaVuSans-2d" x="417.822266"/>
       <use xlink:href="#DejaVuSans-30" x="453.90625"/>
       <use xlink:href="#DejaVuSans-38" x="517.529297"/>
      </g>
     </g>
    </g>
    <g id="xtick_5">
     <g id="line2d_9">
      <path d="M 601.228595 404.12 
L 601.228595 26.88 
" clip-path="url(#p942e494474)" style="fill: none; stroke-dasharray: 2.96,1.28; stroke-dashoffset: 0; stroke: #b0b0b0; stroke-width: 0.8"/>
     </g>
     <g id="line2d_10">
      <g>
       <use xlink:href="#mfc3300728a" x="601.228595" y="404.12" style="stroke: #000000; stroke-width: 0.8"/>
      </g>
     </g>
     <g id="text_5">
      <!-- 2024-07-15 -->
      <g transform="translate(572.170783 418.718437) scale(0.1 -0.1)">
       <use xlink:href="#DejaVuSans-32"/>
       <use xlink:href="#DejaVuSans-30" x="63.623047"/>
       <use xlink:href="#DejaVuSans-32" x="127.246094"/>
       <use xlink:href="#DejaVuSans-34" x="190.869141"/>
       <use xlink:href="#DejaVuSans-2d" x="254.492188"/>
       <use xlink:href="#DejaVuSans-30" x="290.576172"/>
       <use xlink:href="#DejaVuSans-37" x="354.199219"/>
       <use xlink:href="#DejaVuSans-2d" x="417.822266"/>
       <use xlink:href="#DejaVuSans-31" x="453.90625"/>
       <use xlink:href="#DejaVuSans-35" x="517.529297"/>
      </g>
     </g>
    </g>
    <g id="xtick_6">
     <g id="line2d_11">
      <path d="M 717.268058 404.12 
L 717.268058 26.88 
" clip-path="url(#p942e494474)" style="fill: none; stroke-dasharray: 2.96,1.28; stroke-dashoffset: 0; stroke: #b0b0b0; stroke-width: 0.8"/>
     </g>
     <g id="line2d_12">
      <g>
       <use xlink:href="#mfc3300728a" x="717.268058" y="404.12" style="stroke: #000000; stroke-width: 0.8"/>
      </g>
     </g>
     <g id="text_6">
      <!-- 2024-07-22 -->
      <g transform="translate(688.210245 418.718437) scale(0.1 -0.1)">
       <use xlink:href="#DejaVuSans-32"/>
       <use xlink:href="#DejaVuSans-30" x="63.623047"/>
       <use xlink:href="#DejaVuSans-32" x="127.246094"/>
       <use xlink:href="#DejaVuSans-34" x="190.869141"/>
       <use xlink:href="#DejaVuSans-2d" x="254.492188"/>
       <use xlink:href="#DejaVuSans-30" x="290.576172"/>
       <use xlink:href="#DejaVuSans-37" x="354.199219"/>
       <use xlink:href="#DejaVuSans-2d" x="417.822266"/>
       <use xlink:href="#DejaVuSans-32" x="453.90625"/>
       <use xlink:href="#DejaVuSans-32" x="517.529297"/>
      </g>
     </g>
    </g>
   </g>
   <g id="matplotlib.axis_2">
    <g id="ytick_1">
     <g id="line2d_13">
      <path d="M 50.87 389.44957 
L 853.2 389.44957 
" clip-path="url(#p942e494474)" style="fill: none; stroke-dasharray: 2.96,1.28; stroke-dashoffset: 0; stroke: #b0b0b0; stroke-width: 0.8"/>
     </g>
     <g id="line2d_14">
      <defs>
       <path id="m0b20d70d00" d="M 0 0 
L -3.5 0 
" style="stroke: #000000; stroke-width: 0.8"/>
      </defs>
      <g>
       <use xlink:href="#m0b20d70d00" x="50.87" y="389.44957" style="stroke: #000000; stroke-width: 0.8"/>
      </g>
     </g>
     <g id="text_7">
      <!-- 0 -->
      <g transform="translate(37.5075 393.248788) scale(0.1 -0.1)">
       <use xlink:href="#DejaVuSans-30"/>
      </g>
     </g>
    </g>
    <g id="ytick_2">
     <g id="line2d_15">
      <path d="M 50.87 327.770074 
L 853.2 327.770074 
" clip-path="url(#p942e494474)" style="fill: none; stroke-dasharray: 2.96,1.28; stroke-dashoffset: 0; stroke: #b0b0b0; stroke-width: 0.8"/>
     </g>
     <g id="line2d_16">
      <g>
       <use xlink:href="#m0b20d70d00" x="50.87" y="327.770074" style="stroke: #000000; stroke-width: 0.8"/>
      </g>
     </g>
     <g id="text_8">
      <!-- 50 -->
      <g transform="translate(31.145 331.569292) scale(0.1 -0.1)">
       <use xlink:href="#DejaVuSans-35"/>
       <use xlink:href="#DejaVuSans-30" x="63.623047"/>
      </g>
     </g>
    </g>
    <g id="ytick_3">
     <g id="line2d_17">
      <path d="M 50.87 266.090578 
L 853.2 266.090578 
" clip-path="url(#p942e494474)" style="fill: none; stroke-dasharray: 2.96,1.28; stroke-dashoffset: 0; stroke: #b0b0b0; stroke-width: 0.8"/>
     </g>
     <g id="line2d_18">
      <g>
       <use xlink:href="#m0b20d70d00" x="50.87" y="266.090578" style="stroke: #000000; stroke-width: 0.8"/>
      </g>
     </g>
     <g id="text_9">
      <!-- 100 -->
      <g transform="translate(24.7825 269.889796) scale(0.1 -0.1)">
       <use xlink:href="#DejaVuSans-31"/>
       <use xlink:href="#DejaVuSans-30" x="63.623047"/>
       <use xlink:href="#DejaVuSans-30" x="127.246094"/>
      </g>
     </g>
    </g>
    <g id="ytick_4">
     <g id="line2d_19">
      <path d="M 50.87 204.411081 
L 853.2 204.411081 
" clip-path="url(#p942e494474)" style="fill: none; stroke-dasharray: 2.96,1.28; stroke-dashoffset: 0; stroke: #b0b0b0; stroke-width: 0.8"/>
     </g>
     <g id="line2d_20">
      <g>
       <use xlink:href="#m0b20d70d00" x="50.87" y="204.411081" style="stroke: #000000; stroke-width: 0.8"/>
      </g>
     </g>
     <g id="text_10">
      <!-- 150 -->
      <g transform="translate(24.7825 208.2103) scale(0.1 -0.1)">
       <use xlink:href="#DejaVuSans-31"/>
       <use xlink:href="#DejaVuSans-35" x="63.623047"/>
       <use xlink:href="#DejaVuSans-30" x="127.246094"/>
      </g>
     </g>
    </g>
    <g id="ytick_5">
     <g id="line2d_21">
      <path d="M 50.87 142.731585 
L 853.2 142.731585 
" clip-path="url(#p942e494474)" style="fill: none; stroke-dasharray: 2.96,1.28; stroke-dashoffset: 0; stroke: #b0b0b0; stroke-width: 0.8"/>
     </g>
     <g id="line2d_22">
      <g>
       <use xlink:href="#m0b20d70d00" x="50.87" y="142.731585" style="stroke: #000000; stroke-width: 0.8"/>
      </g>
     </g>
     <g id="text_11">
      <!-- 200 -->
      <g transform="translate(24.7825 146.530804) scale(0.1 -0.1)">
       <use xlink:href="#DejaVuSans-32"/>
       <use xlink:href="#DejaVuSans-30" x="63.623047"/>
       <use xlink:href="#DejaVuSans-30" x="127.246094"/>
      </g>
     </g>
    </g>
    <g id="ytick_6">
     <g id="line2d_23">
      <path d="M 50.87 81.052089 
L 853.2 81.052089 
" clip-path="url(#p942e494474)" style="fill: none; stroke-dasharray: 2.96,1.28; stroke-dashoffset: 0; stroke: #b0b0b0; stroke-width: 0.8"/>
     </g>
     <g id="line2d_24">
      <g>
       <use xlink:href="#m0b20d70d00" x="50.87" y="81.052089" style="stroke: #000000; stroke-width: 0.8"/>
      </g>
     </g>
     <g id="text_12">
      <!-- 250 -->
      <g transform="translate(24.7825 84.851308) scale(0.1 -0.1)">
       <use xlink:href="#DejaVuSans-32"/>
       <use xlink:href="#DejaVuSans-35" x="63.623047"/>
       <use xlink:href="#DejaVuSans-30" x="127.246094"/>
      </g>
     </g>
    </g>
    <g id="text_13">
     <!-- Score -->
     <g transform="translate(18.702813 229.502344) rotate(-90) scale(0.1 -0.1)">
      <defs>
       <path id="DejaVuSans-53" d="M 3425 4513 
L 3425 3897 
Q 3066 4069 2747 4153 
Q 2428 4238 2131 4238 
Q 1616 4238 1336 4038 
Q 1056 3838 1056 3469 
Q 1056 3159 1242 3001 
Q 1428 2844 1947 2747 
L 2328 2669 
Q 3034 2534 3370 2195 
Q 3706 1856 3706 1288 
Q 3706 609 3251 259 
Q 2797 -91 1919 -91 
Q 1588 -91 1214 -16 
Q 841 59 441 206 
L 441 856 
Q 825 641 1194 531 
Q 1563 422 1919 422 
Q 2459 422 2753 634 
Q 3047 847 3047 1241 
Q 3047 1584 2836 1778 
Q 2625 1972 2144 2069 
L 1759 2144 
Q 1053 2284 737 2584 
Q 422 2884 422 3419 
Q 422 4038 858 4394 
Q 1294 4750 2059 4750 
Q 2388 4750 2728 4690 
Q 3069 4631 3425 4513 
z
" transform="scale(0.015625)"/>
       <path id="DejaVuSans-63" d="M 3122 3366 
L 3122 2828 
Q 2878 2963 2633 3030 
Q 2388 3097 2138 3097 
Q 1578 3097 1268 2742 
Q 959 2388 959 1747 
Q 959 1106 1268 751 
Q 1578 397 2138 397 
Q 2388 397 2633 464 
Q 2878 531 3122 666 
L 3122 134 
Q 2881 22 2623 -34 
Q 2366 -91 2075 -91 
Q 1284 -91 818 406 
Q 353 903 353 1747 
Q 353 2603 823 3093 
Q 1294 3584 2113 3584 
Q 2378 3584 2631 3529 
Q 2884 3475 3122 3366 
z
" transform="scale(0.015625)"/>
       <path id="DejaVuSans-6f" d="M 1959 3097 
Q 1497 3097 1228 2736 
Q 959 2375 959 1747 
Q 959 1119 1226 758 
Q 1494 397 1959 397 
Q 2419 397 2687 759 
Q 2956 1122 2956 1747 
Q 2956 2369 2687 2733 
Q 2419 3097 1959 3097 
z
M 1959 3584 
Q 2709 3584 3137 3096 
Q 3566 2609 3566 1747 
Q 3566 888 3137 398 
Q 2709 -91 1959 -91 
Q 1206 -91 779 398 
Q 353 888 353 1747 
Q 353 2609 779 3096 
Q 1206 3584 1959 3584 
z
" transform="scale(0.015625)"/>
       <path id="DejaVuSans-72" d="M 2631 2963 
Q 2534 3019 2420 3045 
Q 2306 3072 2169 3072 
Q 1681 3072 1420 2755 
Q 1159 2438 1159 1844 
L 1159 0 
L 581 0 
L 581 3500 
L 1159 3500 
L 1159 2956 
Q 1341 3275 1631 3429 
Q 1922 3584 2338 3584 
Q 2397 3584 2469 3576 
Q 2541 3569 2628 3553 
L 2631 2963 
z
" transform="scale(0.015625)"/>
       <path id="DejaVuSans-65" d="M 3597 1894 
L 3597 1613 
L 953 1613 
Q 991 1019 1311 708 
Q 1631 397 2203 397 
Q 2534 397 2845 478 
Q 3156 559 3463 722 
L 3463 178 
Q 3153 47 2828 -22 
Q 2503 -91 2169 -91 
Q 1331 -91 842 396 
Q 353 884 353 1716 
Q 353 2575 817 3079 
Q 1281 3584 2069 3584 
Q 2775 3584 3186 3129 
Q 3597 2675 3597 1894 
z
M 3022 2063 
Q 3016 2534 2758 2815 
Q 2500 3097 2075 3097 
Q 1594 3097 1305 2825 
Q 1016 2553 972 2059 
L 3022 2063 
z
" transform="scale(0.015625)"/>
      </defs>
      <use xlink:href="#DejaVuSans-53"/>
      <use xlink:href="#DejaVuSans-63" x="63.476562"/>
      <use xlink:href="#DejaVuSans-6f" x="118.457031"/>
      <use xlink:href="#DejaVuSans-72" x="179.638672"/>
      <use xlink:href="#DejaVuSans-65" x="218.501953"/>
     </g>
    </g>
   </g>
   <g id="line2d_25">
    <path d="M 87.339545 383.220852 
L 103.916612 352.381104 
L 120.493678 327.709306 
L 137.070744 315.373407 
L 153.64781 296.869558 
L 170.224876 275.898529 
L 186.801942 268.49699 
L 203.379008 259.86186 
L 219.956074 241.358012 
L 236.53314 220.386983 
L 253.110207 187.080055 
L 269.687273 169.809796 
L 286.264339 142.670818 
L 335.995537 142.670818 
L 352.572603 142.670818 
L 369.149669 142.670818 
L 385.726736 142.670818 
L 402.303802 142.670818 
L 435.457934 142.670818 
L 452.035 142.670818 
L 468.612066 142.670818 
L 485.189132 142.670818 
L 501.766198 142.670818 
L 518.343264 124.166969 
L 534.920331 124.166969 
L 551.497397 124.166969 
L 568.074463 124.166969 
L 584.651529 124.166969 
L 601.228595 80.991322 
L 617.805661 80.991322 
L 634.382727 80.991322 
L 650.959793 80.991322 
L 667.53686 80.991322 
L 684.113926 80.991322 
L 700.690992 80.991322 
L 717.268058 80.991322 
L 733.845124 80.991322 
L 750.42219 80.991322 
L 766.999256 80.991322 
L 783.576322 80.991322 
L 800.153388 80.991322 
L 816.730455 80.991322 
" clip-path="url(#p942e494474)" style="fill: none; stroke: #1f77b4; stroke-width: 1.5; stroke-linecap: square"/>
    <defs>
     <path id="m151850ede0" d="M 0 3.5 
C 0.928211 3.5 1.81853 3.131218 2.474874 2.474874 
C 3.131218 1.81853 3.5 0.928211 3.5 0 
C 3.5 -0.928211 3.131218 -1.81853 2.474874 -2.474874 
C 1.81853 -3.131218 0.928211 -3.5 0 -3.5 
C -0.928211 -3.5 -1.81853 -3.131218 -2.474874 -2.474874 
C -3.131218 -1.81853 -3.5 -0.928211 -3.5 0 
C -3.5 0.928211 -3.131218 1.81853 -2.474874 2.474874 
C -1.81853 3.131218 -0.928211 3.5 0 3.5 
z
" style="stroke: #1f77b4"/>
    </defs>
    <g clip-path="url(#p942e494474)">
     <use xlink:href="#m151850ede0" x="87.339545" y="383.220852" style="fill: #1f77b4; stroke: #1f77b4"/>
     <use xlink:href="#m151850ede0" x="103.916612" y="352.381104" style="fill: #1f77b4; stroke: #1f77b4"/>
     <use xlink:href="#m151850ede0" x="120.493678" y="327.709306" style="fill: #1f77b4; stroke: #1f77b4"/>
     <use xlink:href="#m151850ede0" x="137.070744" y="315.373407" style="fill: #1f77b4; stroke: #1f77b4"/>
     <use xlink:href="#m151850ede0" x="153.64781" y="296.869558" style="fill: #1f77b4; stroke: #1f77b4"/>
     <use xlink:href="#m151850ede0" x="170.224876" y="275.898529" style="fill: #1f77b4; stroke: #1f77b4"/>
     <use xlink:href="#m151850ede0" x="186.801942" y="268.49699" style="fill: #1f77b4; stroke: #1f77b4"/>
     <use xlink:href="#m151850ede0" x="203.379008" y="259.86186" style="fill: #1f77b4; stroke: #1f77b4"/>
     <use xlink:href="#m151850ede0" x="219.956074" y="241.358012" style="fill: #1f77b4; stroke: #1f77b4"/>
     <use xlink:href="#m151850ede0" x="236.53314" y="220.386983" style="fill: #1f77b4; stroke: #1f77b4"/>
     <use xlink:href="#m151850ede0" x="253.110207" y="187.080055" style="fill: #1f77b4; stroke: #1f77b4"/>
     <use xlink:href="#m151850ede0" x="269.687273" y="169.809796" style="fill: #1f77b4; stroke: #1f77b4"/>
     <use xlink:href="#m151850ede0" x="286.264339" y="142.670818" style="fill: #1f77b4; stroke: #1f77b4"/>
     <use xlink:href="#m151850ede0" x="335.995537" y="142.670818" style="fill: #1f77b4; stroke: #1f77b4"/>
     <use xlink:href="#m151850ede0" x="352.572603" y="142.670818" style="fill: #1f77b4; stroke: #1f77b4"/>
     <use xlink:href="#m151850ede0" x="369.149669" y="142.670818" style="fill: #1f77b4; stroke: #1f77b4"/>
     <use xlink:href="#m151850ede0" x="385.726736" y="142.670818" style="fill: #1f77b4; stroke: #1f77b4"/>
     <use xlink:href="#m151850ede0" x="402.303802" y="142.670818" style="fill: #1f77b4; stroke: #1f77b4"/>
     <use xlink:href="#m151850ede0" x="435.457934" y="142.670818" style="fill: #1f77b4; stroke: #1f77b4"/>
     <use xlink:href="#m151850ede0" x="452.035" y="142.670818" style="fill: #1f77b4; stroke: #1f77b4"/>
     <use xlink:href="#m151850ede0" x="468.612066" y="142.670818" style="fill: #1f77b4; stroke: #1f77b4"/>
     <use xlink:href="#m151850ede0" x="485.189132" y="142.670818" style="fill: #1f77b4; stroke: #1f77b4"/>
     <use xlink:href="#m151850ede0" x="501.766198" y="142.670818" style="fill: #1f77b4; stroke: #1f77b4"/>
     <use xlink:href="#m151850ede0" x="518.343264" y="124.166969" style="fill: #1f77b4; stroke: #1f77b4"/>
     <use xlink:href="#m151850ede0" x="534.920331" y="124.166969" style="fill: #1f77b4; stroke: #1f77b4"/>
     <use xlink:href="#m151850ede0" x="551.497397" y="124.166969" style="fill: #1f77b4; stroke: #1f77b4"/>
     <use xlink:href="#m151850ede0" x="568.074463" y="124.166969" style="fill: #1f77b4; stroke: #1f77b4"/>
     <use xlink:href="#m151850ede0" x="584.651529" y="124.166969" style="fill: #1f77b4; stroke: #1f77b4"/>
     <use xlink:href="#m151850ede0" x="601.228595" y="80.991322" style="fill: #1f77b4; stroke: #1f77b4"/>
     <use xlink:href="#m151850ede0" x="617.805661" y="80.991322" style="fill: #1f77b4; stroke: #1f77b4"/>
     <use xlink:href="#m151850ede0" x="634.382727" y="80.991322" style="fill: #1f77b4; stroke: #1f77b4"/>
     <use xlink:href="#m151850ede0" x="650.959793" y="80.991322" style="fill: #1f77b4; stroke: #1f77b4"/>
     <use xlink:href="#m151850ede0" x="667.53686" y="80.991322" style="fill: #1f77b4; stroke: #1f77b4"/>
     <use xlink:href="#m151850ede0" x="684.113926" y="80.991322" style="fill: #1f77b4; stroke: #1f77b4"/>
     <use xlink:href="#m151850ede0" x="700.690992" y="80.991322" style="fill: #1f77b4; stroke: #1f77b4"/>
     <use xlink:href="#m151850ede0" x="717.268058" y="80.991322" style="fill: #1f77b4; stroke: #1f77b4"/>
     <use xlink:href="#m151850ede0" x="733.845124" y="80.991322" style="fill: #1f77b4; stroke: #1f77b4"/>
     <use xlink:href="#m151850ede0" x="750.42219" y="80.991322" style="fill: #1f77b4; stroke: #1f77b4"/>
     <use xlink:href="#m151850ede0" x="766.999256" y="80.991322" style="fill: #1f77b4; stroke: #1f77b4"/>
     <use xlink:href="#m151850ede0" x="783.576322" y="80.991322" style="fill: #1f77b4; stroke: #1f77b4"/>
     <use xlink:href="#m151850ede0" x="800.153388" y="80.991322" style="fill: #1f77b4; stroke: #1f77b4"/>
     <use xlink:href="#m151850ede0" x="816.730455" y="80.991322" style="fill: #1f77b4; stroke: #1f77b4"/>
    </g>
   </g>
   <g id="line2d_26">
    <path d="M 87.339545 383.388042 
L 103.916612 358.716244 
L 120.493678 343.913165 
L 137.070744 325.409316 
L 153.64781 300.737517 
L 170.224876 285.934438 
L 186.801942 261.26264 
L 203.379008 246.459561 
L 219.956074 215.619813 
L 236.53314 200.816734 
L 253.110207 176.144935 
L 269.687273 161.341856 
L 286.264339 111.99826 
L 335.995537 111.99826 
L 352.572603 111.99826 
L 369.149669 111.99826 
L 385.726736 111.99826 
L 402.303802 111.99826 
L 435.457934 111.99826 
L 452.035 111.99826 
L 468.612066 111.99826 
L 485.189132 111.99826 
L 501.766198 111.99826 
L 518.343264 111.99826 
L 534.920331 111.99826 
L 551.497397 111.99826 
L 568.074463 111.99826 
L 584.651529 111.99826 
L 601.228595 93.494411 
L 617.805661 93.494411 
L 634.382727 93.494411 
L 650.959793 93.494411 
L 667.53686 93.494411 
L 684.113926 93.494411 
L 700.690992 93.494411 
L 717.268058 93.494411 
L 733.845124 93.494411 
L 750.42219 93.494411 
L 766.999256 93.494411 
L 783.576322 93.494411 
L 800.153388 93.494411 
L 816.730455 93.494411 
" clip-path="url(#p942e494474)" style="fill: none; stroke: #ff7f0e; stroke-width: 1.5; stroke-linecap: square"/>
    <defs>
     <path id="m5452fa6725" d="M 0 3.5 
C 0.928211 3.5 1.81853 3.131218 2.474874 2.474874 
C 3.131218 1.81853 3.5 0.928211 3.5 0 
C 3.5 -0.928211 3.131218 -1.81853 2.474874 -2.474874 
C 1.81853 -3.131218 0.928211 -3.5 0 -3.5 
C -0.928211 -3.5 -1.81853 -3.131218 -2.474874 -2.474874 
C -3.131218 -1.81853 -3.5 -0.928211 -3.5 0 
C -3.5 0.928211 -3.131218 1.81853 -2.474874 2.474874 
C -1.81853 3.131218 -0.928211 3.5 0 3.5 
z
" style="stroke: #ff7f0e"/>
    </defs>
    <g clip-path="url(#p942e494474)">
     <use xlink:href="#m5452fa6725" x="87.339545" y="383.388042" style="fill: #ff7f0e; stroke: #ff7f0e"/>
     <use xlink:href="#m5452fa6725" x="103.916612" y="358.716244" style="fill: #ff7f0e; stroke: #ff7f0e"/>
     <use xlink:href="#m5452fa6725" x="120.493678" y="343.913165" style="fill: #ff7f0e; stroke: #ff7f0e"/>
     <use xlink:href="#m5452fa6725" x="137.070744" y="325.409316" style="fill: #ff7f0e; stroke: #ff7f0e"/>
     <use xlink:href="#m5452fa6725" x="153.64781" y="300.737517" style="fill: #ff7f0e; stroke: #ff7f0e"/>
     <use xlink:href="#m5452fa6725" x="170.224876" y="285.934438" style="fill: #ff7f0e; stroke: #ff7f0e"/>
     <use xlink:href="#m5452fa6725" x="186.801942" y="261.26264" style="fill: #ff7f0e; stroke: #ff7f0e"/>
     <use xlink:href="#m5452fa6725" x="203.379008" y="246.459561" style="fill: #ff7f0e; stroke: #ff7f0e"/>
     <use xlink:href="#m5452fa6725" x="219.956074" y="215.619813" style="fill: #ff7f0e; stroke: #ff7f0e"/>
     <use xlink:href="#m5452fa6725" x="236.53314" y="200.816734" style="fill: #ff7f0e; stroke: #ff7f0e"/>
     <use xlink:href="#m5452fa6725" x="253.110207" y="176.144935" style="fill: #ff7f0e; stroke: #ff7f0e"/>
     <use xlink:href="#m5452fa6725" x="269.687273" y="161.341856" style="fill: #ff7f0e; stroke: #ff7f0e"/>
     <use xlink:href="#m5452fa6725" x="286.264339" y="111.99826" style="fill: #ff7f0e; stroke: #ff7f0e"/>
     <use xlink:href="#m5452fa6725" x="335.995537" y="111.99826" style="fill: #ff7f0e; stroke: #ff7f0e"/>
     <use xlink:href="#m5452fa6725" x="352.572603" y="111.99826" style="fill: #ff7f0e; stroke: #ff7f0e"/>
     <use xlink:href="#m5452fa6725" x="369.149669" y="111.99826" style="fill: #ff7f0e; stroke: #ff7f0e"/>
     <use xlink:href="#m5452fa6725" x="385.726736" y="111.99826" style="fill: #ff7f0e; stroke: #ff7f0e"/>
     <use xlink:href="#m5452fa6725" x="402.303802" y="111.99826" style="fill: #ff7f0e; stroke: #ff7f0e"/>
     <use xlink:href="#m5452fa6725" x="435.457934" y="111.99826" style="fill: #ff7f0e; stroke: #ff7f0e"/>
     <use xlink:href="#m5452fa6725" x="452.035" y="111.99826" style="fill: #ff7f0e; stroke: #ff7f0e"/>
     <use xlink:href="#m5452fa6725" x="468.612066" y="111.99826" style="fill: #ff7f0e; stroke: #ff7f0e"/>
     <use xlink:href="#m5452fa6725" x="485.189132" y="111.99826" style="fill: #ff7f0e; stroke: #ff7f0e"/>
     <use xlink:href="#m5452fa6725" x="501.766198" y="111.99826" style="fill: #ff7f0e; stroke: #ff7f0e"/>
     <use xlink:href="#m5452fa6725" x="518.343264" y="111.99826" style="fill: #ff7f0e; stroke: #ff7f0e"/>
     <use xlink:href="#m5452fa6725" x="534.920331" y="111.99826" style="fill: #ff7f0e; stroke: #ff7f0e"/>
     <use xlink:href="#m5452fa6725" x="551.497397" y="111.99826" style="fill: #ff7f0e; stroke: #ff7f0e"/>
     <use xlink:href="#m5452fa6725" x="568.074463" y="111.99826" style="fill: #ff7f0e; stroke: #ff7f0e"/>
     <use xlink:href="#m5452fa6725" x="584.651529" y="111.99826" style="fill: #ff7f0e; stroke: #ff7f0e"/>
     <use xlink:href="#m5452fa6725" x="601.228595" y="93.494411" style="fill: #ff7f0e; stroke: #ff7f0e"/>
     <use xlink:href="#m5452fa6725" x="617.805661" y="93.494411" style="fill: #ff7f0e; stroke: #ff7f0e"/>
     <use xlink:href="#m5452fa6725" x="634.382727" y="93.494411" style="fill: #ff7f0e; stroke: #ff7f0e"/>
     <use xlink:href="#m5452fa6725" x="650.959793" y="93.494411" style="fill: #ff7f0e; stroke: #ff7f0e"/>
     <use xlink:href="#m5452fa6725" x="667.53686" y="93.494411" style="fill: #ff7f0e; stroke: #ff7f0e"/>
     <use xlink:href="#m5452fa6725" x="684.113926" y="93.494411" style="fill: #ff7f0e; stroke: #ff7f0e"/>
     <use xlink:href="#m5452fa6725" x="700.690992" y="93.494411" style="fill: #ff7f0e; stroke: #ff7f0e"/>
     <use xlink:href="#m5452fa6725" x="717.268058" y="93.494411" style="fill: #ff7f0e; stroke: #ff7f0e"/>
     <use xlink:href="#m5452fa6725" x="733.845124" y="93.494411" style="fill: #ff7f0e; stroke: #ff7f0e"/>
     <use xlink:href="#m5452fa6725" x="750.42219" y="93.494411" style="fill: #ff7f0e; stroke: #ff7f0e"/>
     <use xlink:href="#m5452fa6725" x="766.999256" y="93.494411" style="fill: #ff7f0e; stroke: #ff7f0e"/>
     <use xlink:href="#m5452fa6725" x="783.576322" y="93.494411" style="fill: #ff7f0e; stroke: #ff7f0e"/>
     <use xlink:href="#m5452fa6725" x="800.153388" y="93.494411" style="fill: #ff7f0e; stroke: #ff7f0e"/>
     <use xlink:href="#m5452fa6725" x="816.730455" y="93.494411" style="fill: #ff7f0e; stroke: #ff7f0e"/>
    </g>
   </g>
   <g id="line2d_27">
    <path d="M 87.339545 383.400147 
L 103.916612 352.560399 
L 120.493678 343.92527 
L 137.070744 337.75732 
L 153.64781 325.421421 
L 170.224876 301.983213 
L 186.801942 294.581673 
L 203.379008 279.778594 
L 219.956074 252.639616 
L 236.53314 231.668587 
L 253.110207 176.157041 
L 269.687273 161.353962 
L 286.264339 119.411904 
L 335.995537 119.411904 
L 352.572603 119.411904 
L 369.149669 119.411904 
L 385.726736 119.411904 
L 402.303802 119.411904 
L 435.457934 119.411904 
L 452.035 119.411904 
L 468.612066 119.411904 
L 485.189132 119.411904 
L 501.766198 119.411904 
L 518.343264 100.908055 
L 534.920331 100.908055 
L 551.497397 100.908055 
L 568.074463 100.908055 
L 584.651529 100.908055 
L 601.228595 82.404207 
L 617.805661 82.404207 
L 634.382727 82.404207 
L 650.959793 82.404207 
L 667.53686 82.404207 
L 684.113926 82.404207 
L 700.690992 82.404207 
L 717.268058 82.404207 
L 733.845124 82.404207 
L 750.42219 82.404207 
L 766.999256 82.404207 
L 783.576322 82.404207 
L 800.153388 82.404207 
L 816.730455 82.404207 
" clip-path="url(#p942e494474)" style="fill: none; stroke: #2ca02c; stroke-width: 1.5; stroke-linecap: square"/>
    <defs>
     <path id="m3be75c1bd3" d="M 0 3.5 
C 0.928211 3.5 1.81853 3.131218 2.474874 2.474874 
C 3.131218 1.81853 3.5 0.928211 3.5 0 
C 3.5 -0.928211 3.131218 -1.81853 2.474874 -2.474874 
C 1.81853 -3.131218 0.928211 -3.5 0 -3.5 
C -0.928211 -3.5 -1.81853 -3.131218 -2.474874 -2.474874 
C -3.131218 -1.81853 -3.5 -0.928211 -3.5 0 
C -3.5 0.928211 -3.131218 1.81853 -2.474874 2.474874 
C -1.81853 3.131218 -0.928211 3.5 0 3.5 
z
" style="stroke: #2ca02c"/>
    </defs>
    <g clip-path="url(#p942e494474)">
     <use xlink:href="#m3be75c1bd3" x="87.339545" y="383.400147" style="fill: #2ca02c; stroke: #2ca02c"/>
     <use xlink:href="#m3be75c1bd3" x="103.916612" y="352.560399" style="fill: #2ca02c; stroke: #2ca02c"/>
     <use xlink:href="#m3be75c1bd3" x="120.493678" y="343.92527" style="fill: #2ca02c; stroke: #2ca02c"/>
     <use xlink:href="#m3be75c1bd3" x="137.070744" y="337.75732" style="fill: #2ca02c; stroke: #2ca02c"/>
     <use xlink:href="#m3be75c1bd3" x="153.64781" y="325.421421" style="fill: #2ca02c; stroke: #2ca02c"/>
     <use xlink:href="#m3be75c1bd3" x="170.224876" y="301.983213" style="fill: #2ca02c; stroke: #2ca02c"/>
     <use xlink:href="#m3be75c1bd3" x="186.801942" y="294.581673" style="fill: #2ca02c; stroke: #2ca02c"/>
     <use xlink:href="#m3be75c1bd3" x="203.379008" y="279.778594" style="fill: #2ca02c; stroke: #2ca02c"/>
     <use xlink:href="#m3be75c1bd3" x="219.956074" y="252.639616" style="fill: #2ca02c; stroke: #2ca02c"/>
     <use xlink:href="#m3be75c1bd3" x="236.53314" y="231.668587" style="fill: #2ca02c; stroke: #2ca02c"/>
     <use xlink:href="#m3be75c1bd3" x="253.110207" y="176.157041" style="fill: #2ca02c; stroke: #2ca02c"/>
     <use xlink:href="#m3be75c1bd3" x="269.687273" y="161.353962" style="fill: #2ca02c; stroke: #2ca02c"/>
     <use xlink:href="#m3be75c1bd3" x="286.264339" y="119.411904" style="fill: #2ca02c; stroke: #2ca02c"/>
     <use xlink:href="#m3be75c1bd3" x="335.995537" y="119.411904" style="fill: #2ca02c; stroke: #2ca02c"/>
     <use xlink:href="#m3be75c1bd3" x="352.572603" y="119.411904" style="fill: #2ca02c; stroke: #2ca02c"/>
     <use xlink:href="#m3be75c1bd3" x="369.149669" y="119.411904" style="fill: #2ca02c; stroke: #2ca02c"/>
     <use xlink:href="#m3be75c1bd3" x="385.726736" y="119.411904" style="fill: #2ca02c; stroke: #2ca02c"/>
     <use xlink:href="#m3be75c1bd3" x="402.303802" y="119.411904" style="fill: #2ca02c; stroke: #2ca02c"/>
     <use xlink:href="#m3be75c1bd3" x="435.457934" y="119.411904" style="fill: #2ca02c; stroke: #2ca02c"/>
     <use xlink:href="#m3be75c1bd3" x="452.035" y="119.411904" style="fill: #2ca02c; stroke: #2ca02c"/>
     <use xlink:href="#m3be75c1bd3" x="468.612066" y="119.411904" style="fill: #2ca02c; stroke: #2ca02c"/>
     <use xlink:href="#m3be75c1bd3" x="485.189132" y="119.411904" style="fill: #2ca02c; stroke: #2ca02c"/>
     <use xlink:href="#m3be75c1bd3" x="501.766198" y="119.411904" style="fill: #2ca02c; stroke: #2ca02c"/>
     <use xlink:href="#m3be75c1bd3" x="518.343264" y="100.908055" style="fill: #2ca02c; stroke: #2ca02c"/>
     <use xlink:href="#m3be75c1bd3" x="534.920331" y="100.908055" style="fill: #2ca02c; stroke: #2ca02c"/>
     <use xlink:href="#m3be75c1bd3" x="551.497397" y="100.908055" style="fill: #2ca02c; stroke: #2ca02c"/>
     <use xlink:href="#m3be75c1bd3" x="568.074463" y="100.908055" style="fill: #2ca02c; stroke: #2ca02c"/>
     <use xlink:href="#m3be75c1bd3" x="584.651529" y="100.908055" style="fill: #2ca02c; stroke: #2ca02c"/>
     <use xlink:href="#m3be75c1bd3" x="601.228595" y="82.404207" style="fill: #2ca02c; stroke: #2ca02c"/>
     <use xlink:href="#m3be75c1bd3" x="617.805661" y="82.404207" style="fill: #2ca02c; stroke: #2ca02c"/>
     <use xlink:href="#m3be75c1bd3" x="634.382727" y="82.404207" style="fill: #2ca02c; stroke: #2ca02c"/>
     <use xlink:href="#m3be75c1bd3" x="650.959793" y="82.404207" style="fill: #2ca02c; stroke: #2ca02c"/>
     <use xlink:href="#m3be75c1bd3" x="667.53686" y="82.404207" style="fill: #2ca02c; stroke: #2ca02c"/>
     <use xlink:href="#m3be75c1bd3" x="684.113926" y="82.404207" style="fill: #2ca02c; stroke: #2ca02c"/>
     <use xlink:href="#m3be75c1bd3" x="700.690992" y="82.404207" style="fill: #2ca02c; stroke: #2ca02c"/>
     <use xlink:href="#m3be75c1bd3" x="717.268058" y="82.404207" style="fill: #2ca02c; stroke: #2ca02c"/>
     <use xlink:href="#m3be75c1bd3" x="733.845124" y="82.404207" style="fill: #2ca02c; stroke: #2ca02c"/>
     <use xlink:href="#m3be75c1bd3" x="750.42219" y="82.404207" style="fill: #2ca02c; stroke: #2ca02c"/>
     <use xlink:href="#m3be75c1bd3" x="766.999256" y="82.404207" style="fill: #2ca02c; stroke: #2ca02c"/>
     <use xlink:href="#m3be75c1bd3" x="783.576322" y="82.404207" style="fill: #2ca02c; stroke: #2ca02c"/>
     <use xlink:href="#m3be75c1bd3" x="800.153388" y="82.404207" style="fill: #2ca02c; stroke: #2ca02c"/>
     <use xlink:href="#m3be75c1bd3" x="816.730455" y="82.404207" style="fill: #2ca02c; stroke: #2ca02c"/>
    </g>
   </g>
   <g id="line2d_28">
    <path d="M 87.339545 383.260568 
L 103.916612 362.28954 
L 120.493678 347.486461 
L 137.070744 332.683382 
L 153.64781 326.515432 
L 170.224876 303.077224 
L 186.801942 291.974914 
L 203.379008 284.573375 
L 219.956074 259.901576 
L 236.53314 236.463368 
L 253.110207 199.45567 
L 269.687273 183.419001 
L 286.264339 156.280023 
L 335.995537 156.280023 
L 352.572603 156.280023 
L 369.149669 156.280023 
L 385.726736 156.280023 
L 402.303802 156.280023 
L 435.457934 156.280023 
L 452.035 156.280023 
L 468.612066 156.280023 
L 485.189132 156.280023 
L 501.766198 156.280023 
L 518.343264 137.776174 
L 534.920331 137.776174 
L 551.497397 137.776174 
L 568.074463 137.776174 
L 584.651529 137.776174 
L 601.228595 106.936426 
L 617.805661 106.936426 
L 634.382727 106.936426 
L 650.959793 106.936426 
L 667.53686 106.936426 
L 684.113926 106.936426 
L 700.690992 106.936426 
L 717.268058 106.936426 
L 733.845124 106.936426 
L 750.42219 106.936426 
L 766.999256 106.936426 
L 783.576322 106.936426 
L 800.153388 106.936426 
L 816.730455 106.936426 
" clip-path="url(#p942e494474)" style="fill: none; stroke: #d62728; stroke-width: 1.5; stroke-linecap: square"/>
    <defs>
     <path id="m85162f1755" d="M 0 3.5 
C 0.928211 3.5 1.81853 3.131218 2.474874 2.474874 
C 3.131218 1.81853 3.5 0.928211 3.5 0 
C 3.5 -0.928211 3.131218 -1.81853 2.474874 -2.474874 
C 1.81853 -3.131218 0.928211 -3.5 0 -3.5 
C -0.928211 -3.5 -1.81853 -3.131218 -2.474874 -2.474874 
C -3.131218 -1.81853 -3.5 -0.928211 -3.5 0 
C -3.5 0.928211 -3.131218 1.81853 -2.474874 2.474874 
C -1.81853 3.131218 -0.928211 3.5 0 3.5 
z
" style="stroke: #d62728"/>
    </defs>
    <g clip-path="url(#p942e494474)">
     <use xlink:href="#m85162f1755" x="87.339545" y="383.260568" style="fill: #d62728; stroke: #d62728"/>
     <use xlink:href="#m85162f1755" x="103.916612" y="362.28954" style="fill: #d62728; stroke: #d62728"/>
     <use xlink:href="#m85162f1755" x="120.493678" y="347.486461" style="fill: #d62728; stroke: #d62728"/>
     <use xlink:href="#m85162f1755" x="137.070744" y="332.683382" style="fill: #d62728; stroke: #d62728"/>
     <use xlink:href="#m85162f1755" x="153.64781" y="326.515432" style="fill: #d62728; stroke: #d62728"/>
     <use xlink:href="#m85162f1755" x="170.224876" y="303.077224" style="fill: #d62728; stroke: #d62728"/>
     <use xlink:href="#m85162f1755" x="186.801942" y="291.974914" style="fill: #d62728; stroke: #d62728"/>
     <use xlink:href="#m85162f1755" x="203.379008" y="284.573375" style="fill: #d62728; stroke: #d62728"/>
     <use xlink:href="#m85162f1755" x="219.956074" y="259.901576" style="fill: #d62728; stroke: #d62728"/>
     <use xlink:href="#m85162f1755" x="236.53314" y="236.463368" style="fill: #d62728; stroke: #d62728"/>
     <use xlink:href="#m85162f1755" x="253.110207" y="199.45567" style="fill: #d62728; stroke: #d62728"/>
     <use xlink:href="#m85162f1755" x="269.687273" y="183.419001" style="fill: #d62728; stroke: #d62728"/>
     <use xlink:href="#m85162f1755" x="286.264339" y="156.280023" style="fill: #d62728; stroke: #d62728"/>
     <use xlink:href="#m85162f1755" x="335.995537" y="156.280023" style="fill: #d62728; stroke: #d62728"/>
     <use xlink:href="#m85162f1755" x="352.572603" y="156.280023" style="fill: #d62728; stroke: #d62728"/>
     <use xlink:href="#m85162f1755" x="369.149669" y="156.280023" style="fill: #d62728; stroke: #d62728"/>
     <use xlink:href="#m85162f1755" x="385.726736" y="156.280023" style="fill: #d62728; stroke: #d62728"/>
     <use xlink:href="#m85162f1755" x="402.303802" y="156.280023" style="fill: #d62728; stroke: #d62728"/>
     <use xlink:href="#m85162f1755" x="435.457934" y="156.280023" style="fill: #d62728; stroke: #d62728"/>
     <use xlink:href="#m85162f1755" x="452.035" y="156.280023" style="fill: #d62728; stroke: #d62728"/>
     <use xlink:href="#m85162f1755" x="468.612066" y="156.280023" style="fill: #d62728; stroke: #d62728"/>
     <use xlink:href="#m85162f1755" x="485.189132" y="156.280023" style="fill: #d62728; stroke: #d62728"/>
     <use xlink:href="#m85162f1755" x="501.766198" y="156.280023" style="fill: #d62728; stroke: #d62728"/>
     <use xlink:href="#m85162f1755" x="518.343264" y="137.776174" style="fill: #d62728; stroke: #d62728"/>
     <use xlink:href="#m85162f1755" x="534.920331" y="137.776174" style="fill: #d62728; stroke: #d62728"/>
     <use xlink:href="#m85162f1755" x="551.497397" y="137.776174" style="fill: #d62728; stroke: #d62728"/>
     <use xlink:href="#m85162f1755" x="568.074463" y="137.776174" style="fill: #d62728; stroke: #d62728"/>
     <use xlink:href="#m85162f1755" x="584.651529" y="137.776174" style="fill: #d62728; stroke: #d62728"/>
     <use xlink:href="#m85162f1755" x="601.228595" y="106.936426" style="fill: #d62728; stroke: #d62728"/>
     <use xlink:href="#m85162f1755" x="617.805661" y="106.936426" style="fill: #d62728; stroke: #d62728"/>
     <use xlink:href="#m85162f1755" x="634.382727" y="106.936426" style="fill: #d62728; stroke: #d62728"/>
     <use xlink:href="#m85162f1755" x="650.959793" y="106.936426" style="fill: #d62728; stroke: #d62728"/>
     <use xlink:href="#m85162f1755" x="667.53686" y="106.936426" style="fill: #d62728; stroke: #d62728"/>
     <use xlink:href="#m85162f1755" x="684.113926" y="106.936426" style="fill: #d62728; stroke: #d62728"/>
     <use xlink:href="#m85162f1755" x="700.690992" y="106.936426" style="fill: #d62728; stroke: #d62728"/>
     <use xlink:href="#m85162f1755" x="717.268058" y="106.936426" style="fill: #d62728; stroke: #d62728"/>
     <use xlink:href="#m85162f1755" x="733.845124" y="106.936426" style="fill: #d62728; stroke: #d62728"/>
     <use xlink:href="#m85162f1755" x="750.42219" y="106.936426" style="fill: #d62728; stroke: #d62728"/>
     <use xlink:href="#m85162f1755" x="766.999256" y="106.936426" style="fill: #d62728; stroke: #d62728"/>
     <use xlink:href="#m85162f1755" x="783.576322" y="106.936426" style="fill: #d62728; stroke: #d62728"/>
     <use xlink:href="#m85162f1755" x="800.153388" y="106.936426" style="fill: #d62728; stroke: #d62728"/>
     <use xlink:href="#m85162f1755" x="816.730455" y="106.936426" style="fill: #d62728; stroke: #d62728"/>
    </g>
   </g>
   <g id="line2d_29">
    <path d="M 87.339545 383.186057 
L 103.916612 349.879129 
L 120.493678 322.740151 
L 137.070744 307.937072 
L 153.64781 293.133993 
L 170.224876 278.330914 
L 186.801942 275.863734 
L 203.379008 254.892706 
L 219.956074 224.052958 
L 236.53314 200.614749 
L 253.110207 163.607051 
L 269.687273 148.803972 
L 286.264339 121.664994 
L 335.995537 121.664994 
L 352.572603 121.664994 
L 369.149669 121.664994 
L 385.726736 121.664994 
L 402.303802 121.664994 
L 435.457934 121.664994 
L 452.035 121.664994 
L 468.612066 121.664994 
L 485.189132 121.664994 
L 501.766198 121.664994 
L 518.343264 103.161145 
L 534.920331 103.161145 
L 551.497397 103.161145 
L 568.074463 103.161145 
L 584.651529 103.161145 
L 601.228595 78.489347 
L 617.805661 78.489347 
L 634.382727 78.489347 
L 650.959793 78.489347 
L 667.53686 78.489347 
L 684.113926 78.489347 
L 700.690992 78.489347 
L 717.268058 78.489347 
L 733.845124 78.489347 
L 750.42219 78.489347 
L 766.999256 78.489347 
L 783.576322 78.489347 
L 800.153388 78.489347 
L 816.730455 78.489347 
" clip-path="url(#p942e494474)" style="fill: none; stroke: #9467bd; stroke-width: 1.5; stroke-linecap: square"/>
    <defs>
     <path id="m3a6b3a7ee3" d="M 0 3.5 
C 0.928211 3.5 1.81853 3.131218 2.474874 2.474874 
C 3.131218 1.81853 3.5 0.928211 3.5 0 
C 3.5 -0.928211 3.131218 -1.81853 2.474874 -2.474874 
C 1.81853 -3.131218 0.928211 -3.5 0 -3.5 
C -0.928211 -3.5 -1.81853 -3.131218 -2.474874 -2.474874 
C -3.131218 -1.81853 -3.5 -0.928211 -3.5 0 
C -3.5 0.928211 -3.131218 1.81853 -2.474874 2.474874 
C -1.81853 3.131218 -0.928211 3.5 0 3.5 
z
" style="stroke: #9467bd"/>
    </defs>
    <g clip-path="url(#p942e494474)">
     <use xlink:href="#m3a6b3a7ee3" x="87.339545" y="383.186057" style="fill: #9467bd; stroke: #9467bd"/>
     <use xlink:href="#m3a6b3a7ee3" x="103.916612" y="349.879129" style="fill: #9467bd; stroke: #9467bd"/>
     <use xlink:href="#m3a6b3a7ee3" x="120.493678" y="322.740151" style="fill: #9467bd; stroke: #9467bd"/>
     <use xlink:href="#m3a6b3a7ee3" x="137.070744" y="307.937072" style="fill: #9467bd; stroke: #9467bd"/>
     <use xlink:href="#m3a6b3a7ee3" x="153.64781" y="293.133993" style="fill: #9467bd; stroke: #9467bd"/>
     <use xlink:href="#m3a6b3a7ee3" x="170.224876" y="278.330914" style="fill: #9467bd; stroke: #9467bd"/>
     <use xlink:href="#m3a6b3a7ee3" x="186.801942" y="275.863734" style="fill: #9467bd; stroke: #9467bd"/>
     <use xlink:href="#m3a6b3a7ee3" x="203.379008" y="254.892706" style="fill: #9467bd; stroke: #9467bd"/>
     <use xlink:href="#m3a6b3a7ee3" x="219.956074" y="224.052958" style="fill: #9467bd; stroke: #9467bd"/>
     <use xlink:href="#m3a6b3a7ee3" x="236.53314" y="200.614749" style="fill: #9467bd; stroke: #9467bd"/>
     <use xlink:href="#m3a6b3a7ee3" x="253.110207" y="163.607051" style="fill: #9467bd; stroke: #9467bd"/>
     <use xlink:href="#m3a6b3a7ee3" x="269.687273" y="148.803972" style="fill: #9467bd; stroke: #9467bd"/>
     <use xlink:href="#m3a6b3a7ee3" x="286.264339" y="121.664994" style="fill: #9467bd; stroke: #9467bd"/>
     <use xlink:href="#m3a6b3a7ee3" x="335.995537" y="121.664994" style="fill: #9467bd; stroke: #9467bd"/>
     <use xlink:href="#m3a6b3a7ee3" x="352.572603" y="121.664994" style="fill: #9467bd; stroke: #9467bd"/>
     <use xlink:href="#m3a6b3a7ee3" x="369.149669" y="121.664994" style="fill: #9467bd; stroke: #9467bd"/>
     <use xlink:href="#m3a6b3a7ee3" x="385.726736" y="121.664994" style="fill: #9467bd; stroke: #9467bd"/>
     <use xlink:href="#m3a6b3a7ee3" x="402.303802" y="121.664994" style="fill: #9467bd; stroke: #9467bd"/>
     <use xlink:href="#m3a6b3a7ee3" x="435.457934" y="121.664994" style="fill: #9467bd; stroke: #9467bd"/>
     <use xlink:href="#m3a6b3a7ee3" x="452.035" y="121.664994" style="fill: #9467bd; stroke: #9467bd"/>
     <use xlink:href="#m3a6b3a7ee3" x="468.612066" y="121.664994" style="fill: #9467bd; stroke: #9467bd"/>
     <use xlink:href="#m3a6b3a7ee3" x="485.189132" y="121.664994" style="fill: #9467bd; stroke: #9467bd"/>
     <use xlink:href="#m3a6b3a7ee3" x="501.766198" y="121.664994" style="fill: #9467bd; stroke: #9467bd"/>
     <use xlink:href="#m3a6b3a7ee3" x="518.343264" y="103.161145" style="fill: #9467bd; stroke: #9467bd"/>
     <use xlink:href="#m3a6b3a7ee3" x="534.920331" y="103.161145" style="fill: #9467bd; stroke: #9467bd"/>
     <use xlink:href="#m3a6b3a7ee3" x="551.497397" y="103.161145" style="fill: #9467bd; stroke: #9467bd"/>
     <use xlink:href="#m3a6b3a7ee3" x="568.074463" y="103.161145" style="fill: #9467bd; stroke: #9467bd"/>
     <use xlink:href="#m3a6b3a7ee3" x="584.651529" y="103.161145" style="fill: #9467bd; stroke: #9467bd"/>
     <use xlink:href="#m3a6b3a7ee3" x="601.228595" y="78.489347" style="fill: #9467bd; stroke: #9467bd"/>
     <use xlink:href="#m3a6b3a7ee3" x="617.805661" y="78.489347" style="fill: #9467bd; stroke: #9467bd"/>
     <use xlink:href="#m3a6b3a7ee3" x="634.382727" y="78.489347" style="fill: #9467bd; stroke: #9467bd"/>
     <use xlink:href="#m3a6b3a7ee3" x="650.959793" y="78.489347" style="fill: #9467bd; stroke: #9467bd"/>
     <use xlink:href="#m3a6b3a7ee3" x="667.53686" y="78.489347" style="fill: #9467bd; stroke: #9467bd"/>
     <use xlink:href="#m3a6b3a7ee3" x="684.113926" y="78.489347" style="fill: #9467bd; stroke: #9467bd"/>
     <use xlink:href="#m3a6b3a7ee3" x="700.690992" y="78.489347" style="fill: #9467bd; stroke: #9467bd"/>
     <use xlink:href="#m3a6b3a7ee3" x="717.268058" y="78.489347" style="fill: #9467bd; stroke: #9467bd"/>
     <use xlink:href="#m3a6b3a7ee3" x="733.845124" y="78.489347" style="fill: #9467bd; stroke: #9467bd"/>
     <use xlink:href="#m3a6b3a7ee3" x="750.42219" y="78.489347" style="fill: #9467bd; stroke: #9467bd"/>
     <use xlink:href="#m3a6b3a7ee3" x="766.999256" y="78.489347" style="fill: #9467bd; stroke: #9467bd"/>
     <use xlink:href="#m3a6b3a7ee3" x="783.576322" y="78.489347" style="fill: #9467bd; stroke: #9467bd"/>
     <use xlink:href="#m3a6b3a7ee3" x="800.153388" y="78.489347" style="fill: #9467bd; stroke: #9467bd"/>
     <use xlink:href="#m3a6b3a7ee3" x="816.730455" y="78.489347" style="fill: #9467bd; stroke: #9467bd"/>
    </g>
   </g>
   <g id="line2d_30">
    <path d="M 87.339545 383.264501 
L 103.916612 352.424753 
L 120.493678 327.752954 
L 137.070744 303.081156 
L 153.64781 284.577307 
L 170.224876 263.606279 
L 186.801942 261.139099 
L 203.379008 256.204739 
L 219.956074 213.029092 
L 236.53314 189.590883 
L 253.110207 158.751135 
L 269.687273 139.013697 
L 286.264339 81.03497 
L 335.995537 81.03497 
L 352.572603 81.03497 
L 369.149669 81.03497 
L 385.726736 81.03497 
L 402.303802 81.03497 
L 435.457934 81.03497 
L 452.035 81.03497 
L 468.612066 81.03497 
L 485.189132 81.03497 
L 501.766198 81.03497 
L 518.343264 62.531122 
L 534.920331 62.531122 
L 551.497397 62.531122 
L 568.074463 62.531122 
L 584.651529 62.531122 
L 601.228595 44.027273 
L 617.805661 44.027273 
L 634.382727 44.027273 
L 650.959793 44.027273 
L 667.53686 44.027273 
L 684.113926 44.027273 
L 700.690992 44.027273 
L 717.268058 44.027273 
L 733.845124 44.027273 
L 750.42219 44.027273 
L 766.999256 44.027273 
L 783.576322 44.027273 
L 800.153388 44.027273 
L 816.730455 44.027273 
" clip-path="url(#p942e494474)" style="fill: none; stroke: #8c564b; stroke-width: 1.5; stroke-linecap: square"/>
    <defs>
     <path id="m1212fa9c5d" d="M 0 3.5 
C 0.928211 3.5 1.81853 3.131218 2.474874 2.474874 
C 3.131218 1.81853 3.5 0.928211 3.5 0 
C 3.5 -0.928211 3.131218 -1.81853 2.474874 -2.474874 
C 1.81853 -3.131218 0.928211 -3.5 0 -3.5 
C -0.928211 -3.5 -1.81853 -3.131218 -2.474874 -2.474874 
C -3.131218 -1.81853 -3.5 -0.928211 -3.5 0 
C -3.5 0.928211 -3.131218 1.81853 -2.474874 2.474874 
C -1.81853 3.131218 -0.928211 3.5 0 3.5 
z
" style="stroke: #8c564b"/>
    </defs>
    <g clip-path="url(#p942e494474)">
     <use xlink:href="#m1212fa9c5d" x="87.339545" y="383.264501" style="fill: #8c564b; stroke: #8c564b"/>
     <use xlink:href="#m1212fa9c5d" x="103.916612" y="352.424753" style="fill: #8c564b; stroke: #8c564b"/>
     <use xlink:href="#m1212fa9c5d" x="120.493678" y="327.752954" style="fill: #8c564b; stroke: #8c564b"/>
     <use xlink:href="#m1212fa9c5d" x="137.070744" y="303.081156" style="fill: #8c564b; stroke: #8c564b"/>
     <use xlink:href="#m1212fa9c5d" x="153.64781" y="284.577307" style="fill: #8c564b; stroke: #8c564b"/>
     <use xlink:href="#m1212fa9c5d" x="170.224876" y="263.606279" style="fill: #8c564b; stroke: #8c564b"/>
     <use xlink:href="#m1212fa9c5d" x="186.801942" y="261.139099" style="fill: #8c564b; stroke: #8c564b"/>
     <use xlink:href="#m1212fa9c5d" x="203.379008" y="256.204739" style="fill: #8c564b; stroke: #8c564b"/>
     <use xlink:href="#m1212fa9c5d" x="219.956074" y="213.029092" style="fill: #8c564b; stroke: #8c564b"/>
     <use xlink:href="#m1212fa9c5d" x="236.53314" y="189.590883" style="fill: #8c564b; stroke: #8c564b"/>
     <use xlink:href="#m1212fa9c5d" x="253.110207" y="158.751135" style="fill: #8c564b; stroke: #8c564b"/>
     <use xlink:href="#m1212fa9c5d" x="269.687273" y="139.013697" style="fill: #8c564b; stroke: #8c564b"/>
     <use xlink:href="#m1212fa9c5d" x="286.264339" y="81.03497" style="fill: #8c564b; stroke: #8c564b"/>
     <use xlink:href="#m1212fa9c5d" x="335.995537" y="81.03497" style="fill: #8c564b; stroke: #8c564b"/>
     <use xlink:href="#m1212fa9c5d" x="352.572603" y="81.03497" style="fill: #8c564b; stroke: #8c564b"/>
     <use xlink:href="#m1212fa9c5d" x="369.149669" y="81.03497" style="fill: #8c564b; stroke: #8c564b"/>
     <use xlink:href="#m1212fa9c5d" x="385.726736" y="81.03497" style="fill: #8c564b; stroke: #8c564b"/>
     <use xlink:href="#m1212fa9c5d" x="402.303802" y="81.03497" style="fill: #8c564b; stroke: #8c564b"/>
     <use xlink:href="#m1212fa9c5d" x="435.457934" y="81.03497" style="fill: #8c564b; stroke: #8c564b"/>
     <use xlink:href="#m1212fa9c5d" x="452.035" y="81.03497" style="fill: #8c564b; stroke: #8c564b"/>
     <use xlink:href="#m1212fa9c5d" x="468.612066" y="81.03497" style="fill: #8c564b; stroke: #8c564b"/>
     <use xlink:href="#m1212fa9c5d" x="485.189132" y="81.03497" style="fill: #8c564b; stroke: #8c564b"/>
     <use xlink:href="#m1212fa9c5d" x="501.766198" y="81.03497" style="fill: #8c564b; stroke: #8c564b"/>
     <use xlink:href="#m1212fa9c5d" x="518.343264" y="62.531122" style="fill: #8c564b; stroke: #8c564b"/>
     <use xlink:href="#m1212fa9c5d" x="534.920331" y="62.531122" style="fill: #8c564b; stroke: #8c564b"/>
     <use xlink:href="#m1212fa9c5d" x="551.497397" y="62.531122" style="fill: #8c564b; stroke: #8c564b"/>
     <use xlink:href="#m1212fa9c5d" x="568.074463" y="62.531122" style="fill: #8c564b; stroke: #8c564b"/>
     <use xlink:href="#m1212fa9c5d" x="584.651529" y="62.531122" style="fill: #8c564b; stroke: #8c564b"/>
     <use xlink:href="#m1212fa9c5d" x="601.228595" y="44.027273" style="fill: #8c564b; stroke: #8c564b"/>
     <use xlink:href="#m1212fa9c5d" x="617.805661" y="44.027273" style="fill: #8c564b; stroke: #8c564b"/>
     <use xlink:href="#m1212fa9c5d" x="634.382727" y="44.027273" style="fill: #8c564b; stroke: #8c564b"/>
     <use xlink:href="#m1212fa9c5d" x="650.959793" y="44.027273" style="fill: #8c564b; stroke: #8c564b"/>
     <use xlink:href="#m1212fa9c5d" x="667.53686" y="44.027273" style="fill: #8c564b; stroke: #8c564b"/>
     <use xlink:href="#m1212fa9c5d" x="684.113926" y="44.027273" style="fill: #8c564b; stroke: #8c564b"/>
     <use xlink:href="#m1212fa9c5d" x="700.690992" y="44.027273" style="fill: #8c564b; stroke: #8c564b"/>
     <use xlink:href="#m1212fa9c5d" x="717.268058" y="44.027273" style="fill: #8c564b; stroke: #8c564b"/>
     <use xlink:href="#m1212fa9c5d" x="733.845124" y="44.027273" style="fill: #8c564b; stroke: #8c564b"/>
     <use xlink:href="#m1212fa9c5d" x="750.42219" y="44.027273" style="fill: #8c564b; stroke: #8c564b"/>
     <use xlink:href="#m1212fa9c5d" x="766.999256" y="44.027273" style="fill: #8c564b; stroke: #8c564b"/>
     <use xlink:href="#m1212fa9c5d" x="783.576322" y="44.027273" style="fill: #8c564b; stroke: #8c564b"/>
     <use xlink:href="#m1212fa9c5d" x="800.153388" y="44.027273" style="fill: #8c564b; stroke: #8c564b"/>
     <use xlink:href="#m1212fa9c5d" x="816.730455" y="44.027273" style="fill: #8c564b; stroke: #8c564b"/>
    </g>
   </g>
   <g id="line2d_31">
    <path d="M 87.339545 386.867204 
L 103.916612 384.400024 
L 120.493678 381.932844 
L 137.070744 351.093096 
L 153.64781 344.925146 
L 170.224876 342.457966 
L 186.801942 317.786168 
L 203.379008 310.384629 
L 219.956074 298.048729 
L 236.53314 286.94642 
L 253.110207 268.442571 
L 269.687273 254.873082 
L 286.264339 188.259226 
L 335.995537 188.259226 
L 352.572603 188.259226 
L 369.149669 188.259226 
L 385.726736 188.259226 
L 402.303802 188.259226 
L 435.457934 188.259226 
L 452.035 188.259226 
L 468.612066 188.259226 
L 485.189132 188.259226 
L 501.766198 188.259226 
L 518.343264 188.259226 
L 534.920331 188.259226 
L 551.497397 188.259226 
L 568.074463 188.259226 
L 584.651529 188.259226 
L 601.228595 188.259226 
L 617.805661 188.259226 
L 634.382727 188.259226 
L 650.959793 188.259226 
L 667.53686 188.259226 
L 684.113926 188.259226 
L 700.690992 188.259226 
L 717.268058 188.259226 
L 733.845124 188.259226 
L 750.42219 188.259226 
L 766.999256 188.259226 
L 783.576322 188.259226 
L 800.153388 188.259226 
L 816.730455 188.259226 
" clip-path="url(#p942e494474)" style="fill: none; stroke: #e377c2; stroke-width: 1.5; stroke-linecap: square"/>
    <defs>
     <path id="mae2b5c2adf" d="M 0 3.5 
C 0.928211 3.5 1.81853 3.131218 2.474874 2.474874 
C 3.131218 1.81853 3.5 0.928211 3.5 0 
C 3.5 -0.928211 3.131218 -1.81853 2.474874 -2.474874 
C 1.81853 -3.131218 0.928211 -3.5 0 -3.5 
C -0.928211 -3.5 -1.81853 -3.131218 -2.474874 -2.474874 
C -3.131218 -1.81853 -3.5 -0.928211 -3.5 0 
C -3.5 0.928211 -3.131218 1.81853 -2.474874 2.474874 
C -1.81853 3.131218 -0.928211 3.5 0 3.5 
z
" style="stroke: #e377c2"/>
    </defs>
    <g clip-path="url(#p942e494474)">
     <use xlink:href="#mae2b5c2adf" x="87.339545" y="386.867204" style="fill: #e377c2; stroke: #e377c2"/>
     <use xlink:href="#mae2b5c2adf" x="103.916612" y="384.400024" style="fill: #e377c2; stroke: #e377c2"/>
     <use xlink:href="#mae2b5c2adf" x="120.493678" y="381.932844" style="fill: #e377c2; stroke: #e377c2"/>
     <use xlink:href="#mae2b5c2adf" x="137.070744" y="351.093096" style="fill: #e377c2; stroke: #e377c2"/>
     <use xlink:href="#mae2b5c2adf" x="153.64781" y="344.925146" style="fill: #e377c2; stroke: #e377c2"/>
     <use xlink:href="#mae2b5c2adf" x="170.224876" y="342.457966" style="fill: #e377c2; stroke: #e377c2"/>
     <use xlink:href="#mae2b5c2adf" x="186.801942" y="317.786168" style="fill: #e377c2; stroke: #e377c2"/>
     <use xlink:href="#mae2b5c2adf" x="203.379008" y="310.384629" style="fill: #e377c2; stroke: #e377c2"/>
     <use xlink:href="#mae2b5c2adf" x="219.956074" y="298.048729" style="fill: #e377c2; stroke: #e377c2"/>
     <use xlink:href="#mae2b5c2adf" x="236.53314" y="286.94642" style="fill: #e377c2; stroke: #e377c2"/>
     <use xlink:href="#mae2b5c2adf" x="253.110207" y="268.442571" style="fill: #e377c2; stroke: #e377c2"/>
     <use xlink:href="#mae2b5c2adf" x="269.687273" y="254.873082" style="fill: #e377c2; stroke: #e377c2"/>
     <use xlink:href="#mae2b5c2adf" x="286.264339" y="188.259226" style="fill: #e377c2; stroke: #e377c2"/>
     <use xlink:href="#mae2b5c2adf" x="335.995537" y="188.259226" style="fill: #e377c2; stroke: #e377c2"/>
     <use xlink:href="#mae2b5c2adf" x="352.572603" y="188.259226" style="fill: #e377c2; stroke: #e377c2"/>
     <use xlink:href="#mae2b5c2adf" x="369.149669" y="188.259226" style="fill: #e377c2; stroke: #e377c2"/>
     <use xlink:href="#mae2b5c2adf" x="385.726736" y="188.259226" style="fill: #e377c2; stroke: #e377c2"/>
     <use xlink:href="#mae2b5c2adf" x="402.303802" y="188.259226" style="fill: #e377c2; stroke: #e377c2"/>
     <use xlink:href="#mae2b5c2adf" x="435.457934" y="188.259226" style="fill: #e377c2; stroke: #e377c2"/>
     <use xlink:href="#mae2b5c2adf" x="452.035" y="188.259226" style="fill: #e377c2; stroke: #e377c2"/>
     <use xlink:href="#mae2b5c2adf" x="468.612066" y="188.259226" style="fill: #e377c2; stroke: #e377c2"/>
     <use xlink:href="#mae2b5c2adf" x="485.189132" y="188.259226" style="fill: #e377c2; stroke: #e377c2"/>
     <use xlink:href="#mae2b5c2adf" x="501.766198" y="188.259226" style="fill: #e377c2; stroke: #e377c2"/>
     <use xlink:href="#mae2b5c2adf" x="518.343264" y="188.259226" style="fill: #e377c2; stroke: #e377c2"/>
     <use xlink:href="#mae2b5c2adf" x="534.920331" y="188.259226" style="fill: #e377c2; stroke: #e377c2"/>
     <use xlink:href="#mae2b5c2adf" x="551.497397" y="188.259226" style="fill: #e377c2; stroke: #e377c2"/>
     <use xlink:href="#mae2b5c2adf" x="568.074463" y="188.259226" style="fill: #e377c2; stroke: #e377c2"/>
     <use xlink:href="#mae2b5c2adf" x="584.651529" y="188.259226" style="fill: #e377c2; stroke: #e377c2"/>
     <use xlink:href="#mae2b5c2adf" x="601.228595" y="188.259226" style="fill: #e377c2; stroke: #e377c2"/>
     <use xlink:href="#mae2b5c2adf" x="617.805661" y="188.259226" style="fill: #e377c2; stroke: #e377c2"/>
     <use xlink:href="#mae2b5c2adf" x="634.382727" y="188.259226" style="fill: #e377c2; stroke: #e377c2"/>
     <use xlink:href="#mae2b5c2adf" x="650.959793" y="188.259226" style="fill: #e377c2; stroke: #e377c2"/>
     <use xlink:href="#mae2b5c2adf" x="667.53686" y="188.259226" style="fill: #e377c2; stroke: #e377c2"/>
     <use xlink:href="#mae2b5c2adf" x="684.113926" y="188.259226" style="fill: #e377c2; stroke: #e377c2"/>
     <use xlink:href="#mae2b5c2adf" x="700.690992" y="188.259226" style="fill: #e377c2; stroke: #e377c2"/>
     <use xlink:href="#mae2b5c2adf" x="717.268058" y="188.259226" style="fill: #e377c2; stroke: #e377c2"/>
     <use xlink:href="#mae2b5c2adf" x="733.845124" y="188.259226" style="fill: #e377c2; stroke: #e377c2"/>
     <use xlink:href="#mae2b5c2adf" x="750.42219" y="188.259226" style="fill: #e377c2; stroke: #e377c2"/>
     <use xlink:href="#mae2b5c2adf" x="766.999256" y="188.259226" style="fill: #e377c2; stroke: #e377c2"/>
     <use xlink:href="#mae2b5c2adf" x="783.576322" y="188.259226" style="fill: #e377c2; stroke: #e377c2"/>
     <use xlink:href="#mae2b5c2adf" x="800.153388" y="188.259226" style="fill: #e377c2; stroke: #e377c2"/>
     <use xlink:href="#mae2b5c2adf" x="816.730455" y="188.259226" style="fill: #e377c2; stroke: #e377c2"/>
    </g>
   </g>
   <g id="line2d_32">
    <path d="M 87.339545 386.972727 
L 103.916612 359.833749 
L 120.493678 332.694771 
L 137.070744 324.059641 
L 153.64781 299.387843 
L 170.224876 275.949634 
L 186.801942 261.146555 
L 203.379008 258.679376 
L 219.956074 231.540397 
L 236.53314 225.372448 
L 253.110207 176.028851 
L 269.687273 162.459362 
L 286.264339 120.517304 
L 335.995537 120.517304 
L 352.572603 120.517304 
L 369.149669 120.517304 
L 385.726736 120.517304 
L 402.303802 120.517304 
L 435.457934 120.517304 
L 452.035 120.517304 
L 468.612066 120.517304 
L 485.189132 120.517304 
L 501.766198 120.517304 
L 518.343264 102.013456 
L 534.920331 102.013456 
L 551.497397 102.013456 
L 568.074463 102.013456 
L 584.651529 102.013456 
L 601.228595 95.845506 
L 617.805661 95.845506 
L 634.382727 95.845506 
L 650.959793 95.845506 
L 667.53686 95.845506 
L 684.113926 95.845506 
L 700.690992 95.845506 
L 717.268058 95.845506 
L 733.845124 95.845506 
L 750.42219 95.845506 
L 766.999256 95.845506 
L 783.576322 95.845506 
L 800.153388 95.845506 
L 816.730455 95.845506 
" clip-path="url(#p942e494474)" style="fill: none; stroke: #7f7f7f; stroke-width: 1.5; stroke-linecap: square"/>
    <defs>
     <path id="m9e88054ff0" d="M 0 3.5 
C 0.928211 3.5 1.81853 3.131218 2.474874 2.474874 
C 3.131218 1.81853 3.5 0.928211 3.5 0 
C 3.5 -0.928211 3.131218 -1.81853 2.474874 -2.474874 
C 1.81853 -3.131218 0.928211 -3.5 0 -3.5 
C -0.928211 -3.5 -1.81853 -3.131218 -2.474874 -2.474874 
C -3.131218 -1.81853 -3.5 -0.928211 -3.5 0 
C -3.5 0.928211 -3.131218 1.81853 -2.474874 2.474874 
C -1.81853 3.131218 -0.928211 3.5 0 3.5 
z
" style="stroke: #7f7f7f"/>
    </defs>
    <g clip-path="url(#p942e494474)">
     <use xlink:href="#m9e88054ff0" x="87.339545" y="386.972727" style="fill: #7f7f7f; stroke: #7f7f7f"/>
     <use xlink:href="#m9e88054ff0" x="103.916612" y="359.833749" style="fill: #7f7f7f; stroke: #7f7f7f"/>
     <use xlink:href="#m9e88054ff0" x="120.493678" y="332.694771" style="fill: #7f7f7f; stroke: #7f7f7f"/>
     <use xlink:href="#m9e88054ff0" x="137.070744" y="324.059641" style="fill: #7f7f7f; stroke: #7f7f7f"/>
     <use xlink:href="#m9e88054ff0" x="153.64781" y="299.387843" style="fill: #7f7f7f; stroke: #7f7f7f"/>
     <use xlink:href="#m9e88054ff0" x="170.224876" y="275.949634" style="fill: #7f7f7f; stroke: #7f7f7f"/>
     <use xlink:href="#m9e88054ff0" x="186.801942" y="261.146555" style="fill: #7f7f7f; stroke: #7f7f7f"/>
     <use xlink:href="#m9e88054ff0" x="203.379008" y="258.679376" style="fill: #7f7f7f; stroke: #7f7f7f"/>
     <use xlink:href="#m9e88054ff0" x="219.956074" y="231.540397" style="fill: #7f7f7f; stroke: #7f7f7f"/>
     <use xlink:href="#m9e88054ff0" x="236.53314" y="225.372448" style="fill: #7f7f7f; stroke: #7f7f7f"/>
     <use xlink:href="#m9e88054ff0" x="253.110207" y="176.028851" style="fill: #7f7f7f; stroke: #7f7f7f"/>
     <use xlink:href="#m9e88054ff0" x="269.687273" y="162.459362" style="fill: #7f7f7f; stroke: #7f7f7f"/>
     <use xlink:href="#m9e88054ff0" x="286.264339" y="120.517304" style="fill: #7f7f7f; stroke: #7f7f7f"/>
     <use xlink:href="#m9e88054ff0" x="335.995537" y="120.517304" style="fill: #7f7f7f; stroke: #7f7f7f"/>
     <use xlink:href="#m9e88054ff0" x="352.572603" y="120.517304" style="fill: #7f7f7f; stroke: #7f7f7f"/>
     <use xlink:href="#m9e88054ff0" x="369.149669" y="120.517304" style="fill: #7f7f7f; stroke: #7f7f7f"/>
     <use xlink:href="#m9e88054ff0" x="385.726736" y="120.517304" style="fill: #7f7f7f; stroke: #7f7f7f"/>
     <use xlink:href="#m9e88054ff0" x="402.303802" y="120.517304" style="fill: #7f7f7f; stroke: #7f7f7f"/>
     <use xlink:href="#m9e88054ff0" x="435.457934" y="120.517304" style="fill: #7f7f7f; stroke: #7f7f7f"/>
     <use xlink:href="#m9e88054ff0" x="452.035" y="120.517304" style="fill: #7f7f7f; stroke: #7f7f7f"/>
     <use xlink:href="#m9e88054ff0" x="468.612066" y="120.517304" style="fill: #7f7f7f; stroke: #7f7f7f"/>
     <use xlink:href="#m9e88054ff0" x="485.189132" y="120.517304" style="fill: #7f7f7f; stroke: #7f7f7f"/>
     <use xlink:href="#m9e88054ff0" x="501.766198" y="120.517304" style="fill: #7f7f7f; stroke: #7f7f7f"/>
     <use xlink:href="#m9e88054ff0" x="518.343264" y="102.013456" style="fill: #7f7f7f; stroke: #7f7f7f"/>
     <use xlink:href="#m9e88054ff0" x="534.920331" y="102.013456" style="fill: #7f7f7f; stroke: #7f7f7f"/>
     <use xlink:href="#m9e88054ff0" x="551.497397" y="102.013456" style="fill: #7f7f7f; stroke: #7f7f7f"/>
     <use xlink:href="#m9e88054ff0" x="568.074463" y="102.013456" style="fill: #7f7f7f; stroke: #7f7f7f"/>
     <use xlink:href="#m9e88054ff0" x="584.651529" y="102.013456" style="fill: #7f7f7f; stroke: #7f7f7f"/>
     <use xlink:href="#m9e88054ff0" x="601.228595" y="95.845506" style="fill: #7f7f7f; stroke: #7f7f7f"/>
     <use xlink:href="#m9e88054ff0" x="617.805661" y="95.845506" style="fill: #7f7f7f; stroke: #7f7f7f"/>
     <use xlink:href="#m9e88054ff0" x="634.382727" y="95.845506" style="fill: #7f7f7f; stroke: #7f7f7f"/>
     <use xlink:href="#m9e88054ff0" x="650.959793" y="95.845506" style="fill: #7f7f7f; stroke: #7f7f7f"/>
     <use xlink:href="#m9e88054ff0" x="667.53686" y="95.845506" style="fill: #7f7f7f; stroke: #7f7f7f"/>
     <use xlink:href="#m9e88054ff0" x="684.113926" y="95.845506" style="fill: #7f7f7f; stroke: #7f7f7f"/>
     <use xlink:href="#m9e88054ff0" x="700.690992" y="95.845506" style="fill: #7f7f7f; stroke: #7f7f7f"/>
     <use xlink:href="#m9e88054ff0" x="717.268058" y="95.845506" style="fill: #7f7f7f; stroke: #7f7f7f"/>
     <use xlink:href="#m9e88054ff0" x="733.845124" y="95.845506" style="fill: #7f7f7f; stroke: #7f7f7f"/>
     <use xlink:href="#m9e88054ff0" x="750.42219" y="95.845506" style="fill: #7f7f7f; stroke: #7f7f7f"/>
     <use xlink:href="#m9e88054ff0" x="766.999256" y="95.845506" style="fill: #7f7f7f; stroke: #7f7f7f"/>
     <use xlink:href="#m9e88054ff0" x="783.576322" y="95.845506" style="fill: #7f7f7f; stroke: #7f7f7f"/>
     <use xlink:href="#m9e88054ff0" x="800.153388" y="95.845506" style="fill: #7f7f7f; stroke: #7f7f7f"/>
     <use xlink:href="#m9e88054ff0" x="816.730455" y="95.845506" style="fill: #7f7f7f; stroke: #7f7f7f"/>
    </g>
   </g>
   <g id="line2d_33">
    <path d="M 87.339545 377.155358 
L 103.916612 364.819459 
L 120.493678 346.31561 
L 137.070744 331.512531 
L 153.64781 316.709452 
L 170.224876 283.402524 
L 186.801942 278.468164 
L 203.379008 267.365855 
L 219.956074 236.526107 
L 236.53314 211.854309 
L 253.110207 162.510712 
L 269.687273 147.707633 
L 286.264339 95.896856 
L 335.995537 95.896856 
L 352.572603 95.896856 
L 369.149669 95.896856 
L 385.726736 95.896856 
L 402.303802 95.896856 
L 435.457934 95.896856 
L 452.035 95.896856 
L 468.612066 95.896856 
L 485.189132 95.896856 
L 501.766198 95.896856 
L 518.343264 77.393007 
L 534.920331 77.393007 
L 551.497397 77.393007 
L 568.074463 77.393007 
L 584.651529 77.393007 
L 601.228595 77.393007 
L 617.805661 77.393007 
L 634.382727 77.393007 
L 650.959793 77.393007 
L 667.53686 77.393007 
L 684.113926 77.393007 
L 700.690992 77.393007 
L 717.268058 77.393007 
L 733.845124 77.393007 
L 750.42219 77.393007 
L 766.999256 77.393007 
L 783.576322 77.393007 
L 800.153388 77.393007 
L 816.730455 77.393007 
" clip-path="url(#p942e494474)" style="fill: none; stroke: #bcbd22; stroke-width: 1.5; stroke-linecap: square"/>
    <defs>
     <path id="m6b3109c858" d="M 0 3.5 
C 0.928211 3.5 1.81853 3.131218 2.474874 2.474874 
C 3.131218 1.81853 3.5 0.928211 3.5 0 
C 3.5 -0.928211 3.131218 -1.81853 2.474874 -2.474874 
C 1.81853 -3.131218 0.928211 -3.5 0 -3.5 
C -0.928211 -3.5 -1.81853 -3.131218 -2.474874 -2.474874 
C -3.131218 -1.81853 -3.5 -0.928211 -3.5 0 
C -3.5 0.928211 -3.131218 1.81853 -2.474874 2.474874 
C -1.81853 3.131218 -0.928211 3.5 0 3.5 
z
" style="stroke: #bcbd22"/>
    </defs>
    <g clip-path="url(#p942e494474)">
     <use xlink:href="#m6b3109c858" x="87.339545" y="377.155358" style="fill: #bcbd22; stroke: #bcbd22"/>
     <use xlink:href="#m6b3109c858" x="103.916612" y="364.819459" style="fill: #bcbd22; stroke: #bcbd22"/>
     <use xlink:href="#m6b3109c858" x="120.493678" y="346.31561" style="fill: #bcbd22; stroke: #bcbd22"/>
     <use xlink:href="#m6b3109c858" x="137.070744" y="331.512531" style="fill: #bcbd22; stroke: #bcbd22"/>
     <use xlink:href="#m6b3109c858" x="153.64781" y="316.709452" style="fill: #bcbd22; stroke: #bcbd22"/>
     <use xlink:href="#m6b3109c858" x="170.224876" y="283.402524" style="fill: #bcbd22; stroke: #bcbd22"/>
     <use xlink:href="#m6b3109c858" x="186.801942" y="278.468164" style="fill: #bcbd22; stroke: #bcbd22"/>
     <use xlink:href="#m6b3109c858" x="203.379008" y="267.365855" style="fill: #bcbd22; stroke: #bcbd22"/>
     <use xlink:href="#m6b3109c858" x="219.956074" y="236.526107" style="fill: #bcbd22; stroke: #bcbd22"/>
     <use xlink:href="#m6b3109c858" x="236.53314" y="211.854309" style="fill: #bcbd22; stroke: #bcbd22"/>
     <use xlink:href="#m6b3109c858" x="253.110207" y="162.510712" style="fill: #bcbd22; stroke: #bcbd22"/>
     <use xlink:href="#m6b3109c858" x="269.687273" y="147.707633" style="fill: #bcbd22; stroke: #bcbd22"/>
     <use xlink:href="#m6b3109c858" x="286.264339" y="95.896856" style="fill: #bcbd22; stroke: #bcbd22"/>
     <use xlink:href="#m6b3109c858" x="335.995537" y="95.896856" style="fill: #bcbd22; stroke: #bcbd22"/>
     <use xlink:href="#m6b3109c858" x="352.572603" y="95.896856" style="fill: #bcbd22; stroke: #bcbd22"/>
     <use xlink:href="#m6b3109c858" x="369.149669" y="95.896856" style="fill: #bcbd22; stroke: #bcbd22"/>
     <use xlink:href="#m6b3109c858" x="385.726736" y="95.896856" style="fill: #bcbd22; stroke: #bcbd22"/>
     <use xlink:href="#m6b3109c858" x="402.303802" y="95.896856" style="fill: #bcbd22; stroke: #bcbd22"/>
     <use xlink:href="#m6b3109c858" x="435.457934" y="95.896856" style="fill: #bcbd22; stroke: #bcbd22"/>
     <use xlink:href="#m6b3109c858" x="452.035" y="95.896856" style="fill: #bcbd22; stroke: #bcbd22"/>
     <use xlink:href="#m6b3109c858" x="468.612066" y="95.896856" style="fill: #bcbd22; stroke: #bcbd22"/>
     <use xlink:href="#m6b3109c858" x="485.189132" y="95.896856" style="fill: #bcbd22; stroke: #bcbd22"/>
     <use xlink:href="#m6b3109c858" x="501.766198" y="95.896856" style="fill: #bcbd22; stroke: #bcbd22"/>
     <use xlink:href="#m6b3109c858" x="518.343264" y="77.393007" style="fill: #bcbd22; stroke: #bcbd22"/>
     <use xlink:href="#m6b3109c858" x="534.920331" y="77.393007" style="fill: #bcbd22; stroke: #bcbd22"/>
     <use xlink:href="#m6b3109c858" x="551.497397" y="77.393007" style="fill: #bcbd22; stroke: #bcbd22"/>
     <use xlink:href="#m6b3109c858" x="568.074463" y="77.393007" style="fill: #bcbd22; stroke: #bcbd22"/>
     <use xlink:href="#m6b3109c858" x="584.651529" y="77.393007" style="fill: #bcbd22; stroke: #bcbd22"/>
     <use xlink:href="#m6b3109c858" x="601.228595" y="77.393007" style="fill: #bcbd22; stroke: #bcbd22"/>
     <use xlink:href="#m6b3109c858" x="617.805661" y="77.393007" style="fill: #bcbd22; stroke: #bcbd22"/>
     <use xlink:href="#m6b3109c858" x="634.382727" y="77.393007" style="fill: #bcbd22; stroke: #bcbd22"/>
     <use xlink:href="#m6b3109c858" x="650.959793" y="77.393007" style="fill: #bcbd22; stroke: #bcbd22"/>
     <use xlink:href="#m6b3109c858" x="667.53686" y="77.393007" style="fill: #bcbd22; stroke: #bcbd22"/>
     <use xlink:href="#m6b3109c858" x="684.113926" y="77.393007" style="fill: #bcbd22; stroke: #bcbd22"/>
     <use xlink:href="#m6b3109c858" x="700.690992" y="77.393007" style="fill: #bcbd22; stroke: #bcbd22"/>
     <use xlink:href="#m6b3109c858" x="717.268058" y="77.393007" style="fill: #bcbd22; stroke: #bcbd22"/>
     <use xlink:href="#m6b3109c858" x="733.845124" y="77.393007" style="fill: #bcbd22; stroke: #bcbd22"/>
     <use xlink:href="#m6b3109c858" x="750.42219" y="77.393007" style="fill: #bcbd22; stroke: #bcbd22"/>
     <use xlink:href="#m6b3109c858" x="766.999256" y="77.393007" style="fill: #bcbd22; stroke: #bcbd22"/>
     <use xlink:href="#m6b3109c858" x="783.576322" y="77.393007" style="fill: #bcbd22; stroke: #bcbd22"/>
     <use xlink:href="#m6b3109c858" x="800.153388" y="77.393007" style="fill: #bcbd22; stroke: #bcbd22"/>
     <use xlink:href="#m6b3109c858" x="816.730455" y="77.393007" style="fill: #bcbd22; stroke: #bcbd22"/>
    </g>
   </g>
   <g id="patch_3">
    <path d="M 50.87 404.12 
L 50.87 26.88 
" style="fill: none; stroke: #000000; stroke-width: 0.8; stroke-linejoin: miter; stroke-linecap: square"/>
   </g>
   <g id="patch_4">
    <path d="M 853.2 404.12 
L 853.2 26.88 
" style="fill: none; stroke: #000000; stroke-width: 0.8; stroke-linejoin: miter; stroke-linecap: square"/>
   </g>
   <g id="patch_5">
    <path d="M 50.87 404.12 
L 853.2 404.12 
" style="fill: none; stroke: #000000; stroke-width: 0.8; stroke-linejoin: miter; stroke-linecap: square"/>
   </g>
   <g id="patch_6">
    <path d="M 50.87 26.88 
L 853.2 26.88 
" style="fill: none; stroke: #000000; stroke-width: 0.8; stroke-linejoin: miter; stroke-linecap: square"/>
   </g>
   <g id="text_14">
    <!-- Standings -->
    <g transform="translate(422.18125 20.88) scale(0.12 -0.12)">
     <defs>
      <path id="DejaVuSans-74" d="M 1172 4494 
L 1172 3500 
L 2356 3500 
L 2356 3053 
L 1172 3053 
L 1172 1153 
Q 1172 725 1289 603 
Q 1406 481 1766 481 
L 2356 481 
L 2356 0 
L 1766 0 
Q 1100 0 847 248 
Q 594 497 594 1153 
L 594 3053 
L 172 3053 
L 172 3500 
L 594 3500 
L 594 4494 
L 1172 4494 
z
" transform="scale(0.015625)"/>
      <path id="DejaVuSans-61" d="M 2194 1759 
Q 1497 1759 1228 1600 
Q 959 1441 959 1056 
Q 959 750 1161 570 
Q 1363 391 1709 391 
Q 2188 391 2477 730 
Q 2766 1069 2766 1631 
L 2766 1759 
L 2194 1759 
z
M 3341 1997 
L 3341 0 
L 2766 0 
L 2766 531 
Q 2569 213 2275 61 
Q 1981 -91 1556 -91 
Q 1019 -91 701 211 
Q 384 513 384 1019 
Q 384 1609 779 1909 
Q 1175 2209 1959 2209 
L 2766 2209 
L 2766 2266 
Q 2766 2663 2505 2880 
Q 2244 3097 1772 3097 
Q 1472 3097 1187 3025 
Q 903 2953 641 2809 
L 641 3341 
Q 956 3463 1253 3523 
Q 1550 3584 1831 3584 
Q 2591 3584 2966 3190 
Q 3341 2797 3341 1997 
z
" transform="scale(0.015625)"/>
      <path id="DejaVuSans-6e" d="M 3513 2113 
L 3513 0 
L 2938 0 
L 2938 2094 
Q 2938 2591 2744 2837 
Q 2550 3084 2163 3084 
Q 1697 3084 1428 2787 
Q 1159 2491 1159 1978 
L 1159 0 
L 581 0 
L 581 3500 
L 1159 3500 
L 1159 2956 
Q 1366 3272 1645 3428 
Q 1925 3584 2291 3584 
Q 2894 3584 3203 3211 
Q 3513 2838 3513 2113 
z
" transform="scale(0.015625)"/>
      <path id="DejaVuSans-64" d="M 2906 2969 
L 2906 4863 
L 3481 4863 
L 3481 0 
L 2906 0 
L 2906 525 
Q 2725 213 2448 61 
Q 2172 -91 1784 -91 
Q 1150 -91 751 415 
Q 353 922 353 1747 
Q 353 2572 751 3078 
Q 1150 3584 1784 3584 
Q 2172 3584 2448 3432 
Q 2725 3281 2906 2969 
z
M 947 1747 
Q 947 1113 1208 752 
Q 1469 391 1925 391 
Q 2381 391 2643 752 
Q 2906 1113 2906 1747 
Q 2906 2381 2643 2742 
Q 2381 3103 1925 3103 
Q 1469 3103 1208 2742 
Q 947 2381 947 1747 
z
" transform="scale(0.015625)"/>
      <path id="DejaVuSans-69" d="M 603 3500 
L 1178 3500 
L 1178 0 
L 603 0 
L 603 3500 
z
M 603 4863 
L 1178 4863 
L 1178 4134 
L 603 4134 
L 603 4863 
z
" transform="scale(0.015625)"/>
      <path id="DejaVuSans-67" d="M 2906 1791 
Q 2906 2416 2648 2759 
Q 2391 3103 1925 3103 
Q 1463 3103 1205 2759 
Q 947 2416 947 1791 
Q 947 1169 1205 825 
Q 1463 481 1925 481 
Q 2391 481 2648 825 
Q 2906 1169 2906 1791 
z
M 3481 434 
Q 3481 -459 3084 -895 
Q 2688 -1331 1869 -1331 
Q 1566 -1331 1297 -1286 
Q 1028 -1241 775 -1147 
L 775 -588 
Q 1028 -725 1275 -790 
Q 1522 -856 1778 -856 
Q 2344 -856 2625 -561 
Q 2906 -266 2906 331 
L 2906 616 
Q 2728 306 2450 153 
Q 2172 0 1784 0 
Q 1141 0 747 490 
Q 353 981 353 1791 
Q 353 2603 747 3093 
Q 1141 3584 1784 3584 
Q 2172 3584 2450 3431 
Q 2728 3278 2906 2969 
L 2906 3500 
L 3481 3500 
L 3481 434 
z
" transform="scale(0.015625)"/>
      <path id="DejaVuSans-73" d="M 2834 3397 
L 2834 2853 
Q 2591 2978 2328 3040 
Q 2066 3103 1784 3103 
Q 1356 3103 1142 2972 
Q 928 2841 928 2578 
Q 928 2378 1081 2264 
Q 1234 2150 1697 2047 
L 1894 2003 
Q 2506 1872 2764 1633 
Q 3022 1394 3022 966 
Q 3022 478 2636 193 
Q 2250 -91 1575 -91 
Q 1294 -91 989 -36 
Q 684 19 347 128 
L 347 722 
Q 666 556 975 473 
Q 1284 391 1588 391 
Q 1994 391 2212 530 
Q 2431 669 2431 922 
Q 2431 1156 2273 1281 
Q 2116 1406 1581 1522 
L 1381 1569 
Q 847 1681 609 1914 
Q 372 2147 372 2553 
Q 372 3047 722 3315 
Q 1072 3584 1716 3584 
Q 2034 3584 2315 3537 
Q 2597 3491 2834 3397 
z
" transform="scale(0.015625)"/>
     </defs>
     <use xlink:href="#DejaVuSans-53"/>
     <use xlink:href="#DejaVuSans-74" x="63.476562"/>
     <use xlink:href="#DejaVuSans-61" x="102.685547"/>
     <use xlink:href="#DejaVuSans-6e" x="163.964844"/>
     <use xlink:href="#DejaVuSans-64" x="227.34375"/>
     <use xlink:href="#DejaVuSans-69" x="290.820312"/>
     <use xlink:href="#DejaVuSans-6e" x="318.603516"/>
     <use xlink:href="#DejaVuSans-67" x="381.982422"/>
     <use xlink:href="#DejaVuSans-73" x="445.458984"/>
    </g>
   </g>
   <g id="legend_1">
    <g id="patch_7">
     <path d="M 57.87 166.983125 
L 149.490313 166.983125 
Q 151.490313 166.983125 151.490313 164.983125 
L 151.490313 33.88 
Q 151.490313 31.88 149.490313 31.88 
L 57.87 31.88 
Q 55.87 31.88 55.87 33.88 
L 55.87 164.983125 
Q 55.87 166.983125 57.87 166.983125 
z
" style="fill: #ffffff; opacity: 0.8; stroke: #cccccc; stroke-linejoin: miter"/>
    </g>
    <g id="line2d_34">
     <path d="M 59.87 39.978437 
L 69.87 39.978437 
L 79.87 39.978437 
" style="fill: none; stroke: #1f77b4; stroke-width: 1.5; stroke-linecap: square"/>
     <g>
      <use xlink:href="#m151850ede0" x="69.87" y="39.978437" style="fill: #1f77b4; stroke: #1f77b4"/>
     </g>
    </g>
    <g id="text_15">
     <!-- Martin Ba -->
     <g transform="translate(87.87 43.478437) scale(0.1 -0.1)">
      <defs>
       <path id="DejaVuSans-4d" d="M 628 4666 
L 1569 4666 
L 2759 1491 
L 3956 4666 
L 4897 4666 
L 4897 0 
L 4281 0 
L 4281 4097 
L 3078 897 
L 2444 897 
L 1241 4097 
L 1241 0 
L 628 0 
L 628 4666 
z
" transform="scale(0.015625)"/>
       <path id="DejaVuSans-20" transform="scale(0.015625)"/>
       <path id="DejaVuSans-42" d="M 1259 2228 
L 1259 519 
L 2272 519 
Q 2781 519 3026 730 
Q 3272 941 3272 1375 
Q 3272 1813 3026 2020 
Q 2781 2228 2272 2228 
L 1259 2228 
z
M 1259 4147 
L 1259 2741 
L 2194 2741 
Q 2656 2741 2882 2914 
Q 3109 3088 3109 3444 
Q 3109 3797 2882 3972 
Q 2656 4147 2194 4147 
L 1259 4147 
z
M 628 4666 
L 2241 4666 
Q 2963 4666 3353 4366 
Q 3744 4066 3744 3513 
Q 3744 3084 3544 2831 
Q 3344 2578 2956 2516 
Q 3422 2416 3680 2098 
Q 3938 1781 3938 1306 
Q 3938 681 3513 340 
Q 3088 0 2303 0 
L 628 0 
L 628 4666 
z
" transform="scale(0.015625)"/>
      </defs>
      <use xlink:href="#DejaVuSans-4d"/>
      <use xlink:href="#DejaVuSans-61" x="86.279297"/>
      <use xlink:href="#DejaVuSans-72" x="147.558594"/>
      <use xlink:href="#DejaVuSans-74" x="188.671875"/>
      <use xlink:href="#DejaVuSans-69" x="227.880859"/>
      <use xlink:href="#DejaVuSans-6e" x="255.664062"/>
      <use xlink:href="#DejaVuSans-20" x="319.042969"/>
      <use xlink:href="#DejaVuSans-42" x="350.830078"/>
      <use xlink:href="#DejaVuSans-61" x="419.433594"/>
     </g>
    </g>
    <g id="line2d_35">
     <path d="M 59.87 54.656563 
L 69.87 54.656563 
L 79.87 54.656563 
" style="fill: none; stroke: #ff7f0e; stroke-width: 1.5; stroke-linecap: square"/>
     <g>
      <use xlink:href="#m5452fa6725" x="69.87" y="54.656563" style="fill: #ff7f0e; stroke: #ff7f0e"/>
     </g>
    </g>
    <g id="text_16">
     <!-- Maren St -->
     <g transform="translate(87.87 58.156563) scale(0.1 -0.1)">
      <use xlink:href="#DejaVuSans-4d"/>
      <use xlink:href="#DejaVuSans-61" x="86.279297"/>
      <use xlink:href="#DejaVuSans-72" x="147.558594"/>
      <use xlink:href="#DejaVuSans-65" x="186.421875"/>
      <use xlink:href="#DejaVuSans-6e" x="247.945312"/>
      <use xlink:href="#DejaVuSans-20" x="311.324219"/>
      <use xlink:href="#DejaVuSans-53" x="343.111328"/>
      <use xlink:href="#DejaVuSans-74" x="406.587891"/>
     </g>
    </g>
    <g id="line2d_36">
     <path d="M 59.87 69.334687 
L 69.87 69.334687 
L 79.87 69.334687 
" style="fill: none; stroke: #2ca02c; stroke-width: 1.5; stroke-linecap: square"/>
     <g>
      <use xlink:href="#m3be75c1bd3" x="69.87" y="69.334687" style="fill: #2ca02c; stroke: #2ca02c"/>
     </g>
    </g>
    <g id="text_17">
     <!-- Jakob Ve -->
     <g transform="translate(87.87 72.834687) scale(0.1 -0.1)">
      <defs>
       <path id="DejaVuSans-4a" d="M 628 4666 
L 1259 4666 
L 1259 325 
Q 1259 -519 939 -900 
Q 619 -1281 -91 -1281 
L -331 -1281 
L -331 -750 
L -134 -750 
Q 284 -750 456 -515 
Q 628 -281 628 325 
L 628 4666 
z
" transform="scale(0.015625)"/>
       <path id="DejaVuSans-6b" d="M 581 4863 
L 1159 4863 
L 1159 1991 
L 2875 3500 
L 3609 3500 
L 1753 1863 
L 3688 0 
L 2938 0 
L 1159 1709 
L 1159 0 
L 581 0 
L 581 4863 
z
" transform="scale(0.015625)"/>
       <path id="DejaVuSans-62" d="M 3116 1747 
Q 3116 2381 2855 2742 
Q 2594 3103 2138 3103 
Q 1681 3103 1420 2742 
Q 1159 2381 1159 1747 
Q 1159 1113 1420 752 
Q 1681 391 2138 391 
Q 2594 391 2855 752 
Q 3116 1113 3116 1747 
z
M 1159 2969 
Q 1341 3281 1617 3432 
Q 1894 3584 2278 3584 
Q 2916 3584 3314 3078 
Q 3713 2572 3713 1747 
Q 3713 922 3314 415 
Q 2916 -91 2278 -91 
Q 1894 -91 1617 61 
Q 1341 213 1159 525 
L 1159 0 
L 581 0 
L 581 4863 
L 1159 4863 
L 1159 2969 
z
" transform="scale(0.015625)"/>
       <path id="DejaVuSans-56" d="M 1831 0 
L 50 4666 
L 709 4666 
L 2188 738 
L 3669 4666 
L 4325 4666 
L 2547 0 
L 1831 0 
z
" transform="scale(0.015625)"/>
      </defs>
      <use xlink:href="#DejaVuSans-4a"/>
      <use xlink:href="#DejaVuSans-61" x="29.492188"/>
      <use xlink:href="#DejaVuSans-6b" x="90.771484"/>
      <use xlink:href="#DejaVuSans-6f" x="145.056641"/>
      <use xlink:href="#DejaVuSans-62" x="206.238281"/>
      <use xlink:href="#DejaVuSans-20" x="269.714844"/>
      <use xlink:href="#DejaVuSans-56" x="301.501953"/>
      <use xlink:href="#DejaVuSans-65" x="362.160156"/>
     </g>
    </g>
    <g id="line2d_37">
     <path d="M 59.87 84.012812 
L 69.87 84.012812 
L 79.87 84.012812 
" style="fill: none; stroke: #d62728; stroke-width: 1.5; stroke-linecap: square"/>
     <g>
      <use xlink:href="#m85162f1755" x="69.87" y="84.012812" style="fill: #d62728; stroke: #d62728"/>
     </g>
    </g>
    <g id="text_18">
     <!-- Mathas Po -->
     <g transform="translate(87.87 87.512812) scale(0.1 -0.1)">
      <defs>
       <path id="DejaVuSans-68" d="M 3513 2113 
L 3513 0 
L 2938 0 
L 2938 2094 
Q 2938 2591 2744 2837 
Q 2550 3084 2163 3084 
Q 1697 3084 1428 2787 
Q 1159 2491 1159 1978 
L 1159 0 
L 581 0 
L 581 4863 
L 1159 4863 
L 1159 2956 
Q 1366 3272 1645 3428 
Q 1925 3584 2291 3584 
Q 2894 3584 3203 3211 
Q 3513 2838 3513 2113 
z
" transform="scale(0.015625)"/>
       <path id="DejaVuSans-50" d="M 1259 4147 
L 1259 2394 
L 2053 2394 
Q 2494 2394 2734 2622 
Q 2975 2850 2975 3272 
Q 2975 3691 2734 3919 
Q 2494 4147 2053 4147 
L 1259 4147 
z
M 628 4666 
L 2053 4666 
Q 2838 4666 3239 4311 
Q 3641 3956 3641 3272 
Q 3641 2581 3239 2228 
Q 2838 1875 2053 1875 
L 1259 1875 
L 1259 0 
L 628 0 
L 628 4666 
z
" transform="scale(0.015625)"/>
      </defs>
      <use xlink:href="#DejaVuSans-4d"/>
      <use xlink:href="#DejaVuSans-61" x="86.279297"/>
      <use xlink:href="#DejaVuSans-74" x="147.558594"/>
      <use xlink:href="#DejaVuSans-68" x="186.767578"/>
      <use xlink:href="#DejaVuSans-61" x="250.146484"/>
      <use xlink:href="#DejaVuSans-73" x="311.425781"/>
      <use xlink:href="#DejaVuSans-20" x="363.525391"/>
      <use xlink:href="#DejaVuSans-50" x="395.3125"/>
      <use xlink:href="#DejaVuSans-6f" x="451.990234"/>
     </g>
    </g>
    <g id="line2d_38">
     <path d="M 59.87 98.690938 
L 69.87 98.690938 
L 79.87 98.690938 
" style="fill: none; stroke: #9467bd; stroke-width: 1.5; stroke-linecap: square"/>
     <g>
      <use xlink:href="#m3a6b3a7ee3" x="69.87" y="98.690938" style="fill: #9467bd; stroke: #9467bd"/>
     </g>
    </g>
    <g id="text_19">
     <!-- Christian Gr -->
     <g transform="translate(87.87 102.190938) scale(0.1 -0.1)">
      <defs>
       <path id="DejaVuSans-43" d="M 4122 4306 
L 4122 3641 
Q 3803 3938 3442 4084 
Q 3081 4231 2675 4231 
Q 1875 4231 1450 3742 
Q 1025 3253 1025 2328 
Q 1025 1406 1450 917 
Q 1875 428 2675 428 
Q 3081 428 3442 575 
Q 3803 722 4122 1019 
L 4122 359 
Q 3791 134 3420 21 
Q 3050 -91 2638 -91 
Q 1578 -91 968 557 
Q 359 1206 359 2328 
Q 359 3453 968 4101 
Q 1578 4750 2638 4750 
Q 3056 4750 3426 4639 
Q 3797 4528 4122 4306 
z
" transform="scale(0.015625)"/>
       <path id="DejaVuSans-47" d="M 3809 666 
L 3809 1919 
L 2778 1919 
L 2778 2438 
L 4434 2438 
L 4434 434 
Q 4069 175 3628 42 
Q 3188 -91 2688 -91 
Q 1594 -91 976 548 
Q 359 1188 359 2328 
Q 359 3472 976 4111 
Q 1594 4750 2688 4750 
Q 3144 4750 3555 4637 
Q 3966 4525 4313 4306 
L 4313 3634 
Q 3963 3931 3569 4081 
Q 3175 4231 2741 4231 
Q 1884 4231 1454 3753 
Q 1025 3275 1025 2328 
Q 1025 1384 1454 906 
Q 1884 428 2741 428 
Q 3075 428 3337 486 
Q 3600 544 3809 666 
z
" transform="scale(0.015625)"/>
      </defs>
      <use xlink:href="#DejaVuSans-43"/>
      <use xlink:href="#DejaVuSans-68" x="69.824219"/>
      <use xlink:href="#DejaVuSans-72" x="133.203125"/>
      <use xlink:href="#DejaVuSans-69" x="174.316406"/>
      <use xlink:href="#DejaVuSans-73" x="202.099609"/>
      <use xlink:href="#DejaVuSans-74" x="254.199219"/>
      <use xlink:href="#DejaVuSans-69" x="293.408203"/>
      <use xlink:href="#DejaVuSans-61" x="321.191406"/>
      <use xlink:href="#DejaVuSans-6e" x="382.470703"/>
      <use xlink:href="#DejaVuSans-20" x="445.849609"/>
      <use xlink:href="#DejaVuSans-47" x="477.636719"/>
      <use xlink:href="#DejaVuSans-72" x="555.126953"/>
     </g>
    </g>
    <g id="line2d_39">
     <path d="M 59.87 113.369062 
L 69.87 113.369062 
L 79.87 113.369062 
" style="fill: none; stroke: #8c564b; stroke-width: 1.5; stroke-linecap: square"/>
     <g>
      <use xlink:href="#m1212fa9c5d" x="69.87" y="113.369062" style="fill: #8c564b; stroke: #8c564b"/>
     </g>
    </g>
    <g id="text_20">
     <!-- RIKKE GR -->
     <g transform="translate(87.87 116.869062) scale(0.1 -0.1)">
      <defs>
       <path id="DejaVuSans-52" d="M 2841 2188 
Q 3044 2119 3236 1894 
Q 3428 1669 3622 1275 
L 4263 0 
L 3584 0 
L 2988 1197 
Q 2756 1666 2539 1819 
Q 2322 1972 1947 1972 
L 1259 1972 
L 1259 0 
L 628 0 
L 628 4666 
L 2053 4666 
Q 2853 4666 3247 4331 
Q 3641 3997 3641 3322 
Q 3641 2881 3436 2590 
Q 3231 2300 2841 2188 
z
M 1259 4147 
L 1259 2491 
L 2053 2491 
Q 2509 2491 2742 2702 
Q 2975 2913 2975 3322 
Q 2975 3731 2742 3939 
Q 2509 4147 2053 4147 
L 1259 4147 
z
" transform="scale(0.015625)"/>
       <path id="DejaVuSans-49" d="M 628 4666 
L 1259 4666 
L 1259 0 
L 628 0 
L 628 4666 
z
" transform="scale(0.015625)"/>
       <path id="DejaVuSans-4b" d="M 628 4666 
L 1259 4666 
L 1259 2694 
L 3353 4666 
L 4166 4666 
L 1850 2491 
L 4331 0 
L 3500 0 
L 1259 2247 
L 1259 0 
L 628 0 
L 628 4666 
z
" transform="scale(0.015625)"/>
       <path id="DejaVuSans-45" d="M 628 4666 
L 3578 4666 
L 3578 4134 
L 1259 4134 
L 1259 2753 
L 3481 2753 
L 3481 2222 
L 1259 2222 
L 1259 531 
L 3634 531 
L 3634 0 
L 628 0 
L 628 4666 
z
" transform="scale(0.015625)"/>
      </defs>
      <use xlink:href="#DejaVuSans-52"/>
      <use xlink:href="#DejaVuSans-49" x="69.482422"/>
      <use xlink:href="#DejaVuSans-4b" x="98.974609"/>
      <use xlink:href="#DejaVuSans-4b" x="164.550781"/>
      <use xlink:href="#DejaVuSans-45" x="230.126953"/>
      <use xlink:href="#DejaVuSans-20" x="293.310547"/>
      <use xlink:href="#DejaVuSans-47" x="325.097656"/>
      <use xlink:href="#DejaVuSans-52" x="402.587891"/>
     </g>
    </g>
    <g id="line2d_40">
     <path d="M 59.87 128.047187 
L 69.87 128.047187 
L 79.87 128.047187 
" style="fill: none; stroke: #e377c2; stroke-width: 1.5; stroke-linecap: square"/>
     <g>
      <use xlink:href="#mae2b5c2adf" x="69.87" y="128.047187" style="fill: #e377c2; stroke: #e377c2"/>
     </g>
    </g>
    <g id="text_21">
     <!-- lea bo -->
     <g transform="translate(87.87 131.547187) scale(0.1 -0.1)">
      <defs>
       <path id="DejaVuSans-6c" d="M 603 4863 
L 1178 4863 
L 1178 0 
L 603 0 
L 603 4863 
z
" transform="scale(0.015625)"/>
      </defs>
      <use xlink:href="#DejaVuSans-6c"/>
      <use xlink:href="#DejaVuSans-65" x="27.783203"/>
      <use xlink:href="#DejaVuSans-61" x="89.306641"/>
      <use xlink:href="#DejaVuSans-20" x="150.585938"/>
      <use xlink:href="#DejaVuSans-62" x="182.373047"/>
      <use xlink:href="#DejaVuSans-6f" x="245.849609"/>
     </g>
    </g>
    <g id="line2d_41">
     <path d="M 59.87 142.725312 
L 69.87 142.725312 
L 79.87 142.725312 
" style="fill: none; stroke: #7f7f7f; stroke-width: 1.5; stroke-linecap: square"/>
     <g>
      <use xlink:href="#m9e88054ff0" x="69.87" y="142.725312" style="fill: #7f7f7f; stroke: #7f7f7f"/>
     </g>
    </g>
    <g id="text_22">
     <!-- Andreas Ku -->
     <g transform="translate(87.87 146.225312) scale(0.1 -0.1)">
      <defs>
       <path id="DejaVuSans-41" d="M 2188 4044 
L 1331 1722 
L 3047 1722 
L 2188 4044 
z
M 1831 4666 
L 2547 4666 
L 4325 0 
L 3669 0 
L 3244 1197 
L 1141 1197 
L 716 0 
L 50 0 
L 1831 4666 
z
" transform="scale(0.015625)"/>
       <path id="DejaVuSans-75" d="M 544 1381 
L 544 3500 
L 1119 3500 
L 1119 1403 
Q 1119 906 1312 657 
Q 1506 409 1894 409 
Q 2359 409 2629 706 
Q 2900 1003 2900 1516 
L 2900 3500 
L 3475 3500 
L 3475 0 
L 2900 0 
L 2900 538 
Q 2691 219 2414 64 
Q 2138 -91 1772 -91 
Q 1169 -91 856 284 
Q 544 659 544 1381 
z
M 1991 3584 
L 1991 3584 
z
" transform="scale(0.015625)"/>
      </defs>
      <use xlink:href="#DejaVuSans-41"/>
      <use xlink:href="#DejaVuSans-6e" x="68.408203"/>
      <use xlink:href="#DejaVuSans-64" x="131.787109"/>
      <use xlink:href="#DejaVuSans-72" x="195.263672"/>
      <use xlink:href="#DejaVuSans-65" x="234.126953"/>
      <use xlink:href="#DejaVuSans-61" x="295.650391"/>
      <use xlink:href="#DejaVuSans-73" x="356.929688"/>
      <use xlink:href="#DejaVuSans-20" x="409.029297"/>
      <use xlink:href="#DejaVuSans-4b" x="440.816406"/>
      <use xlink:href="#DejaVuSans-75" x="501.392578"/>
     </g>
    </g>
    <g id="line2d_42">
     <path d="M 59.87 157.403437 
L 69.87 157.403437 
L 79.87 157.403437 
" style="fill: none; stroke: #bcbd22; stroke-width: 1.5; stroke-linecap: square"/>
     <g>
      <use xlink:href="#m6b3109c858" x="69.87" y="157.403437" style="fill: #bcbd22; stroke: #bcbd22"/>
     </g>
    </g>
    <g id="text_23">
     <!-- Salty Gu -->
     <g transform="translate(87.87 160.903437) scale(0.1 -0.1)">
      <defs>
       <path id="DejaVuSans-79" d="M 2059 -325 
Q 1816 -950 1584 -1140 
Q 1353 -1331 966 -1331 
L 506 -1331 
L 506 -850 
L 844 -850 
Q 1081 -850 1212 -737 
Q 1344 -625 1503 -206 
L 1606 56 
L 191 3500 
L 800 3500 
L 1894 763 
L 2988 3500 
L 3597 3500 
L 2059 -325 
z
" transform="scale(0.015625)"/>
      </defs>
      <use xlink:href="#DejaVuSans-53"/>
      <use xlink:href="#DejaVuSans-61" x="63.476562"/>
      <use xlink:href="#DejaVuSans-6c" x="124.755859"/>
      <use xlink:href="#DejaVuSans-74" x="152.539062"/>
      <use xlink:href="#DejaVuSans-79" x="191.748047"/>
      <use xlink:href="#DejaVuSans-20" x="250.927734"/>
      <use xlink:href="#DejaVuSans-47" x="282.714844"/>
      <use xlink:href="#DejaVuSans-75" x="360.205078"/>
     </g>
    </g>
   </g>
  </g>
 </g>
 <defs>
  <clipPath id="p942e494474">
   <rect x="50.87" y="26.88" width="802.33" height="377.24"/>
  </clipPath>
 </defs>
</svg>
