<?xml version="1.0" encoding="utf-8" standalone="no"?>
<!DOCTYPE svg PUBLIC "-//W3C//DTD SVG 1.1//EN"
  "http://www.w3.org/Graphics/SVG/1.1/DTD/svg11.dtd">
<svg xmlns:xlink="http://www.w3.org/1999/xlink" width="864pt" height="432pt" viewBox="0 0 864 432" xmlns="http://www.w3.org/2000/svg" version="1.1">
 <metadata>
  <rdf:RDF xmlns:dc="http://purl.org/dc/elements/1.1/" xmlns:cc="http://creativecommons.org/ns#" xmlns:rdf="http://www.w3.org/1999/02/22-rdf-syntax-ns#">
   <cc:Work>
    <dc:type rdf:resource="http://purl.org/dc/dcmitype/StillImage"/>
    <dc:date>2024-07-15T04:33:55.427716</dc:date>
    <dc:format>image/svg+xml</dc:format>
    <dc:creator>
     <cc:Agent>
      <dc:title>Matplotlib v3.9.1, https://matplotlib.org/</dc:title>
     </cc:Agent>
    </dc:creator>
   </cc:Work>
  </rdf:RDF>
 </metadata>
 <defs>
  <style type="text/css">*{stroke-linejoin: round; stroke-linecap: butt}</style>
 </defs>
 <g id="figure_1">
  <g id="patch_1">
   <path d="M 0 432 
L 864 432 
L 864 0 
L 0 0 
z
" style="fill: #ffffff"/>
  </g>
  <g id="axes_1">
   <g id="patch_2">
    <path d="M 50.87 404.12 
L 853.2 404.12 
L 853.2 26.88 
L 50.87 26.88 
z
" style="fill: #ffffff"/>
   </g>
   <g id="matplotlib.axis_1">
    <g id="xtick_1">
     <g id="line2d_1">
      <path d="M 63.810806 404.12 
L 63.810806 26.88 
" clip-path="url(#p4cd260d32a)" style="fill: none; stroke-dasharray: 2.96,1.28; stroke-dashoffset: 0; stroke: #b0b0b0; stroke-width: 0.8"/>
     </g>
     <g id="line2d_2">
      <defs>
       <path id="m52793b4d81" d="M 0 0 
L 0 3.5 
" style="stroke: #000000; stroke-width: 0.8"/>
      </defs>
      <g>
       <use xlink:href="#m52793b4d81" x="63.810806" y="404.12" style="stroke: #000000; stroke-width: 0.8"/>
      </g>
     </g>
     <g id="text_1">
      <!-- 2024-06-13 -->
      <g transform="translate(34.752994 418.718437) scale(0.1 -0.1)">
       <defs>
        <path id="DejaVuSans-32" d="M 1228 531 
L 3431 531 
L 3431 0 
L 469 0 
L 469 531 
Q 828 903 1448 1529 
Q 2069 2156 2228 2338 
Q 2531 2678 2651 2914 
Q 2772 3150 2772 3378 
Q 2772 3750 2511 3984 
Q 2250 4219 1831 4219 
Q 1534 4219 1204 4116 
Q 875 4013 500 3803 
L 500 4441 
Q 881 4594 1212 4672 
Q 1544 4750 1819 4750 
Q 2544 4750 2975 4387 
Q 3406 4025 3406 3419 
Q 3406 3131 3298 2873 
Q 3191 2616 2906 2266 
Q 2828 2175 2409 1742 
Q 1991 1309 1228 531 
z
" transform="scale(0.015625)"/>
        <path id="DejaVuSans-30" d="M 2034 4250 
Q 1547 4250 1301 3770 
Q 1056 3291 1056 2328 
Q 1056 1369 1301 889 
Q 1547 409 2034 409 
Q 2525 409 2770 889 
Q 3016 1369 3016 2328 
Q 3016 3291 2770 3770 
Q 2525 4250 2034 4250 
z
M 2034 4750 
Q 2819 4750 3233 4129 
Q 3647 3509 3647 2328 
Q 3647 1150 3233 529 
Q 2819 -91 2034 -91 
Q 1250 -91 836 529 
Q 422 1150 422 2328 
Q 422 3509 836 4129 
Q 1250 4750 2034 4750 
z
" transform="scale(0.015625)"/>
        <path id="DejaVuSans-34" d="M 2419 4116 
L 825 1625 
L 2419 1625 
L 2419 4116 
z
M 2253 4666 
L 3047 4666 
L 3047 1625 
L 3713 1625 
L 3713 1100 
L 3047 1100 
L 3047 0 
L 2419 0 
L 2419 1100 
L 313 1100 
L 313 1709 
L 2253 4666 
z
" transform="scale(0.015625)"/>
        <path id="DejaVuSans-2d" d="M 313 2009 
L 1997 2009 
L 1997 1497 
L 313 1497 
L 313 2009 
z
" transform="scale(0.015625)"/>
        <path id="DejaVuSans-36" d="M 2113 2584 
Q 1688 2584 1439 2293 
Q 1191 2003 1191 1497 
Q 1191 994 1439 701 
Q 1688 409 2113 409 
Q 2538 409 2786 701 
Q 3034 994 3034 1497 
Q 3034 2003 2786 2293 
Q 2538 2584 2113 2584 
z
M 3366 4563 
L 3366 3988 
Q 3128 4100 2886 4159 
Q 2644 4219 2406 4219 
Q 1781 4219 1451 3797 
Q 1122 3375 1075 2522 
Q 1259 2794 1537 2939 
Q 1816 3084 2150 3084 
Q 2853 3084 3261 2657 
Q 3669 2231 3669 1497 
Q 3669 778 3244 343 
Q 2819 -91 2113 -91 
Q 1303 -91 875 529 
Q 447 1150 447 2328 
Q 447 3434 972 4092 
Q 1497 4750 2381 4750 
Q 2619 4750 2861 4703 
Q 3103 4656 3366 4563 
z
" transform="scale(0.015625)"/>
        <path id="DejaVuSans-31" d="M 794 531 
L 1825 531 
L 1825 4091 
L 703 3866 
L 703 4441 
L 1819 4666 
L 2450 4666 
L 2450 531 
L 3481 531 
L 3481 0 
L 794 0 
L 794 531 
z
" transform="scale(0.015625)"/>
        <path id="DejaVuSans-33" d="M 2597 2516 
Q 3050 2419 3304 2112 
Q 3559 1806 3559 1356 
Q 3559 666 3084 287 
Q 2609 -91 1734 -91 
Q 1441 -91 1130 -33 
Q 819 25 488 141 
L 488 750 
Q 750 597 1062 519 
Q 1375 441 1716 441 
Q 2309 441 2620 675 
Q 2931 909 2931 1356 
Q 2931 1769 2642 2001 
Q 2353 2234 1838 2234 
L 1294 2234 
L 1294 2753 
L 1863 2753 
Q 2328 2753 2575 2939 
Q 2822 3125 2822 3475 
Q 2822 3834 2567 4026 
Q 2313 4219 1838 4219 
Q 1578 4219 1281 4162 
Q 984 4106 628 3988 
L 628 4550 
Q 988 4650 1302 4700 
Q 1616 4750 1894 4750 
Q 2613 4750 3031 4423 
Q 3450 4097 3450 3541 
Q 3450 3153 3228 2886 
Q 3006 2619 2597 2516 
z
" transform="scale(0.015625)"/>
       </defs>
       <use xlink:href="#DejaVuSans-32"/>
       <use xlink:href="#DejaVuSans-30" x="63.623047"/>
       <use xlink:href="#DejaVuSans-32" x="127.246094"/>
       <use xlink:href="#DejaVuSans-34" x="190.869141"/>
       <use xlink:href="#DejaVuSans-2d" x="254.492188"/>
       <use xlink:href="#DejaVuSans-30" x="290.576172"/>
       <use xlink:href="#DejaVuSans-36" x="354.199219"/>
       <use xlink:href="#DejaVuSans-2d" x="417.822266"/>
       <use xlink:href="#DejaVuSans-31" x="453.90625"/>
       <use xlink:href="#DejaVuSans-33" x="517.529297"/>
      </g>
     </g>
    </g>
    <g id="xtick_2">
     <g id="line2d_3">
      <path d="M 157.925762 404.12 
L 157.925762 26.88 
" clip-path="url(#p4cd260d32a)" style="fill: none; stroke-dasharray: 2.96,1.28; stroke-dashoffset: 0; stroke: #b0b0b0; stroke-width: 0.8"/>
     </g>
     <g id="line2d_4">
      <g>
       <use xlink:href="#m52793b4d81" x="157.925762" y="404.12" style="stroke: #000000; stroke-width: 0.8"/>
      </g>
     </g>
     <g id="text_2">
      <!-- 2024-06-17 -->
      <g transform="translate(128.86795 418.718437) scale(0.1 -0.1)">
       <defs>
        <path id="DejaVuSans-37" d="M 525 4666 
L 3525 4666 
L 3525 4397 
L 1831 0 
L 1172 0 
L 2766 4134 
L 525 4134 
L 525 4666 
z
" transform="scale(0.015625)"/>
       </defs>
       <use xlink:href="#DejaVuSans-32"/>
       <use xlink:href="#DejaVuSans-30" x="63.623047"/>
       <use xlink:href="#DejaVuSans-32" x="127.246094"/>
       <use xlink:href="#DejaVuSans-34" x="190.869141"/>
       <use xlink:href="#DejaVuSans-2d" x="254.492188"/>
       <use xlink:href="#DejaVuSans-30" x="290.576172"/>
       <use xlink:href="#DejaVuSans-36" x="354.199219"/>
       <use xlink:href="#DejaVuSans-2d" x="417.822266"/>
       <use xlink:href="#DejaVuSans-31" x="453.90625"/>
       <use xlink:href="#DejaVuSans-37" x="517.529297"/>
      </g>
     </g>
    </g>
    <g id="xtick_3">
     <g id="line2d_5">
      <path d="M 252.040718 404.12 
L 252.040718 26.88 
" clip-path="url(#p4cd260d32a)" style="fill: none; stroke-dasharray: 2.96,1.28; stroke-dashoffset: 0; stroke: #b0b0b0; stroke-width: 0.8"/>
     </g>
     <g id="line2d_6">
      <g>
       <use xlink:href="#m52793b4d81" x="252.040718" y="404.12" style="stroke: #000000; stroke-width: 0.8"/>
      </g>
     </g>
     <g id="text_3">
      <!-- 2024-06-21 -->
      <g transform="translate(222.982906 418.718437) scale(0.1 -0.1)">
       <use xlink:href="#DejaVuSans-32"/>
       <use xlink:href="#DejaVuSans-30" x="63.623047"/>
       <use xlink:href="#DejaVuSans-32" x="127.246094"/>
       <use xlink:href="#DejaVuSans-34" x="190.869141"/>
       <use xlink:href="#DejaVuSans-2d" x="254.492188"/>
       <use xlink:href="#DejaVuSans-30" x="290.576172"/>
       <use xlink:href="#DejaVuSans-36" x="354.199219"/>
       <use xlink:href="#DejaVuSans-2d" x="417.822266"/>
       <use xlink:href="#DejaVuSans-32" x="453.90625"/>
       <use xlink:href="#DejaVuSans-31" x="517.529297"/>
      </g>
     </g>
    </g>
    <g id="xtick_4">
     <g id="line2d_7">
      <path d="M 346.155674 404.12 
L 346.155674 26.88 
" clip-path="url(#p4cd260d32a)" style="fill: none; stroke-dasharray: 2.96,1.28; stroke-dashoffset: 0; stroke: #b0b0b0; stroke-width: 0.8"/>
     </g>
     <g id="line2d_8">
      <g>
       <use xlink:href="#m52793b4d81" x="346.155674" y="404.12" style="stroke: #000000; stroke-width: 0.8"/>
      </g>
     </g>
     <g id="text_4">
      <!-- 2024-06-25 -->
      <g transform="translate(317.097862 418.718437) scale(0.1 -0.1)">
       <defs>
        <path id="DejaVuSans-35" d="M 691 4666 
L 3169 4666 
L 3169 4134 
L 1269 4134 
L 1269 2991 
Q 1406 3038 1543 3061 
Q 1681 3084 1819 3084 
Q 2600 3084 3056 2656 
Q 3513 2228 3513 1497 
Q 3513 744 3044 326 
Q 2575 -91 1722 -91 
Q 1428 -91 1123 -41 
Q 819 9 494 109 
L 494 744 
Q 775 591 1075 516 
Q 1375 441 1709 441 
Q 2250 441 2565 725 
Q 2881 1009 2881 1497 
Q 2881 1984 2565 2268 
Q 2250 2553 1709 2553 
Q 1456 2553 1204 2497 
Q 953 2441 691 2322 
L 691 4666 
z
" transform="scale(0.015625)"/>
       </defs>
       <use xlink:href="#DejaVuSans-32"/>
       <use xlink:href="#DejaVuSans-30" x="63.623047"/>
       <use xlink:href="#DejaVuSans-32" x="127.246094"/>
       <use xlink:href="#DejaVuSans-34" x="190.869141"/>
       <use xlink:href="#DejaVuSans-2d" x="254.492188"/>
       <use xlink:href="#DejaVuSans-30" x="290.576172"/>
       <use xlink:href="#DejaVuSans-36" x="354.199219"/>
       <use xlink:href="#DejaVuSans-2d" x="417.822266"/>
       <use xlink:href="#DejaVuSans-32" x="453.90625"/>
       <use xlink:href="#DejaVuSans-35" x="517.529297"/>
      </g>
     </g>
    </g>
    <g id="xtick_5">
     <g id="line2d_9">
      <path d="M 440.27063 404.12 
L 440.27063 26.88 
" clip-path="url(#p4cd260d32a)" style="fill: none; stroke-dasharray: 2.96,1.28; stroke-dashoffset: 0; stroke: #b0b0b0; stroke-width: 0.8"/>
     </g>
     <g id="line2d_10">
      <g>
       <use xlink:href="#m52793b4d81" x="440.27063" y="404.12" style="stroke: #000000; stroke-width: 0.8"/>
      </g>
     </g>
     <g id="text_5">
      <!-- 2024-06-29 -->
      <g transform="translate(411.212818 418.718437) scale(0.1 -0.1)">
       <defs>
        <path id="DejaVuSans-39" d="M 703 97 
L 703 672 
Q 941 559 1184 500 
Q 1428 441 1663 441 
Q 2288 441 2617 861 
Q 2947 1281 2994 2138 
Q 2813 1869 2534 1725 
Q 2256 1581 1919 1581 
Q 1219 1581 811 2004 
Q 403 2428 403 3163 
Q 403 3881 828 4315 
Q 1253 4750 1959 4750 
Q 2769 4750 3195 4129 
Q 3622 3509 3622 2328 
Q 3622 1225 3098 567 
Q 2575 -91 1691 -91 
Q 1453 -91 1209 -44 
Q 966 3 703 97 
z
M 1959 2075 
Q 2384 2075 2632 2365 
Q 2881 2656 2881 3163 
Q 2881 3666 2632 3958 
Q 2384 4250 1959 4250 
Q 1534 4250 1286 3958 
Q 1038 3666 1038 3163 
Q 1038 2656 1286 2365 
Q 1534 2075 1959 2075 
z
" transform="scale(0.015625)"/>
       </defs>
       <use xlink:href="#DejaVuSans-32"/>
       <use xlink:href="#DejaVuSans-30" x="63.623047"/>
       <use xlink:href="#DejaVuSans-32" x="127.246094"/>
       <use xlink:href="#DejaVuSans-34" x="190.869141"/>
       <use xlink:href="#DejaVuSans-2d" x="254.492188"/>
       <use xlink:href="#DejaVuSans-30" x="290.576172"/>
       <use xlink:href="#DejaVuSans-36" x="354.199219"/>
       <use xlink:href="#DejaVuSans-2d" x="417.822266"/>
       <use xlink:href="#DejaVuSans-32" x="453.90625"/>
       <use xlink:href="#DejaVuSans-39" x="517.529297"/>
      </g>
     </g>
    </g>
    <g id="xtick_6">
     <g id="line2d_11">
      <path d="M 487.328109 404.12 
L 487.328109 26.88 
" clip-path="url(#p4cd260d32a)" style="fill: none; stroke-dasharray: 2.96,1.28; stroke-dashoffset: 0; stroke: #b0b0b0; stroke-width: 0.8"/>
     </g>
     <g id="line2d_12">
      <g>
       <use xlink:href="#m52793b4d81" x="487.328109" y="404.12" style="stroke: #000000; stroke-width: 0.8"/>
      </g>
     </g>
     <g id="text_6">
      <!-- 2024-07-01 -->
      <g transform="translate(458.270296 418.718437) scale(0.1 -0.1)">
       <use xlink:href="#DejaVuSans-32"/>
       <use xlink:href="#DejaVuSans-30" x="63.623047"/>
       <use xlink:href="#DejaVuSans-32" x="127.246094"/>
       <use xlink:href="#DejaVuSans-34" x="190.869141"/>
       <use xlink:href="#DejaVuSans-2d" x="254.492188"/>
       <use xlink:href="#DejaVuSans-30" x="290.576172"/>
       <use xlink:href="#DejaVuSans-37" x="354.199219"/>
       <use xlink:href="#DejaVuSans-2d" x="417.822266"/>
       <use xlink:href="#DejaVuSans-30" x="453.90625"/>
       <use xlink:href="#DejaVuSans-31" x="517.529297"/>
      </g>
     </g>
    </g>
    <g id="xtick_7">
     <g id="line2d_13">
      <path d="M 581.443065 404.12 
L 581.443065 26.88 
" clip-path="url(#p4cd260d32a)" style="fill: none; stroke-dasharray: 2.96,1.28; stroke-dashoffset: 0; stroke: #b0b0b0; stroke-width: 0.8"/>
     </g>
     <g id="line2d_14">
      <g>
       <use xlink:href="#m52793b4d81" x="581.443065" y="404.12" style="stroke: #000000; stroke-width: 0.8"/>
      </g>
     </g>
     <g id="text_7">
      <!-- 2024-07-05 -->
      <g transform="translate(552.385252 418.718437) scale(0.1 -0.1)">
       <use xlink:href="#DejaVuSans-32"/>
       <use xlink:href="#DejaVuSans-30" x="63.623047"/>
       <use xlink:href="#DejaVuSans-32" x="127.246094"/>
       <use xlink:href="#DejaVuSans-34" x="190.869141"/>
       <use xlink:href="#DejaVuSans-2d" x="254.492188"/>
       <use xlink:href="#DejaVuSans-30" x="290.576172"/>
       <use xlink:href="#DejaVuSans-37" x="354.199219"/>
       <use xlink:href="#DejaVuSans-2d" x="417.822266"/>
       <use xlink:href="#DejaVuSans-30" x="453.90625"/>
       <use xlink:href="#DejaVuSans-35" x="517.529297"/>
      </g>
     </g>
    </g>
    <g id="xtick_8">
     <g id="line2d_15">
      <path d="M 675.558021 404.12 
L 675.558021 26.88 
" clip-path="url(#p4cd260d32a)" style="fill: none; stroke-dasharray: 2.96,1.28; stroke-dashoffset: 0; stroke: #b0b0b0; stroke-width: 0.8"/>
     </g>
     <g id="line2d_16">
      <g>
       <use xlink:href="#m52793b4d81" x="675.558021" y="404.12" style="stroke: #000000; stroke-width: 0.8"/>
      </g>
     </g>
     <g id="text_8">
      <!-- 2024-07-09 -->
      <g transform="translate(646.500208 418.718437) scale(0.1 -0.1)">
       <use xlink:href="#DejaVuSans-32"/>
       <use xlink:href="#DejaVuSans-30" x="63.623047"/>
       <use xlink:href="#DejaVuSans-32" x="127.246094"/>
       <use xlink:href="#DejaVuSans-34" x="190.869141"/>
       <use xlink:href="#DejaVuSans-2d" x="254.492188"/>
       <use xlink:href="#DejaVuSans-30" x="290.576172"/>
       <use xlink:href="#DejaVuSans-37" x="354.199219"/>
       <use xlink:href="#DejaVuSans-2d" x="417.822266"/>
       <use xlink:href="#DejaVuSans-30" x="453.90625"/>
       <use xlink:href="#DejaVuSans-39" x="517.529297"/>
      </g>
     </g>
    </g>
    <g id="xtick_9">
     <g id="line2d_17">
      <path d="M 769.672977 404.12 
L 769.672977 26.88 
" clip-path="url(#p4cd260d32a)" style="fill: none; stroke-dasharray: 2.96,1.28; stroke-dashoffset: 0; stroke: #b0b0b0; stroke-width: 0.8"/>
     </g>
     <g id="line2d_18">
      <g>
       <use xlink:href="#m52793b4d81" x="769.672977" y="404.12" style="stroke: #000000; stroke-width: 0.8"/>
      </g>
     </g>
     <g id="text_9">
      <!-- 2024-07-13 -->
      <g transform="translate(740.615164 418.718437) scale(0.1 -0.1)">
       <use xlink:href="#DejaVuSans-32"/>
       <use xlink:href="#DejaVuSans-30" x="63.623047"/>
       <use xlink:href="#DejaVuSans-32" x="127.246094"/>
       <use xlink:href="#DejaVuSans-34" x="190.869141"/>
       <use xlink:href="#DejaVuSans-2d" x="254.492188"/>
       <use xlink:href="#DejaVuSans-30" x="290.576172"/>
       <use xlink:href="#DejaVuSans-37" x="354.199219"/>
       <use xlink:href="#DejaVuSans-2d" x="417.822266"/>
       <use xlink:href="#DejaVuSans-31" x="453.90625"/>
       <use xlink:href="#DejaVuSans-33" x="517.529297"/>
      </g>
     </g>
    </g>
   </g>
   <g id="matplotlib.axis_2">
    <g id="ytick_1">
     <g id="line2d_19">
      <path d="M 50.87 389.46181 
L 853.2 389.46181 
" clip-path="url(#p4cd260d32a)" style="fill: none; stroke-dasharray: 2.96,1.28; stroke-dashoffset: 0; stroke: #b0b0b0; stroke-width: 0.8"/>
     </g>
     <g id="line2d_20">
      <defs>
       <path id="m7ba70354a4" d="M 0 0 
L -3.5 0 
" style="stroke: #000000; stroke-width: 0.8"/>
      </defs>
      <g>
       <use xlink:href="#m7ba70354a4" x="50.87" y="389.46181" style="stroke: #000000; stroke-width: 0.8"/>
      </g>
     </g>
     <g id="text_10">
      <!-- 0 -->
      <g transform="translate(37.5075 393.261029) scale(0.1 -0.1)">
       <use xlink:href="#DejaVuSans-30"/>
      </g>
     </g>
    </g>
    <g id="ytick_2">
     <g id="line2d_21">
      <path d="M 50.87 324.271964 
L 853.2 324.271964 
" clip-path="url(#p4cd260d32a)" style="fill: none; stroke-dasharray: 2.96,1.28; stroke-dashoffset: 0; stroke: #b0b0b0; stroke-width: 0.8"/>
     </g>
     <g id="line2d_22">
      <g>
       <use xlink:href="#m7ba70354a4" x="50.87" y="324.271964" style="stroke: #000000; stroke-width: 0.8"/>
      </g>
     </g>
     <g id="text_11">
      <!-- 50 -->
      <g transform="translate(31.145 328.071183) scale(0.1 -0.1)">
       <use xlink:href="#DejaVuSans-35"/>
       <use xlink:href="#DejaVuSans-30" x="63.623047"/>
      </g>
     </g>
    </g>
    <g id="ytick_3">
     <g id="line2d_23">
      <path d="M 50.87 259.082118 
L 853.2 259.082118 
" clip-path="url(#p4cd260d32a)" style="fill: none; stroke-dasharray: 2.96,1.28; stroke-dashoffset: 0; stroke: #b0b0b0; stroke-width: 0.8"/>
     </g>
     <g id="line2d_24">
      <g>
       <use xlink:href="#m7ba70354a4" x="50.87" y="259.082118" style="stroke: #000000; stroke-width: 0.8"/>
      </g>
     </g>
     <g id="text_12">
      <!-- 100 -->
      <g transform="translate(24.7825 262.881337) scale(0.1 -0.1)">
       <use xlink:href="#DejaVuSans-31"/>
       <use xlink:href="#DejaVuSans-30" x="63.623047"/>
       <use xlink:href="#DejaVuSans-30" x="127.246094"/>
      </g>
     </g>
    </g>
    <g id="ytick_4">
     <g id="line2d_25">
      <path d="M 50.87 193.892272 
L 853.2 193.892272 
" clip-path="url(#p4cd260d32a)" style="fill: none; stroke-dasharray: 2.96,1.28; stroke-dashoffset: 0; stroke: #b0b0b0; stroke-width: 0.8"/>
     </g>
     <g id="line2d_26">
      <g>
       <use xlink:href="#m7ba70354a4" x="50.87" y="193.892272" style="stroke: #000000; stroke-width: 0.8"/>
      </g>
     </g>
     <g id="text_13">
      <!-- 150 -->
      <g transform="translate(24.7825 197.69149) scale(0.1 -0.1)">
       <use xlink:href="#DejaVuSans-31"/>
       <use xlink:href="#DejaVuSans-35" x="63.623047"/>
       <use xlink:href="#DejaVuSans-30" x="127.246094"/>
      </g>
     </g>
    </g>
    <g id="ytick_5">
     <g id="line2d_27">
      <path d="M 50.87 128.702425 
L 853.2 128.702425 
" clip-path="url(#p4cd260d32a)" style="fill: none; stroke-dasharray: 2.96,1.28; stroke-dashoffset: 0; stroke: #b0b0b0; stroke-width: 0.8"/>
     </g>
     <g id="line2d_28">
      <g>
       <use xlink:href="#m7ba70354a4" x="50.87" y="128.702425" style="stroke: #000000; stroke-width: 0.8"/>
      </g>
     </g>
     <g id="text_14">
      <!-- 200 -->
      <g transform="translate(24.7825 132.501644) scale(0.1 -0.1)">
       <use xlink:href="#DejaVuSans-32"/>
       <use xlink:href="#DejaVuSans-30" x="63.623047"/>
       <use xlink:href="#DejaVuSans-30" x="127.246094"/>
      </g>
     </g>
    </g>
    <g id="ytick_6">
     <g id="line2d_29">
      <path d="M 50.87 63.512579 
L 853.2 63.512579 
" clip-path="url(#p4cd260d32a)" style="fill: none; stroke-dasharray: 2.96,1.28; stroke-dashoffset: 0; stroke: #b0b0b0; stroke-width: 0.8"/>
     </g>
     <g id="line2d_30">
      <g>
       <use xlink:href="#m7ba70354a4" x="50.87" y="63.512579" style="stroke: #000000; stroke-width: 0.8"/>
      </g>
     </g>
     <g id="text_15">
      <!-- 250 -->
      <g transform="translate(24.7825 67.311798) scale(0.1 -0.1)">
       <use xlink:href="#DejaVuSans-32"/>
       <use xlink:href="#DejaVuSans-35" x="63.623047"/>
       <use xlink:href="#DejaVuSans-30" x="127.246094"/>
      </g>
     </g>
    </g>
    <g id="text_16">
     <!-- Score -->
     <g transform="translate(18.702813 229.502344) rotate(-90) scale(0.1 -0.1)">
      <defs>
       <path id="DejaVuSans-53" d="M 3425 4513 
L 3425 3897 
Q 3066 4069 2747 4153 
Q 2428 4238 2131 4238 
Q 1616 4238 1336 4038 
Q 1056 3838 1056 3469 
Q 1056 3159 1242 3001 
Q 1428 2844 1947 2747 
L 2328 2669 
Q 3034 2534 3370 2195 
Q 3706 1856 3706 1288 
Q 3706 609 3251 259 
Q 2797 -91 1919 -91 
Q 1588 -91 1214 -16 
Q 841 59 441 206 
L 441 856 
Q 825 641 1194 531 
Q 1563 422 1919 422 
Q 2459 422 2753 634 
Q 3047 847 3047 1241 
Q 3047 1584 2836 1778 
Q 2625 1972 2144 2069 
L 1759 2144 
Q 1053 2284 737 2584 
Q 422 2884 422 3419 
Q 422 4038 858 4394 
Q 1294 4750 2059 4750 
Q 2388 4750 2728 4690 
Q 3069 4631 3425 4513 
z
" transform="scale(0.015625)"/>
       <path id="DejaVuSans-63" d="M 3122 3366 
L 3122 2828 
Q 2878 2963 2633 3030 
Q 2388 3097 2138 3097 
Q 1578 3097 1268 2742 
Q 959 2388 959 1747 
Q 959 1106 1268 751 
Q 1578 397 2138 397 
Q 2388 397 2633 464 
Q 2878 531 3122 666 
L 3122 134 
Q 2881 22 2623 -34 
Q 2366 -91 2075 -91 
Q 1284 -91 818 406 
Q 353 903 353 1747 
Q 353 2603 823 3093 
Q 1294 3584 2113 3584 
Q 2378 3584 2631 3529 
Q 2884 3475 3122 3366 
z
" transform="scale(0.015625)"/>
       <path id="DejaVuSans-6f" d="M 1959 3097 
Q 1497 3097 1228 2736 
Q 959 2375 959 1747 
Q 959 1119 1226 758 
Q 1494 397 1959 397 
Q 2419 397 2687 759 
Q 2956 1122 2956 1747 
Q 2956 2369 2687 2733 
Q 2419 3097 1959 3097 
z
M 1959 3584 
Q 2709 3584 3137 3096 
Q 3566 2609 3566 1747 
Q 3566 888 3137 398 
Q 2709 -91 1959 -91 
Q 1206 -91 779 398 
Q 353 888 353 1747 
Q 353 2609 779 3096 
Q 1206 3584 1959 3584 
z
" transform="scale(0.015625)"/>
       <path id="DejaVuSans-72" d="M 2631 2963 
Q 2534 3019 2420 3045 
Q 2306 3072 2169 3072 
Q 1681 3072 1420 2755 
Q 1159 2438 1159 1844 
L 1159 0 
L 581 0 
L 581 3500 
L 1159 3500 
L 1159 2956 
Q 1341 3275 1631 3429 
Q 1922 3584 2338 3584 
Q 2397 3584 2469 3576 
Q 2541 3569 2628 3553 
L 2631 2963 
z
" transform="scale(0.015625)"/>
       <path id="DejaVuSans-65" d="M 3597 1894 
L 3597 1613 
L 953 1613 
Q 991 1019 1311 708 
Q 1631 397 2203 397 
Q 2534 397 2845 478 
Q 3156 559 3463 722 
L 3463 178 
Q 3153 47 2828 -22 
Q 2503 -91 2169 -91 
Q 1331 -91 842 396 
Q 353 884 353 1716 
Q 353 2575 817 3079 
Q 1281 3584 2069 3584 
Q 2775 3584 3186 3129 
Q 3597 2675 3597 1894 
z
M 3022 2063 
Q 3016 2534 2758 2815 
Q 2500 3097 2075 3097 
Q 1594 3097 1305 2825 
Q 1016 2553 972 2059 
L 3022 2063 
z
" transform="scale(0.015625)"/>
      </defs>
      <use xlink:href="#DejaVuSans-53"/>
      <use xlink:href="#DejaVuSans-63" x="63.476562"/>
      <use xlink:href="#DejaVuSans-6f" x="118.457031"/>
      <use xlink:href="#DejaVuSans-72" x="179.638672"/>
      <use xlink:href="#DejaVuSans-65" x="218.501953"/>
     </g>
    </g>
   </g>
   <g id="line2d_31">
    <path d="M 87.339545 382.95153 
L 110.868284 350.356607 
L 134.397023 324.280668 
L 157.925762 311.242699 
L 181.454501 291.685745 
L 204.98324 269.521198 
L 228.511979 261.698416 
L 252.040718 252.571838 
L 275.569457 233.014884 
L 299.098196 210.850336 
L 322.626935 175.647819 
L 346.155674 157.394662 
L 369.684413 128.71113 
L 440.27063 128.71113 
L 463.79937 128.71113 
L 487.328109 128.71113 
L 510.856848 128.71113 
L 534.385587 128.71113 
L 581.443065 128.71113 
L 604.971804 128.71113 
L 628.500543 128.71113 
L 652.029282 128.71113 
L 675.558021 128.71113 
L 699.08676 109.154176 
L 722.615499 109.154176 
L 746.144238 109.154176 
L 769.672977 109.154176 
L 793.201716 109.154176 
L 816.730455 109.154176 
" clip-path="url(#p4cd260d32a)" style="fill: none; stroke: #1f77b4; stroke-width: 1.5; stroke-linecap: square"/>
    <defs>
     <path id="maca69182ae" d="M 0 3.5 
C 0.928211 3.5 1.81853 3.131218 2.474874 2.474874 
C 3.131218 1.81853 3.5 0.928211 3.5 0 
C 3.5 -0.928211 3.131218 -1.81853 2.474874 -2.474874 
C 1.81853 -3.131218 0.928211 -3.5 0 -3.5 
C -0.928211 -3.5 -1.81853 -3.131218 -2.474874 -2.474874 
C -3.131218 -1.81853 -3.5 -0.928211 -3.5 0 
C -3.5 0.928211 -3.131218 1.81853 -2.474874 2.474874 
C -1.81853 3.131218 -0.928211 3.5 0 3.5 
z
" style="stroke: #1f77b4"/>
    </defs>
    <g clip-path="url(#p4cd260d32a)">
     <use xlink:href="#maca69182ae" x="87.339545" y="382.95153" style="fill: #1f77b4; stroke: #1f77b4"/>
     <use xlink:href="#maca69182ae" x="110.868284" y="350.356607" style="fill: #1f77b4; stroke: #1f77b4"/>
     <use xlink:href="#maca69182ae" x="134.397023" y="324.280668" style="fill: #1f77b4; stroke: #1f77b4"/>
     <use xlink:href="#maca69182ae" x="157.925762" y="311.242699" style="fill: #1f77b4; stroke: #1f77b4"/>
     <use xlink:href="#maca69182ae" x="181.454501" y="291.685745" style="fill: #1f77b4; stroke: #1f77b4"/>
     <use xlink:href="#maca69182ae" x="204.98324" y="269.521198" style="fill: #1f77b4; stroke: #1f77b4"/>
     <use xlink:href="#maca69182ae" x="228.511979" y="261.698416" style="fill: #1f77b4; stroke: #1f77b4"/>
     <use xlink:href="#maca69182ae" x="252.040718" y="252.571838" style="fill: #1f77b4; stroke: #1f77b4"/>
     <use xlink:href="#maca69182ae" x="275.569457" y="233.014884" style="fill: #1f77b4; stroke: #1f77b4"/>
     <use xlink:href="#maca69182ae" x="299.098196" y="210.850336" style="fill: #1f77b4; stroke: #1f77b4"/>
     <use xlink:href="#maca69182ae" x="322.626935" y="175.647819" style="fill: #1f77b4; stroke: #1f77b4"/>
     <use xlink:href="#maca69182ae" x="346.155674" y="157.394662" style="fill: #1f77b4; stroke: #1f77b4"/>
     <use xlink:href="#maca69182ae" x="369.684413" y="128.71113" style="fill: #1f77b4; stroke: #1f77b4"/>
     <use xlink:href="#maca69182ae" x="440.27063" y="128.71113" style="fill: #1f77b4; stroke: #1f77b4"/>
     <use xlink:href="#maca69182ae" x="463.79937" y="128.71113" style="fill: #1f77b4; stroke: #1f77b4"/>
     <use xlink:href="#maca69182ae" x="487.328109" y="128.71113" style="fill: #1f77b4; stroke: #1f77b4"/>
     <use xlink:href="#maca69182ae" x="510.856848" y="128.71113" style="fill: #1f77b4; stroke: #1f77b4"/>
     <use xlink:href="#maca69182ae" x="534.385587" y="128.71113" style="fill: #1f77b4; stroke: #1f77b4"/>
     <use xlink:href="#maca69182ae" x="581.443065" y="128.71113" style="fill: #1f77b4; stroke: #1f77b4"/>
     <use xlink:href="#maca69182ae" x="604.971804" y="128.71113" style="fill: #1f77b4; stroke: #1f77b4"/>
     <use xlink:href="#maca69182ae" x="628.500543" y="128.71113" style="fill: #1f77b4; stroke: #1f77b4"/>
     <use xlink:href="#maca69182ae" x="652.029282" y="128.71113" style="fill: #1f77b4; stroke: #1f77b4"/>
     <use xlink:href="#maca69182ae" x="675.558021" y="128.71113" style="fill: #1f77b4; stroke: #1f77b4"/>
     <use xlink:href="#maca69182ae" x="699.08676" y="109.154176" style="fill: #1f77b4; stroke: #1f77b4"/>
     <use xlink:href="#maca69182ae" x="722.615499" y="109.154176" style="fill: #1f77b4; stroke: #1f77b4"/>
     <use xlink:href="#maca69182ae" x="746.144238" y="109.154176" style="fill: #1f77b4; stroke: #1f77b4"/>
     <use xlink:href="#maca69182ae" x="769.672977" y="109.154176" style="fill: #1f77b4; stroke: #1f77b4"/>
     <use xlink:href="#maca69182ae" x="793.201716" y="109.154176" style="fill: #1f77b4; stroke: #1f77b4"/>
     <use xlink:href="#maca69182ae" x="816.730455" y="109.154176" style="fill: #1f77b4; stroke: #1f77b4"/>
    </g>
   </g>
   <g id="line2d_32">
    <path d="M 87.339545 382.994402 
L 110.868284 356.918463 
L 134.397023 341.2729 
L 157.925762 321.715946 
L 181.454501 295.640008 
L 204.98324 279.994445 
L 228.511979 253.918506 
L 252.040718 238.272943 
L 275.569457 205.67802 
L 299.098196 190.032457 
L 322.626935 163.956518 
L 346.155674 148.310955 
L 369.684413 96.159078 
L 440.27063 96.159078 
L 463.79937 96.159078 
L 487.328109 96.159078 
L 510.856848 96.159078 
L 534.385587 96.159078 
L 581.443065 96.159078 
L 604.971804 96.159078 
L 628.500543 96.159078 
L 652.029282 96.159078 
L 675.558021 96.159078 
L 699.08676 96.159078 
L 722.615499 96.159078 
L 746.144238 96.159078 
L 769.672977 96.159078 
L 793.201716 96.159078 
L 816.730455 96.159078 
" clip-path="url(#p4cd260d32a)" style="fill: none; stroke: #ff7f0e; stroke-width: 1.5; stroke-linecap: square"/>
    <defs>
     <path id="m559a4cb8f8" d="M 0 3.5 
C 0.928211 3.5 1.81853 3.131218 2.474874 2.474874 
C 3.131218 1.81853 3.5 0.928211 3.5 0 
C 3.5 -0.928211 3.131218 -1.81853 2.474874 -2.474874 
C 1.81853 -3.131218 0.928211 -3.5 0 -3.5 
C -0.928211 -3.5 -1.81853 -3.131218 -2.474874 -2.474874 
C -3.131218 -1.81853 -3.5 -0.928211 -3.5 0 
C -3.5 0.928211 -3.131218 1.81853 -2.474874 2.474874 
C -1.81853 3.131218 -0.928211 3.5 0 3.5 
z
" style="stroke: #ff7f0e"/>
    </defs>
    <g clip-path="url(#p4cd260d32a)">
     <use xlink:href="#m559a4cb8f8" x="87.339545" y="382.994402" style="fill: #ff7f0e; stroke: #ff7f0e"/>
     <use xlink:href="#m559a4cb8f8" x="110.868284" y="356.918463" style="fill: #ff7f0e; stroke: #ff7f0e"/>
     <use xlink:href="#m559a4cb8f8" x="134.397023" y="341.2729" style="fill: #ff7f0e; stroke: #ff7f0e"/>
     <use xlink:href="#m559a4cb8f8" x="157.925762" y="321.715946" style="fill: #ff7f0e; stroke: #ff7f0e"/>
     <use xlink:href="#m559a4cb8f8" x="181.454501" y="295.640008" style="fill: #ff7f0e; stroke: #ff7f0e"/>
     <use xlink:href="#m559a4cb8f8" x="204.98324" y="279.994445" style="fill: #ff7f0e; stroke: #ff7f0e"/>
     <use xlink:href="#m559a4cb8f8" x="228.511979" y="253.918506" style="fill: #ff7f0e; stroke: #ff7f0e"/>
     <use xlink:href="#m559a4cb8f8" x="252.040718" y="238.272943" style="fill: #ff7f0e; stroke: #ff7f0e"/>
     <use xlink:href="#m559a4cb8f8" x="275.569457" y="205.67802" style="fill: #ff7f0e; stroke: #ff7f0e"/>
     <use xlink:href="#m559a4cb8f8" x="299.098196" y="190.032457" style="fill: #ff7f0e; stroke: #ff7f0e"/>
     <use xlink:href="#m559a4cb8f8" x="322.626935" y="163.956518" style="fill: #ff7f0e; stroke: #ff7f0e"/>
     <use xlink:href="#m559a4cb8f8" x="346.155674" y="148.310955" style="fill: #ff7f0e; stroke: #ff7f0e"/>
     <use xlink:href="#m559a4cb8f8" x="369.684413" y="96.159078" style="fill: #ff7f0e; stroke: #ff7f0e"/>
     <use xlink:href="#m559a4cb8f8" x="440.27063" y="96.159078" style="fill: #ff7f0e; stroke: #ff7f0e"/>
     <use xlink:href="#m559a4cb8f8" x="463.79937" y="96.159078" style="fill: #ff7f0e; stroke: #ff7f0e"/>
     <use xlink:href="#m559a4cb8f8" x="487.328109" y="96.159078" style="fill: #ff7f0e; stroke: #ff7f0e"/>
     <use xlink:href="#m559a4cb8f8" x="510.856848" y="96.159078" style="fill: #ff7f0e; stroke: #ff7f0e"/>
     <use xlink:href="#m559a4cb8f8" x="534.385587" y="96.159078" style="fill: #ff7f0e; stroke: #ff7f0e"/>
     <use xlink:href="#m559a4cb8f8" x="581.443065" y="96.159078" style="fill: #ff7f0e; stroke: #ff7f0e"/>
     <use xlink:href="#m559a4cb8f8" x="604.971804" y="96.159078" style="fill: #ff7f0e; stroke: #ff7f0e"/>
     <use xlink:href="#m559a4cb8f8" x="628.500543" y="96.159078" style="fill: #ff7f0e; stroke: #ff7f0e"/>
     <use xlink:href="#m559a4cb8f8" x="652.029282" y="96.159078" style="fill: #ff7f0e; stroke: #ff7f0e"/>
     <use xlink:href="#m559a4cb8f8" x="675.558021" y="96.159078" style="fill: #ff7f0e; stroke: #ff7f0e"/>
     <use xlink:href="#m559a4cb8f8" x="699.08676" y="96.159078" style="fill: #ff7f0e; stroke: #ff7f0e"/>
     <use xlink:href="#m559a4cb8f8" x="722.615499" y="96.159078" style="fill: #ff7f0e; stroke: #ff7f0e"/>
     <use xlink:href="#m559a4cb8f8" x="746.144238" y="96.159078" style="fill: #ff7f0e; stroke: #ff7f0e"/>
     <use xlink:href="#m559a4cb8f8" x="769.672977" y="96.159078" style="fill: #ff7f0e; stroke: #ff7f0e"/>
     <use xlink:href="#m559a4cb8f8" x="793.201716" y="96.159078" style="fill: #ff7f0e; stroke: #ff7f0e"/>
     <use xlink:href="#m559a4cb8f8" x="816.730455" y="96.159078" style="fill: #ff7f0e; stroke: #ff7f0e"/>
    </g>
   </g>
   <g id="line2d_33">
    <path d="M 87.339545 383.007656 
L 110.868284 350.412733 
L 134.397023 341.286154 
L 157.925762 334.76717 
L 181.454501 321.7292 
L 204.98324 296.957059 
L 228.511979 289.134277 
L 252.040718 273.488714 
L 275.569457 244.805182 
L 299.098196 222.640634 
L 322.626935 163.969773 
L 346.155674 148.32421 
L 369.684413 103.995114 
L 440.27063 103.995114 
L 463.79937 103.995114 
L 487.328109 103.995114 
L 510.856848 103.995114 
L 534.385587 103.995114 
L 581.443065 103.995114 
L 604.971804 103.995114 
L 628.500543 103.995114 
L 652.029282 103.995114 
L 675.558021 103.995114 
L 699.08676 84.43816 
L 722.615499 84.43816 
L 746.144238 84.43816 
L 769.672977 84.43816 
L 793.201716 84.43816 
L 816.730455 84.43816 
" clip-path="url(#p4cd260d32a)" style="fill: none; stroke: #2ca02c; stroke-width: 1.5; stroke-linecap: square"/>
    <defs>
     <path id="m106315956a" d="M 0 3.5 
C 0.928211 3.5 1.81853 3.131218 2.474874 2.474874 
C 3.131218 1.81853 3.5 0.928211 3.5 0 
C 3.5 -0.928211 3.131218 -1.81853 2.474874 -2.474874 
C 1.81853 -3.131218 0.928211 -3.5 0 -3.5 
C -0.928211 -3.5 -1.81853 -3.131218 -2.474874 -2.474874 
C -3.131218 -1.81853 -3.5 -0.928211 -3.5 0 
C -3.5 0.928211 -3.131218 1.81853 -2.474874 2.474874 
C -1.81853 3.131218 -0.928211 3.5 0 3.5 
z
" style="stroke: #2ca02c"/>
    </defs>
    <g clip-path="url(#p4cd260d32a)">
     <use xlink:href="#m106315956a" x="87.339545" y="383.007656" style="fill: #2ca02c; stroke: #2ca02c"/>
     <use xlink:href="#m106315956a" x="110.868284" y="350.412733" style="fill: #2ca02c; stroke: #2ca02c"/>
     <use xlink:href="#m106315956a" x="134.397023" y="341.286154" style="fill: #2ca02c; stroke: #2ca02c"/>
     <use xlink:href="#m106315956a" x="157.925762" y="334.76717" style="fill: #2ca02c; stroke: #2ca02c"/>
     <use xlink:href="#m106315956a" x="181.454501" y="321.7292" style="fill: #2ca02c; stroke: #2ca02c"/>
     <use xlink:href="#m106315956a" x="204.98324" y="296.957059" style="fill: #2ca02c; stroke: #2ca02c"/>
     <use xlink:href="#m106315956a" x="228.511979" y="289.134277" style="fill: #2ca02c; stroke: #2ca02c"/>
     <use xlink:href="#m106315956a" x="252.040718" y="273.488714" style="fill: #2ca02c; stroke: #2ca02c"/>
     <use xlink:href="#m106315956a" x="275.569457" y="244.805182" style="fill: #2ca02c; stroke: #2ca02c"/>
     <use xlink:href="#m106315956a" x="299.098196" y="222.640634" style="fill: #2ca02c; stroke: #2ca02c"/>
     <use xlink:href="#m106315956a" x="322.626935" y="163.969773" style="fill: #2ca02c; stroke: #2ca02c"/>
     <use xlink:href="#m106315956a" x="346.155674" y="148.32421" style="fill: #2ca02c; stroke: #2ca02c"/>
     <use xlink:href="#m106315956a" x="369.684413" y="103.995114" style="fill: #2ca02c; stroke: #2ca02c"/>
     <use xlink:href="#m106315956a" x="440.27063" y="103.995114" style="fill: #2ca02c; stroke: #2ca02c"/>
     <use xlink:href="#m106315956a" x="463.79937" y="103.995114" style="fill: #2ca02c; stroke: #2ca02c"/>
     <use xlink:href="#m106315956a" x="487.328109" y="103.995114" style="fill: #2ca02c; stroke: #2ca02c"/>
     <use xlink:href="#m106315956a" x="510.856848" y="103.995114" style="fill: #2ca02c; stroke: #2ca02c"/>
     <use xlink:href="#m106315956a" x="534.385587" y="103.995114" style="fill: #2ca02c; stroke: #2ca02c"/>
     <use xlink:href="#m106315956a" x="581.443065" y="103.995114" style="fill: #2ca02c; stroke: #2ca02c"/>
     <use xlink:href="#m106315956a" x="604.971804" y="103.995114" style="fill: #2ca02c; stroke: #2ca02c"/>
     <use xlink:href="#m106315956a" x="628.500543" y="103.995114" style="fill: #2ca02c; stroke: #2ca02c"/>
     <use xlink:href="#m106315956a" x="652.029282" y="103.995114" style="fill: #2ca02c; stroke: #2ca02c"/>
     <use xlink:href="#m106315956a" x="675.558021" y="103.995114" style="fill: #2ca02c; stroke: #2ca02c"/>
     <use xlink:href="#m106315956a" x="699.08676" y="84.43816" style="fill: #2ca02c; stroke: #2ca02c"/>
     <use xlink:href="#m106315956a" x="722.615499" y="84.43816" style="fill: #2ca02c; stroke: #2ca02c"/>
     <use xlink:href="#m106315956a" x="746.144238" y="84.43816" style="fill: #2ca02c; stroke: #2ca02c"/>
     <use xlink:href="#m106315956a" x="769.672977" y="84.43816" style="fill: #2ca02c; stroke: #2ca02c"/>
     <use xlink:href="#m106315956a" x="793.201716" y="84.43816" style="fill: #2ca02c; stroke: #2ca02c"/>
     <use xlink:href="#m106315956a" x="816.730455" y="84.43816" style="fill: #2ca02c; stroke: #2ca02c"/>
    </g>
   </g>
   <g id="line2d_34">
    <path d="M 87.339545 382.939041 
L 110.868284 360.774493 
L 134.397023 345.12893 
L 157.925762 329.483367 
L 181.454501 322.964382 
L 204.98324 298.19224 
L 228.511979 286.458068 
L 252.040718 278.635287 
L 275.569457 252.559348 
L 299.098196 227.787207 
L 322.626935 188.673299 
L 346.155674 171.723939 
L 369.684413 143.040406 
L 440.27063 143.040406 
L 463.79937 143.040406 
L 487.328109 143.040406 
L 510.856848 143.040406 
L 534.385587 143.040406 
L 581.443065 143.040406 
L 604.971804 143.040406 
L 628.500543 143.040406 
L 652.029282 143.040406 
L 675.558021 143.040406 
L 699.08676 123.483453 
L 722.615499 123.483453 
L 746.144238 123.483453 
L 769.672977 123.483453 
L 793.201716 123.483453 
L 816.730455 123.483453 
" clip-path="url(#p4cd260d32a)" style="fill: none; stroke: #d62728; stroke-width: 1.5; stroke-linecap: square"/>
    <defs>
     <path id="m3f55a29048" d="M 0 3.5 
C 0.928211 3.5 1.81853 3.131218 2.474874 2.474874 
C 3.131218 1.81853 3.5 0.928211 3.5 0 
C 3.5 -0.928211 3.131218 -1.81853 2.474874 -2.474874 
C 1.81853 -3.131218 0.928211 -3.5 0 -3.5 
C -0.928211 -3.5 -1.81853 -3.131218 -2.474874 -2.474874 
C -3.131218 -1.81853 -3.5 -0.928211 -3.5 0 
C -3.5 0.928211 -3.131218 1.81853 -2.474874 2.474874 
C -1.81853 3.131218 -0.928211 3.5 0 3.5 
z
" style="stroke: #d62728"/>
    </defs>
    <g clip-path="url(#p4cd260d32a)">
     <use xlink:href="#m3f55a29048" x="87.339545" y="382.939041" style="fill: #d62728; stroke: #d62728"/>
     <use xlink:href="#m3f55a29048" x="110.868284" y="360.774493" style="fill: #d62728; stroke: #d62728"/>
     <use xlink:href="#m3f55a29048" x="134.397023" y="345.12893" style="fill: #d62728; stroke: #d62728"/>
     <use xlink:href="#m3f55a29048" x="157.925762" y="329.483367" style="fill: #d62728; stroke: #d62728"/>
     <use xlink:href="#m3f55a29048" x="181.454501" y="322.964382" style="fill: #d62728; stroke: #d62728"/>
     <use xlink:href="#m3f55a29048" x="204.98324" y="298.19224" style="fill: #d62728; stroke: #d62728"/>
     <use xlink:href="#m3f55a29048" x="228.511979" y="286.458068" style="fill: #d62728; stroke: #d62728"/>
     <use xlink:href="#m3f55a29048" x="252.040718" y="278.635287" style="fill: #d62728; stroke: #d62728"/>
     <use xlink:href="#m3f55a29048" x="275.569457" y="252.559348" style="fill: #d62728; stroke: #d62728"/>
     <use xlink:href="#m3f55a29048" x="299.098196" y="227.787207" style="fill: #d62728; stroke: #d62728"/>
     <use xlink:href="#m3f55a29048" x="322.626935" y="188.673299" style="fill: #d62728; stroke: #d62728"/>
     <use xlink:href="#m3f55a29048" x="346.155674" y="171.723939" style="fill: #d62728; stroke: #d62728"/>
     <use xlink:href="#m3f55a29048" x="369.684413" y="143.040406" style="fill: #d62728; stroke: #d62728"/>
     <use xlink:href="#m3f55a29048" x="440.27063" y="143.040406" style="fill: #d62728; stroke: #d62728"/>
     <use xlink:href="#m3f55a29048" x="463.79937" y="143.040406" style="fill: #d62728; stroke: #d62728"/>
     <use xlink:href="#m3f55a29048" x="487.328109" y="143.040406" style="fill: #d62728; stroke: #d62728"/>
     <use xlink:href="#m3f55a29048" x="510.856848" y="143.040406" style="fill: #d62728; stroke: #d62728"/>
     <use xlink:href="#m3f55a29048" x="534.385587" y="143.040406" style="fill: #d62728; stroke: #d62728"/>
     <use xlink:href="#m3f55a29048" x="581.443065" y="143.040406" style="fill: #d62728; stroke: #d62728"/>
     <use xlink:href="#m3f55a29048" x="604.971804" y="143.040406" style="fill: #d62728; stroke: #d62728"/>
     <use xlink:href="#m3f55a29048" x="628.500543" y="143.040406" style="fill: #d62728; stroke: #d62728"/>
     <use xlink:href="#m3f55a29048" x="652.029282" y="143.040406" style="fill: #d62728; stroke: #d62728"/>
     <use xlink:href="#m3f55a29048" x="675.558021" y="143.040406" style="fill: #d62728; stroke: #d62728"/>
     <use xlink:href="#m3f55a29048" x="699.08676" y="123.483453" style="fill: #d62728; stroke: #d62728"/>
     <use xlink:href="#m3f55a29048" x="722.615499" y="123.483453" style="fill: #d62728; stroke: #d62728"/>
     <use xlink:href="#m3f55a29048" x="746.144238" y="123.483453" style="fill: #d62728; stroke: #d62728"/>
     <use xlink:href="#m3f55a29048" x="769.672977" y="123.483453" style="fill: #d62728; stroke: #d62728"/>
     <use xlink:href="#m3f55a29048" x="793.201716" y="123.483453" style="fill: #d62728; stroke: #d62728"/>
     <use xlink:href="#m3f55a29048" x="816.730455" y="123.483453" style="fill: #d62728; stroke: #d62728"/>
    </g>
   </g>
   <g id="line2d_35">
    <path d="M 87.339545 383.04661 
L 110.868284 347.844093 
L 134.397023 319.16056 
L 157.925762 303.514997 
L 181.454501 287.869434 
L 204.98324 272.223871 
L 228.511979 269.616277 
L 252.040718 247.45173 
L 275.569457 214.856806 
L 299.098196 190.084665 
L 322.626935 150.970757 
L 346.155674 135.325194 
L 369.684413 106.641662 
L 440.27063 106.641662 
L 463.79937 106.641662 
L 487.328109 106.641662 
L 510.856848 106.641662 
L 534.385587 106.641662 
L 581.443065 106.641662 
L 604.971804 106.641662 
L 628.500543 106.641662 
L 652.029282 106.641662 
L 675.558021 106.641662 
L 699.08676 87.084708 
L 722.615499 87.084708 
L 746.144238 87.084708 
L 769.672977 87.084708 
L 793.201716 87.084708 
L 816.730455 87.084708 
" clip-path="url(#p4cd260d32a)" style="fill: none; stroke: #9467bd; stroke-width: 1.5; stroke-linecap: square"/>
    <defs>
     <path id="m69a672e704" d="M 0 3.5 
C 0.928211 3.5 1.81853 3.131218 2.474874 2.474874 
C 3.131218 1.81853 3.5 0.928211 3.5 0 
C 3.5 -0.928211 3.131218 -1.81853 2.474874 -2.474874 
C 1.81853 -3.131218 0.928211 -3.5 0 -3.5 
C -0.928211 -3.5 -1.81853 -3.131218 -2.474874 -2.474874 
C -3.131218 -1.81853 -3.5 -0.928211 -3.5 0 
C -3.5 0.928211 -3.131218 1.81853 -2.474874 2.474874 
C -1.81853 3.131218 -0.928211 3.5 0 3.5 
z
" style="stroke: #9467bd"/>
    </defs>
    <g clip-path="url(#p4cd260d32a)">
     <use xlink:href="#m69a672e704" x="87.339545" y="383.04661" style="fill: #9467bd; stroke: #9467bd"/>
     <use xlink:href="#m69a672e704" x="110.868284" y="347.844093" style="fill: #9467bd; stroke: #9467bd"/>
     <use xlink:href="#m69a672e704" x="134.397023" y="319.16056" style="fill: #9467bd; stroke: #9467bd"/>
     <use xlink:href="#m69a672e704" x="157.925762" y="303.514997" style="fill: #9467bd; stroke: #9467bd"/>
     <use xlink:href="#m69a672e704" x="181.454501" y="287.869434" style="fill: #9467bd; stroke: #9467bd"/>
     <use xlink:href="#m69a672e704" x="204.98324" y="272.223871" style="fill: #9467bd; stroke: #9467bd"/>
     <use xlink:href="#m69a672e704" x="228.511979" y="269.616277" style="fill: #9467bd; stroke: #9467bd"/>
     <use xlink:href="#m69a672e704" x="252.040718" y="247.45173" style="fill: #9467bd; stroke: #9467bd"/>
     <use xlink:href="#m69a672e704" x="275.569457" y="214.856806" style="fill: #9467bd; stroke: #9467bd"/>
     <use xlink:href="#m69a672e704" x="299.098196" y="190.084665" style="fill: #9467bd; stroke: #9467bd"/>
     <use xlink:href="#m69a672e704" x="322.626935" y="150.970757" style="fill: #9467bd; stroke: #9467bd"/>
     <use xlink:href="#m69a672e704" x="346.155674" y="135.325194" style="fill: #9467bd; stroke: #9467bd"/>
     <use xlink:href="#m69a672e704" x="369.684413" y="106.641662" style="fill: #9467bd; stroke: #9467bd"/>
     <use xlink:href="#m69a672e704" x="440.27063" y="106.641662" style="fill: #9467bd; stroke: #9467bd"/>
     <use xlink:href="#m69a672e704" x="463.79937" y="106.641662" style="fill: #9467bd; stroke: #9467bd"/>
     <use xlink:href="#m69a672e704" x="487.328109" y="106.641662" style="fill: #9467bd; stroke: #9467bd"/>
     <use xlink:href="#m69a672e704" x="510.856848" y="106.641662" style="fill: #9467bd; stroke: #9467bd"/>
     <use xlink:href="#m69a672e704" x="534.385587" y="106.641662" style="fill: #9467bd; stroke: #9467bd"/>
     <use xlink:href="#m69a672e704" x="581.443065" y="106.641662" style="fill: #9467bd; stroke: #9467bd"/>
     <use xlink:href="#m69a672e704" x="604.971804" y="106.641662" style="fill: #9467bd; stroke: #9467bd"/>
     <use xlink:href="#m69a672e704" x="628.500543" y="106.641662" style="fill: #9467bd; stroke: #9467bd"/>
     <use xlink:href="#m69a672e704" x="652.029282" y="106.641662" style="fill: #9467bd; stroke: #9467bd"/>
     <use xlink:href="#m69a672e704" x="675.558021" y="106.641662" style="fill: #9467bd; stroke: #9467bd"/>
     <use xlink:href="#m69a672e704" x="699.08676" y="87.084708" style="fill: #9467bd; stroke: #9467bd"/>
     <use xlink:href="#m69a672e704" x="722.615499" y="87.084708" style="fill: #9467bd; stroke: #9467bd"/>
     <use xlink:href="#m69a672e704" x="746.144238" y="87.084708" style="fill: #9467bd; stroke: #9467bd"/>
     <use xlink:href="#m69a672e704" x="769.672977" y="87.084708" style="fill: #9467bd; stroke: #9467bd"/>
     <use xlink:href="#m69a672e704" x="793.201716" y="87.084708" style="fill: #9467bd; stroke: #9467bd"/>
     <use xlink:href="#m69a672e704" x="816.730455" y="87.084708" style="fill: #9467bd; stroke: #9467bd"/>
    </g>
   </g>
   <g id="line2d_36">
    <path d="M 87.339545 383.014473 
L 110.868284 350.41955 
L 134.397023 324.343611 
L 157.925762 298.267673 
L 181.454501 278.710719 
L 204.98324 256.546171 
L 228.511979 253.938578 
L 252.040718 248.72339 
L 275.569457 203.090498 
L 299.098196 178.318356 
L 322.626935 145.723433 
L 346.155674 124.862682 
L 369.684413 63.584227 
L 440.27063 63.584227 
L 463.79937 63.584227 
L 487.328109 63.584227 
L 510.856848 63.584227 
L 534.385587 63.584227 
L 581.443065 63.584227 
L 604.971804 63.584227 
L 628.500543 63.584227 
L 652.029282 63.584227 
L 675.558021 63.584227 
L 699.08676 44.027273 
L 722.615499 44.027273 
L 746.144238 44.027273 
L 769.672977 44.027273 
L 793.201716 44.027273 
L 816.730455 44.027273 
" clip-path="url(#p4cd260d32a)" style="fill: none; stroke: #8c564b; stroke-width: 1.5; stroke-linecap: square"/>
    <defs>
     <path id="m08d733b911" d="M 0 3.5 
C 0.928211 3.5 1.81853 3.131218 2.474874 2.474874 
C 3.131218 1.81853 3.5 0.928211 3.5 0 
C 3.5 -0.928211 3.131218 -1.81853 2.474874 -2.474874 
C 1.81853 -3.131218 0.928211 -3.5 0 -3.5 
C -0.928211 -3.5 -1.81853 -3.131218 -2.474874 -2.474874 
C -3.131218 -1.81853 -3.5 -0.928211 -3.5 0 
C -3.5 0.928211 -3.131218 1.81853 -2.474874 2.474874 
C -1.81853 3.131218 -0.928211 3.5 0 3.5 
z
" style="stroke: #8c564b"/>
    </defs>
    <g clip-path="url(#p4cd260d32a)">
     <use xlink:href="#m08d733b911" x="87.339545" y="383.014473" style="fill: #8c564b; stroke: #8c564b"/>
     <use xlink:href="#m08d733b911" x="110.868284" y="350.41955" style="fill: #8c564b; stroke: #8c564b"/>
     <use xlink:href="#m08d733b911" x="134.397023" y="324.343611" style="fill: #8c564b; stroke: #8c564b"/>
     <use xlink:href="#m08d733b911" x="157.925762" y="298.267673" style="fill: #8c564b; stroke: #8c564b"/>
     <use xlink:href="#m08d733b911" x="181.454501" y="278.710719" style="fill: #8c564b; stroke: #8c564b"/>
     <use xlink:href="#m08d733b911" x="204.98324" y="256.546171" style="fill: #8c564b; stroke: #8c564b"/>
     <use xlink:href="#m08d733b911" x="228.511979" y="253.938578" style="fill: #8c564b; stroke: #8c564b"/>
     <use xlink:href="#m08d733b911" x="252.040718" y="248.72339" style="fill: #8c564b; stroke: #8c564b"/>
     <use xlink:href="#m08d733b911" x="275.569457" y="203.090498" style="fill: #8c564b; stroke: #8c564b"/>
     <use xlink:href="#m08d733b911" x="299.098196" y="178.318356" style="fill: #8c564b; stroke: #8c564b"/>
     <use xlink:href="#m08d733b911" x="322.626935" y="145.723433" style="fill: #8c564b; stroke: #8c564b"/>
     <use xlink:href="#m08d733b911" x="346.155674" y="124.862682" style="fill: #8c564b; stroke: #8c564b"/>
     <use xlink:href="#m08d733b911" x="369.684413" y="63.584227" style="fill: #8c564b; stroke: #8c564b"/>
     <use xlink:href="#m08d733b911" x="440.27063" y="63.584227" style="fill: #8c564b; stroke: #8c564b"/>
     <use xlink:href="#m08d733b911" x="463.79937" y="63.584227" style="fill: #8c564b; stroke: #8c564b"/>
     <use xlink:href="#m08d733b911" x="487.328109" y="63.584227" style="fill: #8c564b; stroke: #8c564b"/>
     <use xlink:href="#m08d733b911" x="510.856848" y="63.584227" style="fill: #8c564b; stroke: #8c564b"/>
     <use xlink:href="#m08d733b911" x="534.385587" y="63.584227" style="fill: #8c564b; stroke: #8c564b"/>
     <use xlink:href="#m08d733b911" x="581.443065" y="63.584227" style="fill: #8c564b; stroke: #8c564b"/>
     <use xlink:href="#m08d733b911" x="604.971804" y="63.584227" style="fill: #8c564b; stroke: #8c564b"/>
     <use xlink:href="#m08d733b911" x="628.500543" y="63.584227" style="fill: #8c564b; stroke: #8c564b"/>
     <use xlink:href="#m08d733b911" x="652.029282" y="63.584227" style="fill: #8c564b; stroke: #8c564b"/>
     <use xlink:href="#m08d733b911" x="675.558021" y="63.584227" style="fill: #8c564b; stroke: #8c564b"/>
     <use xlink:href="#m08d733b911" x="699.08676" y="44.027273" style="fill: #8c564b; stroke: #8c564b"/>
     <use xlink:href="#m08d733b911" x="722.615499" y="44.027273" style="fill: #8c564b; stroke: #8c564b"/>
     <use xlink:href="#m08d733b911" x="746.144238" y="44.027273" style="fill: #8c564b; stroke: #8c564b"/>
     <use xlink:href="#m08d733b911" x="769.672977" y="44.027273" style="fill: #8c564b; stroke: #8c564b"/>
     <use xlink:href="#m08d733b911" x="793.201716" y="44.027273" style="fill: #8c564b; stroke: #8c564b"/>
     <use xlink:href="#m08d733b911" x="816.730455" y="44.027273" style="fill: #8c564b; stroke: #8c564b"/>
    </g>
   </g>
   <g id="line2d_37">
    <path d="M 87.339545 386.880534 
L 110.868284 384.27294 
L 134.397023 381.665346 
L 157.925762 349.070423 
L 181.454501 342.551439 
L 204.98324 339.943845 
L 228.511979 313.867906 
L 252.040718 306.045125 
L 275.569457 293.007155 
L 299.098196 281.272983 
L 322.626935 261.716029 
L 346.155674 247.374263 
L 369.684413 176.969229 
L 440.27063 176.969229 
L 463.79937 176.969229 
L 487.328109 176.969229 
L 510.856848 176.969229 
L 534.385587 176.969229 
L 581.443065 176.969229 
L 604.971804 176.969229 
L 628.500543 176.969229 
L 652.029282 176.969229 
L 675.558021 176.969229 
L 699.08676 176.969229 
L 722.615499 176.969229 
L 746.144238 176.969229 
L 769.672977 176.969229 
L 793.201716 176.969229 
L 816.730455 176.969229 
" clip-path="url(#p4cd260d32a)" style="fill: none; stroke: #e377c2; stroke-width: 1.5; stroke-linecap: square"/>
    <defs>
     <path id="md4f530c0d4" d="M 0 3.5 
C 0.928211 3.5 1.81853 3.131218 2.474874 2.474874 
C 3.131218 1.81853 3.5 0.928211 3.5 0 
C 3.5 -0.928211 3.131218 -1.81853 2.474874 -2.474874 
C 1.81853 -3.131218 0.928211 -3.5 0 -3.5 
C -0.928211 -3.5 -1.81853 -3.131218 -2.474874 -2.474874 
C -3.131218 -1.81853 -3.5 -0.928211 -3.5 0 
C -3.5 0.928211 -3.131218 1.81853 -2.474874 2.474874 
C -1.81853 3.131218 -0.928211 3.5 0 3.5 
z
" style="stroke: #e377c2"/>
    </defs>
    <g clip-path="url(#p4cd260d32a)">
     <use xlink:href="#md4f530c0d4" x="87.339545" y="386.880534" style="fill: #e377c2; stroke: #e377c2"/>
     <use xlink:href="#md4f530c0d4" x="110.868284" y="384.27294" style="fill: #e377c2; stroke: #e377c2"/>
     <use xlink:href="#md4f530c0d4" x="134.397023" y="381.665346" style="fill: #e377c2; stroke: #e377c2"/>
     <use xlink:href="#md4f530c0d4" x="157.925762" y="349.070423" style="fill: #e377c2; stroke: #e377c2"/>
     <use xlink:href="#md4f530c0d4" x="181.454501" y="342.551439" style="fill: #e377c2; stroke: #e377c2"/>
     <use xlink:href="#md4f530c0d4" x="204.98324" y="339.943845" style="fill: #e377c2; stroke: #e377c2"/>
     <use xlink:href="#md4f530c0d4" x="228.511979" y="313.867906" style="fill: #e377c2; stroke: #e377c2"/>
     <use xlink:href="#md4f530c0d4" x="252.040718" y="306.045125" style="fill: #e377c2; stroke: #e377c2"/>
     <use xlink:href="#md4f530c0d4" x="275.569457" y="293.007155" style="fill: #e377c2; stroke: #e377c2"/>
     <use xlink:href="#md4f530c0d4" x="299.098196" y="281.272983" style="fill: #e377c2; stroke: #e377c2"/>
     <use xlink:href="#md4f530c0d4" x="322.626935" y="261.716029" style="fill: #e377c2; stroke: #e377c2"/>
     <use xlink:href="#md4f530c0d4" x="346.155674" y="247.374263" style="fill: #e377c2; stroke: #e377c2"/>
     <use xlink:href="#md4f530c0d4" x="369.684413" y="176.969229" style="fill: #e377c2; stroke: #e377c2"/>
     <use xlink:href="#md4f530c0d4" x="440.27063" y="176.969229" style="fill: #e377c2; stroke: #e377c2"/>
     <use xlink:href="#md4f530c0d4" x="463.79937" y="176.969229" style="fill: #e377c2; stroke: #e377c2"/>
     <use xlink:href="#md4f530c0d4" x="487.328109" y="176.969229" style="fill: #e377c2; stroke: #e377c2"/>
     <use xlink:href="#md4f530c0d4" x="510.856848" y="176.969229" style="fill: #e377c2; stroke: #e377c2"/>
     <use xlink:href="#md4f530c0d4" x="534.385587" y="176.969229" style="fill: #e377c2; stroke: #e377c2"/>
     <use xlink:href="#md4f530c0d4" x="581.443065" y="176.969229" style="fill: #e377c2; stroke: #e377c2"/>
     <use xlink:href="#md4f530c0d4" x="604.971804" y="176.969229" style="fill: #e377c2; stroke: #e377c2"/>
     <use xlink:href="#md4f530c0d4" x="628.500543" y="176.969229" style="fill: #e377c2; stroke: #e377c2"/>
     <use xlink:href="#md4f530c0d4" x="652.029282" y="176.969229" style="fill: #e377c2; stroke: #e377c2"/>
     <use xlink:href="#md4f530c0d4" x="675.558021" y="176.969229" style="fill: #e377c2; stroke: #e377c2"/>
     <use xlink:href="#md4f530c0d4" x="699.08676" y="176.969229" style="fill: #e377c2; stroke: #e377c2"/>
     <use xlink:href="#md4f530c0d4" x="722.615499" y="176.969229" style="fill: #e377c2; stroke: #e377c2"/>
     <use xlink:href="#md4f530c0d4" x="746.144238" y="176.969229" style="fill: #e377c2; stroke: #e377c2"/>
     <use xlink:href="#md4f530c0d4" x="769.672977" y="176.969229" style="fill: #e377c2; stroke: #e377c2"/>
     <use xlink:href="#md4f530c0d4" x="793.201716" y="176.969229" style="fill: #e377c2; stroke: #e377c2"/>
     <use xlink:href="#md4f530c0d4" x="816.730455" y="176.969229" style="fill: #e377c2; stroke: #e377c2"/>
    </g>
   </g>
   <g id="line2d_38">
    <path d="M 87.339545 386.972727 
L 110.868284 358.289195 
L 134.397023 329.605663 
L 157.925762 320.479084 
L 181.454501 294.403146 
L 204.98324 269.631004 
L 228.511979 253.985441 
L 252.040718 251.377847 
L 275.569457 222.694315 
L 299.098196 216.17533 
L 322.626935 164.023453 
L 346.155674 149.681687 
L 369.684413 105.352592 
L 440.27063 105.352592 
L 463.79937 105.352592 
L 487.328109 105.352592 
L 510.856848 105.352592 
L 534.385587 105.352592 
L 581.443065 105.352592 
L 604.971804 105.352592 
L 628.500543 105.352592 
L 652.029282 105.352592 
L 675.558021 105.352592 
L 699.08676 85.795638 
L 722.615499 85.795638 
L 746.144238 85.795638 
L 769.672977 85.795638 
L 793.201716 85.795638 
L 816.730455 85.795638 
" clip-path="url(#p4cd260d32a)" style="fill: none; stroke: #7f7f7f; stroke-width: 1.5; stroke-linecap: square"/>
    <defs>
     <path id="m8f88ce33b1" d="M 0 3.5 
C 0.928211 3.5 1.81853 3.131218 2.474874 2.474874 
C 3.131218 1.81853 3.5 0.928211 3.5 0 
C 3.5 -0.928211 3.131218 -1.81853 2.474874 -2.474874 
C 1.81853 -3.131218 0.928211 -3.5 0 -3.5 
C -0.928211 -3.5 -1.81853 -3.131218 -2.474874 -2.474874 
C -3.131218 -1.81853 -3.5 -0.928211 -3.5 0 
C -3.5 0.928211 -3.131218 1.81853 -2.474874 2.474874 
C -1.81853 3.131218 -0.928211 3.5 0 3.5 
z
" style="stroke: #7f7f7f"/>
    </defs>
    <g clip-path="url(#p4cd260d32a)">
     <use xlink:href="#m8f88ce33b1" x="87.339545" y="386.972727" style="fill: #7f7f7f; stroke: #7f7f7f"/>
     <use xlink:href="#m8f88ce33b1" x="110.868284" y="358.289195" style="fill: #7f7f7f; stroke: #7f7f7f"/>
     <use xlink:href="#m8f88ce33b1" x="134.397023" y="329.605663" style="fill: #7f7f7f; stroke: #7f7f7f"/>
     <use xlink:href="#m8f88ce33b1" x="157.925762" y="320.479084" style="fill: #7f7f7f; stroke: #7f7f7f"/>
     <use xlink:href="#m8f88ce33b1" x="181.454501" y="294.403146" style="fill: #7f7f7f; stroke: #7f7f7f"/>
     <use xlink:href="#m8f88ce33b1" x="204.98324" y="269.631004" style="fill: #7f7f7f; stroke: #7f7f7f"/>
     <use xlink:href="#m8f88ce33b1" x="228.511979" y="253.985441" style="fill: #7f7f7f; stroke: #7f7f7f"/>
     <use xlink:href="#m8f88ce33b1" x="252.040718" y="251.377847" style="fill: #7f7f7f; stroke: #7f7f7f"/>
     <use xlink:href="#m8f88ce33b1" x="275.569457" y="222.694315" style="fill: #7f7f7f; stroke: #7f7f7f"/>
     <use xlink:href="#m8f88ce33b1" x="299.098196" y="216.17533" style="fill: #7f7f7f; stroke: #7f7f7f"/>
     <use xlink:href="#m8f88ce33b1" x="322.626935" y="164.023453" style="fill: #7f7f7f; stroke: #7f7f7f"/>
     <use xlink:href="#m8f88ce33b1" x="346.155674" y="149.681687" style="fill: #7f7f7f; stroke: #7f7f7f"/>
     <use xlink:href="#m8f88ce33b1" x="369.684413" y="105.352592" style="fill: #7f7f7f; stroke: #7f7f7f"/>
     <use xlink:href="#m8f88ce33b1" x="440.27063" y="105.352592" style="fill: #7f7f7f; stroke: #7f7f7f"/>
     <use xlink:href="#m8f88ce33b1" x="463.79937" y="105.352592" style="fill: #7f7f7f; stroke: #7f7f7f"/>
     <use xlink:href="#m8f88ce33b1" x="487.328109" y="105.352592" style="fill: #7f7f7f; stroke: #7f7f7f"/>
     <use xlink:href="#m8f88ce33b1" x="510.856848" y="105.352592" style="fill: #7f7f7f; stroke: #7f7f7f"/>
     <use xlink:href="#m8f88ce33b1" x="534.385587" y="105.352592" style="fill: #7f7f7f; stroke: #7f7f7f"/>
     <use xlink:href="#m8f88ce33b1" x="581.443065" y="105.352592" style="fill: #7f7f7f; stroke: #7f7f7f"/>
     <use xlink:href="#m8f88ce33b1" x="604.971804" y="105.352592" style="fill: #7f7f7f; stroke: #7f7f7f"/>
     <use xlink:href="#m8f88ce33b1" x="628.500543" y="105.352592" style="fill: #7f7f7f; stroke: #7f7f7f"/>
     <use xlink:href="#m8f88ce33b1" x="652.029282" y="105.352592" style="fill: #7f7f7f; stroke: #7f7f7f"/>
     <use xlink:href="#m8f88ce33b1" x="675.558021" y="105.352592" style="fill: #7f7f7f; stroke: #7f7f7f"/>
     <use xlink:href="#m8f88ce33b1" x="699.08676" y="85.795638" style="fill: #7f7f7f; stroke: #7f7f7f"/>
     <use xlink:href="#m8f88ce33b1" x="722.615499" y="85.795638" style="fill: #7f7f7f; stroke: #7f7f7f"/>
     <use xlink:href="#m8f88ce33b1" x="746.144238" y="85.795638" style="fill: #7f7f7f; stroke: #7f7f7f"/>
     <use xlink:href="#m8f88ce33b1" x="769.672977" y="85.795638" style="fill: #7f7f7f; stroke: #7f7f7f"/>
     <use xlink:href="#m8f88ce33b1" x="793.201716" y="85.795638" style="fill: #7f7f7f; stroke: #7f7f7f"/>
     <use xlink:href="#m8f88ce33b1" x="816.730455" y="85.795638" style="fill: #7f7f7f; stroke: #7f7f7f"/>
    </g>
   </g>
   <g id="line2d_39">
    <path d="M 87.339545 376.418311 
L 110.868284 363.380342 
L 134.397023 343.823388 
L 157.925762 328.177825 
L 181.454501 312.532262 
L 204.98324 277.329745 
L 228.511979 272.114557 
L 252.040718 260.380385 
L 275.569457 227.785462 
L 299.098196 201.709523 
L 322.626935 149.557646 
L 346.155674 133.912083 
L 369.684413 79.152612 
L 440.27063 79.152612 
L 463.79937 79.152612 
L 487.328109 79.152612 
L 510.856848 79.152612 
L 534.385587 79.152612 
L 581.443065 79.152612 
L 604.971804 79.152612 
L 628.500543 79.152612 
L 652.029282 79.152612 
L 675.558021 79.152612 
L 699.08676 59.595659 
L 722.615499 59.595659 
L 746.144238 59.595659 
L 769.672977 59.595659 
L 793.201716 59.595659 
L 816.730455 59.595659 
" clip-path="url(#p4cd260d32a)" style="fill: none; stroke: #bcbd22; stroke-width: 1.5; stroke-linecap: square"/>
    <defs>
     <path id="m0f24b28ae1" d="M 0 3.5 
C 0.928211 3.5 1.81853 3.131218 2.474874 2.474874 
C 3.131218 1.81853 3.5 0.928211 3.5 0 
C 3.5 -0.928211 3.131218 -1.81853 2.474874 -2.474874 
C 1.81853 -3.131218 0.928211 -3.5 0 -3.5 
C -0.928211 -3.5 -1.81853 -3.131218 -2.474874 -2.474874 
C -3.131218 -1.81853 -3.5 -0.928211 -3.5 0 
C -3.5 0.928211 -3.131218 1.81853 -2.474874 2.474874 
C -1.81853 3.131218 -0.928211 3.5 0 3.5 
z
" style="stroke: #bcbd22"/>
    </defs>
    <g clip-path="url(#p4cd260d32a)">
     <use xlink:href="#m0f24b28ae1" x="87.339545" y="376.418311" style="fill: #bcbd22; stroke: #bcbd22"/>
     <use xlink:href="#m0f24b28ae1" x="110.868284" y="363.380342" style="fill: #bcbd22; stroke: #bcbd22"/>
     <use xlink:href="#m0f24b28ae1" x="134.397023" y="343.823388" style="fill: #bcbd22; stroke: #bcbd22"/>
     <use xlink:href="#m0f24b28ae1" x="157.925762" y="328.177825" style="fill: #bcbd22; stroke: #bcbd22"/>
     <use xlink:href="#m0f24b28ae1" x="181.454501" y="312.532262" style="fill: #bcbd22; stroke: #bcbd22"/>
     <use xlink:href="#m0f24b28ae1" x="204.98324" y="277.329745" style="fill: #bcbd22; stroke: #bcbd22"/>
     <use xlink:href="#m0f24b28ae1" x="228.511979" y="272.114557" style="fill: #bcbd22; stroke: #bcbd22"/>
     <use xlink:href="#m0f24b28ae1" x="252.040718" y="260.380385" style="fill: #bcbd22; stroke: #bcbd22"/>
     <use xlink:href="#m0f24b28ae1" x="275.569457" y="227.785462" style="fill: #bcbd22; stroke: #bcbd22"/>
     <use xlink:href="#m0f24b28ae1" x="299.098196" y="201.709523" style="fill: #bcbd22; stroke: #bcbd22"/>
     <use xlink:href="#m0f24b28ae1" x="322.626935" y="149.557646" style="fill: #bcbd22; stroke: #bcbd22"/>
     <use xlink:href="#m0f24b28ae1" x="346.155674" y="133.912083" style="fill: #bcbd22; stroke: #bcbd22"/>
     <use xlink:href="#m0f24b28ae1" x="369.684413" y="79.152612" style="fill: #bcbd22; stroke: #bcbd22"/>
     <use xlink:href="#m0f24b28ae1" x="440.27063" y="79.152612" style="fill: #bcbd22; stroke: #bcbd22"/>
     <use xlink:href="#m0f24b28ae1" x="463.79937" y="79.152612" style="fill: #bcbd22; stroke: #bcbd22"/>
     <use xlink:href="#m0f24b28ae1" x="487.328109" y="79.152612" style="fill: #bcbd22; stroke: #bcbd22"/>
     <use xlink:href="#m0f24b28ae1" x="510.856848" y="79.152612" style="fill: #bcbd22; stroke: #bcbd22"/>
     <use xlink:href="#m0f24b28ae1" x="534.385587" y="79.152612" style="fill: #bcbd22; stroke: #bcbd22"/>
     <use xlink:href="#m0f24b28ae1" x="581.443065" y="79.152612" style="fill: #bcbd22; stroke: #bcbd22"/>
     <use xlink:href="#m0f24b28ae1" x="604.971804" y="79.152612" style="fill: #bcbd22; stroke: #bcbd22"/>
     <use xlink:href="#m0f24b28ae1" x="628.500543" y="79.152612" style="fill: #bcbd22; stroke: #bcbd22"/>
     <use xlink:href="#m0f24b28ae1" x="652.029282" y="79.152612" style="fill: #bcbd22; stroke: #bcbd22"/>
     <use xlink:href="#m0f24b28ae1" x="675.558021" y="79.152612" style="fill: #bcbd22; stroke: #bcbd22"/>
     <use xlink:href="#m0f24b28ae1" x="699.08676" y="59.595659" style="fill: #bcbd22; stroke: #bcbd22"/>
     <use xlink:href="#m0f24b28ae1" x="722.615499" y="59.595659" style="fill: #bcbd22; stroke: #bcbd22"/>
     <use xlink:href="#m0f24b28ae1" x="746.144238" y="59.595659" style="fill: #bcbd22; stroke: #bcbd22"/>
     <use xlink:href="#m0f24b28ae1" x="769.672977" y="59.595659" style="fill: #bcbd22; stroke: #bcbd22"/>
     <use xlink:href="#m0f24b28ae1" x="793.201716" y="59.595659" style="fill: #bcbd22; stroke: #bcbd22"/>
     <use xlink:href="#m0f24b28ae1" x="816.730455" y="59.595659" style="fill: #bcbd22; stroke: #bcbd22"/>
    </g>
   </g>
   <g id="patch_3">
    <path d="M 50.87 404.12 
L 50.87 26.88 
" style="fill: none; stroke: #000000; stroke-width: 0.8; stroke-linejoin: miter; stroke-linecap: square"/>
   </g>
   <g id="patch_4">
    <path d="M 853.2 404.12 
L 853.2 26.88 
" style="fill: none; stroke: #000000; stroke-width: 0.8; stroke-linejoin: miter; stroke-linecap: square"/>
   </g>
   <g id="patch_5">
    <path d="M 50.87 404.12 
L 853.2 404.12 
" style="fill: none; stroke: #000000; stroke-width: 0.8; stroke-linejoin: miter; stroke-linecap: square"/>
   </g>
   <g id="patch_6">
    <path d="M 50.87 26.88 
L 853.2 26.88 
" style="fill: none; stroke: #000000; stroke-width: 0.8; stroke-linejoin: miter; stroke-linecap: square"/>
   </g>
   <g id="text_17">
    <!-- Standings -->
    <g transform="translate(422.18125 20.88) scale(0.12 -0.12)">
     <defs>
      <path id="DejaVuSans-74" d="M 1172 4494 
L 1172 3500 
L 2356 3500 
L 2356 3053 
L 1172 3053 
L 1172 1153 
Q 1172 725 1289 603 
Q 1406 481 1766 481 
L 2356 481 
L 2356 0 
L 1766 0 
Q 1100 0 847 248 
Q 594 497 594 1153 
L 594 3053 
L 172 3053 
L 172 3500 
L 594 3500 
L 594 4494 
L 1172 4494 
z
" transform="scale(0.015625)"/>
      <path id="DejaVuSans-61" d="M 2194 1759 
Q 1497 1759 1228 1600 
Q 959 1441 959 1056 
Q 959 750 1161 570 
Q 1363 391 1709 391 
Q 2188 391 2477 730 
Q 2766 1069 2766 1631 
L 2766 1759 
L 2194 1759 
z
M 3341 1997 
L 3341 0 
L 2766 0 
L 2766 531 
Q 2569 213 2275 61 
Q 1981 -91 1556 -91 
Q 1019 -91 701 211 
Q 384 513 384 1019 
Q 384 1609 779 1909 
Q 1175 2209 1959 2209 
L 2766 2209 
L 2766 2266 
Q 2766 2663 2505 2880 
Q 2244 3097 1772 3097 
Q 1472 3097 1187 3025 
Q 903 2953 641 2809 
L 641 3341 
Q 956 3463 1253 3523 
Q 1550 3584 1831 3584 
Q 2591 3584 2966 3190 
Q 3341 2797 3341 1997 
z
" transform="scale(0.015625)"/>
      <path id="DejaVuSans-6e" d="M 3513 2113 
L 3513 0 
L 2938 0 
L 2938 2094 
Q 2938 2591 2744 2837 
Q 2550 3084 2163 3084 
Q 1697 3084 1428 2787 
Q 1159 2491 1159 1978 
L 1159 0 
L 581 0 
L 581 3500 
L 1159 3500 
L 1159 2956 
Q 1366 3272 1645 3428 
Q 1925 3584 2291 3584 
Q 2894 3584 3203 3211 
Q 3513 2838 3513 2113 
z
" transform="scale(0.015625)"/>
      <path id="DejaVuSans-64" d="M 2906 2969 
L 2906 4863 
L 3481 4863 
L 3481 0 
L 2906 0 
L 2906 525 
Q 2725 213 2448 61 
Q 2172 -91 1784 -91 
Q 1150 -91 751 415 
Q 353 922 353 1747 
Q 353 2572 751 3078 
Q 1150 3584 1784 3584 
Q 2172 3584 2448 3432 
Q 2725 3281 2906 2969 
z
M 947 1747 
Q 947 1113 1208 752 
Q 1469 391 1925 391 
Q 2381 391 2643 752 
Q 2906 1113 2906 1747 
Q 2906 2381 2643 2742 
Q 2381 3103 1925 3103 
Q 1469 3103 1208 2742 
Q 947 2381 947 1747 
z
" transform="scale(0.015625)"/>
      <path id="DejaVuSans-69" d="M 603 3500 
L 1178 3500 
L 1178 0 
L 603 0 
L 603 3500 
z
M 603 4863 
L 1178 4863 
L 1178 4134 
L 603 4134 
L 603 4863 
z
" transform="scale(0.015625)"/>
      <path id="DejaVuSans-67" d="M 2906 1791 
Q 2906 2416 2648 2759 
Q 2391 3103 1925 3103 
Q 1463 3103 1205 2759 
Q 947 2416 947 1791 
Q 947 1169 1205 825 
Q 1463 481 1925 481 
Q 2391 481 2648 825 
Q 2906 1169 2906 1791 
z
M 3481 434 
Q 3481 -459 3084 -895 
Q 2688 -1331 1869 -1331 
Q 1566 -1331 1297 -1286 
Q 1028 -1241 775 -1147 
L 775 -588 
Q 1028 -725 1275 -790 
Q 1522 -856 1778 -856 
Q 2344 -856 2625 -561 
Q 2906 -266 2906 331 
L 2906 616 
Q 2728 306 2450 153 
Q 2172 0 1784 0 
Q 1141 0 747 490 
Q 353 981 353 1791 
Q 353 2603 747 3093 
Q 1141 3584 1784 3584 
Q 2172 3584 2450 3431 
Q 2728 3278 2906 2969 
L 2906 3500 
L 3481 3500 
L 3481 434 
z
" transform="scale(0.015625)"/>
      <path id="DejaVuSans-73" d="M 2834 3397 
L 2834 2853 
Q 2591 2978 2328 3040 
Q 2066 3103 1784 3103 
Q 1356 3103 1142 2972 
Q 928 2841 928 2578 
Q 928 2378 1081 2264 
Q 1234 2150 1697 2047 
L 1894 2003 
Q 2506 1872 2764 1633 
Q 3022 1394 3022 966 
Q 3022 478 2636 193 
Q 2250 -91 1575 -91 
Q 1294 -91 989 -36 
Q 684 19 347 128 
L 347 722 
Q 666 556 975 473 
Q 1284 391 1588 391 
Q 1994 391 2212 530 
Q 2431 669 2431 922 
Q 2431 1156 2273 1281 
Q 2116 1406 1581 1522 
L 1381 1569 
Q 847 1681 609 1914 
Q 372 2147 372 2553 
Q 372 3047 722 3315 
Q 1072 3584 1716 3584 
Q 2034 3584 2315 3537 
Q 2597 3491 2834 3397 
z
" transform="scale(0.015625)"/>
     </defs>
     <use xlink:href="#DejaVuSans-53"/>
     <use xlink:href="#DejaVuSans-74" x="63.476562"/>
     <use xlink:href="#DejaVuSans-61" x="102.685547"/>
     <use xlink:href="#DejaVuSans-6e" x="163.964844"/>
     <use xlink:href="#DejaVuSans-64" x="227.34375"/>
     <use xlink:href="#DejaVuSans-69" x="290.820312"/>
     <use xlink:href="#DejaVuSans-6e" x="318.603516"/>
     <use xlink:href="#DejaVuSans-67" x="381.982422"/>
     <use xlink:href="#DejaVuSans-73" x="445.458984"/>
    </g>
   </g>
   <g id="legend_1">
    <g id="patch_7">
     <path d="M 57.87 166.983125 
L 149.490313 166.983125 
Q 151.490313 166.983125 151.490313 164.983125 
L 151.490313 33.88 
Q 151.490313 31.88 149.490313 31.88 
L 57.87 31.88 
Q 55.87 31.88 55.87 33.88 
L 55.87 164.983125 
Q 55.87 166.983125 57.87 166.983125 
z
" style="fill: #ffffff; opacity: 0.8; stroke: #cccccc; stroke-linejoin: miter"/>
    </g>
    <g id="line2d_40">
     <path d="M 59.87 39.978437 
L 69.87 39.978437 
L 79.87 39.978437 
" style="fill: none; stroke: #1f77b4; stroke-width: 1.5; stroke-linecap: square"/>
     <g>
      <use xlink:href="#maca69182ae" x="69.87" y="39.978437" style="fill: #1f77b4; stroke: #1f77b4"/>
     </g>
    </g>
    <g id="text_18">
     <!-- Martin Ba -->
     <g transform="translate(87.87 43.478437) scale(0.1 -0.1)">
      <defs>
       <path id="DejaVuSans-4d" d="M 628 4666 
L 1569 4666 
L 2759 1491 
L 3956 4666 
L 4897 4666 
L 4897 0 
L 4281 0 
L 4281 4097 
L 3078 897 
L 2444 897 
L 1241 4097 
L 1241 0 
L 628 0 
L 628 4666 
z
" transform="scale(0.015625)"/>
       <path id="DejaVuSans-20" transform="scale(0.015625)"/>
       <path id="DejaVuSans-42" d="M 1259 2228 
L 1259 519 
L 2272 519 
Q 2781 519 3026 730 
Q 3272 941 3272 1375 
Q 3272 1813 3026 2020 
Q 2781 2228 2272 2228 
L 1259 2228 
z
M 1259 4147 
L 1259 2741 
L 2194 2741 
Q 2656 2741 2882 2914 
Q 3109 3088 3109 3444 
Q 3109 3797 2882 3972 
Q 2656 4147 2194 4147 
L 1259 4147 
z
M 628 4666 
L 2241 4666 
Q 2963 4666 3353 4366 
Q 3744 4066 3744 3513 
Q 3744 3084 3544 2831 
Q 3344 2578 2956 2516 
Q 3422 2416 3680 2098 
Q 3938 1781 3938 1306 
Q 3938 681 3513 340 
Q 3088 0 2303 0 
L 628 0 
L 628 4666 
z
" transform="scale(0.015625)"/>
      </defs>
      <use xlink:href="#DejaVuSans-4d"/>
      <use xlink:href="#DejaVuSans-61" x="86.279297"/>
      <use xlink:href="#DejaVuSans-72" x="147.558594"/>
      <use xlink:href="#DejaVuSans-74" x="188.671875"/>
      <use xlink:href="#DejaVuSans-69" x="227.880859"/>
      <use xlink:href="#DejaVuSans-6e" x="255.664062"/>
      <use xlink:href="#DejaVuSans-20" x="319.042969"/>
      <use xlink:href="#DejaVuSans-42" x="350.830078"/>
      <use xlink:href="#DejaVuSans-61" x="419.433594"/>
     </g>
    </g>
    <g id="line2d_41">
     <path d="M 59.87 54.656563 
L 69.87 54.656563 
L 79.87 54.656563 
" style="fill: none; stroke: #ff7f0e; stroke-width: 1.5; stroke-linecap: square"/>
     <g>
      <use xlink:href="#m559a4cb8f8" x="69.87" y="54.656563" style="fill: #ff7f0e; stroke: #ff7f0e"/>
     </g>
    </g>
    <g id="text_19">
     <!-- Maren St -->
     <g transform="translate(87.87 58.156563) scale(0.1 -0.1)">
      <use xlink:href="#DejaVuSans-4d"/>
      <use xlink:href="#DejaVuSans-61" x="86.279297"/>
      <use xlink:href="#DejaVuSans-72" x="147.558594"/>
      <use xlink:href="#DejaVuSans-65" x="186.421875"/>
      <use xlink:href="#DejaVuSans-6e" x="247.945312"/>
      <use xlink:href="#DejaVuSans-20" x="311.324219"/>
      <use xlink:href="#DejaVuSans-53" x="343.111328"/>
      <use xlink:href="#DejaVuSans-74" x="406.587891"/>
     </g>
    </g>
    <g id="line2d_42">
     <path d="M 59.87 69.334687 
L 69.87 69.334687 
L 79.87 69.334687 
" style="fill: none; stroke: #2ca02c; stroke-width: 1.5; stroke-linecap: square"/>
     <g>
      <use xlink:href="#m106315956a" x="69.87" y="69.334687" style="fill: #2ca02c; stroke: #2ca02c"/>
     </g>
    </g>
    <g id="text_20">
     <!-- Jakob Ve -->
     <g transform="translate(87.87 72.834687) scale(0.1 -0.1)">
      <defs>
       <path id="DejaVuSans-4a" d="M 628 4666 
L 1259 4666 
L 1259 325 
Q 1259 -519 939 -900 
Q 619 -1281 -91 -1281 
L -331 -1281 
L -331 -750 
L -134 -750 
Q 284 -750 456 -515 
Q 628 -281 628 325 
L 628 4666 
z
" transform="scale(0.015625)"/>
       <path id="DejaVuSans-6b" d="M 581 4863 
L 1159 4863 
L 1159 1991 
L 2875 3500 
L 3609 3500 
L 1753 1863 
L 3688 0 
L 2938 0 
L 1159 1709 
L 1159 0 
L 581 0 
L 581 4863 
z
" transform="scale(0.015625)"/>
       <path id="DejaVuSans-62" d="M 3116 1747 
Q 3116 2381 2855 2742 
Q 2594 3103 2138 3103 
Q 1681 3103 1420 2742 
Q 1159 2381 1159 1747 
Q 1159 1113 1420 752 
Q 1681 391 2138 391 
Q 2594 391 2855 752 
Q 3116 1113 3116 1747 
z
M 1159 2969 
Q 1341 3281 1617 3432 
Q 1894 3584 2278 3584 
Q 2916 3584 3314 3078 
Q 3713 2572 3713 1747 
Q 3713 922 3314 415 
Q 2916 -91 2278 -91 
Q 1894 -91 1617 61 
Q 1341 213 1159 525 
L 1159 0 
L 581 0 
L 581 4863 
L 1159 4863 
L 1159 2969 
z
" transform="scale(0.015625)"/>
       <path id="DejaVuSans-56" d="M 1831 0 
L 50 4666 
L 709 4666 
L 2188 738 
L 3669 4666 
L 4325 4666 
L 2547 0 
L 1831 0 
z
" transform="scale(0.015625)"/>
      </defs>
      <use xlink:href="#DejaVuSans-4a"/>
      <use xlink:href="#DejaVuSans-61" x="29.492188"/>
      <use xlink:href="#DejaVuSans-6b" x="90.771484"/>
      <use xlink:href="#DejaVuSans-6f" x="145.056641"/>
      <use xlink:href="#DejaVuSans-62" x="206.238281"/>
      <use xlink:href="#DejaVuSans-20" x="269.714844"/>
      <use xlink:href="#DejaVuSans-56" x="301.501953"/>
      <use xlink:href="#DejaVuSans-65" x="362.160156"/>
     </g>
    </g>
    <g id="line2d_43">
     <path d="M 59.87 84.012812 
L 69.87 84.012812 
L 79.87 84.012812 
" style="fill: none; stroke: #d62728; stroke-width: 1.5; stroke-linecap: square"/>
     <g>
      <use xlink:href="#m3f55a29048" x="69.87" y="84.012812" style="fill: #d62728; stroke: #d62728"/>
     </g>
    </g>
    <g id="text_21">
     <!-- Mathas Po -->
     <g transform="translate(87.87 87.512812) scale(0.1 -0.1)">
      <defs>
       <path id="DejaVuSans-68" d="M 3513 2113 
L 3513 0 
L 2938 0 
L 2938 2094 
Q 2938 2591 2744 2837 
Q 2550 3084 2163 3084 
Q 1697 3084 1428 2787 
Q 1159 2491 1159 1978 
L 1159 0 
L 581 0 
L 581 4863 
L 1159 4863 
L 1159 2956 
Q 1366 3272 1645 3428 
Q 1925 3584 2291 3584 
Q 2894 3584 3203 3211 
Q 3513 2838 3513 2113 
z
" transform="scale(0.015625)"/>
       <path id="DejaVuSans-50" d="M 1259 4147 
L 1259 2394 
L 2053 2394 
Q 2494 2394 2734 2622 
Q 2975 2850 2975 3272 
Q 2975 3691 2734 3919 
Q 2494 4147 2053 4147 
L 1259 4147 
z
M 628 4666 
L 2053 4666 
Q 2838 4666 3239 4311 
Q 3641 3956 3641 3272 
Q 3641 2581 3239 2228 
Q 2838 1875 2053 1875 
L 1259 1875 
L 1259 0 
L 628 0 
L 628 4666 
z
" transform="scale(0.015625)"/>
      </defs>
      <use xlink:href="#DejaVuSans-4d"/>
      <use xlink:href="#DejaVuSans-61" x="86.279297"/>
      <use xlink:href="#DejaVuSans-74" x="147.558594"/>
      <use xlink:href="#DejaVuSans-68" x="186.767578"/>
      <use xlink:href="#DejaVuSans-61" x="250.146484"/>
      <use xlink:href="#DejaVuSans-73" x="311.425781"/>
      <use xlink:href="#DejaVuSans-20" x="363.525391"/>
      <use xlink:href="#DejaVuSans-50" x="395.3125"/>
      <use xlink:href="#DejaVuSans-6f" x="451.990234"/>
     </g>
    </g>
    <g id="line2d_44">
     <path d="M 59.87 98.690938 
L 69.87 98.690938 
L 79.87 98.690938 
" style="fill: none; stroke: #9467bd; stroke-width: 1.5; stroke-linecap: square"/>
     <g>
      <use xlink:href="#m69a672e704" x="69.87" y="98.690938" style="fill: #9467bd; stroke: #9467bd"/>
     </g>
    </g>
    <g id="text_22">
     <!-- Christian Gr -->
     <g transform="translate(87.87 102.190938) scale(0.1 -0.1)">
      <defs>
       <path id="DejaVuSans-43" d="M 4122 4306 
L 4122 3641 
Q 3803 3938 3442 4084 
Q 3081 4231 2675 4231 
Q 1875 4231 1450 3742 
Q 1025 3253 1025 2328 
Q 1025 1406 1450 917 
Q 1875 428 2675 428 
Q 3081 428 3442 575 
Q 3803 722 4122 1019 
L 4122 359 
Q 3791 134 3420 21 
Q 3050 -91 2638 -91 
Q 1578 -91 968 557 
Q 359 1206 359 2328 
Q 359 3453 968 4101 
Q 1578 4750 2638 4750 
Q 3056 4750 3426 4639 
Q 3797 4528 4122 4306 
z
" transform="scale(0.015625)"/>
       <path id="DejaVuSans-47" d="M 3809 666 
L 3809 1919 
L 2778 1919 
L 2778 2438 
L 4434 2438 
L 4434 434 
Q 4069 175 3628 42 
Q 3188 -91 2688 -91 
Q 1594 -91 976 548 
Q 359 1188 359 2328 
Q 359 3472 976 4111 
Q 1594 4750 2688 4750 
Q 3144 4750 3555 4637 
Q 3966 4525 4313 4306 
L 4313 3634 
Q 3963 3931 3569 4081 
Q 3175 4231 2741 4231 
Q 1884 4231 1454 3753 
Q 1025 3275 1025 2328 
Q 1025 1384 1454 906 
Q 1884 428 2741 428 
Q 3075 428 3337 486 
Q 3600 544 3809 666 
z
" transform="scale(0.015625)"/>
      </defs>
      <use xlink:href="#DejaVuSans-43"/>
      <use xlink:href="#DejaVuSans-68" x="69.824219"/>
      <use xlink:href="#DejaVuSans-72" x="133.203125"/>
      <use xlink:href="#DejaVuSans-69" x="174.316406"/>
      <use xlink:href="#DejaVuSans-73" x="202.099609"/>
      <use xlink:href="#DejaVuSans-74" x="254.199219"/>
      <use xlink:href="#DejaVuSans-69" x="293.408203"/>
      <use xlink:href="#DejaVuSans-61" x="321.191406"/>
      <use xlink:href="#DejaVuSans-6e" x="382.470703"/>
      <use xlink:href="#DejaVuSans-20" x="445.849609"/>
      <use xlink:href="#DejaVuSans-47" x="477.636719"/>
      <use xlink:href="#DejaVuSans-72" x="555.126953"/>
     </g>
    </g>
    <g id="line2d_45">
     <path d="M 59.87 113.369062 
L 69.87 113.369062 
L 79.87 113.369062 
" style="fill: none; stroke: #8c564b; stroke-width: 1.5; stroke-linecap: square"/>
     <g>
      <use xlink:href="#m08d733b911" x="69.87" y="113.369062" style="fill: #8c564b; stroke: #8c564b"/>
     </g>
    </g>
    <g id="text_23">
     <!-- RIKKE GR -->
     <g transform="translate(87.87 116.869062) scale(0.1 -0.1)">
      <defs>
       <path id="DejaVuSans-52" d="M 2841 2188 
Q 3044 2119 3236 1894 
Q 3428 1669 3622 1275 
L 4263 0 
L 3584 0 
L 2988 1197 
Q 2756 1666 2539 1819 
Q 2322 1972 1947 1972 
L 1259 1972 
L 1259 0 
L 628 0 
L 628 4666 
L 2053 4666 
Q 2853 4666 3247 4331 
Q 3641 3997 3641 3322 
Q 3641 2881 3436 2590 
Q 3231 2300 2841 2188 
z
M 1259 4147 
L 1259 2491 
L 2053 2491 
Q 2509 2491 2742 2702 
Q 2975 2913 2975 3322 
Q 2975 3731 2742 3939 
Q 2509 4147 2053 4147 
L 1259 4147 
z
" transform="scale(0.015625)"/>
       <path id="DejaVuSans-49" d="M 628 4666 
L 1259 4666 
L 1259 0 
L 628 0 
L 628 4666 
z
" transform="scale(0.015625)"/>
       <path id="DejaVuSans-4b" d="M 628 4666 
L 1259 4666 
L 1259 2694 
L 3353 4666 
L 4166 4666 
L 1850 2491 
L 4331 0 
L 3500 0 
L 1259 2247 
L 1259 0 
L 628 0 
L 628 4666 
z
" transform="scale(0.015625)"/>
       <path id="DejaVuSans-45" d="M 628 4666 
L 3578 4666 
L 3578 4134 
L 1259 4134 
L 1259 2753 
L 3481 2753 
L 3481 2222 
L 1259 2222 
L 1259 531 
L 3634 531 
L 3634 0 
L 628 0 
L 628 4666 
z
" transform="scale(0.015625)"/>
      </defs>
      <use xlink:href="#DejaVuSans-52"/>
      <use xlink:href="#DejaVuSans-49" x="69.482422"/>
      <use xlink:href="#DejaVuSans-4b" x="98.974609"/>
      <use xlink:href="#DejaVuSans-4b" x="164.550781"/>
      <use xlink:href="#DejaVuSans-45" x="230.126953"/>
      <use xlink:href="#DejaVuSans-20" x="293.310547"/>
      <use xlink:href="#DejaVuSans-47" x="325.097656"/>
      <use xlink:href="#DejaVuSans-52" x="402.587891"/>
     </g>
    </g>
    <g id="line2d_46">
     <path d="M 59.87 128.047187 
L 69.87 128.047187 
L 79.87 128.047187 
" style="fill: none; stroke: #e377c2; stroke-width: 1.5; stroke-linecap: square"/>
     <g>
      <use xlink:href="#md4f530c0d4" x="69.87" y="128.047187" style="fill: #e377c2; stroke: #e377c2"/>
     </g>
    </g>
    <g id="text_24">
     <!-- lea bo -->
     <g transform="translate(87.87 131.547187) scale(0.1 -0.1)">
      <defs>
       <path id="DejaVuSans-6c" d="M 603 4863 
L 1178 4863 
L 1178 0 
L 603 0 
L 603 4863 
z
" transform="scale(0.015625)"/>
      </defs>
      <use xlink:href="#DejaVuSans-6c"/>
      <use xlink:href="#DejaVuSans-65" x="27.783203"/>
      <use xlink:href="#DejaVuSans-61" x="89.306641"/>
      <use xlink:href="#DejaVuSans-20" x="150.585938"/>
      <use xlink:href="#DejaVuSans-62" x="182.373047"/>
      <use xlink:href="#DejaVuSans-6f" x="245.849609"/>
     </g>
    </g>
    <g id="line2d_47">
     <path d="M 59.87 142.725312 
L 69.87 142.725312 
L 79.87 142.725312 
" style="fill: none; stroke: #7f7f7f; stroke-width: 1.5; stroke-linecap: square"/>
     <g>
      <use xlink:href="#m8f88ce33b1" x="69.87" y="142.725312" style="fill: #7f7f7f; stroke: #7f7f7f"/>
     </g>
    </g>
    <g id="text_25">
     <!-- Andreas Ku -->
     <g transform="translate(87.87 146.225312) scale(0.1 -0.1)">
      <defs>
       <path id="DejaVuSans-41" d="M 2188 4044 
L 1331 1722 
L 3047 1722 
L 2188 4044 
z
M 1831 4666 
L 2547 4666 
L 4325 0 
L 3669 0 
L 3244 1197 
L 1141 1197 
L 716 0 
L 50 0 
L 1831 4666 
z
" transform="scale(0.015625)"/>
       <path id="DejaVuSans-75" d="M 544 1381 
L 544 3500 
L 1119 3500 
L 1119 1403 
Q 1119 906 1312 657 
Q 1506 409 1894 409 
Q 2359 409 2629 706 
Q 2900 1003 2900 1516 
L 2900 3500 
L 3475 3500 
L 3475 0 
L 2900 0 
L 2900 538 
Q 2691 219 2414 64 
Q 2138 -91 1772 -91 
Q 1169 -91 856 284 
Q 544 659 544 1381 
z
M 1991 3584 
L 1991 3584 
z
" transform="scale(0.015625)"/>
      </defs>
      <use xlink:href="#DejaVuSans-41"/>
      <use xlink:href="#DejaVuSans-6e" x="68.408203"/>
      <use xlink:href="#DejaVuSans-64" x="131.787109"/>
      <use xlink:href="#DejaVuSans-72" x="195.263672"/>
      <use xlink:href="#DejaVuSans-65" x="234.126953"/>
      <use xlink:href="#DejaVuSans-61" x="295.650391"/>
      <use xlink:href="#DejaVuSans-73" x="356.929688"/>
      <use xlink:href="#DejaVuSans-20" x="409.029297"/>
      <use xlink:href="#DejaVuSans-4b" x="440.816406"/>
      <use xlink:href="#DejaVuSans-75" x="501.392578"/>
     </g>
    </g>
    <g id="line2d_48">
     <path d="M 59.87 157.403437 
L 69.87 157.403437 
L 79.87 157.403437 
" style="fill: none; stroke: #bcbd22; stroke-width: 1.5; stroke-linecap: square"/>
     <g>
      <use xlink:href="#m0f24b28ae1" x="69.87" y="157.403437" style="fill: #bcbd22; stroke: #bcbd22"/>
     </g>
    </g>
    <g id="text_26">
     <!-- Salty Gu -->
     <g transform="translate(87.87 160.903437) scale(0.1 -0.1)">
      <defs>
       <path id="DejaVuSans-79" d="M 2059 -325 
Q 1816 -950 1584 -1140 
Q 1353 -1331 966 -1331 
L 506 -1331 
L 506 -850 
L 844 -850 
Q 1081 -850 1212 -737 
Q 1344 -625 1503 -206 
L 1606 56 
L 191 3500 
L 800 3500 
L 1894 763 
L 2988 3500 
L 3597 3500 
L 2059 -325 
z
" transform="scale(0.015625)"/>
      </defs>
      <use xlink:href="#DejaVuSans-53"/>
      <use xlink:href="#DejaVuSans-61" x="63.476562"/>
      <use xlink:href="#DejaVuSans-6c" x="124.755859"/>
      <use xlink:href="#DejaVuSans-74" x="152.539062"/>
      <use xlink:href="#DejaVuSans-79" x="191.748047"/>
      <use xlink:href="#DejaVuSans-20" x="250.927734"/>
      <use xlink:href="#DejaVuSans-47" x="282.714844"/>
      <use xlink:href="#DejaVuSans-75" x="360.205078"/>
     </g>
    </g>
   </g>
  </g>
 </g>
 <defs>
  <clipPath id="p4cd260d32a">
   <rect x="50.87" y="26.88" width="802.33" height="377.24"/>
  </clipPath>
 </defs>
</svg>
