<?xml version="1.0" encoding="utf-8" standalone="no"?>
<!DOCTYPE svg PUBLIC "-//W3C//DTD SVG 1.1//EN"
  "http://www.w3.org/Graphics/SVG/1.1/DTD/svg11.dtd">
<svg xmlns:xlink="http://www.w3.org/1999/xlink" width="864pt" height="432pt" viewBox="0 0 864 432" xmlns="http://www.w3.org/2000/svg" version="1.1">
 <metadata>
  <rdf:RDF xmlns:dc="http://purl.org/dc/elements/1.1/" xmlns:cc="http://creativecommons.org/ns#" xmlns:rdf="http://www.w3.org/1999/02/22-rdf-syntax-ns#">
   <cc:Work>
    <dc:type rdf:resource="http://purl.org/dc/dcmitype/StillImage"/>
    <dc:date>2024-07-17T21:27:00.304746</dc:date>
    <dc:format>image/svg+xml</dc:format>
    <dc:creator>
     <cc:Agent>
      <dc:title>Matplotlib v3.9.1, https://matplotlib.org/</dc:title>
     </cc:Agent>
    </dc:creator>
   </cc:Work>
  </rdf:RDF>
 </metadata>
 <defs>
  <style type="text/css">*{stroke-linejoin: round; stroke-linecap: butt}</style>
 </defs>
 <g id="figure_1">
  <g id="patch_1">
   <path d="M 0 432 
L 864 432 
L 864 0 
L 0 0 
z
" style="fill: #ffffff"/>
  </g>
  <g id="axes_1">
   <g id="patch_2">
    <path d="M 50.87 404.12 
L 853.2 404.12 
L 853.2 26.88 
L 50.87 26.88 
z
" style="fill: #ffffff"/>
   </g>
   <g id="matplotlib.axis_1">
    <g id="xtick_1">
     <g id="line2d_1">
      <path d="M 65.236791 404.12 
L 65.236791 26.88 
" clip-path="url(#pbda0bbf324)" style="fill: none; stroke-dasharray: 2.96,1.28; stroke-dashoffset: 0; stroke: #b0b0b0; stroke-width: 0.8"/>
     </g>
     <g id="line2d_2">
      <defs>
       <path id="m1a487a1b68" d="M 0 0 
L 0 3.5 
" style="stroke: #000000; stroke-width: 0.8"/>
      </defs>
      <g>
       <use xlink:href="#m1a487a1b68" x="65.236791" y="404.12" style="stroke: #000000; stroke-width: 0.8"/>
      </g>
     </g>
     <g id="text_1">
      <!-- 2024-06-13 -->
      <g transform="translate(36.178978 418.718437) scale(0.1 -0.1)">
       <defs>
        <path id="DejaVuSans-32" d="M 1228 531 
L 3431 531 
L 3431 0 
L 469 0 
L 469 531 
Q 828 903 1448 1529 
Q 2069 2156 2228 2338 
Q 2531 2678 2651 2914 
Q 2772 3150 2772 3378 
Q 2772 3750 2511 3984 
Q 2250 4219 1831 4219 
Q 1534 4219 1204 4116 
Q 875 4013 500 3803 
L 500 4441 
Q 881 4594 1212 4672 
Q 1544 4750 1819 4750 
Q 2544 4750 2975 4387 
Q 3406 4025 3406 3419 
Q 3406 3131 3298 2873 
Q 3191 2616 2906 2266 
Q 2828 2175 2409 1742 
Q 1991 1309 1228 531 
z
" transform="scale(0.015625)"/>
        <path id="DejaVuSans-30" d="M 2034 4250 
Q 1547 4250 1301 3770 
Q 1056 3291 1056 2328 
Q 1056 1369 1301 889 
Q 1547 409 2034 409 
Q 2525 409 2770 889 
Q 3016 1369 3016 2328 
Q 3016 3291 2770 3770 
Q 2525 4250 2034 4250 
z
M 2034 4750 
Q 2819 4750 3233 4129 
Q 3647 3509 3647 2328 
Q 3647 1150 3233 529 
Q 2819 -91 2034 -91 
Q 1250 -91 836 529 
Q 422 1150 422 2328 
Q 422 3509 836 4129 
Q 1250 4750 2034 4750 
z
" transform="scale(0.015625)"/>
        <path id="DejaVuSans-34" d="M 2419 4116 
L 825 1625 
L 2419 1625 
L 2419 4116 
z
M 2253 4666 
L 3047 4666 
L 3047 1625 
L 3713 1625 
L 3713 1100 
L 3047 1100 
L 3047 0 
L 2419 0 
L 2419 1100 
L 313 1100 
L 313 1709 
L 2253 4666 
z
" transform="scale(0.015625)"/>
        <path id="DejaVuSans-2d" d="M 313 2009 
L 1997 2009 
L 1997 1497 
L 313 1497 
L 313 2009 
z
" transform="scale(0.015625)"/>
        <path id="DejaVuSans-36" d="M 2113 2584 
Q 1688 2584 1439 2293 
Q 1191 2003 1191 1497 
Q 1191 994 1439 701 
Q 1688 409 2113 409 
Q 2538 409 2786 701 
Q 3034 994 3034 1497 
Q 3034 2003 2786 2293 
Q 2538 2584 2113 2584 
z
M 3366 4563 
L 3366 3988 
Q 3128 4100 2886 4159 
Q 2644 4219 2406 4219 
Q 1781 4219 1451 3797 
Q 1122 3375 1075 2522 
Q 1259 2794 1537 2939 
Q 1816 3084 2150 3084 
Q 2853 3084 3261 2657 
Q 3669 2231 3669 1497 
Q 3669 778 3244 343 
Q 2819 -91 2113 -91 
Q 1303 -91 875 529 
Q 447 1150 447 2328 
Q 447 3434 972 4092 
Q 1497 4750 2381 4750 
Q 2619 4750 2861 4703 
Q 3103 4656 3366 4563 
z
" transform="scale(0.015625)"/>
        <path id="DejaVuSans-31" d="M 794 531 
L 1825 531 
L 1825 4091 
L 703 3866 
L 703 4441 
L 1819 4666 
L 2450 4666 
L 2450 531 
L 3481 531 
L 3481 0 
L 794 0 
L 794 531 
z
" transform="scale(0.015625)"/>
        <path id="DejaVuSans-33" d="M 2597 2516 
Q 3050 2419 3304 2112 
Q 3559 1806 3559 1356 
Q 3559 666 3084 287 
Q 2609 -91 1734 -91 
Q 1441 -91 1130 -33 
Q 819 25 488 141 
L 488 750 
Q 750 597 1062 519 
Q 1375 441 1716 441 
Q 2309 441 2620 675 
Q 2931 909 2931 1356 
Q 2931 1769 2642 2001 
Q 2353 2234 1838 2234 
L 1294 2234 
L 1294 2753 
L 1863 2753 
Q 2328 2753 2575 2939 
Q 2822 3125 2822 3475 
Q 2822 3834 2567 4026 
Q 2313 4219 1838 4219 
Q 1578 4219 1281 4162 
Q 984 4106 628 3988 
L 628 4550 
Q 988 4650 1302 4700 
Q 1616 4750 1894 4750 
Q 2613 4750 3031 4423 
Q 3450 4097 3450 3541 
Q 3450 3153 3228 2886 
Q 3006 2619 2597 2516 
z
" transform="scale(0.015625)"/>
       </defs>
       <use xlink:href="#DejaVuSans-32"/>
       <use xlink:href="#DejaVuSans-30" x="63.623047"/>
       <use xlink:href="#DejaVuSans-32" x="127.246094"/>
       <use xlink:href="#DejaVuSans-34" x="190.869141"/>
       <use xlink:href="#DejaVuSans-2d" x="254.492188"/>
       <use xlink:href="#DejaVuSans-30" x="290.576172"/>
       <use xlink:href="#DejaVuSans-36" x="354.199219"/>
       <use xlink:href="#DejaVuSans-2d" x="417.822266"/>
       <use xlink:href="#DejaVuSans-31" x="453.90625"/>
       <use xlink:href="#DejaVuSans-33" x="517.529297"/>
      </g>
     </g>
    </g>
    <g id="xtick_2">
     <g id="line2d_3">
      <path d="M 153.64781 404.12 
L 153.64781 26.88 
" clip-path="url(#pbda0bbf324)" style="fill: none; stroke-dasharray: 2.96,1.28; stroke-dashoffset: 0; stroke: #b0b0b0; stroke-width: 0.8"/>
     </g>
     <g id="line2d_4">
      <g>
       <use xlink:href="#m1a487a1b68" x="153.64781" y="404.12" style="stroke: #000000; stroke-width: 0.8"/>
      </g>
     </g>
     <g id="text_2">
      <!-- 2024-06-17 -->
      <g transform="translate(124.589997 418.718437) scale(0.1 -0.1)">
       <defs>
        <path id="DejaVuSans-37" d="M 525 4666 
L 3525 4666 
L 3525 4397 
L 1831 0 
L 1172 0 
L 2766 4134 
L 525 4134 
L 525 4666 
z
" transform="scale(0.015625)"/>
       </defs>
       <use xlink:href="#DejaVuSans-32"/>
       <use xlink:href="#DejaVuSans-30" x="63.623047"/>
       <use xlink:href="#DejaVuSans-32" x="127.246094"/>
       <use xlink:href="#DejaVuSans-34" x="190.869141"/>
       <use xlink:href="#DejaVuSans-2d" x="254.492188"/>
       <use xlink:href="#DejaVuSans-30" x="290.576172"/>
       <use xlink:href="#DejaVuSans-36" x="354.199219"/>
       <use xlink:href="#DejaVuSans-2d" x="417.822266"/>
       <use xlink:href="#DejaVuSans-31" x="453.90625"/>
       <use xlink:href="#DejaVuSans-37" x="517.529297"/>
      </g>
     </g>
    </g>
    <g id="xtick_3">
     <g id="line2d_5">
      <path d="M 242.058829 404.12 
L 242.058829 26.88 
" clip-path="url(#pbda0bbf324)" style="fill: none; stroke-dasharray: 2.96,1.28; stroke-dashoffset: 0; stroke: #b0b0b0; stroke-width: 0.8"/>
     </g>
     <g id="line2d_6">
      <g>
       <use xlink:href="#m1a487a1b68" x="242.058829" y="404.12" style="stroke: #000000; stroke-width: 0.8"/>
      </g>
     </g>
     <g id="text_3">
      <!-- 2024-06-21 -->
      <g transform="translate(213.001017 418.718437) scale(0.1 -0.1)">
       <use xlink:href="#DejaVuSans-32"/>
       <use xlink:href="#DejaVuSans-30" x="63.623047"/>
       <use xlink:href="#DejaVuSans-32" x="127.246094"/>
       <use xlink:href="#DejaVuSans-34" x="190.869141"/>
       <use xlink:href="#DejaVuSans-2d" x="254.492188"/>
       <use xlink:href="#DejaVuSans-30" x="290.576172"/>
       <use xlink:href="#DejaVuSans-36" x="354.199219"/>
       <use xlink:href="#DejaVuSans-2d" x="417.822266"/>
       <use xlink:href="#DejaVuSans-32" x="453.90625"/>
       <use xlink:href="#DejaVuSans-31" x="517.529297"/>
      </g>
     </g>
    </g>
    <g id="xtick_4">
     <g id="line2d_7">
      <path d="M 330.469848 404.12 
L 330.469848 26.88 
" clip-path="url(#pbda0bbf324)" style="fill: none; stroke-dasharray: 2.96,1.28; stroke-dashoffset: 0; stroke: #b0b0b0; stroke-width: 0.8"/>
     </g>
     <g id="line2d_8">
      <g>
       <use xlink:href="#m1a487a1b68" x="330.469848" y="404.12" style="stroke: #000000; stroke-width: 0.8"/>
      </g>
     </g>
     <g id="text_4">
      <!-- 2024-06-25 -->
      <g transform="translate(301.412036 418.718437) scale(0.1 -0.1)">
       <defs>
        <path id="DejaVuSans-35" d="M 691 4666 
L 3169 4666 
L 3169 4134 
L 1269 4134 
L 1269 2991 
Q 1406 3038 1543 3061 
Q 1681 3084 1819 3084 
Q 2600 3084 3056 2656 
Q 3513 2228 3513 1497 
Q 3513 744 3044 326 
Q 2575 -91 1722 -91 
Q 1428 -91 1123 -41 
Q 819 9 494 109 
L 494 744 
Q 775 591 1075 516 
Q 1375 441 1709 441 
Q 2250 441 2565 725 
Q 2881 1009 2881 1497 
Q 2881 1984 2565 2268 
Q 2250 2553 1709 2553 
Q 1456 2553 1204 2497 
Q 953 2441 691 2322 
L 691 4666 
z
" transform="scale(0.015625)"/>
       </defs>
       <use xlink:href="#DejaVuSans-32"/>
       <use xlink:href="#DejaVuSans-30" x="63.623047"/>
       <use xlink:href="#DejaVuSans-32" x="127.246094"/>
       <use xlink:href="#DejaVuSans-34" x="190.869141"/>
       <use xlink:href="#DejaVuSans-2d" x="254.492188"/>
       <use xlink:href="#DejaVuSans-30" x="290.576172"/>
       <use xlink:href="#DejaVuSans-36" x="354.199219"/>
       <use xlink:href="#DejaVuSans-2d" x="417.822266"/>
       <use xlink:href="#DejaVuSans-32" x="453.90625"/>
       <use xlink:href="#DejaVuSans-35" x="517.529297"/>
      </g>
     </g>
    </g>
    <g id="xtick_5">
     <g id="line2d_9">
      <path d="M 418.880868 404.12 
L 418.880868 26.88 
" clip-path="url(#pbda0bbf324)" style="fill: none; stroke-dasharray: 2.96,1.28; stroke-dashoffset: 0; stroke: #b0b0b0; stroke-width: 0.8"/>
     </g>
     <g id="line2d_10">
      <g>
       <use xlink:href="#m1a487a1b68" x="418.880868" y="404.12" style="stroke: #000000; stroke-width: 0.8"/>
      </g>
     </g>
     <g id="text_5">
      <!-- 2024-06-29 -->
      <g transform="translate(389.823055 418.718437) scale(0.1 -0.1)">
       <defs>
        <path id="DejaVuSans-39" d="M 703 97 
L 703 672 
Q 941 559 1184 500 
Q 1428 441 1663 441 
Q 2288 441 2617 861 
Q 2947 1281 2994 2138 
Q 2813 1869 2534 1725 
Q 2256 1581 1919 1581 
Q 1219 1581 811 2004 
Q 403 2428 403 3163 
Q 403 3881 828 4315 
Q 1253 4750 1959 4750 
Q 2769 4750 3195 4129 
Q 3622 3509 3622 2328 
Q 3622 1225 3098 567 
Q 2575 -91 1691 -91 
Q 1453 -91 1209 -44 
Q 966 3 703 97 
z
M 1959 2075 
Q 2384 2075 2632 2365 
Q 2881 2656 2881 3163 
Q 2881 3666 2632 3958 
Q 2384 4250 1959 4250 
Q 1534 4250 1286 3958 
Q 1038 3666 1038 3163 
Q 1038 2656 1286 2365 
Q 1534 2075 1959 2075 
z
" transform="scale(0.015625)"/>
       </defs>
       <use xlink:href="#DejaVuSans-32"/>
       <use xlink:href="#DejaVuSans-30" x="63.623047"/>
       <use xlink:href="#DejaVuSans-32" x="127.246094"/>
       <use xlink:href="#DejaVuSans-34" x="190.869141"/>
       <use xlink:href="#DejaVuSans-2d" x="254.492188"/>
       <use xlink:href="#DejaVuSans-30" x="290.576172"/>
       <use xlink:href="#DejaVuSans-36" x="354.199219"/>
       <use xlink:href="#DejaVuSans-2d" x="417.822266"/>
       <use xlink:href="#DejaVuSans-32" x="453.90625"/>
       <use xlink:href="#DejaVuSans-39" x="517.529297"/>
      </g>
     </g>
    </g>
    <g id="xtick_6">
     <g id="line2d_11">
      <path d="M 463.086377 404.12 
L 463.086377 26.88 
" clip-path="url(#pbda0bbf324)" style="fill: none; stroke-dasharray: 2.96,1.28; stroke-dashoffset: 0; stroke: #b0b0b0; stroke-width: 0.8"/>
     </g>
     <g id="line2d_12">
      <g>
       <use xlink:href="#m1a487a1b68" x="463.086377" y="404.12" style="stroke: #000000; stroke-width: 0.8"/>
      </g>
     </g>
     <g id="text_6">
      <!-- 2024-07-01 -->
      <g transform="translate(434.028565 418.718437) scale(0.1 -0.1)">
       <use xlink:href="#DejaVuSans-32"/>
       <use xlink:href="#DejaVuSans-30" x="63.623047"/>
       <use xlink:href="#DejaVuSans-32" x="127.246094"/>
       <use xlink:href="#DejaVuSans-34" x="190.869141"/>
       <use xlink:href="#DejaVuSans-2d" x="254.492188"/>
       <use xlink:href="#DejaVuSans-30" x="290.576172"/>
       <use xlink:href="#DejaVuSans-37" x="354.199219"/>
       <use xlink:href="#DejaVuSans-2d" x="417.822266"/>
       <use xlink:href="#DejaVuSans-30" x="453.90625"/>
       <use xlink:href="#DejaVuSans-31" x="517.529297"/>
      </g>
     </g>
    </g>
    <g id="xtick_7">
     <g id="line2d_13">
      <path d="M 551.497397 404.12 
L 551.497397 26.88 
" clip-path="url(#pbda0bbf324)" style="fill: none; stroke-dasharray: 2.96,1.28; stroke-dashoffset: 0; stroke: #b0b0b0; stroke-width: 0.8"/>
     </g>
     <g id="line2d_14">
      <g>
       <use xlink:href="#m1a487a1b68" x="551.497397" y="404.12" style="stroke: #000000; stroke-width: 0.8"/>
      </g>
     </g>
     <g id="text_7">
      <!-- 2024-07-05 -->
      <g transform="translate(522.439584 418.718437) scale(0.1 -0.1)">
       <use xlink:href="#DejaVuSans-32"/>
       <use xlink:href="#DejaVuSans-30" x="63.623047"/>
       <use xlink:href="#DejaVuSans-32" x="127.246094"/>
       <use xlink:href="#DejaVuSans-34" x="190.869141"/>
       <use xlink:href="#DejaVuSans-2d" x="254.492188"/>
       <use xlink:href="#DejaVuSans-30" x="290.576172"/>
       <use xlink:href="#DejaVuSans-37" x="354.199219"/>
       <use xlink:href="#DejaVuSans-2d" x="417.822266"/>
       <use xlink:href="#DejaVuSans-30" x="453.90625"/>
       <use xlink:href="#DejaVuSans-35" x="517.529297"/>
      </g>
     </g>
    </g>
    <g id="xtick_8">
     <g id="line2d_15">
      <path d="M 639.908416 404.12 
L 639.908416 26.88 
" clip-path="url(#pbda0bbf324)" style="fill: none; stroke-dasharray: 2.96,1.28; stroke-dashoffset: 0; stroke: #b0b0b0; stroke-width: 0.8"/>
     </g>
     <g id="line2d_16">
      <g>
       <use xlink:href="#m1a487a1b68" x="639.908416" y="404.12" style="stroke: #000000; stroke-width: 0.8"/>
      </g>
     </g>
     <g id="text_8">
      <!-- 2024-07-09 -->
      <g transform="translate(610.850603 418.718437) scale(0.1 -0.1)">
       <use xlink:href="#DejaVuSans-32"/>
       <use xlink:href="#DejaVuSans-30" x="63.623047"/>
       <use xlink:href="#DejaVuSans-32" x="127.246094"/>
       <use xlink:href="#DejaVuSans-34" x="190.869141"/>
       <use xlink:href="#DejaVuSans-2d" x="254.492188"/>
       <use xlink:href="#DejaVuSans-30" x="290.576172"/>
       <use xlink:href="#DejaVuSans-37" x="354.199219"/>
       <use xlink:href="#DejaVuSans-2d" x="417.822266"/>
       <use xlink:href="#DejaVuSans-30" x="453.90625"/>
       <use xlink:href="#DejaVuSans-39" x="517.529297"/>
      </g>
     </g>
    </g>
    <g id="xtick_9">
     <g id="line2d_17">
      <path d="M 728.319435 404.12 
L 728.319435 26.88 
" clip-path="url(#pbda0bbf324)" style="fill: none; stroke-dasharray: 2.96,1.28; stroke-dashoffset: 0; stroke: #b0b0b0; stroke-width: 0.8"/>
     </g>
     <g id="line2d_18">
      <g>
       <use xlink:href="#m1a487a1b68" x="728.319435" y="404.12" style="stroke: #000000; stroke-width: 0.8"/>
      </g>
     </g>
     <g id="text_9">
      <!-- 2024-07-13 -->
      <g transform="translate(699.261623 418.718437) scale(0.1 -0.1)">
       <use xlink:href="#DejaVuSans-32"/>
       <use xlink:href="#DejaVuSans-30" x="63.623047"/>
       <use xlink:href="#DejaVuSans-32" x="127.246094"/>
       <use xlink:href="#DejaVuSans-34" x="190.869141"/>
       <use xlink:href="#DejaVuSans-2d" x="254.492188"/>
       <use xlink:href="#DejaVuSans-30" x="290.576172"/>
       <use xlink:href="#DejaVuSans-37" x="354.199219"/>
       <use xlink:href="#DejaVuSans-2d" x="417.822266"/>
       <use xlink:href="#DejaVuSans-31" x="453.90625"/>
       <use xlink:href="#DejaVuSans-33" x="517.529297"/>
      </g>
     </g>
    </g>
    <g id="xtick_10">
     <g id="line2d_19">
      <path d="M 816.730455 404.12 
L 816.730455 26.88 
" clip-path="url(#pbda0bbf324)" style="fill: none; stroke-dasharray: 2.96,1.28; stroke-dashoffset: 0; stroke: #b0b0b0; stroke-width: 0.8"/>
     </g>
     <g id="line2d_20">
      <g>
       <use xlink:href="#m1a487a1b68" x="816.730455" y="404.12" style="stroke: #000000; stroke-width: 0.8"/>
      </g>
     </g>
     <g id="text_10">
      <!-- 2024-07-17 -->
      <g transform="translate(787.672642 418.718437) scale(0.1 -0.1)">
       <use xlink:href="#DejaVuSans-32"/>
       <use xlink:href="#DejaVuSans-30" x="63.623047"/>
       <use xlink:href="#DejaVuSans-32" x="127.246094"/>
       <use xlink:href="#DejaVuSans-34" x="190.869141"/>
       <use xlink:href="#DejaVuSans-2d" x="254.492188"/>
       <use xlink:href="#DejaVuSans-30" x="290.576172"/>
       <use xlink:href="#DejaVuSans-37" x="354.199219"/>
       <use xlink:href="#DejaVuSans-2d" x="417.822266"/>
       <use xlink:href="#DejaVuSans-31" x="453.90625"/>
       <use xlink:href="#DejaVuSans-37" x="517.529297"/>
      </g>
     </g>
    </g>
   </g>
   <g id="matplotlib.axis_2">
    <g id="ytick_1">
     <g id="line2d_21">
      <path d="M 50.87 389.42276 
L 853.2 389.42276 
" clip-path="url(#pbda0bbf324)" style="fill: none; stroke-dasharray: 2.96,1.28; stroke-dashoffset: 0; stroke: #b0b0b0; stroke-width: 0.8"/>
     </g>
     <g id="line2d_22">
      <defs>
       <path id="m4f86e5ae25" d="M 0 0 
L -3.5 0 
" style="stroke: #000000; stroke-width: 0.8"/>
      </defs>
      <g>
       <use xlink:href="#m4f86e5ae25" x="50.87" y="389.42276" style="stroke: #000000; stroke-width: 0.8"/>
      </g>
     </g>
     <g id="text_11">
      <!-- 0 -->
      <g transform="translate(37.5075 393.221978) scale(0.1 -0.1)">
       <use xlink:href="#DejaVuSans-30"/>
      </g>
     </g>
    </g>
    <g id="ytick_2">
     <g id="line2d_23">
      <path d="M 50.87 326.389989 
L 853.2 326.389989 
" clip-path="url(#pbda0bbf324)" style="fill: none; stroke-dasharray: 2.96,1.28; stroke-dashoffset: 0; stroke: #b0b0b0; stroke-width: 0.8"/>
     </g>
     <g id="line2d_24">
      <g>
       <use xlink:href="#m4f86e5ae25" x="50.87" y="326.389989" style="stroke: #000000; stroke-width: 0.8"/>
      </g>
     </g>
     <g id="text_12">
      <!-- 50 -->
      <g transform="translate(31.145 330.189207) scale(0.1 -0.1)">
       <use xlink:href="#DejaVuSans-35"/>
       <use xlink:href="#DejaVuSans-30" x="63.623047"/>
      </g>
     </g>
    </g>
    <g id="ytick_3">
     <g id="line2d_25">
      <path d="M 50.87 263.357218 
L 853.2 263.357218 
" clip-path="url(#pbda0bbf324)" style="fill: none; stroke-dasharray: 2.96,1.28; stroke-dashoffset: 0; stroke: #b0b0b0; stroke-width: 0.8"/>
     </g>
     <g id="line2d_26">
      <g>
       <use xlink:href="#m4f86e5ae25" x="50.87" y="263.357218" style="stroke: #000000; stroke-width: 0.8"/>
      </g>
     </g>
     <g id="text_13">
      <!-- 100 -->
      <g transform="translate(24.7825 267.156437) scale(0.1 -0.1)">
       <use xlink:href="#DejaVuSans-31"/>
       <use xlink:href="#DejaVuSans-30" x="63.623047"/>
       <use xlink:href="#DejaVuSans-30" x="127.246094"/>
      </g>
     </g>
    </g>
    <g id="ytick_4">
     <g id="line2d_27">
      <path d="M 50.87 200.324447 
L 853.2 200.324447 
" clip-path="url(#pbda0bbf324)" style="fill: none; stroke-dasharray: 2.96,1.28; stroke-dashoffset: 0; stroke: #b0b0b0; stroke-width: 0.8"/>
     </g>
     <g id="line2d_28">
      <g>
       <use xlink:href="#m4f86e5ae25" x="50.87" y="200.324447" style="stroke: #000000; stroke-width: 0.8"/>
      </g>
     </g>
     <g id="text_14">
      <!-- 150 -->
      <g transform="translate(24.7825 204.123666) scale(0.1 -0.1)">
       <use xlink:href="#DejaVuSans-31"/>
       <use xlink:href="#DejaVuSans-35" x="63.623047"/>
       <use xlink:href="#DejaVuSans-30" x="127.246094"/>
      </g>
     </g>
    </g>
    <g id="ytick_5">
     <g id="line2d_29">
      <path d="M 50.87 137.291676 
L 853.2 137.291676 
" clip-path="url(#pbda0bbf324)" style="fill: none; stroke-dasharray: 2.96,1.28; stroke-dashoffset: 0; stroke: #b0b0b0; stroke-width: 0.8"/>
     </g>
     <g id="line2d_30">
      <g>
       <use xlink:href="#m4f86e5ae25" x="50.87" y="137.291676" style="stroke: #000000; stroke-width: 0.8"/>
      </g>
     </g>
     <g id="text_15">
      <!-- 200 -->
      <g transform="translate(24.7825 141.090895) scale(0.1 -0.1)">
       <use xlink:href="#DejaVuSans-32"/>
       <use xlink:href="#DejaVuSans-30" x="63.623047"/>
       <use xlink:href="#DejaVuSans-30" x="127.246094"/>
      </g>
     </g>
    </g>
    <g id="ytick_6">
     <g id="line2d_31">
      <path d="M 50.87 74.258905 
L 853.2 74.258905 
" clip-path="url(#pbda0bbf324)" style="fill: none; stroke-dasharray: 2.96,1.28; stroke-dashoffset: 0; stroke: #b0b0b0; stroke-width: 0.8"/>
     </g>
     <g id="line2d_32">
      <g>
       <use xlink:href="#m4f86e5ae25" x="50.87" y="74.258905" style="stroke: #000000; stroke-width: 0.8"/>
      </g>
     </g>
     <g id="text_16">
      <!-- 250 -->
      <g transform="translate(24.7825 78.058124) scale(0.1 -0.1)">
       <use xlink:href="#DejaVuSans-32"/>
       <use xlink:href="#DejaVuSans-35" x="63.623047"/>
       <use xlink:href="#DejaVuSans-30" x="127.246094"/>
      </g>
     </g>
    </g>
    <g id="text_17">
     <!-- Score -->
     <g transform="translate(18.702813 229.502344) rotate(-90) scale(0.1 -0.1)">
      <defs>
       <path id="DejaVuSans-53" d="M 3425 4513 
L 3425 3897 
Q 3066 4069 2747 4153 
Q 2428 4238 2131 4238 
Q 1616 4238 1336 4038 
Q 1056 3838 1056 3469 
Q 1056 3159 1242 3001 
Q 1428 2844 1947 2747 
L 2328 2669 
Q 3034 2534 3370 2195 
Q 3706 1856 3706 1288 
Q 3706 609 3251 259 
Q 2797 -91 1919 -91 
Q 1588 -91 1214 -16 
Q 841 59 441 206 
L 441 856 
Q 825 641 1194 531 
Q 1563 422 1919 422 
Q 2459 422 2753 634 
Q 3047 847 3047 1241 
Q 3047 1584 2836 1778 
Q 2625 1972 2144 2069 
L 1759 2144 
Q 1053 2284 737 2584 
Q 422 2884 422 3419 
Q 422 4038 858 4394 
Q 1294 4750 2059 4750 
Q 2388 4750 2728 4690 
Q 3069 4631 3425 4513 
z
" transform="scale(0.015625)"/>
       <path id="DejaVuSans-63" d="M 3122 3366 
L 3122 2828 
Q 2878 2963 2633 3030 
Q 2388 3097 2138 3097 
Q 1578 3097 1268 2742 
Q 959 2388 959 1747 
Q 959 1106 1268 751 
Q 1578 397 2138 397 
Q 2388 397 2633 464 
Q 2878 531 3122 666 
L 3122 134 
Q 2881 22 2623 -34 
Q 2366 -91 2075 -91 
Q 1284 -91 818 406 
Q 353 903 353 1747 
Q 353 2603 823 3093 
Q 1294 3584 2113 3584 
Q 2378 3584 2631 3529 
Q 2884 3475 3122 3366 
z
" transform="scale(0.015625)"/>
       <path id="DejaVuSans-6f" d="M 1959 3097 
Q 1497 3097 1228 2736 
Q 959 2375 959 1747 
Q 959 1119 1226 758 
Q 1494 397 1959 397 
Q 2419 397 2687 759 
Q 2956 1122 2956 1747 
Q 2956 2369 2687 2733 
Q 2419 3097 1959 3097 
z
M 1959 3584 
Q 2709 3584 3137 3096 
Q 3566 2609 3566 1747 
Q 3566 888 3137 398 
Q 2709 -91 1959 -91 
Q 1206 -91 779 398 
Q 353 888 353 1747 
Q 353 2609 779 3096 
Q 1206 3584 1959 3584 
z
" transform="scale(0.015625)"/>
       <path id="DejaVuSans-72" d="M 2631 2963 
Q 2534 3019 2420 3045 
Q 2306 3072 2169 3072 
Q 1681 3072 1420 2755 
Q 1159 2438 1159 1844 
L 1159 0 
L 581 0 
L 581 3500 
L 1159 3500 
L 1159 2956 
Q 1341 3275 1631 3429 
Q 1922 3584 2338 3584 
Q 2397 3584 2469 3576 
Q 2541 3569 2628 3553 
L 2631 2963 
z
" transform="scale(0.015625)"/>
       <path id="DejaVuSans-65" d="M 3597 1894 
L 3597 1613 
L 953 1613 
Q 991 1019 1311 708 
Q 1631 397 2203 397 
Q 2534 397 2845 478 
Q 3156 559 3463 722 
L 3463 178 
Q 3153 47 2828 -22 
Q 2503 -91 2169 -91 
Q 1331 -91 842 396 
Q 353 884 353 1716 
Q 353 2575 817 3079 
Q 1281 3584 2069 3584 
Q 2775 3584 3186 3129 
Q 3597 2675 3597 1894 
z
M 3022 2063 
Q 3016 2534 2758 2815 
Q 2500 3097 2075 3097 
Q 1594 3097 1305 2825 
Q 1016 2553 972 2059 
L 3022 2063 
z
" transform="scale(0.015625)"/>
      </defs>
      <use xlink:href="#DejaVuSans-53"/>
      <use xlink:href="#DejaVuSans-63" x="63.476562"/>
      <use xlink:href="#DejaVuSans-6f" x="118.457031"/>
      <use xlink:href="#DejaVuSans-72" x="179.638672"/>
      <use xlink:href="#DejaVuSans-65" x="218.501953"/>
     </g>
    </g>
   </g>
   <g id="line2d_33">
    <path d="M 87.339545 383.029656 
L 109.4423 357.816548 
L 131.545055 346.470649 
L 153.64781 337.646061 
L 175.750565 325.039507 
L 197.85332 313.693608 
L 219.956074 313.693608 
L 242.058829 294.783777 
L 264.161584 260.746081 
L 286.264339 236.793628 
L 308.367094 209.059209 
L 330.469848 191.410033 
L 352.572603 161.154303 
L 418.880868 161.154303 
L 440.983623 161.154303 
L 463.086377 161.154303 
L 485.189132 161.154303 
L 507.291887 161.154303 
L 551.497397 161.154303 
L 573.600152 161.154303 
L 595.702906 161.154303 
L 617.805661 161.154303 
L 639.908416 161.154303 
L 662.011171 161.154303 
L 684.113926 161.154303 
L 706.21668 161.154303 
L 728.319435 161.154303 
L 750.42219 161.154303 
L 772.524945 123.33464 
L 794.6277 123.33464 
L 816.730455 123.33464 
" clip-path="url(#pbda0bbf324)" style="fill: none; stroke: #1f77b4; stroke-width: 1.5; stroke-linecap: square"/>
    <defs>
     <path id="me0c41e6b6f" d="M 0 3.5 
C 0.928211 3.5 1.81853 3.131218 2.474874 2.474874 
C 3.131218 1.81853 3.5 0.928211 3.5 0 
C 3.5 -0.928211 3.131218 -1.81853 2.474874 -2.474874 
C 1.81853 -3.131218 0.928211 -3.5 0 -3.5 
C -0.928211 -3.5 -1.81853 -3.131218 -2.474874 -2.474874 
C -3.131218 -1.81853 -3.5 -0.928211 -3.5 0 
C -3.5 0.928211 -3.131218 1.81853 -2.474874 2.474874 
C -1.81853 3.131218 -0.928211 3.5 0 3.5 
z
" style="stroke: #1f77b4"/>
    </defs>
    <g clip-path="url(#pbda0bbf324)">
     <use xlink:href="#me0c41e6b6f" x="87.339545" y="383.029656" style="fill: #1f77b4; stroke: #1f77b4"/>
     <use xlink:href="#me0c41e6b6f" x="109.4423" y="357.816548" style="fill: #1f77b4; stroke: #1f77b4"/>
     <use xlink:href="#me0c41e6b6f" x="131.545055" y="346.470649" style="fill: #1f77b4; stroke: #1f77b4"/>
     <use xlink:href="#me0c41e6b6f" x="153.64781" y="337.646061" style="fill: #1f77b4; stroke: #1f77b4"/>
     <use xlink:href="#me0c41e6b6f" x="175.750565" y="325.039507" style="fill: #1f77b4; stroke: #1f77b4"/>
     <use xlink:href="#me0c41e6b6f" x="197.85332" y="313.693608" style="fill: #1f77b4; stroke: #1f77b4"/>
     <use xlink:href="#me0c41e6b6f" x="219.956074" y="313.693608" style="fill: #1f77b4; stroke: #1f77b4"/>
     <use xlink:href="#me0c41e6b6f" x="242.058829" y="294.783777" style="fill: #1f77b4; stroke: #1f77b4"/>
     <use xlink:href="#me0c41e6b6f" x="264.161584" y="260.746081" style="fill: #1f77b4; stroke: #1f77b4"/>
     <use xlink:href="#me0c41e6b6f" x="286.264339" y="236.793628" style="fill: #1f77b4; stroke: #1f77b4"/>
     <use xlink:href="#me0c41e6b6f" x="308.367094" y="209.059209" style="fill: #1f77b4; stroke: #1f77b4"/>
     <use xlink:href="#me0c41e6b6f" x="330.469848" y="191.410033" style="fill: #1f77b4; stroke: #1f77b4"/>
     <use xlink:href="#me0c41e6b6f" x="352.572603" y="161.154303" style="fill: #1f77b4; stroke: #1f77b4"/>
     <use xlink:href="#me0c41e6b6f" x="418.880868" y="161.154303" style="fill: #1f77b4; stroke: #1f77b4"/>
     <use xlink:href="#me0c41e6b6f" x="440.983623" y="161.154303" style="fill: #1f77b4; stroke: #1f77b4"/>
     <use xlink:href="#me0c41e6b6f" x="463.086377" y="161.154303" style="fill: #1f77b4; stroke: #1f77b4"/>
     <use xlink:href="#me0c41e6b6f" x="485.189132" y="161.154303" style="fill: #1f77b4; stroke: #1f77b4"/>
     <use xlink:href="#me0c41e6b6f" x="507.291887" y="161.154303" style="fill: #1f77b4; stroke: #1f77b4"/>
     <use xlink:href="#me0c41e6b6f" x="551.497397" y="161.154303" style="fill: #1f77b4; stroke: #1f77b4"/>
     <use xlink:href="#me0c41e6b6f" x="573.600152" y="161.154303" style="fill: #1f77b4; stroke: #1f77b4"/>
     <use xlink:href="#me0c41e6b6f" x="595.702906" y="161.154303" style="fill: #1f77b4; stroke: #1f77b4"/>
     <use xlink:href="#me0c41e6b6f" x="617.805661" y="161.154303" style="fill: #1f77b4; stroke: #1f77b4"/>
     <use xlink:href="#me0c41e6b6f" x="639.908416" y="161.154303" style="fill: #1f77b4; stroke: #1f77b4"/>
     <use xlink:href="#me0c41e6b6f" x="662.011171" y="161.154303" style="fill: #1f77b4; stroke: #1f77b4"/>
     <use xlink:href="#me0c41e6b6f" x="684.113926" y="161.154303" style="fill: #1f77b4; stroke: #1f77b4"/>
     <use xlink:href="#me0c41e6b6f" x="706.21668" y="161.154303" style="fill: #1f77b4; stroke: #1f77b4"/>
     <use xlink:href="#me0c41e6b6f" x="728.319435" y="161.154303" style="fill: #1f77b4; stroke: #1f77b4"/>
     <use xlink:href="#me0c41e6b6f" x="750.42219" y="161.154303" style="fill: #1f77b4; stroke: #1f77b4"/>
     <use xlink:href="#me0c41e6b6f" x="772.524945" y="123.33464" style="fill: #1f77b4; stroke: #1f77b4"/>
     <use xlink:href="#me0c41e6b6f" x="794.6277" y="123.33464" style="fill: #1f77b4; stroke: #1f77b4"/>
     <use xlink:href="#me0c41e6b6f" x="816.730455" y="123.33464" style="fill: #1f77b4; stroke: #1f77b4"/>
    </g>
   </g>
   <g id="line2d_34">
    <path d="M 87.339545 386.972727 
L 109.4423 349.153065 
L 131.545055 321.418646 
L 153.64781 306.29078 
L 175.750565 287.380949 
L 197.85332 269.731773 
L 219.956074 245.77932 
L 242.058829 240.736699 
L 264.161584 206.699002 
L 286.264339 197.874415 
L 308.367094 176.443272 
L 330.469848 162.576063 
L 352.572603 126.017056 
L 418.880868 126.017056 
L 440.983623 126.017056 
L 463.086377 126.017056 
L 485.189132 126.017056 
L 507.291887 126.017056 
L 551.497397 126.017056 
L 573.600152 126.017056 
L 595.702906 126.017056 
L 617.805661 126.017056 
L 639.908416 126.017056 
L 662.011171 126.017056 
L 684.113926 126.017056 
L 706.21668 126.017056 
L 728.319435 126.017056 
L 750.42219 126.017056 
L 772.524945 119.713779 
L 794.6277 119.713779 
L 816.730455 119.713779 
" clip-path="url(#pbda0bbf324)" style="fill: none; stroke: #ff7f0e; stroke-width: 1.5; stroke-linecap: square"/>
    <defs>
     <path id="mc744ab7393" d="M 0 3.5 
C 0.928211 3.5 1.81853 3.131218 2.474874 2.474874 
C 3.131218 1.81853 3.5 0.928211 3.5 0 
C 3.5 -0.928211 3.131218 -1.81853 2.474874 -2.474874 
C 1.81853 -3.131218 0.928211 -3.5 0 -3.5 
C -0.928211 -3.5 -1.81853 -3.131218 -2.474874 -2.474874 
C -3.131218 -1.81853 -3.5 -0.928211 -3.5 0 
C -3.5 0.928211 -3.131218 1.81853 -2.474874 2.474874 
C -1.81853 3.131218 -0.928211 3.5 0 3.5 
z
" style="stroke: #ff7f0e"/>
    </defs>
    <g clip-path="url(#pbda0bbf324)">
     <use xlink:href="#mc744ab7393" x="87.339545" y="386.972727" style="fill: #ff7f0e; stroke: #ff7f0e"/>
     <use xlink:href="#mc744ab7393" x="109.4423" y="349.153065" style="fill: #ff7f0e; stroke: #ff7f0e"/>
     <use xlink:href="#mc744ab7393" x="131.545055" y="321.418646" style="fill: #ff7f0e; stroke: #ff7f0e"/>
     <use xlink:href="#mc744ab7393" x="153.64781" y="306.29078" style="fill: #ff7f0e; stroke: #ff7f0e"/>
     <use xlink:href="#mc744ab7393" x="175.750565" y="287.380949" style="fill: #ff7f0e; stroke: #ff7f0e"/>
     <use xlink:href="#mc744ab7393" x="197.85332" y="269.731773" style="fill: #ff7f0e; stroke: #ff7f0e"/>
     <use xlink:href="#mc744ab7393" x="219.956074" y="245.77932" style="fill: #ff7f0e; stroke: #ff7f0e"/>
     <use xlink:href="#mc744ab7393" x="242.058829" y="240.736699" style="fill: #ff7f0e; stroke: #ff7f0e"/>
     <use xlink:href="#mc744ab7393" x="264.161584" y="206.699002" style="fill: #ff7f0e; stroke: #ff7f0e"/>
     <use xlink:href="#mc744ab7393" x="286.264339" y="197.874415" style="fill: #ff7f0e; stroke: #ff7f0e"/>
     <use xlink:href="#mc744ab7393" x="308.367094" y="176.443272" style="fill: #ff7f0e; stroke: #ff7f0e"/>
     <use xlink:href="#mc744ab7393" x="330.469848" y="162.576063" style="fill: #ff7f0e; stroke: #ff7f0e"/>
     <use xlink:href="#mc744ab7393" x="352.572603" y="126.017056" style="fill: #ff7f0e; stroke: #ff7f0e"/>
     <use xlink:href="#mc744ab7393" x="418.880868" y="126.017056" style="fill: #ff7f0e; stroke: #ff7f0e"/>
     <use xlink:href="#mc744ab7393" x="440.983623" y="126.017056" style="fill: #ff7f0e; stroke: #ff7f0e"/>
     <use xlink:href="#mc744ab7393" x="463.086377" y="126.017056" style="fill: #ff7f0e; stroke: #ff7f0e"/>
     <use xlink:href="#mc744ab7393" x="485.189132" y="126.017056" style="fill: #ff7f0e; stroke: #ff7f0e"/>
     <use xlink:href="#mc744ab7393" x="507.291887" y="126.017056" style="fill: #ff7f0e; stroke: #ff7f0e"/>
     <use xlink:href="#mc744ab7393" x="551.497397" y="126.017056" style="fill: #ff7f0e; stroke: #ff7f0e"/>
     <use xlink:href="#mc744ab7393" x="573.600152" y="126.017056" style="fill: #ff7f0e; stroke: #ff7f0e"/>
     <use xlink:href="#mc744ab7393" x="595.702906" y="126.017056" style="fill: #ff7f0e; stroke: #ff7f0e"/>
     <use xlink:href="#mc744ab7393" x="617.805661" y="126.017056" style="fill: #ff7f0e; stroke: #ff7f0e"/>
     <use xlink:href="#mc744ab7393" x="639.908416" y="126.017056" style="fill: #ff7f0e; stroke: #ff7f0e"/>
     <use xlink:href="#mc744ab7393" x="662.011171" y="126.017056" style="fill: #ff7f0e; stroke: #ff7f0e"/>
     <use xlink:href="#mc744ab7393" x="684.113926" y="126.017056" style="fill: #ff7f0e; stroke: #ff7f0e"/>
     <use xlink:href="#mc744ab7393" x="706.21668" y="126.017056" style="fill: #ff7f0e; stroke: #ff7f0e"/>
     <use xlink:href="#mc744ab7393" x="728.319435" y="126.017056" style="fill: #ff7f0e; stroke: #ff7f0e"/>
     <use xlink:href="#mc744ab7393" x="750.42219" y="126.017056" style="fill: #ff7f0e; stroke: #ff7f0e"/>
     <use xlink:href="#mc744ab7393" x="772.524945" y="119.713779" style="fill: #ff7f0e; stroke: #ff7f0e"/>
     <use xlink:href="#mc744ab7393" x="794.6277" y="119.713779" style="fill: #ff7f0e; stroke: #ff7f0e"/>
     <use xlink:href="#mc744ab7393" x="816.730455" y="119.713779" style="fill: #ff7f0e; stroke: #ff7f0e"/>
    </g>
   </g>
   <g id="line2d_35">
    <path d="M 87.339545 376.746466 
L 109.4423 351.533358 
L 131.545055 332.623526 
L 153.64781 320.016972 
L 175.750565 288.500587 
L 197.85332 270.851411 
L 219.956074 259.505512 
L 242.058829 225.467816 
L 264.161584 193.95143 
L 286.264339 166.217011 
L 308.367094 144.785869 
L 330.469848 137.221937 
L 352.572603 80.492443 
L 418.880868 80.492443 
L 440.983623 80.492443 
L 463.086377 80.492443 
L 485.189132 80.492443 
L 507.291887 80.492443 
L 551.497397 80.492443 
L 573.600152 80.492443 
L 595.702906 80.492443 
L 617.805661 80.492443 
L 639.908416 80.492443 
L 662.011171 80.492443 
L 684.113926 80.492443 
L 706.21668 80.492443 
L 728.319435 80.492443 
L 750.42219 80.492443 
L 772.524945 80.492443 
L 794.6277 80.492443 
L 816.730455 80.492443 
" clip-path="url(#pbda0bbf324)" style="fill: none; stroke: #2ca02c; stroke-width: 1.5; stroke-linecap: square"/>
    <defs>
     <path id="m894221322c" d="M 0 3.5 
C 0.928211 3.5 1.81853 3.131218 2.474874 2.474874 
C 3.131218 1.81853 3.5 0.928211 3.5 0 
C 3.5 -0.928211 3.131218 -1.81853 2.474874 -2.474874 
C 1.81853 -3.131218 0.928211 -3.5 0 -3.5 
C -0.928211 -3.5 -1.81853 -3.131218 -2.474874 -2.474874 
C -3.131218 -1.81853 -3.5 -0.928211 -3.5 0 
C -3.5 0.928211 -3.131218 1.81853 -2.474874 2.474874 
C -1.81853 3.131218 -0.928211 3.5 0 3.5 
z
" style="stroke: #2ca02c"/>
    </defs>
    <g clip-path="url(#pbda0bbf324)">
     <use xlink:href="#m894221322c" x="87.339545" y="376.746466" style="fill: #2ca02c; stroke: #2ca02c"/>
     <use xlink:href="#m894221322c" x="109.4423" y="351.533358" style="fill: #2ca02c; stroke: #2ca02c"/>
     <use xlink:href="#m894221322c" x="131.545055" y="332.623526" style="fill: #2ca02c; stroke: #2ca02c"/>
     <use xlink:href="#m894221322c" x="153.64781" y="320.016972" style="fill: #2ca02c; stroke: #2ca02c"/>
     <use xlink:href="#m894221322c" x="175.750565" y="288.500587" style="fill: #2ca02c; stroke: #2ca02c"/>
     <use xlink:href="#m894221322c" x="197.85332" y="270.851411" style="fill: #2ca02c; stroke: #2ca02c"/>
     <use xlink:href="#m894221322c" x="219.956074" y="259.505512" style="fill: #2ca02c; stroke: #2ca02c"/>
     <use xlink:href="#m894221322c" x="242.058829" y="225.467816" style="fill: #2ca02c; stroke: #2ca02c"/>
     <use xlink:href="#m894221322c" x="264.161584" y="193.95143" style="fill: #2ca02c; stroke: #2ca02c"/>
     <use xlink:href="#m894221322c" x="286.264339" y="166.217011" style="fill: #2ca02c; stroke: #2ca02c"/>
     <use xlink:href="#m894221322c" x="308.367094" y="144.785869" style="fill: #2ca02c; stroke: #2ca02c"/>
     <use xlink:href="#m894221322c" x="330.469848" y="137.221937" style="fill: #2ca02c; stroke: #2ca02c"/>
     <use xlink:href="#m894221322c" x="352.572603" y="80.492443" style="fill: #2ca02c; stroke: #2ca02c"/>
     <use xlink:href="#m894221322c" x="418.880868" y="80.492443" style="fill: #2ca02c; stroke: #2ca02c"/>
     <use xlink:href="#m894221322c" x="440.983623" y="80.492443" style="fill: #2ca02c; stroke: #2ca02c"/>
     <use xlink:href="#m894221322c" x="463.086377" y="80.492443" style="fill: #2ca02c; stroke: #2ca02c"/>
     <use xlink:href="#m894221322c" x="485.189132" y="80.492443" style="fill: #2ca02c; stroke: #2ca02c"/>
     <use xlink:href="#m894221322c" x="507.291887" y="80.492443" style="fill: #2ca02c; stroke: #2ca02c"/>
     <use xlink:href="#m894221322c" x="551.497397" y="80.492443" style="fill: #2ca02c; stroke: #2ca02c"/>
     <use xlink:href="#m894221322c" x="573.600152" y="80.492443" style="fill: #2ca02c; stroke: #2ca02c"/>
     <use xlink:href="#m894221322c" x="595.702906" y="80.492443" style="fill: #2ca02c; stroke: #2ca02c"/>
     <use xlink:href="#m894221322c" x="617.805661" y="80.492443" style="fill: #2ca02c; stroke: #2ca02c"/>
     <use xlink:href="#m894221322c" x="639.908416" y="80.492443" style="fill: #2ca02c; stroke: #2ca02c"/>
     <use xlink:href="#m894221322c" x="662.011171" y="80.492443" style="fill: #2ca02c; stroke: #2ca02c"/>
     <use xlink:href="#m894221322c" x="684.113926" y="80.492443" style="fill: #2ca02c; stroke: #2ca02c"/>
     <use xlink:href="#m894221322c" x="706.21668" y="80.492443" style="fill: #2ca02c; stroke: #2ca02c"/>
     <use xlink:href="#m894221322c" x="728.319435" y="80.492443" style="fill: #2ca02c; stroke: #2ca02c"/>
     <use xlink:href="#m894221322c" x="750.42219" y="80.492443" style="fill: #2ca02c; stroke: #2ca02c"/>
     <use xlink:href="#m894221322c" x="772.524945" y="80.492443" style="fill: #2ca02c; stroke: #2ca02c"/>
     <use xlink:href="#m894221322c" x="794.6277" y="80.492443" style="fill: #2ca02c; stroke: #2ca02c"/>
     <use xlink:href="#m894221322c" x="816.730455" y="80.492443" style="fill: #2ca02c; stroke: #2ca02c"/>
    </g>
   </g>
   <g id="line2d_36">
    <path d="M 87.339545 376.840303 
L 109.4423 355.409161 
L 131.545055 317.589499 
L 153.64781 308.764911 
L 175.750565 289.855079 
L 197.85332 270.945248 
L 219.956074 243.210829 
L 242.058829 231.86493 
L 264.161584 200.348545 
L 286.264339 189.002646 
L 308.367094 154.96495 
L 330.469848 134.794463 
L 352.572603 75.543658 
L 418.880868 75.543658 
L 440.983623 75.543658 
L 463.086377 75.543658 
L 485.189132 75.543658 
L 507.291887 75.543658 
L 551.497397 75.543658 
L 573.600152 75.543658 
L 595.702906 75.543658 
L 617.805661 75.543658 
L 639.908416 75.543658 
L 662.011171 56.633827 
L 684.113926 56.633827 
L 706.21668 56.633827 
L 728.319435 56.633827 
L 750.42219 56.633827 
L 772.524945 44.027273 
L 794.6277 44.027273 
L 816.730455 44.027273 
" clip-path="url(#pbda0bbf324)" style="fill: none; stroke: #d62728; stroke-width: 1.5; stroke-linecap: square"/>
    <defs>
     <path id="m12ae044e6a" d="M 0 3.5 
C 0.928211 3.5 1.81853 3.131218 2.474874 2.474874 
C 3.131218 1.81853 3.5 0.928211 3.5 0 
C 3.5 -0.928211 3.131218 -1.81853 2.474874 -2.474874 
C 1.81853 -3.131218 0.928211 -3.5 0 -3.5 
C -0.928211 -3.5 -1.81853 -3.131218 -2.474874 -2.474874 
C -3.131218 -1.81853 -3.5 -0.928211 -3.5 0 
C -3.5 0.928211 -3.131218 1.81853 -2.474874 2.474874 
C -1.81853 3.131218 -0.928211 3.5 0 3.5 
z
" style="stroke: #d62728"/>
    </defs>
    <g clip-path="url(#pbda0bbf324)">
     <use xlink:href="#m12ae044e6a" x="87.339545" y="376.840303" style="fill: #d62728; stroke: #d62728"/>
     <use xlink:href="#m12ae044e6a" x="109.4423" y="355.409161" style="fill: #d62728; stroke: #d62728"/>
     <use xlink:href="#m12ae044e6a" x="131.545055" y="317.589499" style="fill: #d62728; stroke: #d62728"/>
     <use xlink:href="#m12ae044e6a" x="153.64781" y="308.764911" style="fill: #d62728; stroke: #d62728"/>
     <use xlink:href="#m12ae044e6a" x="175.750565" y="289.855079" style="fill: #d62728; stroke: #d62728"/>
     <use xlink:href="#m12ae044e6a" x="197.85332" y="270.945248" style="fill: #d62728; stroke: #d62728"/>
     <use xlink:href="#m12ae044e6a" x="219.956074" y="243.210829" style="fill: #d62728; stroke: #d62728"/>
     <use xlink:href="#m12ae044e6a" x="242.058829" y="231.86493" style="fill: #d62728; stroke: #d62728"/>
     <use xlink:href="#m12ae044e6a" x="264.161584" y="200.348545" style="fill: #d62728; stroke: #d62728"/>
     <use xlink:href="#m12ae044e6a" x="286.264339" y="189.002646" style="fill: #d62728; stroke: #d62728"/>
     <use xlink:href="#m12ae044e6a" x="308.367094" y="154.96495" style="fill: #d62728; stroke: #d62728"/>
     <use xlink:href="#m12ae044e6a" x="330.469848" y="134.794463" style="fill: #d62728; stroke: #d62728"/>
     <use xlink:href="#m12ae044e6a" x="352.572603" y="75.543658" style="fill: #d62728; stroke: #d62728"/>
     <use xlink:href="#m12ae044e6a" x="418.880868" y="75.543658" style="fill: #d62728; stroke: #d62728"/>
     <use xlink:href="#m12ae044e6a" x="440.983623" y="75.543658" style="fill: #d62728; stroke: #d62728"/>
     <use xlink:href="#m12ae044e6a" x="463.086377" y="75.543658" style="fill: #d62728; stroke: #d62728"/>
     <use xlink:href="#m12ae044e6a" x="485.189132" y="75.543658" style="fill: #d62728; stroke: #d62728"/>
     <use xlink:href="#m12ae044e6a" x="507.291887" y="75.543658" style="fill: #d62728; stroke: #d62728"/>
     <use xlink:href="#m12ae044e6a" x="551.497397" y="75.543658" style="fill: #d62728; stroke: #d62728"/>
     <use xlink:href="#m12ae044e6a" x="573.600152" y="75.543658" style="fill: #d62728; stroke: #d62728"/>
     <use xlink:href="#m12ae044e6a" x="595.702906" y="75.543658" style="fill: #d62728; stroke: #d62728"/>
     <use xlink:href="#m12ae044e6a" x="617.805661" y="75.543658" style="fill: #d62728; stroke: #d62728"/>
     <use xlink:href="#m12ae044e6a" x="639.908416" y="75.543658" style="fill: #d62728; stroke: #d62728"/>
     <use xlink:href="#m12ae044e6a" x="662.011171" y="56.633827" style="fill: #d62728; stroke: #d62728"/>
     <use xlink:href="#m12ae044e6a" x="684.113926" y="56.633827" style="fill: #d62728; stroke: #d62728"/>
     <use xlink:href="#m12ae044e6a" x="706.21668" y="56.633827" style="fill: #d62728; stroke: #d62728"/>
     <use xlink:href="#m12ae044e6a" x="728.319435" y="56.633827" style="fill: #d62728; stroke: #d62728"/>
     <use xlink:href="#m12ae044e6a" x="750.42219" y="56.633827" style="fill: #d62728; stroke: #d62728"/>
     <use xlink:href="#m12ae044e6a" x="772.524945" y="44.027273" style="fill: #d62728; stroke: #d62728"/>
     <use xlink:href="#m12ae044e6a" x="794.6277" y="44.027273" style="fill: #d62728; stroke: #d62728"/>
     <use xlink:href="#m12ae044e6a" x="816.730455" y="44.027273" style="fill: #d62728; stroke: #d62728"/>
    </g>
   </g>
   <g id="line2d_37">
    <path d="M 87.339545 383.186524 
L 109.4423 349.148828 
L 131.545055 321.414409 
L 153.64781 306.286544 
L 175.750565 291.158679 
L 197.85332 276.030814 
L 219.956074 273.509503 
L 242.058829 252.078361 
L 264.161584 220.561975 
L 286.264339 196.609522 
L 308.367094 158.78986 
L 330.469848 143.661995 
L 352.572603 115.927576 
L 418.880868 115.927576 
L 440.983623 115.927576 
L 463.086377 115.927576 
L 485.189132 115.927576 
L 507.291887 115.927576 
L 551.497397 115.927576 
L 573.600152 115.927576 
L 595.702906 115.927576 
L 617.805661 115.927576 
L 639.908416 115.927576 
L 662.011171 97.017744 
L 684.113926 97.017744 
L 706.21668 97.017744 
L 728.319435 97.017744 
L 750.42219 97.017744 
L 772.524945 71.804636 
L 794.6277 71.804636 
L 816.730455 71.804636 
" clip-path="url(#pbda0bbf324)" style="fill: none; stroke: #9467bd; stroke-width: 1.5; stroke-linecap: square"/>
    <defs>
     <path id="m90670b4dce" d="M 0 3.5 
C 0.928211 3.5 1.81853 3.131218 2.474874 2.474874 
C 3.131218 1.81853 3.5 0.928211 3.5 0 
C 3.5 -0.928211 3.131218 -1.81853 2.474874 -2.474874 
C 1.81853 -3.131218 0.928211 -3.5 0 -3.5 
C -0.928211 -3.5 -1.81853 -3.131218 -2.474874 -2.474874 
C -3.131218 -1.81853 -3.5 -0.928211 -3.5 0 
C -3.5 0.928211 -3.131218 1.81853 -2.474874 2.474874 
C -1.81853 3.131218 -0.928211 3.5 0 3.5 
z
" style="stroke: #9467bd"/>
    </defs>
    <g clip-path="url(#pbda0bbf324)">
     <use xlink:href="#m90670b4dce" x="87.339545" y="383.186524" style="fill: #9467bd; stroke: #9467bd"/>
     <use xlink:href="#m90670b4dce" x="109.4423" y="349.148828" style="fill: #9467bd; stroke: #9467bd"/>
     <use xlink:href="#m90670b4dce" x="131.545055" y="321.414409" style="fill: #9467bd; stroke: #9467bd"/>
     <use xlink:href="#m90670b4dce" x="153.64781" y="306.286544" style="fill: #9467bd; stroke: #9467bd"/>
     <use xlink:href="#m90670b4dce" x="175.750565" y="291.158679" style="fill: #9467bd; stroke: #9467bd"/>
     <use xlink:href="#m90670b4dce" x="197.85332" y="276.030814" style="fill: #9467bd; stroke: #9467bd"/>
     <use xlink:href="#m90670b4dce" x="219.956074" y="273.509503" style="fill: #9467bd; stroke: #9467bd"/>
     <use xlink:href="#m90670b4dce" x="242.058829" y="252.078361" style="fill: #9467bd; stroke: #9467bd"/>
     <use xlink:href="#m90670b4dce" x="264.161584" y="220.561975" style="fill: #9467bd; stroke: #9467bd"/>
     <use xlink:href="#m90670b4dce" x="286.264339" y="196.609522" style="fill: #9467bd; stroke: #9467bd"/>
     <use xlink:href="#m90670b4dce" x="308.367094" y="158.78986" style="fill: #9467bd; stroke: #9467bd"/>
     <use xlink:href="#m90670b4dce" x="330.469848" y="143.661995" style="fill: #9467bd; stroke: #9467bd"/>
     <use xlink:href="#m90670b4dce" x="352.572603" y="115.927576" style="fill: #9467bd; stroke: #9467bd"/>
     <use xlink:href="#m90670b4dce" x="418.880868" y="115.927576" style="fill: #9467bd; stroke: #9467bd"/>
     <use xlink:href="#m90670b4dce" x="440.983623" y="115.927576" style="fill: #9467bd; stroke: #9467bd"/>
     <use xlink:href="#m90670b4dce" x="463.086377" y="115.927576" style="fill: #9467bd; stroke: #9467bd"/>
     <use xlink:href="#m90670b4dce" x="485.189132" y="115.927576" style="fill: #9467bd; stroke: #9467bd"/>
     <use xlink:href="#m90670b4dce" x="507.291887" y="115.927576" style="fill: #9467bd; stroke: #9467bd"/>
     <use xlink:href="#m90670b4dce" x="551.497397" y="115.927576" style="fill: #9467bd; stroke: #9467bd"/>
     <use xlink:href="#m90670b4dce" x="573.600152" y="115.927576" style="fill: #9467bd; stroke: #9467bd"/>
     <use xlink:href="#m90670b4dce" x="595.702906" y="115.927576" style="fill: #9467bd; stroke: #9467bd"/>
     <use xlink:href="#m90670b4dce" x="617.805661" y="115.927576" style="fill: #9467bd; stroke: #9467bd"/>
     <use xlink:href="#m90670b4dce" x="639.908416" y="115.927576" style="fill: #9467bd; stroke: #9467bd"/>
     <use xlink:href="#m90670b4dce" x="662.011171" y="97.017744" style="fill: #9467bd; stroke: #9467bd"/>
     <use xlink:href="#m90670b4dce" x="684.113926" y="97.017744" style="fill: #9467bd; stroke: #9467bd"/>
     <use xlink:href="#m90670b4dce" x="706.21668" y="97.017744" style="fill: #9467bd; stroke: #9467bd"/>
     <use xlink:href="#m90670b4dce" x="728.319435" y="97.017744" style="fill: #9467bd; stroke: #9467bd"/>
     <use xlink:href="#m90670b4dce" x="750.42219" y="97.017744" style="fill: #9467bd; stroke: #9467bd"/>
     <use xlink:href="#m90670b4dce" x="772.524945" y="71.804636" style="fill: #9467bd; stroke: #9467bd"/>
     <use xlink:href="#m90670b4dce" x="794.6277" y="71.804636" style="fill: #9467bd; stroke: #9467bd"/>
     <use xlink:href="#m90670b4dce" x="816.730455" y="71.804636" style="fill: #9467bd; stroke: #9467bd"/>
    </g>
   </g>
   <g id="line2d_38">
    <path d="M 87.339545 376.917293 
L 109.4423 364.310739 
L 131.545055 342.879597 
L 153.64781 330.273043 
L 175.750565 305.059934 
L 197.85332 271.022238 
L 219.956074 253.373062 
L 242.058829 253.373062 
L 264.161584 221.856677 
L 286.264339 210.510778 
L 308.367094 182.776359 
L 330.469848 175.212426 
L 352.572603 136.132108 
L 418.880868 136.132108 
L 440.983623 136.132108 
L 463.086377 136.132108 
L 485.189132 136.132108 
L 507.291887 136.132108 
L 551.497397 136.132108 
L 573.600152 136.132108 
L 595.702906 136.132108 
L 617.805661 136.132108 
L 639.908416 136.132108 
L 662.011171 136.132108 
L 684.113926 136.132108 
L 706.21668 136.132108 
L 728.319435 136.132108 
L 750.42219 136.132108 
L 772.524945 117.222277 
L 794.6277 117.222277 
L 816.730455 117.222277 
" clip-path="url(#pbda0bbf324)" style="fill: none; stroke: #8c564b; stroke-width: 1.5; stroke-linecap: square"/>
    <defs>
     <path id="m61534f2702" d="M 0 3.5 
C 0.928211 3.5 1.81853 3.131218 2.474874 2.474874 
C 3.131218 1.81853 3.5 0.928211 3.5 0 
C 3.5 -0.928211 3.131218 -1.81853 2.474874 -2.474874 
C 1.81853 -3.131218 0.928211 -3.5 0 -3.5 
C -0.928211 -3.5 -1.81853 -3.131218 -2.474874 -2.474874 
C -3.131218 -1.81853 -3.5 -0.928211 -3.5 0 
C -3.5 0.928211 -3.131218 1.81853 -2.474874 2.474874 
C -1.81853 3.131218 -0.928211 3.5 0 3.5 
z
" style="stroke: #8c564b"/>
    </defs>
    <g clip-path="url(#pbda0bbf324)">
     <use xlink:href="#m61534f2702" x="87.339545" y="376.917293" style="fill: #8c564b; stroke: #8c564b"/>
     <use xlink:href="#m61534f2702" x="109.4423" y="364.310739" style="fill: #8c564b; stroke: #8c564b"/>
     <use xlink:href="#m61534f2702" x="131.545055" y="342.879597" style="fill: #8c564b; stroke: #8c564b"/>
     <use xlink:href="#m61534f2702" x="153.64781" y="330.273043" style="fill: #8c564b; stroke: #8c564b"/>
     <use xlink:href="#m61534f2702" x="175.750565" y="305.059934" style="fill: #8c564b; stroke: #8c564b"/>
     <use xlink:href="#m61534f2702" x="197.85332" y="271.022238" style="fill: #8c564b; stroke: #8c564b"/>
     <use xlink:href="#m61534f2702" x="219.956074" y="253.373062" style="fill: #8c564b; stroke: #8c564b"/>
     <use xlink:href="#m61534f2702" x="242.058829" y="253.373062" style="fill: #8c564b; stroke: #8c564b"/>
     <use xlink:href="#m61534f2702" x="264.161584" y="221.856677" style="fill: #8c564b; stroke: #8c564b"/>
     <use xlink:href="#m61534f2702" x="286.264339" y="210.510778" style="fill: #8c564b; stroke: #8c564b"/>
     <use xlink:href="#m61534f2702" x="308.367094" y="182.776359" style="fill: #8c564b; stroke: #8c564b"/>
     <use xlink:href="#m61534f2702" x="330.469848" y="175.212426" style="fill: #8c564b; stroke: #8c564b"/>
     <use xlink:href="#m61534f2702" x="352.572603" y="136.132108" style="fill: #8c564b; stroke: #8c564b"/>
     <use xlink:href="#m61534f2702" x="418.880868" y="136.132108" style="fill: #8c564b; stroke: #8c564b"/>
     <use xlink:href="#m61534f2702" x="440.983623" y="136.132108" style="fill: #8c564b; stroke: #8c564b"/>
     <use xlink:href="#m61534f2702" x="463.086377" y="136.132108" style="fill: #8c564b; stroke: #8c564b"/>
     <use xlink:href="#m61534f2702" x="485.189132" y="136.132108" style="fill: #8c564b; stroke: #8c564b"/>
     <use xlink:href="#m61534f2702" x="507.291887" y="136.132108" style="fill: #8c564b; stroke: #8c564b"/>
     <use xlink:href="#m61534f2702" x="551.497397" y="136.132108" style="fill: #8c564b; stroke: #8c564b"/>
     <use xlink:href="#m61534f2702" x="573.600152" y="136.132108" style="fill: #8c564b; stroke: #8c564b"/>
     <use xlink:href="#m61534f2702" x="595.702906" y="136.132108" style="fill: #8c564b; stroke: #8c564b"/>
     <use xlink:href="#m61534f2702" x="617.805661" y="136.132108" style="fill: #8c564b; stroke: #8c564b"/>
     <use xlink:href="#m61534f2702" x="639.908416" y="136.132108" style="fill: #8c564b; stroke: #8c564b"/>
     <use xlink:href="#m61534f2702" x="662.011171" y="136.132108" style="fill: #8c564b; stroke: #8c564b"/>
     <use xlink:href="#m61534f2702" x="684.113926" y="136.132108" style="fill: #8c564b; stroke: #8c564b"/>
     <use xlink:href="#m61534f2702" x="706.21668" y="136.132108" style="fill: #8c564b; stroke: #8c564b"/>
     <use xlink:href="#m61534f2702" x="728.319435" y="136.132108" style="fill: #8c564b; stroke: #8c564b"/>
     <use xlink:href="#m61534f2702" x="750.42219" y="136.132108" style="fill: #8c564b; stroke: #8c564b"/>
     <use xlink:href="#m61534f2702" x="772.524945" y="117.222277" style="fill: #8c564b; stroke: #8c564b"/>
     <use xlink:href="#m61534f2702" x="794.6277" y="117.222277" style="fill: #8c564b; stroke: #8c564b"/>
     <use xlink:href="#m61534f2702" x="816.730455" y="117.222277" style="fill: #8c564b; stroke: #8c564b"/>
    </g>
   </g>
   <g id="line2d_39">
    <path d="M 87.339545 376.828228 
L 109.4423 351.61512 
L 131.545055 330.183978 
L 153.64781 311.274147 
L 175.750565 302.449559 
L 197.85332 270.933173 
L 219.956074 263.369241 
L 242.058829 260.84793 
L 264.161584 233.113511 
L 286.264339 224.288923 
L 308.367094 190.251226 
L 330.469848 175.123361 
L 352.572603 134.782388 
L 418.880868 134.782388 
L 440.983623 134.782388 
L 463.086377 134.782388 
L 485.189132 134.782388 
L 507.291887 134.782388 
L 551.497397 134.782388 
L 573.600152 134.782388 
L 595.702906 134.782388 
L 617.805661 134.782388 
L 639.908416 134.782388 
L 662.011171 115.872557 
L 684.113926 115.872557 
L 706.21668 115.872557 
L 728.319435 115.872557 
L 750.42219 115.872557 
L 772.524945 115.872557 
L 794.6277 115.872557 
L 816.730455 115.872557 
" clip-path="url(#pbda0bbf324)" style="fill: none; stroke: #e377c2; stroke-width: 1.5; stroke-linecap: square"/>
    <defs>
     <path id="mffd7367959" d="M 0 3.5 
C 0.928211 3.5 1.81853 3.131218 2.474874 2.474874 
C 3.131218 1.81853 3.5 0.928211 3.5 0 
C 3.5 -0.928211 3.131218 -1.81853 2.474874 -2.474874 
C 1.81853 -3.131218 0.928211 -3.5 0 -3.5 
C -0.928211 -3.5 -1.81853 -3.131218 -2.474874 -2.474874 
C -3.131218 -1.81853 -3.5 -0.928211 -3.5 0 
C -3.5 0.928211 -3.131218 1.81853 -2.474874 2.474874 
C -1.81853 3.131218 -0.928211 3.5 0 3.5 
z
" style="stroke: #e377c2"/>
    </defs>
    <g clip-path="url(#pbda0bbf324)">
     <use xlink:href="#mffd7367959" x="87.339545" y="376.828228" style="fill: #e377c2; stroke: #e377c2"/>
     <use xlink:href="#mffd7367959" x="109.4423" y="351.61512" style="fill: #e377c2; stroke: #e377c2"/>
     <use xlink:href="#mffd7367959" x="131.545055" y="330.183978" style="fill: #e377c2; stroke: #e377c2"/>
     <use xlink:href="#mffd7367959" x="153.64781" y="311.274147" style="fill: #e377c2; stroke: #e377c2"/>
     <use xlink:href="#mffd7367959" x="175.750565" y="302.449559" style="fill: #e377c2; stroke: #e377c2"/>
     <use xlink:href="#mffd7367959" x="197.85332" y="270.933173" style="fill: #e377c2; stroke: #e377c2"/>
     <use xlink:href="#mffd7367959" x="219.956074" y="263.369241" style="fill: #e377c2; stroke: #e377c2"/>
     <use xlink:href="#mffd7367959" x="242.058829" y="260.84793" style="fill: #e377c2; stroke: #e377c2"/>
     <use xlink:href="#mffd7367959" x="264.161584" y="233.113511" style="fill: #e377c2; stroke: #e377c2"/>
     <use xlink:href="#mffd7367959" x="286.264339" y="224.288923" style="fill: #e377c2; stroke: #e377c2"/>
     <use xlink:href="#mffd7367959" x="308.367094" y="190.251226" style="fill: #e377c2; stroke: #e377c2"/>
     <use xlink:href="#mffd7367959" x="330.469848" y="175.123361" style="fill: #e377c2; stroke: #e377c2"/>
     <use xlink:href="#mffd7367959" x="352.572603" y="134.782388" style="fill: #e377c2; stroke: #e377c2"/>
     <use xlink:href="#mffd7367959" x="418.880868" y="134.782388" style="fill: #e377c2; stroke: #e377c2"/>
     <use xlink:href="#mffd7367959" x="440.983623" y="134.782388" style="fill: #e377c2; stroke: #e377c2"/>
     <use xlink:href="#mffd7367959" x="463.086377" y="134.782388" style="fill: #e377c2; stroke: #e377c2"/>
     <use xlink:href="#mffd7367959" x="485.189132" y="134.782388" style="fill: #e377c2; stroke: #e377c2"/>
     <use xlink:href="#mffd7367959" x="507.291887" y="134.782388" style="fill: #e377c2; stroke: #e377c2"/>
     <use xlink:href="#mffd7367959" x="551.497397" y="134.782388" style="fill: #e377c2; stroke: #e377c2"/>
     <use xlink:href="#mffd7367959" x="573.600152" y="134.782388" style="fill: #e377c2; stroke: #e377c2"/>
     <use xlink:href="#mffd7367959" x="595.702906" y="134.782388" style="fill: #e377c2; stroke: #e377c2"/>
     <use xlink:href="#mffd7367959" x="617.805661" y="134.782388" style="fill: #e377c2; stroke: #e377c2"/>
     <use xlink:href="#mffd7367959" x="639.908416" y="134.782388" style="fill: #e377c2; stroke: #e377c2"/>
     <use xlink:href="#mffd7367959" x="662.011171" y="115.872557" style="fill: #e377c2; stroke: #e377c2"/>
     <use xlink:href="#mffd7367959" x="684.113926" y="115.872557" style="fill: #e377c2; stroke: #e377c2"/>
     <use xlink:href="#mffd7367959" x="706.21668" y="115.872557" style="fill: #e377c2; stroke: #e377c2"/>
     <use xlink:href="#mffd7367959" x="728.319435" y="115.872557" style="fill: #e377c2; stroke: #e377c2"/>
     <use xlink:href="#mffd7367959" x="750.42219" y="115.872557" style="fill: #e377c2; stroke: #e377c2"/>
     <use xlink:href="#mffd7367959" x="772.524945" y="115.872557" style="fill: #e377c2; stroke: #e377c2"/>
     <use xlink:href="#mffd7367959" x="794.6277" y="115.872557" style="fill: #e377c2; stroke: #e377c2"/>
     <use xlink:href="#mffd7367959" x="816.730455" y="115.872557" style="fill: #e377c2; stroke: #e377c2"/>
    </g>
   </g>
   <g id="line2d_40">
    <path d="M 87.339545 383.239479 
L 109.4423 375.675546 
L 131.545055 356.765715 
L 153.64781 354.244404 
L 175.750565 335.334573 
L 197.85332 332.813262 
L 219.956074 311.38212 
L 242.058829 292.472289 
L 264.161584 248.349349 
L 286.264339 243.306727 
L 308.367094 230.700173 
L 330.469848 187.837889 
L 352.572603 151.278882 
L 418.880868 151.278882 
L 440.983623 151.278882 
L 463.086377 151.278882 
L 485.189132 151.278882 
L 507.291887 151.278882 
L 551.497397 151.278882 
L 573.600152 151.278882 
L 595.702906 151.278882 
L 617.805661 151.278882 
L 639.908416 151.278882 
L 662.011171 132.36905 
L 684.113926 132.36905 
L 706.21668 132.36905 
L 728.319435 132.36905 
L 750.42219 132.36905 
L 772.524945 107.155942 
L 794.6277 107.155942 
L 816.730455 107.155942 
" clip-path="url(#pbda0bbf324)" style="fill: none; stroke: #7f7f7f; stroke-width: 1.5; stroke-linecap: square"/>
    <defs>
     <path id="m3402b671a7" d="M 0 3.5 
C 0.928211 3.5 1.81853 3.131218 2.474874 2.474874 
C 3.131218 1.81853 3.5 0.928211 3.5 0 
C 3.5 -0.928211 3.131218 -1.81853 2.474874 -2.474874 
C 1.81853 -3.131218 0.928211 -3.5 0 -3.5 
C -0.928211 -3.5 -1.81853 -3.131218 -2.474874 -2.474874 
C -3.131218 -1.81853 -3.5 -0.928211 -3.5 0 
C -3.5 0.928211 -3.131218 1.81853 -2.474874 2.474874 
C -1.81853 3.131218 -0.928211 3.5 0 3.5 
z
" style="stroke: #7f7f7f"/>
    </defs>
    <g clip-path="url(#pbda0bbf324)">
     <use xlink:href="#m3402b671a7" x="87.339545" y="383.239479" style="fill: #7f7f7f; stroke: #7f7f7f"/>
     <use xlink:href="#m3402b671a7" x="109.4423" y="375.675546" style="fill: #7f7f7f; stroke: #7f7f7f"/>
     <use xlink:href="#m3402b671a7" x="131.545055" y="356.765715" style="fill: #7f7f7f; stroke: #7f7f7f"/>
     <use xlink:href="#m3402b671a7" x="153.64781" y="354.244404" style="fill: #7f7f7f; stroke: #7f7f7f"/>
     <use xlink:href="#m3402b671a7" x="175.750565" y="335.334573" style="fill: #7f7f7f; stroke: #7f7f7f"/>
     <use xlink:href="#m3402b671a7" x="197.85332" y="332.813262" style="fill: #7f7f7f; stroke: #7f7f7f"/>
     <use xlink:href="#m3402b671a7" x="219.956074" y="311.38212" style="fill: #7f7f7f; stroke: #7f7f7f"/>
     <use xlink:href="#m3402b671a7" x="242.058829" y="292.472289" style="fill: #7f7f7f; stroke: #7f7f7f"/>
     <use xlink:href="#m3402b671a7" x="264.161584" y="248.349349" style="fill: #7f7f7f; stroke: #7f7f7f"/>
     <use xlink:href="#m3402b671a7" x="286.264339" y="243.306727" style="fill: #7f7f7f; stroke: #7f7f7f"/>
     <use xlink:href="#m3402b671a7" x="308.367094" y="230.700173" style="fill: #7f7f7f; stroke: #7f7f7f"/>
     <use xlink:href="#m3402b671a7" x="330.469848" y="187.837889" style="fill: #7f7f7f; stroke: #7f7f7f"/>
     <use xlink:href="#m3402b671a7" x="352.572603" y="151.278882" style="fill: #7f7f7f; stroke: #7f7f7f"/>
     <use xlink:href="#m3402b671a7" x="418.880868" y="151.278882" style="fill: #7f7f7f; stroke: #7f7f7f"/>
     <use xlink:href="#m3402b671a7" x="440.983623" y="151.278882" style="fill: #7f7f7f; stroke: #7f7f7f"/>
     <use xlink:href="#m3402b671a7" x="463.086377" y="151.278882" style="fill: #7f7f7f; stroke: #7f7f7f"/>
     <use xlink:href="#m3402b671a7" x="485.189132" y="151.278882" style="fill: #7f7f7f; stroke: #7f7f7f"/>
     <use xlink:href="#m3402b671a7" x="507.291887" y="151.278882" style="fill: #7f7f7f; stroke: #7f7f7f"/>
     <use xlink:href="#m3402b671a7" x="551.497397" y="151.278882" style="fill: #7f7f7f; stroke: #7f7f7f"/>
     <use xlink:href="#m3402b671a7" x="573.600152" y="151.278882" style="fill: #7f7f7f; stroke: #7f7f7f"/>
     <use xlink:href="#m3402b671a7" x="595.702906" y="151.278882" style="fill: #7f7f7f; stroke: #7f7f7f"/>
     <use xlink:href="#m3402b671a7" x="617.805661" y="151.278882" style="fill: #7f7f7f; stroke: #7f7f7f"/>
     <use xlink:href="#m3402b671a7" x="639.908416" y="151.278882" style="fill: #7f7f7f; stroke: #7f7f7f"/>
     <use xlink:href="#m3402b671a7" x="662.011171" y="132.36905" style="fill: #7f7f7f; stroke: #7f7f7f"/>
     <use xlink:href="#m3402b671a7" x="684.113926" y="132.36905" style="fill: #7f7f7f; stroke: #7f7f7f"/>
     <use xlink:href="#m3402b671a7" x="706.21668" y="132.36905" style="fill: #7f7f7f; stroke: #7f7f7f"/>
     <use xlink:href="#m3402b671a7" x="728.319435" y="132.36905" style="fill: #7f7f7f; stroke: #7f7f7f"/>
     <use xlink:href="#m3402b671a7" x="750.42219" y="132.36905" style="fill: #7f7f7f; stroke: #7f7f7f"/>
     <use xlink:href="#m3402b671a7" x="772.524945" y="107.155942" style="fill: #7f7f7f; stroke: #7f7f7f"/>
     <use xlink:href="#m3402b671a7" x="794.6277" y="107.155942" style="fill: #7f7f7f; stroke: #7f7f7f"/>
     <use xlink:href="#m3402b671a7" x="816.730455" y="107.155942" style="fill: #7f7f7f; stroke: #7f7f7f"/>
    </g>
   </g>
   <g id="line2d_41">
    <path d="M 87.339545 383.191485 
L 109.4423 357.978377 
L 131.545055 330.243957 
L 153.64781 321.41937 
L 175.750565 302.509538 
L 197.85332 274.775119 
L 219.956074 247.0407 
L 242.058829 244.519389 
L 264.161584 213.003004 
L 286.264339 172.66203 
L 308.367094 144.927611 
L 330.469848 117.193192 
L 352.572603 83.155495 
L 418.880868 83.155495 
L 440.983623 83.155495 
L 463.086377 83.155495 
L 485.189132 83.155495 
L 507.291887 83.155495 
L 551.497397 83.155495 
L 573.600152 83.155495 
L 595.702906 83.155495 
L 617.805661 83.155495 
L 639.908416 83.155495 
L 662.011171 83.155495 
L 684.113926 83.155495 
L 706.21668 83.155495 
L 728.319435 83.155495 
L 750.42219 83.155495 
L 772.524945 64.245664 
L 794.6277 64.245664 
L 816.730455 64.245664 
" clip-path="url(#pbda0bbf324)" style="fill: none; stroke: #bcbd22; stroke-width: 1.5; stroke-linecap: square"/>
    <defs>
     <path id="m9bb637624f" d="M 0 3.5 
C 0.928211 3.5 1.81853 3.131218 2.474874 2.474874 
C 3.131218 1.81853 3.5 0.928211 3.5 0 
C 3.5 -0.928211 3.131218 -1.81853 2.474874 -2.474874 
C 1.81853 -3.131218 0.928211 -3.5 0 -3.5 
C -0.928211 -3.5 -1.81853 -3.131218 -2.474874 -2.474874 
C -3.131218 -1.81853 -3.5 -0.928211 -3.5 0 
C -3.5 0.928211 -3.131218 1.81853 -2.474874 2.474874 
C -1.81853 3.131218 -0.928211 3.5 0 3.5 
z
" style="stroke: #bcbd22"/>
    </defs>
    <g clip-path="url(#pbda0bbf324)">
     <use xlink:href="#m9bb637624f" x="87.339545" y="383.191485" style="fill: #bcbd22; stroke: #bcbd22"/>
     <use xlink:href="#m9bb637624f" x="109.4423" y="357.978377" style="fill: #bcbd22; stroke: #bcbd22"/>
     <use xlink:href="#m9bb637624f" x="131.545055" y="330.243957" style="fill: #bcbd22; stroke: #bcbd22"/>
     <use xlink:href="#m9bb637624f" x="153.64781" y="321.41937" style="fill: #bcbd22; stroke: #bcbd22"/>
     <use xlink:href="#m9bb637624f" x="175.750565" y="302.509538" style="fill: #bcbd22; stroke: #bcbd22"/>
     <use xlink:href="#m9bb637624f" x="197.85332" y="274.775119" style="fill: #bcbd22; stroke: #bcbd22"/>
     <use xlink:href="#m9bb637624f" x="219.956074" y="247.0407" style="fill: #bcbd22; stroke: #bcbd22"/>
     <use xlink:href="#m9bb637624f" x="242.058829" y="244.519389" style="fill: #bcbd22; stroke: #bcbd22"/>
     <use xlink:href="#m9bb637624f" x="264.161584" y="213.003004" style="fill: #bcbd22; stroke: #bcbd22"/>
     <use xlink:href="#m9bb637624f" x="286.264339" y="172.66203" style="fill: #bcbd22; stroke: #bcbd22"/>
     <use xlink:href="#m9bb637624f" x="308.367094" y="144.927611" style="fill: #bcbd22; stroke: #bcbd22"/>
     <use xlink:href="#m9bb637624f" x="330.469848" y="117.193192" style="fill: #bcbd22; stroke: #bcbd22"/>
     <use xlink:href="#m9bb637624f" x="352.572603" y="83.155495" style="fill: #bcbd22; stroke: #bcbd22"/>
     <use xlink:href="#m9bb637624f" x="418.880868" y="83.155495" style="fill: #bcbd22; stroke: #bcbd22"/>
     <use xlink:href="#m9bb637624f" x="440.983623" y="83.155495" style="fill: #bcbd22; stroke: #bcbd22"/>
     <use xlink:href="#m9bb637624f" x="463.086377" y="83.155495" style="fill: #bcbd22; stroke: #bcbd22"/>
     <use xlink:href="#m9bb637624f" x="485.189132" y="83.155495" style="fill: #bcbd22; stroke: #bcbd22"/>
     <use xlink:href="#m9bb637624f" x="507.291887" y="83.155495" style="fill: #bcbd22; stroke: #bcbd22"/>
     <use xlink:href="#m9bb637624f" x="551.497397" y="83.155495" style="fill: #bcbd22; stroke: #bcbd22"/>
     <use xlink:href="#m9bb637624f" x="573.600152" y="83.155495" style="fill: #bcbd22; stroke: #bcbd22"/>
     <use xlink:href="#m9bb637624f" x="595.702906" y="83.155495" style="fill: #bcbd22; stroke: #bcbd22"/>
     <use xlink:href="#m9bb637624f" x="617.805661" y="83.155495" style="fill: #bcbd22; stroke: #bcbd22"/>
     <use xlink:href="#m9bb637624f" x="639.908416" y="83.155495" style="fill: #bcbd22; stroke: #bcbd22"/>
     <use xlink:href="#m9bb637624f" x="662.011171" y="83.155495" style="fill: #bcbd22; stroke: #bcbd22"/>
     <use xlink:href="#m9bb637624f" x="684.113926" y="83.155495" style="fill: #bcbd22; stroke: #bcbd22"/>
     <use xlink:href="#m9bb637624f" x="706.21668" y="83.155495" style="fill: #bcbd22; stroke: #bcbd22"/>
     <use xlink:href="#m9bb637624f" x="728.319435" y="83.155495" style="fill: #bcbd22; stroke: #bcbd22"/>
     <use xlink:href="#m9bb637624f" x="750.42219" y="83.155495" style="fill: #bcbd22; stroke: #bcbd22"/>
     <use xlink:href="#m9bb637624f" x="772.524945" y="64.245664" style="fill: #bcbd22; stroke: #bcbd22"/>
     <use xlink:href="#m9bb637624f" x="794.6277" y="64.245664" style="fill: #bcbd22; stroke: #bcbd22"/>
     <use xlink:href="#m9bb637624f" x="816.730455" y="64.245664" style="fill: #bcbd22; stroke: #bcbd22"/>
    </g>
   </g>
   <g id="patch_3">
    <path d="M 50.87 404.12 
L 50.87 26.88 
" style="fill: none; stroke: #000000; stroke-width: 0.8; stroke-linejoin: miter; stroke-linecap: square"/>
   </g>
   <g id="patch_4">
    <path d="M 853.2 404.12 
L 853.2 26.88 
" style="fill: none; stroke: #000000; stroke-width: 0.8; stroke-linejoin: miter; stroke-linecap: square"/>
   </g>
   <g id="patch_5">
    <path d="M 50.87 404.12 
L 853.2 404.12 
" style="fill: none; stroke: #000000; stroke-width: 0.8; stroke-linejoin: miter; stroke-linecap: square"/>
   </g>
   <g id="patch_6">
    <path d="M 50.87 26.88 
L 853.2 26.88 
" style="fill: none; stroke: #000000; stroke-width: 0.8; stroke-linejoin: miter; stroke-linecap: square"/>
   </g>
   <g id="text_18">
    <!-- Standings -->
    <g transform="translate(422.18125 20.88) scale(0.12 -0.12)">
     <defs>
      <path id="DejaVuSans-74" d="M 1172 4494 
L 1172 3500 
L 2356 3500 
L 2356 3053 
L 1172 3053 
L 1172 1153 
Q 1172 725 1289 603 
Q 1406 481 1766 481 
L 2356 481 
L 2356 0 
L 1766 0 
Q 1100 0 847 248 
Q 594 497 594 1153 
L 594 3053 
L 172 3053 
L 172 3500 
L 594 3500 
L 594 4494 
L 1172 4494 
z
" transform="scale(0.015625)"/>
      <path id="DejaVuSans-61" d="M 2194 1759 
Q 1497 1759 1228 1600 
Q 959 1441 959 1056 
Q 959 750 1161 570 
Q 1363 391 1709 391 
Q 2188 391 2477 730 
Q 2766 1069 2766 1631 
L 2766 1759 
L 2194 1759 
z
M 3341 1997 
L 3341 0 
L 2766 0 
L 2766 531 
Q 2569 213 2275 61 
Q 1981 -91 1556 -91 
Q 1019 -91 701 211 
Q 384 513 384 1019 
Q 384 1609 779 1909 
Q 1175 2209 1959 2209 
L 2766 2209 
L 2766 2266 
Q 2766 2663 2505 2880 
Q 2244 3097 1772 3097 
Q 1472 3097 1187 3025 
Q 903 2953 641 2809 
L 641 3341 
Q 956 3463 1253 3523 
Q 1550 3584 1831 3584 
Q 2591 3584 2966 3190 
Q 3341 2797 3341 1997 
z
" transform="scale(0.015625)"/>
      <path id="DejaVuSans-6e" d="M 3513 2113 
L 3513 0 
L 2938 0 
L 2938 2094 
Q 2938 2591 2744 2837 
Q 2550 3084 2163 3084 
Q 1697 3084 1428 2787 
Q 1159 2491 1159 1978 
L 1159 0 
L 581 0 
L 581 3500 
L 1159 3500 
L 1159 2956 
Q 1366 3272 1645 3428 
Q 1925 3584 2291 3584 
Q 2894 3584 3203 3211 
Q 3513 2838 3513 2113 
z
" transform="scale(0.015625)"/>
      <path id="DejaVuSans-64" d="M 2906 2969 
L 2906 4863 
L 3481 4863 
L 3481 0 
L 2906 0 
L 2906 525 
Q 2725 213 2448 61 
Q 2172 -91 1784 -91 
Q 1150 -91 751 415 
Q 353 922 353 1747 
Q 353 2572 751 3078 
Q 1150 3584 1784 3584 
Q 2172 3584 2448 3432 
Q 2725 3281 2906 2969 
z
M 947 1747 
Q 947 1113 1208 752 
Q 1469 391 1925 391 
Q 2381 391 2643 752 
Q 2906 1113 2906 1747 
Q 2906 2381 2643 2742 
Q 2381 3103 1925 3103 
Q 1469 3103 1208 2742 
Q 947 2381 947 1747 
z
" transform="scale(0.015625)"/>
      <path id="DejaVuSans-69" d="M 603 3500 
L 1178 3500 
L 1178 0 
L 603 0 
L 603 3500 
z
M 603 4863 
L 1178 4863 
L 1178 4134 
L 603 4134 
L 603 4863 
z
" transform="scale(0.015625)"/>
      <path id="DejaVuSans-67" d="M 2906 1791 
Q 2906 2416 2648 2759 
Q 2391 3103 1925 3103 
Q 1463 3103 1205 2759 
Q 947 2416 947 1791 
Q 947 1169 1205 825 
Q 1463 481 1925 481 
Q 2391 481 2648 825 
Q 2906 1169 2906 1791 
z
M 3481 434 
Q 3481 -459 3084 -895 
Q 2688 -1331 1869 -1331 
Q 1566 -1331 1297 -1286 
Q 1028 -1241 775 -1147 
L 775 -588 
Q 1028 -725 1275 -790 
Q 1522 -856 1778 -856 
Q 2344 -856 2625 -561 
Q 2906 -266 2906 331 
L 2906 616 
Q 2728 306 2450 153 
Q 2172 0 1784 0 
Q 1141 0 747 490 
Q 353 981 353 1791 
Q 353 2603 747 3093 
Q 1141 3584 1784 3584 
Q 2172 3584 2450 3431 
Q 2728 3278 2906 2969 
L 2906 3500 
L 3481 3500 
L 3481 434 
z
" transform="scale(0.015625)"/>
      <path id="DejaVuSans-73" d="M 2834 3397 
L 2834 2853 
Q 2591 2978 2328 3040 
Q 2066 3103 1784 3103 
Q 1356 3103 1142 2972 
Q 928 2841 928 2578 
Q 928 2378 1081 2264 
Q 1234 2150 1697 2047 
L 1894 2003 
Q 2506 1872 2764 1633 
Q 3022 1394 3022 966 
Q 3022 478 2636 193 
Q 2250 -91 1575 -91 
Q 1294 -91 989 -36 
Q 684 19 347 128 
L 347 722 
Q 666 556 975 473 
Q 1284 391 1588 391 
Q 1994 391 2212 530 
Q 2431 669 2431 922 
Q 2431 1156 2273 1281 
Q 2116 1406 1581 1522 
L 1381 1569 
Q 847 1681 609 1914 
Q 372 2147 372 2553 
Q 372 3047 722 3315 
Q 1072 3584 1716 3584 
Q 2034 3584 2315 3537 
Q 2597 3491 2834 3397 
z
" transform="scale(0.015625)"/>
     </defs>
     <use xlink:href="#DejaVuSans-53"/>
     <use xlink:href="#DejaVuSans-74" x="63.476562"/>
     <use xlink:href="#DejaVuSans-61" x="102.685547"/>
     <use xlink:href="#DejaVuSans-6e" x="163.964844"/>
     <use xlink:href="#DejaVuSans-64" x="227.34375"/>
     <use xlink:href="#DejaVuSans-69" x="290.820312"/>
     <use xlink:href="#DejaVuSans-6e" x="318.603516"/>
     <use xlink:href="#DejaVuSans-67" x="381.982422"/>
     <use xlink:href="#DejaVuSans-73" x="445.458984"/>
    </g>
   </g>
   <g id="legend_1">
    <g id="patch_7">
     <path d="M 57.87 166.983125 
L 153.949688 166.983125 
Q 155.949688 166.983125 155.949688 164.983125 
L 155.949688 33.88 
Q 155.949688 31.88 153.949688 31.88 
L 57.87 31.88 
Q 55.87 31.88 55.87 33.88 
L 55.87 164.983125 
Q 55.87 166.983125 57.87 166.983125 
z
" style="fill: #ffffff; opacity: 0.8; stroke: #cccccc; stroke-linejoin: miter"/>
    </g>
    <g id="line2d_42">
     <path d="M 59.87 39.978437 
L 69.87 39.978437 
L 79.87 39.978437 
" style="fill: none; stroke: #1f77b4; stroke-width: 1.5; stroke-linecap: square"/>
     <g>
      <use xlink:href="#me0c41e6b6f" x="69.87" y="39.978437" style="fill: #1f77b4; stroke: #1f77b4"/>
     </g>
    </g>
    <g id="text_19">
     <!-- Alan Ce -->
     <g transform="translate(87.87 43.478437) scale(0.1 -0.1)">
      <defs>
       <path id="DejaVuSans-41" d="M 2188 4044 
L 1331 1722 
L 3047 1722 
L 2188 4044 
z
M 1831 4666 
L 2547 4666 
L 4325 0 
L 3669 0 
L 3244 1197 
L 1141 1197 
L 716 0 
L 50 0 
L 1831 4666 
z
" transform="scale(0.015625)"/>
       <path id="DejaVuSans-6c" d="M 603 4863 
L 1178 4863 
L 1178 0 
L 603 0 
L 603 4863 
z
" transform="scale(0.015625)"/>
       <path id="DejaVuSans-20" transform="scale(0.015625)"/>
       <path id="DejaVuSans-43" d="M 4122 4306 
L 4122 3641 
Q 3803 3938 3442 4084 
Q 3081 4231 2675 4231 
Q 1875 4231 1450 3742 
Q 1025 3253 1025 2328 
Q 1025 1406 1450 917 
Q 1875 428 2675 428 
Q 3081 428 3442 575 
Q 3803 722 4122 1019 
L 4122 359 
Q 3791 134 3420 21 
Q 3050 -91 2638 -91 
Q 1578 -91 968 557 
Q 359 1206 359 2328 
Q 359 3453 968 4101 
Q 1578 4750 2638 4750 
Q 3056 4750 3426 4639 
Q 3797 4528 4122 4306 
z
" transform="scale(0.015625)"/>
      </defs>
      <use xlink:href="#DejaVuSans-41"/>
      <use xlink:href="#DejaVuSans-6c" x="68.408203"/>
      <use xlink:href="#DejaVuSans-61" x="96.191406"/>
      <use xlink:href="#DejaVuSans-6e" x="157.470703"/>
      <use xlink:href="#DejaVuSans-20" x="220.849609"/>
      <use xlink:href="#DejaVuSans-43" x="252.636719"/>
      <use xlink:href="#DejaVuSans-65" x="322.460938"/>
     </g>
    </g>
    <g id="line2d_43">
     <path d="M 59.87 54.656563 
L 69.87 54.656563 
L 79.87 54.656563 
" style="fill: none; stroke: #ff7f0e; stroke-width: 1.5; stroke-linecap: square"/>
     <g>
      <use xlink:href="#mc744ab7393" x="69.87" y="54.656563" style="fill: #ff7f0e; stroke: #ff7f0e"/>
     </g>
    </g>
    <g id="text_20">
     <!-- Sebastian Le -->
     <g transform="translate(87.87 58.156563) scale(0.1 -0.1)">
      <defs>
       <path id="DejaVuSans-62" d="M 3116 1747 
Q 3116 2381 2855 2742 
Q 2594 3103 2138 3103 
Q 1681 3103 1420 2742 
Q 1159 2381 1159 1747 
Q 1159 1113 1420 752 
Q 1681 391 2138 391 
Q 2594 391 2855 752 
Q 3116 1113 3116 1747 
z
M 1159 2969 
Q 1341 3281 1617 3432 
Q 1894 3584 2278 3584 
Q 2916 3584 3314 3078 
Q 3713 2572 3713 1747 
Q 3713 922 3314 415 
Q 2916 -91 2278 -91 
Q 1894 -91 1617 61 
Q 1341 213 1159 525 
L 1159 0 
L 581 0 
L 581 4863 
L 1159 4863 
L 1159 2969 
z
" transform="scale(0.015625)"/>
       <path id="DejaVuSans-4c" d="M 628 4666 
L 1259 4666 
L 1259 531 
L 3531 531 
L 3531 0 
L 628 0 
L 628 4666 
z
" transform="scale(0.015625)"/>
      </defs>
      <use xlink:href="#DejaVuSans-53"/>
      <use xlink:href="#DejaVuSans-65" x="63.476562"/>
      <use xlink:href="#DejaVuSans-62" x="125"/>
      <use xlink:href="#DejaVuSans-61" x="188.476562"/>
      <use xlink:href="#DejaVuSans-73" x="249.755859"/>
      <use xlink:href="#DejaVuSans-74" x="301.855469"/>
      <use xlink:href="#DejaVuSans-69" x="341.064453"/>
      <use xlink:href="#DejaVuSans-61" x="368.847656"/>
      <use xlink:href="#DejaVuSans-6e" x="430.126953"/>
      <use xlink:href="#DejaVuSans-20" x="493.505859"/>
      <use xlink:href="#DejaVuSans-4c" x="525.292969"/>
      <use xlink:href="#DejaVuSans-65" x="579.255859"/>
     </g>
    </g>
    <g id="line2d_44">
     <path d="M 59.87 69.334687 
L 69.87 69.334687 
L 79.87 69.334687 
" style="fill: none; stroke: #2ca02c; stroke-width: 1.5; stroke-linecap: square"/>
     <g>
      <use xlink:href="#m894221322c" x="69.87" y="69.334687" style="fill: #2ca02c; stroke: #2ca02c"/>
     </g>
    </g>
    <g id="text_21">
     <!-- Sarah Gy -->
     <g transform="translate(87.87 72.834687) scale(0.1 -0.1)">
      <defs>
       <path id="DejaVuSans-68" d="M 3513 2113 
L 3513 0 
L 2938 0 
L 2938 2094 
Q 2938 2591 2744 2837 
Q 2550 3084 2163 3084 
Q 1697 3084 1428 2787 
Q 1159 2491 1159 1978 
L 1159 0 
L 581 0 
L 581 4863 
L 1159 4863 
L 1159 2956 
Q 1366 3272 1645 3428 
Q 1925 3584 2291 3584 
Q 2894 3584 3203 3211 
Q 3513 2838 3513 2113 
z
" transform="scale(0.015625)"/>
       <path id="DejaVuSans-47" d="M 3809 666 
L 3809 1919 
L 2778 1919 
L 2778 2438 
L 4434 2438 
L 4434 434 
Q 4069 175 3628 42 
Q 3188 -91 2688 -91 
Q 1594 -91 976 548 
Q 359 1188 359 2328 
Q 359 3472 976 4111 
Q 1594 4750 2688 4750 
Q 3144 4750 3555 4637 
Q 3966 4525 4313 4306 
L 4313 3634 
Q 3963 3931 3569 4081 
Q 3175 4231 2741 4231 
Q 1884 4231 1454 3753 
Q 1025 3275 1025 2328 
Q 1025 1384 1454 906 
Q 1884 428 2741 428 
Q 3075 428 3337 486 
Q 3600 544 3809 666 
z
" transform="scale(0.015625)"/>
       <path id="DejaVuSans-79" d="M 2059 -325 
Q 1816 -950 1584 -1140 
Q 1353 -1331 966 -1331 
L 506 -1331 
L 506 -850 
L 844 -850 
Q 1081 -850 1212 -737 
Q 1344 -625 1503 -206 
L 1606 56 
L 191 3500 
L 800 3500 
L 1894 763 
L 2988 3500 
L 3597 3500 
L 2059 -325 
z
" transform="scale(0.015625)"/>
      </defs>
      <use xlink:href="#DejaVuSans-53"/>
      <use xlink:href="#DejaVuSans-61" x="63.476562"/>
      <use xlink:href="#DejaVuSans-72" x="124.755859"/>
      <use xlink:href="#DejaVuSans-61" x="165.869141"/>
      <use xlink:href="#DejaVuSans-68" x="227.148438"/>
      <use xlink:href="#DejaVuSans-20" x="290.527344"/>
      <use xlink:href="#DejaVuSans-47" x="322.314453"/>
      <use xlink:href="#DejaVuSans-79" x="399.804688"/>
     </g>
    </g>
    <g id="line2d_45">
     <path d="M 59.87 84.012812 
L 69.87 84.012812 
L 79.87 84.012812 
" style="fill: none; stroke: #d62728; stroke-width: 1.5; stroke-linecap: square"/>
     <g>
      <use xlink:href="#m12ae044e6a" x="69.87" y="84.012812" style="fill: #d62728; stroke: #d62728"/>
     </g>
    </g>
    <g id="text_22">
     <!-- Matias BN -->
     <g transform="translate(87.87 87.512812) scale(0.1 -0.1)">
      <defs>
       <path id="DejaVuSans-4d" d="M 628 4666 
L 1569 4666 
L 2759 1491 
L 3956 4666 
L 4897 4666 
L 4897 0 
L 4281 0 
L 4281 4097 
L 3078 897 
L 2444 897 
L 1241 4097 
L 1241 0 
L 628 0 
L 628 4666 
z
" transform="scale(0.015625)"/>
       <path id="DejaVuSans-42" d="M 1259 2228 
L 1259 519 
L 2272 519 
Q 2781 519 3026 730 
Q 3272 941 3272 1375 
Q 3272 1813 3026 2020 
Q 2781 2228 2272 2228 
L 1259 2228 
z
M 1259 4147 
L 1259 2741 
L 2194 2741 
Q 2656 2741 2882 2914 
Q 3109 3088 3109 3444 
Q 3109 3797 2882 3972 
Q 2656 4147 2194 4147 
L 1259 4147 
z
M 628 4666 
L 2241 4666 
Q 2963 4666 3353 4366 
Q 3744 4066 3744 3513 
Q 3744 3084 3544 2831 
Q 3344 2578 2956 2516 
Q 3422 2416 3680 2098 
Q 3938 1781 3938 1306 
Q 3938 681 3513 340 
Q 3088 0 2303 0 
L 628 0 
L 628 4666 
z
" transform="scale(0.015625)"/>
       <path id="DejaVuSans-4e" d="M 628 4666 
L 1478 4666 
L 3547 763 
L 3547 4666 
L 4159 4666 
L 4159 0 
L 3309 0 
L 1241 3903 
L 1241 0 
L 628 0 
L 628 4666 
z
" transform="scale(0.015625)"/>
      </defs>
      <use xlink:href="#DejaVuSans-4d"/>
      <use xlink:href="#DejaVuSans-61" x="86.279297"/>
      <use xlink:href="#DejaVuSans-74" x="147.558594"/>
      <use xlink:href="#DejaVuSans-69" x="186.767578"/>
      <use xlink:href="#DejaVuSans-61" x="214.550781"/>
      <use xlink:href="#DejaVuSans-73" x="275.830078"/>
      <use xlink:href="#DejaVuSans-20" x="327.929688"/>
      <use xlink:href="#DejaVuSans-42" x="359.716797"/>
      <use xlink:href="#DejaVuSans-4e" x="428.320312"/>
     </g>
    </g>
    <g id="line2d_46">
     <path d="M 59.87 98.690938 
L 69.87 98.690938 
L 79.87 98.690938 
" style="fill: none; stroke: #9467bd; stroke-width: 1.5; stroke-linecap: square"/>
     <g>
      <use xlink:href="#m90670b4dce" x="69.87" y="98.690938" style="fill: #9467bd; stroke: #9467bd"/>
     </g>
    </g>
    <g id="text_23">
     <!-- Christian Gr -->
     <g transform="translate(87.87 102.190938) scale(0.1 -0.1)">
      <use xlink:href="#DejaVuSans-43"/>
      <use xlink:href="#DejaVuSans-68" x="69.824219"/>
      <use xlink:href="#DejaVuSans-72" x="133.203125"/>
      <use xlink:href="#DejaVuSans-69" x="174.316406"/>
      <use xlink:href="#DejaVuSans-73" x="202.099609"/>
      <use xlink:href="#DejaVuSans-74" x="254.199219"/>
      <use xlink:href="#DejaVuSans-69" x="293.408203"/>
      <use xlink:href="#DejaVuSans-61" x="321.191406"/>
      <use xlink:href="#DejaVuSans-6e" x="382.470703"/>
      <use xlink:href="#DejaVuSans-20" x="445.849609"/>
      <use xlink:href="#DejaVuSans-47" x="477.636719"/>
      <use xlink:href="#DejaVuSans-72" x="555.126953"/>
     </g>
    </g>
    <g id="line2d_47">
     <path d="M 59.87 113.369062 
L 69.87 113.369062 
L 79.87 113.369062 
" style="fill: none; stroke: #8c564b; stroke-width: 1.5; stroke-linecap: square"/>
     <g>
      <use xlink:href="#m61534f2702" x="69.87" y="113.369062" style="fill: #8c564b; stroke: #8c564b"/>
     </g>
    </g>
    <g id="text_24">
     <!-- Oscar En -->
     <g transform="translate(87.87 116.869062) scale(0.1 -0.1)">
      <defs>
       <path id="DejaVuSans-4f" d="M 2522 4238 
Q 1834 4238 1429 3725 
Q 1025 3213 1025 2328 
Q 1025 1447 1429 934 
Q 1834 422 2522 422 
Q 3209 422 3611 934 
Q 4013 1447 4013 2328 
Q 4013 3213 3611 3725 
Q 3209 4238 2522 4238 
z
M 2522 4750 
Q 3503 4750 4090 4092 
Q 4678 3434 4678 2328 
Q 4678 1225 4090 567 
Q 3503 -91 2522 -91 
Q 1538 -91 948 565 
Q 359 1222 359 2328 
Q 359 3434 948 4092 
Q 1538 4750 2522 4750 
z
" transform="scale(0.015625)"/>
       <path id="DejaVuSans-45" d="M 628 4666 
L 3578 4666 
L 3578 4134 
L 1259 4134 
L 1259 2753 
L 3481 2753 
L 3481 2222 
L 1259 2222 
L 1259 531 
L 3634 531 
L 3634 0 
L 628 0 
L 628 4666 
z
" transform="scale(0.015625)"/>
      </defs>
      <use xlink:href="#DejaVuSans-4f"/>
      <use xlink:href="#DejaVuSans-73" x="78.710938"/>
      <use xlink:href="#DejaVuSans-63" x="130.810547"/>
      <use xlink:href="#DejaVuSans-61" x="185.791016"/>
      <use xlink:href="#DejaVuSans-72" x="247.070312"/>
      <use xlink:href="#DejaVuSans-20" x="288.183594"/>
      <use xlink:href="#DejaVuSans-45" x="319.970703"/>
      <use xlink:href="#DejaVuSans-6e" x="383.154297"/>
     </g>
    </g>
    <g id="line2d_48">
     <path d="M 59.87 128.047187 
L 69.87 128.047187 
L 79.87 128.047187 
" style="fill: none; stroke: #e377c2; stroke-width: 1.5; stroke-linecap: square"/>
     <g>
      <use xlink:href="#mffd7367959" x="69.87" y="128.047187" style="fill: #e377c2; stroke: #e377c2"/>
     </g>
    </g>
    <g id="text_25">
     <!-- Bjarke Ha -->
     <g transform="translate(87.87 131.547187) scale(0.1 -0.1)">
      <defs>
       <path id="DejaVuSans-6a" d="M 603 3500 
L 1178 3500 
L 1178 -63 
Q 1178 -731 923 -1031 
Q 669 -1331 103 -1331 
L -116 -1331 
L -116 -844 
L 38 -844 
Q 366 -844 484 -692 
Q 603 -541 603 -63 
L 603 3500 
z
M 603 4863 
L 1178 4863 
L 1178 4134 
L 603 4134 
L 603 4863 
z
" transform="scale(0.015625)"/>
       <path id="DejaVuSans-6b" d="M 581 4863 
L 1159 4863 
L 1159 1991 
L 2875 3500 
L 3609 3500 
L 1753 1863 
L 3688 0 
L 2938 0 
L 1159 1709 
L 1159 0 
L 581 0 
L 581 4863 
z
" transform="scale(0.015625)"/>
       <path id="DejaVuSans-48" d="M 628 4666 
L 1259 4666 
L 1259 2753 
L 3553 2753 
L 3553 4666 
L 4184 4666 
L 4184 0 
L 3553 0 
L 3553 2222 
L 1259 2222 
L 1259 0 
L 628 0 
L 628 4666 
z
" transform="scale(0.015625)"/>
      </defs>
      <use xlink:href="#DejaVuSans-42"/>
      <use xlink:href="#DejaVuSans-6a" x="68.603516"/>
      <use xlink:href="#DejaVuSans-61" x="96.386719"/>
      <use xlink:href="#DejaVuSans-72" x="157.666016"/>
      <use xlink:href="#DejaVuSans-6b" x="198.779297"/>
      <use xlink:href="#DejaVuSans-65" x="253.064453"/>
      <use xlink:href="#DejaVuSans-20" x="314.587891"/>
      <use xlink:href="#DejaVuSans-48" x="346.375"/>
      <use xlink:href="#DejaVuSans-61" x="421.570312"/>
     </g>
    </g>
    <g id="line2d_49">
     <path d="M 59.87 142.725312 
L 69.87 142.725312 
L 79.87 142.725312 
" style="fill: none; stroke: #7f7f7f; stroke-width: 1.5; stroke-linecap: square"/>
     <g>
      <use xlink:href="#m3402b671a7" x="69.87" y="142.725312" style="fill: #7f7f7f; stroke: #7f7f7f"/>
     </g>
    </g>
    <g id="text_26">
     <!-- Sif Ma -->
     <g transform="translate(87.87 146.225312) scale(0.1 -0.1)">
      <defs>
       <path id="DejaVuSans-66" d="M 2375 4863 
L 2375 4384 
L 1825 4384 
Q 1516 4384 1395 4259 
Q 1275 4134 1275 3809 
L 1275 3500 
L 2222 3500 
L 2222 3053 
L 1275 3053 
L 1275 0 
L 697 0 
L 697 3053 
L 147 3053 
L 147 3500 
L 697 3500 
L 697 3744 
Q 697 4328 969 4595 
Q 1241 4863 1831 4863 
L 2375 4863 
z
" transform="scale(0.015625)"/>
      </defs>
      <use xlink:href="#DejaVuSans-53"/>
      <use xlink:href="#DejaVuSans-69" x="63.476562"/>
      <use xlink:href="#DejaVuSans-66" x="91.259766"/>
      <use xlink:href="#DejaVuSans-20" x="126.464844"/>
      <use xlink:href="#DejaVuSans-4d" x="158.251953"/>
      <use xlink:href="#DejaVuSans-61" x="244.53125"/>
     </g>
    </g>
    <g id="line2d_50">
     <path d="M 59.87 157.403437 
L 69.87 157.403437 
L 79.87 157.403437 
" style="fill: none; stroke: #bcbd22; stroke-width: 1.5; stroke-linecap: square"/>
     <g>
      <use xlink:href="#m9bb637624f" x="69.87" y="157.403437" style="fill: #bcbd22; stroke: #bcbd22"/>
     </g>
    </g>
    <g id="text_27">
     <!-- Helene Cl -->
     <g transform="translate(87.87 160.903437) scale(0.1 -0.1)">
      <use xlink:href="#DejaVuSans-48"/>
      <use xlink:href="#DejaVuSans-65" x="75.195312"/>
      <use xlink:href="#DejaVuSans-6c" x="136.71875"/>
      <use xlink:href="#DejaVuSans-65" x="164.501953"/>
      <use xlink:href="#DejaVuSans-6e" x="226.025391"/>
      <use xlink:href="#DejaVuSans-65" x="289.404297"/>
      <use xlink:href="#DejaVuSans-20" x="350.927734"/>
      <use xlink:href="#DejaVuSans-43" x="382.714844"/>
      <use xlink:href="#DejaVuSans-6c" x="452.539062"/>
     </g>
    </g>
   </g>
  </g>
 </g>
 <defs>
  <clipPath id="pbda0bbf324">
   <rect x="50.87" y="26.88" width="802.33" height="377.24"/>
  </clipPath>
 </defs>
</svg>
