<?xml version="1.0" encoding="utf-8" standalone="no"?>
<!DOCTYPE svg PUBLIC "-//W3C//DTD SVG 1.1//EN"
  "http://www.w3.org/Graphics/SVG/1.1/DTD/svg11.dtd">
<svg xmlns:xlink="http://www.w3.org/1999/xlink" width="864pt" height="432pt" viewBox="0 0 864 432" xmlns="http://www.w3.org/2000/svg" version="1.1">
 <metadata>
  <rdf:RDF xmlns:dc="http://purl.org/dc/elements/1.1/" xmlns:cc="http://creativecommons.org/ns#" xmlns:rdf="http://www.w3.org/1999/02/22-rdf-syntax-ns#">
   <cc:Work>
    <dc:type rdf:resource="http://purl.org/dc/dcmitype/StillImage"/>
    <dc:date>2024-07-30T05:31:44.874783</dc:date>
    <dc:format>image/svg+xml</dc:format>
    <dc:creator>
     <cc:Agent>
      <dc:title>Matplotlib v3.9.1, https://matplotlib.org/</dc:title>
     </cc:Agent>
    </dc:creator>
   </cc:Work>
  </rdf:RDF>
 </metadata>
 <defs>
  <style type="text/css">*{stroke-linejoin: round; stroke-linecap: butt}</style>
 </defs>
 <g id="figure_1">
  <g id="patch_1">
   <path d="M 0 432 
L 864 432 
L 864 0 
L 0 0 
z
" style="fill: #ffffff"/>
  </g>
  <g id="axes_1">
   <g id="patch_2">
    <path d="M 50.87 404.12 
L 828.36996 404.12 
L 828.36996 26.88 
L 50.87 26.88 
z
" style="fill: #ffffff"/>
   </g>
   <g id="matplotlib.axis_1">
    <g id="xtick_1">
     <g id="line2d_1">
      <path d="M 101.576519 404.12 
L 101.576519 26.88 
" clip-path="url(#pb654ddfb7c)" style="fill: none; stroke-dasharray: 2.96,1.28; stroke-dashoffset: 0; stroke: #b0b0b0; stroke-width: 0.8"/>
     </g>
     <g id="line2d_2">
      <defs>
       <path id="mefc68760b2" d="M 0 0 
L 0 3.5 
" style="stroke: #000000; stroke-width: 0.8"/>
      </defs>
      <g>
       <use xlink:href="#mefc68760b2" x="101.576519" y="404.12" style="stroke: #000000; stroke-width: 0.8"/>
      </g>
     </g>
     <g id="text_1">
      <!-- 2024-06-15 -->
      <g transform="translate(72.518707 418.718437) scale(0.1 -0.1)">
       <defs>
        <path id="DejaVuSans-32" d="M 1228 531 
L 3431 531 
L 3431 0 
L 469 0 
L 469 531 
Q 828 903 1448 1529 
Q 2069 2156 2228 2338 
Q 2531 2678 2651 2914 
Q 2772 3150 2772 3378 
Q 2772 3750 2511 3984 
Q 2250 4219 1831 4219 
Q 1534 4219 1204 4116 
Q 875 4013 500 3803 
L 500 4441 
Q 881 4594 1212 4672 
Q 1544 4750 1819 4750 
Q 2544 4750 2975 4387 
Q 3406 4025 3406 3419 
Q 3406 3131 3298 2873 
Q 3191 2616 2906 2266 
Q 2828 2175 2409 1742 
Q 1991 1309 1228 531 
z
" transform="scale(0.015625)"/>
        <path id="DejaVuSans-30" d="M 2034 4250 
Q 1547 4250 1301 3770 
Q 1056 3291 1056 2328 
Q 1056 1369 1301 889 
Q 1547 409 2034 409 
Q 2525 409 2770 889 
Q 3016 1369 3016 2328 
Q 3016 3291 2770 3770 
Q 2525 4250 2034 4250 
z
M 2034 4750 
Q 2819 4750 3233 4129 
Q 3647 3509 3647 2328 
Q 3647 1150 3233 529 
Q 2819 -91 2034 -91 
Q 1250 -91 836 529 
Q 422 1150 422 2328 
Q 422 3509 836 4129 
Q 1250 4750 2034 4750 
z
" transform="scale(0.015625)"/>
        <path id="DejaVuSans-34" d="M 2419 4116 
L 825 1625 
L 2419 1625 
L 2419 4116 
z
M 2253 4666 
L 3047 4666 
L 3047 1625 
L 3713 1625 
L 3713 1100 
L 3047 1100 
L 3047 0 
L 2419 0 
L 2419 1100 
L 313 1100 
L 313 1709 
L 2253 4666 
z
" transform="scale(0.015625)"/>
        <path id="DejaVuSans-2d" d="M 313 2009 
L 1997 2009 
L 1997 1497 
L 313 1497 
L 313 2009 
z
" transform="scale(0.015625)"/>
        <path id="DejaVuSans-36" d="M 2113 2584 
Q 1688 2584 1439 2293 
Q 1191 2003 1191 1497 
Q 1191 994 1439 701 
Q 1688 409 2113 409 
Q 2538 409 2786 701 
Q 3034 994 3034 1497 
Q 3034 2003 2786 2293 
Q 2538 2584 2113 2584 
z
M 3366 4563 
L 3366 3988 
Q 3128 4100 2886 4159 
Q 2644 4219 2406 4219 
Q 1781 4219 1451 3797 
Q 1122 3375 1075 2522 
Q 1259 2794 1537 2939 
Q 1816 3084 2150 3084 
Q 2853 3084 3261 2657 
Q 3669 2231 3669 1497 
Q 3669 778 3244 343 
Q 2819 -91 2113 -91 
Q 1303 -91 875 529 
Q 447 1150 447 2328 
Q 447 3434 972 4092 
Q 1497 4750 2381 4750 
Q 2619 4750 2861 4703 
Q 3103 4656 3366 4563 
z
" transform="scale(0.015625)"/>
        <path id="DejaVuSans-31" d="M 794 531 
L 1825 531 
L 1825 4091 
L 703 3866 
L 703 4441 
L 1819 4666 
L 2450 4666 
L 2450 531 
L 3481 531 
L 3481 0 
L 794 0 
L 794 531 
z
" transform="scale(0.015625)"/>
        <path id="DejaVuSans-35" d="M 691 4666 
L 3169 4666 
L 3169 4134 
L 1269 4134 
L 1269 2991 
Q 1406 3038 1543 3061 
Q 1681 3084 1819 3084 
Q 2600 3084 3056 2656 
Q 3513 2228 3513 1497 
Q 3513 744 3044 326 
Q 2575 -91 1722 -91 
Q 1428 -91 1123 -41 
Q 819 9 494 109 
L 494 744 
Q 775 591 1075 516 
Q 1375 441 1709 441 
Q 2250 441 2565 725 
Q 2881 1009 2881 1497 
Q 2881 1984 2565 2268 
Q 2250 2553 1709 2553 
Q 1456 2553 1204 2497 
Q 953 2441 691 2322 
L 691 4666 
z
" transform="scale(0.015625)"/>
       </defs>
       <use xlink:href="#DejaVuSans-32"/>
       <use xlink:href="#DejaVuSans-30" x="63.623047"/>
       <use xlink:href="#DejaVuSans-32" x="127.246094"/>
       <use xlink:href="#DejaVuSans-34" x="190.869141"/>
       <use xlink:href="#DejaVuSans-2d" x="254.492188"/>
       <use xlink:href="#DejaVuSans-30" x="290.576172"/>
       <use xlink:href="#DejaVuSans-36" x="354.199219"/>
       <use xlink:href="#DejaVuSans-2d" x="417.822266"/>
       <use xlink:href="#DejaVuSans-31" x="453.90625"/>
       <use xlink:href="#DejaVuSans-35" x="517.529297"/>
      </g>
     </g>
    </g>
    <g id="xtick_2">
     <g id="line2d_3">
      <path d="M 209.135802 404.12 
L 209.135802 26.88 
" clip-path="url(#pb654ddfb7c)" style="fill: none; stroke-dasharray: 2.96,1.28; stroke-dashoffset: 0; stroke: #b0b0b0; stroke-width: 0.8"/>
     </g>
     <g id="line2d_4">
      <g>
       <use xlink:href="#mefc68760b2" x="209.135802" y="404.12" style="stroke: #000000; stroke-width: 0.8"/>
      </g>
     </g>
     <g id="text_2">
      <!-- 2024-06-22 -->
      <g transform="translate(180.07799 418.718437) scale(0.1 -0.1)">
       <use xlink:href="#DejaVuSans-32"/>
       <use xlink:href="#DejaVuSans-30" x="63.623047"/>
       <use xlink:href="#DejaVuSans-32" x="127.246094"/>
       <use xlink:href="#DejaVuSans-34" x="190.869141"/>
       <use xlink:href="#DejaVuSans-2d" x="254.492188"/>
       <use xlink:href="#DejaVuSans-30" x="290.576172"/>
       <use xlink:href="#DejaVuSans-36" x="354.199219"/>
       <use xlink:href="#DejaVuSans-2d" x="417.822266"/>
       <use xlink:href="#DejaVuSans-32" x="453.90625"/>
       <use xlink:href="#DejaVuSans-32" x="517.529297"/>
      </g>
     </g>
    </g>
    <g id="xtick_3">
     <g id="line2d_5">
      <path d="M 347.426309 404.12 
L 347.426309 26.88 
" clip-path="url(#pb654ddfb7c)" style="fill: none; stroke-dasharray: 2.96,1.28; stroke-dashoffset: 0; stroke: #b0b0b0; stroke-width: 0.8"/>
     </g>
     <g id="line2d_6">
      <g>
       <use xlink:href="#mefc68760b2" x="347.426309" y="404.12" style="stroke: #000000; stroke-width: 0.8"/>
      </g>
     </g>
     <g id="text_3">
      <!-- 2024-07-01 -->
      <g transform="translate(318.368497 418.718437) scale(0.1 -0.1)">
       <defs>
        <path id="DejaVuSans-37" d="M 525 4666 
L 3525 4666 
L 3525 4397 
L 1831 0 
L 1172 0 
L 2766 4134 
L 525 4134 
L 525 4666 
z
" transform="scale(0.015625)"/>
       </defs>
       <use xlink:href="#DejaVuSans-32"/>
       <use xlink:href="#DejaVuSans-30" x="63.623047"/>
       <use xlink:href="#DejaVuSans-32" x="127.246094"/>
       <use xlink:href="#DejaVuSans-34" x="190.869141"/>
       <use xlink:href="#DejaVuSans-2d" x="254.492188"/>
       <use xlink:href="#DejaVuSans-30" x="290.576172"/>
       <use xlink:href="#DejaVuSans-37" x="354.199219"/>
       <use xlink:href="#DejaVuSans-2d" x="417.822266"/>
       <use xlink:href="#DejaVuSans-30" x="453.90625"/>
       <use xlink:href="#DejaVuSans-31" x="517.529297"/>
      </g>
     </g>
    </g>
    <g id="xtick_4">
     <g id="line2d_7">
      <path d="M 454.985592 404.12 
L 454.985592 26.88 
" clip-path="url(#pb654ddfb7c)" style="fill: none; stroke-dasharray: 2.96,1.28; stroke-dashoffset: 0; stroke: #b0b0b0; stroke-width: 0.8"/>
     </g>
     <g id="line2d_8">
      <g>
       <use xlink:href="#mefc68760b2" x="454.985592" y="404.12" style="stroke: #000000; stroke-width: 0.8"/>
      </g>
     </g>
     <g id="text_4">
      <!-- 2024-07-08 -->
      <g transform="translate(425.92778 418.718437) scale(0.1 -0.1)">
       <defs>
        <path id="DejaVuSans-38" d="M 2034 2216 
Q 1584 2216 1326 1975 
Q 1069 1734 1069 1313 
Q 1069 891 1326 650 
Q 1584 409 2034 409 
Q 2484 409 2743 651 
Q 3003 894 3003 1313 
Q 3003 1734 2745 1975 
Q 2488 2216 2034 2216 
z
M 1403 2484 
Q 997 2584 770 2862 
Q 544 3141 544 3541 
Q 544 4100 942 4425 
Q 1341 4750 2034 4750 
Q 2731 4750 3128 4425 
Q 3525 4100 3525 3541 
Q 3525 3141 3298 2862 
Q 3072 2584 2669 2484 
Q 3125 2378 3379 2068 
Q 3634 1759 3634 1313 
Q 3634 634 3220 271 
Q 2806 -91 2034 -91 
Q 1263 -91 848 271 
Q 434 634 434 1313 
Q 434 1759 690 2068 
Q 947 2378 1403 2484 
z
M 1172 3481 
Q 1172 3119 1398 2916 
Q 1625 2713 2034 2713 
Q 2441 2713 2670 2916 
Q 2900 3119 2900 3481 
Q 2900 3844 2670 4047 
Q 2441 4250 2034 4250 
Q 1625 4250 1398 4047 
Q 1172 3844 1172 3481 
z
" transform="scale(0.015625)"/>
       </defs>
       <use xlink:href="#DejaVuSans-32"/>
       <use xlink:href="#DejaVuSans-30" x="63.623047"/>
       <use xlink:href="#DejaVuSans-32" x="127.246094"/>
       <use xlink:href="#DejaVuSans-34" x="190.869141"/>
       <use xlink:href="#DejaVuSans-2d" x="254.492188"/>
       <use xlink:href="#DejaVuSans-30" x="290.576172"/>
       <use xlink:href="#DejaVuSans-37" x="354.199219"/>
       <use xlink:href="#DejaVuSans-2d" x="417.822266"/>
       <use xlink:href="#DejaVuSans-30" x="453.90625"/>
       <use xlink:href="#DejaVuSans-38" x="517.529297"/>
      </g>
     </g>
    </g>
    <g id="xtick_5">
     <g id="line2d_9">
      <path d="M 562.544875 404.12 
L 562.544875 26.88 
" clip-path="url(#pb654ddfb7c)" style="fill: none; stroke-dasharray: 2.96,1.28; stroke-dashoffset: 0; stroke: #b0b0b0; stroke-width: 0.8"/>
     </g>
     <g id="line2d_10">
      <g>
       <use xlink:href="#mefc68760b2" x="562.544875" y="404.12" style="stroke: #000000; stroke-width: 0.8"/>
      </g>
     </g>
     <g id="text_5">
      <!-- 2024-07-15 -->
      <g transform="translate(533.487063 418.718437) scale(0.1 -0.1)">
       <use xlink:href="#DejaVuSans-32"/>
       <use xlink:href="#DejaVuSans-30" x="63.623047"/>
       <use xlink:href="#DejaVuSans-32" x="127.246094"/>
       <use xlink:href="#DejaVuSans-34" x="190.869141"/>
       <use xlink:href="#DejaVuSans-2d" x="254.492188"/>
       <use xlink:href="#DejaVuSans-30" x="290.576172"/>
       <use xlink:href="#DejaVuSans-37" x="354.199219"/>
       <use xlink:href="#DejaVuSans-2d" x="417.822266"/>
       <use xlink:href="#DejaVuSans-31" x="453.90625"/>
       <use xlink:href="#DejaVuSans-35" x="517.529297"/>
      </g>
     </g>
    </g>
    <g id="xtick_6">
     <g id="line2d_11">
      <path d="M 670.104158 404.12 
L 670.104158 26.88 
" clip-path="url(#pb654ddfb7c)" style="fill: none; stroke-dasharray: 2.96,1.28; stroke-dashoffset: 0; stroke: #b0b0b0; stroke-width: 0.8"/>
     </g>
     <g id="line2d_12">
      <g>
       <use xlink:href="#mefc68760b2" x="670.104158" y="404.12" style="stroke: #000000; stroke-width: 0.8"/>
      </g>
     </g>
     <g id="text_6">
      <!-- 2024-07-22 -->
      <g transform="translate(641.046346 418.718437) scale(0.1 -0.1)">
       <use xlink:href="#DejaVuSans-32"/>
       <use xlink:href="#DejaVuSans-30" x="63.623047"/>
       <use xlink:href="#DejaVuSans-32" x="127.246094"/>
       <use xlink:href="#DejaVuSans-34" x="190.869141"/>
       <use xlink:href="#DejaVuSans-2d" x="254.492188"/>
       <use xlink:href="#DejaVuSans-30" x="290.576172"/>
       <use xlink:href="#DejaVuSans-37" x="354.199219"/>
       <use xlink:href="#DejaVuSans-2d" x="417.822266"/>
       <use xlink:href="#DejaVuSans-32" x="453.90625"/>
       <use xlink:href="#DejaVuSans-32" x="517.529297"/>
      </g>
     </g>
    </g>
    <g id="xtick_7">
     <g id="line2d_13">
      <path d="M 823.760277 404.12 
L 823.760277 26.88 
" clip-path="url(#pb654ddfb7c)" style="fill: none; stroke-dasharray: 2.96,1.28; stroke-dashoffset: 0; stroke: #b0b0b0; stroke-width: 0.8"/>
     </g>
     <g id="line2d_14">
      <g>
       <use xlink:href="#mefc68760b2" x="823.760277" y="404.12" style="stroke: #000000; stroke-width: 0.8"/>
      </g>
     </g>
     <g id="text_7">
      <!-- 2024-08-01 -->
      <g transform="translate(794.702464 418.718437) scale(0.1 -0.1)">
       <use xlink:href="#DejaVuSans-32"/>
       <use xlink:href="#DejaVuSans-30" x="63.623047"/>
       <use xlink:href="#DejaVuSans-32" x="127.246094"/>
       <use xlink:href="#DejaVuSans-34" x="190.869141"/>
       <use xlink:href="#DejaVuSans-2d" x="254.492188"/>
       <use xlink:href="#DejaVuSans-30" x="290.576172"/>
       <use xlink:href="#DejaVuSans-38" x="354.199219"/>
       <use xlink:href="#DejaVuSans-2d" x="417.822266"/>
       <use xlink:href="#DejaVuSans-30" x="453.90625"/>
       <use xlink:href="#DejaVuSans-31" x="517.529297"/>
      </g>
     </g>
    </g>
   </g>
   <g id="matplotlib.axis_2">
    <g id="ytick_1">
     <g id="line2d_15">
      <path d="M 50.87 389.544967 
L 828.36996 389.544967 
" clip-path="url(#pb654ddfb7c)" style="fill: none; stroke-dasharray: 2.96,1.28; stroke-dashoffset: 0; stroke: #b0b0b0; stroke-width: 0.8"/>
     </g>
     <g id="line2d_16">
      <defs>
       <path id="m72716eb32f" d="M 0 0 
L -3.5 0 
" style="stroke: #000000; stroke-width: 0.8"/>
      </defs>
      <g>
       <use xlink:href="#m72716eb32f" x="50.87" y="389.544967" style="stroke: #000000; stroke-width: 0.8"/>
      </g>
     </g>
     <g id="text_8">
      <!-- 0 -->
      <g transform="translate(37.5075 393.344186) scale(0.1 -0.1)">
       <use xlink:href="#DejaVuSans-30"/>
      </g>
     </g>
    </g>
    <g id="ytick_2">
     <g id="line2d_17">
      <path d="M 50.87 326.516049 
L 828.36996 326.516049 
" clip-path="url(#pb654ddfb7c)" style="fill: none; stroke-dasharray: 2.96,1.28; stroke-dashoffset: 0; stroke: #b0b0b0; stroke-width: 0.8"/>
     </g>
     <g id="line2d_18">
      <g>
       <use xlink:href="#m72716eb32f" x="50.87" y="326.516049" style="stroke: #000000; stroke-width: 0.8"/>
      </g>
     </g>
     <g id="text_9">
      <!-- 50 -->
      <g transform="translate(31.145 330.315268) scale(0.1 -0.1)">
       <use xlink:href="#DejaVuSans-35"/>
       <use xlink:href="#DejaVuSans-30" x="63.623047"/>
      </g>
     </g>
    </g>
    <g id="ytick_3">
     <g id="line2d_19">
      <path d="M 50.87 263.487131 
L 828.36996 263.487131 
" clip-path="url(#pb654ddfb7c)" style="fill: none; stroke-dasharray: 2.96,1.28; stroke-dashoffset: 0; stroke: #b0b0b0; stroke-width: 0.8"/>
     </g>
     <g id="line2d_20">
      <g>
       <use xlink:href="#m72716eb32f" x="50.87" y="263.487131" style="stroke: #000000; stroke-width: 0.8"/>
      </g>
     </g>
     <g id="text_10">
      <!-- 100 -->
      <g transform="translate(24.7825 267.28635) scale(0.1 -0.1)">
       <use xlink:href="#DejaVuSans-31"/>
       <use xlink:href="#DejaVuSans-30" x="63.623047"/>
       <use xlink:href="#DejaVuSans-30" x="127.246094"/>
      </g>
     </g>
    </g>
    <g id="ytick_4">
     <g id="line2d_21">
      <path d="M 50.87 200.458214 
L 828.36996 200.458214 
" clip-path="url(#pb654ddfb7c)" style="fill: none; stroke-dasharray: 2.96,1.28; stroke-dashoffset: 0; stroke: #b0b0b0; stroke-width: 0.8"/>
     </g>
     <g id="line2d_22">
      <g>
       <use xlink:href="#m72716eb32f" x="50.87" y="200.458214" style="stroke: #000000; stroke-width: 0.8"/>
      </g>
     </g>
     <g id="text_11">
      <!-- 150 -->
      <g transform="translate(24.7825 204.257432) scale(0.1 -0.1)">
       <use xlink:href="#DejaVuSans-31"/>
       <use xlink:href="#DejaVuSans-35" x="63.623047"/>
       <use xlink:href="#DejaVuSans-30" x="127.246094"/>
      </g>
     </g>
    </g>
    <g id="ytick_5">
     <g id="line2d_23">
      <path d="M 50.87 137.429296 
L 828.36996 137.429296 
" clip-path="url(#pb654ddfb7c)" style="fill: none; stroke-dasharray: 2.96,1.28; stroke-dashoffset: 0; stroke: #b0b0b0; stroke-width: 0.8"/>
     </g>
     <g id="line2d_24">
      <g>
       <use xlink:href="#m72716eb32f" x="50.87" y="137.429296" style="stroke: #000000; stroke-width: 0.8"/>
      </g>
     </g>
     <g id="text_12">
      <!-- 200 -->
      <g transform="translate(24.7825 141.228515) scale(0.1 -0.1)">
       <use xlink:href="#DejaVuSans-32"/>
       <use xlink:href="#DejaVuSans-30" x="63.623047"/>
       <use xlink:href="#DejaVuSans-30" x="127.246094"/>
      </g>
     </g>
    </g>
    <g id="ytick_6">
     <g id="line2d_25">
      <path d="M 50.87 74.400378 
L 828.36996 74.400378 
" clip-path="url(#pb654ddfb7c)" style="fill: none; stroke-dasharray: 2.96,1.28; stroke-dashoffset: 0; stroke: #b0b0b0; stroke-width: 0.8"/>
     </g>
     <g id="line2d_26">
      <g>
       <use xlink:href="#m72716eb32f" x="50.87" y="74.400378" style="stroke: #000000; stroke-width: 0.8"/>
      </g>
     </g>
     <g id="text_13">
      <!-- 250 -->
      <g transform="translate(24.7825 78.199597) scale(0.1 -0.1)">
       <use xlink:href="#DejaVuSans-32"/>
       <use xlink:href="#DejaVuSans-35" x="63.623047"/>
       <use xlink:href="#DejaVuSans-30" x="127.246094"/>
      </g>
     </g>
    </g>
    <g id="text_14">
     <!-- Score -->
     <g transform="translate(18.702813 229.502344) rotate(-90) scale(0.1 -0.1)">
      <defs>
       <path id="DejaVuSans-53" d="M 3425 4513 
L 3425 3897 
Q 3066 4069 2747 4153 
Q 2428 4238 2131 4238 
Q 1616 4238 1336 4038 
Q 1056 3838 1056 3469 
Q 1056 3159 1242 3001 
Q 1428 2844 1947 2747 
L 2328 2669 
Q 3034 2534 3370 2195 
Q 3706 1856 3706 1288 
Q 3706 609 3251 259 
Q 2797 -91 1919 -91 
Q 1588 -91 1214 -16 
Q 841 59 441 206 
L 441 856 
Q 825 641 1194 531 
Q 1563 422 1919 422 
Q 2459 422 2753 634 
Q 3047 847 3047 1241 
Q 3047 1584 2836 1778 
Q 2625 1972 2144 2069 
L 1759 2144 
Q 1053 2284 737 2584 
Q 422 2884 422 3419 
Q 422 4038 858 4394 
Q 1294 4750 2059 4750 
Q 2388 4750 2728 4690 
Q 3069 4631 3425 4513 
z
" transform="scale(0.015625)"/>
       <path id="DejaVuSans-63" d="M 3122 3366 
L 3122 2828 
Q 2878 2963 2633 3030 
Q 2388 3097 2138 3097 
Q 1578 3097 1268 2742 
Q 959 2388 959 1747 
Q 959 1106 1268 751 
Q 1578 397 2138 397 
Q 2388 397 2633 464 
Q 2878 531 3122 666 
L 3122 134 
Q 2881 22 2623 -34 
Q 2366 -91 2075 -91 
Q 1284 -91 818 406 
Q 353 903 353 1747 
Q 353 2603 823 3093 
Q 1294 3584 2113 3584 
Q 2378 3584 2631 3529 
Q 2884 3475 3122 3366 
z
" transform="scale(0.015625)"/>
       <path id="DejaVuSans-6f" d="M 1959 3097 
Q 1497 3097 1228 2736 
Q 959 2375 959 1747 
Q 959 1119 1226 758 
Q 1494 397 1959 397 
Q 2419 397 2687 759 
Q 2956 1122 2956 1747 
Q 2956 2369 2687 2733 
Q 2419 3097 1959 3097 
z
M 1959 3584 
Q 2709 3584 3137 3096 
Q 3566 2609 3566 1747 
Q 3566 888 3137 398 
Q 2709 -91 1959 -91 
Q 1206 -91 779 398 
Q 353 888 353 1747 
Q 353 2609 779 3096 
Q 1206 3584 1959 3584 
z
" transform="scale(0.015625)"/>
       <path id="DejaVuSans-72" d="M 2631 2963 
Q 2534 3019 2420 3045 
Q 2306 3072 2169 3072 
Q 1681 3072 1420 2755 
Q 1159 2438 1159 1844 
L 1159 0 
L 581 0 
L 581 3500 
L 1159 3500 
L 1159 2956 
Q 1341 3275 1631 3429 
Q 1922 3584 2338 3584 
Q 2397 3584 2469 3576 
Q 2541 3569 2628 3553 
L 2631 2963 
z
" transform="scale(0.015625)"/>
       <path id="DejaVuSans-65" d="M 3597 1894 
L 3597 1613 
L 953 1613 
Q 991 1019 1311 708 
Q 1631 397 2203 397 
Q 2534 397 2845 478 
Q 3156 559 3463 722 
L 3463 178 
Q 3153 47 2828 -22 
Q 2503 -91 2169 -91 
Q 1331 -91 842 396 
Q 353 884 353 1716 
Q 353 2575 817 3079 
Q 1281 3584 2069 3584 
Q 2775 3584 3186 3129 
Q 3597 2675 3597 1894 
z
M 3022 2063 
Q 3016 2534 2758 2815 
Q 2500 3097 2075 3097 
Q 1594 3097 1305 2825 
Q 1016 2553 972 2059 
L 3022 2063 
z
" transform="scale(0.015625)"/>
      </defs>
      <use xlink:href="#DejaVuSans-53"/>
      <use xlink:href="#DejaVuSans-63" x="63.476562"/>
      <use xlink:href="#DejaVuSans-6f" x="118.457031"/>
      <use xlink:href="#DejaVuSans-72" x="179.638672"/>
      <use xlink:href="#DejaVuSans-65" x="218.501953"/>
     </g>
    </g>
   </g>
   <g id="line2d_27">
    <path d="M 86.210907 383.307167 
L 101.576519 358.0956 
L 116.942131 346.750395 
L 132.307743 337.926346 
L 147.673355 325.320563 
L 163.038967 313.975357 
L 178.404578 313.975357 
L 193.77019 295.066682 
L 209.135802 261.031066 
L 224.501414 237.080078 
L 239.867026 209.347354 
L 255.232638 191.699257 
L 270.59825 161.445376 
L 316.695085 161.445376 
L 332.060697 161.445376 
L 347.426309 161.445376 
L 362.791921 161.445376 
L 378.157533 161.445376 
L 408.888757 161.445376 
L 424.254368 161.445376 
L 439.61998 161.445376 
L 454.985592 161.445376 
L 470.351204 161.445376 
L 485.716816 161.445376 
L 501.082428 161.445376 
L 516.44804 161.445376 
L 531.813651 161.445376 
L 547.179263 161.445376 
L 562.544875 123.628026 
L 577.910487 123.628026 
L 593.276099 123.628026 
L 608.641711 123.628026 
L 624.007323 123.628026 
L 639.372935 123.628026 
L 654.738546 123.628026 
L 670.104158 123.628026 
L 685.46977 123.628026 
L 700.835382 123.628026 
L 716.200994 123.628026 
L 731.566606 123.628026 
L 746.932218 123.628026 
L 762.297829 123.628026 
L 777.663441 123.628026 
L 793.029053 123.628026 
" clip-path="url(#pb654ddfb7c)" style="fill: none; stroke: #1f77b4; stroke-width: 1.5; stroke-linecap: square"/>
    <defs>
     <path id="mac55ac8452" d="M 0 3.5 
C 0.928211 3.5 1.81853 3.131218 2.474874 2.474874 
C 3.131218 1.81853 3.5 0.928211 3.5 0 
C 3.5 -0.928211 3.131218 -1.81853 2.474874 -2.474874 
C 1.81853 -3.131218 0.928211 -3.5 0 -3.5 
C -0.928211 -3.5 -1.81853 -3.131218 -2.474874 -2.474874 
C -3.131218 -1.81853 -3.5 -0.928211 -3.5 0 
C -3.5 0.928211 -3.131218 1.81853 -2.474874 2.474874 
C -1.81853 3.131218 -0.928211 3.5 0 3.5 
z
" style="stroke: #1f77b4"/>
    </defs>
    <g clip-path="url(#pb654ddfb7c)">
     <use xlink:href="#mac55ac8452" x="86.210907" y="383.307167" style="fill: #1f77b4; stroke: #1f77b4"/>
     <use xlink:href="#mac55ac8452" x="101.576519" y="358.0956" style="fill: #1f77b4; stroke: #1f77b4"/>
     <use xlink:href="#mac55ac8452" x="116.942131" y="346.750395" style="fill: #1f77b4; stroke: #1f77b4"/>
     <use xlink:href="#mac55ac8452" x="132.307743" y="337.926346" style="fill: #1f77b4; stroke: #1f77b4"/>
     <use xlink:href="#mac55ac8452" x="147.673355" y="325.320563" style="fill: #1f77b4; stroke: #1f77b4"/>
     <use xlink:href="#mac55ac8452" x="163.038967" y="313.975357" style="fill: #1f77b4; stroke: #1f77b4"/>
     <use xlink:href="#mac55ac8452" x="178.404578" y="313.975357" style="fill: #1f77b4; stroke: #1f77b4"/>
     <use xlink:href="#mac55ac8452" x="193.77019" y="295.066682" style="fill: #1f77b4; stroke: #1f77b4"/>
     <use xlink:href="#mac55ac8452" x="209.135802" y="261.031066" style="fill: #1f77b4; stroke: #1f77b4"/>
     <use xlink:href="#mac55ac8452" x="224.501414" y="237.080078" style="fill: #1f77b4; stroke: #1f77b4"/>
     <use xlink:href="#mac55ac8452" x="239.867026" y="209.347354" style="fill: #1f77b4; stroke: #1f77b4"/>
     <use xlink:href="#mac55ac8452" x="255.232638" y="191.699257" style="fill: #1f77b4; stroke: #1f77b4"/>
     <use xlink:href="#mac55ac8452" x="270.59825" y="161.445376" style="fill: #1f77b4; stroke: #1f77b4"/>
     <use xlink:href="#mac55ac8452" x="316.695085" y="161.445376" style="fill: #1f77b4; stroke: #1f77b4"/>
     <use xlink:href="#mac55ac8452" x="332.060697" y="161.445376" style="fill: #1f77b4; stroke: #1f77b4"/>
     <use xlink:href="#mac55ac8452" x="347.426309" y="161.445376" style="fill: #1f77b4; stroke: #1f77b4"/>
     <use xlink:href="#mac55ac8452" x="362.791921" y="161.445376" style="fill: #1f77b4; stroke: #1f77b4"/>
     <use xlink:href="#mac55ac8452" x="378.157533" y="161.445376" style="fill: #1f77b4; stroke: #1f77b4"/>
     <use xlink:href="#mac55ac8452" x="408.888757" y="161.445376" style="fill: #1f77b4; stroke: #1f77b4"/>
     <use xlink:href="#mac55ac8452" x="424.254368" y="161.445376" style="fill: #1f77b4; stroke: #1f77b4"/>
     <use xlink:href="#mac55ac8452" x="439.61998" y="161.445376" style="fill: #1f77b4; stroke: #1f77b4"/>
     <use xlink:href="#mac55ac8452" x="454.985592" y="161.445376" style="fill: #1f77b4; stroke: #1f77b4"/>
     <use xlink:href="#mac55ac8452" x="470.351204" y="161.445376" style="fill: #1f77b4; stroke: #1f77b4"/>
     <use xlink:href="#mac55ac8452" x="485.716816" y="161.445376" style="fill: #1f77b4; stroke: #1f77b4"/>
     <use xlink:href="#mac55ac8452" x="501.082428" y="161.445376" style="fill: #1f77b4; stroke: #1f77b4"/>
     <use xlink:href="#mac55ac8452" x="516.44804" y="161.445376" style="fill: #1f77b4; stroke: #1f77b4"/>
     <use xlink:href="#mac55ac8452" x="531.813651" y="161.445376" style="fill: #1f77b4; stroke: #1f77b4"/>
     <use xlink:href="#mac55ac8452" x="547.179263" y="161.445376" style="fill: #1f77b4; stroke: #1f77b4"/>
     <use xlink:href="#mac55ac8452" x="562.544875" y="123.628026" style="fill: #1f77b4; stroke: #1f77b4"/>
     <use xlink:href="#mac55ac8452" x="577.910487" y="123.628026" style="fill: #1f77b4; stroke: #1f77b4"/>
     <use xlink:href="#mac55ac8452" x="593.276099" y="123.628026" style="fill: #1f77b4; stroke: #1f77b4"/>
     <use xlink:href="#mac55ac8452" x="608.641711" y="123.628026" style="fill: #1f77b4; stroke: #1f77b4"/>
     <use xlink:href="#mac55ac8452" x="624.007323" y="123.628026" style="fill: #1f77b4; stroke: #1f77b4"/>
     <use xlink:href="#mac55ac8452" x="639.372935" y="123.628026" style="fill: #1f77b4; stroke: #1f77b4"/>
     <use xlink:href="#mac55ac8452" x="654.738546" y="123.628026" style="fill: #1f77b4; stroke: #1f77b4"/>
     <use xlink:href="#mac55ac8452" x="670.104158" y="123.628026" style="fill: #1f77b4; stroke: #1f77b4"/>
     <use xlink:href="#mac55ac8452" x="685.46977" y="123.628026" style="fill: #1f77b4; stroke: #1f77b4"/>
     <use xlink:href="#mac55ac8452" x="700.835382" y="123.628026" style="fill: #1f77b4; stroke: #1f77b4"/>
     <use xlink:href="#mac55ac8452" x="716.200994" y="123.628026" style="fill: #1f77b4; stroke: #1f77b4"/>
     <use xlink:href="#mac55ac8452" x="731.566606" y="123.628026" style="fill: #1f77b4; stroke: #1f77b4"/>
     <use xlink:href="#mac55ac8452" x="746.932218" y="123.628026" style="fill: #1f77b4; stroke: #1f77b4"/>
     <use xlink:href="#mac55ac8452" x="762.297829" y="123.628026" style="fill: #1f77b4; stroke: #1f77b4"/>
     <use xlink:href="#mac55ac8452" x="777.663441" y="123.628026" style="fill: #1f77b4; stroke: #1f77b4"/>
     <use xlink:href="#mac55ac8452" x="793.029053" y="123.628026" style="fill: #1f77b4; stroke: #1f77b4"/>
    </g>
   </g>
   <g id="line2d_28">
    <path d="M 86.210907 386.972727 
L 101.576519 349.155377 
L 116.942131 321.422653 
L 132.307743 306.295713 
L 147.673355 287.387037 
L 163.038967 269.73894 
L 178.404578 245.787952 
L 193.77019 240.745638 
L 209.135802 206.710023 
L 224.501414 197.885974 
L 239.867026 176.456142 
L 255.232638 162.58978 
L 270.59825 126.033008 
L 316.695085 126.033008 
L 332.060697 126.033008 
L 347.426309 126.033008 
L 362.791921 126.033008 
L 378.157533 126.033008 
L 408.888757 126.033008 
L 424.254368 126.033008 
L 439.61998 126.033008 
L 454.985592 126.033008 
L 470.351204 126.033008 
L 485.716816 126.033008 
L 501.082428 126.033008 
L 516.44804 126.033008 
L 531.813651 126.033008 
L 547.179263 126.033008 
L 562.544875 119.730116 
L 577.910487 119.730116 
L 593.276099 119.730116 
L 608.641711 119.730116 
L 624.007323 119.730116 
L 639.372935 119.730116 
L 654.738546 119.730116 
L 670.104158 119.730116 
L 685.46977 119.730116 
L 700.835382 119.730116 
L 716.200994 119.730116 
L 731.566606 119.730116 
L 746.932218 119.730116 
L 762.297829 119.730116 
L 777.663441 119.730116 
L 793.029053 119.730116 
" clip-path="url(#pb654ddfb7c)" style="fill: none; stroke: #ff7f0e; stroke-width: 1.5; stroke-linecap: square"/>
    <defs>
     <path id="m0ff0e10b64" d="M 0 3.5 
C 0.928211 3.5 1.81853 3.131218 2.474874 2.474874 
C 3.131218 1.81853 3.5 0.928211 3.5 0 
C 3.5 -0.928211 3.131218 -1.81853 2.474874 -2.474874 
C 1.81853 -3.131218 0.928211 -3.5 0 -3.5 
C -0.928211 -3.5 -1.81853 -3.131218 -2.474874 -2.474874 
C -3.131218 -1.81853 -3.5 -0.928211 -3.5 0 
C -3.5 0.928211 -3.131218 1.81853 -2.474874 2.474874 
C -1.81853 3.131218 -0.928211 3.5 0 3.5 
z
" style="stroke: #ff7f0e"/>
    </defs>
    <g clip-path="url(#pb654ddfb7c)">
     <use xlink:href="#m0ff0e10b64" x="86.210907" y="386.972727" style="fill: #ff7f0e; stroke: #ff7f0e"/>
     <use xlink:href="#m0ff0e10b64" x="101.576519" y="349.155377" style="fill: #ff7f0e; stroke: #ff7f0e"/>
     <use xlink:href="#m0ff0e10b64" x="116.942131" y="321.422653" style="fill: #ff7f0e; stroke: #ff7f0e"/>
     <use xlink:href="#m0ff0e10b64" x="132.307743" y="306.295713" style="fill: #ff7f0e; stroke: #ff7f0e"/>
     <use xlink:href="#m0ff0e10b64" x="147.673355" y="287.387037" style="fill: #ff7f0e; stroke: #ff7f0e"/>
     <use xlink:href="#m0ff0e10b64" x="163.038967" y="269.73894" style="fill: #ff7f0e; stroke: #ff7f0e"/>
     <use xlink:href="#m0ff0e10b64" x="178.404578" y="245.787952" style="fill: #ff7f0e; stroke: #ff7f0e"/>
     <use xlink:href="#m0ff0e10b64" x="193.77019" y="240.745638" style="fill: #ff7f0e; stroke: #ff7f0e"/>
     <use xlink:href="#m0ff0e10b64" x="209.135802" y="206.710023" style="fill: #ff7f0e; stroke: #ff7f0e"/>
     <use xlink:href="#m0ff0e10b64" x="224.501414" y="197.885974" style="fill: #ff7f0e; stroke: #ff7f0e"/>
     <use xlink:href="#m0ff0e10b64" x="239.867026" y="176.456142" style="fill: #ff7f0e; stroke: #ff7f0e"/>
     <use xlink:href="#m0ff0e10b64" x="255.232638" y="162.58978" style="fill: #ff7f0e; stroke: #ff7f0e"/>
     <use xlink:href="#m0ff0e10b64" x="270.59825" y="126.033008" style="fill: #ff7f0e; stroke: #ff7f0e"/>
     <use xlink:href="#m0ff0e10b64" x="316.695085" y="126.033008" style="fill: #ff7f0e; stroke: #ff7f0e"/>
     <use xlink:href="#m0ff0e10b64" x="332.060697" y="126.033008" style="fill: #ff7f0e; stroke: #ff7f0e"/>
     <use xlink:href="#m0ff0e10b64" x="347.426309" y="126.033008" style="fill: #ff7f0e; stroke: #ff7f0e"/>
     <use xlink:href="#m0ff0e10b64" x="362.791921" y="126.033008" style="fill: #ff7f0e; stroke: #ff7f0e"/>
     <use xlink:href="#m0ff0e10b64" x="378.157533" y="126.033008" style="fill: #ff7f0e; stroke: #ff7f0e"/>
     <use xlink:href="#m0ff0e10b64" x="408.888757" y="126.033008" style="fill: #ff7f0e; stroke: #ff7f0e"/>
     <use xlink:href="#m0ff0e10b64" x="424.254368" y="126.033008" style="fill: #ff7f0e; stroke: #ff7f0e"/>
     <use xlink:href="#m0ff0e10b64" x="439.61998" y="126.033008" style="fill: #ff7f0e; stroke: #ff7f0e"/>
     <use xlink:href="#m0ff0e10b64" x="454.985592" y="126.033008" style="fill: #ff7f0e; stroke: #ff7f0e"/>
     <use xlink:href="#m0ff0e10b64" x="470.351204" y="126.033008" style="fill: #ff7f0e; stroke: #ff7f0e"/>
     <use xlink:href="#m0ff0e10b64" x="485.716816" y="126.033008" style="fill: #ff7f0e; stroke: #ff7f0e"/>
     <use xlink:href="#m0ff0e10b64" x="501.082428" y="126.033008" style="fill: #ff7f0e; stroke: #ff7f0e"/>
     <use xlink:href="#m0ff0e10b64" x="516.44804" y="126.033008" style="fill: #ff7f0e; stroke: #ff7f0e"/>
     <use xlink:href="#m0ff0e10b64" x="531.813651" y="126.033008" style="fill: #ff7f0e; stroke: #ff7f0e"/>
     <use xlink:href="#m0ff0e10b64" x="547.179263" y="126.033008" style="fill: #ff7f0e; stroke: #ff7f0e"/>
     <use xlink:href="#m0ff0e10b64" x="562.544875" y="119.730116" style="fill: #ff7f0e; stroke: #ff7f0e"/>
     <use xlink:href="#m0ff0e10b64" x="577.910487" y="119.730116" style="fill: #ff7f0e; stroke: #ff7f0e"/>
     <use xlink:href="#m0ff0e10b64" x="593.276099" y="119.730116" style="fill: #ff7f0e; stroke: #ff7f0e"/>
     <use xlink:href="#m0ff0e10b64" x="608.641711" y="119.730116" style="fill: #ff7f0e; stroke: #ff7f0e"/>
     <use xlink:href="#m0ff0e10b64" x="624.007323" y="119.730116" style="fill: #ff7f0e; stroke: #ff7f0e"/>
     <use xlink:href="#m0ff0e10b64" x="639.372935" y="119.730116" style="fill: #ff7f0e; stroke: #ff7f0e"/>
     <use xlink:href="#m0ff0e10b64" x="654.738546" y="119.730116" style="fill: #ff7f0e; stroke: #ff7f0e"/>
     <use xlink:href="#m0ff0e10b64" x="670.104158" y="119.730116" style="fill: #ff7f0e; stroke: #ff7f0e"/>
     <use xlink:href="#m0ff0e10b64" x="685.46977" y="119.730116" style="fill: #ff7f0e; stroke: #ff7f0e"/>
     <use xlink:href="#m0ff0e10b64" x="700.835382" y="119.730116" style="fill: #ff7f0e; stroke: #ff7f0e"/>
     <use xlink:href="#m0ff0e10b64" x="716.200994" y="119.730116" style="fill: #ff7f0e; stroke: #ff7f0e"/>
     <use xlink:href="#m0ff0e10b64" x="731.566606" y="119.730116" style="fill: #ff7f0e; stroke: #ff7f0e"/>
     <use xlink:href="#m0ff0e10b64" x="746.932218" y="119.730116" style="fill: #ff7f0e; stroke: #ff7f0e"/>
     <use xlink:href="#m0ff0e10b64" x="762.297829" y="119.730116" style="fill: #ff7f0e; stroke: #ff7f0e"/>
     <use xlink:href="#m0ff0e10b64" x="777.663441" y="119.730116" style="fill: #ff7f0e; stroke: #ff7f0e"/>
     <use xlink:href="#m0ff0e10b64" x="793.029053" y="119.730116" style="fill: #ff7f0e; stroke: #ff7f0e"/>
    </g>
   </g>
   <g id="line2d_29">
    <path d="M 86.210907 376.828462 
L 101.576519 351.616895 
L 116.942131 332.708219 
L 132.307743 320.102436 
L 147.673355 288.587977 
L 163.038967 270.93988 
L 178.404578 259.594675 
L 193.77019 225.559059 
L 209.135802 194.0446 
L 224.501414 166.311876 
L 239.867026 144.882044 
L 255.232638 137.318574 
L 270.59825 80.592548 
L 316.695085 80.592548 
L 332.060697 80.592548 
L 347.426309 80.592548 
L 362.791921 80.592548 
L 378.157533 80.592548 
L 408.888757 80.592548 
L 424.254368 80.592548 
L 439.61998 80.592548 
L 454.985592 80.592548 
L 470.351204 80.592548 
L 485.716816 80.592548 
L 501.082428 80.592548 
L 516.44804 80.592548 
L 531.813651 80.592548 
L 547.179263 80.592548 
L 562.544875 80.592548 
L 577.910487 80.592548 
L 593.276099 80.592548 
L 608.641711 80.592548 
L 624.007323 80.592548 
L 639.372935 80.592548 
L 654.738546 80.592548 
L 670.104158 80.592548 
L 685.46977 80.592548 
L 700.835382 80.592548 
L 716.200994 80.592548 
L 731.566606 80.592548 
L 746.932218 80.592548 
L 762.297829 80.592548 
L 777.663441 80.592548 
L 793.029053 80.592548 
" clip-path="url(#pb654ddfb7c)" style="fill: none; stroke: #2ca02c; stroke-width: 1.5; stroke-linecap: square"/>
    <defs>
     <path id="m239d4c5e95" d="M 0 3.5 
C 0.928211 3.5 1.81853 3.131218 2.474874 2.474874 
C 3.131218 1.81853 3.5 0.928211 3.5 0 
C 3.5 -0.928211 3.131218 -1.81853 2.474874 -2.474874 
C 1.81853 -3.131218 0.928211 -3.5 0 -3.5 
C -0.928211 -3.5 -1.81853 -3.131218 -2.474874 -2.474874 
C -3.131218 -1.81853 -3.5 -0.928211 -3.5 0 
C -3.5 0.928211 -3.131218 1.81853 -2.474874 2.474874 
C -1.81853 3.131218 -0.928211 3.5 0 3.5 
z
" style="stroke: #2ca02c"/>
    </defs>
    <g clip-path="url(#pb654ddfb7c)">
     <use xlink:href="#m239d4c5e95" x="86.210907" y="376.828462" style="fill: #2ca02c; stroke: #2ca02c"/>
     <use xlink:href="#m239d4c5e95" x="101.576519" y="351.616895" style="fill: #2ca02c; stroke: #2ca02c"/>
     <use xlink:href="#m239d4c5e95" x="116.942131" y="332.708219" style="fill: #2ca02c; stroke: #2ca02c"/>
     <use xlink:href="#m239d4c5e95" x="132.307743" y="320.102436" style="fill: #2ca02c; stroke: #2ca02c"/>
     <use xlink:href="#m239d4c5e95" x="147.673355" y="288.587977" style="fill: #2ca02c; stroke: #2ca02c"/>
     <use xlink:href="#m239d4c5e95" x="163.038967" y="270.93988" style="fill: #2ca02c; stroke: #2ca02c"/>
     <use xlink:href="#m239d4c5e95" x="178.404578" y="259.594675" style="fill: #2ca02c; stroke: #2ca02c"/>
     <use xlink:href="#m239d4c5e95" x="193.77019" y="225.559059" style="fill: #2ca02c; stroke: #2ca02c"/>
     <use xlink:href="#m239d4c5e95" x="209.135802" y="194.0446" style="fill: #2ca02c; stroke: #2ca02c"/>
     <use xlink:href="#m239d4c5e95" x="224.501414" y="166.311876" style="fill: #2ca02c; stroke: #2ca02c"/>
     <use xlink:href="#m239d4c5e95" x="239.867026" y="144.882044" style="fill: #2ca02c; stroke: #2ca02c"/>
     <use xlink:href="#m239d4c5e95" x="255.232638" y="137.318574" style="fill: #2ca02c; stroke: #2ca02c"/>
     <use xlink:href="#m239d4c5e95" x="270.59825" y="80.592548" style="fill: #2ca02c; stroke: #2ca02c"/>
     <use xlink:href="#m239d4c5e95" x="316.695085" y="80.592548" style="fill: #2ca02c; stroke: #2ca02c"/>
     <use xlink:href="#m239d4c5e95" x="332.060697" y="80.592548" style="fill: #2ca02c; stroke: #2ca02c"/>
     <use xlink:href="#m239d4c5e95" x="347.426309" y="80.592548" style="fill: #2ca02c; stroke: #2ca02c"/>
     <use xlink:href="#m239d4c5e95" x="362.791921" y="80.592548" style="fill: #2ca02c; stroke: #2ca02c"/>
     <use xlink:href="#m239d4c5e95" x="378.157533" y="80.592548" style="fill: #2ca02c; stroke: #2ca02c"/>
     <use xlink:href="#m239d4c5e95" x="408.888757" y="80.592548" style="fill: #2ca02c; stroke: #2ca02c"/>
     <use xlink:href="#m239d4c5e95" x="424.254368" y="80.592548" style="fill: #2ca02c; stroke: #2ca02c"/>
     <use xlink:href="#m239d4c5e95" x="439.61998" y="80.592548" style="fill: #2ca02c; stroke: #2ca02c"/>
     <use xlink:href="#m239d4c5e95" x="454.985592" y="80.592548" style="fill: #2ca02c; stroke: #2ca02c"/>
     <use xlink:href="#m239d4c5e95" x="470.351204" y="80.592548" style="fill: #2ca02c; stroke: #2ca02c"/>
     <use xlink:href="#m239d4c5e95" x="485.716816" y="80.592548" style="fill: #2ca02c; stroke: #2ca02c"/>
     <use xlink:href="#m239d4c5e95" x="501.082428" y="80.592548" style="fill: #2ca02c; stroke: #2ca02c"/>
     <use xlink:href="#m239d4c5e95" x="516.44804" y="80.592548" style="fill: #2ca02c; stroke: #2ca02c"/>
     <use xlink:href="#m239d4c5e95" x="531.813651" y="80.592548" style="fill: #2ca02c; stroke: #2ca02c"/>
     <use xlink:href="#m239d4c5e95" x="547.179263" y="80.592548" style="fill: #2ca02c; stroke: #2ca02c"/>
     <use xlink:href="#m239d4c5e95" x="562.544875" y="80.592548" style="fill: #2ca02c; stroke: #2ca02c"/>
     <use xlink:href="#m239d4c5e95" x="577.910487" y="80.592548" style="fill: #2ca02c; stroke: #2ca02c"/>
     <use xlink:href="#m239d4c5e95" x="593.276099" y="80.592548" style="fill: #2ca02c; stroke: #2ca02c"/>
     <use xlink:href="#m239d4c5e95" x="608.641711" y="80.592548" style="fill: #2ca02c; stroke: #2ca02c"/>
     <use xlink:href="#m239d4c5e95" x="624.007323" y="80.592548" style="fill: #2ca02c; stroke: #2ca02c"/>
     <use xlink:href="#m239d4c5e95" x="639.372935" y="80.592548" style="fill: #2ca02c; stroke: #2ca02c"/>
     <use xlink:href="#m239d4c5e95" x="654.738546" y="80.592548" style="fill: #2ca02c; stroke: #2ca02c"/>
     <use xlink:href="#m239d4c5e95" x="670.104158" y="80.592548" style="fill: #2ca02c; stroke: #2ca02c"/>
     <use xlink:href="#m239d4c5e95" x="685.46977" y="80.592548" style="fill: #2ca02c; stroke: #2ca02c"/>
     <use xlink:href="#m239d4c5e95" x="700.835382" y="80.592548" style="fill: #2ca02c; stroke: #2ca02c"/>
     <use xlink:href="#m239d4c5e95" x="716.200994" y="80.592548" style="fill: #2ca02c; stroke: #2ca02c"/>
     <use xlink:href="#m239d4c5e95" x="731.566606" y="80.592548" style="fill: #2ca02c; stroke: #2ca02c"/>
     <use xlink:href="#m239d4c5e95" x="746.932218" y="80.592548" style="fill: #2ca02c; stroke: #2ca02c"/>
     <use xlink:href="#m239d4c5e95" x="762.297829" y="80.592548" style="fill: #2ca02c; stroke: #2ca02c"/>
     <use xlink:href="#m239d4c5e95" x="777.663441" y="80.592548" style="fill: #2ca02c; stroke: #2ca02c"/>
     <use xlink:href="#m239d4c5e95" x="793.029053" y="80.592548" style="fill: #2ca02c; stroke: #2ca02c"/>
    </g>
   </g>
   <g id="line2d_30">
    <path d="M 86.210907 376.819958 
L 101.576519 355.390126 
L 116.942131 317.572776 
L 132.307743 308.748727 
L 147.673355 289.840052 
L 163.038967 270.931377 
L 178.404578 243.198653 
L 193.77019 231.853448 
L 209.135802 200.338989 
L 224.501414 188.993783 
L 239.867026 154.958168 
L 255.232638 134.788914 
L 270.59825 75.541732 
L 316.695085 75.541732 
L 332.060697 75.541732 
L 347.426309 75.541732 
L 362.791921 75.541732 
L 378.157533 75.541732 
L 408.888757 75.541732 
L 424.254368 75.541732 
L 439.61998 75.541732 
L 454.985592 75.541732 
L 470.351204 75.541732 
L 485.716816 56.633056 
L 501.082428 56.633056 
L 516.44804 56.633056 
L 531.813651 56.633056 
L 547.179263 56.633056 
L 562.544875 44.027273 
L 577.910487 44.027273 
L 593.276099 44.027273 
L 608.641711 44.027273 
L 624.007323 44.027273 
L 639.372935 44.027273 
L 654.738546 44.027273 
L 670.104158 44.027273 
L 685.46977 44.027273 
L 700.835382 44.027273 
L 716.200994 44.027273 
L 731.566606 44.027273 
L 746.932218 44.027273 
L 762.297829 44.027273 
L 777.663441 44.027273 
L 793.029053 44.027273 
" clip-path="url(#pb654ddfb7c)" style="fill: none; stroke: #d62728; stroke-width: 1.5; stroke-linecap: square"/>
    <defs>
     <path id="m784e7356ae" d="M 0 3.5 
C 0.928211 3.5 1.81853 3.131218 2.474874 2.474874 
C 3.131218 1.81853 3.5 0.928211 3.5 0 
C 3.5 -0.928211 3.131218 -1.81853 2.474874 -2.474874 
C 1.81853 -3.131218 0.928211 -3.5 0 -3.5 
C -0.928211 -3.5 -1.81853 -3.131218 -2.474874 -2.474874 
C -3.131218 -1.81853 -3.5 -0.928211 -3.5 0 
C -3.5 0.928211 -3.131218 1.81853 -2.474874 2.474874 
C -1.81853 3.131218 -0.928211 3.5 0 3.5 
z
" style="stroke: #d62728"/>
    </defs>
    <g clip-path="url(#pb654ddfb7c)">
     <use xlink:href="#m784e7356ae" x="86.210907" y="376.819958" style="fill: #d62728; stroke: #d62728"/>
     <use xlink:href="#m784e7356ae" x="101.576519" y="355.390126" style="fill: #d62728; stroke: #d62728"/>
     <use xlink:href="#m784e7356ae" x="116.942131" y="317.572776" style="fill: #d62728; stroke: #d62728"/>
     <use xlink:href="#m784e7356ae" x="132.307743" y="308.748727" style="fill: #d62728; stroke: #d62728"/>
     <use xlink:href="#m784e7356ae" x="147.673355" y="289.840052" style="fill: #d62728; stroke: #d62728"/>
     <use xlink:href="#m784e7356ae" x="163.038967" y="270.931377" style="fill: #d62728; stroke: #d62728"/>
     <use xlink:href="#m784e7356ae" x="178.404578" y="243.198653" style="fill: #d62728; stroke: #d62728"/>
     <use xlink:href="#m784e7356ae" x="193.77019" y="231.853448" style="fill: #d62728; stroke: #d62728"/>
     <use xlink:href="#m784e7356ae" x="209.135802" y="200.338989" style="fill: #d62728; stroke: #d62728"/>
     <use xlink:href="#m784e7356ae" x="224.501414" y="188.993783" style="fill: #d62728; stroke: #d62728"/>
     <use xlink:href="#m784e7356ae" x="239.867026" y="154.958168" style="fill: #d62728; stroke: #d62728"/>
     <use xlink:href="#m784e7356ae" x="255.232638" y="134.788914" style="fill: #d62728; stroke: #d62728"/>
     <use xlink:href="#m784e7356ae" x="270.59825" y="75.541732" style="fill: #d62728; stroke: #d62728"/>
     <use xlink:href="#m784e7356ae" x="316.695085" y="75.541732" style="fill: #d62728; stroke: #d62728"/>
     <use xlink:href="#m784e7356ae" x="332.060697" y="75.541732" style="fill: #d62728; stroke: #d62728"/>
     <use xlink:href="#m784e7356ae" x="347.426309" y="75.541732" style="fill: #d62728; stroke: #d62728"/>
     <use xlink:href="#m784e7356ae" x="362.791921" y="75.541732" style="fill: #d62728; stroke: #d62728"/>
     <use xlink:href="#m784e7356ae" x="378.157533" y="75.541732" style="fill: #d62728; stroke: #d62728"/>
     <use xlink:href="#m784e7356ae" x="408.888757" y="75.541732" style="fill: #d62728; stroke: #d62728"/>
     <use xlink:href="#m784e7356ae" x="424.254368" y="75.541732" style="fill: #d62728; stroke: #d62728"/>
     <use xlink:href="#m784e7356ae" x="439.61998" y="75.541732" style="fill: #d62728; stroke: #d62728"/>
     <use xlink:href="#m784e7356ae" x="454.985592" y="75.541732" style="fill: #d62728; stroke: #d62728"/>
     <use xlink:href="#m784e7356ae" x="470.351204" y="75.541732" style="fill: #d62728; stroke: #d62728"/>
     <use xlink:href="#m784e7356ae" x="485.716816" y="56.633056" style="fill: #d62728; stroke: #d62728"/>
     <use xlink:href="#m784e7356ae" x="501.082428" y="56.633056" style="fill: #d62728; stroke: #d62728"/>
     <use xlink:href="#m784e7356ae" x="516.44804" y="56.633056" style="fill: #d62728; stroke: #d62728"/>
     <use xlink:href="#m784e7356ae" x="531.813651" y="56.633056" style="fill: #d62728; stroke: #d62728"/>
     <use xlink:href="#m784e7356ae" x="547.179263" y="56.633056" style="fill: #d62728; stroke: #d62728"/>
     <use xlink:href="#m784e7356ae" x="562.544875" y="44.027273" style="fill: #d62728; stroke: #d62728"/>
     <use xlink:href="#m784e7356ae" x="577.910487" y="44.027273" style="fill: #d62728; stroke: #d62728"/>
     <use xlink:href="#m784e7356ae" x="593.276099" y="44.027273" style="fill: #d62728; stroke: #d62728"/>
     <use xlink:href="#m784e7356ae" x="608.641711" y="44.027273" style="fill: #d62728; stroke: #d62728"/>
     <use xlink:href="#m784e7356ae" x="624.007323" y="44.027273" style="fill: #d62728; stroke: #d62728"/>
     <use xlink:href="#m784e7356ae" x="639.372935" y="44.027273" style="fill: #d62728; stroke: #d62728"/>
     <use xlink:href="#m784e7356ae" x="654.738546" y="44.027273" style="fill: #d62728; stroke: #d62728"/>
     <use xlink:href="#m784e7356ae" x="670.104158" y="44.027273" style="fill: #d62728; stroke: #d62728"/>
     <use xlink:href="#m784e7356ae" x="685.46977" y="44.027273" style="fill: #d62728; stroke: #d62728"/>
     <use xlink:href="#m784e7356ae" x="700.835382" y="44.027273" style="fill: #d62728; stroke: #d62728"/>
     <use xlink:href="#m784e7356ae" x="716.200994" y="44.027273" style="fill: #d62728; stroke: #d62728"/>
     <use xlink:href="#m784e7356ae" x="731.566606" y="44.027273" style="fill: #d62728; stroke: #d62728"/>
     <use xlink:href="#m784e7356ae" x="746.932218" y="44.027273" style="fill: #d62728; stroke: #d62728"/>
     <use xlink:href="#m784e7356ae" x="762.297829" y="44.027273" style="fill: #d62728; stroke: #d62728"/>
     <use xlink:href="#m784e7356ae" x="777.663441" y="44.027273" style="fill: #d62728; stroke: #d62728"/>
     <use xlink:href="#m784e7356ae" x="793.029053" y="44.027273" style="fill: #d62728; stroke: #d62728"/>
    </g>
   </g>
   <g id="line2d_31">
    <path d="M 86.210907 383.362407 
L 101.576519 349.326792 
L 116.942131 321.594068 
L 132.307743 306.467127 
L 147.673355 291.340187 
L 163.038967 276.213247 
L 178.404578 273.69209 
L 193.77019 252.262258 
L 209.135802 220.747799 
L 224.501414 196.796811 
L 239.867026 158.97946 
L 255.232638 143.85252 
L 270.59825 116.119796 
L 316.695085 116.119796 
L 332.060697 116.119796 
L 347.426309 116.119796 
L 362.791921 116.119796 
L 378.157533 116.119796 
L 408.888757 116.119796 
L 424.254368 116.119796 
L 439.61998 116.119796 
L 454.985592 116.119796 
L 470.351204 116.119796 
L 485.716816 97.211121 
L 501.082428 97.211121 
L 516.44804 97.211121 
L 531.813651 97.211121 
L 547.179263 97.211121 
L 562.544875 71.999554 
L 577.910487 71.999554 
L 593.276099 71.999554 
L 608.641711 71.999554 
L 624.007323 71.999554 
L 639.372935 71.999554 
L 654.738546 71.999554 
L 670.104158 71.999554 
L 685.46977 71.999554 
L 700.835382 71.999554 
L 716.200994 71.999554 
L 731.566606 71.999554 
L 746.932218 71.999554 
L 762.297829 71.999554 
L 777.663441 71.999554 
L 793.029053 71.999554 
" clip-path="url(#pb654ddfb7c)" style="fill: none; stroke: #9467bd; stroke-width: 1.5; stroke-linecap: square"/>
    <defs>
     <path id="m856e7de157" d="M 0 3.5 
C 0.928211 3.5 1.81853 3.131218 2.474874 2.474874 
C 3.131218 1.81853 3.5 0.928211 3.5 0 
C 3.5 -0.928211 3.131218 -1.81853 2.474874 -2.474874 
C 1.81853 -3.131218 0.928211 -3.5 0 -3.5 
C -0.928211 -3.5 -1.81853 -3.131218 -2.474874 -2.474874 
C -3.131218 -1.81853 -3.5 -0.928211 -3.5 0 
C -3.5 0.928211 -3.131218 1.81853 -2.474874 2.474874 
C -1.81853 3.131218 -0.928211 3.5 0 3.5 
z
" style="stroke: #9467bd"/>
    </defs>
    <g clip-path="url(#pb654ddfb7c)">
     <use xlink:href="#m856e7de157" x="86.210907" y="383.362407" style="fill: #9467bd; stroke: #9467bd"/>
     <use xlink:href="#m856e7de157" x="101.576519" y="349.326792" style="fill: #9467bd; stroke: #9467bd"/>
     <use xlink:href="#m856e7de157" x="116.942131" y="321.594068" style="fill: #9467bd; stroke: #9467bd"/>
     <use xlink:href="#m856e7de157" x="132.307743" y="306.467127" style="fill: #9467bd; stroke: #9467bd"/>
     <use xlink:href="#m856e7de157" x="147.673355" y="291.340187" style="fill: #9467bd; stroke: #9467bd"/>
     <use xlink:href="#m856e7de157" x="163.038967" y="276.213247" style="fill: #9467bd; stroke: #9467bd"/>
     <use xlink:href="#m856e7de157" x="178.404578" y="273.69209" style="fill: #9467bd; stroke: #9467bd"/>
     <use xlink:href="#m856e7de157" x="193.77019" y="252.262258" style="fill: #9467bd; stroke: #9467bd"/>
     <use xlink:href="#m856e7de157" x="209.135802" y="220.747799" style="fill: #9467bd; stroke: #9467bd"/>
     <use xlink:href="#m856e7de157" x="224.501414" y="196.796811" style="fill: #9467bd; stroke: #9467bd"/>
     <use xlink:href="#m856e7de157" x="239.867026" y="158.97946" style="fill: #9467bd; stroke: #9467bd"/>
     <use xlink:href="#m856e7de157" x="255.232638" y="143.85252" style="fill: #9467bd; stroke: #9467bd"/>
     <use xlink:href="#m856e7de157" x="270.59825" y="116.119796" style="fill: #9467bd; stroke: #9467bd"/>
     <use xlink:href="#m856e7de157" x="316.695085" y="116.119796" style="fill: #9467bd; stroke: #9467bd"/>
     <use xlink:href="#m856e7de157" x="332.060697" y="116.119796" style="fill: #9467bd; stroke: #9467bd"/>
     <use xlink:href="#m856e7de157" x="347.426309" y="116.119796" style="fill: #9467bd; stroke: #9467bd"/>
     <use xlink:href="#m856e7de157" x="362.791921" y="116.119796" style="fill: #9467bd; stroke: #9467bd"/>
     <use xlink:href="#m856e7de157" x="378.157533" y="116.119796" style="fill: #9467bd; stroke: #9467bd"/>
     <use xlink:href="#m856e7de157" x="408.888757" y="116.119796" style="fill: #9467bd; stroke: #9467bd"/>
     <use xlink:href="#m856e7de157" x="424.254368" y="116.119796" style="fill: #9467bd; stroke: #9467bd"/>
     <use xlink:href="#m856e7de157" x="439.61998" y="116.119796" style="fill: #9467bd; stroke: #9467bd"/>
     <use xlink:href="#m856e7de157" x="454.985592" y="116.119796" style="fill: #9467bd; stroke: #9467bd"/>
     <use xlink:href="#m856e7de157" x="470.351204" y="116.119796" style="fill: #9467bd; stroke: #9467bd"/>
     <use xlink:href="#m856e7de157" x="485.716816" y="97.211121" style="fill: #9467bd; stroke: #9467bd"/>
     <use xlink:href="#m856e7de157" x="501.082428" y="97.211121" style="fill: #9467bd; stroke: #9467bd"/>
     <use xlink:href="#m856e7de157" x="516.44804" y="97.211121" style="fill: #9467bd; stroke: #9467bd"/>
     <use xlink:href="#m856e7de157" x="531.813651" y="97.211121" style="fill: #9467bd; stroke: #9467bd"/>
     <use xlink:href="#m856e7de157" x="547.179263" y="97.211121" style="fill: #9467bd; stroke: #9467bd"/>
     <use xlink:href="#m856e7de157" x="562.544875" y="71.999554" style="fill: #9467bd; stroke: #9467bd"/>
     <use xlink:href="#m856e7de157" x="577.910487" y="71.999554" style="fill: #9467bd; stroke: #9467bd"/>
     <use xlink:href="#m856e7de157" x="593.276099" y="71.999554" style="fill: #9467bd; stroke: #9467bd"/>
     <use xlink:href="#m856e7de157" x="608.641711" y="71.999554" style="fill: #9467bd; stroke: #9467bd"/>
     <use xlink:href="#m856e7de157" x="624.007323" y="71.999554" style="fill: #9467bd; stroke: #9467bd"/>
     <use xlink:href="#m856e7de157" x="639.372935" y="71.999554" style="fill: #9467bd; stroke: #9467bd"/>
     <use xlink:href="#m856e7de157" x="654.738546" y="71.999554" style="fill: #9467bd; stroke: #9467bd"/>
     <use xlink:href="#m856e7de157" x="670.104158" y="71.999554" style="fill: #9467bd; stroke: #9467bd"/>
     <use xlink:href="#m856e7de157" x="685.46977" y="71.999554" style="fill: #9467bd; stroke: #9467bd"/>
     <use xlink:href="#m856e7de157" x="700.835382" y="71.999554" style="fill: #9467bd; stroke: #9467bd"/>
     <use xlink:href="#m856e7de157" x="716.200994" y="71.999554" style="fill: #9467bd; stroke: #9467bd"/>
     <use xlink:href="#m856e7de157" x="731.566606" y="71.999554" style="fill: #9467bd; stroke: #9467bd"/>
     <use xlink:href="#m856e7de157" x="746.932218" y="71.999554" style="fill: #9467bd; stroke: #9467bd"/>
     <use xlink:href="#m856e7de157" x="762.297829" y="71.999554" style="fill: #9467bd; stroke: #9467bd"/>
     <use xlink:href="#m856e7de157" x="777.663441" y="71.999554" style="fill: #9467bd; stroke: #9467bd"/>
     <use xlink:href="#m856e7de157" x="793.029053" y="71.999554" style="fill: #9467bd; stroke: #9467bd"/>
    </g>
   </g>
   <g id="line2d_32">
    <path d="M 86.210907 376.947343 
L 101.576519 364.34156 
L 116.942131 342.911728 
L 132.307743 330.305944 
L 147.673355 305.094377 
L 163.038967 271.058762 
L 178.404578 253.410665 
L 193.77019 253.410665 
L 209.135802 221.896206 
L 224.501414 210.551001 
L 239.867026 182.818277 
L 255.232638 175.254807 
L 270.59825 136.176878 
L 316.695085 136.176878 
L 332.060697 136.176878 
L 347.426309 136.176878 
L 362.791921 136.176878 
L 378.157533 136.176878 
L 408.888757 136.176878 
L 424.254368 136.176878 
L 439.61998 136.176878 
L 454.985592 136.176878 
L 470.351204 136.176878 
L 485.716816 136.176878 
L 501.082428 136.176878 
L 516.44804 136.176878 
L 531.813651 136.176878 
L 547.179263 136.176878 
L 562.544875 117.268202 
L 577.910487 117.268202 
L 593.276099 117.268202 
L 608.641711 117.268202 
L 624.007323 117.268202 
L 639.372935 117.268202 
L 654.738546 117.268202 
L 670.104158 117.268202 
L 685.46977 117.268202 
L 700.835382 117.268202 
L 716.200994 117.268202 
L 731.566606 117.268202 
L 746.932218 117.268202 
L 762.297829 117.268202 
L 777.663441 117.268202 
L 793.029053 117.268202 
" clip-path="url(#pb654ddfb7c)" style="fill: none; stroke: #8c564b; stroke-width: 1.5; stroke-linecap: square"/>
    <defs>
     <path id="m5032f407f3" d="M 0 3.5 
C 0.928211 3.5 1.81853 3.131218 2.474874 2.474874 
C 3.131218 1.81853 3.5 0.928211 3.5 0 
C 3.5 -0.928211 3.131218 -1.81853 2.474874 -2.474874 
C 1.81853 -3.131218 0.928211 -3.5 0 -3.5 
C -0.928211 -3.5 -1.81853 -3.131218 -2.474874 -2.474874 
C -3.131218 -1.81853 -3.5 -0.928211 -3.5 0 
C -3.5 0.928211 -3.131218 1.81853 -2.474874 2.474874 
C -1.81853 3.131218 -0.928211 3.5 0 3.5 
z
" style="stroke: #8c564b"/>
    </defs>
    <g clip-path="url(#pb654ddfb7c)">
     <use xlink:href="#m5032f407f3" x="86.210907" y="376.947343" style="fill: #8c564b; stroke: #8c564b"/>
     <use xlink:href="#m5032f407f3" x="101.576519" y="364.34156" style="fill: #8c564b; stroke: #8c564b"/>
     <use xlink:href="#m5032f407f3" x="116.942131" y="342.911728" style="fill: #8c564b; stroke: #8c564b"/>
     <use xlink:href="#m5032f407f3" x="132.307743" y="330.305944" style="fill: #8c564b; stroke: #8c564b"/>
     <use xlink:href="#m5032f407f3" x="147.673355" y="305.094377" style="fill: #8c564b; stroke: #8c564b"/>
     <use xlink:href="#m5032f407f3" x="163.038967" y="271.058762" style="fill: #8c564b; stroke: #8c564b"/>
     <use xlink:href="#m5032f407f3" x="178.404578" y="253.410665" style="fill: #8c564b; stroke: #8c564b"/>
     <use xlink:href="#m5032f407f3" x="193.77019" y="253.410665" style="fill: #8c564b; stroke: #8c564b"/>
     <use xlink:href="#m5032f407f3" x="209.135802" y="221.896206" style="fill: #8c564b; stroke: #8c564b"/>
     <use xlink:href="#m5032f407f3" x="224.501414" y="210.551001" style="fill: #8c564b; stroke: #8c564b"/>
     <use xlink:href="#m5032f407f3" x="239.867026" y="182.818277" style="fill: #8c564b; stroke: #8c564b"/>
     <use xlink:href="#m5032f407f3" x="255.232638" y="175.254807" style="fill: #8c564b; stroke: #8c564b"/>
     <use xlink:href="#m5032f407f3" x="270.59825" y="136.176878" style="fill: #8c564b; stroke: #8c564b"/>
     <use xlink:href="#m5032f407f3" x="316.695085" y="136.176878" style="fill: #8c564b; stroke: #8c564b"/>
     <use xlink:href="#m5032f407f3" x="332.060697" y="136.176878" style="fill: #8c564b; stroke: #8c564b"/>
     <use xlink:href="#m5032f407f3" x="347.426309" y="136.176878" style="fill: #8c564b; stroke: #8c564b"/>
     <use xlink:href="#m5032f407f3" x="362.791921" y="136.176878" style="fill: #8c564b; stroke: #8c564b"/>
     <use xlink:href="#m5032f407f3" x="378.157533" y="136.176878" style="fill: #8c564b; stroke: #8c564b"/>
     <use xlink:href="#m5032f407f3" x="408.888757" y="136.176878" style="fill: #8c564b; stroke: #8c564b"/>
     <use xlink:href="#m5032f407f3" x="424.254368" y="136.176878" style="fill: #8c564b; stroke: #8c564b"/>
     <use xlink:href="#m5032f407f3" x="439.61998" y="136.176878" style="fill: #8c564b; stroke: #8c564b"/>
     <use xlink:href="#m5032f407f3" x="454.985592" y="136.176878" style="fill: #8c564b; stroke: #8c564b"/>
     <use xlink:href="#m5032f407f3" x="470.351204" y="136.176878" style="fill: #8c564b; stroke: #8c564b"/>
     <use xlink:href="#m5032f407f3" x="485.716816" y="136.176878" style="fill: #8c564b; stroke: #8c564b"/>
     <use xlink:href="#m5032f407f3" x="501.082428" y="136.176878" style="fill: #8c564b; stroke: #8c564b"/>
     <use xlink:href="#m5032f407f3" x="516.44804" y="136.176878" style="fill: #8c564b; stroke: #8c564b"/>
     <use xlink:href="#m5032f407f3" x="531.813651" y="136.176878" style="fill: #8c564b; stroke: #8c564b"/>
     <use xlink:href="#m5032f407f3" x="547.179263" y="136.176878" style="fill: #8c564b; stroke: #8c564b"/>
     <use xlink:href="#m5032f407f3" x="562.544875" y="117.268202" style="fill: #8c564b; stroke: #8c564b"/>
     <use xlink:href="#m5032f407f3" x="577.910487" y="117.268202" style="fill: #8c564b; stroke: #8c564b"/>
     <use xlink:href="#m5032f407f3" x="593.276099" y="117.268202" style="fill: #8c564b; stroke: #8c564b"/>
     <use xlink:href="#m5032f407f3" x="608.641711" y="117.268202" style="fill: #8c564b; stroke: #8c564b"/>
     <use xlink:href="#m5032f407f3" x="624.007323" y="117.268202" style="fill: #8c564b; stroke: #8c564b"/>
     <use xlink:href="#m5032f407f3" x="639.372935" y="117.268202" style="fill: #8c564b; stroke: #8c564b"/>
     <use xlink:href="#m5032f407f3" x="654.738546" y="117.268202" style="fill: #8c564b; stroke: #8c564b"/>
     <use xlink:href="#m5032f407f3" x="670.104158" y="117.268202" style="fill: #8c564b; stroke: #8c564b"/>
     <use xlink:href="#m5032f407f3" x="685.46977" y="117.268202" style="fill: #8c564b; stroke: #8c564b"/>
     <use xlink:href="#m5032f407f3" x="700.835382" y="117.268202" style="fill: #8c564b; stroke: #8c564b"/>
     <use xlink:href="#m5032f407f3" x="716.200994" y="117.268202" style="fill: #8c564b; stroke: #8c564b"/>
     <use xlink:href="#m5032f407f3" x="731.566606" y="117.268202" style="fill: #8c564b; stroke: #8c564b"/>
     <use xlink:href="#m5032f407f3" x="746.932218" y="117.268202" style="fill: #8c564b; stroke: #8c564b"/>
     <use xlink:href="#m5032f407f3" x="762.297829" y="117.268202" style="fill: #8c564b; stroke: #8c564b"/>
     <use xlink:href="#m5032f407f3" x="777.663441" y="117.268202" style="fill: #8c564b; stroke: #8c564b"/>
     <use xlink:href="#m5032f407f3" x="793.029053" y="117.268202" style="fill: #8c564b; stroke: #8c564b"/>
    </g>
   </g>
   <g id="line2d_33">
    <path d="M 86.210907 376.817739 
L 101.576519 351.606172 
L 116.942131 330.17634 
L 132.307743 311.267665 
L 147.673355 302.443616 
L 163.038967 270.929158 
L 178.404578 263.365687 
L 193.77019 260.844531 
L 209.135802 233.111807 
L 224.501414 224.287758 
L 239.867026 190.252143 
L 255.232638 175.125203 
L 270.59825 134.786695 
L 316.695085 134.786695 
L 332.060697 134.786695 
L 347.426309 134.786695 
L 362.791921 134.786695 
L 378.157533 134.786695 
L 408.888757 134.786695 
L 424.254368 134.786695 
L 439.61998 134.786695 
L 454.985592 134.786695 
L 470.351204 134.786695 
L 485.716816 115.87802 
L 501.082428 115.87802 
L 516.44804 115.87802 
L 531.813651 115.87802 
L 547.179263 115.87802 
L 562.544875 115.87802 
L 577.910487 115.87802 
L 593.276099 115.87802 
L 608.641711 115.87802 
L 624.007323 115.87802 
L 639.372935 115.87802 
L 654.738546 115.87802 
L 670.104158 115.87802 
L 685.46977 115.87802 
L 700.835382 115.87802 
L 716.200994 115.87802 
L 731.566606 115.87802 
L 746.932218 115.87802 
L 762.297829 115.87802 
L 777.663441 115.87802 
L 793.029053 115.87802 
" clip-path="url(#pb654ddfb7c)" style="fill: none; stroke: #e377c2; stroke-width: 1.5; stroke-linecap: square"/>
    <defs>
     <path id="m226950ec48" d="M 0 3.5 
C 0.928211 3.5 1.81853 3.131218 2.474874 2.474874 
C 3.131218 1.81853 3.5 0.928211 3.5 0 
C 3.5 -0.928211 3.131218 -1.81853 2.474874 -2.474874 
C 1.81853 -3.131218 0.928211 -3.5 0 -3.5 
C -0.928211 -3.5 -1.81853 -3.131218 -2.474874 -2.474874 
C -3.131218 -1.81853 -3.5 -0.928211 -3.5 0 
C -3.5 0.928211 -3.131218 1.81853 -2.474874 2.474874 
C -1.81853 3.131218 -0.928211 3.5 0 3.5 
z
" style="stroke: #e377c2"/>
    </defs>
    <g clip-path="url(#pb654ddfb7c)">
     <use xlink:href="#m226950ec48" x="86.210907" y="376.817739" style="fill: #e377c2; stroke: #e377c2"/>
     <use xlink:href="#m226950ec48" x="101.576519" y="351.606172" style="fill: #e377c2; stroke: #e377c2"/>
     <use xlink:href="#m226950ec48" x="116.942131" y="330.17634" style="fill: #e377c2; stroke: #e377c2"/>
     <use xlink:href="#m226950ec48" x="132.307743" y="311.267665" style="fill: #e377c2; stroke: #e377c2"/>
     <use xlink:href="#m226950ec48" x="147.673355" y="302.443616" style="fill: #e377c2; stroke: #e377c2"/>
     <use xlink:href="#m226950ec48" x="163.038967" y="270.929158" style="fill: #e377c2; stroke: #e377c2"/>
     <use xlink:href="#m226950ec48" x="178.404578" y="263.365687" style="fill: #e377c2; stroke: #e377c2"/>
     <use xlink:href="#m226950ec48" x="193.77019" y="260.844531" style="fill: #e377c2; stroke: #e377c2"/>
     <use xlink:href="#m226950ec48" x="209.135802" y="233.111807" style="fill: #e377c2; stroke: #e377c2"/>
     <use xlink:href="#m226950ec48" x="224.501414" y="224.287758" style="fill: #e377c2; stroke: #e377c2"/>
     <use xlink:href="#m226950ec48" x="239.867026" y="190.252143" style="fill: #e377c2; stroke: #e377c2"/>
     <use xlink:href="#m226950ec48" x="255.232638" y="175.125203" style="fill: #e377c2; stroke: #e377c2"/>
     <use xlink:href="#m226950ec48" x="270.59825" y="134.786695" style="fill: #e377c2; stroke: #e377c2"/>
     <use xlink:href="#m226950ec48" x="316.695085" y="134.786695" style="fill: #e377c2; stroke: #e377c2"/>
     <use xlink:href="#m226950ec48" x="332.060697" y="134.786695" style="fill: #e377c2; stroke: #e377c2"/>
     <use xlink:href="#m226950ec48" x="347.426309" y="134.786695" style="fill: #e377c2; stroke: #e377c2"/>
     <use xlink:href="#m226950ec48" x="362.791921" y="134.786695" style="fill: #e377c2; stroke: #e377c2"/>
     <use xlink:href="#m226950ec48" x="378.157533" y="134.786695" style="fill: #e377c2; stroke: #e377c2"/>
     <use xlink:href="#m226950ec48" x="408.888757" y="134.786695" style="fill: #e377c2; stroke: #e377c2"/>
     <use xlink:href="#m226950ec48" x="424.254368" y="134.786695" style="fill: #e377c2; stroke: #e377c2"/>
     <use xlink:href="#m226950ec48" x="439.61998" y="134.786695" style="fill: #e377c2; stroke: #e377c2"/>
     <use xlink:href="#m226950ec48" x="454.985592" y="134.786695" style="fill: #e377c2; stroke: #e377c2"/>
     <use xlink:href="#m226950ec48" x="470.351204" y="134.786695" style="fill: #e377c2; stroke: #e377c2"/>
     <use xlink:href="#m226950ec48" x="485.716816" y="115.87802" style="fill: #e377c2; stroke: #e377c2"/>
     <use xlink:href="#m226950ec48" x="501.082428" y="115.87802" style="fill: #e377c2; stroke: #e377c2"/>
     <use xlink:href="#m226950ec48" x="516.44804" y="115.87802" style="fill: #e377c2; stroke: #e377c2"/>
     <use xlink:href="#m226950ec48" x="531.813651" y="115.87802" style="fill: #e377c2; stroke: #e377c2"/>
     <use xlink:href="#m226950ec48" x="547.179263" y="115.87802" style="fill: #e377c2; stroke: #e377c2"/>
     <use xlink:href="#m226950ec48" x="562.544875" y="115.87802" style="fill: #e377c2; stroke: #e377c2"/>
     <use xlink:href="#m226950ec48" x="577.910487" y="115.87802" style="fill: #e377c2; stroke: #e377c2"/>
     <use xlink:href="#m226950ec48" x="593.276099" y="115.87802" style="fill: #e377c2; stroke: #e377c2"/>
     <use xlink:href="#m226950ec48" x="608.641711" y="115.87802" style="fill: #e377c2; stroke: #e377c2"/>
     <use xlink:href="#m226950ec48" x="624.007323" y="115.87802" style="fill: #e377c2; stroke: #e377c2"/>
     <use xlink:href="#m226950ec48" x="639.372935" y="115.87802" style="fill: #e377c2; stroke: #e377c2"/>
     <use xlink:href="#m226950ec48" x="654.738546" y="115.87802" style="fill: #e377c2; stroke: #e377c2"/>
     <use xlink:href="#m226950ec48" x="670.104158" y="115.87802" style="fill: #e377c2; stroke: #e377c2"/>
     <use xlink:href="#m226950ec48" x="685.46977" y="115.87802" style="fill: #e377c2; stroke: #e377c2"/>
     <use xlink:href="#m226950ec48" x="700.835382" y="115.87802" style="fill: #e377c2; stroke: #e377c2"/>
     <use xlink:href="#m226950ec48" x="716.200994" y="115.87802" style="fill: #e377c2; stroke: #e377c2"/>
     <use xlink:href="#m226950ec48" x="731.566606" y="115.87802" style="fill: #e377c2; stroke: #e377c2"/>
     <use xlink:href="#m226950ec48" x="746.932218" y="115.87802" style="fill: #e377c2; stroke: #e377c2"/>
     <use xlink:href="#m226950ec48" x="762.297829" y="115.87802" style="fill: #e377c2; stroke: #e377c2"/>
     <use xlink:href="#m226950ec48" x="777.663441" y="115.87802" style="fill: #e377c2; stroke: #e377c2"/>
     <use xlink:href="#m226950ec48" x="793.029053" y="115.87802" style="fill: #e377c2; stroke: #e377c2"/>
    </g>
   </g>
   <g id="line2d_34">
    <path d="M 86.210907 383.359493 
L 101.576519 375.796023 
L 116.942131 356.887347 
L 132.307743 354.366191 
L 147.673355 335.457515 
L 163.038967 332.936359 
L 178.404578 311.506527 
L 193.77019 292.597851 
L 209.135802 248.477609 
L 224.501414 243.435296 
L 239.867026 230.829512 
L 255.232638 187.969848 
L 270.59825 151.413076 
L 316.695085 151.413076 
L 332.060697 151.413076 
L 347.426309 151.413076 
L 362.791921 151.413076 
L 378.157533 151.413076 
L 408.888757 151.413076 
L 424.254368 151.413076 
L 439.61998 151.413076 
L 454.985592 151.413076 
L 470.351204 151.413076 
L 485.716816 132.5044 
L 501.082428 132.5044 
L 516.44804 132.5044 
L 531.813651 132.5044 
L 547.179263 132.5044 
L 562.544875 107.292833 
L 577.910487 107.292833 
L 593.276099 107.292833 
L 608.641711 107.292833 
L 624.007323 107.292833 
L 639.372935 107.292833 
L 654.738546 107.292833 
L 670.104158 107.292833 
L 685.46977 107.292833 
L 700.835382 107.292833 
L 716.200994 107.292833 
L 731.566606 107.292833 
L 746.932218 107.292833 
L 762.297829 107.292833 
L 777.663441 107.292833 
L 793.029053 107.292833 
" clip-path="url(#pb654ddfb7c)" style="fill: none; stroke: #7f7f7f; stroke-width: 1.5; stroke-linecap: square"/>
    <defs>
     <path id="m13384bbf8c" d="M 0 3.5 
C 0.928211 3.5 1.81853 3.131218 2.474874 2.474874 
C 3.131218 1.81853 3.5 0.928211 3.5 0 
C 3.5 -0.928211 3.131218 -1.81853 2.474874 -2.474874 
C 1.81853 -3.131218 0.928211 -3.5 0 -3.5 
C -0.928211 -3.5 -1.81853 -3.131218 -2.474874 -2.474874 
C -3.131218 -1.81853 -3.5 -0.928211 -3.5 0 
C -3.5 0.928211 -3.131218 1.81853 -2.474874 2.474874 
C -1.81853 3.131218 -0.928211 3.5 0 3.5 
z
" style="stroke: #7f7f7f"/>
    </defs>
    <g clip-path="url(#pb654ddfb7c)">
     <use xlink:href="#m13384bbf8c" x="86.210907" y="383.359493" style="fill: #7f7f7f; stroke: #7f7f7f"/>
     <use xlink:href="#m13384bbf8c" x="101.576519" y="375.796023" style="fill: #7f7f7f; stroke: #7f7f7f"/>
     <use xlink:href="#m13384bbf8c" x="116.942131" y="356.887347" style="fill: #7f7f7f; stroke: #7f7f7f"/>
     <use xlink:href="#m13384bbf8c" x="132.307743" y="354.366191" style="fill: #7f7f7f; stroke: #7f7f7f"/>
     <use xlink:href="#m13384bbf8c" x="147.673355" y="335.457515" style="fill: #7f7f7f; stroke: #7f7f7f"/>
     <use xlink:href="#m13384bbf8c" x="163.038967" y="332.936359" style="fill: #7f7f7f; stroke: #7f7f7f"/>
     <use xlink:href="#m13384bbf8c" x="178.404578" y="311.506527" style="fill: #7f7f7f; stroke: #7f7f7f"/>
     <use xlink:href="#m13384bbf8c" x="193.77019" y="292.597851" style="fill: #7f7f7f; stroke: #7f7f7f"/>
     <use xlink:href="#m13384bbf8c" x="209.135802" y="248.477609" style="fill: #7f7f7f; stroke: #7f7f7f"/>
     <use xlink:href="#m13384bbf8c" x="224.501414" y="243.435296" style="fill: #7f7f7f; stroke: #7f7f7f"/>
     <use xlink:href="#m13384bbf8c" x="239.867026" y="230.829512" style="fill: #7f7f7f; stroke: #7f7f7f"/>
     <use xlink:href="#m13384bbf8c" x="255.232638" y="187.969848" style="fill: #7f7f7f; stroke: #7f7f7f"/>
     <use xlink:href="#m13384bbf8c" x="270.59825" y="151.413076" style="fill: #7f7f7f; stroke: #7f7f7f"/>
     <use xlink:href="#m13384bbf8c" x="316.695085" y="151.413076" style="fill: #7f7f7f; stroke: #7f7f7f"/>
     <use xlink:href="#m13384bbf8c" x="332.060697" y="151.413076" style="fill: #7f7f7f; stroke: #7f7f7f"/>
     <use xlink:href="#m13384bbf8c" x="347.426309" y="151.413076" style="fill: #7f7f7f; stroke: #7f7f7f"/>
     <use xlink:href="#m13384bbf8c" x="362.791921" y="151.413076" style="fill: #7f7f7f; stroke: #7f7f7f"/>
     <use xlink:href="#m13384bbf8c" x="378.157533" y="151.413076" style="fill: #7f7f7f; stroke: #7f7f7f"/>
     <use xlink:href="#m13384bbf8c" x="408.888757" y="151.413076" style="fill: #7f7f7f; stroke: #7f7f7f"/>
     <use xlink:href="#m13384bbf8c" x="424.254368" y="151.413076" style="fill: #7f7f7f; stroke: #7f7f7f"/>
     <use xlink:href="#m13384bbf8c" x="439.61998" y="151.413076" style="fill: #7f7f7f; stroke: #7f7f7f"/>
     <use xlink:href="#m13384bbf8c" x="454.985592" y="151.413076" style="fill: #7f7f7f; stroke: #7f7f7f"/>
     <use xlink:href="#m13384bbf8c" x="470.351204" y="151.413076" style="fill: #7f7f7f; stroke: #7f7f7f"/>
     <use xlink:href="#m13384bbf8c" x="485.716816" y="132.5044" style="fill: #7f7f7f; stroke: #7f7f7f"/>
     <use xlink:href="#m13384bbf8c" x="501.082428" y="132.5044" style="fill: #7f7f7f; stroke: #7f7f7f"/>
     <use xlink:href="#m13384bbf8c" x="516.44804" y="132.5044" style="fill: #7f7f7f; stroke: #7f7f7f"/>
     <use xlink:href="#m13384bbf8c" x="531.813651" y="132.5044" style="fill: #7f7f7f; stroke: #7f7f7f"/>
     <use xlink:href="#m13384bbf8c" x="547.179263" y="132.5044" style="fill: #7f7f7f; stroke: #7f7f7f"/>
     <use xlink:href="#m13384bbf8c" x="562.544875" y="107.292833" style="fill: #7f7f7f; stroke: #7f7f7f"/>
     <use xlink:href="#m13384bbf8c" x="577.910487" y="107.292833" style="fill: #7f7f7f; stroke: #7f7f7f"/>
     <use xlink:href="#m13384bbf8c" x="593.276099" y="107.292833" style="fill: #7f7f7f; stroke: #7f7f7f"/>
     <use xlink:href="#m13384bbf8c" x="608.641711" y="107.292833" style="fill: #7f7f7f; stroke: #7f7f7f"/>
     <use xlink:href="#m13384bbf8c" x="624.007323" y="107.292833" style="fill: #7f7f7f; stroke: #7f7f7f"/>
     <use xlink:href="#m13384bbf8c" x="639.372935" y="107.292833" style="fill: #7f7f7f; stroke: #7f7f7f"/>
     <use xlink:href="#m13384bbf8c" x="654.738546" y="107.292833" style="fill: #7f7f7f; stroke: #7f7f7f"/>
     <use xlink:href="#m13384bbf8c" x="670.104158" y="107.292833" style="fill: #7f7f7f; stroke: #7f7f7f"/>
     <use xlink:href="#m13384bbf8c" x="685.46977" y="107.292833" style="fill: #7f7f7f; stroke: #7f7f7f"/>
     <use xlink:href="#m13384bbf8c" x="700.835382" y="107.292833" style="fill: #7f7f7f; stroke: #7f7f7f"/>
     <use xlink:href="#m13384bbf8c" x="716.200994" y="107.292833" style="fill: #7f7f7f; stroke: #7f7f7f"/>
     <use xlink:href="#m13384bbf8c" x="731.566606" y="107.292833" style="fill: #7f7f7f; stroke: #7f7f7f"/>
     <use xlink:href="#m13384bbf8c" x="746.932218" y="107.292833" style="fill: #7f7f7f; stroke: #7f7f7f"/>
     <use xlink:href="#m13384bbf8c" x="762.297829" y="107.292833" style="fill: #7f7f7f; stroke: #7f7f7f"/>
     <use xlink:href="#m13384bbf8c" x="777.663441" y="107.292833" style="fill: #7f7f7f; stroke: #7f7f7f"/>
     <use xlink:href="#m13384bbf8c" x="793.029053" y="107.292833" style="fill: #7f7f7f; stroke: #7f7f7f"/>
    </g>
   </g>
   <g id="line2d_35">
    <path d="M 86.210907 383.154155 
L 101.576519 357.942588 
L 116.942131 330.209864 
L 132.307743 321.385816 
L 147.673355 302.47714 
L 163.038967 274.744417 
L 178.404578 247.011693 
L 193.77019 244.490536 
L 209.135802 212.976077 
L 224.501414 172.63757 
L 239.867026 144.904846 
L 255.232638 117.172122 
L 270.59825 83.136507 
L 316.695085 83.136507 
L 332.060697 83.136507 
L 347.426309 83.136507 
L 362.791921 83.136507 
L 378.157533 83.136507 
L 408.888757 83.136507 
L 424.254368 83.136507 
L 439.61998 83.136507 
L 454.985592 83.136507 
L 470.351204 83.136507 
L 485.716816 83.136507 
L 501.082428 83.136507 
L 516.44804 83.136507 
L 531.813651 83.136507 
L 547.179263 83.136507 
L 562.544875 64.227831 
L 577.910487 64.227831 
L 593.276099 64.227831 
L 608.641711 64.227831 
L 624.007323 64.227831 
L 639.372935 64.227831 
L 654.738546 64.227831 
L 670.104158 64.227831 
L 685.46977 64.227831 
L 700.835382 64.227831 
L 716.200994 64.227831 
L 731.566606 64.227831 
L 746.932218 64.227831 
L 762.297829 64.227831 
L 777.663441 64.227831 
L 793.029053 64.227831 
" clip-path="url(#pb654ddfb7c)" style="fill: none; stroke: #bcbd22; stroke-width: 1.5; stroke-linecap: square"/>
    <defs>
     <path id="mbcda461bc5" d="M 0 3.5 
C 0.928211 3.5 1.81853 3.131218 2.474874 2.474874 
C 3.131218 1.81853 3.5 0.928211 3.5 0 
C 3.5 -0.928211 3.131218 -1.81853 2.474874 -2.474874 
C 1.81853 -3.131218 0.928211 -3.5 0 -3.5 
C -0.928211 -3.5 -1.81853 -3.131218 -2.474874 -2.474874 
C -3.131218 -1.81853 -3.5 -0.928211 -3.5 0 
C -3.5 0.928211 -3.131218 1.81853 -2.474874 2.474874 
C -1.81853 3.131218 -0.928211 3.5 0 3.5 
z
" style="stroke: #bcbd22"/>
    </defs>
    <g clip-path="url(#pb654ddfb7c)">
     <use xlink:href="#mbcda461bc5" x="86.210907" y="383.154155" style="fill: #bcbd22; stroke: #bcbd22"/>
     <use xlink:href="#mbcda461bc5" x="101.576519" y="357.942588" style="fill: #bcbd22; stroke: #bcbd22"/>
     <use xlink:href="#mbcda461bc5" x="116.942131" y="330.209864" style="fill: #bcbd22; stroke: #bcbd22"/>
     <use xlink:href="#mbcda461bc5" x="132.307743" y="321.385816" style="fill: #bcbd22; stroke: #bcbd22"/>
     <use xlink:href="#mbcda461bc5" x="147.673355" y="302.47714" style="fill: #bcbd22; stroke: #bcbd22"/>
     <use xlink:href="#mbcda461bc5" x="163.038967" y="274.744417" style="fill: #bcbd22; stroke: #bcbd22"/>
     <use xlink:href="#mbcda461bc5" x="178.404578" y="247.011693" style="fill: #bcbd22; stroke: #bcbd22"/>
     <use xlink:href="#mbcda461bc5" x="193.77019" y="244.490536" style="fill: #bcbd22; stroke: #bcbd22"/>
     <use xlink:href="#mbcda461bc5" x="209.135802" y="212.976077" style="fill: #bcbd22; stroke: #bcbd22"/>
     <use xlink:href="#mbcda461bc5" x="224.501414" y="172.63757" style="fill: #bcbd22; stroke: #bcbd22"/>
     <use xlink:href="#mbcda461bc5" x="239.867026" y="144.904846" style="fill: #bcbd22; stroke: #bcbd22"/>
     <use xlink:href="#mbcda461bc5" x="255.232638" y="117.172122" style="fill: #bcbd22; stroke: #bcbd22"/>
     <use xlink:href="#mbcda461bc5" x="270.59825" y="83.136507" style="fill: #bcbd22; stroke: #bcbd22"/>
     <use xlink:href="#mbcda461bc5" x="316.695085" y="83.136507" style="fill: #bcbd22; stroke: #bcbd22"/>
     <use xlink:href="#mbcda461bc5" x="332.060697" y="83.136507" style="fill: #bcbd22; stroke: #bcbd22"/>
     <use xlink:href="#mbcda461bc5" x="347.426309" y="83.136507" style="fill: #bcbd22; stroke: #bcbd22"/>
     <use xlink:href="#mbcda461bc5" x="362.791921" y="83.136507" style="fill: #bcbd22; stroke: #bcbd22"/>
     <use xlink:href="#mbcda461bc5" x="378.157533" y="83.136507" style="fill: #bcbd22; stroke: #bcbd22"/>
     <use xlink:href="#mbcda461bc5" x="408.888757" y="83.136507" style="fill: #bcbd22; stroke: #bcbd22"/>
     <use xlink:href="#mbcda461bc5" x="424.254368" y="83.136507" style="fill: #bcbd22; stroke: #bcbd22"/>
     <use xlink:href="#mbcda461bc5" x="439.61998" y="83.136507" style="fill: #bcbd22; stroke: #bcbd22"/>
     <use xlink:href="#mbcda461bc5" x="454.985592" y="83.136507" style="fill: #bcbd22; stroke: #bcbd22"/>
     <use xlink:href="#mbcda461bc5" x="470.351204" y="83.136507" style="fill: #bcbd22; stroke: #bcbd22"/>
     <use xlink:href="#mbcda461bc5" x="485.716816" y="83.136507" style="fill: #bcbd22; stroke: #bcbd22"/>
     <use xlink:href="#mbcda461bc5" x="501.082428" y="83.136507" style="fill: #bcbd22; stroke: #bcbd22"/>
     <use xlink:href="#mbcda461bc5" x="516.44804" y="83.136507" style="fill: #bcbd22; stroke: #bcbd22"/>
     <use xlink:href="#mbcda461bc5" x="531.813651" y="83.136507" style="fill: #bcbd22; stroke: #bcbd22"/>
     <use xlink:href="#mbcda461bc5" x="547.179263" y="83.136507" style="fill: #bcbd22; stroke: #bcbd22"/>
     <use xlink:href="#mbcda461bc5" x="562.544875" y="64.227831" style="fill: #bcbd22; stroke: #bcbd22"/>
     <use xlink:href="#mbcda461bc5" x="577.910487" y="64.227831" style="fill: #bcbd22; stroke: #bcbd22"/>
     <use xlink:href="#mbcda461bc5" x="593.276099" y="64.227831" style="fill: #bcbd22; stroke: #bcbd22"/>
     <use xlink:href="#mbcda461bc5" x="608.641711" y="64.227831" style="fill: #bcbd22; stroke: #bcbd22"/>
     <use xlink:href="#mbcda461bc5" x="624.007323" y="64.227831" style="fill: #bcbd22; stroke: #bcbd22"/>
     <use xlink:href="#mbcda461bc5" x="639.372935" y="64.227831" style="fill: #bcbd22; stroke: #bcbd22"/>
     <use xlink:href="#mbcda461bc5" x="654.738546" y="64.227831" style="fill: #bcbd22; stroke: #bcbd22"/>
     <use xlink:href="#mbcda461bc5" x="670.104158" y="64.227831" style="fill: #bcbd22; stroke: #bcbd22"/>
     <use xlink:href="#mbcda461bc5" x="685.46977" y="64.227831" style="fill: #bcbd22; stroke: #bcbd22"/>
     <use xlink:href="#mbcda461bc5" x="700.835382" y="64.227831" style="fill: #bcbd22; stroke: #bcbd22"/>
     <use xlink:href="#mbcda461bc5" x="716.200994" y="64.227831" style="fill: #bcbd22; stroke: #bcbd22"/>
     <use xlink:href="#mbcda461bc5" x="731.566606" y="64.227831" style="fill: #bcbd22; stroke: #bcbd22"/>
     <use xlink:href="#mbcda461bc5" x="746.932218" y="64.227831" style="fill: #bcbd22; stroke: #bcbd22"/>
     <use xlink:href="#mbcda461bc5" x="762.297829" y="64.227831" style="fill: #bcbd22; stroke: #bcbd22"/>
     <use xlink:href="#mbcda461bc5" x="777.663441" y="64.227831" style="fill: #bcbd22; stroke: #bcbd22"/>
     <use xlink:href="#mbcda461bc5" x="793.029053" y="64.227831" style="fill: #bcbd22; stroke: #bcbd22"/>
    </g>
   </g>
   <g id="patch_3">
    <path d="M 50.87 404.12 
L 50.87 26.88 
" style="fill: none; stroke: #000000; stroke-width: 0.8; stroke-linejoin: miter; stroke-linecap: square"/>
   </g>
   <g id="patch_4">
    <path d="M 828.36996 404.12 
L 828.36996 26.88 
" style="fill: none; stroke: #000000; stroke-width: 0.8; stroke-linejoin: miter; stroke-linecap: square"/>
   </g>
   <g id="patch_5">
    <path d="M 50.87 404.12 
L 828.36996 404.12 
" style="fill: none; stroke: #000000; stroke-width: 0.8; stroke-linejoin: miter; stroke-linecap: square"/>
   </g>
   <g id="patch_6">
    <path d="M 50.87 26.88 
L 828.36996 26.88 
" style="fill: none; stroke: #000000; stroke-width: 0.8; stroke-linejoin: miter; stroke-linecap: square"/>
   </g>
   <g id="text_15">
    <!-- Standings -->
    <g transform="translate(409.76623 20.88) scale(0.12 -0.12)">
     <defs>
      <path id="DejaVuSans-74" d="M 1172 4494 
L 1172 3500 
L 2356 3500 
L 2356 3053 
L 1172 3053 
L 1172 1153 
Q 1172 725 1289 603 
Q 1406 481 1766 481 
L 2356 481 
L 2356 0 
L 1766 0 
Q 1100 0 847 248 
Q 594 497 594 1153 
L 594 3053 
L 172 3053 
L 172 3500 
L 594 3500 
L 594 4494 
L 1172 4494 
z
" transform="scale(0.015625)"/>
      <path id="DejaVuSans-61" d="M 2194 1759 
Q 1497 1759 1228 1600 
Q 959 1441 959 1056 
Q 959 750 1161 570 
Q 1363 391 1709 391 
Q 2188 391 2477 730 
Q 2766 1069 2766 1631 
L 2766 1759 
L 2194 1759 
z
M 3341 1997 
L 3341 0 
L 2766 0 
L 2766 531 
Q 2569 213 2275 61 
Q 1981 -91 1556 -91 
Q 1019 -91 701 211 
Q 384 513 384 1019 
Q 384 1609 779 1909 
Q 1175 2209 1959 2209 
L 2766 2209 
L 2766 2266 
Q 2766 2663 2505 2880 
Q 2244 3097 1772 3097 
Q 1472 3097 1187 3025 
Q 903 2953 641 2809 
L 641 3341 
Q 956 3463 1253 3523 
Q 1550 3584 1831 3584 
Q 2591 3584 2966 3190 
Q 3341 2797 3341 1997 
z
" transform="scale(0.015625)"/>
      <path id="DejaVuSans-6e" d="M 3513 2113 
L 3513 0 
L 2938 0 
L 2938 2094 
Q 2938 2591 2744 2837 
Q 2550 3084 2163 3084 
Q 1697 3084 1428 2787 
Q 1159 2491 1159 1978 
L 1159 0 
L 581 0 
L 581 3500 
L 1159 3500 
L 1159 2956 
Q 1366 3272 1645 3428 
Q 1925 3584 2291 3584 
Q 2894 3584 3203 3211 
Q 3513 2838 3513 2113 
z
" transform="scale(0.015625)"/>
      <path id="DejaVuSans-64" d="M 2906 2969 
L 2906 4863 
L 3481 4863 
L 3481 0 
L 2906 0 
L 2906 525 
Q 2725 213 2448 61 
Q 2172 -91 1784 -91 
Q 1150 -91 751 415 
Q 353 922 353 1747 
Q 353 2572 751 3078 
Q 1150 3584 1784 3584 
Q 2172 3584 2448 3432 
Q 2725 3281 2906 2969 
z
M 947 1747 
Q 947 1113 1208 752 
Q 1469 391 1925 391 
Q 2381 391 2643 752 
Q 2906 1113 2906 1747 
Q 2906 2381 2643 2742 
Q 2381 3103 1925 3103 
Q 1469 3103 1208 2742 
Q 947 2381 947 1747 
z
" transform="scale(0.015625)"/>
      <path id="DejaVuSans-69" d="M 603 3500 
L 1178 3500 
L 1178 0 
L 603 0 
L 603 3500 
z
M 603 4863 
L 1178 4863 
L 1178 4134 
L 603 4134 
L 603 4863 
z
" transform="scale(0.015625)"/>
      <path id="DejaVuSans-67" d="M 2906 1791 
Q 2906 2416 2648 2759 
Q 2391 3103 1925 3103 
Q 1463 3103 1205 2759 
Q 947 2416 947 1791 
Q 947 1169 1205 825 
Q 1463 481 1925 481 
Q 2391 481 2648 825 
Q 2906 1169 2906 1791 
z
M 3481 434 
Q 3481 -459 3084 -895 
Q 2688 -1331 1869 -1331 
Q 1566 -1331 1297 -1286 
Q 1028 -1241 775 -1147 
L 775 -588 
Q 1028 -725 1275 -790 
Q 1522 -856 1778 -856 
Q 2344 -856 2625 -561 
Q 2906 -266 2906 331 
L 2906 616 
Q 2728 306 2450 153 
Q 2172 0 1784 0 
Q 1141 0 747 490 
Q 353 981 353 1791 
Q 353 2603 747 3093 
Q 1141 3584 1784 3584 
Q 2172 3584 2450 3431 
Q 2728 3278 2906 2969 
L 2906 3500 
L 3481 3500 
L 3481 434 
z
" transform="scale(0.015625)"/>
      <path id="DejaVuSans-73" d="M 2834 3397 
L 2834 2853 
Q 2591 2978 2328 3040 
Q 2066 3103 1784 3103 
Q 1356 3103 1142 2972 
Q 928 2841 928 2578 
Q 928 2378 1081 2264 
Q 1234 2150 1697 2047 
L 1894 2003 
Q 2506 1872 2764 1633 
Q 3022 1394 3022 966 
Q 3022 478 2636 193 
Q 2250 -91 1575 -91 
Q 1294 -91 989 -36 
Q 684 19 347 128 
L 347 722 
Q 666 556 975 473 
Q 1284 391 1588 391 
Q 1994 391 2212 530 
Q 2431 669 2431 922 
Q 2431 1156 2273 1281 
Q 2116 1406 1581 1522 
L 1381 1569 
Q 847 1681 609 1914 
Q 372 2147 372 2553 
Q 372 3047 722 3315 
Q 1072 3584 1716 3584 
Q 2034 3584 2315 3537 
Q 2597 3491 2834 3397 
z
" transform="scale(0.015625)"/>
     </defs>
     <use xlink:href="#DejaVuSans-53"/>
     <use xlink:href="#DejaVuSans-74" x="63.476562"/>
     <use xlink:href="#DejaVuSans-61" x="102.685547"/>
     <use xlink:href="#DejaVuSans-6e" x="163.964844"/>
     <use xlink:href="#DejaVuSans-64" x="227.34375"/>
     <use xlink:href="#DejaVuSans-69" x="290.820312"/>
     <use xlink:href="#DejaVuSans-6e" x="318.603516"/>
     <use xlink:href="#DejaVuSans-67" x="381.982422"/>
     <use xlink:href="#DejaVuSans-73" x="445.458984"/>
    </g>
   </g>
   <g id="legend_1">
    <g id="patch_7">
     <path d="M 57.87 166.983125 
L 153.949688 166.983125 
Q 155.949688 166.983125 155.949688 164.983125 
L 155.949688 33.88 
Q 155.949688 31.88 153.949688 31.88 
L 57.87 31.88 
Q 55.87 31.88 55.87 33.88 
L 55.87 164.983125 
Q 55.87 166.983125 57.87 166.983125 
z
" style="fill: #ffffff; opacity: 0.8; stroke: #cccccc; stroke-linejoin: miter"/>
    </g>
    <g id="line2d_36">
     <path d="M 59.87 39.978437 
L 69.87 39.978437 
L 79.87 39.978437 
" style="fill: none; stroke: #1f77b4; stroke-width: 1.5; stroke-linecap: square"/>
     <g>
      <use xlink:href="#mac55ac8452" x="69.87" y="39.978437" style="fill: #1f77b4; stroke: #1f77b4"/>
     </g>
    </g>
    <g id="text_16">
     <!-- Alan Ce -->
     <g transform="translate(87.87 43.478437) scale(0.1 -0.1)">
      <defs>
       <path id="DejaVuSans-41" d="M 2188 4044 
L 1331 1722 
L 3047 1722 
L 2188 4044 
z
M 1831 4666 
L 2547 4666 
L 4325 0 
L 3669 0 
L 3244 1197 
L 1141 1197 
L 716 0 
L 50 0 
L 1831 4666 
z
" transform="scale(0.015625)"/>
       <path id="DejaVuSans-6c" d="M 603 4863 
L 1178 4863 
L 1178 0 
L 603 0 
L 603 4863 
z
" transform="scale(0.015625)"/>
       <path id="DejaVuSans-20" transform="scale(0.015625)"/>
       <path id="DejaVuSans-43" d="M 4122 4306 
L 4122 3641 
Q 3803 3938 3442 4084 
Q 3081 4231 2675 4231 
Q 1875 4231 1450 3742 
Q 1025 3253 1025 2328 
Q 1025 1406 1450 917 
Q 1875 428 2675 428 
Q 3081 428 3442 575 
Q 3803 722 4122 1019 
L 4122 359 
Q 3791 134 3420 21 
Q 3050 -91 2638 -91 
Q 1578 -91 968 557 
Q 359 1206 359 2328 
Q 359 3453 968 4101 
Q 1578 4750 2638 4750 
Q 3056 4750 3426 4639 
Q 3797 4528 4122 4306 
z
" transform="scale(0.015625)"/>
      </defs>
      <use xlink:href="#DejaVuSans-41"/>
      <use xlink:href="#DejaVuSans-6c" x="68.408203"/>
      <use xlink:href="#DejaVuSans-61" x="96.191406"/>
      <use xlink:href="#DejaVuSans-6e" x="157.470703"/>
      <use xlink:href="#DejaVuSans-20" x="220.849609"/>
      <use xlink:href="#DejaVuSans-43" x="252.636719"/>
      <use xlink:href="#DejaVuSans-65" x="322.460938"/>
     </g>
    </g>
    <g id="line2d_37">
     <path d="M 59.87 54.656563 
L 69.87 54.656563 
L 79.87 54.656563 
" style="fill: none; stroke: #ff7f0e; stroke-width: 1.5; stroke-linecap: square"/>
     <g>
      <use xlink:href="#m0ff0e10b64" x="69.87" y="54.656563" style="fill: #ff7f0e; stroke: #ff7f0e"/>
     </g>
    </g>
    <g id="text_17">
     <!-- Sebastian Le -->
     <g transform="translate(87.87 58.156563) scale(0.1 -0.1)">
      <defs>
       <path id="DejaVuSans-62" d="M 3116 1747 
Q 3116 2381 2855 2742 
Q 2594 3103 2138 3103 
Q 1681 3103 1420 2742 
Q 1159 2381 1159 1747 
Q 1159 1113 1420 752 
Q 1681 391 2138 391 
Q 2594 391 2855 752 
Q 3116 1113 3116 1747 
z
M 1159 2969 
Q 1341 3281 1617 3432 
Q 1894 3584 2278 3584 
Q 2916 3584 3314 3078 
Q 3713 2572 3713 1747 
Q 3713 922 3314 415 
Q 2916 -91 2278 -91 
Q 1894 -91 1617 61 
Q 1341 213 1159 525 
L 1159 0 
L 581 0 
L 581 4863 
L 1159 4863 
L 1159 2969 
z
" transform="scale(0.015625)"/>
       <path id="DejaVuSans-4c" d="M 628 4666 
L 1259 4666 
L 1259 531 
L 3531 531 
L 3531 0 
L 628 0 
L 628 4666 
z
" transform="scale(0.015625)"/>
      </defs>
      <use xlink:href="#DejaVuSans-53"/>
      <use xlink:href="#DejaVuSans-65" x="63.476562"/>
      <use xlink:href="#DejaVuSans-62" x="125"/>
      <use xlink:href="#DejaVuSans-61" x="188.476562"/>
      <use xlink:href="#DejaVuSans-73" x="249.755859"/>
      <use xlink:href="#DejaVuSans-74" x="301.855469"/>
      <use xlink:href="#DejaVuSans-69" x="341.064453"/>
      <use xlink:href="#DejaVuSans-61" x="368.847656"/>
      <use xlink:href="#DejaVuSans-6e" x="430.126953"/>
      <use xlink:href="#DejaVuSans-20" x="493.505859"/>
      <use xlink:href="#DejaVuSans-4c" x="525.292969"/>
      <use xlink:href="#DejaVuSans-65" x="579.255859"/>
     </g>
    </g>
    <g id="line2d_38">
     <path d="M 59.87 69.334687 
L 69.87 69.334687 
L 79.87 69.334687 
" style="fill: none; stroke: #2ca02c; stroke-width: 1.5; stroke-linecap: square"/>
     <g>
      <use xlink:href="#m239d4c5e95" x="69.87" y="69.334687" style="fill: #2ca02c; stroke: #2ca02c"/>
     </g>
    </g>
    <g id="text_18">
     <!-- Sarah Gy -->
     <g transform="translate(87.87 72.834687) scale(0.1 -0.1)">
      <defs>
       <path id="DejaVuSans-68" d="M 3513 2113 
L 3513 0 
L 2938 0 
L 2938 2094 
Q 2938 2591 2744 2837 
Q 2550 3084 2163 3084 
Q 1697 3084 1428 2787 
Q 1159 2491 1159 1978 
L 1159 0 
L 581 0 
L 581 4863 
L 1159 4863 
L 1159 2956 
Q 1366 3272 1645 3428 
Q 1925 3584 2291 3584 
Q 2894 3584 3203 3211 
Q 3513 2838 3513 2113 
z
" transform="scale(0.015625)"/>
       <path id="DejaVuSans-47" d="M 3809 666 
L 3809 1919 
L 2778 1919 
L 2778 2438 
L 4434 2438 
L 4434 434 
Q 4069 175 3628 42 
Q 3188 -91 2688 -91 
Q 1594 -91 976 548 
Q 359 1188 359 2328 
Q 359 3472 976 4111 
Q 1594 4750 2688 4750 
Q 3144 4750 3555 4637 
Q 3966 4525 4313 4306 
L 4313 3634 
Q 3963 3931 3569 4081 
Q 3175 4231 2741 4231 
Q 1884 4231 1454 3753 
Q 1025 3275 1025 2328 
Q 1025 1384 1454 906 
Q 1884 428 2741 428 
Q 3075 428 3337 486 
Q 3600 544 3809 666 
z
" transform="scale(0.015625)"/>
       <path id="DejaVuSans-79" d="M 2059 -325 
Q 1816 -950 1584 -1140 
Q 1353 -1331 966 -1331 
L 506 -1331 
L 506 -850 
L 844 -850 
Q 1081 -850 1212 -737 
Q 1344 -625 1503 -206 
L 1606 56 
L 191 3500 
L 800 3500 
L 1894 763 
L 2988 3500 
L 3597 3500 
L 2059 -325 
z
" transform="scale(0.015625)"/>
      </defs>
      <use xlink:href="#DejaVuSans-53"/>
      <use xlink:href="#DejaVuSans-61" x="63.476562"/>
      <use xlink:href="#DejaVuSans-72" x="124.755859"/>
      <use xlink:href="#DejaVuSans-61" x="165.869141"/>
      <use xlink:href="#DejaVuSans-68" x="227.148438"/>
      <use xlink:href="#DejaVuSans-20" x="290.527344"/>
      <use xlink:href="#DejaVuSans-47" x="322.314453"/>
      <use xlink:href="#DejaVuSans-79" x="399.804688"/>
     </g>
    </g>
    <g id="line2d_39">
     <path d="M 59.87 84.012812 
L 69.87 84.012812 
L 79.87 84.012812 
" style="fill: none; stroke: #d62728; stroke-width: 1.5; stroke-linecap: square"/>
     <g>
      <use xlink:href="#m784e7356ae" x="69.87" y="84.012812" style="fill: #d62728; stroke: #d62728"/>
     </g>
    </g>
    <g id="text_19">
     <!-- Matias BN -->
     <g transform="translate(87.87 87.512812) scale(0.1 -0.1)">
      <defs>
       <path id="DejaVuSans-4d" d="M 628 4666 
L 1569 4666 
L 2759 1491 
L 3956 4666 
L 4897 4666 
L 4897 0 
L 4281 0 
L 4281 4097 
L 3078 897 
L 2444 897 
L 1241 4097 
L 1241 0 
L 628 0 
L 628 4666 
z
" transform="scale(0.015625)"/>
       <path id="DejaVuSans-42" d="M 1259 2228 
L 1259 519 
L 2272 519 
Q 2781 519 3026 730 
Q 3272 941 3272 1375 
Q 3272 1813 3026 2020 
Q 2781 2228 2272 2228 
L 1259 2228 
z
M 1259 4147 
L 1259 2741 
L 2194 2741 
Q 2656 2741 2882 2914 
Q 3109 3088 3109 3444 
Q 3109 3797 2882 3972 
Q 2656 4147 2194 4147 
L 1259 4147 
z
M 628 4666 
L 2241 4666 
Q 2963 4666 3353 4366 
Q 3744 4066 3744 3513 
Q 3744 3084 3544 2831 
Q 3344 2578 2956 2516 
Q 3422 2416 3680 2098 
Q 3938 1781 3938 1306 
Q 3938 681 3513 340 
Q 3088 0 2303 0 
L 628 0 
L 628 4666 
z
" transform="scale(0.015625)"/>
       <path id="DejaVuSans-4e" d="M 628 4666 
L 1478 4666 
L 3547 763 
L 3547 4666 
L 4159 4666 
L 4159 0 
L 3309 0 
L 1241 3903 
L 1241 0 
L 628 0 
L 628 4666 
z
" transform="scale(0.015625)"/>
      </defs>
      <use xlink:href="#DejaVuSans-4d"/>
      <use xlink:href="#DejaVuSans-61" x="86.279297"/>
      <use xlink:href="#DejaVuSans-74" x="147.558594"/>
      <use xlink:href="#DejaVuSans-69" x="186.767578"/>
      <use xlink:href="#DejaVuSans-61" x="214.550781"/>
      <use xlink:href="#DejaVuSans-73" x="275.830078"/>
      <use xlink:href="#DejaVuSans-20" x="327.929688"/>
      <use xlink:href="#DejaVuSans-42" x="359.716797"/>
      <use xlink:href="#DejaVuSans-4e" x="428.320312"/>
     </g>
    </g>
    <g id="line2d_40">
     <path d="M 59.87 98.690938 
L 69.87 98.690938 
L 79.87 98.690938 
" style="fill: none; stroke: #9467bd; stroke-width: 1.5; stroke-linecap: square"/>
     <g>
      <use xlink:href="#m856e7de157" x="69.87" y="98.690938" style="fill: #9467bd; stroke: #9467bd"/>
     </g>
    </g>
    <g id="text_20">
     <!-- Christian Gr -->
     <g transform="translate(87.87 102.190938) scale(0.1 -0.1)">
      <use xlink:href="#DejaVuSans-43"/>
      <use xlink:href="#DejaVuSans-68" x="69.824219"/>
      <use xlink:href="#DejaVuSans-72" x="133.203125"/>
      <use xlink:href="#DejaVuSans-69" x="174.316406"/>
      <use xlink:href="#DejaVuSans-73" x="202.099609"/>
      <use xlink:href="#DejaVuSans-74" x="254.199219"/>
      <use xlink:href="#DejaVuSans-69" x="293.408203"/>
      <use xlink:href="#DejaVuSans-61" x="321.191406"/>
      <use xlink:href="#DejaVuSans-6e" x="382.470703"/>
      <use xlink:href="#DejaVuSans-20" x="445.849609"/>
      <use xlink:href="#DejaVuSans-47" x="477.636719"/>
      <use xlink:href="#DejaVuSans-72" x="555.126953"/>
     </g>
    </g>
    <g id="line2d_41">
     <path d="M 59.87 113.369062 
L 69.87 113.369062 
L 79.87 113.369062 
" style="fill: none; stroke: #8c564b; stroke-width: 1.5; stroke-linecap: square"/>
     <g>
      <use xlink:href="#m5032f407f3" x="69.87" y="113.369062" style="fill: #8c564b; stroke: #8c564b"/>
     </g>
    </g>
    <g id="text_21">
     <!-- Oscar En -->
     <g transform="translate(87.87 116.869062) scale(0.1 -0.1)">
      <defs>
       <path id="DejaVuSans-4f" d="M 2522 4238 
Q 1834 4238 1429 3725 
Q 1025 3213 1025 2328 
Q 1025 1447 1429 934 
Q 1834 422 2522 422 
Q 3209 422 3611 934 
Q 4013 1447 4013 2328 
Q 4013 3213 3611 3725 
Q 3209 4238 2522 4238 
z
M 2522 4750 
Q 3503 4750 4090 4092 
Q 4678 3434 4678 2328 
Q 4678 1225 4090 567 
Q 3503 -91 2522 -91 
Q 1538 -91 948 565 
Q 359 1222 359 2328 
Q 359 3434 948 4092 
Q 1538 4750 2522 4750 
z
" transform="scale(0.015625)"/>
       <path id="DejaVuSans-45" d="M 628 4666 
L 3578 4666 
L 3578 4134 
L 1259 4134 
L 1259 2753 
L 3481 2753 
L 3481 2222 
L 1259 2222 
L 1259 531 
L 3634 531 
L 3634 0 
L 628 0 
L 628 4666 
z
" transform="scale(0.015625)"/>
      </defs>
      <use xlink:href="#DejaVuSans-4f"/>
      <use xlink:href="#DejaVuSans-73" x="78.710938"/>
      <use xlink:href="#DejaVuSans-63" x="130.810547"/>
      <use xlink:href="#DejaVuSans-61" x="185.791016"/>
      <use xlink:href="#DejaVuSans-72" x="247.070312"/>
      <use xlink:href="#DejaVuSans-20" x="288.183594"/>
      <use xlink:href="#DejaVuSans-45" x="319.970703"/>
      <use xlink:href="#DejaVuSans-6e" x="383.154297"/>
     </g>
    </g>
    <g id="line2d_42">
     <path d="M 59.87 128.047187 
L 69.87 128.047187 
L 79.87 128.047187 
" style="fill: none; stroke: #e377c2; stroke-width: 1.5; stroke-linecap: square"/>
     <g>
      <use xlink:href="#m226950ec48" x="69.87" y="128.047187" style="fill: #e377c2; stroke: #e377c2"/>
     </g>
    </g>
    <g id="text_22">
     <!-- Bjarke Ha -->
     <g transform="translate(87.87 131.547187) scale(0.1 -0.1)">
      <defs>
       <path id="DejaVuSans-6a" d="M 603 3500 
L 1178 3500 
L 1178 -63 
Q 1178 -731 923 -1031 
Q 669 -1331 103 -1331 
L -116 -1331 
L -116 -844 
L 38 -844 
Q 366 -844 484 -692 
Q 603 -541 603 -63 
L 603 3500 
z
M 603 4863 
L 1178 4863 
L 1178 4134 
L 603 4134 
L 603 4863 
z
" transform="scale(0.015625)"/>
       <path id="DejaVuSans-6b" d="M 581 4863 
L 1159 4863 
L 1159 1991 
L 2875 3500 
L 3609 3500 
L 1753 1863 
L 3688 0 
L 2938 0 
L 1159 1709 
L 1159 0 
L 581 0 
L 581 4863 
z
" transform="scale(0.015625)"/>
       <path id="DejaVuSans-48" d="M 628 4666 
L 1259 4666 
L 1259 2753 
L 3553 2753 
L 3553 4666 
L 4184 4666 
L 4184 0 
L 3553 0 
L 3553 2222 
L 1259 2222 
L 1259 0 
L 628 0 
L 628 4666 
z
" transform="scale(0.015625)"/>
      </defs>
      <use xlink:href="#DejaVuSans-42"/>
      <use xlink:href="#DejaVuSans-6a" x="68.603516"/>
      <use xlink:href="#DejaVuSans-61" x="96.386719"/>
      <use xlink:href="#DejaVuSans-72" x="157.666016"/>
      <use xlink:href="#DejaVuSans-6b" x="198.779297"/>
      <use xlink:href="#DejaVuSans-65" x="253.064453"/>
      <use xlink:href="#DejaVuSans-20" x="314.587891"/>
      <use xlink:href="#DejaVuSans-48" x="346.375"/>
      <use xlink:href="#DejaVuSans-61" x="421.570312"/>
     </g>
    </g>
    <g id="line2d_43">
     <path d="M 59.87 142.725312 
L 69.87 142.725312 
L 79.87 142.725312 
" style="fill: none; stroke: #7f7f7f; stroke-width: 1.5; stroke-linecap: square"/>
     <g>
      <use xlink:href="#m13384bbf8c" x="69.87" y="142.725312" style="fill: #7f7f7f; stroke: #7f7f7f"/>
     </g>
    </g>
    <g id="text_23">
     <!-- Sif Ma -->
     <g transform="translate(87.87 146.225312) scale(0.1 -0.1)">
      <defs>
       <path id="DejaVuSans-66" d="M 2375 4863 
L 2375 4384 
L 1825 4384 
Q 1516 4384 1395 4259 
Q 1275 4134 1275 3809 
L 1275 3500 
L 2222 3500 
L 2222 3053 
L 1275 3053 
L 1275 0 
L 697 0 
L 697 3053 
L 147 3053 
L 147 3500 
L 697 3500 
L 697 3744 
Q 697 4328 969 4595 
Q 1241 4863 1831 4863 
L 2375 4863 
z
" transform="scale(0.015625)"/>
      </defs>
      <use xlink:href="#DejaVuSans-53"/>
      <use xlink:href="#DejaVuSans-69" x="63.476562"/>
      <use xlink:href="#DejaVuSans-66" x="91.259766"/>
      <use xlink:href="#DejaVuSans-20" x="126.464844"/>
      <use xlink:href="#DejaVuSans-4d" x="158.251953"/>
      <use xlink:href="#DejaVuSans-61" x="244.53125"/>
     </g>
    </g>
    <g id="line2d_44">
     <path d="M 59.87 157.403437 
L 69.87 157.403437 
L 79.87 157.403437 
" style="fill: none; stroke: #bcbd22; stroke-width: 1.5; stroke-linecap: square"/>
     <g>
      <use xlink:href="#mbcda461bc5" x="69.87" y="157.403437" style="fill: #bcbd22; stroke: #bcbd22"/>
     </g>
    </g>
    <g id="text_24">
     <!-- Helene Cl -->
     <g transform="translate(87.87 160.903437) scale(0.1 -0.1)">
      <use xlink:href="#DejaVuSans-48"/>
      <use xlink:href="#DejaVuSans-65" x="75.195312"/>
      <use xlink:href="#DejaVuSans-6c" x="136.71875"/>
      <use xlink:href="#DejaVuSans-65" x="164.501953"/>
      <use xlink:href="#DejaVuSans-6e" x="226.025391"/>
      <use xlink:href="#DejaVuSans-65" x="289.404297"/>
      <use xlink:href="#DejaVuSans-20" x="350.927734"/>
      <use xlink:href="#DejaVuSans-43" x="382.714844"/>
      <use xlink:href="#DejaVuSans-6c" x="452.539062"/>
     </g>
    </g>
   </g>
  </g>
 </g>
 <defs>
  <clipPath id="pb654ddfb7c">
   <rect x="50.87" y="26.88" width="777.49996" height="377.24"/>
  </clipPath>
 </defs>
</svg>
