<?xml version="1.0" encoding="utf-8" standalone="no"?>
<!DOCTYPE svg PUBLIC "-//W3C//DTD SVG 1.1//EN"
  "http://www.w3.org/Graphics/SVG/1.1/DTD/svg11.dtd">
<svg xmlns:xlink="http://www.w3.org/1999/xlink" width="864pt" height="432pt" viewBox="0 0 864 432" xmlns="http://www.w3.org/2000/svg" version="1.1">
 <metadata>
  <rdf:RDF xmlns:dc="http://purl.org/dc/elements/1.1/" xmlns:cc="http://creativecommons.org/ns#" xmlns:rdf="http://www.w3.org/1999/02/22-rdf-syntax-ns#">
   <cc:Work>
    <dc:type rdf:resource="http://purl.org/dc/dcmitype/StillImage"/>
    <dc:date>2024-07-26T15:29:05.151461</dc:date>
    <dc:format>image/svg+xml</dc:format>
    <dc:creator>
     <cc:Agent>
      <dc:title>Matplotlib v3.9.1, https://matplotlib.org/</dc:title>
     </cc:Agent>
    </dc:creator>
   </cc:Work>
  </rdf:RDF>
 </metadata>
 <defs>
  <style type="text/css">*{stroke-linejoin: round; stroke-linecap: butt}</style>
 </defs>
 <g id="figure_1">
  <g id="patch_1">
   <path d="M 0 432 
L 864 432 
L 864 0 
L 0 0 
z
" style="fill: #ffffff"/>
  </g>
  <g id="axes_1">
   <g id="patch_2">
    <path d="M 50.87 404.12 
L 853.2 404.12 
L 853.2 26.88 
L 50.87 26.88 
z
" style="fill: #ffffff"/>
   </g>
   <g id="matplotlib.axis_1">
    <g id="xtick_1">
     <g id="line2d_1">
      <path d="M 104.705996 404.12 
L 104.705996 26.88 
" clip-path="url(#pc88fa5bf37)" style="fill: none; stroke-dasharray: 2.96,1.28; stroke-dashoffset: 0; stroke: #b0b0b0; stroke-width: 0.8"/>
     </g>
     <g id="line2d_2">
      <defs>
       <path id="mf480c597c3" d="M 0 0 
L 0 3.5 
" style="stroke: #000000; stroke-width: 0.8"/>
      </defs>
      <g>
       <use xlink:href="#mf480c597c3" x="104.705996" y="404.12" style="stroke: #000000; stroke-width: 0.8"/>
      </g>
     </g>
     <g id="text_1">
      <!-- 2024-06-15 -->
      <g transform="translate(75.648183 418.718437) scale(0.1 -0.1)">
       <defs>
        <path id="DejaVuSans-32" d="M 1228 531 
L 3431 531 
L 3431 0 
L 469 0 
L 469 531 
Q 828 903 1448 1529 
Q 2069 2156 2228 2338 
Q 2531 2678 2651 2914 
Q 2772 3150 2772 3378 
Q 2772 3750 2511 3984 
Q 2250 4219 1831 4219 
Q 1534 4219 1204 4116 
Q 875 4013 500 3803 
L 500 4441 
Q 881 4594 1212 4672 
Q 1544 4750 1819 4750 
Q 2544 4750 2975 4387 
Q 3406 4025 3406 3419 
Q 3406 3131 3298 2873 
Q 3191 2616 2906 2266 
Q 2828 2175 2409 1742 
Q 1991 1309 1228 531 
z
" transform="scale(0.015625)"/>
        <path id="DejaVuSans-30" d="M 2034 4250 
Q 1547 4250 1301 3770 
Q 1056 3291 1056 2328 
Q 1056 1369 1301 889 
Q 1547 409 2034 409 
Q 2525 409 2770 889 
Q 3016 1369 3016 2328 
Q 3016 3291 2770 3770 
Q 2525 4250 2034 4250 
z
M 2034 4750 
Q 2819 4750 3233 4129 
Q 3647 3509 3647 2328 
Q 3647 1150 3233 529 
Q 2819 -91 2034 -91 
Q 1250 -91 836 529 
Q 422 1150 422 2328 
Q 422 3509 836 4129 
Q 1250 4750 2034 4750 
z
" transform="scale(0.015625)"/>
        <path id="DejaVuSans-34" d="M 2419 4116 
L 825 1625 
L 2419 1625 
L 2419 4116 
z
M 2253 4666 
L 3047 4666 
L 3047 1625 
L 3713 1625 
L 3713 1100 
L 3047 1100 
L 3047 0 
L 2419 0 
L 2419 1100 
L 313 1100 
L 313 1709 
L 2253 4666 
z
" transform="scale(0.015625)"/>
        <path id="DejaVuSans-2d" d="M 313 2009 
L 1997 2009 
L 1997 1497 
L 313 1497 
L 313 2009 
z
" transform="scale(0.015625)"/>
        <path id="DejaVuSans-36" d="M 2113 2584 
Q 1688 2584 1439 2293 
Q 1191 2003 1191 1497 
Q 1191 994 1439 701 
Q 1688 409 2113 409 
Q 2538 409 2786 701 
Q 3034 994 3034 1497 
Q 3034 2003 2786 2293 
Q 2538 2584 2113 2584 
z
M 3366 4563 
L 3366 3988 
Q 3128 4100 2886 4159 
Q 2644 4219 2406 4219 
Q 1781 4219 1451 3797 
Q 1122 3375 1075 2522 
Q 1259 2794 1537 2939 
Q 1816 3084 2150 3084 
Q 2853 3084 3261 2657 
Q 3669 2231 3669 1497 
Q 3669 778 3244 343 
Q 2819 -91 2113 -91 
Q 1303 -91 875 529 
Q 447 1150 447 2328 
Q 447 3434 972 4092 
Q 1497 4750 2381 4750 
Q 2619 4750 2861 4703 
Q 3103 4656 3366 4563 
z
" transform="scale(0.015625)"/>
        <path id="DejaVuSans-31" d="M 794 531 
L 1825 531 
L 1825 4091 
L 703 3866 
L 703 4441 
L 1819 4666 
L 2450 4666 
L 2450 531 
L 3481 531 
L 3481 0 
L 794 0 
L 794 531 
z
" transform="scale(0.015625)"/>
        <path id="DejaVuSans-35" d="M 691 4666 
L 3169 4666 
L 3169 4134 
L 1269 4134 
L 1269 2991 
Q 1406 3038 1543 3061 
Q 1681 3084 1819 3084 
Q 2600 3084 3056 2656 
Q 3513 2228 3513 1497 
Q 3513 744 3044 326 
Q 2575 -91 1722 -91 
Q 1428 -91 1123 -41 
Q 819 9 494 109 
L 494 744 
Q 775 591 1075 516 
Q 1375 441 1709 441 
Q 2250 441 2565 725 
Q 2881 1009 2881 1497 
Q 2881 1984 2565 2268 
Q 2250 2553 1709 2553 
Q 1456 2553 1204 2497 
Q 953 2441 691 2322 
L 691 4666 
z
" transform="scale(0.015625)"/>
       </defs>
       <use xlink:href="#DejaVuSans-32"/>
       <use xlink:href="#DejaVuSans-30" x="63.623047"/>
       <use xlink:href="#DejaVuSans-32" x="127.246094"/>
       <use xlink:href="#DejaVuSans-34" x="190.869141"/>
       <use xlink:href="#DejaVuSans-2d" x="254.492188"/>
       <use xlink:href="#DejaVuSans-30" x="290.576172"/>
       <use xlink:href="#DejaVuSans-36" x="354.199219"/>
       <use xlink:href="#DejaVuSans-2d" x="417.822266"/>
       <use xlink:href="#DejaVuSans-31" x="453.90625"/>
       <use xlink:href="#DejaVuSans-35" x="517.529297"/>
      </g>
     </g>
    </g>
    <g id="xtick_2">
     <g id="line2d_3">
      <path d="M 226.271147 404.12 
L 226.271147 26.88 
" clip-path="url(#pc88fa5bf37)" style="fill: none; stroke-dasharray: 2.96,1.28; stroke-dashoffset: 0; stroke: #b0b0b0; stroke-width: 0.8"/>
     </g>
     <g id="line2d_4">
      <g>
       <use xlink:href="#mf480c597c3" x="226.271147" y="404.12" style="stroke: #000000; stroke-width: 0.8"/>
      </g>
     </g>
     <g id="text_2">
      <!-- 2024-06-22 -->
      <g transform="translate(197.213335 418.718437) scale(0.1 -0.1)">
       <use xlink:href="#DejaVuSans-32"/>
       <use xlink:href="#DejaVuSans-30" x="63.623047"/>
       <use xlink:href="#DejaVuSans-32" x="127.246094"/>
       <use xlink:href="#DejaVuSans-34" x="190.869141"/>
       <use xlink:href="#DejaVuSans-2d" x="254.492188"/>
       <use xlink:href="#DejaVuSans-30" x="290.576172"/>
       <use xlink:href="#DejaVuSans-36" x="354.199219"/>
       <use xlink:href="#DejaVuSans-2d" x="417.822266"/>
       <use xlink:href="#DejaVuSans-32" x="453.90625"/>
       <use xlink:href="#DejaVuSans-32" x="517.529297"/>
      </g>
     </g>
    </g>
    <g id="xtick_3">
     <g id="line2d_5">
      <path d="M 382.569199 404.12 
L 382.569199 26.88 
" clip-path="url(#pc88fa5bf37)" style="fill: none; stroke-dasharray: 2.96,1.28; stroke-dashoffset: 0; stroke: #b0b0b0; stroke-width: 0.8"/>
     </g>
     <g id="line2d_6">
      <g>
       <use xlink:href="#mf480c597c3" x="382.569199" y="404.12" style="stroke: #000000; stroke-width: 0.8"/>
      </g>
     </g>
     <g id="text_3">
      <!-- 2024-07-01 -->
      <g transform="translate(353.511387 418.718437) scale(0.1 -0.1)">
       <defs>
        <path id="DejaVuSans-37" d="M 525 4666 
L 3525 4666 
L 3525 4397 
L 1831 0 
L 1172 0 
L 2766 4134 
L 525 4134 
L 525 4666 
z
" transform="scale(0.015625)"/>
       </defs>
       <use xlink:href="#DejaVuSans-32"/>
       <use xlink:href="#DejaVuSans-30" x="63.623047"/>
       <use xlink:href="#DejaVuSans-32" x="127.246094"/>
       <use xlink:href="#DejaVuSans-34" x="190.869141"/>
       <use xlink:href="#DejaVuSans-2d" x="254.492188"/>
       <use xlink:href="#DejaVuSans-30" x="290.576172"/>
       <use xlink:href="#DejaVuSans-37" x="354.199219"/>
       <use xlink:href="#DejaVuSans-2d" x="417.822266"/>
       <use xlink:href="#DejaVuSans-30" x="453.90625"/>
       <use xlink:href="#DejaVuSans-31" x="517.529297"/>
      </g>
     </g>
    </g>
    <g id="xtick_4">
     <g id="line2d_7">
      <path d="M 504.134351 404.12 
L 504.134351 26.88 
" clip-path="url(#pc88fa5bf37)" style="fill: none; stroke-dasharray: 2.96,1.28; stroke-dashoffset: 0; stroke: #b0b0b0; stroke-width: 0.8"/>
     </g>
     <g id="line2d_8">
      <g>
       <use xlink:href="#mf480c597c3" x="504.134351" y="404.12" style="stroke: #000000; stroke-width: 0.8"/>
      </g>
     </g>
     <g id="text_4">
      <!-- 2024-07-08 -->
      <g transform="translate(475.076538 418.718437) scale(0.1 -0.1)">
       <defs>
        <path id="DejaVuSans-38" d="M 2034 2216 
Q 1584 2216 1326 1975 
Q 1069 1734 1069 1313 
Q 1069 891 1326 650 
Q 1584 409 2034 409 
Q 2484 409 2743 651 
Q 3003 894 3003 1313 
Q 3003 1734 2745 1975 
Q 2488 2216 2034 2216 
z
M 1403 2484 
Q 997 2584 770 2862 
Q 544 3141 544 3541 
Q 544 4100 942 4425 
Q 1341 4750 2034 4750 
Q 2731 4750 3128 4425 
Q 3525 4100 3525 3541 
Q 3525 3141 3298 2862 
Q 3072 2584 2669 2484 
Q 3125 2378 3379 2068 
Q 3634 1759 3634 1313 
Q 3634 634 3220 271 
Q 2806 -91 2034 -91 
Q 1263 -91 848 271 
Q 434 634 434 1313 
Q 434 1759 690 2068 
Q 947 2378 1403 2484 
z
M 1172 3481 
Q 1172 3119 1398 2916 
Q 1625 2713 2034 2713 
Q 2441 2713 2670 2916 
Q 2900 3119 2900 3481 
Q 2900 3844 2670 4047 
Q 2441 4250 2034 4250 
Q 1625 4250 1398 4047 
Q 1172 3844 1172 3481 
z
" transform="scale(0.015625)"/>
       </defs>
       <use xlink:href="#DejaVuSans-32"/>
       <use xlink:href="#DejaVuSans-30" x="63.623047"/>
       <use xlink:href="#DejaVuSans-32" x="127.246094"/>
       <use xlink:href="#DejaVuSans-34" x="190.869141"/>
       <use xlink:href="#DejaVuSans-2d" x="254.492188"/>
       <use xlink:href="#DejaVuSans-30" x="290.576172"/>
       <use xlink:href="#DejaVuSans-37" x="354.199219"/>
       <use xlink:href="#DejaVuSans-2d" x="417.822266"/>
       <use xlink:href="#DejaVuSans-30" x="453.90625"/>
       <use xlink:href="#DejaVuSans-38" x="517.529297"/>
      </g>
     </g>
    </g>
    <g id="xtick_5">
     <g id="line2d_9">
      <path d="M 625.699502 404.12 
L 625.699502 26.88 
" clip-path="url(#pc88fa5bf37)" style="fill: none; stroke-dasharray: 2.96,1.28; stroke-dashoffset: 0; stroke: #b0b0b0; stroke-width: 0.8"/>
     </g>
     <g id="line2d_10">
      <g>
       <use xlink:href="#mf480c597c3" x="625.699502" y="404.12" style="stroke: #000000; stroke-width: 0.8"/>
      </g>
     </g>
     <g id="text_5">
      <!-- 2024-07-15 -->
      <g transform="translate(596.64169 418.718437) scale(0.1 -0.1)">
       <use xlink:href="#DejaVuSans-32"/>
       <use xlink:href="#DejaVuSans-30" x="63.623047"/>
       <use xlink:href="#DejaVuSans-32" x="127.246094"/>
       <use xlink:href="#DejaVuSans-34" x="190.869141"/>
       <use xlink:href="#DejaVuSans-2d" x="254.492188"/>
       <use xlink:href="#DejaVuSans-30" x="290.576172"/>
       <use xlink:href="#DejaVuSans-37" x="354.199219"/>
       <use xlink:href="#DejaVuSans-2d" x="417.822266"/>
       <use xlink:href="#DejaVuSans-31" x="453.90625"/>
       <use xlink:href="#DejaVuSans-35" x="517.529297"/>
      </g>
     </g>
    </g>
    <g id="xtick_6">
     <g id="line2d_11">
      <path d="M 747.264654 404.12 
L 747.264654 26.88 
" clip-path="url(#pc88fa5bf37)" style="fill: none; stroke-dasharray: 2.96,1.28; stroke-dashoffset: 0; stroke: #b0b0b0; stroke-width: 0.8"/>
     </g>
     <g id="line2d_12">
      <g>
       <use xlink:href="#mf480c597c3" x="747.264654" y="404.12" style="stroke: #000000; stroke-width: 0.8"/>
      </g>
     </g>
     <g id="text_6">
      <!-- 2024-07-22 -->
      <g transform="translate(718.206841 418.718437) scale(0.1 -0.1)">
       <use xlink:href="#DejaVuSans-32"/>
       <use xlink:href="#DejaVuSans-30" x="63.623047"/>
       <use xlink:href="#DejaVuSans-32" x="127.246094"/>
       <use xlink:href="#DejaVuSans-34" x="190.869141"/>
       <use xlink:href="#DejaVuSans-2d" x="254.492188"/>
       <use xlink:href="#DejaVuSans-30" x="290.576172"/>
       <use xlink:href="#DejaVuSans-37" x="354.199219"/>
       <use xlink:href="#DejaVuSans-2d" x="417.822266"/>
       <use xlink:href="#DejaVuSans-32" x="453.90625"/>
       <use xlink:href="#DejaVuSans-32" x="517.529297"/>
      </g>
     </g>
    </g>
   </g>
   <g id="matplotlib.axis_2">
    <g id="ytick_1">
     <g id="line2d_13">
      <path d="M 50.87 389.52213 
L 853.2 389.52213 
" clip-path="url(#pc88fa5bf37)" style="fill: none; stroke-dasharray: 2.96,1.28; stroke-dashoffset: 0; stroke: #b0b0b0; stroke-width: 0.8"/>
     </g>
     <g id="line2d_14">
      <defs>
       <path id="m80ac32e33f" d="M 0 0 
L -3.5 0 
" style="stroke: #000000; stroke-width: 0.8"/>
      </defs>
      <g>
       <use xlink:href="#m80ac32e33f" x="50.87" y="389.52213" style="stroke: #000000; stroke-width: 0.8"/>
      </g>
     </g>
     <g id="text_7">
      <!-- 0 -->
      <g transform="translate(37.5075 393.321349) scale(0.1 -0.1)">
       <use xlink:href="#DejaVuSans-30"/>
      </g>
     </g>
    </g>
    <g id="ytick_2">
     <g id="line2d_15">
      <path d="M 50.87 326.484815 
L 853.2 326.484815 
" clip-path="url(#pc88fa5bf37)" style="fill: none; stroke-dasharray: 2.96,1.28; stroke-dashoffset: 0; stroke: #b0b0b0; stroke-width: 0.8"/>
     </g>
     <g id="line2d_16">
      <g>
       <use xlink:href="#m80ac32e33f" x="50.87" y="326.484815" style="stroke: #000000; stroke-width: 0.8"/>
      </g>
     </g>
     <g id="text_8">
      <!-- 50 -->
      <g transform="translate(31.145 330.284034) scale(0.1 -0.1)">
       <use xlink:href="#DejaVuSans-35"/>
       <use xlink:href="#DejaVuSans-30" x="63.623047"/>
      </g>
     </g>
    </g>
    <g id="ytick_3">
     <g id="line2d_17">
      <path d="M 50.87 263.4475 
L 853.2 263.4475 
" clip-path="url(#pc88fa5bf37)" style="fill: none; stroke-dasharray: 2.96,1.28; stroke-dashoffset: 0; stroke: #b0b0b0; stroke-width: 0.8"/>
     </g>
     <g id="line2d_18">
      <g>
       <use xlink:href="#m80ac32e33f" x="50.87" y="263.4475" style="stroke: #000000; stroke-width: 0.8"/>
      </g>
     </g>
     <g id="text_9">
      <!-- 100 -->
      <g transform="translate(24.7825 267.246719) scale(0.1 -0.1)">
       <use xlink:href="#DejaVuSans-31"/>
       <use xlink:href="#DejaVuSans-30" x="63.623047"/>
       <use xlink:href="#DejaVuSans-30" x="127.246094"/>
      </g>
     </g>
    </g>
    <g id="ytick_4">
     <g id="line2d_19">
      <path d="M 50.87 200.410185 
L 853.2 200.410185 
" clip-path="url(#pc88fa5bf37)" style="fill: none; stroke-dasharray: 2.96,1.28; stroke-dashoffset: 0; stroke: #b0b0b0; stroke-width: 0.8"/>
     </g>
     <g id="line2d_20">
      <g>
       <use xlink:href="#m80ac32e33f" x="50.87" y="200.410185" style="stroke: #000000; stroke-width: 0.8"/>
      </g>
     </g>
     <g id="text_10">
      <!-- 150 -->
      <g transform="translate(24.7825 204.209404) scale(0.1 -0.1)">
       <use xlink:href="#DejaVuSans-31"/>
       <use xlink:href="#DejaVuSans-35" x="63.623047"/>
       <use xlink:href="#DejaVuSans-30" x="127.246094"/>
      </g>
     </g>
    </g>
    <g id="ytick_5">
     <g id="line2d_21">
      <path d="M 50.87 137.37287 
L 853.2 137.37287 
" clip-path="url(#pc88fa5bf37)" style="fill: none; stroke-dasharray: 2.96,1.28; stroke-dashoffset: 0; stroke: #b0b0b0; stroke-width: 0.8"/>
     </g>
     <g id="line2d_22">
      <g>
       <use xlink:href="#m80ac32e33f" x="50.87" y="137.37287" style="stroke: #000000; stroke-width: 0.8"/>
      </g>
     </g>
     <g id="text_11">
      <!-- 200 -->
      <g transform="translate(24.7825 141.172089) scale(0.1 -0.1)">
       <use xlink:href="#DejaVuSans-32"/>
       <use xlink:href="#DejaVuSans-30" x="63.623047"/>
       <use xlink:href="#DejaVuSans-30" x="127.246094"/>
      </g>
     </g>
    </g>
    <g id="ytick_6">
     <g id="line2d_23">
      <path d="M 50.87 74.335555 
L 853.2 74.335555 
" clip-path="url(#pc88fa5bf37)" style="fill: none; stroke-dasharray: 2.96,1.28; stroke-dashoffset: 0; stroke: #b0b0b0; stroke-width: 0.8"/>
     </g>
     <g id="line2d_24">
      <g>
       <use xlink:href="#m80ac32e33f" x="50.87" y="74.335555" style="stroke: #000000; stroke-width: 0.8"/>
      </g>
     </g>
     <g id="text_12">
      <!-- 250 -->
      <g transform="translate(24.7825 78.134774) scale(0.1 -0.1)">
       <use xlink:href="#DejaVuSans-32"/>
       <use xlink:href="#DejaVuSans-35" x="63.623047"/>
       <use xlink:href="#DejaVuSans-30" x="127.246094"/>
      </g>
     </g>
    </g>
    <g id="text_13">
     <!-- Score -->
     <g transform="translate(18.702813 229.502344) rotate(-90) scale(0.1 -0.1)">
      <defs>
       <path id="DejaVuSans-53" d="M 3425 4513 
L 3425 3897 
Q 3066 4069 2747 4153 
Q 2428 4238 2131 4238 
Q 1616 4238 1336 4038 
Q 1056 3838 1056 3469 
Q 1056 3159 1242 3001 
Q 1428 2844 1947 2747 
L 2328 2669 
Q 3034 2534 3370 2195 
Q 3706 1856 3706 1288 
Q 3706 609 3251 259 
Q 2797 -91 1919 -91 
Q 1588 -91 1214 -16 
Q 841 59 441 206 
L 441 856 
Q 825 641 1194 531 
Q 1563 422 1919 422 
Q 2459 422 2753 634 
Q 3047 847 3047 1241 
Q 3047 1584 2836 1778 
Q 2625 1972 2144 2069 
L 1759 2144 
Q 1053 2284 737 2584 
Q 422 2884 422 3419 
Q 422 4038 858 4394 
Q 1294 4750 2059 4750 
Q 2388 4750 2728 4690 
Q 3069 4631 3425 4513 
z
" transform="scale(0.015625)"/>
       <path id="DejaVuSans-63" d="M 3122 3366 
L 3122 2828 
Q 2878 2963 2633 3030 
Q 2388 3097 2138 3097 
Q 1578 3097 1268 2742 
Q 959 2388 959 1747 
Q 959 1106 1268 751 
Q 1578 397 2138 397 
Q 2388 397 2633 464 
Q 2878 531 3122 666 
L 3122 134 
Q 2881 22 2623 -34 
Q 2366 -91 2075 -91 
Q 1284 -91 818 406 
Q 353 903 353 1747 
Q 353 2603 823 3093 
Q 1294 3584 2113 3584 
Q 2378 3584 2631 3529 
Q 2884 3475 3122 3366 
z
" transform="scale(0.015625)"/>
       <path id="DejaVuSans-6f" d="M 1959 3097 
Q 1497 3097 1228 2736 
Q 959 2375 959 1747 
Q 959 1119 1226 758 
Q 1494 397 1959 397 
Q 2419 397 2687 759 
Q 2956 1122 2956 1747 
Q 2956 2369 2687 2733 
Q 2419 3097 1959 3097 
z
M 1959 3584 
Q 2709 3584 3137 3096 
Q 3566 2609 3566 1747 
Q 3566 888 3137 398 
Q 2709 -91 1959 -91 
Q 1206 -91 779 398 
Q 353 888 353 1747 
Q 353 2609 779 3096 
Q 1206 3584 1959 3584 
z
" transform="scale(0.015625)"/>
       <path id="DejaVuSans-72" d="M 2631 2963 
Q 2534 3019 2420 3045 
Q 2306 3072 2169 3072 
Q 1681 3072 1420 2755 
Q 1159 2438 1159 1844 
L 1159 0 
L 581 0 
L 581 3500 
L 1159 3500 
L 1159 2956 
Q 1341 3275 1631 3429 
Q 1922 3584 2338 3584 
Q 2397 3584 2469 3576 
Q 2541 3569 2628 3553 
L 2631 2963 
z
" transform="scale(0.015625)"/>
       <path id="DejaVuSans-65" d="M 3597 1894 
L 3597 1613 
L 953 1613 
Q 991 1019 1311 708 
Q 1631 397 2203 397 
Q 2534 397 2845 478 
Q 3156 559 3463 722 
L 3463 178 
Q 3153 47 2828 -22 
Q 2503 -91 2169 -91 
Q 1331 -91 842 396 
Q 353 884 353 1716 
Q 353 2575 817 3079 
Q 1281 3584 2069 3584 
Q 2775 3584 3186 3129 
Q 3597 2675 3597 1894 
z
M 3022 2063 
Q 3016 2534 2758 2815 
Q 2500 3097 2075 3097 
Q 1594 3097 1305 2825 
Q 1016 2553 972 2059 
L 3022 2063 
z
" transform="scale(0.015625)"/>
      </defs>
      <use xlink:href="#DejaVuSans-53"/>
      <use xlink:href="#DejaVuSans-63" x="63.476562"/>
      <use xlink:href="#DejaVuSans-6f" x="118.457031"/>
      <use xlink:href="#DejaVuSans-72" x="179.638672"/>
      <use xlink:href="#DejaVuSans-65" x="218.501953"/>
     </g>
    </g>
   </g>
   <g id="line2d_25">
    <path d="M 87.339545 383.139376 
L 104.705996 357.92445 
L 122.072446 346.577734 
L 139.438896 337.752509 
L 156.805346 325.145046 
L 174.171797 313.79833 
L 191.538247 313.79833 
L 208.904697 294.887135 
L 226.271147 260.846985 
L 243.637597 236.892805 
L 261.004048 209.156387 
L 278.370498 191.505939 
L 295.736948 161.248027 
L 347.836299 161.248027 
L 365.202749 161.248027 
L 382.569199 161.248027 
L 399.935649 161.248027 
L 417.3021 161.248027 
L 452.035 161.248027 
L 469.40145 161.248027 
L 486.7679 161.248027 
L 504.134351 161.248027 
L 521.500801 161.248027 
L 538.867251 161.248027 
L 556.233701 161.248027 
L 573.600152 161.248027 
L 590.966602 161.248027 
L 608.333052 161.248027 
L 625.699502 123.425638 
L 643.065952 123.425638 
L 660.432403 123.425638 
L 677.798853 123.425638 
L 695.165303 123.425638 
L 712.531753 123.425638 
L 729.898203 123.425638 
L 747.264654 123.425638 
L 764.631104 123.425638 
L 781.997554 123.425638 
L 799.364004 123.425638 
L 816.730455 123.425638 
" clip-path="url(#pc88fa5bf37)" style="fill: none; stroke: #1f77b4; stroke-width: 1.5; stroke-linecap: square"/>
    <defs>
     <path id="m60e77291ac" d="M 0 3.5 
C 0.928211 3.5 1.81853 3.131218 2.474874 2.474874 
C 3.131218 1.81853 3.5 0.928211 3.5 0 
C 3.5 -0.928211 3.131218 -1.81853 2.474874 -2.474874 
C 1.81853 -3.131218 0.928211 -3.5 0 -3.5 
C -0.928211 -3.5 -1.81853 -3.131218 -2.474874 -2.474874 
C -3.131218 -1.81853 -3.5 -0.928211 -3.5 0 
C -3.5 0.928211 -3.131218 1.81853 -2.474874 2.474874 
C -1.81853 3.131218 -0.928211 3.5 0 3.5 
z
" style="stroke: #1f77b4"/>
    </defs>
    <g clip-path="url(#pc88fa5bf37)">
     <use xlink:href="#m60e77291ac" x="87.339545" y="383.139376" style="fill: #1f77b4; stroke: #1f77b4"/>
     <use xlink:href="#m60e77291ac" x="104.705996" y="357.92445" style="fill: #1f77b4; stroke: #1f77b4"/>
     <use xlink:href="#m60e77291ac" x="122.072446" y="346.577734" style="fill: #1f77b4; stroke: #1f77b4"/>
     <use xlink:href="#m60e77291ac" x="139.438896" y="337.752509" style="fill: #1f77b4; stroke: #1f77b4"/>
     <use xlink:href="#m60e77291ac" x="156.805346" y="325.145046" style="fill: #1f77b4; stroke: #1f77b4"/>
     <use xlink:href="#m60e77291ac" x="174.171797" y="313.79833" style="fill: #1f77b4; stroke: #1f77b4"/>
     <use xlink:href="#m60e77291ac" x="191.538247" y="313.79833" style="fill: #1f77b4; stroke: #1f77b4"/>
     <use xlink:href="#m60e77291ac" x="208.904697" y="294.887135" style="fill: #1f77b4; stroke: #1f77b4"/>
     <use xlink:href="#m60e77291ac" x="226.271147" y="260.846985" style="fill: #1f77b4; stroke: #1f77b4"/>
     <use xlink:href="#m60e77291ac" x="243.637597" y="236.892805" style="fill: #1f77b4; stroke: #1f77b4"/>
     <use xlink:href="#m60e77291ac" x="261.004048" y="209.156387" style="fill: #1f77b4; stroke: #1f77b4"/>
     <use xlink:href="#m60e77291ac" x="278.370498" y="191.505939" style="fill: #1f77b4; stroke: #1f77b4"/>
     <use xlink:href="#m60e77291ac" x="295.736948" y="161.248027" style="fill: #1f77b4; stroke: #1f77b4"/>
     <use xlink:href="#m60e77291ac" x="347.836299" y="161.248027" style="fill: #1f77b4; stroke: #1f77b4"/>
     <use xlink:href="#m60e77291ac" x="365.202749" y="161.248027" style="fill: #1f77b4; stroke: #1f77b4"/>
     <use xlink:href="#m60e77291ac" x="382.569199" y="161.248027" style="fill: #1f77b4; stroke: #1f77b4"/>
     <use xlink:href="#m60e77291ac" x="399.935649" y="161.248027" style="fill: #1f77b4; stroke: #1f77b4"/>
     <use xlink:href="#m60e77291ac" x="417.3021" y="161.248027" style="fill: #1f77b4; stroke: #1f77b4"/>
     <use xlink:href="#m60e77291ac" x="452.035" y="161.248027" style="fill: #1f77b4; stroke: #1f77b4"/>
     <use xlink:href="#m60e77291ac" x="469.40145" y="161.248027" style="fill: #1f77b4; stroke: #1f77b4"/>
     <use xlink:href="#m60e77291ac" x="486.7679" y="161.248027" style="fill: #1f77b4; stroke: #1f77b4"/>
     <use xlink:href="#m60e77291ac" x="504.134351" y="161.248027" style="fill: #1f77b4; stroke: #1f77b4"/>
     <use xlink:href="#m60e77291ac" x="521.500801" y="161.248027" style="fill: #1f77b4; stroke: #1f77b4"/>
     <use xlink:href="#m60e77291ac" x="538.867251" y="161.248027" style="fill: #1f77b4; stroke: #1f77b4"/>
     <use xlink:href="#m60e77291ac" x="556.233701" y="161.248027" style="fill: #1f77b4; stroke: #1f77b4"/>
     <use xlink:href="#m60e77291ac" x="573.600152" y="161.248027" style="fill: #1f77b4; stroke: #1f77b4"/>
     <use xlink:href="#m60e77291ac" x="590.966602" y="161.248027" style="fill: #1f77b4; stroke: #1f77b4"/>
     <use xlink:href="#m60e77291ac" x="608.333052" y="161.248027" style="fill: #1f77b4; stroke: #1f77b4"/>
     <use xlink:href="#m60e77291ac" x="625.699502" y="123.425638" style="fill: #1f77b4; stroke: #1f77b4"/>
     <use xlink:href="#m60e77291ac" x="643.065952" y="123.425638" style="fill: #1f77b4; stroke: #1f77b4"/>
     <use xlink:href="#m60e77291ac" x="660.432403" y="123.425638" style="fill: #1f77b4; stroke: #1f77b4"/>
     <use xlink:href="#m60e77291ac" x="677.798853" y="123.425638" style="fill: #1f77b4; stroke: #1f77b4"/>
     <use xlink:href="#m60e77291ac" x="695.165303" y="123.425638" style="fill: #1f77b4; stroke: #1f77b4"/>
     <use xlink:href="#m60e77291ac" x="712.531753" y="123.425638" style="fill: #1f77b4; stroke: #1f77b4"/>
     <use xlink:href="#m60e77291ac" x="729.898203" y="123.425638" style="fill: #1f77b4; stroke: #1f77b4"/>
     <use xlink:href="#m60e77291ac" x="747.264654" y="123.425638" style="fill: #1f77b4; stroke: #1f77b4"/>
     <use xlink:href="#m60e77291ac" x="764.631104" y="123.425638" style="fill: #1f77b4; stroke: #1f77b4"/>
     <use xlink:href="#m60e77291ac" x="781.997554" y="123.425638" style="fill: #1f77b4; stroke: #1f77b4"/>
     <use xlink:href="#m60e77291ac" x="799.364004" y="123.425638" style="fill: #1f77b4; stroke: #1f77b4"/>
     <use xlink:href="#m60e77291ac" x="816.730455" y="123.425638" style="fill: #1f77b4; stroke: #1f77b4"/>
    </g>
   </g>
   <g id="line2d_26">
    <path d="M 87.339545 386.972727 
L 104.705996 349.150338 
L 122.072446 321.41392 
L 139.438896 306.284964 
L 156.805346 287.37377 
L 174.171797 269.723321 
L 191.538247 245.769142 
L 208.904697 240.726156 
L 226.271147 206.686006 
L 243.637597 197.860782 
L 261.004048 176.428095 
L 278.370498 162.559886 
L 295.736948 125.998243 
L 347.836299 125.998243 
L 365.202749 125.998243 
L 382.569199 125.998243 
L 399.935649 125.998243 
L 417.3021 125.998243 
L 452.035 125.998243 
L 469.40145 125.998243 
L 486.7679 125.998243 
L 504.134351 125.998243 
L 521.500801 125.998243 
L 538.867251 125.998243 
L 556.233701 125.998243 
L 573.600152 125.998243 
L 590.966602 125.998243 
L 608.333052 125.998243 
L 625.699502 119.694512 
L 643.065952 119.694512 
L 660.432403 119.694512 
L 677.798853 119.694512 
L 695.165303 119.694512 
L 712.531753 119.694512 
L 729.898203 119.694512 
L 747.264654 119.694512 
L 764.631104 119.694512 
L 781.997554 119.694512 
L 799.364004 119.694512 
L 816.730455 119.694512 
" clip-path="url(#pc88fa5bf37)" style="fill: none; stroke: #ff7f0e; stroke-width: 1.5; stroke-linecap: square"/>
    <defs>
     <path id="m6dd61671fa" d="M 0 3.5 
C 0.928211 3.5 1.81853 3.131218 2.474874 2.474874 
C 3.131218 1.81853 3.5 0.928211 3.5 0 
C 3.5 -0.928211 3.131218 -1.81853 2.474874 -2.474874 
C 1.81853 -3.131218 0.928211 -3.5 0 -3.5 
C -0.928211 -3.5 -1.81853 -3.131218 -2.474874 -2.474874 
C -3.131218 -1.81853 -3.5 -0.928211 -3.5 0 
C -3.5 0.928211 -3.131218 1.81853 -2.474874 2.474874 
C -1.81853 3.131218 -0.928211 3.5 0 3.5 
z
" style="stroke: #ff7f0e"/>
    </defs>
    <g clip-path="url(#pc88fa5bf37)">
     <use xlink:href="#m6dd61671fa" x="87.339545" y="386.972727" style="fill: #ff7f0e; stroke: #ff7f0e"/>
     <use xlink:href="#m6dd61671fa" x="104.705996" y="349.150338" style="fill: #ff7f0e; stroke: #ff7f0e"/>
     <use xlink:href="#m6dd61671fa" x="122.072446" y="321.41392" style="fill: #ff7f0e; stroke: #ff7f0e"/>
     <use xlink:href="#m6dd61671fa" x="139.438896" y="306.284964" style="fill: #ff7f0e; stroke: #ff7f0e"/>
     <use xlink:href="#m6dd61671fa" x="156.805346" y="287.37377" style="fill: #ff7f0e; stroke: #ff7f0e"/>
     <use xlink:href="#m6dd61671fa" x="174.171797" y="269.723321" style="fill: #ff7f0e; stroke: #ff7f0e"/>
     <use xlink:href="#m6dd61671fa" x="191.538247" y="245.769142" style="fill: #ff7f0e; stroke: #ff7f0e"/>
     <use xlink:href="#m6dd61671fa" x="208.904697" y="240.726156" style="fill: #ff7f0e; stroke: #ff7f0e"/>
     <use xlink:href="#m6dd61671fa" x="226.271147" y="206.686006" style="fill: #ff7f0e; stroke: #ff7f0e"/>
     <use xlink:href="#m6dd61671fa" x="243.637597" y="197.860782" style="fill: #ff7f0e; stroke: #ff7f0e"/>
     <use xlink:href="#m6dd61671fa" x="261.004048" y="176.428095" style="fill: #ff7f0e; stroke: #ff7f0e"/>
     <use xlink:href="#m6dd61671fa" x="278.370498" y="162.559886" style="fill: #ff7f0e; stroke: #ff7f0e"/>
     <use xlink:href="#m6dd61671fa" x="295.736948" y="125.998243" style="fill: #ff7f0e; stroke: #ff7f0e"/>
     <use xlink:href="#m6dd61671fa" x="347.836299" y="125.998243" style="fill: #ff7f0e; stroke: #ff7f0e"/>
     <use xlink:href="#m6dd61671fa" x="365.202749" y="125.998243" style="fill: #ff7f0e; stroke: #ff7f0e"/>
     <use xlink:href="#m6dd61671fa" x="382.569199" y="125.998243" style="fill: #ff7f0e; stroke: #ff7f0e"/>
     <use xlink:href="#m6dd61671fa" x="399.935649" y="125.998243" style="fill: #ff7f0e; stroke: #ff7f0e"/>
     <use xlink:href="#m6dd61671fa" x="417.3021" y="125.998243" style="fill: #ff7f0e; stroke: #ff7f0e"/>
     <use xlink:href="#m6dd61671fa" x="452.035" y="125.998243" style="fill: #ff7f0e; stroke: #ff7f0e"/>
     <use xlink:href="#m6dd61671fa" x="469.40145" y="125.998243" style="fill: #ff7f0e; stroke: #ff7f0e"/>
     <use xlink:href="#m6dd61671fa" x="486.7679" y="125.998243" style="fill: #ff7f0e; stroke: #ff7f0e"/>
     <use xlink:href="#m6dd61671fa" x="504.134351" y="125.998243" style="fill: #ff7f0e; stroke: #ff7f0e"/>
     <use xlink:href="#m6dd61671fa" x="521.500801" y="125.998243" style="fill: #ff7f0e; stroke: #ff7f0e"/>
     <use xlink:href="#m6dd61671fa" x="538.867251" y="125.998243" style="fill: #ff7f0e; stroke: #ff7f0e"/>
     <use xlink:href="#m6dd61671fa" x="556.233701" y="125.998243" style="fill: #ff7f0e; stroke: #ff7f0e"/>
     <use xlink:href="#m6dd61671fa" x="573.600152" y="125.998243" style="fill: #ff7f0e; stroke: #ff7f0e"/>
     <use xlink:href="#m6dd61671fa" x="590.966602" y="125.998243" style="fill: #ff7f0e; stroke: #ff7f0e"/>
     <use xlink:href="#m6dd61671fa" x="608.333052" y="125.998243" style="fill: #ff7f0e; stroke: #ff7f0e"/>
     <use xlink:href="#m6dd61671fa" x="625.699502" y="119.694512" style="fill: #ff7f0e; stroke: #ff7f0e"/>
     <use xlink:href="#m6dd61671fa" x="643.065952" y="119.694512" style="fill: #ff7f0e; stroke: #ff7f0e"/>
     <use xlink:href="#m6dd61671fa" x="660.432403" y="119.694512" style="fill: #ff7f0e; stroke: #ff7f0e"/>
     <use xlink:href="#m6dd61671fa" x="677.798853" y="119.694512" style="fill: #ff7f0e; stroke: #ff7f0e"/>
     <use xlink:href="#m6dd61671fa" x="695.165303" y="119.694512" style="fill: #ff7f0e; stroke: #ff7f0e"/>
     <use xlink:href="#m6dd61671fa" x="712.531753" y="119.694512" style="fill: #ff7f0e; stroke: #ff7f0e"/>
     <use xlink:href="#m6dd61671fa" x="729.898203" y="119.694512" style="fill: #ff7f0e; stroke: #ff7f0e"/>
     <use xlink:href="#m6dd61671fa" x="747.264654" y="119.694512" style="fill: #ff7f0e; stroke: #ff7f0e"/>
     <use xlink:href="#m6dd61671fa" x="764.631104" y="119.694512" style="fill: #ff7f0e; stroke: #ff7f0e"/>
     <use xlink:href="#m6dd61671fa" x="781.997554" y="119.694512" style="fill: #ff7f0e; stroke: #ff7f0e"/>
     <use xlink:href="#m6dd61671fa" x="799.364004" y="119.694512" style="fill: #ff7f0e; stroke: #ff7f0e"/>
     <use xlink:href="#m6dd61671fa" x="816.730455" y="119.694512" style="fill: #ff7f0e; stroke: #ff7f0e"/>
    </g>
   </g>
   <g id="line2d_27">
    <path d="M 87.339545 376.835399 
L 104.705996 351.620473 
L 122.072446 332.709278 
L 139.438896 320.101815 
L 156.805346 288.583158 
L 174.171797 270.932709 
L 191.538247 259.585993 
L 208.904697 225.545843 
L 226.271147 194.027185 
L 243.637597 166.290767 
L 261.004048 144.858079 
L 278.370498 137.293602 
L 295.736948 80.560018 
L 347.836299 80.560018 
L 365.202749 80.560018 
L 382.569199 80.560018 
L 399.935649 80.560018 
L 417.3021 80.560018 
L 452.035 80.560018 
L 469.40145 80.560018 
L 486.7679 80.560018 
L 504.134351 80.560018 
L 521.500801 80.560018 
L 538.867251 80.560018 
L 556.233701 80.560018 
L 573.600152 80.560018 
L 590.966602 80.560018 
L 608.333052 80.560018 
L 625.699502 80.560018 
L 643.065952 80.560018 
L 660.432403 80.560018 
L 677.798853 80.560018 
L 695.165303 80.560018 
L 712.531753 80.560018 
L 729.898203 80.560018 
L 747.264654 80.560018 
L 764.631104 80.560018 
L 781.997554 80.560018 
L 799.364004 80.560018 
L 816.730455 80.560018 
" clip-path="url(#pc88fa5bf37)" style="fill: none; stroke: #2ca02c; stroke-width: 1.5; stroke-linecap: square"/>
    <defs>
     <path id="m59d87a12b8" d="M 0 3.5 
C 0.928211 3.5 1.81853 3.131218 2.474874 2.474874 
C 3.131218 1.81853 3.5 0.928211 3.5 0 
C 3.5 -0.928211 3.131218 -1.81853 2.474874 -2.474874 
C 1.81853 -3.131218 0.928211 -3.5 0 -3.5 
C -0.928211 -3.5 -1.81853 -3.131218 -2.474874 -2.474874 
C -3.131218 -1.81853 -3.5 -0.928211 -3.5 0 
C -3.5 0.928211 -3.131218 1.81853 -2.474874 2.474874 
C -1.81853 3.131218 -0.928211 3.5 0 3.5 
z
" style="stroke: #2ca02c"/>
    </defs>
    <g clip-path="url(#pc88fa5bf37)">
     <use xlink:href="#m59d87a12b8" x="87.339545" y="376.835399" style="fill: #2ca02c; stroke: #2ca02c"/>
     <use xlink:href="#m59d87a12b8" x="104.705996" y="351.620473" style="fill: #2ca02c; stroke: #2ca02c"/>
     <use xlink:href="#m59d87a12b8" x="122.072446" y="332.709278" style="fill: #2ca02c; stroke: #2ca02c"/>
     <use xlink:href="#m59d87a12b8" x="139.438896" y="320.101815" style="fill: #2ca02c; stroke: #2ca02c"/>
     <use xlink:href="#m59d87a12b8" x="156.805346" y="288.583158" style="fill: #2ca02c; stroke: #2ca02c"/>
     <use xlink:href="#m59d87a12b8" x="174.171797" y="270.932709" style="fill: #2ca02c; stroke: #2ca02c"/>
     <use xlink:href="#m59d87a12b8" x="191.538247" y="259.585993" style="fill: #2ca02c; stroke: #2ca02c"/>
     <use xlink:href="#m59d87a12b8" x="208.904697" y="225.545843" style="fill: #2ca02c; stroke: #2ca02c"/>
     <use xlink:href="#m59d87a12b8" x="226.271147" y="194.027185" style="fill: #2ca02c; stroke: #2ca02c"/>
     <use xlink:href="#m59d87a12b8" x="243.637597" y="166.290767" style="fill: #2ca02c; stroke: #2ca02c"/>
     <use xlink:href="#m59d87a12b8" x="261.004048" y="144.858079" style="fill: #2ca02c; stroke: #2ca02c"/>
     <use xlink:href="#m59d87a12b8" x="278.370498" y="137.293602" style="fill: #2ca02c; stroke: #2ca02c"/>
     <use xlink:href="#m59d87a12b8" x="295.736948" y="80.560018" style="fill: #2ca02c; stroke: #2ca02c"/>
     <use xlink:href="#m59d87a12b8" x="347.836299" y="80.560018" style="fill: #2ca02c; stroke: #2ca02c"/>
     <use xlink:href="#m59d87a12b8" x="365.202749" y="80.560018" style="fill: #2ca02c; stroke: #2ca02c"/>
     <use xlink:href="#m59d87a12b8" x="382.569199" y="80.560018" style="fill: #2ca02c; stroke: #2ca02c"/>
     <use xlink:href="#m59d87a12b8" x="399.935649" y="80.560018" style="fill: #2ca02c; stroke: #2ca02c"/>
     <use xlink:href="#m59d87a12b8" x="417.3021" y="80.560018" style="fill: #2ca02c; stroke: #2ca02c"/>
     <use xlink:href="#m59d87a12b8" x="452.035" y="80.560018" style="fill: #2ca02c; stroke: #2ca02c"/>
     <use xlink:href="#m59d87a12b8" x="469.40145" y="80.560018" style="fill: #2ca02c; stroke: #2ca02c"/>
     <use xlink:href="#m59d87a12b8" x="486.7679" y="80.560018" style="fill: #2ca02c; stroke: #2ca02c"/>
     <use xlink:href="#m59d87a12b8" x="504.134351" y="80.560018" style="fill: #2ca02c; stroke: #2ca02c"/>
     <use xlink:href="#m59d87a12b8" x="521.500801" y="80.560018" style="fill: #2ca02c; stroke: #2ca02c"/>
     <use xlink:href="#m59d87a12b8" x="538.867251" y="80.560018" style="fill: #2ca02c; stroke: #2ca02c"/>
     <use xlink:href="#m59d87a12b8" x="556.233701" y="80.560018" style="fill: #2ca02c; stroke: #2ca02c"/>
     <use xlink:href="#m59d87a12b8" x="573.600152" y="80.560018" style="fill: #2ca02c; stroke: #2ca02c"/>
     <use xlink:href="#m59d87a12b8" x="590.966602" y="80.560018" style="fill: #2ca02c; stroke: #2ca02c"/>
     <use xlink:href="#m59d87a12b8" x="608.333052" y="80.560018" style="fill: #2ca02c; stroke: #2ca02c"/>
     <use xlink:href="#m59d87a12b8" x="625.699502" y="80.560018" style="fill: #2ca02c; stroke: #2ca02c"/>
     <use xlink:href="#m59d87a12b8" x="643.065952" y="80.560018" style="fill: #2ca02c; stroke: #2ca02c"/>
     <use xlink:href="#m59d87a12b8" x="660.432403" y="80.560018" style="fill: #2ca02c; stroke: #2ca02c"/>
     <use xlink:href="#m59d87a12b8" x="677.798853" y="80.560018" style="fill: #2ca02c; stroke: #2ca02c"/>
     <use xlink:href="#m59d87a12b8" x="695.165303" y="80.560018" style="fill: #2ca02c; stroke: #2ca02c"/>
     <use xlink:href="#m59d87a12b8" x="712.531753" y="80.560018" style="fill: #2ca02c; stroke: #2ca02c"/>
     <use xlink:href="#m59d87a12b8" x="729.898203" y="80.560018" style="fill: #2ca02c; stroke: #2ca02c"/>
     <use xlink:href="#m59d87a12b8" x="747.264654" y="80.560018" style="fill: #2ca02c; stroke: #2ca02c"/>
     <use xlink:href="#m59d87a12b8" x="764.631104" y="80.560018" style="fill: #2ca02c; stroke: #2ca02c"/>
     <use xlink:href="#m59d87a12b8" x="781.997554" y="80.560018" style="fill: #2ca02c; stroke: #2ca02c"/>
     <use xlink:href="#m59d87a12b8" x="799.364004" y="80.560018" style="fill: #2ca02c; stroke: #2ca02c"/>
     <use xlink:href="#m59d87a12b8" x="816.730455" y="80.560018" style="fill: #2ca02c; stroke: #2ca02c"/>
    </g>
   </g>
   <g id="line2d_28">
    <path d="M 87.339545 376.864296 
L 104.705996 355.431609 
L 122.072446 317.60922 
L 139.438896 308.783996 
L 156.805346 289.872801 
L 174.171797 270.961607 
L 191.538247 243.225188 
L 208.904697 231.878471 
L 226.271147 200.359814 
L 243.637597 189.013097 
L 261.004048 154.972947 
L 278.370498 134.801006 
L 295.736948 75.54593 
L 347.836299 75.54593 
L 365.202749 75.54593 
L 382.569199 75.54593 
L 399.935649 75.54593 
L 417.3021 75.54593 
L 452.035 75.54593 
L 469.40145 75.54593 
L 486.7679 75.54593 
L 504.134351 75.54593 
L 521.500801 75.54593 
L 538.867251 56.634736 
L 556.233701 56.634736 
L 573.600152 56.634736 
L 590.966602 56.634736 
L 608.333052 56.634736 
L 625.699502 44.027273 
L 643.065952 44.027273 
L 660.432403 44.027273 
L 677.798853 44.027273 
L 695.165303 44.027273 
L 712.531753 44.027273 
L 729.898203 44.027273 
L 747.264654 44.027273 
L 764.631104 44.027273 
L 781.997554 44.027273 
L 799.364004 44.027273 
L 816.730455 44.027273 
" clip-path="url(#pc88fa5bf37)" style="fill: none; stroke: #d62728; stroke-width: 1.5; stroke-linecap: square"/>
    <defs>
     <path id="mc1d1603292" d="M 0 3.5 
C 0.928211 3.5 1.81853 3.131218 2.474874 2.474874 
C 3.131218 1.81853 3.5 0.928211 3.5 0 
C 3.5 -0.928211 3.131218 -1.81853 2.474874 -2.474874 
C 1.81853 -3.131218 0.928211 -3.5 0 -3.5 
C -0.928211 -3.5 -1.81853 -3.131218 -2.474874 -2.474874 
C -3.131218 -1.81853 -3.5 -0.928211 -3.5 0 
C -3.5 0.928211 -3.131218 1.81853 -2.474874 2.474874 
C -1.81853 3.131218 -0.928211 3.5 0 3.5 
z
" style="stroke: #d62728"/>
    </defs>
    <g clip-path="url(#pc88fa5bf37)">
     <use xlink:href="#mc1d1603292" x="87.339545" y="376.864296" style="fill: #d62728; stroke: #d62728"/>
     <use xlink:href="#mc1d1603292" x="104.705996" y="355.431609" style="fill: #d62728; stroke: #d62728"/>
     <use xlink:href="#mc1d1603292" x="122.072446" y="317.60922" style="fill: #d62728; stroke: #d62728"/>
     <use xlink:href="#mc1d1603292" x="139.438896" y="308.783996" style="fill: #d62728; stroke: #d62728"/>
     <use xlink:href="#mc1d1603292" x="156.805346" y="289.872801" style="fill: #d62728; stroke: #d62728"/>
     <use xlink:href="#mc1d1603292" x="174.171797" y="270.961607" style="fill: #d62728; stroke: #d62728"/>
     <use xlink:href="#mc1d1603292" x="191.538247" y="243.225188" style="fill: #d62728; stroke: #d62728"/>
     <use xlink:href="#mc1d1603292" x="208.904697" y="231.878471" style="fill: #d62728; stroke: #d62728"/>
     <use xlink:href="#mc1d1603292" x="226.271147" y="200.359814" style="fill: #d62728; stroke: #d62728"/>
     <use xlink:href="#mc1d1603292" x="243.637597" y="189.013097" style="fill: #d62728; stroke: #d62728"/>
     <use xlink:href="#mc1d1603292" x="261.004048" y="154.972947" style="fill: #d62728; stroke: #d62728"/>
     <use xlink:href="#mc1d1603292" x="278.370498" y="134.801006" style="fill: #d62728; stroke: #d62728"/>
     <use xlink:href="#mc1d1603292" x="295.736948" y="75.54593" style="fill: #d62728; stroke: #d62728"/>
     <use xlink:href="#mc1d1603292" x="347.836299" y="75.54593" style="fill: #d62728; stroke: #d62728"/>
     <use xlink:href="#mc1d1603292" x="365.202749" y="75.54593" style="fill: #d62728; stroke: #d62728"/>
     <use xlink:href="#mc1d1603292" x="382.569199" y="75.54593" style="fill: #d62728; stroke: #d62728"/>
     <use xlink:href="#mc1d1603292" x="399.935649" y="75.54593" style="fill: #d62728; stroke: #d62728"/>
     <use xlink:href="#mc1d1603292" x="417.3021" y="75.54593" style="fill: #d62728; stroke: #d62728"/>
     <use xlink:href="#mc1d1603292" x="452.035" y="75.54593" style="fill: #d62728; stroke: #d62728"/>
     <use xlink:href="#mc1d1603292" x="469.40145" y="75.54593" style="fill: #d62728; stroke: #d62728"/>
     <use xlink:href="#mc1d1603292" x="486.7679" y="75.54593" style="fill: #d62728; stroke: #d62728"/>
     <use xlink:href="#mc1d1603292" x="504.134351" y="75.54593" style="fill: #d62728; stroke: #d62728"/>
     <use xlink:href="#mc1d1603292" x="521.500801" y="75.54593" style="fill: #d62728; stroke: #d62728"/>
     <use xlink:href="#mc1d1603292" x="538.867251" y="56.634736" style="fill: #d62728; stroke: #d62728"/>
     <use xlink:href="#mc1d1603292" x="556.233701" y="56.634736" style="fill: #d62728; stroke: #d62728"/>
     <use xlink:href="#mc1d1603292" x="573.600152" y="56.634736" style="fill: #d62728; stroke: #d62728"/>
     <use xlink:href="#mc1d1603292" x="590.966602" y="56.634736" style="fill: #d62728; stroke: #d62728"/>
     <use xlink:href="#mc1d1603292" x="608.333052" y="56.634736" style="fill: #d62728; stroke: #d62728"/>
     <use xlink:href="#mc1d1603292" x="625.699502" y="44.027273" style="fill: #d62728; stroke: #d62728"/>
     <use xlink:href="#mc1d1603292" x="643.065952" y="44.027273" style="fill: #d62728; stroke: #d62728"/>
     <use xlink:href="#mc1d1603292" x="660.432403" y="44.027273" style="fill: #d62728; stroke: #d62728"/>
     <use xlink:href="#mc1d1603292" x="677.798853" y="44.027273" style="fill: #d62728; stroke: #d62728"/>
     <use xlink:href="#mc1d1603292" x="695.165303" y="44.027273" style="fill: #d62728; stroke: #d62728"/>
     <use xlink:href="#mc1d1603292" x="712.531753" y="44.027273" style="fill: #d62728; stroke: #d62728"/>
     <use xlink:href="#mc1d1603292" x="729.898203" y="44.027273" style="fill: #d62728; stroke: #d62728"/>
     <use xlink:href="#mc1d1603292" x="747.264654" y="44.027273" style="fill: #d62728; stroke: #d62728"/>
     <use xlink:href="#mc1d1603292" x="764.631104" y="44.027273" style="fill: #d62728; stroke: #d62728"/>
     <use xlink:href="#mc1d1603292" x="781.997554" y="44.027273" style="fill: #d62728; stroke: #d62728"/>
     <use xlink:href="#mc1d1603292" x="799.364004" y="44.027273" style="fill: #d62728; stroke: #d62728"/>
     <use xlink:href="#mc1d1603292" x="816.730455" y="44.027273" style="fill: #d62728; stroke: #d62728"/>
    </g>
   </g>
   <g id="line2d_29">
    <path d="M 87.339545 383.285845 
L 104.705996 349.245695 
L 122.072446 321.509276 
L 139.438896 306.38032 
L 156.805346 291.251365 
L 174.171797 276.122409 
L 191.538247 273.600917 
L 208.904697 252.16823 
L 226.271147 220.649572 
L 243.637597 196.695392 
L 261.004048 158.873003 
L 278.370498 143.744048 
L 295.736948 116.007629 
L 347.836299 116.007629 
L 365.202749 116.007629 
L 382.569199 116.007629 
L 399.935649 116.007629 
L 417.3021 116.007629 
L 452.035 116.007629 
L 469.40145 116.007629 
L 486.7679 116.007629 
L 504.134351 116.007629 
L 521.500801 116.007629 
L 538.867251 97.096435 
L 556.233701 97.096435 
L 573.600152 97.096435 
L 590.966602 97.096435 
L 608.333052 97.096435 
L 625.699502 71.881509 
L 643.065952 71.881509 
L 660.432403 71.881509 
L 677.798853 71.881509 
L 695.165303 71.881509 
L 712.531753 71.881509 
L 729.898203 71.881509 
L 747.264654 71.881509 
L 764.631104 71.881509 
L 781.997554 71.881509 
L 799.364004 71.881509 
L 816.730455 71.881509 
" clip-path="url(#pc88fa5bf37)" style="fill: none; stroke: #9467bd; stroke-width: 1.5; stroke-linecap: square"/>
    <defs>
     <path id="m871e9de1ad" d="M 0 3.5 
C 0.928211 3.5 1.81853 3.131218 2.474874 2.474874 
C 3.131218 1.81853 3.5 0.928211 3.5 0 
C 3.5 -0.928211 3.131218 -1.81853 2.474874 -2.474874 
C 1.81853 -3.131218 0.928211 -3.5 0 -3.5 
C -0.928211 -3.5 -1.81853 -3.131218 -2.474874 -2.474874 
C -3.131218 -1.81853 -3.5 -0.928211 -3.5 0 
C -3.5 0.928211 -3.131218 1.81853 -2.474874 2.474874 
C -1.81853 3.131218 -0.928211 3.5 0 3.5 
z
" style="stroke: #9467bd"/>
    </defs>
    <g clip-path="url(#pc88fa5bf37)">
     <use xlink:href="#m871e9de1ad" x="87.339545" y="383.285845" style="fill: #9467bd; stroke: #9467bd"/>
     <use xlink:href="#m871e9de1ad" x="104.705996" y="349.245695" style="fill: #9467bd; stroke: #9467bd"/>
     <use xlink:href="#m871e9de1ad" x="122.072446" y="321.509276" style="fill: #9467bd; stroke: #9467bd"/>
     <use xlink:href="#m871e9de1ad" x="139.438896" y="306.38032" style="fill: #9467bd; stroke: #9467bd"/>
     <use xlink:href="#m871e9de1ad" x="156.805346" y="291.251365" style="fill: #9467bd; stroke: #9467bd"/>
     <use xlink:href="#m871e9de1ad" x="174.171797" y="276.122409" style="fill: #9467bd; stroke: #9467bd"/>
     <use xlink:href="#m871e9de1ad" x="191.538247" y="273.600917" style="fill: #9467bd; stroke: #9467bd"/>
     <use xlink:href="#m871e9de1ad" x="208.904697" y="252.16823" style="fill: #9467bd; stroke: #9467bd"/>
     <use xlink:href="#m871e9de1ad" x="226.271147" y="220.649572" style="fill: #9467bd; stroke: #9467bd"/>
     <use xlink:href="#m871e9de1ad" x="243.637597" y="196.695392" style="fill: #9467bd; stroke: #9467bd"/>
     <use xlink:href="#m871e9de1ad" x="261.004048" y="158.873003" style="fill: #9467bd; stroke: #9467bd"/>
     <use xlink:href="#m871e9de1ad" x="278.370498" y="143.744048" style="fill: #9467bd; stroke: #9467bd"/>
     <use xlink:href="#m871e9de1ad" x="295.736948" y="116.007629" style="fill: #9467bd; stroke: #9467bd"/>
     <use xlink:href="#m871e9de1ad" x="347.836299" y="116.007629" style="fill: #9467bd; stroke: #9467bd"/>
     <use xlink:href="#m871e9de1ad" x="365.202749" y="116.007629" style="fill: #9467bd; stroke: #9467bd"/>
     <use xlink:href="#m871e9de1ad" x="382.569199" y="116.007629" style="fill: #9467bd; stroke: #9467bd"/>
     <use xlink:href="#m871e9de1ad" x="399.935649" y="116.007629" style="fill: #9467bd; stroke: #9467bd"/>
     <use xlink:href="#m871e9de1ad" x="417.3021" y="116.007629" style="fill: #9467bd; stroke: #9467bd"/>
     <use xlink:href="#m871e9de1ad" x="452.035" y="116.007629" style="fill: #9467bd; stroke: #9467bd"/>
     <use xlink:href="#m871e9de1ad" x="469.40145" y="116.007629" style="fill: #9467bd; stroke: #9467bd"/>
     <use xlink:href="#m871e9de1ad" x="486.7679" y="116.007629" style="fill: #9467bd; stroke: #9467bd"/>
     <use xlink:href="#m871e9de1ad" x="504.134351" y="116.007629" style="fill: #9467bd; stroke: #9467bd"/>
     <use xlink:href="#m871e9de1ad" x="521.500801" y="116.007629" style="fill: #9467bd; stroke: #9467bd"/>
     <use xlink:href="#m871e9de1ad" x="538.867251" y="97.096435" style="fill: #9467bd; stroke: #9467bd"/>
     <use xlink:href="#m871e9de1ad" x="556.233701" y="97.096435" style="fill: #9467bd; stroke: #9467bd"/>
     <use xlink:href="#m871e9de1ad" x="573.600152" y="97.096435" style="fill: #9467bd; stroke: #9467bd"/>
     <use xlink:href="#m871e9de1ad" x="590.966602" y="97.096435" style="fill: #9467bd; stroke: #9467bd"/>
     <use xlink:href="#m871e9de1ad" x="608.333052" y="97.096435" style="fill: #9467bd; stroke: #9467bd"/>
     <use xlink:href="#m871e9de1ad" x="625.699502" y="71.881509" style="fill: #9467bd; stroke: #9467bd"/>
     <use xlink:href="#m871e9de1ad" x="643.065952" y="71.881509" style="fill: #9467bd; stroke: #9467bd"/>
     <use xlink:href="#m871e9de1ad" x="660.432403" y="71.881509" style="fill: #9467bd; stroke: #9467bd"/>
     <use xlink:href="#m871e9de1ad" x="677.798853" y="71.881509" style="fill: #9467bd; stroke: #9467bd"/>
     <use xlink:href="#m871e9de1ad" x="695.165303" y="71.881509" style="fill: #9467bd; stroke: #9467bd"/>
     <use xlink:href="#m871e9de1ad" x="712.531753" y="71.881509" style="fill: #9467bd; stroke: #9467bd"/>
     <use xlink:href="#m871e9de1ad" x="729.898203" y="71.881509" style="fill: #9467bd; stroke: #9467bd"/>
     <use xlink:href="#m871e9de1ad" x="747.264654" y="71.881509" style="fill: #9467bd; stroke: #9467bd"/>
     <use xlink:href="#m871e9de1ad" x="764.631104" y="71.881509" style="fill: #9467bd; stroke: #9467bd"/>
     <use xlink:href="#m871e9de1ad" x="781.997554" y="71.881509" style="fill: #9467bd; stroke: #9467bd"/>
     <use xlink:href="#m871e9de1ad" x="799.364004" y="71.881509" style="fill: #9467bd; stroke: #9467bd"/>
     <use xlink:href="#m871e9de1ad" x="816.730455" y="71.881509" style="fill: #9467bd; stroke: #9467bd"/>
    </g>
   </g>
   <g id="line2d_30">
    <path d="M 87.339545 376.791448 
L 104.705996 364.183985 
L 122.072446 342.751298 
L 139.438896 330.143835 
L 156.805346 304.928909 
L 174.171797 270.888759 
L 191.538247 253.238311 
L 208.904697 253.238311 
L 226.271147 221.719653 
L 243.637597 210.372936 
L 261.004048 182.636518 
L 278.370498 175.07204 
L 295.736948 135.988905 
L 347.836299 135.988905 
L 365.202749 135.988905 
L 382.569199 135.988905 
L 399.935649 135.988905 
L 417.3021 135.988905 
L 452.035 135.988905 
L 469.40145 135.988905 
L 486.7679 135.988905 
L 504.134351 135.988905 
L 521.500801 135.988905 
L 538.867251 135.988905 
L 556.233701 135.988905 
L 573.600152 135.988905 
L 590.966602 135.988905 
L 608.333052 135.988905 
L 625.699502 117.07771 
L 643.065952 117.07771 
L 660.432403 117.07771 
L 677.798853 117.07771 
L 695.165303 117.07771 
L 712.531753 117.07771 
L 729.898203 117.07771 
L 747.264654 117.07771 
L 764.631104 117.07771 
L 781.997554 117.07771 
L 799.364004 117.07771 
L 816.730455 117.07771 
" clip-path="url(#pc88fa5bf37)" style="fill: none; stroke: #8c564b; stroke-width: 1.5; stroke-linecap: square"/>
    <defs>
     <path id="ma030b03cbc" d="M 0 3.5 
C 0.928211 3.5 1.81853 3.131218 2.474874 2.474874 
C 3.131218 1.81853 3.5 0.928211 3.5 0 
C 3.5 -0.928211 3.131218 -1.81853 2.474874 -2.474874 
C 1.81853 -3.131218 0.928211 -3.5 0 -3.5 
C -0.928211 -3.5 -1.81853 -3.131218 -2.474874 -2.474874 
C -3.131218 -1.81853 -3.5 -0.928211 -3.5 0 
C -3.5 0.928211 -3.131218 1.81853 -2.474874 2.474874 
C -1.81853 3.131218 -0.928211 3.5 0 3.5 
z
" style="stroke: #8c564b"/>
    </defs>
    <g clip-path="url(#pc88fa5bf37)">
     <use xlink:href="#ma030b03cbc" x="87.339545" y="376.791448" style="fill: #8c564b; stroke: #8c564b"/>
     <use xlink:href="#ma030b03cbc" x="104.705996" y="364.183985" style="fill: #8c564b; stroke: #8c564b"/>
     <use xlink:href="#ma030b03cbc" x="122.072446" y="342.751298" style="fill: #8c564b; stroke: #8c564b"/>
     <use xlink:href="#ma030b03cbc" x="139.438896" y="330.143835" style="fill: #8c564b; stroke: #8c564b"/>
     <use xlink:href="#ma030b03cbc" x="156.805346" y="304.928909" style="fill: #8c564b; stroke: #8c564b"/>
     <use xlink:href="#ma030b03cbc" x="174.171797" y="270.888759" style="fill: #8c564b; stroke: #8c564b"/>
     <use xlink:href="#ma030b03cbc" x="191.538247" y="253.238311" style="fill: #8c564b; stroke: #8c564b"/>
     <use xlink:href="#ma030b03cbc" x="208.904697" y="253.238311" style="fill: #8c564b; stroke: #8c564b"/>
     <use xlink:href="#ma030b03cbc" x="226.271147" y="221.719653" style="fill: #8c564b; stroke: #8c564b"/>
     <use xlink:href="#ma030b03cbc" x="243.637597" y="210.372936" style="fill: #8c564b; stroke: #8c564b"/>
     <use xlink:href="#ma030b03cbc" x="261.004048" y="182.636518" style="fill: #8c564b; stroke: #8c564b"/>
     <use xlink:href="#ma030b03cbc" x="278.370498" y="175.07204" style="fill: #8c564b; stroke: #8c564b"/>
     <use xlink:href="#ma030b03cbc" x="295.736948" y="135.988905" style="fill: #8c564b; stroke: #8c564b"/>
     <use xlink:href="#ma030b03cbc" x="347.836299" y="135.988905" style="fill: #8c564b; stroke: #8c564b"/>
     <use xlink:href="#ma030b03cbc" x="365.202749" y="135.988905" style="fill: #8c564b; stroke: #8c564b"/>
     <use xlink:href="#ma030b03cbc" x="382.569199" y="135.988905" style="fill: #8c564b; stroke: #8c564b"/>
     <use xlink:href="#ma030b03cbc" x="399.935649" y="135.988905" style="fill: #8c564b; stroke: #8c564b"/>
     <use xlink:href="#ma030b03cbc" x="417.3021" y="135.988905" style="fill: #8c564b; stroke: #8c564b"/>
     <use xlink:href="#ma030b03cbc" x="452.035" y="135.988905" style="fill: #8c564b; stroke: #8c564b"/>
     <use xlink:href="#ma030b03cbc" x="469.40145" y="135.988905" style="fill: #8c564b; stroke: #8c564b"/>
     <use xlink:href="#ma030b03cbc" x="486.7679" y="135.988905" style="fill: #8c564b; stroke: #8c564b"/>
     <use xlink:href="#ma030b03cbc" x="504.134351" y="135.988905" style="fill: #8c564b; stroke: #8c564b"/>
     <use xlink:href="#ma030b03cbc" x="521.500801" y="135.988905" style="fill: #8c564b; stroke: #8c564b"/>
     <use xlink:href="#ma030b03cbc" x="538.867251" y="135.988905" style="fill: #8c564b; stroke: #8c564b"/>
     <use xlink:href="#ma030b03cbc" x="556.233701" y="135.988905" style="fill: #8c564b; stroke: #8c564b"/>
     <use xlink:href="#ma030b03cbc" x="573.600152" y="135.988905" style="fill: #8c564b; stroke: #8c564b"/>
     <use xlink:href="#ma030b03cbc" x="590.966602" y="135.988905" style="fill: #8c564b; stroke: #8c564b"/>
     <use xlink:href="#ma030b03cbc" x="608.333052" y="135.988905" style="fill: #8c564b; stroke: #8c564b"/>
     <use xlink:href="#ma030b03cbc" x="625.699502" y="117.07771" style="fill: #8c564b; stroke: #8c564b"/>
     <use xlink:href="#ma030b03cbc" x="643.065952" y="117.07771" style="fill: #8c564b; stroke: #8c564b"/>
     <use xlink:href="#ma030b03cbc" x="660.432403" y="117.07771" style="fill: #8c564b; stroke: #8c564b"/>
     <use xlink:href="#ma030b03cbc" x="677.798853" y="117.07771" style="fill: #8c564b; stroke: #8c564b"/>
     <use xlink:href="#ma030b03cbc" x="695.165303" y="117.07771" style="fill: #8c564b; stroke: #8c564b"/>
     <use xlink:href="#ma030b03cbc" x="712.531753" y="117.07771" style="fill: #8c564b; stroke: #8c564b"/>
     <use xlink:href="#ma030b03cbc" x="729.898203" y="117.07771" style="fill: #8c564b; stroke: #8c564b"/>
     <use xlink:href="#ma030b03cbc" x="747.264654" y="117.07771" style="fill: #8c564b; stroke: #8c564b"/>
     <use xlink:href="#ma030b03cbc" x="764.631104" y="117.07771" style="fill: #8c564b; stroke: #8c564b"/>
     <use xlink:href="#ma030b03cbc" x="781.997554" y="117.07771" style="fill: #8c564b; stroke: #8c564b"/>
     <use xlink:href="#ma030b03cbc" x="799.364004" y="117.07771" style="fill: #8c564b; stroke: #8c564b"/>
     <use xlink:href="#ma030b03cbc" x="816.730455" y="117.07771" style="fill: #8c564b; stroke: #8c564b"/>
    </g>
   </g>
   <g id="line2d_31">
    <path d="M 87.339545 376.945562 
L 104.705996 351.730636 
L 122.072446 330.297949 
L 139.438896 311.386755 
L 156.805346 302.561531 
L 174.171797 271.042873 
L 191.538247 263.478395 
L 208.904697 260.956903 
L 226.271147 233.220484 
L 243.637597 224.39526 
L 261.004048 190.35511 
L 278.370498 175.226154 
L 295.736948 134.882273 
L 347.836299 134.882273 
L 365.202749 134.882273 
L 382.569199 134.882273 
L 399.935649 134.882273 
L 417.3021 134.882273 
L 452.035 134.882273 
L 469.40145 134.882273 
L 486.7679 134.882273 
L 504.134351 134.882273 
L 521.500801 134.882273 
L 538.867251 115.971078 
L 556.233701 115.971078 
L 573.600152 115.971078 
L 590.966602 115.971078 
L 608.333052 115.971078 
L 625.699502 115.971078 
L 643.065952 115.971078 
L 660.432403 115.971078 
L 677.798853 115.971078 
L 695.165303 115.971078 
L 712.531753 115.971078 
L 729.898203 115.971078 
L 747.264654 115.971078 
L 764.631104 115.971078 
L 781.997554 115.971078 
L 799.364004 115.971078 
L 816.730455 115.971078 
" clip-path="url(#pc88fa5bf37)" style="fill: none; stroke: #e377c2; stroke-width: 1.5; stroke-linecap: square"/>
    <defs>
     <path id="m362fe2c3a6" d="M 0 3.5 
C 0.928211 3.5 1.81853 3.131218 2.474874 2.474874 
C 3.131218 1.81853 3.5 0.928211 3.5 0 
C 3.5 -0.928211 3.131218 -1.81853 2.474874 -2.474874 
C 1.81853 -3.131218 0.928211 -3.5 0 -3.5 
C -0.928211 -3.5 -1.81853 -3.131218 -2.474874 -2.474874 
C -3.131218 -1.81853 -3.5 -0.928211 -3.5 0 
C -3.5 0.928211 -3.131218 1.81853 -2.474874 2.474874 
C -1.81853 3.131218 -0.928211 3.5 0 3.5 
z
" style="stroke: #e377c2"/>
    </defs>
    <g clip-path="url(#pc88fa5bf37)">
     <use xlink:href="#m362fe2c3a6" x="87.339545" y="376.945562" style="fill: #e377c2; stroke: #e377c2"/>
     <use xlink:href="#m362fe2c3a6" x="104.705996" y="351.730636" style="fill: #e377c2; stroke: #e377c2"/>
     <use xlink:href="#m362fe2c3a6" x="122.072446" y="330.297949" style="fill: #e377c2; stroke: #e377c2"/>
     <use xlink:href="#m362fe2c3a6" x="139.438896" y="311.386755" style="fill: #e377c2; stroke: #e377c2"/>
     <use xlink:href="#m362fe2c3a6" x="156.805346" y="302.561531" style="fill: #e377c2; stroke: #e377c2"/>
     <use xlink:href="#m362fe2c3a6" x="174.171797" y="271.042873" style="fill: #e377c2; stroke: #e377c2"/>
     <use xlink:href="#m362fe2c3a6" x="191.538247" y="263.478395" style="fill: #e377c2; stroke: #e377c2"/>
     <use xlink:href="#m362fe2c3a6" x="208.904697" y="260.956903" style="fill: #e377c2; stroke: #e377c2"/>
     <use xlink:href="#m362fe2c3a6" x="226.271147" y="233.220484" style="fill: #e377c2; stroke: #e377c2"/>
     <use xlink:href="#m362fe2c3a6" x="243.637597" y="224.39526" style="fill: #e377c2; stroke: #e377c2"/>
     <use xlink:href="#m362fe2c3a6" x="261.004048" y="190.35511" style="fill: #e377c2; stroke: #e377c2"/>
     <use xlink:href="#m362fe2c3a6" x="278.370498" y="175.226154" style="fill: #e377c2; stroke: #e377c2"/>
     <use xlink:href="#m362fe2c3a6" x="295.736948" y="134.882273" style="fill: #e377c2; stroke: #e377c2"/>
     <use xlink:href="#m362fe2c3a6" x="347.836299" y="134.882273" style="fill: #e377c2; stroke: #e377c2"/>
     <use xlink:href="#m362fe2c3a6" x="365.202749" y="134.882273" style="fill: #e377c2; stroke: #e377c2"/>
     <use xlink:href="#m362fe2c3a6" x="382.569199" y="134.882273" style="fill: #e377c2; stroke: #e377c2"/>
     <use xlink:href="#m362fe2c3a6" x="399.935649" y="134.882273" style="fill: #e377c2; stroke: #e377c2"/>
     <use xlink:href="#m362fe2c3a6" x="417.3021" y="134.882273" style="fill: #e377c2; stroke: #e377c2"/>
     <use xlink:href="#m362fe2c3a6" x="452.035" y="134.882273" style="fill: #e377c2; stroke: #e377c2"/>
     <use xlink:href="#m362fe2c3a6" x="469.40145" y="134.882273" style="fill: #e377c2; stroke: #e377c2"/>
     <use xlink:href="#m362fe2c3a6" x="486.7679" y="134.882273" style="fill: #e377c2; stroke: #e377c2"/>
     <use xlink:href="#m362fe2c3a6" x="504.134351" y="134.882273" style="fill: #e377c2; stroke: #e377c2"/>
     <use xlink:href="#m362fe2c3a6" x="521.500801" y="134.882273" style="fill: #e377c2; stroke: #e377c2"/>
     <use xlink:href="#m362fe2c3a6" x="538.867251" y="115.971078" style="fill: #e377c2; stroke: #e377c2"/>
     <use xlink:href="#m362fe2c3a6" x="556.233701" y="115.971078" style="fill: #e377c2; stroke: #e377c2"/>
     <use xlink:href="#m362fe2c3a6" x="573.600152" y="115.971078" style="fill: #e377c2; stroke: #e377c2"/>
     <use xlink:href="#m362fe2c3a6" x="590.966602" y="115.971078" style="fill: #e377c2; stroke: #e377c2"/>
     <use xlink:href="#m362fe2c3a6" x="608.333052" y="115.971078" style="fill: #e377c2; stroke: #e377c2"/>
     <use xlink:href="#m362fe2c3a6" x="625.699502" y="115.971078" style="fill: #e377c2; stroke: #e377c2"/>
     <use xlink:href="#m362fe2c3a6" x="643.065952" y="115.971078" style="fill: #e377c2; stroke: #e377c2"/>
     <use xlink:href="#m362fe2c3a6" x="660.432403" y="115.971078" style="fill: #e377c2; stroke: #e377c2"/>
     <use xlink:href="#m362fe2c3a6" x="677.798853" y="115.971078" style="fill: #e377c2; stroke: #e377c2"/>
     <use xlink:href="#m362fe2c3a6" x="695.165303" y="115.971078" style="fill: #e377c2; stroke: #e377c2"/>
     <use xlink:href="#m362fe2c3a6" x="712.531753" y="115.971078" style="fill: #e377c2; stroke: #e377c2"/>
     <use xlink:href="#m362fe2c3a6" x="729.898203" y="115.971078" style="fill: #e377c2; stroke: #e377c2"/>
     <use xlink:href="#m362fe2c3a6" x="747.264654" y="115.971078" style="fill: #e377c2; stroke: #e377c2"/>
     <use xlink:href="#m362fe2c3a6" x="764.631104" y="115.971078" style="fill: #e377c2; stroke: #e377c2"/>
     <use xlink:href="#m362fe2c3a6" x="781.997554" y="115.971078" style="fill: #e377c2; stroke: #e377c2"/>
     <use xlink:href="#m362fe2c3a6" x="799.364004" y="115.971078" style="fill: #e377c2; stroke: #e377c2"/>
     <use xlink:href="#m362fe2c3a6" x="816.730455" y="115.971078" style="fill: #e377c2; stroke: #e377c2"/>
    </g>
   </g>
   <g id="line2d_32">
    <path d="M 87.339545 383.137539 
L 104.705996 375.573062 
L 122.072446 356.661867 
L 139.438896 354.140375 
L 156.805346 335.22918 
L 174.171797 332.707687 
L 191.538247 311.275 
L 208.904697 292.363806 
L 226.271147 248.237685 
L 243.637597 243.1947 
L 261.004048 230.587237 
L 278.370498 187.721863 
L 295.736948 151.16022 
L 347.836299 151.16022 
L 365.202749 151.16022 
L 382.569199 151.16022 
L 399.935649 151.16022 
L 417.3021 151.16022 
L 452.035 151.16022 
L 469.40145 151.16022 
L 486.7679 151.16022 
L 504.134351 151.16022 
L 521.500801 151.16022 
L 538.867251 132.249026 
L 556.233701 132.249026 
L 573.600152 132.249026 
L 590.966602 132.249026 
L 608.333052 132.249026 
L 625.699502 107.0341 
L 643.065952 107.0341 
L 660.432403 107.0341 
L 677.798853 107.0341 
L 695.165303 107.0341 
L 712.531753 107.0341 
L 729.898203 107.0341 
L 747.264654 107.0341 
L 764.631104 107.0341 
L 781.997554 107.0341 
L 799.364004 107.0341 
L 816.730455 107.0341 
" clip-path="url(#pc88fa5bf37)" style="fill: none; stroke: #7f7f7f; stroke-width: 1.5; stroke-linecap: square"/>
    <defs>
     <path id="mdcebd651a8" d="M 0 3.5 
C 0.928211 3.5 1.81853 3.131218 2.474874 2.474874 
C 3.131218 1.81853 3.5 0.928211 3.5 0 
C 3.5 -0.928211 3.131218 -1.81853 2.474874 -2.474874 
C 1.81853 -3.131218 0.928211 -3.5 0 -3.5 
C -0.928211 -3.5 -1.81853 -3.131218 -2.474874 -2.474874 
C -3.131218 -1.81853 -3.5 -0.928211 -3.5 0 
C -3.5 0.928211 -3.131218 1.81853 -2.474874 2.474874 
C -1.81853 3.131218 -0.928211 3.5 0 3.5 
z
" style="stroke: #7f7f7f"/>
    </defs>
    <g clip-path="url(#pc88fa5bf37)">
     <use xlink:href="#mdcebd651a8" x="87.339545" y="383.137539" style="fill: #7f7f7f; stroke: #7f7f7f"/>
     <use xlink:href="#mdcebd651a8" x="104.705996" y="375.573062" style="fill: #7f7f7f; stroke: #7f7f7f"/>
     <use xlink:href="#mdcebd651a8" x="122.072446" y="356.661867" style="fill: #7f7f7f; stroke: #7f7f7f"/>
     <use xlink:href="#mdcebd651a8" x="139.438896" y="354.140375" style="fill: #7f7f7f; stroke: #7f7f7f"/>
     <use xlink:href="#mdcebd651a8" x="156.805346" y="335.22918" style="fill: #7f7f7f; stroke: #7f7f7f"/>
     <use xlink:href="#mdcebd651a8" x="174.171797" y="332.707687" style="fill: #7f7f7f; stroke: #7f7f7f"/>
     <use xlink:href="#mdcebd651a8" x="191.538247" y="311.275" style="fill: #7f7f7f; stroke: #7f7f7f"/>
     <use xlink:href="#mdcebd651a8" x="208.904697" y="292.363806" style="fill: #7f7f7f; stroke: #7f7f7f"/>
     <use xlink:href="#mdcebd651a8" x="226.271147" y="248.237685" style="fill: #7f7f7f; stroke: #7f7f7f"/>
     <use xlink:href="#mdcebd651a8" x="243.637597" y="243.1947" style="fill: #7f7f7f; stroke: #7f7f7f"/>
     <use xlink:href="#mdcebd651a8" x="261.004048" y="230.587237" style="fill: #7f7f7f; stroke: #7f7f7f"/>
     <use xlink:href="#mdcebd651a8" x="278.370498" y="187.721863" style="fill: #7f7f7f; stroke: #7f7f7f"/>
     <use xlink:href="#mdcebd651a8" x="295.736948" y="151.16022" style="fill: #7f7f7f; stroke: #7f7f7f"/>
     <use xlink:href="#mdcebd651a8" x="347.836299" y="151.16022" style="fill: #7f7f7f; stroke: #7f7f7f"/>
     <use xlink:href="#mdcebd651a8" x="365.202749" y="151.16022" style="fill: #7f7f7f; stroke: #7f7f7f"/>
     <use xlink:href="#mdcebd651a8" x="382.569199" y="151.16022" style="fill: #7f7f7f; stroke: #7f7f7f"/>
     <use xlink:href="#mdcebd651a8" x="399.935649" y="151.16022" style="fill: #7f7f7f; stroke: #7f7f7f"/>
     <use xlink:href="#mdcebd651a8" x="417.3021" y="151.16022" style="fill: #7f7f7f; stroke: #7f7f7f"/>
     <use xlink:href="#mdcebd651a8" x="452.035" y="151.16022" style="fill: #7f7f7f; stroke: #7f7f7f"/>
     <use xlink:href="#mdcebd651a8" x="469.40145" y="151.16022" style="fill: #7f7f7f; stroke: #7f7f7f"/>
     <use xlink:href="#mdcebd651a8" x="486.7679" y="151.16022" style="fill: #7f7f7f; stroke: #7f7f7f"/>
     <use xlink:href="#mdcebd651a8" x="504.134351" y="151.16022" style="fill: #7f7f7f; stroke: #7f7f7f"/>
     <use xlink:href="#mdcebd651a8" x="521.500801" y="151.16022" style="fill: #7f7f7f; stroke: #7f7f7f"/>
     <use xlink:href="#mdcebd651a8" x="538.867251" y="132.249026" style="fill: #7f7f7f; stroke: #7f7f7f"/>
     <use xlink:href="#mdcebd651a8" x="556.233701" y="132.249026" style="fill: #7f7f7f; stroke: #7f7f7f"/>
     <use xlink:href="#mdcebd651a8" x="573.600152" y="132.249026" style="fill: #7f7f7f; stroke: #7f7f7f"/>
     <use xlink:href="#mdcebd651a8" x="590.966602" y="132.249026" style="fill: #7f7f7f; stroke: #7f7f7f"/>
     <use xlink:href="#mdcebd651a8" x="608.333052" y="132.249026" style="fill: #7f7f7f; stroke: #7f7f7f"/>
     <use xlink:href="#mdcebd651a8" x="625.699502" y="107.0341" style="fill: #7f7f7f; stroke: #7f7f7f"/>
     <use xlink:href="#mdcebd651a8" x="643.065952" y="107.0341" style="fill: #7f7f7f; stroke: #7f7f7f"/>
     <use xlink:href="#mdcebd651a8" x="660.432403" y="107.0341" style="fill: #7f7f7f; stroke: #7f7f7f"/>
     <use xlink:href="#mdcebd651a8" x="677.798853" y="107.0341" style="fill: #7f7f7f; stroke: #7f7f7f"/>
     <use xlink:href="#mdcebd651a8" x="695.165303" y="107.0341" style="fill: #7f7f7f; stroke: #7f7f7f"/>
     <use xlink:href="#mdcebd651a8" x="712.531753" y="107.0341" style="fill: #7f7f7f; stroke: #7f7f7f"/>
     <use xlink:href="#mdcebd651a8" x="729.898203" y="107.0341" style="fill: #7f7f7f; stroke: #7f7f7f"/>
     <use xlink:href="#mdcebd651a8" x="747.264654" y="107.0341" style="fill: #7f7f7f; stroke: #7f7f7f"/>
     <use xlink:href="#mdcebd651a8" x="764.631104" y="107.0341" style="fill: #7f7f7f; stroke: #7f7f7f"/>
     <use xlink:href="#mdcebd651a8" x="781.997554" y="107.0341" style="fill: #7f7f7f; stroke: #7f7f7f"/>
     <use xlink:href="#mdcebd651a8" x="799.364004" y="107.0341" style="fill: #7f7f7f; stroke: #7f7f7f"/>
     <use xlink:href="#mdcebd651a8" x="816.730455" y="107.0341" style="fill: #7f7f7f; stroke: #7f7f7f"/>
    </g>
   </g>
   <g id="line2d_33">
    <path d="M 87.339545 383.16779 
L 104.705996 357.952864 
L 122.072446 330.216446 
L 139.438896 321.391222 
L 156.805346 302.480027 
L 174.171797 274.743609 
L 191.538247 247.00719 
L 208.904697 244.485697 
L 226.271147 212.96704 
L 243.637597 172.623158 
L 261.004048 144.88674 
L 278.370498 117.150321 
L 295.736948 83.110171 
L 347.836299 83.110171 
L 365.202749 83.110171 
L 382.569199 83.110171 
L 399.935649 83.110171 
L 417.3021 83.110171 
L 452.035 83.110171 
L 469.40145 83.110171 
L 486.7679 83.110171 
L 504.134351 83.110171 
L 521.500801 83.110171 
L 538.867251 83.110171 
L 556.233701 83.110171 
L 573.600152 83.110171 
L 590.966602 83.110171 
L 608.333052 83.110171 
L 625.699502 64.198976 
L 643.065952 64.198976 
L 660.432403 64.198976 
L 677.798853 64.198976 
L 695.165303 64.198976 
L 712.531753 64.198976 
L 729.898203 64.198976 
L 747.264654 64.198976 
L 764.631104 64.198976 
L 781.997554 64.198976 
L 799.364004 64.198976 
L 816.730455 64.198976 
" clip-path="url(#pc88fa5bf37)" style="fill: none; stroke: #bcbd22; stroke-width: 1.5; stroke-linecap: square"/>
    <defs>
     <path id="medb5cdcfdc" d="M 0 3.5 
C 0.928211 3.5 1.81853 3.131218 2.474874 2.474874 
C 3.131218 1.81853 3.5 0.928211 3.5 0 
C 3.5 -0.928211 3.131218 -1.81853 2.474874 -2.474874 
C 1.81853 -3.131218 0.928211 -3.5 0 -3.5 
C -0.928211 -3.5 -1.81853 -3.131218 -2.474874 -2.474874 
C -3.131218 -1.81853 -3.5 -0.928211 -3.5 0 
C -3.5 0.928211 -3.131218 1.81853 -2.474874 2.474874 
C -1.81853 3.131218 -0.928211 3.5 0 3.5 
z
" style="stroke: #bcbd22"/>
    </defs>
    <g clip-path="url(#pc88fa5bf37)">
     <use xlink:href="#medb5cdcfdc" x="87.339545" y="383.16779" style="fill: #bcbd22; stroke: #bcbd22"/>
     <use xlink:href="#medb5cdcfdc" x="104.705996" y="357.952864" style="fill: #bcbd22; stroke: #bcbd22"/>
     <use xlink:href="#medb5cdcfdc" x="122.072446" y="330.216446" style="fill: #bcbd22; stroke: #bcbd22"/>
     <use xlink:href="#medb5cdcfdc" x="139.438896" y="321.391222" style="fill: #bcbd22; stroke: #bcbd22"/>
     <use xlink:href="#medb5cdcfdc" x="156.805346" y="302.480027" style="fill: #bcbd22; stroke: #bcbd22"/>
     <use xlink:href="#medb5cdcfdc" x="174.171797" y="274.743609" style="fill: #bcbd22; stroke: #bcbd22"/>
     <use xlink:href="#medb5cdcfdc" x="191.538247" y="247.00719" style="fill: #bcbd22; stroke: #bcbd22"/>
     <use xlink:href="#medb5cdcfdc" x="208.904697" y="244.485697" style="fill: #bcbd22; stroke: #bcbd22"/>
     <use xlink:href="#medb5cdcfdc" x="226.271147" y="212.96704" style="fill: #bcbd22; stroke: #bcbd22"/>
     <use xlink:href="#medb5cdcfdc" x="243.637597" y="172.623158" style="fill: #bcbd22; stroke: #bcbd22"/>
     <use xlink:href="#medb5cdcfdc" x="261.004048" y="144.88674" style="fill: #bcbd22; stroke: #bcbd22"/>
     <use xlink:href="#medb5cdcfdc" x="278.370498" y="117.150321" style="fill: #bcbd22; stroke: #bcbd22"/>
     <use xlink:href="#medb5cdcfdc" x="295.736948" y="83.110171" style="fill: #bcbd22; stroke: #bcbd22"/>
     <use xlink:href="#medb5cdcfdc" x="347.836299" y="83.110171" style="fill: #bcbd22; stroke: #bcbd22"/>
     <use xlink:href="#medb5cdcfdc" x="365.202749" y="83.110171" style="fill: #bcbd22; stroke: #bcbd22"/>
     <use xlink:href="#medb5cdcfdc" x="382.569199" y="83.110171" style="fill: #bcbd22; stroke: #bcbd22"/>
     <use xlink:href="#medb5cdcfdc" x="399.935649" y="83.110171" style="fill: #bcbd22; stroke: #bcbd22"/>
     <use xlink:href="#medb5cdcfdc" x="417.3021" y="83.110171" style="fill: #bcbd22; stroke: #bcbd22"/>
     <use xlink:href="#medb5cdcfdc" x="452.035" y="83.110171" style="fill: #bcbd22; stroke: #bcbd22"/>
     <use xlink:href="#medb5cdcfdc" x="469.40145" y="83.110171" style="fill: #bcbd22; stroke: #bcbd22"/>
     <use xlink:href="#medb5cdcfdc" x="486.7679" y="83.110171" style="fill: #bcbd22; stroke: #bcbd22"/>
     <use xlink:href="#medb5cdcfdc" x="504.134351" y="83.110171" style="fill: #bcbd22; stroke: #bcbd22"/>
     <use xlink:href="#medb5cdcfdc" x="521.500801" y="83.110171" style="fill: #bcbd22; stroke: #bcbd22"/>
     <use xlink:href="#medb5cdcfdc" x="538.867251" y="83.110171" style="fill: #bcbd22; stroke: #bcbd22"/>
     <use xlink:href="#medb5cdcfdc" x="556.233701" y="83.110171" style="fill: #bcbd22; stroke: #bcbd22"/>
     <use xlink:href="#medb5cdcfdc" x="573.600152" y="83.110171" style="fill: #bcbd22; stroke: #bcbd22"/>
     <use xlink:href="#medb5cdcfdc" x="590.966602" y="83.110171" style="fill: #bcbd22; stroke: #bcbd22"/>
     <use xlink:href="#medb5cdcfdc" x="608.333052" y="83.110171" style="fill: #bcbd22; stroke: #bcbd22"/>
     <use xlink:href="#medb5cdcfdc" x="625.699502" y="64.198976" style="fill: #bcbd22; stroke: #bcbd22"/>
     <use xlink:href="#medb5cdcfdc" x="643.065952" y="64.198976" style="fill: #bcbd22; stroke: #bcbd22"/>
     <use xlink:href="#medb5cdcfdc" x="660.432403" y="64.198976" style="fill: #bcbd22; stroke: #bcbd22"/>
     <use xlink:href="#medb5cdcfdc" x="677.798853" y="64.198976" style="fill: #bcbd22; stroke: #bcbd22"/>
     <use xlink:href="#medb5cdcfdc" x="695.165303" y="64.198976" style="fill: #bcbd22; stroke: #bcbd22"/>
     <use xlink:href="#medb5cdcfdc" x="712.531753" y="64.198976" style="fill: #bcbd22; stroke: #bcbd22"/>
     <use xlink:href="#medb5cdcfdc" x="729.898203" y="64.198976" style="fill: #bcbd22; stroke: #bcbd22"/>
     <use xlink:href="#medb5cdcfdc" x="747.264654" y="64.198976" style="fill: #bcbd22; stroke: #bcbd22"/>
     <use xlink:href="#medb5cdcfdc" x="764.631104" y="64.198976" style="fill: #bcbd22; stroke: #bcbd22"/>
     <use xlink:href="#medb5cdcfdc" x="781.997554" y="64.198976" style="fill: #bcbd22; stroke: #bcbd22"/>
     <use xlink:href="#medb5cdcfdc" x="799.364004" y="64.198976" style="fill: #bcbd22; stroke: #bcbd22"/>
     <use xlink:href="#medb5cdcfdc" x="816.730455" y="64.198976" style="fill: #bcbd22; stroke: #bcbd22"/>
    </g>
   </g>
   <g id="patch_3">
    <path d="M 50.87 404.12 
L 50.87 26.88 
" style="fill: none; stroke: #000000; stroke-width: 0.8; stroke-linejoin: miter; stroke-linecap: square"/>
   </g>
   <g id="patch_4">
    <path d="M 853.2 404.12 
L 853.2 26.88 
" style="fill: none; stroke: #000000; stroke-width: 0.8; stroke-linejoin: miter; stroke-linecap: square"/>
   </g>
   <g id="patch_5">
    <path d="M 50.87 404.12 
L 853.2 404.12 
" style="fill: none; stroke: #000000; stroke-width: 0.8; stroke-linejoin: miter; stroke-linecap: square"/>
   </g>
   <g id="patch_6">
    <path d="M 50.87 26.88 
L 853.2 26.88 
" style="fill: none; stroke: #000000; stroke-width: 0.8; stroke-linejoin: miter; stroke-linecap: square"/>
   </g>
   <g id="text_14">
    <!-- Standings -->
    <g transform="translate(422.18125 20.88) scale(0.12 -0.12)">
     <defs>
      <path id="DejaVuSans-74" d="M 1172 4494 
L 1172 3500 
L 2356 3500 
L 2356 3053 
L 1172 3053 
L 1172 1153 
Q 1172 725 1289 603 
Q 1406 481 1766 481 
L 2356 481 
L 2356 0 
L 1766 0 
Q 1100 0 847 248 
Q 594 497 594 1153 
L 594 3053 
L 172 3053 
L 172 3500 
L 594 3500 
L 594 4494 
L 1172 4494 
z
" transform="scale(0.015625)"/>
      <path id="DejaVuSans-61" d="M 2194 1759 
Q 1497 1759 1228 1600 
Q 959 1441 959 1056 
Q 959 750 1161 570 
Q 1363 391 1709 391 
Q 2188 391 2477 730 
Q 2766 1069 2766 1631 
L 2766 1759 
L 2194 1759 
z
M 3341 1997 
L 3341 0 
L 2766 0 
L 2766 531 
Q 2569 213 2275 61 
Q 1981 -91 1556 -91 
Q 1019 -91 701 211 
Q 384 513 384 1019 
Q 384 1609 779 1909 
Q 1175 2209 1959 2209 
L 2766 2209 
L 2766 2266 
Q 2766 2663 2505 2880 
Q 2244 3097 1772 3097 
Q 1472 3097 1187 3025 
Q 903 2953 641 2809 
L 641 3341 
Q 956 3463 1253 3523 
Q 1550 3584 1831 3584 
Q 2591 3584 2966 3190 
Q 3341 2797 3341 1997 
z
" transform="scale(0.015625)"/>
      <path id="DejaVuSans-6e" d="M 3513 2113 
L 3513 0 
L 2938 0 
L 2938 2094 
Q 2938 2591 2744 2837 
Q 2550 3084 2163 3084 
Q 1697 3084 1428 2787 
Q 1159 2491 1159 1978 
L 1159 0 
L 581 0 
L 581 3500 
L 1159 3500 
L 1159 2956 
Q 1366 3272 1645 3428 
Q 1925 3584 2291 3584 
Q 2894 3584 3203 3211 
Q 3513 2838 3513 2113 
z
" transform="scale(0.015625)"/>
      <path id="DejaVuSans-64" d="M 2906 2969 
L 2906 4863 
L 3481 4863 
L 3481 0 
L 2906 0 
L 2906 525 
Q 2725 213 2448 61 
Q 2172 -91 1784 -91 
Q 1150 -91 751 415 
Q 353 922 353 1747 
Q 353 2572 751 3078 
Q 1150 3584 1784 3584 
Q 2172 3584 2448 3432 
Q 2725 3281 2906 2969 
z
M 947 1747 
Q 947 1113 1208 752 
Q 1469 391 1925 391 
Q 2381 391 2643 752 
Q 2906 1113 2906 1747 
Q 2906 2381 2643 2742 
Q 2381 3103 1925 3103 
Q 1469 3103 1208 2742 
Q 947 2381 947 1747 
z
" transform="scale(0.015625)"/>
      <path id="DejaVuSans-69" d="M 603 3500 
L 1178 3500 
L 1178 0 
L 603 0 
L 603 3500 
z
M 603 4863 
L 1178 4863 
L 1178 4134 
L 603 4134 
L 603 4863 
z
" transform="scale(0.015625)"/>
      <path id="DejaVuSans-67" d="M 2906 1791 
Q 2906 2416 2648 2759 
Q 2391 3103 1925 3103 
Q 1463 3103 1205 2759 
Q 947 2416 947 1791 
Q 947 1169 1205 825 
Q 1463 481 1925 481 
Q 2391 481 2648 825 
Q 2906 1169 2906 1791 
z
M 3481 434 
Q 3481 -459 3084 -895 
Q 2688 -1331 1869 -1331 
Q 1566 -1331 1297 -1286 
Q 1028 -1241 775 -1147 
L 775 -588 
Q 1028 -725 1275 -790 
Q 1522 -856 1778 -856 
Q 2344 -856 2625 -561 
Q 2906 -266 2906 331 
L 2906 616 
Q 2728 306 2450 153 
Q 2172 0 1784 0 
Q 1141 0 747 490 
Q 353 981 353 1791 
Q 353 2603 747 3093 
Q 1141 3584 1784 3584 
Q 2172 3584 2450 3431 
Q 2728 3278 2906 2969 
L 2906 3500 
L 3481 3500 
L 3481 434 
z
" transform="scale(0.015625)"/>
      <path id="DejaVuSans-73" d="M 2834 3397 
L 2834 2853 
Q 2591 2978 2328 3040 
Q 2066 3103 1784 3103 
Q 1356 3103 1142 2972 
Q 928 2841 928 2578 
Q 928 2378 1081 2264 
Q 1234 2150 1697 2047 
L 1894 2003 
Q 2506 1872 2764 1633 
Q 3022 1394 3022 966 
Q 3022 478 2636 193 
Q 2250 -91 1575 -91 
Q 1294 -91 989 -36 
Q 684 19 347 128 
L 347 722 
Q 666 556 975 473 
Q 1284 391 1588 391 
Q 1994 391 2212 530 
Q 2431 669 2431 922 
Q 2431 1156 2273 1281 
Q 2116 1406 1581 1522 
L 1381 1569 
Q 847 1681 609 1914 
Q 372 2147 372 2553 
Q 372 3047 722 3315 
Q 1072 3584 1716 3584 
Q 2034 3584 2315 3537 
Q 2597 3491 2834 3397 
z
" transform="scale(0.015625)"/>
     </defs>
     <use xlink:href="#DejaVuSans-53"/>
     <use xlink:href="#DejaVuSans-74" x="63.476562"/>
     <use xlink:href="#DejaVuSans-61" x="102.685547"/>
     <use xlink:href="#DejaVuSans-6e" x="163.964844"/>
     <use xlink:href="#DejaVuSans-64" x="227.34375"/>
     <use xlink:href="#DejaVuSans-69" x="290.820312"/>
     <use xlink:href="#DejaVuSans-6e" x="318.603516"/>
     <use xlink:href="#DejaVuSans-67" x="381.982422"/>
     <use xlink:href="#DejaVuSans-73" x="445.458984"/>
    </g>
   </g>
   <g id="legend_1">
    <g id="patch_7">
     <path d="M 57.87 166.983125 
L 153.949688 166.983125 
Q 155.949688 166.983125 155.949688 164.983125 
L 155.949688 33.88 
Q 155.949688 31.88 153.949688 31.88 
L 57.87 31.88 
Q 55.87 31.88 55.87 33.88 
L 55.87 164.983125 
Q 55.87 166.983125 57.87 166.983125 
z
" style="fill: #ffffff; opacity: 0.8; stroke: #cccccc; stroke-linejoin: miter"/>
    </g>
    <g id="line2d_34">
     <path d="M 59.87 39.978437 
L 69.87 39.978437 
L 79.87 39.978437 
" style="fill: none; stroke: #1f77b4; stroke-width: 1.5; stroke-linecap: square"/>
     <g>
      <use xlink:href="#m60e77291ac" x="69.87" y="39.978437" style="fill: #1f77b4; stroke: #1f77b4"/>
     </g>
    </g>
    <g id="text_15">
     <!-- Alan Ce -->
     <g transform="translate(87.87 43.478437) scale(0.1 -0.1)">
      <defs>
       <path id="DejaVuSans-41" d="M 2188 4044 
L 1331 1722 
L 3047 1722 
L 2188 4044 
z
M 1831 4666 
L 2547 4666 
L 4325 0 
L 3669 0 
L 3244 1197 
L 1141 1197 
L 716 0 
L 50 0 
L 1831 4666 
z
" transform="scale(0.015625)"/>
       <path id="DejaVuSans-6c" d="M 603 4863 
L 1178 4863 
L 1178 0 
L 603 0 
L 603 4863 
z
" transform="scale(0.015625)"/>
       <path id="DejaVuSans-20" transform="scale(0.015625)"/>
       <path id="DejaVuSans-43" d="M 4122 4306 
L 4122 3641 
Q 3803 3938 3442 4084 
Q 3081 4231 2675 4231 
Q 1875 4231 1450 3742 
Q 1025 3253 1025 2328 
Q 1025 1406 1450 917 
Q 1875 428 2675 428 
Q 3081 428 3442 575 
Q 3803 722 4122 1019 
L 4122 359 
Q 3791 134 3420 21 
Q 3050 -91 2638 -91 
Q 1578 -91 968 557 
Q 359 1206 359 2328 
Q 359 3453 968 4101 
Q 1578 4750 2638 4750 
Q 3056 4750 3426 4639 
Q 3797 4528 4122 4306 
z
" transform="scale(0.015625)"/>
      </defs>
      <use xlink:href="#DejaVuSans-41"/>
      <use xlink:href="#DejaVuSans-6c" x="68.408203"/>
      <use xlink:href="#DejaVuSans-61" x="96.191406"/>
      <use xlink:href="#DejaVuSans-6e" x="157.470703"/>
      <use xlink:href="#DejaVuSans-20" x="220.849609"/>
      <use xlink:href="#DejaVuSans-43" x="252.636719"/>
      <use xlink:href="#DejaVuSans-65" x="322.460938"/>
     </g>
    </g>
    <g id="line2d_35">
     <path d="M 59.87 54.656563 
L 69.87 54.656563 
L 79.87 54.656563 
" style="fill: none; stroke: #ff7f0e; stroke-width: 1.5; stroke-linecap: square"/>
     <g>
      <use xlink:href="#m6dd61671fa" x="69.87" y="54.656563" style="fill: #ff7f0e; stroke: #ff7f0e"/>
     </g>
    </g>
    <g id="text_16">
     <!-- Sebastian Le -->
     <g transform="translate(87.87 58.156563) scale(0.1 -0.1)">
      <defs>
       <path id="DejaVuSans-62" d="M 3116 1747 
Q 3116 2381 2855 2742 
Q 2594 3103 2138 3103 
Q 1681 3103 1420 2742 
Q 1159 2381 1159 1747 
Q 1159 1113 1420 752 
Q 1681 391 2138 391 
Q 2594 391 2855 752 
Q 3116 1113 3116 1747 
z
M 1159 2969 
Q 1341 3281 1617 3432 
Q 1894 3584 2278 3584 
Q 2916 3584 3314 3078 
Q 3713 2572 3713 1747 
Q 3713 922 3314 415 
Q 2916 -91 2278 -91 
Q 1894 -91 1617 61 
Q 1341 213 1159 525 
L 1159 0 
L 581 0 
L 581 4863 
L 1159 4863 
L 1159 2969 
z
" transform="scale(0.015625)"/>
       <path id="DejaVuSans-4c" d="M 628 4666 
L 1259 4666 
L 1259 531 
L 3531 531 
L 3531 0 
L 628 0 
L 628 4666 
z
" transform="scale(0.015625)"/>
      </defs>
      <use xlink:href="#DejaVuSans-53"/>
      <use xlink:href="#DejaVuSans-65" x="63.476562"/>
      <use xlink:href="#DejaVuSans-62" x="125"/>
      <use xlink:href="#DejaVuSans-61" x="188.476562"/>
      <use xlink:href="#DejaVuSans-73" x="249.755859"/>
      <use xlink:href="#DejaVuSans-74" x="301.855469"/>
      <use xlink:href="#DejaVuSans-69" x="341.064453"/>
      <use xlink:href="#DejaVuSans-61" x="368.847656"/>
      <use xlink:href="#DejaVuSans-6e" x="430.126953"/>
      <use xlink:href="#DejaVuSans-20" x="493.505859"/>
      <use xlink:href="#DejaVuSans-4c" x="525.292969"/>
      <use xlink:href="#DejaVuSans-65" x="579.255859"/>
     </g>
    </g>
    <g id="line2d_36">
     <path d="M 59.87 69.334687 
L 69.87 69.334687 
L 79.87 69.334687 
" style="fill: none; stroke: #2ca02c; stroke-width: 1.5; stroke-linecap: square"/>
     <g>
      <use xlink:href="#m59d87a12b8" x="69.87" y="69.334687" style="fill: #2ca02c; stroke: #2ca02c"/>
     </g>
    </g>
    <g id="text_17">
     <!-- Sarah Gy -->
     <g transform="translate(87.87 72.834687) scale(0.1 -0.1)">
      <defs>
       <path id="DejaVuSans-68" d="M 3513 2113 
L 3513 0 
L 2938 0 
L 2938 2094 
Q 2938 2591 2744 2837 
Q 2550 3084 2163 3084 
Q 1697 3084 1428 2787 
Q 1159 2491 1159 1978 
L 1159 0 
L 581 0 
L 581 4863 
L 1159 4863 
L 1159 2956 
Q 1366 3272 1645 3428 
Q 1925 3584 2291 3584 
Q 2894 3584 3203 3211 
Q 3513 2838 3513 2113 
z
" transform="scale(0.015625)"/>
       <path id="DejaVuSans-47" d="M 3809 666 
L 3809 1919 
L 2778 1919 
L 2778 2438 
L 4434 2438 
L 4434 434 
Q 4069 175 3628 42 
Q 3188 -91 2688 -91 
Q 1594 -91 976 548 
Q 359 1188 359 2328 
Q 359 3472 976 4111 
Q 1594 4750 2688 4750 
Q 3144 4750 3555 4637 
Q 3966 4525 4313 4306 
L 4313 3634 
Q 3963 3931 3569 4081 
Q 3175 4231 2741 4231 
Q 1884 4231 1454 3753 
Q 1025 3275 1025 2328 
Q 1025 1384 1454 906 
Q 1884 428 2741 428 
Q 3075 428 3337 486 
Q 3600 544 3809 666 
z
" transform="scale(0.015625)"/>
       <path id="DejaVuSans-79" d="M 2059 -325 
Q 1816 -950 1584 -1140 
Q 1353 -1331 966 -1331 
L 506 -1331 
L 506 -850 
L 844 -850 
Q 1081 -850 1212 -737 
Q 1344 -625 1503 -206 
L 1606 56 
L 191 3500 
L 800 3500 
L 1894 763 
L 2988 3500 
L 3597 3500 
L 2059 -325 
z
" transform="scale(0.015625)"/>
      </defs>
      <use xlink:href="#DejaVuSans-53"/>
      <use xlink:href="#DejaVuSans-61" x="63.476562"/>
      <use xlink:href="#DejaVuSans-72" x="124.755859"/>
      <use xlink:href="#DejaVuSans-61" x="165.869141"/>
      <use xlink:href="#DejaVuSans-68" x="227.148438"/>
      <use xlink:href="#DejaVuSans-20" x="290.527344"/>
      <use xlink:href="#DejaVuSans-47" x="322.314453"/>
      <use xlink:href="#DejaVuSans-79" x="399.804688"/>
     </g>
    </g>
    <g id="line2d_37">
     <path d="M 59.87 84.012812 
L 69.87 84.012812 
L 79.87 84.012812 
" style="fill: none; stroke: #d62728; stroke-width: 1.5; stroke-linecap: square"/>
     <g>
      <use xlink:href="#mc1d1603292" x="69.87" y="84.012812" style="fill: #d62728; stroke: #d62728"/>
     </g>
    </g>
    <g id="text_18">
     <!-- Matias BN -->
     <g transform="translate(87.87 87.512812) scale(0.1 -0.1)">
      <defs>
       <path id="DejaVuSans-4d" d="M 628 4666 
L 1569 4666 
L 2759 1491 
L 3956 4666 
L 4897 4666 
L 4897 0 
L 4281 0 
L 4281 4097 
L 3078 897 
L 2444 897 
L 1241 4097 
L 1241 0 
L 628 0 
L 628 4666 
z
" transform="scale(0.015625)"/>
       <path id="DejaVuSans-42" d="M 1259 2228 
L 1259 519 
L 2272 519 
Q 2781 519 3026 730 
Q 3272 941 3272 1375 
Q 3272 1813 3026 2020 
Q 2781 2228 2272 2228 
L 1259 2228 
z
M 1259 4147 
L 1259 2741 
L 2194 2741 
Q 2656 2741 2882 2914 
Q 3109 3088 3109 3444 
Q 3109 3797 2882 3972 
Q 2656 4147 2194 4147 
L 1259 4147 
z
M 628 4666 
L 2241 4666 
Q 2963 4666 3353 4366 
Q 3744 4066 3744 3513 
Q 3744 3084 3544 2831 
Q 3344 2578 2956 2516 
Q 3422 2416 3680 2098 
Q 3938 1781 3938 1306 
Q 3938 681 3513 340 
Q 3088 0 2303 0 
L 628 0 
L 628 4666 
z
" transform="scale(0.015625)"/>
       <path id="DejaVuSans-4e" d="M 628 4666 
L 1478 4666 
L 3547 763 
L 3547 4666 
L 4159 4666 
L 4159 0 
L 3309 0 
L 1241 3903 
L 1241 0 
L 628 0 
L 628 4666 
z
" transform="scale(0.015625)"/>
      </defs>
      <use xlink:href="#DejaVuSans-4d"/>
      <use xlink:href="#DejaVuSans-61" x="86.279297"/>
      <use xlink:href="#DejaVuSans-74" x="147.558594"/>
      <use xlink:href="#DejaVuSans-69" x="186.767578"/>
      <use xlink:href="#DejaVuSans-61" x="214.550781"/>
      <use xlink:href="#DejaVuSans-73" x="275.830078"/>
      <use xlink:href="#DejaVuSans-20" x="327.929688"/>
      <use xlink:href="#DejaVuSans-42" x="359.716797"/>
      <use xlink:href="#DejaVuSans-4e" x="428.320312"/>
     </g>
    </g>
    <g id="line2d_38">
     <path d="M 59.87 98.690938 
L 69.87 98.690938 
L 79.87 98.690938 
" style="fill: none; stroke: #9467bd; stroke-width: 1.5; stroke-linecap: square"/>
     <g>
      <use xlink:href="#m871e9de1ad" x="69.87" y="98.690938" style="fill: #9467bd; stroke: #9467bd"/>
     </g>
    </g>
    <g id="text_19">
     <!-- Christian Gr -->
     <g transform="translate(87.87 102.190938) scale(0.1 -0.1)">
      <use xlink:href="#DejaVuSans-43"/>
      <use xlink:href="#DejaVuSans-68" x="69.824219"/>
      <use xlink:href="#DejaVuSans-72" x="133.203125"/>
      <use xlink:href="#DejaVuSans-69" x="174.316406"/>
      <use xlink:href="#DejaVuSans-73" x="202.099609"/>
      <use xlink:href="#DejaVuSans-74" x="254.199219"/>
      <use xlink:href="#DejaVuSans-69" x="293.408203"/>
      <use xlink:href="#DejaVuSans-61" x="321.191406"/>
      <use xlink:href="#DejaVuSans-6e" x="382.470703"/>
      <use xlink:href="#DejaVuSans-20" x="445.849609"/>
      <use xlink:href="#DejaVuSans-47" x="477.636719"/>
      <use xlink:href="#DejaVuSans-72" x="555.126953"/>
     </g>
    </g>
    <g id="line2d_39">
     <path d="M 59.87 113.369062 
L 69.87 113.369062 
L 79.87 113.369062 
" style="fill: none; stroke: #8c564b; stroke-width: 1.5; stroke-linecap: square"/>
     <g>
      <use xlink:href="#ma030b03cbc" x="69.87" y="113.369062" style="fill: #8c564b; stroke: #8c564b"/>
     </g>
    </g>
    <g id="text_20">
     <!-- Oscar En -->
     <g transform="translate(87.87 116.869062) scale(0.1 -0.1)">
      <defs>
       <path id="DejaVuSans-4f" d="M 2522 4238 
Q 1834 4238 1429 3725 
Q 1025 3213 1025 2328 
Q 1025 1447 1429 934 
Q 1834 422 2522 422 
Q 3209 422 3611 934 
Q 4013 1447 4013 2328 
Q 4013 3213 3611 3725 
Q 3209 4238 2522 4238 
z
M 2522 4750 
Q 3503 4750 4090 4092 
Q 4678 3434 4678 2328 
Q 4678 1225 4090 567 
Q 3503 -91 2522 -91 
Q 1538 -91 948 565 
Q 359 1222 359 2328 
Q 359 3434 948 4092 
Q 1538 4750 2522 4750 
z
" transform="scale(0.015625)"/>
       <path id="DejaVuSans-45" d="M 628 4666 
L 3578 4666 
L 3578 4134 
L 1259 4134 
L 1259 2753 
L 3481 2753 
L 3481 2222 
L 1259 2222 
L 1259 531 
L 3634 531 
L 3634 0 
L 628 0 
L 628 4666 
z
" transform="scale(0.015625)"/>
      </defs>
      <use xlink:href="#DejaVuSans-4f"/>
      <use xlink:href="#DejaVuSans-73" x="78.710938"/>
      <use xlink:href="#DejaVuSans-63" x="130.810547"/>
      <use xlink:href="#DejaVuSans-61" x="185.791016"/>
      <use xlink:href="#DejaVuSans-72" x="247.070312"/>
      <use xlink:href="#DejaVuSans-20" x="288.183594"/>
      <use xlink:href="#DejaVuSans-45" x="319.970703"/>
      <use xlink:href="#DejaVuSans-6e" x="383.154297"/>
     </g>
    </g>
    <g id="line2d_40">
     <path d="M 59.87 128.047187 
L 69.87 128.047187 
L 79.87 128.047187 
" style="fill: none; stroke: #e377c2; stroke-width: 1.5; stroke-linecap: square"/>
     <g>
      <use xlink:href="#m362fe2c3a6" x="69.87" y="128.047187" style="fill: #e377c2; stroke: #e377c2"/>
     </g>
    </g>
    <g id="text_21">
     <!-- Bjarke Ha -->
     <g transform="translate(87.87 131.547187) scale(0.1 -0.1)">
      <defs>
       <path id="DejaVuSans-6a" d="M 603 3500 
L 1178 3500 
L 1178 -63 
Q 1178 -731 923 -1031 
Q 669 -1331 103 -1331 
L -116 -1331 
L -116 -844 
L 38 -844 
Q 366 -844 484 -692 
Q 603 -541 603 -63 
L 603 3500 
z
M 603 4863 
L 1178 4863 
L 1178 4134 
L 603 4134 
L 603 4863 
z
" transform="scale(0.015625)"/>
       <path id="DejaVuSans-6b" d="M 581 4863 
L 1159 4863 
L 1159 1991 
L 2875 3500 
L 3609 3500 
L 1753 1863 
L 3688 0 
L 2938 0 
L 1159 1709 
L 1159 0 
L 581 0 
L 581 4863 
z
" transform="scale(0.015625)"/>
       <path id="DejaVuSans-48" d="M 628 4666 
L 1259 4666 
L 1259 2753 
L 3553 2753 
L 3553 4666 
L 4184 4666 
L 4184 0 
L 3553 0 
L 3553 2222 
L 1259 2222 
L 1259 0 
L 628 0 
L 628 4666 
z
" transform="scale(0.015625)"/>
      </defs>
      <use xlink:href="#DejaVuSans-42"/>
      <use xlink:href="#DejaVuSans-6a" x="68.603516"/>
      <use xlink:href="#DejaVuSans-61" x="96.386719"/>
      <use xlink:href="#DejaVuSans-72" x="157.666016"/>
      <use xlink:href="#DejaVuSans-6b" x="198.779297"/>
      <use xlink:href="#DejaVuSans-65" x="253.064453"/>
      <use xlink:href="#DejaVuSans-20" x="314.587891"/>
      <use xlink:href="#DejaVuSans-48" x="346.375"/>
      <use xlink:href="#DejaVuSans-61" x="421.570312"/>
     </g>
    </g>
    <g id="line2d_41">
     <path d="M 59.87 142.725312 
L 69.87 142.725312 
L 79.87 142.725312 
" style="fill: none; stroke: #7f7f7f; stroke-width: 1.5; stroke-linecap: square"/>
     <g>
      <use xlink:href="#mdcebd651a8" x="69.87" y="142.725312" style="fill: #7f7f7f; stroke: #7f7f7f"/>
     </g>
    </g>
    <g id="text_22">
     <!-- Sif Ma -->
     <g transform="translate(87.87 146.225312) scale(0.1 -0.1)">
      <defs>
       <path id="DejaVuSans-66" d="M 2375 4863 
L 2375 4384 
L 1825 4384 
Q 1516 4384 1395 4259 
Q 1275 4134 1275 3809 
L 1275 3500 
L 2222 3500 
L 2222 3053 
L 1275 3053 
L 1275 0 
L 697 0 
L 697 3053 
L 147 3053 
L 147 3500 
L 697 3500 
L 697 3744 
Q 697 4328 969 4595 
Q 1241 4863 1831 4863 
L 2375 4863 
z
" transform="scale(0.015625)"/>
      </defs>
      <use xlink:href="#DejaVuSans-53"/>
      <use xlink:href="#DejaVuSans-69" x="63.476562"/>
      <use xlink:href="#DejaVuSans-66" x="91.259766"/>
      <use xlink:href="#DejaVuSans-20" x="126.464844"/>
      <use xlink:href="#DejaVuSans-4d" x="158.251953"/>
      <use xlink:href="#DejaVuSans-61" x="244.53125"/>
     </g>
    </g>
    <g id="line2d_42">
     <path d="M 59.87 157.403437 
L 69.87 157.403437 
L 79.87 157.403437 
" style="fill: none; stroke: #bcbd22; stroke-width: 1.5; stroke-linecap: square"/>
     <g>
      <use xlink:href="#medb5cdcfdc" x="69.87" y="157.403437" style="fill: #bcbd22; stroke: #bcbd22"/>
     </g>
    </g>
    <g id="text_23">
     <!-- Helene Cl -->
     <g transform="translate(87.87 160.903437) scale(0.1 -0.1)">
      <use xlink:href="#DejaVuSans-48"/>
      <use xlink:href="#DejaVuSans-65" x="75.195312"/>
      <use xlink:href="#DejaVuSans-6c" x="136.71875"/>
      <use xlink:href="#DejaVuSans-65" x="164.501953"/>
      <use xlink:href="#DejaVuSans-6e" x="226.025391"/>
      <use xlink:href="#DejaVuSans-65" x="289.404297"/>
      <use xlink:href="#DejaVuSans-20" x="350.927734"/>
      <use xlink:href="#DejaVuSans-43" x="382.714844"/>
      <use xlink:href="#DejaVuSans-6c" x="452.539062"/>
     </g>
    </g>
   </g>
  </g>
 </g>
 <defs>
  <clipPath id="pc88fa5bf37">
   <rect x="50.87" y="26.88" width="802.33" height="377.24"/>
  </clipPath>
 </defs>
</svg>
