<?xml version="1.0" encoding="utf-8" standalone="no"?>
<!DOCTYPE svg PUBLIC "-//W3C//DTD SVG 1.1//EN"
  "http://www.w3.org/Graphics/SVG/1.1/DTD/svg11.dtd">
<svg xmlns:xlink="http://www.w3.org/1999/xlink" width="864pt" height="432pt" viewBox="0 0 864 432" xmlns="http://www.w3.org/2000/svg" version="1.1">
 <metadata>
  <rdf:RDF xmlns:dc="http://purl.org/dc/elements/1.1/" xmlns:cc="http://creativecommons.org/ns#" xmlns:rdf="http://www.w3.org/1999/02/22-rdf-syntax-ns#">
   <cc:Work>
    <dc:type rdf:resource="http://purl.org/dc/dcmitype/StillImage"/>
    <dc:date>2024-07-29T01:46:18.696332</dc:date>
    <dc:format>image/svg+xml</dc:format>
    <dc:creator>
     <cc:Agent>
      <dc:title>Matplotlib v3.9.1, https://matplotlib.org/</dc:title>
     </cc:Agent>
    </dc:creator>
   </cc:Work>
  </rdf:RDF>
 </metadata>
 <defs>
  <style type="text/css">*{stroke-linejoin: round; stroke-linecap: butt}</style>
 </defs>
 <g id="figure_1">
  <g id="patch_1">
   <path d="M 0 432 
L 864 432 
L 864 0 
L 0 0 
z
" style="fill: #ffffff"/>
  </g>
  <g id="axes_1">
   <g id="patch_2">
    <path d="M 50.87 404.12 
L 853.2 404.12 
L 853.2 26.88 
L 50.87 26.88 
z
" style="fill: #ffffff"/>
   </g>
   <g id="matplotlib.axis_1">
    <g id="xtick_1">
     <g id="line2d_1">
      <path d="M 103.548232 404.12 
L 103.548232 26.88 
" clip-path="url(#p4f06731155)" style="fill: none; stroke-dasharray: 2.96,1.28; stroke-dashoffset: 0; stroke: #b0b0b0; stroke-width: 0.8"/>
     </g>
     <g id="line2d_2">
      <defs>
       <path id="mb7c519233f" d="M 0 0 
L 0 3.5 
" style="stroke: #000000; stroke-width: 0.8"/>
      </defs>
      <g>
       <use xlink:href="#mb7c519233f" x="103.548232" y="404.12" style="stroke: #000000; stroke-width: 0.8"/>
      </g>
     </g>
     <g id="text_1">
      <!-- 2024-06-15 -->
      <g transform="translate(74.49042 418.718437) scale(0.1 -0.1)">
       <defs>
        <path id="DejaVuSans-32" d="M 1228 531 
L 3431 531 
L 3431 0 
L 469 0 
L 469 531 
Q 828 903 1448 1529 
Q 2069 2156 2228 2338 
Q 2531 2678 2651 2914 
Q 2772 3150 2772 3378 
Q 2772 3750 2511 3984 
Q 2250 4219 1831 4219 
Q 1534 4219 1204 4116 
Q 875 4013 500 3803 
L 500 4441 
Q 881 4594 1212 4672 
Q 1544 4750 1819 4750 
Q 2544 4750 2975 4387 
Q 3406 4025 3406 3419 
Q 3406 3131 3298 2873 
Q 3191 2616 2906 2266 
Q 2828 2175 2409 1742 
Q 1991 1309 1228 531 
z
" transform="scale(0.015625)"/>
        <path id="DejaVuSans-30" d="M 2034 4250 
Q 1547 4250 1301 3770 
Q 1056 3291 1056 2328 
Q 1056 1369 1301 889 
Q 1547 409 2034 409 
Q 2525 409 2770 889 
Q 3016 1369 3016 2328 
Q 3016 3291 2770 3770 
Q 2525 4250 2034 4250 
z
M 2034 4750 
Q 2819 4750 3233 4129 
Q 3647 3509 3647 2328 
Q 3647 1150 3233 529 
Q 2819 -91 2034 -91 
Q 1250 -91 836 529 
Q 422 1150 422 2328 
Q 422 3509 836 4129 
Q 1250 4750 2034 4750 
z
" transform="scale(0.015625)"/>
        <path id="DejaVuSans-34" d="M 2419 4116 
L 825 1625 
L 2419 1625 
L 2419 4116 
z
M 2253 4666 
L 3047 4666 
L 3047 1625 
L 3713 1625 
L 3713 1100 
L 3047 1100 
L 3047 0 
L 2419 0 
L 2419 1100 
L 313 1100 
L 313 1709 
L 2253 4666 
z
" transform="scale(0.015625)"/>
        <path id="DejaVuSans-2d" d="M 313 2009 
L 1997 2009 
L 1997 1497 
L 313 1497 
L 313 2009 
z
" transform="scale(0.015625)"/>
        <path id="DejaVuSans-36" d="M 2113 2584 
Q 1688 2584 1439 2293 
Q 1191 2003 1191 1497 
Q 1191 994 1439 701 
Q 1688 409 2113 409 
Q 2538 409 2786 701 
Q 3034 994 3034 1497 
Q 3034 2003 2786 2293 
Q 2538 2584 2113 2584 
z
M 3366 4563 
L 3366 3988 
Q 3128 4100 2886 4159 
Q 2644 4219 2406 4219 
Q 1781 4219 1451 3797 
Q 1122 3375 1075 2522 
Q 1259 2794 1537 2939 
Q 1816 3084 2150 3084 
Q 2853 3084 3261 2657 
Q 3669 2231 3669 1497 
Q 3669 778 3244 343 
Q 2819 -91 2113 -91 
Q 1303 -91 875 529 
Q 447 1150 447 2328 
Q 447 3434 972 4092 
Q 1497 4750 2381 4750 
Q 2619 4750 2861 4703 
Q 3103 4656 3366 4563 
z
" transform="scale(0.015625)"/>
        <path id="DejaVuSans-31" d="M 794 531 
L 1825 531 
L 1825 4091 
L 703 3866 
L 703 4441 
L 1819 4666 
L 2450 4666 
L 2450 531 
L 3481 531 
L 3481 0 
L 794 0 
L 794 531 
z
" transform="scale(0.015625)"/>
        <path id="DejaVuSans-35" d="M 691 4666 
L 3169 4666 
L 3169 4134 
L 1269 4134 
L 1269 2991 
Q 1406 3038 1543 3061 
Q 1681 3084 1819 3084 
Q 2600 3084 3056 2656 
Q 3513 2228 3513 1497 
Q 3513 744 3044 326 
Q 2575 -91 1722 -91 
Q 1428 -91 1123 -41 
Q 819 9 494 109 
L 494 744 
Q 775 591 1075 516 
Q 1375 441 1709 441 
Q 2250 441 2565 725 
Q 2881 1009 2881 1497 
Q 2881 1984 2565 2268 
Q 2250 2553 1709 2553 
Q 1456 2553 1204 2497 
Q 953 2441 691 2322 
L 691 4666 
z
" transform="scale(0.015625)"/>
       </defs>
       <use xlink:href="#DejaVuSans-32"/>
       <use xlink:href="#DejaVuSans-30" x="63.623047"/>
       <use xlink:href="#DejaVuSans-32" x="127.246094"/>
       <use xlink:href="#DejaVuSans-34" x="190.869141"/>
       <use xlink:href="#DejaVuSans-2d" x="254.492188"/>
       <use xlink:href="#DejaVuSans-30" x="290.576172"/>
       <use xlink:href="#DejaVuSans-36" x="354.199219"/>
       <use xlink:href="#DejaVuSans-2d" x="417.822266"/>
       <use xlink:href="#DejaVuSans-31" x="453.90625"/>
       <use xlink:href="#DejaVuSans-35" x="517.529297"/>
      </g>
     </g>
    </g>
    <g id="xtick_2">
     <g id="line2d_3">
      <path d="M 217.00904 404.12 
L 217.00904 26.88 
" clip-path="url(#p4f06731155)" style="fill: none; stroke-dasharray: 2.96,1.28; stroke-dashoffset: 0; stroke: #b0b0b0; stroke-width: 0.8"/>
     </g>
     <g id="line2d_4">
      <g>
       <use xlink:href="#mb7c519233f" x="217.00904" y="404.12" style="stroke: #000000; stroke-width: 0.8"/>
      </g>
     </g>
     <g id="text_2">
      <!-- 2024-06-22 -->
      <g transform="translate(187.951228 418.718437) scale(0.1 -0.1)">
       <use xlink:href="#DejaVuSans-32"/>
       <use xlink:href="#DejaVuSans-30" x="63.623047"/>
       <use xlink:href="#DejaVuSans-32" x="127.246094"/>
       <use xlink:href="#DejaVuSans-34" x="190.869141"/>
       <use xlink:href="#DejaVuSans-2d" x="254.492188"/>
       <use xlink:href="#DejaVuSans-30" x="290.576172"/>
       <use xlink:href="#DejaVuSans-36" x="354.199219"/>
       <use xlink:href="#DejaVuSans-2d" x="417.822266"/>
       <use xlink:href="#DejaVuSans-32" x="453.90625"/>
       <use xlink:href="#DejaVuSans-32" x="517.529297"/>
      </g>
     </g>
    </g>
    <g id="xtick_3">
     <g id="line2d_5">
      <path d="M 362.887222 404.12 
L 362.887222 26.88 
" clip-path="url(#p4f06731155)" style="fill: none; stroke-dasharray: 2.96,1.28; stroke-dashoffset: 0; stroke: #b0b0b0; stroke-width: 0.8"/>
     </g>
     <g id="line2d_6">
      <g>
       <use xlink:href="#mb7c519233f" x="362.887222" y="404.12" style="stroke: #000000; stroke-width: 0.8"/>
      </g>
     </g>
     <g id="text_3">
      <!-- 2024-07-01 -->
      <g transform="translate(333.82941 418.718437) scale(0.1 -0.1)">
       <defs>
        <path id="DejaVuSans-37" d="M 525 4666 
L 3525 4666 
L 3525 4397 
L 1831 0 
L 1172 0 
L 2766 4134 
L 525 4134 
L 525 4666 
z
" transform="scale(0.015625)"/>
       </defs>
       <use xlink:href="#DejaVuSans-32"/>
       <use xlink:href="#DejaVuSans-30" x="63.623047"/>
       <use xlink:href="#DejaVuSans-32" x="127.246094"/>
       <use xlink:href="#DejaVuSans-34" x="190.869141"/>
       <use xlink:href="#DejaVuSans-2d" x="254.492188"/>
       <use xlink:href="#DejaVuSans-30" x="290.576172"/>
       <use xlink:href="#DejaVuSans-37" x="354.199219"/>
       <use xlink:href="#DejaVuSans-2d" x="417.822266"/>
       <use xlink:href="#DejaVuSans-30" x="453.90625"/>
       <use xlink:href="#DejaVuSans-31" x="517.529297"/>
      </g>
     </g>
    </g>
    <g id="xtick_4">
     <g id="line2d_7">
      <path d="M 476.34803 404.12 
L 476.34803 26.88 
" clip-path="url(#p4f06731155)" style="fill: none; stroke-dasharray: 2.96,1.28; stroke-dashoffset: 0; stroke: #b0b0b0; stroke-width: 0.8"/>
     </g>
     <g id="line2d_8">
      <g>
       <use xlink:href="#mb7c519233f" x="476.34803" y="404.12" style="stroke: #000000; stroke-width: 0.8"/>
      </g>
     </g>
     <g id="text_4">
      <!-- 2024-07-08 -->
      <g transform="translate(447.290218 418.718437) scale(0.1 -0.1)">
       <defs>
        <path id="DejaVuSans-38" d="M 2034 2216 
Q 1584 2216 1326 1975 
Q 1069 1734 1069 1313 
Q 1069 891 1326 650 
Q 1584 409 2034 409 
Q 2484 409 2743 651 
Q 3003 894 3003 1313 
Q 3003 1734 2745 1975 
Q 2488 2216 2034 2216 
z
M 1403 2484 
Q 997 2584 770 2862 
Q 544 3141 544 3541 
Q 544 4100 942 4425 
Q 1341 4750 2034 4750 
Q 2731 4750 3128 4425 
Q 3525 4100 3525 3541 
Q 3525 3141 3298 2862 
Q 3072 2584 2669 2484 
Q 3125 2378 3379 2068 
Q 3634 1759 3634 1313 
Q 3634 634 3220 271 
Q 2806 -91 2034 -91 
Q 1263 -91 848 271 
Q 434 634 434 1313 
Q 434 1759 690 2068 
Q 947 2378 1403 2484 
z
M 1172 3481 
Q 1172 3119 1398 2916 
Q 1625 2713 2034 2713 
Q 2441 2713 2670 2916 
Q 2900 3119 2900 3481 
Q 2900 3844 2670 4047 
Q 2441 4250 2034 4250 
Q 1625 4250 1398 4047 
Q 1172 3844 1172 3481 
z
" transform="scale(0.015625)"/>
       </defs>
       <use xlink:href="#DejaVuSans-32"/>
       <use xlink:href="#DejaVuSans-30" x="63.623047"/>
       <use xlink:href="#DejaVuSans-32" x="127.246094"/>
       <use xlink:href="#DejaVuSans-34" x="190.869141"/>
       <use xlink:href="#DejaVuSans-2d" x="254.492188"/>
       <use xlink:href="#DejaVuSans-30" x="290.576172"/>
       <use xlink:href="#DejaVuSans-37" x="354.199219"/>
       <use xlink:href="#DejaVuSans-2d" x="417.822266"/>
       <use xlink:href="#DejaVuSans-30" x="453.90625"/>
       <use xlink:href="#DejaVuSans-38" x="517.529297"/>
      </g>
     </g>
    </g>
    <g id="xtick_5">
     <g id="line2d_9">
      <path d="M 589.808838 404.12 
L 589.808838 26.88 
" clip-path="url(#p4f06731155)" style="fill: none; stroke-dasharray: 2.96,1.28; stroke-dashoffset: 0; stroke: #b0b0b0; stroke-width: 0.8"/>
     </g>
     <g id="line2d_10">
      <g>
       <use xlink:href="#mb7c519233f" x="589.808838" y="404.12" style="stroke: #000000; stroke-width: 0.8"/>
      </g>
     </g>
     <g id="text_5">
      <!-- 2024-07-15 -->
      <g transform="translate(560.751026 418.718437) scale(0.1 -0.1)">
       <use xlink:href="#DejaVuSans-32"/>
       <use xlink:href="#DejaVuSans-30" x="63.623047"/>
       <use xlink:href="#DejaVuSans-32" x="127.246094"/>
       <use xlink:href="#DejaVuSans-34" x="190.869141"/>
       <use xlink:href="#DejaVuSans-2d" x="254.492188"/>
       <use xlink:href="#DejaVuSans-30" x="290.576172"/>
       <use xlink:href="#DejaVuSans-37" x="354.199219"/>
       <use xlink:href="#DejaVuSans-2d" x="417.822266"/>
       <use xlink:href="#DejaVuSans-31" x="453.90625"/>
       <use xlink:href="#DejaVuSans-35" x="517.529297"/>
      </g>
     </g>
    </g>
    <g id="xtick_6">
     <g id="line2d_11">
      <path d="M 703.269646 404.12 
L 703.269646 26.88 
" clip-path="url(#p4f06731155)" style="fill: none; stroke-dasharray: 2.96,1.28; stroke-dashoffset: 0; stroke: #b0b0b0; stroke-width: 0.8"/>
     </g>
     <g id="line2d_12">
      <g>
       <use xlink:href="#mb7c519233f" x="703.269646" y="404.12" style="stroke: #000000; stroke-width: 0.8"/>
      </g>
     </g>
     <g id="text_6">
      <!-- 2024-07-22 -->
      <g transform="translate(674.211834 418.718437) scale(0.1 -0.1)">
       <use xlink:href="#DejaVuSans-32"/>
       <use xlink:href="#DejaVuSans-30" x="63.623047"/>
       <use xlink:href="#DejaVuSans-32" x="127.246094"/>
       <use xlink:href="#DejaVuSans-34" x="190.869141"/>
       <use xlink:href="#DejaVuSans-2d" x="254.492188"/>
       <use xlink:href="#DejaVuSans-30" x="290.576172"/>
       <use xlink:href="#DejaVuSans-37" x="354.199219"/>
       <use xlink:href="#DejaVuSans-2d" x="417.822266"/>
       <use xlink:href="#DejaVuSans-32" x="453.90625"/>
       <use xlink:href="#DejaVuSans-32" x="517.529297"/>
      </g>
     </g>
    </g>
   </g>
   <g id="matplotlib.axis_2">
    <g id="ytick_1">
     <g id="line2d_13">
      <path d="M 50.87 389.548776 
L 853.2 389.548776 
" clip-path="url(#p4f06731155)" style="fill: none; stroke-dasharray: 2.96,1.28; stroke-dashoffset: 0; stroke: #b0b0b0; stroke-width: 0.8"/>
     </g>
     <g id="line2d_14">
      <defs>
       <path id="m72b295b60d" d="M 0 0 
L -3.5 0 
" style="stroke: #000000; stroke-width: 0.8"/>
      </defs>
      <g>
       <use xlink:href="#m72b295b60d" x="50.87" y="389.548776" style="stroke: #000000; stroke-width: 0.8"/>
      </g>
     </g>
     <g id="text_7">
      <!-- 0 -->
      <g transform="translate(37.5075 393.347995) scale(0.1 -0.1)">
       <use xlink:href="#DejaVuSans-30"/>
      </g>
     </g>
    </g>
    <g id="ytick_2">
     <g id="line2d_15">
      <path d="M 50.87 326.488853 
L 853.2 326.488853 
" clip-path="url(#p4f06731155)" style="fill: none; stroke-dasharray: 2.96,1.28; stroke-dashoffset: 0; stroke: #b0b0b0; stroke-width: 0.8"/>
     </g>
     <g id="line2d_16">
      <g>
       <use xlink:href="#m72b295b60d" x="50.87" y="326.488853" style="stroke: #000000; stroke-width: 0.8"/>
      </g>
     </g>
     <g id="text_8">
      <!-- 50 -->
      <g transform="translate(31.145 330.288072) scale(0.1 -0.1)">
       <use xlink:href="#DejaVuSans-35"/>
       <use xlink:href="#DejaVuSans-30" x="63.623047"/>
      </g>
     </g>
    </g>
    <g id="ytick_3">
     <g id="line2d_17">
      <path d="M 50.87 263.428931 
L 853.2 263.428931 
" clip-path="url(#p4f06731155)" style="fill: none; stroke-dasharray: 2.96,1.28; stroke-dashoffset: 0; stroke: #b0b0b0; stroke-width: 0.8"/>
     </g>
     <g id="line2d_18">
      <g>
       <use xlink:href="#m72b295b60d" x="50.87" y="263.428931" style="stroke: #000000; stroke-width: 0.8"/>
      </g>
     </g>
     <g id="text_9">
      <!-- 100 -->
      <g transform="translate(24.7825 267.22815) scale(0.1 -0.1)">
       <use xlink:href="#DejaVuSans-31"/>
       <use xlink:href="#DejaVuSans-30" x="63.623047"/>
       <use xlink:href="#DejaVuSans-30" x="127.246094"/>
      </g>
     </g>
    </g>
    <g id="ytick_4">
     <g id="line2d_19">
      <path d="M 50.87 200.369009 
L 853.2 200.369009 
" clip-path="url(#p4f06731155)" style="fill: none; stroke-dasharray: 2.96,1.28; stroke-dashoffset: 0; stroke: #b0b0b0; stroke-width: 0.8"/>
     </g>
     <g id="line2d_20">
      <g>
       <use xlink:href="#m72b295b60d" x="50.87" y="200.369009" style="stroke: #000000; stroke-width: 0.8"/>
      </g>
     </g>
     <g id="text_10">
      <!-- 150 -->
      <g transform="translate(24.7825 204.168228) scale(0.1 -0.1)">
       <use xlink:href="#DejaVuSans-31"/>
       <use xlink:href="#DejaVuSans-35" x="63.623047"/>
       <use xlink:href="#DejaVuSans-30" x="127.246094"/>
      </g>
     </g>
    </g>
    <g id="ytick_5">
     <g id="line2d_21">
      <path d="M 50.87 137.309086 
L 853.2 137.309086 
" clip-path="url(#p4f06731155)" style="fill: none; stroke-dasharray: 2.96,1.28; stroke-dashoffset: 0; stroke: #b0b0b0; stroke-width: 0.8"/>
     </g>
     <g id="line2d_22">
      <g>
       <use xlink:href="#m72b295b60d" x="50.87" y="137.309086" style="stroke: #000000; stroke-width: 0.8"/>
      </g>
     </g>
     <g id="text_11">
      <!-- 200 -->
      <g transform="translate(24.7825 141.108305) scale(0.1 -0.1)">
       <use xlink:href="#DejaVuSans-32"/>
       <use xlink:href="#DejaVuSans-30" x="63.623047"/>
       <use xlink:href="#DejaVuSans-30" x="127.246094"/>
      </g>
     </g>
    </g>
    <g id="ytick_6">
     <g id="line2d_23">
      <path d="M 50.87 74.249164 
L 853.2 74.249164 
" clip-path="url(#p4f06731155)" style="fill: none; stroke-dasharray: 2.96,1.28; stroke-dashoffset: 0; stroke: #b0b0b0; stroke-width: 0.8"/>
     </g>
     <g id="line2d_24">
      <g>
       <use xlink:href="#m72b295b60d" x="50.87" y="74.249164" style="stroke: #000000; stroke-width: 0.8"/>
      </g>
     </g>
     <g id="text_12">
      <!-- 250 -->
      <g transform="translate(24.7825 78.048383) scale(0.1 -0.1)">
       <use xlink:href="#DejaVuSans-32"/>
       <use xlink:href="#DejaVuSans-35" x="63.623047"/>
       <use xlink:href="#DejaVuSans-30" x="127.246094"/>
      </g>
     </g>
    </g>
    <g id="text_13">
     <!-- Score -->
     <g transform="translate(18.702813 229.502344) rotate(-90) scale(0.1 -0.1)">
      <defs>
       <path id="DejaVuSans-53" d="M 3425 4513 
L 3425 3897 
Q 3066 4069 2747 4153 
Q 2428 4238 2131 4238 
Q 1616 4238 1336 4038 
Q 1056 3838 1056 3469 
Q 1056 3159 1242 3001 
Q 1428 2844 1947 2747 
L 2328 2669 
Q 3034 2534 3370 2195 
Q 3706 1856 3706 1288 
Q 3706 609 3251 259 
Q 2797 -91 1919 -91 
Q 1588 -91 1214 -16 
Q 841 59 441 206 
L 441 856 
Q 825 641 1194 531 
Q 1563 422 1919 422 
Q 2459 422 2753 634 
Q 3047 847 3047 1241 
Q 3047 1584 2836 1778 
Q 2625 1972 2144 2069 
L 1759 2144 
Q 1053 2284 737 2584 
Q 422 2884 422 3419 
Q 422 4038 858 4394 
Q 1294 4750 2059 4750 
Q 2388 4750 2728 4690 
Q 3069 4631 3425 4513 
z
" transform="scale(0.015625)"/>
       <path id="DejaVuSans-63" d="M 3122 3366 
L 3122 2828 
Q 2878 2963 2633 3030 
Q 2388 3097 2138 3097 
Q 1578 3097 1268 2742 
Q 959 2388 959 1747 
Q 959 1106 1268 751 
Q 1578 397 2138 397 
Q 2388 397 2633 464 
Q 2878 531 3122 666 
L 3122 134 
Q 2881 22 2623 -34 
Q 2366 -91 2075 -91 
Q 1284 -91 818 406 
Q 353 903 353 1747 
Q 353 2603 823 3093 
Q 1294 3584 2113 3584 
Q 2378 3584 2631 3529 
Q 2884 3475 3122 3366 
z
" transform="scale(0.015625)"/>
       <path id="DejaVuSans-6f" d="M 1959 3097 
Q 1497 3097 1228 2736 
Q 959 2375 959 1747 
Q 959 1119 1226 758 
Q 1494 397 1959 397 
Q 2419 397 2687 759 
Q 2956 1122 2956 1747 
Q 2956 2369 2687 2733 
Q 2419 3097 1959 3097 
z
M 1959 3584 
Q 2709 3584 3137 3096 
Q 3566 2609 3566 1747 
Q 3566 888 3137 398 
Q 2709 -91 1959 -91 
Q 1206 -91 779 398 
Q 353 888 353 1747 
Q 353 2609 779 3096 
Q 1206 3584 1959 3584 
z
" transform="scale(0.015625)"/>
       <path id="DejaVuSans-72" d="M 2631 2963 
Q 2534 3019 2420 3045 
Q 2306 3072 2169 3072 
Q 1681 3072 1420 2755 
Q 1159 2438 1159 1844 
L 1159 0 
L 581 0 
L 581 3500 
L 1159 3500 
L 1159 2956 
Q 1341 3275 1631 3429 
Q 1922 3584 2338 3584 
Q 2397 3584 2469 3576 
Q 2541 3569 2628 3553 
L 2631 2963 
z
" transform="scale(0.015625)"/>
       <path id="DejaVuSans-65" d="M 3597 1894 
L 3597 1613 
L 953 1613 
Q 991 1019 1311 708 
Q 1631 397 2203 397 
Q 2534 397 2845 478 
Q 3156 559 3463 722 
L 3463 178 
Q 3153 47 2828 -22 
Q 2503 -91 2169 -91 
Q 1331 -91 842 396 
Q 353 884 353 1716 
Q 353 2575 817 3079 
Q 1281 3584 2069 3584 
Q 2775 3584 3186 3129 
Q 3597 2675 3597 1894 
z
M 3022 2063 
Q 3016 2534 2758 2815 
Q 2500 3097 2075 3097 
Q 1594 3097 1305 2825 
Q 1016 2553 972 2059 
L 3022 2063 
z
" transform="scale(0.015625)"/>
      </defs>
      <use xlink:href="#DejaVuSans-53"/>
      <use xlink:href="#DejaVuSans-63" x="63.476562"/>
      <use xlink:href="#DejaVuSans-6f" x="118.457031"/>
      <use xlink:href="#DejaVuSans-72" x="179.638672"/>
      <use xlink:href="#DejaVuSans-65" x="218.501953"/>
     </g>
    </g>
   </g>
   <g id="line2d_25">
    <path d="M 87.339545 383.323984 
L 103.548232 358.100015 
L 119.756919 346.749229 
L 135.965606 337.920839 
L 152.174293 325.308855 
L 168.38298 313.958069 
L 184.591667 313.958069 
L 200.800354 295.040092 
L 217.00904 260.987734 
L 233.217727 237.024964 
L 249.426414 209.278598 
L 265.635101 191.62182 
L 281.843788 161.353057 
L 330.469848 161.353057 
L 346.678535 161.353057 
L 362.887222 161.353057 
L 379.095909 161.353057 
L 395.304596 161.353057 
L 427.72197 161.353057 
L 443.930657 161.353057 
L 460.139343 161.353057 
L 476.34803 161.353057 
L 492.556717 161.353057 
L 508.765404 161.353057 
L 524.974091 161.353057 
L 541.182778 161.353057 
L 557.391465 161.353057 
L 573.600152 161.353057 
L 589.808838 123.517103 
L 606.017525 123.517103 
L 622.226212 123.517103 
L 638.434899 123.517103 
L 654.643586 123.517103 
L 670.852273 123.517103 
L 687.06096 123.517103 
L 703.269646 123.517103 
L 719.478333 123.517103 
L 735.68702 123.517103 
L 751.895707 123.517103 
L 768.104394 123.517103 
L 784.313081 123.517103 
L 800.521768 123.517103 
L 816.730455 123.517103 
" clip-path="url(#p4f06731155)" style="fill: none; stroke: #1f77b4; stroke-width: 1.5; stroke-linecap: square"/>
    <defs>
     <path id="m7e1b256742" d="M 0 3.5 
C 0.928211 3.5 1.81853 3.131218 2.474874 2.474874 
C 3.131218 1.81853 3.5 0.928211 3.5 0 
C 3.5 -0.928211 3.131218 -1.81853 2.474874 -2.474874 
C 1.81853 -3.131218 0.928211 -3.5 0 -3.5 
C -0.928211 -3.5 -1.81853 -3.131218 -2.474874 -2.474874 
C -3.131218 -1.81853 -3.5 -0.928211 -3.5 0 
C -3.5 0.928211 -3.131218 1.81853 -2.474874 2.474874 
C -1.81853 3.131218 -0.928211 3.5 0 3.5 
z
" style="stroke: #1f77b4"/>
    </defs>
    <g clip-path="url(#p4f06731155)">
     <use xlink:href="#m7e1b256742" x="87.339545" y="383.323984" style="fill: #1f77b4; stroke: #1f77b4"/>
     <use xlink:href="#m7e1b256742" x="103.548232" y="358.100015" style="fill: #1f77b4; stroke: #1f77b4"/>
     <use xlink:href="#m7e1b256742" x="119.756919" y="346.749229" style="fill: #1f77b4; stroke: #1f77b4"/>
     <use xlink:href="#m7e1b256742" x="135.965606" y="337.920839" style="fill: #1f77b4; stroke: #1f77b4"/>
     <use xlink:href="#m7e1b256742" x="152.174293" y="325.308855" style="fill: #1f77b4; stroke: #1f77b4"/>
     <use xlink:href="#m7e1b256742" x="168.38298" y="313.958069" style="fill: #1f77b4; stroke: #1f77b4"/>
     <use xlink:href="#m7e1b256742" x="184.591667" y="313.958069" style="fill: #1f77b4; stroke: #1f77b4"/>
     <use xlink:href="#m7e1b256742" x="200.800354" y="295.040092" style="fill: #1f77b4; stroke: #1f77b4"/>
     <use xlink:href="#m7e1b256742" x="217.00904" y="260.987734" style="fill: #1f77b4; stroke: #1f77b4"/>
     <use xlink:href="#m7e1b256742" x="233.217727" y="237.024964" style="fill: #1f77b4; stroke: #1f77b4"/>
     <use xlink:href="#m7e1b256742" x="249.426414" y="209.278598" style="fill: #1f77b4; stroke: #1f77b4"/>
     <use xlink:href="#m7e1b256742" x="265.635101" y="191.62182" style="fill: #1f77b4; stroke: #1f77b4"/>
     <use xlink:href="#m7e1b256742" x="281.843788" y="161.353057" style="fill: #1f77b4; stroke: #1f77b4"/>
     <use xlink:href="#m7e1b256742" x="330.469848" y="161.353057" style="fill: #1f77b4; stroke: #1f77b4"/>
     <use xlink:href="#m7e1b256742" x="346.678535" y="161.353057" style="fill: #1f77b4; stroke: #1f77b4"/>
     <use xlink:href="#m7e1b256742" x="362.887222" y="161.353057" style="fill: #1f77b4; stroke: #1f77b4"/>
     <use xlink:href="#m7e1b256742" x="379.095909" y="161.353057" style="fill: #1f77b4; stroke: #1f77b4"/>
     <use xlink:href="#m7e1b256742" x="395.304596" y="161.353057" style="fill: #1f77b4; stroke: #1f77b4"/>
     <use xlink:href="#m7e1b256742" x="427.72197" y="161.353057" style="fill: #1f77b4; stroke: #1f77b4"/>
     <use xlink:href="#m7e1b256742" x="443.930657" y="161.353057" style="fill: #1f77b4; stroke: #1f77b4"/>
     <use xlink:href="#m7e1b256742" x="460.139343" y="161.353057" style="fill: #1f77b4; stroke: #1f77b4"/>
     <use xlink:href="#m7e1b256742" x="476.34803" y="161.353057" style="fill: #1f77b4; stroke: #1f77b4"/>
     <use xlink:href="#m7e1b256742" x="492.556717" y="161.353057" style="fill: #1f77b4; stroke: #1f77b4"/>
     <use xlink:href="#m7e1b256742" x="508.765404" y="161.353057" style="fill: #1f77b4; stroke: #1f77b4"/>
     <use xlink:href="#m7e1b256742" x="524.974091" y="161.353057" style="fill: #1f77b4; stroke: #1f77b4"/>
     <use xlink:href="#m7e1b256742" x="541.182778" y="161.353057" style="fill: #1f77b4; stroke: #1f77b4"/>
     <use xlink:href="#m7e1b256742" x="557.391465" y="161.353057" style="fill: #1f77b4; stroke: #1f77b4"/>
     <use xlink:href="#m7e1b256742" x="573.600152" y="161.353057" style="fill: #1f77b4; stroke: #1f77b4"/>
     <use xlink:href="#m7e1b256742" x="589.808838" y="123.517103" style="fill: #1f77b4; stroke: #1f77b4"/>
     <use xlink:href="#m7e1b256742" x="606.017525" y="123.517103" style="fill: #1f77b4; stroke: #1f77b4"/>
     <use xlink:href="#m7e1b256742" x="622.226212" y="123.517103" style="fill: #1f77b4; stroke: #1f77b4"/>
     <use xlink:href="#m7e1b256742" x="638.434899" y="123.517103" style="fill: #1f77b4; stroke: #1f77b4"/>
     <use xlink:href="#m7e1b256742" x="654.643586" y="123.517103" style="fill: #1f77b4; stroke: #1f77b4"/>
     <use xlink:href="#m7e1b256742" x="670.852273" y="123.517103" style="fill: #1f77b4; stroke: #1f77b4"/>
     <use xlink:href="#m7e1b256742" x="687.06096" y="123.517103" style="fill: #1f77b4; stroke: #1f77b4"/>
     <use xlink:href="#m7e1b256742" x="703.269646" y="123.517103" style="fill: #1f77b4; stroke: #1f77b4"/>
     <use xlink:href="#m7e1b256742" x="719.478333" y="123.517103" style="fill: #1f77b4; stroke: #1f77b4"/>
     <use xlink:href="#m7e1b256742" x="735.68702" y="123.517103" style="fill: #1f77b4; stroke: #1f77b4"/>
     <use xlink:href="#m7e1b256742" x="751.895707" y="123.517103" style="fill: #1f77b4; stroke: #1f77b4"/>
     <use xlink:href="#m7e1b256742" x="768.104394" y="123.517103" style="fill: #1f77b4; stroke: #1f77b4"/>
     <use xlink:href="#m7e1b256742" x="784.313081" y="123.517103" style="fill: #1f77b4; stroke: #1f77b4"/>
     <use xlink:href="#m7e1b256742" x="800.521768" y="123.517103" style="fill: #1f77b4; stroke: #1f77b4"/>
     <use xlink:href="#m7e1b256742" x="816.730455" y="123.517103" style="fill: #1f77b4; stroke: #1f77b4"/>
    </g>
   </g>
   <g id="line2d_26">
    <path d="M 87.339545 386.972727 
L 103.548232 349.136774 
L 119.756919 321.390408 
L 135.965606 306.256027 
L 152.174293 287.33805 
L 168.38298 269.681272 
L 184.591667 245.718501 
L 200.800354 240.673707 
L 217.00904 206.621349 
L 233.217727 197.79296 
L 249.426414 176.352587 
L 265.635101 162.479404 
L 281.843788 125.904649 
L 330.469848 125.904649 
L 346.678535 125.904649 
L 362.887222 125.904649 
L 379.095909 125.904649 
L 395.304596 125.904649 
L 427.72197 125.904649 
L 443.930657 125.904649 
L 460.139343 125.904649 
L 476.34803 125.904649 
L 492.556717 125.904649 
L 508.765404 125.904649 
L 524.974091 125.904649 
L 541.182778 125.904649 
L 557.391465 125.904649 
L 573.600152 125.904649 
L 589.808838 119.598656 
L 606.017525 119.598656 
L 622.226212 119.598656 
L 638.434899 119.598656 
L 654.643586 119.598656 
L 670.852273 119.598656 
L 687.06096 119.598656 
L 703.269646 119.598656 
L 719.478333 119.598656 
L 735.68702 119.598656 
L 751.895707 119.598656 
L 768.104394 119.598656 
L 784.313081 119.598656 
L 800.521768 119.598656 
L 816.730455 119.598656 
" clip-path="url(#p4f06731155)" style="fill: none; stroke: #ff7f0e; stroke-width: 1.5; stroke-linecap: square"/>
    <defs>
     <path id="m2807e699aa" d="M 0 3.5 
C 0.928211 3.5 1.81853 3.131218 2.474874 2.474874 
C 3.131218 1.81853 3.5 0.928211 3.5 0 
C 3.5 -0.928211 3.131218 -1.81853 2.474874 -2.474874 
C 1.81853 -3.131218 0.928211 -3.5 0 -3.5 
C -0.928211 -3.5 -1.81853 -3.131218 -2.474874 -2.474874 
C -3.131218 -1.81853 -3.5 -0.928211 -3.5 0 
C -3.5 0.928211 -3.131218 1.81853 -2.474874 2.474874 
C -1.81853 3.131218 -0.928211 3.5 0 3.5 
z
" style="stroke: #ff7f0e"/>
    </defs>
    <g clip-path="url(#p4f06731155)">
     <use xlink:href="#m2807e699aa" x="87.339545" y="386.972727" style="fill: #ff7f0e; stroke: #ff7f0e"/>
     <use xlink:href="#m2807e699aa" x="103.548232" y="349.136774" style="fill: #ff7f0e; stroke: #ff7f0e"/>
     <use xlink:href="#m2807e699aa" x="119.756919" y="321.390408" style="fill: #ff7f0e; stroke: #ff7f0e"/>
     <use xlink:href="#m2807e699aa" x="135.965606" y="306.256027" style="fill: #ff7f0e; stroke: #ff7f0e"/>
     <use xlink:href="#m2807e699aa" x="152.174293" y="287.33805" style="fill: #ff7f0e; stroke: #ff7f0e"/>
     <use xlink:href="#m2807e699aa" x="168.38298" y="269.681272" style="fill: #ff7f0e; stroke: #ff7f0e"/>
     <use xlink:href="#m2807e699aa" x="184.591667" y="245.718501" style="fill: #ff7f0e; stroke: #ff7f0e"/>
     <use xlink:href="#m2807e699aa" x="200.800354" y="240.673707" style="fill: #ff7f0e; stroke: #ff7f0e"/>
     <use xlink:href="#m2807e699aa" x="217.00904" y="206.621349" style="fill: #ff7f0e; stroke: #ff7f0e"/>
     <use xlink:href="#m2807e699aa" x="233.217727" y="197.79296" style="fill: #ff7f0e; stroke: #ff7f0e"/>
     <use xlink:href="#m2807e699aa" x="249.426414" y="176.352587" style="fill: #ff7f0e; stroke: #ff7f0e"/>
     <use xlink:href="#m2807e699aa" x="265.635101" y="162.479404" style="fill: #ff7f0e; stroke: #ff7f0e"/>
     <use xlink:href="#m2807e699aa" x="281.843788" y="125.904649" style="fill: #ff7f0e; stroke: #ff7f0e"/>
     <use xlink:href="#m2807e699aa" x="330.469848" y="125.904649" style="fill: #ff7f0e; stroke: #ff7f0e"/>
     <use xlink:href="#m2807e699aa" x="346.678535" y="125.904649" style="fill: #ff7f0e; stroke: #ff7f0e"/>
     <use xlink:href="#m2807e699aa" x="362.887222" y="125.904649" style="fill: #ff7f0e; stroke: #ff7f0e"/>
     <use xlink:href="#m2807e699aa" x="379.095909" y="125.904649" style="fill: #ff7f0e; stroke: #ff7f0e"/>
     <use xlink:href="#m2807e699aa" x="395.304596" y="125.904649" style="fill: #ff7f0e; stroke: #ff7f0e"/>
     <use xlink:href="#m2807e699aa" x="427.72197" y="125.904649" style="fill: #ff7f0e; stroke: #ff7f0e"/>
     <use xlink:href="#m2807e699aa" x="443.930657" y="125.904649" style="fill: #ff7f0e; stroke: #ff7f0e"/>
     <use xlink:href="#m2807e699aa" x="460.139343" y="125.904649" style="fill: #ff7f0e; stroke: #ff7f0e"/>
     <use xlink:href="#m2807e699aa" x="476.34803" y="125.904649" style="fill: #ff7f0e; stroke: #ff7f0e"/>
     <use xlink:href="#m2807e699aa" x="492.556717" y="125.904649" style="fill: #ff7f0e; stroke: #ff7f0e"/>
     <use xlink:href="#m2807e699aa" x="508.765404" y="125.904649" style="fill: #ff7f0e; stroke: #ff7f0e"/>
     <use xlink:href="#m2807e699aa" x="524.974091" y="125.904649" style="fill: #ff7f0e; stroke: #ff7f0e"/>
     <use xlink:href="#m2807e699aa" x="541.182778" y="125.904649" style="fill: #ff7f0e; stroke: #ff7f0e"/>
     <use xlink:href="#m2807e699aa" x="557.391465" y="125.904649" style="fill: #ff7f0e; stroke: #ff7f0e"/>
     <use xlink:href="#m2807e699aa" x="573.600152" y="125.904649" style="fill: #ff7f0e; stroke: #ff7f0e"/>
     <use xlink:href="#m2807e699aa" x="589.808838" y="119.598656" style="fill: #ff7f0e; stroke: #ff7f0e"/>
     <use xlink:href="#m2807e699aa" x="606.017525" y="119.598656" style="fill: #ff7f0e; stroke: #ff7f0e"/>
     <use xlink:href="#m2807e699aa" x="622.226212" y="119.598656" style="fill: #ff7f0e; stroke: #ff7f0e"/>
     <use xlink:href="#m2807e699aa" x="638.434899" y="119.598656" style="fill: #ff7f0e; stroke: #ff7f0e"/>
     <use xlink:href="#m2807e699aa" x="654.643586" y="119.598656" style="fill: #ff7f0e; stroke: #ff7f0e"/>
     <use xlink:href="#m2807e699aa" x="670.852273" y="119.598656" style="fill: #ff7f0e; stroke: #ff7f0e"/>
     <use xlink:href="#m2807e699aa" x="687.06096" y="119.598656" style="fill: #ff7f0e; stroke: #ff7f0e"/>
     <use xlink:href="#m2807e699aa" x="703.269646" y="119.598656" style="fill: #ff7f0e; stroke: #ff7f0e"/>
     <use xlink:href="#m2807e699aa" x="719.478333" y="119.598656" style="fill: #ff7f0e; stroke: #ff7f0e"/>
     <use xlink:href="#m2807e699aa" x="735.68702" y="119.598656" style="fill: #ff7f0e; stroke: #ff7f0e"/>
     <use xlink:href="#m2807e699aa" x="751.895707" y="119.598656" style="fill: #ff7f0e; stroke: #ff7f0e"/>
     <use xlink:href="#m2807e699aa" x="768.104394" y="119.598656" style="fill: #ff7f0e; stroke: #ff7f0e"/>
     <use xlink:href="#m2807e699aa" x="784.313081" y="119.598656" style="fill: #ff7f0e; stroke: #ff7f0e"/>
     <use xlink:href="#m2807e699aa" x="800.521768" y="119.598656" style="fill: #ff7f0e; stroke: #ff7f0e"/>
     <use xlink:href="#m2807e699aa" x="816.730455" y="119.598656" style="fill: #ff7f0e; stroke: #ff7f0e"/>
    </g>
   </g>
   <g id="line2d_27">
    <path d="M 87.339545 376.906761 
L 103.548232 351.682792 
L 119.756919 332.764815 
L 135.965606 320.152831 
L 152.174293 288.62287 
L 168.38298 270.966091 
L 184.591667 259.615305 
L 200.800354 225.562947 
L 217.00904 194.032986 
L 233.217727 166.28662 
L 249.426414 144.846247 
L 265.635101 137.279056 
L 281.843788 80.525126 
L 330.469848 80.525126 
L 346.678535 80.525126 
L 362.887222 80.525126 
L 379.095909 80.525126 
L 395.304596 80.525126 
L 427.72197 80.525126 
L 443.930657 80.525126 
L 460.139343 80.525126 
L 476.34803 80.525126 
L 492.556717 80.525126 
L 508.765404 80.525126 
L 524.974091 80.525126 
L 541.182778 80.525126 
L 557.391465 80.525126 
L 573.600152 80.525126 
L 589.808838 80.525126 
L 606.017525 80.525126 
L 622.226212 80.525126 
L 638.434899 80.525126 
L 654.643586 80.525126 
L 670.852273 80.525126 
L 687.06096 80.525126 
L 703.269646 80.525126 
L 719.478333 80.525126 
L 735.68702 80.525126 
L 751.895707 80.525126 
L 768.104394 80.525126 
L 784.313081 80.525126 
L 800.521768 80.525126 
L 816.730455 80.525126 
" clip-path="url(#p4f06731155)" style="fill: none; stroke: #2ca02c; stroke-width: 1.5; stroke-linecap: square"/>
    <defs>
     <path id="m0209e2d8f2" d="M 0 3.5 
C 0.928211 3.5 1.81853 3.131218 2.474874 2.474874 
C 3.131218 1.81853 3.5 0.928211 3.5 0 
C 3.5 -0.928211 3.131218 -1.81853 2.474874 -2.474874 
C 1.81853 -3.131218 0.928211 -3.5 0 -3.5 
C -0.928211 -3.5 -1.81853 -3.131218 -2.474874 -2.474874 
C -3.131218 -1.81853 -3.5 -0.928211 -3.5 0 
C -3.5 0.928211 -3.131218 1.81853 -2.474874 2.474874 
C -1.81853 3.131218 -0.928211 3.5 0 3.5 
z
" style="stroke: #2ca02c"/>
    </defs>
    <g clip-path="url(#p4f06731155)">
     <use xlink:href="#m0209e2d8f2" x="87.339545" y="376.906761" style="fill: #2ca02c; stroke: #2ca02c"/>
     <use xlink:href="#m0209e2d8f2" x="103.548232" y="351.682792" style="fill: #2ca02c; stroke: #2ca02c"/>
     <use xlink:href="#m0209e2d8f2" x="119.756919" y="332.764815" style="fill: #2ca02c; stroke: #2ca02c"/>
     <use xlink:href="#m0209e2d8f2" x="135.965606" y="320.152831" style="fill: #2ca02c; stroke: #2ca02c"/>
     <use xlink:href="#m0209e2d8f2" x="152.174293" y="288.62287" style="fill: #2ca02c; stroke: #2ca02c"/>
     <use xlink:href="#m0209e2d8f2" x="168.38298" y="270.966091" style="fill: #2ca02c; stroke: #2ca02c"/>
     <use xlink:href="#m0209e2d8f2" x="184.591667" y="259.615305" style="fill: #2ca02c; stroke: #2ca02c"/>
     <use xlink:href="#m0209e2d8f2" x="200.800354" y="225.562947" style="fill: #2ca02c; stroke: #2ca02c"/>
     <use xlink:href="#m0209e2d8f2" x="217.00904" y="194.032986" style="fill: #2ca02c; stroke: #2ca02c"/>
     <use xlink:href="#m0209e2d8f2" x="233.217727" y="166.28662" style="fill: #2ca02c; stroke: #2ca02c"/>
     <use xlink:href="#m0209e2d8f2" x="249.426414" y="144.846247" style="fill: #2ca02c; stroke: #2ca02c"/>
     <use xlink:href="#m0209e2d8f2" x="265.635101" y="137.279056" style="fill: #2ca02c; stroke: #2ca02c"/>
     <use xlink:href="#m0209e2d8f2" x="281.843788" y="80.525126" style="fill: #2ca02c; stroke: #2ca02c"/>
     <use xlink:href="#m0209e2d8f2" x="330.469848" y="80.525126" style="fill: #2ca02c; stroke: #2ca02c"/>
     <use xlink:href="#m0209e2d8f2" x="346.678535" y="80.525126" style="fill: #2ca02c; stroke: #2ca02c"/>
     <use xlink:href="#m0209e2d8f2" x="362.887222" y="80.525126" style="fill: #2ca02c; stroke: #2ca02c"/>
     <use xlink:href="#m0209e2d8f2" x="379.095909" y="80.525126" style="fill: #2ca02c; stroke: #2ca02c"/>
     <use xlink:href="#m0209e2d8f2" x="395.304596" y="80.525126" style="fill: #2ca02c; stroke: #2ca02c"/>
     <use xlink:href="#m0209e2d8f2" x="427.72197" y="80.525126" style="fill: #2ca02c; stroke: #2ca02c"/>
     <use xlink:href="#m0209e2d8f2" x="443.930657" y="80.525126" style="fill: #2ca02c; stroke: #2ca02c"/>
     <use xlink:href="#m0209e2d8f2" x="460.139343" y="80.525126" style="fill: #2ca02c; stroke: #2ca02c"/>
     <use xlink:href="#m0209e2d8f2" x="476.34803" y="80.525126" style="fill: #2ca02c; stroke: #2ca02c"/>
     <use xlink:href="#m0209e2d8f2" x="492.556717" y="80.525126" style="fill: #2ca02c; stroke: #2ca02c"/>
     <use xlink:href="#m0209e2d8f2" x="508.765404" y="80.525126" style="fill: #2ca02c; stroke: #2ca02c"/>
     <use xlink:href="#m0209e2d8f2" x="524.974091" y="80.525126" style="fill: #2ca02c; stroke: #2ca02c"/>
     <use xlink:href="#m0209e2d8f2" x="541.182778" y="80.525126" style="fill: #2ca02c; stroke: #2ca02c"/>
     <use xlink:href="#m0209e2d8f2" x="557.391465" y="80.525126" style="fill: #2ca02c; stroke: #2ca02c"/>
     <use xlink:href="#m0209e2d8f2" x="573.600152" y="80.525126" style="fill: #2ca02c; stroke: #2ca02c"/>
     <use xlink:href="#m0209e2d8f2" x="589.808838" y="80.525126" style="fill: #2ca02c; stroke: #2ca02c"/>
     <use xlink:href="#m0209e2d8f2" x="606.017525" y="80.525126" style="fill: #2ca02c; stroke: #2ca02c"/>
     <use xlink:href="#m0209e2d8f2" x="622.226212" y="80.525126" style="fill: #2ca02c; stroke: #2ca02c"/>
     <use xlink:href="#m0209e2d8f2" x="638.434899" y="80.525126" style="fill: #2ca02c; stroke: #2ca02c"/>
     <use xlink:href="#m0209e2d8f2" x="654.643586" y="80.525126" style="fill: #2ca02c; stroke: #2ca02c"/>
     <use xlink:href="#m0209e2d8f2" x="670.852273" y="80.525126" style="fill: #2ca02c; stroke: #2ca02c"/>
     <use xlink:href="#m0209e2d8f2" x="687.06096" y="80.525126" style="fill: #2ca02c; stroke: #2ca02c"/>
     <use xlink:href="#m0209e2d8f2" x="703.269646" y="80.525126" style="fill: #2ca02c; stroke: #2ca02c"/>
     <use xlink:href="#m0209e2d8f2" x="719.478333" y="80.525126" style="fill: #2ca02c; stroke: #2ca02c"/>
     <use xlink:href="#m0209e2d8f2" x="735.68702" y="80.525126" style="fill: #2ca02c; stroke: #2ca02c"/>
     <use xlink:href="#m0209e2d8f2" x="751.895707" y="80.525126" style="fill: #2ca02c; stroke: #2ca02c"/>
     <use xlink:href="#m0209e2d8f2" x="768.104394" y="80.525126" style="fill: #2ca02c; stroke: #2ca02c"/>
     <use xlink:href="#m0209e2d8f2" x="784.313081" y="80.525126" style="fill: #2ca02c; stroke: #2ca02c"/>
     <use xlink:href="#m0209e2d8f2" x="800.521768" y="80.525126" style="fill: #2ca02c; stroke: #2ca02c"/>
     <use xlink:href="#m0209e2d8f2" x="816.730455" y="80.525126" style="fill: #2ca02c; stroke: #2ca02c"/>
    </g>
   </g>
   <g id="line2d_28">
    <path d="M 87.339545 376.983663 
L 103.548232 355.543289 
L 119.756919 317.707336 
L 135.965606 308.878947 
L 152.174293 289.96097 
L 168.38298 271.042993 
L 184.591667 243.296627 
L 200.800354 231.945841 
L 217.00904 200.41588 
L 233.217727 189.065094 
L 249.426414 155.012736 
L 265.635101 134.833561 
L 281.843788 75.557234 
L 330.469848 75.557234 
L 346.678535 75.557234 
L 362.887222 75.557234 
L 379.095909 75.557234 
L 395.304596 75.557234 
L 427.72197 75.557234 
L 443.930657 75.557234 
L 460.139343 75.557234 
L 476.34803 75.557234 
L 492.556717 75.557234 
L 508.765404 56.639257 
L 524.974091 56.639257 
L 541.182778 56.639257 
L 557.391465 56.639257 
L 573.600152 56.639257 
L 589.808838 44.027273 
L 606.017525 44.027273 
L 622.226212 44.027273 
L 638.434899 44.027273 
L 654.643586 44.027273 
L 670.852273 44.027273 
L 687.06096 44.027273 
L 703.269646 44.027273 
L 719.478333 44.027273 
L 735.68702 44.027273 
L 751.895707 44.027273 
L 768.104394 44.027273 
L 784.313081 44.027273 
L 800.521768 44.027273 
L 816.730455 44.027273 
" clip-path="url(#p4f06731155)" style="fill: none; stroke: #d62728; stroke-width: 1.5; stroke-linecap: square"/>
    <defs>
     <path id="m38c3e4c214" d="M 0 3.5 
C 0.928211 3.5 1.81853 3.131218 2.474874 2.474874 
C 3.131218 1.81853 3.5 0.928211 3.5 0 
C 3.5 -0.928211 3.131218 -1.81853 2.474874 -2.474874 
C 1.81853 -3.131218 0.928211 -3.5 0 -3.5 
C -0.928211 -3.5 -1.81853 -3.131218 -2.474874 -2.474874 
C -3.131218 -1.81853 -3.5 -0.928211 -3.5 0 
C -3.5 0.928211 -3.131218 1.81853 -2.474874 2.474874 
C -1.81853 3.131218 -0.928211 3.5 0 3.5 
z
" style="stroke: #d62728"/>
    </defs>
    <g clip-path="url(#p4f06731155)">
     <use xlink:href="#m38c3e4c214" x="87.339545" y="376.983663" style="fill: #d62728; stroke: #d62728"/>
     <use xlink:href="#m38c3e4c214" x="103.548232" y="355.543289" style="fill: #d62728; stroke: #d62728"/>
     <use xlink:href="#m38c3e4c214" x="119.756919" y="317.707336" style="fill: #d62728; stroke: #d62728"/>
     <use xlink:href="#m38c3e4c214" x="135.965606" y="308.878947" style="fill: #d62728; stroke: #d62728"/>
     <use xlink:href="#m38c3e4c214" x="152.174293" y="289.96097" style="fill: #d62728; stroke: #d62728"/>
     <use xlink:href="#m38c3e4c214" x="168.38298" y="271.042993" style="fill: #d62728; stroke: #d62728"/>
     <use xlink:href="#m38c3e4c214" x="184.591667" y="243.296627" style="fill: #d62728; stroke: #d62728"/>
     <use xlink:href="#m38c3e4c214" x="200.800354" y="231.945841" style="fill: #d62728; stroke: #d62728"/>
     <use xlink:href="#m38c3e4c214" x="217.00904" y="200.41588" style="fill: #d62728; stroke: #d62728"/>
     <use xlink:href="#m38c3e4c214" x="233.217727" y="189.065094" style="fill: #d62728; stroke: #d62728"/>
     <use xlink:href="#m38c3e4c214" x="249.426414" y="155.012736" style="fill: #d62728; stroke: #d62728"/>
     <use xlink:href="#m38c3e4c214" x="265.635101" y="134.833561" style="fill: #d62728; stroke: #d62728"/>
     <use xlink:href="#m38c3e4c214" x="281.843788" y="75.557234" style="fill: #d62728; stroke: #d62728"/>
     <use xlink:href="#m38c3e4c214" x="330.469848" y="75.557234" style="fill: #d62728; stroke: #d62728"/>
     <use xlink:href="#m38c3e4c214" x="346.678535" y="75.557234" style="fill: #d62728; stroke: #d62728"/>
     <use xlink:href="#m38c3e4c214" x="362.887222" y="75.557234" style="fill: #d62728; stroke: #d62728"/>
     <use xlink:href="#m38c3e4c214" x="379.095909" y="75.557234" style="fill: #d62728; stroke: #d62728"/>
     <use xlink:href="#m38c3e4c214" x="395.304596" y="75.557234" style="fill: #d62728; stroke: #d62728"/>
     <use xlink:href="#m38c3e4c214" x="427.72197" y="75.557234" style="fill: #d62728; stroke: #d62728"/>
     <use xlink:href="#m38c3e4c214" x="443.930657" y="75.557234" style="fill: #d62728; stroke: #d62728"/>
     <use xlink:href="#m38c3e4c214" x="460.139343" y="75.557234" style="fill: #d62728; stroke: #d62728"/>
     <use xlink:href="#m38c3e4c214" x="476.34803" y="75.557234" style="fill: #d62728; stroke: #d62728"/>
     <use xlink:href="#m38c3e4c214" x="492.556717" y="75.557234" style="fill: #d62728; stroke: #d62728"/>
     <use xlink:href="#m38c3e4c214" x="508.765404" y="56.639257" style="fill: #d62728; stroke: #d62728"/>
     <use xlink:href="#m38c3e4c214" x="524.974091" y="56.639257" style="fill: #d62728; stroke: #d62728"/>
     <use xlink:href="#m38c3e4c214" x="541.182778" y="56.639257" style="fill: #d62728; stroke: #d62728"/>
     <use xlink:href="#m38c3e4c214" x="557.391465" y="56.639257" style="fill: #d62728; stroke: #d62728"/>
     <use xlink:href="#m38c3e4c214" x="573.600152" y="56.639257" style="fill: #d62728; stroke: #d62728"/>
     <use xlink:href="#m38c3e4c214" x="589.808838" y="44.027273" style="fill: #d62728; stroke: #d62728"/>
     <use xlink:href="#m38c3e4c214" x="606.017525" y="44.027273" style="fill: #d62728; stroke: #d62728"/>
     <use xlink:href="#m38c3e4c214" x="622.226212" y="44.027273" style="fill: #d62728; stroke: #d62728"/>
     <use xlink:href="#m38c3e4c214" x="638.434899" y="44.027273" style="fill: #d62728; stroke: #d62728"/>
     <use xlink:href="#m38c3e4c214" x="654.643586" y="44.027273" style="fill: #d62728; stroke: #d62728"/>
     <use xlink:href="#m38c3e4c214" x="670.852273" y="44.027273" style="fill: #d62728; stroke: #d62728"/>
     <use xlink:href="#m38c3e4c214" x="687.06096" y="44.027273" style="fill: #d62728; stroke: #d62728"/>
     <use xlink:href="#m38c3e4c214" x="703.269646" y="44.027273" style="fill: #d62728; stroke: #d62728"/>
     <use xlink:href="#m38c3e4c214" x="719.478333" y="44.027273" style="fill: #d62728; stroke: #d62728"/>
     <use xlink:href="#m38c3e4c214" x="735.68702" y="44.027273" style="fill: #d62728; stroke: #d62728"/>
     <use xlink:href="#m38c3e4c214" x="751.895707" y="44.027273" style="fill: #d62728; stroke: #d62728"/>
     <use xlink:href="#m38c3e4c214" x="768.104394" y="44.027273" style="fill: #d62728; stroke: #d62728"/>
     <use xlink:href="#m38c3e4c214" x="784.313081" y="44.027273" style="fill: #d62728; stroke: #d62728"/>
     <use xlink:href="#m38c3e4c214" x="800.521768" y="44.027273" style="fill: #d62728; stroke: #d62728"/>
     <use xlink:href="#m38c3e4c214" x="816.730455" y="44.027273" style="fill: #d62728; stroke: #d62728"/>
    </g>
   </g>
   <g id="line2d_29">
    <path d="M 87.339545 383.36317 
L 103.548232 349.310812 
L 119.756919 321.564446 
L 135.965606 306.430065 
L 152.174293 291.295683 
L 168.38298 276.161302 
L 184.591667 273.638905 
L 200.800354 252.198531 
L 217.00904 220.66857 
L 233.217727 196.7058 
L 249.426414 158.869846 
L 265.635101 143.735465 
L 281.843788 115.989099 
L 330.469848 115.989099 
L 346.678535 115.989099 
L 362.887222 115.989099 
L 379.095909 115.989099 
L 395.304596 115.989099 
L 427.72197 115.989099 
L 443.930657 115.989099 
L 460.139343 115.989099 
L 476.34803 115.989099 
L 492.556717 115.989099 
L 508.765404 97.071122 
L 524.974091 97.071122 
L 541.182778 97.071122 
L 557.391465 97.071122 
L 573.600152 97.071122 
L 589.808838 71.847153 
L 606.017525 71.847153 
L 622.226212 71.847153 
L 638.434899 71.847153 
L 654.643586 71.847153 
L 670.852273 71.847153 
L 687.06096 71.847153 
L 703.269646 71.847153 
L 719.478333 71.847153 
L 735.68702 71.847153 
L 751.895707 71.847153 
L 768.104394 71.847153 
L 784.313081 71.847153 
L 800.521768 71.847153 
L 816.730455 71.847153 
" clip-path="url(#p4f06731155)" style="fill: none; stroke: #9467bd; stroke-width: 1.5; stroke-linecap: square"/>
    <defs>
     <path id="m561dc568a8" d="M 0 3.5 
C 0.928211 3.5 1.81853 3.131218 2.474874 2.474874 
C 3.131218 1.81853 3.5 0.928211 3.5 0 
C 3.5 -0.928211 3.131218 -1.81853 2.474874 -2.474874 
C 1.81853 -3.131218 0.928211 -3.5 0 -3.5 
C -0.928211 -3.5 -1.81853 -3.131218 -2.474874 -2.474874 
C -3.131218 -1.81853 -3.5 -0.928211 -3.5 0 
C -3.5 0.928211 -3.131218 1.81853 -2.474874 2.474874 
C -1.81853 3.131218 -0.928211 3.5 0 3.5 
z
" style="stroke: #9467bd"/>
    </defs>
    <g clip-path="url(#p4f06731155)">
     <use xlink:href="#m561dc568a8" x="87.339545" y="383.36317" style="fill: #9467bd; stroke: #9467bd"/>
     <use xlink:href="#m561dc568a8" x="103.548232" y="349.310812" style="fill: #9467bd; stroke: #9467bd"/>
     <use xlink:href="#m561dc568a8" x="119.756919" y="321.564446" style="fill: #9467bd; stroke: #9467bd"/>
     <use xlink:href="#m561dc568a8" x="135.965606" y="306.430065" style="fill: #9467bd; stroke: #9467bd"/>
     <use xlink:href="#m561dc568a8" x="152.174293" y="291.295683" style="fill: #9467bd; stroke: #9467bd"/>
     <use xlink:href="#m561dc568a8" x="168.38298" y="276.161302" style="fill: #9467bd; stroke: #9467bd"/>
     <use xlink:href="#m561dc568a8" x="184.591667" y="273.638905" style="fill: #9467bd; stroke: #9467bd"/>
     <use xlink:href="#m561dc568a8" x="200.800354" y="252.198531" style="fill: #9467bd; stroke: #9467bd"/>
     <use xlink:href="#m561dc568a8" x="217.00904" y="220.66857" style="fill: #9467bd; stroke: #9467bd"/>
     <use xlink:href="#m561dc568a8" x="233.217727" y="196.7058" style="fill: #9467bd; stroke: #9467bd"/>
     <use xlink:href="#m561dc568a8" x="249.426414" y="158.869846" style="fill: #9467bd; stroke: #9467bd"/>
     <use xlink:href="#m561dc568a8" x="265.635101" y="143.735465" style="fill: #9467bd; stroke: #9467bd"/>
     <use xlink:href="#m561dc568a8" x="281.843788" y="115.989099" style="fill: #9467bd; stroke: #9467bd"/>
     <use xlink:href="#m561dc568a8" x="330.469848" y="115.989099" style="fill: #9467bd; stroke: #9467bd"/>
     <use xlink:href="#m561dc568a8" x="346.678535" y="115.989099" style="fill: #9467bd; stroke: #9467bd"/>
     <use xlink:href="#m561dc568a8" x="362.887222" y="115.989099" style="fill: #9467bd; stroke: #9467bd"/>
     <use xlink:href="#m561dc568a8" x="379.095909" y="115.989099" style="fill: #9467bd; stroke: #9467bd"/>
     <use xlink:href="#m561dc568a8" x="395.304596" y="115.989099" style="fill: #9467bd; stroke: #9467bd"/>
     <use xlink:href="#m561dc568a8" x="427.72197" y="115.989099" style="fill: #9467bd; stroke: #9467bd"/>
     <use xlink:href="#m561dc568a8" x="443.930657" y="115.989099" style="fill: #9467bd; stroke: #9467bd"/>
     <use xlink:href="#m561dc568a8" x="460.139343" y="115.989099" style="fill: #9467bd; stroke: #9467bd"/>
     <use xlink:href="#m561dc568a8" x="476.34803" y="115.989099" style="fill: #9467bd; stroke: #9467bd"/>
     <use xlink:href="#m561dc568a8" x="492.556717" y="115.989099" style="fill: #9467bd; stroke: #9467bd"/>
     <use xlink:href="#m561dc568a8" x="508.765404" y="97.071122" style="fill: #9467bd; stroke: #9467bd"/>
     <use xlink:href="#m561dc568a8" x="524.974091" y="97.071122" style="fill: #9467bd; stroke: #9467bd"/>
     <use xlink:href="#m561dc568a8" x="541.182778" y="97.071122" style="fill: #9467bd; stroke: #9467bd"/>
     <use xlink:href="#m561dc568a8" x="557.391465" y="97.071122" style="fill: #9467bd; stroke: #9467bd"/>
     <use xlink:href="#m561dc568a8" x="573.600152" y="97.071122" style="fill: #9467bd; stroke: #9467bd"/>
     <use xlink:href="#m561dc568a8" x="589.808838" y="71.847153" style="fill: #9467bd; stroke: #9467bd"/>
     <use xlink:href="#m561dc568a8" x="606.017525" y="71.847153" style="fill: #9467bd; stroke: #9467bd"/>
     <use xlink:href="#m561dc568a8" x="622.226212" y="71.847153" style="fill: #9467bd; stroke: #9467bd"/>
     <use xlink:href="#m561dc568a8" x="638.434899" y="71.847153" style="fill: #9467bd; stroke: #9467bd"/>
     <use xlink:href="#m561dc568a8" x="654.643586" y="71.847153" style="fill: #9467bd; stroke: #9467bd"/>
     <use xlink:href="#m561dc568a8" x="670.852273" y="71.847153" style="fill: #9467bd; stroke: #9467bd"/>
     <use xlink:href="#m561dc568a8" x="687.06096" y="71.847153" style="fill: #9467bd; stroke: #9467bd"/>
     <use xlink:href="#m561dc568a8" x="703.269646" y="71.847153" style="fill: #9467bd; stroke: #9467bd"/>
     <use xlink:href="#m561dc568a8" x="719.478333" y="71.847153" style="fill: #9467bd; stroke: #9467bd"/>
     <use xlink:href="#m561dc568a8" x="735.68702" y="71.847153" style="fill: #9467bd; stroke: #9467bd"/>
     <use xlink:href="#m561dc568a8" x="751.895707" y="71.847153" style="fill: #9467bd; stroke: #9467bd"/>
     <use xlink:href="#m561dc568a8" x="768.104394" y="71.847153" style="fill: #9467bd; stroke: #9467bd"/>
     <use xlink:href="#m561dc568a8" x="784.313081" y="71.847153" style="fill: #9467bd; stroke: #9467bd"/>
     <use xlink:href="#m561dc568a8" x="800.521768" y="71.847153" style="fill: #9467bd; stroke: #9467bd"/>
     <use xlink:href="#m561dc568a8" x="816.730455" y="71.847153" style="fill: #9467bd; stroke: #9467bd"/>
    </g>
   </g>
   <g id="line2d_30">
    <path d="M 87.339545 376.913575 
L 103.548232 364.301591 
L 119.756919 342.861217 
L 135.965606 330.249233 
L 152.174293 305.025264 
L 168.38298 270.972906 
L 184.591667 253.316128 
L 200.800354 253.316128 
L 217.00904 221.786166 
L 233.217727 210.43538 
L 249.426414 182.689015 
L 265.635101 175.121824 
L 281.843788 136.024672 
L 330.469848 136.024672 
L 346.678535 136.024672 
L 362.887222 136.024672 
L 379.095909 136.024672 
L 395.304596 136.024672 
L 427.72197 136.024672 
L 443.930657 136.024672 
L 460.139343 136.024672 
L 476.34803 136.024672 
L 492.556717 136.024672 
L 508.765404 136.024672 
L 524.974091 136.024672 
L 541.182778 136.024672 
L 557.391465 136.024672 
L 573.600152 136.024672 
L 589.808838 117.106695 
L 606.017525 117.106695 
L 622.226212 117.106695 
L 638.434899 117.106695 
L 654.643586 117.106695 
L 670.852273 117.106695 
L 687.06096 117.106695 
L 703.269646 117.106695 
L 719.478333 117.106695 
L 735.68702 117.106695 
L 751.895707 117.106695 
L 768.104394 117.106695 
L 784.313081 117.106695 
L 800.521768 117.106695 
L 816.730455 117.106695 
" clip-path="url(#p4f06731155)" style="fill: none; stroke: #8c564b; stroke-width: 1.5; stroke-linecap: square"/>
    <defs>
     <path id="maaa39ae97d" d="M 0 3.5 
C 0.928211 3.5 1.81853 3.131218 2.474874 2.474874 
C 3.131218 1.81853 3.5 0.928211 3.5 0 
C 3.5 -0.928211 3.131218 -1.81853 2.474874 -2.474874 
C 1.81853 -3.131218 0.928211 -3.5 0 -3.5 
C -0.928211 -3.5 -1.81853 -3.131218 -2.474874 -2.474874 
C -3.131218 -1.81853 -3.5 -0.928211 -3.5 0 
C -3.5 0.928211 -3.131218 1.81853 -2.474874 2.474874 
C -1.81853 3.131218 -0.928211 3.5 0 3.5 
z
" style="stroke: #8c564b"/>
    </defs>
    <g clip-path="url(#p4f06731155)">
     <use xlink:href="#maaa39ae97d" x="87.339545" y="376.913575" style="fill: #8c564b; stroke: #8c564b"/>
     <use xlink:href="#maaa39ae97d" x="103.548232" y="364.301591" style="fill: #8c564b; stroke: #8c564b"/>
     <use xlink:href="#maaa39ae97d" x="119.756919" y="342.861217" style="fill: #8c564b; stroke: #8c564b"/>
     <use xlink:href="#maaa39ae97d" x="135.965606" y="330.249233" style="fill: #8c564b; stroke: #8c564b"/>
     <use xlink:href="#maaa39ae97d" x="152.174293" y="305.025264" style="fill: #8c564b; stroke: #8c564b"/>
     <use xlink:href="#maaa39ae97d" x="168.38298" y="270.972906" style="fill: #8c564b; stroke: #8c564b"/>
     <use xlink:href="#maaa39ae97d" x="184.591667" y="253.316128" style="fill: #8c564b; stroke: #8c564b"/>
     <use xlink:href="#maaa39ae97d" x="200.800354" y="253.316128" style="fill: #8c564b; stroke: #8c564b"/>
     <use xlink:href="#maaa39ae97d" x="217.00904" y="221.786166" style="fill: #8c564b; stroke: #8c564b"/>
     <use xlink:href="#maaa39ae97d" x="233.217727" y="210.43538" style="fill: #8c564b; stroke: #8c564b"/>
     <use xlink:href="#maaa39ae97d" x="249.426414" y="182.689015" style="fill: #8c564b; stroke: #8c564b"/>
     <use xlink:href="#maaa39ae97d" x="265.635101" y="175.121824" style="fill: #8c564b; stroke: #8c564b"/>
     <use xlink:href="#maaa39ae97d" x="281.843788" y="136.024672" style="fill: #8c564b; stroke: #8c564b"/>
     <use xlink:href="#maaa39ae97d" x="330.469848" y="136.024672" style="fill: #8c564b; stroke: #8c564b"/>
     <use xlink:href="#maaa39ae97d" x="346.678535" y="136.024672" style="fill: #8c564b; stroke: #8c564b"/>
     <use xlink:href="#maaa39ae97d" x="362.887222" y="136.024672" style="fill: #8c564b; stroke: #8c564b"/>
     <use xlink:href="#maaa39ae97d" x="379.095909" y="136.024672" style="fill: #8c564b; stroke: #8c564b"/>
     <use xlink:href="#maaa39ae97d" x="395.304596" y="136.024672" style="fill: #8c564b; stroke: #8c564b"/>
     <use xlink:href="#maaa39ae97d" x="427.72197" y="136.024672" style="fill: #8c564b; stroke: #8c564b"/>
     <use xlink:href="#maaa39ae97d" x="443.930657" y="136.024672" style="fill: #8c564b; stroke: #8c564b"/>
     <use xlink:href="#maaa39ae97d" x="460.139343" y="136.024672" style="fill: #8c564b; stroke: #8c564b"/>
     <use xlink:href="#maaa39ae97d" x="476.34803" y="136.024672" style="fill: #8c564b; stroke: #8c564b"/>
     <use xlink:href="#maaa39ae97d" x="492.556717" y="136.024672" style="fill: #8c564b; stroke: #8c564b"/>
     <use xlink:href="#maaa39ae97d" x="508.765404" y="136.024672" style="fill: #8c564b; stroke: #8c564b"/>
     <use xlink:href="#maaa39ae97d" x="524.974091" y="136.024672" style="fill: #8c564b; stroke: #8c564b"/>
     <use xlink:href="#maaa39ae97d" x="541.182778" y="136.024672" style="fill: #8c564b; stroke: #8c564b"/>
     <use xlink:href="#maaa39ae97d" x="557.391465" y="136.024672" style="fill: #8c564b; stroke: #8c564b"/>
     <use xlink:href="#maaa39ae97d" x="573.600152" y="136.024672" style="fill: #8c564b; stroke: #8c564b"/>
     <use xlink:href="#maaa39ae97d" x="589.808838" y="117.106695" style="fill: #8c564b; stroke: #8c564b"/>
     <use xlink:href="#maaa39ae97d" x="606.017525" y="117.106695" style="fill: #8c564b; stroke: #8c564b"/>
     <use xlink:href="#maaa39ae97d" x="622.226212" y="117.106695" style="fill: #8c564b; stroke: #8c564b"/>
     <use xlink:href="#maaa39ae97d" x="638.434899" y="117.106695" style="fill: #8c564b; stroke: #8c564b"/>
     <use xlink:href="#maaa39ae97d" x="654.643586" y="117.106695" style="fill: #8c564b; stroke: #8c564b"/>
     <use xlink:href="#maaa39ae97d" x="670.852273" y="117.106695" style="fill: #8c564b; stroke: #8c564b"/>
     <use xlink:href="#maaa39ae97d" x="687.06096" y="117.106695" style="fill: #8c564b; stroke: #8c564b"/>
     <use xlink:href="#maaa39ae97d" x="703.269646" y="117.106695" style="fill: #8c564b; stroke: #8c564b"/>
     <use xlink:href="#maaa39ae97d" x="719.478333" y="117.106695" style="fill: #8c564b; stroke: #8c564b"/>
     <use xlink:href="#maaa39ae97d" x="735.68702" y="117.106695" style="fill: #8c564b; stroke: #8c564b"/>
     <use xlink:href="#maaa39ae97d" x="751.895707" y="117.106695" style="fill: #8c564b; stroke: #8c564b"/>
     <use xlink:href="#maaa39ae97d" x="768.104394" y="117.106695" style="fill: #8c564b; stroke: #8c564b"/>
     <use xlink:href="#maaa39ae97d" x="784.313081" y="117.106695" style="fill: #8c564b; stroke: #8c564b"/>
     <use xlink:href="#maaa39ae97d" x="800.521768" y="117.106695" style="fill: #8c564b; stroke: #8c564b"/>
     <use xlink:href="#maaa39ae97d" x="816.730455" y="117.106695" style="fill: #8c564b; stroke: #8c564b"/>
    </g>
   </g>
   <g id="line2d_31">
    <path d="M 87.339545 376.881998 
L 103.548232 351.658029 
L 119.756919 330.217655 
L 135.965606 311.299678 
L 152.174293 302.471289 
L 168.38298 270.941328 
L 184.591667 263.374137 
L 200.800354 260.851741 
L 217.00904 233.105375 
L 233.217727 224.276986 
L 249.426414 190.224628 
L 265.635101 175.090246 
L 281.843788 134.731896 
L 330.469848 134.731896 
L 346.678535 134.731896 
L 362.887222 134.731896 
L 379.095909 134.731896 
L 395.304596 134.731896 
L 427.72197 134.731896 
L 443.930657 134.731896 
L 460.139343 134.731896 
L 476.34803 134.731896 
L 492.556717 134.731896 
L 508.765404 115.813919 
L 524.974091 115.813919 
L 541.182778 115.813919 
L 557.391465 115.813919 
L 573.600152 115.813919 
L 589.808838 115.813919 
L 606.017525 115.813919 
L 622.226212 115.813919 
L 638.434899 115.813919 
L 654.643586 115.813919 
L 670.852273 115.813919 
L 687.06096 115.813919 
L 703.269646 115.813919 
L 719.478333 115.813919 
L 735.68702 115.813919 
L 751.895707 115.813919 
L 768.104394 115.813919 
L 784.313081 115.813919 
L 800.521768 115.813919 
L 816.730455 115.813919 
" clip-path="url(#p4f06731155)" style="fill: none; stroke: #e377c2; stroke-width: 1.5; stroke-linecap: square"/>
    <defs>
     <path id="m76bf2b799a" d="M 0 3.5 
C 0.928211 3.5 1.81853 3.131218 2.474874 2.474874 
C 3.131218 1.81853 3.5 0.928211 3.5 0 
C 3.5 -0.928211 3.131218 -1.81853 2.474874 -2.474874 
C 1.81853 -3.131218 0.928211 -3.5 0 -3.5 
C -0.928211 -3.5 -1.81853 -3.131218 -2.474874 -2.474874 
C -3.131218 -1.81853 -3.5 -0.928211 -3.5 0 
C -3.5 0.928211 -3.131218 1.81853 -2.474874 2.474874 
C -1.81853 3.131218 -0.928211 3.5 0 3.5 
z
" style="stroke: #e377c2"/>
    </defs>
    <g clip-path="url(#p4f06731155)">
     <use xlink:href="#m76bf2b799a" x="87.339545" y="376.881998" style="fill: #e377c2; stroke: #e377c2"/>
     <use xlink:href="#m76bf2b799a" x="103.548232" y="351.658029" style="fill: #e377c2; stroke: #e377c2"/>
     <use xlink:href="#m76bf2b799a" x="119.756919" y="330.217655" style="fill: #e377c2; stroke: #e377c2"/>
     <use xlink:href="#m76bf2b799a" x="135.965606" y="311.299678" style="fill: #e377c2; stroke: #e377c2"/>
     <use xlink:href="#m76bf2b799a" x="152.174293" y="302.471289" style="fill: #e377c2; stroke: #e377c2"/>
     <use xlink:href="#m76bf2b799a" x="168.38298" y="270.941328" style="fill: #e377c2; stroke: #e377c2"/>
     <use xlink:href="#m76bf2b799a" x="184.591667" y="263.374137" style="fill: #e377c2; stroke: #e377c2"/>
     <use xlink:href="#m76bf2b799a" x="200.800354" y="260.851741" style="fill: #e377c2; stroke: #e377c2"/>
     <use xlink:href="#m76bf2b799a" x="217.00904" y="233.105375" style="fill: #e377c2; stroke: #e377c2"/>
     <use xlink:href="#m76bf2b799a" x="233.217727" y="224.276986" style="fill: #e377c2; stroke: #e377c2"/>
     <use xlink:href="#m76bf2b799a" x="249.426414" y="190.224628" style="fill: #e377c2; stroke: #e377c2"/>
     <use xlink:href="#m76bf2b799a" x="265.635101" y="175.090246" style="fill: #e377c2; stroke: #e377c2"/>
     <use xlink:href="#m76bf2b799a" x="281.843788" y="134.731896" style="fill: #e377c2; stroke: #e377c2"/>
     <use xlink:href="#m76bf2b799a" x="330.469848" y="134.731896" style="fill: #e377c2; stroke: #e377c2"/>
     <use xlink:href="#m76bf2b799a" x="346.678535" y="134.731896" style="fill: #e377c2; stroke: #e377c2"/>
     <use xlink:href="#m76bf2b799a" x="362.887222" y="134.731896" style="fill: #e377c2; stroke: #e377c2"/>
     <use xlink:href="#m76bf2b799a" x="379.095909" y="134.731896" style="fill: #e377c2; stroke: #e377c2"/>
     <use xlink:href="#m76bf2b799a" x="395.304596" y="134.731896" style="fill: #e377c2; stroke: #e377c2"/>
     <use xlink:href="#m76bf2b799a" x="427.72197" y="134.731896" style="fill: #e377c2; stroke: #e377c2"/>
     <use xlink:href="#m76bf2b799a" x="443.930657" y="134.731896" style="fill: #e377c2; stroke: #e377c2"/>
     <use xlink:href="#m76bf2b799a" x="460.139343" y="134.731896" style="fill: #e377c2; stroke: #e377c2"/>
     <use xlink:href="#m76bf2b799a" x="476.34803" y="134.731896" style="fill: #e377c2; stroke: #e377c2"/>
     <use xlink:href="#m76bf2b799a" x="492.556717" y="134.731896" style="fill: #e377c2; stroke: #e377c2"/>
     <use xlink:href="#m76bf2b799a" x="508.765404" y="115.813919" style="fill: #e377c2; stroke: #e377c2"/>
     <use xlink:href="#m76bf2b799a" x="524.974091" y="115.813919" style="fill: #e377c2; stroke: #e377c2"/>
     <use xlink:href="#m76bf2b799a" x="541.182778" y="115.813919" style="fill: #e377c2; stroke: #e377c2"/>
     <use xlink:href="#m76bf2b799a" x="557.391465" y="115.813919" style="fill: #e377c2; stroke: #e377c2"/>
     <use xlink:href="#m76bf2b799a" x="573.600152" y="115.813919" style="fill: #e377c2; stroke: #e377c2"/>
     <use xlink:href="#m76bf2b799a" x="589.808838" y="115.813919" style="fill: #e377c2; stroke: #e377c2"/>
     <use xlink:href="#m76bf2b799a" x="606.017525" y="115.813919" style="fill: #e377c2; stroke: #e377c2"/>
     <use xlink:href="#m76bf2b799a" x="622.226212" y="115.813919" style="fill: #e377c2; stroke: #e377c2"/>
     <use xlink:href="#m76bf2b799a" x="638.434899" y="115.813919" style="fill: #e377c2; stroke: #e377c2"/>
     <use xlink:href="#m76bf2b799a" x="654.643586" y="115.813919" style="fill: #e377c2; stroke: #e377c2"/>
     <use xlink:href="#m76bf2b799a" x="670.852273" y="115.813919" style="fill: #e377c2; stroke: #e377c2"/>
     <use xlink:href="#m76bf2b799a" x="687.06096" y="115.813919" style="fill: #e377c2; stroke: #e377c2"/>
     <use xlink:href="#m76bf2b799a" x="703.269646" y="115.813919" style="fill: #e377c2; stroke: #e377c2"/>
     <use xlink:href="#m76bf2b799a" x="719.478333" y="115.813919" style="fill: #e377c2; stroke: #e377c2"/>
     <use xlink:href="#m76bf2b799a" x="735.68702" y="115.813919" style="fill: #e377c2; stroke: #e377c2"/>
     <use xlink:href="#m76bf2b799a" x="751.895707" y="115.813919" style="fill: #e377c2; stroke: #e377c2"/>
     <use xlink:href="#m76bf2b799a" x="768.104394" y="115.813919" style="fill: #e377c2; stroke: #e377c2"/>
     <use xlink:href="#m76bf2b799a" x="784.313081" y="115.813919" style="fill: #e377c2; stroke: #e377c2"/>
     <use xlink:href="#m76bf2b799a" x="800.521768" y="115.813919" style="fill: #e377c2; stroke: #e377c2"/>
     <use xlink:href="#m76bf2b799a" x="816.730455" y="115.813919" style="fill: #e377c2; stroke: #e377c2"/>
    </g>
   </g>
   <g id="line2d_32">
    <path d="M 87.339545 383.235923 
L 103.548232 375.668733 
L 119.756919 356.750756 
L 135.965606 354.228359 
L 152.174293 335.310382 
L 168.38298 332.787985 
L 184.591667 311.347612 
L 200.800354 292.429635 
L 217.00904 248.28769 
L 233.217727 243.242896 
L 249.426414 230.630911 
L 265.635101 187.750164 
L 281.843788 151.175409 
L 330.469848 151.175409 
L 346.678535 151.175409 
L 362.887222 151.175409 
L 379.095909 151.175409 
L 395.304596 151.175409 
L 427.72197 151.175409 
L 443.930657 151.175409 
L 460.139343 151.175409 
L 476.34803 151.175409 
L 492.556717 151.175409 
L 508.765404 132.257432 
L 524.974091 132.257432 
L 541.182778 132.257432 
L 557.391465 132.257432 
L 573.600152 132.257432 
L 589.808838 107.033463 
L 606.017525 107.033463 
L 622.226212 107.033463 
L 638.434899 107.033463 
L 654.643586 107.033463 
L 670.852273 107.033463 
L 687.06096 107.033463 
L 703.269646 107.033463 
L 719.478333 107.033463 
L 735.68702 107.033463 
L 751.895707 107.033463 
L 768.104394 107.033463 
L 784.313081 107.033463 
L 800.521768 107.033463 
L 816.730455 107.033463 
" clip-path="url(#p4f06731155)" style="fill: none; stroke: #7f7f7f; stroke-width: 1.5; stroke-linecap: square"/>
    <defs>
     <path id="m6b9c1a51c4" d="M 0 3.5 
C 0.928211 3.5 1.81853 3.131218 2.474874 2.474874 
C 3.131218 1.81853 3.5 0.928211 3.5 0 
C 3.5 -0.928211 3.131218 -1.81853 2.474874 -2.474874 
C 1.81853 -3.131218 0.928211 -3.5 0 -3.5 
C -0.928211 -3.5 -1.81853 -3.131218 -2.474874 -2.474874 
C -3.131218 -1.81853 -3.5 -0.928211 -3.5 0 
C -3.5 0.928211 -3.131218 1.81853 -2.474874 2.474874 
C -1.81853 3.131218 -0.928211 3.5 0 3.5 
z
" style="stroke: #7f7f7f"/>
    </defs>
    <g clip-path="url(#p4f06731155)">
     <use xlink:href="#m6b9c1a51c4" x="87.339545" y="383.235923" style="fill: #7f7f7f; stroke: #7f7f7f"/>
     <use xlink:href="#m6b9c1a51c4" x="103.548232" y="375.668733" style="fill: #7f7f7f; stroke: #7f7f7f"/>
     <use xlink:href="#m6b9c1a51c4" x="119.756919" y="356.750756" style="fill: #7f7f7f; stroke: #7f7f7f"/>
     <use xlink:href="#m6b9c1a51c4" x="135.965606" y="354.228359" style="fill: #7f7f7f; stroke: #7f7f7f"/>
     <use xlink:href="#m6b9c1a51c4" x="152.174293" y="335.310382" style="fill: #7f7f7f; stroke: #7f7f7f"/>
     <use xlink:href="#m6b9c1a51c4" x="168.38298" y="332.787985" style="fill: #7f7f7f; stroke: #7f7f7f"/>
     <use xlink:href="#m6b9c1a51c4" x="184.591667" y="311.347612" style="fill: #7f7f7f; stroke: #7f7f7f"/>
     <use xlink:href="#m6b9c1a51c4" x="200.800354" y="292.429635" style="fill: #7f7f7f; stroke: #7f7f7f"/>
     <use xlink:href="#m6b9c1a51c4" x="217.00904" y="248.28769" style="fill: #7f7f7f; stroke: #7f7f7f"/>
     <use xlink:href="#m6b9c1a51c4" x="233.217727" y="243.242896" style="fill: #7f7f7f; stroke: #7f7f7f"/>
     <use xlink:href="#m6b9c1a51c4" x="249.426414" y="230.630911" style="fill: #7f7f7f; stroke: #7f7f7f"/>
     <use xlink:href="#m6b9c1a51c4" x="265.635101" y="187.750164" style="fill: #7f7f7f; stroke: #7f7f7f"/>
     <use xlink:href="#m6b9c1a51c4" x="281.843788" y="151.175409" style="fill: #7f7f7f; stroke: #7f7f7f"/>
     <use xlink:href="#m6b9c1a51c4" x="330.469848" y="151.175409" style="fill: #7f7f7f; stroke: #7f7f7f"/>
     <use xlink:href="#m6b9c1a51c4" x="346.678535" y="151.175409" style="fill: #7f7f7f; stroke: #7f7f7f"/>
     <use xlink:href="#m6b9c1a51c4" x="362.887222" y="151.175409" style="fill: #7f7f7f; stroke: #7f7f7f"/>
     <use xlink:href="#m6b9c1a51c4" x="379.095909" y="151.175409" style="fill: #7f7f7f; stroke: #7f7f7f"/>
     <use xlink:href="#m6b9c1a51c4" x="395.304596" y="151.175409" style="fill: #7f7f7f; stroke: #7f7f7f"/>
     <use xlink:href="#m6b9c1a51c4" x="427.72197" y="151.175409" style="fill: #7f7f7f; stroke: #7f7f7f"/>
     <use xlink:href="#m6b9c1a51c4" x="443.930657" y="151.175409" style="fill: #7f7f7f; stroke: #7f7f7f"/>
     <use xlink:href="#m6b9c1a51c4" x="460.139343" y="151.175409" style="fill: #7f7f7f; stroke: #7f7f7f"/>
     <use xlink:href="#m6b9c1a51c4" x="476.34803" y="151.175409" style="fill: #7f7f7f; stroke: #7f7f7f"/>
     <use xlink:href="#m6b9c1a51c4" x="492.556717" y="151.175409" style="fill: #7f7f7f; stroke: #7f7f7f"/>
     <use xlink:href="#m6b9c1a51c4" x="508.765404" y="132.257432" style="fill: #7f7f7f; stroke: #7f7f7f"/>
     <use xlink:href="#m6b9c1a51c4" x="524.974091" y="132.257432" style="fill: #7f7f7f; stroke: #7f7f7f"/>
     <use xlink:href="#m6b9c1a51c4" x="541.182778" y="132.257432" style="fill: #7f7f7f; stroke: #7f7f7f"/>
     <use xlink:href="#m6b9c1a51c4" x="557.391465" y="132.257432" style="fill: #7f7f7f; stroke: #7f7f7f"/>
     <use xlink:href="#m6b9c1a51c4" x="573.600152" y="132.257432" style="fill: #7f7f7f; stroke: #7f7f7f"/>
     <use xlink:href="#m6b9c1a51c4" x="589.808838" y="107.033463" style="fill: #7f7f7f; stroke: #7f7f7f"/>
     <use xlink:href="#m6b9c1a51c4" x="606.017525" y="107.033463" style="fill: #7f7f7f; stroke: #7f7f7f"/>
     <use xlink:href="#m6b9c1a51c4" x="622.226212" y="107.033463" style="fill: #7f7f7f; stroke: #7f7f7f"/>
     <use xlink:href="#m6b9c1a51c4" x="638.434899" y="107.033463" style="fill: #7f7f7f; stroke: #7f7f7f"/>
     <use xlink:href="#m6b9c1a51c4" x="654.643586" y="107.033463" style="fill: #7f7f7f; stroke: #7f7f7f"/>
     <use xlink:href="#m6b9c1a51c4" x="670.852273" y="107.033463" style="fill: #7f7f7f; stroke: #7f7f7f"/>
     <use xlink:href="#m6b9c1a51c4" x="687.06096" y="107.033463" style="fill: #7f7f7f; stroke: #7f7f7f"/>
     <use xlink:href="#m6b9c1a51c4" x="703.269646" y="107.033463" style="fill: #7f7f7f; stroke: #7f7f7f"/>
     <use xlink:href="#m6b9c1a51c4" x="719.478333" y="107.033463" style="fill: #7f7f7f; stroke: #7f7f7f"/>
     <use xlink:href="#m6b9c1a51c4" x="735.68702" y="107.033463" style="fill: #7f7f7f; stroke: #7f7f7f"/>
     <use xlink:href="#m6b9c1a51c4" x="751.895707" y="107.033463" style="fill: #7f7f7f; stroke: #7f7f7f"/>
     <use xlink:href="#m6b9c1a51c4" x="768.104394" y="107.033463" style="fill: #7f7f7f; stroke: #7f7f7f"/>
     <use xlink:href="#m6b9c1a51c4" x="784.313081" y="107.033463" style="fill: #7f7f7f; stroke: #7f7f7f"/>
     <use xlink:href="#m6b9c1a51c4" x="800.521768" y="107.033463" style="fill: #7f7f7f; stroke: #7f7f7f"/>
     <use xlink:href="#m6b9c1a51c4" x="816.730455" y="107.033463" style="fill: #7f7f7f; stroke: #7f7f7f"/>
    </g>
   </g>
   <g id="line2d_33">
    <path d="M 87.339545 383.150722 
L 103.548232 357.926754 
L 119.756919 330.180388 
L 135.965606 321.351999 
L 152.174293 302.434022 
L 168.38298 274.687656 
L 184.591667 246.94129 
L 200.800354 244.418893 
L 217.00904 212.888932 
L 233.217727 172.530582 
L 249.426414 144.784216 
L 265.635101 117.03785 
L 281.843788 82.985492 
L 330.469848 82.985492 
L 346.678535 82.985492 
L 362.887222 82.985492 
L 379.095909 82.985492 
L 395.304596 82.985492 
L 427.72197 82.985492 
L 443.930657 82.985492 
L 460.139343 82.985492 
L 476.34803 82.985492 
L 492.556717 82.985492 
L 508.765404 82.985492 
L 524.974091 82.985492 
L 541.182778 82.985492 
L 557.391465 82.985492 
L 573.600152 82.985492 
L 589.808838 64.067515 
L 606.017525 64.067515 
L 622.226212 64.067515 
L 638.434899 64.067515 
L 654.643586 64.067515 
L 670.852273 64.067515 
L 687.06096 64.067515 
L 703.269646 64.067515 
L 719.478333 64.067515 
L 735.68702 64.067515 
L 751.895707 64.067515 
L 768.104394 64.067515 
L 784.313081 64.067515 
L 800.521768 64.067515 
L 816.730455 64.067515 
" clip-path="url(#p4f06731155)" style="fill: none; stroke: #bcbd22; stroke-width: 1.5; stroke-linecap: square"/>
    <defs>
     <path id="m9fc295c435" d="M 0 3.5 
C 0.928211 3.5 1.81853 3.131218 2.474874 2.474874 
C 3.131218 1.81853 3.5 0.928211 3.5 0 
C 3.5 -0.928211 3.131218 -1.81853 2.474874 -2.474874 
C 1.81853 -3.131218 0.928211 -3.5 0 -3.5 
C -0.928211 -3.5 -1.81853 -3.131218 -2.474874 -2.474874 
C -3.131218 -1.81853 -3.5 -0.928211 -3.5 0 
C -3.5 0.928211 -3.131218 1.81853 -2.474874 2.474874 
C -1.81853 3.131218 -0.928211 3.5 0 3.5 
z
" style="stroke: #bcbd22"/>
    </defs>
    <g clip-path="url(#p4f06731155)">
     <use xlink:href="#m9fc295c435" x="87.339545" y="383.150722" style="fill: #bcbd22; stroke: #bcbd22"/>
     <use xlink:href="#m9fc295c435" x="103.548232" y="357.926754" style="fill: #bcbd22; stroke: #bcbd22"/>
     <use xlink:href="#m9fc295c435" x="119.756919" y="330.180388" style="fill: #bcbd22; stroke: #bcbd22"/>
     <use xlink:href="#m9fc295c435" x="135.965606" y="321.351999" style="fill: #bcbd22; stroke: #bcbd22"/>
     <use xlink:href="#m9fc295c435" x="152.174293" y="302.434022" style="fill: #bcbd22; stroke: #bcbd22"/>
     <use xlink:href="#m9fc295c435" x="168.38298" y="274.687656" style="fill: #bcbd22; stroke: #bcbd22"/>
     <use xlink:href="#m9fc295c435" x="184.591667" y="246.94129" style="fill: #bcbd22; stroke: #bcbd22"/>
     <use xlink:href="#m9fc295c435" x="200.800354" y="244.418893" style="fill: #bcbd22; stroke: #bcbd22"/>
     <use xlink:href="#m9fc295c435" x="217.00904" y="212.888932" style="fill: #bcbd22; stroke: #bcbd22"/>
     <use xlink:href="#m9fc295c435" x="233.217727" y="172.530582" style="fill: #bcbd22; stroke: #bcbd22"/>
     <use xlink:href="#m9fc295c435" x="249.426414" y="144.784216" style="fill: #bcbd22; stroke: #bcbd22"/>
     <use xlink:href="#m9fc295c435" x="265.635101" y="117.03785" style="fill: #bcbd22; stroke: #bcbd22"/>
     <use xlink:href="#m9fc295c435" x="281.843788" y="82.985492" style="fill: #bcbd22; stroke: #bcbd22"/>
     <use xlink:href="#m9fc295c435" x="330.469848" y="82.985492" style="fill: #bcbd22; stroke: #bcbd22"/>
     <use xlink:href="#m9fc295c435" x="346.678535" y="82.985492" style="fill: #bcbd22; stroke: #bcbd22"/>
     <use xlink:href="#m9fc295c435" x="362.887222" y="82.985492" style="fill: #bcbd22; stroke: #bcbd22"/>
     <use xlink:href="#m9fc295c435" x="379.095909" y="82.985492" style="fill: #bcbd22; stroke: #bcbd22"/>
     <use xlink:href="#m9fc295c435" x="395.304596" y="82.985492" style="fill: #bcbd22; stroke: #bcbd22"/>
     <use xlink:href="#m9fc295c435" x="427.72197" y="82.985492" style="fill: #bcbd22; stroke: #bcbd22"/>
     <use xlink:href="#m9fc295c435" x="443.930657" y="82.985492" style="fill: #bcbd22; stroke: #bcbd22"/>
     <use xlink:href="#m9fc295c435" x="460.139343" y="82.985492" style="fill: #bcbd22; stroke: #bcbd22"/>
     <use xlink:href="#m9fc295c435" x="476.34803" y="82.985492" style="fill: #bcbd22; stroke: #bcbd22"/>
     <use xlink:href="#m9fc295c435" x="492.556717" y="82.985492" style="fill: #bcbd22; stroke: #bcbd22"/>
     <use xlink:href="#m9fc295c435" x="508.765404" y="82.985492" style="fill: #bcbd22; stroke: #bcbd22"/>
     <use xlink:href="#m9fc295c435" x="524.974091" y="82.985492" style="fill: #bcbd22; stroke: #bcbd22"/>
     <use xlink:href="#m9fc295c435" x="541.182778" y="82.985492" style="fill: #bcbd22; stroke: #bcbd22"/>
     <use xlink:href="#m9fc295c435" x="557.391465" y="82.985492" style="fill: #bcbd22; stroke: #bcbd22"/>
     <use xlink:href="#m9fc295c435" x="573.600152" y="82.985492" style="fill: #bcbd22; stroke: #bcbd22"/>
     <use xlink:href="#m9fc295c435" x="589.808838" y="64.067515" style="fill: #bcbd22; stroke: #bcbd22"/>
     <use xlink:href="#m9fc295c435" x="606.017525" y="64.067515" style="fill: #bcbd22; stroke: #bcbd22"/>
     <use xlink:href="#m9fc295c435" x="622.226212" y="64.067515" style="fill: #bcbd22; stroke: #bcbd22"/>
     <use xlink:href="#m9fc295c435" x="638.434899" y="64.067515" style="fill: #bcbd22; stroke: #bcbd22"/>
     <use xlink:href="#m9fc295c435" x="654.643586" y="64.067515" style="fill: #bcbd22; stroke: #bcbd22"/>
     <use xlink:href="#m9fc295c435" x="670.852273" y="64.067515" style="fill: #bcbd22; stroke: #bcbd22"/>
     <use xlink:href="#m9fc295c435" x="687.06096" y="64.067515" style="fill: #bcbd22; stroke: #bcbd22"/>
     <use xlink:href="#m9fc295c435" x="703.269646" y="64.067515" style="fill: #bcbd22; stroke: #bcbd22"/>
     <use xlink:href="#m9fc295c435" x="719.478333" y="64.067515" style="fill: #bcbd22; stroke: #bcbd22"/>
     <use xlink:href="#m9fc295c435" x="735.68702" y="64.067515" style="fill: #bcbd22; stroke: #bcbd22"/>
     <use xlink:href="#m9fc295c435" x="751.895707" y="64.067515" style="fill: #bcbd22; stroke: #bcbd22"/>
     <use xlink:href="#m9fc295c435" x="768.104394" y="64.067515" style="fill: #bcbd22; stroke: #bcbd22"/>
     <use xlink:href="#m9fc295c435" x="784.313081" y="64.067515" style="fill: #bcbd22; stroke: #bcbd22"/>
     <use xlink:href="#m9fc295c435" x="800.521768" y="64.067515" style="fill: #bcbd22; stroke: #bcbd22"/>
     <use xlink:href="#m9fc295c435" x="816.730455" y="64.067515" style="fill: #bcbd22; stroke: #bcbd22"/>
    </g>
   </g>
   <g id="patch_3">
    <path d="M 50.87 404.12 
L 50.87 26.88 
" style="fill: none; stroke: #000000; stroke-width: 0.8; stroke-linejoin: miter; stroke-linecap: square"/>
   </g>
   <g id="patch_4">
    <path d="M 853.2 404.12 
L 853.2 26.88 
" style="fill: none; stroke: #000000; stroke-width: 0.8; stroke-linejoin: miter; stroke-linecap: square"/>
   </g>
   <g id="patch_5">
    <path d="M 50.87 404.12 
L 853.2 404.12 
" style="fill: none; stroke: #000000; stroke-width: 0.8; stroke-linejoin: miter; stroke-linecap: square"/>
   </g>
   <g id="patch_6">
    <path d="M 50.87 26.88 
L 853.2 26.88 
" style="fill: none; stroke: #000000; stroke-width: 0.8; stroke-linejoin: miter; stroke-linecap: square"/>
   </g>
   <g id="text_14">
    <!-- Standings -->
    <g transform="translate(422.18125 20.88) scale(0.12 -0.12)">
     <defs>
      <path id="DejaVuSans-74" d="M 1172 4494 
L 1172 3500 
L 2356 3500 
L 2356 3053 
L 1172 3053 
L 1172 1153 
Q 1172 725 1289 603 
Q 1406 481 1766 481 
L 2356 481 
L 2356 0 
L 1766 0 
Q 1100 0 847 248 
Q 594 497 594 1153 
L 594 3053 
L 172 3053 
L 172 3500 
L 594 3500 
L 594 4494 
L 1172 4494 
z
" transform="scale(0.015625)"/>
      <path id="DejaVuSans-61" d="M 2194 1759 
Q 1497 1759 1228 1600 
Q 959 1441 959 1056 
Q 959 750 1161 570 
Q 1363 391 1709 391 
Q 2188 391 2477 730 
Q 2766 1069 2766 1631 
L 2766 1759 
L 2194 1759 
z
M 3341 1997 
L 3341 0 
L 2766 0 
L 2766 531 
Q 2569 213 2275 61 
Q 1981 -91 1556 -91 
Q 1019 -91 701 211 
Q 384 513 384 1019 
Q 384 1609 779 1909 
Q 1175 2209 1959 2209 
L 2766 2209 
L 2766 2266 
Q 2766 2663 2505 2880 
Q 2244 3097 1772 3097 
Q 1472 3097 1187 3025 
Q 903 2953 641 2809 
L 641 3341 
Q 956 3463 1253 3523 
Q 1550 3584 1831 3584 
Q 2591 3584 2966 3190 
Q 3341 2797 3341 1997 
z
" transform="scale(0.015625)"/>
      <path id="DejaVuSans-6e" d="M 3513 2113 
L 3513 0 
L 2938 0 
L 2938 2094 
Q 2938 2591 2744 2837 
Q 2550 3084 2163 3084 
Q 1697 3084 1428 2787 
Q 1159 2491 1159 1978 
L 1159 0 
L 581 0 
L 581 3500 
L 1159 3500 
L 1159 2956 
Q 1366 3272 1645 3428 
Q 1925 3584 2291 3584 
Q 2894 3584 3203 3211 
Q 3513 2838 3513 2113 
z
" transform="scale(0.015625)"/>
      <path id="DejaVuSans-64" d="M 2906 2969 
L 2906 4863 
L 3481 4863 
L 3481 0 
L 2906 0 
L 2906 525 
Q 2725 213 2448 61 
Q 2172 -91 1784 -91 
Q 1150 -91 751 415 
Q 353 922 353 1747 
Q 353 2572 751 3078 
Q 1150 3584 1784 3584 
Q 2172 3584 2448 3432 
Q 2725 3281 2906 2969 
z
M 947 1747 
Q 947 1113 1208 752 
Q 1469 391 1925 391 
Q 2381 391 2643 752 
Q 2906 1113 2906 1747 
Q 2906 2381 2643 2742 
Q 2381 3103 1925 3103 
Q 1469 3103 1208 2742 
Q 947 2381 947 1747 
z
" transform="scale(0.015625)"/>
      <path id="DejaVuSans-69" d="M 603 3500 
L 1178 3500 
L 1178 0 
L 603 0 
L 603 3500 
z
M 603 4863 
L 1178 4863 
L 1178 4134 
L 603 4134 
L 603 4863 
z
" transform="scale(0.015625)"/>
      <path id="DejaVuSans-67" d="M 2906 1791 
Q 2906 2416 2648 2759 
Q 2391 3103 1925 3103 
Q 1463 3103 1205 2759 
Q 947 2416 947 1791 
Q 947 1169 1205 825 
Q 1463 481 1925 481 
Q 2391 481 2648 825 
Q 2906 1169 2906 1791 
z
M 3481 434 
Q 3481 -459 3084 -895 
Q 2688 -1331 1869 -1331 
Q 1566 -1331 1297 -1286 
Q 1028 -1241 775 -1147 
L 775 -588 
Q 1028 -725 1275 -790 
Q 1522 -856 1778 -856 
Q 2344 -856 2625 -561 
Q 2906 -266 2906 331 
L 2906 616 
Q 2728 306 2450 153 
Q 2172 0 1784 0 
Q 1141 0 747 490 
Q 353 981 353 1791 
Q 353 2603 747 3093 
Q 1141 3584 1784 3584 
Q 2172 3584 2450 3431 
Q 2728 3278 2906 2969 
L 2906 3500 
L 3481 3500 
L 3481 434 
z
" transform="scale(0.015625)"/>
      <path id="DejaVuSans-73" d="M 2834 3397 
L 2834 2853 
Q 2591 2978 2328 3040 
Q 2066 3103 1784 3103 
Q 1356 3103 1142 2972 
Q 928 2841 928 2578 
Q 928 2378 1081 2264 
Q 1234 2150 1697 2047 
L 1894 2003 
Q 2506 1872 2764 1633 
Q 3022 1394 3022 966 
Q 3022 478 2636 193 
Q 2250 -91 1575 -91 
Q 1294 -91 989 -36 
Q 684 19 347 128 
L 347 722 
Q 666 556 975 473 
Q 1284 391 1588 391 
Q 1994 391 2212 530 
Q 2431 669 2431 922 
Q 2431 1156 2273 1281 
Q 2116 1406 1581 1522 
L 1381 1569 
Q 847 1681 609 1914 
Q 372 2147 372 2553 
Q 372 3047 722 3315 
Q 1072 3584 1716 3584 
Q 2034 3584 2315 3537 
Q 2597 3491 2834 3397 
z
" transform="scale(0.015625)"/>
     </defs>
     <use xlink:href="#DejaVuSans-53"/>
     <use xlink:href="#DejaVuSans-74" x="63.476562"/>
     <use xlink:href="#DejaVuSans-61" x="102.685547"/>
     <use xlink:href="#DejaVuSans-6e" x="163.964844"/>
     <use xlink:href="#DejaVuSans-64" x="227.34375"/>
     <use xlink:href="#DejaVuSans-69" x="290.820312"/>
     <use xlink:href="#DejaVuSans-6e" x="318.603516"/>
     <use xlink:href="#DejaVuSans-67" x="381.982422"/>
     <use xlink:href="#DejaVuSans-73" x="445.458984"/>
    </g>
   </g>
   <g id="legend_1">
    <g id="patch_7">
     <path d="M 57.87 166.983125 
L 153.949688 166.983125 
Q 155.949688 166.983125 155.949688 164.983125 
L 155.949688 33.88 
Q 155.949688 31.88 153.949688 31.88 
L 57.87 31.88 
Q 55.87 31.88 55.87 33.88 
L 55.87 164.983125 
Q 55.87 166.983125 57.87 166.983125 
z
" style="fill: #ffffff; opacity: 0.8; stroke: #cccccc; stroke-linejoin: miter"/>
    </g>
    <g id="line2d_34">
     <path d="M 59.87 39.978437 
L 69.87 39.978437 
L 79.87 39.978437 
" style="fill: none; stroke: #1f77b4; stroke-width: 1.5; stroke-linecap: square"/>
     <g>
      <use xlink:href="#m7e1b256742" x="69.87" y="39.978437" style="fill: #1f77b4; stroke: #1f77b4"/>
     </g>
    </g>
    <g id="text_15">
     <!-- Alan Ce -->
     <g transform="translate(87.87 43.478437) scale(0.1 -0.1)">
      <defs>
       <path id="DejaVuSans-41" d="M 2188 4044 
L 1331 1722 
L 3047 1722 
L 2188 4044 
z
M 1831 4666 
L 2547 4666 
L 4325 0 
L 3669 0 
L 3244 1197 
L 1141 1197 
L 716 0 
L 50 0 
L 1831 4666 
z
" transform="scale(0.015625)"/>
       <path id="DejaVuSans-6c" d="M 603 4863 
L 1178 4863 
L 1178 0 
L 603 0 
L 603 4863 
z
" transform="scale(0.015625)"/>
       <path id="DejaVuSans-20" transform="scale(0.015625)"/>
       <path id="DejaVuSans-43" d="M 4122 4306 
L 4122 3641 
Q 3803 3938 3442 4084 
Q 3081 4231 2675 4231 
Q 1875 4231 1450 3742 
Q 1025 3253 1025 2328 
Q 1025 1406 1450 917 
Q 1875 428 2675 428 
Q 3081 428 3442 575 
Q 3803 722 4122 1019 
L 4122 359 
Q 3791 134 3420 21 
Q 3050 -91 2638 -91 
Q 1578 -91 968 557 
Q 359 1206 359 2328 
Q 359 3453 968 4101 
Q 1578 4750 2638 4750 
Q 3056 4750 3426 4639 
Q 3797 4528 4122 4306 
z
" transform="scale(0.015625)"/>
      </defs>
      <use xlink:href="#DejaVuSans-41"/>
      <use xlink:href="#DejaVuSans-6c" x="68.408203"/>
      <use xlink:href="#DejaVuSans-61" x="96.191406"/>
      <use xlink:href="#DejaVuSans-6e" x="157.470703"/>
      <use xlink:href="#DejaVuSans-20" x="220.849609"/>
      <use xlink:href="#DejaVuSans-43" x="252.636719"/>
      <use xlink:href="#DejaVuSans-65" x="322.460938"/>
     </g>
    </g>
    <g id="line2d_35">
     <path d="M 59.87 54.656563 
L 69.87 54.656563 
L 79.87 54.656563 
" style="fill: none; stroke: #ff7f0e; stroke-width: 1.5; stroke-linecap: square"/>
     <g>
      <use xlink:href="#m2807e699aa" x="69.87" y="54.656563" style="fill: #ff7f0e; stroke: #ff7f0e"/>
     </g>
    </g>
    <g id="text_16">
     <!-- Sebastian Le -->
     <g transform="translate(87.87 58.156563) scale(0.1 -0.1)">
      <defs>
       <path id="DejaVuSans-62" d="M 3116 1747 
Q 3116 2381 2855 2742 
Q 2594 3103 2138 3103 
Q 1681 3103 1420 2742 
Q 1159 2381 1159 1747 
Q 1159 1113 1420 752 
Q 1681 391 2138 391 
Q 2594 391 2855 752 
Q 3116 1113 3116 1747 
z
M 1159 2969 
Q 1341 3281 1617 3432 
Q 1894 3584 2278 3584 
Q 2916 3584 3314 3078 
Q 3713 2572 3713 1747 
Q 3713 922 3314 415 
Q 2916 -91 2278 -91 
Q 1894 -91 1617 61 
Q 1341 213 1159 525 
L 1159 0 
L 581 0 
L 581 4863 
L 1159 4863 
L 1159 2969 
z
" transform="scale(0.015625)"/>
       <path id="DejaVuSans-4c" d="M 628 4666 
L 1259 4666 
L 1259 531 
L 3531 531 
L 3531 0 
L 628 0 
L 628 4666 
z
" transform="scale(0.015625)"/>
      </defs>
      <use xlink:href="#DejaVuSans-53"/>
      <use xlink:href="#DejaVuSans-65" x="63.476562"/>
      <use xlink:href="#DejaVuSans-62" x="125"/>
      <use xlink:href="#DejaVuSans-61" x="188.476562"/>
      <use xlink:href="#DejaVuSans-73" x="249.755859"/>
      <use xlink:href="#DejaVuSans-74" x="301.855469"/>
      <use xlink:href="#DejaVuSans-69" x="341.064453"/>
      <use xlink:href="#DejaVuSans-61" x="368.847656"/>
      <use xlink:href="#DejaVuSans-6e" x="430.126953"/>
      <use xlink:href="#DejaVuSans-20" x="493.505859"/>
      <use xlink:href="#DejaVuSans-4c" x="525.292969"/>
      <use xlink:href="#DejaVuSans-65" x="579.255859"/>
     </g>
    </g>
    <g id="line2d_36">
     <path d="M 59.87 69.334687 
L 69.87 69.334687 
L 79.87 69.334687 
" style="fill: none; stroke: #2ca02c; stroke-width: 1.5; stroke-linecap: square"/>
     <g>
      <use xlink:href="#m0209e2d8f2" x="69.87" y="69.334687" style="fill: #2ca02c; stroke: #2ca02c"/>
     </g>
    </g>
    <g id="text_17">
     <!-- Sarah Gy -->
     <g transform="translate(87.87 72.834687) scale(0.1 -0.1)">
      <defs>
       <path id="DejaVuSans-68" d="M 3513 2113 
L 3513 0 
L 2938 0 
L 2938 2094 
Q 2938 2591 2744 2837 
Q 2550 3084 2163 3084 
Q 1697 3084 1428 2787 
Q 1159 2491 1159 1978 
L 1159 0 
L 581 0 
L 581 4863 
L 1159 4863 
L 1159 2956 
Q 1366 3272 1645 3428 
Q 1925 3584 2291 3584 
Q 2894 3584 3203 3211 
Q 3513 2838 3513 2113 
z
" transform="scale(0.015625)"/>
       <path id="DejaVuSans-47" d="M 3809 666 
L 3809 1919 
L 2778 1919 
L 2778 2438 
L 4434 2438 
L 4434 434 
Q 4069 175 3628 42 
Q 3188 -91 2688 -91 
Q 1594 -91 976 548 
Q 359 1188 359 2328 
Q 359 3472 976 4111 
Q 1594 4750 2688 4750 
Q 3144 4750 3555 4637 
Q 3966 4525 4313 4306 
L 4313 3634 
Q 3963 3931 3569 4081 
Q 3175 4231 2741 4231 
Q 1884 4231 1454 3753 
Q 1025 3275 1025 2328 
Q 1025 1384 1454 906 
Q 1884 428 2741 428 
Q 3075 428 3337 486 
Q 3600 544 3809 666 
z
" transform="scale(0.015625)"/>
       <path id="DejaVuSans-79" d="M 2059 -325 
Q 1816 -950 1584 -1140 
Q 1353 -1331 966 -1331 
L 506 -1331 
L 506 -850 
L 844 -850 
Q 1081 -850 1212 -737 
Q 1344 -625 1503 -206 
L 1606 56 
L 191 3500 
L 800 3500 
L 1894 763 
L 2988 3500 
L 3597 3500 
L 2059 -325 
z
" transform="scale(0.015625)"/>
      </defs>
      <use xlink:href="#DejaVuSans-53"/>
      <use xlink:href="#DejaVuSans-61" x="63.476562"/>
      <use xlink:href="#DejaVuSans-72" x="124.755859"/>
      <use xlink:href="#DejaVuSans-61" x="165.869141"/>
      <use xlink:href="#DejaVuSans-68" x="227.148438"/>
      <use xlink:href="#DejaVuSans-20" x="290.527344"/>
      <use xlink:href="#DejaVuSans-47" x="322.314453"/>
      <use xlink:href="#DejaVuSans-79" x="399.804688"/>
     </g>
    </g>
    <g id="line2d_37">
     <path d="M 59.87 84.012812 
L 69.87 84.012812 
L 79.87 84.012812 
" style="fill: none; stroke: #d62728; stroke-width: 1.5; stroke-linecap: square"/>
     <g>
      <use xlink:href="#m38c3e4c214" x="69.87" y="84.012812" style="fill: #d62728; stroke: #d62728"/>
     </g>
    </g>
    <g id="text_18">
     <!-- Matias BN -->
     <g transform="translate(87.87 87.512812) scale(0.1 -0.1)">
      <defs>
       <path id="DejaVuSans-4d" d="M 628 4666 
L 1569 4666 
L 2759 1491 
L 3956 4666 
L 4897 4666 
L 4897 0 
L 4281 0 
L 4281 4097 
L 3078 897 
L 2444 897 
L 1241 4097 
L 1241 0 
L 628 0 
L 628 4666 
z
" transform="scale(0.015625)"/>
       <path id="DejaVuSans-42" d="M 1259 2228 
L 1259 519 
L 2272 519 
Q 2781 519 3026 730 
Q 3272 941 3272 1375 
Q 3272 1813 3026 2020 
Q 2781 2228 2272 2228 
L 1259 2228 
z
M 1259 4147 
L 1259 2741 
L 2194 2741 
Q 2656 2741 2882 2914 
Q 3109 3088 3109 3444 
Q 3109 3797 2882 3972 
Q 2656 4147 2194 4147 
L 1259 4147 
z
M 628 4666 
L 2241 4666 
Q 2963 4666 3353 4366 
Q 3744 4066 3744 3513 
Q 3744 3084 3544 2831 
Q 3344 2578 2956 2516 
Q 3422 2416 3680 2098 
Q 3938 1781 3938 1306 
Q 3938 681 3513 340 
Q 3088 0 2303 0 
L 628 0 
L 628 4666 
z
" transform="scale(0.015625)"/>
       <path id="DejaVuSans-4e" d="M 628 4666 
L 1478 4666 
L 3547 763 
L 3547 4666 
L 4159 4666 
L 4159 0 
L 3309 0 
L 1241 3903 
L 1241 0 
L 628 0 
L 628 4666 
z
" transform="scale(0.015625)"/>
      </defs>
      <use xlink:href="#DejaVuSans-4d"/>
      <use xlink:href="#DejaVuSans-61" x="86.279297"/>
      <use xlink:href="#DejaVuSans-74" x="147.558594"/>
      <use xlink:href="#DejaVuSans-69" x="186.767578"/>
      <use xlink:href="#DejaVuSans-61" x="214.550781"/>
      <use xlink:href="#DejaVuSans-73" x="275.830078"/>
      <use xlink:href="#DejaVuSans-20" x="327.929688"/>
      <use xlink:href="#DejaVuSans-42" x="359.716797"/>
      <use xlink:href="#DejaVuSans-4e" x="428.320312"/>
     </g>
    </g>
    <g id="line2d_38">
     <path d="M 59.87 98.690938 
L 69.87 98.690938 
L 79.87 98.690938 
" style="fill: none; stroke: #9467bd; stroke-width: 1.5; stroke-linecap: square"/>
     <g>
      <use xlink:href="#m561dc568a8" x="69.87" y="98.690938" style="fill: #9467bd; stroke: #9467bd"/>
     </g>
    </g>
    <g id="text_19">
     <!-- Christian Gr -->
     <g transform="translate(87.87 102.190938) scale(0.1 -0.1)">
      <use xlink:href="#DejaVuSans-43"/>
      <use xlink:href="#DejaVuSans-68" x="69.824219"/>
      <use xlink:href="#DejaVuSans-72" x="133.203125"/>
      <use xlink:href="#DejaVuSans-69" x="174.316406"/>
      <use xlink:href="#DejaVuSans-73" x="202.099609"/>
      <use xlink:href="#DejaVuSans-74" x="254.199219"/>
      <use xlink:href="#DejaVuSans-69" x="293.408203"/>
      <use xlink:href="#DejaVuSans-61" x="321.191406"/>
      <use xlink:href="#DejaVuSans-6e" x="382.470703"/>
      <use xlink:href="#DejaVuSans-20" x="445.849609"/>
      <use xlink:href="#DejaVuSans-47" x="477.636719"/>
      <use xlink:href="#DejaVuSans-72" x="555.126953"/>
     </g>
    </g>
    <g id="line2d_39">
     <path d="M 59.87 113.369062 
L 69.87 113.369062 
L 79.87 113.369062 
" style="fill: none; stroke: #8c564b; stroke-width: 1.5; stroke-linecap: square"/>
     <g>
      <use xlink:href="#maaa39ae97d" x="69.87" y="113.369062" style="fill: #8c564b; stroke: #8c564b"/>
     </g>
    </g>
    <g id="text_20">
     <!-- Oscar En -->
     <g transform="translate(87.87 116.869062) scale(0.1 -0.1)">
      <defs>
       <path id="DejaVuSans-4f" d="M 2522 4238 
Q 1834 4238 1429 3725 
Q 1025 3213 1025 2328 
Q 1025 1447 1429 934 
Q 1834 422 2522 422 
Q 3209 422 3611 934 
Q 4013 1447 4013 2328 
Q 4013 3213 3611 3725 
Q 3209 4238 2522 4238 
z
M 2522 4750 
Q 3503 4750 4090 4092 
Q 4678 3434 4678 2328 
Q 4678 1225 4090 567 
Q 3503 -91 2522 -91 
Q 1538 -91 948 565 
Q 359 1222 359 2328 
Q 359 3434 948 4092 
Q 1538 4750 2522 4750 
z
" transform="scale(0.015625)"/>
       <path id="DejaVuSans-45" d="M 628 4666 
L 3578 4666 
L 3578 4134 
L 1259 4134 
L 1259 2753 
L 3481 2753 
L 3481 2222 
L 1259 2222 
L 1259 531 
L 3634 531 
L 3634 0 
L 628 0 
L 628 4666 
z
" transform="scale(0.015625)"/>
      </defs>
      <use xlink:href="#DejaVuSans-4f"/>
      <use xlink:href="#DejaVuSans-73" x="78.710938"/>
      <use xlink:href="#DejaVuSans-63" x="130.810547"/>
      <use xlink:href="#DejaVuSans-61" x="185.791016"/>
      <use xlink:href="#DejaVuSans-72" x="247.070312"/>
      <use xlink:href="#DejaVuSans-20" x="288.183594"/>
      <use xlink:href="#DejaVuSans-45" x="319.970703"/>
      <use xlink:href="#DejaVuSans-6e" x="383.154297"/>
     </g>
    </g>
    <g id="line2d_40">
     <path d="M 59.87 128.047187 
L 69.87 128.047187 
L 79.87 128.047187 
" style="fill: none; stroke: #e377c2; stroke-width: 1.5; stroke-linecap: square"/>
     <g>
      <use xlink:href="#m76bf2b799a" x="69.87" y="128.047187" style="fill: #e377c2; stroke: #e377c2"/>
     </g>
    </g>
    <g id="text_21">
     <!-- Bjarke Ha -->
     <g transform="translate(87.87 131.547187) scale(0.1 -0.1)">
      <defs>
       <path id="DejaVuSans-6a" d="M 603 3500 
L 1178 3500 
L 1178 -63 
Q 1178 -731 923 -1031 
Q 669 -1331 103 -1331 
L -116 -1331 
L -116 -844 
L 38 -844 
Q 366 -844 484 -692 
Q 603 -541 603 -63 
L 603 3500 
z
M 603 4863 
L 1178 4863 
L 1178 4134 
L 603 4134 
L 603 4863 
z
" transform="scale(0.015625)"/>
       <path id="DejaVuSans-6b" d="M 581 4863 
L 1159 4863 
L 1159 1991 
L 2875 3500 
L 3609 3500 
L 1753 1863 
L 3688 0 
L 2938 0 
L 1159 1709 
L 1159 0 
L 581 0 
L 581 4863 
z
" transform="scale(0.015625)"/>
       <path id="DejaVuSans-48" d="M 628 4666 
L 1259 4666 
L 1259 2753 
L 3553 2753 
L 3553 4666 
L 4184 4666 
L 4184 0 
L 3553 0 
L 3553 2222 
L 1259 2222 
L 1259 0 
L 628 0 
L 628 4666 
z
" transform="scale(0.015625)"/>
      </defs>
      <use xlink:href="#DejaVuSans-42"/>
      <use xlink:href="#DejaVuSans-6a" x="68.603516"/>
      <use xlink:href="#DejaVuSans-61" x="96.386719"/>
      <use xlink:href="#DejaVuSans-72" x="157.666016"/>
      <use xlink:href="#DejaVuSans-6b" x="198.779297"/>
      <use xlink:href="#DejaVuSans-65" x="253.064453"/>
      <use xlink:href="#DejaVuSans-20" x="314.587891"/>
      <use xlink:href="#DejaVuSans-48" x="346.375"/>
      <use xlink:href="#DejaVuSans-61" x="421.570312"/>
     </g>
    </g>
    <g id="line2d_41">
     <path d="M 59.87 142.725312 
L 69.87 142.725312 
L 79.87 142.725312 
" style="fill: none; stroke: #7f7f7f; stroke-width: 1.5; stroke-linecap: square"/>
     <g>
      <use xlink:href="#m6b9c1a51c4" x="69.87" y="142.725312" style="fill: #7f7f7f; stroke: #7f7f7f"/>
     </g>
    </g>
    <g id="text_22">
     <!-- Sif Ma -->
     <g transform="translate(87.87 146.225312) scale(0.1 -0.1)">
      <defs>
       <path id="DejaVuSans-66" d="M 2375 4863 
L 2375 4384 
L 1825 4384 
Q 1516 4384 1395 4259 
Q 1275 4134 1275 3809 
L 1275 3500 
L 2222 3500 
L 2222 3053 
L 1275 3053 
L 1275 0 
L 697 0 
L 697 3053 
L 147 3053 
L 147 3500 
L 697 3500 
L 697 3744 
Q 697 4328 969 4595 
Q 1241 4863 1831 4863 
L 2375 4863 
z
" transform="scale(0.015625)"/>
      </defs>
      <use xlink:href="#DejaVuSans-53"/>
      <use xlink:href="#DejaVuSans-69" x="63.476562"/>
      <use xlink:href="#DejaVuSans-66" x="91.259766"/>
      <use xlink:href="#DejaVuSans-20" x="126.464844"/>
      <use xlink:href="#DejaVuSans-4d" x="158.251953"/>
      <use xlink:href="#DejaVuSans-61" x="244.53125"/>
     </g>
    </g>
    <g id="line2d_42">
     <path d="M 59.87 157.403437 
L 69.87 157.403437 
L 79.87 157.403437 
" style="fill: none; stroke: #bcbd22; stroke-width: 1.5; stroke-linecap: square"/>
     <g>
      <use xlink:href="#m9fc295c435" x="69.87" y="157.403437" style="fill: #bcbd22; stroke: #bcbd22"/>
     </g>
    </g>
    <g id="text_23">
     <!-- Helene Cl -->
     <g transform="translate(87.87 160.903437) scale(0.1 -0.1)">
      <use xlink:href="#DejaVuSans-48"/>
      <use xlink:href="#DejaVuSans-65" x="75.195312"/>
      <use xlink:href="#DejaVuSans-6c" x="136.71875"/>
      <use xlink:href="#DejaVuSans-65" x="164.501953"/>
      <use xlink:href="#DejaVuSans-6e" x="226.025391"/>
      <use xlink:href="#DejaVuSans-65" x="289.404297"/>
      <use xlink:href="#DejaVuSans-20" x="350.927734"/>
      <use xlink:href="#DejaVuSans-43" x="382.714844"/>
      <use xlink:href="#DejaVuSans-6c" x="452.539062"/>
     </g>
    </g>
   </g>
  </g>
 </g>
 <defs>
  <clipPath id="p4f06731155">
   <rect x="50.87" y="26.88" width="802.33" height="377.24"/>
  </clipPath>
 </defs>
</svg>
