<?xml version="1.0" encoding="utf-8" standalone="no"?>
<!DOCTYPE svg PUBLIC "-//W3C//DTD SVG 1.1//EN"
  "http://www.w3.org/Graphics/SVG/1.1/DTD/svg11.dtd">
<svg xmlns:xlink="http://www.w3.org/1999/xlink" width="864pt" height="432pt" viewBox="0 0 864 432" xmlns="http://www.w3.org/2000/svg" version="1.1">
 <metadata>
  <rdf:RDF xmlns:dc="http://purl.org/dc/elements/1.1/" xmlns:cc="http://creativecommons.org/ns#" xmlns:rdf="http://www.w3.org/1999/02/22-rdf-syntax-ns#">
   <cc:Work>
    <dc:type rdf:resource="http://purl.org/dc/dcmitype/StillImage"/>
    <dc:date>2024-07-21T05:30:58.422193</dc:date>
    <dc:format>image/svg+xml</dc:format>
    <dc:creator>
     <cc:Agent>
      <dc:title>Matplotlib v3.9.1, https://matplotlib.org/</dc:title>
     </cc:Agent>
    </dc:creator>
   </cc:Work>
  </rdf:RDF>
 </metadata>
 <defs>
  <style type="text/css">*{stroke-linejoin: round; stroke-linecap: butt}</style>
 </defs>
 <g id="figure_1">
  <g id="patch_1">
   <path d="M 0 432 
L 864 432 
L 864 0 
L 0 0 
z
" style="fill: #ffffff"/>
  </g>
  <g id="axes_1">
   <g id="patch_2">
    <path d="M 50.87 404.12 
L 853.2 404.12 
L 853.2 26.88 
L 50.87 26.88 
z
" style="fill: #ffffff"/>
   </g>
   <g id="matplotlib.axis_1">
    <g id="xtick_1">
     <g id="line2d_1">
      <path d="M 67.626278 404.12 
L 67.626278 26.88 
" clip-path="url(#p1e5d56a7eb)" style="fill: none; stroke-dasharray: 2.96,1.28; stroke-dashoffset: 0; stroke: #b0b0b0; stroke-width: 0.8"/>
     </g>
     <g id="line2d_2">
      <defs>
       <path id="m600f1ecb37" d="M 0 0 
L 0 3.5 
" style="stroke: #000000; stroke-width: 0.8"/>
      </defs>
      <g>
       <use xlink:href="#m600f1ecb37" x="67.626278" y="404.12" style="stroke: #000000; stroke-width: 0.8"/>
      </g>
     </g>
     <g id="text_1">
      <!-- 2024-06-13 -->
      <g transform="translate(38.568465 418.718437) scale(0.1 -0.1)">
       <defs>
        <path id="DejaVuSans-32" d="M 1228 531 
L 3431 531 
L 3431 0 
L 469 0 
L 469 531 
Q 828 903 1448 1529 
Q 2069 2156 2228 2338 
Q 2531 2678 2651 2914 
Q 2772 3150 2772 3378 
Q 2772 3750 2511 3984 
Q 2250 4219 1831 4219 
Q 1534 4219 1204 4116 
Q 875 4013 500 3803 
L 500 4441 
Q 881 4594 1212 4672 
Q 1544 4750 1819 4750 
Q 2544 4750 2975 4387 
Q 3406 4025 3406 3419 
Q 3406 3131 3298 2873 
Q 3191 2616 2906 2266 
Q 2828 2175 2409 1742 
Q 1991 1309 1228 531 
z
" transform="scale(0.015625)"/>
        <path id="DejaVuSans-30" d="M 2034 4250 
Q 1547 4250 1301 3770 
Q 1056 3291 1056 2328 
Q 1056 1369 1301 889 
Q 1547 409 2034 409 
Q 2525 409 2770 889 
Q 3016 1369 3016 2328 
Q 3016 3291 2770 3770 
Q 2525 4250 2034 4250 
z
M 2034 4750 
Q 2819 4750 3233 4129 
Q 3647 3509 3647 2328 
Q 3647 1150 3233 529 
Q 2819 -91 2034 -91 
Q 1250 -91 836 529 
Q 422 1150 422 2328 
Q 422 3509 836 4129 
Q 1250 4750 2034 4750 
z
" transform="scale(0.015625)"/>
        <path id="DejaVuSans-34" d="M 2419 4116 
L 825 1625 
L 2419 1625 
L 2419 4116 
z
M 2253 4666 
L 3047 4666 
L 3047 1625 
L 3713 1625 
L 3713 1100 
L 3047 1100 
L 3047 0 
L 2419 0 
L 2419 1100 
L 313 1100 
L 313 1709 
L 2253 4666 
z
" transform="scale(0.015625)"/>
        <path id="DejaVuSans-2d" d="M 313 2009 
L 1997 2009 
L 1997 1497 
L 313 1497 
L 313 2009 
z
" transform="scale(0.015625)"/>
        <path id="DejaVuSans-36" d="M 2113 2584 
Q 1688 2584 1439 2293 
Q 1191 2003 1191 1497 
Q 1191 994 1439 701 
Q 1688 409 2113 409 
Q 2538 409 2786 701 
Q 3034 994 3034 1497 
Q 3034 2003 2786 2293 
Q 2538 2584 2113 2584 
z
M 3366 4563 
L 3366 3988 
Q 3128 4100 2886 4159 
Q 2644 4219 2406 4219 
Q 1781 4219 1451 3797 
Q 1122 3375 1075 2522 
Q 1259 2794 1537 2939 
Q 1816 3084 2150 3084 
Q 2853 3084 3261 2657 
Q 3669 2231 3669 1497 
Q 3669 778 3244 343 
Q 2819 -91 2113 -91 
Q 1303 -91 875 529 
Q 447 1150 447 2328 
Q 447 3434 972 4092 
Q 1497 4750 2381 4750 
Q 2619 4750 2861 4703 
Q 3103 4656 3366 4563 
z
" transform="scale(0.015625)"/>
        <path id="DejaVuSans-31" d="M 794 531 
L 1825 531 
L 1825 4091 
L 703 3866 
L 703 4441 
L 1819 4666 
L 2450 4666 
L 2450 531 
L 3481 531 
L 3481 0 
L 794 0 
L 794 531 
z
" transform="scale(0.015625)"/>
        <path id="DejaVuSans-33" d="M 2597 2516 
Q 3050 2419 3304 2112 
Q 3559 1806 3559 1356 
Q 3559 666 3084 287 
Q 2609 -91 1734 -91 
Q 1441 -91 1130 -33 
Q 819 25 488 141 
L 488 750 
Q 750 597 1062 519 
Q 1375 441 1716 441 
Q 2309 441 2620 675 
Q 2931 909 2931 1356 
Q 2931 1769 2642 2001 
Q 2353 2234 1838 2234 
L 1294 2234 
L 1294 2753 
L 1863 2753 
Q 2328 2753 2575 2939 
Q 2822 3125 2822 3475 
Q 2822 3834 2567 4026 
Q 2313 4219 1838 4219 
Q 1578 4219 1281 4162 
Q 984 4106 628 3988 
L 628 4550 
Q 988 4650 1302 4700 
Q 1616 4750 1894 4750 
Q 2613 4750 3031 4423 
Q 3450 4097 3450 3541 
Q 3450 3153 3228 2886 
Q 3006 2619 2597 2516 
z
" transform="scale(0.015625)"/>
       </defs>
       <use xlink:href="#DejaVuSans-32"/>
       <use xlink:href="#DejaVuSans-30" x="63.623047"/>
       <use xlink:href="#DejaVuSans-32" x="127.246094"/>
       <use xlink:href="#DejaVuSans-34" x="190.869141"/>
       <use xlink:href="#DejaVuSans-2d" x="254.492188"/>
       <use xlink:href="#DejaVuSans-30" x="290.576172"/>
       <use xlink:href="#DejaVuSans-36" x="354.199219"/>
       <use xlink:href="#DejaVuSans-2d" x="417.822266"/>
       <use xlink:href="#DejaVuSans-31" x="453.90625"/>
       <use xlink:href="#DejaVuSans-33" x="517.529297"/>
      </g>
     </g>
    </g>
    <g id="xtick_2">
     <g id="line2d_3">
      <path d="M 146.479349 404.12 
L 146.479349 26.88 
" clip-path="url(#p1e5d56a7eb)" style="fill: none; stroke-dasharray: 2.96,1.28; stroke-dashoffset: 0; stroke: #b0b0b0; stroke-width: 0.8"/>
     </g>
     <g id="line2d_4">
      <g>
       <use xlink:href="#m600f1ecb37" x="146.479349" y="404.12" style="stroke: #000000; stroke-width: 0.8"/>
      </g>
     </g>
     <g id="text_2">
      <!-- 2024-06-17 -->
      <g transform="translate(117.421536 418.718437) scale(0.1 -0.1)">
       <defs>
        <path id="DejaVuSans-37" d="M 525 4666 
L 3525 4666 
L 3525 4397 
L 1831 0 
L 1172 0 
L 2766 4134 
L 525 4134 
L 525 4666 
z
" transform="scale(0.015625)"/>
       </defs>
       <use xlink:href="#DejaVuSans-32"/>
       <use xlink:href="#DejaVuSans-30" x="63.623047"/>
       <use xlink:href="#DejaVuSans-32" x="127.246094"/>
       <use xlink:href="#DejaVuSans-34" x="190.869141"/>
       <use xlink:href="#DejaVuSans-2d" x="254.492188"/>
       <use xlink:href="#DejaVuSans-30" x="290.576172"/>
       <use xlink:href="#DejaVuSans-36" x="354.199219"/>
       <use xlink:href="#DejaVuSans-2d" x="417.822266"/>
       <use xlink:href="#DejaVuSans-31" x="453.90625"/>
       <use xlink:href="#DejaVuSans-37" x="517.529297"/>
      </g>
     </g>
    </g>
    <g id="xtick_3">
     <g id="line2d_5">
      <path d="M 225.33242 404.12 
L 225.33242 26.88 
" clip-path="url(#p1e5d56a7eb)" style="fill: none; stroke-dasharray: 2.96,1.28; stroke-dashoffset: 0; stroke: #b0b0b0; stroke-width: 0.8"/>
     </g>
     <g id="line2d_6">
      <g>
       <use xlink:href="#m600f1ecb37" x="225.33242" y="404.12" style="stroke: #000000; stroke-width: 0.8"/>
      </g>
     </g>
     <g id="text_3">
      <!-- 2024-06-21 -->
      <g transform="translate(196.274608 418.718437) scale(0.1 -0.1)">
       <use xlink:href="#DejaVuSans-32"/>
       <use xlink:href="#DejaVuSans-30" x="63.623047"/>
       <use xlink:href="#DejaVuSans-32" x="127.246094"/>
       <use xlink:href="#DejaVuSans-34" x="190.869141"/>
       <use xlink:href="#DejaVuSans-2d" x="254.492188"/>
       <use xlink:href="#DejaVuSans-30" x="290.576172"/>
       <use xlink:href="#DejaVuSans-36" x="354.199219"/>
       <use xlink:href="#DejaVuSans-2d" x="417.822266"/>
       <use xlink:href="#DejaVuSans-32" x="453.90625"/>
       <use xlink:href="#DejaVuSans-31" x="517.529297"/>
      </g>
     </g>
    </g>
    <g id="xtick_4">
     <g id="line2d_7">
      <path d="M 304.185491 404.12 
L 304.185491 26.88 
" clip-path="url(#p1e5d56a7eb)" style="fill: none; stroke-dasharray: 2.96,1.28; stroke-dashoffset: 0; stroke: #b0b0b0; stroke-width: 0.8"/>
     </g>
     <g id="line2d_8">
      <g>
       <use xlink:href="#m600f1ecb37" x="304.185491" y="404.12" style="stroke: #000000; stroke-width: 0.8"/>
      </g>
     </g>
     <g id="text_4">
      <!-- 2024-06-25 -->
      <g transform="translate(275.127679 418.718437) scale(0.1 -0.1)">
       <defs>
        <path id="DejaVuSans-35" d="M 691 4666 
L 3169 4666 
L 3169 4134 
L 1269 4134 
L 1269 2991 
Q 1406 3038 1543 3061 
Q 1681 3084 1819 3084 
Q 2600 3084 3056 2656 
Q 3513 2228 3513 1497 
Q 3513 744 3044 326 
Q 2575 -91 1722 -91 
Q 1428 -91 1123 -41 
Q 819 9 494 109 
L 494 744 
Q 775 591 1075 516 
Q 1375 441 1709 441 
Q 2250 441 2565 725 
Q 2881 1009 2881 1497 
Q 2881 1984 2565 2268 
Q 2250 2553 1709 2553 
Q 1456 2553 1204 2497 
Q 953 2441 691 2322 
L 691 4666 
z
" transform="scale(0.015625)"/>
       </defs>
       <use xlink:href="#DejaVuSans-32"/>
       <use xlink:href="#DejaVuSans-30" x="63.623047"/>
       <use xlink:href="#DejaVuSans-32" x="127.246094"/>
       <use xlink:href="#DejaVuSans-34" x="190.869141"/>
       <use xlink:href="#DejaVuSans-2d" x="254.492188"/>
       <use xlink:href="#DejaVuSans-30" x="290.576172"/>
       <use xlink:href="#DejaVuSans-36" x="354.199219"/>
       <use xlink:href="#DejaVuSans-2d" x="417.822266"/>
       <use xlink:href="#DejaVuSans-32" x="453.90625"/>
       <use xlink:href="#DejaVuSans-35" x="517.529297"/>
      </g>
     </g>
    </g>
    <g id="xtick_5">
     <g id="line2d_9">
      <path d="M 383.038563 404.12 
L 383.038563 26.88 
" clip-path="url(#p1e5d56a7eb)" style="fill: none; stroke-dasharray: 2.96,1.28; stroke-dashoffset: 0; stroke: #b0b0b0; stroke-width: 0.8"/>
     </g>
     <g id="line2d_10">
      <g>
       <use xlink:href="#m600f1ecb37" x="383.038563" y="404.12" style="stroke: #000000; stroke-width: 0.8"/>
      </g>
     </g>
     <g id="text_5">
      <!-- 2024-06-29 -->
      <g transform="translate(353.98075 418.718437) scale(0.1 -0.1)">
       <defs>
        <path id="DejaVuSans-39" d="M 703 97 
L 703 672 
Q 941 559 1184 500 
Q 1428 441 1663 441 
Q 2288 441 2617 861 
Q 2947 1281 2994 2138 
Q 2813 1869 2534 1725 
Q 2256 1581 1919 1581 
Q 1219 1581 811 2004 
Q 403 2428 403 3163 
Q 403 3881 828 4315 
Q 1253 4750 1959 4750 
Q 2769 4750 3195 4129 
Q 3622 3509 3622 2328 
Q 3622 1225 3098 567 
Q 2575 -91 1691 -91 
Q 1453 -91 1209 -44 
Q 966 3 703 97 
z
M 1959 2075 
Q 2384 2075 2632 2365 
Q 2881 2656 2881 3163 
Q 2881 3666 2632 3958 
Q 2384 4250 1959 4250 
Q 1534 4250 1286 3958 
Q 1038 3666 1038 3163 
Q 1038 2656 1286 2365 
Q 1534 2075 1959 2075 
z
" transform="scale(0.015625)"/>
       </defs>
       <use xlink:href="#DejaVuSans-32"/>
       <use xlink:href="#DejaVuSans-30" x="63.623047"/>
       <use xlink:href="#DejaVuSans-32" x="127.246094"/>
       <use xlink:href="#DejaVuSans-34" x="190.869141"/>
       <use xlink:href="#DejaVuSans-2d" x="254.492188"/>
       <use xlink:href="#DejaVuSans-30" x="290.576172"/>
       <use xlink:href="#DejaVuSans-36" x="354.199219"/>
       <use xlink:href="#DejaVuSans-2d" x="417.822266"/>
       <use xlink:href="#DejaVuSans-32" x="453.90625"/>
       <use xlink:href="#DejaVuSans-39" x="517.529297"/>
      </g>
     </g>
    </g>
    <g id="xtick_6">
     <g id="line2d_11">
      <path d="M 422.465098 404.12 
L 422.465098 26.88 
" clip-path="url(#p1e5d56a7eb)" style="fill: none; stroke-dasharray: 2.96,1.28; stroke-dashoffset: 0; stroke: #b0b0b0; stroke-width: 0.8"/>
     </g>
     <g id="line2d_12">
      <g>
       <use xlink:href="#m600f1ecb37" x="422.465098" y="404.12" style="stroke: #000000; stroke-width: 0.8"/>
      </g>
     </g>
     <g id="text_6">
      <!-- 2024-07-01 -->
      <g transform="translate(393.407286 418.718437) scale(0.1 -0.1)">
       <use xlink:href="#DejaVuSans-32"/>
       <use xlink:href="#DejaVuSans-30" x="63.623047"/>
       <use xlink:href="#DejaVuSans-32" x="127.246094"/>
       <use xlink:href="#DejaVuSans-34" x="190.869141"/>
       <use xlink:href="#DejaVuSans-2d" x="254.492188"/>
       <use xlink:href="#DejaVuSans-30" x="290.576172"/>
       <use xlink:href="#DejaVuSans-37" x="354.199219"/>
       <use xlink:href="#DejaVuSans-2d" x="417.822266"/>
       <use xlink:href="#DejaVuSans-30" x="453.90625"/>
       <use xlink:href="#DejaVuSans-31" x="517.529297"/>
      </g>
     </g>
    </g>
    <g id="xtick_7">
     <g id="line2d_13">
      <path d="M 501.31817 404.12 
L 501.31817 26.88 
" clip-path="url(#p1e5d56a7eb)" style="fill: none; stroke-dasharray: 2.96,1.28; stroke-dashoffset: 0; stroke: #b0b0b0; stroke-width: 0.8"/>
     </g>
     <g id="line2d_14">
      <g>
       <use xlink:href="#m600f1ecb37" x="501.31817" y="404.12" style="stroke: #000000; stroke-width: 0.8"/>
      </g>
     </g>
     <g id="text_7">
      <!-- 2024-07-05 -->
      <g transform="translate(472.260357 418.718437) scale(0.1 -0.1)">
       <use xlink:href="#DejaVuSans-32"/>
       <use xlink:href="#DejaVuSans-30" x="63.623047"/>
       <use xlink:href="#DejaVuSans-32" x="127.246094"/>
       <use xlink:href="#DejaVuSans-34" x="190.869141"/>
       <use xlink:href="#DejaVuSans-2d" x="254.492188"/>
       <use xlink:href="#DejaVuSans-30" x="290.576172"/>
       <use xlink:href="#DejaVuSans-37" x="354.199219"/>
       <use xlink:href="#DejaVuSans-2d" x="417.822266"/>
       <use xlink:href="#DejaVuSans-30" x="453.90625"/>
       <use xlink:href="#DejaVuSans-35" x="517.529297"/>
      </g>
     </g>
    </g>
    <g id="xtick_8">
     <g id="line2d_15">
      <path d="M 580.171241 404.12 
L 580.171241 26.88 
" clip-path="url(#p1e5d56a7eb)" style="fill: none; stroke-dasharray: 2.96,1.28; stroke-dashoffset: 0; stroke: #b0b0b0; stroke-width: 0.8"/>
     </g>
     <g id="line2d_16">
      <g>
       <use xlink:href="#m600f1ecb37" x="580.171241" y="404.12" style="stroke: #000000; stroke-width: 0.8"/>
      </g>
     </g>
     <g id="text_8">
      <!-- 2024-07-09 -->
      <g transform="translate(551.113428 418.718437) scale(0.1 -0.1)">
       <use xlink:href="#DejaVuSans-32"/>
       <use xlink:href="#DejaVuSans-30" x="63.623047"/>
       <use xlink:href="#DejaVuSans-32" x="127.246094"/>
       <use xlink:href="#DejaVuSans-34" x="190.869141"/>
       <use xlink:href="#DejaVuSans-2d" x="254.492188"/>
       <use xlink:href="#DejaVuSans-30" x="290.576172"/>
       <use xlink:href="#DejaVuSans-37" x="354.199219"/>
       <use xlink:href="#DejaVuSans-2d" x="417.822266"/>
       <use xlink:href="#DejaVuSans-30" x="453.90625"/>
       <use xlink:href="#DejaVuSans-39" x="517.529297"/>
      </g>
     </g>
    </g>
    <g id="xtick_9">
     <g id="line2d_17">
      <path d="M 659.024312 404.12 
L 659.024312 26.88 
" clip-path="url(#p1e5d56a7eb)" style="fill: none; stroke-dasharray: 2.96,1.28; stroke-dashoffset: 0; stroke: #b0b0b0; stroke-width: 0.8"/>
     </g>
     <g id="line2d_18">
      <g>
       <use xlink:href="#m600f1ecb37" x="659.024312" y="404.12" style="stroke: #000000; stroke-width: 0.8"/>
      </g>
     </g>
     <g id="text_9">
      <!-- 2024-07-13 -->
      <g transform="translate(629.9665 418.718437) scale(0.1 -0.1)">
       <use xlink:href="#DejaVuSans-32"/>
       <use xlink:href="#DejaVuSans-30" x="63.623047"/>
       <use xlink:href="#DejaVuSans-32" x="127.246094"/>
       <use xlink:href="#DejaVuSans-34" x="190.869141"/>
       <use xlink:href="#DejaVuSans-2d" x="254.492188"/>
       <use xlink:href="#DejaVuSans-30" x="290.576172"/>
       <use xlink:href="#DejaVuSans-37" x="354.199219"/>
       <use xlink:href="#DejaVuSans-2d" x="417.822266"/>
       <use xlink:href="#DejaVuSans-31" x="453.90625"/>
       <use xlink:href="#DejaVuSans-33" x="517.529297"/>
      </g>
     </g>
    </g>
    <g id="xtick_10">
     <g id="line2d_19">
      <path d="M 737.877383 404.12 
L 737.877383 26.88 
" clip-path="url(#p1e5d56a7eb)" style="fill: none; stroke-dasharray: 2.96,1.28; stroke-dashoffset: 0; stroke: #b0b0b0; stroke-width: 0.8"/>
     </g>
     <g id="line2d_20">
      <g>
       <use xlink:href="#m600f1ecb37" x="737.877383" y="404.12" style="stroke: #000000; stroke-width: 0.8"/>
      </g>
     </g>
     <g id="text_10">
      <!-- 2024-07-17 -->
      <g transform="translate(708.819571 418.718437) scale(0.1 -0.1)">
       <use xlink:href="#DejaVuSans-32"/>
       <use xlink:href="#DejaVuSans-30" x="63.623047"/>
       <use xlink:href="#DejaVuSans-32" x="127.246094"/>
       <use xlink:href="#DejaVuSans-34" x="190.869141"/>
       <use xlink:href="#DejaVuSans-2d" x="254.492188"/>
       <use xlink:href="#DejaVuSans-30" x="290.576172"/>
       <use xlink:href="#DejaVuSans-37" x="354.199219"/>
       <use xlink:href="#DejaVuSans-2d" x="417.822266"/>
       <use xlink:href="#DejaVuSans-31" x="453.90625"/>
       <use xlink:href="#DejaVuSans-37" x="517.529297"/>
      </g>
     </g>
    </g>
    <g id="xtick_11">
     <g id="line2d_21">
      <path d="M 816.730455 404.12 
L 816.730455 26.88 
" clip-path="url(#p1e5d56a7eb)" style="fill: none; stroke-dasharray: 2.96,1.28; stroke-dashoffset: 0; stroke: #b0b0b0; stroke-width: 0.8"/>
     </g>
     <g id="line2d_22">
      <g>
       <use xlink:href="#m600f1ecb37" x="816.730455" y="404.12" style="stroke: #000000; stroke-width: 0.8"/>
      </g>
     </g>
     <g id="text_11">
      <!-- 2024-07-21 -->
      <g transform="translate(787.672642 418.718437) scale(0.1 -0.1)">
       <use xlink:href="#DejaVuSans-32"/>
       <use xlink:href="#DejaVuSans-30" x="63.623047"/>
       <use xlink:href="#DejaVuSans-32" x="127.246094"/>
       <use xlink:href="#DejaVuSans-34" x="190.869141"/>
       <use xlink:href="#DejaVuSans-2d" x="254.492188"/>
       <use xlink:href="#DejaVuSans-30" x="290.576172"/>
       <use xlink:href="#DejaVuSans-37" x="354.199219"/>
       <use xlink:href="#DejaVuSans-2d" x="417.822266"/>
       <use xlink:href="#DejaVuSans-32" x="453.90625"/>
       <use xlink:href="#DejaVuSans-31" x="517.529297"/>
      </g>
     </g>
    </g>
   </g>
   <g id="matplotlib.axis_2">
    <g id="ytick_1">
     <g id="line2d_23">
      <path d="M 50.87 389.438617 
L 853.2 389.438617 
" clip-path="url(#p1e5d56a7eb)" style="fill: none; stroke-dasharray: 2.96,1.28; stroke-dashoffset: 0; stroke: #b0b0b0; stroke-width: 0.8"/>
     </g>
     <g id="line2d_24">
      <defs>
       <path id="mdfaa53afd3" d="M 0 0 
L -3.5 0 
" style="stroke: #000000; stroke-width: 0.8"/>
      </defs>
      <g>
       <use xlink:href="#mdfaa53afd3" x="50.87" y="389.438617" style="stroke: #000000; stroke-width: 0.8"/>
      </g>
     </g>
     <g id="text_12">
      <!-- 0 -->
      <g transform="translate(37.5075 393.237835) scale(0.1 -0.1)">
       <use xlink:href="#DejaVuSans-30"/>
      </g>
     </g>
    </g>
    <g id="ytick_2">
     <g id="line2d_25">
      <path d="M 50.87 327.777507 
L 853.2 327.777507 
" clip-path="url(#p1e5d56a7eb)" style="fill: none; stroke-dasharray: 2.96,1.28; stroke-dashoffset: 0; stroke: #b0b0b0; stroke-width: 0.8"/>
     </g>
     <g id="line2d_26">
      <g>
       <use xlink:href="#mdfaa53afd3" x="50.87" y="327.777507" style="stroke: #000000; stroke-width: 0.8"/>
      </g>
     </g>
     <g id="text_13">
      <!-- 50 -->
      <g transform="translate(31.145 331.576726) scale(0.1 -0.1)">
       <use xlink:href="#DejaVuSans-35"/>
       <use xlink:href="#DejaVuSans-30" x="63.623047"/>
      </g>
     </g>
    </g>
    <g id="ytick_3">
     <g id="line2d_27">
      <path d="M 50.87 266.116398 
L 853.2 266.116398 
" clip-path="url(#p1e5d56a7eb)" style="fill: none; stroke-dasharray: 2.96,1.28; stroke-dashoffset: 0; stroke: #b0b0b0; stroke-width: 0.8"/>
     </g>
     <g id="line2d_28">
      <g>
       <use xlink:href="#mdfaa53afd3" x="50.87" y="266.116398" style="stroke: #000000; stroke-width: 0.8"/>
      </g>
     </g>
     <g id="text_14">
      <!-- 100 -->
      <g transform="translate(24.7825 269.915617) scale(0.1 -0.1)">
       <use xlink:href="#DejaVuSans-31"/>
       <use xlink:href="#DejaVuSans-30" x="63.623047"/>
       <use xlink:href="#DejaVuSans-30" x="127.246094"/>
      </g>
     </g>
    </g>
    <g id="ytick_4">
     <g id="line2d_29">
      <path d="M 50.87 204.455288 
L 853.2 204.455288 
" clip-path="url(#p1e5d56a7eb)" style="fill: none; stroke-dasharray: 2.96,1.28; stroke-dashoffset: 0; stroke: #b0b0b0; stroke-width: 0.8"/>
     </g>
     <g id="line2d_30">
      <g>
       <use xlink:href="#mdfaa53afd3" x="50.87" y="204.455288" style="stroke: #000000; stroke-width: 0.8"/>
      </g>
     </g>
     <g id="text_15">
      <!-- 150 -->
      <g transform="translate(24.7825 208.254507) scale(0.1 -0.1)">
       <use xlink:href="#DejaVuSans-31"/>
       <use xlink:href="#DejaVuSans-35" x="63.623047"/>
       <use xlink:href="#DejaVuSans-30" x="127.246094"/>
      </g>
     </g>
    </g>
    <g id="ytick_5">
     <g id="line2d_31">
      <path d="M 50.87 142.794179 
L 853.2 142.794179 
" clip-path="url(#p1e5d56a7eb)" style="fill: none; stroke-dasharray: 2.96,1.28; stroke-dashoffset: 0; stroke: #b0b0b0; stroke-width: 0.8"/>
     </g>
     <g id="line2d_32">
      <g>
       <use xlink:href="#mdfaa53afd3" x="50.87" y="142.794179" style="stroke: #000000; stroke-width: 0.8"/>
      </g>
     </g>
     <g id="text_16">
      <!-- 200 -->
      <g transform="translate(24.7825 146.593398) scale(0.1 -0.1)">
       <use xlink:href="#DejaVuSans-32"/>
       <use xlink:href="#DejaVuSans-30" x="63.623047"/>
       <use xlink:href="#DejaVuSans-30" x="127.246094"/>
      </g>
     </g>
    </g>
    <g id="ytick_6">
     <g id="line2d_33">
      <path d="M 50.87 81.13307 
L 853.2 81.13307 
" clip-path="url(#p1e5d56a7eb)" style="fill: none; stroke-dasharray: 2.96,1.28; stroke-dashoffset: 0; stroke: #b0b0b0; stroke-width: 0.8"/>
     </g>
     <g id="line2d_34">
      <g>
       <use xlink:href="#mdfaa53afd3" x="50.87" y="81.13307" style="stroke: #000000; stroke-width: 0.8"/>
      </g>
     </g>
     <g id="text_17">
      <!-- 250 -->
      <g transform="translate(24.7825 84.932288) scale(0.1 -0.1)">
       <use xlink:href="#DejaVuSans-32"/>
       <use xlink:href="#DejaVuSans-35" x="63.623047"/>
       <use xlink:href="#DejaVuSans-30" x="127.246094"/>
      </g>
     </g>
    </g>
    <g id="text_18">
     <!-- Score -->
     <g transform="translate(18.702813 229.502344) rotate(-90) scale(0.1 -0.1)">
      <defs>
       <path id="DejaVuSans-53" d="M 3425 4513 
L 3425 3897 
Q 3066 4069 2747 4153 
Q 2428 4238 2131 4238 
Q 1616 4238 1336 4038 
Q 1056 3838 1056 3469 
Q 1056 3159 1242 3001 
Q 1428 2844 1947 2747 
L 2328 2669 
Q 3034 2534 3370 2195 
Q 3706 1856 3706 1288 
Q 3706 609 3251 259 
Q 2797 -91 1919 -91 
Q 1588 -91 1214 -16 
Q 841 59 441 206 
L 441 856 
Q 825 641 1194 531 
Q 1563 422 1919 422 
Q 2459 422 2753 634 
Q 3047 847 3047 1241 
Q 3047 1584 2836 1778 
Q 2625 1972 2144 2069 
L 1759 2144 
Q 1053 2284 737 2584 
Q 422 2884 422 3419 
Q 422 4038 858 4394 
Q 1294 4750 2059 4750 
Q 2388 4750 2728 4690 
Q 3069 4631 3425 4513 
z
" transform="scale(0.015625)"/>
       <path id="DejaVuSans-63" d="M 3122 3366 
L 3122 2828 
Q 2878 2963 2633 3030 
Q 2388 3097 2138 3097 
Q 1578 3097 1268 2742 
Q 959 2388 959 1747 
Q 959 1106 1268 751 
Q 1578 397 2138 397 
Q 2388 397 2633 464 
Q 2878 531 3122 666 
L 3122 134 
Q 2881 22 2623 -34 
Q 2366 -91 2075 -91 
Q 1284 -91 818 406 
Q 353 903 353 1747 
Q 353 2603 823 3093 
Q 1294 3584 2113 3584 
Q 2378 3584 2631 3529 
Q 2884 3475 3122 3366 
z
" transform="scale(0.015625)"/>
       <path id="DejaVuSans-6f" d="M 1959 3097 
Q 1497 3097 1228 2736 
Q 959 2375 959 1747 
Q 959 1119 1226 758 
Q 1494 397 1959 397 
Q 2419 397 2687 759 
Q 2956 1122 2956 1747 
Q 2956 2369 2687 2733 
Q 2419 3097 1959 3097 
z
M 1959 3584 
Q 2709 3584 3137 3096 
Q 3566 2609 3566 1747 
Q 3566 888 3137 398 
Q 2709 -91 1959 -91 
Q 1206 -91 779 398 
Q 353 888 353 1747 
Q 353 2609 779 3096 
Q 1206 3584 1959 3584 
z
" transform="scale(0.015625)"/>
       <path id="DejaVuSans-72" d="M 2631 2963 
Q 2534 3019 2420 3045 
Q 2306 3072 2169 3072 
Q 1681 3072 1420 2755 
Q 1159 2438 1159 1844 
L 1159 0 
L 581 0 
L 581 3500 
L 1159 3500 
L 1159 2956 
Q 1341 3275 1631 3429 
Q 1922 3584 2338 3584 
Q 2397 3584 2469 3576 
Q 2541 3569 2628 3553 
L 2631 2963 
z
" transform="scale(0.015625)"/>
       <path id="DejaVuSans-65" d="M 3597 1894 
L 3597 1613 
L 953 1613 
Q 991 1019 1311 708 
Q 1631 397 2203 397 
Q 2534 397 2845 478 
Q 3156 559 3463 722 
L 3463 178 
Q 3153 47 2828 -22 
Q 2503 -91 2169 -91 
Q 1331 -91 842 396 
Q 353 884 353 1716 
Q 353 2575 817 3079 
Q 1281 3584 2069 3584 
Q 2775 3584 3186 3129 
Q 3597 2675 3597 1894 
z
M 3022 2063 
Q 3016 2534 2758 2815 
Q 2500 3097 2075 3097 
Q 1594 3097 1305 2825 
Q 1016 2553 972 2059 
L 3022 2063 
z
" transform="scale(0.015625)"/>
      </defs>
      <use xlink:href="#DejaVuSans-53"/>
      <use xlink:href="#DejaVuSans-63" x="63.476562"/>
      <use xlink:href="#DejaVuSans-6f" x="118.457031"/>
      <use xlink:href="#DejaVuSans-72" x="179.638672"/>
      <use xlink:href="#DejaVuSans-65" x="218.501953"/>
     </g>
    </g>
   </g>
   <g id="line2d_35">
    <path d="M 87.339545 383.331172 
L 107.052813 352.500617 
L 126.766081 327.836173 
L 146.479349 315.503951 
L 166.192617 297.005619 
L 185.905885 276.040841 
L 205.619152 268.641508 
L 225.33242 260.008953 
L 245.045688 241.51062 
L 264.758956 220.545843 
L 284.472224 187.248844 
L 304.185491 169.983733 
L 323.898759 142.852845 
L 383.038563 142.852845 
L 402.75183 142.852845 
L 422.465098 142.852845 
L 442.178366 142.852845 
L 461.891634 142.852845 
L 501.31817 142.852845 
L 521.031437 142.852845 
L 540.744705 142.852845 
L 560.457973 142.852845 
L 580.171241 142.852845 
L 599.884509 124.354512 
L 619.597776 124.354512 
L 639.311044 124.354512 
L 659.024312 124.354512 
L 678.73758 124.354512 
L 698.450848 81.191736 
L 718.164115 81.191736 
L 737.877383 81.191736 
L 757.590651 81.191736 
L 777.303919 81.191736 
L 797.017187 81.191736 
L 816.730455 81.191736 
" clip-path="url(#p1e5d56a7eb)" style="fill: none; stroke: #1f77b4; stroke-width: 1.5; stroke-linecap: square"/>
    <defs>
     <path id="m9dd74da93c" d="M 0 3.5 
C 0.928211 3.5 1.81853 3.131218 2.474874 2.474874 
C 3.131218 1.81853 3.5 0.928211 3.5 0 
C 3.5 -0.928211 3.131218 -1.81853 2.474874 -2.474874 
C 1.81853 -3.131218 0.928211 -3.5 0 -3.5 
C -0.928211 -3.5 -1.81853 -3.131218 -2.474874 -2.474874 
C -3.131218 -1.81853 -3.5 -0.928211 -3.5 0 
C -3.5 0.928211 -3.131218 1.81853 -2.474874 2.474874 
C -1.81853 3.131218 -0.928211 3.5 0 3.5 
z
" style="stroke: #1f77b4"/>
    </defs>
    <g clip-path="url(#p1e5d56a7eb)">
     <use xlink:href="#m9dd74da93c" x="87.339545" y="383.331172" style="fill: #1f77b4; stroke: #1f77b4"/>
     <use xlink:href="#m9dd74da93c" x="107.052813" y="352.500617" style="fill: #1f77b4; stroke: #1f77b4"/>
     <use xlink:href="#m9dd74da93c" x="126.766081" y="327.836173" style="fill: #1f77b4; stroke: #1f77b4"/>
     <use xlink:href="#m9dd74da93c" x="146.479349" y="315.503951" style="fill: #1f77b4; stroke: #1f77b4"/>
     <use xlink:href="#m9dd74da93c" x="166.192617" y="297.005619" style="fill: #1f77b4; stroke: #1f77b4"/>
     <use xlink:href="#m9dd74da93c" x="185.905885" y="276.040841" style="fill: #1f77b4; stroke: #1f77b4"/>
     <use xlink:href="#m9dd74da93c" x="205.619152" y="268.641508" style="fill: #1f77b4; stroke: #1f77b4"/>
     <use xlink:href="#m9dd74da93c" x="225.33242" y="260.008953" style="fill: #1f77b4; stroke: #1f77b4"/>
     <use xlink:href="#m9dd74da93c" x="245.045688" y="241.51062" style="fill: #1f77b4; stroke: #1f77b4"/>
     <use xlink:href="#m9dd74da93c" x="264.758956" y="220.545843" style="fill: #1f77b4; stroke: #1f77b4"/>
     <use xlink:href="#m9dd74da93c" x="284.472224" y="187.248844" style="fill: #1f77b4; stroke: #1f77b4"/>
     <use xlink:href="#m9dd74da93c" x="304.185491" y="169.983733" style="fill: #1f77b4; stroke: #1f77b4"/>
     <use xlink:href="#m9dd74da93c" x="323.898759" y="142.852845" style="fill: #1f77b4; stroke: #1f77b4"/>
     <use xlink:href="#m9dd74da93c" x="383.038563" y="142.852845" style="fill: #1f77b4; stroke: #1f77b4"/>
     <use xlink:href="#m9dd74da93c" x="402.75183" y="142.852845" style="fill: #1f77b4; stroke: #1f77b4"/>
     <use xlink:href="#m9dd74da93c" x="422.465098" y="142.852845" style="fill: #1f77b4; stroke: #1f77b4"/>
     <use xlink:href="#m9dd74da93c" x="442.178366" y="142.852845" style="fill: #1f77b4; stroke: #1f77b4"/>
     <use xlink:href="#m9dd74da93c" x="461.891634" y="142.852845" style="fill: #1f77b4; stroke: #1f77b4"/>
     <use xlink:href="#m9dd74da93c" x="501.31817" y="142.852845" style="fill: #1f77b4; stroke: #1f77b4"/>
     <use xlink:href="#m9dd74da93c" x="521.031437" y="142.852845" style="fill: #1f77b4; stroke: #1f77b4"/>
     <use xlink:href="#m9dd74da93c" x="540.744705" y="142.852845" style="fill: #1f77b4; stroke: #1f77b4"/>
     <use xlink:href="#m9dd74da93c" x="560.457973" y="142.852845" style="fill: #1f77b4; stroke: #1f77b4"/>
     <use xlink:href="#m9dd74da93c" x="580.171241" y="142.852845" style="fill: #1f77b4; stroke: #1f77b4"/>
     <use xlink:href="#m9dd74da93c" x="599.884509" y="124.354512" style="fill: #1f77b4; stroke: #1f77b4"/>
     <use xlink:href="#m9dd74da93c" x="619.597776" y="124.354512" style="fill: #1f77b4; stroke: #1f77b4"/>
     <use xlink:href="#m9dd74da93c" x="639.311044" y="124.354512" style="fill: #1f77b4; stroke: #1f77b4"/>
     <use xlink:href="#m9dd74da93c" x="659.024312" y="124.354512" style="fill: #1f77b4; stroke: #1f77b4"/>
     <use xlink:href="#m9dd74da93c" x="678.73758" y="124.354512" style="fill: #1f77b4; stroke: #1f77b4"/>
     <use xlink:href="#m9dd74da93c" x="698.450848" y="81.191736" style="fill: #1f77b4; stroke: #1f77b4"/>
     <use xlink:href="#m9dd74da93c" x="718.164115" y="81.191736" style="fill: #1f77b4; stroke: #1f77b4"/>
     <use xlink:href="#m9dd74da93c" x="737.877383" y="81.191736" style="fill: #1f77b4; stroke: #1f77b4"/>
     <use xlink:href="#m9dd74da93c" x="757.590651" y="81.191736" style="fill: #1f77b4; stroke: #1f77b4"/>
     <use xlink:href="#m9dd74da93c" x="777.303919" y="81.191736" style="fill: #1f77b4; stroke: #1f77b4"/>
     <use xlink:href="#m9dd74da93c" x="797.017187" y="81.191736" style="fill: #1f77b4; stroke: #1f77b4"/>
     <use xlink:href="#m9dd74da93c" x="816.730455" y="81.191736" style="fill: #1f77b4; stroke: #1f77b4"/>
    </g>
   </g>
   <g id="line2d_36">
    <path d="M 87.339545 383.334534 
L 107.052813 358.67009 
L 126.766081 343.871424 
L 146.479349 325.373091 
L 166.192617 300.708647 
L 185.905885 285.909981 
L 205.619152 261.245537 
L 225.33242 246.446871 
L 245.045688 215.616316 
L 264.758956 200.81765 
L 284.472224 176.153206 
L 304.185491 161.35454 
L 323.898759 112.025652 
L 383.038563 112.025652 
L 402.75183 112.025652 
L 422.465098 112.025652 
L 442.178366 112.025652 
L 461.891634 112.025652 
L 501.31817 112.025652 
L 521.031437 112.025652 
L 540.744705 112.025652 
L 560.457973 112.025652 
L 580.171241 112.025652 
L 599.884509 112.025652 
L 619.597776 112.025652 
L 639.311044 112.025652 
L 659.024312 112.025652 
L 678.73758 112.025652 
L 698.450848 93.52732 
L 718.164115 93.52732 
L 737.877383 93.52732 
L 757.590651 93.52732 
L 777.303919 93.52732 
L 797.017187 93.52732 
L 816.730455 93.52732 
" clip-path="url(#p1e5d56a7eb)" style="fill: none; stroke: #ff7f0e; stroke-width: 1.5; stroke-linecap: square"/>
    <defs>
     <path id="mde45c3b3c4" d="M 0 3.5 
C 0.928211 3.5 1.81853 3.131218 2.474874 2.474874 
C 3.131218 1.81853 3.5 0.928211 3.5 0 
C 3.5 -0.928211 3.131218 -1.81853 2.474874 -2.474874 
C 1.81853 -3.131218 0.928211 -3.5 0 -3.5 
C -0.928211 -3.5 -1.81853 -3.131218 -2.474874 -2.474874 
C -3.131218 -1.81853 -3.5 -0.928211 -3.5 0 
C -3.5 0.928211 -3.131218 1.81853 -2.474874 2.474874 
C -1.81853 3.131218 -0.928211 3.5 0 3.5 
z
" style="stroke: #ff7f0e"/>
    </defs>
    <g clip-path="url(#p1e5d56a7eb)">
     <use xlink:href="#mde45c3b3c4" x="87.339545" y="383.334534" style="fill: #ff7f0e; stroke: #ff7f0e"/>
     <use xlink:href="#mde45c3b3c4" x="107.052813" y="358.67009" style="fill: #ff7f0e; stroke: #ff7f0e"/>
     <use xlink:href="#mde45c3b3c4" x="126.766081" y="343.871424" style="fill: #ff7f0e; stroke: #ff7f0e"/>
     <use xlink:href="#mde45c3b3c4" x="146.479349" y="325.373091" style="fill: #ff7f0e; stroke: #ff7f0e"/>
     <use xlink:href="#mde45c3b3c4" x="166.192617" y="300.708647" style="fill: #ff7f0e; stroke: #ff7f0e"/>
     <use xlink:href="#mde45c3b3c4" x="185.905885" y="285.909981" style="fill: #ff7f0e; stroke: #ff7f0e"/>
     <use xlink:href="#mde45c3b3c4" x="205.619152" y="261.245537" style="fill: #ff7f0e; stroke: #ff7f0e"/>
     <use xlink:href="#mde45c3b3c4" x="225.33242" y="246.446871" style="fill: #ff7f0e; stroke: #ff7f0e"/>
     <use xlink:href="#mde45c3b3c4" x="245.045688" y="215.616316" style="fill: #ff7f0e; stroke: #ff7f0e"/>
     <use xlink:href="#mde45c3b3c4" x="264.758956" y="200.81765" style="fill: #ff7f0e; stroke: #ff7f0e"/>
     <use xlink:href="#mde45c3b3c4" x="284.472224" y="176.153206" style="fill: #ff7f0e; stroke: #ff7f0e"/>
     <use xlink:href="#mde45c3b3c4" x="304.185491" y="161.35454" style="fill: #ff7f0e; stroke: #ff7f0e"/>
     <use xlink:href="#mde45c3b3c4" x="323.898759" y="112.025652" style="fill: #ff7f0e; stroke: #ff7f0e"/>
     <use xlink:href="#mde45c3b3c4" x="383.038563" y="112.025652" style="fill: #ff7f0e; stroke: #ff7f0e"/>
     <use xlink:href="#mde45c3b3c4" x="402.75183" y="112.025652" style="fill: #ff7f0e; stroke: #ff7f0e"/>
     <use xlink:href="#mde45c3b3c4" x="422.465098" y="112.025652" style="fill: #ff7f0e; stroke: #ff7f0e"/>
     <use xlink:href="#mde45c3b3c4" x="442.178366" y="112.025652" style="fill: #ff7f0e; stroke: #ff7f0e"/>
     <use xlink:href="#mde45c3b3c4" x="461.891634" y="112.025652" style="fill: #ff7f0e; stroke: #ff7f0e"/>
     <use xlink:href="#mde45c3b3c4" x="501.31817" y="112.025652" style="fill: #ff7f0e; stroke: #ff7f0e"/>
     <use xlink:href="#mde45c3b3c4" x="521.031437" y="112.025652" style="fill: #ff7f0e; stroke: #ff7f0e"/>
     <use xlink:href="#mde45c3b3c4" x="540.744705" y="112.025652" style="fill: #ff7f0e; stroke: #ff7f0e"/>
     <use xlink:href="#mde45c3b3c4" x="560.457973" y="112.025652" style="fill: #ff7f0e; stroke: #ff7f0e"/>
     <use xlink:href="#mde45c3b3c4" x="580.171241" y="112.025652" style="fill: #ff7f0e; stroke: #ff7f0e"/>
     <use xlink:href="#mde45c3b3c4" x="599.884509" y="112.025652" style="fill: #ff7f0e; stroke: #ff7f0e"/>
     <use xlink:href="#mde45c3b3c4" x="619.597776" y="112.025652" style="fill: #ff7f0e; stroke: #ff7f0e"/>
     <use xlink:href="#mde45c3b3c4" x="639.311044" y="112.025652" style="fill: #ff7f0e; stroke: #ff7f0e"/>
     <use xlink:href="#mde45c3b3c4" x="659.024312" y="112.025652" style="fill: #ff7f0e; stroke: #ff7f0e"/>
     <use xlink:href="#mde45c3b3c4" x="678.73758" y="112.025652" style="fill: #ff7f0e; stroke: #ff7f0e"/>
     <use xlink:href="#mde45c3b3c4" x="698.450848" y="93.52732" style="fill: #ff7f0e; stroke: #ff7f0e"/>
     <use xlink:href="#mde45c3b3c4" x="718.164115" y="93.52732" style="fill: #ff7f0e; stroke: #ff7f0e"/>
     <use xlink:href="#mde45c3b3c4" x="737.877383" y="93.52732" style="fill: #ff7f0e; stroke: #ff7f0e"/>
     <use xlink:href="#mde45c3b3c4" x="757.590651" y="93.52732" style="fill: #ff7f0e; stroke: #ff7f0e"/>
     <use xlink:href="#mde45c3b3c4" x="777.303919" y="93.52732" style="fill: #ff7f0e; stroke: #ff7f0e"/>
     <use xlink:href="#mde45c3b3c4" x="797.017187" y="93.52732" style="fill: #ff7f0e; stroke: #ff7f0e"/>
     <use xlink:href="#mde45c3b3c4" x="816.730455" y="93.52732" style="fill: #ff7f0e; stroke: #ff7f0e"/>
    </g>
   </g>
   <g id="line2d_37">
    <path d="M 87.339545 383.301852 
L 107.052813 352.471297 
L 126.766081 343.838742 
L 146.479349 337.672631 
L 166.192617 325.340409 
L 185.905885 301.909188 
L 205.619152 294.509855 
L 225.33242 279.711188 
L 245.045688 252.5803 
L 264.758956 231.615523 
L 284.472224 176.120525 
L 304.185491 161.321858 
L 323.898759 119.392304 
L 383.038563 119.392304 
L 402.75183 119.392304 
L 422.465098 119.392304 
L 442.178366 119.392304 
L 461.891634 119.392304 
L 501.31817 119.392304 
L 521.031437 119.392304 
L 540.744705 119.392304 
L 560.457973 119.392304 
L 580.171241 119.392304 
L 599.884509 100.893971 
L 619.597776 100.893971 
L 639.311044 100.893971 
L 659.024312 100.893971 
L 678.73758 100.893971 
L 698.450848 82.395638 
L 718.164115 82.395638 
L 737.877383 82.395638 
L 757.590651 82.395638 
L 777.303919 82.395638 
L 797.017187 82.395638 
L 816.730455 82.395638 
" clip-path="url(#p1e5d56a7eb)" style="fill: none; stroke: #2ca02c; stroke-width: 1.5; stroke-linecap: square"/>
    <defs>
     <path id="m7dfc26a775" d="M 0 3.5 
C 0.928211 3.5 1.81853 3.131218 2.474874 2.474874 
C 3.131218 1.81853 3.5 0.928211 3.5 0 
C 3.5 -0.928211 3.131218 -1.81853 2.474874 -2.474874 
C 1.81853 -3.131218 0.928211 -3.5 0 -3.5 
C -0.928211 -3.5 -1.81853 -3.131218 -2.474874 -2.474874 
C -3.131218 -1.81853 -3.5 -0.928211 -3.5 0 
C -3.5 0.928211 -3.131218 1.81853 -2.474874 2.474874 
C -1.81853 3.131218 -0.928211 3.5 0 3.5 
z
" style="stroke: #2ca02c"/>
    </defs>
    <g clip-path="url(#p1e5d56a7eb)">
     <use xlink:href="#m7dfc26a775" x="87.339545" y="383.301852" style="fill: #2ca02c; stroke: #2ca02c"/>
     <use xlink:href="#m7dfc26a775" x="107.052813" y="352.471297" style="fill: #2ca02c; stroke: #2ca02c"/>
     <use xlink:href="#m7dfc26a775" x="126.766081" y="343.838742" style="fill: #2ca02c; stroke: #2ca02c"/>
     <use xlink:href="#m7dfc26a775" x="146.479349" y="337.672631" style="fill: #2ca02c; stroke: #2ca02c"/>
     <use xlink:href="#m7dfc26a775" x="166.192617" y="325.340409" style="fill: #2ca02c; stroke: #2ca02c"/>
     <use xlink:href="#m7dfc26a775" x="185.905885" y="301.909188" style="fill: #2ca02c; stroke: #2ca02c"/>
     <use xlink:href="#m7dfc26a775" x="205.619152" y="294.509855" style="fill: #2ca02c; stroke: #2ca02c"/>
     <use xlink:href="#m7dfc26a775" x="225.33242" y="279.711188" style="fill: #2ca02c; stroke: #2ca02c"/>
     <use xlink:href="#m7dfc26a775" x="245.045688" y="252.5803" style="fill: #2ca02c; stroke: #2ca02c"/>
     <use xlink:href="#m7dfc26a775" x="264.758956" y="231.615523" style="fill: #2ca02c; stroke: #2ca02c"/>
     <use xlink:href="#m7dfc26a775" x="284.472224" y="176.120525" style="fill: #2ca02c; stroke: #2ca02c"/>
     <use xlink:href="#m7dfc26a775" x="304.185491" y="161.321858" style="fill: #2ca02c; stroke: #2ca02c"/>
     <use xlink:href="#m7dfc26a775" x="323.898759" y="119.392304" style="fill: #2ca02c; stroke: #2ca02c"/>
     <use xlink:href="#m7dfc26a775" x="383.038563" y="119.392304" style="fill: #2ca02c; stroke: #2ca02c"/>
     <use xlink:href="#m7dfc26a775" x="402.75183" y="119.392304" style="fill: #2ca02c; stroke: #2ca02c"/>
     <use xlink:href="#m7dfc26a775" x="422.465098" y="119.392304" style="fill: #2ca02c; stroke: #2ca02c"/>
     <use xlink:href="#m7dfc26a775" x="442.178366" y="119.392304" style="fill: #2ca02c; stroke: #2ca02c"/>
     <use xlink:href="#m7dfc26a775" x="461.891634" y="119.392304" style="fill: #2ca02c; stroke: #2ca02c"/>
     <use xlink:href="#m7dfc26a775" x="501.31817" y="119.392304" style="fill: #2ca02c; stroke: #2ca02c"/>
     <use xlink:href="#m7dfc26a775" x="521.031437" y="119.392304" style="fill: #2ca02c; stroke: #2ca02c"/>
     <use xlink:href="#m7dfc26a775" x="540.744705" y="119.392304" style="fill: #2ca02c; stroke: #2ca02c"/>
     <use xlink:href="#m7dfc26a775" x="560.457973" y="119.392304" style="fill: #2ca02c; stroke: #2ca02c"/>
     <use xlink:href="#m7dfc26a775" x="580.171241" y="119.392304" style="fill: #2ca02c; stroke: #2ca02c"/>
     <use xlink:href="#m7dfc26a775" x="599.884509" y="100.893971" style="fill: #2ca02c; stroke: #2ca02c"/>
     <use xlink:href="#m7dfc26a775" x="619.597776" y="100.893971" style="fill: #2ca02c; stroke: #2ca02c"/>
     <use xlink:href="#m7dfc26a775" x="639.311044" y="100.893971" style="fill: #2ca02c; stroke: #2ca02c"/>
     <use xlink:href="#m7dfc26a775" x="659.024312" y="100.893971" style="fill: #2ca02c; stroke: #2ca02c"/>
     <use xlink:href="#m7dfc26a775" x="678.73758" y="100.893971" style="fill: #2ca02c; stroke: #2ca02c"/>
     <use xlink:href="#m7dfc26a775" x="698.450848" y="82.395638" style="fill: #2ca02c; stroke: #2ca02c"/>
     <use xlink:href="#m7dfc26a775" x="718.164115" y="82.395638" style="fill: #2ca02c; stroke: #2ca02c"/>
     <use xlink:href="#m7dfc26a775" x="737.877383" y="82.395638" style="fill: #2ca02c; stroke: #2ca02c"/>
     <use xlink:href="#m7dfc26a775" x="757.590651" y="82.395638" style="fill: #2ca02c; stroke: #2ca02c"/>
     <use xlink:href="#m7dfc26a775" x="777.303919" y="82.395638" style="fill: #2ca02c; stroke: #2ca02c"/>
     <use xlink:href="#m7dfc26a775" x="797.017187" y="82.395638" style="fill: #2ca02c; stroke: #2ca02c"/>
     <use xlink:href="#m7dfc26a775" x="816.730455" y="82.395638" style="fill: #2ca02c; stroke: #2ca02c"/>
    </g>
   </g>
   <g id="line2d_38">
    <path d="M 87.339545 383.178775 
L 107.052813 362.213997 
L 126.766081 347.415331 
L 146.479349 332.616665 
L 166.192617 326.450554 
L 185.905885 303.019332 
L 205.619152 291.920333 
L 225.33242 284.521 
L 245.045688 259.856556 
L 264.758956 236.425334 
L 284.472224 199.428669 
L 304.185491 183.39678 
L 323.898759 156.265892 
L 383.038563 156.265892 
L 402.75183 156.265892 
L 422.465098 156.265892 
L 442.178366 156.265892 
L 461.891634 156.265892 
L 501.31817 156.265892 
L 521.031437 156.265892 
L 540.744705 156.265892 
L 560.457973 156.265892 
L 580.171241 156.265892 
L 599.884509 137.767559 
L 619.597776 137.767559 
L 639.311044 137.767559 
L 659.024312 137.767559 
L 678.73758 137.767559 
L 698.450848 106.937005 
L 718.164115 106.937005 
L 737.877383 106.937005 
L 757.590651 106.937005 
L 777.303919 106.937005 
L 797.017187 106.937005 
L 816.730455 106.937005 
" clip-path="url(#p1e5d56a7eb)" style="fill: none; stroke: #d62728; stroke-width: 1.5; stroke-linecap: square"/>
    <defs>
     <path id="m357a0b6b03" d="M 0 3.5 
C 0.928211 3.5 1.81853 3.131218 2.474874 2.474874 
C 3.131218 1.81853 3.5 0.928211 3.5 0 
C 3.5 -0.928211 3.131218 -1.81853 2.474874 -2.474874 
C 1.81853 -3.131218 0.928211 -3.5 0 -3.5 
C -0.928211 -3.5 -1.81853 -3.131218 -2.474874 -2.474874 
C -3.131218 -1.81853 -3.5 -0.928211 -3.5 0 
C -3.5 0.928211 -3.131218 1.81853 -2.474874 2.474874 
C -1.81853 3.131218 -0.928211 3.5 0 3.5 
z
" style="stroke: #d62728"/>
    </defs>
    <g clip-path="url(#p1e5d56a7eb)">
     <use xlink:href="#m357a0b6b03" x="87.339545" y="383.178775" style="fill: #d62728; stroke: #d62728"/>
     <use xlink:href="#m357a0b6b03" x="107.052813" y="362.213997" style="fill: #d62728; stroke: #d62728"/>
     <use xlink:href="#m357a0b6b03" x="126.766081" y="347.415331" style="fill: #d62728; stroke: #d62728"/>
     <use xlink:href="#m357a0b6b03" x="146.479349" y="332.616665" style="fill: #d62728; stroke: #d62728"/>
     <use xlink:href="#m357a0b6b03" x="166.192617" y="326.450554" style="fill: #d62728; stroke: #d62728"/>
     <use xlink:href="#m357a0b6b03" x="185.905885" y="303.019332" style="fill: #d62728; stroke: #d62728"/>
     <use xlink:href="#m357a0b6b03" x="205.619152" y="291.920333" style="fill: #d62728; stroke: #d62728"/>
     <use xlink:href="#m357a0b6b03" x="225.33242" y="284.521" style="fill: #d62728; stroke: #d62728"/>
     <use xlink:href="#m357a0b6b03" x="245.045688" y="259.856556" style="fill: #d62728; stroke: #d62728"/>
     <use xlink:href="#m357a0b6b03" x="264.758956" y="236.425334" style="fill: #d62728; stroke: #d62728"/>
     <use xlink:href="#m357a0b6b03" x="284.472224" y="199.428669" style="fill: #d62728; stroke: #d62728"/>
     <use xlink:href="#m357a0b6b03" x="304.185491" y="183.39678" style="fill: #d62728; stroke: #d62728"/>
     <use xlink:href="#m357a0b6b03" x="323.898759" y="156.265892" style="fill: #d62728; stroke: #d62728"/>
     <use xlink:href="#m357a0b6b03" x="383.038563" y="156.265892" style="fill: #d62728; stroke: #d62728"/>
     <use xlink:href="#m357a0b6b03" x="402.75183" y="156.265892" style="fill: #d62728; stroke: #d62728"/>
     <use xlink:href="#m357a0b6b03" x="422.465098" y="156.265892" style="fill: #d62728; stroke: #d62728"/>
     <use xlink:href="#m357a0b6b03" x="442.178366" y="156.265892" style="fill: #d62728; stroke: #d62728"/>
     <use xlink:href="#m357a0b6b03" x="461.891634" y="156.265892" style="fill: #d62728; stroke: #d62728"/>
     <use xlink:href="#m357a0b6b03" x="501.31817" y="156.265892" style="fill: #d62728; stroke: #d62728"/>
     <use xlink:href="#m357a0b6b03" x="521.031437" y="156.265892" style="fill: #d62728; stroke: #d62728"/>
     <use xlink:href="#m357a0b6b03" x="540.744705" y="156.265892" style="fill: #d62728; stroke: #d62728"/>
     <use xlink:href="#m357a0b6b03" x="560.457973" y="156.265892" style="fill: #d62728; stroke: #d62728"/>
     <use xlink:href="#m357a0b6b03" x="580.171241" y="156.265892" style="fill: #d62728; stroke: #d62728"/>
     <use xlink:href="#m357a0b6b03" x="599.884509" y="137.767559" style="fill: #d62728; stroke: #d62728"/>
     <use xlink:href="#m357a0b6b03" x="619.597776" y="137.767559" style="fill: #d62728; stroke: #d62728"/>
     <use xlink:href="#m357a0b6b03" x="639.311044" y="137.767559" style="fill: #d62728; stroke: #d62728"/>
     <use xlink:href="#m357a0b6b03" x="659.024312" y="137.767559" style="fill: #d62728; stroke: #d62728"/>
     <use xlink:href="#m357a0b6b03" x="678.73758" y="137.767559" style="fill: #d62728; stroke: #d62728"/>
     <use xlink:href="#m357a0b6b03" x="698.450848" y="106.937005" style="fill: #d62728; stroke: #d62728"/>
     <use xlink:href="#m357a0b6b03" x="718.164115" y="106.937005" style="fill: #d62728; stroke: #d62728"/>
     <use xlink:href="#m357a0b6b03" x="737.877383" y="106.937005" style="fill: #d62728; stroke: #d62728"/>
     <use xlink:href="#m357a0b6b03" x="757.590651" y="106.937005" style="fill: #d62728; stroke: #d62728"/>
     <use xlink:href="#m357a0b6b03" x="777.303919" y="106.937005" style="fill: #d62728; stroke: #d62728"/>
     <use xlink:href="#m357a0b6b03" x="797.017187" y="106.937005" style="fill: #d62728; stroke: #d62728"/>
     <use xlink:href="#m357a0b6b03" x="816.730455" y="106.937005" style="fill: #d62728; stroke: #d62728"/>
    </g>
   </g>
   <g id="line2d_39">
    <path d="M 87.339545 383.333408 
L 107.052813 350.036409 
L 126.766081 322.905521 
L 146.479349 308.106855 
L 166.192617 293.308188 
L 185.905885 278.509522 
L 205.619152 276.043078 
L 225.33242 255.0783 
L 245.045688 224.247746 
L 264.758956 200.816524 
L 284.472224 163.819859 
L 304.185491 149.021192 
L 323.898759 121.890304 
L 383.038563 121.890304 
L 402.75183 121.890304 
L 422.465098 121.890304 
L 442.178366 121.890304 
L 461.891634 121.890304 
L 501.31817 121.890304 
L 521.031437 121.890304 
L 540.744705 121.890304 
L 560.457973 121.890304 
L 580.171241 121.890304 
L 599.884509 103.391971 
L 619.597776 103.391971 
L 639.311044 103.391971 
L 659.024312 103.391971 
L 678.73758 103.391971 
L 698.450848 78.727528 
L 718.164115 78.727528 
L 737.877383 78.727528 
L 757.590651 78.727528 
L 777.303919 78.727528 
L 797.017187 78.727528 
L 816.730455 78.727528 
" clip-path="url(#p1e5d56a7eb)" style="fill: none; stroke: #9467bd; stroke-width: 1.5; stroke-linecap: square"/>
    <defs>
     <path id="mf55727e687" d="M 0 3.5 
C 0.928211 3.5 1.81853 3.131218 2.474874 2.474874 
C 3.131218 1.81853 3.5 0.928211 3.5 0 
C 3.5 -0.928211 3.131218 -1.81853 2.474874 -2.474874 
C 1.81853 -3.131218 0.928211 -3.5 0 -3.5 
C -0.928211 -3.5 -1.81853 -3.131218 -2.474874 -2.474874 
C -3.131218 -1.81853 -3.5 -0.928211 -3.5 0 
C -3.5 0.928211 -3.131218 1.81853 -2.474874 2.474874 
C -1.81853 3.131218 -0.928211 3.5 0 3.5 
z
" style="stroke: #9467bd"/>
    </defs>
    <g clip-path="url(#p1e5d56a7eb)">
     <use xlink:href="#mf55727e687" x="87.339545" y="383.333408" style="fill: #9467bd; stroke: #9467bd"/>
     <use xlink:href="#mf55727e687" x="107.052813" y="350.036409" style="fill: #9467bd; stroke: #9467bd"/>
     <use xlink:href="#mf55727e687" x="126.766081" y="322.905521" style="fill: #9467bd; stroke: #9467bd"/>
     <use xlink:href="#mf55727e687" x="146.479349" y="308.106855" style="fill: #9467bd; stroke: #9467bd"/>
     <use xlink:href="#mf55727e687" x="166.192617" y="293.308188" style="fill: #9467bd; stroke: #9467bd"/>
     <use xlink:href="#mf55727e687" x="185.905885" y="278.509522" style="fill: #9467bd; stroke: #9467bd"/>
     <use xlink:href="#mf55727e687" x="205.619152" y="276.043078" style="fill: #9467bd; stroke: #9467bd"/>
     <use xlink:href="#mf55727e687" x="225.33242" y="255.0783" style="fill: #9467bd; stroke: #9467bd"/>
     <use xlink:href="#mf55727e687" x="245.045688" y="224.247746" style="fill: #9467bd; stroke: #9467bd"/>
     <use xlink:href="#mf55727e687" x="264.758956" y="200.816524" style="fill: #9467bd; stroke: #9467bd"/>
     <use xlink:href="#mf55727e687" x="284.472224" y="163.819859" style="fill: #9467bd; stroke: #9467bd"/>
     <use xlink:href="#mf55727e687" x="304.185491" y="149.021192" style="fill: #9467bd; stroke: #9467bd"/>
     <use xlink:href="#mf55727e687" x="323.898759" y="121.890304" style="fill: #9467bd; stroke: #9467bd"/>
     <use xlink:href="#mf55727e687" x="383.038563" y="121.890304" style="fill: #9467bd; stroke: #9467bd"/>
     <use xlink:href="#mf55727e687" x="402.75183" y="121.890304" style="fill: #9467bd; stroke: #9467bd"/>
     <use xlink:href="#mf55727e687" x="422.465098" y="121.890304" style="fill: #9467bd; stroke: #9467bd"/>
     <use xlink:href="#mf55727e687" x="442.178366" y="121.890304" style="fill: #9467bd; stroke: #9467bd"/>
     <use xlink:href="#mf55727e687" x="461.891634" y="121.890304" style="fill: #9467bd; stroke: #9467bd"/>
     <use xlink:href="#mf55727e687" x="501.31817" y="121.890304" style="fill: #9467bd; stroke: #9467bd"/>
     <use xlink:href="#mf55727e687" x="521.031437" y="121.890304" style="fill: #9467bd; stroke: #9467bd"/>
     <use xlink:href="#mf55727e687" x="540.744705" y="121.890304" style="fill: #9467bd; stroke: #9467bd"/>
     <use xlink:href="#mf55727e687" x="560.457973" y="121.890304" style="fill: #9467bd; stroke: #9467bd"/>
     <use xlink:href="#mf55727e687" x="580.171241" y="121.890304" style="fill: #9467bd; stroke: #9467bd"/>
     <use xlink:href="#mf55727e687" x="599.884509" y="103.391971" style="fill: #9467bd; stroke: #9467bd"/>
     <use xlink:href="#mf55727e687" x="619.597776" y="103.391971" style="fill: #9467bd; stroke: #9467bd"/>
     <use xlink:href="#mf55727e687" x="639.311044" y="103.391971" style="fill: #9467bd; stroke: #9467bd"/>
     <use xlink:href="#mf55727e687" x="659.024312" y="103.391971" style="fill: #9467bd; stroke: #9467bd"/>
     <use xlink:href="#mf55727e687" x="678.73758" y="103.391971" style="fill: #9467bd; stroke: #9467bd"/>
     <use xlink:href="#mf55727e687" x="698.450848" y="78.727528" style="fill: #9467bd; stroke: #9467bd"/>
     <use xlink:href="#mf55727e687" x="718.164115" y="78.727528" style="fill: #9467bd; stroke: #9467bd"/>
     <use xlink:href="#mf55727e687" x="737.877383" y="78.727528" style="fill: #9467bd; stroke: #9467bd"/>
     <use xlink:href="#mf55727e687" x="757.590651" y="78.727528" style="fill: #9467bd; stroke: #9467bd"/>
     <use xlink:href="#mf55727e687" x="777.303919" y="78.727528" style="fill: #9467bd; stroke: #9467bd"/>
     <use xlink:href="#mf55727e687" x="797.017187" y="78.727528" style="fill: #9467bd; stroke: #9467bd"/>
     <use xlink:href="#mf55727e687" x="816.730455" y="78.727528" style="fill: #9467bd; stroke: #9467bd"/>
    </g>
   </g>
   <g id="line2d_40">
    <path d="M 87.339545 383.163374 
L 107.052813 352.33282 
L 126.766081 327.668376 
L 146.479349 303.003932 
L 166.192617 284.505599 
L 185.905885 263.540822 
L 205.619152 261.074378 
L 225.33242 256.141489 
L 245.045688 212.978712 
L 264.758956 189.547491 
L 284.472224 158.716936 
L 304.185491 138.985381 
L 323.898759 81.023938 
L 383.038563 81.023938 
L 402.75183 81.023938 
L 422.465098 81.023938 
L 442.178366 81.023938 
L 461.891634 81.023938 
L 501.31817 81.023938 
L 521.031437 81.023938 
L 540.744705 81.023938 
L 560.457973 81.023938 
L 580.171241 81.023938 
L 599.884509 62.525606 
L 619.597776 62.525606 
L 639.311044 62.525606 
L 659.024312 62.525606 
L 678.73758 62.525606 
L 698.450848 44.027273 
L 718.164115 44.027273 
L 737.877383 44.027273 
L 757.590651 44.027273 
L 777.303919 44.027273 
L 797.017187 44.027273 
L 816.730455 44.027273 
" clip-path="url(#p1e5d56a7eb)" style="fill: none; stroke: #8c564b; stroke-width: 1.5; stroke-linecap: square"/>
    <defs>
     <path id="m22fe4022f2" d="M 0 3.5 
C 0.928211 3.5 1.81853 3.131218 2.474874 2.474874 
C 3.131218 1.81853 3.5 0.928211 3.5 0 
C 3.5 -0.928211 3.131218 -1.81853 2.474874 -2.474874 
C 1.81853 -3.131218 0.928211 -3.5 0 -3.5 
C -0.928211 -3.5 -1.81853 -3.131218 -2.474874 -2.474874 
C -3.131218 -1.81853 -3.5 -0.928211 -3.5 0 
C -3.5 0.928211 -3.131218 1.81853 -2.474874 2.474874 
C -1.81853 3.131218 -0.928211 3.5 0 3.5 
z
" style="stroke: #8c564b"/>
    </defs>
    <g clip-path="url(#p1e5d56a7eb)">
     <use xlink:href="#m22fe4022f2" x="87.339545" y="383.163374" style="fill: #8c564b; stroke: #8c564b"/>
     <use xlink:href="#m22fe4022f2" x="107.052813" y="352.33282" style="fill: #8c564b; stroke: #8c564b"/>
     <use xlink:href="#m22fe4022f2" x="126.766081" y="327.668376" style="fill: #8c564b; stroke: #8c564b"/>
     <use xlink:href="#m22fe4022f2" x="146.479349" y="303.003932" style="fill: #8c564b; stroke: #8c564b"/>
     <use xlink:href="#m22fe4022f2" x="166.192617" y="284.505599" style="fill: #8c564b; stroke: #8c564b"/>
     <use xlink:href="#m22fe4022f2" x="185.905885" y="263.540822" style="fill: #8c564b; stroke: #8c564b"/>
     <use xlink:href="#m22fe4022f2" x="205.619152" y="261.074378" style="fill: #8c564b; stroke: #8c564b"/>
     <use xlink:href="#m22fe4022f2" x="225.33242" y="256.141489" style="fill: #8c564b; stroke: #8c564b"/>
     <use xlink:href="#m22fe4022f2" x="245.045688" y="212.978712" style="fill: #8c564b; stroke: #8c564b"/>
     <use xlink:href="#m22fe4022f2" x="264.758956" y="189.547491" style="fill: #8c564b; stroke: #8c564b"/>
     <use xlink:href="#m22fe4022f2" x="284.472224" y="158.716936" style="fill: #8c564b; stroke: #8c564b"/>
     <use xlink:href="#m22fe4022f2" x="304.185491" y="138.985381" style="fill: #8c564b; stroke: #8c564b"/>
     <use xlink:href="#m22fe4022f2" x="323.898759" y="81.023938" style="fill: #8c564b; stroke: #8c564b"/>
     <use xlink:href="#m22fe4022f2" x="383.038563" y="81.023938" style="fill: #8c564b; stroke: #8c564b"/>
     <use xlink:href="#m22fe4022f2" x="402.75183" y="81.023938" style="fill: #8c564b; stroke: #8c564b"/>
     <use xlink:href="#m22fe4022f2" x="422.465098" y="81.023938" style="fill: #8c564b; stroke: #8c564b"/>
     <use xlink:href="#m22fe4022f2" x="442.178366" y="81.023938" style="fill: #8c564b; stroke: #8c564b"/>
     <use xlink:href="#m22fe4022f2" x="461.891634" y="81.023938" style="fill: #8c564b; stroke: #8c564b"/>
     <use xlink:href="#m22fe4022f2" x="501.31817" y="81.023938" style="fill: #8c564b; stroke: #8c564b"/>
     <use xlink:href="#m22fe4022f2" x="521.031437" y="81.023938" style="fill: #8c564b; stroke: #8c564b"/>
     <use xlink:href="#m22fe4022f2" x="540.744705" y="81.023938" style="fill: #8c564b; stroke: #8c564b"/>
     <use xlink:href="#m22fe4022f2" x="560.457973" y="81.023938" style="fill: #8c564b; stroke: #8c564b"/>
     <use xlink:href="#m22fe4022f2" x="580.171241" y="81.023938" style="fill: #8c564b; stroke: #8c564b"/>
     <use xlink:href="#m22fe4022f2" x="599.884509" y="62.525606" style="fill: #8c564b; stroke: #8c564b"/>
     <use xlink:href="#m22fe4022f2" x="619.597776" y="62.525606" style="fill: #8c564b; stroke: #8c564b"/>
     <use xlink:href="#m22fe4022f2" x="639.311044" y="62.525606" style="fill: #8c564b; stroke: #8c564b"/>
     <use xlink:href="#m22fe4022f2" x="659.024312" y="62.525606" style="fill: #8c564b; stroke: #8c564b"/>
     <use xlink:href="#m22fe4022f2" x="678.73758" y="62.525606" style="fill: #8c564b; stroke: #8c564b"/>
     <use xlink:href="#m22fe4022f2" x="698.450848" y="44.027273" style="fill: #8c564b; stroke: #8c564b"/>
     <use xlink:href="#m22fe4022f2" x="718.164115" y="44.027273" style="fill: #8c564b; stroke: #8c564b"/>
     <use xlink:href="#m22fe4022f2" x="737.877383" y="44.027273" style="fill: #8c564b; stroke: #8c564b"/>
     <use xlink:href="#m22fe4022f2" x="757.590651" y="44.027273" style="fill: #8c564b; stroke: #8c564b"/>
     <use xlink:href="#m22fe4022f2" x="777.303919" y="44.027273" style="fill: #8c564b; stroke: #8c564b"/>
     <use xlink:href="#m22fe4022f2" x="797.017187" y="44.027273" style="fill: #8c564b; stroke: #8c564b"/>
     <use xlink:href="#m22fe4022f2" x="816.730455" y="44.027273" style="fill: #8c564b; stroke: #8c564b"/>
    </g>
   </g>
   <g id="line2d_41">
    <path d="M 87.339545 386.962802 
L 107.052813 384.496357 
L 126.766081 382.029913 
L 146.479349 351.199358 
L 166.192617 345.033247 
L 185.905885 342.566803 
L 205.619152 317.902359 
L 225.33242 310.503026 
L 245.045688 298.170804 
L 264.758956 287.071805 
L 284.472224 268.573472 
L 304.185491 255.008028 
L 323.898759 188.41403 
L 383.038563 188.41403 
L 402.75183 188.41403 
L 422.465098 188.41403 
L 442.178366 188.41403 
L 461.891634 188.41403 
L 501.31817 188.41403 
L 521.031437 188.41403 
L 540.744705 188.41403 
L 560.457973 188.41403 
L 580.171241 188.41403 
L 599.884509 188.41403 
L 619.597776 188.41403 
L 639.311044 188.41403 
L 659.024312 188.41403 
L 678.73758 188.41403 
L 698.450848 188.41403 
L 718.164115 188.41403 
L 737.877383 188.41403 
L 757.590651 188.41403 
L 777.303919 188.41403 
L 797.017187 188.41403 
L 816.730455 188.41403 
" clip-path="url(#p1e5d56a7eb)" style="fill: none; stroke: #e377c2; stroke-width: 1.5; stroke-linecap: square"/>
    <defs>
     <path id="m3da51650f4" d="M 0 3.5 
C 0.928211 3.5 1.81853 3.131218 2.474874 2.474874 
C 3.131218 1.81853 3.5 0.928211 3.5 0 
C 3.5 -0.928211 3.131218 -1.81853 2.474874 -2.474874 
C 1.81853 -3.131218 0.928211 -3.5 0 -3.5 
C -0.928211 -3.5 -1.81853 -3.131218 -2.474874 -2.474874 
C -3.131218 -1.81853 -3.5 -0.928211 -3.5 0 
C -3.5 0.928211 -3.131218 1.81853 -2.474874 2.474874 
C -1.81853 3.131218 -0.928211 3.5 0 3.5 
z
" style="stroke: #e377c2"/>
    </defs>
    <g clip-path="url(#p1e5d56a7eb)">
     <use xlink:href="#m3da51650f4" x="87.339545" y="386.962802" style="fill: #e377c2; stroke: #e377c2"/>
     <use xlink:href="#m3da51650f4" x="107.052813" y="384.496357" style="fill: #e377c2; stroke: #e377c2"/>
     <use xlink:href="#m3da51650f4" x="126.766081" y="382.029913" style="fill: #e377c2; stroke: #e377c2"/>
     <use xlink:href="#m3da51650f4" x="146.479349" y="351.199358" style="fill: #e377c2; stroke: #e377c2"/>
     <use xlink:href="#m3da51650f4" x="166.192617" y="345.033247" style="fill: #e377c2; stroke: #e377c2"/>
     <use xlink:href="#m3da51650f4" x="185.905885" y="342.566803" style="fill: #e377c2; stroke: #e377c2"/>
     <use xlink:href="#m3da51650f4" x="205.619152" y="317.902359" style="fill: #e377c2; stroke: #e377c2"/>
     <use xlink:href="#m3da51650f4" x="225.33242" y="310.503026" style="fill: #e377c2; stroke: #e377c2"/>
     <use xlink:href="#m3da51650f4" x="245.045688" y="298.170804" style="fill: #e377c2; stroke: #e377c2"/>
     <use xlink:href="#m3da51650f4" x="264.758956" y="287.071805" style="fill: #e377c2; stroke: #e377c2"/>
     <use xlink:href="#m3da51650f4" x="284.472224" y="268.573472" style="fill: #e377c2; stroke: #e377c2"/>
     <use xlink:href="#m3da51650f4" x="304.185491" y="255.008028" style="fill: #e377c2; stroke: #e377c2"/>
     <use xlink:href="#m3da51650f4" x="323.898759" y="188.41403" style="fill: #e377c2; stroke: #e377c2"/>
     <use xlink:href="#m3da51650f4" x="383.038563" y="188.41403" style="fill: #e377c2; stroke: #e377c2"/>
     <use xlink:href="#m3da51650f4" x="402.75183" y="188.41403" style="fill: #e377c2; stroke: #e377c2"/>
     <use xlink:href="#m3da51650f4" x="422.465098" y="188.41403" style="fill: #e377c2; stroke: #e377c2"/>
     <use xlink:href="#m3da51650f4" x="442.178366" y="188.41403" style="fill: #e377c2; stroke: #e377c2"/>
     <use xlink:href="#m3da51650f4" x="461.891634" y="188.41403" style="fill: #e377c2; stroke: #e377c2"/>
     <use xlink:href="#m3da51650f4" x="501.31817" y="188.41403" style="fill: #e377c2; stroke: #e377c2"/>
     <use xlink:href="#m3da51650f4" x="521.031437" y="188.41403" style="fill: #e377c2; stroke: #e377c2"/>
     <use xlink:href="#m3da51650f4" x="540.744705" y="188.41403" style="fill: #e377c2; stroke: #e377c2"/>
     <use xlink:href="#m3da51650f4" x="560.457973" y="188.41403" style="fill: #e377c2; stroke: #e377c2"/>
     <use xlink:href="#m3da51650f4" x="580.171241" y="188.41403" style="fill: #e377c2; stroke: #e377c2"/>
     <use xlink:href="#m3da51650f4" x="599.884509" y="188.41403" style="fill: #e377c2; stroke: #e377c2"/>
     <use xlink:href="#m3da51650f4" x="619.597776" y="188.41403" style="fill: #e377c2; stroke: #e377c2"/>
     <use xlink:href="#m3da51650f4" x="639.311044" y="188.41403" style="fill: #e377c2; stroke: #e377c2"/>
     <use xlink:href="#m3da51650f4" x="659.024312" y="188.41403" style="fill: #e377c2; stroke: #e377c2"/>
     <use xlink:href="#m3da51650f4" x="678.73758" y="188.41403" style="fill: #e377c2; stroke: #e377c2"/>
     <use xlink:href="#m3da51650f4" x="698.450848" y="188.41403" style="fill: #e377c2; stroke: #e377c2"/>
     <use xlink:href="#m3da51650f4" x="718.164115" y="188.41403" style="fill: #e377c2; stroke: #e377c2"/>
     <use xlink:href="#m3da51650f4" x="737.877383" y="188.41403" style="fill: #e377c2; stroke: #e377c2"/>
     <use xlink:href="#m3da51650f4" x="757.590651" y="188.41403" style="fill: #e377c2; stroke: #e377c2"/>
     <use xlink:href="#m3da51650f4" x="777.303919" y="188.41403" style="fill: #e377c2; stroke: #e377c2"/>
     <use xlink:href="#m3da51650f4" x="797.017187" y="188.41403" style="fill: #e377c2; stroke: #e377c2"/>
     <use xlink:href="#m3da51650f4" x="816.730455" y="188.41403" style="fill: #e377c2; stroke: #e377c2"/>
    </g>
   </g>
   <g id="line2d_42">
    <path d="M 87.339545 386.972727 
L 107.052813 359.841839 
L 126.766081 332.710951 
L 146.479349 324.078396 
L 166.192617 299.413952 
L 185.905885 275.98273 
L 205.619152 261.184064 
L 225.33242 258.71762 
L 245.045688 231.586732 
L 264.758956 225.420621 
L 284.472224 176.091733 
L 304.185491 162.526289 
L 323.898759 120.596735 
L 383.038563 120.596735 
L 402.75183 120.596735 
L 422.465098 120.596735 
L 442.178366 120.596735 
L 461.891634 120.596735 
L 501.31817 120.596735 
L 521.031437 120.596735 
L 540.744705 120.596735 
L 560.457973 120.596735 
L 580.171241 120.596735 
L 599.884509 102.098402 
L 619.597776 102.098402 
L 639.311044 102.098402 
L 659.024312 102.098402 
L 678.73758 102.098402 
L 698.450848 95.932291 
L 718.164115 95.932291 
L 737.877383 95.932291 
L 757.590651 95.932291 
L 777.303919 95.932291 
L 797.017187 95.932291 
L 816.730455 95.932291 
" clip-path="url(#p1e5d56a7eb)" style="fill: none; stroke: #7f7f7f; stroke-width: 1.5; stroke-linecap: square"/>
    <defs>
     <path id="md3c37c00cd" d="M 0 3.5 
C 0.928211 3.5 1.81853 3.131218 2.474874 2.474874 
C 3.131218 1.81853 3.5 0.928211 3.5 0 
C 3.5 -0.928211 3.131218 -1.81853 2.474874 -2.474874 
C 1.81853 -3.131218 0.928211 -3.5 0 -3.5 
C -0.928211 -3.5 -1.81853 -3.131218 -2.474874 -2.474874 
C -3.131218 -1.81853 -3.5 -0.928211 -3.5 0 
C -3.5 0.928211 -3.131218 1.81853 -2.474874 2.474874 
C -1.81853 3.131218 -0.928211 3.5 0 3.5 
z
" style="stroke: #7f7f7f"/>
    </defs>
    <g clip-path="url(#p1e5d56a7eb)">
     <use xlink:href="#md3c37c00cd" x="87.339545" y="386.972727" style="fill: #7f7f7f; stroke: #7f7f7f"/>
     <use xlink:href="#md3c37c00cd" x="107.052813" y="359.841839" style="fill: #7f7f7f; stroke: #7f7f7f"/>
     <use xlink:href="#md3c37c00cd" x="126.766081" y="332.710951" style="fill: #7f7f7f; stroke: #7f7f7f"/>
     <use xlink:href="#md3c37c00cd" x="146.479349" y="324.078396" style="fill: #7f7f7f; stroke: #7f7f7f"/>
     <use xlink:href="#md3c37c00cd" x="166.192617" y="299.413952" style="fill: #7f7f7f; stroke: #7f7f7f"/>
     <use xlink:href="#md3c37c00cd" x="185.905885" y="275.98273" style="fill: #7f7f7f; stroke: #7f7f7f"/>
     <use xlink:href="#md3c37c00cd" x="205.619152" y="261.184064" style="fill: #7f7f7f; stroke: #7f7f7f"/>
     <use xlink:href="#md3c37c00cd" x="225.33242" y="258.71762" style="fill: #7f7f7f; stroke: #7f7f7f"/>
     <use xlink:href="#md3c37c00cd" x="245.045688" y="231.586732" style="fill: #7f7f7f; stroke: #7f7f7f"/>
     <use xlink:href="#md3c37c00cd" x="264.758956" y="225.420621" style="fill: #7f7f7f; stroke: #7f7f7f"/>
     <use xlink:href="#md3c37c00cd" x="284.472224" y="176.091733" style="fill: #7f7f7f; stroke: #7f7f7f"/>
     <use xlink:href="#md3c37c00cd" x="304.185491" y="162.526289" style="fill: #7f7f7f; stroke: #7f7f7f"/>
     <use xlink:href="#md3c37c00cd" x="323.898759" y="120.596735" style="fill: #7f7f7f; stroke: #7f7f7f"/>
     <use xlink:href="#md3c37c00cd" x="383.038563" y="120.596735" style="fill: #7f7f7f; stroke: #7f7f7f"/>
     <use xlink:href="#md3c37c00cd" x="402.75183" y="120.596735" style="fill: #7f7f7f; stroke: #7f7f7f"/>
     <use xlink:href="#md3c37c00cd" x="422.465098" y="120.596735" style="fill: #7f7f7f; stroke: #7f7f7f"/>
     <use xlink:href="#md3c37c00cd" x="442.178366" y="120.596735" style="fill: #7f7f7f; stroke: #7f7f7f"/>
     <use xlink:href="#md3c37c00cd" x="461.891634" y="120.596735" style="fill: #7f7f7f; stroke: #7f7f7f"/>
     <use xlink:href="#md3c37c00cd" x="501.31817" y="120.596735" style="fill: #7f7f7f; stroke: #7f7f7f"/>
     <use xlink:href="#md3c37c00cd" x="521.031437" y="120.596735" style="fill: #7f7f7f; stroke: #7f7f7f"/>
     <use xlink:href="#md3c37c00cd" x="540.744705" y="120.596735" style="fill: #7f7f7f; stroke: #7f7f7f"/>
     <use xlink:href="#md3c37c00cd" x="560.457973" y="120.596735" style="fill: #7f7f7f; stroke: #7f7f7f"/>
     <use xlink:href="#md3c37c00cd" x="580.171241" y="120.596735" style="fill: #7f7f7f; stroke: #7f7f7f"/>
     <use xlink:href="#md3c37c00cd" x="599.884509" y="102.098402" style="fill: #7f7f7f; stroke: #7f7f7f"/>
     <use xlink:href="#md3c37c00cd" x="619.597776" y="102.098402" style="fill: #7f7f7f; stroke: #7f7f7f"/>
     <use xlink:href="#md3c37c00cd" x="639.311044" y="102.098402" style="fill: #7f7f7f; stroke: #7f7f7f"/>
     <use xlink:href="#md3c37c00cd" x="659.024312" y="102.098402" style="fill: #7f7f7f; stroke: #7f7f7f"/>
     <use xlink:href="#md3c37c00cd" x="678.73758" y="102.098402" style="fill: #7f7f7f; stroke: #7f7f7f"/>
     <use xlink:href="#md3c37c00cd" x="698.450848" y="95.932291" style="fill: #7f7f7f; stroke: #7f7f7f"/>
     <use xlink:href="#md3c37c00cd" x="718.164115" y="95.932291" style="fill: #7f7f7f; stroke: #7f7f7f"/>
     <use xlink:href="#md3c37c00cd" x="737.877383" y="95.932291" style="fill: #7f7f7f; stroke: #7f7f7f"/>
     <use xlink:href="#md3c37c00cd" x="757.590651" y="95.932291" style="fill: #7f7f7f; stroke: #7f7f7f"/>
     <use xlink:href="#md3c37c00cd" x="777.303919" y="95.932291" style="fill: #7f7f7f; stroke: #7f7f7f"/>
     <use xlink:href="#md3c37c00cd" x="797.017187" y="95.932291" style="fill: #7f7f7f; stroke: #7f7f7f"/>
     <use xlink:href="#md3c37c00cd" x="816.730455" y="95.932291" style="fill: #7f7f7f; stroke: #7f7f7f"/>
    </g>
   </g>
   <g id="line2d_43">
    <path d="M 87.339545 377.015532 
L 107.052813 364.68331 
L 126.766081 346.184977 
L 146.479349 331.386311 
L 166.192617 316.587645 
L 185.905885 283.290646 
L 205.619152 278.357757 
L 225.33242 267.258757 
L 245.045688 236.428203 
L 264.758956 211.763759 
L 284.472224 162.434871 
L 304.185491 147.636205 
L 323.898759 95.840873 
L 383.038563 95.840873 
L 402.75183 95.840873 
L 422.465098 95.840873 
L 442.178366 95.840873 
L 461.891634 95.840873 
L 501.31817 95.840873 
L 521.031437 95.840873 
L 540.744705 95.840873 
L 560.457973 95.840873 
L 580.171241 95.840873 
L 599.884509 77.34254 
L 619.597776 77.34254 
L 639.311044 77.34254 
L 659.024312 77.34254 
L 678.73758 77.34254 
L 698.450848 77.34254 
L 718.164115 77.34254 
L 737.877383 77.34254 
L 757.590651 77.34254 
L 777.303919 77.34254 
L 797.017187 77.34254 
L 816.730455 77.34254 
" clip-path="url(#p1e5d56a7eb)" style="fill: none; stroke: #bcbd22; stroke-width: 1.5; stroke-linecap: square"/>
    <defs>
     <path id="m97b7f0e3ab" d="M 0 3.5 
C 0.928211 3.5 1.81853 3.131218 2.474874 2.474874 
C 3.131218 1.81853 3.5 0.928211 3.5 0 
C 3.5 -0.928211 3.131218 -1.81853 2.474874 -2.474874 
C 1.81853 -3.131218 0.928211 -3.5 0 -3.5 
C -0.928211 -3.5 -1.81853 -3.131218 -2.474874 -2.474874 
C -3.131218 -1.81853 -3.5 -0.928211 -3.5 0 
C -3.5 0.928211 -3.131218 1.81853 -2.474874 2.474874 
C -1.81853 3.131218 -0.928211 3.5 0 3.5 
z
" style="stroke: #bcbd22"/>
    </defs>
    <g clip-path="url(#p1e5d56a7eb)">
     <use xlink:href="#m97b7f0e3ab" x="87.339545" y="377.015532" style="fill: #bcbd22; stroke: #bcbd22"/>
     <use xlink:href="#m97b7f0e3ab" x="107.052813" y="364.68331" style="fill: #bcbd22; stroke: #bcbd22"/>
     <use xlink:href="#m97b7f0e3ab" x="126.766081" y="346.184977" style="fill: #bcbd22; stroke: #bcbd22"/>
     <use xlink:href="#m97b7f0e3ab" x="146.479349" y="331.386311" style="fill: #bcbd22; stroke: #bcbd22"/>
     <use xlink:href="#m97b7f0e3ab" x="166.192617" y="316.587645" style="fill: #bcbd22; stroke: #bcbd22"/>
     <use xlink:href="#m97b7f0e3ab" x="185.905885" y="283.290646" style="fill: #bcbd22; stroke: #bcbd22"/>
     <use xlink:href="#m97b7f0e3ab" x="205.619152" y="278.357757" style="fill: #bcbd22; stroke: #bcbd22"/>
     <use xlink:href="#m97b7f0e3ab" x="225.33242" y="267.258757" style="fill: #bcbd22; stroke: #bcbd22"/>
     <use xlink:href="#m97b7f0e3ab" x="245.045688" y="236.428203" style="fill: #bcbd22; stroke: #bcbd22"/>
     <use xlink:href="#m97b7f0e3ab" x="264.758956" y="211.763759" style="fill: #bcbd22; stroke: #bcbd22"/>
     <use xlink:href="#m97b7f0e3ab" x="284.472224" y="162.434871" style="fill: #bcbd22; stroke: #bcbd22"/>
     <use xlink:href="#m97b7f0e3ab" x="304.185491" y="147.636205" style="fill: #bcbd22; stroke: #bcbd22"/>
     <use xlink:href="#m97b7f0e3ab" x="323.898759" y="95.840873" style="fill: #bcbd22; stroke: #bcbd22"/>
     <use xlink:href="#m97b7f0e3ab" x="383.038563" y="95.840873" style="fill: #bcbd22; stroke: #bcbd22"/>
     <use xlink:href="#m97b7f0e3ab" x="402.75183" y="95.840873" style="fill: #bcbd22; stroke: #bcbd22"/>
     <use xlink:href="#m97b7f0e3ab" x="422.465098" y="95.840873" style="fill: #bcbd22; stroke: #bcbd22"/>
     <use xlink:href="#m97b7f0e3ab" x="442.178366" y="95.840873" style="fill: #bcbd22; stroke: #bcbd22"/>
     <use xlink:href="#m97b7f0e3ab" x="461.891634" y="95.840873" style="fill: #bcbd22; stroke: #bcbd22"/>
     <use xlink:href="#m97b7f0e3ab" x="501.31817" y="95.840873" style="fill: #bcbd22; stroke: #bcbd22"/>
     <use xlink:href="#m97b7f0e3ab" x="521.031437" y="95.840873" style="fill: #bcbd22; stroke: #bcbd22"/>
     <use xlink:href="#m97b7f0e3ab" x="540.744705" y="95.840873" style="fill: #bcbd22; stroke: #bcbd22"/>
     <use xlink:href="#m97b7f0e3ab" x="560.457973" y="95.840873" style="fill: #bcbd22; stroke: #bcbd22"/>
     <use xlink:href="#m97b7f0e3ab" x="580.171241" y="95.840873" style="fill: #bcbd22; stroke: #bcbd22"/>
     <use xlink:href="#m97b7f0e3ab" x="599.884509" y="77.34254" style="fill: #bcbd22; stroke: #bcbd22"/>
     <use xlink:href="#m97b7f0e3ab" x="619.597776" y="77.34254" style="fill: #bcbd22; stroke: #bcbd22"/>
     <use xlink:href="#m97b7f0e3ab" x="639.311044" y="77.34254" style="fill: #bcbd22; stroke: #bcbd22"/>
     <use xlink:href="#m97b7f0e3ab" x="659.024312" y="77.34254" style="fill: #bcbd22; stroke: #bcbd22"/>
     <use xlink:href="#m97b7f0e3ab" x="678.73758" y="77.34254" style="fill: #bcbd22; stroke: #bcbd22"/>
     <use xlink:href="#m97b7f0e3ab" x="698.450848" y="77.34254" style="fill: #bcbd22; stroke: #bcbd22"/>
     <use xlink:href="#m97b7f0e3ab" x="718.164115" y="77.34254" style="fill: #bcbd22; stroke: #bcbd22"/>
     <use xlink:href="#m97b7f0e3ab" x="737.877383" y="77.34254" style="fill: #bcbd22; stroke: #bcbd22"/>
     <use xlink:href="#m97b7f0e3ab" x="757.590651" y="77.34254" style="fill: #bcbd22; stroke: #bcbd22"/>
     <use xlink:href="#m97b7f0e3ab" x="777.303919" y="77.34254" style="fill: #bcbd22; stroke: #bcbd22"/>
     <use xlink:href="#m97b7f0e3ab" x="797.017187" y="77.34254" style="fill: #bcbd22; stroke: #bcbd22"/>
     <use xlink:href="#m97b7f0e3ab" x="816.730455" y="77.34254" style="fill: #bcbd22; stroke: #bcbd22"/>
    </g>
   </g>
   <g id="patch_3">
    <path d="M 50.87 404.12 
L 50.87 26.88 
" style="fill: none; stroke: #000000; stroke-width: 0.8; stroke-linejoin: miter; stroke-linecap: square"/>
   </g>
   <g id="patch_4">
    <path d="M 853.2 404.12 
L 853.2 26.88 
" style="fill: none; stroke: #000000; stroke-width: 0.8; stroke-linejoin: miter; stroke-linecap: square"/>
   </g>
   <g id="patch_5">
    <path d="M 50.87 404.12 
L 853.2 404.12 
" style="fill: none; stroke: #000000; stroke-width: 0.8; stroke-linejoin: miter; stroke-linecap: square"/>
   </g>
   <g id="patch_6">
    <path d="M 50.87 26.88 
L 853.2 26.88 
" style="fill: none; stroke: #000000; stroke-width: 0.8; stroke-linejoin: miter; stroke-linecap: square"/>
   </g>
   <g id="text_19">
    <!-- Standings -->
    <g transform="translate(422.18125 20.88) scale(0.12 -0.12)">
     <defs>
      <path id="DejaVuSans-74" d="M 1172 4494 
L 1172 3500 
L 2356 3500 
L 2356 3053 
L 1172 3053 
L 1172 1153 
Q 1172 725 1289 603 
Q 1406 481 1766 481 
L 2356 481 
L 2356 0 
L 1766 0 
Q 1100 0 847 248 
Q 594 497 594 1153 
L 594 3053 
L 172 3053 
L 172 3500 
L 594 3500 
L 594 4494 
L 1172 4494 
z
" transform="scale(0.015625)"/>
      <path id="DejaVuSans-61" d="M 2194 1759 
Q 1497 1759 1228 1600 
Q 959 1441 959 1056 
Q 959 750 1161 570 
Q 1363 391 1709 391 
Q 2188 391 2477 730 
Q 2766 1069 2766 1631 
L 2766 1759 
L 2194 1759 
z
M 3341 1997 
L 3341 0 
L 2766 0 
L 2766 531 
Q 2569 213 2275 61 
Q 1981 -91 1556 -91 
Q 1019 -91 701 211 
Q 384 513 384 1019 
Q 384 1609 779 1909 
Q 1175 2209 1959 2209 
L 2766 2209 
L 2766 2266 
Q 2766 2663 2505 2880 
Q 2244 3097 1772 3097 
Q 1472 3097 1187 3025 
Q 903 2953 641 2809 
L 641 3341 
Q 956 3463 1253 3523 
Q 1550 3584 1831 3584 
Q 2591 3584 2966 3190 
Q 3341 2797 3341 1997 
z
" transform="scale(0.015625)"/>
      <path id="DejaVuSans-6e" d="M 3513 2113 
L 3513 0 
L 2938 0 
L 2938 2094 
Q 2938 2591 2744 2837 
Q 2550 3084 2163 3084 
Q 1697 3084 1428 2787 
Q 1159 2491 1159 1978 
L 1159 0 
L 581 0 
L 581 3500 
L 1159 3500 
L 1159 2956 
Q 1366 3272 1645 3428 
Q 1925 3584 2291 3584 
Q 2894 3584 3203 3211 
Q 3513 2838 3513 2113 
z
" transform="scale(0.015625)"/>
      <path id="DejaVuSans-64" d="M 2906 2969 
L 2906 4863 
L 3481 4863 
L 3481 0 
L 2906 0 
L 2906 525 
Q 2725 213 2448 61 
Q 2172 -91 1784 -91 
Q 1150 -91 751 415 
Q 353 922 353 1747 
Q 353 2572 751 3078 
Q 1150 3584 1784 3584 
Q 2172 3584 2448 3432 
Q 2725 3281 2906 2969 
z
M 947 1747 
Q 947 1113 1208 752 
Q 1469 391 1925 391 
Q 2381 391 2643 752 
Q 2906 1113 2906 1747 
Q 2906 2381 2643 2742 
Q 2381 3103 1925 3103 
Q 1469 3103 1208 2742 
Q 947 2381 947 1747 
z
" transform="scale(0.015625)"/>
      <path id="DejaVuSans-69" d="M 603 3500 
L 1178 3500 
L 1178 0 
L 603 0 
L 603 3500 
z
M 603 4863 
L 1178 4863 
L 1178 4134 
L 603 4134 
L 603 4863 
z
" transform="scale(0.015625)"/>
      <path id="DejaVuSans-67" d="M 2906 1791 
Q 2906 2416 2648 2759 
Q 2391 3103 1925 3103 
Q 1463 3103 1205 2759 
Q 947 2416 947 1791 
Q 947 1169 1205 825 
Q 1463 481 1925 481 
Q 2391 481 2648 825 
Q 2906 1169 2906 1791 
z
M 3481 434 
Q 3481 -459 3084 -895 
Q 2688 -1331 1869 -1331 
Q 1566 -1331 1297 -1286 
Q 1028 -1241 775 -1147 
L 775 -588 
Q 1028 -725 1275 -790 
Q 1522 -856 1778 -856 
Q 2344 -856 2625 -561 
Q 2906 -266 2906 331 
L 2906 616 
Q 2728 306 2450 153 
Q 2172 0 1784 0 
Q 1141 0 747 490 
Q 353 981 353 1791 
Q 353 2603 747 3093 
Q 1141 3584 1784 3584 
Q 2172 3584 2450 3431 
Q 2728 3278 2906 2969 
L 2906 3500 
L 3481 3500 
L 3481 434 
z
" transform="scale(0.015625)"/>
      <path id="DejaVuSans-73" d="M 2834 3397 
L 2834 2853 
Q 2591 2978 2328 3040 
Q 2066 3103 1784 3103 
Q 1356 3103 1142 2972 
Q 928 2841 928 2578 
Q 928 2378 1081 2264 
Q 1234 2150 1697 2047 
L 1894 2003 
Q 2506 1872 2764 1633 
Q 3022 1394 3022 966 
Q 3022 478 2636 193 
Q 2250 -91 1575 -91 
Q 1294 -91 989 -36 
Q 684 19 347 128 
L 347 722 
Q 666 556 975 473 
Q 1284 391 1588 391 
Q 1994 391 2212 530 
Q 2431 669 2431 922 
Q 2431 1156 2273 1281 
Q 2116 1406 1581 1522 
L 1381 1569 
Q 847 1681 609 1914 
Q 372 2147 372 2553 
Q 372 3047 722 3315 
Q 1072 3584 1716 3584 
Q 2034 3584 2315 3537 
Q 2597 3491 2834 3397 
z
" transform="scale(0.015625)"/>
     </defs>
     <use xlink:href="#DejaVuSans-53"/>
     <use xlink:href="#DejaVuSans-74" x="63.476562"/>
     <use xlink:href="#DejaVuSans-61" x="102.685547"/>
     <use xlink:href="#DejaVuSans-6e" x="163.964844"/>
     <use xlink:href="#DejaVuSans-64" x="227.34375"/>
     <use xlink:href="#DejaVuSans-69" x="290.820312"/>
     <use xlink:href="#DejaVuSans-6e" x="318.603516"/>
     <use xlink:href="#DejaVuSans-67" x="381.982422"/>
     <use xlink:href="#DejaVuSans-73" x="445.458984"/>
    </g>
   </g>
   <g id="legend_1">
    <g id="patch_7">
     <path d="M 57.87 166.983125 
L 149.490313 166.983125 
Q 151.490313 166.983125 151.490313 164.983125 
L 151.490313 33.88 
Q 151.490313 31.88 149.490313 31.88 
L 57.87 31.88 
Q 55.87 31.88 55.87 33.88 
L 55.87 164.983125 
Q 55.87 166.983125 57.87 166.983125 
z
" style="fill: #ffffff; opacity: 0.8; stroke: #cccccc; stroke-linejoin: miter"/>
    </g>
    <g id="line2d_44">
     <path d="M 59.87 39.978437 
L 69.87 39.978437 
L 79.87 39.978437 
" style="fill: none; stroke: #1f77b4; stroke-width: 1.5; stroke-linecap: square"/>
     <g>
      <use xlink:href="#m9dd74da93c" x="69.87" y="39.978437" style="fill: #1f77b4; stroke: #1f77b4"/>
     </g>
    </g>
    <g id="text_20">
     <!-- Martin Ba -->
     <g transform="translate(87.87 43.478437) scale(0.1 -0.1)">
      <defs>
       <path id="DejaVuSans-4d" d="M 628 4666 
L 1569 4666 
L 2759 1491 
L 3956 4666 
L 4897 4666 
L 4897 0 
L 4281 0 
L 4281 4097 
L 3078 897 
L 2444 897 
L 1241 4097 
L 1241 0 
L 628 0 
L 628 4666 
z
" transform="scale(0.015625)"/>
       <path id="DejaVuSans-20" transform="scale(0.015625)"/>
       <path id="DejaVuSans-42" d="M 1259 2228 
L 1259 519 
L 2272 519 
Q 2781 519 3026 730 
Q 3272 941 3272 1375 
Q 3272 1813 3026 2020 
Q 2781 2228 2272 2228 
L 1259 2228 
z
M 1259 4147 
L 1259 2741 
L 2194 2741 
Q 2656 2741 2882 2914 
Q 3109 3088 3109 3444 
Q 3109 3797 2882 3972 
Q 2656 4147 2194 4147 
L 1259 4147 
z
M 628 4666 
L 2241 4666 
Q 2963 4666 3353 4366 
Q 3744 4066 3744 3513 
Q 3744 3084 3544 2831 
Q 3344 2578 2956 2516 
Q 3422 2416 3680 2098 
Q 3938 1781 3938 1306 
Q 3938 681 3513 340 
Q 3088 0 2303 0 
L 628 0 
L 628 4666 
z
" transform="scale(0.015625)"/>
      </defs>
      <use xlink:href="#DejaVuSans-4d"/>
      <use xlink:href="#DejaVuSans-61" x="86.279297"/>
      <use xlink:href="#DejaVuSans-72" x="147.558594"/>
      <use xlink:href="#DejaVuSans-74" x="188.671875"/>
      <use xlink:href="#DejaVuSans-69" x="227.880859"/>
      <use xlink:href="#DejaVuSans-6e" x="255.664062"/>
      <use xlink:href="#DejaVuSans-20" x="319.042969"/>
      <use xlink:href="#DejaVuSans-42" x="350.830078"/>
      <use xlink:href="#DejaVuSans-61" x="419.433594"/>
     </g>
    </g>
    <g id="line2d_45">
     <path d="M 59.87 54.656563 
L 69.87 54.656563 
L 79.87 54.656563 
" style="fill: none; stroke: #ff7f0e; stroke-width: 1.5; stroke-linecap: square"/>
     <g>
      <use xlink:href="#mde45c3b3c4" x="69.87" y="54.656563" style="fill: #ff7f0e; stroke: #ff7f0e"/>
     </g>
    </g>
    <g id="text_21">
     <!-- Maren St -->
     <g transform="translate(87.87 58.156563) scale(0.1 -0.1)">
      <use xlink:href="#DejaVuSans-4d"/>
      <use xlink:href="#DejaVuSans-61" x="86.279297"/>
      <use xlink:href="#DejaVuSans-72" x="147.558594"/>
      <use xlink:href="#DejaVuSans-65" x="186.421875"/>
      <use xlink:href="#DejaVuSans-6e" x="247.945312"/>
      <use xlink:href="#DejaVuSans-20" x="311.324219"/>
      <use xlink:href="#DejaVuSans-53" x="343.111328"/>
      <use xlink:href="#DejaVuSans-74" x="406.587891"/>
     </g>
    </g>
    <g id="line2d_46">
     <path d="M 59.87 69.334687 
L 69.87 69.334687 
L 79.87 69.334687 
" style="fill: none; stroke: #2ca02c; stroke-width: 1.5; stroke-linecap: square"/>
     <g>
      <use xlink:href="#m7dfc26a775" x="69.87" y="69.334687" style="fill: #2ca02c; stroke: #2ca02c"/>
     </g>
    </g>
    <g id="text_22">
     <!-- Jakob Ve -->
     <g transform="translate(87.87 72.834687) scale(0.1 -0.1)">
      <defs>
       <path id="DejaVuSans-4a" d="M 628 4666 
L 1259 4666 
L 1259 325 
Q 1259 -519 939 -900 
Q 619 -1281 -91 -1281 
L -331 -1281 
L -331 -750 
L -134 -750 
Q 284 -750 456 -515 
Q 628 -281 628 325 
L 628 4666 
z
" transform="scale(0.015625)"/>
       <path id="DejaVuSans-6b" d="M 581 4863 
L 1159 4863 
L 1159 1991 
L 2875 3500 
L 3609 3500 
L 1753 1863 
L 3688 0 
L 2938 0 
L 1159 1709 
L 1159 0 
L 581 0 
L 581 4863 
z
" transform="scale(0.015625)"/>
       <path id="DejaVuSans-62" d="M 3116 1747 
Q 3116 2381 2855 2742 
Q 2594 3103 2138 3103 
Q 1681 3103 1420 2742 
Q 1159 2381 1159 1747 
Q 1159 1113 1420 752 
Q 1681 391 2138 391 
Q 2594 391 2855 752 
Q 3116 1113 3116 1747 
z
M 1159 2969 
Q 1341 3281 1617 3432 
Q 1894 3584 2278 3584 
Q 2916 3584 3314 3078 
Q 3713 2572 3713 1747 
Q 3713 922 3314 415 
Q 2916 -91 2278 -91 
Q 1894 -91 1617 61 
Q 1341 213 1159 525 
L 1159 0 
L 581 0 
L 581 4863 
L 1159 4863 
L 1159 2969 
z
" transform="scale(0.015625)"/>
       <path id="DejaVuSans-56" d="M 1831 0 
L 50 4666 
L 709 4666 
L 2188 738 
L 3669 4666 
L 4325 4666 
L 2547 0 
L 1831 0 
z
" transform="scale(0.015625)"/>
      </defs>
      <use xlink:href="#DejaVuSans-4a"/>
      <use xlink:href="#DejaVuSans-61" x="29.492188"/>
      <use xlink:href="#DejaVuSans-6b" x="90.771484"/>
      <use xlink:href="#DejaVuSans-6f" x="145.056641"/>
      <use xlink:href="#DejaVuSans-62" x="206.238281"/>
      <use xlink:href="#DejaVuSans-20" x="269.714844"/>
      <use xlink:href="#DejaVuSans-56" x="301.501953"/>
      <use xlink:href="#DejaVuSans-65" x="362.160156"/>
     </g>
    </g>
    <g id="line2d_47">
     <path d="M 59.87 84.012812 
L 69.87 84.012812 
L 79.87 84.012812 
" style="fill: none; stroke: #d62728; stroke-width: 1.5; stroke-linecap: square"/>
     <g>
      <use xlink:href="#m357a0b6b03" x="69.87" y="84.012812" style="fill: #d62728; stroke: #d62728"/>
     </g>
    </g>
    <g id="text_23">
     <!-- Mathas Po -->
     <g transform="translate(87.87 87.512812) scale(0.1 -0.1)">
      <defs>
       <path id="DejaVuSans-68" d="M 3513 2113 
L 3513 0 
L 2938 0 
L 2938 2094 
Q 2938 2591 2744 2837 
Q 2550 3084 2163 3084 
Q 1697 3084 1428 2787 
Q 1159 2491 1159 1978 
L 1159 0 
L 581 0 
L 581 4863 
L 1159 4863 
L 1159 2956 
Q 1366 3272 1645 3428 
Q 1925 3584 2291 3584 
Q 2894 3584 3203 3211 
Q 3513 2838 3513 2113 
z
" transform="scale(0.015625)"/>
       <path id="DejaVuSans-50" d="M 1259 4147 
L 1259 2394 
L 2053 2394 
Q 2494 2394 2734 2622 
Q 2975 2850 2975 3272 
Q 2975 3691 2734 3919 
Q 2494 4147 2053 4147 
L 1259 4147 
z
M 628 4666 
L 2053 4666 
Q 2838 4666 3239 4311 
Q 3641 3956 3641 3272 
Q 3641 2581 3239 2228 
Q 2838 1875 2053 1875 
L 1259 1875 
L 1259 0 
L 628 0 
L 628 4666 
z
" transform="scale(0.015625)"/>
      </defs>
      <use xlink:href="#DejaVuSans-4d"/>
      <use xlink:href="#DejaVuSans-61" x="86.279297"/>
      <use xlink:href="#DejaVuSans-74" x="147.558594"/>
      <use xlink:href="#DejaVuSans-68" x="186.767578"/>
      <use xlink:href="#DejaVuSans-61" x="250.146484"/>
      <use xlink:href="#DejaVuSans-73" x="311.425781"/>
      <use xlink:href="#DejaVuSans-20" x="363.525391"/>
      <use xlink:href="#DejaVuSans-50" x="395.3125"/>
      <use xlink:href="#DejaVuSans-6f" x="451.990234"/>
     </g>
    </g>
    <g id="line2d_48">
     <path d="M 59.87 98.690938 
L 69.87 98.690938 
L 79.87 98.690938 
" style="fill: none; stroke: #9467bd; stroke-width: 1.5; stroke-linecap: square"/>
     <g>
      <use xlink:href="#mf55727e687" x="69.87" y="98.690938" style="fill: #9467bd; stroke: #9467bd"/>
     </g>
    </g>
    <g id="text_24">
     <!-- Christian Gr -->
     <g transform="translate(87.87 102.190938) scale(0.1 -0.1)">
      <defs>
       <path id="DejaVuSans-43" d="M 4122 4306 
L 4122 3641 
Q 3803 3938 3442 4084 
Q 3081 4231 2675 4231 
Q 1875 4231 1450 3742 
Q 1025 3253 1025 2328 
Q 1025 1406 1450 917 
Q 1875 428 2675 428 
Q 3081 428 3442 575 
Q 3803 722 4122 1019 
L 4122 359 
Q 3791 134 3420 21 
Q 3050 -91 2638 -91 
Q 1578 -91 968 557 
Q 359 1206 359 2328 
Q 359 3453 968 4101 
Q 1578 4750 2638 4750 
Q 3056 4750 3426 4639 
Q 3797 4528 4122 4306 
z
" transform="scale(0.015625)"/>
       <path id="DejaVuSans-47" d="M 3809 666 
L 3809 1919 
L 2778 1919 
L 2778 2438 
L 4434 2438 
L 4434 434 
Q 4069 175 3628 42 
Q 3188 -91 2688 -91 
Q 1594 -91 976 548 
Q 359 1188 359 2328 
Q 359 3472 976 4111 
Q 1594 4750 2688 4750 
Q 3144 4750 3555 4637 
Q 3966 4525 4313 4306 
L 4313 3634 
Q 3963 3931 3569 4081 
Q 3175 4231 2741 4231 
Q 1884 4231 1454 3753 
Q 1025 3275 1025 2328 
Q 1025 1384 1454 906 
Q 1884 428 2741 428 
Q 3075 428 3337 486 
Q 3600 544 3809 666 
z
" transform="scale(0.015625)"/>
      </defs>
      <use xlink:href="#DejaVuSans-43"/>
      <use xlink:href="#DejaVuSans-68" x="69.824219"/>
      <use xlink:href="#DejaVuSans-72" x="133.203125"/>
      <use xlink:href="#DejaVuSans-69" x="174.316406"/>
      <use xlink:href="#DejaVuSans-73" x="202.099609"/>
      <use xlink:href="#DejaVuSans-74" x="254.199219"/>
      <use xlink:href="#DejaVuSans-69" x="293.408203"/>
      <use xlink:href="#DejaVuSans-61" x="321.191406"/>
      <use xlink:href="#DejaVuSans-6e" x="382.470703"/>
      <use xlink:href="#DejaVuSans-20" x="445.849609"/>
      <use xlink:href="#DejaVuSans-47" x="477.636719"/>
      <use xlink:href="#DejaVuSans-72" x="555.126953"/>
     </g>
    </g>
    <g id="line2d_49">
     <path d="M 59.87 113.369062 
L 69.87 113.369062 
L 79.87 113.369062 
" style="fill: none; stroke: #8c564b; stroke-width: 1.5; stroke-linecap: square"/>
     <g>
      <use xlink:href="#m22fe4022f2" x="69.87" y="113.369062" style="fill: #8c564b; stroke: #8c564b"/>
     </g>
    </g>
    <g id="text_25">
     <!-- RIKKE GR -->
     <g transform="translate(87.87 116.869062) scale(0.1 -0.1)">
      <defs>
       <path id="DejaVuSans-52" d="M 2841 2188 
Q 3044 2119 3236 1894 
Q 3428 1669 3622 1275 
L 4263 0 
L 3584 0 
L 2988 1197 
Q 2756 1666 2539 1819 
Q 2322 1972 1947 1972 
L 1259 1972 
L 1259 0 
L 628 0 
L 628 4666 
L 2053 4666 
Q 2853 4666 3247 4331 
Q 3641 3997 3641 3322 
Q 3641 2881 3436 2590 
Q 3231 2300 2841 2188 
z
M 1259 4147 
L 1259 2491 
L 2053 2491 
Q 2509 2491 2742 2702 
Q 2975 2913 2975 3322 
Q 2975 3731 2742 3939 
Q 2509 4147 2053 4147 
L 1259 4147 
z
" transform="scale(0.015625)"/>
       <path id="DejaVuSans-49" d="M 628 4666 
L 1259 4666 
L 1259 0 
L 628 0 
L 628 4666 
z
" transform="scale(0.015625)"/>
       <path id="DejaVuSans-4b" d="M 628 4666 
L 1259 4666 
L 1259 2694 
L 3353 4666 
L 4166 4666 
L 1850 2491 
L 4331 0 
L 3500 0 
L 1259 2247 
L 1259 0 
L 628 0 
L 628 4666 
z
" transform="scale(0.015625)"/>
       <path id="DejaVuSans-45" d="M 628 4666 
L 3578 4666 
L 3578 4134 
L 1259 4134 
L 1259 2753 
L 3481 2753 
L 3481 2222 
L 1259 2222 
L 1259 531 
L 3634 531 
L 3634 0 
L 628 0 
L 628 4666 
z
" transform="scale(0.015625)"/>
      </defs>
      <use xlink:href="#DejaVuSans-52"/>
      <use xlink:href="#DejaVuSans-49" x="69.482422"/>
      <use xlink:href="#DejaVuSans-4b" x="98.974609"/>
      <use xlink:href="#DejaVuSans-4b" x="164.550781"/>
      <use xlink:href="#DejaVuSans-45" x="230.126953"/>
      <use xlink:href="#DejaVuSans-20" x="293.310547"/>
      <use xlink:href="#DejaVuSans-47" x="325.097656"/>
      <use xlink:href="#DejaVuSans-52" x="402.587891"/>
     </g>
    </g>
    <g id="line2d_50">
     <path d="M 59.87 128.047187 
L 69.87 128.047187 
L 79.87 128.047187 
" style="fill: none; stroke: #e377c2; stroke-width: 1.5; stroke-linecap: square"/>
     <g>
      <use xlink:href="#m3da51650f4" x="69.87" y="128.047187" style="fill: #e377c2; stroke: #e377c2"/>
     </g>
    </g>
    <g id="text_26">
     <!-- lea bo -->
     <g transform="translate(87.87 131.547187) scale(0.1 -0.1)">
      <defs>
       <path id="DejaVuSans-6c" d="M 603 4863 
L 1178 4863 
L 1178 0 
L 603 0 
L 603 4863 
z
" transform="scale(0.015625)"/>
      </defs>
      <use xlink:href="#DejaVuSans-6c"/>
      <use xlink:href="#DejaVuSans-65" x="27.783203"/>
      <use xlink:href="#DejaVuSans-61" x="89.306641"/>
      <use xlink:href="#DejaVuSans-20" x="150.585938"/>
      <use xlink:href="#DejaVuSans-62" x="182.373047"/>
      <use xlink:href="#DejaVuSans-6f" x="245.849609"/>
     </g>
    </g>
    <g id="line2d_51">
     <path d="M 59.87 142.725312 
L 69.87 142.725312 
L 79.87 142.725312 
" style="fill: none; stroke: #7f7f7f; stroke-width: 1.5; stroke-linecap: square"/>
     <g>
      <use xlink:href="#md3c37c00cd" x="69.87" y="142.725312" style="fill: #7f7f7f; stroke: #7f7f7f"/>
     </g>
    </g>
    <g id="text_27">
     <!-- Andreas Ku -->
     <g transform="translate(87.87 146.225312) scale(0.1 -0.1)">
      <defs>
       <path id="DejaVuSans-41" d="M 2188 4044 
L 1331 1722 
L 3047 1722 
L 2188 4044 
z
M 1831 4666 
L 2547 4666 
L 4325 0 
L 3669 0 
L 3244 1197 
L 1141 1197 
L 716 0 
L 50 0 
L 1831 4666 
z
" transform="scale(0.015625)"/>
       <path id="DejaVuSans-75" d="M 544 1381 
L 544 3500 
L 1119 3500 
L 1119 1403 
Q 1119 906 1312 657 
Q 1506 409 1894 409 
Q 2359 409 2629 706 
Q 2900 1003 2900 1516 
L 2900 3500 
L 3475 3500 
L 3475 0 
L 2900 0 
L 2900 538 
Q 2691 219 2414 64 
Q 2138 -91 1772 -91 
Q 1169 -91 856 284 
Q 544 659 544 1381 
z
M 1991 3584 
L 1991 3584 
z
" transform="scale(0.015625)"/>
      </defs>
      <use xlink:href="#DejaVuSans-41"/>
      <use xlink:href="#DejaVuSans-6e" x="68.408203"/>
      <use xlink:href="#DejaVuSans-64" x="131.787109"/>
      <use xlink:href="#DejaVuSans-72" x="195.263672"/>
      <use xlink:href="#DejaVuSans-65" x="234.126953"/>
      <use xlink:href="#DejaVuSans-61" x="295.650391"/>
      <use xlink:href="#DejaVuSans-73" x="356.929688"/>
      <use xlink:href="#DejaVuSans-20" x="409.029297"/>
      <use xlink:href="#DejaVuSans-4b" x="440.816406"/>
      <use xlink:href="#DejaVuSans-75" x="501.392578"/>
     </g>
    </g>
    <g id="line2d_52">
     <path d="M 59.87 157.403437 
L 69.87 157.403437 
L 79.87 157.403437 
" style="fill: none; stroke: #bcbd22; stroke-width: 1.5; stroke-linecap: square"/>
     <g>
      <use xlink:href="#m97b7f0e3ab" x="69.87" y="157.403437" style="fill: #bcbd22; stroke: #bcbd22"/>
     </g>
    </g>
    <g id="text_28">
     <!-- Salty Gu -->
     <g transform="translate(87.87 160.903437) scale(0.1 -0.1)">
      <defs>
       <path id="DejaVuSans-79" d="M 2059 -325 
Q 1816 -950 1584 -1140 
Q 1353 -1331 966 -1331 
L 506 -1331 
L 506 -850 
L 844 -850 
Q 1081 -850 1212 -737 
Q 1344 -625 1503 -206 
L 1606 56 
L 191 3500 
L 800 3500 
L 1894 763 
L 2988 3500 
L 3597 3500 
L 2059 -325 
z
" transform="scale(0.015625)"/>
      </defs>
      <use xlink:href="#DejaVuSans-53"/>
      <use xlink:href="#DejaVuSans-61" x="63.476562"/>
      <use xlink:href="#DejaVuSans-6c" x="124.755859"/>
      <use xlink:href="#DejaVuSans-74" x="152.539062"/>
      <use xlink:href="#DejaVuSans-79" x="191.748047"/>
      <use xlink:href="#DejaVuSans-20" x="250.927734"/>
      <use xlink:href="#DejaVuSans-47" x="282.714844"/>
      <use xlink:href="#DejaVuSans-75" x="360.205078"/>
     </g>
    </g>
   </g>
  </g>
 </g>
 <defs>
  <clipPath id="p1e5d56a7eb">
   <rect x="50.87" y="26.88" width="802.33" height="377.24"/>
  </clipPath>
 </defs>
</svg>
