<?xml version="1.0" encoding="utf-8" standalone="no"?>
<!DOCTYPE svg PUBLIC "-//W3C//DTD SVG 1.1//EN"
  "http://www.w3.org/Graphics/SVG/1.1/DTD/svg11.dtd">
<svg xmlns:xlink="http://www.w3.org/1999/xlink" width="864pt" height="432pt" viewBox="0 0 864 432" xmlns="http://www.w3.org/2000/svg" version="1.1">
 <metadata>
  <rdf:RDF xmlns:dc="http://purl.org/dc/elements/1.1/" xmlns:cc="http://creativecommons.org/ns#" xmlns:rdf="http://www.w3.org/1999/02/22-rdf-syntax-ns#">
   <cc:Work>
    <dc:type rdf:resource="http://purl.org/dc/dcmitype/StillImage"/>
    <dc:date>2024-08-29T07:27:33.583455</dc:date>
    <dc:format>image/svg+xml</dc:format>
    <dc:creator>
     <cc:Agent>
      <dc:title>Matplotlib v3.9.2, https://matplotlib.org/</dc:title>
     </cc:Agent>
    </dc:creator>
   </cc:Work>
  </rdf:RDF>
 </metadata>
 <defs>
  <style type="text/css">*{stroke-linejoin: round; stroke-linecap: butt}</style>
 </defs>
 <g id="figure_1">
  <g id="patch_1">
   <path d="M 0 432 
L 864 432 
L 864 0 
L 0 0 
z
" style="fill: #ffffff"/>
  </g>
  <g id="axes_1">
   <g id="patch_2">
    <path d="M 50.87 404.12 
L 830.807656 404.12 
L 830.807656 26.88 
L 50.87 26.88 
z
" style="fill: #ffffff"/>
   </g>
   <g id="matplotlib.axis_1">
    <g id="xtick_1">
     <g id="line2d_1">
      <path d="M 95.651109 404.12 
L 95.651109 26.88 
" clip-path="url(#p40861e3492)" style="fill: none; stroke-dasharray: 2.96,1.28; stroke-dashoffset: 0; stroke: #b0b0b0; stroke-width: 0.8"/>
     </g>
     <g id="line2d_2">
      <defs>
       <path id="m3643de8176" d="M 0 0 
L 0 3.5 
" style="stroke: #000000; stroke-width: 0.8"/>
      </defs>
      <g>
       <use xlink:href="#m3643de8176" x="95.651109" y="404.12" style="stroke: #000000; stroke-width: 0.8"/>
      </g>
     </g>
     <g id="text_1">
      <!-- 2024-06-15 -->
      <g transform="translate(66.593297 418.718437) scale(0.1 -0.1)">
       <defs>
        <path id="DejaVuSans-32" d="M 1228 531 
L 3431 531 
L 3431 0 
L 469 0 
L 469 531 
Q 828 903 1448 1529 
Q 2069 2156 2228 2338 
Q 2531 2678 2651 2914 
Q 2772 3150 2772 3378 
Q 2772 3750 2511 3984 
Q 2250 4219 1831 4219 
Q 1534 4219 1204 4116 
Q 875 4013 500 3803 
L 500 4441 
Q 881 4594 1212 4672 
Q 1544 4750 1819 4750 
Q 2544 4750 2975 4387 
Q 3406 4025 3406 3419 
Q 3406 3131 3298 2873 
Q 3191 2616 2906 2266 
Q 2828 2175 2409 1742 
Q 1991 1309 1228 531 
z
" transform="scale(0.015625)"/>
        <path id="DejaVuSans-30" d="M 2034 4250 
Q 1547 4250 1301 3770 
Q 1056 3291 1056 2328 
Q 1056 1369 1301 889 
Q 1547 409 2034 409 
Q 2525 409 2770 889 
Q 3016 1369 3016 2328 
Q 3016 3291 2770 3770 
Q 2525 4250 2034 4250 
z
M 2034 4750 
Q 2819 4750 3233 4129 
Q 3647 3509 3647 2328 
Q 3647 1150 3233 529 
Q 2819 -91 2034 -91 
Q 1250 -91 836 529 
Q 422 1150 422 2328 
Q 422 3509 836 4129 
Q 1250 4750 2034 4750 
z
" transform="scale(0.015625)"/>
        <path id="DejaVuSans-34" d="M 2419 4116 
L 825 1625 
L 2419 1625 
L 2419 4116 
z
M 2253 4666 
L 3047 4666 
L 3047 1625 
L 3713 1625 
L 3713 1100 
L 3047 1100 
L 3047 0 
L 2419 0 
L 2419 1100 
L 313 1100 
L 313 1709 
L 2253 4666 
z
" transform="scale(0.015625)"/>
        <path id="DejaVuSans-2d" d="M 313 2009 
L 1997 2009 
L 1997 1497 
L 313 1497 
L 313 2009 
z
" transform="scale(0.015625)"/>
        <path id="DejaVuSans-36" d="M 2113 2584 
Q 1688 2584 1439 2293 
Q 1191 2003 1191 1497 
Q 1191 994 1439 701 
Q 1688 409 2113 409 
Q 2538 409 2786 701 
Q 3034 994 3034 1497 
Q 3034 2003 2786 2293 
Q 2538 2584 2113 2584 
z
M 3366 4563 
L 3366 3988 
Q 3128 4100 2886 4159 
Q 2644 4219 2406 4219 
Q 1781 4219 1451 3797 
Q 1122 3375 1075 2522 
Q 1259 2794 1537 2939 
Q 1816 3084 2150 3084 
Q 2853 3084 3261 2657 
Q 3669 2231 3669 1497 
Q 3669 778 3244 343 
Q 2819 -91 2113 -91 
Q 1303 -91 875 529 
Q 447 1150 447 2328 
Q 447 3434 972 4092 
Q 1497 4750 2381 4750 
Q 2619 4750 2861 4703 
Q 3103 4656 3366 4563 
z
" transform="scale(0.015625)"/>
        <path id="DejaVuSans-31" d="M 794 531 
L 1825 531 
L 1825 4091 
L 703 3866 
L 703 4441 
L 1819 4666 
L 2450 4666 
L 2450 531 
L 3481 531 
L 3481 0 
L 794 0 
L 794 531 
z
" transform="scale(0.015625)"/>
        <path id="DejaVuSans-35" d="M 691 4666 
L 3169 4666 
L 3169 4134 
L 1269 4134 
L 1269 2991 
Q 1406 3038 1543 3061 
Q 1681 3084 1819 3084 
Q 2600 3084 3056 2656 
Q 3513 2228 3513 1497 
Q 3513 744 3044 326 
Q 2575 -91 1722 -91 
Q 1428 -91 1123 -41 
Q 819 9 494 109 
L 494 744 
Q 775 591 1075 516 
Q 1375 441 1709 441 
Q 2250 441 2565 725 
Q 2881 1009 2881 1497 
Q 2881 1984 2565 2268 
Q 2250 2553 1709 2553 
Q 1456 2553 1204 2497 
Q 953 2441 691 2322 
L 691 4666 
z
" transform="scale(0.015625)"/>
       </defs>
       <use xlink:href="#DejaVuSans-32"/>
       <use xlink:href="#DejaVuSans-30" x="63.623047"/>
       <use xlink:href="#DejaVuSans-32" x="127.246094"/>
       <use xlink:href="#DejaVuSans-34" x="190.869141"/>
       <use xlink:href="#DejaVuSans-2d" x="254.492188"/>
       <use xlink:href="#DejaVuSans-30" x="290.576172"/>
       <use xlink:href="#DejaVuSans-36" x="354.199219"/>
       <use xlink:href="#DejaVuSans-2d" x="417.822266"/>
       <use xlink:href="#DejaVuSans-31" x="453.90625"/>
       <use xlink:href="#DejaVuSans-35" x="517.529297"/>
      </g>
     </g>
    </g>
    <g id="xtick_2">
     <g id="line2d_3">
      <path d="M 244.921474 404.12 
L 244.921474 26.88 
" clip-path="url(#p40861e3492)" style="fill: none; stroke-dasharray: 2.96,1.28; stroke-dashoffset: 0; stroke: #b0b0b0; stroke-width: 0.8"/>
     </g>
     <g id="line2d_4">
      <g>
       <use xlink:href="#m3643de8176" x="244.921474" y="404.12" style="stroke: #000000; stroke-width: 0.8"/>
      </g>
     </g>
     <g id="text_2">
      <!-- 2024-07-01 -->
      <g transform="translate(215.863662 418.718437) scale(0.1 -0.1)">
       <defs>
        <path id="DejaVuSans-37" d="M 525 4666 
L 3525 4666 
L 3525 4397 
L 1831 0 
L 1172 0 
L 2766 4134 
L 525 4134 
L 525 4666 
z
" transform="scale(0.015625)"/>
       </defs>
       <use xlink:href="#DejaVuSans-32"/>
       <use xlink:href="#DejaVuSans-30" x="63.623047"/>
       <use xlink:href="#DejaVuSans-32" x="127.246094"/>
       <use xlink:href="#DejaVuSans-34" x="190.869141"/>
       <use xlink:href="#DejaVuSans-2d" x="254.492188"/>
       <use xlink:href="#DejaVuSans-30" x="290.576172"/>
       <use xlink:href="#DejaVuSans-37" x="354.199219"/>
       <use xlink:href="#DejaVuSans-2d" x="417.822266"/>
       <use xlink:href="#DejaVuSans-30" x="453.90625"/>
       <use xlink:href="#DejaVuSans-31" x="517.529297"/>
      </g>
     </g>
    </g>
    <g id="xtick_3">
     <g id="line2d_5">
      <path d="M 375.533043 404.12 
L 375.533043 26.88 
" clip-path="url(#p40861e3492)" style="fill: none; stroke-dasharray: 2.96,1.28; stroke-dashoffset: 0; stroke: #b0b0b0; stroke-width: 0.8"/>
     </g>
     <g id="line2d_6">
      <g>
       <use xlink:href="#m3643de8176" x="375.533043" y="404.12" style="stroke: #000000; stroke-width: 0.8"/>
      </g>
     </g>
     <g id="text_3">
      <!-- 2024-07-15 -->
      <g transform="translate(346.475231 418.718437) scale(0.1 -0.1)">
       <use xlink:href="#DejaVuSans-32"/>
       <use xlink:href="#DejaVuSans-30" x="63.623047"/>
       <use xlink:href="#DejaVuSans-32" x="127.246094"/>
       <use xlink:href="#DejaVuSans-34" x="190.869141"/>
       <use xlink:href="#DejaVuSans-2d" x="254.492188"/>
       <use xlink:href="#DejaVuSans-30" x="290.576172"/>
       <use xlink:href="#DejaVuSans-37" x="354.199219"/>
       <use xlink:href="#DejaVuSans-2d" x="417.822266"/>
       <use xlink:href="#DejaVuSans-31" x="453.90625"/>
       <use xlink:href="#DejaVuSans-35" x="517.529297"/>
      </g>
     </g>
    </g>
    <g id="xtick_4">
     <g id="line2d_7">
      <path d="M 534.132806 404.12 
L 534.132806 26.88 
" clip-path="url(#p40861e3492)" style="fill: none; stroke-dasharray: 2.96,1.28; stroke-dashoffset: 0; stroke: #b0b0b0; stroke-width: 0.8"/>
     </g>
     <g id="line2d_8">
      <g>
       <use xlink:href="#m3643de8176" x="534.132806" y="404.12" style="stroke: #000000; stroke-width: 0.8"/>
      </g>
     </g>
     <g id="text_4">
      <!-- 2024-08-01 -->
      <g transform="translate(505.074993 418.718437) scale(0.1 -0.1)">
       <defs>
        <path id="DejaVuSans-38" d="M 2034 2216 
Q 1584 2216 1326 1975 
Q 1069 1734 1069 1313 
Q 1069 891 1326 650 
Q 1584 409 2034 409 
Q 2484 409 2743 651 
Q 3003 894 3003 1313 
Q 3003 1734 2745 1975 
Q 2488 2216 2034 2216 
z
M 1403 2484 
Q 997 2584 770 2862 
Q 544 3141 544 3541 
Q 544 4100 942 4425 
Q 1341 4750 2034 4750 
Q 2731 4750 3128 4425 
Q 3525 4100 3525 3541 
Q 3525 3141 3298 2862 
Q 3072 2584 2669 2484 
Q 3125 2378 3379 2068 
Q 3634 1759 3634 1313 
Q 3634 634 3220 271 
Q 2806 -91 2034 -91 
Q 1263 -91 848 271 
Q 434 634 434 1313 
Q 434 1759 690 2068 
Q 947 2378 1403 2484 
z
M 1172 3481 
Q 1172 3119 1398 2916 
Q 1625 2713 2034 2713 
Q 2441 2713 2670 2916 
Q 2900 3119 2900 3481 
Q 2900 3844 2670 4047 
Q 2441 4250 2034 4250 
Q 1625 4250 1398 4047 
Q 1172 3844 1172 3481 
z
" transform="scale(0.015625)"/>
       </defs>
       <use xlink:href="#DejaVuSans-32"/>
       <use xlink:href="#DejaVuSans-30" x="63.623047"/>
       <use xlink:href="#DejaVuSans-32" x="127.246094"/>
       <use xlink:href="#DejaVuSans-34" x="190.869141"/>
       <use xlink:href="#DejaVuSans-2d" x="254.492188"/>
       <use xlink:href="#DejaVuSans-30" x="290.576172"/>
       <use xlink:href="#DejaVuSans-38" x="354.199219"/>
       <use xlink:href="#DejaVuSans-2d" x="417.822266"/>
       <use xlink:href="#DejaVuSans-30" x="453.90625"/>
       <use xlink:href="#DejaVuSans-31" x="517.529297"/>
      </g>
     </g>
    </g>
    <g id="xtick_5">
     <g id="line2d_9">
      <path d="M 664.744375 404.12 
L 664.744375 26.88 
" clip-path="url(#p40861e3492)" style="fill: none; stroke-dasharray: 2.96,1.28; stroke-dashoffset: 0; stroke: #b0b0b0; stroke-width: 0.8"/>
     </g>
     <g id="line2d_10">
      <g>
       <use xlink:href="#m3643de8176" x="664.744375" y="404.12" style="stroke: #000000; stroke-width: 0.8"/>
      </g>
     </g>
     <g id="text_5">
      <!-- 2024-08-15 -->
      <g transform="translate(635.686562 418.718437) scale(0.1 -0.1)">
       <use xlink:href="#DejaVuSans-32"/>
       <use xlink:href="#DejaVuSans-30" x="63.623047"/>
       <use xlink:href="#DejaVuSans-32" x="127.246094"/>
       <use xlink:href="#DejaVuSans-34" x="190.869141"/>
       <use xlink:href="#DejaVuSans-2d" x="254.492188"/>
       <use xlink:href="#DejaVuSans-30" x="290.576172"/>
       <use xlink:href="#DejaVuSans-38" x="354.199219"/>
       <use xlink:href="#DejaVuSans-2d" x="417.822266"/>
       <use xlink:href="#DejaVuSans-31" x="453.90625"/>
       <use xlink:href="#DejaVuSans-35" x="517.529297"/>
      </g>
     </g>
    </g>
    <g id="xtick_6">
     <g id="line2d_11">
      <path d="M 823.344137 404.12 
L 823.344137 26.88 
" clip-path="url(#p40861e3492)" style="fill: none; stroke-dasharray: 2.96,1.28; stroke-dashoffset: 0; stroke: #b0b0b0; stroke-width: 0.8"/>
     </g>
     <g id="line2d_12">
      <g>
       <use xlink:href="#m3643de8176" x="823.344137" y="404.12" style="stroke: #000000; stroke-width: 0.8"/>
      </g>
     </g>
     <g id="text_6">
      <!-- 2024-09-01 -->
      <g transform="translate(794.286325 418.718437) scale(0.1 -0.1)">
       <defs>
        <path id="DejaVuSans-39" d="M 703 97 
L 703 672 
Q 941 559 1184 500 
Q 1428 441 1663 441 
Q 2288 441 2617 861 
Q 2947 1281 2994 2138 
Q 2813 1869 2534 1725 
Q 2256 1581 1919 1581 
Q 1219 1581 811 2004 
Q 403 2428 403 3163 
Q 403 3881 828 4315 
Q 1253 4750 1959 4750 
Q 2769 4750 3195 4129 
Q 3622 3509 3622 2328 
Q 3622 1225 3098 567 
Q 2575 -91 1691 -91 
Q 1453 -91 1209 -44 
Q 966 3 703 97 
z
M 1959 2075 
Q 2384 2075 2632 2365 
Q 2881 2656 2881 3163 
Q 2881 3666 2632 3958 
Q 2384 4250 1959 4250 
Q 1534 4250 1286 3958 
Q 1038 3666 1038 3163 
Q 1038 2656 1286 2365 
Q 1534 2075 1959 2075 
z
" transform="scale(0.015625)"/>
       </defs>
       <use xlink:href="#DejaVuSans-32"/>
       <use xlink:href="#DejaVuSans-30" x="63.623047"/>
       <use xlink:href="#DejaVuSans-32" x="127.246094"/>
       <use xlink:href="#DejaVuSans-34" x="190.869141"/>
       <use xlink:href="#DejaVuSans-2d" x="254.492188"/>
       <use xlink:href="#DejaVuSans-30" x="290.576172"/>
       <use xlink:href="#DejaVuSans-39" x="354.199219"/>
       <use xlink:href="#DejaVuSans-2d" x="417.822266"/>
       <use xlink:href="#DejaVuSans-30" x="453.90625"/>
       <use xlink:href="#DejaVuSans-31" x="517.529297"/>
      </g>
     </g>
    </g>
   </g>
   <g id="matplotlib.axis_2">
    <g id="ytick_1">
     <g id="line2d_13">
      <path d="M 50.87 393.341384 
L 830.807656 393.341384 
" clip-path="url(#p40861e3492)" style="fill: none; stroke-dasharray: 2.96,1.28; stroke-dashoffset: 0; stroke: #b0b0b0; stroke-width: 0.8"/>
     </g>
     <g id="line2d_14">
      <defs>
       <path id="mc8ee199d63" d="M 0 0 
L -3.5 0 
" style="stroke: #000000; stroke-width: 0.8"/>
      </defs>
      <g>
       <use xlink:href="#mc8ee199d63" x="50.87" y="393.341384" style="stroke: #000000; stroke-width: 0.8"/>
      </g>
     </g>
     <g id="text_7">
      <!-- 0 -->
      <g transform="translate(37.5075 397.140602) scale(0.1 -0.1)">
       <use xlink:href="#DejaVuSans-30"/>
      </g>
     </g>
    </g>
    <g id="ytick_2">
     <g id="line2d_15">
      <path d="M 50.87 330.060796 
L 830.807656 330.060796 
" clip-path="url(#p40861e3492)" style="fill: none; stroke-dasharray: 2.96,1.28; stroke-dashoffset: 0; stroke: #b0b0b0; stroke-width: 0.8"/>
     </g>
     <g id="line2d_16">
      <g>
       <use xlink:href="#mc8ee199d63" x="50.87" y="330.060796" style="stroke: #000000; stroke-width: 0.8"/>
      </g>
     </g>
     <g id="text_8">
      <!-- 50 -->
      <g transform="translate(31.145 333.860015) scale(0.1 -0.1)">
       <use xlink:href="#DejaVuSans-35"/>
       <use xlink:href="#DejaVuSans-30" x="63.623047"/>
      </g>
     </g>
    </g>
    <g id="ytick_3">
     <g id="line2d_17">
      <path d="M 50.87 266.780209 
L 830.807656 266.780209 
" clip-path="url(#p40861e3492)" style="fill: none; stroke-dasharray: 2.96,1.28; stroke-dashoffset: 0; stroke: #b0b0b0; stroke-width: 0.8"/>
     </g>
     <g id="line2d_18">
      <g>
       <use xlink:href="#mc8ee199d63" x="50.87" y="266.780209" style="stroke: #000000; stroke-width: 0.8"/>
      </g>
     </g>
     <g id="text_9">
      <!-- 100 -->
      <g transform="translate(24.7825 270.579428) scale(0.1 -0.1)">
       <use xlink:href="#DejaVuSans-31"/>
       <use xlink:href="#DejaVuSans-30" x="63.623047"/>
       <use xlink:href="#DejaVuSans-30" x="127.246094"/>
      </g>
     </g>
    </g>
    <g id="ytick_4">
     <g id="line2d_19">
      <path d="M 50.87 203.499622 
L 830.807656 203.499622 
" clip-path="url(#p40861e3492)" style="fill: none; stroke-dasharray: 2.96,1.28; stroke-dashoffset: 0; stroke: #b0b0b0; stroke-width: 0.8"/>
     </g>
     <g id="line2d_20">
      <g>
       <use xlink:href="#mc8ee199d63" x="50.87" y="203.499622" style="stroke: #000000; stroke-width: 0.8"/>
      </g>
     </g>
     <g id="text_10">
      <!-- 150 -->
      <g transform="translate(24.7825 207.298841) scale(0.1 -0.1)">
       <use xlink:href="#DejaVuSans-31"/>
       <use xlink:href="#DejaVuSans-35" x="63.623047"/>
       <use xlink:href="#DejaVuSans-30" x="127.246094"/>
      </g>
     </g>
    </g>
    <g id="ytick_5">
     <g id="line2d_21">
      <path d="M 50.87 140.219035 
L 830.807656 140.219035 
" clip-path="url(#p40861e3492)" style="fill: none; stroke-dasharray: 2.96,1.28; stroke-dashoffset: 0; stroke: #b0b0b0; stroke-width: 0.8"/>
     </g>
     <g id="line2d_22">
      <g>
       <use xlink:href="#mc8ee199d63" x="50.87" y="140.219035" style="stroke: #000000; stroke-width: 0.8"/>
      </g>
     </g>
     <g id="text_11">
      <!-- 200 -->
      <g transform="translate(24.7825 144.018254) scale(0.1 -0.1)">
       <use xlink:href="#DejaVuSans-32"/>
       <use xlink:href="#DejaVuSans-30" x="63.623047"/>
       <use xlink:href="#DejaVuSans-30" x="127.246094"/>
      </g>
     </g>
    </g>
    <g id="ytick_6">
     <g id="line2d_23">
      <path d="M 50.87 76.938448 
L 830.807656 76.938448 
" clip-path="url(#p40861e3492)" style="fill: none; stroke-dasharray: 2.96,1.28; stroke-dashoffset: 0; stroke: #b0b0b0; stroke-width: 0.8"/>
     </g>
     <g id="line2d_24">
      <g>
       <use xlink:href="#mc8ee199d63" x="50.87" y="76.938448" style="stroke: #000000; stroke-width: 0.8"/>
      </g>
     </g>
     <g id="text_12">
      <!-- 250 -->
      <g transform="translate(24.7825 80.737666) scale(0.1 -0.1)">
       <use xlink:href="#DejaVuSans-32"/>
       <use xlink:href="#DejaVuSans-35" x="63.623047"/>
       <use xlink:href="#DejaVuSans-30" x="127.246094"/>
      </g>
     </g>
    </g>
    <g id="text_13">
     <!-- Score -->
     <g transform="translate(18.702813 229.502344) rotate(-90) scale(0.1 -0.1)">
      <defs>
       <path id="DejaVuSans-53" d="M 3425 4513 
L 3425 3897 
Q 3066 4069 2747 4153 
Q 2428 4238 2131 4238 
Q 1616 4238 1336 4038 
Q 1056 3838 1056 3469 
Q 1056 3159 1242 3001 
Q 1428 2844 1947 2747 
L 2328 2669 
Q 3034 2534 3370 2195 
Q 3706 1856 3706 1288 
Q 3706 609 3251 259 
Q 2797 -91 1919 -91 
Q 1588 -91 1214 -16 
Q 841 59 441 206 
L 441 856 
Q 825 641 1194 531 
Q 1563 422 1919 422 
Q 2459 422 2753 634 
Q 3047 847 3047 1241 
Q 3047 1584 2836 1778 
Q 2625 1972 2144 2069 
L 1759 2144 
Q 1053 2284 737 2584 
Q 422 2884 422 3419 
Q 422 4038 858 4394 
Q 1294 4750 2059 4750 
Q 2388 4750 2728 4690 
Q 3069 4631 3425 4513 
z
" transform="scale(0.015625)"/>
       <path id="DejaVuSans-63" d="M 3122 3366 
L 3122 2828 
Q 2878 2963 2633 3030 
Q 2388 3097 2138 3097 
Q 1578 3097 1268 2742 
Q 959 2388 959 1747 
Q 959 1106 1268 751 
Q 1578 397 2138 397 
Q 2388 397 2633 464 
Q 2878 531 3122 666 
L 3122 134 
Q 2881 22 2623 -34 
Q 2366 -91 2075 -91 
Q 1284 -91 818 406 
Q 353 903 353 1747 
Q 353 2603 823 3093 
Q 1294 3584 2113 3584 
Q 2378 3584 2631 3529 
Q 2884 3475 3122 3366 
z
" transform="scale(0.015625)"/>
       <path id="DejaVuSans-6f" d="M 1959 3097 
Q 1497 3097 1228 2736 
Q 959 2375 959 1747 
Q 959 1119 1226 758 
Q 1494 397 1959 397 
Q 2419 397 2687 759 
Q 2956 1122 2956 1747 
Q 2956 2369 2687 2733 
Q 2419 3097 1959 3097 
z
M 1959 3584 
Q 2709 3584 3137 3096 
Q 3566 2609 3566 1747 
Q 3566 888 3137 398 
Q 2709 -91 1959 -91 
Q 1206 -91 779 398 
Q 353 888 353 1747 
Q 353 2609 779 3096 
Q 1206 3584 1959 3584 
z
" transform="scale(0.015625)"/>
       <path id="DejaVuSans-72" d="M 2631 2963 
Q 2534 3019 2420 3045 
Q 2306 3072 2169 3072 
Q 1681 3072 1420 2755 
Q 1159 2438 1159 1844 
L 1159 0 
L 581 0 
L 581 3500 
L 1159 3500 
L 1159 2956 
Q 1341 3275 1631 3429 
Q 1922 3584 2338 3584 
Q 2397 3584 2469 3576 
Q 2541 3569 2628 3553 
L 2631 2963 
z
" transform="scale(0.015625)"/>
       <path id="DejaVuSans-65" d="M 3597 1894 
L 3597 1613 
L 953 1613 
Q 991 1019 1311 708 
Q 1631 397 2203 397 
Q 2534 397 2845 478 
Q 3156 559 3463 722 
L 3463 178 
Q 3153 47 2828 -22 
Q 2503 -91 2169 -91 
Q 1331 -91 842 396 
Q 353 884 353 1716 
Q 353 2575 817 3079 
Q 1281 3584 2069 3584 
Q 2775 3584 3186 3129 
Q 3597 2675 3597 1894 
z
M 3022 2063 
Q 3016 2534 2758 2815 
Q 2500 3097 2075 3097 
Q 1594 3097 1305 2825 
Q 1016 2553 972 2059 
L 3022 2063 
z
" transform="scale(0.015625)"/>
      </defs>
      <use xlink:href="#DejaVuSans-53"/>
      <use xlink:href="#DejaVuSans-63" x="63.476562"/>
      <use xlink:href="#DejaVuSans-6f" x="118.457031"/>
      <use xlink:href="#DejaVuSans-72" x="179.638672"/>
      <use xlink:href="#DejaVuSans-65" x="218.501953"/>
     </g>
    </g>
   </g>
   <g id="line2d_25">
    <path d="M 86.321712 380.619548 
L 95.651109 359.104148 
L 104.980507 321.135796 
L 114.309905 312.276514 
L 123.639303 293.292338 
L 132.968701 274.308161 
L 142.298098 246.464703 
L 151.627496 235.074197 
L 160.956894 203.433904 
L 170.286292 192.043398 
L 179.61569 157.871881 
L 188.945087 137.622093 
L 198.274485 78.138341 
L 226.262679 78.138341 
L 235.592076 78.138341 
L 244.921474 78.138341 
L 254.250872 78.138341 
L 263.58027 78.138341 
L 282.239065 78.138341 
L 291.568463 78.138341 
L 300.897861 78.138341 
L 310.227259 78.138341 
L 319.556656 78.138341 
L 328.886054 59.154165 
L 338.215452 59.154165 
L 347.54485 59.154165 
L 356.874248 59.154165 
L 366.203645 59.154165 
L 375.533043 46.498047 
L 384.862441 46.498047 
L 394.191839 46.498047 
L 403.521237 46.498047 
L 412.850634 46.498047 
L 422.180032 46.498047 
L 431.50943 46.498047 
L 440.838828 46.498047 
L 450.168226 46.498047 
L 459.497623 46.498047 
L 468.827021 46.498047 
L 478.156419 46.498047 
L 487.485817 46.498047 
L 496.815215 46.498047 
L 506.144612 46.498047 
L 515.47401 46.498047 
L 524.803408 46.498047 
L 534.132806 46.498047 
L 543.462203 46.498047 
L 552.791601 46.498047 
L 562.120999 46.498047 
L 571.450397 46.498047 
L 580.779795 46.498047 
L 590.109192 46.498047 
L 599.43859 46.498047 
L 608.767988 46.498047 
L 618.097386 46.498047 
L 627.426784 46.498047 
L 636.756181 46.498047 
L 646.085579 46.498047 
L 655.414977 46.498047 
L 664.744375 46.498047 
L 674.073773 46.498047 
L 683.40317 46.498047 
L 692.732568 46.498047 
L 702.061966 46.498047 
L 711.391364 46.498047 
L 720.720762 46.498047 
L 730.050159 46.498047 
L 739.379557 46.498047 
L 748.708955 46.498047 
L 758.038353 46.498047 
L 767.367751 46.498047 
L 776.697148 46.498047 
L 786.026546 46.498047 
L 795.355944 46.498047 
" clip-path="url(#p40861e3492)" style="fill: none; stroke: #1f77b4; stroke-width: 1.5; stroke-linecap: square"/>
    <defs>
     <path id="m7f78d1319f" d="M 0 3.5 
C 0.928211 3.5 1.81853 3.131218 2.474874 2.474874 
C 3.131218 1.81853 3.5 0.928211 3.5 0 
C 3.5 -0.928211 3.131218 -1.81853 2.474874 -2.474874 
C 1.81853 -3.131218 0.928211 -3.5 0 -3.5 
C -0.928211 -3.5 -1.81853 -3.131218 -2.474874 -2.474874 
C -3.131218 -1.81853 -3.5 -0.928211 -3.5 0 
C -3.5 0.928211 -3.131218 1.81853 -2.474874 2.474874 
C -1.81853 3.131218 -0.928211 3.5 0 3.5 
z
" style="stroke: #1f77b4"/>
    </defs>
    <g clip-path="url(#p40861e3492)">
     <use xlink:href="#m7f78d1319f" x="86.321712" y="380.619548" style="fill: #1f77b4; stroke: #1f77b4"/>
     <use xlink:href="#m7f78d1319f" x="95.651109" y="359.104148" style="fill: #1f77b4; stroke: #1f77b4"/>
     <use xlink:href="#m7f78d1319f" x="104.980507" y="321.135796" style="fill: #1f77b4; stroke: #1f77b4"/>
     <use xlink:href="#m7f78d1319f" x="114.309905" y="312.276514" style="fill: #1f77b4; stroke: #1f77b4"/>
     <use xlink:href="#m7f78d1319f" x="123.639303" y="293.292338" style="fill: #1f77b4; stroke: #1f77b4"/>
     <use xlink:href="#m7f78d1319f" x="132.968701" y="274.308161" style="fill: #1f77b4; stroke: #1f77b4"/>
     <use xlink:href="#m7f78d1319f" x="142.298098" y="246.464703" style="fill: #1f77b4; stroke: #1f77b4"/>
     <use xlink:href="#m7f78d1319f" x="151.627496" y="235.074197" style="fill: #1f77b4; stroke: #1f77b4"/>
     <use xlink:href="#m7f78d1319f" x="160.956894" y="203.433904" style="fill: #1f77b4; stroke: #1f77b4"/>
     <use xlink:href="#m7f78d1319f" x="170.286292" y="192.043398" style="fill: #1f77b4; stroke: #1f77b4"/>
     <use xlink:href="#m7f78d1319f" x="179.61569" y="157.871881" style="fill: #1f77b4; stroke: #1f77b4"/>
     <use xlink:href="#m7f78d1319f" x="188.945087" y="137.622093" style="fill: #1f77b4; stroke: #1f77b4"/>
     <use xlink:href="#m7f78d1319f" x="198.274485" y="78.138341" style="fill: #1f77b4; stroke: #1f77b4"/>
     <use xlink:href="#m7f78d1319f" x="226.262679" y="78.138341" style="fill: #1f77b4; stroke: #1f77b4"/>
     <use xlink:href="#m7f78d1319f" x="235.592076" y="78.138341" style="fill: #1f77b4; stroke: #1f77b4"/>
     <use xlink:href="#m7f78d1319f" x="244.921474" y="78.138341" style="fill: #1f77b4; stroke: #1f77b4"/>
     <use xlink:href="#m7f78d1319f" x="254.250872" y="78.138341" style="fill: #1f77b4; stroke: #1f77b4"/>
     <use xlink:href="#m7f78d1319f" x="263.58027" y="78.138341" style="fill: #1f77b4; stroke: #1f77b4"/>
     <use xlink:href="#m7f78d1319f" x="282.239065" y="78.138341" style="fill: #1f77b4; stroke: #1f77b4"/>
     <use xlink:href="#m7f78d1319f" x="291.568463" y="78.138341" style="fill: #1f77b4; stroke: #1f77b4"/>
     <use xlink:href="#m7f78d1319f" x="300.897861" y="78.138341" style="fill: #1f77b4; stroke: #1f77b4"/>
     <use xlink:href="#m7f78d1319f" x="310.227259" y="78.138341" style="fill: #1f77b4; stroke: #1f77b4"/>
     <use xlink:href="#m7f78d1319f" x="319.556656" y="78.138341" style="fill: #1f77b4; stroke: #1f77b4"/>
     <use xlink:href="#m7f78d1319f" x="328.886054" y="59.154165" style="fill: #1f77b4; stroke: #1f77b4"/>
     <use xlink:href="#m7f78d1319f" x="338.215452" y="59.154165" style="fill: #1f77b4; stroke: #1f77b4"/>
     <use xlink:href="#m7f78d1319f" x="347.54485" y="59.154165" style="fill: #1f77b4; stroke: #1f77b4"/>
     <use xlink:href="#m7f78d1319f" x="356.874248" y="59.154165" style="fill: #1f77b4; stroke: #1f77b4"/>
     <use xlink:href="#m7f78d1319f" x="366.203645" y="59.154165" style="fill: #1f77b4; stroke: #1f77b4"/>
     <use xlink:href="#m7f78d1319f" x="375.533043" y="46.498047" style="fill: #1f77b4; stroke: #1f77b4"/>
     <use xlink:href="#m7f78d1319f" x="384.862441" y="46.498047" style="fill: #1f77b4; stroke: #1f77b4"/>
     <use xlink:href="#m7f78d1319f" x="394.191839" y="46.498047" style="fill: #1f77b4; stroke: #1f77b4"/>
     <use xlink:href="#m7f78d1319f" x="403.521237" y="46.498047" style="fill: #1f77b4; stroke: #1f77b4"/>
     <use xlink:href="#m7f78d1319f" x="412.850634" y="46.498047" style="fill: #1f77b4; stroke: #1f77b4"/>
     <use xlink:href="#m7f78d1319f" x="422.180032" y="46.498047" style="fill: #1f77b4; stroke: #1f77b4"/>
     <use xlink:href="#m7f78d1319f" x="431.50943" y="46.498047" style="fill: #1f77b4; stroke: #1f77b4"/>
     <use xlink:href="#m7f78d1319f" x="440.838828" y="46.498047" style="fill: #1f77b4; stroke: #1f77b4"/>
     <use xlink:href="#m7f78d1319f" x="450.168226" y="46.498047" style="fill: #1f77b4; stroke: #1f77b4"/>
     <use xlink:href="#m7f78d1319f" x="459.497623" y="46.498047" style="fill: #1f77b4; stroke: #1f77b4"/>
     <use xlink:href="#m7f78d1319f" x="468.827021" y="46.498047" style="fill: #1f77b4; stroke: #1f77b4"/>
     <use xlink:href="#m7f78d1319f" x="478.156419" y="46.498047" style="fill: #1f77b4; stroke: #1f77b4"/>
     <use xlink:href="#m7f78d1319f" x="487.485817" y="46.498047" style="fill: #1f77b4; stroke: #1f77b4"/>
     <use xlink:href="#m7f78d1319f" x="496.815215" y="46.498047" style="fill: #1f77b4; stroke: #1f77b4"/>
     <use xlink:href="#m7f78d1319f" x="506.144612" y="46.498047" style="fill: #1f77b4; stroke: #1f77b4"/>
     <use xlink:href="#m7f78d1319f" x="515.47401" y="46.498047" style="fill: #1f77b4; stroke: #1f77b4"/>
     <use xlink:href="#m7f78d1319f" x="524.803408" y="46.498047" style="fill: #1f77b4; stroke: #1f77b4"/>
     <use xlink:href="#m7f78d1319f" x="534.132806" y="46.498047" style="fill: #1f77b4; stroke: #1f77b4"/>
     <use xlink:href="#m7f78d1319f" x="543.462203" y="46.498047" style="fill: #1f77b4; stroke: #1f77b4"/>
     <use xlink:href="#m7f78d1319f" x="552.791601" y="46.498047" style="fill: #1f77b4; stroke: #1f77b4"/>
     <use xlink:href="#m7f78d1319f" x="562.120999" y="46.498047" style="fill: #1f77b4; stroke: #1f77b4"/>
     <use xlink:href="#m7f78d1319f" x="571.450397" y="46.498047" style="fill: #1f77b4; stroke: #1f77b4"/>
     <use xlink:href="#m7f78d1319f" x="580.779795" y="46.498047" style="fill: #1f77b4; stroke: #1f77b4"/>
     <use xlink:href="#m7f78d1319f" x="590.109192" y="46.498047" style="fill: #1f77b4; stroke: #1f77b4"/>
     <use xlink:href="#m7f78d1319f" x="599.43859" y="46.498047" style="fill: #1f77b4; stroke: #1f77b4"/>
     <use xlink:href="#m7f78d1319f" x="608.767988" y="46.498047" style="fill: #1f77b4; stroke: #1f77b4"/>
     <use xlink:href="#m7f78d1319f" x="618.097386" y="46.498047" style="fill: #1f77b4; stroke: #1f77b4"/>
     <use xlink:href="#m7f78d1319f" x="627.426784" y="46.498047" style="fill: #1f77b4; stroke: #1f77b4"/>
     <use xlink:href="#m7f78d1319f" x="636.756181" y="46.498047" style="fill: #1f77b4; stroke: #1f77b4"/>
     <use xlink:href="#m7f78d1319f" x="646.085579" y="46.498047" style="fill: #1f77b4; stroke: #1f77b4"/>
     <use xlink:href="#m7f78d1319f" x="655.414977" y="46.498047" style="fill: #1f77b4; stroke: #1f77b4"/>
     <use xlink:href="#m7f78d1319f" x="664.744375" y="46.498047" style="fill: #1f77b4; stroke: #1f77b4"/>
     <use xlink:href="#m7f78d1319f" x="674.073773" y="46.498047" style="fill: #1f77b4; stroke: #1f77b4"/>
     <use xlink:href="#m7f78d1319f" x="683.40317" y="46.498047" style="fill: #1f77b4; stroke: #1f77b4"/>
     <use xlink:href="#m7f78d1319f" x="692.732568" y="46.498047" style="fill: #1f77b4; stroke: #1f77b4"/>
     <use xlink:href="#m7f78d1319f" x="702.061966" y="46.498047" style="fill: #1f77b4; stroke: #1f77b4"/>
     <use xlink:href="#m7f78d1319f" x="711.391364" y="46.498047" style="fill: #1f77b4; stroke: #1f77b4"/>
     <use xlink:href="#m7f78d1319f" x="720.720762" y="46.498047" style="fill: #1f77b4; stroke: #1f77b4"/>
     <use xlink:href="#m7f78d1319f" x="730.050159" y="46.498047" style="fill: #1f77b4; stroke: #1f77b4"/>
     <use xlink:href="#m7f78d1319f" x="739.379557" y="46.498047" style="fill: #1f77b4; stroke: #1f77b4"/>
     <use xlink:href="#m7f78d1319f" x="748.708955" y="46.498047" style="fill: #1f77b4; stroke: #1f77b4"/>
     <use xlink:href="#m7f78d1319f" x="758.038353" y="46.498047" style="fill: #1f77b4; stroke: #1f77b4"/>
     <use xlink:href="#m7f78d1319f" x="767.367751" y="46.498047" style="fill: #1f77b4; stroke: #1f77b4"/>
     <use xlink:href="#m7f78d1319f" x="776.697148" y="46.498047" style="fill: #1f77b4; stroke: #1f77b4"/>
     <use xlink:href="#m7f78d1319f" x="786.026546" y="46.498047" style="fill: #1f77b4; stroke: #1f77b4"/>
     <use xlink:href="#m7f78d1319f" x="795.355944" y="46.498047" style="fill: #1f77b4; stroke: #1f77b4"/>
    </g>
   </g>
   <g id="line2d_26">
    <path d="M 86.321712 380.771839 
L 95.651109 359.25644 
L 104.980507 340.272264 
L 114.309905 333.944205 
L 123.639303 327.616146 
L 132.968701 303.569523 
L 142.298098 292.179017 
L 151.627496 285.850959 
L 160.956894 254.210665 
L 170.286292 216.242313 
L 179.61569 190.930078 
L 188.945087 177.008349 
L 198.274485 130.180714 
L 226.262679 130.180714 
L 235.592076 130.180714 
L 244.921474 130.180714 
L 254.250872 130.180714 
L 263.58027 130.180714 
L 282.239065 130.180714 
L 291.568463 130.180714 
L 300.897861 130.180714 
L 310.227259 130.180714 
L 319.556656 130.180714 
L 328.886054 111.196538 
L 338.215452 111.196538 
L 347.54485 111.196538 
L 356.874248 111.196538 
L 366.203645 111.196538 
L 375.533043 79.556244 
L 384.862441 79.556244 
L 394.191839 79.556244 
L 403.521237 79.556244 
L 412.850634 79.556244 
L 422.180032 79.556244 
L 431.50943 79.556244 
L 440.838828 79.556244 
L 450.168226 79.556244 
L 459.497623 79.556244 
L 468.827021 79.556244 
L 478.156419 79.556244 
L 487.485817 79.556244 
L 496.815215 79.556244 
L 506.144612 79.556244 
L 515.47401 79.556244 
L 524.803408 79.556244 
L 534.132806 79.556244 
L 543.462203 79.556244 
L 552.791601 79.556244 
L 562.120999 79.556244 
L 571.450397 79.556244 
L 580.779795 79.556244 
L 590.109192 79.556244 
L 599.43859 79.556244 
L 608.767988 79.556244 
L 618.097386 79.556244 
L 627.426784 79.556244 
L 636.756181 79.556244 
L 646.085579 79.556244 
L 655.414977 79.556244 
L 664.744375 79.556244 
L 674.073773 79.556244 
L 683.40317 79.556244 
L 692.732568 79.556244 
L 702.061966 79.556244 
L 711.391364 79.556244 
L 720.720762 79.556244 
L 730.050159 79.556244 
L 739.379557 79.556244 
L 748.708955 79.556244 
L 758.038353 79.556244 
L 767.367751 79.556244 
L 776.697148 79.556244 
L 786.026546 79.556244 
L 795.355944 79.556244 
" clip-path="url(#p40861e3492)" style="fill: none; stroke: #ff7f0e; stroke-width: 1.5; stroke-linecap: square"/>
    <defs>
     <path id="me50535ce2c" d="M 0 3.5 
C 0.928211 3.5 1.81853 3.131218 2.474874 2.474874 
C 3.131218 1.81853 3.5 0.928211 3.5 0 
C 3.5 -0.928211 3.131218 -1.81853 2.474874 -2.474874 
C 1.81853 -3.131218 0.928211 -3.5 0 -3.5 
C -0.928211 -3.5 -1.81853 -3.131218 -2.474874 -2.474874 
C -3.131218 -1.81853 -3.5 -0.928211 -3.5 0 
C -3.5 0.928211 -3.131218 1.81853 -2.474874 2.474874 
C -1.81853 3.131218 -0.928211 3.5 0 3.5 
z
" style="stroke: #ff7f0e"/>
    </defs>
    <g clip-path="url(#p40861e3492)">
     <use xlink:href="#me50535ce2c" x="86.321712" y="380.771839" style="fill: #ff7f0e; stroke: #ff7f0e"/>
     <use xlink:href="#me50535ce2c" x="95.651109" y="359.25644" style="fill: #ff7f0e; stroke: #ff7f0e"/>
     <use xlink:href="#me50535ce2c" x="104.980507" y="340.272264" style="fill: #ff7f0e; stroke: #ff7f0e"/>
     <use xlink:href="#me50535ce2c" x="114.309905" y="333.944205" style="fill: #ff7f0e; stroke: #ff7f0e"/>
     <use xlink:href="#me50535ce2c" x="123.639303" y="327.616146" style="fill: #ff7f0e; stroke: #ff7f0e"/>
     <use xlink:href="#me50535ce2c" x="132.968701" y="303.569523" style="fill: #ff7f0e; stroke: #ff7f0e"/>
     <use xlink:href="#me50535ce2c" x="142.298098" y="292.179017" style="fill: #ff7f0e; stroke: #ff7f0e"/>
     <use xlink:href="#me50535ce2c" x="151.627496" y="285.850959" style="fill: #ff7f0e; stroke: #ff7f0e"/>
     <use xlink:href="#me50535ce2c" x="160.956894" y="254.210665" style="fill: #ff7f0e; stroke: #ff7f0e"/>
     <use xlink:href="#me50535ce2c" x="170.286292" y="216.242313" style="fill: #ff7f0e; stroke: #ff7f0e"/>
     <use xlink:href="#me50535ce2c" x="179.61569" y="190.930078" style="fill: #ff7f0e; stroke: #ff7f0e"/>
     <use xlink:href="#me50535ce2c" x="188.945087" y="177.008349" style="fill: #ff7f0e; stroke: #ff7f0e"/>
     <use xlink:href="#me50535ce2c" x="198.274485" y="130.180714" style="fill: #ff7f0e; stroke: #ff7f0e"/>
     <use xlink:href="#me50535ce2c" x="226.262679" y="130.180714" style="fill: #ff7f0e; stroke: #ff7f0e"/>
     <use xlink:href="#me50535ce2c" x="235.592076" y="130.180714" style="fill: #ff7f0e; stroke: #ff7f0e"/>
     <use xlink:href="#me50535ce2c" x="244.921474" y="130.180714" style="fill: #ff7f0e; stroke: #ff7f0e"/>
     <use xlink:href="#me50535ce2c" x="254.250872" y="130.180714" style="fill: #ff7f0e; stroke: #ff7f0e"/>
     <use xlink:href="#me50535ce2c" x="263.58027" y="130.180714" style="fill: #ff7f0e; stroke: #ff7f0e"/>
     <use xlink:href="#me50535ce2c" x="282.239065" y="130.180714" style="fill: #ff7f0e; stroke: #ff7f0e"/>
     <use xlink:href="#me50535ce2c" x="291.568463" y="130.180714" style="fill: #ff7f0e; stroke: #ff7f0e"/>
     <use xlink:href="#me50535ce2c" x="300.897861" y="130.180714" style="fill: #ff7f0e; stroke: #ff7f0e"/>
     <use xlink:href="#me50535ce2c" x="310.227259" y="130.180714" style="fill: #ff7f0e; stroke: #ff7f0e"/>
     <use xlink:href="#me50535ce2c" x="319.556656" y="130.180714" style="fill: #ff7f0e; stroke: #ff7f0e"/>
     <use xlink:href="#me50535ce2c" x="328.886054" y="111.196538" style="fill: #ff7f0e; stroke: #ff7f0e"/>
     <use xlink:href="#me50535ce2c" x="338.215452" y="111.196538" style="fill: #ff7f0e; stroke: #ff7f0e"/>
     <use xlink:href="#me50535ce2c" x="347.54485" y="111.196538" style="fill: #ff7f0e; stroke: #ff7f0e"/>
     <use xlink:href="#me50535ce2c" x="356.874248" y="111.196538" style="fill: #ff7f0e; stroke: #ff7f0e"/>
     <use xlink:href="#me50535ce2c" x="366.203645" y="111.196538" style="fill: #ff7f0e; stroke: #ff7f0e"/>
     <use xlink:href="#me50535ce2c" x="375.533043" y="79.556244" style="fill: #ff7f0e; stroke: #ff7f0e"/>
     <use xlink:href="#me50535ce2c" x="384.862441" y="79.556244" style="fill: #ff7f0e; stroke: #ff7f0e"/>
     <use xlink:href="#me50535ce2c" x="394.191839" y="79.556244" style="fill: #ff7f0e; stroke: #ff7f0e"/>
     <use xlink:href="#me50535ce2c" x="403.521237" y="79.556244" style="fill: #ff7f0e; stroke: #ff7f0e"/>
     <use xlink:href="#me50535ce2c" x="412.850634" y="79.556244" style="fill: #ff7f0e; stroke: #ff7f0e"/>
     <use xlink:href="#me50535ce2c" x="422.180032" y="79.556244" style="fill: #ff7f0e; stroke: #ff7f0e"/>
     <use xlink:href="#me50535ce2c" x="431.50943" y="79.556244" style="fill: #ff7f0e; stroke: #ff7f0e"/>
     <use xlink:href="#me50535ce2c" x="440.838828" y="79.556244" style="fill: #ff7f0e; stroke: #ff7f0e"/>
     <use xlink:href="#me50535ce2c" x="450.168226" y="79.556244" style="fill: #ff7f0e; stroke: #ff7f0e"/>
     <use xlink:href="#me50535ce2c" x="459.497623" y="79.556244" style="fill: #ff7f0e; stroke: #ff7f0e"/>
     <use xlink:href="#me50535ce2c" x="468.827021" y="79.556244" style="fill: #ff7f0e; stroke: #ff7f0e"/>
     <use xlink:href="#me50535ce2c" x="478.156419" y="79.556244" style="fill: #ff7f0e; stroke: #ff7f0e"/>
     <use xlink:href="#me50535ce2c" x="487.485817" y="79.556244" style="fill: #ff7f0e; stroke: #ff7f0e"/>
     <use xlink:href="#me50535ce2c" x="496.815215" y="79.556244" style="fill: #ff7f0e; stroke: #ff7f0e"/>
     <use xlink:href="#me50535ce2c" x="506.144612" y="79.556244" style="fill: #ff7f0e; stroke: #ff7f0e"/>
     <use xlink:href="#me50535ce2c" x="515.47401" y="79.556244" style="fill: #ff7f0e; stroke: #ff7f0e"/>
     <use xlink:href="#me50535ce2c" x="524.803408" y="79.556244" style="fill: #ff7f0e; stroke: #ff7f0e"/>
     <use xlink:href="#me50535ce2c" x="534.132806" y="79.556244" style="fill: #ff7f0e; stroke: #ff7f0e"/>
     <use xlink:href="#me50535ce2c" x="543.462203" y="79.556244" style="fill: #ff7f0e; stroke: #ff7f0e"/>
     <use xlink:href="#me50535ce2c" x="552.791601" y="79.556244" style="fill: #ff7f0e; stroke: #ff7f0e"/>
     <use xlink:href="#me50535ce2c" x="562.120999" y="79.556244" style="fill: #ff7f0e; stroke: #ff7f0e"/>
     <use xlink:href="#me50535ce2c" x="571.450397" y="79.556244" style="fill: #ff7f0e; stroke: #ff7f0e"/>
     <use xlink:href="#me50535ce2c" x="580.779795" y="79.556244" style="fill: #ff7f0e; stroke: #ff7f0e"/>
     <use xlink:href="#me50535ce2c" x="590.109192" y="79.556244" style="fill: #ff7f0e; stroke: #ff7f0e"/>
     <use xlink:href="#me50535ce2c" x="599.43859" y="79.556244" style="fill: #ff7f0e; stroke: #ff7f0e"/>
     <use xlink:href="#me50535ce2c" x="608.767988" y="79.556244" style="fill: #ff7f0e; stroke: #ff7f0e"/>
     <use xlink:href="#me50535ce2c" x="618.097386" y="79.556244" style="fill: #ff7f0e; stroke: #ff7f0e"/>
     <use xlink:href="#me50535ce2c" x="627.426784" y="79.556244" style="fill: #ff7f0e; stroke: #ff7f0e"/>
     <use xlink:href="#me50535ce2c" x="636.756181" y="79.556244" style="fill: #ff7f0e; stroke: #ff7f0e"/>
     <use xlink:href="#me50535ce2c" x="646.085579" y="79.556244" style="fill: #ff7f0e; stroke: #ff7f0e"/>
     <use xlink:href="#me50535ce2c" x="655.414977" y="79.556244" style="fill: #ff7f0e; stroke: #ff7f0e"/>
     <use xlink:href="#me50535ce2c" x="664.744375" y="79.556244" style="fill: #ff7f0e; stroke: #ff7f0e"/>
     <use xlink:href="#me50535ce2c" x="674.073773" y="79.556244" style="fill: #ff7f0e; stroke: #ff7f0e"/>
     <use xlink:href="#me50535ce2c" x="683.40317" y="79.556244" style="fill: #ff7f0e; stroke: #ff7f0e"/>
     <use xlink:href="#me50535ce2c" x="692.732568" y="79.556244" style="fill: #ff7f0e; stroke: #ff7f0e"/>
     <use xlink:href="#me50535ce2c" x="702.061966" y="79.556244" style="fill: #ff7f0e; stroke: #ff7f0e"/>
     <use xlink:href="#me50535ce2c" x="711.391364" y="79.556244" style="fill: #ff7f0e; stroke: #ff7f0e"/>
     <use xlink:href="#me50535ce2c" x="720.720762" y="79.556244" style="fill: #ff7f0e; stroke: #ff7f0e"/>
     <use xlink:href="#me50535ce2c" x="730.050159" y="79.556244" style="fill: #ff7f0e; stroke: #ff7f0e"/>
     <use xlink:href="#me50535ce2c" x="739.379557" y="79.556244" style="fill: #ff7f0e; stroke: #ff7f0e"/>
     <use xlink:href="#me50535ce2c" x="748.708955" y="79.556244" style="fill: #ff7f0e; stroke: #ff7f0e"/>
     <use xlink:href="#me50535ce2c" x="758.038353" y="79.556244" style="fill: #ff7f0e; stroke: #ff7f0e"/>
     <use xlink:href="#me50535ce2c" x="767.367751" y="79.556244" style="fill: #ff7f0e; stroke: #ff7f0e"/>
     <use xlink:href="#me50535ce2c" x="776.697148" y="79.556244" style="fill: #ff7f0e; stroke: #ff7f0e"/>
     <use xlink:href="#me50535ce2c" x="786.026546" y="79.556244" style="fill: #ff7f0e; stroke: #ff7f0e"/>
     <use xlink:href="#me50535ce2c" x="795.355944" y="79.556244" style="fill: #ff7f0e; stroke: #ff7f0e"/>
    </g>
   </g>
   <g id="line2d_27">
    <path d="M 86.321712 380.779202 
L 95.651109 355.466967 
L 104.980507 331.420344 
L 114.309905 318.764226 
L 123.639303 293.451991 
L 132.968701 271.936592 
L 142.298098 250.421192 
L 151.627496 212.45284 
L 160.956894 190.93744 
L 170.286292 182.078158 
L 179.61569 154.234699 
L 188.945087 142.844194 
L 198.274485 99.813394 
L 226.262679 99.813394 
L 235.592076 99.813394 
L 244.921474 99.813394 
L 254.250872 99.813394 
L 263.58027 99.813394 
L 282.239065 99.813394 
L 291.568463 99.813394 
L 300.897861 99.813394 
L 310.227259 99.813394 
L 319.556656 99.813394 
L 328.886054 80.829218 
L 338.215452 80.829218 
L 347.54485 80.829218 
L 356.874248 80.829218 
L 366.203645 80.829218 
L 375.533043 80.829218 
L 384.862441 80.829218 
L 394.191839 80.829218 
L 403.521237 80.829218 
L 412.850634 80.829218 
L 422.180032 80.829218 
L 431.50943 80.829218 
L 440.838828 80.829218 
L 450.168226 80.829218 
L 459.497623 80.829218 
L 468.827021 80.829218 
L 478.156419 80.829218 
L 487.485817 80.829218 
L 496.815215 80.829218 
L 506.144612 80.829218 
L 515.47401 80.829218 
L 524.803408 80.829218 
L 534.132806 80.829218 
L 543.462203 80.829218 
L 552.791601 80.829218 
L 562.120999 80.829218 
L 571.450397 80.829218 
L 580.779795 80.829218 
L 590.109192 80.829218 
L 599.43859 80.829218 
L 608.767988 80.829218 
L 618.097386 80.829218 
L 627.426784 80.829218 
L 636.756181 80.829218 
L 646.085579 80.829218 
L 655.414977 80.829218 
L 664.744375 80.829218 
L 674.073773 80.829218 
L 683.40317 80.829218 
L 692.732568 80.829218 
L 702.061966 80.829218 
L 711.391364 80.829218 
L 720.720762 80.829218 
L 730.050159 80.829218 
L 739.379557 80.829218 
L 748.708955 80.829218 
L 758.038353 80.829218 
L 767.367751 80.829218 
L 776.697148 80.829218 
L 786.026546 80.829218 
L 795.355944 80.829218 
" clip-path="url(#p40861e3492)" style="fill: none; stroke: #2ca02c; stroke-width: 1.5; stroke-linecap: square"/>
    <defs>
     <path id="m5ba9229320" d="M 0 3.5 
C 0.928211 3.5 1.81853 3.131218 2.474874 2.474874 
C 3.131218 1.81853 3.5 0.928211 3.5 0 
C 3.5 -0.928211 3.131218 -1.81853 2.474874 -2.474874 
C 1.81853 -3.131218 0.928211 -3.5 0 -3.5 
C -0.928211 -3.5 -1.81853 -3.131218 -2.474874 -2.474874 
C -3.131218 -1.81853 -3.5 -0.928211 -3.5 0 
C -3.5 0.928211 -3.131218 1.81853 -2.474874 2.474874 
C -1.81853 3.131218 -0.928211 3.5 0 3.5 
z
" style="stroke: #2ca02c"/>
    </defs>
    <g clip-path="url(#p40861e3492)">
     <use xlink:href="#m5ba9229320" x="86.321712" y="380.779202" style="fill: #2ca02c; stroke: #2ca02c"/>
     <use xlink:href="#m5ba9229320" x="95.651109" y="355.466967" style="fill: #2ca02c; stroke: #2ca02c"/>
     <use xlink:href="#m5ba9229320" x="104.980507" y="331.420344" style="fill: #2ca02c; stroke: #2ca02c"/>
     <use xlink:href="#m5ba9229320" x="114.309905" y="318.764226" style="fill: #2ca02c; stroke: #2ca02c"/>
     <use xlink:href="#m5ba9229320" x="123.639303" y="293.451991" style="fill: #2ca02c; stroke: #2ca02c"/>
     <use xlink:href="#m5ba9229320" x="132.968701" y="271.936592" style="fill: #2ca02c; stroke: #2ca02c"/>
     <use xlink:href="#m5ba9229320" x="142.298098" y="250.421192" style="fill: #2ca02c; stroke: #2ca02c"/>
     <use xlink:href="#m5ba9229320" x="151.627496" y="212.45284" style="fill: #2ca02c; stroke: #2ca02c"/>
     <use xlink:href="#m5ba9229320" x="160.956894" y="190.93744" style="fill: #2ca02c; stroke: #2ca02c"/>
     <use xlink:href="#m5ba9229320" x="170.286292" y="182.078158" style="fill: #2ca02c; stroke: #2ca02c"/>
     <use xlink:href="#m5ba9229320" x="179.61569" y="154.234699" style="fill: #2ca02c; stroke: #2ca02c"/>
     <use xlink:href="#m5ba9229320" x="188.945087" y="142.844194" style="fill: #2ca02c; stroke: #2ca02c"/>
     <use xlink:href="#m5ba9229320" x="198.274485" y="99.813394" style="fill: #2ca02c; stroke: #2ca02c"/>
     <use xlink:href="#m5ba9229320" x="226.262679" y="99.813394" style="fill: #2ca02c; stroke: #2ca02c"/>
     <use xlink:href="#m5ba9229320" x="235.592076" y="99.813394" style="fill: #2ca02c; stroke: #2ca02c"/>
     <use xlink:href="#m5ba9229320" x="244.921474" y="99.813394" style="fill: #2ca02c; stroke: #2ca02c"/>
     <use xlink:href="#m5ba9229320" x="254.250872" y="99.813394" style="fill: #2ca02c; stroke: #2ca02c"/>
     <use xlink:href="#m5ba9229320" x="263.58027" y="99.813394" style="fill: #2ca02c; stroke: #2ca02c"/>
     <use xlink:href="#m5ba9229320" x="282.239065" y="99.813394" style="fill: #2ca02c; stroke: #2ca02c"/>
     <use xlink:href="#m5ba9229320" x="291.568463" y="99.813394" style="fill: #2ca02c; stroke: #2ca02c"/>
     <use xlink:href="#m5ba9229320" x="300.897861" y="99.813394" style="fill: #2ca02c; stroke: #2ca02c"/>
     <use xlink:href="#m5ba9229320" x="310.227259" y="99.813394" style="fill: #2ca02c; stroke: #2ca02c"/>
     <use xlink:href="#m5ba9229320" x="319.556656" y="99.813394" style="fill: #2ca02c; stroke: #2ca02c"/>
     <use xlink:href="#m5ba9229320" x="328.886054" y="80.829218" style="fill: #2ca02c; stroke: #2ca02c"/>
     <use xlink:href="#m5ba9229320" x="338.215452" y="80.829218" style="fill: #2ca02c; stroke: #2ca02c"/>
     <use xlink:href="#m5ba9229320" x="347.54485" y="80.829218" style="fill: #2ca02c; stroke: #2ca02c"/>
     <use xlink:href="#m5ba9229320" x="356.874248" y="80.829218" style="fill: #2ca02c; stroke: #2ca02c"/>
     <use xlink:href="#m5ba9229320" x="366.203645" y="80.829218" style="fill: #2ca02c; stroke: #2ca02c"/>
     <use xlink:href="#m5ba9229320" x="375.533043" y="80.829218" style="fill: #2ca02c; stroke: #2ca02c"/>
     <use xlink:href="#m5ba9229320" x="384.862441" y="80.829218" style="fill: #2ca02c; stroke: #2ca02c"/>
     <use xlink:href="#m5ba9229320" x="394.191839" y="80.829218" style="fill: #2ca02c; stroke: #2ca02c"/>
     <use xlink:href="#m5ba9229320" x="403.521237" y="80.829218" style="fill: #2ca02c; stroke: #2ca02c"/>
     <use xlink:href="#m5ba9229320" x="412.850634" y="80.829218" style="fill: #2ca02c; stroke: #2ca02c"/>
     <use xlink:href="#m5ba9229320" x="422.180032" y="80.829218" style="fill: #2ca02c; stroke: #2ca02c"/>
     <use xlink:href="#m5ba9229320" x="431.50943" y="80.829218" style="fill: #2ca02c; stroke: #2ca02c"/>
     <use xlink:href="#m5ba9229320" x="440.838828" y="80.829218" style="fill: #2ca02c; stroke: #2ca02c"/>
     <use xlink:href="#m5ba9229320" x="450.168226" y="80.829218" style="fill: #2ca02c; stroke: #2ca02c"/>
     <use xlink:href="#m5ba9229320" x="459.497623" y="80.829218" style="fill: #2ca02c; stroke: #2ca02c"/>
     <use xlink:href="#m5ba9229320" x="468.827021" y="80.829218" style="fill: #2ca02c; stroke: #2ca02c"/>
     <use xlink:href="#m5ba9229320" x="478.156419" y="80.829218" style="fill: #2ca02c; stroke: #2ca02c"/>
     <use xlink:href="#m5ba9229320" x="487.485817" y="80.829218" style="fill: #2ca02c; stroke: #2ca02c"/>
     <use xlink:href="#m5ba9229320" x="496.815215" y="80.829218" style="fill: #2ca02c; stroke: #2ca02c"/>
     <use xlink:href="#m5ba9229320" x="506.144612" y="80.829218" style="fill: #2ca02c; stroke: #2ca02c"/>
     <use xlink:href="#m5ba9229320" x="515.47401" y="80.829218" style="fill: #2ca02c; stroke: #2ca02c"/>
     <use xlink:href="#m5ba9229320" x="524.803408" y="80.829218" style="fill: #2ca02c; stroke: #2ca02c"/>
     <use xlink:href="#m5ba9229320" x="534.132806" y="80.829218" style="fill: #2ca02c; stroke: #2ca02c"/>
     <use xlink:href="#m5ba9229320" x="543.462203" y="80.829218" style="fill: #2ca02c; stroke: #2ca02c"/>
     <use xlink:href="#m5ba9229320" x="552.791601" y="80.829218" style="fill: #2ca02c; stroke: #2ca02c"/>
     <use xlink:href="#m5ba9229320" x="562.120999" y="80.829218" style="fill: #2ca02c; stroke: #2ca02c"/>
     <use xlink:href="#m5ba9229320" x="571.450397" y="80.829218" style="fill: #2ca02c; stroke: #2ca02c"/>
     <use xlink:href="#m5ba9229320" x="580.779795" y="80.829218" style="fill: #2ca02c; stroke: #2ca02c"/>
     <use xlink:href="#m5ba9229320" x="590.109192" y="80.829218" style="fill: #2ca02c; stroke: #2ca02c"/>
     <use xlink:href="#m5ba9229320" x="599.43859" y="80.829218" style="fill: #2ca02c; stroke: #2ca02c"/>
     <use xlink:href="#m5ba9229320" x="608.767988" y="80.829218" style="fill: #2ca02c; stroke: #2ca02c"/>
     <use xlink:href="#m5ba9229320" x="618.097386" y="80.829218" style="fill: #2ca02c; stroke: #2ca02c"/>
     <use xlink:href="#m5ba9229320" x="627.426784" y="80.829218" style="fill: #2ca02c; stroke: #2ca02c"/>
     <use xlink:href="#m5ba9229320" x="636.756181" y="80.829218" style="fill: #2ca02c; stroke: #2ca02c"/>
     <use xlink:href="#m5ba9229320" x="646.085579" y="80.829218" style="fill: #2ca02c; stroke: #2ca02c"/>
     <use xlink:href="#m5ba9229320" x="655.414977" y="80.829218" style="fill: #2ca02c; stroke: #2ca02c"/>
     <use xlink:href="#m5ba9229320" x="664.744375" y="80.829218" style="fill: #2ca02c; stroke: #2ca02c"/>
     <use xlink:href="#m5ba9229320" x="674.073773" y="80.829218" style="fill: #2ca02c; stroke: #2ca02c"/>
     <use xlink:href="#m5ba9229320" x="683.40317" y="80.829218" style="fill: #2ca02c; stroke: #2ca02c"/>
     <use xlink:href="#m5ba9229320" x="692.732568" y="80.829218" style="fill: #2ca02c; stroke: #2ca02c"/>
     <use xlink:href="#m5ba9229320" x="702.061966" y="80.829218" style="fill: #2ca02c; stroke: #2ca02c"/>
     <use xlink:href="#m5ba9229320" x="711.391364" y="80.829218" style="fill: #2ca02c; stroke: #2ca02c"/>
     <use xlink:href="#m5ba9229320" x="720.720762" y="80.829218" style="fill: #2ca02c; stroke: #2ca02c"/>
     <use xlink:href="#m5ba9229320" x="730.050159" y="80.829218" style="fill: #2ca02c; stroke: #2ca02c"/>
     <use xlink:href="#m5ba9229320" x="739.379557" y="80.829218" style="fill: #2ca02c; stroke: #2ca02c"/>
     <use xlink:href="#m5ba9229320" x="748.708955" y="80.829218" style="fill: #2ca02c; stroke: #2ca02c"/>
     <use xlink:href="#m5ba9229320" x="758.038353" y="80.829218" style="fill: #2ca02c; stroke: #2ca02c"/>
     <use xlink:href="#m5ba9229320" x="767.367751" y="80.829218" style="fill: #2ca02c; stroke: #2ca02c"/>
     <use xlink:href="#m5ba9229320" x="776.697148" y="80.829218" style="fill: #2ca02c; stroke: #2ca02c"/>
     <use xlink:href="#m5ba9229320" x="786.026546" y="80.829218" style="fill: #2ca02c; stroke: #2ca02c"/>
     <use xlink:href="#m5ba9229320" x="795.355944" y="80.829218" style="fill: #2ca02c; stroke: #2ca02c"/>
    </g>
   </g>
   <g id="line2d_28">
    <path d="M 86.321712 380.679997 
L 95.651109 349.039703 
L 104.980507 317.39941 
L 114.309905 292.087175 
L 123.639303 279.431057 
L 132.968701 238.931481 
L 142.298098 214.884858 
L 151.627496 202.228741 
L 160.956894 180.713341 
L 170.286292 169.322835 
L 179.61569 135.151318 
L 188.945087 121.229589 
L 198.274485 81.995625 
L 226.262679 81.995625 
L 235.592076 81.995625 
L 244.921474 81.995625 
L 254.250872 81.995625 
L 263.58027 81.995625 
L 282.239065 81.995625 
L 291.568463 81.995625 
L 300.897861 81.995625 
L 310.227259 81.995625 
L 319.556656 81.995625 
L 328.886054 63.011449 
L 338.215452 63.011449 
L 347.54485 63.011449 
L 356.874248 63.011449 
L 366.203645 63.011449 
L 375.533043 44.027273 
L 384.862441 44.027273 
L 394.191839 44.027273 
L 403.521237 44.027273 
L 412.850634 44.027273 
L 422.180032 44.027273 
L 431.50943 44.027273 
L 440.838828 44.027273 
L 450.168226 44.027273 
L 459.497623 44.027273 
L 468.827021 44.027273 
L 478.156419 44.027273 
L 487.485817 44.027273 
L 496.815215 44.027273 
L 506.144612 44.027273 
L 515.47401 44.027273 
L 524.803408 44.027273 
L 534.132806 44.027273 
L 543.462203 44.027273 
L 552.791601 44.027273 
L 562.120999 44.027273 
L 571.450397 44.027273 
L 580.779795 44.027273 
L 590.109192 44.027273 
L 599.43859 44.027273 
L 608.767988 44.027273 
L 618.097386 44.027273 
L 627.426784 44.027273 
L 636.756181 44.027273 
L 646.085579 44.027273 
L 655.414977 44.027273 
L 664.744375 44.027273 
L 674.073773 44.027273 
L 683.40317 44.027273 
L 692.732568 44.027273 
L 702.061966 44.027273 
L 711.391364 44.027273 
L 720.720762 44.027273 
L 730.050159 44.027273 
L 739.379557 44.027273 
L 748.708955 44.027273 
L 758.038353 44.027273 
L 767.367751 44.027273 
L 776.697148 44.027273 
L 786.026546 44.027273 
L 795.355944 44.027273 
" clip-path="url(#p40861e3492)" style="fill: none; stroke: #d62728; stroke-width: 1.5; stroke-linecap: square"/>
    <defs>
     <path id="m3703dc1fc8" d="M 0 3.5 
C 0.928211 3.5 1.81853 3.131218 2.474874 2.474874 
C 3.131218 1.81853 3.5 0.928211 3.5 0 
C 3.5 -0.928211 3.131218 -1.81853 2.474874 -2.474874 
C 1.81853 -3.131218 0.928211 -3.5 0 -3.5 
C -0.928211 -3.5 -1.81853 -3.131218 -2.474874 -2.474874 
C -3.131218 -1.81853 -3.5 -0.928211 -3.5 0 
C -3.5 0.928211 -3.131218 1.81853 -2.474874 2.474874 
C -1.81853 3.131218 -0.928211 3.5 0 3.5 
z
" style="stroke: #d62728"/>
    </defs>
    <g clip-path="url(#p40861e3492)">
     <use xlink:href="#m3703dc1fc8" x="86.321712" y="380.679997" style="fill: #d62728; stroke: #d62728"/>
     <use xlink:href="#m3703dc1fc8" x="95.651109" y="349.039703" style="fill: #d62728; stroke: #d62728"/>
     <use xlink:href="#m3703dc1fc8" x="104.980507" y="317.39941" style="fill: #d62728; stroke: #d62728"/>
     <use xlink:href="#m3703dc1fc8" x="114.309905" y="292.087175" style="fill: #d62728; stroke: #d62728"/>
     <use xlink:href="#m3703dc1fc8" x="123.639303" y="279.431057" style="fill: #d62728; stroke: #d62728"/>
     <use xlink:href="#m3703dc1fc8" x="132.968701" y="238.931481" style="fill: #d62728; stroke: #d62728"/>
     <use xlink:href="#m3703dc1fc8" x="142.298098" y="214.884858" style="fill: #d62728; stroke: #d62728"/>
     <use xlink:href="#m3703dc1fc8" x="151.627496" y="202.228741" style="fill: #d62728; stroke: #d62728"/>
     <use xlink:href="#m3703dc1fc8" x="160.956894" y="180.713341" style="fill: #d62728; stroke: #d62728"/>
     <use xlink:href="#m3703dc1fc8" x="170.286292" y="169.322835" style="fill: #d62728; stroke: #d62728"/>
     <use xlink:href="#m3703dc1fc8" x="179.61569" y="135.151318" style="fill: #d62728; stroke: #d62728"/>
     <use xlink:href="#m3703dc1fc8" x="188.945087" y="121.229589" style="fill: #d62728; stroke: #d62728"/>
     <use xlink:href="#m3703dc1fc8" x="198.274485" y="81.995625" style="fill: #d62728; stroke: #d62728"/>
     <use xlink:href="#m3703dc1fc8" x="226.262679" y="81.995625" style="fill: #d62728; stroke: #d62728"/>
     <use xlink:href="#m3703dc1fc8" x="235.592076" y="81.995625" style="fill: #d62728; stroke: #d62728"/>
     <use xlink:href="#m3703dc1fc8" x="244.921474" y="81.995625" style="fill: #d62728; stroke: #d62728"/>
     <use xlink:href="#m3703dc1fc8" x="254.250872" y="81.995625" style="fill: #d62728; stroke: #d62728"/>
     <use xlink:href="#m3703dc1fc8" x="263.58027" y="81.995625" style="fill: #d62728; stroke: #d62728"/>
     <use xlink:href="#m3703dc1fc8" x="282.239065" y="81.995625" style="fill: #d62728; stroke: #d62728"/>
     <use xlink:href="#m3703dc1fc8" x="291.568463" y="81.995625" style="fill: #d62728; stroke: #d62728"/>
     <use xlink:href="#m3703dc1fc8" x="300.897861" y="81.995625" style="fill: #d62728; stroke: #d62728"/>
     <use xlink:href="#m3703dc1fc8" x="310.227259" y="81.995625" style="fill: #d62728; stroke: #d62728"/>
     <use xlink:href="#m3703dc1fc8" x="319.556656" y="81.995625" style="fill: #d62728; stroke: #d62728"/>
     <use xlink:href="#m3703dc1fc8" x="328.886054" y="63.011449" style="fill: #d62728; stroke: #d62728"/>
     <use xlink:href="#m3703dc1fc8" x="338.215452" y="63.011449" style="fill: #d62728; stroke: #d62728"/>
     <use xlink:href="#m3703dc1fc8" x="347.54485" y="63.011449" style="fill: #d62728; stroke: #d62728"/>
     <use xlink:href="#m3703dc1fc8" x="356.874248" y="63.011449" style="fill: #d62728; stroke: #d62728"/>
     <use xlink:href="#m3703dc1fc8" x="366.203645" y="63.011449" style="fill: #d62728; stroke: #d62728"/>
     <use xlink:href="#m3703dc1fc8" x="375.533043" y="44.027273" style="fill: #d62728; stroke: #d62728"/>
     <use xlink:href="#m3703dc1fc8" x="384.862441" y="44.027273" style="fill: #d62728; stroke: #d62728"/>
     <use xlink:href="#m3703dc1fc8" x="394.191839" y="44.027273" style="fill: #d62728; stroke: #d62728"/>
     <use xlink:href="#m3703dc1fc8" x="403.521237" y="44.027273" style="fill: #d62728; stroke: #d62728"/>
     <use xlink:href="#m3703dc1fc8" x="412.850634" y="44.027273" style="fill: #d62728; stroke: #d62728"/>
     <use xlink:href="#m3703dc1fc8" x="422.180032" y="44.027273" style="fill: #d62728; stroke: #d62728"/>
     <use xlink:href="#m3703dc1fc8" x="431.50943" y="44.027273" style="fill: #d62728; stroke: #d62728"/>
     <use xlink:href="#m3703dc1fc8" x="440.838828" y="44.027273" style="fill: #d62728; stroke: #d62728"/>
     <use xlink:href="#m3703dc1fc8" x="450.168226" y="44.027273" style="fill: #d62728; stroke: #d62728"/>
     <use xlink:href="#m3703dc1fc8" x="459.497623" y="44.027273" style="fill: #d62728; stroke: #d62728"/>
     <use xlink:href="#m3703dc1fc8" x="468.827021" y="44.027273" style="fill: #d62728; stroke: #d62728"/>
     <use xlink:href="#m3703dc1fc8" x="478.156419" y="44.027273" style="fill: #d62728; stroke: #d62728"/>
     <use xlink:href="#m3703dc1fc8" x="487.485817" y="44.027273" style="fill: #d62728; stroke: #d62728"/>
     <use xlink:href="#m3703dc1fc8" x="496.815215" y="44.027273" style="fill: #d62728; stroke: #d62728"/>
     <use xlink:href="#m3703dc1fc8" x="506.144612" y="44.027273" style="fill: #d62728; stroke: #d62728"/>
     <use xlink:href="#m3703dc1fc8" x="515.47401" y="44.027273" style="fill: #d62728; stroke: #d62728"/>
     <use xlink:href="#m3703dc1fc8" x="524.803408" y="44.027273" style="fill: #d62728; stroke: #d62728"/>
     <use xlink:href="#m3703dc1fc8" x="534.132806" y="44.027273" style="fill: #d62728; stroke: #d62728"/>
     <use xlink:href="#m3703dc1fc8" x="543.462203" y="44.027273" style="fill: #d62728; stroke: #d62728"/>
     <use xlink:href="#m3703dc1fc8" x="552.791601" y="44.027273" style="fill: #d62728; stroke: #d62728"/>
     <use xlink:href="#m3703dc1fc8" x="562.120999" y="44.027273" style="fill: #d62728; stroke: #d62728"/>
     <use xlink:href="#m3703dc1fc8" x="571.450397" y="44.027273" style="fill: #d62728; stroke: #d62728"/>
     <use xlink:href="#m3703dc1fc8" x="580.779795" y="44.027273" style="fill: #d62728; stroke: #d62728"/>
     <use xlink:href="#m3703dc1fc8" x="590.109192" y="44.027273" style="fill: #d62728; stroke: #d62728"/>
     <use xlink:href="#m3703dc1fc8" x="599.43859" y="44.027273" style="fill: #d62728; stroke: #d62728"/>
     <use xlink:href="#m3703dc1fc8" x="608.767988" y="44.027273" style="fill: #d62728; stroke: #d62728"/>
     <use xlink:href="#m3703dc1fc8" x="618.097386" y="44.027273" style="fill: #d62728; stroke: #d62728"/>
     <use xlink:href="#m3703dc1fc8" x="627.426784" y="44.027273" style="fill: #d62728; stroke: #d62728"/>
     <use xlink:href="#m3703dc1fc8" x="636.756181" y="44.027273" style="fill: #d62728; stroke: #d62728"/>
     <use xlink:href="#m3703dc1fc8" x="646.085579" y="44.027273" style="fill: #d62728; stroke: #d62728"/>
     <use xlink:href="#m3703dc1fc8" x="655.414977" y="44.027273" style="fill: #d62728; stroke: #d62728"/>
     <use xlink:href="#m3703dc1fc8" x="664.744375" y="44.027273" style="fill: #d62728; stroke: #d62728"/>
     <use xlink:href="#m3703dc1fc8" x="674.073773" y="44.027273" style="fill: #d62728; stroke: #d62728"/>
     <use xlink:href="#m3703dc1fc8" x="683.40317" y="44.027273" style="fill: #d62728; stroke: #d62728"/>
     <use xlink:href="#m3703dc1fc8" x="692.732568" y="44.027273" style="fill: #d62728; stroke: #d62728"/>
     <use xlink:href="#m3703dc1fc8" x="702.061966" y="44.027273" style="fill: #d62728; stroke: #d62728"/>
     <use xlink:href="#m3703dc1fc8" x="711.391364" y="44.027273" style="fill: #d62728; stroke: #d62728"/>
     <use xlink:href="#m3703dc1fc8" x="720.720762" y="44.027273" style="fill: #d62728; stroke: #d62728"/>
     <use xlink:href="#m3703dc1fc8" x="730.050159" y="44.027273" style="fill: #d62728; stroke: #d62728"/>
     <use xlink:href="#m3703dc1fc8" x="739.379557" y="44.027273" style="fill: #d62728; stroke: #d62728"/>
     <use xlink:href="#m3703dc1fc8" x="748.708955" y="44.027273" style="fill: #d62728; stroke: #d62728"/>
     <use xlink:href="#m3703dc1fc8" x="758.038353" y="44.027273" style="fill: #d62728; stroke: #d62728"/>
     <use xlink:href="#m3703dc1fc8" x="767.367751" y="44.027273" style="fill: #d62728; stroke: #d62728"/>
     <use xlink:href="#m3703dc1fc8" x="776.697148" y="44.027273" style="fill: #d62728; stroke: #d62728"/>
     <use xlink:href="#m3703dc1fc8" x="786.026546" y="44.027273" style="fill: #d62728; stroke: #d62728"/>
     <use xlink:href="#m3703dc1fc8" x="795.355944" y="44.027273" style="fill: #d62728; stroke: #d62728"/>
    </g>
   </g>
   <g id="line2d_29">
    <path d="M 86.321712 386.972727 
L 95.651109 361.660492 
L 104.980507 336.348257 
L 114.309905 323.69214 
L 123.639303 304.707964 
L 132.968701 283.192564 
L 142.298098 264.208388 
L 151.627496 251.552271 
L 160.956894 207.25586 
L 170.286292 200.927801 
L 179.61569 166.756284 
L 188.945087 155.365778 
L 198.274485 95.882026 
L 226.262679 95.882026 
L 235.592076 95.882026 
L 244.921474 95.882026 
L 254.250872 95.882026 
L 263.58027 95.882026 
L 282.239065 95.882026 
L 291.568463 95.882026 
L 300.897861 95.882026 
L 310.227259 95.882026 
L 319.556656 95.882026 
L 328.886054 95.882026 
L 338.215452 95.882026 
L 347.54485 95.882026 
L 356.874248 95.882026 
L 366.203645 95.882026 
L 375.533043 64.241732 
L 384.862441 64.241732 
L 394.191839 64.241732 
L 403.521237 64.241732 
L 412.850634 64.241732 
L 422.180032 64.241732 
L 431.50943 64.241732 
L 440.838828 64.241732 
L 450.168226 64.241732 
L 459.497623 64.241732 
L 468.827021 64.241732 
L 478.156419 64.241732 
L 487.485817 64.241732 
L 496.815215 64.241732 
L 506.144612 64.241732 
L 515.47401 64.241732 
L 524.803408 64.241732 
L 534.132806 64.241732 
L 543.462203 64.241732 
L 552.791601 64.241732 
L 562.120999 64.241732 
L 571.450397 64.241732 
L 580.779795 64.241732 
L 590.109192 64.241732 
L 599.43859 64.241732 
L 608.767988 64.241732 
L 618.097386 64.241732 
L 627.426784 64.241732 
L 636.756181 64.241732 
L 646.085579 64.241732 
L 655.414977 64.241732 
L 664.744375 64.241732 
L 674.073773 64.241732 
L 683.40317 64.241732 
L 692.732568 64.241732 
L 702.061966 64.241732 
L 711.391364 64.241732 
L 720.720762 64.241732 
L 730.050159 64.241732 
L 739.379557 64.241732 
L 748.708955 64.241732 
L 758.038353 64.241732 
L 767.367751 64.241732 
L 776.697148 64.241732 
L 786.026546 64.241732 
L 795.355944 64.241732 
" clip-path="url(#p40861e3492)" style="fill: none; stroke: #9467bd; stroke-width: 1.5; stroke-linecap: square"/>
    <defs>
     <path id="m15f7d72935" d="M 0 3.5 
C 0.928211 3.5 1.81853 3.131218 2.474874 2.474874 
C 3.131218 1.81853 3.5 0.928211 3.5 0 
C 3.5 -0.928211 3.131218 -1.81853 2.474874 -2.474874 
C 1.81853 -3.131218 0.928211 -3.5 0 -3.5 
C -0.928211 -3.5 -1.81853 -3.131218 -2.474874 -2.474874 
C -3.131218 -1.81853 -3.5 -0.928211 -3.5 0 
C -3.5 0.928211 -3.131218 1.81853 -2.474874 2.474874 
C -1.81853 3.131218 -0.928211 3.5 0 3.5 
z
" style="stroke: #9467bd"/>
    </defs>
    <g clip-path="url(#p40861e3492)">
     <use xlink:href="#m15f7d72935" x="86.321712" y="386.972727" style="fill: #9467bd; stroke: #9467bd"/>
     <use xlink:href="#m15f7d72935" x="95.651109" y="361.660492" style="fill: #9467bd; stroke: #9467bd"/>
     <use xlink:href="#m15f7d72935" x="104.980507" y="336.348257" style="fill: #9467bd; stroke: #9467bd"/>
     <use xlink:href="#m15f7d72935" x="114.309905" y="323.69214" style="fill: #9467bd; stroke: #9467bd"/>
     <use xlink:href="#m15f7d72935" x="123.639303" y="304.707964" style="fill: #9467bd; stroke: #9467bd"/>
     <use xlink:href="#m15f7d72935" x="132.968701" y="283.192564" style="fill: #9467bd; stroke: #9467bd"/>
     <use xlink:href="#m15f7d72935" x="142.298098" y="264.208388" style="fill: #9467bd; stroke: #9467bd"/>
     <use xlink:href="#m15f7d72935" x="151.627496" y="251.552271" style="fill: #9467bd; stroke: #9467bd"/>
     <use xlink:href="#m15f7d72935" x="160.956894" y="207.25586" style="fill: #9467bd; stroke: #9467bd"/>
     <use xlink:href="#m15f7d72935" x="170.286292" y="200.927801" style="fill: #9467bd; stroke: #9467bd"/>
     <use xlink:href="#m15f7d72935" x="179.61569" y="166.756284" style="fill: #9467bd; stroke: #9467bd"/>
     <use xlink:href="#m15f7d72935" x="188.945087" y="155.365778" style="fill: #9467bd; stroke: #9467bd"/>
     <use xlink:href="#m15f7d72935" x="198.274485" y="95.882026" style="fill: #9467bd; stroke: #9467bd"/>
     <use xlink:href="#m15f7d72935" x="226.262679" y="95.882026" style="fill: #9467bd; stroke: #9467bd"/>
     <use xlink:href="#m15f7d72935" x="235.592076" y="95.882026" style="fill: #9467bd; stroke: #9467bd"/>
     <use xlink:href="#m15f7d72935" x="244.921474" y="95.882026" style="fill: #9467bd; stroke: #9467bd"/>
     <use xlink:href="#m15f7d72935" x="254.250872" y="95.882026" style="fill: #9467bd; stroke: #9467bd"/>
     <use xlink:href="#m15f7d72935" x="263.58027" y="95.882026" style="fill: #9467bd; stroke: #9467bd"/>
     <use xlink:href="#m15f7d72935" x="282.239065" y="95.882026" style="fill: #9467bd; stroke: #9467bd"/>
     <use xlink:href="#m15f7d72935" x="291.568463" y="95.882026" style="fill: #9467bd; stroke: #9467bd"/>
     <use xlink:href="#m15f7d72935" x="300.897861" y="95.882026" style="fill: #9467bd; stroke: #9467bd"/>
     <use xlink:href="#m15f7d72935" x="310.227259" y="95.882026" style="fill: #9467bd; stroke: #9467bd"/>
     <use xlink:href="#m15f7d72935" x="319.556656" y="95.882026" style="fill: #9467bd; stroke: #9467bd"/>
     <use xlink:href="#m15f7d72935" x="328.886054" y="95.882026" style="fill: #9467bd; stroke: #9467bd"/>
     <use xlink:href="#m15f7d72935" x="338.215452" y="95.882026" style="fill: #9467bd; stroke: #9467bd"/>
     <use xlink:href="#m15f7d72935" x="347.54485" y="95.882026" style="fill: #9467bd; stroke: #9467bd"/>
     <use xlink:href="#m15f7d72935" x="356.874248" y="95.882026" style="fill: #9467bd; stroke: #9467bd"/>
     <use xlink:href="#m15f7d72935" x="366.203645" y="95.882026" style="fill: #9467bd; stroke: #9467bd"/>
     <use xlink:href="#m15f7d72935" x="375.533043" y="64.241732" style="fill: #9467bd; stroke: #9467bd"/>
     <use xlink:href="#m15f7d72935" x="384.862441" y="64.241732" style="fill: #9467bd; stroke: #9467bd"/>
     <use xlink:href="#m15f7d72935" x="394.191839" y="64.241732" style="fill: #9467bd; stroke: #9467bd"/>
     <use xlink:href="#m15f7d72935" x="403.521237" y="64.241732" style="fill: #9467bd; stroke: #9467bd"/>
     <use xlink:href="#m15f7d72935" x="412.850634" y="64.241732" style="fill: #9467bd; stroke: #9467bd"/>
     <use xlink:href="#m15f7d72935" x="422.180032" y="64.241732" style="fill: #9467bd; stroke: #9467bd"/>
     <use xlink:href="#m15f7d72935" x="431.50943" y="64.241732" style="fill: #9467bd; stroke: #9467bd"/>
     <use xlink:href="#m15f7d72935" x="440.838828" y="64.241732" style="fill: #9467bd; stroke: #9467bd"/>
     <use xlink:href="#m15f7d72935" x="450.168226" y="64.241732" style="fill: #9467bd; stroke: #9467bd"/>
     <use xlink:href="#m15f7d72935" x="459.497623" y="64.241732" style="fill: #9467bd; stroke: #9467bd"/>
     <use xlink:href="#m15f7d72935" x="468.827021" y="64.241732" style="fill: #9467bd; stroke: #9467bd"/>
     <use xlink:href="#m15f7d72935" x="478.156419" y="64.241732" style="fill: #9467bd; stroke: #9467bd"/>
     <use xlink:href="#m15f7d72935" x="487.485817" y="64.241732" style="fill: #9467bd; stroke: #9467bd"/>
     <use xlink:href="#m15f7d72935" x="496.815215" y="64.241732" style="fill: #9467bd; stroke: #9467bd"/>
     <use xlink:href="#m15f7d72935" x="506.144612" y="64.241732" style="fill: #9467bd; stroke: #9467bd"/>
     <use xlink:href="#m15f7d72935" x="515.47401" y="64.241732" style="fill: #9467bd; stroke: #9467bd"/>
     <use xlink:href="#m15f7d72935" x="524.803408" y="64.241732" style="fill: #9467bd; stroke: #9467bd"/>
     <use xlink:href="#m15f7d72935" x="534.132806" y="64.241732" style="fill: #9467bd; stroke: #9467bd"/>
     <use xlink:href="#m15f7d72935" x="543.462203" y="64.241732" style="fill: #9467bd; stroke: #9467bd"/>
     <use xlink:href="#m15f7d72935" x="552.791601" y="64.241732" style="fill: #9467bd; stroke: #9467bd"/>
     <use xlink:href="#m15f7d72935" x="562.120999" y="64.241732" style="fill: #9467bd; stroke: #9467bd"/>
     <use xlink:href="#m15f7d72935" x="571.450397" y="64.241732" style="fill: #9467bd; stroke: #9467bd"/>
     <use xlink:href="#m15f7d72935" x="580.779795" y="64.241732" style="fill: #9467bd; stroke: #9467bd"/>
     <use xlink:href="#m15f7d72935" x="590.109192" y="64.241732" style="fill: #9467bd; stroke: #9467bd"/>
     <use xlink:href="#m15f7d72935" x="599.43859" y="64.241732" style="fill: #9467bd; stroke: #9467bd"/>
     <use xlink:href="#m15f7d72935" x="608.767988" y="64.241732" style="fill: #9467bd; stroke: #9467bd"/>
     <use xlink:href="#m15f7d72935" x="618.097386" y="64.241732" style="fill: #9467bd; stroke: #9467bd"/>
     <use xlink:href="#m15f7d72935" x="627.426784" y="64.241732" style="fill: #9467bd; stroke: #9467bd"/>
     <use xlink:href="#m15f7d72935" x="636.756181" y="64.241732" style="fill: #9467bd; stroke: #9467bd"/>
     <use xlink:href="#m15f7d72935" x="646.085579" y="64.241732" style="fill: #9467bd; stroke: #9467bd"/>
     <use xlink:href="#m15f7d72935" x="655.414977" y="64.241732" style="fill: #9467bd; stroke: #9467bd"/>
     <use xlink:href="#m15f7d72935" x="664.744375" y="64.241732" style="fill: #9467bd; stroke: #9467bd"/>
     <use xlink:href="#m15f7d72935" x="674.073773" y="64.241732" style="fill: #9467bd; stroke: #9467bd"/>
     <use xlink:href="#m15f7d72935" x="683.40317" y="64.241732" style="fill: #9467bd; stroke: #9467bd"/>
     <use xlink:href="#m15f7d72935" x="692.732568" y="64.241732" style="fill: #9467bd; stroke: #9467bd"/>
     <use xlink:href="#m15f7d72935" x="702.061966" y="64.241732" style="fill: #9467bd; stroke: #9467bd"/>
     <use xlink:href="#m15f7d72935" x="711.391364" y="64.241732" style="fill: #9467bd; stroke: #9467bd"/>
     <use xlink:href="#m15f7d72935" x="720.720762" y="64.241732" style="fill: #9467bd; stroke: #9467bd"/>
     <use xlink:href="#m15f7d72935" x="730.050159" y="64.241732" style="fill: #9467bd; stroke: #9467bd"/>
     <use xlink:href="#m15f7d72935" x="739.379557" y="64.241732" style="fill: #9467bd; stroke: #9467bd"/>
     <use xlink:href="#m15f7d72935" x="748.708955" y="64.241732" style="fill: #9467bd; stroke: #9467bd"/>
     <use xlink:href="#m15f7d72935" x="758.038353" y="64.241732" style="fill: #9467bd; stroke: #9467bd"/>
     <use xlink:href="#m15f7d72935" x="767.367751" y="64.241732" style="fill: #9467bd; stroke: #9467bd"/>
     <use xlink:href="#m15f7d72935" x="776.697148" y="64.241732" style="fill: #9467bd; stroke: #9467bd"/>
     <use xlink:href="#m15f7d72935" x="786.026546" y="64.241732" style="fill: #9467bd; stroke: #9467bd"/>
     <use xlink:href="#m15f7d72935" x="795.355944" y="64.241732" style="fill: #9467bd; stroke: #9467bd"/>
    </g>
   </g>
   <g id="line2d_30">
    <path d="M 86.321712 380.755511 
L 95.651109 365.56817 
L 104.980507 354.177665 
L 114.309905 328.86543 
L 123.639303 309.881254 
L 132.968701 304.818807 
L 142.298098 295.959524 
L 151.627496 280.772183 
L 160.956894 236.475772 
L 170.286292 204.835479 
L 179.61569 166.867126 
L 188.945087 142.820503 
L 198.274485 93.461645 
L 226.262679 93.461645 
L 235.592076 93.461645 
L 244.921474 93.461645 
L 254.250872 93.461645 
L 263.58027 93.461645 
L 282.239065 93.461645 
L 291.568463 93.461645 
L 300.897861 93.461645 
L 310.227259 93.461645 
L 319.556656 93.461645 
L 328.886054 93.461645 
L 338.215452 93.461645 
L 347.54485 93.461645 
L 356.874248 93.461645 
L 366.203645 93.461645 
L 375.533043 61.821352 
L 384.862441 61.821352 
L 394.191839 61.821352 
L 403.521237 61.821352 
L 412.850634 61.821352 
L 422.180032 61.821352 
L 431.50943 61.821352 
L 440.838828 61.821352 
L 450.168226 61.821352 
L 459.497623 61.821352 
L 468.827021 61.821352 
L 478.156419 61.821352 
L 487.485817 61.821352 
L 496.815215 61.821352 
L 506.144612 61.821352 
L 515.47401 61.821352 
L 524.803408 61.821352 
L 534.132806 61.821352 
L 543.462203 61.821352 
L 552.791601 61.821352 
L 562.120999 61.821352 
L 571.450397 61.821352 
L 580.779795 61.821352 
L 590.109192 61.821352 
L 599.43859 61.821352 
L 608.767988 61.821352 
L 618.097386 61.821352 
L 627.426784 61.821352 
L 636.756181 61.821352 
L 646.085579 61.821352 
L 655.414977 61.821352 
L 664.744375 61.821352 
L 674.073773 61.821352 
L 683.40317 61.821352 
L 692.732568 61.821352 
L 702.061966 61.821352 
L 711.391364 61.821352 
L 720.720762 61.821352 
L 730.050159 61.821352 
L 739.379557 61.821352 
L 748.708955 61.821352 
L 758.038353 61.821352 
L 767.367751 61.821352 
L 776.697148 61.821352 
L 786.026546 61.821352 
L 795.355944 61.821352 
" clip-path="url(#p40861e3492)" style="fill: none; stroke: #8c564b; stroke-width: 1.5; stroke-linecap: square"/>
    <defs>
     <path id="ma5896c4337" d="M 0 3.5 
C 0.928211 3.5 1.81853 3.131218 2.474874 2.474874 
C 3.131218 1.81853 3.5 0.928211 3.5 0 
C 3.5 -0.928211 3.131218 -1.81853 2.474874 -2.474874 
C 1.81853 -3.131218 0.928211 -3.5 0 -3.5 
C -0.928211 -3.5 -1.81853 -3.131218 -2.474874 -2.474874 
C -3.131218 -1.81853 -3.5 -0.928211 -3.5 0 
C -3.5 0.928211 -3.131218 1.81853 -2.474874 2.474874 
C -1.81853 3.131218 -0.928211 3.5 0 3.5 
z
" style="stroke: #8c564b"/>
    </defs>
    <g clip-path="url(#p40861e3492)">
     <use xlink:href="#ma5896c4337" x="86.321712" y="380.755511" style="fill: #8c564b; stroke: #8c564b"/>
     <use xlink:href="#ma5896c4337" x="95.651109" y="365.56817" style="fill: #8c564b; stroke: #8c564b"/>
     <use xlink:href="#ma5896c4337" x="104.980507" y="354.177665" style="fill: #8c564b; stroke: #8c564b"/>
     <use xlink:href="#ma5896c4337" x="114.309905" y="328.86543" style="fill: #8c564b; stroke: #8c564b"/>
     <use xlink:href="#ma5896c4337" x="123.639303" y="309.881254" style="fill: #8c564b; stroke: #8c564b"/>
     <use xlink:href="#ma5896c4337" x="132.968701" y="304.818807" style="fill: #8c564b; stroke: #8c564b"/>
     <use xlink:href="#ma5896c4337" x="142.298098" y="295.959524" style="fill: #8c564b; stroke: #8c564b"/>
     <use xlink:href="#ma5896c4337" x="151.627496" y="280.772183" style="fill: #8c564b; stroke: #8c564b"/>
     <use xlink:href="#ma5896c4337" x="160.956894" y="236.475772" style="fill: #8c564b; stroke: #8c564b"/>
     <use xlink:href="#ma5896c4337" x="170.286292" y="204.835479" style="fill: #8c564b; stroke: #8c564b"/>
     <use xlink:href="#ma5896c4337" x="179.61569" y="166.867126" style="fill: #8c564b; stroke: #8c564b"/>
     <use xlink:href="#ma5896c4337" x="188.945087" y="142.820503" style="fill: #8c564b; stroke: #8c564b"/>
     <use xlink:href="#ma5896c4337" x="198.274485" y="93.461645" style="fill: #8c564b; stroke: #8c564b"/>
     <use xlink:href="#ma5896c4337" x="226.262679" y="93.461645" style="fill: #8c564b; stroke: #8c564b"/>
     <use xlink:href="#ma5896c4337" x="235.592076" y="93.461645" style="fill: #8c564b; stroke: #8c564b"/>
     <use xlink:href="#ma5896c4337" x="244.921474" y="93.461645" style="fill: #8c564b; stroke: #8c564b"/>
     <use xlink:href="#ma5896c4337" x="254.250872" y="93.461645" style="fill: #8c564b; stroke: #8c564b"/>
     <use xlink:href="#ma5896c4337" x="263.58027" y="93.461645" style="fill: #8c564b; stroke: #8c564b"/>
     <use xlink:href="#ma5896c4337" x="282.239065" y="93.461645" style="fill: #8c564b; stroke: #8c564b"/>
     <use xlink:href="#ma5896c4337" x="291.568463" y="93.461645" style="fill: #8c564b; stroke: #8c564b"/>
     <use xlink:href="#ma5896c4337" x="300.897861" y="93.461645" style="fill: #8c564b; stroke: #8c564b"/>
     <use xlink:href="#ma5896c4337" x="310.227259" y="93.461645" style="fill: #8c564b; stroke: #8c564b"/>
     <use xlink:href="#ma5896c4337" x="319.556656" y="93.461645" style="fill: #8c564b; stroke: #8c564b"/>
     <use xlink:href="#ma5896c4337" x="328.886054" y="93.461645" style="fill: #8c564b; stroke: #8c564b"/>
     <use xlink:href="#ma5896c4337" x="338.215452" y="93.461645" style="fill: #8c564b; stroke: #8c564b"/>
     <use xlink:href="#ma5896c4337" x="347.54485" y="93.461645" style="fill: #8c564b; stroke: #8c564b"/>
     <use xlink:href="#ma5896c4337" x="356.874248" y="93.461645" style="fill: #8c564b; stroke: #8c564b"/>
     <use xlink:href="#ma5896c4337" x="366.203645" y="93.461645" style="fill: #8c564b; stroke: #8c564b"/>
     <use xlink:href="#ma5896c4337" x="375.533043" y="61.821352" style="fill: #8c564b; stroke: #8c564b"/>
     <use xlink:href="#ma5896c4337" x="384.862441" y="61.821352" style="fill: #8c564b; stroke: #8c564b"/>
     <use xlink:href="#ma5896c4337" x="394.191839" y="61.821352" style="fill: #8c564b; stroke: #8c564b"/>
     <use xlink:href="#ma5896c4337" x="403.521237" y="61.821352" style="fill: #8c564b; stroke: #8c564b"/>
     <use xlink:href="#ma5896c4337" x="412.850634" y="61.821352" style="fill: #8c564b; stroke: #8c564b"/>
     <use xlink:href="#ma5896c4337" x="422.180032" y="61.821352" style="fill: #8c564b; stroke: #8c564b"/>
     <use xlink:href="#ma5896c4337" x="431.50943" y="61.821352" style="fill: #8c564b; stroke: #8c564b"/>
     <use xlink:href="#ma5896c4337" x="440.838828" y="61.821352" style="fill: #8c564b; stroke: #8c564b"/>
     <use xlink:href="#ma5896c4337" x="450.168226" y="61.821352" style="fill: #8c564b; stroke: #8c564b"/>
     <use xlink:href="#ma5896c4337" x="459.497623" y="61.821352" style="fill: #8c564b; stroke: #8c564b"/>
     <use xlink:href="#ma5896c4337" x="468.827021" y="61.821352" style="fill: #8c564b; stroke: #8c564b"/>
     <use xlink:href="#ma5896c4337" x="478.156419" y="61.821352" style="fill: #8c564b; stroke: #8c564b"/>
     <use xlink:href="#ma5896c4337" x="487.485817" y="61.821352" style="fill: #8c564b; stroke: #8c564b"/>
     <use xlink:href="#ma5896c4337" x="496.815215" y="61.821352" style="fill: #8c564b; stroke: #8c564b"/>
     <use xlink:href="#ma5896c4337" x="506.144612" y="61.821352" style="fill: #8c564b; stroke: #8c564b"/>
     <use xlink:href="#ma5896c4337" x="515.47401" y="61.821352" style="fill: #8c564b; stroke: #8c564b"/>
     <use xlink:href="#ma5896c4337" x="524.803408" y="61.821352" style="fill: #8c564b; stroke: #8c564b"/>
     <use xlink:href="#ma5896c4337" x="534.132806" y="61.821352" style="fill: #8c564b; stroke: #8c564b"/>
     <use xlink:href="#ma5896c4337" x="543.462203" y="61.821352" style="fill: #8c564b; stroke: #8c564b"/>
     <use xlink:href="#ma5896c4337" x="552.791601" y="61.821352" style="fill: #8c564b; stroke: #8c564b"/>
     <use xlink:href="#ma5896c4337" x="562.120999" y="61.821352" style="fill: #8c564b; stroke: #8c564b"/>
     <use xlink:href="#ma5896c4337" x="571.450397" y="61.821352" style="fill: #8c564b; stroke: #8c564b"/>
     <use xlink:href="#ma5896c4337" x="580.779795" y="61.821352" style="fill: #8c564b; stroke: #8c564b"/>
     <use xlink:href="#ma5896c4337" x="590.109192" y="61.821352" style="fill: #8c564b; stroke: #8c564b"/>
     <use xlink:href="#ma5896c4337" x="599.43859" y="61.821352" style="fill: #8c564b; stroke: #8c564b"/>
     <use xlink:href="#ma5896c4337" x="608.767988" y="61.821352" style="fill: #8c564b; stroke: #8c564b"/>
     <use xlink:href="#ma5896c4337" x="618.097386" y="61.821352" style="fill: #8c564b; stroke: #8c564b"/>
     <use xlink:href="#ma5896c4337" x="627.426784" y="61.821352" style="fill: #8c564b; stroke: #8c564b"/>
     <use xlink:href="#ma5896c4337" x="636.756181" y="61.821352" style="fill: #8c564b; stroke: #8c564b"/>
     <use xlink:href="#ma5896c4337" x="646.085579" y="61.821352" style="fill: #8c564b; stroke: #8c564b"/>
     <use xlink:href="#ma5896c4337" x="655.414977" y="61.821352" style="fill: #8c564b; stroke: #8c564b"/>
     <use xlink:href="#ma5896c4337" x="664.744375" y="61.821352" style="fill: #8c564b; stroke: #8c564b"/>
     <use xlink:href="#ma5896c4337" x="674.073773" y="61.821352" style="fill: #8c564b; stroke: #8c564b"/>
     <use xlink:href="#ma5896c4337" x="683.40317" y="61.821352" style="fill: #8c564b; stroke: #8c564b"/>
     <use xlink:href="#ma5896c4337" x="692.732568" y="61.821352" style="fill: #8c564b; stroke: #8c564b"/>
     <use xlink:href="#ma5896c4337" x="702.061966" y="61.821352" style="fill: #8c564b; stroke: #8c564b"/>
     <use xlink:href="#ma5896c4337" x="711.391364" y="61.821352" style="fill: #8c564b; stroke: #8c564b"/>
     <use xlink:href="#ma5896c4337" x="720.720762" y="61.821352" style="fill: #8c564b; stroke: #8c564b"/>
     <use xlink:href="#ma5896c4337" x="730.050159" y="61.821352" style="fill: #8c564b; stroke: #8c564b"/>
     <use xlink:href="#ma5896c4337" x="739.379557" y="61.821352" style="fill: #8c564b; stroke: #8c564b"/>
     <use xlink:href="#ma5896c4337" x="748.708955" y="61.821352" style="fill: #8c564b; stroke: #8c564b"/>
     <use xlink:href="#ma5896c4337" x="758.038353" y="61.821352" style="fill: #8c564b; stroke: #8c564b"/>
     <use xlink:href="#ma5896c4337" x="767.367751" y="61.821352" style="fill: #8c564b; stroke: #8c564b"/>
     <use xlink:href="#ma5896c4337" x="776.697148" y="61.821352" style="fill: #8c564b; stroke: #8c564b"/>
     <use xlink:href="#ma5896c4337" x="786.026546" y="61.821352" style="fill: #8c564b; stroke: #8c564b"/>
     <use xlink:href="#ma5896c4337" x="795.355944" y="61.821352" style="fill: #8c564b; stroke: #8c564b"/>
    </g>
   </g>
   <g id="patch_3">
    <path d="M 50.87 404.12 
L 50.87 26.88 
" style="fill: none; stroke: #000000; stroke-width: 0.8; stroke-linejoin: miter; stroke-linecap: square"/>
   </g>
   <g id="patch_4">
    <path d="M 830.807656 404.12 
L 830.807656 26.88 
" style="fill: none; stroke: #000000; stroke-width: 0.8; stroke-linejoin: miter; stroke-linecap: square"/>
   </g>
   <g id="patch_5">
    <path d="M 50.87 404.12 
L 830.807656 404.12 
" style="fill: none; stroke: #000000; stroke-width: 0.8; stroke-linejoin: miter; stroke-linecap: square"/>
   </g>
   <g id="patch_6">
    <path d="M 50.87 26.88 
L 830.807656 26.88 
" style="fill: none; stroke: #000000; stroke-width: 0.8; stroke-linejoin: miter; stroke-linecap: square"/>
   </g>
   <g id="text_14">
    <!-- Standings -->
    <g transform="translate(410.985078 20.88) scale(0.12 -0.12)">
     <defs>
      <path id="DejaVuSans-74" d="M 1172 4494 
L 1172 3500 
L 2356 3500 
L 2356 3053 
L 1172 3053 
L 1172 1153 
Q 1172 725 1289 603 
Q 1406 481 1766 481 
L 2356 481 
L 2356 0 
L 1766 0 
Q 1100 0 847 248 
Q 594 497 594 1153 
L 594 3053 
L 172 3053 
L 172 3500 
L 594 3500 
L 594 4494 
L 1172 4494 
z
" transform="scale(0.015625)"/>
      <path id="DejaVuSans-61" d="M 2194 1759 
Q 1497 1759 1228 1600 
Q 959 1441 959 1056 
Q 959 750 1161 570 
Q 1363 391 1709 391 
Q 2188 391 2477 730 
Q 2766 1069 2766 1631 
L 2766 1759 
L 2194 1759 
z
M 3341 1997 
L 3341 0 
L 2766 0 
L 2766 531 
Q 2569 213 2275 61 
Q 1981 -91 1556 -91 
Q 1019 -91 701 211 
Q 384 513 384 1019 
Q 384 1609 779 1909 
Q 1175 2209 1959 2209 
L 2766 2209 
L 2766 2266 
Q 2766 2663 2505 2880 
Q 2244 3097 1772 3097 
Q 1472 3097 1187 3025 
Q 903 2953 641 2809 
L 641 3341 
Q 956 3463 1253 3523 
Q 1550 3584 1831 3584 
Q 2591 3584 2966 3190 
Q 3341 2797 3341 1997 
z
" transform="scale(0.015625)"/>
      <path id="DejaVuSans-6e" d="M 3513 2113 
L 3513 0 
L 2938 0 
L 2938 2094 
Q 2938 2591 2744 2837 
Q 2550 3084 2163 3084 
Q 1697 3084 1428 2787 
Q 1159 2491 1159 1978 
L 1159 0 
L 581 0 
L 581 3500 
L 1159 3500 
L 1159 2956 
Q 1366 3272 1645 3428 
Q 1925 3584 2291 3584 
Q 2894 3584 3203 3211 
Q 3513 2838 3513 2113 
z
" transform="scale(0.015625)"/>
      <path id="DejaVuSans-64" d="M 2906 2969 
L 2906 4863 
L 3481 4863 
L 3481 0 
L 2906 0 
L 2906 525 
Q 2725 213 2448 61 
Q 2172 -91 1784 -91 
Q 1150 -91 751 415 
Q 353 922 353 1747 
Q 353 2572 751 3078 
Q 1150 3584 1784 3584 
Q 2172 3584 2448 3432 
Q 2725 3281 2906 2969 
z
M 947 1747 
Q 947 1113 1208 752 
Q 1469 391 1925 391 
Q 2381 391 2643 752 
Q 2906 1113 2906 1747 
Q 2906 2381 2643 2742 
Q 2381 3103 1925 3103 
Q 1469 3103 1208 2742 
Q 947 2381 947 1747 
z
" transform="scale(0.015625)"/>
      <path id="DejaVuSans-69" d="M 603 3500 
L 1178 3500 
L 1178 0 
L 603 0 
L 603 3500 
z
M 603 4863 
L 1178 4863 
L 1178 4134 
L 603 4134 
L 603 4863 
z
" transform="scale(0.015625)"/>
      <path id="DejaVuSans-67" d="M 2906 1791 
Q 2906 2416 2648 2759 
Q 2391 3103 1925 3103 
Q 1463 3103 1205 2759 
Q 947 2416 947 1791 
Q 947 1169 1205 825 
Q 1463 481 1925 481 
Q 2391 481 2648 825 
Q 2906 1169 2906 1791 
z
M 3481 434 
Q 3481 -459 3084 -895 
Q 2688 -1331 1869 -1331 
Q 1566 -1331 1297 -1286 
Q 1028 -1241 775 -1147 
L 775 -588 
Q 1028 -725 1275 -790 
Q 1522 -856 1778 -856 
Q 2344 -856 2625 -561 
Q 2906 -266 2906 331 
L 2906 616 
Q 2728 306 2450 153 
Q 2172 0 1784 0 
Q 1141 0 747 490 
Q 353 981 353 1791 
Q 353 2603 747 3093 
Q 1141 3584 1784 3584 
Q 2172 3584 2450 3431 
Q 2728 3278 2906 2969 
L 2906 3500 
L 3481 3500 
L 3481 434 
z
" transform="scale(0.015625)"/>
      <path id="DejaVuSans-73" d="M 2834 3397 
L 2834 2853 
Q 2591 2978 2328 3040 
Q 2066 3103 1784 3103 
Q 1356 3103 1142 2972 
Q 928 2841 928 2578 
Q 928 2378 1081 2264 
Q 1234 2150 1697 2047 
L 1894 2003 
Q 2506 1872 2764 1633 
Q 3022 1394 3022 966 
Q 3022 478 2636 193 
Q 2250 -91 1575 -91 
Q 1294 -91 989 -36 
Q 684 19 347 128 
L 347 722 
Q 666 556 975 473 
Q 1284 391 1588 391 
Q 1994 391 2212 530 
Q 2431 669 2431 922 
Q 2431 1156 2273 1281 
Q 2116 1406 1581 1522 
L 1381 1569 
Q 847 1681 609 1914 
Q 372 2147 372 2553 
Q 372 3047 722 3315 
Q 1072 3584 1716 3584 
Q 2034 3584 2315 3537 
Q 2597 3491 2834 3397 
z
" transform="scale(0.015625)"/>
     </defs>
     <use xlink:href="#DejaVuSans-53"/>
     <use xlink:href="#DejaVuSans-74" x="63.476562"/>
     <use xlink:href="#DejaVuSans-61" x="102.685547"/>
     <use xlink:href="#DejaVuSans-6e" x="163.964844"/>
     <use xlink:href="#DejaVuSans-64" x="227.34375"/>
     <use xlink:href="#DejaVuSans-69" x="290.820312"/>
     <use xlink:href="#DejaVuSans-6e" x="318.603516"/>
     <use xlink:href="#DejaVuSans-67" x="381.982422"/>
     <use xlink:href="#DejaVuSans-73" x="445.458984"/>
    </g>
   </g>
   <g id="legend_1">
    <g id="patch_7">
     <path d="M 57.87 122.94875 
L 143.37 122.94875 
Q 145.37 122.94875 145.37 120.94875 
L 145.37 33.88 
Q 145.37 31.88 143.37 31.88 
L 57.87 31.88 
Q 55.87 31.88 55.87 33.88 
L 55.87 120.94875 
Q 55.87 122.94875 57.87 122.94875 
z
" style="fill: #ffffff; opacity: 0.8; stroke: #cccccc; stroke-linejoin: miter"/>
    </g>
    <g id="line2d_31">
     <path d="M 59.87 39.978438 
L 69.87 39.978438 
L 79.87 39.978438 
" style="fill: none; stroke: #1f77b4; stroke-width: 1.5; stroke-linecap: square"/>
     <g>
      <use xlink:href="#m7f78d1319f" x="69.87" y="39.978438" style="fill: #1f77b4; stroke: #1f77b4"/>
     </g>
    </g>
    <g id="text_15">
     <!-- Matias BN -->
     <g transform="translate(87.87 43.478438) scale(0.1 -0.1)">
      <defs>
       <path id="DejaVuSans-4d" d="M 628 4666 
L 1569 4666 
L 2759 1491 
L 3956 4666 
L 4897 4666 
L 4897 0 
L 4281 0 
L 4281 4097 
L 3078 897 
L 2444 897 
L 1241 4097 
L 1241 0 
L 628 0 
L 628 4666 
z
" transform="scale(0.015625)"/>
       <path id="DejaVuSans-20" transform="scale(0.015625)"/>
       <path id="DejaVuSans-42" d="M 1259 2228 
L 1259 519 
L 2272 519 
Q 2781 519 3026 730 
Q 3272 941 3272 1375 
Q 3272 1813 3026 2020 
Q 2781 2228 2272 2228 
L 1259 2228 
z
M 1259 4147 
L 1259 2741 
L 2194 2741 
Q 2656 2741 2882 2914 
Q 3109 3088 3109 3444 
Q 3109 3797 2882 3972 
Q 2656 4147 2194 4147 
L 1259 4147 
z
M 628 4666 
L 2241 4666 
Q 2963 4666 3353 4366 
Q 3744 4066 3744 3513 
Q 3744 3084 3544 2831 
Q 3344 2578 2956 2516 
Q 3422 2416 3680 2098 
Q 3938 1781 3938 1306 
Q 3938 681 3513 340 
Q 3088 0 2303 0 
L 628 0 
L 628 4666 
z
" transform="scale(0.015625)"/>
       <path id="DejaVuSans-4e" d="M 628 4666 
L 1478 4666 
L 3547 763 
L 3547 4666 
L 4159 4666 
L 4159 0 
L 3309 0 
L 1241 3903 
L 1241 0 
L 628 0 
L 628 4666 
z
" transform="scale(0.015625)"/>
      </defs>
      <use xlink:href="#DejaVuSans-4d"/>
      <use xlink:href="#DejaVuSans-61" x="86.279297"/>
      <use xlink:href="#DejaVuSans-74" x="147.558594"/>
      <use xlink:href="#DejaVuSans-69" x="186.767578"/>
      <use xlink:href="#DejaVuSans-61" x="214.550781"/>
      <use xlink:href="#DejaVuSans-73" x="275.830078"/>
      <use xlink:href="#DejaVuSans-20" x="327.929688"/>
      <use xlink:href="#DejaVuSans-42" x="359.716797"/>
      <use xlink:href="#DejaVuSans-4e" x="428.320312"/>
     </g>
    </g>
    <g id="line2d_32">
     <path d="M 59.87 54.656563 
L 69.87 54.656563 
L 79.87 54.656563 
" style="fill: none; stroke: #ff7f0e; stroke-width: 1.5; stroke-linecap: square"/>
     <g>
      <use xlink:href="#me50535ce2c" x="69.87" y="54.656563" style="fill: #ff7f0e; stroke: #ff7f0e"/>
     </g>
    </g>
    <g id="text_16">
     <!-- Mattias Ra -->
     <g transform="translate(87.87 58.156563) scale(0.1 -0.1)">
      <defs>
       <path id="DejaVuSans-52" d="M 2841 2188 
Q 3044 2119 3236 1894 
Q 3428 1669 3622 1275 
L 4263 0 
L 3584 0 
L 2988 1197 
Q 2756 1666 2539 1819 
Q 2322 1972 1947 1972 
L 1259 1972 
L 1259 0 
L 628 0 
L 628 4666 
L 2053 4666 
Q 2853 4666 3247 4331 
Q 3641 3997 3641 3322 
Q 3641 2881 3436 2590 
Q 3231 2300 2841 2188 
z
M 1259 4147 
L 1259 2491 
L 2053 2491 
Q 2509 2491 2742 2702 
Q 2975 2913 2975 3322 
Q 2975 3731 2742 3939 
Q 2509 4147 2053 4147 
L 1259 4147 
z
" transform="scale(0.015625)"/>
      </defs>
      <use xlink:href="#DejaVuSans-4d"/>
      <use xlink:href="#DejaVuSans-61" x="86.279297"/>
      <use xlink:href="#DejaVuSans-74" x="147.558594"/>
      <use xlink:href="#DejaVuSans-74" x="186.767578"/>
      <use xlink:href="#DejaVuSans-69" x="225.976562"/>
      <use xlink:href="#DejaVuSans-61" x="253.759766"/>
      <use xlink:href="#DejaVuSans-73" x="315.039062"/>
      <use xlink:href="#DejaVuSans-20" x="367.138672"/>
      <use xlink:href="#DejaVuSans-52" x="398.925781"/>
      <use xlink:href="#DejaVuSans-61" x="466.158203"/>
     </g>
    </g>
    <g id="line2d_33">
     <path d="M 59.87 69.334688 
L 69.87 69.334688 
L 79.87 69.334688 
" style="fill: none; stroke: #2ca02c; stroke-width: 1.5; stroke-linecap: square"/>
     <g>
      <use xlink:href="#m5ba9229320" x="69.87" y="69.334688" style="fill: #2ca02c; stroke: #2ca02c"/>
     </g>
    </g>
    <g id="text_17">
     <!-- Simon Bo -->
     <g transform="translate(87.87 72.834688) scale(0.1 -0.1)">
      <defs>
       <path id="DejaVuSans-6d" d="M 3328 2828 
Q 3544 3216 3844 3400 
Q 4144 3584 4550 3584 
Q 5097 3584 5394 3201 
Q 5691 2819 5691 2113 
L 5691 0 
L 5113 0 
L 5113 2094 
Q 5113 2597 4934 2840 
Q 4756 3084 4391 3084 
Q 3944 3084 3684 2787 
Q 3425 2491 3425 1978 
L 3425 0 
L 2847 0 
L 2847 2094 
Q 2847 2600 2669 2842 
Q 2491 3084 2119 3084 
Q 1678 3084 1418 2786 
Q 1159 2488 1159 1978 
L 1159 0 
L 581 0 
L 581 3500 
L 1159 3500 
L 1159 2956 
Q 1356 3278 1631 3431 
Q 1906 3584 2284 3584 
Q 2666 3584 2933 3390 
Q 3200 3197 3328 2828 
z
" transform="scale(0.015625)"/>
      </defs>
      <use xlink:href="#DejaVuSans-53"/>
      <use xlink:href="#DejaVuSans-69" x="63.476562"/>
      <use xlink:href="#DejaVuSans-6d" x="91.259766"/>
      <use xlink:href="#DejaVuSans-6f" x="188.671875"/>
      <use xlink:href="#DejaVuSans-6e" x="249.853516"/>
      <use xlink:href="#DejaVuSans-20" x="313.232422"/>
      <use xlink:href="#DejaVuSans-42" x="345.019531"/>
      <use xlink:href="#DejaVuSans-6f" x="413.623047"/>
     </g>
    </g>
    <g id="line2d_34">
     <path d="M 59.87 84.012813 
L 69.87 84.012813 
L 79.87 84.012813 
" style="fill: none; stroke: #d62728; stroke-width: 1.5; stroke-linecap: square"/>
     <g>
      <use xlink:href="#m3703dc1fc8" x="69.87" y="84.012813" style="fill: #d62728; stroke: #d62728"/>
     </g>
    </g>
    <g id="text_18">
     <!-- Kristian Se -->
     <g transform="translate(87.87 87.512813) scale(0.1 -0.1)">
      <defs>
       <path id="DejaVuSans-4b" d="M 628 4666 
L 1259 4666 
L 1259 2694 
L 3353 4666 
L 4166 4666 
L 1850 2491 
L 4331 0 
L 3500 0 
L 1259 2247 
L 1259 0 
L 628 0 
L 628 4666 
z
" transform="scale(0.015625)"/>
      </defs>
      <use xlink:href="#DejaVuSans-4b"/>
      <use xlink:href="#DejaVuSans-72" x="65.576172"/>
      <use xlink:href="#DejaVuSans-69" x="106.689453"/>
      <use xlink:href="#DejaVuSans-73" x="134.472656"/>
      <use xlink:href="#DejaVuSans-74" x="186.572266"/>
      <use xlink:href="#DejaVuSans-69" x="225.78125"/>
      <use xlink:href="#DejaVuSans-61" x="253.564453"/>
      <use xlink:href="#DejaVuSans-6e" x="314.84375"/>
      <use xlink:href="#DejaVuSans-20" x="378.222656"/>
      <use xlink:href="#DejaVuSans-53" x="410.009766"/>
      <use xlink:href="#DejaVuSans-65" x="473.486328"/>
     </g>
    </g>
    <g id="line2d_35">
     <path d="M 59.87 98.690938 
L 69.87 98.690938 
L 79.87 98.690938 
" style="fill: none; stroke: #9467bd; stroke-width: 1.5; stroke-linecap: square"/>
     <g>
      <use xlink:href="#m15f7d72935" x="69.87" y="98.690938" style="fill: #9467bd; stroke: #9467bd"/>
     </g>
    </g>
    <g id="text_19">
     <!-- Jesper M -->
     <g transform="translate(87.87 102.190938) scale(0.1 -0.1)">
      <defs>
       <path id="DejaVuSans-4a" d="M 628 4666 
L 1259 4666 
L 1259 325 
Q 1259 -519 939 -900 
Q 619 -1281 -91 -1281 
L -331 -1281 
L -331 -750 
L -134 -750 
Q 284 -750 456 -515 
Q 628 -281 628 325 
L 628 4666 
z
" transform="scale(0.015625)"/>
       <path id="DejaVuSans-70" d="M 1159 525 
L 1159 -1331 
L 581 -1331 
L 581 3500 
L 1159 3500 
L 1159 2969 
Q 1341 3281 1617 3432 
Q 1894 3584 2278 3584 
Q 2916 3584 3314 3078 
Q 3713 2572 3713 1747 
Q 3713 922 3314 415 
Q 2916 -91 2278 -91 
Q 1894 -91 1617 61 
Q 1341 213 1159 525 
z
M 3116 1747 
Q 3116 2381 2855 2742 
Q 2594 3103 2138 3103 
Q 1681 3103 1420 2742 
Q 1159 2381 1159 1747 
Q 1159 1113 1420 752 
Q 1681 391 2138 391 
Q 2594 391 2855 752 
Q 3116 1113 3116 1747 
z
" transform="scale(0.015625)"/>
       <path id="DejaVuSans-f8" d="M 2828 2503 
L 1306 653 
Q 1434 522 1595 459 
Q 1756 397 1959 397 
Q 2419 397 2687 759 
Q 2956 1122 2956 1747 
Q 2956 1994 2925 2176 
Q 2894 2359 2828 2503 
z
M 2606 2841 
Q 2475 2969 2314 3033 
Q 2153 3097 1959 3097 
Q 1488 3097 1223 2730 
Q 959 2363 959 1703 
Q 959 1478 989 1306 
Q 1019 1134 1081 991 
L 2606 2841 
z
M 691 519 
Q 522 759 437 1067 
Q 353 1375 353 1747 
Q 353 2609 779 3096 
Q 1206 3584 1959 3584 
Q 2250 3584 2498 3504 
Q 2747 3425 2956 3263 
L 3391 3788 
L 3688 3541 
L 3231 2981 
Q 3397 2741 3481 2431 
Q 3566 2122 3566 1747 
Q 3566 888 3137 398 
Q 2709 -91 1959 -91 
Q 1659 -91 1407 -9 
Q 1156 72 959 231 
L 525 -294 
L 225 -50 
L 691 519 
z
" transform="scale(0.015625)"/>
      </defs>
      <use xlink:href="#DejaVuSans-4a"/>
      <use xlink:href="#DejaVuSans-65" x="29.492188"/>
      <use xlink:href="#DejaVuSans-73" x="91.015625"/>
      <use xlink:href="#DejaVuSans-70" x="143.115234"/>
      <use xlink:href="#DejaVuSans-65" x="206.591797"/>
      <use xlink:href="#DejaVuSans-72" x="268.115234"/>
      <use xlink:href="#DejaVuSans-20" x="309.228516"/>
      <use xlink:href="#DejaVuSans-4d" x="341.015625"/>
      <use xlink:href="#DejaVuSans-f8" x="427.294922"/>
     </g>
    </g>
    <g id="line2d_36">
     <path d="M 59.87 113.369063 
L 69.87 113.369063 
L 79.87 113.369063 
" style="fill: none; stroke: #8c564b; stroke-width: 1.5; stroke-linecap: square"/>
     <g>
      <use xlink:href="#ma5896c4337" x="69.87" y="113.369063" style="fill: #8c564b; stroke: #8c564b"/>
     </g>
    </g>
    <g id="text_20">
     <!-- Ayman Ka -->
     <g transform="translate(87.87 116.869063) scale(0.1 -0.1)">
      <defs>
       <path id="DejaVuSans-41" d="M 2188 4044 
L 1331 1722 
L 3047 1722 
L 2188 4044 
z
M 1831 4666 
L 2547 4666 
L 4325 0 
L 3669 0 
L 3244 1197 
L 1141 1197 
L 716 0 
L 50 0 
L 1831 4666 
z
" transform="scale(0.015625)"/>
       <path id="DejaVuSans-79" d="M 2059 -325 
Q 1816 -950 1584 -1140 
Q 1353 -1331 966 -1331 
L 506 -1331 
L 506 -850 
L 844 -850 
Q 1081 -850 1212 -737 
Q 1344 -625 1503 -206 
L 1606 56 
L 191 3500 
L 800 3500 
L 1894 763 
L 2988 3500 
L 3597 3500 
L 2059 -325 
z
" transform="scale(0.015625)"/>
      </defs>
      <use xlink:href="#DejaVuSans-41"/>
      <use xlink:href="#DejaVuSans-79" x="61.658203"/>
      <use xlink:href="#DejaVuSans-6d" x="120.837891"/>
      <use xlink:href="#DejaVuSans-61" x="218.25"/>
      <use xlink:href="#DejaVuSans-6e" x="279.529297"/>
      <use xlink:href="#DejaVuSans-20" x="342.908203"/>
      <use xlink:href="#DejaVuSans-4b" x="374.695312"/>
      <use xlink:href="#DejaVuSans-61" x="438.521484"/>
     </g>
    </g>
   </g>
  </g>
 </g>
 <defs>
  <clipPath id="p40861e3492">
   <rect x="50.87" y="26.88" width="779.937656" height="377.24"/>
  </clipPath>
 </defs>
</svg>
