<?xml version="1.0" encoding="utf-8" standalone="no"?>
<!DOCTYPE svg PUBLIC "-//W3C//DTD SVG 1.1//EN"
  "http://www.w3.org/Graphics/SVG/1.1/DTD/svg11.dtd">
<svg xmlns:xlink="http://www.w3.org/1999/xlink" width="864pt" height="432pt" viewBox="0 0 864 432" xmlns="http://www.w3.org/2000/svg" version="1.1">
 <metadata>
  <rdf:RDF xmlns:dc="http://purl.org/dc/elements/1.1/" xmlns:cc="http://creativecommons.org/ns#" xmlns:rdf="http://www.w3.org/1999/02/22-rdf-syntax-ns#">
   <cc:Work>
    <dc:type rdf:resource="http://purl.org/dc/dcmitype/StillImage"/>
    <dc:date>2024-09-01T05:32:16.437418</dc:date>
    <dc:format>image/svg+xml</dc:format>
    <dc:creator>
     <cc:Agent>
      <dc:title>Matplotlib v3.9.2, https://matplotlib.org/</dc:title>
     </cc:Agent>
    </dc:creator>
   </cc:Work>
  </rdf:RDF>
 </metadata>
 <defs>
  <style type="text/css">*{stroke-linejoin: round; stroke-linecap: butt}</style>
 </defs>
 <g id="figure_1">
  <g id="patch_1">
   <path d="M 0 432 
L 864 432 
L 864 0 
L 0 0 
z
" style="fill: #ffffff"/>
  </g>
  <g id="axes_1">
   <g id="patch_2">
    <path d="M 50.87 404.12 
L 853.2 404.12 
L 853.2 26.88 
L 50.87 26.88 
z
" style="fill: #ffffff"/>
   </g>
   <g id="matplotlib.axis_1">
    <g id="xtick_1">
     <g id="line2d_1">
      <path d="M 96.572342 404.12 
L 96.572342 26.88 
" clip-path="url(#p7992ddd681)" style="fill: none; stroke-dasharray: 2.96,1.28; stroke-dashoffset: 0; stroke: #b0b0b0; stroke-width: 0.8"/>
     </g>
     <g id="line2d_2">
      <defs>
       <path id="m96946826e8" d="M 0 0 
L 0 3.5 
" style="stroke: #000000; stroke-width: 0.8"/>
      </defs>
      <g>
       <use xlink:href="#m96946826e8" x="96.572342" y="404.12" style="stroke: #000000; stroke-width: 0.8"/>
      </g>
     </g>
     <g id="text_1">
      <!-- 2024-06-15 -->
      <g transform="translate(67.514529 418.718437) scale(0.1 -0.1)">
       <defs>
        <path id="DejaVuSans-32" d="M 1228 531 
L 3431 531 
L 3431 0 
L 469 0 
L 469 531 
Q 828 903 1448 1529 
Q 2069 2156 2228 2338 
Q 2531 2678 2651 2914 
Q 2772 3150 2772 3378 
Q 2772 3750 2511 3984 
Q 2250 4219 1831 4219 
Q 1534 4219 1204 4116 
Q 875 4013 500 3803 
L 500 4441 
Q 881 4594 1212 4672 
Q 1544 4750 1819 4750 
Q 2544 4750 2975 4387 
Q 3406 4025 3406 3419 
Q 3406 3131 3298 2873 
Q 3191 2616 2906 2266 
Q 2828 2175 2409 1742 
Q 1991 1309 1228 531 
z
" transform="scale(0.015625)"/>
        <path id="DejaVuSans-30" d="M 2034 4250 
Q 1547 4250 1301 3770 
Q 1056 3291 1056 2328 
Q 1056 1369 1301 889 
Q 1547 409 2034 409 
Q 2525 409 2770 889 
Q 3016 1369 3016 2328 
Q 3016 3291 2770 3770 
Q 2525 4250 2034 4250 
z
M 2034 4750 
Q 2819 4750 3233 4129 
Q 3647 3509 3647 2328 
Q 3647 1150 3233 529 
Q 2819 -91 2034 -91 
Q 1250 -91 836 529 
Q 422 1150 422 2328 
Q 422 3509 836 4129 
Q 1250 4750 2034 4750 
z
" transform="scale(0.015625)"/>
        <path id="DejaVuSans-34" d="M 2419 4116 
L 825 1625 
L 2419 1625 
L 2419 4116 
z
M 2253 4666 
L 3047 4666 
L 3047 1625 
L 3713 1625 
L 3713 1100 
L 3047 1100 
L 3047 0 
L 2419 0 
L 2419 1100 
L 313 1100 
L 313 1709 
L 2253 4666 
z
" transform="scale(0.015625)"/>
        <path id="DejaVuSans-2d" d="M 313 2009 
L 1997 2009 
L 1997 1497 
L 313 1497 
L 313 2009 
z
" transform="scale(0.015625)"/>
        <path id="DejaVuSans-36" d="M 2113 2584 
Q 1688 2584 1439 2293 
Q 1191 2003 1191 1497 
Q 1191 994 1439 701 
Q 1688 409 2113 409 
Q 2538 409 2786 701 
Q 3034 994 3034 1497 
Q 3034 2003 2786 2293 
Q 2538 2584 2113 2584 
z
M 3366 4563 
L 3366 3988 
Q 3128 4100 2886 4159 
Q 2644 4219 2406 4219 
Q 1781 4219 1451 3797 
Q 1122 3375 1075 2522 
Q 1259 2794 1537 2939 
Q 1816 3084 2150 3084 
Q 2853 3084 3261 2657 
Q 3669 2231 3669 1497 
Q 3669 778 3244 343 
Q 2819 -91 2113 -91 
Q 1303 -91 875 529 
Q 447 1150 447 2328 
Q 447 3434 972 4092 
Q 1497 4750 2381 4750 
Q 2619 4750 2861 4703 
Q 3103 4656 3366 4563 
z
" transform="scale(0.015625)"/>
        <path id="DejaVuSans-31" d="M 794 531 
L 1825 531 
L 1825 4091 
L 703 3866 
L 703 4441 
L 1819 4666 
L 2450 4666 
L 2450 531 
L 3481 531 
L 3481 0 
L 794 0 
L 794 531 
z
" transform="scale(0.015625)"/>
        <path id="DejaVuSans-35" d="M 691 4666 
L 3169 4666 
L 3169 4134 
L 1269 4134 
L 1269 2991 
Q 1406 3038 1543 3061 
Q 1681 3084 1819 3084 
Q 2600 3084 3056 2656 
Q 3513 2228 3513 1497 
Q 3513 744 3044 326 
Q 2575 -91 1722 -91 
Q 1428 -91 1123 -41 
Q 819 9 494 109 
L 494 744 
Q 775 591 1075 516 
Q 1375 441 1709 441 
Q 2250 441 2565 725 
Q 2881 1009 2881 1497 
Q 2881 1984 2565 2268 
Q 2250 2553 1709 2553 
Q 1456 2553 1204 2497 
Q 953 2441 691 2322 
L 691 4666 
z
" transform="scale(0.015625)"/>
       </defs>
       <use xlink:href="#DejaVuSans-32"/>
       <use xlink:href="#DejaVuSans-30" x="63.623047"/>
       <use xlink:href="#DejaVuSans-32" x="127.246094"/>
       <use xlink:href="#DejaVuSans-34" x="190.869141"/>
       <use xlink:href="#DejaVuSans-2d" x="254.492188"/>
       <use xlink:href="#DejaVuSans-30" x="290.576172"/>
       <use xlink:href="#DejaVuSans-36" x="354.199219"/>
       <use xlink:href="#DejaVuSans-2d" x="417.822266"/>
       <use xlink:href="#DejaVuSans-31" x="453.90625"/>
       <use xlink:href="#DejaVuSans-35" x="517.529297"/>
      </g>
     </g>
    </g>
    <g id="xtick_2">
     <g id="line2d_3">
      <path d="M 244.297083 404.12 
L 244.297083 26.88 
" clip-path="url(#p7992ddd681)" style="fill: none; stroke-dasharray: 2.96,1.28; stroke-dashoffset: 0; stroke: #b0b0b0; stroke-width: 0.8"/>
     </g>
     <g id="line2d_4">
      <g>
       <use xlink:href="#m96946826e8" x="244.297083" y="404.12" style="stroke: #000000; stroke-width: 0.8"/>
      </g>
     </g>
     <g id="text_2">
      <!-- 2024-07-01 -->
      <g transform="translate(215.23927 418.718437) scale(0.1 -0.1)">
       <defs>
        <path id="DejaVuSans-37" d="M 525 4666 
L 3525 4666 
L 3525 4397 
L 1831 0 
L 1172 0 
L 2766 4134 
L 525 4134 
L 525 4666 
z
" transform="scale(0.015625)"/>
       </defs>
       <use xlink:href="#DejaVuSans-32"/>
       <use xlink:href="#DejaVuSans-30" x="63.623047"/>
       <use xlink:href="#DejaVuSans-32" x="127.246094"/>
       <use xlink:href="#DejaVuSans-34" x="190.869141"/>
       <use xlink:href="#DejaVuSans-2d" x="254.492188"/>
       <use xlink:href="#DejaVuSans-30" x="290.576172"/>
       <use xlink:href="#DejaVuSans-37" x="354.199219"/>
       <use xlink:href="#DejaVuSans-2d" x="417.822266"/>
       <use xlink:href="#DejaVuSans-30" x="453.90625"/>
       <use xlink:href="#DejaVuSans-31" x="517.529297"/>
      </g>
     </g>
    </g>
    <g id="xtick_3">
     <g id="line2d_5">
      <path d="M 373.556231 404.12 
L 373.556231 26.88 
" clip-path="url(#p7992ddd681)" style="fill: none; stroke-dasharray: 2.96,1.28; stroke-dashoffset: 0; stroke: #b0b0b0; stroke-width: 0.8"/>
     </g>
     <g id="line2d_6">
      <g>
       <use xlink:href="#m96946826e8" x="373.556231" y="404.12" style="stroke: #000000; stroke-width: 0.8"/>
      </g>
     </g>
     <g id="text_3">
      <!-- 2024-07-15 -->
      <g transform="translate(344.498419 418.718437) scale(0.1 -0.1)">
       <use xlink:href="#DejaVuSans-32"/>
       <use xlink:href="#DejaVuSans-30" x="63.623047"/>
       <use xlink:href="#DejaVuSans-32" x="127.246094"/>
       <use xlink:href="#DejaVuSans-34" x="190.869141"/>
       <use xlink:href="#DejaVuSans-2d" x="254.492188"/>
       <use xlink:href="#DejaVuSans-30" x="290.576172"/>
       <use xlink:href="#DejaVuSans-37" x="354.199219"/>
       <use xlink:href="#DejaVuSans-2d" x="417.822266"/>
       <use xlink:href="#DejaVuSans-31" x="453.90625"/>
       <use xlink:href="#DejaVuSans-35" x="517.529297"/>
      </g>
     </g>
    </g>
    <g id="xtick_4">
     <g id="line2d_7">
      <path d="M 530.513769 404.12 
L 530.513769 26.88 
" clip-path="url(#p7992ddd681)" style="fill: none; stroke-dasharray: 2.96,1.28; stroke-dashoffset: 0; stroke: #b0b0b0; stroke-width: 0.8"/>
     </g>
     <g id="line2d_8">
      <g>
       <use xlink:href="#m96946826e8" x="530.513769" y="404.12" style="stroke: #000000; stroke-width: 0.8"/>
      </g>
     </g>
     <g id="text_4">
      <!-- 2024-08-01 -->
      <g transform="translate(501.455956 418.718437) scale(0.1 -0.1)">
       <defs>
        <path id="DejaVuSans-38" d="M 2034 2216 
Q 1584 2216 1326 1975 
Q 1069 1734 1069 1313 
Q 1069 891 1326 650 
Q 1584 409 2034 409 
Q 2484 409 2743 651 
Q 3003 894 3003 1313 
Q 3003 1734 2745 1975 
Q 2488 2216 2034 2216 
z
M 1403 2484 
Q 997 2584 770 2862 
Q 544 3141 544 3541 
Q 544 4100 942 4425 
Q 1341 4750 2034 4750 
Q 2731 4750 3128 4425 
Q 3525 4100 3525 3541 
Q 3525 3141 3298 2862 
Q 3072 2584 2669 2484 
Q 3125 2378 3379 2068 
Q 3634 1759 3634 1313 
Q 3634 634 3220 271 
Q 2806 -91 2034 -91 
Q 1263 -91 848 271 
Q 434 634 434 1313 
Q 434 1759 690 2068 
Q 947 2378 1403 2484 
z
M 1172 3481 
Q 1172 3119 1398 2916 
Q 1625 2713 2034 2713 
Q 2441 2713 2670 2916 
Q 2900 3119 2900 3481 
Q 2900 3844 2670 4047 
Q 2441 4250 2034 4250 
Q 1625 4250 1398 4047 
Q 1172 3844 1172 3481 
z
" transform="scale(0.015625)"/>
       </defs>
       <use xlink:href="#DejaVuSans-32"/>
       <use xlink:href="#DejaVuSans-30" x="63.623047"/>
       <use xlink:href="#DejaVuSans-32" x="127.246094"/>
       <use xlink:href="#DejaVuSans-34" x="190.869141"/>
       <use xlink:href="#DejaVuSans-2d" x="254.492188"/>
       <use xlink:href="#DejaVuSans-30" x="290.576172"/>
       <use xlink:href="#DejaVuSans-38" x="354.199219"/>
       <use xlink:href="#DejaVuSans-2d" x="417.822266"/>
       <use xlink:href="#DejaVuSans-30" x="453.90625"/>
       <use xlink:href="#DejaVuSans-31" x="517.529297"/>
      </g>
     </g>
    </g>
    <g id="xtick_5">
     <g id="line2d_9">
      <path d="M 659.772917 404.12 
L 659.772917 26.88 
" clip-path="url(#p7992ddd681)" style="fill: none; stroke-dasharray: 2.96,1.28; stroke-dashoffset: 0; stroke: #b0b0b0; stroke-width: 0.8"/>
     </g>
     <g id="line2d_10">
      <g>
       <use xlink:href="#m96946826e8" x="659.772917" y="404.12" style="stroke: #000000; stroke-width: 0.8"/>
      </g>
     </g>
     <g id="text_5">
      <!-- 2024-08-15 -->
      <g transform="translate(630.715105 418.718437) scale(0.1 -0.1)">
       <use xlink:href="#DejaVuSans-32"/>
       <use xlink:href="#DejaVuSans-30" x="63.623047"/>
       <use xlink:href="#DejaVuSans-32" x="127.246094"/>
       <use xlink:href="#DejaVuSans-34" x="190.869141"/>
       <use xlink:href="#DejaVuSans-2d" x="254.492188"/>
       <use xlink:href="#DejaVuSans-30" x="290.576172"/>
       <use xlink:href="#DejaVuSans-38" x="354.199219"/>
       <use xlink:href="#DejaVuSans-2d" x="417.822266"/>
       <use xlink:href="#DejaVuSans-31" x="453.90625"/>
       <use xlink:href="#DejaVuSans-35" x="517.529297"/>
      </g>
     </g>
    </g>
    <g id="xtick_6">
     <g id="line2d_11">
      <path d="M 816.730455 404.12 
L 816.730455 26.88 
" clip-path="url(#p7992ddd681)" style="fill: none; stroke-dasharray: 2.96,1.28; stroke-dashoffset: 0; stroke: #b0b0b0; stroke-width: 0.8"/>
     </g>
     <g id="line2d_12">
      <g>
       <use xlink:href="#m96946826e8" x="816.730455" y="404.12" style="stroke: #000000; stroke-width: 0.8"/>
      </g>
     </g>
     <g id="text_6">
      <!-- 2024-09-01 -->
      <g transform="translate(787.672642 418.718437) scale(0.1 -0.1)">
       <defs>
        <path id="DejaVuSans-39" d="M 703 97 
L 703 672 
Q 941 559 1184 500 
Q 1428 441 1663 441 
Q 2288 441 2617 861 
Q 2947 1281 2994 2138 
Q 2813 1869 2534 1725 
Q 2256 1581 1919 1581 
Q 1219 1581 811 2004 
Q 403 2428 403 3163 
Q 403 3881 828 4315 
Q 1253 4750 1959 4750 
Q 2769 4750 3195 4129 
Q 3622 3509 3622 2328 
Q 3622 1225 3098 567 
Q 2575 -91 1691 -91 
Q 1453 -91 1209 -44 
Q 966 3 703 97 
z
M 1959 2075 
Q 2384 2075 2632 2365 
Q 2881 2656 2881 3163 
Q 2881 3666 2632 3958 
Q 2384 4250 1959 4250 
Q 1534 4250 1286 3958 
Q 1038 3666 1038 3163 
Q 1038 2656 1286 2365 
Q 1534 2075 1959 2075 
z
" transform="scale(0.015625)"/>
       </defs>
       <use xlink:href="#DejaVuSans-32"/>
       <use xlink:href="#DejaVuSans-30" x="63.623047"/>
       <use xlink:href="#DejaVuSans-32" x="127.246094"/>
       <use xlink:href="#DejaVuSans-34" x="190.869141"/>
       <use xlink:href="#DejaVuSans-2d" x="254.492188"/>
       <use xlink:href="#DejaVuSans-30" x="290.576172"/>
       <use xlink:href="#DejaVuSans-39" x="354.199219"/>
       <use xlink:href="#DejaVuSans-2d" x="417.822266"/>
       <use xlink:href="#DejaVuSans-30" x="453.90625"/>
       <use xlink:href="#DejaVuSans-31" x="517.529297"/>
      </g>
     </g>
    </g>
   </g>
   <g id="matplotlib.axis_2">
    <g id="ytick_1">
     <g id="line2d_13">
      <path d="M 50.87 393.338502 
L 853.2 393.338502 
" clip-path="url(#p7992ddd681)" style="fill: none; stroke-dasharray: 2.96,1.28; stroke-dashoffset: 0; stroke: #b0b0b0; stroke-width: 0.8"/>
     </g>
     <g id="line2d_14">
      <defs>
       <path id="m82c1ca4775" d="M 0 0 
L -3.5 0 
" style="stroke: #000000; stroke-width: 0.8"/>
      </defs>
      <g>
       <use xlink:href="#m82c1ca4775" x="50.87" y="393.338502" style="stroke: #000000; stroke-width: 0.8"/>
      </g>
     </g>
     <g id="text_7">
      <!-- 0 -->
      <g transform="translate(37.5075 397.13772) scale(0.1 -0.1)">
       <use xlink:href="#DejaVuSans-30"/>
      </g>
     </g>
    </g>
    <g id="ytick_2">
     <g id="line2d_15">
      <path d="M 50.87 330.052416 
L 853.2 330.052416 
" clip-path="url(#p7992ddd681)" style="fill: none; stroke-dasharray: 2.96,1.28; stroke-dashoffset: 0; stroke: #b0b0b0; stroke-width: 0.8"/>
     </g>
     <g id="line2d_16">
      <g>
       <use xlink:href="#m82c1ca4775" x="50.87" y="330.052416" style="stroke: #000000; stroke-width: 0.8"/>
      </g>
     </g>
     <g id="text_8">
      <!-- 50 -->
      <g transform="translate(31.145 333.851635) scale(0.1 -0.1)">
       <use xlink:href="#DejaVuSans-35"/>
       <use xlink:href="#DejaVuSans-30" x="63.623047"/>
      </g>
     </g>
    </g>
    <g id="ytick_3">
     <g id="line2d_17">
      <path d="M 50.87 266.766331 
L 853.2 266.766331 
" clip-path="url(#p7992ddd681)" style="fill: none; stroke-dasharray: 2.96,1.28; stroke-dashoffset: 0; stroke: #b0b0b0; stroke-width: 0.8"/>
     </g>
     <g id="line2d_18">
      <g>
       <use xlink:href="#m82c1ca4775" x="50.87" y="266.766331" style="stroke: #000000; stroke-width: 0.8"/>
      </g>
     </g>
     <g id="text_9">
      <!-- 100 -->
      <g transform="translate(24.7825 270.56555) scale(0.1 -0.1)">
       <use xlink:href="#DejaVuSans-31"/>
       <use xlink:href="#DejaVuSans-30" x="63.623047"/>
       <use xlink:href="#DejaVuSans-30" x="127.246094"/>
      </g>
     </g>
    </g>
    <g id="ytick_4">
     <g id="line2d_19">
      <path d="M 50.87 203.480246 
L 853.2 203.480246 
" clip-path="url(#p7992ddd681)" style="fill: none; stroke-dasharray: 2.96,1.28; stroke-dashoffset: 0; stroke: #b0b0b0; stroke-width: 0.8"/>
     </g>
     <g id="line2d_20">
      <g>
       <use xlink:href="#m82c1ca4775" x="50.87" y="203.480246" style="stroke: #000000; stroke-width: 0.8"/>
      </g>
     </g>
     <g id="text_10">
      <!-- 150 -->
      <g transform="translate(24.7825 207.279465) scale(0.1 -0.1)">
       <use xlink:href="#DejaVuSans-31"/>
       <use xlink:href="#DejaVuSans-35" x="63.623047"/>
       <use xlink:href="#DejaVuSans-30" x="127.246094"/>
      </g>
     </g>
    </g>
    <g id="ytick_5">
     <g id="line2d_21">
      <path d="M 50.87 140.194161 
L 853.2 140.194161 
" clip-path="url(#p7992ddd681)" style="fill: none; stroke-dasharray: 2.96,1.28; stroke-dashoffset: 0; stroke: #b0b0b0; stroke-width: 0.8"/>
     </g>
     <g id="line2d_22">
      <g>
       <use xlink:href="#m82c1ca4775" x="50.87" y="140.194161" style="stroke: #000000; stroke-width: 0.8"/>
      </g>
     </g>
     <g id="text_11">
      <!-- 200 -->
      <g transform="translate(24.7825 143.99338) scale(0.1 -0.1)">
       <use xlink:href="#DejaVuSans-32"/>
       <use xlink:href="#DejaVuSans-30" x="63.623047"/>
       <use xlink:href="#DejaVuSans-30" x="127.246094"/>
      </g>
     </g>
    </g>
    <g id="ytick_6">
     <g id="line2d_23">
      <path d="M 50.87 76.908076 
L 853.2 76.908076 
" clip-path="url(#p7992ddd681)" style="fill: none; stroke-dasharray: 2.96,1.28; stroke-dashoffset: 0; stroke: #b0b0b0; stroke-width: 0.8"/>
     </g>
     <g id="line2d_24">
      <g>
       <use xlink:href="#m82c1ca4775" x="50.87" y="76.908076" style="stroke: #000000; stroke-width: 0.8"/>
      </g>
     </g>
     <g id="text_12">
      <!-- 250 -->
      <g transform="translate(24.7825 80.707295) scale(0.1 -0.1)">
       <use xlink:href="#DejaVuSans-32"/>
       <use xlink:href="#DejaVuSans-35" x="63.623047"/>
       <use xlink:href="#DejaVuSans-30" x="127.246094"/>
      </g>
     </g>
    </g>
    <g id="text_13">
     <!-- Score -->
     <g transform="translate(18.702813 229.502344) rotate(-90) scale(0.1 -0.1)">
      <defs>
       <path id="DejaVuSans-53" d="M 3425 4513 
L 3425 3897 
Q 3066 4069 2747 4153 
Q 2428 4238 2131 4238 
Q 1616 4238 1336 4038 
Q 1056 3838 1056 3469 
Q 1056 3159 1242 3001 
Q 1428 2844 1947 2747 
L 2328 2669 
Q 3034 2534 3370 2195 
Q 3706 1856 3706 1288 
Q 3706 609 3251 259 
Q 2797 -91 1919 -91 
Q 1588 -91 1214 -16 
Q 841 59 441 206 
L 441 856 
Q 825 641 1194 531 
Q 1563 422 1919 422 
Q 2459 422 2753 634 
Q 3047 847 3047 1241 
Q 3047 1584 2836 1778 
Q 2625 1972 2144 2069 
L 1759 2144 
Q 1053 2284 737 2584 
Q 422 2884 422 3419 
Q 422 4038 858 4394 
Q 1294 4750 2059 4750 
Q 2388 4750 2728 4690 
Q 3069 4631 3425 4513 
z
" transform="scale(0.015625)"/>
       <path id="DejaVuSans-63" d="M 3122 3366 
L 3122 2828 
Q 2878 2963 2633 3030 
Q 2388 3097 2138 3097 
Q 1578 3097 1268 2742 
Q 959 2388 959 1747 
Q 959 1106 1268 751 
Q 1578 397 2138 397 
Q 2388 397 2633 464 
Q 2878 531 3122 666 
L 3122 134 
Q 2881 22 2623 -34 
Q 2366 -91 2075 -91 
Q 1284 -91 818 406 
Q 353 903 353 1747 
Q 353 2603 823 3093 
Q 1294 3584 2113 3584 
Q 2378 3584 2631 3529 
Q 2884 3475 3122 3366 
z
" transform="scale(0.015625)"/>
       <path id="DejaVuSans-6f" d="M 1959 3097 
Q 1497 3097 1228 2736 
Q 959 2375 959 1747 
Q 959 1119 1226 758 
Q 1494 397 1959 397 
Q 2419 397 2687 759 
Q 2956 1122 2956 1747 
Q 2956 2369 2687 2733 
Q 2419 3097 1959 3097 
z
M 1959 3584 
Q 2709 3584 3137 3096 
Q 3566 2609 3566 1747 
Q 3566 888 3137 398 
Q 2709 -91 1959 -91 
Q 1206 -91 779 398 
Q 353 888 353 1747 
Q 353 2609 779 3096 
Q 1206 3584 1959 3584 
z
" transform="scale(0.015625)"/>
       <path id="DejaVuSans-72" d="M 2631 2963 
Q 2534 3019 2420 3045 
Q 2306 3072 2169 3072 
Q 1681 3072 1420 2755 
Q 1159 2438 1159 1844 
L 1159 0 
L 581 0 
L 581 3500 
L 1159 3500 
L 1159 2956 
Q 1341 3275 1631 3429 
Q 1922 3584 2338 3584 
Q 2397 3584 2469 3576 
Q 2541 3569 2628 3553 
L 2631 2963 
z
" transform="scale(0.015625)"/>
       <path id="DejaVuSans-65" d="M 3597 1894 
L 3597 1613 
L 953 1613 
Q 991 1019 1311 708 
Q 1631 397 2203 397 
Q 2534 397 2845 478 
Q 3156 559 3463 722 
L 3463 178 
Q 3153 47 2828 -22 
Q 2503 -91 2169 -91 
Q 1331 -91 842 396 
Q 353 884 353 1716 
Q 353 2575 817 3079 
Q 1281 3584 2069 3584 
Q 2775 3584 3186 3129 
Q 3597 2675 3597 1894 
z
M 3022 2063 
Q 3016 2534 2758 2815 
Q 2500 3097 2075 3097 
Q 1594 3097 1305 2825 
Q 1016 2553 972 2059 
L 3022 2063 
z
" transform="scale(0.015625)"/>
      </defs>
      <use xlink:href="#DejaVuSans-53"/>
      <use xlink:href="#DejaVuSans-63" x="63.476562"/>
      <use xlink:href="#DejaVuSans-6f" x="118.457031"/>
      <use xlink:href="#DejaVuSans-72" x="179.638672"/>
      <use xlink:href="#DejaVuSans-65" x="218.501953"/>
     </g>
    </g>
   </g>
   <g id="line2d_25">
    <path d="M 87.339545 380.803354 
L 96.572342 359.286085 
L 105.805138 321.314434 
L 115.037934 312.454382 
L 124.270731 293.468557 
L 133.503527 274.482731 
L 142.736323 246.636854 
L 151.96912 235.245359 
L 161.201916 203.602316 
L 170.434712 192.210821 
L 179.667509 158.036335 
L 188.900305 137.784787 
L 198.133101 78.295867 
L 225.83149 78.295867 
L 235.064287 78.295867 
L 244.297083 78.295867 
L 253.529879 78.295867 
L 262.762675 78.295867 
L 281.228268 78.295867 
L 290.461064 78.295867 
L 299.693861 78.295867 
L 308.926657 78.295867 
L 318.159453 78.295867 
L 327.39225 59.310042 
L 336.625046 59.310042 
L 345.857842 59.310042 
L 355.090639 59.310042 
L 364.323435 59.310042 
L 373.556231 46.652825 
L 382.789028 46.652825 
L 392.021824 46.652825 
L 401.25462 46.652825 
L 410.487417 46.652825 
L 419.720213 46.652825 
L 428.953009 46.652825 
L 438.185806 46.652825 
L 447.418602 46.652825 
L 456.651398 46.652825 
L 465.884194 46.652825 
L 475.116991 46.652825 
L 484.349787 46.652825 
L 493.582583 46.652825 
L 502.81538 46.652825 
L 512.048176 46.652825 
L 521.280972 46.652825 
L 530.513769 46.652825 
L 539.746565 46.652825 
L 548.979361 46.652825 
L 558.212158 46.652825 
L 567.444954 46.652825 
L 576.67775 46.652825 
L 585.910547 46.652825 
L 595.143343 46.652825 
L 604.376139 46.652825 
L 613.608936 46.652825 
L 622.841732 46.652825 
L 632.074528 46.652825 
L 641.307325 46.652825 
L 650.540121 46.652825 
L 659.772917 46.652825 
L 669.005713 46.652825 
L 678.23851 46.652825 
L 687.471306 46.652825 
L 696.704102 46.652825 
L 705.936899 46.652825 
L 715.169695 46.652825 
L 724.402491 46.652825 
L 733.635288 46.652825 
L 742.868084 46.652825 
L 752.10088 46.652825 
L 761.333677 46.652825 
L 770.566473 46.652825 
L 779.799269 46.652825 
L 789.032066 46.652825 
L 798.264862 46.652825 
L 807.497658 46.652825 
L 816.730455 46.652825 
" clip-path="url(#p7992ddd681)" style="fill: none; stroke: #1f77b4; stroke-width: 1.5; stroke-linecap: square"/>
    <defs>
     <path id="m84806af638" d="M 0 3.5 
C 0.928211 3.5 1.81853 3.131218 2.474874 2.474874 
C 3.131218 1.81853 3.5 0.928211 3.5 0 
C 3.5 -0.928211 3.131218 -1.81853 2.474874 -2.474874 
C 1.81853 -3.131218 0.928211 -3.5 0 -3.5 
C -0.928211 -3.5 -1.81853 -3.131218 -2.474874 -2.474874 
C -3.131218 -1.81853 -3.5 -0.928211 -3.5 0 
C -3.5 0.928211 -3.131218 1.81853 -2.474874 2.474874 
C -1.81853 3.131218 -0.928211 3.5 0 3.5 
z
" style="stroke: #1f77b4"/>
    </defs>
    <g clip-path="url(#p7992ddd681)">
     <use xlink:href="#m84806af638" x="87.339545" y="380.803354" style="fill: #1f77b4; stroke: #1f77b4"/>
     <use xlink:href="#m84806af638" x="96.572342" y="359.286085" style="fill: #1f77b4; stroke: #1f77b4"/>
     <use xlink:href="#m84806af638" x="105.805138" y="321.314434" style="fill: #1f77b4; stroke: #1f77b4"/>
     <use xlink:href="#m84806af638" x="115.037934" y="312.454382" style="fill: #1f77b4; stroke: #1f77b4"/>
     <use xlink:href="#m84806af638" x="124.270731" y="293.468557" style="fill: #1f77b4; stroke: #1f77b4"/>
     <use xlink:href="#m84806af638" x="133.503527" y="274.482731" style="fill: #1f77b4; stroke: #1f77b4"/>
     <use xlink:href="#m84806af638" x="142.736323" y="246.636854" style="fill: #1f77b4; stroke: #1f77b4"/>
     <use xlink:href="#m84806af638" x="151.96912" y="235.245359" style="fill: #1f77b4; stroke: #1f77b4"/>
     <use xlink:href="#m84806af638" x="161.201916" y="203.602316" style="fill: #1f77b4; stroke: #1f77b4"/>
     <use xlink:href="#m84806af638" x="170.434712" y="192.210821" style="fill: #1f77b4; stroke: #1f77b4"/>
     <use xlink:href="#m84806af638" x="179.667509" y="158.036335" style="fill: #1f77b4; stroke: #1f77b4"/>
     <use xlink:href="#m84806af638" x="188.900305" y="137.784787" style="fill: #1f77b4; stroke: #1f77b4"/>
     <use xlink:href="#m84806af638" x="198.133101" y="78.295867" style="fill: #1f77b4; stroke: #1f77b4"/>
     <use xlink:href="#m84806af638" x="225.83149" y="78.295867" style="fill: #1f77b4; stroke: #1f77b4"/>
     <use xlink:href="#m84806af638" x="235.064287" y="78.295867" style="fill: #1f77b4; stroke: #1f77b4"/>
     <use xlink:href="#m84806af638" x="244.297083" y="78.295867" style="fill: #1f77b4; stroke: #1f77b4"/>
     <use xlink:href="#m84806af638" x="253.529879" y="78.295867" style="fill: #1f77b4; stroke: #1f77b4"/>
     <use xlink:href="#m84806af638" x="262.762675" y="78.295867" style="fill: #1f77b4; stroke: #1f77b4"/>
     <use xlink:href="#m84806af638" x="281.228268" y="78.295867" style="fill: #1f77b4; stroke: #1f77b4"/>
     <use xlink:href="#m84806af638" x="290.461064" y="78.295867" style="fill: #1f77b4; stroke: #1f77b4"/>
     <use xlink:href="#m84806af638" x="299.693861" y="78.295867" style="fill: #1f77b4; stroke: #1f77b4"/>
     <use xlink:href="#m84806af638" x="308.926657" y="78.295867" style="fill: #1f77b4; stroke: #1f77b4"/>
     <use xlink:href="#m84806af638" x="318.159453" y="78.295867" style="fill: #1f77b4; stroke: #1f77b4"/>
     <use xlink:href="#m84806af638" x="327.39225" y="59.310042" style="fill: #1f77b4; stroke: #1f77b4"/>
     <use xlink:href="#m84806af638" x="336.625046" y="59.310042" style="fill: #1f77b4; stroke: #1f77b4"/>
     <use xlink:href="#m84806af638" x="345.857842" y="59.310042" style="fill: #1f77b4; stroke: #1f77b4"/>
     <use xlink:href="#m84806af638" x="355.090639" y="59.310042" style="fill: #1f77b4; stroke: #1f77b4"/>
     <use xlink:href="#m84806af638" x="364.323435" y="59.310042" style="fill: #1f77b4; stroke: #1f77b4"/>
     <use xlink:href="#m84806af638" x="373.556231" y="46.652825" style="fill: #1f77b4; stroke: #1f77b4"/>
     <use xlink:href="#m84806af638" x="382.789028" y="46.652825" style="fill: #1f77b4; stroke: #1f77b4"/>
     <use xlink:href="#m84806af638" x="392.021824" y="46.652825" style="fill: #1f77b4; stroke: #1f77b4"/>
     <use xlink:href="#m84806af638" x="401.25462" y="46.652825" style="fill: #1f77b4; stroke: #1f77b4"/>
     <use xlink:href="#m84806af638" x="410.487417" y="46.652825" style="fill: #1f77b4; stroke: #1f77b4"/>
     <use xlink:href="#m84806af638" x="419.720213" y="46.652825" style="fill: #1f77b4; stroke: #1f77b4"/>
     <use xlink:href="#m84806af638" x="428.953009" y="46.652825" style="fill: #1f77b4; stroke: #1f77b4"/>
     <use xlink:href="#m84806af638" x="438.185806" y="46.652825" style="fill: #1f77b4; stroke: #1f77b4"/>
     <use xlink:href="#m84806af638" x="447.418602" y="46.652825" style="fill: #1f77b4; stroke: #1f77b4"/>
     <use xlink:href="#m84806af638" x="456.651398" y="46.652825" style="fill: #1f77b4; stroke: #1f77b4"/>
     <use xlink:href="#m84806af638" x="465.884194" y="46.652825" style="fill: #1f77b4; stroke: #1f77b4"/>
     <use xlink:href="#m84806af638" x="475.116991" y="46.652825" style="fill: #1f77b4; stroke: #1f77b4"/>
     <use xlink:href="#m84806af638" x="484.349787" y="46.652825" style="fill: #1f77b4; stroke: #1f77b4"/>
     <use xlink:href="#m84806af638" x="493.582583" y="46.652825" style="fill: #1f77b4; stroke: #1f77b4"/>
     <use xlink:href="#m84806af638" x="502.81538" y="46.652825" style="fill: #1f77b4; stroke: #1f77b4"/>
     <use xlink:href="#m84806af638" x="512.048176" y="46.652825" style="fill: #1f77b4; stroke: #1f77b4"/>
     <use xlink:href="#m84806af638" x="521.280972" y="46.652825" style="fill: #1f77b4; stroke: #1f77b4"/>
     <use xlink:href="#m84806af638" x="530.513769" y="46.652825" style="fill: #1f77b4; stroke: #1f77b4"/>
     <use xlink:href="#m84806af638" x="539.746565" y="46.652825" style="fill: #1f77b4; stroke: #1f77b4"/>
     <use xlink:href="#m84806af638" x="548.979361" y="46.652825" style="fill: #1f77b4; stroke: #1f77b4"/>
     <use xlink:href="#m84806af638" x="558.212158" y="46.652825" style="fill: #1f77b4; stroke: #1f77b4"/>
     <use xlink:href="#m84806af638" x="567.444954" y="46.652825" style="fill: #1f77b4; stroke: #1f77b4"/>
     <use xlink:href="#m84806af638" x="576.67775" y="46.652825" style="fill: #1f77b4; stroke: #1f77b4"/>
     <use xlink:href="#m84806af638" x="585.910547" y="46.652825" style="fill: #1f77b4; stroke: #1f77b4"/>
     <use xlink:href="#m84806af638" x="595.143343" y="46.652825" style="fill: #1f77b4; stroke: #1f77b4"/>
     <use xlink:href="#m84806af638" x="604.376139" y="46.652825" style="fill: #1f77b4; stroke: #1f77b4"/>
     <use xlink:href="#m84806af638" x="613.608936" y="46.652825" style="fill: #1f77b4; stroke: #1f77b4"/>
     <use xlink:href="#m84806af638" x="622.841732" y="46.652825" style="fill: #1f77b4; stroke: #1f77b4"/>
     <use xlink:href="#m84806af638" x="632.074528" y="46.652825" style="fill: #1f77b4; stroke: #1f77b4"/>
     <use xlink:href="#m84806af638" x="641.307325" y="46.652825" style="fill: #1f77b4; stroke: #1f77b4"/>
     <use xlink:href="#m84806af638" x="650.540121" y="46.652825" style="fill: #1f77b4; stroke: #1f77b4"/>
     <use xlink:href="#m84806af638" x="659.772917" y="46.652825" style="fill: #1f77b4; stroke: #1f77b4"/>
     <use xlink:href="#m84806af638" x="669.005713" y="46.652825" style="fill: #1f77b4; stroke: #1f77b4"/>
     <use xlink:href="#m84806af638" x="678.23851" y="46.652825" style="fill: #1f77b4; stroke: #1f77b4"/>
     <use xlink:href="#m84806af638" x="687.471306" y="46.652825" style="fill: #1f77b4; stroke: #1f77b4"/>
     <use xlink:href="#m84806af638" x="696.704102" y="46.652825" style="fill: #1f77b4; stroke: #1f77b4"/>
     <use xlink:href="#m84806af638" x="705.936899" y="46.652825" style="fill: #1f77b4; stroke: #1f77b4"/>
     <use xlink:href="#m84806af638" x="715.169695" y="46.652825" style="fill: #1f77b4; stroke: #1f77b4"/>
     <use xlink:href="#m84806af638" x="724.402491" y="46.652825" style="fill: #1f77b4; stroke: #1f77b4"/>
     <use xlink:href="#m84806af638" x="733.635288" y="46.652825" style="fill: #1f77b4; stroke: #1f77b4"/>
     <use xlink:href="#m84806af638" x="742.868084" y="46.652825" style="fill: #1f77b4; stroke: #1f77b4"/>
     <use xlink:href="#m84806af638" x="752.10088" y="46.652825" style="fill: #1f77b4; stroke: #1f77b4"/>
     <use xlink:href="#m84806af638" x="761.333677" y="46.652825" style="fill: #1f77b4; stroke: #1f77b4"/>
     <use xlink:href="#m84806af638" x="770.566473" y="46.652825" style="fill: #1f77b4; stroke: #1f77b4"/>
     <use xlink:href="#m84806af638" x="779.799269" y="46.652825" style="fill: #1f77b4; stroke: #1f77b4"/>
     <use xlink:href="#m84806af638" x="789.032066" y="46.652825" style="fill: #1f77b4; stroke: #1f77b4"/>
     <use xlink:href="#m84806af638" x="798.264862" y="46.652825" style="fill: #1f77b4; stroke: #1f77b4"/>
     <use xlink:href="#m84806af638" x="807.497658" y="46.652825" style="fill: #1f77b4; stroke: #1f77b4"/>
     <use xlink:href="#m84806af638" x="816.730455" y="46.652825" style="fill: #1f77b4; stroke: #1f77b4"/>
    </g>
   </g>
   <g id="line2d_26">
    <path d="M 87.339545 380.691933 
L 96.572342 359.174664 
L 105.805138 340.188838 
L 115.037934 333.86023 
L 124.270731 327.531621 
L 133.503527 303.482909 
L 142.736323 292.091414 
L 151.96912 285.762805 
L 161.201916 254.119762 
L 170.434712 216.148111 
L 179.667509 190.833677 
L 188.900305 176.910739 
L 198.133101 130.079036 
L 225.83149 130.079036 
L 235.064287 130.079036 
L 244.297083 130.079036 
L 253.529879 130.079036 
L 262.762675 130.079036 
L 281.228268 130.079036 
L 290.461064 130.079036 
L 299.693861 130.079036 
L 308.926657 130.079036 
L 318.159453 130.079036 
L 327.39225 111.09321 
L 336.625046 111.09321 
L 345.857842 111.09321 
L 355.090639 111.09321 
L 364.323435 111.09321 
L 373.556231 79.450168 
L 382.789028 79.450168 
L 392.021824 79.450168 
L 401.25462 79.450168 
L 410.487417 79.450168 
L 419.720213 79.450168 
L 428.953009 79.450168 
L 438.185806 79.450168 
L 447.418602 79.450168 
L 456.651398 79.450168 
L 465.884194 79.450168 
L 475.116991 79.450168 
L 484.349787 79.450168 
L 493.582583 79.450168 
L 502.81538 79.450168 
L 512.048176 79.450168 
L 521.280972 79.450168 
L 530.513769 79.450168 
L 539.746565 79.450168 
L 548.979361 79.450168 
L 558.212158 79.450168 
L 567.444954 79.450168 
L 576.67775 79.450168 
L 585.910547 79.450168 
L 595.143343 79.450168 
L 604.376139 79.450168 
L 613.608936 79.450168 
L 622.841732 79.450168 
L 632.074528 79.450168 
L 641.307325 79.450168 
L 650.540121 79.450168 
L 659.772917 79.450168 
L 669.005713 79.450168 
L 678.23851 79.450168 
L 687.471306 79.450168 
L 696.704102 79.450168 
L 705.936899 79.450168 
L 715.169695 79.450168 
L 724.402491 79.450168 
L 733.635288 79.450168 
L 742.868084 79.450168 
L 752.10088 79.450168 
L 761.333677 79.450168 
L 770.566473 79.450168 
L 779.799269 79.450168 
L 789.032066 79.450168 
L 798.264862 79.450168 
L 807.497658 79.450168 
L 816.730455 79.450168 
" clip-path="url(#p7992ddd681)" style="fill: none; stroke: #ff7f0e; stroke-width: 1.5; stroke-linecap: square"/>
    <defs>
     <path id="md01e378ce0" d="M 0 3.5 
C 0.928211 3.5 1.81853 3.131218 2.474874 2.474874 
C 3.131218 1.81853 3.5 0.928211 3.5 0 
C 3.5 -0.928211 3.131218 -1.81853 2.474874 -2.474874 
C 1.81853 -3.131218 0.928211 -3.5 0 -3.5 
C -0.928211 -3.5 -1.81853 -3.131218 -2.474874 -2.474874 
C -3.131218 -1.81853 -3.5 -0.928211 -3.5 0 
C -3.5 0.928211 -3.131218 1.81853 -2.474874 2.474874 
C -1.81853 3.131218 -0.928211 3.5 0 3.5 
z
" style="stroke: #ff7f0e"/>
    </defs>
    <g clip-path="url(#p7992ddd681)">
     <use xlink:href="#md01e378ce0" x="87.339545" y="380.691933" style="fill: #ff7f0e; stroke: #ff7f0e"/>
     <use xlink:href="#md01e378ce0" x="96.572342" y="359.174664" style="fill: #ff7f0e; stroke: #ff7f0e"/>
     <use xlink:href="#md01e378ce0" x="105.805138" y="340.188838" style="fill: #ff7f0e; stroke: #ff7f0e"/>
     <use xlink:href="#md01e378ce0" x="115.037934" y="333.86023" style="fill: #ff7f0e; stroke: #ff7f0e"/>
     <use xlink:href="#md01e378ce0" x="124.270731" y="327.531621" style="fill: #ff7f0e; stroke: #ff7f0e"/>
     <use xlink:href="#md01e378ce0" x="133.503527" y="303.482909" style="fill: #ff7f0e; stroke: #ff7f0e"/>
     <use xlink:href="#md01e378ce0" x="142.736323" y="292.091414" style="fill: #ff7f0e; stroke: #ff7f0e"/>
     <use xlink:href="#md01e378ce0" x="151.96912" y="285.762805" style="fill: #ff7f0e; stroke: #ff7f0e"/>
     <use xlink:href="#md01e378ce0" x="161.201916" y="254.119762" style="fill: #ff7f0e; stroke: #ff7f0e"/>
     <use xlink:href="#md01e378ce0" x="170.434712" y="216.148111" style="fill: #ff7f0e; stroke: #ff7f0e"/>
     <use xlink:href="#md01e378ce0" x="179.667509" y="190.833677" style="fill: #ff7f0e; stroke: #ff7f0e"/>
     <use xlink:href="#md01e378ce0" x="188.900305" y="176.910739" style="fill: #ff7f0e; stroke: #ff7f0e"/>
     <use xlink:href="#md01e378ce0" x="198.133101" y="130.079036" style="fill: #ff7f0e; stroke: #ff7f0e"/>
     <use xlink:href="#md01e378ce0" x="225.83149" y="130.079036" style="fill: #ff7f0e; stroke: #ff7f0e"/>
     <use xlink:href="#md01e378ce0" x="235.064287" y="130.079036" style="fill: #ff7f0e; stroke: #ff7f0e"/>
     <use xlink:href="#md01e378ce0" x="244.297083" y="130.079036" style="fill: #ff7f0e; stroke: #ff7f0e"/>
     <use xlink:href="#md01e378ce0" x="253.529879" y="130.079036" style="fill: #ff7f0e; stroke: #ff7f0e"/>
     <use xlink:href="#md01e378ce0" x="262.762675" y="130.079036" style="fill: #ff7f0e; stroke: #ff7f0e"/>
     <use xlink:href="#md01e378ce0" x="281.228268" y="130.079036" style="fill: #ff7f0e; stroke: #ff7f0e"/>
     <use xlink:href="#md01e378ce0" x="290.461064" y="130.079036" style="fill: #ff7f0e; stroke: #ff7f0e"/>
     <use xlink:href="#md01e378ce0" x="299.693861" y="130.079036" style="fill: #ff7f0e; stroke: #ff7f0e"/>
     <use xlink:href="#md01e378ce0" x="308.926657" y="130.079036" style="fill: #ff7f0e; stroke: #ff7f0e"/>
     <use xlink:href="#md01e378ce0" x="318.159453" y="130.079036" style="fill: #ff7f0e; stroke: #ff7f0e"/>
     <use xlink:href="#md01e378ce0" x="327.39225" y="111.09321" style="fill: #ff7f0e; stroke: #ff7f0e"/>
     <use xlink:href="#md01e378ce0" x="336.625046" y="111.09321" style="fill: #ff7f0e; stroke: #ff7f0e"/>
     <use xlink:href="#md01e378ce0" x="345.857842" y="111.09321" style="fill: #ff7f0e; stroke: #ff7f0e"/>
     <use xlink:href="#md01e378ce0" x="355.090639" y="111.09321" style="fill: #ff7f0e; stroke: #ff7f0e"/>
     <use xlink:href="#md01e378ce0" x="364.323435" y="111.09321" style="fill: #ff7f0e; stroke: #ff7f0e"/>
     <use xlink:href="#md01e378ce0" x="373.556231" y="79.450168" style="fill: #ff7f0e; stroke: #ff7f0e"/>
     <use xlink:href="#md01e378ce0" x="382.789028" y="79.450168" style="fill: #ff7f0e; stroke: #ff7f0e"/>
     <use xlink:href="#md01e378ce0" x="392.021824" y="79.450168" style="fill: #ff7f0e; stroke: #ff7f0e"/>
     <use xlink:href="#md01e378ce0" x="401.25462" y="79.450168" style="fill: #ff7f0e; stroke: #ff7f0e"/>
     <use xlink:href="#md01e378ce0" x="410.487417" y="79.450168" style="fill: #ff7f0e; stroke: #ff7f0e"/>
     <use xlink:href="#md01e378ce0" x="419.720213" y="79.450168" style="fill: #ff7f0e; stroke: #ff7f0e"/>
     <use xlink:href="#md01e378ce0" x="428.953009" y="79.450168" style="fill: #ff7f0e; stroke: #ff7f0e"/>
     <use xlink:href="#md01e378ce0" x="438.185806" y="79.450168" style="fill: #ff7f0e; stroke: #ff7f0e"/>
     <use xlink:href="#md01e378ce0" x="447.418602" y="79.450168" style="fill: #ff7f0e; stroke: #ff7f0e"/>
     <use xlink:href="#md01e378ce0" x="456.651398" y="79.450168" style="fill: #ff7f0e; stroke: #ff7f0e"/>
     <use xlink:href="#md01e378ce0" x="465.884194" y="79.450168" style="fill: #ff7f0e; stroke: #ff7f0e"/>
     <use xlink:href="#md01e378ce0" x="475.116991" y="79.450168" style="fill: #ff7f0e; stroke: #ff7f0e"/>
     <use xlink:href="#md01e378ce0" x="484.349787" y="79.450168" style="fill: #ff7f0e; stroke: #ff7f0e"/>
     <use xlink:href="#md01e378ce0" x="493.582583" y="79.450168" style="fill: #ff7f0e; stroke: #ff7f0e"/>
     <use xlink:href="#md01e378ce0" x="502.81538" y="79.450168" style="fill: #ff7f0e; stroke: #ff7f0e"/>
     <use xlink:href="#md01e378ce0" x="512.048176" y="79.450168" style="fill: #ff7f0e; stroke: #ff7f0e"/>
     <use xlink:href="#md01e378ce0" x="521.280972" y="79.450168" style="fill: #ff7f0e; stroke: #ff7f0e"/>
     <use xlink:href="#md01e378ce0" x="530.513769" y="79.450168" style="fill: #ff7f0e; stroke: #ff7f0e"/>
     <use xlink:href="#md01e378ce0" x="539.746565" y="79.450168" style="fill: #ff7f0e; stroke: #ff7f0e"/>
     <use xlink:href="#md01e378ce0" x="548.979361" y="79.450168" style="fill: #ff7f0e; stroke: #ff7f0e"/>
     <use xlink:href="#md01e378ce0" x="558.212158" y="79.450168" style="fill: #ff7f0e; stroke: #ff7f0e"/>
     <use xlink:href="#md01e378ce0" x="567.444954" y="79.450168" style="fill: #ff7f0e; stroke: #ff7f0e"/>
     <use xlink:href="#md01e378ce0" x="576.67775" y="79.450168" style="fill: #ff7f0e; stroke: #ff7f0e"/>
     <use xlink:href="#md01e378ce0" x="585.910547" y="79.450168" style="fill: #ff7f0e; stroke: #ff7f0e"/>
     <use xlink:href="#md01e378ce0" x="595.143343" y="79.450168" style="fill: #ff7f0e; stroke: #ff7f0e"/>
     <use xlink:href="#md01e378ce0" x="604.376139" y="79.450168" style="fill: #ff7f0e; stroke: #ff7f0e"/>
     <use xlink:href="#md01e378ce0" x="613.608936" y="79.450168" style="fill: #ff7f0e; stroke: #ff7f0e"/>
     <use xlink:href="#md01e378ce0" x="622.841732" y="79.450168" style="fill: #ff7f0e; stroke: #ff7f0e"/>
     <use xlink:href="#md01e378ce0" x="632.074528" y="79.450168" style="fill: #ff7f0e; stroke: #ff7f0e"/>
     <use xlink:href="#md01e378ce0" x="641.307325" y="79.450168" style="fill: #ff7f0e; stroke: #ff7f0e"/>
     <use xlink:href="#md01e378ce0" x="650.540121" y="79.450168" style="fill: #ff7f0e; stroke: #ff7f0e"/>
     <use xlink:href="#md01e378ce0" x="659.772917" y="79.450168" style="fill: #ff7f0e; stroke: #ff7f0e"/>
     <use xlink:href="#md01e378ce0" x="669.005713" y="79.450168" style="fill: #ff7f0e; stroke: #ff7f0e"/>
     <use xlink:href="#md01e378ce0" x="678.23851" y="79.450168" style="fill: #ff7f0e; stroke: #ff7f0e"/>
     <use xlink:href="#md01e378ce0" x="687.471306" y="79.450168" style="fill: #ff7f0e; stroke: #ff7f0e"/>
     <use xlink:href="#md01e378ce0" x="696.704102" y="79.450168" style="fill: #ff7f0e; stroke: #ff7f0e"/>
     <use xlink:href="#md01e378ce0" x="705.936899" y="79.450168" style="fill: #ff7f0e; stroke: #ff7f0e"/>
     <use xlink:href="#md01e378ce0" x="715.169695" y="79.450168" style="fill: #ff7f0e; stroke: #ff7f0e"/>
     <use xlink:href="#md01e378ce0" x="724.402491" y="79.450168" style="fill: #ff7f0e; stroke: #ff7f0e"/>
     <use xlink:href="#md01e378ce0" x="733.635288" y="79.450168" style="fill: #ff7f0e; stroke: #ff7f0e"/>
     <use xlink:href="#md01e378ce0" x="742.868084" y="79.450168" style="fill: #ff7f0e; stroke: #ff7f0e"/>
     <use xlink:href="#md01e378ce0" x="752.10088" y="79.450168" style="fill: #ff7f0e; stroke: #ff7f0e"/>
     <use xlink:href="#md01e378ce0" x="761.333677" y="79.450168" style="fill: #ff7f0e; stroke: #ff7f0e"/>
     <use xlink:href="#md01e378ce0" x="770.566473" y="79.450168" style="fill: #ff7f0e; stroke: #ff7f0e"/>
     <use xlink:href="#md01e378ce0" x="779.799269" y="79.450168" style="fill: #ff7f0e; stroke: #ff7f0e"/>
     <use xlink:href="#md01e378ce0" x="789.032066" y="79.450168" style="fill: #ff7f0e; stroke: #ff7f0e"/>
     <use xlink:href="#md01e378ce0" x="798.264862" y="79.450168" style="fill: #ff7f0e; stroke: #ff7f0e"/>
     <use xlink:href="#md01e378ce0" x="807.497658" y="79.450168" style="fill: #ff7f0e; stroke: #ff7f0e"/>
     <use xlink:href="#md01e378ce0" x="816.730455" y="79.450168" style="fill: #ff7f0e; stroke: #ff7f0e"/>
    </g>
   </g>
   <g id="line2d_27">
    <path d="M 87.339545 380.701776 
L 96.572342 355.387342 
L 105.805138 331.33863 
L 115.037934 318.681413 
L 124.270731 293.366979 
L 133.503527 271.84971 
L 142.736323 250.332441 
L 151.96912 212.36079 
L 161.201916 190.843521 
L 170.434712 181.983469 
L 179.667509 154.137591 
L 188.900305 142.746096 
L 198.133101 99.711558 
L 225.83149 99.711558 
L 235.064287 99.711558 
L 244.297083 99.711558 
L 253.529879 99.711558 
L 262.762675 99.711558 
L 281.228268 99.711558 
L 290.461064 99.711558 
L 299.693861 99.711558 
L 308.926657 99.711558 
L 318.159453 99.711558 
L 327.39225 80.725733 
L 336.625046 80.725733 
L 345.857842 80.725733 
L 355.090639 80.725733 
L 364.323435 80.725733 
L 373.556231 80.725733 
L 382.789028 80.725733 
L 392.021824 80.725733 
L 401.25462 80.725733 
L 410.487417 80.725733 
L 419.720213 80.725733 
L 428.953009 80.725733 
L 438.185806 80.725733 
L 447.418602 80.725733 
L 456.651398 80.725733 
L 465.884194 80.725733 
L 475.116991 80.725733 
L 484.349787 80.725733 
L 493.582583 80.725733 
L 502.81538 80.725733 
L 512.048176 80.725733 
L 521.280972 80.725733 
L 530.513769 80.725733 
L 539.746565 80.725733 
L 548.979361 80.725733 
L 558.212158 80.725733 
L 567.444954 80.725733 
L 576.67775 80.725733 
L 585.910547 80.725733 
L 595.143343 80.725733 
L 604.376139 80.725733 
L 613.608936 80.725733 
L 622.841732 80.725733 
L 632.074528 80.725733 
L 641.307325 80.725733 
L 650.540121 80.725733 
L 659.772917 80.725733 
L 669.005713 80.725733 
L 678.23851 80.725733 
L 687.471306 80.725733 
L 696.704102 80.725733 
L 705.936899 80.725733 
L 715.169695 80.725733 
L 724.402491 80.725733 
L 733.635288 80.725733 
L 742.868084 80.725733 
L 752.10088 80.725733 
L 761.333677 80.725733 
L 770.566473 80.725733 
L 779.799269 80.725733 
L 789.032066 80.725733 
L 798.264862 80.725733 
L 807.497658 80.725733 
L 816.730455 80.725733 
" clip-path="url(#p7992ddd681)" style="fill: none; stroke: #2ca02c; stroke-width: 1.5; stroke-linecap: square"/>
    <defs>
     <path id="m4038a541ad" d="M 0 3.5 
C 0.928211 3.5 1.81853 3.131218 2.474874 2.474874 
C 3.131218 1.81853 3.5 0.928211 3.5 0 
C 3.5 -0.928211 3.131218 -1.81853 2.474874 -2.474874 
C 1.81853 -3.131218 0.928211 -3.5 0 -3.5 
C -0.928211 -3.5 -1.81853 -3.131218 -2.474874 -2.474874 
C -3.131218 -1.81853 -3.5 -0.928211 -3.5 0 
C -3.5 0.928211 -3.131218 1.81853 -2.474874 2.474874 
C -1.81853 3.131218 -0.928211 3.5 0 3.5 
z
" style="stroke: #2ca02c"/>
    </defs>
    <g clip-path="url(#p7992ddd681)">
     <use xlink:href="#m4038a541ad" x="87.339545" y="380.701776" style="fill: #2ca02c; stroke: #2ca02c"/>
     <use xlink:href="#m4038a541ad" x="96.572342" y="355.387342" style="fill: #2ca02c; stroke: #2ca02c"/>
     <use xlink:href="#m4038a541ad" x="105.805138" y="331.33863" style="fill: #2ca02c; stroke: #2ca02c"/>
     <use xlink:href="#m4038a541ad" x="115.037934" y="318.681413" style="fill: #2ca02c; stroke: #2ca02c"/>
     <use xlink:href="#m4038a541ad" x="124.270731" y="293.366979" style="fill: #2ca02c; stroke: #2ca02c"/>
     <use xlink:href="#m4038a541ad" x="133.503527" y="271.84971" style="fill: #2ca02c; stroke: #2ca02c"/>
     <use xlink:href="#m4038a541ad" x="142.736323" y="250.332441" style="fill: #2ca02c; stroke: #2ca02c"/>
     <use xlink:href="#m4038a541ad" x="151.96912" y="212.36079" style="fill: #2ca02c; stroke: #2ca02c"/>
     <use xlink:href="#m4038a541ad" x="161.201916" y="190.843521" style="fill: #2ca02c; stroke: #2ca02c"/>
     <use xlink:href="#m4038a541ad" x="170.434712" y="181.983469" style="fill: #2ca02c; stroke: #2ca02c"/>
     <use xlink:href="#m4038a541ad" x="179.667509" y="154.137591" style="fill: #2ca02c; stroke: #2ca02c"/>
     <use xlink:href="#m4038a541ad" x="188.900305" y="142.746096" style="fill: #2ca02c; stroke: #2ca02c"/>
     <use xlink:href="#m4038a541ad" x="198.133101" y="99.711558" style="fill: #2ca02c; stroke: #2ca02c"/>
     <use xlink:href="#m4038a541ad" x="225.83149" y="99.711558" style="fill: #2ca02c; stroke: #2ca02c"/>
     <use xlink:href="#m4038a541ad" x="235.064287" y="99.711558" style="fill: #2ca02c; stroke: #2ca02c"/>
     <use xlink:href="#m4038a541ad" x="244.297083" y="99.711558" style="fill: #2ca02c; stroke: #2ca02c"/>
     <use xlink:href="#m4038a541ad" x="253.529879" y="99.711558" style="fill: #2ca02c; stroke: #2ca02c"/>
     <use xlink:href="#m4038a541ad" x="262.762675" y="99.711558" style="fill: #2ca02c; stroke: #2ca02c"/>
     <use xlink:href="#m4038a541ad" x="281.228268" y="99.711558" style="fill: #2ca02c; stroke: #2ca02c"/>
     <use xlink:href="#m4038a541ad" x="290.461064" y="99.711558" style="fill: #2ca02c; stroke: #2ca02c"/>
     <use xlink:href="#m4038a541ad" x="299.693861" y="99.711558" style="fill: #2ca02c; stroke: #2ca02c"/>
     <use xlink:href="#m4038a541ad" x="308.926657" y="99.711558" style="fill: #2ca02c; stroke: #2ca02c"/>
     <use xlink:href="#m4038a541ad" x="318.159453" y="99.711558" style="fill: #2ca02c; stroke: #2ca02c"/>
     <use xlink:href="#m4038a541ad" x="327.39225" y="80.725733" style="fill: #2ca02c; stroke: #2ca02c"/>
     <use xlink:href="#m4038a541ad" x="336.625046" y="80.725733" style="fill: #2ca02c; stroke: #2ca02c"/>
     <use xlink:href="#m4038a541ad" x="345.857842" y="80.725733" style="fill: #2ca02c; stroke: #2ca02c"/>
     <use xlink:href="#m4038a541ad" x="355.090639" y="80.725733" style="fill: #2ca02c; stroke: #2ca02c"/>
     <use xlink:href="#m4038a541ad" x="364.323435" y="80.725733" style="fill: #2ca02c; stroke: #2ca02c"/>
     <use xlink:href="#m4038a541ad" x="373.556231" y="80.725733" style="fill: #2ca02c; stroke: #2ca02c"/>
     <use xlink:href="#m4038a541ad" x="382.789028" y="80.725733" style="fill: #2ca02c; stroke: #2ca02c"/>
     <use xlink:href="#m4038a541ad" x="392.021824" y="80.725733" style="fill: #2ca02c; stroke: #2ca02c"/>
     <use xlink:href="#m4038a541ad" x="401.25462" y="80.725733" style="fill: #2ca02c; stroke: #2ca02c"/>
     <use xlink:href="#m4038a541ad" x="410.487417" y="80.725733" style="fill: #2ca02c; stroke: #2ca02c"/>
     <use xlink:href="#m4038a541ad" x="419.720213" y="80.725733" style="fill: #2ca02c; stroke: #2ca02c"/>
     <use xlink:href="#m4038a541ad" x="428.953009" y="80.725733" style="fill: #2ca02c; stroke: #2ca02c"/>
     <use xlink:href="#m4038a541ad" x="438.185806" y="80.725733" style="fill: #2ca02c; stroke: #2ca02c"/>
     <use xlink:href="#m4038a541ad" x="447.418602" y="80.725733" style="fill: #2ca02c; stroke: #2ca02c"/>
     <use xlink:href="#m4038a541ad" x="456.651398" y="80.725733" style="fill: #2ca02c; stroke: #2ca02c"/>
     <use xlink:href="#m4038a541ad" x="465.884194" y="80.725733" style="fill: #2ca02c; stroke: #2ca02c"/>
     <use xlink:href="#m4038a541ad" x="475.116991" y="80.725733" style="fill: #2ca02c; stroke: #2ca02c"/>
     <use xlink:href="#m4038a541ad" x="484.349787" y="80.725733" style="fill: #2ca02c; stroke: #2ca02c"/>
     <use xlink:href="#m4038a541ad" x="493.582583" y="80.725733" style="fill: #2ca02c; stroke: #2ca02c"/>
     <use xlink:href="#m4038a541ad" x="502.81538" y="80.725733" style="fill: #2ca02c; stroke: #2ca02c"/>
     <use xlink:href="#m4038a541ad" x="512.048176" y="80.725733" style="fill: #2ca02c; stroke: #2ca02c"/>
     <use xlink:href="#m4038a541ad" x="521.280972" y="80.725733" style="fill: #2ca02c; stroke: #2ca02c"/>
     <use xlink:href="#m4038a541ad" x="530.513769" y="80.725733" style="fill: #2ca02c; stroke: #2ca02c"/>
     <use xlink:href="#m4038a541ad" x="539.746565" y="80.725733" style="fill: #2ca02c; stroke: #2ca02c"/>
     <use xlink:href="#m4038a541ad" x="548.979361" y="80.725733" style="fill: #2ca02c; stroke: #2ca02c"/>
     <use xlink:href="#m4038a541ad" x="558.212158" y="80.725733" style="fill: #2ca02c; stroke: #2ca02c"/>
     <use xlink:href="#m4038a541ad" x="567.444954" y="80.725733" style="fill: #2ca02c; stroke: #2ca02c"/>
     <use xlink:href="#m4038a541ad" x="576.67775" y="80.725733" style="fill: #2ca02c; stroke: #2ca02c"/>
     <use xlink:href="#m4038a541ad" x="585.910547" y="80.725733" style="fill: #2ca02c; stroke: #2ca02c"/>
     <use xlink:href="#m4038a541ad" x="595.143343" y="80.725733" style="fill: #2ca02c; stroke: #2ca02c"/>
     <use xlink:href="#m4038a541ad" x="604.376139" y="80.725733" style="fill: #2ca02c; stroke: #2ca02c"/>
     <use xlink:href="#m4038a541ad" x="613.608936" y="80.725733" style="fill: #2ca02c; stroke: #2ca02c"/>
     <use xlink:href="#m4038a541ad" x="622.841732" y="80.725733" style="fill: #2ca02c; stroke: #2ca02c"/>
     <use xlink:href="#m4038a541ad" x="632.074528" y="80.725733" style="fill: #2ca02c; stroke: #2ca02c"/>
     <use xlink:href="#m4038a541ad" x="641.307325" y="80.725733" style="fill: #2ca02c; stroke: #2ca02c"/>
     <use xlink:href="#m4038a541ad" x="650.540121" y="80.725733" style="fill: #2ca02c; stroke: #2ca02c"/>
     <use xlink:href="#m4038a541ad" x="659.772917" y="80.725733" style="fill: #2ca02c; stroke: #2ca02c"/>
     <use xlink:href="#m4038a541ad" x="669.005713" y="80.725733" style="fill: #2ca02c; stroke: #2ca02c"/>
     <use xlink:href="#m4038a541ad" x="678.23851" y="80.725733" style="fill: #2ca02c; stroke: #2ca02c"/>
     <use xlink:href="#m4038a541ad" x="687.471306" y="80.725733" style="fill: #2ca02c; stroke: #2ca02c"/>
     <use xlink:href="#m4038a541ad" x="696.704102" y="80.725733" style="fill: #2ca02c; stroke: #2ca02c"/>
     <use xlink:href="#m4038a541ad" x="705.936899" y="80.725733" style="fill: #2ca02c; stroke: #2ca02c"/>
     <use xlink:href="#m4038a541ad" x="715.169695" y="80.725733" style="fill: #2ca02c; stroke: #2ca02c"/>
     <use xlink:href="#m4038a541ad" x="724.402491" y="80.725733" style="fill: #2ca02c; stroke: #2ca02c"/>
     <use xlink:href="#m4038a541ad" x="733.635288" y="80.725733" style="fill: #2ca02c; stroke: #2ca02c"/>
     <use xlink:href="#m4038a541ad" x="742.868084" y="80.725733" style="fill: #2ca02c; stroke: #2ca02c"/>
     <use xlink:href="#m4038a541ad" x="752.10088" y="80.725733" style="fill: #2ca02c; stroke: #2ca02c"/>
     <use xlink:href="#m4038a541ad" x="761.333677" y="80.725733" style="fill: #2ca02c; stroke: #2ca02c"/>
     <use xlink:href="#m4038a541ad" x="770.566473" y="80.725733" style="fill: #2ca02c; stroke: #2ca02c"/>
     <use xlink:href="#m4038a541ad" x="779.799269" y="80.725733" style="fill: #2ca02c; stroke: #2ca02c"/>
     <use xlink:href="#m4038a541ad" x="789.032066" y="80.725733" style="fill: #2ca02c; stroke: #2ca02c"/>
     <use xlink:href="#m4038a541ad" x="798.264862" y="80.725733" style="fill: #2ca02c; stroke: #2ca02c"/>
     <use xlink:href="#m4038a541ad" x="807.497658" y="80.725733" style="fill: #2ca02c; stroke: #2ca02c"/>
     <use xlink:href="#m4038a541ad" x="816.730455" y="80.725733" style="fill: #2ca02c; stroke: #2ca02c"/>
    </g>
   </g>
   <g id="line2d_28">
    <path d="M 87.339545 380.709245 
L 96.572342 349.066203 
L 105.805138 317.42316 
L 115.037934 292.108726 
L 124.270731 279.451509 
L 133.503527 238.948415 
L 142.736323 214.899703 
L 151.96912 202.242485 
L 161.201916 180.725217 
L 170.434712 169.333721 
L 179.667509 135.159235 
L 188.900305 121.236297 
L 198.133101 81.998924 
L 225.83149 81.998924 
L 235.064287 81.998924 
L 244.297083 81.998924 
L 253.529879 81.998924 
L 262.762675 81.998924 
L 281.228268 81.998924 
L 290.461064 81.998924 
L 299.693861 81.998924 
L 308.926657 81.998924 
L 318.159453 81.998924 
L 327.39225 63.013098 
L 336.625046 63.013098 
L 345.857842 63.013098 
L 355.090639 63.013098 
L 364.323435 63.013098 
L 373.556231 44.027273 
L 382.789028 44.027273 
L 392.021824 44.027273 
L 401.25462 44.027273 
L 410.487417 44.027273 
L 419.720213 44.027273 
L 428.953009 44.027273 
L 438.185806 44.027273 
L 447.418602 44.027273 
L 456.651398 44.027273 
L 465.884194 44.027273 
L 475.116991 44.027273 
L 484.349787 44.027273 
L 493.582583 44.027273 
L 502.81538 44.027273 
L 512.048176 44.027273 
L 521.280972 44.027273 
L 530.513769 44.027273 
L 539.746565 44.027273 
L 548.979361 44.027273 
L 558.212158 44.027273 
L 567.444954 44.027273 
L 576.67775 44.027273 
L 585.910547 44.027273 
L 595.143343 44.027273 
L 604.376139 44.027273 
L 613.608936 44.027273 
L 622.841732 44.027273 
L 632.074528 44.027273 
L 641.307325 44.027273 
L 650.540121 44.027273 
L 659.772917 44.027273 
L 669.005713 44.027273 
L 678.23851 44.027273 
L 687.471306 44.027273 
L 696.704102 44.027273 
L 705.936899 44.027273 
L 715.169695 44.027273 
L 724.402491 44.027273 
L 733.635288 44.027273 
L 742.868084 44.027273 
L 752.10088 44.027273 
L 761.333677 44.027273 
L 770.566473 44.027273 
L 779.799269 44.027273 
L 789.032066 44.027273 
L 798.264862 44.027273 
L 807.497658 44.027273 
L 816.730455 44.027273 
" clip-path="url(#p7992ddd681)" style="fill: none; stroke: #d62728; stroke-width: 1.5; stroke-linecap: square"/>
    <defs>
     <path id="me50dba915b" d="M 0 3.5 
C 0.928211 3.5 1.81853 3.131218 2.474874 2.474874 
C 3.131218 1.81853 3.5 0.928211 3.5 0 
C 3.5 -0.928211 3.131218 -1.81853 2.474874 -2.474874 
C 1.81853 -3.131218 0.928211 -3.5 0 -3.5 
C -0.928211 -3.5 -1.81853 -3.131218 -2.474874 -2.474874 
C -3.131218 -1.81853 -3.5 -0.928211 -3.5 0 
C -3.5 0.928211 -3.131218 1.81853 -2.474874 2.474874 
C -1.81853 3.131218 -0.928211 3.5 0 3.5 
z
" style="stroke: #d62728"/>
    </defs>
    <g clip-path="url(#p7992ddd681)">
     <use xlink:href="#me50dba915b" x="87.339545" y="380.709245" style="fill: #d62728; stroke: #d62728"/>
     <use xlink:href="#me50dba915b" x="96.572342" y="349.066203" style="fill: #d62728; stroke: #d62728"/>
     <use xlink:href="#me50dba915b" x="105.805138" y="317.42316" style="fill: #d62728; stroke: #d62728"/>
     <use xlink:href="#me50dba915b" x="115.037934" y="292.108726" style="fill: #d62728; stroke: #d62728"/>
     <use xlink:href="#me50dba915b" x="124.270731" y="279.451509" style="fill: #d62728; stroke: #d62728"/>
     <use xlink:href="#me50dba915b" x="133.503527" y="238.948415" style="fill: #d62728; stroke: #d62728"/>
     <use xlink:href="#me50dba915b" x="142.736323" y="214.899703" style="fill: #d62728; stroke: #d62728"/>
     <use xlink:href="#me50dba915b" x="151.96912" y="202.242485" style="fill: #d62728; stroke: #d62728"/>
     <use xlink:href="#me50dba915b" x="161.201916" y="180.725217" style="fill: #d62728; stroke: #d62728"/>
     <use xlink:href="#me50dba915b" x="170.434712" y="169.333721" style="fill: #d62728; stroke: #d62728"/>
     <use xlink:href="#me50dba915b" x="179.667509" y="135.159235" style="fill: #d62728; stroke: #d62728"/>
     <use xlink:href="#me50dba915b" x="188.900305" y="121.236297" style="fill: #d62728; stroke: #d62728"/>
     <use xlink:href="#me50dba915b" x="198.133101" y="81.998924" style="fill: #d62728; stroke: #d62728"/>
     <use xlink:href="#me50dba915b" x="225.83149" y="81.998924" style="fill: #d62728; stroke: #d62728"/>
     <use xlink:href="#me50dba915b" x="235.064287" y="81.998924" style="fill: #d62728; stroke: #d62728"/>
     <use xlink:href="#me50dba915b" x="244.297083" y="81.998924" style="fill: #d62728; stroke: #d62728"/>
     <use xlink:href="#me50dba915b" x="253.529879" y="81.998924" style="fill: #d62728; stroke: #d62728"/>
     <use xlink:href="#me50dba915b" x="262.762675" y="81.998924" style="fill: #d62728; stroke: #d62728"/>
     <use xlink:href="#me50dba915b" x="281.228268" y="81.998924" style="fill: #d62728; stroke: #d62728"/>
     <use xlink:href="#me50dba915b" x="290.461064" y="81.998924" style="fill: #d62728; stroke: #d62728"/>
     <use xlink:href="#me50dba915b" x="299.693861" y="81.998924" style="fill: #d62728; stroke: #d62728"/>
     <use xlink:href="#me50dba915b" x="308.926657" y="81.998924" style="fill: #d62728; stroke: #d62728"/>
     <use xlink:href="#me50dba915b" x="318.159453" y="81.998924" style="fill: #d62728; stroke: #d62728"/>
     <use xlink:href="#me50dba915b" x="327.39225" y="63.013098" style="fill: #d62728; stroke: #d62728"/>
     <use xlink:href="#me50dba915b" x="336.625046" y="63.013098" style="fill: #d62728; stroke: #d62728"/>
     <use xlink:href="#me50dba915b" x="345.857842" y="63.013098" style="fill: #d62728; stroke: #d62728"/>
     <use xlink:href="#me50dba915b" x="355.090639" y="63.013098" style="fill: #d62728; stroke: #d62728"/>
     <use xlink:href="#me50dba915b" x="364.323435" y="63.013098" style="fill: #d62728; stroke: #d62728"/>
     <use xlink:href="#me50dba915b" x="373.556231" y="44.027273" style="fill: #d62728; stroke: #d62728"/>
     <use xlink:href="#me50dba915b" x="382.789028" y="44.027273" style="fill: #d62728; stroke: #d62728"/>
     <use xlink:href="#me50dba915b" x="392.021824" y="44.027273" style="fill: #d62728; stroke: #d62728"/>
     <use xlink:href="#me50dba915b" x="401.25462" y="44.027273" style="fill: #d62728; stroke: #d62728"/>
     <use xlink:href="#me50dba915b" x="410.487417" y="44.027273" style="fill: #d62728; stroke: #d62728"/>
     <use xlink:href="#me50dba915b" x="419.720213" y="44.027273" style="fill: #d62728; stroke: #d62728"/>
     <use xlink:href="#me50dba915b" x="428.953009" y="44.027273" style="fill: #d62728; stroke: #d62728"/>
     <use xlink:href="#me50dba915b" x="438.185806" y="44.027273" style="fill: #d62728; stroke: #d62728"/>
     <use xlink:href="#me50dba915b" x="447.418602" y="44.027273" style="fill: #d62728; stroke: #d62728"/>
     <use xlink:href="#me50dba915b" x="456.651398" y="44.027273" style="fill: #d62728; stroke: #d62728"/>
     <use xlink:href="#me50dba915b" x="465.884194" y="44.027273" style="fill: #d62728; stroke: #d62728"/>
     <use xlink:href="#me50dba915b" x="475.116991" y="44.027273" style="fill: #d62728; stroke: #d62728"/>
     <use xlink:href="#me50dba915b" x="484.349787" y="44.027273" style="fill: #d62728; stroke: #d62728"/>
     <use xlink:href="#me50dba915b" x="493.582583" y="44.027273" style="fill: #d62728; stroke: #d62728"/>
     <use xlink:href="#me50dba915b" x="502.81538" y="44.027273" style="fill: #d62728; stroke: #d62728"/>
     <use xlink:href="#me50dba915b" x="512.048176" y="44.027273" style="fill: #d62728; stroke: #d62728"/>
     <use xlink:href="#me50dba915b" x="521.280972" y="44.027273" style="fill: #d62728; stroke: #d62728"/>
     <use xlink:href="#me50dba915b" x="530.513769" y="44.027273" style="fill: #d62728; stroke: #d62728"/>
     <use xlink:href="#me50dba915b" x="539.746565" y="44.027273" style="fill: #d62728; stroke: #d62728"/>
     <use xlink:href="#me50dba915b" x="548.979361" y="44.027273" style="fill: #d62728; stroke: #d62728"/>
     <use xlink:href="#me50dba915b" x="558.212158" y="44.027273" style="fill: #d62728; stroke: #d62728"/>
     <use xlink:href="#me50dba915b" x="567.444954" y="44.027273" style="fill: #d62728; stroke: #d62728"/>
     <use xlink:href="#me50dba915b" x="576.67775" y="44.027273" style="fill: #d62728; stroke: #d62728"/>
     <use xlink:href="#me50dba915b" x="585.910547" y="44.027273" style="fill: #d62728; stroke: #d62728"/>
     <use xlink:href="#me50dba915b" x="595.143343" y="44.027273" style="fill: #d62728; stroke: #d62728"/>
     <use xlink:href="#me50dba915b" x="604.376139" y="44.027273" style="fill: #d62728; stroke: #d62728"/>
     <use xlink:href="#me50dba915b" x="613.608936" y="44.027273" style="fill: #d62728; stroke: #d62728"/>
     <use xlink:href="#me50dba915b" x="622.841732" y="44.027273" style="fill: #d62728; stroke: #d62728"/>
     <use xlink:href="#me50dba915b" x="632.074528" y="44.027273" style="fill: #d62728; stroke: #d62728"/>
     <use xlink:href="#me50dba915b" x="641.307325" y="44.027273" style="fill: #d62728; stroke: #d62728"/>
     <use xlink:href="#me50dba915b" x="650.540121" y="44.027273" style="fill: #d62728; stroke: #d62728"/>
     <use xlink:href="#me50dba915b" x="659.772917" y="44.027273" style="fill: #d62728; stroke: #d62728"/>
     <use xlink:href="#me50dba915b" x="669.005713" y="44.027273" style="fill: #d62728; stroke: #d62728"/>
     <use xlink:href="#me50dba915b" x="678.23851" y="44.027273" style="fill: #d62728; stroke: #d62728"/>
     <use xlink:href="#me50dba915b" x="687.471306" y="44.027273" style="fill: #d62728; stroke: #d62728"/>
     <use xlink:href="#me50dba915b" x="696.704102" y="44.027273" style="fill: #d62728; stroke: #d62728"/>
     <use xlink:href="#me50dba915b" x="705.936899" y="44.027273" style="fill: #d62728; stroke: #d62728"/>
     <use xlink:href="#me50dba915b" x="715.169695" y="44.027273" style="fill: #d62728; stroke: #d62728"/>
     <use xlink:href="#me50dba915b" x="724.402491" y="44.027273" style="fill: #d62728; stroke: #d62728"/>
     <use xlink:href="#me50dba915b" x="733.635288" y="44.027273" style="fill: #d62728; stroke: #d62728"/>
     <use xlink:href="#me50dba915b" x="742.868084" y="44.027273" style="fill: #d62728; stroke: #d62728"/>
     <use xlink:href="#me50dba915b" x="752.10088" y="44.027273" style="fill: #d62728; stroke: #d62728"/>
     <use xlink:href="#me50dba915b" x="761.333677" y="44.027273" style="fill: #d62728; stroke: #d62728"/>
     <use xlink:href="#me50dba915b" x="770.566473" y="44.027273" style="fill: #d62728; stroke: #d62728"/>
     <use xlink:href="#me50dba915b" x="779.799269" y="44.027273" style="fill: #d62728; stroke: #d62728"/>
     <use xlink:href="#me50dba915b" x="789.032066" y="44.027273" style="fill: #d62728; stroke: #d62728"/>
     <use xlink:href="#me50dba915b" x="798.264862" y="44.027273" style="fill: #d62728; stroke: #d62728"/>
     <use xlink:href="#me50dba915b" x="807.497658" y="44.027273" style="fill: #d62728; stroke: #d62728"/>
     <use xlink:href="#me50dba915b" x="816.730455" y="44.027273" style="fill: #d62728; stroke: #d62728"/>
    </g>
   </g>
   <g id="line2d_29">
    <path d="M 87.339545 386.972727 
L 96.572342 361.658293 
L 105.805138 336.343859 
L 115.037934 323.686642 
L 124.270731 304.700817 
L 133.503527 283.183548 
L 142.736323 264.197722 
L 151.96912 251.540505 
L 161.201916 207.240246 
L 170.434712 200.911637 
L 179.667509 166.737151 
L 188.900305 155.345656 
L 198.133101 95.856736 
L 225.83149 95.856736 
L 235.064287 95.856736 
L 244.297083 95.856736 
L 253.529879 95.856736 
L 262.762675 95.856736 
L 281.228268 95.856736 
L 290.461064 95.856736 
L 299.693861 95.856736 
L 308.926657 95.856736 
L 318.159453 95.856736 
L 327.39225 95.856736 
L 336.625046 95.856736 
L 345.857842 95.856736 
L 355.090639 95.856736 
L 364.323435 95.856736 
L 373.556231 64.213693 
L 382.789028 64.213693 
L 392.021824 64.213693 
L 401.25462 64.213693 
L 410.487417 64.213693 
L 419.720213 64.213693 
L 428.953009 64.213693 
L 438.185806 64.213693 
L 447.418602 64.213693 
L 456.651398 64.213693 
L 465.884194 64.213693 
L 475.116991 64.213693 
L 484.349787 64.213693 
L 493.582583 64.213693 
L 502.81538 64.213693 
L 512.048176 64.213693 
L 521.280972 64.213693 
L 530.513769 64.213693 
L 539.746565 64.213693 
L 548.979361 64.213693 
L 558.212158 64.213693 
L 567.444954 64.213693 
L 576.67775 64.213693 
L 585.910547 64.213693 
L 595.143343 64.213693 
L 604.376139 64.213693 
L 613.608936 64.213693 
L 622.841732 64.213693 
L 632.074528 64.213693 
L 641.307325 64.213693 
L 650.540121 64.213693 
L 659.772917 64.213693 
L 669.005713 64.213693 
L 678.23851 64.213693 
L 687.471306 64.213693 
L 696.704102 64.213693 
L 705.936899 64.213693 
L 715.169695 64.213693 
L 724.402491 64.213693 
L 733.635288 64.213693 
L 742.868084 64.213693 
L 752.10088 64.213693 
L 761.333677 64.213693 
L 770.566473 64.213693 
L 779.799269 64.213693 
L 789.032066 64.213693 
L 798.264862 64.213693 
L 807.497658 64.213693 
L 816.730455 64.213693 
" clip-path="url(#p7992ddd681)" style="fill: none; stroke: #9467bd; stroke-width: 1.5; stroke-linecap: square"/>
    <defs>
     <path id="m29513ad2a9" d="M 0 3.5 
C 0.928211 3.5 1.81853 3.131218 2.474874 2.474874 
C 3.131218 1.81853 3.5 0.928211 3.5 0 
C 3.5 -0.928211 3.131218 -1.81853 2.474874 -2.474874 
C 1.81853 -3.131218 0.928211 -3.5 0 -3.5 
C -0.928211 -3.5 -1.81853 -3.131218 -2.474874 -2.474874 
C -3.131218 -1.81853 -3.5 -0.928211 -3.5 0 
C -3.5 0.928211 -3.131218 1.81853 -2.474874 2.474874 
C -1.81853 3.131218 -0.928211 3.5 0 3.5 
z
" style="stroke: #9467bd"/>
    </defs>
    <g clip-path="url(#p7992ddd681)">
     <use xlink:href="#m29513ad2a9" x="87.339545" y="386.972727" style="fill: #9467bd; stroke: #9467bd"/>
     <use xlink:href="#m29513ad2a9" x="96.572342" y="361.658293" style="fill: #9467bd; stroke: #9467bd"/>
     <use xlink:href="#m29513ad2a9" x="105.805138" y="336.343859" style="fill: #9467bd; stroke: #9467bd"/>
     <use xlink:href="#m29513ad2a9" x="115.037934" y="323.686642" style="fill: #9467bd; stroke: #9467bd"/>
     <use xlink:href="#m29513ad2a9" x="124.270731" y="304.700817" style="fill: #9467bd; stroke: #9467bd"/>
     <use xlink:href="#m29513ad2a9" x="133.503527" y="283.183548" style="fill: #9467bd; stroke: #9467bd"/>
     <use xlink:href="#m29513ad2a9" x="142.736323" y="264.197722" style="fill: #9467bd; stroke: #9467bd"/>
     <use xlink:href="#m29513ad2a9" x="151.96912" y="251.540505" style="fill: #9467bd; stroke: #9467bd"/>
     <use xlink:href="#m29513ad2a9" x="161.201916" y="207.240246" style="fill: #9467bd; stroke: #9467bd"/>
     <use xlink:href="#m29513ad2a9" x="170.434712" y="200.911637" style="fill: #9467bd; stroke: #9467bd"/>
     <use xlink:href="#m29513ad2a9" x="179.667509" y="166.737151" style="fill: #9467bd; stroke: #9467bd"/>
     <use xlink:href="#m29513ad2a9" x="188.900305" y="155.345656" style="fill: #9467bd; stroke: #9467bd"/>
     <use xlink:href="#m29513ad2a9" x="198.133101" y="95.856736" style="fill: #9467bd; stroke: #9467bd"/>
     <use xlink:href="#m29513ad2a9" x="225.83149" y="95.856736" style="fill: #9467bd; stroke: #9467bd"/>
     <use xlink:href="#m29513ad2a9" x="235.064287" y="95.856736" style="fill: #9467bd; stroke: #9467bd"/>
     <use xlink:href="#m29513ad2a9" x="244.297083" y="95.856736" style="fill: #9467bd; stroke: #9467bd"/>
     <use xlink:href="#m29513ad2a9" x="253.529879" y="95.856736" style="fill: #9467bd; stroke: #9467bd"/>
     <use xlink:href="#m29513ad2a9" x="262.762675" y="95.856736" style="fill: #9467bd; stroke: #9467bd"/>
     <use xlink:href="#m29513ad2a9" x="281.228268" y="95.856736" style="fill: #9467bd; stroke: #9467bd"/>
     <use xlink:href="#m29513ad2a9" x="290.461064" y="95.856736" style="fill: #9467bd; stroke: #9467bd"/>
     <use xlink:href="#m29513ad2a9" x="299.693861" y="95.856736" style="fill: #9467bd; stroke: #9467bd"/>
     <use xlink:href="#m29513ad2a9" x="308.926657" y="95.856736" style="fill: #9467bd; stroke: #9467bd"/>
     <use xlink:href="#m29513ad2a9" x="318.159453" y="95.856736" style="fill: #9467bd; stroke: #9467bd"/>
     <use xlink:href="#m29513ad2a9" x="327.39225" y="95.856736" style="fill: #9467bd; stroke: #9467bd"/>
     <use xlink:href="#m29513ad2a9" x="336.625046" y="95.856736" style="fill: #9467bd; stroke: #9467bd"/>
     <use xlink:href="#m29513ad2a9" x="345.857842" y="95.856736" style="fill: #9467bd; stroke: #9467bd"/>
     <use xlink:href="#m29513ad2a9" x="355.090639" y="95.856736" style="fill: #9467bd; stroke: #9467bd"/>
     <use xlink:href="#m29513ad2a9" x="364.323435" y="95.856736" style="fill: #9467bd; stroke: #9467bd"/>
     <use xlink:href="#m29513ad2a9" x="373.556231" y="64.213693" style="fill: #9467bd; stroke: #9467bd"/>
     <use xlink:href="#m29513ad2a9" x="382.789028" y="64.213693" style="fill: #9467bd; stroke: #9467bd"/>
     <use xlink:href="#m29513ad2a9" x="392.021824" y="64.213693" style="fill: #9467bd; stroke: #9467bd"/>
     <use xlink:href="#m29513ad2a9" x="401.25462" y="64.213693" style="fill: #9467bd; stroke: #9467bd"/>
     <use xlink:href="#m29513ad2a9" x="410.487417" y="64.213693" style="fill: #9467bd; stroke: #9467bd"/>
     <use xlink:href="#m29513ad2a9" x="419.720213" y="64.213693" style="fill: #9467bd; stroke: #9467bd"/>
     <use xlink:href="#m29513ad2a9" x="428.953009" y="64.213693" style="fill: #9467bd; stroke: #9467bd"/>
     <use xlink:href="#m29513ad2a9" x="438.185806" y="64.213693" style="fill: #9467bd; stroke: #9467bd"/>
     <use xlink:href="#m29513ad2a9" x="447.418602" y="64.213693" style="fill: #9467bd; stroke: #9467bd"/>
     <use xlink:href="#m29513ad2a9" x="456.651398" y="64.213693" style="fill: #9467bd; stroke: #9467bd"/>
     <use xlink:href="#m29513ad2a9" x="465.884194" y="64.213693" style="fill: #9467bd; stroke: #9467bd"/>
     <use xlink:href="#m29513ad2a9" x="475.116991" y="64.213693" style="fill: #9467bd; stroke: #9467bd"/>
     <use xlink:href="#m29513ad2a9" x="484.349787" y="64.213693" style="fill: #9467bd; stroke: #9467bd"/>
     <use xlink:href="#m29513ad2a9" x="493.582583" y="64.213693" style="fill: #9467bd; stroke: #9467bd"/>
     <use xlink:href="#m29513ad2a9" x="502.81538" y="64.213693" style="fill: #9467bd; stroke: #9467bd"/>
     <use xlink:href="#m29513ad2a9" x="512.048176" y="64.213693" style="fill: #9467bd; stroke: #9467bd"/>
     <use xlink:href="#m29513ad2a9" x="521.280972" y="64.213693" style="fill: #9467bd; stroke: #9467bd"/>
     <use xlink:href="#m29513ad2a9" x="530.513769" y="64.213693" style="fill: #9467bd; stroke: #9467bd"/>
     <use xlink:href="#m29513ad2a9" x="539.746565" y="64.213693" style="fill: #9467bd; stroke: #9467bd"/>
     <use xlink:href="#m29513ad2a9" x="548.979361" y="64.213693" style="fill: #9467bd; stroke: #9467bd"/>
     <use xlink:href="#m29513ad2a9" x="558.212158" y="64.213693" style="fill: #9467bd; stroke: #9467bd"/>
     <use xlink:href="#m29513ad2a9" x="567.444954" y="64.213693" style="fill: #9467bd; stroke: #9467bd"/>
     <use xlink:href="#m29513ad2a9" x="576.67775" y="64.213693" style="fill: #9467bd; stroke: #9467bd"/>
     <use xlink:href="#m29513ad2a9" x="585.910547" y="64.213693" style="fill: #9467bd; stroke: #9467bd"/>
     <use xlink:href="#m29513ad2a9" x="595.143343" y="64.213693" style="fill: #9467bd; stroke: #9467bd"/>
     <use xlink:href="#m29513ad2a9" x="604.376139" y="64.213693" style="fill: #9467bd; stroke: #9467bd"/>
     <use xlink:href="#m29513ad2a9" x="613.608936" y="64.213693" style="fill: #9467bd; stroke: #9467bd"/>
     <use xlink:href="#m29513ad2a9" x="622.841732" y="64.213693" style="fill: #9467bd; stroke: #9467bd"/>
     <use xlink:href="#m29513ad2a9" x="632.074528" y="64.213693" style="fill: #9467bd; stroke: #9467bd"/>
     <use xlink:href="#m29513ad2a9" x="641.307325" y="64.213693" style="fill: #9467bd; stroke: #9467bd"/>
     <use xlink:href="#m29513ad2a9" x="650.540121" y="64.213693" style="fill: #9467bd; stroke: #9467bd"/>
     <use xlink:href="#m29513ad2a9" x="659.772917" y="64.213693" style="fill: #9467bd; stroke: #9467bd"/>
     <use xlink:href="#m29513ad2a9" x="669.005713" y="64.213693" style="fill: #9467bd; stroke: #9467bd"/>
     <use xlink:href="#m29513ad2a9" x="678.23851" y="64.213693" style="fill: #9467bd; stroke: #9467bd"/>
     <use xlink:href="#m29513ad2a9" x="687.471306" y="64.213693" style="fill: #9467bd; stroke: #9467bd"/>
     <use xlink:href="#m29513ad2a9" x="696.704102" y="64.213693" style="fill: #9467bd; stroke: #9467bd"/>
     <use xlink:href="#m29513ad2a9" x="705.936899" y="64.213693" style="fill: #9467bd; stroke: #9467bd"/>
     <use xlink:href="#m29513ad2a9" x="715.169695" y="64.213693" style="fill: #9467bd; stroke: #9467bd"/>
     <use xlink:href="#m29513ad2a9" x="724.402491" y="64.213693" style="fill: #9467bd; stroke: #9467bd"/>
     <use xlink:href="#m29513ad2a9" x="733.635288" y="64.213693" style="fill: #9467bd; stroke: #9467bd"/>
     <use xlink:href="#m29513ad2a9" x="742.868084" y="64.213693" style="fill: #9467bd; stroke: #9467bd"/>
     <use xlink:href="#m29513ad2a9" x="752.10088" y="64.213693" style="fill: #9467bd; stroke: #9467bd"/>
     <use xlink:href="#m29513ad2a9" x="761.333677" y="64.213693" style="fill: #9467bd; stroke: #9467bd"/>
     <use xlink:href="#m29513ad2a9" x="770.566473" y="64.213693" style="fill: #9467bd; stroke: #9467bd"/>
     <use xlink:href="#m29513ad2a9" x="779.799269" y="64.213693" style="fill: #9467bd; stroke: #9467bd"/>
     <use xlink:href="#m29513ad2a9" x="789.032066" y="64.213693" style="fill: #9467bd; stroke: #9467bd"/>
     <use xlink:href="#m29513ad2a9" x="798.264862" y="64.213693" style="fill: #9467bd; stroke: #9467bd"/>
     <use xlink:href="#m29513ad2a9" x="807.497658" y="64.213693" style="fill: #9467bd; stroke: #9467bd"/>
     <use xlink:href="#m29513ad2a9" x="816.730455" y="64.213693" style="fill: #9467bd; stroke: #9467bd"/>
    </g>
   </g>
   <g id="line2d_30">
    <path d="M 87.339545 380.773694 
L 96.572342 365.585033 
L 105.805138 354.193538 
L 115.037934 328.879104 
L 124.270731 309.893279 
L 133.503527 304.830392 
L 142.736323 295.97034 
L 151.96912 280.781679 
L 161.201916 236.48142 
L 170.434712 204.838377 
L 179.667509 166.866726 
L 188.900305 142.818014 
L 198.133101 93.454868 
L 225.83149 93.454868 
L 235.064287 93.454868 
L 244.297083 93.454868 
L 253.529879 93.454868 
L 262.762675 93.454868 
L 281.228268 93.454868 
L 290.461064 93.454868 
L 299.693861 93.454868 
L 308.926657 93.454868 
L 318.159453 93.454868 
L 327.39225 93.454868 
L 336.625046 93.454868 
L 345.857842 93.454868 
L 355.090639 93.454868 
L 364.323435 93.454868 
L 373.556231 61.811825 
L 382.789028 61.811825 
L 392.021824 61.811825 
L 401.25462 61.811825 
L 410.487417 61.811825 
L 419.720213 61.811825 
L 428.953009 61.811825 
L 438.185806 61.811825 
L 447.418602 61.811825 
L 456.651398 61.811825 
L 465.884194 61.811825 
L 475.116991 61.811825 
L 484.349787 61.811825 
L 493.582583 61.811825 
L 502.81538 61.811825 
L 512.048176 61.811825 
L 521.280972 61.811825 
L 530.513769 61.811825 
L 539.746565 61.811825 
L 548.979361 61.811825 
L 558.212158 61.811825 
L 567.444954 61.811825 
L 576.67775 61.811825 
L 585.910547 61.811825 
L 595.143343 61.811825 
L 604.376139 61.811825 
L 613.608936 61.811825 
L 622.841732 61.811825 
L 632.074528 61.811825 
L 641.307325 61.811825 
L 650.540121 61.811825 
L 659.772917 61.811825 
L 669.005713 61.811825 
L 678.23851 61.811825 
L 687.471306 61.811825 
L 696.704102 61.811825 
L 705.936899 61.811825 
L 715.169695 61.811825 
L 724.402491 61.811825 
L 733.635288 61.811825 
L 742.868084 61.811825 
L 752.10088 61.811825 
L 761.333677 61.811825 
L 770.566473 61.811825 
L 779.799269 61.811825 
L 789.032066 61.811825 
L 798.264862 61.811825 
L 807.497658 61.811825 
L 816.730455 61.811825 
" clip-path="url(#p7992ddd681)" style="fill: none; stroke: #8c564b; stroke-width: 1.5; stroke-linecap: square"/>
    <defs>
     <path id="m3c856fbd1c" d="M 0 3.5 
C 0.928211 3.5 1.81853 3.131218 2.474874 2.474874 
C 3.131218 1.81853 3.5 0.928211 3.5 0 
C 3.5 -0.928211 3.131218 -1.81853 2.474874 -2.474874 
C 1.81853 -3.131218 0.928211 -3.5 0 -3.5 
C -0.928211 -3.5 -1.81853 -3.131218 -2.474874 -2.474874 
C -3.131218 -1.81853 -3.5 -0.928211 -3.5 0 
C -3.5 0.928211 -3.131218 1.81853 -2.474874 2.474874 
C -1.81853 3.131218 -0.928211 3.5 0 3.5 
z
" style="stroke: #8c564b"/>
    </defs>
    <g clip-path="url(#p7992ddd681)">
     <use xlink:href="#m3c856fbd1c" x="87.339545" y="380.773694" style="fill: #8c564b; stroke: #8c564b"/>
     <use xlink:href="#m3c856fbd1c" x="96.572342" y="365.585033" style="fill: #8c564b; stroke: #8c564b"/>
     <use xlink:href="#m3c856fbd1c" x="105.805138" y="354.193538" style="fill: #8c564b; stroke: #8c564b"/>
     <use xlink:href="#m3c856fbd1c" x="115.037934" y="328.879104" style="fill: #8c564b; stroke: #8c564b"/>
     <use xlink:href="#m3c856fbd1c" x="124.270731" y="309.893279" style="fill: #8c564b; stroke: #8c564b"/>
     <use xlink:href="#m3c856fbd1c" x="133.503527" y="304.830392" style="fill: #8c564b; stroke: #8c564b"/>
     <use xlink:href="#m3c856fbd1c" x="142.736323" y="295.97034" style="fill: #8c564b; stroke: #8c564b"/>
     <use xlink:href="#m3c856fbd1c" x="151.96912" y="280.781679" style="fill: #8c564b; stroke: #8c564b"/>
     <use xlink:href="#m3c856fbd1c" x="161.201916" y="236.48142" style="fill: #8c564b; stroke: #8c564b"/>
     <use xlink:href="#m3c856fbd1c" x="170.434712" y="204.838377" style="fill: #8c564b; stroke: #8c564b"/>
     <use xlink:href="#m3c856fbd1c" x="179.667509" y="166.866726" style="fill: #8c564b; stroke: #8c564b"/>
     <use xlink:href="#m3c856fbd1c" x="188.900305" y="142.818014" style="fill: #8c564b; stroke: #8c564b"/>
     <use xlink:href="#m3c856fbd1c" x="198.133101" y="93.454868" style="fill: #8c564b; stroke: #8c564b"/>
     <use xlink:href="#m3c856fbd1c" x="225.83149" y="93.454868" style="fill: #8c564b; stroke: #8c564b"/>
     <use xlink:href="#m3c856fbd1c" x="235.064287" y="93.454868" style="fill: #8c564b; stroke: #8c564b"/>
     <use xlink:href="#m3c856fbd1c" x="244.297083" y="93.454868" style="fill: #8c564b; stroke: #8c564b"/>
     <use xlink:href="#m3c856fbd1c" x="253.529879" y="93.454868" style="fill: #8c564b; stroke: #8c564b"/>
     <use xlink:href="#m3c856fbd1c" x="262.762675" y="93.454868" style="fill: #8c564b; stroke: #8c564b"/>
     <use xlink:href="#m3c856fbd1c" x="281.228268" y="93.454868" style="fill: #8c564b; stroke: #8c564b"/>
     <use xlink:href="#m3c856fbd1c" x="290.461064" y="93.454868" style="fill: #8c564b; stroke: #8c564b"/>
     <use xlink:href="#m3c856fbd1c" x="299.693861" y="93.454868" style="fill: #8c564b; stroke: #8c564b"/>
     <use xlink:href="#m3c856fbd1c" x="308.926657" y="93.454868" style="fill: #8c564b; stroke: #8c564b"/>
     <use xlink:href="#m3c856fbd1c" x="318.159453" y="93.454868" style="fill: #8c564b; stroke: #8c564b"/>
     <use xlink:href="#m3c856fbd1c" x="327.39225" y="93.454868" style="fill: #8c564b; stroke: #8c564b"/>
     <use xlink:href="#m3c856fbd1c" x="336.625046" y="93.454868" style="fill: #8c564b; stroke: #8c564b"/>
     <use xlink:href="#m3c856fbd1c" x="345.857842" y="93.454868" style="fill: #8c564b; stroke: #8c564b"/>
     <use xlink:href="#m3c856fbd1c" x="355.090639" y="93.454868" style="fill: #8c564b; stroke: #8c564b"/>
     <use xlink:href="#m3c856fbd1c" x="364.323435" y="93.454868" style="fill: #8c564b; stroke: #8c564b"/>
     <use xlink:href="#m3c856fbd1c" x="373.556231" y="61.811825" style="fill: #8c564b; stroke: #8c564b"/>
     <use xlink:href="#m3c856fbd1c" x="382.789028" y="61.811825" style="fill: #8c564b; stroke: #8c564b"/>
     <use xlink:href="#m3c856fbd1c" x="392.021824" y="61.811825" style="fill: #8c564b; stroke: #8c564b"/>
     <use xlink:href="#m3c856fbd1c" x="401.25462" y="61.811825" style="fill: #8c564b; stroke: #8c564b"/>
     <use xlink:href="#m3c856fbd1c" x="410.487417" y="61.811825" style="fill: #8c564b; stroke: #8c564b"/>
     <use xlink:href="#m3c856fbd1c" x="419.720213" y="61.811825" style="fill: #8c564b; stroke: #8c564b"/>
     <use xlink:href="#m3c856fbd1c" x="428.953009" y="61.811825" style="fill: #8c564b; stroke: #8c564b"/>
     <use xlink:href="#m3c856fbd1c" x="438.185806" y="61.811825" style="fill: #8c564b; stroke: #8c564b"/>
     <use xlink:href="#m3c856fbd1c" x="447.418602" y="61.811825" style="fill: #8c564b; stroke: #8c564b"/>
     <use xlink:href="#m3c856fbd1c" x="456.651398" y="61.811825" style="fill: #8c564b; stroke: #8c564b"/>
     <use xlink:href="#m3c856fbd1c" x="465.884194" y="61.811825" style="fill: #8c564b; stroke: #8c564b"/>
     <use xlink:href="#m3c856fbd1c" x="475.116991" y="61.811825" style="fill: #8c564b; stroke: #8c564b"/>
     <use xlink:href="#m3c856fbd1c" x="484.349787" y="61.811825" style="fill: #8c564b; stroke: #8c564b"/>
     <use xlink:href="#m3c856fbd1c" x="493.582583" y="61.811825" style="fill: #8c564b; stroke: #8c564b"/>
     <use xlink:href="#m3c856fbd1c" x="502.81538" y="61.811825" style="fill: #8c564b; stroke: #8c564b"/>
     <use xlink:href="#m3c856fbd1c" x="512.048176" y="61.811825" style="fill: #8c564b; stroke: #8c564b"/>
     <use xlink:href="#m3c856fbd1c" x="521.280972" y="61.811825" style="fill: #8c564b; stroke: #8c564b"/>
     <use xlink:href="#m3c856fbd1c" x="530.513769" y="61.811825" style="fill: #8c564b; stroke: #8c564b"/>
     <use xlink:href="#m3c856fbd1c" x="539.746565" y="61.811825" style="fill: #8c564b; stroke: #8c564b"/>
     <use xlink:href="#m3c856fbd1c" x="548.979361" y="61.811825" style="fill: #8c564b; stroke: #8c564b"/>
     <use xlink:href="#m3c856fbd1c" x="558.212158" y="61.811825" style="fill: #8c564b; stroke: #8c564b"/>
     <use xlink:href="#m3c856fbd1c" x="567.444954" y="61.811825" style="fill: #8c564b; stroke: #8c564b"/>
     <use xlink:href="#m3c856fbd1c" x="576.67775" y="61.811825" style="fill: #8c564b; stroke: #8c564b"/>
     <use xlink:href="#m3c856fbd1c" x="585.910547" y="61.811825" style="fill: #8c564b; stroke: #8c564b"/>
     <use xlink:href="#m3c856fbd1c" x="595.143343" y="61.811825" style="fill: #8c564b; stroke: #8c564b"/>
     <use xlink:href="#m3c856fbd1c" x="604.376139" y="61.811825" style="fill: #8c564b; stroke: #8c564b"/>
     <use xlink:href="#m3c856fbd1c" x="613.608936" y="61.811825" style="fill: #8c564b; stroke: #8c564b"/>
     <use xlink:href="#m3c856fbd1c" x="622.841732" y="61.811825" style="fill: #8c564b; stroke: #8c564b"/>
     <use xlink:href="#m3c856fbd1c" x="632.074528" y="61.811825" style="fill: #8c564b; stroke: #8c564b"/>
     <use xlink:href="#m3c856fbd1c" x="641.307325" y="61.811825" style="fill: #8c564b; stroke: #8c564b"/>
     <use xlink:href="#m3c856fbd1c" x="650.540121" y="61.811825" style="fill: #8c564b; stroke: #8c564b"/>
     <use xlink:href="#m3c856fbd1c" x="659.772917" y="61.811825" style="fill: #8c564b; stroke: #8c564b"/>
     <use xlink:href="#m3c856fbd1c" x="669.005713" y="61.811825" style="fill: #8c564b; stroke: #8c564b"/>
     <use xlink:href="#m3c856fbd1c" x="678.23851" y="61.811825" style="fill: #8c564b; stroke: #8c564b"/>
     <use xlink:href="#m3c856fbd1c" x="687.471306" y="61.811825" style="fill: #8c564b; stroke: #8c564b"/>
     <use xlink:href="#m3c856fbd1c" x="696.704102" y="61.811825" style="fill: #8c564b; stroke: #8c564b"/>
     <use xlink:href="#m3c856fbd1c" x="705.936899" y="61.811825" style="fill: #8c564b; stroke: #8c564b"/>
     <use xlink:href="#m3c856fbd1c" x="715.169695" y="61.811825" style="fill: #8c564b; stroke: #8c564b"/>
     <use xlink:href="#m3c856fbd1c" x="724.402491" y="61.811825" style="fill: #8c564b; stroke: #8c564b"/>
     <use xlink:href="#m3c856fbd1c" x="733.635288" y="61.811825" style="fill: #8c564b; stroke: #8c564b"/>
     <use xlink:href="#m3c856fbd1c" x="742.868084" y="61.811825" style="fill: #8c564b; stroke: #8c564b"/>
     <use xlink:href="#m3c856fbd1c" x="752.10088" y="61.811825" style="fill: #8c564b; stroke: #8c564b"/>
     <use xlink:href="#m3c856fbd1c" x="761.333677" y="61.811825" style="fill: #8c564b; stroke: #8c564b"/>
     <use xlink:href="#m3c856fbd1c" x="770.566473" y="61.811825" style="fill: #8c564b; stroke: #8c564b"/>
     <use xlink:href="#m3c856fbd1c" x="779.799269" y="61.811825" style="fill: #8c564b; stroke: #8c564b"/>
     <use xlink:href="#m3c856fbd1c" x="789.032066" y="61.811825" style="fill: #8c564b; stroke: #8c564b"/>
     <use xlink:href="#m3c856fbd1c" x="798.264862" y="61.811825" style="fill: #8c564b; stroke: #8c564b"/>
     <use xlink:href="#m3c856fbd1c" x="807.497658" y="61.811825" style="fill: #8c564b; stroke: #8c564b"/>
     <use xlink:href="#m3c856fbd1c" x="816.730455" y="61.811825" style="fill: #8c564b; stroke: #8c564b"/>
    </g>
   </g>
   <g id="patch_3">
    <path d="M 50.87 404.12 
L 50.87 26.88 
" style="fill: none; stroke: #000000; stroke-width: 0.8; stroke-linejoin: miter; stroke-linecap: square"/>
   </g>
   <g id="patch_4">
    <path d="M 853.2 404.12 
L 853.2 26.88 
" style="fill: none; stroke: #000000; stroke-width: 0.8; stroke-linejoin: miter; stroke-linecap: square"/>
   </g>
   <g id="patch_5">
    <path d="M 50.87 404.12 
L 853.2 404.12 
" style="fill: none; stroke: #000000; stroke-width: 0.8; stroke-linejoin: miter; stroke-linecap: square"/>
   </g>
   <g id="patch_6">
    <path d="M 50.87 26.88 
L 853.2 26.88 
" style="fill: none; stroke: #000000; stroke-width: 0.8; stroke-linejoin: miter; stroke-linecap: square"/>
   </g>
   <g id="text_14">
    <!-- Standings -->
    <g transform="translate(422.18125 20.88) scale(0.12 -0.12)">
     <defs>
      <path id="DejaVuSans-74" d="M 1172 4494 
L 1172 3500 
L 2356 3500 
L 2356 3053 
L 1172 3053 
L 1172 1153 
Q 1172 725 1289 603 
Q 1406 481 1766 481 
L 2356 481 
L 2356 0 
L 1766 0 
Q 1100 0 847 248 
Q 594 497 594 1153 
L 594 3053 
L 172 3053 
L 172 3500 
L 594 3500 
L 594 4494 
L 1172 4494 
z
" transform="scale(0.015625)"/>
      <path id="DejaVuSans-61" d="M 2194 1759 
Q 1497 1759 1228 1600 
Q 959 1441 959 1056 
Q 959 750 1161 570 
Q 1363 391 1709 391 
Q 2188 391 2477 730 
Q 2766 1069 2766 1631 
L 2766 1759 
L 2194 1759 
z
M 3341 1997 
L 3341 0 
L 2766 0 
L 2766 531 
Q 2569 213 2275 61 
Q 1981 -91 1556 -91 
Q 1019 -91 701 211 
Q 384 513 384 1019 
Q 384 1609 779 1909 
Q 1175 2209 1959 2209 
L 2766 2209 
L 2766 2266 
Q 2766 2663 2505 2880 
Q 2244 3097 1772 3097 
Q 1472 3097 1187 3025 
Q 903 2953 641 2809 
L 641 3341 
Q 956 3463 1253 3523 
Q 1550 3584 1831 3584 
Q 2591 3584 2966 3190 
Q 3341 2797 3341 1997 
z
" transform="scale(0.015625)"/>
      <path id="DejaVuSans-6e" d="M 3513 2113 
L 3513 0 
L 2938 0 
L 2938 2094 
Q 2938 2591 2744 2837 
Q 2550 3084 2163 3084 
Q 1697 3084 1428 2787 
Q 1159 2491 1159 1978 
L 1159 0 
L 581 0 
L 581 3500 
L 1159 3500 
L 1159 2956 
Q 1366 3272 1645 3428 
Q 1925 3584 2291 3584 
Q 2894 3584 3203 3211 
Q 3513 2838 3513 2113 
z
" transform="scale(0.015625)"/>
      <path id="DejaVuSans-64" d="M 2906 2969 
L 2906 4863 
L 3481 4863 
L 3481 0 
L 2906 0 
L 2906 525 
Q 2725 213 2448 61 
Q 2172 -91 1784 -91 
Q 1150 -91 751 415 
Q 353 922 353 1747 
Q 353 2572 751 3078 
Q 1150 3584 1784 3584 
Q 2172 3584 2448 3432 
Q 2725 3281 2906 2969 
z
M 947 1747 
Q 947 1113 1208 752 
Q 1469 391 1925 391 
Q 2381 391 2643 752 
Q 2906 1113 2906 1747 
Q 2906 2381 2643 2742 
Q 2381 3103 1925 3103 
Q 1469 3103 1208 2742 
Q 947 2381 947 1747 
z
" transform="scale(0.015625)"/>
      <path id="DejaVuSans-69" d="M 603 3500 
L 1178 3500 
L 1178 0 
L 603 0 
L 603 3500 
z
M 603 4863 
L 1178 4863 
L 1178 4134 
L 603 4134 
L 603 4863 
z
" transform="scale(0.015625)"/>
      <path id="DejaVuSans-67" d="M 2906 1791 
Q 2906 2416 2648 2759 
Q 2391 3103 1925 3103 
Q 1463 3103 1205 2759 
Q 947 2416 947 1791 
Q 947 1169 1205 825 
Q 1463 481 1925 481 
Q 2391 481 2648 825 
Q 2906 1169 2906 1791 
z
M 3481 434 
Q 3481 -459 3084 -895 
Q 2688 -1331 1869 -1331 
Q 1566 -1331 1297 -1286 
Q 1028 -1241 775 -1147 
L 775 -588 
Q 1028 -725 1275 -790 
Q 1522 -856 1778 -856 
Q 2344 -856 2625 -561 
Q 2906 -266 2906 331 
L 2906 616 
Q 2728 306 2450 153 
Q 2172 0 1784 0 
Q 1141 0 747 490 
Q 353 981 353 1791 
Q 353 2603 747 3093 
Q 1141 3584 1784 3584 
Q 2172 3584 2450 3431 
Q 2728 3278 2906 2969 
L 2906 3500 
L 3481 3500 
L 3481 434 
z
" transform="scale(0.015625)"/>
      <path id="DejaVuSans-73" d="M 2834 3397 
L 2834 2853 
Q 2591 2978 2328 3040 
Q 2066 3103 1784 3103 
Q 1356 3103 1142 2972 
Q 928 2841 928 2578 
Q 928 2378 1081 2264 
Q 1234 2150 1697 2047 
L 1894 2003 
Q 2506 1872 2764 1633 
Q 3022 1394 3022 966 
Q 3022 478 2636 193 
Q 2250 -91 1575 -91 
Q 1294 -91 989 -36 
Q 684 19 347 128 
L 347 722 
Q 666 556 975 473 
Q 1284 391 1588 391 
Q 1994 391 2212 530 
Q 2431 669 2431 922 
Q 2431 1156 2273 1281 
Q 2116 1406 1581 1522 
L 1381 1569 
Q 847 1681 609 1914 
Q 372 2147 372 2553 
Q 372 3047 722 3315 
Q 1072 3584 1716 3584 
Q 2034 3584 2315 3537 
Q 2597 3491 2834 3397 
z
" transform="scale(0.015625)"/>
     </defs>
     <use xlink:href="#DejaVuSans-53"/>
     <use xlink:href="#DejaVuSans-74" x="63.476562"/>
     <use xlink:href="#DejaVuSans-61" x="102.685547"/>
     <use xlink:href="#DejaVuSans-6e" x="163.964844"/>
     <use xlink:href="#DejaVuSans-64" x="227.34375"/>
     <use xlink:href="#DejaVuSans-69" x="290.820312"/>
     <use xlink:href="#DejaVuSans-6e" x="318.603516"/>
     <use xlink:href="#DejaVuSans-67" x="381.982422"/>
     <use xlink:href="#DejaVuSans-73" x="445.458984"/>
    </g>
   </g>
   <g id="legend_1">
    <g id="patch_7">
     <path d="M 57.87 122.94875 
L 143.37 122.94875 
Q 145.37 122.94875 145.37 120.94875 
L 145.37 33.88 
Q 145.37 31.88 143.37 31.88 
L 57.87 31.88 
Q 55.87 31.88 55.87 33.88 
L 55.87 120.94875 
Q 55.87 122.94875 57.87 122.94875 
z
" style="fill: #ffffff; opacity: 0.8; stroke: #cccccc; stroke-linejoin: miter"/>
    </g>
    <g id="line2d_31">
     <path d="M 59.87 39.978438 
L 69.87 39.978438 
L 79.87 39.978438 
" style="fill: none; stroke: #1f77b4; stroke-width: 1.5; stroke-linecap: square"/>
     <g>
      <use xlink:href="#m84806af638" x="69.87" y="39.978438" style="fill: #1f77b4; stroke: #1f77b4"/>
     </g>
    </g>
    <g id="text_15">
     <!-- Matias BN -->
     <g transform="translate(87.87 43.478438) scale(0.1 -0.1)">
      <defs>
       <path id="DejaVuSans-4d" d="M 628 4666 
L 1569 4666 
L 2759 1491 
L 3956 4666 
L 4897 4666 
L 4897 0 
L 4281 0 
L 4281 4097 
L 3078 897 
L 2444 897 
L 1241 4097 
L 1241 0 
L 628 0 
L 628 4666 
z
" transform="scale(0.015625)"/>
       <path id="DejaVuSans-20" transform="scale(0.015625)"/>
       <path id="DejaVuSans-42" d="M 1259 2228 
L 1259 519 
L 2272 519 
Q 2781 519 3026 730 
Q 3272 941 3272 1375 
Q 3272 1813 3026 2020 
Q 2781 2228 2272 2228 
L 1259 2228 
z
M 1259 4147 
L 1259 2741 
L 2194 2741 
Q 2656 2741 2882 2914 
Q 3109 3088 3109 3444 
Q 3109 3797 2882 3972 
Q 2656 4147 2194 4147 
L 1259 4147 
z
M 628 4666 
L 2241 4666 
Q 2963 4666 3353 4366 
Q 3744 4066 3744 3513 
Q 3744 3084 3544 2831 
Q 3344 2578 2956 2516 
Q 3422 2416 3680 2098 
Q 3938 1781 3938 1306 
Q 3938 681 3513 340 
Q 3088 0 2303 0 
L 628 0 
L 628 4666 
z
" transform="scale(0.015625)"/>
       <path id="DejaVuSans-4e" d="M 628 4666 
L 1478 4666 
L 3547 763 
L 3547 4666 
L 4159 4666 
L 4159 0 
L 3309 0 
L 1241 3903 
L 1241 0 
L 628 0 
L 628 4666 
z
" transform="scale(0.015625)"/>
      </defs>
      <use xlink:href="#DejaVuSans-4d"/>
      <use xlink:href="#DejaVuSans-61" x="86.279297"/>
      <use xlink:href="#DejaVuSans-74" x="147.558594"/>
      <use xlink:href="#DejaVuSans-69" x="186.767578"/>
      <use xlink:href="#DejaVuSans-61" x="214.550781"/>
      <use xlink:href="#DejaVuSans-73" x="275.830078"/>
      <use xlink:href="#DejaVuSans-20" x="327.929688"/>
      <use xlink:href="#DejaVuSans-42" x="359.716797"/>
      <use xlink:href="#DejaVuSans-4e" x="428.320312"/>
     </g>
    </g>
    <g id="line2d_32">
     <path d="M 59.87 54.656563 
L 69.87 54.656563 
L 79.87 54.656563 
" style="fill: none; stroke: #ff7f0e; stroke-width: 1.5; stroke-linecap: square"/>
     <g>
      <use xlink:href="#md01e378ce0" x="69.87" y="54.656563" style="fill: #ff7f0e; stroke: #ff7f0e"/>
     </g>
    </g>
    <g id="text_16">
     <!-- Mattias Ra -->
     <g transform="translate(87.87 58.156563) scale(0.1 -0.1)">
      <defs>
       <path id="DejaVuSans-52" d="M 2841 2188 
Q 3044 2119 3236 1894 
Q 3428 1669 3622 1275 
L 4263 0 
L 3584 0 
L 2988 1197 
Q 2756 1666 2539 1819 
Q 2322 1972 1947 1972 
L 1259 1972 
L 1259 0 
L 628 0 
L 628 4666 
L 2053 4666 
Q 2853 4666 3247 4331 
Q 3641 3997 3641 3322 
Q 3641 2881 3436 2590 
Q 3231 2300 2841 2188 
z
M 1259 4147 
L 1259 2491 
L 2053 2491 
Q 2509 2491 2742 2702 
Q 2975 2913 2975 3322 
Q 2975 3731 2742 3939 
Q 2509 4147 2053 4147 
L 1259 4147 
z
" transform="scale(0.015625)"/>
      </defs>
      <use xlink:href="#DejaVuSans-4d"/>
      <use xlink:href="#DejaVuSans-61" x="86.279297"/>
      <use xlink:href="#DejaVuSans-74" x="147.558594"/>
      <use xlink:href="#DejaVuSans-74" x="186.767578"/>
      <use xlink:href="#DejaVuSans-69" x="225.976562"/>
      <use xlink:href="#DejaVuSans-61" x="253.759766"/>
      <use xlink:href="#DejaVuSans-73" x="315.039062"/>
      <use xlink:href="#DejaVuSans-20" x="367.138672"/>
      <use xlink:href="#DejaVuSans-52" x="398.925781"/>
      <use xlink:href="#DejaVuSans-61" x="466.158203"/>
     </g>
    </g>
    <g id="line2d_33">
     <path d="M 59.87 69.334688 
L 69.87 69.334688 
L 79.87 69.334688 
" style="fill: none; stroke: #2ca02c; stroke-width: 1.5; stroke-linecap: square"/>
     <g>
      <use xlink:href="#m4038a541ad" x="69.87" y="69.334688" style="fill: #2ca02c; stroke: #2ca02c"/>
     </g>
    </g>
    <g id="text_17">
     <!-- Simon Bo -->
     <g transform="translate(87.87 72.834688) scale(0.1 -0.1)">
      <defs>
       <path id="DejaVuSans-6d" d="M 3328 2828 
Q 3544 3216 3844 3400 
Q 4144 3584 4550 3584 
Q 5097 3584 5394 3201 
Q 5691 2819 5691 2113 
L 5691 0 
L 5113 0 
L 5113 2094 
Q 5113 2597 4934 2840 
Q 4756 3084 4391 3084 
Q 3944 3084 3684 2787 
Q 3425 2491 3425 1978 
L 3425 0 
L 2847 0 
L 2847 2094 
Q 2847 2600 2669 2842 
Q 2491 3084 2119 3084 
Q 1678 3084 1418 2786 
Q 1159 2488 1159 1978 
L 1159 0 
L 581 0 
L 581 3500 
L 1159 3500 
L 1159 2956 
Q 1356 3278 1631 3431 
Q 1906 3584 2284 3584 
Q 2666 3584 2933 3390 
Q 3200 3197 3328 2828 
z
" transform="scale(0.015625)"/>
      </defs>
      <use xlink:href="#DejaVuSans-53"/>
      <use xlink:href="#DejaVuSans-69" x="63.476562"/>
      <use xlink:href="#DejaVuSans-6d" x="91.259766"/>
      <use xlink:href="#DejaVuSans-6f" x="188.671875"/>
      <use xlink:href="#DejaVuSans-6e" x="249.853516"/>
      <use xlink:href="#DejaVuSans-20" x="313.232422"/>
      <use xlink:href="#DejaVuSans-42" x="345.019531"/>
      <use xlink:href="#DejaVuSans-6f" x="413.623047"/>
     </g>
    </g>
    <g id="line2d_34">
     <path d="M 59.87 84.012813 
L 69.87 84.012813 
L 79.87 84.012813 
" style="fill: none; stroke: #d62728; stroke-width: 1.5; stroke-linecap: square"/>
     <g>
      <use xlink:href="#me50dba915b" x="69.87" y="84.012813" style="fill: #d62728; stroke: #d62728"/>
     </g>
    </g>
    <g id="text_18">
     <!-- Kristian Se -->
     <g transform="translate(87.87 87.512813) scale(0.1 -0.1)">
      <defs>
       <path id="DejaVuSans-4b" d="M 628 4666 
L 1259 4666 
L 1259 2694 
L 3353 4666 
L 4166 4666 
L 1850 2491 
L 4331 0 
L 3500 0 
L 1259 2247 
L 1259 0 
L 628 0 
L 628 4666 
z
" transform="scale(0.015625)"/>
      </defs>
      <use xlink:href="#DejaVuSans-4b"/>
      <use xlink:href="#DejaVuSans-72" x="65.576172"/>
      <use xlink:href="#DejaVuSans-69" x="106.689453"/>
      <use xlink:href="#DejaVuSans-73" x="134.472656"/>
      <use xlink:href="#DejaVuSans-74" x="186.572266"/>
      <use xlink:href="#DejaVuSans-69" x="225.78125"/>
      <use xlink:href="#DejaVuSans-61" x="253.564453"/>
      <use xlink:href="#DejaVuSans-6e" x="314.84375"/>
      <use xlink:href="#DejaVuSans-20" x="378.222656"/>
      <use xlink:href="#DejaVuSans-53" x="410.009766"/>
      <use xlink:href="#DejaVuSans-65" x="473.486328"/>
     </g>
    </g>
    <g id="line2d_35">
     <path d="M 59.87 98.690938 
L 69.87 98.690938 
L 79.87 98.690938 
" style="fill: none; stroke: #9467bd; stroke-width: 1.5; stroke-linecap: square"/>
     <g>
      <use xlink:href="#m29513ad2a9" x="69.87" y="98.690938" style="fill: #9467bd; stroke: #9467bd"/>
     </g>
    </g>
    <g id="text_19">
     <!-- Jesper M -->
     <g transform="translate(87.87 102.190938) scale(0.1 -0.1)">
      <defs>
       <path id="DejaVuSans-4a" d="M 628 4666 
L 1259 4666 
L 1259 325 
Q 1259 -519 939 -900 
Q 619 -1281 -91 -1281 
L -331 -1281 
L -331 -750 
L -134 -750 
Q 284 -750 456 -515 
Q 628 -281 628 325 
L 628 4666 
z
" transform="scale(0.015625)"/>
       <path id="DejaVuSans-70" d="M 1159 525 
L 1159 -1331 
L 581 -1331 
L 581 3500 
L 1159 3500 
L 1159 2969 
Q 1341 3281 1617 3432 
Q 1894 3584 2278 3584 
Q 2916 3584 3314 3078 
Q 3713 2572 3713 1747 
Q 3713 922 3314 415 
Q 2916 -91 2278 -91 
Q 1894 -91 1617 61 
Q 1341 213 1159 525 
z
M 3116 1747 
Q 3116 2381 2855 2742 
Q 2594 3103 2138 3103 
Q 1681 3103 1420 2742 
Q 1159 2381 1159 1747 
Q 1159 1113 1420 752 
Q 1681 391 2138 391 
Q 2594 391 2855 752 
Q 3116 1113 3116 1747 
z
" transform="scale(0.015625)"/>
       <path id="DejaVuSans-f8" d="M 2828 2503 
L 1306 653 
Q 1434 522 1595 459 
Q 1756 397 1959 397 
Q 2419 397 2687 759 
Q 2956 1122 2956 1747 
Q 2956 1994 2925 2176 
Q 2894 2359 2828 2503 
z
M 2606 2841 
Q 2475 2969 2314 3033 
Q 2153 3097 1959 3097 
Q 1488 3097 1223 2730 
Q 959 2363 959 1703 
Q 959 1478 989 1306 
Q 1019 1134 1081 991 
L 2606 2841 
z
M 691 519 
Q 522 759 437 1067 
Q 353 1375 353 1747 
Q 353 2609 779 3096 
Q 1206 3584 1959 3584 
Q 2250 3584 2498 3504 
Q 2747 3425 2956 3263 
L 3391 3788 
L 3688 3541 
L 3231 2981 
Q 3397 2741 3481 2431 
Q 3566 2122 3566 1747 
Q 3566 888 3137 398 
Q 2709 -91 1959 -91 
Q 1659 -91 1407 -9 
Q 1156 72 959 231 
L 525 -294 
L 225 -50 
L 691 519 
z
" transform="scale(0.015625)"/>
      </defs>
      <use xlink:href="#DejaVuSans-4a"/>
      <use xlink:href="#DejaVuSans-65" x="29.492188"/>
      <use xlink:href="#DejaVuSans-73" x="91.015625"/>
      <use xlink:href="#DejaVuSans-70" x="143.115234"/>
      <use xlink:href="#DejaVuSans-65" x="206.591797"/>
      <use xlink:href="#DejaVuSans-72" x="268.115234"/>
      <use xlink:href="#DejaVuSans-20" x="309.228516"/>
      <use xlink:href="#DejaVuSans-4d" x="341.015625"/>
      <use xlink:href="#DejaVuSans-f8" x="427.294922"/>
     </g>
    </g>
    <g id="line2d_36">
     <path d="M 59.87 113.369063 
L 69.87 113.369063 
L 79.87 113.369063 
" style="fill: none; stroke: #8c564b; stroke-width: 1.5; stroke-linecap: square"/>
     <g>
      <use xlink:href="#m3c856fbd1c" x="69.87" y="113.369063" style="fill: #8c564b; stroke: #8c564b"/>
     </g>
    </g>
    <g id="text_20">
     <!-- Ayman Ka -->
     <g transform="translate(87.87 116.869063) scale(0.1 -0.1)">
      <defs>
       <path id="DejaVuSans-41" d="M 2188 4044 
L 1331 1722 
L 3047 1722 
L 2188 4044 
z
M 1831 4666 
L 2547 4666 
L 4325 0 
L 3669 0 
L 3244 1197 
L 1141 1197 
L 716 0 
L 50 0 
L 1831 4666 
z
" transform="scale(0.015625)"/>
       <path id="DejaVuSans-79" d="M 2059 -325 
Q 1816 -950 1584 -1140 
Q 1353 -1331 966 -1331 
L 506 -1331 
L 506 -850 
L 844 -850 
Q 1081 -850 1212 -737 
Q 1344 -625 1503 -206 
L 1606 56 
L 191 3500 
L 800 3500 
L 1894 763 
L 2988 3500 
L 3597 3500 
L 2059 -325 
z
" transform="scale(0.015625)"/>
      </defs>
      <use xlink:href="#DejaVuSans-41"/>
      <use xlink:href="#DejaVuSans-79" x="61.658203"/>
      <use xlink:href="#DejaVuSans-6d" x="120.837891"/>
      <use xlink:href="#DejaVuSans-61" x="218.25"/>
      <use xlink:href="#DejaVuSans-6e" x="279.529297"/>
      <use xlink:href="#DejaVuSans-20" x="342.908203"/>
      <use xlink:href="#DejaVuSans-4b" x="374.695312"/>
      <use xlink:href="#DejaVuSans-61" x="438.521484"/>
     </g>
    </g>
   </g>
  </g>
 </g>
 <defs>
  <clipPath id="p7992ddd681">
   <rect x="50.87" y="26.88" width="802.33" height="377.24"/>
  </clipPath>
 </defs>
</svg>
