<?xml version="1.0" encoding="utf-8" standalone="no"?>
<!DOCTYPE svg PUBLIC "-//W3C//DTD SVG 1.1//EN"
  "http://www.w3.org/Graphics/SVG/1.1/DTD/svg11.dtd">
<svg xmlns:xlink="http://www.w3.org/1999/xlink" width="864pt" height="432pt" viewBox="0 0 864 432" xmlns="http://www.w3.org/2000/svg" version="1.1">
 <metadata>
  <rdf:RDF xmlns:dc="http://purl.org/dc/elements/1.1/" xmlns:cc="http://creativecommons.org/ns#" xmlns:rdf="http://www.w3.org/1999/02/22-rdf-syntax-ns#">
   <cc:Work>
    <dc:type rdf:resource="http://purl.org/dc/dcmitype/StillImage"/>
    <dc:date>2024-08-01T03:31:24.551230</dc:date>
    <dc:format>image/svg+xml</dc:format>
    <dc:creator>
     <cc:Agent>
      <dc:title>Matplotlib v3.9.1, https://matplotlib.org/</dc:title>
     </cc:Agent>
    </dc:creator>
   </cc:Work>
  </rdf:RDF>
 </metadata>
 <defs>
  <style type="text/css">*{stroke-linejoin: round; stroke-linecap: butt}</style>
 </defs>
 <g id="figure_1">
  <g id="patch_1">
   <path d="M 0 432 
L 864 432 
L 864 0 
L 0 0 
z
" style="fill: #ffffff"/>
  </g>
  <g id="axes_1">
   <g id="patch_2">
    <path d="M 50.87 404.12 
L 853.2 404.12 
L 853.2 26.88 
L 50.87 26.88 
z
" style="fill: #ffffff"/>
   </g>
   <g id="matplotlib.axis_1">
    <g id="xtick_1">
     <g id="line2d_1">
      <path d="M 102.535189 404.12 
L 102.535189 26.88 
" clip-path="url(#p173699f632)" style="fill: none; stroke-dasharray: 2.96,1.28; stroke-dashoffset: 0; stroke: #b0b0b0; stroke-width: 0.8"/>
     </g>
     <g id="line2d_2">
      <defs>
       <path id="m97eb21cb34" d="M 0 0 
L 0 3.5 
" style="stroke: #000000; stroke-width: 0.8"/>
      </defs>
      <g>
       <use xlink:href="#m97eb21cb34" x="102.535189" y="404.12" style="stroke: #000000; stroke-width: 0.8"/>
      </g>
     </g>
     <g id="text_1">
      <!-- 2024-06-15 -->
      <g transform="translate(73.477377 418.718437) scale(0.1 -0.1)">
       <defs>
        <path id="DejaVuSans-32" d="M 1228 531 
L 3431 531 
L 3431 0 
L 469 0 
L 469 531 
Q 828 903 1448 1529 
Q 2069 2156 2228 2338 
Q 2531 2678 2651 2914 
Q 2772 3150 2772 3378 
Q 2772 3750 2511 3984 
Q 2250 4219 1831 4219 
Q 1534 4219 1204 4116 
Q 875 4013 500 3803 
L 500 4441 
Q 881 4594 1212 4672 
Q 1544 4750 1819 4750 
Q 2544 4750 2975 4387 
Q 3406 4025 3406 3419 
Q 3406 3131 3298 2873 
Q 3191 2616 2906 2266 
Q 2828 2175 2409 1742 
Q 1991 1309 1228 531 
z
" transform="scale(0.015625)"/>
        <path id="DejaVuSans-30" d="M 2034 4250 
Q 1547 4250 1301 3770 
Q 1056 3291 1056 2328 
Q 1056 1369 1301 889 
Q 1547 409 2034 409 
Q 2525 409 2770 889 
Q 3016 1369 3016 2328 
Q 3016 3291 2770 3770 
Q 2525 4250 2034 4250 
z
M 2034 4750 
Q 2819 4750 3233 4129 
Q 3647 3509 3647 2328 
Q 3647 1150 3233 529 
Q 2819 -91 2034 -91 
Q 1250 -91 836 529 
Q 422 1150 422 2328 
Q 422 3509 836 4129 
Q 1250 4750 2034 4750 
z
" transform="scale(0.015625)"/>
        <path id="DejaVuSans-34" d="M 2419 4116 
L 825 1625 
L 2419 1625 
L 2419 4116 
z
M 2253 4666 
L 3047 4666 
L 3047 1625 
L 3713 1625 
L 3713 1100 
L 3047 1100 
L 3047 0 
L 2419 0 
L 2419 1100 
L 313 1100 
L 313 1709 
L 2253 4666 
z
" transform="scale(0.015625)"/>
        <path id="DejaVuSans-2d" d="M 313 2009 
L 1997 2009 
L 1997 1497 
L 313 1497 
L 313 2009 
z
" transform="scale(0.015625)"/>
        <path id="DejaVuSans-36" d="M 2113 2584 
Q 1688 2584 1439 2293 
Q 1191 2003 1191 1497 
Q 1191 994 1439 701 
Q 1688 409 2113 409 
Q 2538 409 2786 701 
Q 3034 994 3034 1497 
Q 3034 2003 2786 2293 
Q 2538 2584 2113 2584 
z
M 3366 4563 
L 3366 3988 
Q 3128 4100 2886 4159 
Q 2644 4219 2406 4219 
Q 1781 4219 1451 3797 
Q 1122 3375 1075 2522 
Q 1259 2794 1537 2939 
Q 1816 3084 2150 3084 
Q 2853 3084 3261 2657 
Q 3669 2231 3669 1497 
Q 3669 778 3244 343 
Q 2819 -91 2113 -91 
Q 1303 -91 875 529 
Q 447 1150 447 2328 
Q 447 3434 972 4092 
Q 1497 4750 2381 4750 
Q 2619 4750 2861 4703 
Q 3103 4656 3366 4563 
z
" transform="scale(0.015625)"/>
        <path id="DejaVuSans-31" d="M 794 531 
L 1825 531 
L 1825 4091 
L 703 3866 
L 703 4441 
L 1819 4666 
L 2450 4666 
L 2450 531 
L 3481 531 
L 3481 0 
L 794 0 
L 794 531 
z
" transform="scale(0.015625)"/>
        <path id="DejaVuSans-35" d="M 691 4666 
L 3169 4666 
L 3169 4134 
L 1269 4134 
L 1269 2991 
Q 1406 3038 1543 3061 
Q 1681 3084 1819 3084 
Q 2600 3084 3056 2656 
Q 3513 2228 3513 1497 
Q 3513 744 3044 326 
Q 2575 -91 1722 -91 
Q 1428 -91 1123 -41 
Q 819 9 494 109 
L 494 744 
Q 775 591 1075 516 
Q 1375 441 1709 441 
Q 2250 441 2565 725 
Q 2881 1009 2881 1497 
Q 2881 1984 2565 2268 
Q 2250 2553 1709 2553 
Q 1456 2553 1204 2497 
Q 953 2441 691 2322 
L 691 4666 
z
" transform="scale(0.015625)"/>
       </defs>
       <use xlink:href="#DejaVuSans-32"/>
       <use xlink:href="#DejaVuSans-30" x="63.623047"/>
       <use xlink:href="#DejaVuSans-32" x="127.246094"/>
       <use xlink:href="#DejaVuSans-34" x="190.869141"/>
       <use xlink:href="#DejaVuSans-2d" x="254.492188"/>
       <use xlink:href="#DejaVuSans-30" x="290.576172"/>
       <use xlink:href="#DejaVuSans-36" x="354.199219"/>
       <use xlink:href="#DejaVuSans-2d" x="417.822266"/>
       <use xlink:href="#DejaVuSans-31" x="453.90625"/>
       <use xlink:href="#DejaVuSans-35" x="517.529297"/>
      </g>
     </g>
    </g>
    <g id="xtick_2">
     <g id="line2d_3">
      <path d="M 208.904697 404.12 
L 208.904697 26.88 
" clip-path="url(#p173699f632)" style="fill: none; stroke-dasharray: 2.96,1.28; stroke-dashoffset: 0; stroke: #b0b0b0; stroke-width: 0.8"/>
     </g>
     <g id="line2d_4">
      <g>
       <use xlink:href="#m97eb21cb34" x="208.904697" y="404.12" style="stroke: #000000; stroke-width: 0.8"/>
      </g>
     </g>
     <g id="text_2">
      <!-- 2024-06-22 -->
      <g transform="translate(179.846884 418.718437) scale(0.1 -0.1)">
       <use xlink:href="#DejaVuSans-32"/>
       <use xlink:href="#DejaVuSans-30" x="63.623047"/>
       <use xlink:href="#DejaVuSans-32" x="127.246094"/>
       <use xlink:href="#DejaVuSans-34" x="190.869141"/>
       <use xlink:href="#DejaVuSans-2d" x="254.492188"/>
       <use xlink:href="#DejaVuSans-30" x="290.576172"/>
       <use xlink:href="#DejaVuSans-36" x="354.199219"/>
       <use xlink:href="#DejaVuSans-2d" x="417.822266"/>
       <use xlink:href="#DejaVuSans-32" x="453.90625"/>
       <use xlink:href="#DejaVuSans-32" x="517.529297"/>
      </g>
     </g>
    </g>
    <g id="xtick_3">
     <g id="line2d_5">
      <path d="M 345.665492 404.12 
L 345.665492 26.88 
" clip-path="url(#p173699f632)" style="fill: none; stroke-dasharray: 2.96,1.28; stroke-dashoffset: 0; stroke: #b0b0b0; stroke-width: 0.8"/>
     </g>
     <g id="line2d_6">
      <g>
       <use xlink:href="#m97eb21cb34" x="345.665492" y="404.12" style="stroke: #000000; stroke-width: 0.8"/>
      </g>
     </g>
     <g id="text_3">
      <!-- 2024-07-01 -->
      <g transform="translate(316.60768 418.718437) scale(0.1 -0.1)">
       <defs>
        <path id="DejaVuSans-37" d="M 525 4666 
L 3525 4666 
L 3525 4397 
L 1831 0 
L 1172 0 
L 2766 4134 
L 525 4134 
L 525 4666 
z
" transform="scale(0.015625)"/>
       </defs>
       <use xlink:href="#DejaVuSans-32"/>
       <use xlink:href="#DejaVuSans-30" x="63.623047"/>
       <use xlink:href="#DejaVuSans-32" x="127.246094"/>
       <use xlink:href="#DejaVuSans-34" x="190.869141"/>
       <use xlink:href="#DejaVuSans-2d" x="254.492188"/>
       <use xlink:href="#DejaVuSans-30" x="290.576172"/>
       <use xlink:href="#DejaVuSans-37" x="354.199219"/>
       <use xlink:href="#DejaVuSans-2d" x="417.822266"/>
       <use xlink:href="#DejaVuSans-30" x="453.90625"/>
       <use xlink:href="#DejaVuSans-31" x="517.529297"/>
      </g>
     </g>
    </g>
    <g id="xtick_4">
     <g id="line2d_7">
      <path d="M 452.035 404.12 
L 452.035 26.88 
" clip-path="url(#p173699f632)" style="fill: none; stroke-dasharray: 2.96,1.28; stroke-dashoffset: 0; stroke: #b0b0b0; stroke-width: 0.8"/>
     </g>
     <g id="line2d_8">
      <g>
       <use xlink:href="#m97eb21cb34" x="452.035" y="404.12" style="stroke: #000000; stroke-width: 0.8"/>
      </g>
     </g>
     <g id="text_4">
      <!-- 2024-07-08 -->
      <g transform="translate(422.977187 418.718437) scale(0.1 -0.1)">
       <defs>
        <path id="DejaVuSans-38" d="M 2034 2216 
Q 1584 2216 1326 1975 
Q 1069 1734 1069 1313 
Q 1069 891 1326 650 
Q 1584 409 2034 409 
Q 2484 409 2743 651 
Q 3003 894 3003 1313 
Q 3003 1734 2745 1975 
Q 2488 2216 2034 2216 
z
M 1403 2484 
Q 997 2584 770 2862 
Q 544 3141 544 3541 
Q 544 4100 942 4425 
Q 1341 4750 2034 4750 
Q 2731 4750 3128 4425 
Q 3525 4100 3525 3541 
Q 3525 3141 3298 2862 
Q 3072 2584 2669 2484 
Q 3125 2378 3379 2068 
Q 3634 1759 3634 1313 
Q 3634 634 3220 271 
Q 2806 -91 2034 -91 
Q 1263 -91 848 271 
Q 434 634 434 1313 
Q 434 1759 690 2068 
Q 947 2378 1403 2484 
z
M 1172 3481 
Q 1172 3119 1398 2916 
Q 1625 2713 2034 2713 
Q 2441 2713 2670 2916 
Q 2900 3119 2900 3481 
Q 2900 3844 2670 4047 
Q 2441 4250 2034 4250 
Q 1625 4250 1398 4047 
Q 1172 3844 1172 3481 
z
" transform="scale(0.015625)"/>
       </defs>
       <use xlink:href="#DejaVuSans-32"/>
       <use xlink:href="#DejaVuSans-30" x="63.623047"/>
       <use xlink:href="#DejaVuSans-32" x="127.246094"/>
       <use xlink:href="#DejaVuSans-34" x="190.869141"/>
       <use xlink:href="#DejaVuSans-2d" x="254.492188"/>
       <use xlink:href="#DejaVuSans-30" x="290.576172"/>
       <use xlink:href="#DejaVuSans-37" x="354.199219"/>
       <use xlink:href="#DejaVuSans-2d" x="417.822266"/>
       <use xlink:href="#DejaVuSans-30" x="453.90625"/>
       <use xlink:href="#DejaVuSans-38" x="517.529297"/>
      </g>
     </g>
    </g>
    <g id="xtick_5">
     <g id="line2d_9">
      <path d="M 558.404508 404.12 
L 558.404508 26.88 
" clip-path="url(#p173699f632)" style="fill: none; stroke-dasharray: 2.96,1.28; stroke-dashoffset: 0; stroke: #b0b0b0; stroke-width: 0.8"/>
     </g>
     <g id="line2d_10">
      <g>
       <use xlink:href="#m97eb21cb34" x="558.404508" y="404.12" style="stroke: #000000; stroke-width: 0.8"/>
      </g>
     </g>
     <g id="text_5">
      <!-- 2024-07-15 -->
      <g transform="translate(529.346695 418.718437) scale(0.1 -0.1)">
       <use xlink:href="#DejaVuSans-32"/>
       <use xlink:href="#DejaVuSans-30" x="63.623047"/>
       <use xlink:href="#DejaVuSans-32" x="127.246094"/>
       <use xlink:href="#DejaVuSans-34" x="190.869141"/>
       <use xlink:href="#DejaVuSans-2d" x="254.492188"/>
       <use xlink:href="#DejaVuSans-30" x="290.576172"/>
       <use xlink:href="#DejaVuSans-37" x="354.199219"/>
       <use xlink:href="#DejaVuSans-2d" x="417.822266"/>
       <use xlink:href="#DejaVuSans-31" x="453.90625"/>
       <use xlink:href="#DejaVuSans-35" x="517.529297"/>
      </g>
     </g>
    </g>
    <g id="xtick_6">
     <g id="line2d_11">
      <path d="M 664.774015 404.12 
L 664.774015 26.88 
" clip-path="url(#p173699f632)" style="fill: none; stroke-dasharray: 2.96,1.28; stroke-dashoffset: 0; stroke: #b0b0b0; stroke-width: 0.8"/>
     </g>
     <g id="line2d_12">
      <g>
       <use xlink:href="#m97eb21cb34" x="664.774015" y="404.12" style="stroke: #000000; stroke-width: 0.8"/>
      </g>
     </g>
     <g id="text_6">
      <!-- 2024-07-22 -->
      <g transform="translate(635.716203 418.718437) scale(0.1 -0.1)">
       <use xlink:href="#DejaVuSans-32"/>
       <use xlink:href="#DejaVuSans-30" x="63.623047"/>
       <use xlink:href="#DejaVuSans-32" x="127.246094"/>
       <use xlink:href="#DejaVuSans-34" x="190.869141"/>
       <use xlink:href="#DejaVuSans-2d" x="254.492188"/>
       <use xlink:href="#DejaVuSans-30" x="290.576172"/>
       <use xlink:href="#DejaVuSans-37" x="354.199219"/>
       <use xlink:href="#DejaVuSans-2d" x="417.822266"/>
       <use xlink:href="#DejaVuSans-32" x="453.90625"/>
       <use xlink:href="#DejaVuSans-32" x="517.529297"/>
      </g>
     </g>
    </g>
    <g id="xtick_7">
     <g id="line2d_13">
      <path d="M 816.730455 404.12 
L 816.730455 26.88 
" clip-path="url(#p173699f632)" style="fill: none; stroke-dasharray: 2.96,1.28; stroke-dashoffset: 0; stroke: #b0b0b0; stroke-width: 0.8"/>
     </g>
     <g id="line2d_14">
      <g>
       <use xlink:href="#m97eb21cb34" x="816.730455" y="404.12" style="stroke: #000000; stroke-width: 0.8"/>
      </g>
     </g>
     <g id="text_7">
      <!-- 2024-08-01 -->
      <g transform="translate(787.672642 418.718437) scale(0.1 -0.1)">
       <use xlink:href="#DejaVuSans-32"/>
       <use xlink:href="#DejaVuSans-30" x="63.623047"/>
       <use xlink:href="#DejaVuSans-32" x="127.246094"/>
       <use xlink:href="#DejaVuSans-34" x="190.869141"/>
       <use xlink:href="#DejaVuSans-2d" x="254.492188"/>
       <use xlink:href="#DejaVuSans-30" x="290.576172"/>
       <use xlink:href="#DejaVuSans-38" x="354.199219"/>
       <use xlink:href="#DejaVuSans-2d" x="417.822266"/>
       <use xlink:href="#DejaVuSans-30" x="453.90625"/>
       <use xlink:href="#DejaVuSans-31" x="517.529297"/>
      </g>
     </g>
    </g>
   </g>
   <g id="matplotlib.axis_2">
    <g id="ytick_1">
     <g id="line2d_15">
      <path d="M 50.87 393.35696 
L 853.2 393.35696 
" clip-path="url(#p173699f632)" style="fill: none; stroke-dasharray: 2.96,1.28; stroke-dashoffset: 0; stroke: #b0b0b0; stroke-width: 0.8"/>
     </g>
     <g id="line2d_16">
      <defs>
       <path id="m49fe42f4bb" d="M 0 0 
L -3.5 0 
" style="stroke: #000000; stroke-width: 0.8"/>
      </defs>
      <g>
       <use xlink:href="#m49fe42f4bb" x="50.87" y="393.35696" style="stroke: #000000; stroke-width: 0.8"/>
      </g>
     </g>
     <g id="text_8">
      <!-- 0 -->
      <g transform="translate(37.5075 397.156179) scale(0.1 -0.1)">
       <use xlink:href="#DejaVuSans-30"/>
      </g>
     </g>
    </g>
    <g id="ytick_2">
     <g id="line2d_17">
      <path d="M 50.87 330.078242 
L 853.2 330.078242 
" clip-path="url(#p173699f632)" style="fill: none; stroke-dasharray: 2.96,1.28; stroke-dashoffset: 0; stroke: #b0b0b0; stroke-width: 0.8"/>
     </g>
     <g id="line2d_18">
      <g>
       <use xlink:href="#m49fe42f4bb" x="50.87" y="330.078242" style="stroke: #000000; stroke-width: 0.8"/>
      </g>
     </g>
     <g id="text_9">
      <!-- 50 -->
      <g transform="translate(31.145 333.877461) scale(0.1 -0.1)">
       <use xlink:href="#DejaVuSans-35"/>
       <use xlink:href="#DejaVuSans-30" x="63.623047"/>
      </g>
     </g>
    </g>
    <g id="ytick_3">
     <g id="line2d_19">
      <path d="M 50.87 266.799524 
L 853.2 266.799524 
" clip-path="url(#p173699f632)" style="fill: none; stroke-dasharray: 2.96,1.28; stroke-dashoffset: 0; stroke: #b0b0b0; stroke-width: 0.8"/>
     </g>
     <g id="line2d_20">
      <g>
       <use xlink:href="#m49fe42f4bb" x="50.87" y="266.799524" style="stroke: #000000; stroke-width: 0.8"/>
      </g>
     </g>
     <g id="text_10">
      <!-- 100 -->
      <g transform="translate(24.7825 270.598743) scale(0.1 -0.1)">
       <use xlink:href="#DejaVuSans-31"/>
       <use xlink:href="#DejaVuSans-30" x="63.623047"/>
       <use xlink:href="#DejaVuSans-30" x="127.246094"/>
      </g>
     </g>
    </g>
    <g id="ytick_4">
     <g id="line2d_21">
      <path d="M 50.87 203.520806 
L 853.2 203.520806 
" clip-path="url(#p173699f632)" style="fill: none; stroke-dasharray: 2.96,1.28; stroke-dashoffset: 0; stroke: #b0b0b0; stroke-width: 0.8"/>
     </g>
     <g id="line2d_22">
      <g>
       <use xlink:href="#m49fe42f4bb" x="50.87" y="203.520806" style="stroke: #000000; stroke-width: 0.8"/>
      </g>
     </g>
     <g id="text_11">
      <!-- 150 -->
      <g transform="translate(24.7825 207.320025) scale(0.1 -0.1)">
       <use xlink:href="#DejaVuSans-31"/>
       <use xlink:href="#DejaVuSans-35" x="63.623047"/>
       <use xlink:href="#DejaVuSans-30" x="127.246094"/>
      </g>
     </g>
    </g>
    <g id="ytick_5">
     <g id="line2d_23">
      <path d="M 50.87 140.242088 
L 853.2 140.242088 
" clip-path="url(#p173699f632)" style="fill: none; stroke-dasharray: 2.96,1.28; stroke-dashoffset: 0; stroke: #b0b0b0; stroke-width: 0.8"/>
     </g>
     <g id="line2d_24">
      <g>
       <use xlink:href="#m49fe42f4bb" x="50.87" y="140.242088" style="stroke: #000000; stroke-width: 0.8"/>
      </g>
     </g>
     <g id="text_12">
      <!-- 200 -->
      <g transform="translate(24.7825 144.041307) scale(0.1 -0.1)">
       <use xlink:href="#DejaVuSans-32"/>
       <use xlink:href="#DejaVuSans-30" x="63.623047"/>
       <use xlink:href="#DejaVuSans-30" x="127.246094"/>
      </g>
     </g>
    </g>
    <g id="ytick_6">
     <g id="line2d_25">
      <path d="M 50.87 76.96337 
L 853.2 76.96337 
" clip-path="url(#p173699f632)" style="fill: none; stroke-dasharray: 2.96,1.28; stroke-dashoffset: 0; stroke: #b0b0b0; stroke-width: 0.8"/>
     </g>
     <g id="line2d_26">
      <g>
       <use xlink:href="#m49fe42f4bb" x="50.87" y="76.96337" style="stroke: #000000; stroke-width: 0.8"/>
      </g>
     </g>
     <g id="text_13">
      <!-- 250 -->
      <g transform="translate(24.7825 80.762589) scale(0.1 -0.1)">
       <use xlink:href="#DejaVuSans-32"/>
       <use xlink:href="#DejaVuSans-35" x="63.623047"/>
       <use xlink:href="#DejaVuSans-30" x="127.246094"/>
      </g>
     </g>
    </g>
    <g id="text_14">
     <!-- Score -->
     <g transform="translate(18.702813 229.502344) rotate(-90) scale(0.1 -0.1)">
      <defs>
       <path id="DejaVuSans-53" d="M 3425 4513 
L 3425 3897 
Q 3066 4069 2747 4153 
Q 2428 4238 2131 4238 
Q 1616 4238 1336 4038 
Q 1056 3838 1056 3469 
Q 1056 3159 1242 3001 
Q 1428 2844 1947 2747 
L 2328 2669 
Q 3034 2534 3370 2195 
Q 3706 1856 3706 1288 
Q 3706 609 3251 259 
Q 2797 -91 1919 -91 
Q 1588 -91 1214 -16 
Q 841 59 441 206 
L 441 856 
Q 825 641 1194 531 
Q 1563 422 1919 422 
Q 2459 422 2753 634 
Q 3047 847 3047 1241 
Q 3047 1584 2836 1778 
Q 2625 1972 2144 2069 
L 1759 2144 
Q 1053 2284 737 2584 
Q 422 2884 422 3419 
Q 422 4038 858 4394 
Q 1294 4750 2059 4750 
Q 2388 4750 2728 4690 
Q 3069 4631 3425 4513 
z
" transform="scale(0.015625)"/>
       <path id="DejaVuSans-63" d="M 3122 3366 
L 3122 2828 
Q 2878 2963 2633 3030 
Q 2388 3097 2138 3097 
Q 1578 3097 1268 2742 
Q 959 2388 959 1747 
Q 959 1106 1268 751 
Q 1578 397 2138 397 
Q 2388 397 2633 464 
Q 2878 531 3122 666 
L 3122 134 
Q 2881 22 2623 -34 
Q 2366 -91 2075 -91 
Q 1284 -91 818 406 
Q 353 903 353 1747 
Q 353 2603 823 3093 
Q 1294 3584 2113 3584 
Q 2378 3584 2631 3529 
Q 2884 3475 3122 3366 
z
" transform="scale(0.015625)"/>
       <path id="DejaVuSans-6f" d="M 1959 3097 
Q 1497 3097 1228 2736 
Q 959 2375 959 1747 
Q 959 1119 1226 758 
Q 1494 397 1959 397 
Q 2419 397 2687 759 
Q 2956 1122 2956 1747 
Q 2956 2369 2687 2733 
Q 2419 3097 1959 3097 
z
M 1959 3584 
Q 2709 3584 3137 3096 
Q 3566 2609 3566 1747 
Q 3566 888 3137 398 
Q 2709 -91 1959 -91 
Q 1206 -91 779 398 
Q 353 888 353 1747 
Q 353 2609 779 3096 
Q 1206 3584 1959 3584 
z
" transform="scale(0.015625)"/>
       <path id="DejaVuSans-72" d="M 2631 2963 
Q 2534 3019 2420 3045 
Q 2306 3072 2169 3072 
Q 1681 3072 1420 2755 
Q 1159 2438 1159 1844 
L 1159 0 
L 581 0 
L 581 3500 
L 1159 3500 
L 1159 2956 
Q 1341 3275 1631 3429 
Q 1922 3584 2338 3584 
Q 2397 3584 2469 3576 
Q 2541 3569 2628 3553 
L 2631 2963 
z
" transform="scale(0.015625)"/>
       <path id="DejaVuSans-65" d="M 3597 1894 
L 3597 1613 
L 953 1613 
Q 991 1019 1311 708 
Q 1631 397 2203 397 
Q 2534 397 2845 478 
Q 3156 559 3463 722 
L 3463 178 
Q 3153 47 2828 -22 
Q 2503 -91 2169 -91 
Q 1331 -91 842 396 
Q 353 884 353 1716 
Q 353 2575 817 3079 
Q 1281 3584 2069 3584 
Q 2775 3584 3186 3129 
Q 3597 2675 3597 1894 
z
M 3022 2063 
Q 3016 2534 2758 2815 
Q 2500 3097 2075 3097 
Q 1594 3097 1305 2825 
Q 1016 2553 972 2059 
L 3022 2063 
z
" transform="scale(0.015625)"/>
      </defs>
      <use xlink:href="#DejaVuSans-53"/>
      <use xlink:href="#DejaVuSans-63" x="63.476562"/>
      <use xlink:href="#DejaVuSans-6f" x="118.457031"/>
      <use xlink:href="#DejaVuSans-72" x="179.638672"/>
      <use xlink:href="#DejaVuSans-65" x="218.501953"/>
     </g>
    </g>
   </g>
   <g id="line2d_27">
    <path d="M 87.339545 380.72263 
L 102.535189 359.207866 
L 117.730833 321.240635 
L 132.926477 312.381615 
L 148.122121 293.397999 
L 163.317765 274.414384 
L 178.513409 246.571748 
L 193.709053 235.181579 
L 208.904697 203.54222 
L 224.100341 192.15205 
L 239.295985 157.981543 
L 254.491629 137.732353 
L 269.687273 78.250358 
L 315.274205 78.250358 
L 330.469848 78.250358 
L 345.665492 78.250358 
L 360.861136 78.250358 
L 376.05678 78.250358 
L 406.448068 78.250358 
L 421.643712 78.250358 
L 436.839356 78.250358 
L 452.035 78.250358 
L 467.230644 78.250358 
L 482.426288 59.266743 
L 497.621932 59.266743 
L 512.817576 59.266743 
L 528.01322 59.266743 
L 543.208864 59.266743 
L 558.404508 46.610999 
L 573.600152 46.610999 
L 588.795795 46.610999 
L 603.991439 46.610999 
L 619.187083 46.610999 
L 634.382727 46.610999 
L 649.578371 46.610999 
L 664.774015 46.610999 
L 679.969659 46.610999 
L 695.165303 46.610999 
L 710.360947 46.610999 
L 725.556591 46.610999 
L 740.752235 46.610999 
L 755.947879 46.610999 
L 771.143523 46.610999 
L 786.339167 46.610999 
L 801.534811 46.610999 
L 816.730455 46.610999 
" clip-path="url(#p173699f632)" style="fill: none; stroke: #1f77b4; stroke-width: 1.5; stroke-linecap: square"/>
    <defs>
     <path id="mbc9ee9cc74" d="M 0 3.5 
C 0.928211 3.5 1.81853 3.131218 2.474874 2.474874 
C 3.131218 1.81853 3.5 0.928211 3.5 0 
C 3.5 -0.928211 3.131218 -1.81853 2.474874 -2.474874 
C 1.81853 -3.131218 0.928211 -3.5 0 -3.5 
C -0.928211 -3.5 -1.81853 -3.131218 -2.474874 -2.474874 
C -3.131218 -1.81853 -3.5 -0.928211 -3.5 0 
C -3.5 0.928211 -3.131218 1.81853 -2.474874 2.474874 
C -1.81853 3.131218 -0.928211 3.5 0 3.5 
z
" style="stroke: #1f77b4"/>
    </defs>
    <g clip-path="url(#p173699f632)">
     <use xlink:href="#mbc9ee9cc74" x="87.339545" y="380.72263" style="fill: #1f77b4; stroke: #1f77b4"/>
     <use xlink:href="#mbc9ee9cc74" x="102.535189" y="359.207866" style="fill: #1f77b4; stroke: #1f77b4"/>
     <use xlink:href="#mbc9ee9cc74" x="117.730833" y="321.240635" style="fill: #1f77b4; stroke: #1f77b4"/>
     <use xlink:href="#mbc9ee9cc74" x="132.926477" y="312.381615" style="fill: #1f77b4; stroke: #1f77b4"/>
     <use xlink:href="#mbc9ee9cc74" x="148.122121" y="293.397999" style="fill: #1f77b4; stroke: #1f77b4"/>
     <use xlink:href="#mbc9ee9cc74" x="163.317765" y="274.414384" style="fill: #1f77b4; stroke: #1f77b4"/>
     <use xlink:href="#mbc9ee9cc74" x="178.513409" y="246.571748" style="fill: #1f77b4; stroke: #1f77b4"/>
     <use xlink:href="#mbc9ee9cc74" x="193.709053" y="235.181579" style="fill: #1f77b4; stroke: #1f77b4"/>
     <use xlink:href="#mbc9ee9cc74" x="208.904697" y="203.54222" style="fill: #1f77b4; stroke: #1f77b4"/>
     <use xlink:href="#mbc9ee9cc74" x="224.100341" y="192.15205" style="fill: #1f77b4; stroke: #1f77b4"/>
     <use xlink:href="#mbc9ee9cc74" x="239.295985" y="157.981543" style="fill: #1f77b4; stroke: #1f77b4"/>
     <use xlink:href="#mbc9ee9cc74" x="254.491629" y="137.732353" style="fill: #1f77b4; stroke: #1f77b4"/>
     <use xlink:href="#mbc9ee9cc74" x="269.687273" y="78.250358" style="fill: #1f77b4; stroke: #1f77b4"/>
     <use xlink:href="#mbc9ee9cc74" x="315.274205" y="78.250358" style="fill: #1f77b4; stroke: #1f77b4"/>
     <use xlink:href="#mbc9ee9cc74" x="330.469848" y="78.250358" style="fill: #1f77b4; stroke: #1f77b4"/>
     <use xlink:href="#mbc9ee9cc74" x="345.665492" y="78.250358" style="fill: #1f77b4; stroke: #1f77b4"/>
     <use xlink:href="#mbc9ee9cc74" x="360.861136" y="78.250358" style="fill: #1f77b4; stroke: #1f77b4"/>
     <use xlink:href="#mbc9ee9cc74" x="376.05678" y="78.250358" style="fill: #1f77b4; stroke: #1f77b4"/>
     <use xlink:href="#mbc9ee9cc74" x="406.448068" y="78.250358" style="fill: #1f77b4; stroke: #1f77b4"/>
     <use xlink:href="#mbc9ee9cc74" x="421.643712" y="78.250358" style="fill: #1f77b4; stroke: #1f77b4"/>
     <use xlink:href="#mbc9ee9cc74" x="436.839356" y="78.250358" style="fill: #1f77b4; stroke: #1f77b4"/>
     <use xlink:href="#mbc9ee9cc74" x="452.035" y="78.250358" style="fill: #1f77b4; stroke: #1f77b4"/>
     <use xlink:href="#mbc9ee9cc74" x="467.230644" y="78.250358" style="fill: #1f77b4; stroke: #1f77b4"/>
     <use xlink:href="#mbc9ee9cc74" x="482.426288" y="59.266743" style="fill: #1f77b4; stroke: #1f77b4"/>
     <use xlink:href="#mbc9ee9cc74" x="497.621932" y="59.266743" style="fill: #1f77b4; stroke: #1f77b4"/>
     <use xlink:href="#mbc9ee9cc74" x="512.817576" y="59.266743" style="fill: #1f77b4; stroke: #1f77b4"/>
     <use xlink:href="#mbc9ee9cc74" x="528.01322" y="59.266743" style="fill: #1f77b4; stroke: #1f77b4"/>
     <use xlink:href="#mbc9ee9cc74" x="543.208864" y="59.266743" style="fill: #1f77b4; stroke: #1f77b4"/>
     <use xlink:href="#mbc9ee9cc74" x="558.404508" y="46.610999" style="fill: #1f77b4; stroke: #1f77b4"/>
     <use xlink:href="#mbc9ee9cc74" x="573.600152" y="46.610999" style="fill: #1f77b4; stroke: #1f77b4"/>
     <use xlink:href="#mbc9ee9cc74" x="588.795795" y="46.610999" style="fill: #1f77b4; stroke: #1f77b4"/>
     <use xlink:href="#mbc9ee9cc74" x="603.991439" y="46.610999" style="fill: #1f77b4; stroke: #1f77b4"/>
     <use xlink:href="#mbc9ee9cc74" x="619.187083" y="46.610999" style="fill: #1f77b4; stroke: #1f77b4"/>
     <use xlink:href="#mbc9ee9cc74" x="634.382727" y="46.610999" style="fill: #1f77b4; stroke: #1f77b4"/>
     <use xlink:href="#mbc9ee9cc74" x="649.578371" y="46.610999" style="fill: #1f77b4; stroke: #1f77b4"/>
     <use xlink:href="#mbc9ee9cc74" x="664.774015" y="46.610999" style="fill: #1f77b4; stroke: #1f77b4"/>
     <use xlink:href="#mbc9ee9cc74" x="679.969659" y="46.610999" style="fill: #1f77b4; stroke: #1f77b4"/>
     <use xlink:href="#mbc9ee9cc74" x="695.165303" y="46.610999" style="fill: #1f77b4; stroke: #1f77b4"/>
     <use xlink:href="#mbc9ee9cc74" x="710.360947" y="46.610999" style="fill: #1f77b4; stroke: #1f77b4"/>
     <use xlink:href="#mbc9ee9cc74" x="725.556591" y="46.610999" style="fill: #1f77b4; stroke: #1f77b4"/>
     <use xlink:href="#mbc9ee9cc74" x="740.752235" y="46.610999" style="fill: #1f77b4; stroke: #1f77b4"/>
     <use xlink:href="#mbc9ee9cc74" x="755.947879" y="46.610999" style="fill: #1f77b4; stroke: #1f77b4"/>
     <use xlink:href="#mbc9ee9cc74" x="771.143523" y="46.610999" style="fill: #1f77b4; stroke: #1f77b4"/>
     <use xlink:href="#mbc9ee9cc74" x="786.339167" y="46.610999" style="fill: #1f77b4; stroke: #1f77b4"/>
     <use xlink:href="#mbc9ee9cc74" x="801.534811" y="46.610999" style="fill: #1f77b4; stroke: #1f77b4"/>
     <use xlink:href="#mbc9ee9cc74" x="816.730455" y="46.610999" style="fill: #1f77b4; stroke: #1f77b4"/>
    </g>
   </g>
   <g id="line2d_28">
    <path d="M 87.339545 380.683469 
L 102.535189 359.168705 
L 117.730833 340.185089 
L 132.926477 333.857217 
L 148.122121 327.529346 
L 163.317765 303.483433 
L 178.513409 292.093264 
L 193.709053 285.765392 
L 208.904697 254.126033 
L 224.100341 216.158802 
L 239.295985 190.847315 
L 254.491629 176.925997 
L 269.687273 130.099745 
L 315.274205 130.099745 
L 330.469848 130.099745 
L 345.665492 130.099745 
L 360.861136 130.099745 
L 376.05678 130.099745 
L 406.448068 130.099745 
L 421.643712 130.099745 
L 436.839356 130.099745 
L 452.035 130.099745 
L 467.230644 130.099745 
L 482.426288 111.11613 
L 497.621932 111.11613 
L 512.817576 111.11613 
L 528.01322 111.11613 
L 543.208864 111.11613 
L 558.404508 79.476771 
L 573.600152 79.476771 
L 588.795795 79.476771 
L 603.991439 79.476771 
L 619.187083 79.476771 
L 634.382727 79.476771 
L 649.578371 79.476771 
L 664.774015 79.476771 
L 679.969659 79.476771 
L 695.165303 79.476771 
L 710.360947 79.476771 
L 725.556591 79.476771 
L 740.752235 79.476771 
L 755.947879 79.476771 
L 771.143523 79.476771 
L 786.339167 79.476771 
L 801.534811 79.476771 
L 816.730455 79.476771 
" clip-path="url(#p173699f632)" style="fill: none; stroke: #ff7f0e; stroke-width: 1.5; stroke-linecap: square"/>
    <defs>
     <path id="md83a5ca263" d="M 0 3.5 
C 0.928211 3.5 1.81853 3.131218 2.474874 2.474874 
C 3.131218 1.81853 3.5 0.928211 3.5 0 
C 3.5 -0.928211 3.131218 -1.81853 2.474874 -2.474874 
C 1.81853 -3.131218 0.928211 -3.5 0 -3.5 
C -0.928211 -3.5 -1.81853 -3.131218 -2.474874 -2.474874 
C -3.131218 -1.81853 -3.5 -0.928211 -3.5 0 
C -3.5 0.928211 -3.131218 1.81853 -2.474874 2.474874 
C -1.81853 3.131218 -0.928211 3.5 0 3.5 
z
" style="stroke: #ff7f0e"/>
    </defs>
    <g clip-path="url(#p173699f632)">
     <use xlink:href="#md83a5ca263" x="87.339545" y="380.683469" style="fill: #ff7f0e; stroke: #ff7f0e"/>
     <use xlink:href="#md83a5ca263" x="102.535189" y="359.168705" style="fill: #ff7f0e; stroke: #ff7f0e"/>
     <use xlink:href="#md83a5ca263" x="117.730833" y="340.185089" style="fill: #ff7f0e; stroke: #ff7f0e"/>
     <use xlink:href="#md83a5ca263" x="132.926477" y="333.857217" style="fill: #ff7f0e; stroke: #ff7f0e"/>
     <use xlink:href="#md83a5ca263" x="148.122121" y="327.529346" style="fill: #ff7f0e; stroke: #ff7f0e"/>
     <use xlink:href="#md83a5ca263" x="163.317765" y="303.483433" style="fill: #ff7f0e; stroke: #ff7f0e"/>
     <use xlink:href="#md83a5ca263" x="178.513409" y="292.093264" style="fill: #ff7f0e; stroke: #ff7f0e"/>
     <use xlink:href="#md83a5ca263" x="193.709053" y="285.765392" style="fill: #ff7f0e; stroke: #ff7f0e"/>
     <use xlink:href="#md83a5ca263" x="208.904697" y="254.126033" style="fill: #ff7f0e; stroke: #ff7f0e"/>
     <use xlink:href="#md83a5ca263" x="224.100341" y="216.158802" style="fill: #ff7f0e; stroke: #ff7f0e"/>
     <use xlink:href="#md83a5ca263" x="239.295985" y="190.847315" style="fill: #ff7f0e; stroke: #ff7f0e"/>
     <use xlink:href="#md83a5ca263" x="254.491629" y="176.925997" style="fill: #ff7f0e; stroke: #ff7f0e"/>
     <use xlink:href="#md83a5ca263" x="269.687273" y="130.099745" style="fill: #ff7f0e; stroke: #ff7f0e"/>
     <use xlink:href="#md83a5ca263" x="315.274205" y="130.099745" style="fill: #ff7f0e; stroke: #ff7f0e"/>
     <use xlink:href="#md83a5ca263" x="330.469848" y="130.099745" style="fill: #ff7f0e; stroke: #ff7f0e"/>
     <use xlink:href="#md83a5ca263" x="345.665492" y="130.099745" style="fill: #ff7f0e; stroke: #ff7f0e"/>
     <use xlink:href="#md83a5ca263" x="360.861136" y="130.099745" style="fill: #ff7f0e; stroke: #ff7f0e"/>
     <use xlink:href="#md83a5ca263" x="376.05678" y="130.099745" style="fill: #ff7f0e; stroke: #ff7f0e"/>
     <use xlink:href="#md83a5ca263" x="406.448068" y="130.099745" style="fill: #ff7f0e; stroke: #ff7f0e"/>
     <use xlink:href="#md83a5ca263" x="421.643712" y="130.099745" style="fill: #ff7f0e; stroke: #ff7f0e"/>
     <use xlink:href="#md83a5ca263" x="436.839356" y="130.099745" style="fill: #ff7f0e; stroke: #ff7f0e"/>
     <use xlink:href="#md83a5ca263" x="452.035" y="130.099745" style="fill: #ff7f0e; stroke: #ff7f0e"/>
     <use xlink:href="#md83a5ca263" x="467.230644" y="130.099745" style="fill: #ff7f0e; stroke: #ff7f0e"/>
     <use xlink:href="#md83a5ca263" x="482.426288" y="111.11613" style="fill: #ff7f0e; stroke: #ff7f0e"/>
     <use xlink:href="#md83a5ca263" x="497.621932" y="111.11613" style="fill: #ff7f0e; stroke: #ff7f0e"/>
     <use xlink:href="#md83a5ca263" x="512.817576" y="111.11613" style="fill: #ff7f0e; stroke: #ff7f0e"/>
     <use xlink:href="#md83a5ca263" x="528.01322" y="111.11613" style="fill: #ff7f0e; stroke: #ff7f0e"/>
     <use xlink:href="#md83a5ca263" x="543.208864" y="111.11613" style="fill: #ff7f0e; stroke: #ff7f0e"/>
     <use xlink:href="#md83a5ca263" x="558.404508" y="79.476771" style="fill: #ff7f0e; stroke: #ff7f0e"/>
     <use xlink:href="#md83a5ca263" x="573.600152" y="79.476771" style="fill: #ff7f0e; stroke: #ff7f0e"/>
     <use xlink:href="#md83a5ca263" x="588.795795" y="79.476771" style="fill: #ff7f0e; stroke: #ff7f0e"/>
     <use xlink:href="#md83a5ca263" x="603.991439" y="79.476771" style="fill: #ff7f0e; stroke: #ff7f0e"/>
     <use xlink:href="#md83a5ca263" x="619.187083" y="79.476771" style="fill: #ff7f0e; stroke: #ff7f0e"/>
     <use xlink:href="#md83a5ca263" x="634.382727" y="79.476771" style="fill: #ff7f0e; stroke: #ff7f0e"/>
     <use xlink:href="#md83a5ca263" x="649.578371" y="79.476771" style="fill: #ff7f0e; stroke: #ff7f0e"/>
     <use xlink:href="#md83a5ca263" x="664.774015" y="79.476771" style="fill: #ff7f0e; stroke: #ff7f0e"/>
     <use xlink:href="#md83a5ca263" x="679.969659" y="79.476771" style="fill: #ff7f0e; stroke: #ff7f0e"/>
     <use xlink:href="#md83a5ca263" x="695.165303" y="79.476771" style="fill: #ff7f0e; stroke: #ff7f0e"/>
     <use xlink:href="#md83a5ca263" x="710.360947" y="79.476771" style="fill: #ff7f0e; stroke: #ff7f0e"/>
     <use xlink:href="#md83a5ca263" x="725.556591" y="79.476771" style="fill: #ff7f0e; stroke: #ff7f0e"/>
     <use xlink:href="#md83a5ca263" x="740.752235" y="79.476771" style="fill: #ff7f0e; stroke: #ff7f0e"/>
     <use xlink:href="#md83a5ca263" x="755.947879" y="79.476771" style="fill: #ff7f0e; stroke: #ff7f0e"/>
     <use xlink:href="#md83a5ca263" x="771.143523" y="79.476771" style="fill: #ff7f0e; stroke: #ff7f0e"/>
     <use xlink:href="#md83a5ca263" x="786.339167" y="79.476771" style="fill: #ff7f0e; stroke: #ff7f0e"/>
     <use xlink:href="#md83a5ca263" x="801.534811" y="79.476771" style="fill: #ff7f0e; stroke: #ff7f0e"/>
     <use xlink:href="#md83a5ca263" x="816.730455" y="79.476771" style="fill: #ff7f0e; stroke: #ff7f0e"/>
    </g>
   </g>
   <g id="line2d_29">
    <path d="M 87.339545 380.718266 
L 102.535189 355.406779 
L 117.730833 331.360866 
L 132.926477 318.705123 
L 148.122121 293.393635 
L 163.317765 271.878871 
L 178.513409 250.364107 
L 193.709053 212.396876 
L 208.904697 190.882112 
L 224.100341 182.023092 
L 239.295985 154.180456 
L 254.491629 142.790287 
L 269.687273 99.760758 
L 315.274205 99.760758 
L 330.469848 99.760758 
L 345.665492 99.760758 
L 360.861136 99.760758 
L 376.05678 99.760758 
L 406.448068 99.760758 
L 421.643712 99.760758 
L 436.839356 99.760758 
L 452.035 99.760758 
L 467.230644 99.760758 
L 482.426288 80.777143 
L 497.621932 80.777143 
L 512.817576 80.777143 
L 528.01322 80.777143 
L 543.208864 80.777143 
L 558.404508 80.777143 
L 573.600152 80.777143 
L 588.795795 80.777143 
L 603.991439 80.777143 
L 619.187083 80.777143 
L 634.382727 80.777143 
L 649.578371 80.777143 
L 664.774015 80.777143 
L 679.969659 80.777143 
L 695.165303 80.777143 
L 710.360947 80.777143 
L 725.556591 80.777143 
L 740.752235 80.777143 
L 755.947879 80.777143 
L 771.143523 80.777143 
L 786.339167 80.777143 
L 801.534811 80.777143 
L 816.730455 80.777143 
" clip-path="url(#p173699f632)" style="fill: none; stroke: #2ca02c; stroke-width: 1.5; stroke-linecap: square"/>
    <defs>
     <path id="m999ea0fa3a" d="M 0 3.5 
C 0.928211 3.5 1.81853 3.131218 2.474874 2.474874 
C 3.131218 1.81853 3.5 0.928211 3.5 0 
C 3.5 -0.928211 3.131218 -1.81853 2.474874 -2.474874 
C 1.81853 -3.131218 0.928211 -3.5 0 -3.5 
C -0.928211 -3.5 -1.81853 -3.131218 -2.474874 -2.474874 
C -3.131218 -1.81853 -3.5 -0.928211 -3.5 0 
C -3.5 0.928211 -3.131218 1.81853 -2.474874 2.474874 
C -1.81853 3.131218 -0.928211 3.5 0 3.5 
z
" style="stroke: #2ca02c"/>
    </defs>
    <g clip-path="url(#p173699f632)">
     <use xlink:href="#m999ea0fa3a" x="87.339545" y="380.718266" style="fill: #2ca02c; stroke: #2ca02c"/>
     <use xlink:href="#m999ea0fa3a" x="102.535189" y="355.406779" style="fill: #2ca02c; stroke: #2ca02c"/>
     <use xlink:href="#m999ea0fa3a" x="117.730833" y="331.360866" style="fill: #2ca02c; stroke: #2ca02c"/>
     <use xlink:href="#m999ea0fa3a" x="132.926477" y="318.705123" style="fill: #2ca02c; stroke: #2ca02c"/>
     <use xlink:href="#m999ea0fa3a" x="148.122121" y="293.393635" style="fill: #2ca02c; stroke: #2ca02c"/>
     <use xlink:href="#m999ea0fa3a" x="163.317765" y="271.878871" style="fill: #2ca02c; stroke: #2ca02c"/>
     <use xlink:href="#m999ea0fa3a" x="178.513409" y="250.364107" style="fill: #2ca02c; stroke: #2ca02c"/>
     <use xlink:href="#m999ea0fa3a" x="193.709053" y="212.396876" style="fill: #2ca02c; stroke: #2ca02c"/>
     <use xlink:href="#m999ea0fa3a" x="208.904697" y="190.882112" style="fill: #2ca02c; stroke: #2ca02c"/>
     <use xlink:href="#m999ea0fa3a" x="224.100341" y="182.023092" style="fill: #2ca02c; stroke: #2ca02c"/>
     <use xlink:href="#m999ea0fa3a" x="239.295985" y="154.180456" style="fill: #2ca02c; stroke: #2ca02c"/>
     <use xlink:href="#m999ea0fa3a" x="254.491629" y="142.790287" style="fill: #2ca02c; stroke: #2ca02c"/>
     <use xlink:href="#m999ea0fa3a" x="269.687273" y="99.760758" style="fill: #2ca02c; stroke: #2ca02c"/>
     <use xlink:href="#m999ea0fa3a" x="315.274205" y="99.760758" style="fill: #2ca02c; stroke: #2ca02c"/>
     <use xlink:href="#m999ea0fa3a" x="330.469848" y="99.760758" style="fill: #2ca02c; stroke: #2ca02c"/>
     <use xlink:href="#m999ea0fa3a" x="345.665492" y="99.760758" style="fill: #2ca02c; stroke: #2ca02c"/>
     <use xlink:href="#m999ea0fa3a" x="360.861136" y="99.760758" style="fill: #2ca02c; stroke: #2ca02c"/>
     <use xlink:href="#m999ea0fa3a" x="376.05678" y="99.760758" style="fill: #2ca02c; stroke: #2ca02c"/>
     <use xlink:href="#m999ea0fa3a" x="406.448068" y="99.760758" style="fill: #2ca02c; stroke: #2ca02c"/>
     <use xlink:href="#m999ea0fa3a" x="421.643712" y="99.760758" style="fill: #2ca02c; stroke: #2ca02c"/>
     <use xlink:href="#m999ea0fa3a" x="436.839356" y="99.760758" style="fill: #2ca02c; stroke: #2ca02c"/>
     <use xlink:href="#m999ea0fa3a" x="452.035" y="99.760758" style="fill: #2ca02c; stroke: #2ca02c"/>
     <use xlink:href="#m999ea0fa3a" x="467.230644" y="99.760758" style="fill: #2ca02c; stroke: #2ca02c"/>
     <use xlink:href="#m999ea0fa3a" x="482.426288" y="80.777143" style="fill: #2ca02c; stroke: #2ca02c"/>
     <use xlink:href="#m999ea0fa3a" x="497.621932" y="80.777143" style="fill: #2ca02c; stroke: #2ca02c"/>
     <use xlink:href="#m999ea0fa3a" x="512.817576" y="80.777143" style="fill: #2ca02c; stroke: #2ca02c"/>
     <use xlink:href="#m999ea0fa3a" x="528.01322" y="80.777143" style="fill: #2ca02c; stroke: #2ca02c"/>
     <use xlink:href="#m999ea0fa3a" x="543.208864" y="80.777143" style="fill: #2ca02c; stroke: #2ca02c"/>
     <use xlink:href="#m999ea0fa3a" x="558.404508" y="80.777143" style="fill: #2ca02c; stroke: #2ca02c"/>
     <use xlink:href="#m999ea0fa3a" x="573.600152" y="80.777143" style="fill: #2ca02c; stroke: #2ca02c"/>
     <use xlink:href="#m999ea0fa3a" x="588.795795" y="80.777143" style="fill: #2ca02c; stroke: #2ca02c"/>
     <use xlink:href="#m999ea0fa3a" x="603.991439" y="80.777143" style="fill: #2ca02c; stroke: #2ca02c"/>
     <use xlink:href="#m999ea0fa3a" x="619.187083" y="80.777143" style="fill: #2ca02c; stroke: #2ca02c"/>
     <use xlink:href="#m999ea0fa3a" x="634.382727" y="80.777143" style="fill: #2ca02c; stroke: #2ca02c"/>
     <use xlink:href="#m999ea0fa3a" x="649.578371" y="80.777143" style="fill: #2ca02c; stroke: #2ca02c"/>
     <use xlink:href="#m999ea0fa3a" x="664.774015" y="80.777143" style="fill: #2ca02c; stroke: #2ca02c"/>
     <use xlink:href="#m999ea0fa3a" x="679.969659" y="80.777143" style="fill: #2ca02c; stroke: #2ca02c"/>
     <use xlink:href="#m999ea0fa3a" x="695.165303" y="80.777143" style="fill: #2ca02c; stroke: #2ca02c"/>
     <use xlink:href="#m999ea0fa3a" x="710.360947" y="80.777143" style="fill: #2ca02c; stroke: #2ca02c"/>
     <use xlink:href="#m999ea0fa3a" x="725.556591" y="80.777143" style="fill: #2ca02c; stroke: #2ca02c"/>
     <use xlink:href="#m999ea0fa3a" x="740.752235" y="80.777143" style="fill: #2ca02c; stroke: #2ca02c"/>
     <use xlink:href="#m999ea0fa3a" x="755.947879" y="80.777143" style="fill: #2ca02c; stroke: #2ca02c"/>
     <use xlink:href="#m999ea0fa3a" x="771.143523" y="80.777143" style="fill: #2ca02c; stroke: #2ca02c"/>
     <use xlink:href="#m999ea0fa3a" x="786.339167" y="80.777143" style="fill: #2ca02c; stroke: #2ca02c"/>
     <use xlink:href="#m999ea0fa3a" x="801.534811" y="80.777143" style="fill: #2ca02c; stroke: #2ca02c"/>
     <use xlink:href="#m999ea0fa3a" x="816.730455" y="80.777143" style="fill: #2ca02c; stroke: #2ca02c"/>
    </g>
   </g>
   <g id="line2d_30">
    <path d="M 87.339545 380.670052 
L 102.535189 349.030693 
L 117.730833 317.391334 
L 132.926477 292.079847 
L 148.122121 279.424104 
L 163.317765 238.925724 
L 178.513409 214.879811 
L 193.709053 202.224068 
L 208.904697 180.709304 
L 224.100341 169.319134 
L 239.295985 135.148627 
L 254.491629 121.227309 
L 269.687273 81.994504 
L 315.274205 81.994504 
L 330.469848 81.994504 
L 345.665492 81.994504 
L 360.861136 81.994504 
L 376.05678 81.994504 
L 406.448068 81.994504 
L 421.643712 81.994504 
L 436.839356 81.994504 
L 452.035 81.994504 
L 467.230644 81.994504 
L 482.426288 63.010888 
L 497.621932 63.010888 
L 512.817576 63.010888 
L 528.01322 63.010888 
L 543.208864 63.010888 
L 558.404508 44.027273 
L 573.600152 44.027273 
L 588.795795 44.027273 
L 603.991439 44.027273 
L 619.187083 44.027273 
L 634.382727 44.027273 
L 649.578371 44.027273 
L 664.774015 44.027273 
L 679.969659 44.027273 
L 695.165303 44.027273 
L 710.360947 44.027273 
L 725.556591 44.027273 
L 740.752235 44.027273 
L 755.947879 44.027273 
L 771.143523 44.027273 
L 786.339167 44.027273 
L 801.534811 44.027273 
L 816.730455 44.027273 
" clip-path="url(#p173699f632)" style="fill: none; stroke: #d62728; stroke-width: 1.5; stroke-linecap: square"/>
    <defs>
     <path id="mbfcf90f386" d="M 0 3.5 
C 0.928211 3.5 1.81853 3.131218 2.474874 2.474874 
C 3.131218 1.81853 3.5 0.928211 3.5 0 
C 3.5 -0.928211 3.131218 -1.81853 2.474874 -2.474874 
C 1.81853 -3.131218 0.928211 -3.5 0 -3.5 
C -0.928211 -3.5 -1.81853 -3.131218 -2.474874 -2.474874 
C -3.131218 -1.81853 -3.5 -0.928211 -3.5 0 
C -3.5 0.928211 -3.131218 1.81853 -2.474874 2.474874 
C -1.81853 3.131218 -0.928211 3.5 0 3.5 
z
" style="stroke: #d62728"/>
    </defs>
    <g clip-path="url(#p173699f632)">
     <use xlink:href="#mbfcf90f386" x="87.339545" y="380.670052" style="fill: #d62728; stroke: #d62728"/>
     <use xlink:href="#mbfcf90f386" x="102.535189" y="349.030693" style="fill: #d62728; stroke: #d62728"/>
     <use xlink:href="#mbfcf90f386" x="117.730833" y="317.391334" style="fill: #d62728; stroke: #d62728"/>
     <use xlink:href="#mbfcf90f386" x="132.926477" y="292.079847" style="fill: #d62728; stroke: #d62728"/>
     <use xlink:href="#mbfcf90f386" x="148.122121" y="279.424104" style="fill: #d62728; stroke: #d62728"/>
     <use xlink:href="#mbfcf90f386" x="163.317765" y="238.925724" style="fill: #d62728; stroke: #d62728"/>
     <use xlink:href="#mbfcf90f386" x="178.513409" y="214.879811" style="fill: #d62728; stroke: #d62728"/>
     <use xlink:href="#mbfcf90f386" x="193.709053" y="202.224068" style="fill: #d62728; stroke: #d62728"/>
     <use xlink:href="#mbfcf90f386" x="208.904697" y="180.709304" style="fill: #d62728; stroke: #d62728"/>
     <use xlink:href="#mbfcf90f386" x="224.100341" y="169.319134" style="fill: #d62728; stroke: #d62728"/>
     <use xlink:href="#mbfcf90f386" x="239.295985" y="135.148627" style="fill: #d62728; stroke: #d62728"/>
     <use xlink:href="#mbfcf90f386" x="254.491629" y="121.227309" style="fill: #d62728; stroke: #d62728"/>
     <use xlink:href="#mbfcf90f386" x="269.687273" y="81.994504" style="fill: #d62728; stroke: #d62728"/>
     <use xlink:href="#mbfcf90f386" x="315.274205" y="81.994504" style="fill: #d62728; stroke: #d62728"/>
     <use xlink:href="#mbfcf90f386" x="330.469848" y="81.994504" style="fill: #d62728; stroke: #d62728"/>
     <use xlink:href="#mbfcf90f386" x="345.665492" y="81.994504" style="fill: #d62728; stroke: #d62728"/>
     <use xlink:href="#mbfcf90f386" x="360.861136" y="81.994504" style="fill: #d62728; stroke: #d62728"/>
     <use xlink:href="#mbfcf90f386" x="376.05678" y="81.994504" style="fill: #d62728; stroke: #d62728"/>
     <use xlink:href="#mbfcf90f386" x="406.448068" y="81.994504" style="fill: #d62728; stroke: #d62728"/>
     <use xlink:href="#mbfcf90f386" x="421.643712" y="81.994504" style="fill: #d62728; stroke: #d62728"/>
     <use xlink:href="#mbfcf90f386" x="436.839356" y="81.994504" style="fill: #d62728; stroke: #d62728"/>
     <use xlink:href="#mbfcf90f386" x="452.035" y="81.994504" style="fill: #d62728; stroke: #d62728"/>
     <use xlink:href="#mbfcf90f386" x="467.230644" y="81.994504" style="fill: #d62728; stroke: #d62728"/>
     <use xlink:href="#mbfcf90f386" x="482.426288" y="63.010888" style="fill: #d62728; stroke: #d62728"/>
     <use xlink:href="#mbfcf90f386" x="497.621932" y="63.010888" style="fill: #d62728; stroke: #d62728"/>
     <use xlink:href="#mbfcf90f386" x="512.817576" y="63.010888" style="fill: #d62728; stroke: #d62728"/>
     <use xlink:href="#mbfcf90f386" x="528.01322" y="63.010888" style="fill: #d62728; stroke: #d62728"/>
     <use xlink:href="#mbfcf90f386" x="543.208864" y="63.010888" style="fill: #d62728; stroke: #d62728"/>
     <use xlink:href="#mbfcf90f386" x="558.404508" y="44.027273" style="fill: #d62728; stroke: #d62728"/>
     <use xlink:href="#mbfcf90f386" x="573.600152" y="44.027273" style="fill: #d62728; stroke: #d62728"/>
     <use xlink:href="#mbfcf90f386" x="588.795795" y="44.027273" style="fill: #d62728; stroke: #d62728"/>
     <use xlink:href="#mbfcf90f386" x="603.991439" y="44.027273" style="fill: #d62728; stroke: #d62728"/>
     <use xlink:href="#mbfcf90f386" x="619.187083" y="44.027273" style="fill: #d62728; stroke: #d62728"/>
     <use xlink:href="#mbfcf90f386" x="634.382727" y="44.027273" style="fill: #d62728; stroke: #d62728"/>
     <use xlink:href="#mbfcf90f386" x="649.578371" y="44.027273" style="fill: #d62728; stroke: #d62728"/>
     <use xlink:href="#mbfcf90f386" x="664.774015" y="44.027273" style="fill: #d62728; stroke: #d62728"/>
     <use xlink:href="#mbfcf90f386" x="679.969659" y="44.027273" style="fill: #d62728; stroke: #d62728"/>
     <use xlink:href="#mbfcf90f386" x="695.165303" y="44.027273" style="fill: #d62728; stroke: #d62728"/>
     <use xlink:href="#mbfcf90f386" x="710.360947" y="44.027273" style="fill: #d62728; stroke: #d62728"/>
     <use xlink:href="#mbfcf90f386" x="725.556591" y="44.027273" style="fill: #d62728; stroke: #d62728"/>
     <use xlink:href="#mbfcf90f386" x="740.752235" y="44.027273" style="fill: #d62728; stroke: #d62728"/>
     <use xlink:href="#mbfcf90f386" x="755.947879" y="44.027273" style="fill: #d62728; stroke: #d62728"/>
     <use xlink:href="#mbfcf90f386" x="771.143523" y="44.027273" style="fill: #d62728; stroke: #d62728"/>
     <use xlink:href="#mbfcf90f386" x="786.339167" y="44.027273" style="fill: #d62728; stroke: #d62728"/>
     <use xlink:href="#mbfcf90f386" x="801.534811" y="44.027273" style="fill: #d62728; stroke: #d62728"/>
     <use xlink:href="#mbfcf90f386" x="816.730455" y="44.027273" style="fill: #d62728; stroke: #d62728"/>
    </g>
   </g>
   <g id="line2d_31">
    <path d="M 87.339545 386.972727 
L 102.535189 361.66124 
L 117.730833 336.349753 
L 132.926477 323.694009 
L 148.122121 304.710394 
L 163.317765 283.19563 
L 178.513409 264.212014 
L 193.709053 251.556271 
L 208.904697 207.261168 
L 224.100341 200.933296 
L 239.295985 166.762789 
L 254.491629 155.372619 
L 269.687273 95.890624 
L 315.274205 95.890624 
L 330.469848 95.890624 
L 345.665492 95.890624 
L 360.861136 95.890624 
L 376.05678 95.890624 
L 406.448068 95.890624 
L 421.643712 95.890624 
L 436.839356 95.890624 
L 452.035 95.890624 
L 467.230644 95.890624 
L 482.426288 95.890624 
L 497.621932 95.890624 
L 512.817576 95.890624 
L 528.01322 95.890624 
L 543.208864 95.890624 
L 558.404508 64.251265 
L 573.600152 64.251265 
L 588.795795 64.251265 
L 603.991439 64.251265 
L 619.187083 64.251265 
L 634.382727 64.251265 
L 649.578371 64.251265 
L 664.774015 64.251265 
L 679.969659 64.251265 
L 695.165303 64.251265 
L 710.360947 64.251265 
L 725.556591 64.251265 
L 740.752235 64.251265 
L 755.947879 64.251265 
L 771.143523 64.251265 
L 786.339167 64.251265 
L 801.534811 64.251265 
L 816.730455 64.251265 
" clip-path="url(#p173699f632)" style="fill: none; stroke: #9467bd; stroke-width: 1.5; stroke-linecap: square"/>
    <defs>
     <path id="m760767d875" d="M 0 3.5 
C 0.928211 3.5 1.81853 3.131218 2.474874 2.474874 
C 3.131218 1.81853 3.5 0.928211 3.5 0 
C 3.5 -0.928211 3.131218 -1.81853 2.474874 -2.474874 
C 1.81853 -3.131218 0.928211 -3.5 0 -3.5 
C -0.928211 -3.5 -1.81853 -3.131218 -2.474874 -2.474874 
C -3.131218 -1.81853 -3.5 -0.928211 -3.5 0 
C -3.5 0.928211 -3.131218 1.81853 -2.474874 2.474874 
C -1.81853 3.131218 -0.928211 3.5 0 3.5 
z
" style="stroke: #9467bd"/>
    </defs>
    <g clip-path="url(#p173699f632)">
     <use xlink:href="#m760767d875" x="87.339545" y="386.972727" style="fill: #9467bd; stroke: #9467bd"/>
     <use xlink:href="#m760767d875" x="102.535189" y="361.66124" style="fill: #9467bd; stroke: #9467bd"/>
     <use xlink:href="#m760767d875" x="117.730833" y="336.349753" style="fill: #9467bd; stroke: #9467bd"/>
     <use xlink:href="#m760767d875" x="132.926477" y="323.694009" style="fill: #9467bd; stroke: #9467bd"/>
     <use xlink:href="#m760767d875" x="148.122121" y="304.710394" style="fill: #9467bd; stroke: #9467bd"/>
     <use xlink:href="#m760767d875" x="163.317765" y="283.19563" style="fill: #9467bd; stroke: #9467bd"/>
     <use xlink:href="#m760767d875" x="178.513409" y="264.212014" style="fill: #9467bd; stroke: #9467bd"/>
     <use xlink:href="#m760767d875" x="193.709053" y="251.556271" style="fill: #9467bd; stroke: #9467bd"/>
     <use xlink:href="#m760767d875" x="208.904697" y="207.261168" style="fill: #9467bd; stroke: #9467bd"/>
     <use xlink:href="#m760767d875" x="224.100341" y="200.933296" style="fill: #9467bd; stroke: #9467bd"/>
     <use xlink:href="#m760767d875" x="239.295985" y="166.762789" style="fill: #9467bd; stroke: #9467bd"/>
     <use xlink:href="#m760767d875" x="254.491629" y="155.372619" style="fill: #9467bd; stroke: #9467bd"/>
     <use xlink:href="#m760767d875" x="269.687273" y="95.890624" style="fill: #9467bd; stroke: #9467bd"/>
     <use xlink:href="#m760767d875" x="315.274205" y="95.890624" style="fill: #9467bd; stroke: #9467bd"/>
     <use xlink:href="#m760767d875" x="330.469848" y="95.890624" style="fill: #9467bd; stroke: #9467bd"/>
     <use xlink:href="#m760767d875" x="345.665492" y="95.890624" style="fill: #9467bd; stroke: #9467bd"/>
     <use xlink:href="#m760767d875" x="360.861136" y="95.890624" style="fill: #9467bd; stroke: #9467bd"/>
     <use xlink:href="#m760767d875" x="376.05678" y="95.890624" style="fill: #9467bd; stroke: #9467bd"/>
     <use xlink:href="#m760767d875" x="406.448068" y="95.890624" style="fill: #9467bd; stroke: #9467bd"/>
     <use xlink:href="#m760767d875" x="421.643712" y="95.890624" style="fill: #9467bd; stroke: #9467bd"/>
     <use xlink:href="#m760767d875" x="436.839356" y="95.890624" style="fill: #9467bd; stroke: #9467bd"/>
     <use xlink:href="#m760767d875" x="452.035" y="95.890624" style="fill: #9467bd; stroke: #9467bd"/>
     <use xlink:href="#m760767d875" x="467.230644" y="95.890624" style="fill: #9467bd; stroke: #9467bd"/>
     <use xlink:href="#m760767d875" x="482.426288" y="95.890624" style="fill: #9467bd; stroke: #9467bd"/>
     <use xlink:href="#m760767d875" x="497.621932" y="95.890624" style="fill: #9467bd; stroke: #9467bd"/>
     <use xlink:href="#m760767d875" x="512.817576" y="95.890624" style="fill: #9467bd; stroke: #9467bd"/>
     <use xlink:href="#m760767d875" x="528.01322" y="95.890624" style="fill: #9467bd; stroke: #9467bd"/>
     <use xlink:href="#m760767d875" x="543.208864" y="95.890624" style="fill: #9467bd; stroke: #9467bd"/>
     <use xlink:href="#m760767d875" x="558.404508" y="64.251265" style="fill: #9467bd; stroke: #9467bd"/>
     <use xlink:href="#m760767d875" x="573.600152" y="64.251265" style="fill: #9467bd; stroke: #9467bd"/>
     <use xlink:href="#m760767d875" x="588.795795" y="64.251265" style="fill: #9467bd; stroke: #9467bd"/>
     <use xlink:href="#m760767d875" x="603.991439" y="64.251265" style="fill: #9467bd; stroke: #9467bd"/>
     <use xlink:href="#m760767d875" x="619.187083" y="64.251265" style="fill: #9467bd; stroke: #9467bd"/>
     <use xlink:href="#m760767d875" x="634.382727" y="64.251265" style="fill: #9467bd; stroke: #9467bd"/>
     <use xlink:href="#m760767d875" x="649.578371" y="64.251265" style="fill: #9467bd; stroke: #9467bd"/>
     <use xlink:href="#m760767d875" x="664.774015" y="64.251265" style="fill: #9467bd; stroke: #9467bd"/>
     <use xlink:href="#m760767d875" x="679.969659" y="64.251265" style="fill: #9467bd; stroke: #9467bd"/>
     <use xlink:href="#m760767d875" x="695.165303" y="64.251265" style="fill: #9467bd; stroke: #9467bd"/>
     <use xlink:href="#m760767d875" x="710.360947" y="64.251265" style="fill: #9467bd; stroke: #9467bd"/>
     <use xlink:href="#m760767d875" x="725.556591" y="64.251265" style="fill: #9467bd; stroke: #9467bd"/>
     <use xlink:href="#m760767d875" x="740.752235" y="64.251265" style="fill: #9467bd; stroke: #9467bd"/>
     <use xlink:href="#m760767d875" x="755.947879" y="64.251265" style="fill: #9467bd; stroke: #9467bd"/>
     <use xlink:href="#m760767d875" x="771.143523" y="64.251265" style="fill: #9467bd; stroke: #9467bd"/>
     <use xlink:href="#m760767d875" x="786.339167" y="64.251265" style="fill: #9467bd; stroke: #9467bd"/>
     <use xlink:href="#m760767d875" x="801.534811" y="64.251265" style="fill: #9467bd; stroke: #9467bd"/>
     <use xlink:href="#m760767d875" x="816.730455" y="64.251265" style="fill: #9467bd; stroke: #9467bd"/>
    </g>
   </g>
   <g id="line2d_32">
    <path d="M 87.339545 380.660604 
L 102.535189 365.473711 
L 117.730833 354.083542 
L 132.926477 328.772055 
L 148.122121 309.788439 
L 163.317765 304.726142 
L 178.513409 295.867121 
L 193.709053 280.680229 
L 208.904697 236.385126 
L 224.100341 204.745767 
L 239.295985 166.778537 
L 254.491629 142.732624 
L 269.687273 93.375224 
L 315.274205 93.375224 
L 330.469848 93.375224 
L 345.665492 93.375224 
L 360.861136 93.375224 
L 376.05678 93.375224 
L 406.448068 93.375224 
L 421.643712 93.375224 
L 436.839356 93.375224 
L 452.035 93.375224 
L 467.230644 93.375224 
L 482.426288 93.375224 
L 497.621932 93.375224 
L 512.817576 93.375224 
L 528.01322 93.375224 
L 543.208864 93.375224 
L 558.404508 61.735865 
L 573.600152 61.735865 
L 588.795795 61.735865 
L 603.991439 61.735865 
L 619.187083 61.735865 
L 634.382727 61.735865 
L 649.578371 61.735865 
L 664.774015 61.735865 
L 679.969659 61.735865 
L 695.165303 61.735865 
L 710.360947 61.735865 
L 725.556591 61.735865 
L 740.752235 61.735865 
L 755.947879 61.735865 
L 771.143523 61.735865 
L 786.339167 61.735865 
L 801.534811 61.735865 
L 816.730455 61.735865 
" clip-path="url(#p173699f632)" style="fill: none; stroke: #8c564b; stroke-width: 1.5; stroke-linecap: square"/>
    <defs>
     <path id="ma144e0a16d" d="M 0 3.5 
C 0.928211 3.5 1.81853 3.131218 2.474874 2.474874 
C 3.131218 1.81853 3.5 0.928211 3.5 0 
C 3.5 -0.928211 3.131218 -1.81853 2.474874 -2.474874 
C 1.81853 -3.131218 0.928211 -3.5 0 -3.5 
C -0.928211 -3.5 -1.81853 -3.131218 -2.474874 -2.474874 
C -3.131218 -1.81853 -3.5 -0.928211 -3.5 0 
C -3.5 0.928211 -3.131218 1.81853 -2.474874 2.474874 
C -1.81853 3.131218 -0.928211 3.5 0 3.5 
z
" style="stroke: #8c564b"/>
    </defs>
    <g clip-path="url(#p173699f632)">
     <use xlink:href="#ma144e0a16d" x="87.339545" y="380.660604" style="fill: #8c564b; stroke: #8c564b"/>
     <use xlink:href="#ma144e0a16d" x="102.535189" y="365.473711" style="fill: #8c564b; stroke: #8c564b"/>
     <use xlink:href="#ma144e0a16d" x="117.730833" y="354.083542" style="fill: #8c564b; stroke: #8c564b"/>
     <use xlink:href="#ma144e0a16d" x="132.926477" y="328.772055" style="fill: #8c564b; stroke: #8c564b"/>
     <use xlink:href="#ma144e0a16d" x="148.122121" y="309.788439" style="fill: #8c564b; stroke: #8c564b"/>
     <use xlink:href="#ma144e0a16d" x="163.317765" y="304.726142" style="fill: #8c564b; stroke: #8c564b"/>
     <use xlink:href="#ma144e0a16d" x="178.513409" y="295.867121" style="fill: #8c564b; stroke: #8c564b"/>
     <use xlink:href="#ma144e0a16d" x="193.709053" y="280.680229" style="fill: #8c564b; stroke: #8c564b"/>
     <use xlink:href="#ma144e0a16d" x="208.904697" y="236.385126" style="fill: #8c564b; stroke: #8c564b"/>
     <use xlink:href="#ma144e0a16d" x="224.100341" y="204.745767" style="fill: #8c564b; stroke: #8c564b"/>
     <use xlink:href="#ma144e0a16d" x="239.295985" y="166.778537" style="fill: #8c564b; stroke: #8c564b"/>
     <use xlink:href="#ma144e0a16d" x="254.491629" y="142.732624" style="fill: #8c564b; stroke: #8c564b"/>
     <use xlink:href="#ma144e0a16d" x="269.687273" y="93.375224" style="fill: #8c564b; stroke: #8c564b"/>
     <use xlink:href="#ma144e0a16d" x="315.274205" y="93.375224" style="fill: #8c564b; stroke: #8c564b"/>
     <use xlink:href="#ma144e0a16d" x="330.469848" y="93.375224" style="fill: #8c564b; stroke: #8c564b"/>
     <use xlink:href="#ma144e0a16d" x="345.665492" y="93.375224" style="fill: #8c564b; stroke: #8c564b"/>
     <use xlink:href="#ma144e0a16d" x="360.861136" y="93.375224" style="fill: #8c564b; stroke: #8c564b"/>
     <use xlink:href="#ma144e0a16d" x="376.05678" y="93.375224" style="fill: #8c564b; stroke: #8c564b"/>
     <use xlink:href="#ma144e0a16d" x="406.448068" y="93.375224" style="fill: #8c564b; stroke: #8c564b"/>
     <use xlink:href="#ma144e0a16d" x="421.643712" y="93.375224" style="fill: #8c564b; stroke: #8c564b"/>
     <use xlink:href="#ma144e0a16d" x="436.839356" y="93.375224" style="fill: #8c564b; stroke: #8c564b"/>
     <use xlink:href="#ma144e0a16d" x="452.035" y="93.375224" style="fill: #8c564b; stroke: #8c564b"/>
     <use xlink:href="#ma144e0a16d" x="467.230644" y="93.375224" style="fill: #8c564b; stroke: #8c564b"/>
     <use xlink:href="#ma144e0a16d" x="482.426288" y="93.375224" style="fill: #8c564b; stroke: #8c564b"/>
     <use xlink:href="#ma144e0a16d" x="497.621932" y="93.375224" style="fill: #8c564b; stroke: #8c564b"/>
     <use xlink:href="#ma144e0a16d" x="512.817576" y="93.375224" style="fill: #8c564b; stroke: #8c564b"/>
     <use xlink:href="#ma144e0a16d" x="528.01322" y="93.375224" style="fill: #8c564b; stroke: #8c564b"/>
     <use xlink:href="#ma144e0a16d" x="543.208864" y="93.375224" style="fill: #8c564b; stroke: #8c564b"/>
     <use xlink:href="#ma144e0a16d" x="558.404508" y="61.735865" style="fill: #8c564b; stroke: #8c564b"/>
     <use xlink:href="#ma144e0a16d" x="573.600152" y="61.735865" style="fill: #8c564b; stroke: #8c564b"/>
     <use xlink:href="#ma144e0a16d" x="588.795795" y="61.735865" style="fill: #8c564b; stroke: #8c564b"/>
     <use xlink:href="#ma144e0a16d" x="603.991439" y="61.735865" style="fill: #8c564b; stroke: #8c564b"/>
     <use xlink:href="#ma144e0a16d" x="619.187083" y="61.735865" style="fill: #8c564b; stroke: #8c564b"/>
     <use xlink:href="#ma144e0a16d" x="634.382727" y="61.735865" style="fill: #8c564b; stroke: #8c564b"/>
     <use xlink:href="#ma144e0a16d" x="649.578371" y="61.735865" style="fill: #8c564b; stroke: #8c564b"/>
     <use xlink:href="#ma144e0a16d" x="664.774015" y="61.735865" style="fill: #8c564b; stroke: #8c564b"/>
     <use xlink:href="#ma144e0a16d" x="679.969659" y="61.735865" style="fill: #8c564b; stroke: #8c564b"/>
     <use xlink:href="#ma144e0a16d" x="695.165303" y="61.735865" style="fill: #8c564b; stroke: #8c564b"/>
     <use xlink:href="#ma144e0a16d" x="710.360947" y="61.735865" style="fill: #8c564b; stroke: #8c564b"/>
     <use xlink:href="#ma144e0a16d" x="725.556591" y="61.735865" style="fill: #8c564b; stroke: #8c564b"/>
     <use xlink:href="#ma144e0a16d" x="740.752235" y="61.735865" style="fill: #8c564b; stroke: #8c564b"/>
     <use xlink:href="#ma144e0a16d" x="755.947879" y="61.735865" style="fill: #8c564b; stroke: #8c564b"/>
     <use xlink:href="#ma144e0a16d" x="771.143523" y="61.735865" style="fill: #8c564b; stroke: #8c564b"/>
     <use xlink:href="#ma144e0a16d" x="786.339167" y="61.735865" style="fill: #8c564b; stroke: #8c564b"/>
     <use xlink:href="#ma144e0a16d" x="801.534811" y="61.735865" style="fill: #8c564b; stroke: #8c564b"/>
     <use xlink:href="#ma144e0a16d" x="816.730455" y="61.735865" style="fill: #8c564b; stroke: #8c564b"/>
    </g>
   </g>
   <g id="patch_3">
    <path d="M 50.87 404.12 
L 50.87 26.88 
" style="fill: none; stroke: #000000; stroke-width: 0.8; stroke-linejoin: miter; stroke-linecap: square"/>
   </g>
   <g id="patch_4">
    <path d="M 853.2 404.12 
L 853.2 26.88 
" style="fill: none; stroke: #000000; stroke-width: 0.8; stroke-linejoin: miter; stroke-linecap: square"/>
   </g>
   <g id="patch_5">
    <path d="M 50.87 404.12 
L 853.2 404.12 
" style="fill: none; stroke: #000000; stroke-width: 0.8; stroke-linejoin: miter; stroke-linecap: square"/>
   </g>
   <g id="patch_6">
    <path d="M 50.87 26.88 
L 853.2 26.88 
" style="fill: none; stroke: #000000; stroke-width: 0.8; stroke-linejoin: miter; stroke-linecap: square"/>
   </g>
   <g id="text_15">
    <!-- Standings -->
    <g transform="translate(422.18125 20.88) scale(0.12 -0.12)">
     <defs>
      <path id="DejaVuSans-74" d="M 1172 4494 
L 1172 3500 
L 2356 3500 
L 2356 3053 
L 1172 3053 
L 1172 1153 
Q 1172 725 1289 603 
Q 1406 481 1766 481 
L 2356 481 
L 2356 0 
L 1766 0 
Q 1100 0 847 248 
Q 594 497 594 1153 
L 594 3053 
L 172 3053 
L 172 3500 
L 594 3500 
L 594 4494 
L 1172 4494 
z
" transform="scale(0.015625)"/>
      <path id="DejaVuSans-61" d="M 2194 1759 
Q 1497 1759 1228 1600 
Q 959 1441 959 1056 
Q 959 750 1161 570 
Q 1363 391 1709 391 
Q 2188 391 2477 730 
Q 2766 1069 2766 1631 
L 2766 1759 
L 2194 1759 
z
M 3341 1997 
L 3341 0 
L 2766 0 
L 2766 531 
Q 2569 213 2275 61 
Q 1981 -91 1556 -91 
Q 1019 -91 701 211 
Q 384 513 384 1019 
Q 384 1609 779 1909 
Q 1175 2209 1959 2209 
L 2766 2209 
L 2766 2266 
Q 2766 2663 2505 2880 
Q 2244 3097 1772 3097 
Q 1472 3097 1187 3025 
Q 903 2953 641 2809 
L 641 3341 
Q 956 3463 1253 3523 
Q 1550 3584 1831 3584 
Q 2591 3584 2966 3190 
Q 3341 2797 3341 1997 
z
" transform="scale(0.015625)"/>
      <path id="DejaVuSans-6e" d="M 3513 2113 
L 3513 0 
L 2938 0 
L 2938 2094 
Q 2938 2591 2744 2837 
Q 2550 3084 2163 3084 
Q 1697 3084 1428 2787 
Q 1159 2491 1159 1978 
L 1159 0 
L 581 0 
L 581 3500 
L 1159 3500 
L 1159 2956 
Q 1366 3272 1645 3428 
Q 1925 3584 2291 3584 
Q 2894 3584 3203 3211 
Q 3513 2838 3513 2113 
z
" transform="scale(0.015625)"/>
      <path id="DejaVuSans-64" d="M 2906 2969 
L 2906 4863 
L 3481 4863 
L 3481 0 
L 2906 0 
L 2906 525 
Q 2725 213 2448 61 
Q 2172 -91 1784 -91 
Q 1150 -91 751 415 
Q 353 922 353 1747 
Q 353 2572 751 3078 
Q 1150 3584 1784 3584 
Q 2172 3584 2448 3432 
Q 2725 3281 2906 2969 
z
M 947 1747 
Q 947 1113 1208 752 
Q 1469 391 1925 391 
Q 2381 391 2643 752 
Q 2906 1113 2906 1747 
Q 2906 2381 2643 2742 
Q 2381 3103 1925 3103 
Q 1469 3103 1208 2742 
Q 947 2381 947 1747 
z
" transform="scale(0.015625)"/>
      <path id="DejaVuSans-69" d="M 603 3500 
L 1178 3500 
L 1178 0 
L 603 0 
L 603 3500 
z
M 603 4863 
L 1178 4863 
L 1178 4134 
L 603 4134 
L 603 4863 
z
" transform="scale(0.015625)"/>
      <path id="DejaVuSans-67" d="M 2906 1791 
Q 2906 2416 2648 2759 
Q 2391 3103 1925 3103 
Q 1463 3103 1205 2759 
Q 947 2416 947 1791 
Q 947 1169 1205 825 
Q 1463 481 1925 481 
Q 2391 481 2648 825 
Q 2906 1169 2906 1791 
z
M 3481 434 
Q 3481 -459 3084 -895 
Q 2688 -1331 1869 -1331 
Q 1566 -1331 1297 -1286 
Q 1028 -1241 775 -1147 
L 775 -588 
Q 1028 -725 1275 -790 
Q 1522 -856 1778 -856 
Q 2344 -856 2625 -561 
Q 2906 -266 2906 331 
L 2906 616 
Q 2728 306 2450 153 
Q 2172 0 1784 0 
Q 1141 0 747 490 
Q 353 981 353 1791 
Q 353 2603 747 3093 
Q 1141 3584 1784 3584 
Q 2172 3584 2450 3431 
Q 2728 3278 2906 2969 
L 2906 3500 
L 3481 3500 
L 3481 434 
z
" transform="scale(0.015625)"/>
      <path id="DejaVuSans-73" d="M 2834 3397 
L 2834 2853 
Q 2591 2978 2328 3040 
Q 2066 3103 1784 3103 
Q 1356 3103 1142 2972 
Q 928 2841 928 2578 
Q 928 2378 1081 2264 
Q 1234 2150 1697 2047 
L 1894 2003 
Q 2506 1872 2764 1633 
Q 3022 1394 3022 966 
Q 3022 478 2636 193 
Q 2250 -91 1575 -91 
Q 1294 -91 989 -36 
Q 684 19 347 128 
L 347 722 
Q 666 556 975 473 
Q 1284 391 1588 391 
Q 1994 391 2212 530 
Q 2431 669 2431 922 
Q 2431 1156 2273 1281 
Q 2116 1406 1581 1522 
L 1381 1569 
Q 847 1681 609 1914 
Q 372 2147 372 2553 
Q 372 3047 722 3315 
Q 1072 3584 1716 3584 
Q 2034 3584 2315 3537 
Q 2597 3491 2834 3397 
z
" transform="scale(0.015625)"/>
     </defs>
     <use xlink:href="#DejaVuSans-53"/>
     <use xlink:href="#DejaVuSans-74" x="63.476562"/>
     <use xlink:href="#DejaVuSans-61" x="102.685547"/>
     <use xlink:href="#DejaVuSans-6e" x="163.964844"/>
     <use xlink:href="#DejaVuSans-64" x="227.34375"/>
     <use xlink:href="#DejaVuSans-69" x="290.820312"/>
     <use xlink:href="#DejaVuSans-6e" x="318.603516"/>
     <use xlink:href="#DejaVuSans-67" x="381.982422"/>
     <use xlink:href="#DejaVuSans-73" x="445.458984"/>
    </g>
   </g>
   <g id="legend_1">
    <g id="patch_7">
     <path d="M 57.87 122.94875 
L 143.37 122.94875 
Q 145.37 122.94875 145.37 120.94875 
L 145.37 33.88 
Q 145.37 31.88 143.37 31.88 
L 57.87 31.88 
Q 55.87 31.88 55.87 33.88 
L 55.87 120.94875 
Q 55.87 122.94875 57.87 122.94875 
z
" style="fill: #ffffff; opacity: 0.8; stroke: #cccccc; stroke-linejoin: miter"/>
    </g>
    <g id="line2d_33">
     <path d="M 59.87 39.978438 
L 69.87 39.978438 
L 79.87 39.978438 
" style="fill: none; stroke: #1f77b4; stroke-width: 1.5; stroke-linecap: square"/>
     <g>
      <use xlink:href="#mbc9ee9cc74" x="69.87" y="39.978438" style="fill: #1f77b4; stroke: #1f77b4"/>
     </g>
    </g>
    <g id="text_16">
     <!-- Matias BN -->
     <g transform="translate(87.87 43.478438) scale(0.1 -0.1)">
      <defs>
       <path id="DejaVuSans-4d" d="M 628 4666 
L 1569 4666 
L 2759 1491 
L 3956 4666 
L 4897 4666 
L 4897 0 
L 4281 0 
L 4281 4097 
L 3078 897 
L 2444 897 
L 1241 4097 
L 1241 0 
L 628 0 
L 628 4666 
z
" transform="scale(0.015625)"/>
       <path id="DejaVuSans-20" transform="scale(0.015625)"/>
       <path id="DejaVuSans-42" d="M 1259 2228 
L 1259 519 
L 2272 519 
Q 2781 519 3026 730 
Q 3272 941 3272 1375 
Q 3272 1813 3026 2020 
Q 2781 2228 2272 2228 
L 1259 2228 
z
M 1259 4147 
L 1259 2741 
L 2194 2741 
Q 2656 2741 2882 2914 
Q 3109 3088 3109 3444 
Q 3109 3797 2882 3972 
Q 2656 4147 2194 4147 
L 1259 4147 
z
M 628 4666 
L 2241 4666 
Q 2963 4666 3353 4366 
Q 3744 4066 3744 3513 
Q 3744 3084 3544 2831 
Q 3344 2578 2956 2516 
Q 3422 2416 3680 2098 
Q 3938 1781 3938 1306 
Q 3938 681 3513 340 
Q 3088 0 2303 0 
L 628 0 
L 628 4666 
z
" transform="scale(0.015625)"/>
       <path id="DejaVuSans-4e" d="M 628 4666 
L 1478 4666 
L 3547 763 
L 3547 4666 
L 4159 4666 
L 4159 0 
L 3309 0 
L 1241 3903 
L 1241 0 
L 628 0 
L 628 4666 
z
" transform="scale(0.015625)"/>
      </defs>
      <use xlink:href="#DejaVuSans-4d"/>
      <use xlink:href="#DejaVuSans-61" x="86.279297"/>
      <use xlink:href="#DejaVuSans-74" x="147.558594"/>
      <use xlink:href="#DejaVuSans-69" x="186.767578"/>
      <use xlink:href="#DejaVuSans-61" x="214.550781"/>
      <use xlink:href="#DejaVuSans-73" x="275.830078"/>
      <use xlink:href="#DejaVuSans-20" x="327.929688"/>
      <use xlink:href="#DejaVuSans-42" x="359.716797"/>
      <use xlink:href="#DejaVuSans-4e" x="428.320312"/>
     </g>
    </g>
    <g id="line2d_34">
     <path d="M 59.87 54.656563 
L 69.87 54.656563 
L 79.87 54.656563 
" style="fill: none; stroke: #ff7f0e; stroke-width: 1.5; stroke-linecap: square"/>
     <g>
      <use xlink:href="#md83a5ca263" x="69.87" y="54.656563" style="fill: #ff7f0e; stroke: #ff7f0e"/>
     </g>
    </g>
    <g id="text_17">
     <!-- Mattias Ra -->
     <g transform="translate(87.87 58.156563) scale(0.1 -0.1)">
      <defs>
       <path id="DejaVuSans-52" d="M 2841 2188 
Q 3044 2119 3236 1894 
Q 3428 1669 3622 1275 
L 4263 0 
L 3584 0 
L 2988 1197 
Q 2756 1666 2539 1819 
Q 2322 1972 1947 1972 
L 1259 1972 
L 1259 0 
L 628 0 
L 628 4666 
L 2053 4666 
Q 2853 4666 3247 4331 
Q 3641 3997 3641 3322 
Q 3641 2881 3436 2590 
Q 3231 2300 2841 2188 
z
M 1259 4147 
L 1259 2491 
L 2053 2491 
Q 2509 2491 2742 2702 
Q 2975 2913 2975 3322 
Q 2975 3731 2742 3939 
Q 2509 4147 2053 4147 
L 1259 4147 
z
" transform="scale(0.015625)"/>
      </defs>
      <use xlink:href="#DejaVuSans-4d"/>
      <use xlink:href="#DejaVuSans-61" x="86.279297"/>
      <use xlink:href="#DejaVuSans-74" x="147.558594"/>
      <use xlink:href="#DejaVuSans-74" x="186.767578"/>
      <use xlink:href="#DejaVuSans-69" x="225.976562"/>
      <use xlink:href="#DejaVuSans-61" x="253.759766"/>
      <use xlink:href="#DejaVuSans-73" x="315.039062"/>
      <use xlink:href="#DejaVuSans-20" x="367.138672"/>
      <use xlink:href="#DejaVuSans-52" x="398.925781"/>
      <use xlink:href="#DejaVuSans-61" x="466.158203"/>
     </g>
    </g>
    <g id="line2d_35">
     <path d="M 59.87 69.334688 
L 69.87 69.334688 
L 79.87 69.334688 
" style="fill: none; stroke: #2ca02c; stroke-width: 1.5; stroke-linecap: square"/>
     <g>
      <use xlink:href="#m999ea0fa3a" x="69.87" y="69.334688" style="fill: #2ca02c; stroke: #2ca02c"/>
     </g>
    </g>
    <g id="text_18">
     <!-- Simon Bo -->
     <g transform="translate(87.87 72.834688) scale(0.1 -0.1)">
      <defs>
       <path id="DejaVuSans-6d" d="M 3328 2828 
Q 3544 3216 3844 3400 
Q 4144 3584 4550 3584 
Q 5097 3584 5394 3201 
Q 5691 2819 5691 2113 
L 5691 0 
L 5113 0 
L 5113 2094 
Q 5113 2597 4934 2840 
Q 4756 3084 4391 3084 
Q 3944 3084 3684 2787 
Q 3425 2491 3425 1978 
L 3425 0 
L 2847 0 
L 2847 2094 
Q 2847 2600 2669 2842 
Q 2491 3084 2119 3084 
Q 1678 3084 1418 2786 
Q 1159 2488 1159 1978 
L 1159 0 
L 581 0 
L 581 3500 
L 1159 3500 
L 1159 2956 
Q 1356 3278 1631 3431 
Q 1906 3584 2284 3584 
Q 2666 3584 2933 3390 
Q 3200 3197 3328 2828 
z
" transform="scale(0.015625)"/>
      </defs>
      <use xlink:href="#DejaVuSans-53"/>
      <use xlink:href="#DejaVuSans-69" x="63.476562"/>
      <use xlink:href="#DejaVuSans-6d" x="91.259766"/>
      <use xlink:href="#DejaVuSans-6f" x="188.671875"/>
      <use xlink:href="#DejaVuSans-6e" x="249.853516"/>
      <use xlink:href="#DejaVuSans-20" x="313.232422"/>
      <use xlink:href="#DejaVuSans-42" x="345.019531"/>
      <use xlink:href="#DejaVuSans-6f" x="413.623047"/>
     </g>
    </g>
    <g id="line2d_36">
     <path d="M 59.87 84.012813 
L 69.87 84.012813 
L 79.87 84.012813 
" style="fill: none; stroke: #d62728; stroke-width: 1.5; stroke-linecap: square"/>
     <g>
      <use xlink:href="#mbfcf90f386" x="69.87" y="84.012813" style="fill: #d62728; stroke: #d62728"/>
     </g>
    </g>
    <g id="text_19">
     <!-- Kristian Se -->
     <g transform="translate(87.87 87.512813) scale(0.1 -0.1)">
      <defs>
       <path id="DejaVuSans-4b" d="M 628 4666 
L 1259 4666 
L 1259 2694 
L 3353 4666 
L 4166 4666 
L 1850 2491 
L 4331 0 
L 3500 0 
L 1259 2247 
L 1259 0 
L 628 0 
L 628 4666 
z
" transform="scale(0.015625)"/>
      </defs>
      <use xlink:href="#DejaVuSans-4b"/>
      <use xlink:href="#DejaVuSans-72" x="65.576172"/>
      <use xlink:href="#DejaVuSans-69" x="106.689453"/>
      <use xlink:href="#DejaVuSans-73" x="134.472656"/>
      <use xlink:href="#DejaVuSans-74" x="186.572266"/>
      <use xlink:href="#DejaVuSans-69" x="225.78125"/>
      <use xlink:href="#DejaVuSans-61" x="253.564453"/>
      <use xlink:href="#DejaVuSans-6e" x="314.84375"/>
      <use xlink:href="#DejaVuSans-20" x="378.222656"/>
      <use xlink:href="#DejaVuSans-53" x="410.009766"/>
      <use xlink:href="#DejaVuSans-65" x="473.486328"/>
     </g>
    </g>
    <g id="line2d_37">
     <path d="M 59.87 98.690938 
L 69.87 98.690938 
L 79.87 98.690938 
" style="fill: none; stroke: #9467bd; stroke-width: 1.5; stroke-linecap: square"/>
     <g>
      <use xlink:href="#m760767d875" x="69.87" y="98.690938" style="fill: #9467bd; stroke: #9467bd"/>
     </g>
    </g>
    <g id="text_20">
     <!-- Jesper M -->
     <g transform="translate(87.87 102.190938) scale(0.1 -0.1)">
      <defs>
       <path id="DejaVuSans-4a" d="M 628 4666 
L 1259 4666 
L 1259 325 
Q 1259 -519 939 -900 
Q 619 -1281 -91 -1281 
L -331 -1281 
L -331 -750 
L -134 -750 
Q 284 -750 456 -515 
Q 628 -281 628 325 
L 628 4666 
z
" transform="scale(0.015625)"/>
       <path id="DejaVuSans-70" d="M 1159 525 
L 1159 -1331 
L 581 -1331 
L 581 3500 
L 1159 3500 
L 1159 2969 
Q 1341 3281 1617 3432 
Q 1894 3584 2278 3584 
Q 2916 3584 3314 3078 
Q 3713 2572 3713 1747 
Q 3713 922 3314 415 
Q 2916 -91 2278 -91 
Q 1894 -91 1617 61 
Q 1341 213 1159 525 
z
M 3116 1747 
Q 3116 2381 2855 2742 
Q 2594 3103 2138 3103 
Q 1681 3103 1420 2742 
Q 1159 2381 1159 1747 
Q 1159 1113 1420 752 
Q 1681 391 2138 391 
Q 2594 391 2855 752 
Q 3116 1113 3116 1747 
z
" transform="scale(0.015625)"/>
       <path id="DejaVuSans-f8" d="M 2828 2503 
L 1306 653 
Q 1434 522 1595 459 
Q 1756 397 1959 397 
Q 2419 397 2687 759 
Q 2956 1122 2956 1747 
Q 2956 1994 2925 2176 
Q 2894 2359 2828 2503 
z
M 2606 2841 
Q 2475 2969 2314 3033 
Q 2153 3097 1959 3097 
Q 1488 3097 1223 2730 
Q 959 2363 959 1703 
Q 959 1478 989 1306 
Q 1019 1134 1081 991 
L 2606 2841 
z
M 691 519 
Q 522 759 437 1067 
Q 353 1375 353 1747 
Q 353 2609 779 3096 
Q 1206 3584 1959 3584 
Q 2250 3584 2498 3504 
Q 2747 3425 2956 3263 
L 3391 3788 
L 3688 3541 
L 3231 2981 
Q 3397 2741 3481 2431 
Q 3566 2122 3566 1747 
Q 3566 888 3137 398 
Q 2709 -91 1959 -91 
Q 1659 -91 1407 -9 
Q 1156 72 959 231 
L 525 -294 
L 225 -50 
L 691 519 
z
" transform="scale(0.015625)"/>
      </defs>
      <use xlink:href="#DejaVuSans-4a"/>
      <use xlink:href="#DejaVuSans-65" x="29.492188"/>
      <use xlink:href="#DejaVuSans-73" x="91.015625"/>
      <use xlink:href="#DejaVuSans-70" x="143.115234"/>
      <use xlink:href="#DejaVuSans-65" x="206.591797"/>
      <use xlink:href="#DejaVuSans-72" x="268.115234"/>
      <use xlink:href="#DejaVuSans-20" x="309.228516"/>
      <use xlink:href="#DejaVuSans-4d" x="341.015625"/>
      <use xlink:href="#DejaVuSans-f8" x="427.294922"/>
     </g>
    </g>
    <g id="line2d_38">
     <path d="M 59.87 113.369063 
L 69.87 113.369063 
L 79.87 113.369063 
" style="fill: none; stroke: #8c564b; stroke-width: 1.5; stroke-linecap: square"/>
     <g>
      <use xlink:href="#ma144e0a16d" x="69.87" y="113.369063" style="fill: #8c564b; stroke: #8c564b"/>
     </g>
    </g>
    <g id="text_21">
     <!-- Ayman Ka -->
     <g transform="translate(87.87 116.869063) scale(0.1 -0.1)">
      <defs>
       <path id="DejaVuSans-41" d="M 2188 4044 
L 1331 1722 
L 3047 1722 
L 2188 4044 
z
M 1831 4666 
L 2547 4666 
L 4325 0 
L 3669 0 
L 3244 1197 
L 1141 1197 
L 716 0 
L 50 0 
L 1831 4666 
z
" transform="scale(0.015625)"/>
       <path id="DejaVuSans-79" d="M 2059 -325 
Q 1816 -950 1584 -1140 
Q 1353 -1331 966 -1331 
L 506 -1331 
L 506 -850 
L 844 -850 
Q 1081 -850 1212 -737 
Q 1344 -625 1503 -206 
L 1606 56 
L 191 3500 
L 800 3500 
L 1894 763 
L 2988 3500 
L 3597 3500 
L 2059 -325 
z
" transform="scale(0.015625)"/>
      </defs>
      <use xlink:href="#DejaVuSans-41"/>
      <use xlink:href="#DejaVuSans-79" x="61.658203"/>
      <use xlink:href="#DejaVuSans-6d" x="120.837891"/>
      <use xlink:href="#DejaVuSans-61" x="218.25"/>
      <use xlink:href="#DejaVuSans-6e" x="279.529297"/>
      <use xlink:href="#DejaVuSans-20" x="342.908203"/>
      <use xlink:href="#DejaVuSans-4b" x="374.695312"/>
      <use xlink:href="#DejaVuSans-61" x="438.521484"/>
     </g>
    </g>
   </g>
  </g>
 </g>
 <defs>
  <clipPath id="p173699f632">
   <rect x="50.87" y="26.88" width="802.33" height="377.24"/>
  </clipPath>
 </defs>
</svg>
