<?xml version="1.0" encoding="utf-8" standalone="no"?>
<!DOCTYPE svg PUBLIC "-//W3C//DTD SVG 1.1//EN"
  "http://www.w3.org/Graphics/SVG/1.1/DTD/svg11.dtd">
<svg xmlns:xlink="http://www.w3.org/1999/xlink" width="864pt" height="432pt" viewBox="0 0 864 432" xmlns="http://www.w3.org/2000/svg" version="1.1">
 <metadata>
  <rdf:RDF xmlns:dc="http://purl.org/dc/elements/1.1/" xmlns:cc="http://creativecommons.org/ns#" xmlns:rdf="http://www.w3.org/1999/02/22-rdf-syntax-ns#">
   <cc:Work>
    <dc:type rdf:resource="http://purl.org/dc/dcmitype/StillImage"/>
    <dc:date>2024-07-19T20:29:09.687905</dc:date>
    <dc:format>image/svg+xml</dc:format>
    <dc:creator>
     <cc:Agent>
      <dc:title>Matplotlib v3.9.1, https://matplotlib.org/</dc:title>
     </cc:Agent>
    </dc:creator>
   </cc:Work>
  </rdf:RDF>
 </metadata>
 <defs>
  <style type="text/css">*{stroke-linejoin: round; stroke-linecap: butt}</style>
 </defs>
 <g id="figure_1">
  <g id="patch_1">
   <path d="M 0 432 
L 864 432 
L 864 0 
L 0 0 
z
" style="fill: #ffffff"/>
  </g>
  <g id="axes_1">
   <g id="patch_2">
    <path d="M 50.87 404.12 
L 853.2 404.12 
L 853.2 26.88 
L 50.87 26.88 
z
" style="fill: #ffffff"/>
   </g>
   <g id="matplotlib.axis_1">
    <g id="xtick_1">
     <g id="line2d_1">
      <path d="M 66.499805 404.12 
L 66.499805 26.88 
" clip-path="url(#pba6be601d6)" style="fill: none; stroke-dasharray: 2.96,1.28; stroke-dashoffset: 0; stroke: #b0b0b0; stroke-width: 0.8"/>
     </g>
     <g id="line2d_2">
      <defs>
       <path id="m53497c5c3b" d="M 0 0 
L 0 3.5 
" style="stroke: #000000; stroke-width: 0.8"/>
      </defs>
      <g>
       <use xlink:href="#m53497c5c3b" x="66.499805" y="404.12" style="stroke: #000000; stroke-width: 0.8"/>
      </g>
     </g>
     <g id="text_1">
      <!-- 2024-06-13 -->
      <g transform="translate(37.441993 418.718437) scale(0.1 -0.1)">
       <defs>
        <path id="DejaVuSans-32" d="M 1228 531 
L 3431 531 
L 3431 0 
L 469 0 
L 469 531 
Q 828 903 1448 1529 
Q 2069 2156 2228 2338 
Q 2531 2678 2651 2914 
Q 2772 3150 2772 3378 
Q 2772 3750 2511 3984 
Q 2250 4219 1831 4219 
Q 1534 4219 1204 4116 
Q 875 4013 500 3803 
L 500 4441 
Q 881 4594 1212 4672 
Q 1544 4750 1819 4750 
Q 2544 4750 2975 4387 
Q 3406 4025 3406 3419 
Q 3406 3131 3298 2873 
Q 3191 2616 2906 2266 
Q 2828 2175 2409 1742 
Q 1991 1309 1228 531 
z
" transform="scale(0.015625)"/>
        <path id="DejaVuSans-30" d="M 2034 4250 
Q 1547 4250 1301 3770 
Q 1056 3291 1056 2328 
Q 1056 1369 1301 889 
Q 1547 409 2034 409 
Q 2525 409 2770 889 
Q 3016 1369 3016 2328 
Q 3016 3291 2770 3770 
Q 2525 4250 2034 4250 
z
M 2034 4750 
Q 2819 4750 3233 4129 
Q 3647 3509 3647 2328 
Q 3647 1150 3233 529 
Q 2819 -91 2034 -91 
Q 1250 -91 836 529 
Q 422 1150 422 2328 
Q 422 3509 836 4129 
Q 1250 4750 2034 4750 
z
" transform="scale(0.015625)"/>
        <path id="DejaVuSans-34" d="M 2419 4116 
L 825 1625 
L 2419 1625 
L 2419 4116 
z
M 2253 4666 
L 3047 4666 
L 3047 1625 
L 3713 1625 
L 3713 1100 
L 3047 1100 
L 3047 0 
L 2419 0 
L 2419 1100 
L 313 1100 
L 313 1709 
L 2253 4666 
z
" transform="scale(0.015625)"/>
        <path id="DejaVuSans-2d" d="M 313 2009 
L 1997 2009 
L 1997 1497 
L 313 1497 
L 313 2009 
z
" transform="scale(0.015625)"/>
        <path id="DejaVuSans-36" d="M 2113 2584 
Q 1688 2584 1439 2293 
Q 1191 2003 1191 1497 
Q 1191 994 1439 701 
Q 1688 409 2113 409 
Q 2538 409 2786 701 
Q 3034 994 3034 1497 
Q 3034 2003 2786 2293 
Q 2538 2584 2113 2584 
z
M 3366 4563 
L 3366 3988 
Q 3128 4100 2886 4159 
Q 2644 4219 2406 4219 
Q 1781 4219 1451 3797 
Q 1122 3375 1075 2522 
Q 1259 2794 1537 2939 
Q 1816 3084 2150 3084 
Q 2853 3084 3261 2657 
Q 3669 2231 3669 1497 
Q 3669 778 3244 343 
Q 2819 -91 2113 -91 
Q 1303 -91 875 529 
Q 447 1150 447 2328 
Q 447 3434 972 4092 
Q 1497 4750 2381 4750 
Q 2619 4750 2861 4703 
Q 3103 4656 3366 4563 
z
" transform="scale(0.015625)"/>
        <path id="DejaVuSans-31" d="M 794 531 
L 1825 531 
L 1825 4091 
L 703 3866 
L 703 4441 
L 1819 4666 
L 2450 4666 
L 2450 531 
L 3481 531 
L 3481 0 
L 794 0 
L 794 531 
z
" transform="scale(0.015625)"/>
        <path id="DejaVuSans-33" d="M 2597 2516 
Q 3050 2419 3304 2112 
Q 3559 1806 3559 1356 
Q 3559 666 3084 287 
Q 2609 -91 1734 -91 
Q 1441 -91 1130 -33 
Q 819 25 488 141 
L 488 750 
Q 750 597 1062 519 
Q 1375 441 1716 441 
Q 2309 441 2620 675 
Q 2931 909 2931 1356 
Q 2931 1769 2642 2001 
Q 2353 2234 1838 2234 
L 1294 2234 
L 1294 2753 
L 1863 2753 
Q 2328 2753 2575 2939 
Q 2822 3125 2822 3475 
Q 2822 3834 2567 4026 
Q 2313 4219 1838 4219 
Q 1578 4219 1281 4162 
Q 984 4106 628 3988 
L 628 4550 
Q 988 4650 1302 4700 
Q 1616 4750 1894 4750 
Q 2613 4750 3031 4423 
Q 3450 4097 3450 3541 
Q 3450 3153 3228 2886 
Q 3006 2619 2597 2516 
z
" transform="scale(0.015625)"/>
       </defs>
       <use xlink:href="#DejaVuSans-32"/>
       <use xlink:href="#DejaVuSans-30" x="63.623047"/>
       <use xlink:href="#DejaVuSans-32" x="127.246094"/>
       <use xlink:href="#DejaVuSans-34" x="190.869141"/>
       <use xlink:href="#DejaVuSans-2d" x="254.492188"/>
       <use xlink:href="#DejaVuSans-30" x="290.576172"/>
       <use xlink:href="#DejaVuSans-36" x="354.199219"/>
       <use xlink:href="#DejaVuSans-2d" x="417.822266"/>
       <use xlink:href="#DejaVuSans-31" x="453.90625"/>
       <use xlink:href="#DejaVuSans-33" x="517.529297"/>
      </g>
     </g>
    </g>
    <g id="xtick_2">
     <g id="line2d_3">
      <path d="M 149.858766 404.12 
L 149.858766 26.88 
" clip-path="url(#pba6be601d6)" style="fill: none; stroke-dasharray: 2.96,1.28; stroke-dashoffset: 0; stroke: #b0b0b0; stroke-width: 0.8"/>
     </g>
     <g id="line2d_4">
      <g>
       <use xlink:href="#m53497c5c3b" x="149.858766" y="404.12" style="stroke: #000000; stroke-width: 0.8"/>
      </g>
     </g>
     <g id="text_2">
      <!-- 2024-06-17 -->
      <g transform="translate(120.800954 418.718437) scale(0.1 -0.1)">
       <defs>
        <path id="DejaVuSans-37" d="M 525 4666 
L 3525 4666 
L 3525 4397 
L 1831 0 
L 1172 0 
L 2766 4134 
L 525 4134 
L 525 4666 
z
" transform="scale(0.015625)"/>
       </defs>
       <use xlink:href="#DejaVuSans-32"/>
       <use xlink:href="#DejaVuSans-30" x="63.623047"/>
       <use xlink:href="#DejaVuSans-32" x="127.246094"/>
       <use xlink:href="#DejaVuSans-34" x="190.869141"/>
       <use xlink:href="#DejaVuSans-2d" x="254.492188"/>
       <use xlink:href="#DejaVuSans-30" x="290.576172"/>
       <use xlink:href="#DejaVuSans-36" x="354.199219"/>
       <use xlink:href="#DejaVuSans-2d" x="417.822266"/>
       <use xlink:href="#DejaVuSans-31" x="453.90625"/>
       <use xlink:href="#DejaVuSans-37" x="517.529297"/>
      </g>
     </g>
    </g>
    <g id="xtick_3">
     <g id="line2d_5">
      <path d="M 233.217727 404.12 
L 233.217727 26.88 
" clip-path="url(#pba6be601d6)" style="fill: none; stroke-dasharray: 2.96,1.28; stroke-dashoffset: 0; stroke: #b0b0b0; stroke-width: 0.8"/>
     </g>
     <g id="line2d_6">
      <g>
       <use xlink:href="#m53497c5c3b" x="233.217727" y="404.12" style="stroke: #000000; stroke-width: 0.8"/>
      </g>
     </g>
     <g id="text_3">
      <!-- 2024-06-21 -->
      <g transform="translate(204.159915 418.718437) scale(0.1 -0.1)">
       <use xlink:href="#DejaVuSans-32"/>
       <use xlink:href="#DejaVuSans-30" x="63.623047"/>
       <use xlink:href="#DejaVuSans-32" x="127.246094"/>
       <use xlink:href="#DejaVuSans-34" x="190.869141"/>
       <use xlink:href="#DejaVuSans-2d" x="254.492188"/>
       <use xlink:href="#DejaVuSans-30" x="290.576172"/>
       <use xlink:href="#DejaVuSans-36" x="354.199219"/>
       <use xlink:href="#DejaVuSans-2d" x="417.822266"/>
       <use xlink:href="#DejaVuSans-32" x="453.90625"/>
       <use xlink:href="#DejaVuSans-31" x="517.529297"/>
      </g>
     </g>
    </g>
    <g id="xtick_4">
     <g id="line2d_7">
      <path d="M 316.576688 404.12 
L 316.576688 26.88 
" clip-path="url(#pba6be601d6)" style="fill: none; stroke-dasharray: 2.96,1.28; stroke-dashoffset: 0; stroke: #b0b0b0; stroke-width: 0.8"/>
     </g>
     <g id="line2d_8">
      <g>
       <use xlink:href="#m53497c5c3b" x="316.576688" y="404.12" style="stroke: #000000; stroke-width: 0.8"/>
      </g>
     </g>
     <g id="text_4">
      <!-- 2024-06-25 -->
      <g transform="translate(287.518876 418.718437) scale(0.1 -0.1)">
       <defs>
        <path id="DejaVuSans-35" d="M 691 4666 
L 3169 4666 
L 3169 4134 
L 1269 4134 
L 1269 2991 
Q 1406 3038 1543 3061 
Q 1681 3084 1819 3084 
Q 2600 3084 3056 2656 
Q 3513 2228 3513 1497 
Q 3513 744 3044 326 
Q 2575 -91 1722 -91 
Q 1428 -91 1123 -41 
Q 819 9 494 109 
L 494 744 
Q 775 591 1075 516 
Q 1375 441 1709 441 
Q 2250 441 2565 725 
Q 2881 1009 2881 1497 
Q 2881 1984 2565 2268 
Q 2250 2553 1709 2553 
Q 1456 2553 1204 2497 
Q 953 2441 691 2322 
L 691 4666 
z
" transform="scale(0.015625)"/>
       </defs>
       <use xlink:href="#DejaVuSans-32"/>
       <use xlink:href="#DejaVuSans-30" x="63.623047"/>
       <use xlink:href="#DejaVuSans-32" x="127.246094"/>
       <use xlink:href="#DejaVuSans-34" x="190.869141"/>
       <use xlink:href="#DejaVuSans-2d" x="254.492188"/>
       <use xlink:href="#DejaVuSans-30" x="290.576172"/>
       <use xlink:href="#DejaVuSans-36" x="354.199219"/>
       <use xlink:href="#DejaVuSans-2d" x="417.822266"/>
       <use xlink:href="#DejaVuSans-32" x="453.90625"/>
       <use xlink:href="#DejaVuSans-35" x="517.529297"/>
      </g>
     </g>
    </g>
    <g id="xtick_5">
     <g id="line2d_9">
      <path d="M 399.935649 404.12 
L 399.935649 26.88 
" clip-path="url(#pba6be601d6)" style="fill: none; stroke-dasharray: 2.96,1.28; stroke-dashoffset: 0; stroke: #b0b0b0; stroke-width: 0.8"/>
     </g>
     <g id="line2d_10">
      <g>
       <use xlink:href="#m53497c5c3b" x="399.935649" y="404.12" style="stroke: #000000; stroke-width: 0.8"/>
      </g>
     </g>
     <g id="text_5">
      <!-- 2024-06-29 -->
      <g transform="translate(370.877837 418.718437) scale(0.1 -0.1)">
       <defs>
        <path id="DejaVuSans-39" d="M 703 97 
L 703 672 
Q 941 559 1184 500 
Q 1428 441 1663 441 
Q 2288 441 2617 861 
Q 2947 1281 2994 2138 
Q 2813 1869 2534 1725 
Q 2256 1581 1919 1581 
Q 1219 1581 811 2004 
Q 403 2428 403 3163 
Q 403 3881 828 4315 
Q 1253 4750 1959 4750 
Q 2769 4750 3195 4129 
Q 3622 3509 3622 2328 
Q 3622 1225 3098 567 
Q 2575 -91 1691 -91 
Q 1453 -91 1209 -44 
Q 966 3 703 97 
z
M 1959 2075 
Q 2384 2075 2632 2365 
Q 2881 2656 2881 3163 
Q 2881 3666 2632 3958 
Q 2384 4250 1959 4250 
Q 1534 4250 1286 3958 
Q 1038 3666 1038 3163 
Q 1038 2656 1286 2365 
Q 1534 2075 1959 2075 
z
" transform="scale(0.015625)"/>
       </defs>
       <use xlink:href="#DejaVuSans-32"/>
       <use xlink:href="#DejaVuSans-30" x="63.623047"/>
       <use xlink:href="#DejaVuSans-32" x="127.246094"/>
       <use xlink:href="#DejaVuSans-34" x="190.869141"/>
       <use xlink:href="#DejaVuSans-2d" x="254.492188"/>
       <use xlink:href="#DejaVuSans-30" x="290.576172"/>
       <use xlink:href="#DejaVuSans-36" x="354.199219"/>
       <use xlink:href="#DejaVuSans-2d" x="417.822266"/>
       <use xlink:href="#DejaVuSans-32" x="453.90625"/>
       <use xlink:href="#DejaVuSans-39" x="517.529297"/>
      </g>
     </g>
    </g>
    <g id="xtick_6">
     <g id="line2d_11">
      <path d="M 441.61513 404.12 
L 441.61513 26.88 
" clip-path="url(#pba6be601d6)" style="fill: none; stroke-dasharray: 2.96,1.28; stroke-dashoffset: 0; stroke: #b0b0b0; stroke-width: 0.8"/>
     </g>
     <g id="line2d_12">
      <g>
       <use xlink:href="#m53497c5c3b" x="441.61513" y="404.12" style="stroke: #000000; stroke-width: 0.8"/>
      </g>
     </g>
     <g id="text_6">
      <!-- 2024-07-01 -->
      <g transform="translate(412.557317 418.718437) scale(0.1 -0.1)">
       <use xlink:href="#DejaVuSans-32"/>
       <use xlink:href="#DejaVuSans-30" x="63.623047"/>
       <use xlink:href="#DejaVuSans-32" x="127.246094"/>
       <use xlink:href="#DejaVuSans-34" x="190.869141"/>
       <use xlink:href="#DejaVuSans-2d" x="254.492188"/>
       <use xlink:href="#DejaVuSans-30" x="290.576172"/>
       <use xlink:href="#DejaVuSans-37" x="354.199219"/>
       <use xlink:href="#DejaVuSans-2d" x="417.822266"/>
       <use xlink:href="#DejaVuSans-30" x="453.90625"/>
       <use xlink:href="#DejaVuSans-31" x="517.529297"/>
      </g>
     </g>
    </g>
    <g id="xtick_7">
     <g id="line2d_13">
      <path d="M 524.974091 404.12 
L 524.974091 26.88 
" clip-path="url(#pba6be601d6)" style="fill: none; stroke-dasharray: 2.96,1.28; stroke-dashoffset: 0; stroke: #b0b0b0; stroke-width: 0.8"/>
     </g>
     <g id="line2d_14">
      <g>
       <use xlink:href="#m53497c5c3b" x="524.974091" y="404.12" style="stroke: #000000; stroke-width: 0.8"/>
      </g>
     </g>
     <g id="text_7">
      <!-- 2024-07-05 -->
      <g transform="translate(495.916278 418.718437) scale(0.1 -0.1)">
       <use xlink:href="#DejaVuSans-32"/>
       <use xlink:href="#DejaVuSans-30" x="63.623047"/>
       <use xlink:href="#DejaVuSans-32" x="127.246094"/>
       <use xlink:href="#DejaVuSans-34" x="190.869141"/>
       <use xlink:href="#DejaVuSans-2d" x="254.492188"/>
       <use xlink:href="#DejaVuSans-30" x="290.576172"/>
       <use xlink:href="#DejaVuSans-37" x="354.199219"/>
       <use xlink:href="#DejaVuSans-2d" x="417.822266"/>
       <use xlink:href="#DejaVuSans-30" x="453.90625"/>
       <use xlink:href="#DejaVuSans-35" x="517.529297"/>
      </g>
     </g>
    </g>
    <g id="xtick_8">
     <g id="line2d_15">
      <path d="M 608.333052 404.12 
L 608.333052 26.88 
" clip-path="url(#pba6be601d6)" style="fill: none; stroke-dasharray: 2.96,1.28; stroke-dashoffset: 0; stroke: #b0b0b0; stroke-width: 0.8"/>
     </g>
     <g id="line2d_16">
      <g>
       <use xlink:href="#m53497c5c3b" x="608.333052" y="404.12" style="stroke: #000000; stroke-width: 0.8"/>
      </g>
     </g>
     <g id="text_8">
      <!-- 2024-07-09 -->
      <g transform="translate(579.275239 418.718437) scale(0.1 -0.1)">
       <use xlink:href="#DejaVuSans-32"/>
       <use xlink:href="#DejaVuSans-30" x="63.623047"/>
       <use xlink:href="#DejaVuSans-32" x="127.246094"/>
       <use xlink:href="#DejaVuSans-34" x="190.869141"/>
       <use xlink:href="#DejaVuSans-2d" x="254.492188"/>
       <use xlink:href="#DejaVuSans-30" x="290.576172"/>
       <use xlink:href="#DejaVuSans-37" x="354.199219"/>
       <use xlink:href="#DejaVuSans-2d" x="417.822266"/>
       <use xlink:href="#DejaVuSans-30" x="453.90625"/>
       <use xlink:href="#DejaVuSans-39" x="517.529297"/>
      </g>
     </g>
    </g>
    <g id="xtick_9">
     <g id="line2d_17">
      <path d="M 691.692013 404.12 
L 691.692013 26.88 
" clip-path="url(#pba6be601d6)" style="fill: none; stroke-dasharray: 2.96,1.28; stroke-dashoffset: 0; stroke: #b0b0b0; stroke-width: 0.8"/>
     </g>
     <g id="line2d_18">
      <g>
       <use xlink:href="#m53497c5c3b" x="691.692013" y="404.12" style="stroke: #000000; stroke-width: 0.8"/>
      </g>
     </g>
     <g id="text_9">
      <!-- 2024-07-13 -->
      <g transform="translate(662.6342 418.718437) scale(0.1 -0.1)">
       <use xlink:href="#DejaVuSans-32"/>
       <use xlink:href="#DejaVuSans-30" x="63.623047"/>
       <use xlink:href="#DejaVuSans-32" x="127.246094"/>
       <use xlink:href="#DejaVuSans-34" x="190.869141"/>
       <use xlink:href="#DejaVuSans-2d" x="254.492188"/>
       <use xlink:href="#DejaVuSans-30" x="290.576172"/>
       <use xlink:href="#DejaVuSans-37" x="354.199219"/>
       <use xlink:href="#DejaVuSans-2d" x="417.822266"/>
       <use xlink:href="#DejaVuSans-31" x="453.90625"/>
       <use xlink:href="#DejaVuSans-33" x="517.529297"/>
      </g>
     </g>
    </g>
    <g id="xtick_10">
     <g id="line2d_19">
      <path d="M 775.050974 404.12 
L 775.050974 26.88 
" clip-path="url(#pba6be601d6)" style="fill: none; stroke-dasharray: 2.96,1.28; stroke-dashoffset: 0; stroke: #b0b0b0; stroke-width: 0.8"/>
     </g>
     <g id="line2d_20">
      <g>
       <use xlink:href="#m53497c5c3b" x="775.050974" y="404.12" style="stroke: #000000; stroke-width: 0.8"/>
      </g>
     </g>
     <g id="text_10">
      <!-- 2024-07-17 -->
      <g transform="translate(745.993162 418.718437) scale(0.1 -0.1)">
       <use xlink:href="#DejaVuSans-32"/>
       <use xlink:href="#DejaVuSans-30" x="63.623047"/>
       <use xlink:href="#DejaVuSans-32" x="127.246094"/>
       <use xlink:href="#DejaVuSans-34" x="190.869141"/>
       <use xlink:href="#DejaVuSans-2d" x="254.492188"/>
       <use xlink:href="#DejaVuSans-30" x="290.576172"/>
       <use xlink:href="#DejaVuSans-37" x="354.199219"/>
       <use xlink:href="#DejaVuSans-2d" x="417.822266"/>
       <use xlink:href="#DejaVuSans-31" x="453.90625"/>
       <use xlink:href="#DejaVuSans-37" x="517.529297"/>
      </g>
     </g>
    </g>
   </g>
   <g id="matplotlib.axis_2">
    <g id="ytick_1">
     <g id="line2d_21">
      <path d="M 50.87 389.537814 
L 853.2 389.537814 
" clip-path="url(#pba6be601d6)" style="fill: none; stroke-dasharray: 2.96,1.28; stroke-dashoffset: 0; stroke: #b0b0b0; stroke-width: 0.8"/>
     </g>
     <g id="line2d_22">
      <defs>
       <path id="m0423bf384a" d="M 0 0 
L -3.5 0 
" style="stroke: #000000; stroke-width: 0.8"/>
      </defs>
      <g>
       <use xlink:href="#m0423bf384a" x="50.87" y="389.537814" style="stroke: #000000; stroke-width: 0.8"/>
      </g>
     </g>
     <g id="text_11">
      <!-- 0 -->
      <g transform="translate(37.5075 393.337033) scale(0.1 -0.1)">
       <use xlink:href="#DejaVuSans-30"/>
      </g>
     </g>
    </g>
    <g id="ytick_2">
     <g id="line2d_23">
      <path d="M 50.87 326.478063 
L 853.2 326.478063 
" clip-path="url(#pba6be601d6)" style="fill: none; stroke-dasharray: 2.96,1.28; stroke-dashoffset: 0; stroke: #b0b0b0; stroke-width: 0.8"/>
     </g>
     <g id="line2d_24">
      <g>
       <use xlink:href="#m0423bf384a" x="50.87" y="326.478063" style="stroke: #000000; stroke-width: 0.8"/>
      </g>
     </g>
     <g id="text_12">
      <!-- 50 -->
      <g transform="translate(31.145 330.277282) scale(0.1 -0.1)">
       <use xlink:href="#DejaVuSans-35"/>
       <use xlink:href="#DejaVuSans-30" x="63.623047"/>
      </g>
     </g>
    </g>
    <g id="ytick_3">
     <g id="line2d_25">
      <path d="M 50.87 263.418313 
L 853.2 263.418313 
" clip-path="url(#pba6be601d6)" style="fill: none; stroke-dasharray: 2.96,1.28; stroke-dashoffset: 0; stroke: #b0b0b0; stroke-width: 0.8"/>
     </g>
     <g id="line2d_26">
      <g>
       <use xlink:href="#m0423bf384a" x="50.87" y="263.418313" style="stroke: #000000; stroke-width: 0.8"/>
      </g>
     </g>
     <g id="text_13">
      <!-- 100 -->
      <g transform="translate(24.7825 267.217531) scale(0.1 -0.1)">
       <use xlink:href="#DejaVuSans-31"/>
       <use xlink:href="#DejaVuSans-30" x="63.623047"/>
       <use xlink:href="#DejaVuSans-30" x="127.246094"/>
      </g>
     </g>
    </g>
    <g id="ytick_4">
     <g id="line2d_27">
      <path d="M 50.87 200.358562 
L 853.2 200.358562 
" clip-path="url(#pba6be601d6)" style="fill: none; stroke-dasharray: 2.96,1.28; stroke-dashoffset: 0; stroke: #b0b0b0; stroke-width: 0.8"/>
     </g>
     <g id="line2d_28">
      <g>
       <use xlink:href="#m0423bf384a" x="50.87" y="200.358562" style="stroke: #000000; stroke-width: 0.8"/>
      </g>
     </g>
     <g id="text_14">
      <!-- 150 -->
      <g transform="translate(24.7825 204.157781) scale(0.1 -0.1)">
       <use xlink:href="#DejaVuSans-31"/>
       <use xlink:href="#DejaVuSans-35" x="63.623047"/>
       <use xlink:href="#DejaVuSans-30" x="127.246094"/>
      </g>
     </g>
    </g>
    <g id="ytick_5">
     <g id="line2d_29">
      <path d="M 50.87 137.298812 
L 853.2 137.298812 
" clip-path="url(#pba6be601d6)" style="fill: none; stroke-dasharray: 2.96,1.28; stroke-dashoffset: 0; stroke: #b0b0b0; stroke-width: 0.8"/>
     </g>
     <g id="line2d_30">
      <g>
       <use xlink:href="#m0423bf384a" x="50.87" y="137.298812" style="stroke: #000000; stroke-width: 0.8"/>
      </g>
     </g>
     <g id="text_15">
      <!-- 200 -->
      <g transform="translate(24.7825 141.09803) scale(0.1 -0.1)">
       <use xlink:href="#DejaVuSans-32"/>
       <use xlink:href="#DejaVuSans-30" x="63.623047"/>
       <use xlink:href="#DejaVuSans-30" x="127.246094"/>
      </g>
     </g>
    </g>
    <g id="ytick_6">
     <g id="line2d_31">
      <path d="M 50.87 74.239061 
L 853.2 74.239061 
" clip-path="url(#pba6be601d6)" style="fill: none; stroke-dasharray: 2.96,1.28; stroke-dashoffset: 0; stroke: #b0b0b0; stroke-width: 0.8"/>
     </g>
     <g id="line2d_32">
      <g>
       <use xlink:href="#m0423bf384a" x="50.87" y="74.239061" style="stroke: #000000; stroke-width: 0.8"/>
      </g>
     </g>
     <g id="text_16">
      <!-- 250 -->
      <g transform="translate(24.7825 78.03828) scale(0.1 -0.1)">
       <use xlink:href="#DejaVuSans-32"/>
       <use xlink:href="#DejaVuSans-35" x="63.623047"/>
       <use xlink:href="#DejaVuSans-30" x="127.246094"/>
      </g>
     </g>
    </g>
    <g id="text_17">
     <!-- Score -->
     <g transform="translate(18.702813 229.502344) rotate(-90) scale(0.1 -0.1)">
      <defs>
       <path id="DejaVuSans-53" d="M 3425 4513 
L 3425 3897 
Q 3066 4069 2747 4153 
Q 2428 4238 2131 4238 
Q 1616 4238 1336 4038 
Q 1056 3838 1056 3469 
Q 1056 3159 1242 3001 
Q 1428 2844 1947 2747 
L 2328 2669 
Q 3034 2534 3370 2195 
Q 3706 1856 3706 1288 
Q 3706 609 3251 259 
Q 2797 -91 1919 -91 
Q 1588 -91 1214 -16 
Q 841 59 441 206 
L 441 856 
Q 825 641 1194 531 
Q 1563 422 1919 422 
Q 2459 422 2753 634 
Q 3047 847 3047 1241 
Q 3047 1584 2836 1778 
Q 2625 1972 2144 2069 
L 1759 2144 
Q 1053 2284 737 2584 
Q 422 2884 422 3419 
Q 422 4038 858 4394 
Q 1294 4750 2059 4750 
Q 2388 4750 2728 4690 
Q 3069 4631 3425 4513 
z
" transform="scale(0.015625)"/>
       <path id="DejaVuSans-63" d="M 3122 3366 
L 3122 2828 
Q 2878 2963 2633 3030 
Q 2388 3097 2138 3097 
Q 1578 3097 1268 2742 
Q 959 2388 959 1747 
Q 959 1106 1268 751 
Q 1578 397 2138 397 
Q 2388 397 2633 464 
Q 2878 531 3122 666 
L 3122 134 
Q 2881 22 2623 -34 
Q 2366 -91 2075 -91 
Q 1284 -91 818 406 
Q 353 903 353 1747 
Q 353 2603 823 3093 
Q 1294 3584 2113 3584 
Q 2378 3584 2631 3529 
Q 2884 3475 3122 3366 
z
" transform="scale(0.015625)"/>
       <path id="DejaVuSans-6f" d="M 1959 3097 
Q 1497 3097 1228 2736 
Q 959 2375 959 1747 
Q 959 1119 1226 758 
Q 1494 397 1959 397 
Q 2419 397 2687 759 
Q 2956 1122 2956 1747 
Q 2956 2369 2687 2733 
Q 2419 3097 1959 3097 
z
M 1959 3584 
Q 2709 3584 3137 3096 
Q 3566 2609 3566 1747 
Q 3566 888 3137 398 
Q 2709 -91 1959 -91 
Q 1206 -91 779 398 
Q 353 888 353 1747 
Q 353 2609 779 3096 
Q 1206 3584 1959 3584 
z
" transform="scale(0.015625)"/>
       <path id="DejaVuSans-72" d="M 2631 2963 
Q 2534 3019 2420 3045 
Q 2306 3072 2169 3072 
Q 1681 3072 1420 2755 
Q 1159 2438 1159 1844 
L 1159 0 
L 581 0 
L 581 3500 
L 1159 3500 
L 1159 2956 
Q 1341 3275 1631 3429 
Q 1922 3584 2338 3584 
Q 2397 3584 2469 3576 
Q 2541 3569 2628 3553 
L 2631 2963 
z
" transform="scale(0.015625)"/>
       <path id="DejaVuSans-65" d="M 3597 1894 
L 3597 1613 
L 953 1613 
Q 991 1019 1311 708 
Q 1631 397 2203 397 
Q 2534 397 2845 478 
Q 3156 559 3463 722 
L 3463 178 
Q 3153 47 2828 -22 
Q 2503 -91 2169 -91 
Q 1331 -91 842 396 
Q 353 884 353 1716 
Q 353 2575 817 3079 
Q 1281 3584 2069 3584 
Q 2775 3584 3186 3129 
Q 3597 2675 3597 1894 
z
M 3022 2063 
Q 3016 2534 2758 2815 
Q 2500 3097 2075 3097 
Q 1594 3097 1305 2825 
Q 1016 2553 972 2059 
L 3022 2063 
z
" transform="scale(0.015625)"/>
      </defs>
      <use xlink:href="#DejaVuSans-53"/>
      <use xlink:href="#DejaVuSans-63" x="63.476562"/>
      <use xlink:href="#DejaVuSans-6f" x="118.457031"/>
      <use xlink:href="#DejaVuSans-72" x="179.638672"/>
      <use xlink:href="#DejaVuSans-65" x="218.501953"/>
     </g>
    </g>
   </g>
   <g id="line2d_33">
    <path d="M 87.339545 383.204248 
L 108.179286 357.980348 
L 129.019026 346.629593 
L 149.858766 337.801228 
L 170.698506 325.189278 
L 191.538247 313.838523 
L 212.377987 313.838523 
L 233.217727 294.920598 
L 254.057468 260.868332 
L 274.897208 236.905627 
L 295.736948 209.159337 
L 316.576688 191.502607 
L 337.416429 161.233926 
L 399.935649 161.233926 
L 420.77539 161.233926 
L 441.61513 161.233926 
L 462.45487 161.233926 
L 483.29461 161.233926 
L 524.974091 161.233926 
L 545.813831 161.233926 
L 566.653571 161.233926 
L 587.493312 161.233926 
L 608.333052 161.233926 
L 629.172792 161.233926 
L 650.012532 161.233926 
L 670.852273 161.233926 
L 691.692013 161.233926 
L 712.531753 161.233926 
L 733.371494 123.398076 
L 754.211234 123.398076 
L 775.050974 123.398076 
L 795.890714 123.398076 
L 816.730455 123.398076 
" clip-path="url(#pba6be601d6)" style="fill: none; stroke: #1f77b4; stroke-width: 1.5; stroke-linecap: square"/>
    <defs>
     <path id="me7bd883d4d" d="M 0 3.5 
C 0.928211 3.5 1.81853 3.131218 2.474874 2.474874 
C 3.131218 1.81853 3.5 0.928211 3.5 0 
C 3.5 -0.928211 3.131218 -1.81853 2.474874 -2.474874 
C 1.81853 -3.131218 0.928211 -3.5 0 -3.5 
C -0.928211 -3.5 -1.81853 -3.131218 -2.474874 -2.474874 
C -3.131218 -1.81853 -3.5 -0.928211 -3.5 0 
C -3.5 0.928211 -3.131218 1.81853 -2.474874 2.474874 
C -1.81853 3.131218 -0.928211 3.5 0 3.5 
z
" style="stroke: #1f77b4"/>
    </defs>
    <g clip-path="url(#pba6be601d6)">
     <use xlink:href="#me7bd883d4d" x="87.339545" y="383.204248" style="fill: #1f77b4; stroke: #1f77b4"/>
     <use xlink:href="#me7bd883d4d" x="108.179286" y="357.980348" style="fill: #1f77b4; stroke: #1f77b4"/>
     <use xlink:href="#me7bd883d4d" x="129.019026" y="346.629593" style="fill: #1f77b4; stroke: #1f77b4"/>
     <use xlink:href="#me7bd883d4d" x="149.858766" y="337.801228" style="fill: #1f77b4; stroke: #1f77b4"/>
     <use xlink:href="#me7bd883d4d" x="170.698506" y="325.189278" style="fill: #1f77b4; stroke: #1f77b4"/>
     <use xlink:href="#me7bd883d4d" x="191.538247" y="313.838523" style="fill: #1f77b4; stroke: #1f77b4"/>
     <use xlink:href="#me7bd883d4d" x="212.377987" y="313.838523" style="fill: #1f77b4; stroke: #1f77b4"/>
     <use xlink:href="#me7bd883d4d" x="233.217727" y="294.920598" style="fill: #1f77b4; stroke: #1f77b4"/>
     <use xlink:href="#me7bd883d4d" x="254.057468" y="260.868332" style="fill: #1f77b4; stroke: #1f77b4"/>
     <use xlink:href="#me7bd883d4d" x="274.897208" y="236.905627" style="fill: #1f77b4; stroke: #1f77b4"/>
     <use xlink:href="#me7bd883d4d" x="295.736948" y="209.159337" style="fill: #1f77b4; stroke: #1f77b4"/>
     <use xlink:href="#me7bd883d4d" x="316.576688" y="191.502607" style="fill: #1f77b4; stroke: #1f77b4"/>
     <use xlink:href="#me7bd883d4d" x="337.416429" y="161.233926" style="fill: #1f77b4; stroke: #1f77b4"/>
     <use xlink:href="#me7bd883d4d" x="399.935649" y="161.233926" style="fill: #1f77b4; stroke: #1f77b4"/>
     <use xlink:href="#me7bd883d4d" x="420.77539" y="161.233926" style="fill: #1f77b4; stroke: #1f77b4"/>
     <use xlink:href="#me7bd883d4d" x="441.61513" y="161.233926" style="fill: #1f77b4; stroke: #1f77b4"/>
     <use xlink:href="#me7bd883d4d" x="462.45487" y="161.233926" style="fill: #1f77b4; stroke: #1f77b4"/>
     <use xlink:href="#me7bd883d4d" x="483.29461" y="161.233926" style="fill: #1f77b4; stroke: #1f77b4"/>
     <use xlink:href="#me7bd883d4d" x="524.974091" y="161.233926" style="fill: #1f77b4; stroke: #1f77b4"/>
     <use xlink:href="#me7bd883d4d" x="545.813831" y="161.233926" style="fill: #1f77b4; stroke: #1f77b4"/>
     <use xlink:href="#me7bd883d4d" x="566.653571" y="161.233926" style="fill: #1f77b4; stroke: #1f77b4"/>
     <use xlink:href="#me7bd883d4d" x="587.493312" y="161.233926" style="fill: #1f77b4; stroke: #1f77b4"/>
     <use xlink:href="#me7bd883d4d" x="608.333052" y="161.233926" style="fill: #1f77b4; stroke: #1f77b4"/>
     <use xlink:href="#me7bd883d4d" x="629.172792" y="161.233926" style="fill: #1f77b4; stroke: #1f77b4"/>
     <use xlink:href="#me7bd883d4d" x="650.012532" y="161.233926" style="fill: #1f77b4; stroke: #1f77b4"/>
     <use xlink:href="#me7bd883d4d" x="670.852273" y="161.233926" style="fill: #1f77b4; stroke: #1f77b4"/>
     <use xlink:href="#me7bd883d4d" x="691.692013" y="161.233926" style="fill: #1f77b4; stroke: #1f77b4"/>
     <use xlink:href="#me7bd883d4d" x="712.531753" y="161.233926" style="fill: #1f77b4; stroke: #1f77b4"/>
     <use xlink:href="#me7bd883d4d" x="733.371494" y="123.398076" style="fill: #1f77b4; stroke: #1f77b4"/>
     <use xlink:href="#me7bd883d4d" x="754.211234" y="123.398076" style="fill: #1f77b4; stroke: #1f77b4"/>
     <use xlink:href="#me7bd883d4d" x="775.050974" y="123.398076" style="fill: #1f77b4; stroke: #1f77b4"/>
     <use xlink:href="#me7bd883d4d" x="795.890714" y="123.398076" style="fill: #1f77b4; stroke: #1f77b4"/>
     <use xlink:href="#me7bd883d4d" x="816.730455" y="123.398076" style="fill: #1f77b4; stroke: #1f77b4"/>
    </g>
   </g>
   <g id="line2d_34">
    <path d="M 87.339545 386.972727 
L 108.179286 349.136877 
L 129.019026 321.390587 
L 149.858766 306.256247 
L 170.698506 287.338321 
L 191.538247 269.681591 
L 212.377987 245.718886 
L 233.217727 240.674106 
L 254.057468 206.621841 
L 274.897208 197.793476 
L 295.736948 176.35316 
L 316.576688 162.480015 
L 337.416429 125.90536 
L 399.935649 125.90536 
L 420.77539 125.90536 
L 441.61513 125.90536 
L 462.45487 125.90536 
L 483.29461 125.90536 
L 524.974091 125.90536 
L 545.813831 125.90536 
L 566.653571 125.90536 
L 587.493312 125.90536 
L 608.333052 125.90536 
L 629.172792 125.90536 
L 650.012532 125.90536 
L 670.852273 125.90536 
L 691.692013 125.90536 
L 712.531753 125.90536 
L 733.371494 119.599385 
L 754.211234 119.599385 
L 775.050974 119.599385 
L 795.890714 119.599385 
L 816.730455 119.599385 
" clip-path="url(#pba6be601d6)" style="fill: none; stroke: #ff7f0e; stroke-width: 1.5; stroke-linecap: square"/>
    <defs>
     <path id="m36440f5e3f" d="M 0 3.5 
C 0.928211 3.5 1.81853 3.131218 2.474874 2.474874 
C 3.131218 1.81853 3.5 0.928211 3.5 0 
C 3.5 -0.928211 3.131218 -1.81853 2.474874 -2.474874 
C 1.81853 -3.131218 0.928211 -3.5 0 -3.5 
C -0.928211 -3.5 -1.81853 -3.131218 -2.474874 -2.474874 
C -3.131218 -1.81853 -3.5 -0.928211 -3.5 0 
C -3.5 0.928211 -3.131218 1.81853 -2.474874 2.474874 
C -1.81853 3.131218 -0.928211 3.5 0 3.5 
z
" style="stroke: #ff7f0e"/>
    </defs>
    <g clip-path="url(#pba6be601d6)">
     <use xlink:href="#m36440f5e3f" x="87.339545" y="386.972727" style="fill: #ff7f0e; stroke: #ff7f0e"/>
     <use xlink:href="#m36440f5e3f" x="108.179286" y="349.136877" style="fill: #ff7f0e; stroke: #ff7f0e"/>
     <use xlink:href="#m36440f5e3f" x="129.019026" y="321.390587" style="fill: #ff7f0e; stroke: #ff7f0e"/>
     <use xlink:href="#m36440f5e3f" x="149.858766" y="306.256247" style="fill: #ff7f0e; stroke: #ff7f0e"/>
     <use xlink:href="#m36440f5e3f" x="170.698506" y="287.338321" style="fill: #ff7f0e; stroke: #ff7f0e"/>
     <use xlink:href="#m36440f5e3f" x="191.538247" y="269.681591" style="fill: #ff7f0e; stroke: #ff7f0e"/>
     <use xlink:href="#m36440f5e3f" x="212.377987" y="245.718886" style="fill: #ff7f0e; stroke: #ff7f0e"/>
     <use xlink:href="#m36440f5e3f" x="233.217727" y="240.674106" style="fill: #ff7f0e; stroke: #ff7f0e"/>
     <use xlink:href="#m36440f5e3f" x="254.057468" y="206.621841" style="fill: #ff7f0e; stroke: #ff7f0e"/>
     <use xlink:href="#m36440f5e3f" x="274.897208" y="197.793476" style="fill: #ff7f0e; stroke: #ff7f0e"/>
     <use xlink:href="#m36440f5e3f" x="295.736948" y="176.35316" style="fill: #ff7f0e; stroke: #ff7f0e"/>
     <use xlink:href="#m36440f5e3f" x="316.576688" y="162.480015" style="fill: #ff7f0e; stroke: #ff7f0e"/>
     <use xlink:href="#m36440f5e3f" x="337.416429" y="125.90536" style="fill: #ff7f0e; stroke: #ff7f0e"/>
     <use xlink:href="#m36440f5e3f" x="399.935649" y="125.90536" style="fill: #ff7f0e; stroke: #ff7f0e"/>
     <use xlink:href="#m36440f5e3f" x="420.77539" y="125.90536" style="fill: #ff7f0e; stroke: #ff7f0e"/>
     <use xlink:href="#m36440f5e3f" x="441.61513" y="125.90536" style="fill: #ff7f0e; stroke: #ff7f0e"/>
     <use xlink:href="#m36440f5e3f" x="462.45487" y="125.90536" style="fill: #ff7f0e; stroke: #ff7f0e"/>
     <use xlink:href="#m36440f5e3f" x="483.29461" y="125.90536" style="fill: #ff7f0e; stroke: #ff7f0e"/>
     <use xlink:href="#m36440f5e3f" x="524.974091" y="125.90536" style="fill: #ff7f0e; stroke: #ff7f0e"/>
     <use xlink:href="#m36440f5e3f" x="545.813831" y="125.90536" style="fill: #ff7f0e; stroke: #ff7f0e"/>
     <use xlink:href="#m36440f5e3f" x="566.653571" y="125.90536" style="fill: #ff7f0e; stroke: #ff7f0e"/>
     <use xlink:href="#m36440f5e3f" x="587.493312" y="125.90536" style="fill: #ff7f0e; stroke: #ff7f0e"/>
     <use xlink:href="#m36440f5e3f" x="608.333052" y="125.90536" style="fill: #ff7f0e; stroke: #ff7f0e"/>
     <use xlink:href="#m36440f5e3f" x="629.172792" y="125.90536" style="fill: #ff7f0e; stroke: #ff7f0e"/>
     <use xlink:href="#m36440f5e3f" x="650.012532" y="125.90536" style="fill: #ff7f0e; stroke: #ff7f0e"/>
     <use xlink:href="#m36440f5e3f" x="670.852273" y="125.90536" style="fill: #ff7f0e; stroke: #ff7f0e"/>
     <use xlink:href="#m36440f5e3f" x="691.692013" y="125.90536" style="fill: #ff7f0e; stroke: #ff7f0e"/>
     <use xlink:href="#m36440f5e3f" x="712.531753" y="125.90536" style="fill: #ff7f0e; stroke: #ff7f0e"/>
     <use xlink:href="#m36440f5e3f" x="733.371494" y="119.599385" style="fill: #ff7f0e; stroke: #ff7f0e"/>
     <use xlink:href="#m36440f5e3f" x="754.211234" y="119.599385" style="fill: #ff7f0e; stroke: #ff7f0e"/>
     <use xlink:href="#m36440f5e3f" x="775.050974" y="119.599385" style="fill: #ff7f0e; stroke: #ff7f0e"/>
     <use xlink:href="#m36440f5e3f" x="795.890714" y="119.599385" style="fill: #ff7f0e; stroke: #ff7f0e"/>
     <use xlink:href="#m36440f5e3f" x="816.730455" y="119.599385" style="fill: #ff7f0e; stroke: #ff7f0e"/>
    </g>
   </g>
   <g id="line2d_35">
    <path d="M 87.339545 376.937682 
L 108.179286 351.713782 
L 129.019026 332.795857 
L 149.858766 320.183906 
L 170.698506 288.654031 
L 191.538247 270.997301 
L 212.377987 259.646546 
L 233.217727 225.594281 
L 254.057468 194.064405 
L 274.897208 166.318115 
L 295.736948 144.8778 
L 316.576688 137.31063 
L 337.416429 80.556854 
L 399.935649 80.556854 
L 420.77539 80.556854 
L 441.61513 80.556854 
L 462.45487 80.556854 
L 483.29461 80.556854 
L 524.974091 80.556854 
L 545.813831 80.556854 
L 566.653571 80.556854 
L 587.493312 80.556854 
L 608.333052 80.556854 
L 629.172792 80.556854 
L 650.012532 80.556854 
L 670.852273 80.556854 
L 691.692013 80.556854 
L 712.531753 80.556854 
L 733.371494 80.556854 
L 754.211234 80.556854 
L 775.050974 80.556854 
L 795.890714 80.556854 
L 816.730455 80.556854 
" clip-path="url(#pba6be601d6)" style="fill: none; stroke: #2ca02c; stroke-width: 1.5; stroke-linecap: square"/>
    <defs>
     <path id="m6bac21178e" d="M 0 3.5 
C 0.928211 3.5 1.81853 3.131218 2.474874 2.474874 
C 3.131218 1.81853 3.5 0.928211 3.5 0 
C 3.5 -0.928211 3.131218 -1.81853 2.474874 -2.474874 
C 1.81853 -3.131218 0.928211 -3.5 0 -3.5 
C -0.928211 -3.5 -1.81853 -3.131218 -2.474874 -2.474874 
C -3.131218 -1.81853 -3.5 -0.928211 -3.5 0 
C -3.5 0.928211 -3.131218 1.81853 -2.474874 2.474874 
C -1.81853 3.131218 -0.928211 3.5 0 3.5 
z
" style="stroke: #2ca02c"/>
    </defs>
    <g clip-path="url(#pba6be601d6)">
     <use xlink:href="#m6bac21178e" x="87.339545" y="376.937682" style="fill: #2ca02c; stroke: #2ca02c"/>
     <use xlink:href="#m6bac21178e" x="108.179286" y="351.713782" style="fill: #2ca02c; stroke: #2ca02c"/>
     <use xlink:href="#m6bac21178e" x="129.019026" y="332.795857" style="fill: #2ca02c; stroke: #2ca02c"/>
     <use xlink:href="#m6bac21178e" x="149.858766" y="320.183906" style="fill: #2ca02c; stroke: #2ca02c"/>
     <use xlink:href="#m6bac21178e" x="170.698506" y="288.654031" style="fill: #2ca02c; stroke: #2ca02c"/>
     <use xlink:href="#m6bac21178e" x="191.538247" y="270.997301" style="fill: #2ca02c; stroke: #2ca02c"/>
     <use xlink:href="#m6bac21178e" x="212.377987" y="259.646546" style="fill: #2ca02c; stroke: #2ca02c"/>
     <use xlink:href="#m6bac21178e" x="233.217727" y="225.594281" style="fill: #2ca02c; stroke: #2ca02c"/>
     <use xlink:href="#m6bac21178e" x="254.057468" y="194.064405" style="fill: #2ca02c; stroke: #2ca02c"/>
     <use xlink:href="#m6bac21178e" x="274.897208" y="166.318115" style="fill: #2ca02c; stroke: #2ca02c"/>
     <use xlink:href="#m6bac21178e" x="295.736948" y="144.8778" style="fill: #2ca02c; stroke: #2ca02c"/>
     <use xlink:href="#m6bac21178e" x="316.576688" y="137.31063" style="fill: #2ca02c; stroke: #2ca02c"/>
     <use xlink:href="#m6bac21178e" x="337.416429" y="80.556854" style="fill: #2ca02c; stroke: #2ca02c"/>
     <use xlink:href="#m6bac21178e" x="399.935649" y="80.556854" style="fill: #2ca02c; stroke: #2ca02c"/>
     <use xlink:href="#m6bac21178e" x="420.77539" y="80.556854" style="fill: #2ca02c; stroke: #2ca02c"/>
     <use xlink:href="#m6bac21178e" x="441.61513" y="80.556854" style="fill: #2ca02c; stroke: #2ca02c"/>
     <use xlink:href="#m6bac21178e" x="462.45487" y="80.556854" style="fill: #2ca02c; stroke: #2ca02c"/>
     <use xlink:href="#m6bac21178e" x="483.29461" y="80.556854" style="fill: #2ca02c; stroke: #2ca02c"/>
     <use xlink:href="#m6bac21178e" x="524.974091" y="80.556854" style="fill: #2ca02c; stroke: #2ca02c"/>
     <use xlink:href="#m6bac21178e" x="545.813831" y="80.556854" style="fill: #2ca02c; stroke: #2ca02c"/>
     <use xlink:href="#m6bac21178e" x="566.653571" y="80.556854" style="fill: #2ca02c; stroke: #2ca02c"/>
     <use xlink:href="#m6bac21178e" x="587.493312" y="80.556854" style="fill: #2ca02c; stroke: #2ca02c"/>
     <use xlink:href="#m6bac21178e" x="608.333052" y="80.556854" style="fill: #2ca02c; stroke: #2ca02c"/>
     <use xlink:href="#m6bac21178e" x="629.172792" y="80.556854" style="fill: #2ca02c; stroke: #2ca02c"/>
     <use xlink:href="#m6bac21178e" x="650.012532" y="80.556854" style="fill: #2ca02c; stroke: #2ca02c"/>
     <use xlink:href="#m6bac21178e" x="670.852273" y="80.556854" style="fill: #2ca02c; stroke: #2ca02c"/>
     <use xlink:href="#m6bac21178e" x="691.692013" y="80.556854" style="fill: #2ca02c; stroke: #2ca02c"/>
     <use xlink:href="#m6bac21178e" x="712.531753" y="80.556854" style="fill: #2ca02c; stroke: #2ca02c"/>
     <use xlink:href="#m6bac21178e" x="733.371494" y="80.556854" style="fill: #2ca02c; stroke: #2ca02c"/>
     <use xlink:href="#m6bac21178e" x="754.211234" y="80.556854" style="fill: #2ca02c; stroke: #2ca02c"/>
     <use xlink:href="#m6bac21178e" x="775.050974" y="80.556854" style="fill: #2ca02c; stroke: #2ca02c"/>
     <use xlink:href="#m6bac21178e" x="795.890714" y="80.556854" style="fill: #2ca02c; stroke: #2ca02c"/>
     <use xlink:href="#m6bac21178e" x="816.730455" y="80.556854" style="fill: #2ca02c; stroke: #2ca02c"/>
    </g>
   </g>
   <g id="line2d_36">
    <path d="M 87.339545 376.982756 
L 108.179286 355.542441 
L 129.019026 317.70659 
L 149.858766 308.878225 
L 170.698506 289.9603 
L 191.538247 271.042375 
L 212.377987 243.296085 
L 233.217727 231.945329 
L 254.057468 200.415454 
L 274.897208 189.064699 
L 295.736948 155.012434 
L 316.576688 134.833314 
L 337.416429 75.557148 
L 399.935649 75.557148 
L 420.77539 75.557148 
L 441.61513 75.557148 
L 462.45487 75.557148 
L 483.29461 75.557148 
L 524.974091 75.557148 
L 545.813831 75.557148 
L 566.653571 75.557148 
L 587.493312 75.557148 
L 608.333052 75.557148 
L 629.172792 56.639223 
L 650.012532 56.639223 
L 670.852273 56.639223 
L 691.692013 56.639223 
L 712.531753 56.639223 
L 733.371494 44.027273 
L 754.211234 44.027273 
L 775.050974 44.027273 
L 795.890714 44.027273 
L 816.730455 44.027273 
" clip-path="url(#pba6be601d6)" style="fill: none; stroke: #d62728; stroke-width: 1.5; stroke-linecap: square"/>
    <defs>
     <path id="m9f59332129" d="M 0 3.5 
C 0.928211 3.5 1.81853 3.131218 2.474874 2.474874 
C 3.131218 1.81853 3.5 0.928211 3.5 0 
C 3.5 -0.928211 3.131218 -1.81853 2.474874 -2.474874 
C 1.81853 -3.131218 0.928211 -3.5 0 -3.5 
C -0.928211 -3.5 -1.81853 -3.131218 -2.474874 -2.474874 
C -3.131218 -1.81853 -3.5 -0.928211 -3.5 0 
C -3.5 0.928211 -3.131218 1.81853 -2.474874 2.474874 
C -1.81853 3.131218 -0.928211 3.5 0 3.5 
z
" style="stroke: #d62728"/>
    </defs>
    <g clip-path="url(#pba6be601d6)">
     <use xlink:href="#m9f59332129" x="87.339545" y="376.982756" style="fill: #d62728; stroke: #d62728"/>
     <use xlink:href="#m9f59332129" x="108.179286" y="355.542441" style="fill: #d62728; stroke: #d62728"/>
     <use xlink:href="#m9f59332129" x="129.019026" y="317.70659" style="fill: #d62728; stroke: #d62728"/>
     <use xlink:href="#m9f59332129" x="149.858766" y="308.878225" style="fill: #d62728; stroke: #d62728"/>
     <use xlink:href="#m9f59332129" x="170.698506" y="289.9603" style="fill: #d62728; stroke: #d62728"/>
     <use xlink:href="#m9f59332129" x="191.538247" y="271.042375" style="fill: #d62728; stroke: #d62728"/>
     <use xlink:href="#m9f59332129" x="212.377987" y="243.296085" style="fill: #d62728; stroke: #d62728"/>
     <use xlink:href="#m9f59332129" x="233.217727" y="231.945329" style="fill: #d62728; stroke: #d62728"/>
     <use xlink:href="#m9f59332129" x="254.057468" y="200.415454" style="fill: #d62728; stroke: #d62728"/>
     <use xlink:href="#m9f59332129" x="274.897208" y="189.064699" style="fill: #d62728; stroke: #d62728"/>
     <use xlink:href="#m9f59332129" x="295.736948" y="155.012434" style="fill: #d62728; stroke: #d62728"/>
     <use xlink:href="#m9f59332129" x="316.576688" y="134.833314" style="fill: #d62728; stroke: #d62728"/>
     <use xlink:href="#m9f59332129" x="337.416429" y="75.557148" style="fill: #d62728; stroke: #d62728"/>
     <use xlink:href="#m9f59332129" x="399.935649" y="75.557148" style="fill: #d62728; stroke: #d62728"/>
     <use xlink:href="#m9f59332129" x="420.77539" y="75.557148" style="fill: #d62728; stroke: #d62728"/>
     <use xlink:href="#m9f59332129" x="441.61513" y="75.557148" style="fill: #d62728; stroke: #d62728"/>
     <use xlink:href="#m9f59332129" x="462.45487" y="75.557148" style="fill: #d62728; stroke: #d62728"/>
     <use xlink:href="#m9f59332129" x="483.29461" y="75.557148" style="fill: #d62728; stroke: #d62728"/>
     <use xlink:href="#m9f59332129" x="524.974091" y="75.557148" style="fill: #d62728; stroke: #d62728"/>
     <use xlink:href="#m9f59332129" x="545.813831" y="75.557148" style="fill: #d62728; stroke: #d62728"/>
     <use xlink:href="#m9f59332129" x="566.653571" y="75.557148" style="fill: #d62728; stroke: #d62728"/>
     <use xlink:href="#m9f59332129" x="587.493312" y="75.557148" style="fill: #d62728; stroke: #d62728"/>
     <use xlink:href="#m9f59332129" x="608.333052" y="75.557148" style="fill: #d62728; stroke: #d62728"/>
     <use xlink:href="#m9f59332129" x="629.172792" y="56.639223" style="fill: #d62728; stroke: #d62728"/>
     <use xlink:href="#m9f59332129" x="650.012532" y="56.639223" style="fill: #d62728; stroke: #d62728"/>
     <use xlink:href="#m9f59332129" x="670.852273" y="56.639223" style="fill: #d62728; stroke: #d62728"/>
     <use xlink:href="#m9f59332129" x="691.692013" y="56.639223" style="fill: #d62728; stroke: #d62728"/>
     <use xlink:href="#m9f59332129" x="712.531753" y="56.639223" style="fill: #d62728; stroke: #d62728"/>
     <use xlink:href="#m9f59332129" x="733.371494" y="44.027273" style="fill: #d62728; stroke: #d62728"/>
     <use xlink:href="#m9f59332129" x="754.211234" y="44.027273" style="fill: #d62728; stroke: #d62728"/>
     <use xlink:href="#m9f59332129" x="775.050974" y="44.027273" style="fill: #d62728; stroke: #d62728"/>
     <use xlink:href="#m9f59332129" x="795.890714" y="44.027273" style="fill: #d62728; stroke: #d62728"/>
     <use xlink:href="#m9f59332129" x="816.730455" y="44.027273" style="fill: #d62728; stroke: #d62728"/>
    </g>
   </g>
   <g id="line2d_37">
    <path d="M 87.339545 383.177231 
L 108.179286 349.124966 
L 129.019026 321.378675 
L 149.858766 306.244335 
L 170.698506 291.109995 
L 191.538247 275.975655 
L 212.377987 273.453265 
L 233.217727 252.01295 
L 254.057468 220.483075 
L 274.897208 196.520369 
L 295.736948 158.684519 
L 316.576688 143.550179 
L 337.416429 115.803889 
L 399.935649 115.803889 
L 420.77539 115.803889 
L 441.61513 115.803889 
L 462.45487 115.803889 
L 483.29461 115.803889 
L 524.974091 115.803889 
L 545.813831 115.803889 
L 566.653571 115.803889 
L 587.493312 115.803889 
L 608.333052 115.803889 
L 629.172792 96.885963 
L 650.012532 96.885963 
L 670.852273 96.885963 
L 691.692013 96.885963 
L 712.531753 96.885963 
L 733.371494 71.662063 
L 754.211234 71.662063 
L 775.050974 71.662063 
L 795.890714 71.662063 
L 816.730455 71.662063 
" clip-path="url(#pba6be601d6)" style="fill: none; stroke: #9467bd; stroke-width: 1.5; stroke-linecap: square"/>
    <defs>
     <path id="m0a7c3b5616" d="M 0 3.5 
C 0.928211 3.5 1.81853 3.131218 2.474874 2.474874 
C 3.131218 1.81853 3.5 0.928211 3.5 0 
C 3.5 -0.928211 3.131218 -1.81853 2.474874 -2.474874 
C 1.81853 -3.131218 0.928211 -3.5 0 -3.5 
C -0.928211 -3.5 -1.81853 -3.131218 -2.474874 -2.474874 
C -3.131218 -1.81853 -3.5 -0.928211 -3.5 0 
C -3.5 0.928211 -3.131218 1.81853 -2.474874 2.474874 
C -1.81853 3.131218 -0.928211 3.5 0 3.5 
z
" style="stroke: #9467bd"/>
    </defs>
    <g clip-path="url(#pba6be601d6)">
     <use xlink:href="#m0a7c3b5616" x="87.339545" y="383.177231" style="fill: #9467bd; stroke: #9467bd"/>
     <use xlink:href="#m0a7c3b5616" x="108.179286" y="349.124966" style="fill: #9467bd; stroke: #9467bd"/>
     <use xlink:href="#m0a7c3b5616" x="129.019026" y="321.378675" style="fill: #9467bd; stroke: #9467bd"/>
     <use xlink:href="#m0a7c3b5616" x="149.858766" y="306.244335" style="fill: #9467bd; stroke: #9467bd"/>
     <use xlink:href="#m0a7c3b5616" x="170.698506" y="291.109995" style="fill: #9467bd; stroke: #9467bd"/>
     <use xlink:href="#m0a7c3b5616" x="191.538247" y="275.975655" style="fill: #9467bd; stroke: #9467bd"/>
     <use xlink:href="#m0a7c3b5616" x="212.377987" y="273.453265" style="fill: #9467bd; stroke: #9467bd"/>
     <use xlink:href="#m0a7c3b5616" x="233.217727" y="252.01295" style="fill: #9467bd; stroke: #9467bd"/>
     <use xlink:href="#m0a7c3b5616" x="254.057468" y="220.483075" style="fill: #9467bd; stroke: #9467bd"/>
     <use xlink:href="#m0a7c3b5616" x="274.897208" y="196.520369" style="fill: #9467bd; stroke: #9467bd"/>
     <use xlink:href="#m0a7c3b5616" x="295.736948" y="158.684519" style="fill: #9467bd; stroke: #9467bd"/>
     <use xlink:href="#m0a7c3b5616" x="316.576688" y="143.550179" style="fill: #9467bd; stroke: #9467bd"/>
     <use xlink:href="#m0a7c3b5616" x="337.416429" y="115.803889" style="fill: #9467bd; stroke: #9467bd"/>
     <use xlink:href="#m0a7c3b5616" x="399.935649" y="115.803889" style="fill: #9467bd; stroke: #9467bd"/>
     <use xlink:href="#m0a7c3b5616" x="420.77539" y="115.803889" style="fill: #9467bd; stroke: #9467bd"/>
     <use xlink:href="#m0a7c3b5616" x="441.61513" y="115.803889" style="fill: #9467bd; stroke: #9467bd"/>
     <use xlink:href="#m0a7c3b5616" x="462.45487" y="115.803889" style="fill: #9467bd; stroke: #9467bd"/>
     <use xlink:href="#m0a7c3b5616" x="483.29461" y="115.803889" style="fill: #9467bd; stroke: #9467bd"/>
     <use xlink:href="#m0a7c3b5616" x="524.974091" y="115.803889" style="fill: #9467bd; stroke: #9467bd"/>
     <use xlink:href="#m0a7c3b5616" x="545.813831" y="115.803889" style="fill: #9467bd; stroke: #9467bd"/>
     <use xlink:href="#m0a7c3b5616" x="566.653571" y="115.803889" style="fill: #9467bd; stroke: #9467bd"/>
     <use xlink:href="#m0a7c3b5616" x="587.493312" y="115.803889" style="fill: #9467bd; stroke: #9467bd"/>
     <use xlink:href="#m0a7c3b5616" x="608.333052" y="115.803889" style="fill: #9467bd; stroke: #9467bd"/>
     <use xlink:href="#m0a7c3b5616" x="629.172792" y="96.885963" style="fill: #9467bd; stroke: #9467bd"/>
     <use xlink:href="#m0a7c3b5616" x="650.012532" y="96.885963" style="fill: #9467bd; stroke: #9467bd"/>
     <use xlink:href="#m0a7c3b5616" x="670.852273" y="96.885963" style="fill: #9467bd; stroke: #9467bd"/>
     <use xlink:href="#m0a7c3b5616" x="691.692013" y="96.885963" style="fill: #9467bd; stroke: #9467bd"/>
     <use xlink:href="#m0a7c3b5616" x="712.531753" y="96.885963" style="fill: #9467bd; stroke: #9467bd"/>
     <use xlink:href="#m0a7c3b5616" x="733.371494" y="71.662063" style="fill: #9467bd; stroke: #9467bd"/>
     <use xlink:href="#m0a7c3b5616" x="754.211234" y="71.662063" style="fill: #9467bd; stroke: #9467bd"/>
     <use xlink:href="#m0a7c3b5616" x="775.050974" y="71.662063" style="fill: #9467bd; stroke: #9467bd"/>
     <use xlink:href="#m0a7c3b5616" x="795.890714" y="71.662063" style="fill: #9467bd; stroke: #9467bd"/>
     <use xlink:href="#m0a7c3b5616" x="816.730455" y="71.662063" style="fill: #9467bd; stroke: #9467bd"/>
    </g>
   </g>
   <g id="line2d_38">
    <path d="M 87.339545 376.902985 
L 108.179286 364.291035 
L 129.019026 342.850719 
L 149.858766 330.238769 
L 170.698506 305.014869 
L 191.538247 270.962604 
L 212.377987 253.305874 
L 233.217727 253.305874 
L 254.057468 221.775998 
L 274.897208 210.425243 
L 295.736948 182.678953 
L 316.576688 175.111783 
L 337.416429 136.014738 
L 399.935649 136.014738 
L 420.77539 136.014738 
L 441.61513 136.014738 
L 462.45487 136.014738 
L 483.29461 136.014738 
L 524.974091 136.014738 
L 545.813831 136.014738 
L 566.653571 136.014738 
L 587.493312 136.014738 
L 608.333052 136.014738 
L 629.172792 136.014738 
L 650.012532 136.014738 
L 670.852273 136.014738 
L 691.692013 136.014738 
L 712.531753 136.014738 
L 733.371494 117.096812 
L 754.211234 117.096812 
L 775.050974 117.096812 
L 795.890714 117.096812 
L 816.730455 117.096812 
" clip-path="url(#pba6be601d6)" style="fill: none; stroke: #8c564b; stroke-width: 1.5; stroke-linecap: square"/>
    <defs>
     <path id="mbe087485d0" d="M 0 3.5 
C 0.928211 3.5 1.81853 3.131218 2.474874 2.474874 
C 3.131218 1.81853 3.5 0.928211 3.5 0 
C 3.5 -0.928211 3.131218 -1.81853 2.474874 -2.474874 
C 1.81853 -3.131218 0.928211 -3.5 0 -3.5 
C -0.928211 -3.5 -1.81853 -3.131218 -2.474874 -2.474874 
C -3.131218 -1.81853 -3.5 -0.928211 -3.5 0 
C -3.5 0.928211 -3.131218 1.81853 -2.474874 2.474874 
C -1.81853 3.131218 -0.928211 3.5 0 3.5 
z
" style="stroke: #8c564b"/>
    </defs>
    <g clip-path="url(#pba6be601d6)">
     <use xlink:href="#mbe087485d0" x="87.339545" y="376.902985" style="fill: #8c564b; stroke: #8c564b"/>
     <use xlink:href="#mbe087485d0" x="108.179286" y="364.291035" style="fill: #8c564b; stroke: #8c564b"/>
     <use xlink:href="#mbe087485d0" x="129.019026" y="342.850719" style="fill: #8c564b; stroke: #8c564b"/>
     <use xlink:href="#mbe087485d0" x="149.858766" y="330.238769" style="fill: #8c564b; stroke: #8c564b"/>
     <use xlink:href="#mbe087485d0" x="170.698506" y="305.014869" style="fill: #8c564b; stroke: #8c564b"/>
     <use xlink:href="#mbe087485d0" x="191.538247" y="270.962604" style="fill: #8c564b; stroke: #8c564b"/>
     <use xlink:href="#mbe087485d0" x="212.377987" y="253.305874" style="fill: #8c564b; stroke: #8c564b"/>
     <use xlink:href="#mbe087485d0" x="233.217727" y="253.305874" style="fill: #8c564b; stroke: #8c564b"/>
     <use xlink:href="#mbe087485d0" x="254.057468" y="221.775998" style="fill: #8c564b; stroke: #8c564b"/>
     <use xlink:href="#mbe087485d0" x="274.897208" y="210.425243" style="fill: #8c564b; stroke: #8c564b"/>
     <use xlink:href="#mbe087485d0" x="295.736948" y="182.678953" style="fill: #8c564b; stroke: #8c564b"/>
     <use xlink:href="#mbe087485d0" x="316.576688" y="175.111783" style="fill: #8c564b; stroke: #8c564b"/>
     <use xlink:href="#mbe087485d0" x="337.416429" y="136.014738" style="fill: #8c564b; stroke: #8c564b"/>
     <use xlink:href="#mbe087485d0" x="399.935649" y="136.014738" style="fill: #8c564b; stroke: #8c564b"/>
     <use xlink:href="#mbe087485d0" x="420.77539" y="136.014738" style="fill: #8c564b; stroke: #8c564b"/>
     <use xlink:href="#mbe087485d0" x="441.61513" y="136.014738" style="fill: #8c564b; stroke: #8c564b"/>
     <use xlink:href="#mbe087485d0" x="462.45487" y="136.014738" style="fill: #8c564b; stroke: #8c564b"/>
     <use xlink:href="#mbe087485d0" x="483.29461" y="136.014738" style="fill: #8c564b; stroke: #8c564b"/>
     <use xlink:href="#mbe087485d0" x="524.974091" y="136.014738" style="fill: #8c564b; stroke: #8c564b"/>
     <use xlink:href="#mbe087485d0" x="545.813831" y="136.014738" style="fill: #8c564b; stroke: #8c564b"/>
     <use xlink:href="#mbe087485d0" x="566.653571" y="136.014738" style="fill: #8c564b; stroke: #8c564b"/>
     <use xlink:href="#mbe087485d0" x="587.493312" y="136.014738" style="fill: #8c564b; stroke: #8c564b"/>
     <use xlink:href="#mbe087485d0" x="608.333052" y="136.014738" style="fill: #8c564b; stroke: #8c564b"/>
     <use xlink:href="#mbe087485d0" x="629.172792" y="136.014738" style="fill: #8c564b; stroke: #8c564b"/>
     <use xlink:href="#mbe087485d0" x="650.012532" y="136.014738" style="fill: #8c564b; stroke: #8c564b"/>
     <use xlink:href="#mbe087485d0" x="670.852273" y="136.014738" style="fill: #8c564b; stroke: #8c564b"/>
     <use xlink:href="#mbe087485d0" x="691.692013" y="136.014738" style="fill: #8c564b; stroke: #8c564b"/>
     <use xlink:href="#mbe087485d0" x="712.531753" y="136.014738" style="fill: #8c564b; stroke: #8c564b"/>
     <use xlink:href="#mbe087485d0" x="733.371494" y="117.096812" style="fill: #8c564b; stroke: #8c564b"/>
     <use xlink:href="#mbe087485d0" x="754.211234" y="117.096812" style="fill: #8c564b; stroke: #8c564b"/>
     <use xlink:href="#mbe087485d0" x="775.050974" y="117.096812" style="fill: #8c564b; stroke: #8c564b"/>
     <use xlink:href="#mbe087485d0" x="795.890714" y="117.096812" style="fill: #8c564b; stroke: #8c564b"/>
     <use xlink:href="#mbe087485d0" x="816.730455" y="117.096812" style="fill: #8c564b; stroke: #8c564b"/>
    </g>
   </g>
   <g id="line2d_39">
    <path d="M 87.339545 376.840725 
L 108.179286 351.616825 
L 129.019026 330.17651 
L 149.858766 311.258585 
L 170.698506 302.43022 
L 191.538247 270.900344 
L 212.377987 263.333174 
L 233.217727 260.810784 
L 254.057468 233.064494 
L 274.897208 224.236129 
L 295.736948 190.183864 
L 316.576688 175.049524 
L 337.416429 134.691283 
L 399.935649 134.691283 
L 420.77539 134.691283 
L 441.61513 134.691283 
L 462.45487 134.691283 
L 483.29461 134.691283 
L 524.974091 134.691283 
L 545.813831 134.691283 
L 566.653571 134.691283 
L 587.493312 134.691283 
L 608.333052 134.691283 
L 629.172792 115.773358 
L 650.012532 115.773358 
L 670.852273 115.773358 
L 691.692013 115.773358 
L 712.531753 115.773358 
L 733.371494 115.773358 
L 754.211234 115.773358 
L 775.050974 115.773358 
L 795.890714 115.773358 
L 816.730455 115.773358 
" clip-path="url(#pba6be601d6)" style="fill: none; stroke: #e377c2; stroke-width: 1.5; stroke-linecap: square"/>
    <defs>
     <path id="m75882ad9ee" d="M 0 3.5 
C 0.928211 3.5 1.81853 3.131218 2.474874 2.474874 
C 3.131218 1.81853 3.5 0.928211 3.5 0 
C 3.5 -0.928211 3.131218 -1.81853 2.474874 -2.474874 
C 1.81853 -3.131218 0.928211 -3.5 0 -3.5 
C -0.928211 -3.5 -1.81853 -3.131218 -2.474874 -2.474874 
C -3.131218 -1.81853 -3.5 -0.928211 -3.5 0 
C -3.5 0.928211 -3.131218 1.81853 -2.474874 2.474874 
C -1.81853 3.131218 -0.928211 3.5 0 3.5 
z
" style="stroke: #e377c2"/>
    </defs>
    <g clip-path="url(#pba6be601d6)">
     <use xlink:href="#m75882ad9ee" x="87.339545" y="376.840725" style="fill: #e377c2; stroke: #e377c2"/>
     <use xlink:href="#m75882ad9ee" x="108.179286" y="351.616825" style="fill: #e377c2; stroke: #e377c2"/>
     <use xlink:href="#m75882ad9ee" x="129.019026" y="330.17651" style="fill: #e377c2; stroke: #e377c2"/>
     <use xlink:href="#m75882ad9ee" x="149.858766" y="311.258585" style="fill: #e377c2; stroke: #e377c2"/>
     <use xlink:href="#m75882ad9ee" x="170.698506" y="302.43022" style="fill: #e377c2; stroke: #e377c2"/>
     <use xlink:href="#m75882ad9ee" x="191.538247" y="270.900344" style="fill: #e377c2; stroke: #e377c2"/>
     <use xlink:href="#m75882ad9ee" x="212.377987" y="263.333174" style="fill: #e377c2; stroke: #e377c2"/>
     <use xlink:href="#m75882ad9ee" x="233.217727" y="260.810784" style="fill: #e377c2; stroke: #e377c2"/>
     <use xlink:href="#m75882ad9ee" x="254.057468" y="233.064494" style="fill: #e377c2; stroke: #e377c2"/>
     <use xlink:href="#m75882ad9ee" x="274.897208" y="224.236129" style="fill: #e377c2; stroke: #e377c2"/>
     <use xlink:href="#m75882ad9ee" x="295.736948" y="190.183864" style="fill: #e377c2; stroke: #e377c2"/>
     <use xlink:href="#m75882ad9ee" x="316.576688" y="175.049524" style="fill: #e377c2; stroke: #e377c2"/>
     <use xlink:href="#m75882ad9ee" x="337.416429" y="134.691283" style="fill: #e377c2; stroke: #e377c2"/>
     <use xlink:href="#m75882ad9ee" x="399.935649" y="134.691283" style="fill: #e377c2; stroke: #e377c2"/>
     <use xlink:href="#m75882ad9ee" x="420.77539" y="134.691283" style="fill: #e377c2; stroke: #e377c2"/>
     <use xlink:href="#m75882ad9ee" x="441.61513" y="134.691283" style="fill: #e377c2; stroke: #e377c2"/>
     <use xlink:href="#m75882ad9ee" x="462.45487" y="134.691283" style="fill: #e377c2; stroke: #e377c2"/>
     <use xlink:href="#m75882ad9ee" x="483.29461" y="134.691283" style="fill: #e377c2; stroke: #e377c2"/>
     <use xlink:href="#m75882ad9ee" x="524.974091" y="134.691283" style="fill: #e377c2; stroke: #e377c2"/>
     <use xlink:href="#m75882ad9ee" x="545.813831" y="134.691283" style="fill: #e377c2; stroke: #e377c2"/>
     <use xlink:href="#m75882ad9ee" x="566.653571" y="134.691283" style="fill: #e377c2; stroke: #e377c2"/>
     <use xlink:href="#m75882ad9ee" x="587.493312" y="134.691283" style="fill: #e377c2; stroke: #e377c2"/>
     <use xlink:href="#m75882ad9ee" x="608.333052" y="134.691283" style="fill: #e377c2; stroke: #e377c2"/>
     <use xlink:href="#m75882ad9ee" x="629.172792" y="115.773358" style="fill: #e377c2; stroke: #e377c2"/>
     <use xlink:href="#m75882ad9ee" x="650.012532" y="115.773358" style="fill: #e377c2; stroke: #e377c2"/>
     <use xlink:href="#m75882ad9ee" x="670.852273" y="115.773358" style="fill: #e377c2; stroke: #e377c2"/>
     <use xlink:href="#m75882ad9ee" x="691.692013" y="115.773358" style="fill: #e377c2; stroke: #e377c2"/>
     <use xlink:href="#m75882ad9ee" x="712.531753" y="115.773358" style="fill: #e377c2; stroke: #e377c2"/>
     <use xlink:href="#m75882ad9ee" x="733.371494" y="115.773358" style="fill: #e377c2; stroke: #e377c2"/>
     <use xlink:href="#m75882ad9ee" x="754.211234" y="115.773358" style="fill: #e377c2; stroke: #e377c2"/>
     <use xlink:href="#m75882ad9ee" x="775.050974" y="115.773358" style="fill: #e377c2; stroke: #e377c2"/>
     <use xlink:href="#m75882ad9ee" x="795.890714" y="115.773358" style="fill: #e377c2; stroke: #e377c2"/>
     <use xlink:href="#m75882ad9ee" x="816.730455" y="115.773358" style="fill: #e377c2; stroke: #e377c2"/>
    </g>
   </g>
   <g id="line2d_40">
    <path d="M 87.339545 383.304108 
L 108.179286 375.736937 
L 129.019026 356.819012 
L 149.858766 354.296622 
L 170.698506 335.378697 
L 191.538247 332.856307 
L 212.377987 311.415992 
L 233.217727 292.498067 
L 254.057468 248.356241 
L 274.897208 243.311461 
L 295.736948 230.699511 
L 316.576688 187.818881 
L 337.416429 151.244225 
L 399.935649 151.244225 
L 420.77539 151.244225 
L 441.61513 151.244225 
L 462.45487 151.244225 
L 483.29461 151.244225 
L 524.974091 151.244225 
L 545.813831 151.244225 
L 566.653571 151.244225 
L 587.493312 151.244225 
L 608.333052 151.244225 
L 629.172792 132.3263 
L 650.012532 132.3263 
L 670.852273 132.3263 
L 691.692013 132.3263 
L 712.531753 132.3263 
L 733.371494 107.1024 
L 754.211234 107.1024 
L 775.050974 107.1024 
L 795.890714 107.1024 
L 816.730455 107.1024 
" clip-path="url(#pba6be601d6)" style="fill: none; stroke: #7f7f7f; stroke-width: 1.5; stroke-linecap: square"/>
    <defs>
     <path id="m429e75039a" d="M 0 3.5 
C 0.928211 3.5 1.81853 3.131218 2.474874 2.474874 
C 3.131218 1.81853 3.5 0.928211 3.5 0 
C 3.5 -0.928211 3.131218 -1.81853 2.474874 -2.474874 
C 1.81853 -3.131218 0.928211 -3.5 0 -3.5 
C -0.928211 -3.5 -1.81853 -3.131218 -2.474874 -2.474874 
C -3.131218 -1.81853 -3.5 -0.928211 -3.5 0 
C -3.5 0.928211 -3.131218 1.81853 -2.474874 2.474874 
C -1.81853 3.131218 -0.928211 3.5 0 3.5 
z
" style="stroke: #7f7f7f"/>
    </defs>
    <g clip-path="url(#pba6be601d6)">
     <use xlink:href="#m429e75039a" x="87.339545" y="383.304108" style="fill: #7f7f7f; stroke: #7f7f7f"/>
     <use xlink:href="#m429e75039a" x="108.179286" y="375.736937" style="fill: #7f7f7f; stroke: #7f7f7f"/>
     <use xlink:href="#m429e75039a" x="129.019026" y="356.819012" style="fill: #7f7f7f; stroke: #7f7f7f"/>
     <use xlink:href="#m429e75039a" x="149.858766" y="354.296622" style="fill: #7f7f7f; stroke: #7f7f7f"/>
     <use xlink:href="#m429e75039a" x="170.698506" y="335.378697" style="fill: #7f7f7f; stroke: #7f7f7f"/>
     <use xlink:href="#m429e75039a" x="191.538247" y="332.856307" style="fill: #7f7f7f; stroke: #7f7f7f"/>
     <use xlink:href="#m429e75039a" x="212.377987" y="311.415992" style="fill: #7f7f7f; stroke: #7f7f7f"/>
     <use xlink:href="#m429e75039a" x="233.217727" y="292.498067" style="fill: #7f7f7f; stroke: #7f7f7f"/>
     <use xlink:href="#m429e75039a" x="254.057468" y="248.356241" style="fill: #7f7f7f; stroke: #7f7f7f"/>
     <use xlink:href="#m429e75039a" x="274.897208" y="243.311461" style="fill: #7f7f7f; stroke: #7f7f7f"/>
     <use xlink:href="#m429e75039a" x="295.736948" y="230.699511" style="fill: #7f7f7f; stroke: #7f7f7f"/>
     <use xlink:href="#m429e75039a" x="316.576688" y="187.818881" style="fill: #7f7f7f; stroke: #7f7f7f"/>
     <use xlink:href="#m429e75039a" x="337.416429" y="151.244225" style="fill: #7f7f7f; stroke: #7f7f7f"/>
     <use xlink:href="#m429e75039a" x="399.935649" y="151.244225" style="fill: #7f7f7f; stroke: #7f7f7f"/>
     <use xlink:href="#m429e75039a" x="420.77539" y="151.244225" style="fill: #7f7f7f; stroke: #7f7f7f"/>
     <use xlink:href="#m429e75039a" x="441.61513" y="151.244225" style="fill: #7f7f7f; stroke: #7f7f7f"/>
     <use xlink:href="#m429e75039a" x="462.45487" y="151.244225" style="fill: #7f7f7f; stroke: #7f7f7f"/>
     <use xlink:href="#m429e75039a" x="483.29461" y="151.244225" style="fill: #7f7f7f; stroke: #7f7f7f"/>
     <use xlink:href="#m429e75039a" x="524.974091" y="151.244225" style="fill: #7f7f7f; stroke: #7f7f7f"/>
     <use xlink:href="#m429e75039a" x="545.813831" y="151.244225" style="fill: #7f7f7f; stroke: #7f7f7f"/>
     <use xlink:href="#m429e75039a" x="566.653571" y="151.244225" style="fill: #7f7f7f; stroke: #7f7f7f"/>
     <use xlink:href="#m429e75039a" x="587.493312" y="151.244225" style="fill: #7f7f7f; stroke: #7f7f7f"/>
     <use xlink:href="#m429e75039a" x="608.333052" y="151.244225" style="fill: #7f7f7f; stroke: #7f7f7f"/>
     <use xlink:href="#m429e75039a" x="629.172792" y="132.3263" style="fill: #7f7f7f; stroke: #7f7f7f"/>
     <use xlink:href="#m429e75039a" x="650.012532" y="132.3263" style="fill: #7f7f7f; stroke: #7f7f7f"/>
     <use xlink:href="#m429e75039a" x="670.852273" y="132.3263" style="fill: #7f7f7f; stroke: #7f7f7f"/>
     <use xlink:href="#m429e75039a" x="691.692013" y="132.3263" style="fill: #7f7f7f; stroke: #7f7f7f"/>
     <use xlink:href="#m429e75039a" x="712.531753" y="132.3263" style="fill: #7f7f7f; stroke: #7f7f7f"/>
     <use xlink:href="#m429e75039a" x="733.371494" y="107.1024" style="fill: #7f7f7f; stroke: #7f7f7f"/>
     <use xlink:href="#m429e75039a" x="754.211234" y="107.1024" style="fill: #7f7f7f; stroke: #7f7f7f"/>
     <use xlink:href="#m429e75039a" x="775.050974" y="107.1024" style="fill: #7f7f7f; stroke: #7f7f7f"/>
     <use xlink:href="#m429e75039a" x="795.890714" y="107.1024" style="fill: #7f7f7f; stroke: #7f7f7f"/>
     <use xlink:href="#m429e75039a" x="816.730455" y="107.1024" style="fill: #7f7f7f; stroke: #7f7f7f"/>
    </g>
   </g>
   <g id="line2d_41">
    <path d="M 87.339545 383.189148 
L 108.179286 357.965248 
L 129.019026 330.218958 
L 149.858766 321.390593 
L 170.698506 302.472668 
L 191.538247 274.726377 
L 212.377987 246.980087 
L 233.217727 244.457697 
L 254.057468 212.927822 
L 274.897208 172.569581 
L 295.736948 144.823291 
L 316.576688 117.077001 
L 337.416429 83.024736 
L 399.935649 83.024736 
L 420.77539 83.024736 
L 441.61513 83.024736 
L 462.45487 83.024736 
L 483.29461 83.024736 
L 524.974091 83.024736 
L 545.813831 83.024736 
L 566.653571 83.024736 
L 587.493312 83.024736 
L 608.333052 83.024736 
L 629.172792 83.024736 
L 650.012532 83.024736 
L 670.852273 83.024736 
L 691.692013 83.024736 
L 712.531753 83.024736 
L 733.371494 64.10681 
L 754.211234 64.10681 
L 775.050974 64.10681 
L 795.890714 64.10681 
L 816.730455 64.10681 
" clip-path="url(#pba6be601d6)" style="fill: none; stroke: #bcbd22; stroke-width: 1.5; stroke-linecap: square"/>
    <defs>
     <path id="m39c4be9ced" d="M 0 3.5 
C 0.928211 3.5 1.81853 3.131218 2.474874 2.474874 
C 3.131218 1.81853 3.5 0.928211 3.5 0 
C 3.5 -0.928211 3.131218 -1.81853 2.474874 -2.474874 
C 1.81853 -3.131218 0.928211 -3.5 0 -3.5 
C -0.928211 -3.5 -1.81853 -3.131218 -2.474874 -2.474874 
C -3.131218 -1.81853 -3.5 -0.928211 -3.5 0 
C -3.5 0.928211 -3.131218 1.81853 -2.474874 2.474874 
C -1.81853 3.131218 -0.928211 3.5 0 3.5 
z
" style="stroke: #bcbd22"/>
    </defs>
    <g clip-path="url(#pba6be601d6)">
     <use xlink:href="#m39c4be9ced" x="87.339545" y="383.189148" style="fill: #bcbd22; stroke: #bcbd22"/>
     <use xlink:href="#m39c4be9ced" x="108.179286" y="357.965248" style="fill: #bcbd22; stroke: #bcbd22"/>
     <use xlink:href="#m39c4be9ced" x="129.019026" y="330.218958" style="fill: #bcbd22; stroke: #bcbd22"/>
     <use xlink:href="#m39c4be9ced" x="149.858766" y="321.390593" style="fill: #bcbd22; stroke: #bcbd22"/>
     <use xlink:href="#m39c4be9ced" x="170.698506" y="302.472668" style="fill: #bcbd22; stroke: #bcbd22"/>
     <use xlink:href="#m39c4be9ced" x="191.538247" y="274.726377" style="fill: #bcbd22; stroke: #bcbd22"/>
     <use xlink:href="#m39c4be9ced" x="212.377987" y="246.980087" style="fill: #bcbd22; stroke: #bcbd22"/>
     <use xlink:href="#m39c4be9ced" x="233.217727" y="244.457697" style="fill: #bcbd22; stroke: #bcbd22"/>
     <use xlink:href="#m39c4be9ced" x="254.057468" y="212.927822" style="fill: #bcbd22; stroke: #bcbd22"/>
     <use xlink:href="#m39c4be9ced" x="274.897208" y="172.569581" style="fill: #bcbd22; stroke: #bcbd22"/>
     <use xlink:href="#m39c4be9ced" x="295.736948" y="144.823291" style="fill: #bcbd22; stroke: #bcbd22"/>
     <use xlink:href="#m39c4be9ced" x="316.576688" y="117.077001" style="fill: #bcbd22; stroke: #bcbd22"/>
     <use xlink:href="#m39c4be9ced" x="337.416429" y="83.024736" style="fill: #bcbd22; stroke: #bcbd22"/>
     <use xlink:href="#m39c4be9ced" x="399.935649" y="83.024736" style="fill: #bcbd22; stroke: #bcbd22"/>
     <use xlink:href="#m39c4be9ced" x="420.77539" y="83.024736" style="fill: #bcbd22; stroke: #bcbd22"/>
     <use xlink:href="#m39c4be9ced" x="441.61513" y="83.024736" style="fill: #bcbd22; stroke: #bcbd22"/>
     <use xlink:href="#m39c4be9ced" x="462.45487" y="83.024736" style="fill: #bcbd22; stroke: #bcbd22"/>
     <use xlink:href="#m39c4be9ced" x="483.29461" y="83.024736" style="fill: #bcbd22; stroke: #bcbd22"/>
     <use xlink:href="#m39c4be9ced" x="524.974091" y="83.024736" style="fill: #bcbd22; stroke: #bcbd22"/>
     <use xlink:href="#m39c4be9ced" x="545.813831" y="83.024736" style="fill: #bcbd22; stroke: #bcbd22"/>
     <use xlink:href="#m39c4be9ced" x="566.653571" y="83.024736" style="fill: #bcbd22; stroke: #bcbd22"/>
     <use xlink:href="#m39c4be9ced" x="587.493312" y="83.024736" style="fill: #bcbd22; stroke: #bcbd22"/>
     <use xlink:href="#m39c4be9ced" x="608.333052" y="83.024736" style="fill: #bcbd22; stroke: #bcbd22"/>
     <use xlink:href="#m39c4be9ced" x="629.172792" y="83.024736" style="fill: #bcbd22; stroke: #bcbd22"/>
     <use xlink:href="#m39c4be9ced" x="650.012532" y="83.024736" style="fill: #bcbd22; stroke: #bcbd22"/>
     <use xlink:href="#m39c4be9ced" x="670.852273" y="83.024736" style="fill: #bcbd22; stroke: #bcbd22"/>
     <use xlink:href="#m39c4be9ced" x="691.692013" y="83.024736" style="fill: #bcbd22; stroke: #bcbd22"/>
     <use xlink:href="#m39c4be9ced" x="712.531753" y="83.024736" style="fill: #bcbd22; stroke: #bcbd22"/>
     <use xlink:href="#m39c4be9ced" x="733.371494" y="64.10681" style="fill: #bcbd22; stroke: #bcbd22"/>
     <use xlink:href="#m39c4be9ced" x="754.211234" y="64.10681" style="fill: #bcbd22; stroke: #bcbd22"/>
     <use xlink:href="#m39c4be9ced" x="775.050974" y="64.10681" style="fill: #bcbd22; stroke: #bcbd22"/>
     <use xlink:href="#m39c4be9ced" x="795.890714" y="64.10681" style="fill: #bcbd22; stroke: #bcbd22"/>
     <use xlink:href="#m39c4be9ced" x="816.730455" y="64.10681" style="fill: #bcbd22; stroke: #bcbd22"/>
    </g>
   </g>
   <g id="patch_3">
    <path d="M 50.87 404.12 
L 50.87 26.88 
" style="fill: none; stroke: #000000; stroke-width: 0.8; stroke-linejoin: miter; stroke-linecap: square"/>
   </g>
   <g id="patch_4">
    <path d="M 853.2 404.12 
L 853.2 26.88 
" style="fill: none; stroke: #000000; stroke-width: 0.8; stroke-linejoin: miter; stroke-linecap: square"/>
   </g>
   <g id="patch_5">
    <path d="M 50.87 404.12 
L 853.2 404.12 
" style="fill: none; stroke: #000000; stroke-width: 0.8; stroke-linejoin: miter; stroke-linecap: square"/>
   </g>
   <g id="patch_6">
    <path d="M 50.87 26.88 
L 853.2 26.88 
" style="fill: none; stroke: #000000; stroke-width: 0.8; stroke-linejoin: miter; stroke-linecap: square"/>
   </g>
   <g id="text_18">
    <!-- Standings -->
    <g transform="translate(422.18125 20.88) scale(0.12 -0.12)">
     <defs>
      <path id="DejaVuSans-74" d="M 1172 4494 
L 1172 3500 
L 2356 3500 
L 2356 3053 
L 1172 3053 
L 1172 1153 
Q 1172 725 1289 603 
Q 1406 481 1766 481 
L 2356 481 
L 2356 0 
L 1766 0 
Q 1100 0 847 248 
Q 594 497 594 1153 
L 594 3053 
L 172 3053 
L 172 3500 
L 594 3500 
L 594 4494 
L 1172 4494 
z
" transform="scale(0.015625)"/>
      <path id="DejaVuSans-61" d="M 2194 1759 
Q 1497 1759 1228 1600 
Q 959 1441 959 1056 
Q 959 750 1161 570 
Q 1363 391 1709 391 
Q 2188 391 2477 730 
Q 2766 1069 2766 1631 
L 2766 1759 
L 2194 1759 
z
M 3341 1997 
L 3341 0 
L 2766 0 
L 2766 531 
Q 2569 213 2275 61 
Q 1981 -91 1556 -91 
Q 1019 -91 701 211 
Q 384 513 384 1019 
Q 384 1609 779 1909 
Q 1175 2209 1959 2209 
L 2766 2209 
L 2766 2266 
Q 2766 2663 2505 2880 
Q 2244 3097 1772 3097 
Q 1472 3097 1187 3025 
Q 903 2953 641 2809 
L 641 3341 
Q 956 3463 1253 3523 
Q 1550 3584 1831 3584 
Q 2591 3584 2966 3190 
Q 3341 2797 3341 1997 
z
" transform="scale(0.015625)"/>
      <path id="DejaVuSans-6e" d="M 3513 2113 
L 3513 0 
L 2938 0 
L 2938 2094 
Q 2938 2591 2744 2837 
Q 2550 3084 2163 3084 
Q 1697 3084 1428 2787 
Q 1159 2491 1159 1978 
L 1159 0 
L 581 0 
L 581 3500 
L 1159 3500 
L 1159 2956 
Q 1366 3272 1645 3428 
Q 1925 3584 2291 3584 
Q 2894 3584 3203 3211 
Q 3513 2838 3513 2113 
z
" transform="scale(0.015625)"/>
      <path id="DejaVuSans-64" d="M 2906 2969 
L 2906 4863 
L 3481 4863 
L 3481 0 
L 2906 0 
L 2906 525 
Q 2725 213 2448 61 
Q 2172 -91 1784 -91 
Q 1150 -91 751 415 
Q 353 922 353 1747 
Q 353 2572 751 3078 
Q 1150 3584 1784 3584 
Q 2172 3584 2448 3432 
Q 2725 3281 2906 2969 
z
M 947 1747 
Q 947 1113 1208 752 
Q 1469 391 1925 391 
Q 2381 391 2643 752 
Q 2906 1113 2906 1747 
Q 2906 2381 2643 2742 
Q 2381 3103 1925 3103 
Q 1469 3103 1208 2742 
Q 947 2381 947 1747 
z
" transform="scale(0.015625)"/>
      <path id="DejaVuSans-69" d="M 603 3500 
L 1178 3500 
L 1178 0 
L 603 0 
L 603 3500 
z
M 603 4863 
L 1178 4863 
L 1178 4134 
L 603 4134 
L 603 4863 
z
" transform="scale(0.015625)"/>
      <path id="DejaVuSans-67" d="M 2906 1791 
Q 2906 2416 2648 2759 
Q 2391 3103 1925 3103 
Q 1463 3103 1205 2759 
Q 947 2416 947 1791 
Q 947 1169 1205 825 
Q 1463 481 1925 481 
Q 2391 481 2648 825 
Q 2906 1169 2906 1791 
z
M 3481 434 
Q 3481 -459 3084 -895 
Q 2688 -1331 1869 -1331 
Q 1566 -1331 1297 -1286 
Q 1028 -1241 775 -1147 
L 775 -588 
Q 1028 -725 1275 -790 
Q 1522 -856 1778 -856 
Q 2344 -856 2625 -561 
Q 2906 -266 2906 331 
L 2906 616 
Q 2728 306 2450 153 
Q 2172 0 1784 0 
Q 1141 0 747 490 
Q 353 981 353 1791 
Q 353 2603 747 3093 
Q 1141 3584 1784 3584 
Q 2172 3584 2450 3431 
Q 2728 3278 2906 2969 
L 2906 3500 
L 3481 3500 
L 3481 434 
z
" transform="scale(0.015625)"/>
      <path id="DejaVuSans-73" d="M 2834 3397 
L 2834 2853 
Q 2591 2978 2328 3040 
Q 2066 3103 1784 3103 
Q 1356 3103 1142 2972 
Q 928 2841 928 2578 
Q 928 2378 1081 2264 
Q 1234 2150 1697 2047 
L 1894 2003 
Q 2506 1872 2764 1633 
Q 3022 1394 3022 966 
Q 3022 478 2636 193 
Q 2250 -91 1575 -91 
Q 1294 -91 989 -36 
Q 684 19 347 128 
L 347 722 
Q 666 556 975 473 
Q 1284 391 1588 391 
Q 1994 391 2212 530 
Q 2431 669 2431 922 
Q 2431 1156 2273 1281 
Q 2116 1406 1581 1522 
L 1381 1569 
Q 847 1681 609 1914 
Q 372 2147 372 2553 
Q 372 3047 722 3315 
Q 1072 3584 1716 3584 
Q 2034 3584 2315 3537 
Q 2597 3491 2834 3397 
z
" transform="scale(0.015625)"/>
     </defs>
     <use xlink:href="#DejaVuSans-53"/>
     <use xlink:href="#DejaVuSans-74" x="63.476562"/>
     <use xlink:href="#DejaVuSans-61" x="102.685547"/>
     <use xlink:href="#DejaVuSans-6e" x="163.964844"/>
     <use xlink:href="#DejaVuSans-64" x="227.34375"/>
     <use xlink:href="#DejaVuSans-69" x="290.820312"/>
     <use xlink:href="#DejaVuSans-6e" x="318.603516"/>
     <use xlink:href="#DejaVuSans-67" x="381.982422"/>
     <use xlink:href="#DejaVuSans-73" x="445.458984"/>
    </g>
   </g>
   <g id="legend_1">
    <g id="patch_7">
     <path d="M 57.87 166.983125 
L 153.949688 166.983125 
Q 155.949688 166.983125 155.949688 164.983125 
L 155.949688 33.88 
Q 155.949688 31.88 153.949688 31.88 
L 57.87 31.88 
Q 55.87 31.88 55.87 33.88 
L 55.87 164.983125 
Q 55.87 166.983125 57.87 166.983125 
z
" style="fill: #ffffff; opacity: 0.8; stroke: #cccccc; stroke-linejoin: miter"/>
    </g>
    <g id="line2d_42">
     <path d="M 59.87 39.978437 
L 69.87 39.978437 
L 79.87 39.978437 
" style="fill: none; stroke: #1f77b4; stroke-width: 1.5; stroke-linecap: square"/>
     <g>
      <use xlink:href="#me7bd883d4d" x="69.87" y="39.978437" style="fill: #1f77b4; stroke: #1f77b4"/>
     </g>
    </g>
    <g id="text_19">
     <!-- Alan Ce -->
     <g transform="translate(87.87 43.478437) scale(0.1 -0.1)">
      <defs>
       <path id="DejaVuSans-41" d="M 2188 4044 
L 1331 1722 
L 3047 1722 
L 2188 4044 
z
M 1831 4666 
L 2547 4666 
L 4325 0 
L 3669 0 
L 3244 1197 
L 1141 1197 
L 716 0 
L 50 0 
L 1831 4666 
z
" transform="scale(0.015625)"/>
       <path id="DejaVuSans-6c" d="M 603 4863 
L 1178 4863 
L 1178 0 
L 603 0 
L 603 4863 
z
" transform="scale(0.015625)"/>
       <path id="DejaVuSans-20" transform="scale(0.015625)"/>
       <path id="DejaVuSans-43" d="M 4122 4306 
L 4122 3641 
Q 3803 3938 3442 4084 
Q 3081 4231 2675 4231 
Q 1875 4231 1450 3742 
Q 1025 3253 1025 2328 
Q 1025 1406 1450 917 
Q 1875 428 2675 428 
Q 3081 428 3442 575 
Q 3803 722 4122 1019 
L 4122 359 
Q 3791 134 3420 21 
Q 3050 -91 2638 -91 
Q 1578 -91 968 557 
Q 359 1206 359 2328 
Q 359 3453 968 4101 
Q 1578 4750 2638 4750 
Q 3056 4750 3426 4639 
Q 3797 4528 4122 4306 
z
" transform="scale(0.015625)"/>
      </defs>
      <use xlink:href="#DejaVuSans-41"/>
      <use xlink:href="#DejaVuSans-6c" x="68.408203"/>
      <use xlink:href="#DejaVuSans-61" x="96.191406"/>
      <use xlink:href="#DejaVuSans-6e" x="157.470703"/>
      <use xlink:href="#DejaVuSans-20" x="220.849609"/>
      <use xlink:href="#DejaVuSans-43" x="252.636719"/>
      <use xlink:href="#DejaVuSans-65" x="322.460938"/>
     </g>
    </g>
    <g id="line2d_43">
     <path d="M 59.87 54.656563 
L 69.87 54.656563 
L 79.87 54.656563 
" style="fill: none; stroke: #ff7f0e; stroke-width: 1.5; stroke-linecap: square"/>
     <g>
      <use xlink:href="#m36440f5e3f" x="69.87" y="54.656563" style="fill: #ff7f0e; stroke: #ff7f0e"/>
     </g>
    </g>
    <g id="text_20">
     <!-- Sebastian Le -->
     <g transform="translate(87.87 58.156563) scale(0.1 -0.1)">
      <defs>
       <path id="DejaVuSans-62" d="M 3116 1747 
Q 3116 2381 2855 2742 
Q 2594 3103 2138 3103 
Q 1681 3103 1420 2742 
Q 1159 2381 1159 1747 
Q 1159 1113 1420 752 
Q 1681 391 2138 391 
Q 2594 391 2855 752 
Q 3116 1113 3116 1747 
z
M 1159 2969 
Q 1341 3281 1617 3432 
Q 1894 3584 2278 3584 
Q 2916 3584 3314 3078 
Q 3713 2572 3713 1747 
Q 3713 922 3314 415 
Q 2916 -91 2278 -91 
Q 1894 -91 1617 61 
Q 1341 213 1159 525 
L 1159 0 
L 581 0 
L 581 4863 
L 1159 4863 
L 1159 2969 
z
" transform="scale(0.015625)"/>
       <path id="DejaVuSans-4c" d="M 628 4666 
L 1259 4666 
L 1259 531 
L 3531 531 
L 3531 0 
L 628 0 
L 628 4666 
z
" transform="scale(0.015625)"/>
      </defs>
      <use xlink:href="#DejaVuSans-53"/>
      <use xlink:href="#DejaVuSans-65" x="63.476562"/>
      <use xlink:href="#DejaVuSans-62" x="125"/>
      <use xlink:href="#DejaVuSans-61" x="188.476562"/>
      <use xlink:href="#DejaVuSans-73" x="249.755859"/>
      <use xlink:href="#DejaVuSans-74" x="301.855469"/>
      <use xlink:href="#DejaVuSans-69" x="341.064453"/>
      <use xlink:href="#DejaVuSans-61" x="368.847656"/>
      <use xlink:href="#DejaVuSans-6e" x="430.126953"/>
      <use xlink:href="#DejaVuSans-20" x="493.505859"/>
      <use xlink:href="#DejaVuSans-4c" x="525.292969"/>
      <use xlink:href="#DejaVuSans-65" x="579.255859"/>
     </g>
    </g>
    <g id="line2d_44">
     <path d="M 59.87 69.334687 
L 69.87 69.334687 
L 79.87 69.334687 
" style="fill: none; stroke: #2ca02c; stroke-width: 1.5; stroke-linecap: square"/>
     <g>
      <use xlink:href="#m6bac21178e" x="69.87" y="69.334687" style="fill: #2ca02c; stroke: #2ca02c"/>
     </g>
    </g>
    <g id="text_21">
     <!-- Sarah Gy -->
     <g transform="translate(87.87 72.834687) scale(0.1 -0.1)">
      <defs>
       <path id="DejaVuSans-68" d="M 3513 2113 
L 3513 0 
L 2938 0 
L 2938 2094 
Q 2938 2591 2744 2837 
Q 2550 3084 2163 3084 
Q 1697 3084 1428 2787 
Q 1159 2491 1159 1978 
L 1159 0 
L 581 0 
L 581 4863 
L 1159 4863 
L 1159 2956 
Q 1366 3272 1645 3428 
Q 1925 3584 2291 3584 
Q 2894 3584 3203 3211 
Q 3513 2838 3513 2113 
z
" transform="scale(0.015625)"/>
       <path id="DejaVuSans-47" d="M 3809 666 
L 3809 1919 
L 2778 1919 
L 2778 2438 
L 4434 2438 
L 4434 434 
Q 4069 175 3628 42 
Q 3188 -91 2688 -91 
Q 1594 -91 976 548 
Q 359 1188 359 2328 
Q 359 3472 976 4111 
Q 1594 4750 2688 4750 
Q 3144 4750 3555 4637 
Q 3966 4525 4313 4306 
L 4313 3634 
Q 3963 3931 3569 4081 
Q 3175 4231 2741 4231 
Q 1884 4231 1454 3753 
Q 1025 3275 1025 2328 
Q 1025 1384 1454 906 
Q 1884 428 2741 428 
Q 3075 428 3337 486 
Q 3600 544 3809 666 
z
" transform="scale(0.015625)"/>
       <path id="DejaVuSans-79" d="M 2059 -325 
Q 1816 -950 1584 -1140 
Q 1353 -1331 966 -1331 
L 506 -1331 
L 506 -850 
L 844 -850 
Q 1081 -850 1212 -737 
Q 1344 -625 1503 -206 
L 1606 56 
L 191 3500 
L 800 3500 
L 1894 763 
L 2988 3500 
L 3597 3500 
L 2059 -325 
z
" transform="scale(0.015625)"/>
      </defs>
      <use xlink:href="#DejaVuSans-53"/>
      <use xlink:href="#DejaVuSans-61" x="63.476562"/>
      <use xlink:href="#DejaVuSans-72" x="124.755859"/>
      <use xlink:href="#DejaVuSans-61" x="165.869141"/>
      <use xlink:href="#DejaVuSans-68" x="227.148438"/>
      <use xlink:href="#DejaVuSans-20" x="290.527344"/>
      <use xlink:href="#DejaVuSans-47" x="322.314453"/>
      <use xlink:href="#DejaVuSans-79" x="399.804688"/>
     </g>
    </g>
    <g id="line2d_45">
     <path d="M 59.87 84.012812 
L 69.87 84.012812 
L 79.87 84.012812 
" style="fill: none; stroke: #d62728; stroke-width: 1.5; stroke-linecap: square"/>
     <g>
      <use xlink:href="#m9f59332129" x="69.87" y="84.012812" style="fill: #d62728; stroke: #d62728"/>
     </g>
    </g>
    <g id="text_22">
     <!-- Matias BN -->
     <g transform="translate(87.87 87.512812) scale(0.1 -0.1)">
      <defs>
       <path id="DejaVuSans-4d" d="M 628 4666 
L 1569 4666 
L 2759 1491 
L 3956 4666 
L 4897 4666 
L 4897 0 
L 4281 0 
L 4281 4097 
L 3078 897 
L 2444 897 
L 1241 4097 
L 1241 0 
L 628 0 
L 628 4666 
z
" transform="scale(0.015625)"/>
       <path id="DejaVuSans-42" d="M 1259 2228 
L 1259 519 
L 2272 519 
Q 2781 519 3026 730 
Q 3272 941 3272 1375 
Q 3272 1813 3026 2020 
Q 2781 2228 2272 2228 
L 1259 2228 
z
M 1259 4147 
L 1259 2741 
L 2194 2741 
Q 2656 2741 2882 2914 
Q 3109 3088 3109 3444 
Q 3109 3797 2882 3972 
Q 2656 4147 2194 4147 
L 1259 4147 
z
M 628 4666 
L 2241 4666 
Q 2963 4666 3353 4366 
Q 3744 4066 3744 3513 
Q 3744 3084 3544 2831 
Q 3344 2578 2956 2516 
Q 3422 2416 3680 2098 
Q 3938 1781 3938 1306 
Q 3938 681 3513 340 
Q 3088 0 2303 0 
L 628 0 
L 628 4666 
z
" transform="scale(0.015625)"/>
       <path id="DejaVuSans-4e" d="M 628 4666 
L 1478 4666 
L 3547 763 
L 3547 4666 
L 4159 4666 
L 4159 0 
L 3309 0 
L 1241 3903 
L 1241 0 
L 628 0 
L 628 4666 
z
" transform="scale(0.015625)"/>
      </defs>
      <use xlink:href="#DejaVuSans-4d"/>
      <use xlink:href="#DejaVuSans-61" x="86.279297"/>
      <use xlink:href="#DejaVuSans-74" x="147.558594"/>
      <use xlink:href="#DejaVuSans-69" x="186.767578"/>
      <use xlink:href="#DejaVuSans-61" x="214.550781"/>
      <use xlink:href="#DejaVuSans-73" x="275.830078"/>
      <use xlink:href="#DejaVuSans-20" x="327.929688"/>
      <use xlink:href="#DejaVuSans-42" x="359.716797"/>
      <use xlink:href="#DejaVuSans-4e" x="428.320312"/>
     </g>
    </g>
    <g id="line2d_46">
     <path d="M 59.87 98.690938 
L 69.87 98.690938 
L 79.87 98.690938 
" style="fill: none; stroke: #9467bd; stroke-width: 1.5; stroke-linecap: square"/>
     <g>
      <use xlink:href="#m0a7c3b5616" x="69.87" y="98.690938" style="fill: #9467bd; stroke: #9467bd"/>
     </g>
    </g>
    <g id="text_23">
     <!-- Christian Gr -->
     <g transform="translate(87.87 102.190938) scale(0.1 -0.1)">
      <use xlink:href="#DejaVuSans-43"/>
      <use xlink:href="#DejaVuSans-68" x="69.824219"/>
      <use xlink:href="#DejaVuSans-72" x="133.203125"/>
      <use xlink:href="#DejaVuSans-69" x="174.316406"/>
      <use xlink:href="#DejaVuSans-73" x="202.099609"/>
      <use xlink:href="#DejaVuSans-74" x="254.199219"/>
      <use xlink:href="#DejaVuSans-69" x="293.408203"/>
      <use xlink:href="#DejaVuSans-61" x="321.191406"/>
      <use xlink:href="#DejaVuSans-6e" x="382.470703"/>
      <use xlink:href="#DejaVuSans-20" x="445.849609"/>
      <use xlink:href="#DejaVuSans-47" x="477.636719"/>
      <use xlink:href="#DejaVuSans-72" x="555.126953"/>
     </g>
    </g>
    <g id="line2d_47">
     <path d="M 59.87 113.369062 
L 69.87 113.369062 
L 79.87 113.369062 
" style="fill: none; stroke: #8c564b; stroke-width: 1.5; stroke-linecap: square"/>
     <g>
      <use xlink:href="#mbe087485d0" x="69.87" y="113.369062" style="fill: #8c564b; stroke: #8c564b"/>
     </g>
    </g>
    <g id="text_24">
     <!-- Oscar En -->
     <g transform="translate(87.87 116.869062) scale(0.1 -0.1)">
      <defs>
       <path id="DejaVuSans-4f" d="M 2522 4238 
Q 1834 4238 1429 3725 
Q 1025 3213 1025 2328 
Q 1025 1447 1429 934 
Q 1834 422 2522 422 
Q 3209 422 3611 934 
Q 4013 1447 4013 2328 
Q 4013 3213 3611 3725 
Q 3209 4238 2522 4238 
z
M 2522 4750 
Q 3503 4750 4090 4092 
Q 4678 3434 4678 2328 
Q 4678 1225 4090 567 
Q 3503 -91 2522 -91 
Q 1538 -91 948 565 
Q 359 1222 359 2328 
Q 359 3434 948 4092 
Q 1538 4750 2522 4750 
z
" transform="scale(0.015625)"/>
       <path id="DejaVuSans-45" d="M 628 4666 
L 3578 4666 
L 3578 4134 
L 1259 4134 
L 1259 2753 
L 3481 2753 
L 3481 2222 
L 1259 2222 
L 1259 531 
L 3634 531 
L 3634 0 
L 628 0 
L 628 4666 
z
" transform="scale(0.015625)"/>
      </defs>
      <use xlink:href="#DejaVuSans-4f"/>
      <use xlink:href="#DejaVuSans-73" x="78.710938"/>
      <use xlink:href="#DejaVuSans-63" x="130.810547"/>
      <use xlink:href="#DejaVuSans-61" x="185.791016"/>
      <use xlink:href="#DejaVuSans-72" x="247.070312"/>
      <use xlink:href="#DejaVuSans-20" x="288.183594"/>
      <use xlink:href="#DejaVuSans-45" x="319.970703"/>
      <use xlink:href="#DejaVuSans-6e" x="383.154297"/>
     </g>
    </g>
    <g id="line2d_48">
     <path d="M 59.87 128.047187 
L 69.87 128.047187 
L 79.87 128.047187 
" style="fill: none; stroke: #e377c2; stroke-width: 1.5; stroke-linecap: square"/>
     <g>
      <use xlink:href="#m75882ad9ee" x="69.87" y="128.047187" style="fill: #e377c2; stroke: #e377c2"/>
     </g>
    </g>
    <g id="text_25">
     <!-- Bjarke Ha -->
     <g transform="translate(87.87 131.547187) scale(0.1 -0.1)">
      <defs>
       <path id="DejaVuSans-6a" d="M 603 3500 
L 1178 3500 
L 1178 -63 
Q 1178 -731 923 -1031 
Q 669 -1331 103 -1331 
L -116 -1331 
L -116 -844 
L 38 -844 
Q 366 -844 484 -692 
Q 603 -541 603 -63 
L 603 3500 
z
M 603 4863 
L 1178 4863 
L 1178 4134 
L 603 4134 
L 603 4863 
z
" transform="scale(0.015625)"/>
       <path id="DejaVuSans-6b" d="M 581 4863 
L 1159 4863 
L 1159 1991 
L 2875 3500 
L 3609 3500 
L 1753 1863 
L 3688 0 
L 2938 0 
L 1159 1709 
L 1159 0 
L 581 0 
L 581 4863 
z
" transform="scale(0.015625)"/>
       <path id="DejaVuSans-48" d="M 628 4666 
L 1259 4666 
L 1259 2753 
L 3553 2753 
L 3553 4666 
L 4184 4666 
L 4184 0 
L 3553 0 
L 3553 2222 
L 1259 2222 
L 1259 0 
L 628 0 
L 628 4666 
z
" transform="scale(0.015625)"/>
      </defs>
      <use xlink:href="#DejaVuSans-42"/>
      <use xlink:href="#DejaVuSans-6a" x="68.603516"/>
      <use xlink:href="#DejaVuSans-61" x="96.386719"/>
      <use xlink:href="#DejaVuSans-72" x="157.666016"/>
      <use xlink:href="#DejaVuSans-6b" x="198.779297"/>
      <use xlink:href="#DejaVuSans-65" x="253.064453"/>
      <use xlink:href="#DejaVuSans-20" x="314.587891"/>
      <use xlink:href="#DejaVuSans-48" x="346.375"/>
      <use xlink:href="#DejaVuSans-61" x="421.570312"/>
     </g>
    </g>
    <g id="line2d_49">
     <path d="M 59.87 142.725312 
L 69.87 142.725312 
L 79.87 142.725312 
" style="fill: none; stroke: #7f7f7f; stroke-width: 1.5; stroke-linecap: square"/>
     <g>
      <use xlink:href="#m429e75039a" x="69.87" y="142.725312" style="fill: #7f7f7f; stroke: #7f7f7f"/>
     </g>
    </g>
    <g id="text_26">
     <!-- Sif Ma -->
     <g transform="translate(87.87 146.225312) scale(0.1 -0.1)">
      <defs>
       <path id="DejaVuSans-66" d="M 2375 4863 
L 2375 4384 
L 1825 4384 
Q 1516 4384 1395 4259 
Q 1275 4134 1275 3809 
L 1275 3500 
L 2222 3500 
L 2222 3053 
L 1275 3053 
L 1275 0 
L 697 0 
L 697 3053 
L 147 3053 
L 147 3500 
L 697 3500 
L 697 3744 
Q 697 4328 969 4595 
Q 1241 4863 1831 4863 
L 2375 4863 
z
" transform="scale(0.015625)"/>
      </defs>
      <use xlink:href="#DejaVuSans-53"/>
      <use xlink:href="#DejaVuSans-69" x="63.476562"/>
      <use xlink:href="#DejaVuSans-66" x="91.259766"/>
      <use xlink:href="#DejaVuSans-20" x="126.464844"/>
      <use xlink:href="#DejaVuSans-4d" x="158.251953"/>
      <use xlink:href="#DejaVuSans-61" x="244.53125"/>
     </g>
    </g>
    <g id="line2d_50">
     <path d="M 59.87 157.403437 
L 69.87 157.403437 
L 79.87 157.403437 
" style="fill: none; stroke: #bcbd22; stroke-width: 1.5; stroke-linecap: square"/>
     <g>
      <use xlink:href="#m39c4be9ced" x="69.87" y="157.403437" style="fill: #bcbd22; stroke: #bcbd22"/>
     </g>
    </g>
    <g id="text_27">
     <!-- Helene Cl -->
     <g transform="translate(87.87 160.903437) scale(0.1 -0.1)">
      <use xlink:href="#DejaVuSans-48"/>
      <use xlink:href="#DejaVuSans-65" x="75.195312"/>
      <use xlink:href="#DejaVuSans-6c" x="136.71875"/>
      <use xlink:href="#DejaVuSans-65" x="164.501953"/>
      <use xlink:href="#DejaVuSans-6e" x="226.025391"/>
      <use xlink:href="#DejaVuSans-65" x="289.404297"/>
      <use xlink:href="#DejaVuSans-20" x="350.927734"/>
      <use xlink:href="#DejaVuSans-43" x="382.714844"/>
      <use xlink:href="#DejaVuSans-6c" x="452.539062"/>
     </g>
    </g>
   </g>
  </g>
 </g>
 <defs>
  <clipPath id="pba6be601d6">
   <rect x="50.87" y="26.88" width="802.33" height="377.24"/>
  </clipPath>
 </defs>
</svg>
