<?xml version="1.0" encoding="utf-8" standalone="no"?>
<!DOCTYPE svg PUBLIC "-//W3C//DTD SVG 1.1//EN"
  "http://www.w3.org/Graphics/SVG/1.1/DTD/svg11.dtd">
<svg xmlns:xlink="http://www.w3.org/1999/xlink" width="864pt" height="432pt" viewBox="0 0 864 432" xmlns="http://www.w3.org/2000/svg" version="1.1">
 <metadata>
  <rdf:RDF xmlns:dc="http://purl.org/dc/elements/1.1/" xmlns:cc="http://creativecommons.org/ns#" xmlns:rdf="http://www.w3.org/1999/02/22-rdf-syntax-ns#">
   <cc:Work>
    <dc:type rdf:resource="http://purl.org/dc/dcmitype/StillImage"/>
    <dc:date>2024-07-02T18:33:42.197741</dc:date>
    <dc:format>image/svg+xml</dc:format>
    <dc:creator>
     <cc:Agent>
      <dc:title>Matplotlib v3.9.0, https://matplotlib.org/</dc:title>
     </cc:Agent>
    </dc:creator>
   </cc:Work>
  </rdf:RDF>
 </metadata>
 <defs>
  <style type="text/css">*{stroke-linejoin: round; stroke-linecap: butt}</style>
 </defs>
 <g id="figure_1">
  <g id="patch_1">
   <path d="M 0 432 
L 864 432 
L 864 0 
L 0 0 
z
" style="fill: #ffffff"/>
  </g>
  <g id="axes_1">
   <g id="patch_2">
    <path d="M 50.87 404.12 
L 853.2 404.12 
L 853.2 26.88 
L 50.87 26.88 
z
" style="fill: #ffffff"/>
   </g>
   <g id="matplotlib.axis_1">
    <g id="xtick_1">
     <g id="line2d_1">
      <path d="M 127.861263 404.12 
L 127.861263 26.88 
" clip-path="url(#p0469b32ad3)" style="fill: none; stroke-dasharray: 2.96,1.28; stroke-dashoffset: 0; stroke: #b0b0b0; stroke-width: 0.8"/>
     </g>
     <g id="line2d_2">
      <defs>
       <path id="m160ce27c9e" d="M 0 0 
L 0 3.5 
" style="stroke: #000000; stroke-width: 0.8"/>
      </defs>
      <g>
       <use xlink:href="#m160ce27c9e" x="127.861263" y="404.12" style="stroke: #000000; stroke-width: 0.8"/>
      </g>
     </g>
     <g id="text_1">
      <!-- 2024-06-15 -->
      <g transform="translate(98.80345 418.718437) scale(0.1 -0.1)">
       <defs>
        <path id="DejaVuSans-32" d="M 1228 531 
L 3431 531 
L 3431 0 
L 469 0 
L 469 531 
Q 828 903 1448 1529 
Q 2069 2156 2228 2338 
Q 2531 2678 2651 2914 
Q 2772 3150 2772 3378 
Q 2772 3750 2511 3984 
Q 2250 4219 1831 4219 
Q 1534 4219 1204 4116 
Q 875 4013 500 3803 
L 500 4441 
Q 881 4594 1212 4672 
Q 1544 4750 1819 4750 
Q 2544 4750 2975 4387 
Q 3406 4025 3406 3419 
Q 3406 3131 3298 2873 
Q 3191 2616 2906 2266 
Q 2828 2175 2409 1742 
Q 1991 1309 1228 531 
z
" transform="scale(0.015625)"/>
        <path id="DejaVuSans-30" d="M 2034 4250 
Q 1547 4250 1301 3770 
Q 1056 3291 1056 2328 
Q 1056 1369 1301 889 
Q 1547 409 2034 409 
Q 2525 409 2770 889 
Q 3016 1369 3016 2328 
Q 3016 3291 2770 3770 
Q 2525 4250 2034 4250 
z
M 2034 4750 
Q 2819 4750 3233 4129 
Q 3647 3509 3647 2328 
Q 3647 1150 3233 529 
Q 2819 -91 2034 -91 
Q 1250 -91 836 529 
Q 422 1150 422 2328 
Q 422 3509 836 4129 
Q 1250 4750 2034 4750 
z
" transform="scale(0.015625)"/>
        <path id="DejaVuSans-34" d="M 2419 4116 
L 825 1625 
L 2419 1625 
L 2419 4116 
z
M 2253 4666 
L 3047 4666 
L 3047 1625 
L 3713 1625 
L 3713 1100 
L 3047 1100 
L 3047 0 
L 2419 0 
L 2419 1100 
L 313 1100 
L 313 1709 
L 2253 4666 
z
" transform="scale(0.015625)"/>
        <path id="DejaVuSans-2d" d="M 313 2009 
L 1997 2009 
L 1997 1497 
L 313 1497 
L 313 2009 
z
" transform="scale(0.015625)"/>
        <path id="DejaVuSans-36" d="M 2113 2584 
Q 1688 2584 1439 2293 
Q 1191 2003 1191 1497 
Q 1191 994 1439 701 
Q 1688 409 2113 409 
Q 2538 409 2786 701 
Q 3034 994 3034 1497 
Q 3034 2003 2786 2293 
Q 2538 2584 2113 2584 
z
M 3366 4563 
L 3366 3988 
Q 3128 4100 2886 4159 
Q 2644 4219 2406 4219 
Q 1781 4219 1451 3797 
Q 1122 3375 1075 2522 
Q 1259 2794 1537 2939 
Q 1816 3084 2150 3084 
Q 2853 3084 3261 2657 
Q 3669 2231 3669 1497 
Q 3669 778 3244 343 
Q 2819 -91 2113 -91 
Q 1303 -91 875 529 
Q 447 1150 447 2328 
Q 447 3434 972 4092 
Q 1497 4750 2381 4750 
Q 2619 4750 2861 4703 
Q 3103 4656 3366 4563 
z
" transform="scale(0.015625)"/>
        <path id="DejaVuSans-31" d="M 794 531 
L 1825 531 
L 1825 4091 
L 703 3866 
L 703 4441 
L 1819 4666 
L 2450 4666 
L 2450 531 
L 3481 531 
L 3481 0 
L 794 0 
L 794 531 
z
" transform="scale(0.015625)"/>
        <path id="DejaVuSans-35" d="M 691 4666 
L 3169 4666 
L 3169 4134 
L 1269 4134 
L 1269 2991 
Q 1406 3038 1543 3061 
Q 1681 3084 1819 3084 
Q 2600 3084 3056 2656 
Q 3513 2228 3513 1497 
Q 3513 744 3044 326 
Q 2575 -91 1722 -91 
Q 1428 -91 1123 -41 
Q 819 9 494 109 
L 494 744 
Q 775 591 1075 516 
Q 1375 441 1709 441 
Q 2250 441 2565 725 
Q 2881 1009 2881 1497 
Q 2881 1984 2565 2268 
Q 2250 2553 1709 2553 
Q 1456 2553 1204 2497 
Q 953 2441 691 2322 
L 691 4666 
z
" transform="scale(0.015625)"/>
       </defs>
       <use xlink:href="#DejaVuSans-32"/>
       <use xlink:href="#DejaVuSans-30" x="63.623047"/>
       <use xlink:href="#DejaVuSans-32" x="127.246094"/>
       <use xlink:href="#DejaVuSans-34" x="190.869141"/>
       <use xlink:href="#DejaVuSans-2d" x="254.492188"/>
       <use xlink:href="#DejaVuSans-30" x="290.576172"/>
       <use xlink:href="#DejaVuSans-36" x="354.199219"/>
       <use xlink:href="#DejaVuSans-2d" x="417.822266"/>
       <use xlink:href="#DejaVuSans-31" x="453.90625"/>
       <use xlink:href="#DejaVuSans-35" x="517.529297"/>
      </g>
     </g>
    </g>
    <g id="xtick_2">
     <g id="line2d_3">
      <path d="M 208.904697 404.12 
L 208.904697 26.88 
" clip-path="url(#p0469b32ad3)" style="fill: none; stroke-dasharray: 2.96,1.28; stroke-dashoffset: 0; stroke: #b0b0b0; stroke-width: 0.8"/>
     </g>
     <g id="line2d_4">
      <g>
       <use xlink:href="#m160ce27c9e" x="208.904697" y="404.12" style="stroke: #000000; stroke-width: 0.8"/>
      </g>
     </g>
     <g id="text_2">
      <!-- 2024-06-17 -->
      <g transform="translate(179.846884 418.718437) scale(0.1 -0.1)">
       <defs>
        <path id="DejaVuSans-37" d="M 525 4666 
L 3525 4666 
L 3525 4397 
L 1831 0 
L 1172 0 
L 2766 4134 
L 525 4134 
L 525 4666 
z
" transform="scale(0.015625)"/>
       </defs>
       <use xlink:href="#DejaVuSans-32"/>
       <use xlink:href="#DejaVuSans-30" x="63.623047"/>
       <use xlink:href="#DejaVuSans-32" x="127.246094"/>
       <use xlink:href="#DejaVuSans-34" x="190.869141"/>
       <use xlink:href="#DejaVuSans-2d" x="254.492188"/>
       <use xlink:href="#DejaVuSans-30" x="290.576172"/>
       <use xlink:href="#DejaVuSans-36" x="354.199219"/>
       <use xlink:href="#DejaVuSans-2d" x="417.822266"/>
       <use xlink:href="#DejaVuSans-31" x="453.90625"/>
       <use xlink:href="#DejaVuSans-37" x="517.529297"/>
      </g>
     </g>
    </g>
    <g id="xtick_3">
     <g id="line2d_5">
      <path d="M 289.948131 404.12 
L 289.948131 26.88 
" clip-path="url(#p0469b32ad3)" style="fill: none; stroke-dasharray: 2.96,1.28; stroke-dashoffset: 0; stroke: #b0b0b0; stroke-width: 0.8"/>
     </g>
     <g id="line2d_6">
      <g>
       <use xlink:href="#m160ce27c9e" x="289.948131" y="404.12" style="stroke: #000000; stroke-width: 0.8"/>
      </g>
     </g>
     <g id="text_3">
      <!-- 2024-06-19 -->
      <g transform="translate(260.890319 418.718437) scale(0.1 -0.1)">
       <defs>
        <path id="DejaVuSans-39" d="M 703 97 
L 703 672 
Q 941 559 1184 500 
Q 1428 441 1663 441 
Q 2288 441 2617 861 
Q 2947 1281 2994 2138 
Q 2813 1869 2534 1725 
Q 2256 1581 1919 1581 
Q 1219 1581 811 2004 
Q 403 2428 403 3163 
Q 403 3881 828 4315 
Q 1253 4750 1959 4750 
Q 2769 4750 3195 4129 
Q 3622 3509 3622 2328 
Q 3622 1225 3098 567 
Q 2575 -91 1691 -91 
Q 1453 -91 1209 -44 
Q 966 3 703 97 
z
M 1959 2075 
Q 2384 2075 2632 2365 
Q 2881 2656 2881 3163 
Q 2881 3666 2632 3958 
Q 2384 4250 1959 4250 
Q 1534 4250 1286 3958 
Q 1038 3666 1038 3163 
Q 1038 2656 1286 2365 
Q 1534 2075 1959 2075 
z
" transform="scale(0.015625)"/>
       </defs>
       <use xlink:href="#DejaVuSans-32"/>
       <use xlink:href="#DejaVuSans-30" x="63.623047"/>
       <use xlink:href="#DejaVuSans-32" x="127.246094"/>
       <use xlink:href="#DejaVuSans-34" x="190.869141"/>
       <use xlink:href="#DejaVuSans-2d" x="254.492188"/>
       <use xlink:href="#DejaVuSans-30" x="290.576172"/>
       <use xlink:href="#DejaVuSans-36" x="354.199219"/>
       <use xlink:href="#DejaVuSans-2d" x="417.822266"/>
       <use xlink:href="#DejaVuSans-31" x="453.90625"/>
       <use xlink:href="#DejaVuSans-39" x="517.529297"/>
      </g>
     </g>
    </g>
    <g id="xtick_4">
     <g id="line2d_7">
      <path d="M 370.991566 404.12 
L 370.991566 26.88 
" clip-path="url(#p0469b32ad3)" style="fill: none; stroke-dasharray: 2.96,1.28; stroke-dashoffset: 0; stroke: #b0b0b0; stroke-width: 0.8"/>
     </g>
     <g id="line2d_8">
      <g>
       <use xlink:href="#m160ce27c9e" x="370.991566" y="404.12" style="stroke: #000000; stroke-width: 0.8"/>
      </g>
     </g>
     <g id="text_4">
      <!-- 2024-06-21 -->
      <g transform="translate(341.933753 418.718437) scale(0.1 -0.1)">
       <use xlink:href="#DejaVuSans-32"/>
       <use xlink:href="#DejaVuSans-30" x="63.623047"/>
       <use xlink:href="#DejaVuSans-32" x="127.246094"/>
       <use xlink:href="#DejaVuSans-34" x="190.869141"/>
       <use xlink:href="#DejaVuSans-2d" x="254.492188"/>
       <use xlink:href="#DejaVuSans-30" x="290.576172"/>
       <use xlink:href="#DejaVuSans-36" x="354.199219"/>
       <use xlink:href="#DejaVuSans-2d" x="417.822266"/>
       <use xlink:href="#DejaVuSans-32" x="453.90625"/>
       <use xlink:href="#DejaVuSans-31" x="517.529297"/>
      </g>
     </g>
    </g>
    <g id="xtick_5">
     <g id="line2d_9">
      <path d="M 452.035 404.12 
L 452.035 26.88 
" clip-path="url(#p0469b32ad3)" style="fill: none; stroke-dasharray: 2.96,1.28; stroke-dashoffset: 0; stroke: #b0b0b0; stroke-width: 0.8"/>
     </g>
     <g id="line2d_10">
      <g>
       <use xlink:href="#m160ce27c9e" x="452.035" y="404.12" style="stroke: #000000; stroke-width: 0.8"/>
      </g>
     </g>
     <g id="text_5">
      <!-- 2024-06-23 -->
      <g transform="translate(422.977188 418.718437) scale(0.1 -0.1)">
       <defs>
        <path id="DejaVuSans-33" d="M 2597 2516 
Q 3050 2419 3304 2112 
Q 3559 1806 3559 1356 
Q 3559 666 3084 287 
Q 2609 -91 1734 -91 
Q 1441 -91 1130 -33 
Q 819 25 488 141 
L 488 750 
Q 750 597 1062 519 
Q 1375 441 1716 441 
Q 2309 441 2620 675 
Q 2931 909 2931 1356 
Q 2931 1769 2642 2001 
Q 2353 2234 1838 2234 
L 1294 2234 
L 1294 2753 
L 1863 2753 
Q 2328 2753 2575 2939 
Q 2822 3125 2822 3475 
Q 2822 3834 2567 4026 
Q 2313 4219 1838 4219 
Q 1578 4219 1281 4162 
Q 984 4106 628 3988 
L 628 4550 
Q 988 4650 1302 4700 
Q 1616 4750 1894 4750 
Q 2613 4750 3031 4423 
Q 3450 4097 3450 3541 
Q 3450 3153 3228 2886 
Q 3006 2619 2597 2516 
z
" transform="scale(0.015625)"/>
       </defs>
       <use xlink:href="#DejaVuSans-32"/>
       <use xlink:href="#DejaVuSans-30" x="63.623047"/>
       <use xlink:href="#DejaVuSans-32" x="127.246094"/>
       <use xlink:href="#DejaVuSans-34" x="190.869141"/>
       <use xlink:href="#DejaVuSans-2d" x="254.492188"/>
       <use xlink:href="#DejaVuSans-30" x="290.576172"/>
       <use xlink:href="#DejaVuSans-36" x="354.199219"/>
       <use xlink:href="#DejaVuSans-2d" x="417.822266"/>
       <use xlink:href="#DejaVuSans-32" x="453.90625"/>
       <use xlink:href="#DejaVuSans-33" x="517.529297"/>
      </g>
     </g>
    </g>
    <g id="xtick_6">
     <g id="line2d_11">
      <path d="M 533.078434 404.12 
L 533.078434 26.88 
" clip-path="url(#p0469b32ad3)" style="fill: none; stroke-dasharray: 2.96,1.28; stroke-dashoffset: 0; stroke: #b0b0b0; stroke-width: 0.8"/>
     </g>
     <g id="line2d_12">
      <g>
       <use xlink:href="#m160ce27c9e" x="533.078434" y="404.12" style="stroke: #000000; stroke-width: 0.8"/>
      </g>
     </g>
     <g id="text_6">
      <!-- 2024-06-25 -->
      <g transform="translate(504.020622 418.718437) scale(0.1 -0.1)">
       <use xlink:href="#DejaVuSans-32"/>
       <use xlink:href="#DejaVuSans-30" x="63.623047"/>
       <use xlink:href="#DejaVuSans-32" x="127.246094"/>
       <use xlink:href="#DejaVuSans-34" x="190.869141"/>
       <use xlink:href="#DejaVuSans-2d" x="254.492188"/>
       <use xlink:href="#DejaVuSans-30" x="290.576172"/>
       <use xlink:href="#DejaVuSans-36" x="354.199219"/>
       <use xlink:href="#DejaVuSans-2d" x="417.822266"/>
       <use xlink:href="#DejaVuSans-32" x="453.90625"/>
       <use xlink:href="#DejaVuSans-35" x="517.529297"/>
      </g>
     </g>
    </g>
    <g id="xtick_7">
     <g id="line2d_13">
      <path d="M 614.121869 404.12 
L 614.121869 26.88 
" clip-path="url(#p0469b32ad3)" style="fill: none; stroke-dasharray: 2.96,1.28; stroke-dashoffset: 0; stroke: #b0b0b0; stroke-width: 0.8"/>
     </g>
     <g id="line2d_14">
      <g>
       <use xlink:href="#m160ce27c9e" x="614.121869" y="404.12" style="stroke: #000000; stroke-width: 0.8"/>
      </g>
     </g>
     <g id="text_7">
      <!-- 2024-06-27 -->
      <g transform="translate(585.064056 418.718437) scale(0.1 -0.1)">
       <use xlink:href="#DejaVuSans-32"/>
       <use xlink:href="#DejaVuSans-30" x="63.623047"/>
       <use xlink:href="#DejaVuSans-32" x="127.246094"/>
       <use xlink:href="#DejaVuSans-34" x="190.869141"/>
       <use xlink:href="#DejaVuSans-2d" x="254.492188"/>
       <use xlink:href="#DejaVuSans-30" x="290.576172"/>
       <use xlink:href="#DejaVuSans-36" x="354.199219"/>
       <use xlink:href="#DejaVuSans-2d" x="417.822266"/>
       <use xlink:href="#DejaVuSans-32" x="453.90625"/>
       <use xlink:href="#DejaVuSans-37" x="517.529297"/>
      </g>
     </g>
    </g>
    <g id="xtick_8">
     <g id="line2d_15">
      <path d="M 695.165303 404.12 
L 695.165303 26.88 
" clip-path="url(#p0469b32ad3)" style="fill: none; stroke-dasharray: 2.96,1.28; stroke-dashoffset: 0; stroke: #b0b0b0; stroke-width: 0.8"/>
     </g>
     <g id="line2d_16">
      <g>
       <use xlink:href="#m160ce27c9e" x="695.165303" y="404.12" style="stroke: #000000; stroke-width: 0.8"/>
      </g>
     </g>
     <g id="text_8">
      <!-- 2024-06-29 -->
      <g transform="translate(666.107491 418.718437) scale(0.1 -0.1)">
       <use xlink:href="#DejaVuSans-32"/>
       <use xlink:href="#DejaVuSans-30" x="63.623047"/>
       <use xlink:href="#DejaVuSans-32" x="127.246094"/>
       <use xlink:href="#DejaVuSans-34" x="190.869141"/>
       <use xlink:href="#DejaVuSans-2d" x="254.492188"/>
       <use xlink:href="#DejaVuSans-30" x="290.576172"/>
       <use xlink:href="#DejaVuSans-36" x="354.199219"/>
       <use xlink:href="#DejaVuSans-2d" x="417.822266"/>
       <use xlink:href="#DejaVuSans-32" x="453.90625"/>
       <use xlink:href="#DejaVuSans-39" x="517.529297"/>
      </g>
     </g>
    </g>
    <g id="xtick_9">
     <g id="line2d_17">
      <path d="M 776.208737 404.12 
L 776.208737 26.88 
" clip-path="url(#p0469b32ad3)" style="fill: none; stroke-dasharray: 2.96,1.28; stroke-dashoffset: 0; stroke: #b0b0b0; stroke-width: 0.8"/>
     </g>
     <g id="line2d_18">
      <g>
       <use xlink:href="#m160ce27c9e" x="776.208737" y="404.12" style="stroke: #000000; stroke-width: 0.8"/>
      </g>
     </g>
     <g id="text_9">
      <!-- 2024-07-01 -->
      <g transform="translate(747.150925 418.718437) scale(0.1 -0.1)">
       <use xlink:href="#DejaVuSans-32"/>
       <use xlink:href="#DejaVuSans-30" x="63.623047"/>
       <use xlink:href="#DejaVuSans-32" x="127.246094"/>
       <use xlink:href="#DejaVuSans-34" x="190.869141"/>
       <use xlink:href="#DejaVuSans-2d" x="254.492188"/>
       <use xlink:href="#DejaVuSans-30" x="290.576172"/>
       <use xlink:href="#DejaVuSans-37" x="354.199219"/>
       <use xlink:href="#DejaVuSans-2d" x="417.822266"/>
       <use xlink:href="#DejaVuSans-30" x="453.90625"/>
       <use xlink:href="#DejaVuSans-31" x="517.529297"/>
      </g>
     </g>
    </g>
   </g>
   <g id="matplotlib.axis_2">
    <g id="ytick_1">
     <g id="line2d_19">
      <path d="M 50.87 393.834465 
L 853.2 393.834465 
" clip-path="url(#p0469b32ad3)" style="fill: none; stroke-dasharray: 2.96,1.28; stroke-dashoffset: 0; stroke: #b0b0b0; stroke-width: 0.8"/>
     </g>
     <g id="line2d_20">
      <defs>
       <path id="m93ec303b8e" d="M 0 0 
L -3.5 0 
" style="stroke: #000000; stroke-width: 0.8"/>
      </defs>
      <g>
       <use xlink:href="#m93ec303b8e" x="50.87" y="393.834465" style="stroke: #000000; stroke-width: 0.8"/>
      </g>
     </g>
     <g id="text_10">
      <!-- 0 -->
      <g transform="translate(37.5075 397.633683) scale(0.1 -0.1)">
       <use xlink:href="#DejaVuSans-30"/>
      </g>
     </g>
    </g>
    <g id="ytick_2">
     <g id="line2d_21">
      <path d="M 50.87 323.875848 
L 853.2 323.875848 
" clip-path="url(#p0469b32ad3)" style="fill: none; stroke-dasharray: 2.96,1.28; stroke-dashoffset: 0; stroke: #b0b0b0; stroke-width: 0.8"/>
     </g>
     <g id="line2d_22">
      <g>
       <use xlink:href="#m93ec303b8e" x="50.87" y="323.875848" style="stroke: #000000; stroke-width: 0.8"/>
      </g>
     </g>
     <g id="text_11">
      <!-- 50 -->
      <g transform="translate(31.145 327.675067) scale(0.1 -0.1)">
       <use xlink:href="#DejaVuSans-35"/>
       <use xlink:href="#DejaVuSans-30" x="63.623047"/>
      </g>
     </g>
    </g>
    <g id="ytick_3">
     <g id="line2d_23">
      <path d="M 50.87 253.917231 
L 853.2 253.917231 
" clip-path="url(#p0469b32ad3)" style="fill: none; stroke-dasharray: 2.96,1.28; stroke-dashoffset: 0; stroke: #b0b0b0; stroke-width: 0.8"/>
     </g>
     <g id="line2d_24">
      <g>
       <use xlink:href="#m93ec303b8e" x="50.87" y="253.917231" style="stroke: #000000; stroke-width: 0.8"/>
      </g>
     </g>
     <g id="text_12">
      <!-- 100 -->
      <g transform="translate(24.7825 257.71645) scale(0.1 -0.1)">
       <use xlink:href="#DejaVuSans-31"/>
       <use xlink:href="#DejaVuSans-30" x="63.623047"/>
       <use xlink:href="#DejaVuSans-30" x="127.246094"/>
      </g>
     </g>
    </g>
    <g id="ytick_4">
     <g id="line2d_25">
      <path d="M 50.87 183.958614 
L 853.2 183.958614 
" clip-path="url(#p0469b32ad3)" style="fill: none; stroke-dasharray: 2.96,1.28; stroke-dashoffset: 0; stroke: #b0b0b0; stroke-width: 0.8"/>
     </g>
     <g id="line2d_26">
      <g>
       <use xlink:href="#m93ec303b8e" x="50.87" y="183.958614" style="stroke: #000000; stroke-width: 0.8"/>
      </g>
     </g>
     <g id="text_13">
      <!-- 150 -->
      <g transform="translate(24.7825 187.757833) scale(0.1 -0.1)">
       <use xlink:href="#DejaVuSans-31"/>
       <use xlink:href="#DejaVuSans-35" x="63.623047"/>
       <use xlink:href="#DejaVuSans-30" x="127.246094"/>
      </g>
     </g>
    </g>
    <g id="ytick_5">
     <g id="line2d_27">
      <path d="M 50.87 113.999997 
L 853.2 113.999997 
" clip-path="url(#p0469b32ad3)" style="fill: none; stroke-dasharray: 2.96,1.28; stroke-dashoffset: 0; stroke: #b0b0b0; stroke-width: 0.8"/>
     </g>
     <g id="line2d_28">
      <g>
       <use xlink:href="#m93ec303b8e" x="50.87" y="113.999997" style="stroke: #000000; stroke-width: 0.8"/>
      </g>
     </g>
     <g id="text_14">
      <!-- 200 -->
      <g transform="translate(24.7825 117.799216) scale(0.1 -0.1)">
       <use xlink:href="#DejaVuSans-32"/>
       <use xlink:href="#DejaVuSans-30" x="63.623047"/>
       <use xlink:href="#DejaVuSans-30" x="127.246094"/>
      </g>
     </g>
    </g>
    <g id="ytick_6">
     <g id="line2d_29">
      <path d="M 50.87 44.04138 
L 853.2 44.04138 
" clip-path="url(#p0469b32ad3)" style="fill: none; stroke-dasharray: 2.96,1.28; stroke-dashoffset: 0; stroke: #b0b0b0; stroke-width: 0.8"/>
     </g>
     <g id="line2d_30">
      <g>
       <use xlink:href="#m93ec303b8e" x="50.87" y="44.04138" style="stroke: #000000; stroke-width: 0.8"/>
      </g>
     </g>
     <g id="text_15">
      <!-- 250 -->
      <g transform="translate(24.7825 47.840599) scale(0.1 -0.1)">
       <use xlink:href="#DejaVuSans-32"/>
       <use xlink:href="#DejaVuSans-35" x="63.623047"/>
       <use xlink:href="#DejaVuSans-30" x="127.246094"/>
      </g>
     </g>
    </g>
    <g id="text_16">
     <!-- Score -->
     <g transform="translate(18.702813 229.502344) rotate(-90) scale(0.1 -0.1)">
      <defs>
       <path id="DejaVuSans-53" d="M 3425 4513 
L 3425 3897 
Q 3066 4069 2747 4153 
Q 2428 4238 2131 4238 
Q 1616 4238 1336 4038 
Q 1056 3838 1056 3469 
Q 1056 3159 1242 3001 
Q 1428 2844 1947 2747 
L 2328 2669 
Q 3034 2534 3370 2195 
Q 3706 1856 3706 1288 
Q 3706 609 3251 259 
Q 2797 -91 1919 -91 
Q 1588 -91 1214 -16 
Q 841 59 441 206 
L 441 856 
Q 825 641 1194 531 
Q 1563 422 1919 422 
Q 2459 422 2753 634 
Q 3047 847 3047 1241 
Q 3047 1584 2836 1778 
Q 2625 1972 2144 2069 
L 1759 2144 
Q 1053 2284 737 2584 
Q 422 2884 422 3419 
Q 422 4038 858 4394 
Q 1294 4750 2059 4750 
Q 2388 4750 2728 4690 
Q 3069 4631 3425 4513 
z
" transform="scale(0.015625)"/>
       <path id="DejaVuSans-63" d="M 3122 3366 
L 3122 2828 
Q 2878 2963 2633 3030 
Q 2388 3097 2138 3097 
Q 1578 3097 1268 2742 
Q 959 2388 959 1747 
Q 959 1106 1268 751 
Q 1578 397 2138 397 
Q 2388 397 2633 464 
Q 2878 531 3122 666 
L 3122 134 
Q 2881 22 2623 -34 
Q 2366 -91 2075 -91 
Q 1284 -91 818 406 
Q 353 903 353 1747 
Q 353 2603 823 3093 
Q 1294 3584 2113 3584 
Q 2378 3584 2631 3529 
Q 2884 3475 3122 3366 
z
" transform="scale(0.015625)"/>
       <path id="DejaVuSans-6f" d="M 1959 3097 
Q 1497 3097 1228 2736 
Q 959 2375 959 1747 
Q 959 1119 1226 758 
Q 1494 397 1959 397 
Q 2419 397 2687 759 
Q 2956 1122 2956 1747 
Q 2956 2369 2687 2733 
Q 2419 3097 1959 3097 
z
M 1959 3584 
Q 2709 3584 3137 3096 
Q 3566 2609 3566 1747 
Q 3566 888 3137 398 
Q 2709 -91 1959 -91 
Q 1206 -91 779 398 
Q 353 888 353 1747 
Q 353 2609 779 3096 
Q 1206 3584 1959 3584 
z
" transform="scale(0.015625)"/>
       <path id="DejaVuSans-72" d="M 2631 2963 
Q 2534 3019 2420 3045 
Q 2306 3072 2169 3072 
Q 1681 3072 1420 2755 
Q 1159 2438 1159 1844 
L 1159 0 
L 581 0 
L 581 3500 
L 1159 3500 
L 1159 2956 
Q 1341 3275 1631 3429 
Q 1922 3584 2338 3584 
Q 2397 3584 2469 3576 
Q 2541 3569 2628 3553 
L 2631 2963 
z
" transform="scale(0.015625)"/>
       <path id="DejaVuSans-65" d="M 3597 1894 
L 3597 1613 
L 953 1613 
Q 991 1019 1311 708 
Q 1631 397 2203 397 
Q 2534 397 2845 478 
Q 3156 559 3463 722 
L 3463 178 
Q 3153 47 2828 -22 
Q 2503 -91 2169 -91 
Q 1331 -91 842 396 
Q 353 884 353 1716 
Q 353 2575 817 3079 
Q 1281 3584 2069 3584 
Q 2775 3584 3186 3129 
Q 3597 2675 3597 1894 
z
M 3022 2063 
Q 3016 2534 2758 2815 
Q 2500 3097 2075 3097 
Q 1594 3097 1305 2825 
Q 1016 2553 972 2059 
L 3022 2063 
z
" transform="scale(0.015625)"/>
      </defs>
      <use xlink:href="#DejaVuSans-53"/>
      <use xlink:href="#DejaVuSans-63" x="63.476562"/>
      <use xlink:href="#DejaVuSans-6f" x="118.457031"/>
      <use xlink:href="#DejaVuSans-72" x="179.638672"/>
      <use xlink:href="#DejaVuSans-65" x="218.501953"/>
     </g>
    </g>
   </g>
   <g id="line2d_31">
    <path d="M 87.339545 379.763958 
L 127.861263 365.772235 
L 168.38298 337.788788 
L 208.904697 323.797065 
L 249.426414 302.80948 
L 289.948131 286.019412 
L 330.469848 255.23762 
L 370.991566 231.451691 
L 411.513283 203.468244 
L 452.035 176.88397 
L 492.556717 153.09804 
L 533.078434 137.707144 
L 573.600152 57.954321 
L 695.165303 57.954321 
L 735.68702 57.954321 
L 776.208737 57.954321 
L 816.730455 57.954321 
" clip-path="url(#p0469b32ad3)" style="fill: none; stroke: #1f77b4; stroke-width: 1.5; stroke-linecap: square"/>
    <defs>
     <path id="m0fca0f4ba9" d="M 0 3.5 
C 0.928211 3.5 1.81853 3.131218 2.474874 2.474874 
C 3.131218 1.81853 3.5 0.928211 3.5 0 
C 3.5 -0.928211 3.131218 -1.81853 2.474874 -2.474874 
C 1.81853 -3.131218 0.928211 -3.5 0 -3.5 
C -0.928211 -3.5 -1.81853 -3.131218 -2.474874 -2.474874 
C -3.131218 -1.81853 -3.5 -0.928211 -3.5 0 
C -3.5 0.928211 -3.131218 1.81853 -2.474874 2.474874 
C -1.81853 3.131218 -0.928211 3.5 0 3.5 
z
" style="stroke: #1f77b4"/>
    </defs>
    <g clip-path="url(#p0469b32ad3)">
     <use xlink:href="#m0fca0f4ba9" x="87.339545" y="379.763958" style="fill: #1f77b4; stroke: #1f77b4"/>
     <use xlink:href="#m0fca0f4ba9" x="127.861263" y="365.772235" style="fill: #1f77b4; stroke: #1f77b4"/>
     <use xlink:href="#m0fca0f4ba9" x="168.38298" y="337.788788" style="fill: #1f77b4; stroke: #1f77b4"/>
     <use xlink:href="#m0fca0f4ba9" x="208.904697" y="323.797065" style="fill: #1f77b4; stroke: #1f77b4"/>
     <use xlink:href="#m0fca0f4ba9" x="249.426414" y="302.80948" style="fill: #1f77b4; stroke: #1f77b4"/>
     <use xlink:href="#m0fca0f4ba9" x="289.948131" y="286.019412" style="fill: #1f77b4; stroke: #1f77b4"/>
     <use xlink:href="#m0fca0f4ba9" x="330.469848" y="255.23762" style="fill: #1f77b4; stroke: #1f77b4"/>
     <use xlink:href="#m0fca0f4ba9" x="370.991566" y="231.451691" style="fill: #1f77b4; stroke: #1f77b4"/>
     <use xlink:href="#m0fca0f4ba9" x="411.513283" y="203.468244" style="fill: #1f77b4; stroke: #1f77b4"/>
     <use xlink:href="#m0fca0f4ba9" x="452.035" y="176.88397" style="fill: #1f77b4; stroke: #1f77b4"/>
     <use xlink:href="#m0fca0f4ba9" x="492.556717" y="153.09804" style="fill: #1f77b4; stroke: #1f77b4"/>
     <use xlink:href="#m0fca0f4ba9" x="533.078434" y="137.707144" style="fill: #1f77b4; stroke: #1f77b4"/>
     <use xlink:href="#m0fca0f4ba9" x="573.600152" y="57.954321" style="fill: #1f77b4; stroke: #1f77b4"/>
     <use xlink:href="#m0fca0f4ba9" x="695.165303" y="57.954321" style="fill: #1f77b4; stroke: #1f77b4"/>
     <use xlink:href="#m0fca0f4ba9" x="735.68702" y="57.954321" style="fill: #1f77b4; stroke: #1f77b4"/>
     <use xlink:href="#m0fca0f4ba9" x="776.208737" y="57.954321" style="fill: #1f77b4; stroke: #1f77b4"/>
     <use xlink:href="#m0fca0f4ba9" x="816.730455" y="57.954321" style="fill: #1f77b4; stroke: #1f77b4"/>
    </g>
   </g>
   <g id="line2d_32">
    <path d="M 87.339545 379.703435 
L 127.861263 365.711711 
L 168.38298 320.938196 
L 208.904697 297.152267 
L 249.426414 262.172958 
L 289.948131 241.185373 
L 330.469848 224.395305 
L 370.991566 216.000271 
L 411.513283 195.012686 
L 452.035 195.012686 
L 492.556717 171.226756 
L 533.078434 158.634205 
L 573.600152 99.868967 
L 695.165303 99.868967 
L 735.68702 99.868967 
L 776.208737 99.868967 
L 816.730455 99.868967 
" clip-path="url(#p0469b32ad3)" style="fill: none; stroke: #ff7f0e; stroke-width: 1.5; stroke-linecap: square"/>
    <defs>
     <path id="mad8792e4a6" d="M 0 3.5 
C 0.928211 3.5 1.81853 3.131218 2.474874 2.474874 
C 3.131218 1.81853 3.5 0.928211 3.5 0 
C 3.5 -0.928211 3.131218 -1.81853 2.474874 -2.474874 
C 1.81853 -3.131218 0.928211 -3.5 0 -3.5 
C -0.928211 -3.5 -1.81853 -3.131218 -2.474874 -2.474874 
C -3.131218 -1.81853 -3.5 -0.928211 -3.5 0 
C -3.5 0.928211 -3.131218 1.81853 -2.474874 2.474874 
C -1.81853 3.131218 -0.928211 3.5 0 3.5 
z
" style="stroke: #ff7f0e"/>
    </defs>
    <g clip-path="url(#p0469b32ad3)">
     <use xlink:href="#mad8792e4a6" x="87.339545" y="379.703435" style="fill: #ff7f0e; stroke: #ff7f0e"/>
     <use xlink:href="#mad8792e4a6" x="127.861263" y="365.711711" style="fill: #ff7f0e; stroke: #ff7f0e"/>
     <use xlink:href="#mad8792e4a6" x="168.38298" y="320.938196" style="fill: #ff7f0e; stroke: #ff7f0e"/>
     <use xlink:href="#mad8792e4a6" x="208.904697" y="297.152267" style="fill: #ff7f0e; stroke: #ff7f0e"/>
     <use xlink:href="#mad8792e4a6" x="249.426414" y="262.172958" style="fill: #ff7f0e; stroke: #ff7f0e"/>
     <use xlink:href="#mad8792e4a6" x="289.948131" y="241.185373" style="fill: #ff7f0e; stroke: #ff7f0e"/>
     <use xlink:href="#mad8792e4a6" x="330.469848" y="224.395305" style="fill: #ff7f0e; stroke: #ff7f0e"/>
     <use xlink:href="#mad8792e4a6" x="370.991566" y="216.000271" style="fill: #ff7f0e; stroke: #ff7f0e"/>
     <use xlink:href="#mad8792e4a6" x="411.513283" y="195.012686" style="fill: #ff7f0e; stroke: #ff7f0e"/>
     <use xlink:href="#mad8792e4a6" x="452.035" y="195.012686" style="fill: #ff7f0e; stroke: #ff7f0e"/>
     <use xlink:href="#mad8792e4a6" x="492.556717" y="171.226756" style="fill: #ff7f0e; stroke: #ff7f0e"/>
     <use xlink:href="#mad8792e4a6" x="533.078434" y="158.634205" style="fill: #ff7f0e; stroke: #ff7f0e"/>
     <use xlink:href="#mad8792e4a6" x="573.600152" y="99.868967" style="fill: #ff7f0e; stroke: #ff7f0e"/>
     <use xlink:href="#mad8792e4a6" x="695.165303" y="99.868967" style="fill: #ff7f0e; stroke: #ff7f0e"/>
     <use xlink:href="#mad8792e4a6" x="735.68702" y="99.868967" style="fill: #ff7f0e; stroke: #ff7f0e"/>
     <use xlink:href="#mad8792e4a6" x="776.208737" y="99.868967" style="fill: #ff7f0e; stroke: #ff7f0e"/>
     <use xlink:href="#mad8792e4a6" x="816.730455" y="99.868967" style="fill: #ff7f0e; stroke: #ff7f0e"/>
    </g>
   </g>
   <g id="line2d_33">
    <path d="M 87.339545 386.746855 
L 127.861263 369.956787 
L 168.38298 332.179134 
L 208.904697 304.195687 
L 249.426414 283.208102 
L 289.948131 262.220517 
L 330.469848 227.241209 
L 370.991566 214.648658 
L 411.513283 186.665211 
L 452.035 162.879281 
L 492.556717 134.895834 
L 533.078434 112.509077 
L 573.600152 71.933079 
L 695.165303 71.933079 
L 735.68702 71.933079 
L 776.208737 71.933079 
L 816.730455 71.933079 
" clip-path="url(#p0469b32ad3)" style="fill: none; stroke: #2ca02c; stroke-width: 1.5; stroke-linecap: square"/>
    <defs>
     <path id="m286abd0bcf" d="M 0 3.5 
C 0.928211 3.5 1.81853 3.131218 2.474874 2.474874 
C 3.131218 1.81853 3.5 0.928211 3.5 0 
C 3.5 -0.928211 3.131218 -1.81853 2.474874 -2.474874 
C 1.81853 -3.131218 0.928211 -3.5 0 -3.5 
C -0.928211 -3.5 -1.81853 -3.131218 -2.474874 -2.474874 
C -3.131218 -1.81853 -3.5 -0.928211 -3.5 0 
C -3.5 0.928211 -3.131218 1.81853 -2.474874 2.474874 
C -1.81853 3.131218 -0.928211 3.5 0 3.5 
z
" style="stroke: #2ca02c"/>
    </defs>
    <g clip-path="url(#p0469b32ad3)">
     <use xlink:href="#m286abd0bcf" x="87.339545" y="386.746855" style="fill: #2ca02c; stroke: #2ca02c"/>
     <use xlink:href="#m286abd0bcf" x="127.861263" y="369.956787" style="fill: #2ca02c; stroke: #2ca02c"/>
     <use xlink:href="#m286abd0bcf" x="168.38298" y="332.179134" style="fill: #2ca02c; stroke: #2ca02c"/>
     <use xlink:href="#m286abd0bcf" x="208.904697" y="304.195687" style="fill: #2ca02c; stroke: #2ca02c"/>
     <use xlink:href="#m286abd0bcf" x="249.426414" y="283.208102" style="fill: #2ca02c; stroke: #2ca02c"/>
     <use xlink:href="#m286abd0bcf" x="289.948131" y="262.220517" style="fill: #2ca02c; stroke: #2ca02c"/>
     <use xlink:href="#m286abd0bcf" x="330.469848" y="227.241209" style="fill: #2ca02c; stroke: #2ca02c"/>
     <use xlink:href="#m286abd0bcf" x="370.991566" y="214.648658" style="fill: #2ca02c; stroke: #2ca02c"/>
     <use xlink:href="#m286abd0bcf" x="411.513283" y="186.665211" style="fill: #2ca02c; stroke: #2ca02c"/>
     <use xlink:href="#m286abd0bcf" x="452.035" y="162.879281" style="fill: #2ca02c; stroke: #2ca02c"/>
     <use xlink:href="#m286abd0bcf" x="492.556717" y="134.895834" style="fill: #2ca02c; stroke: #2ca02c"/>
     <use xlink:href="#m286abd0bcf" x="533.078434" y="112.509077" style="fill: #2ca02c; stroke: #2ca02c"/>
     <use xlink:href="#m286abd0bcf" x="573.600152" y="71.933079" style="fill: #2ca02c; stroke: #2ca02c"/>
     <use xlink:href="#m286abd0bcf" x="695.165303" y="71.933079" style="fill: #2ca02c; stroke: #2ca02c"/>
     <use xlink:href="#m286abd0bcf" x="735.68702" y="71.933079" style="fill: #2ca02c; stroke: #2ca02c"/>
     <use xlink:href="#m286abd0bcf" x="776.208737" y="71.933079" style="fill: #2ca02c; stroke: #2ca02c"/>
     <use xlink:href="#m286abd0bcf" x="816.730455" y="71.933079" style="fill: #2ca02c; stroke: #2ca02c"/>
    </g>
   </g>
   <g id="line2d_34">
    <path d="M 87.339545 386.901259 
L 127.861263 358.917812 
L 168.38298 330.934365 
L 208.904697 302.950918 
L 249.426414 281.963333 
L 289.948131 265.173265 
L 330.469848 259.576576 
L 370.991566 252.580714 
L 411.513283 221.798923 
L 452.035 212.004717 
L 492.556717 184.02127 
L 533.078434 167.231202 
L 573.600152 115.461825 
L 695.165303 115.461825 
L 735.68702 115.461825 
L 776.208737 115.461825 
L 816.730455 115.461825 
" clip-path="url(#p0469b32ad3)" style="fill: none; stroke: #d62728; stroke-width: 1.5; stroke-linecap: square"/>
    <defs>
     <path id="m30d03b078b" d="M 0 3.5 
C 0.928211 3.5 1.81853 3.131218 2.474874 2.474874 
C 3.131218 1.81853 3.5 0.928211 3.5 0 
C 3.5 -0.928211 3.131218 -1.81853 2.474874 -2.474874 
C 1.81853 -3.131218 0.928211 -3.5 0 -3.5 
C -0.928211 -3.5 -1.81853 -3.131218 -2.474874 -2.474874 
C -3.131218 -1.81853 -3.5 -0.928211 -3.5 0 
C -3.5 0.928211 -3.131218 1.81853 -2.474874 2.474874 
C -1.81853 3.131218 -0.928211 3.5 0 3.5 
z
" style="stroke: #d62728"/>
    </defs>
    <g clip-path="url(#p0469b32ad3)">
     <use xlink:href="#m30d03b078b" x="87.339545" y="386.901259" style="fill: #d62728; stroke: #d62728"/>
     <use xlink:href="#m30d03b078b" x="127.861263" y="358.917812" style="fill: #d62728; stroke: #d62728"/>
     <use xlink:href="#m30d03b078b" x="168.38298" y="330.934365" style="fill: #d62728; stroke: #d62728"/>
     <use xlink:href="#m30d03b078b" x="208.904697" y="302.950918" style="fill: #d62728; stroke: #d62728"/>
     <use xlink:href="#m30d03b078b" x="249.426414" y="281.963333" style="fill: #d62728; stroke: #d62728"/>
     <use xlink:href="#m30d03b078b" x="289.948131" y="265.173265" style="fill: #d62728; stroke: #d62728"/>
     <use xlink:href="#m30d03b078b" x="330.469848" y="259.576576" style="fill: #d62728; stroke: #d62728"/>
     <use xlink:href="#m30d03b078b" x="370.991566" y="252.580714" style="fill: #d62728; stroke: #d62728"/>
     <use xlink:href="#m30d03b078b" x="411.513283" y="221.798923" style="fill: #d62728; stroke: #d62728"/>
     <use xlink:href="#m30d03b078b" x="452.035" y="212.004717" style="fill: #d62728; stroke: #d62728"/>
     <use xlink:href="#m30d03b078b" x="492.556717" y="184.02127" style="fill: #d62728; stroke: #d62728"/>
     <use xlink:href="#m30d03b078b" x="533.078434" y="167.231202" style="fill: #d62728; stroke: #d62728"/>
     <use xlink:href="#m30d03b078b" x="573.600152" y="115.461825" style="fill: #d62728; stroke: #d62728"/>
     <use xlink:href="#m30d03b078b" x="695.165303" y="115.461825" style="fill: #d62728; stroke: #d62728"/>
     <use xlink:href="#m30d03b078b" x="735.68702" y="115.461825" style="fill: #d62728; stroke: #d62728"/>
     <use xlink:href="#m30d03b078b" x="776.208737" y="115.461825" style="fill: #d62728; stroke: #d62728"/>
     <use xlink:href="#m30d03b078b" x="816.730455" y="115.461825" style="fill: #d62728; stroke: #d62728"/>
    </g>
   </g>
   <g id="line2d_35">
    <path d="M 87.339545 386.727486 
L 127.861263 362.941556 
L 168.38298 332.159765 
L 208.904697 318.168041 
L 249.426414 308.373835 
L 289.948131 291.583767 
L 330.469848 260.801975 
L 370.991566 246.810252 
L 411.513283 216.028461 
L 452.035 206.234254 
L 492.556717 199.238393 
L 533.078434 182.448324 
L 573.600152 148.868188 
L 695.165303 148.868188 
L 735.68702 148.868188 
L 776.208737 148.868188 
L 816.730455 148.868188 
" clip-path="url(#p0469b32ad3)" style="fill: none; stroke: #9467bd; stroke-width: 1.5; stroke-linecap: square"/>
    <defs>
     <path id="m3ec2ee5c34" d="M 0 3.5 
C 0.928211 3.5 1.81853 3.131218 2.474874 2.474874 
C 3.131218 1.81853 3.5 0.928211 3.5 0 
C 3.5 -0.928211 3.131218 -1.81853 2.474874 -2.474874 
C 1.81853 -3.131218 0.928211 -3.5 0 -3.5 
C -0.928211 -3.5 -1.81853 -3.131218 -2.474874 -2.474874 
C -3.131218 -1.81853 -3.5 -0.928211 -3.5 0 
C -3.5 0.928211 -3.131218 1.81853 -2.474874 2.474874 
C -1.81853 3.131218 -0.928211 3.5 0 3.5 
z
" style="stroke: #9467bd"/>
    </defs>
    <g clip-path="url(#p0469b32ad3)">
     <use xlink:href="#m3ec2ee5c34" x="87.339545" y="386.727486" style="fill: #9467bd; stroke: #9467bd"/>
     <use xlink:href="#m3ec2ee5c34" x="127.861263" y="362.941556" style="fill: #9467bd; stroke: #9467bd"/>
     <use xlink:href="#m3ec2ee5c34" x="168.38298" y="332.159765" style="fill: #9467bd; stroke: #9467bd"/>
     <use xlink:href="#m3ec2ee5c34" x="208.904697" y="318.168041" style="fill: #9467bd; stroke: #9467bd"/>
     <use xlink:href="#m3ec2ee5c34" x="249.426414" y="308.373835" style="fill: #9467bd; stroke: #9467bd"/>
     <use xlink:href="#m3ec2ee5c34" x="289.948131" y="291.583767" style="fill: #9467bd; stroke: #9467bd"/>
     <use xlink:href="#m3ec2ee5c34" x="330.469848" y="260.801975" style="fill: #9467bd; stroke: #9467bd"/>
     <use xlink:href="#m3ec2ee5c34" x="370.991566" y="246.810252" style="fill: #9467bd; stroke: #9467bd"/>
     <use xlink:href="#m3ec2ee5c34" x="411.513283" y="216.028461" style="fill: #9467bd; stroke: #9467bd"/>
     <use xlink:href="#m3ec2ee5c34" x="452.035" y="206.234254" style="fill: #9467bd; stroke: #9467bd"/>
     <use xlink:href="#m3ec2ee5c34" x="492.556717" y="199.238393" style="fill: #9467bd; stroke: #9467bd"/>
     <use xlink:href="#m3ec2ee5c34" x="533.078434" y="182.448324" style="fill: #9467bd; stroke: #9467bd"/>
     <use xlink:href="#m3ec2ee5c34" x="573.600152" y="148.868188" style="fill: #9467bd; stroke: #9467bd"/>
     <use xlink:href="#m3ec2ee5c34" x="695.165303" y="148.868188" style="fill: #9467bd; stroke: #9467bd"/>
     <use xlink:href="#m3ec2ee5c34" x="735.68702" y="148.868188" style="fill: #9467bd; stroke: #9467bd"/>
     <use xlink:href="#m3ec2ee5c34" x="776.208737" y="148.868188" style="fill: #9467bd; stroke: #9467bd"/>
     <use xlink:href="#m3ec2ee5c34" x="816.730455" y="148.868188" style="fill: #9467bd; stroke: #9467bd"/>
    </g>
   </g>
   <g id="line2d_36">
    <path d="M 87.339545 379.86381 
L 127.861263 351.880363 
L 168.38298 337.88864 
L 208.904697 323.896916 
L 249.426414 309.905193 
L 289.948131 265.131678 
L 330.469848 259.534989 
L 370.991566 252.539127 
L 411.513283 221.757336 
L 452.035 211.963129 
L 492.556717 155.996236 
L 533.078434 142.004512 
L 573.600152 100.029342 
L 695.165303 100.029342 
L 735.68702 100.029342 
L 776.208737 100.029342 
L 816.730455 100.029342 
" clip-path="url(#p0469b32ad3)" style="fill: none; stroke: #8c564b; stroke-width: 1.5; stroke-linecap: square"/>
    <defs>
     <path id="m680194303c" d="M 0 3.5 
C 0.928211 3.5 1.81853 3.131218 2.474874 2.474874 
C 3.131218 1.81853 3.5 0.928211 3.5 0 
C 3.5 -0.928211 3.131218 -1.81853 2.474874 -2.474874 
C 1.81853 -3.131218 0.928211 -3.5 0 -3.5 
C -0.928211 -3.5 -1.81853 -3.131218 -2.474874 -2.474874 
C -3.131218 -1.81853 -3.5 -0.928211 -3.5 0 
C -3.5 0.928211 -3.131218 1.81853 -2.474874 2.474874 
C -1.81853 3.131218 -0.928211 3.5 0 3.5 
z
" style="stroke: #8c564b"/>
    </defs>
    <g clip-path="url(#p0469b32ad3)">
     <use xlink:href="#m680194303c" x="87.339545" y="379.86381" style="fill: #8c564b; stroke: #8c564b"/>
     <use xlink:href="#m680194303c" x="127.861263" y="351.880363" style="fill: #8c564b; stroke: #8c564b"/>
     <use xlink:href="#m680194303c" x="168.38298" y="337.88864" style="fill: #8c564b; stroke: #8c564b"/>
     <use xlink:href="#m680194303c" x="208.904697" y="323.896916" style="fill: #8c564b; stroke: #8c564b"/>
     <use xlink:href="#m680194303c" x="249.426414" y="309.905193" style="fill: #8c564b; stroke: #8c564b"/>
     <use xlink:href="#m680194303c" x="289.948131" y="265.131678" style="fill: #8c564b; stroke: #8c564b"/>
     <use xlink:href="#m680194303c" x="330.469848" y="259.534989" style="fill: #8c564b; stroke: #8c564b"/>
     <use xlink:href="#m680194303c" x="370.991566" y="252.539127" style="fill: #8c564b; stroke: #8c564b"/>
     <use xlink:href="#m680194303c" x="411.513283" y="221.757336" style="fill: #8c564b; stroke: #8c564b"/>
     <use xlink:href="#m680194303c" x="452.035" y="211.963129" style="fill: #8c564b; stroke: #8c564b"/>
     <use xlink:href="#m680194303c" x="492.556717" y="155.996236" style="fill: #8c564b; stroke: #8c564b"/>
     <use xlink:href="#m680194303c" x="533.078434" y="142.004512" style="fill: #8c564b; stroke: #8c564b"/>
     <use xlink:href="#m680194303c" x="573.600152" y="100.029342" style="fill: #8c564b; stroke: #8c564b"/>
     <use xlink:href="#m680194303c" x="695.165303" y="100.029342" style="fill: #8c564b; stroke: #8c564b"/>
     <use xlink:href="#m680194303c" x="735.68702" y="100.029342" style="fill: #8c564b; stroke: #8c564b"/>
     <use xlink:href="#m680194303c" x="776.208737" y="100.029342" style="fill: #8c564b; stroke: #8c564b"/>
     <use xlink:href="#m680194303c" x="816.730455" y="100.029342" style="fill: #8c564b; stroke: #8c564b"/>
    </g>
   </g>
   <g id="line2d_37">
    <path d="M 87.339545 386.769807 
L 127.861263 372.778084 
L 168.38298 341.996293 
L 208.904697 328.004569 
L 249.426414 314.012846 
L 289.948131 294.424433 
L 330.469848 277.634365 
L 370.991566 260.844297 
L 411.513283 225.864989 
L 452.035 183.889818 
L 492.556717 127.922925 
L 533.078434 108.334512 
L 573.600152 63.560997 
L 695.165303 63.560997 
L 735.68702 63.560997 
L 776.208737 63.560997 
L 816.730455 63.560997 
" clip-path="url(#p0469b32ad3)" style="fill: none; stroke: #e377c2; stroke-width: 1.5; stroke-linecap: square"/>
    <defs>
     <path id="m57cbf8d432" d="M 0 3.5 
C 0.928211 3.5 1.81853 3.131218 2.474874 2.474874 
C 3.131218 1.81853 3.5 0.928211 3.5 0 
C 3.5 -0.928211 3.131218 -1.81853 2.474874 -2.474874 
C 1.81853 -3.131218 0.928211 -3.5 0 -3.5 
C -0.928211 -3.5 -1.81853 -3.131218 -2.474874 -2.474874 
C -3.131218 -1.81853 -3.5 -0.928211 -3.5 0 
C -3.5 0.928211 -3.131218 1.81853 -2.474874 2.474874 
C -1.81853 3.131218 -0.928211 3.5 0 3.5 
z
" style="stroke: #e377c2"/>
    </defs>
    <g clip-path="url(#p0469b32ad3)">
     <use xlink:href="#m57cbf8d432" x="87.339545" y="386.769807" style="fill: #e377c2; stroke: #e377c2"/>
     <use xlink:href="#m57cbf8d432" x="127.861263" y="372.778084" style="fill: #e377c2; stroke: #e377c2"/>
     <use xlink:href="#m57cbf8d432" x="168.38298" y="341.996293" style="fill: #e377c2; stroke: #e377c2"/>
     <use xlink:href="#m57cbf8d432" x="208.904697" y="328.004569" style="fill: #e377c2; stroke: #e377c2"/>
     <use xlink:href="#m57cbf8d432" x="249.426414" y="314.012846" style="fill: #e377c2; stroke: #e377c2"/>
     <use xlink:href="#m57cbf8d432" x="289.948131" y="294.424433" style="fill: #e377c2; stroke: #e377c2"/>
     <use xlink:href="#m57cbf8d432" x="330.469848" y="277.634365" style="fill: #e377c2; stroke: #e377c2"/>
     <use xlink:href="#m57cbf8d432" x="370.991566" y="260.844297" style="fill: #e377c2; stroke: #e377c2"/>
     <use xlink:href="#m57cbf8d432" x="411.513283" y="225.864989" style="fill: #e377c2; stroke: #e377c2"/>
     <use xlink:href="#m57cbf8d432" x="452.035" y="183.889818" style="fill: #e377c2; stroke: #e377c2"/>
     <use xlink:href="#m57cbf8d432" x="492.556717" y="127.922925" style="fill: #e377c2; stroke: #e377c2"/>
     <use xlink:href="#m57cbf8d432" x="533.078434" y="108.334512" style="fill: #e377c2; stroke: #e377c2"/>
     <use xlink:href="#m57cbf8d432" x="573.600152" y="63.560997" style="fill: #e377c2; stroke: #e377c2"/>
     <use xlink:href="#m57cbf8d432" x="695.165303" y="63.560997" style="fill: #e377c2; stroke: #e377c2"/>
     <use xlink:href="#m57cbf8d432" x="735.68702" y="63.560997" style="fill: #e377c2; stroke: #e377c2"/>
     <use xlink:href="#m57cbf8d432" x="776.208737" y="63.560997" style="fill: #e377c2; stroke: #e377c2"/>
     <use xlink:href="#m57cbf8d432" x="816.730455" y="63.560997" style="fill: #e377c2; stroke: #e377c2"/>
    </g>
   </g>
   <g id="line2d_38">
    <path d="M 87.339545 386.939409 
L 127.861263 349.161756 
L 168.38298 318.379965 
L 208.904697 301.589897 
L 249.426414 284.799829 
L 289.948131 268.009761 
L 330.469848 265.211416 
L 370.991566 241.425486 
L 411.513283 206.446178 
L 452.035 179.861904 
L 492.556717 137.886733 
L 533.078434 121.096665 
L 573.600152 90.314874 
L 695.165303 90.314874 
L 735.68702 90.314874 
L 776.208737 90.314874 
L 816.730455 90.314874 
" clip-path="url(#p0469b32ad3)" style="fill: none; stroke: #7f7f7f; stroke-width: 1.5; stroke-linecap: square"/>
    <defs>
     <path id="m67e101380b" d="M 0 3.5 
C 0.928211 3.5 1.81853 3.131218 2.474874 2.474874 
C 3.131218 1.81853 3.5 0.928211 3.5 0 
C 3.5 -0.928211 3.131218 -1.81853 2.474874 -2.474874 
C 1.81853 -3.131218 0.928211 -3.5 0 -3.5 
C -0.928211 -3.5 -1.81853 -3.131218 -2.474874 -2.474874 
C -3.131218 -1.81853 -3.5 -0.928211 -3.5 0 
C -3.5 0.928211 -3.131218 1.81853 -2.474874 2.474874 
C -1.81853 3.131218 -0.928211 3.5 0 3.5 
z
" style="stroke: #7f7f7f"/>
    </defs>
    <g clip-path="url(#p0469b32ad3)">
     <use xlink:href="#m67e101380b" x="87.339545" y="386.939409" style="fill: #7f7f7f; stroke: #7f7f7f"/>
     <use xlink:href="#m67e101380b" x="127.861263" y="349.161756" style="fill: #7f7f7f; stroke: #7f7f7f"/>
     <use xlink:href="#m67e101380b" x="168.38298" y="318.379965" style="fill: #7f7f7f; stroke: #7f7f7f"/>
     <use xlink:href="#m67e101380b" x="208.904697" y="301.589897" style="fill: #7f7f7f; stroke: #7f7f7f"/>
     <use xlink:href="#m67e101380b" x="249.426414" y="284.799829" style="fill: #7f7f7f; stroke: #7f7f7f"/>
     <use xlink:href="#m67e101380b" x="289.948131" y="268.009761" style="fill: #7f7f7f; stroke: #7f7f7f"/>
     <use xlink:href="#m67e101380b" x="330.469848" y="265.211416" style="fill: #7f7f7f; stroke: #7f7f7f"/>
     <use xlink:href="#m67e101380b" x="370.991566" y="241.425486" style="fill: #7f7f7f; stroke: #7f7f7f"/>
     <use xlink:href="#m67e101380b" x="411.513283" y="206.446178" style="fill: #7f7f7f; stroke: #7f7f7f"/>
     <use xlink:href="#m67e101380b" x="452.035" y="179.861904" style="fill: #7f7f7f; stroke: #7f7f7f"/>
     <use xlink:href="#m67e101380b" x="492.556717" y="137.886733" style="fill: #7f7f7f; stroke: #7f7f7f"/>
     <use xlink:href="#m67e101380b" x="533.078434" y="121.096665" style="fill: #7f7f7f; stroke: #7f7f7f"/>
     <use xlink:href="#m67e101380b" x="573.600152" y="90.314874" style="fill: #7f7f7f; stroke: #7f7f7f"/>
     <use xlink:href="#m67e101380b" x="695.165303" y="90.314874" style="fill: #7f7f7f; stroke: #7f7f7f"/>
     <use xlink:href="#m67e101380b" x="735.68702" y="90.314874" style="fill: #7f7f7f; stroke: #7f7f7f"/>
     <use xlink:href="#m67e101380b" x="776.208737" y="90.314874" style="fill: #7f7f7f; stroke: #7f7f7f"/>
     <use xlink:href="#m67e101380b" x="816.730455" y="90.314874" style="fill: #7f7f7f; stroke: #7f7f7f"/>
    </g>
   </g>
   <g id="line2d_39">
    <path d="M 87.339545 386.85028 
L 127.861263 365.862695 
L 168.38298 330.883387 
L 208.904697 314.093318 
L 249.426414 279.11401 
L 289.948131 269.319804 
L 330.469848 260.92477 
L 370.991566 237.13884 
L 411.513283 216.151255 
L 452.035 199.361187 
L 492.556717 168.579395 
L 533.078434 151.789327 
L 573.600152 95.822434 
L 695.165303 95.822434 
L 735.68702 95.822434 
L 776.208737 95.822434 
L 816.730455 95.822434 
" clip-path="url(#p0469b32ad3)" style="fill: none; stroke: #bcbd22; stroke-width: 1.5; stroke-linecap: square"/>
    <defs>
     <path id="mec695b214d" d="M 0 3.5 
C 0.928211 3.5 1.81853 3.131218 2.474874 2.474874 
C 3.131218 1.81853 3.5 0.928211 3.5 0 
C 3.5 -0.928211 3.131218 -1.81853 2.474874 -2.474874 
C 1.81853 -3.131218 0.928211 -3.5 0 -3.5 
C -0.928211 -3.5 -1.81853 -3.131218 -2.474874 -2.474874 
C -3.131218 -1.81853 -3.5 -0.928211 -3.5 0 
C -3.5 0.928211 -3.131218 1.81853 -2.474874 2.474874 
C -1.81853 3.131218 -0.928211 3.5 0 3.5 
z
" style="stroke: #bcbd22"/>
    </defs>
    <g clip-path="url(#p0469b32ad3)">
     <use xlink:href="#mec695b214d" x="87.339545" y="386.85028" style="fill: #bcbd22; stroke: #bcbd22"/>
     <use xlink:href="#mec695b214d" x="127.861263" y="365.862695" style="fill: #bcbd22; stroke: #bcbd22"/>
     <use xlink:href="#mec695b214d" x="168.38298" y="330.883387" style="fill: #bcbd22; stroke: #bcbd22"/>
     <use xlink:href="#mec695b214d" x="208.904697" y="314.093318" style="fill: #bcbd22; stroke: #bcbd22"/>
     <use xlink:href="#mec695b214d" x="249.426414" y="279.11401" style="fill: #bcbd22; stroke: #bcbd22"/>
     <use xlink:href="#mec695b214d" x="289.948131" y="269.319804" style="fill: #bcbd22; stroke: #bcbd22"/>
     <use xlink:href="#mec695b214d" x="330.469848" y="260.92477" style="fill: #bcbd22; stroke: #bcbd22"/>
     <use xlink:href="#mec695b214d" x="370.991566" y="237.13884" style="fill: #bcbd22; stroke: #bcbd22"/>
     <use xlink:href="#mec695b214d" x="411.513283" y="216.151255" style="fill: #bcbd22; stroke: #bcbd22"/>
     <use xlink:href="#mec695b214d" x="452.035" y="199.361187" style="fill: #bcbd22; stroke: #bcbd22"/>
     <use xlink:href="#mec695b214d" x="492.556717" y="168.579395" style="fill: #bcbd22; stroke: #bcbd22"/>
     <use xlink:href="#mec695b214d" x="533.078434" y="151.789327" style="fill: #bcbd22; stroke: #bcbd22"/>
     <use xlink:href="#mec695b214d" x="573.600152" y="95.822434" style="fill: #bcbd22; stroke: #bcbd22"/>
     <use xlink:href="#mec695b214d" x="695.165303" y="95.822434" style="fill: #bcbd22; stroke: #bcbd22"/>
     <use xlink:href="#mec695b214d" x="735.68702" y="95.822434" style="fill: #bcbd22; stroke: #bcbd22"/>
     <use xlink:href="#mec695b214d" x="776.208737" y="95.822434" style="fill: #bcbd22; stroke: #bcbd22"/>
     <use xlink:href="#mec695b214d" x="816.730455" y="95.822434" style="fill: #bcbd22; stroke: #bcbd22"/>
    </g>
   </g>
   <g id="line2d_40">
    <path d="M 87.339545 386.972727 
L 127.861263 384.174383 
L 168.38298 346.396729 
L 208.904697 332.405006 
L 249.426414 290.429836 
L 289.948131 270.841423 
L 330.469848 261.047217 
L 370.991566 240.059632 
L 411.513283 202.281979 
L 452.035 178.496049 
L 492.556717 161.705981 
L 533.078434 144.915913 
L 573.600152 116.932466 
L 695.165303 116.932466 
L 735.68702 116.932466 
L 776.208737 116.932466 
L 816.730455 116.932466 
" clip-path="url(#p0469b32ad3)" style="fill: none; stroke: #17becf; stroke-width: 1.5; stroke-linecap: square"/>
    <defs>
     <path id="m5b08dcf8d9" d="M 0 3.5 
C 0.928211 3.5 1.81853 3.131218 2.474874 2.474874 
C 3.131218 1.81853 3.5 0.928211 3.5 0 
C 3.5 -0.928211 3.131218 -1.81853 2.474874 -2.474874 
C 1.81853 -3.131218 0.928211 -3.5 0 -3.5 
C -0.928211 -3.5 -1.81853 -3.131218 -2.474874 -2.474874 
C -3.131218 -1.81853 -3.5 -0.928211 -3.5 0 
C -3.5 0.928211 -3.131218 1.81853 -2.474874 2.474874 
C -1.81853 3.131218 -0.928211 3.5 0 3.5 
z
" style="stroke: #17becf"/>
    </defs>
    <g clip-path="url(#p0469b32ad3)">
     <use xlink:href="#m5b08dcf8d9" x="87.339545" y="386.972727" style="fill: #17becf; stroke: #17becf"/>
     <use xlink:href="#m5b08dcf8d9" x="127.861263" y="384.174383" style="fill: #17becf; stroke: #17becf"/>
     <use xlink:href="#m5b08dcf8d9" x="168.38298" y="346.396729" style="fill: #17becf; stroke: #17becf"/>
     <use xlink:href="#m5b08dcf8d9" x="208.904697" y="332.405006" style="fill: #17becf; stroke: #17becf"/>
     <use xlink:href="#m5b08dcf8d9" x="249.426414" y="290.429836" style="fill: #17becf; stroke: #17becf"/>
     <use xlink:href="#m5b08dcf8d9" x="289.948131" y="270.841423" style="fill: #17becf; stroke: #17becf"/>
     <use xlink:href="#m5b08dcf8d9" x="330.469848" y="261.047217" style="fill: #17becf; stroke: #17becf"/>
     <use xlink:href="#m5b08dcf8d9" x="370.991566" y="240.059632" style="fill: #17becf; stroke: #17becf"/>
     <use xlink:href="#m5b08dcf8d9" x="411.513283" y="202.281979" style="fill: #17becf; stroke: #17becf"/>
     <use xlink:href="#m5b08dcf8d9" x="452.035" y="178.496049" style="fill: #17becf; stroke: #17becf"/>
     <use xlink:href="#m5b08dcf8d9" x="492.556717" y="161.705981" style="fill: #17becf; stroke: #17becf"/>
     <use xlink:href="#m5b08dcf8d9" x="533.078434" y="144.915913" style="fill: #17becf; stroke: #17becf"/>
     <use xlink:href="#m5b08dcf8d9" x="573.600152" y="116.932466" style="fill: #17becf; stroke: #17becf"/>
     <use xlink:href="#m5b08dcf8d9" x="695.165303" y="116.932466" style="fill: #17becf; stroke: #17becf"/>
     <use xlink:href="#m5b08dcf8d9" x="735.68702" y="116.932466" style="fill: #17becf; stroke: #17becf"/>
     <use xlink:href="#m5b08dcf8d9" x="776.208737" y="116.932466" style="fill: #17becf; stroke: #17becf"/>
     <use xlink:href="#m5b08dcf8d9" x="816.730455" y="116.932466" style="fill: #17becf; stroke: #17becf"/>
    </g>
   </g>
   <g id="line2d_41">
    <path d="M 87.339545 386.926353 
L 127.861263 351.947045 
L 168.38298 332.358632 
L 208.904697 311.371047 
L 249.426414 297.379323 
L 289.948131 276.391738 
L 330.469848 273.593394 
L 370.991566 249.807464 
L 411.513283 228.819879 
L 452.035 179.848847 
L 492.556717 144.869539 
L 533.078434 107.091886 
L 573.600152 59.520026 
L 695.165303 59.520026 
L 735.68702 59.520026 
L 776.208737 59.520026 
L 816.730455 59.520026 
" clip-path="url(#p0469b32ad3)" style="fill: none; stroke: #1f77b4; stroke-width: 1.5; stroke-linecap: square"/>
    <g clip-path="url(#p0469b32ad3)">
     <use xlink:href="#m0fca0f4ba9" x="87.339545" y="386.926353" style="fill: #1f77b4; stroke: #1f77b4"/>
     <use xlink:href="#m0fca0f4ba9" x="127.861263" y="351.947045" style="fill: #1f77b4; stroke: #1f77b4"/>
     <use xlink:href="#m0fca0f4ba9" x="168.38298" y="332.358632" style="fill: #1f77b4; stroke: #1f77b4"/>
     <use xlink:href="#m0fca0f4ba9" x="208.904697" y="311.371047" style="fill: #1f77b4; stroke: #1f77b4"/>
     <use xlink:href="#m0fca0f4ba9" x="249.426414" y="297.379323" style="fill: #1f77b4; stroke: #1f77b4"/>
     <use xlink:href="#m0fca0f4ba9" x="289.948131" y="276.391738" style="fill: #1f77b4; stroke: #1f77b4"/>
     <use xlink:href="#m0fca0f4ba9" x="330.469848" y="273.593394" style="fill: #1f77b4; stroke: #1f77b4"/>
     <use xlink:href="#m0fca0f4ba9" x="370.991566" y="249.807464" style="fill: #1f77b4; stroke: #1f77b4"/>
     <use xlink:href="#m0fca0f4ba9" x="411.513283" y="228.819879" style="fill: #1f77b4; stroke: #1f77b4"/>
     <use xlink:href="#m0fca0f4ba9" x="452.035" y="179.848847" style="fill: #1f77b4; stroke: #1f77b4"/>
     <use xlink:href="#m0fca0f4ba9" x="492.556717" y="144.869539" style="fill: #1f77b4; stroke: #1f77b4"/>
     <use xlink:href="#m0fca0f4ba9" x="533.078434" y="107.091886" style="fill: #1f77b4; stroke: #1f77b4"/>
     <use xlink:href="#m0fca0f4ba9" x="573.600152" y="59.520026" style="fill: #1f77b4; stroke: #1f77b4"/>
     <use xlink:href="#m0fca0f4ba9" x="695.165303" y="59.520026" style="fill: #1f77b4; stroke: #1f77b4"/>
     <use xlink:href="#m0fca0f4ba9" x="735.68702" y="59.520026" style="fill: #1f77b4; stroke: #1f77b4"/>
     <use xlink:href="#m0fca0f4ba9" x="776.208737" y="59.520026" style="fill: #1f77b4; stroke: #1f77b4"/>
     <use xlink:href="#m0fca0f4ba9" x="816.730455" y="59.520026" style="fill: #1f77b4; stroke: #1f77b4"/>
    </g>
   </g>
   <g id="line2d_42">
    <path d="M 87.339545 386.924561 
L 127.861263 365.936976 
L 168.38298 328.159323 
L 208.904697 314.1676 
L 249.426414 300.175876 
L 289.948131 276.389946 
L 330.469848 266.59574 
L 370.991566 245.608155 
L 411.513283 203.632985 
L 452.035 179.847055 
L 492.556717 144.867747 
L 533.078434 129.476851 
L 573.600152 84.703336 
L 695.165303 84.703336 
L 735.68702 84.703336 
L 776.208737 84.703336 
L 816.730455 84.703336 
" clip-path="url(#p0469b32ad3)" style="fill: none; stroke: #ff7f0e; stroke-width: 1.5; stroke-linecap: square"/>
    <g clip-path="url(#p0469b32ad3)">
     <use xlink:href="#mad8792e4a6" x="87.339545" y="386.924561" style="fill: #ff7f0e; stroke: #ff7f0e"/>
     <use xlink:href="#mad8792e4a6" x="127.861263" y="365.936976" style="fill: #ff7f0e; stroke: #ff7f0e"/>
     <use xlink:href="#mad8792e4a6" x="168.38298" y="328.159323" style="fill: #ff7f0e; stroke: #ff7f0e"/>
     <use xlink:href="#mad8792e4a6" x="208.904697" y="314.1676" style="fill: #ff7f0e; stroke: #ff7f0e"/>
     <use xlink:href="#mad8792e4a6" x="249.426414" y="300.175876" style="fill: #ff7f0e; stroke: #ff7f0e"/>
     <use xlink:href="#mad8792e4a6" x="289.948131" y="276.389946" style="fill: #ff7f0e; stroke: #ff7f0e"/>
     <use xlink:href="#mad8792e4a6" x="330.469848" y="266.59574" style="fill: #ff7f0e; stroke: #ff7f0e"/>
     <use xlink:href="#mad8792e4a6" x="370.991566" y="245.608155" style="fill: #ff7f0e; stroke: #ff7f0e"/>
     <use xlink:href="#mad8792e4a6" x="411.513283" y="203.632985" style="fill: #ff7f0e; stroke: #ff7f0e"/>
     <use xlink:href="#mad8792e4a6" x="452.035" y="179.847055" style="fill: #ff7f0e; stroke: #ff7f0e"/>
     <use xlink:href="#mad8792e4a6" x="492.556717" y="144.867747" style="fill: #ff7f0e; stroke: #ff7f0e"/>
     <use xlink:href="#mad8792e4a6" x="533.078434" y="129.476851" style="fill: #ff7f0e; stroke: #ff7f0e"/>
     <use xlink:href="#mad8792e4a6" x="573.600152" y="84.703336" style="fill: #ff7f0e; stroke: #ff7f0e"/>
     <use xlink:href="#mad8792e4a6" x="695.165303" y="84.703336" style="fill: #ff7f0e; stroke: #ff7f0e"/>
     <use xlink:href="#mad8792e4a6" x="735.68702" y="84.703336" style="fill: #ff7f0e; stroke: #ff7f0e"/>
     <use xlink:href="#mad8792e4a6" x="776.208737" y="84.703336" style="fill: #ff7f0e; stroke: #ff7f0e"/>
     <use xlink:href="#mad8792e4a6" x="816.730455" y="84.703336" style="fill: #ff7f0e; stroke: #ff7f0e"/>
    </g>
   </g>
   <g id="line2d_43">
    <path d="M 87.339545 386.824495 
L 127.861263 337.853464 
L 168.38298 300.07581 
L 208.904697 286.084087 
L 249.426414 276.289881 
L 289.948131 241.310572 
L 330.469848 217.524643 
L 370.991566 207.730436 
L 411.513283 169.952783 
L 452.035 146.166853 
L 492.556717 111.187545 
L 533.078434 84.603271 
L 573.600152 44.027273 
L 695.165303 44.027273 
L 735.68702 44.027273 
L 776.208737 44.027273 
L 816.730455 44.027273 
" clip-path="url(#p0469b32ad3)" style="fill: none; stroke: #2ca02c; stroke-width: 1.5; stroke-linecap: square"/>
    <g clip-path="url(#p0469b32ad3)">
     <use xlink:href="#m286abd0bcf" x="87.339545" y="386.824495" style="fill: #2ca02c; stroke: #2ca02c"/>
     <use xlink:href="#m286abd0bcf" x="127.861263" y="337.853464" style="fill: #2ca02c; stroke: #2ca02c"/>
     <use xlink:href="#m286abd0bcf" x="168.38298" y="300.07581" style="fill: #2ca02c; stroke: #2ca02c"/>
     <use xlink:href="#m286abd0bcf" x="208.904697" y="286.084087" style="fill: #2ca02c; stroke: #2ca02c"/>
     <use xlink:href="#m286abd0bcf" x="249.426414" y="276.289881" style="fill: #2ca02c; stroke: #2ca02c"/>
     <use xlink:href="#m286abd0bcf" x="289.948131" y="241.310572" style="fill: #2ca02c; stroke: #2ca02c"/>
     <use xlink:href="#m286abd0bcf" x="330.469848" y="217.524643" style="fill: #2ca02c; stroke: #2ca02c"/>
     <use xlink:href="#m286abd0bcf" x="370.991566" y="207.730436" style="fill: #2ca02c; stroke: #2ca02c"/>
     <use xlink:href="#m286abd0bcf" x="411.513283" y="169.952783" style="fill: #2ca02c; stroke: #2ca02c"/>
     <use xlink:href="#m286abd0bcf" x="452.035" y="146.166853" style="fill: #2ca02c; stroke: #2ca02c"/>
     <use xlink:href="#m286abd0bcf" x="492.556717" y="111.187545" style="fill: #2ca02c; stroke: #2ca02c"/>
     <use xlink:href="#m286abd0bcf" x="533.078434" y="84.603271" style="fill: #2ca02c; stroke: #2ca02c"/>
     <use xlink:href="#m286abd0bcf" x="573.600152" y="44.027273" style="fill: #2ca02c; stroke: #2ca02c"/>
     <use xlink:href="#m286abd0bcf" x="695.165303" y="44.027273" style="fill: #2ca02c; stroke: #2ca02c"/>
     <use xlink:href="#m286abd0bcf" x="735.68702" y="44.027273" style="fill: #2ca02c; stroke: #2ca02c"/>
     <use xlink:href="#m286abd0bcf" x="776.208737" y="44.027273" style="fill: #2ca02c; stroke: #2ca02c"/>
     <use xlink:href="#m286abd0bcf" x="816.730455" y="44.027273" style="fill: #2ca02c; stroke: #2ca02c"/>
    </g>
   </g>
   <g id="line2d_44">
    <path d="M 87.339545 386.911999 
L 127.861263 363.12607 
L 168.38298 349.134346 
L 208.904697 339.34014 
L 249.426414 318.352555 
L 289.948131 308.558348 
L 330.469848 284.772419 
L 370.991566 249.79311 
L 411.513283 200.822078 
L 452.035 174.237804 
L 492.556717 143.456013 
L 533.078434 137.859323 
L 573.600152 81.89243 
L 695.165303 81.89243 
L 735.68702 81.89243 
L 776.208737 81.89243 
L 816.730455 81.89243 
" clip-path="url(#p0469b32ad3)" style="fill: none; stroke: #d62728; stroke-width: 1.5; stroke-linecap: square"/>
    <g clip-path="url(#p0469b32ad3)">
     <use xlink:href="#m30d03b078b" x="87.339545" y="386.911999" style="fill: #d62728; stroke: #d62728"/>
     <use xlink:href="#m30d03b078b" x="127.861263" y="363.12607" style="fill: #d62728; stroke: #d62728"/>
     <use xlink:href="#m30d03b078b" x="168.38298" y="349.134346" style="fill: #d62728; stroke: #d62728"/>
     <use xlink:href="#m30d03b078b" x="208.904697" y="339.34014" style="fill: #d62728; stroke: #d62728"/>
     <use xlink:href="#m30d03b078b" x="249.426414" y="318.352555" style="fill: #d62728; stroke: #d62728"/>
     <use xlink:href="#m30d03b078b" x="289.948131" y="308.558348" style="fill: #d62728; stroke: #d62728"/>
     <use xlink:href="#m30d03b078b" x="330.469848" y="284.772419" style="fill: #d62728; stroke: #d62728"/>
     <use xlink:href="#m30d03b078b" x="370.991566" y="249.79311" style="fill: #d62728; stroke: #d62728"/>
     <use xlink:href="#m30d03b078b" x="411.513283" y="200.822078" style="fill: #d62728; stroke: #d62728"/>
     <use xlink:href="#m30d03b078b" x="452.035" y="174.237804" style="fill: #d62728; stroke: #d62728"/>
     <use xlink:href="#m30d03b078b" x="492.556717" y="143.456013" style="fill: #d62728; stroke: #d62728"/>
     <use xlink:href="#m30d03b078b" x="533.078434" y="137.859323" style="fill: #d62728; stroke: #d62728"/>
     <use xlink:href="#m30d03b078b" x="573.600152" y="81.89243" style="fill: #d62728; stroke: #d62728"/>
     <use xlink:href="#m30d03b078b" x="695.165303" y="81.89243" style="fill: #d62728; stroke: #d62728"/>
     <use xlink:href="#m30d03b078b" x="735.68702" y="81.89243" style="fill: #d62728; stroke: #d62728"/>
     <use xlink:href="#m30d03b078b" x="776.208737" y="81.89243" style="fill: #d62728; stroke: #d62728"/>
     <use xlink:href="#m30d03b078b" x="816.730455" y="81.89243" style="fill: #d62728; stroke: #d62728"/>
    </g>
   </g>
   <g id="patch_3">
    <path d="M 50.87 404.12 
L 50.87 26.88 
" style="fill: none; stroke: #000000; stroke-width: 0.8; stroke-linejoin: miter; stroke-linecap: square"/>
   </g>
   <g id="patch_4">
    <path d="M 853.2 404.12 
L 853.2 26.88 
" style="fill: none; stroke: #000000; stroke-width: 0.8; stroke-linejoin: miter; stroke-linecap: square"/>
   </g>
   <g id="patch_5">
    <path d="M 50.87 404.12 
L 853.2 404.12 
" style="fill: none; stroke: #000000; stroke-width: 0.8; stroke-linejoin: miter; stroke-linecap: square"/>
   </g>
   <g id="patch_6">
    <path d="M 50.87 26.88 
L 853.2 26.88 
" style="fill: none; stroke: #000000; stroke-width: 0.8; stroke-linejoin: miter; stroke-linecap: square"/>
   </g>
   <g id="text_17">
    <!-- Standings -->
    <g transform="translate(422.18125 20.88) scale(0.12 -0.12)">
     <defs>
      <path id="DejaVuSans-74" d="M 1172 4494 
L 1172 3500 
L 2356 3500 
L 2356 3053 
L 1172 3053 
L 1172 1153 
Q 1172 725 1289 603 
Q 1406 481 1766 481 
L 2356 481 
L 2356 0 
L 1766 0 
Q 1100 0 847 248 
Q 594 497 594 1153 
L 594 3053 
L 172 3053 
L 172 3500 
L 594 3500 
L 594 4494 
L 1172 4494 
z
" transform="scale(0.015625)"/>
      <path id="DejaVuSans-61" d="M 2194 1759 
Q 1497 1759 1228 1600 
Q 959 1441 959 1056 
Q 959 750 1161 570 
Q 1363 391 1709 391 
Q 2188 391 2477 730 
Q 2766 1069 2766 1631 
L 2766 1759 
L 2194 1759 
z
M 3341 1997 
L 3341 0 
L 2766 0 
L 2766 531 
Q 2569 213 2275 61 
Q 1981 -91 1556 -91 
Q 1019 -91 701 211 
Q 384 513 384 1019 
Q 384 1609 779 1909 
Q 1175 2209 1959 2209 
L 2766 2209 
L 2766 2266 
Q 2766 2663 2505 2880 
Q 2244 3097 1772 3097 
Q 1472 3097 1187 3025 
Q 903 2953 641 2809 
L 641 3341 
Q 956 3463 1253 3523 
Q 1550 3584 1831 3584 
Q 2591 3584 2966 3190 
Q 3341 2797 3341 1997 
z
" transform="scale(0.015625)"/>
      <path id="DejaVuSans-6e" d="M 3513 2113 
L 3513 0 
L 2938 0 
L 2938 2094 
Q 2938 2591 2744 2837 
Q 2550 3084 2163 3084 
Q 1697 3084 1428 2787 
Q 1159 2491 1159 1978 
L 1159 0 
L 581 0 
L 581 3500 
L 1159 3500 
L 1159 2956 
Q 1366 3272 1645 3428 
Q 1925 3584 2291 3584 
Q 2894 3584 3203 3211 
Q 3513 2838 3513 2113 
z
" transform="scale(0.015625)"/>
      <path id="DejaVuSans-64" d="M 2906 2969 
L 2906 4863 
L 3481 4863 
L 3481 0 
L 2906 0 
L 2906 525 
Q 2725 213 2448 61 
Q 2172 -91 1784 -91 
Q 1150 -91 751 415 
Q 353 922 353 1747 
Q 353 2572 751 3078 
Q 1150 3584 1784 3584 
Q 2172 3584 2448 3432 
Q 2725 3281 2906 2969 
z
M 947 1747 
Q 947 1113 1208 752 
Q 1469 391 1925 391 
Q 2381 391 2643 752 
Q 2906 1113 2906 1747 
Q 2906 2381 2643 2742 
Q 2381 3103 1925 3103 
Q 1469 3103 1208 2742 
Q 947 2381 947 1747 
z
" transform="scale(0.015625)"/>
      <path id="DejaVuSans-69" d="M 603 3500 
L 1178 3500 
L 1178 0 
L 603 0 
L 603 3500 
z
M 603 4863 
L 1178 4863 
L 1178 4134 
L 603 4134 
L 603 4863 
z
" transform="scale(0.015625)"/>
      <path id="DejaVuSans-67" d="M 2906 1791 
Q 2906 2416 2648 2759 
Q 2391 3103 1925 3103 
Q 1463 3103 1205 2759 
Q 947 2416 947 1791 
Q 947 1169 1205 825 
Q 1463 481 1925 481 
Q 2391 481 2648 825 
Q 2906 1169 2906 1791 
z
M 3481 434 
Q 3481 -459 3084 -895 
Q 2688 -1331 1869 -1331 
Q 1566 -1331 1297 -1286 
Q 1028 -1241 775 -1147 
L 775 -588 
Q 1028 -725 1275 -790 
Q 1522 -856 1778 -856 
Q 2344 -856 2625 -561 
Q 2906 -266 2906 331 
L 2906 616 
Q 2728 306 2450 153 
Q 2172 0 1784 0 
Q 1141 0 747 490 
Q 353 981 353 1791 
Q 353 2603 747 3093 
Q 1141 3584 1784 3584 
Q 2172 3584 2450 3431 
Q 2728 3278 2906 2969 
L 2906 3500 
L 3481 3500 
L 3481 434 
z
" transform="scale(0.015625)"/>
      <path id="DejaVuSans-73" d="M 2834 3397 
L 2834 2853 
Q 2591 2978 2328 3040 
Q 2066 3103 1784 3103 
Q 1356 3103 1142 2972 
Q 928 2841 928 2578 
Q 928 2378 1081 2264 
Q 1234 2150 1697 2047 
L 1894 2003 
Q 2506 1872 2764 1633 
Q 3022 1394 3022 966 
Q 3022 478 2636 193 
Q 2250 -91 1575 -91 
Q 1294 -91 989 -36 
Q 684 19 347 128 
L 347 722 
Q 666 556 975 473 
Q 1284 391 1588 391 
Q 1994 391 2212 530 
Q 2431 669 2431 922 
Q 2431 1156 2273 1281 
Q 2116 1406 1581 1522 
L 1381 1569 
Q 847 1681 609 1914 
Q 372 2147 372 2553 
Q 372 3047 722 3315 
Q 1072 3584 1716 3584 
Q 2034 3584 2315 3537 
Q 2597 3491 2834 3397 
z
" transform="scale(0.015625)"/>
     </defs>
     <use xlink:href="#DejaVuSans-53"/>
     <use xlink:href="#DejaVuSans-74" x="63.476562"/>
     <use xlink:href="#DejaVuSans-61" x="102.685547"/>
     <use xlink:href="#DejaVuSans-6e" x="163.964844"/>
     <use xlink:href="#DejaVuSans-64" x="227.34375"/>
     <use xlink:href="#DejaVuSans-69" x="290.820312"/>
     <use xlink:href="#DejaVuSans-6e" x="318.603516"/>
     <use xlink:href="#DejaVuSans-67" x="381.982422"/>
     <use xlink:href="#DejaVuSans-73" x="445.458984"/>
    </g>
   </g>
   <g id="legend_1">
    <g id="patch_7">
     <path d="M 57.87 137.626875 
L 260.771563 137.626875 
Q 262.771563 137.626875 262.771563 135.626875 
L 262.771563 33.88 
Q 262.771563 31.88 260.771563 31.88 
L 57.87 31.88 
Q 55.87 31.88 55.87 33.88 
L 55.87 135.626875 
Q 55.87 137.626875 57.87 137.626875 
z
" style="fill: #ffffff; opacity: 0.8; stroke: #cccccc; stroke-linejoin: miter"/>
    </g>
    <g id="line2d_45">
     <path d="M 59.87 39.978437 
L 69.87 39.978437 
L 79.87 39.978437 
" style="fill: none; stroke: #1f77b4; stroke-width: 1.5; stroke-linecap: square"/>
     <g>
      <use xlink:href="#m0fca0f4ba9" x="69.87" y="39.978437" style="fill: #1f77b4; stroke: #1f77b4"/>
     </g>
    </g>
    <g id="text_18">
     <!-- Kenneth Sc -->
     <g transform="translate(87.87 43.478437) scale(0.1 -0.1)">
      <defs>
       <path id="DejaVuSans-4b" d="M 628 4666 
L 1259 4666 
L 1259 2694 
L 3353 4666 
L 4166 4666 
L 1850 2491 
L 4331 0 
L 3500 0 
L 1259 2247 
L 1259 0 
L 628 0 
L 628 4666 
z
" transform="scale(0.015625)"/>
       <path id="DejaVuSans-68" d="M 3513 2113 
L 3513 0 
L 2938 0 
L 2938 2094 
Q 2938 2591 2744 2837 
Q 2550 3084 2163 3084 
Q 1697 3084 1428 2787 
Q 1159 2491 1159 1978 
L 1159 0 
L 581 0 
L 581 4863 
L 1159 4863 
L 1159 2956 
Q 1366 3272 1645 3428 
Q 1925 3584 2291 3584 
Q 2894 3584 3203 3211 
Q 3513 2838 3513 2113 
z
" transform="scale(0.015625)"/>
       <path id="DejaVuSans-20" transform="scale(0.015625)"/>
      </defs>
      <use xlink:href="#DejaVuSans-4b"/>
      <use xlink:href="#DejaVuSans-65" x="60.576172"/>
      <use xlink:href="#DejaVuSans-6e" x="122.099609"/>
      <use xlink:href="#DejaVuSans-6e" x="185.478516"/>
      <use xlink:href="#DejaVuSans-65" x="248.857422"/>
      <use xlink:href="#DejaVuSans-74" x="310.380859"/>
      <use xlink:href="#DejaVuSans-68" x="349.589844"/>
      <use xlink:href="#DejaVuSans-20" x="412.96875"/>
      <use xlink:href="#DejaVuSans-53" x="444.755859"/>
      <use xlink:href="#DejaVuSans-63" x="508.232422"/>
     </g>
    </g>
    <g id="line2d_46">
     <path d="M 59.87 54.656563 
L 69.87 54.656563 
L 79.87 54.656563 
" style="fill: none; stroke: #ff7f0e; stroke-width: 1.5; stroke-linecap: square"/>
     <g>
      <use xlink:href="#mad8792e4a6" x="69.87" y="54.656563" style="fill: #ff7f0e; stroke: #ff7f0e"/>
     </g>
    </g>
    <g id="text_19">
     <!-- Laurits Pi -->
     <g transform="translate(87.87 58.156563) scale(0.1 -0.1)">
      <defs>
       <path id="DejaVuSans-4c" d="M 628 4666 
L 1259 4666 
L 1259 531 
L 3531 531 
L 3531 0 
L 628 0 
L 628 4666 
z
" transform="scale(0.015625)"/>
       <path id="DejaVuSans-75" d="M 544 1381 
L 544 3500 
L 1119 3500 
L 1119 1403 
Q 1119 906 1312 657 
Q 1506 409 1894 409 
Q 2359 409 2629 706 
Q 2900 1003 2900 1516 
L 2900 3500 
L 3475 3500 
L 3475 0 
L 2900 0 
L 2900 538 
Q 2691 219 2414 64 
Q 2138 -91 1772 -91 
Q 1169 -91 856 284 
Q 544 659 544 1381 
z
M 1991 3584 
L 1991 3584 
z
" transform="scale(0.015625)"/>
       <path id="DejaVuSans-50" d="M 1259 4147 
L 1259 2394 
L 2053 2394 
Q 2494 2394 2734 2622 
Q 2975 2850 2975 3272 
Q 2975 3691 2734 3919 
Q 2494 4147 2053 4147 
L 1259 4147 
z
M 628 4666 
L 2053 4666 
Q 2838 4666 3239 4311 
Q 3641 3956 3641 3272 
Q 3641 2581 3239 2228 
Q 2838 1875 2053 1875 
L 1259 1875 
L 1259 0 
L 628 0 
L 628 4666 
z
" transform="scale(0.015625)"/>
      </defs>
      <use xlink:href="#DejaVuSans-4c"/>
      <use xlink:href="#DejaVuSans-61" x="55.712891"/>
      <use xlink:href="#DejaVuSans-75" x="116.992188"/>
      <use xlink:href="#DejaVuSans-72" x="180.371094"/>
      <use xlink:href="#DejaVuSans-69" x="221.484375"/>
      <use xlink:href="#DejaVuSans-74" x="249.267578"/>
      <use xlink:href="#DejaVuSans-73" x="288.476562"/>
      <use xlink:href="#DejaVuSans-20" x="340.576172"/>
      <use xlink:href="#DejaVuSans-50" x="372.363281"/>
      <use xlink:href="#DejaVuSans-69" x="430.416016"/>
     </g>
    </g>
    <g id="line2d_47">
     <path d="M 59.87 69.334687 
L 69.87 69.334687 
L 79.87 69.334687 
" style="fill: none; stroke: #2ca02c; stroke-width: 1.5; stroke-linecap: square"/>
     <g>
      <use xlink:href="#m286abd0bcf" x="69.87" y="69.334687" style="fill: #2ca02c; stroke: #2ca02c"/>
     </g>
    </g>
    <g id="text_20">
     <!-- Ernst  B -->
     <g transform="translate(87.87 72.834687) scale(0.1 -0.1)">
      <defs>
       <path id="DejaVuSans-45" d="M 628 4666 
L 3578 4666 
L 3578 4134 
L 1259 4134 
L 1259 2753 
L 3481 2753 
L 3481 2222 
L 1259 2222 
L 1259 531 
L 3634 531 
L 3634 0 
L 628 0 
L 628 4666 
z
" transform="scale(0.015625)"/>
       <path id="DejaVuSans-42" d="M 1259 2228 
L 1259 519 
L 2272 519 
Q 2781 519 3026 730 
Q 3272 941 3272 1375 
Q 3272 1813 3026 2020 
Q 2781 2228 2272 2228 
L 1259 2228 
z
M 1259 4147 
L 1259 2741 
L 2194 2741 
Q 2656 2741 2882 2914 
Q 3109 3088 3109 3444 
Q 3109 3797 2882 3972 
Q 2656 4147 2194 4147 
L 1259 4147 
z
M 628 4666 
L 2241 4666 
Q 2963 4666 3353 4366 
Q 3744 4066 3744 3513 
Q 3744 3084 3544 2831 
Q 3344 2578 2956 2516 
Q 3422 2416 3680 2098 
Q 3938 1781 3938 1306 
Q 3938 681 3513 340 
Q 3088 0 2303 0 
L 628 0 
L 628 4666 
z
" transform="scale(0.015625)"/>
       <path id="DejaVuSans-f8" d="M 2828 2503 
L 1306 653 
Q 1434 522 1595 459 
Q 1756 397 1959 397 
Q 2419 397 2687 759 
Q 2956 1122 2956 1747 
Q 2956 1994 2925 2176 
Q 2894 2359 2828 2503 
z
M 2606 2841 
Q 2475 2969 2314 3033 
Q 2153 3097 1959 3097 
Q 1488 3097 1223 2730 
Q 959 2363 959 1703 
Q 959 1478 989 1306 
Q 1019 1134 1081 991 
L 2606 2841 
z
M 691 519 
Q 522 759 437 1067 
Q 353 1375 353 1747 
Q 353 2609 779 3096 
Q 1206 3584 1959 3584 
Q 2250 3584 2498 3504 
Q 2747 3425 2956 3263 
L 3391 3788 
L 3688 3541 
L 3231 2981 
Q 3397 2741 3481 2431 
Q 3566 2122 3566 1747 
Q 3566 888 3137 398 
Q 2709 -91 1959 -91 
Q 1659 -91 1407 -9 
Q 1156 72 959 231 
L 525 -294 
L 225 -50 
L 691 519 
z
" transform="scale(0.015625)"/>
      </defs>
      <use xlink:href="#DejaVuSans-45"/>
      <use xlink:href="#DejaVuSans-72" x="63.183594"/>
      <use xlink:href="#DejaVuSans-6e" x="102.546875"/>
      <use xlink:href="#DejaVuSans-73" x="165.925781"/>
      <use xlink:href="#DejaVuSans-74" x="218.025391"/>
      <use xlink:href="#DejaVuSans-20" x="257.234375"/>
      <use xlink:href="#DejaVuSans-20" x="289.021484"/>
      <use xlink:href="#DejaVuSans-42" x="320.808594"/>
      <use xlink:href="#DejaVuSans-f8" x="389.412109"/>
     </g>
    </g>
    <g id="line2d_48">
     <path d="M 59.87 84.012812 
L 69.87 84.012812 
L 79.87 84.012812 
" style="fill: none; stroke: #d62728; stroke-width: 1.5; stroke-linecap: square"/>
     <g>
      <use xlink:href="#m30d03b078b" x="69.87" y="84.012812" style="fill: #d62728; stroke: #d62728"/>
     </g>
    </g>
    <g id="text_21">
     <!-- Mette Is -->
     <g transform="translate(87.87 87.512812) scale(0.1 -0.1)">
      <defs>
       <path id="DejaVuSans-4d" d="M 628 4666 
L 1569 4666 
L 2759 1491 
L 3956 4666 
L 4897 4666 
L 4897 0 
L 4281 0 
L 4281 4097 
L 3078 897 
L 2444 897 
L 1241 4097 
L 1241 0 
L 628 0 
L 628 4666 
z
" transform="scale(0.015625)"/>
       <path id="DejaVuSans-49" d="M 628 4666 
L 1259 4666 
L 1259 0 
L 628 0 
L 628 4666 
z
" transform="scale(0.015625)"/>
      </defs>
      <use xlink:href="#DejaVuSans-4d"/>
      <use xlink:href="#DejaVuSans-65" x="86.279297"/>
      <use xlink:href="#DejaVuSans-74" x="147.802734"/>
      <use xlink:href="#DejaVuSans-74" x="187.011719"/>
      <use xlink:href="#DejaVuSans-65" x="226.220703"/>
      <use xlink:href="#DejaVuSans-20" x="287.744141"/>
      <use xlink:href="#DejaVuSans-49" x="319.53125"/>
      <use xlink:href="#DejaVuSans-73" x="349.023438"/>
     </g>
    </g>
    <g id="line2d_49">
     <path d="M 59.87 98.690938 
L 69.87 98.690938 
L 79.87 98.690938 
" style="fill: none; stroke: #9467bd; stroke-width: 1.5; stroke-linecap: square"/>
     <g>
      <use xlink:href="#m3ec2ee5c34" x="69.87" y="98.690938" style="fill: #9467bd; stroke: #9467bd"/>
     </g>
    </g>
    <g id="text_22">
     <!-- Christian Is -->
     <g transform="translate(87.87 102.190938) scale(0.1 -0.1)">
      <defs>
       <path id="DejaVuSans-43" d="M 4122 4306 
L 4122 3641 
Q 3803 3938 3442 4084 
Q 3081 4231 2675 4231 
Q 1875 4231 1450 3742 
Q 1025 3253 1025 2328 
Q 1025 1406 1450 917 
Q 1875 428 2675 428 
Q 3081 428 3442 575 
Q 3803 722 4122 1019 
L 4122 359 
Q 3791 134 3420 21 
Q 3050 -91 2638 -91 
Q 1578 -91 968 557 
Q 359 1206 359 2328 
Q 359 3453 968 4101 
Q 1578 4750 2638 4750 
Q 3056 4750 3426 4639 
Q 3797 4528 4122 4306 
z
" transform="scale(0.015625)"/>
      </defs>
      <use xlink:href="#DejaVuSans-43"/>
      <use xlink:href="#DejaVuSans-68" x="69.824219"/>
      <use xlink:href="#DejaVuSans-72" x="133.203125"/>
      <use xlink:href="#DejaVuSans-69" x="174.316406"/>
      <use xlink:href="#DejaVuSans-73" x="202.099609"/>
      <use xlink:href="#DejaVuSans-74" x="254.199219"/>
      <use xlink:href="#DejaVuSans-69" x="293.408203"/>
      <use xlink:href="#DejaVuSans-61" x="321.191406"/>
      <use xlink:href="#DejaVuSans-6e" x="382.470703"/>
      <use xlink:href="#DejaVuSans-20" x="445.849609"/>
      <use xlink:href="#DejaVuSans-49" x="477.636719"/>
      <use xlink:href="#DejaVuSans-73" x="507.128906"/>
     </g>
    </g>
    <g id="line2d_50">
     <path d="M 59.87 113.369062 
L 69.87 113.369062 
L 79.87 113.369062 
" style="fill: none; stroke: #8c564b; stroke-width: 1.5; stroke-linecap: square"/>
     <g>
      <use xlink:href="#m680194303c" x="69.87" y="113.369062" style="fill: #8c564b; stroke: #8c564b"/>
     </g>
    </g>
    <g id="text_23">
     <!-- Jonas Bo -->
     <g transform="translate(87.87 116.869062) scale(0.1 -0.1)">
      <defs>
       <path id="DejaVuSans-4a" d="M 628 4666 
L 1259 4666 
L 1259 325 
Q 1259 -519 939 -900 
Q 619 -1281 -91 -1281 
L -331 -1281 
L -331 -750 
L -134 -750 
Q 284 -750 456 -515 
Q 628 -281 628 325 
L 628 4666 
z
" transform="scale(0.015625)"/>
      </defs>
      <use xlink:href="#DejaVuSans-4a"/>
      <use xlink:href="#DejaVuSans-6f" x="29.492188"/>
      <use xlink:href="#DejaVuSans-6e" x="90.673828"/>
      <use xlink:href="#DejaVuSans-61" x="154.052734"/>
      <use xlink:href="#DejaVuSans-73" x="215.332031"/>
      <use xlink:href="#DejaVuSans-20" x="267.431641"/>
      <use xlink:href="#DejaVuSans-42" x="299.21875"/>
      <use xlink:href="#DejaVuSans-6f" x="367.822266"/>
     </g>
    </g>
    <g id="line2d_51">
     <path d="M 59.87 128.047187 
L 69.87 128.047187 
L 79.87 128.047187 
" style="fill: none; stroke: #e377c2; stroke-width: 1.5; stroke-linecap: square"/>
     <g>
      <use xlink:href="#m57cbf8d432" x="69.87" y="128.047187" style="fill: #e377c2; stroke: #e377c2"/>
     </g>
    </g>
    <g id="text_24">
     <!-- Tobias Bo -->
     <g transform="translate(87.87 131.547187) scale(0.1 -0.1)">
      <defs>
       <path id="DejaVuSans-54" d="M -19 4666 
L 3928 4666 
L 3928 4134 
L 2272 4134 
L 2272 0 
L 1638 0 
L 1638 4134 
L -19 4134 
L -19 4666 
z
" transform="scale(0.015625)"/>
       <path id="DejaVuSans-62" d="M 3116 1747 
Q 3116 2381 2855 2742 
Q 2594 3103 2138 3103 
Q 1681 3103 1420 2742 
Q 1159 2381 1159 1747 
Q 1159 1113 1420 752 
Q 1681 391 2138 391 
Q 2594 391 2855 752 
Q 3116 1113 3116 1747 
z
M 1159 2969 
Q 1341 3281 1617 3432 
Q 1894 3584 2278 3584 
Q 2916 3584 3314 3078 
Q 3713 2572 3713 1747 
Q 3713 922 3314 415 
Q 2916 -91 2278 -91 
Q 1894 -91 1617 61 
Q 1341 213 1159 525 
L 1159 0 
L 581 0 
L 581 4863 
L 1159 4863 
L 1159 2969 
z
" transform="scale(0.015625)"/>
      </defs>
      <use xlink:href="#DejaVuSans-54"/>
      <use xlink:href="#DejaVuSans-6f" x="44.083984"/>
      <use xlink:href="#DejaVuSans-62" x="105.265625"/>
      <use xlink:href="#DejaVuSans-69" x="168.742188"/>
      <use xlink:href="#DejaVuSans-61" x="196.525391"/>
      <use xlink:href="#DejaVuSans-73" x="257.804688"/>
      <use xlink:href="#DejaVuSans-20" x="309.904297"/>
      <use xlink:href="#DejaVuSans-42" x="341.691406"/>
      <use xlink:href="#DejaVuSans-6f" x="410.294922"/>
     </g>
    </g>
    <g id="line2d_52">
     <path d="M 164.191875 39.978437 
L 174.191875 39.978437 
L 184.191875 39.978437 
" style="fill: none; stroke: #7f7f7f; stroke-width: 1.5; stroke-linecap: square"/>
     <g>
      <use xlink:href="#m67e101380b" x="174.191875" y="39.978437" style="fill: #7f7f7f; stroke: #7f7f7f"/>
     </g>
    </g>
    <g id="text_25">
     <!-- Christian Gr -->
     <g transform="translate(192.191875 43.478437) scale(0.1 -0.1)">
      <defs>
       <path id="DejaVuSans-47" d="M 3809 666 
L 3809 1919 
L 2778 1919 
L 2778 2438 
L 4434 2438 
L 4434 434 
Q 4069 175 3628 42 
Q 3188 -91 2688 -91 
Q 1594 -91 976 548 
Q 359 1188 359 2328 
Q 359 3472 976 4111 
Q 1594 4750 2688 4750 
Q 3144 4750 3555 4637 
Q 3966 4525 4313 4306 
L 4313 3634 
Q 3963 3931 3569 4081 
Q 3175 4231 2741 4231 
Q 1884 4231 1454 3753 
Q 1025 3275 1025 2328 
Q 1025 1384 1454 906 
Q 1884 428 2741 428 
Q 3075 428 3337 486 
Q 3600 544 3809 666 
z
" transform="scale(0.015625)"/>
      </defs>
      <use xlink:href="#DejaVuSans-43"/>
      <use xlink:href="#DejaVuSans-68" x="69.824219"/>
      <use xlink:href="#DejaVuSans-72" x="133.203125"/>
      <use xlink:href="#DejaVuSans-69" x="174.316406"/>
      <use xlink:href="#DejaVuSans-73" x="202.099609"/>
      <use xlink:href="#DejaVuSans-74" x="254.199219"/>
      <use xlink:href="#DejaVuSans-69" x="293.408203"/>
      <use xlink:href="#DejaVuSans-61" x="321.191406"/>
      <use xlink:href="#DejaVuSans-6e" x="382.470703"/>
      <use xlink:href="#DejaVuSans-20" x="445.849609"/>
      <use xlink:href="#DejaVuSans-47" x="477.636719"/>
      <use xlink:href="#DejaVuSans-72" x="555.126953"/>
     </g>
    </g>
    <g id="line2d_53">
     <path d="M 164.191875 54.656563 
L 174.191875 54.656563 
L 184.191875 54.656563 
" style="fill: none; stroke: #bcbd22; stroke-width: 1.5; stroke-linecap: square"/>
     <g>
      <use xlink:href="#mec695b214d" x="174.191875" y="54.656563" style="fill: #bcbd22; stroke: #bcbd22"/>
     </g>
    </g>
    <g id="text_26">
     <!-- Oscar Kh -->
     <g transform="translate(192.191875 58.156563) scale(0.1 -0.1)">
      <defs>
       <path id="DejaVuSans-4f" d="M 2522 4238 
Q 1834 4238 1429 3725 
Q 1025 3213 1025 2328 
Q 1025 1447 1429 934 
Q 1834 422 2522 422 
Q 3209 422 3611 934 
Q 4013 1447 4013 2328 
Q 4013 3213 3611 3725 
Q 3209 4238 2522 4238 
z
M 2522 4750 
Q 3503 4750 4090 4092 
Q 4678 3434 4678 2328 
Q 4678 1225 4090 567 
Q 3503 -91 2522 -91 
Q 1538 -91 948 565 
Q 359 1222 359 2328 
Q 359 3434 948 4092 
Q 1538 4750 2522 4750 
z
" transform="scale(0.015625)"/>
      </defs>
      <use xlink:href="#DejaVuSans-4f"/>
      <use xlink:href="#DejaVuSans-73" x="78.710938"/>
      <use xlink:href="#DejaVuSans-63" x="130.810547"/>
      <use xlink:href="#DejaVuSans-61" x="185.791016"/>
      <use xlink:href="#DejaVuSans-72" x="247.070312"/>
      <use xlink:href="#DejaVuSans-20" x="288.183594"/>
      <use xlink:href="#DejaVuSans-4b" x="319.970703"/>
      <use xlink:href="#DejaVuSans-68" x="385.546875"/>
     </g>
    </g>
    <g id="line2d_54">
     <path d="M 164.191875 69.334687 
L 174.191875 69.334687 
L 184.191875 69.334687 
" style="fill: none; stroke: #17becf; stroke-width: 1.5; stroke-linecap: square"/>
     <g>
      <use xlink:href="#m5b08dcf8d9" x="174.191875" y="69.334687" style="fill: #17becf; stroke: #17becf"/>
     </g>
    </g>
    <g id="text_27">
     <!-- Isabella Is -->
     <g transform="translate(192.191875 72.834687) scale(0.1 -0.1)">
      <defs>
       <path id="DejaVuSans-6c" d="M 603 4863 
L 1178 4863 
L 1178 0 
L 603 0 
L 603 4863 
z
" transform="scale(0.015625)"/>
      </defs>
      <use xlink:href="#DejaVuSans-49"/>
      <use xlink:href="#DejaVuSans-73" x="29.492188"/>
      <use xlink:href="#DejaVuSans-61" x="81.591797"/>
      <use xlink:href="#DejaVuSans-62" x="142.871094"/>
      <use xlink:href="#DejaVuSans-65" x="206.347656"/>
      <use xlink:href="#DejaVuSans-6c" x="267.871094"/>
      <use xlink:href="#DejaVuSans-6c" x="295.654297"/>
      <use xlink:href="#DejaVuSans-61" x="323.4375"/>
      <use xlink:href="#DejaVuSans-20" x="384.716797"/>
      <use xlink:href="#DejaVuSans-49" x="416.503906"/>
      <use xlink:href="#DejaVuSans-73" x="445.996094"/>
     </g>
    </g>
    <g id="line2d_55">
     <path d="M 164.191875 84.012812 
L 174.191875 84.012812 
L 184.191875 84.012812 
" style="fill: none; stroke: #1f77b4; stroke-width: 1.5; stroke-linecap: square"/>
     <g>
      <use xlink:href="#m0fca0f4ba9" x="174.191875" y="84.012812" style="fill: #1f77b4; stroke: #1f77b4"/>
     </g>
    </g>
    <g id="text_28">
     <!-- Frederik Ha -->
     <g transform="translate(192.191875 87.512812) scale(0.1 -0.1)">
      <defs>
       <path id="DejaVuSans-46" d="M 628 4666 
L 3309 4666 
L 3309 4134 
L 1259 4134 
L 1259 2759 
L 3109 2759 
L 3109 2228 
L 1259 2228 
L 1259 0 
L 628 0 
L 628 4666 
z
" transform="scale(0.015625)"/>
       <path id="DejaVuSans-6b" d="M 581 4863 
L 1159 4863 
L 1159 1991 
L 2875 3500 
L 3609 3500 
L 1753 1863 
L 3688 0 
L 2938 0 
L 1159 1709 
L 1159 0 
L 581 0 
L 581 4863 
z
" transform="scale(0.015625)"/>
       <path id="DejaVuSans-48" d="M 628 4666 
L 1259 4666 
L 1259 2753 
L 3553 2753 
L 3553 4666 
L 4184 4666 
L 4184 0 
L 3553 0 
L 3553 2222 
L 1259 2222 
L 1259 0 
L 628 0 
L 628 4666 
z
" transform="scale(0.015625)"/>
      </defs>
      <use xlink:href="#DejaVuSans-46"/>
      <use xlink:href="#DejaVuSans-72" x="50.269531"/>
      <use xlink:href="#DejaVuSans-65" x="89.132812"/>
      <use xlink:href="#DejaVuSans-64" x="150.65625"/>
      <use xlink:href="#DejaVuSans-65" x="214.132812"/>
      <use xlink:href="#DejaVuSans-72" x="275.65625"/>
      <use xlink:href="#DejaVuSans-69" x="316.769531"/>
      <use xlink:href="#DejaVuSans-6b" x="344.552734"/>
      <use xlink:href="#DejaVuSans-20" x="402.462891"/>
      <use xlink:href="#DejaVuSans-48" x="434.25"/>
      <use xlink:href="#DejaVuSans-61" x="509.445312"/>
     </g>
    </g>
    <g id="line2d_56">
     <path d="M 164.191875 98.690938 
L 174.191875 98.690938 
L 184.191875 98.690938 
" style="fill: none; stroke: #ff7f0e; stroke-width: 1.5; stroke-linecap: square"/>
     <g>
      <use xlink:href="#mad8792e4a6" x="174.191875" y="98.690938" style="fill: #ff7f0e; stroke: #ff7f0e"/>
     </g>
    </g>
    <g id="text_29">
     <!-- CamJams Gr -->
     <g transform="translate(192.191875 102.190938) scale(0.1 -0.1)">
      <defs>
       <path id="DejaVuSans-6d" d="M 3328 2828 
Q 3544 3216 3844 3400 
Q 4144 3584 4550 3584 
Q 5097 3584 5394 3201 
Q 5691 2819 5691 2113 
L 5691 0 
L 5113 0 
L 5113 2094 
Q 5113 2597 4934 2840 
Q 4756 3084 4391 3084 
Q 3944 3084 3684 2787 
Q 3425 2491 3425 1978 
L 3425 0 
L 2847 0 
L 2847 2094 
Q 2847 2600 2669 2842 
Q 2491 3084 2119 3084 
Q 1678 3084 1418 2786 
Q 1159 2488 1159 1978 
L 1159 0 
L 581 0 
L 581 3500 
L 1159 3500 
L 1159 2956 
Q 1356 3278 1631 3431 
Q 1906 3584 2284 3584 
Q 2666 3584 2933 3390 
Q 3200 3197 3328 2828 
z
" transform="scale(0.015625)"/>
      </defs>
      <use xlink:href="#DejaVuSans-43"/>
      <use xlink:href="#DejaVuSans-61" x="69.824219"/>
      <use xlink:href="#DejaVuSans-6d" x="131.103516"/>
      <use xlink:href="#DejaVuSans-4a" x="228.515625"/>
      <use xlink:href="#DejaVuSans-61" x="258.007812"/>
      <use xlink:href="#DejaVuSans-6d" x="319.287109"/>
      <use xlink:href="#DejaVuSans-73" x="416.699219"/>
      <use xlink:href="#DejaVuSans-20" x="468.798828"/>
      <use xlink:href="#DejaVuSans-47" x="500.585938"/>
      <use xlink:href="#DejaVuSans-72" x="578.076172"/>
     </g>
    </g>
    <g id="line2d_57">
     <path d="M 164.191875 113.369062 
L 174.191875 113.369062 
L 184.191875 113.369062 
" style="fill: none; stroke: #2ca02c; stroke-width: 1.5; stroke-linecap: square"/>
     <g>
      <use xlink:href="#m286abd0bcf" x="174.191875" y="113.369062" style="fill: #2ca02c; stroke: #2ca02c"/>
     </g>
    </g>
    <g id="text_30">
     <!-- Ebbe Ottar Je -->
     <g transform="translate(192.191875 116.869062) scale(0.1 -0.1)">
      <use xlink:href="#DejaVuSans-45"/>
      <use xlink:href="#DejaVuSans-62" x="63.183594"/>
      <use xlink:href="#DejaVuSans-62" x="126.660156"/>
      <use xlink:href="#DejaVuSans-65" x="190.136719"/>
      <use xlink:href="#DejaVuSans-20" x="251.660156"/>
      <use xlink:href="#DejaVuSans-4f" x="283.447266"/>
      <use xlink:href="#DejaVuSans-74" x="362.158203"/>
      <use xlink:href="#DejaVuSans-74" x="401.367188"/>
      <use xlink:href="#DejaVuSans-61" x="440.576172"/>
      <use xlink:href="#DejaVuSans-72" x="501.855469"/>
      <use xlink:href="#DejaVuSans-20" x="542.96875"/>
      <use xlink:href="#DejaVuSans-4a" x="574.755859"/>
      <use xlink:href="#DejaVuSans-65" x="604.248047"/>
     </g>
    </g>
    <g id="line2d_58">
     <path d="M 164.191875 128.047187 
L 174.191875 128.047187 
L 184.191875 128.047187 
" style="fill: none; stroke: #d62728; stroke-width: 1.5; stroke-linecap: square"/>
     <g>
      <use xlink:href="#m30d03b078b" x="174.191875" y="128.047187" style="fill: #d62728; stroke: #d62728"/>
     </g>
    </g>
    <g id="text_31">
     <!-- Joachim Gl -->
     <g transform="translate(192.191875 131.547187) scale(0.1 -0.1)">
      <use xlink:href="#DejaVuSans-4a"/>
      <use xlink:href="#DejaVuSans-6f" x="29.492188"/>
      <use xlink:href="#DejaVuSans-61" x="90.673828"/>
      <use xlink:href="#DejaVuSans-63" x="151.953125"/>
      <use xlink:href="#DejaVuSans-68" x="206.933594"/>
      <use xlink:href="#DejaVuSans-69" x="270.3125"/>
      <use xlink:href="#DejaVuSans-6d" x="298.095703"/>
      <use xlink:href="#DejaVuSans-20" x="395.507812"/>
      <use xlink:href="#DejaVuSans-47" x="427.294922"/>
      <use xlink:href="#DejaVuSans-6c" x="504.785156"/>
     </g>
    </g>
   </g>
  </g>
 </g>
 <defs>
  <clipPath id="p0469b32ad3">
   <rect x="50.87" y="26.88" width="802.33" height="377.24"/>
  </clipPath>
 </defs>
</svg>
