<?xml version="1.0" encoding="utf-8" standalone="no"?>
<!DOCTYPE svg PUBLIC "-//W3C//DTD SVG 1.1//EN"
  "http://www.w3.org/Graphics/SVG/1.1/DTD/svg11.dtd">
<svg xmlns:xlink="http://www.w3.org/1999/xlink" width="864pt" height="432pt" viewBox="0 0 864 432" xmlns="http://www.w3.org/2000/svg" version="1.1">
 <metadata>
  <rdf:RDF xmlns:dc="http://purl.org/dc/elements/1.1/" xmlns:cc="http://creativecommons.org/ns#" xmlns:rdf="http://www.w3.org/1999/02/22-rdf-syntax-ns#">
   <cc:Work>
    <dc:type rdf:resource="http://purl.org/dc/dcmitype/StillImage"/>
    <dc:date>2024-07-12T04:31:03.675834</dc:date>
    <dc:format>image/svg+xml</dc:format>
    <dc:creator>
     <cc:Agent>
      <dc:title>Matplotlib v3.9.1, https://matplotlib.org/</dc:title>
     </cc:Agent>
    </dc:creator>
   </cc:Work>
  </rdf:RDF>
 </metadata>
 <defs>
  <style type="text/css">*{stroke-linejoin: round; stroke-linecap: butt}</style>
 </defs>
 <g id="figure_1">
  <g id="patch_1">
   <path d="M 0 432 
L 864 432 
L 864 0 
L 0 0 
z
" style="fill: #ffffff"/>
  </g>
  <g id="axes_1">
   <g id="patch_2">
    <path d="M 50.87 404.12 
L 833.141104 404.12 
L 833.141104 26.88 
L 50.87 26.88 
z
" style="fill: #ffffff"/>
   </g>
   <g id="matplotlib.axis_1">
    <g id="xtick_1">
     <g id="line2d_1">
      <path d="M 61.029365 404.12 
L 61.029365 26.88 
" clip-path="url(#pef2ed5f0a7)" style="fill: none; stroke-dasharray: 2.96,1.28; stroke-dashoffset: 0; stroke: #b0b0b0; stroke-width: 0.8"/>
     </g>
     <g id="line2d_2">
      <defs>
       <path id="mc72e3f5691" d="M 0 0 
L 0 3.5 
" style="stroke: #000000; stroke-width: 0.8"/>
      </defs>
      <g>
       <use xlink:href="#mc72e3f5691" x="61.029365" y="404.12" style="stroke: #000000; stroke-width: 0.8"/>
      </g>
     </g>
     <g id="text_1">
      <!-- 2024-06-13 -->
      <g transform="translate(31.971552 418.718437) scale(0.1 -0.1)">
       <defs>
        <path id="DejaVuSans-32" d="M 1228 531 
L 3431 531 
L 3431 0 
L 469 0 
L 469 531 
Q 828 903 1448 1529 
Q 2069 2156 2228 2338 
Q 2531 2678 2651 2914 
Q 2772 3150 2772 3378 
Q 2772 3750 2511 3984 
Q 2250 4219 1831 4219 
Q 1534 4219 1204 4116 
Q 875 4013 500 3803 
L 500 4441 
Q 881 4594 1212 4672 
Q 1544 4750 1819 4750 
Q 2544 4750 2975 4387 
Q 3406 4025 3406 3419 
Q 3406 3131 3298 2873 
Q 3191 2616 2906 2266 
Q 2828 2175 2409 1742 
Q 1991 1309 1228 531 
z
" transform="scale(0.015625)"/>
        <path id="DejaVuSans-30" d="M 2034 4250 
Q 1547 4250 1301 3770 
Q 1056 3291 1056 2328 
Q 1056 1369 1301 889 
Q 1547 409 2034 409 
Q 2525 409 2770 889 
Q 3016 1369 3016 2328 
Q 3016 3291 2770 3770 
Q 2525 4250 2034 4250 
z
M 2034 4750 
Q 2819 4750 3233 4129 
Q 3647 3509 3647 2328 
Q 3647 1150 3233 529 
Q 2819 -91 2034 -91 
Q 1250 -91 836 529 
Q 422 1150 422 2328 
Q 422 3509 836 4129 
Q 1250 4750 2034 4750 
z
" transform="scale(0.015625)"/>
        <path id="DejaVuSans-34" d="M 2419 4116 
L 825 1625 
L 2419 1625 
L 2419 4116 
z
M 2253 4666 
L 3047 4666 
L 3047 1625 
L 3713 1625 
L 3713 1100 
L 3047 1100 
L 3047 0 
L 2419 0 
L 2419 1100 
L 313 1100 
L 313 1709 
L 2253 4666 
z
" transform="scale(0.015625)"/>
        <path id="DejaVuSans-2d" d="M 313 2009 
L 1997 2009 
L 1997 1497 
L 313 1497 
L 313 2009 
z
" transform="scale(0.015625)"/>
        <path id="DejaVuSans-36" d="M 2113 2584 
Q 1688 2584 1439 2293 
Q 1191 2003 1191 1497 
Q 1191 994 1439 701 
Q 1688 409 2113 409 
Q 2538 409 2786 701 
Q 3034 994 3034 1497 
Q 3034 2003 2786 2293 
Q 2538 2584 2113 2584 
z
M 3366 4563 
L 3366 3988 
Q 3128 4100 2886 4159 
Q 2644 4219 2406 4219 
Q 1781 4219 1451 3797 
Q 1122 3375 1075 2522 
Q 1259 2794 1537 2939 
Q 1816 3084 2150 3084 
Q 2853 3084 3261 2657 
Q 3669 2231 3669 1497 
Q 3669 778 3244 343 
Q 2819 -91 2113 -91 
Q 1303 -91 875 529 
Q 447 1150 447 2328 
Q 447 3434 972 4092 
Q 1497 4750 2381 4750 
Q 2619 4750 2861 4703 
Q 3103 4656 3366 4563 
z
" transform="scale(0.015625)"/>
        <path id="DejaVuSans-31" d="M 794 531 
L 1825 531 
L 1825 4091 
L 703 3866 
L 703 4441 
L 1819 4666 
L 2450 4666 
L 2450 531 
L 3481 531 
L 3481 0 
L 794 0 
L 794 531 
z
" transform="scale(0.015625)"/>
        <path id="DejaVuSans-33" d="M 2597 2516 
Q 3050 2419 3304 2112 
Q 3559 1806 3559 1356 
Q 3559 666 3084 287 
Q 2609 -91 1734 -91 
Q 1441 -91 1130 -33 
Q 819 25 488 141 
L 488 750 
Q 750 597 1062 519 
Q 1375 441 1716 441 
Q 2309 441 2620 675 
Q 2931 909 2931 1356 
Q 2931 1769 2642 2001 
Q 2353 2234 1838 2234 
L 1294 2234 
L 1294 2753 
L 1863 2753 
Q 2328 2753 2575 2939 
Q 2822 3125 2822 3475 
Q 2822 3834 2567 4026 
Q 2313 4219 1838 4219 
Q 1578 4219 1281 4162 
Q 984 4106 628 3988 
L 628 4550 
Q 988 4650 1302 4700 
Q 1616 4750 1894 4750 
Q 2613 4750 3031 4423 
Q 3450 4097 3450 3541 
Q 3450 3153 3228 2886 
Q 3006 2619 2597 2516 
z
" transform="scale(0.015625)"/>
       </defs>
       <use xlink:href="#DejaVuSans-32"/>
       <use xlink:href="#DejaVuSans-30" x="63.623047"/>
       <use xlink:href="#DejaVuSans-32" x="127.246094"/>
       <use xlink:href="#DejaVuSans-34" x="190.869141"/>
       <use xlink:href="#DejaVuSans-2d" x="254.492188"/>
       <use xlink:href="#DejaVuSans-30" x="290.576172"/>
       <use xlink:href="#DejaVuSans-36" x="354.199219"/>
       <use xlink:href="#DejaVuSans-2d" x="417.822266"/>
       <use xlink:href="#DejaVuSans-31" x="453.90625"/>
       <use xlink:href="#DejaVuSans-33" x="517.529297"/>
      </g>
     </g>
    </g>
    <g id="xtick_2">
     <g id="line2d_3">
      <path d="M 162.623015 404.12 
L 162.623015 26.88 
" clip-path="url(#pef2ed5f0a7)" style="fill: none; stroke-dasharray: 2.96,1.28; stroke-dashoffset: 0; stroke: #b0b0b0; stroke-width: 0.8"/>
     </g>
     <g id="line2d_4">
      <g>
       <use xlink:href="#mc72e3f5691" x="162.623015" y="404.12" style="stroke: #000000; stroke-width: 0.8"/>
      </g>
     </g>
     <g id="text_2">
      <!-- 2024-06-17 -->
      <g transform="translate(133.565202 418.718437) scale(0.1 -0.1)">
       <defs>
        <path id="DejaVuSans-37" d="M 525 4666 
L 3525 4666 
L 3525 4397 
L 1831 0 
L 1172 0 
L 2766 4134 
L 525 4134 
L 525 4666 
z
" transform="scale(0.015625)"/>
       </defs>
       <use xlink:href="#DejaVuSans-32"/>
       <use xlink:href="#DejaVuSans-30" x="63.623047"/>
       <use xlink:href="#DejaVuSans-32" x="127.246094"/>
       <use xlink:href="#DejaVuSans-34" x="190.869141"/>
       <use xlink:href="#DejaVuSans-2d" x="254.492188"/>
       <use xlink:href="#DejaVuSans-30" x="290.576172"/>
       <use xlink:href="#DejaVuSans-36" x="354.199219"/>
       <use xlink:href="#DejaVuSans-2d" x="417.822266"/>
       <use xlink:href="#DejaVuSans-31" x="453.90625"/>
       <use xlink:href="#DejaVuSans-37" x="517.529297"/>
      </g>
     </g>
    </g>
    <g id="xtick_3">
     <g id="line2d_5">
      <path d="M 264.216665 404.12 
L 264.216665 26.88 
" clip-path="url(#pef2ed5f0a7)" style="fill: none; stroke-dasharray: 2.96,1.28; stroke-dashoffset: 0; stroke: #b0b0b0; stroke-width: 0.8"/>
     </g>
     <g id="line2d_6">
      <g>
       <use xlink:href="#mc72e3f5691" x="264.216665" y="404.12" style="stroke: #000000; stroke-width: 0.8"/>
      </g>
     </g>
     <g id="text_3">
      <!-- 2024-06-21 -->
      <g transform="translate(235.158852 418.718437) scale(0.1 -0.1)">
       <use xlink:href="#DejaVuSans-32"/>
       <use xlink:href="#DejaVuSans-30" x="63.623047"/>
       <use xlink:href="#DejaVuSans-32" x="127.246094"/>
       <use xlink:href="#DejaVuSans-34" x="190.869141"/>
       <use xlink:href="#DejaVuSans-2d" x="254.492188"/>
       <use xlink:href="#DejaVuSans-30" x="290.576172"/>
       <use xlink:href="#DejaVuSans-36" x="354.199219"/>
       <use xlink:href="#DejaVuSans-2d" x="417.822266"/>
       <use xlink:href="#DejaVuSans-32" x="453.90625"/>
       <use xlink:href="#DejaVuSans-31" x="517.529297"/>
      </g>
     </g>
    </g>
    <g id="xtick_4">
     <g id="line2d_7">
      <path d="M 365.810315 404.12 
L 365.810315 26.88 
" clip-path="url(#pef2ed5f0a7)" style="fill: none; stroke-dasharray: 2.96,1.28; stroke-dashoffset: 0; stroke: #b0b0b0; stroke-width: 0.8"/>
     </g>
     <g id="line2d_8">
      <g>
       <use xlink:href="#mc72e3f5691" x="365.810315" y="404.12" style="stroke: #000000; stroke-width: 0.8"/>
      </g>
     </g>
     <g id="text_4">
      <!-- 2024-06-25 -->
      <g transform="translate(336.752502 418.718437) scale(0.1 -0.1)">
       <defs>
        <path id="DejaVuSans-35" d="M 691 4666 
L 3169 4666 
L 3169 4134 
L 1269 4134 
L 1269 2991 
Q 1406 3038 1543 3061 
Q 1681 3084 1819 3084 
Q 2600 3084 3056 2656 
Q 3513 2228 3513 1497 
Q 3513 744 3044 326 
Q 2575 -91 1722 -91 
Q 1428 -91 1123 -41 
Q 819 9 494 109 
L 494 744 
Q 775 591 1075 516 
Q 1375 441 1709 441 
Q 2250 441 2565 725 
Q 2881 1009 2881 1497 
Q 2881 1984 2565 2268 
Q 2250 2553 1709 2553 
Q 1456 2553 1204 2497 
Q 953 2441 691 2322 
L 691 4666 
z
" transform="scale(0.015625)"/>
       </defs>
       <use xlink:href="#DejaVuSans-32"/>
       <use xlink:href="#DejaVuSans-30" x="63.623047"/>
       <use xlink:href="#DejaVuSans-32" x="127.246094"/>
       <use xlink:href="#DejaVuSans-34" x="190.869141"/>
       <use xlink:href="#DejaVuSans-2d" x="254.492188"/>
       <use xlink:href="#DejaVuSans-30" x="290.576172"/>
       <use xlink:href="#DejaVuSans-36" x="354.199219"/>
       <use xlink:href="#DejaVuSans-2d" x="417.822266"/>
       <use xlink:href="#DejaVuSans-32" x="453.90625"/>
       <use xlink:href="#DejaVuSans-35" x="517.529297"/>
      </g>
     </g>
    </g>
    <g id="xtick_5">
     <g id="line2d_9">
      <path d="M 467.403964 404.12 
L 467.403964 26.88 
" clip-path="url(#pef2ed5f0a7)" style="fill: none; stroke-dasharray: 2.96,1.28; stroke-dashoffset: 0; stroke: #b0b0b0; stroke-width: 0.8"/>
     </g>
     <g id="line2d_10">
      <g>
       <use xlink:href="#mc72e3f5691" x="467.403964" y="404.12" style="stroke: #000000; stroke-width: 0.8"/>
      </g>
     </g>
     <g id="text_5">
      <!-- 2024-06-29 -->
      <g transform="translate(438.346152 418.718437) scale(0.1 -0.1)">
       <defs>
        <path id="DejaVuSans-39" d="M 703 97 
L 703 672 
Q 941 559 1184 500 
Q 1428 441 1663 441 
Q 2288 441 2617 861 
Q 2947 1281 2994 2138 
Q 2813 1869 2534 1725 
Q 2256 1581 1919 1581 
Q 1219 1581 811 2004 
Q 403 2428 403 3163 
Q 403 3881 828 4315 
Q 1253 4750 1959 4750 
Q 2769 4750 3195 4129 
Q 3622 3509 3622 2328 
Q 3622 1225 3098 567 
Q 2575 -91 1691 -91 
Q 1453 -91 1209 -44 
Q 966 3 703 97 
z
M 1959 2075 
Q 2384 2075 2632 2365 
Q 2881 2656 2881 3163 
Q 2881 3666 2632 3958 
Q 2384 4250 1959 4250 
Q 1534 4250 1286 3958 
Q 1038 3666 1038 3163 
Q 1038 2656 1286 2365 
Q 1534 2075 1959 2075 
z
" transform="scale(0.015625)"/>
       </defs>
       <use xlink:href="#DejaVuSans-32"/>
       <use xlink:href="#DejaVuSans-30" x="63.623047"/>
       <use xlink:href="#DejaVuSans-32" x="127.246094"/>
       <use xlink:href="#DejaVuSans-34" x="190.869141"/>
       <use xlink:href="#DejaVuSans-2d" x="254.492188"/>
       <use xlink:href="#DejaVuSans-30" x="290.576172"/>
       <use xlink:href="#DejaVuSans-36" x="354.199219"/>
       <use xlink:href="#DejaVuSans-2d" x="417.822266"/>
       <use xlink:href="#DejaVuSans-32" x="453.90625"/>
       <use xlink:href="#DejaVuSans-39" x="517.529297"/>
      </g>
     </g>
    </g>
    <g id="xtick_6">
     <g id="line2d_11">
      <path d="M 518.200789 404.12 
L 518.200789 26.88 
" clip-path="url(#pef2ed5f0a7)" style="fill: none; stroke-dasharray: 2.96,1.28; stroke-dashoffset: 0; stroke: #b0b0b0; stroke-width: 0.8"/>
     </g>
     <g id="line2d_12">
      <g>
       <use xlink:href="#mc72e3f5691" x="518.200789" y="404.12" style="stroke: #000000; stroke-width: 0.8"/>
      </g>
     </g>
     <g id="text_6">
      <!-- 2024-07-01 -->
      <g transform="translate(489.142977 418.718437) scale(0.1 -0.1)">
       <use xlink:href="#DejaVuSans-32"/>
       <use xlink:href="#DejaVuSans-30" x="63.623047"/>
       <use xlink:href="#DejaVuSans-32" x="127.246094"/>
       <use xlink:href="#DejaVuSans-34" x="190.869141"/>
       <use xlink:href="#DejaVuSans-2d" x="254.492188"/>
       <use xlink:href="#DejaVuSans-30" x="290.576172"/>
       <use xlink:href="#DejaVuSans-37" x="354.199219"/>
       <use xlink:href="#DejaVuSans-2d" x="417.822266"/>
       <use xlink:href="#DejaVuSans-30" x="453.90625"/>
       <use xlink:href="#DejaVuSans-31" x="517.529297"/>
      </g>
     </g>
    </g>
    <g id="xtick_7">
     <g id="line2d_13">
      <path d="M 619.794439 404.12 
L 619.794439 26.88 
" clip-path="url(#pef2ed5f0a7)" style="fill: none; stroke-dasharray: 2.96,1.28; stroke-dashoffset: 0; stroke: #b0b0b0; stroke-width: 0.8"/>
     </g>
     <g id="line2d_14">
      <g>
       <use xlink:href="#mc72e3f5691" x="619.794439" y="404.12" style="stroke: #000000; stroke-width: 0.8"/>
      </g>
     </g>
     <g id="text_7">
      <!-- 2024-07-05 -->
      <g transform="translate(590.736627 418.718437) scale(0.1 -0.1)">
       <use xlink:href="#DejaVuSans-32"/>
       <use xlink:href="#DejaVuSans-30" x="63.623047"/>
       <use xlink:href="#DejaVuSans-32" x="127.246094"/>
       <use xlink:href="#DejaVuSans-34" x="190.869141"/>
       <use xlink:href="#DejaVuSans-2d" x="254.492188"/>
       <use xlink:href="#DejaVuSans-30" x="290.576172"/>
       <use xlink:href="#DejaVuSans-37" x="354.199219"/>
       <use xlink:href="#DejaVuSans-2d" x="417.822266"/>
       <use xlink:href="#DejaVuSans-30" x="453.90625"/>
       <use xlink:href="#DejaVuSans-35" x="517.529297"/>
      </g>
     </g>
    </g>
    <g id="xtick_8">
     <g id="line2d_15">
      <path d="M 721.388089 404.12 
L 721.388089 26.88 
" clip-path="url(#pef2ed5f0a7)" style="fill: none; stroke-dasharray: 2.96,1.28; stroke-dashoffset: 0; stroke: #b0b0b0; stroke-width: 0.8"/>
     </g>
     <g id="line2d_16">
      <g>
       <use xlink:href="#mc72e3f5691" x="721.388089" y="404.12" style="stroke: #000000; stroke-width: 0.8"/>
      </g>
     </g>
     <g id="text_8">
      <!-- 2024-07-09 -->
      <g transform="translate(692.330277 418.718437) scale(0.1 -0.1)">
       <use xlink:href="#DejaVuSans-32"/>
       <use xlink:href="#DejaVuSans-30" x="63.623047"/>
       <use xlink:href="#DejaVuSans-32" x="127.246094"/>
       <use xlink:href="#DejaVuSans-34" x="190.869141"/>
       <use xlink:href="#DejaVuSans-2d" x="254.492188"/>
       <use xlink:href="#DejaVuSans-30" x="290.576172"/>
       <use xlink:href="#DejaVuSans-37" x="354.199219"/>
       <use xlink:href="#DejaVuSans-2d" x="417.822266"/>
       <use xlink:href="#DejaVuSans-30" x="453.90625"/>
       <use xlink:href="#DejaVuSans-39" x="517.529297"/>
      </g>
     </g>
    </g>
    <g id="xtick_9">
     <g id="line2d_17">
      <path d="M 822.981739 404.12 
L 822.981739 26.88 
" clip-path="url(#pef2ed5f0a7)" style="fill: none; stroke-dasharray: 2.96,1.28; stroke-dashoffset: 0; stroke: #b0b0b0; stroke-width: 0.8"/>
     </g>
     <g id="line2d_18">
      <g>
       <use xlink:href="#mc72e3f5691" x="822.981739" y="404.12" style="stroke: #000000; stroke-width: 0.8"/>
      </g>
     </g>
     <g id="text_9">
      <!-- 2024-07-13 -->
      <g transform="translate(793.923926 418.718437) scale(0.1 -0.1)">
       <use xlink:href="#DejaVuSans-32"/>
       <use xlink:href="#DejaVuSans-30" x="63.623047"/>
       <use xlink:href="#DejaVuSans-32" x="127.246094"/>
       <use xlink:href="#DejaVuSans-34" x="190.869141"/>
       <use xlink:href="#DejaVuSans-2d" x="254.492188"/>
       <use xlink:href="#DejaVuSans-30" x="290.576172"/>
       <use xlink:href="#DejaVuSans-37" x="354.199219"/>
       <use xlink:href="#DejaVuSans-2d" x="417.822266"/>
       <use xlink:href="#DejaVuSans-31" x="453.90625"/>
       <use xlink:href="#DejaVuSans-33" x="517.529297"/>
      </g>
     </g>
    </g>
   </g>
   <g id="matplotlib.axis_2">
    <g id="ytick_1">
     <g id="line2d_19">
      <path d="M 50.87 389.466155 
L 833.141104 389.466155 
" clip-path="url(#pef2ed5f0a7)" style="fill: none; stroke-dasharray: 2.96,1.28; stroke-dashoffset: 0; stroke: #b0b0b0; stroke-width: 0.8"/>
     </g>
     <g id="line2d_20">
      <defs>
       <path id="mbd068393ce" d="M 0 0 
L -3.5 0 
" style="stroke: #000000; stroke-width: 0.8"/>
      </defs>
      <g>
       <use xlink:href="#mbd068393ce" x="50.87" y="389.466155" style="stroke: #000000; stroke-width: 0.8"/>
      </g>
     </g>
     <g id="text_10">
      <!-- 0 -->
      <g transform="translate(37.5075 393.265374) scale(0.1 -0.1)">
       <use xlink:href="#DejaVuSans-30"/>
      </g>
     </g>
    </g>
    <g id="ytick_2">
     <g id="line2d_21">
      <path d="M 50.87 324.294817 
L 833.141104 324.294817 
" clip-path="url(#pef2ed5f0a7)" style="fill: none; stroke-dasharray: 2.96,1.28; stroke-dashoffset: 0; stroke: #b0b0b0; stroke-width: 0.8"/>
     </g>
     <g id="line2d_22">
      <g>
       <use xlink:href="#mbd068393ce" x="50.87" y="324.294817" style="stroke: #000000; stroke-width: 0.8"/>
      </g>
     </g>
     <g id="text_11">
      <!-- 50 -->
      <g transform="translate(31.145 328.094036) scale(0.1 -0.1)">
       <use xlink:href="#DejaVuSans-35"/>
       <use xlink:href="#DejaVuSans-30" x="63.623047"/>
      </g>
     </g>
    </g>
    <g id="ytick_3">
     <g id="line2d_23">
      <path d="M 50.87 259.123478 
L 833.141104 259.123478 
" clip-path="url(#pef2ed5f0a7)" style="fill: none; stroke-dasharray: 2.96,1.28; stroke-dashoffset: 0; stroke: #b0b0b0; stroke-width: 0.8"/>
     </g>
     <g id="line2d_24">
      <g>
       <use xlink:href="#mbd068393ce" x="50.87" y="259.123478" style="stroke: #000000; stroke-width: 0.8"/>
      </g>
     </g>
     <g id="text_12">
      <!-- 100 -->
      <g transform="translate(24.7825 262.922697) scale(0.1 -0.1)">
       <use xlink:href="#DejaVuSans-31"/>
       <use xlink:href="#DejaVuSans-30" x="63.623047"/>
       <use xlink:href="#DejaVuSans-30" x="127.246094"/>
      </g>
     </g>
    </g>
    <g id="ytick_4">
     <g id="line2d_25">
      <path d="M 50.87 193.95214 
L 833.141104 193.95214 
" clip-path="url(#pef2ed5f0a7)" style="fill: none; stroke-dasharray: 2.96,1.28; stroke-dashoffset: 0; stroke: #b0b0b0; stroke-width: 0.8"/>
     </g>
     <g id="line2d_26">
      <g>
       <use xlink:href="#mbd068393ce" x="50.87" y="193.95214" style="stroke: #000000; stroke-width: 0.8"/>
      </g>
     </g>
     <g id="text_13">
      <!-- 150 -->
      <g transform="translate(24.7825 197.751359) scale(0.1 -0.1)">
       <use xlink:href="#DejaVuSans-31"/>
       <use xlink:href="#DejaVuSans-35" x="63.623047"/>
       <use xlink:href="#DejaVuSans-30" x="127.246094"/>
      </g>
     </g>
    </g>
    <g id="ytick_5">
     <g id="line2d_27">
      <path d="M 50.87 128.780802 
L 833.141104 128.780802 
" clip-path="url(#pef2ed5f0a7)" style="fill: none; stroke-dasharray: 2.96,1.28; stroke-dashoffset: 0; stroke: #b0b0b0; stroke-width: 0.8"/>
     </g>
     <g id="line2d_28">
      <g>
       <use xlink:href="#mbd068393ce" x="50.87" y="128.780802" style="stroke: #000000; stroke-width: 0.8"/>
      </g>
     </g>
     <g id="text_14">
      <!-- 200 -->
      <g transform="translate(24.7825 132.58002) scale(0.1 -0.1)">
       <use xlink:href="#DejaVuSans-32"/>
       <use xlink:href="#DejaVuSans-30" x="63.623047"/>
       <use xlink:href="#DejaVuSans-30" x="127.246094"/>
      </g>
     </g>
    </g>
    <g id="ytick_6">
     <g id="line2d_29">
      <path d="M 50.87 63.609463 
L 833.141104 63.609463 
" clip-path="url(#pef2ed5f0a7)" style="fill: none; stroke-dasharray: 2.96,1.28; stroke-dashoffset: 0; stroke: #b0b0b0; stroke-width: 0.8"/>
     </g>
     <g id="line2d_30">
      <g>
       <use xlink:href="#mbd068393ce" x="50.87" y="63.609463" style="stroke: #000000; stroke-width: 0.8"/>
      </g>
     </g>
     <g id="text_15">
      <!-- 250 -->
      <g transform="translate(24.7825 67.408682) scale(0.1 -0.1)">
       <use xlink:href="#DejaVuSans-32"/>
       <use xlink:href="#DejaVuSans-35" x="63.623047"/>
       <use xlink:href="#DejaVuSans-30" x="127.246094"/>
      </g>
     </g>
    </g>
    <g id="text_16">
     <!-- Score -->
     <g transform="translate(18.702813 229.502344) rotate(-90) scale(0.1 -0.1)">
      <defs>
       <path id="DejaVuSans-53" d="M 3425 4513 
L 3425 3897 
Q 3066 4069 2747 4153 
Q 2428 4238 2131 4238 
Q 1616 4238 1336 4038 
Q 1056 3838 1056 3469 
Q 1056 3159 1242 3001 
Q 1428 2844 1947 2747 
L 2328 2669 
Q 3034 2534 3370 2195 
Q 3706 1856 3706 1288 
Q 3706 609 3251 259 
Q 2797 -91 1919 -91 
Q 1588 -91 1214 -16 
Q 841 59 441 206 
L 441 856 
Q 825 641 1194 531 
Q 1563 422 1919 422 
Q 2459 422 2753 634 
Q 3047 847 3047 1241 
Q 3047 1584 2836 1778 
Q 2625 1972 2144 2069 
L 1759 2144 
Q 1053 2284 737 2584 
Q 422 2884 422 3419 
Q 422 4038 858 4394 
Q 1294 4750 2059 4750 
Q 2388 4750 2728 4690 
Q 3069 4631 3425 4513 
z
" transform="scale(0.015625)"/>
       <path id="DejaVuSans-63" d="M 3122 3366 
L 3122 2828 
Q 2878 2963 2633 3030 
Q 2388 3097 2138 3097 
Q 1578 3097 1268 2742 
Q 959 2388 959 1747 
Q 959 1106 1268 751 
Q 1578 397 2138 397 
Q 2388 397 2633 464 
Q 2878 531 3122 666 
L 3122 134 
Q 2881 22 2623 -34 
Q 2366 -91 2075 -91 
Q 1284 -91 818 406 
Q 353 903 353 1747 
Q 353 2603 823 3093 
Q 1294 3584 2113 3584 
Q 2378 3584 2631 3529 
Q 2884 3475 3122 3366 
z
" transform="scale(0.015625)"/>
       <path id="DejaVuSans-6f" d="M 1959 3097 
Q 1497 3097 1228 2736 
Q 959 2375 959 1747 
Q 959 1119 1226 758 
Q 1494 397 1959 397 
Q 2419 397 2687 759 
Q 2956 1122 2956 1747 
Q 2956 2369 2687 2733 
Q 2419 3097 1959 3097 
z
M 1959 3584 
Q 2709 3584 3137 3096 
Q 3566 2609 3566 1747 
Q 3566 888 3137 398 
Q 2709 -91 1959 -91 
Q 1206 -91 779 398 
Q 353 888 353 1747 
Q 353 2609 779 3096 
Q 1206 3584 1959 3584 
z
" transform="scale(0.015625)"/>
       <path id="DejaVuSans-72" d="M 2631 2963 
Q 2534 3019 2420 3045 
Q 2306 3072 2169 3072 
Q 1681 3072 1420 2755 
Q 1159 2438 1159 1844 
L 1159 0 
L 581 0 
L 581 3500 
L 1159 3500 
L 1159 2956 
Q 1341 3275 1631 3429 
Q 1922 3584 2338 3584 
Q 2397 3584 2469 3576 
Q 2541 3569 2628 3553 
L 2631 2963 
z
" transform="scale(0.015625)"/>
       <path id="DejaVuSans-65" d="M 3597 1894 
L 3597 1613 
L 953 1613 
Q 991 1019 1311 708 
Q 1631 397 2203 397 
Q 2534 397 2845 478 
Q 3156 559 3463 722 
L 3463 178 
Q 3153 47 2828 -22 
Q 2503 -91 2169 -91 
Q 1331 -91 842 396 
Q 353 884 353 1716 
Q 353 2575 817 3079 
Q 1281 3584 2069 3584 
Q 2775 3584 3186 3129 
Q 3597 2675 3597 1894 
z
M 3022 2063 
Q 3016 2534 2758 2815 
Q 2500 3097 2075 3097 
Q 1594 3097 1305 2825 
Q 1016 2553 972 2059 
L 3022 2063 
z
" transform="scale(0.015625)"/>
      </defs>
      <use xlink:href="#DejaVuSans-53"/>
      <use xlink:href="#DejaVuSans-63" x="63.476562"/>
      <use xlink:href="#DejaVuSans-6f" x="118.457031"/>
      <use xlink:href="#DejaVuSans-72" x="179.638672"/>
      <use xlink:href="#DejaVuSans-65" x="218.501953"/>
     </g>
    </g>
   </g>
   <g id="line2d_31">
    <path d="M 86.427777 382.893927 
L 111.82619 350.308257 
L 137.224602 324.239722 
L 162.623015 311.205454 
L 188.021427 291.654053 
L 213.41984 269.495798 
L 238.818252 261.675237 
L 264.216665 252.55125 
L 289.615077 232.999848 
L 315.01349 210.841593 
L 340.411902 175.64907 
L 365.810315 157.401096 
L 391.208727 128.725707 
L 467.403964 128.725707 
L 492.802377 128.725707 
L 518.200789 128.725707 
L 543.599202 128.725707 
L 568.997614 128.725707 
L 619.794439 128.725707 
L 645.192852 128.725707 
L 670.591264 128.725707 
L 695.989677 128.725707 
L 721.388089 128.725707 
L 746.786502 109.174305 
L 772.184914 109.174305 
L 797.583326 109.174305 
" clip-path="url(#pef2ed5f0a7)" style="fill: none; stroke: #1f77b4; stroke-width: 1.5; stroke-linecap: square"/>
    <defs>
     <path id="m423cf498fd" d="M 0 3.5 
C 0.928211 3.5 1.81853 3.131218 2.474874 2.474874 
C 3.131218 1.81853 3.5 0.928211 3.5 0 
C 3.5 -0.928211 3.131218 -1.81853 2.474874 -2.474874 
C 1.81853 -3.131218 0.928211 -3.5 0 -3.5 
C -0.928211 -3.5 -1.81853 -3.131218 -2.474874 -2.474874 
C -3.131218 -1.81853 -3.5 -0.928211 -3.5 0 
C -3.5 0.928211 -3.131218 1.81853 -2.474874 2.474874 
C -1.81853 3.131218 -0.928211 3.5 0 3.5 
z
" style="stroke: #1f77b4"/>
    </defs>
    <g clip-path="url(#pef2ed5f0a7)">
     <use xlink:href="#m423cf498fd" x="86.427777" y="382.893927" style="fill: #1f77b4; stroke: #1f77b4"/>
     <use xlink:href="#m423cf498fd" x="111.82619" y="350.308257" style="fill: #1f77b4; stroke: #1f77b4"/>
     <use xlink:href="#m423cf498fd" x="137.224602" y="324.239722" style="fill: #1f77b4; stroke: #1f77b4"/>
     <use xlink:href="#m423cf498fd" x="162.623015" y="311.205454" style="fill: #1f77b4; stroke: #1f77b4"/>
     <use xlink:href="#m423cf498fd" x="188.021427" y="291.654053" style="fill: #1f77b4; stroke: #1f77b4"/>
     <use xlink:href="#m423cf498fd" x="213.41984" y="269.495798" style="fill: #1f77b4; stroke: #1f77b4"/>
     <use xlink:href="#m423cf498fd" x="238.818252" y="261.675237" style="fill: #1f77b4; stroke: #1f77b4"/>
     <use xlink:href="#m423cf498fd" x="264.216665" y="252.55125" style="fill: #1f77b4; stroke: #1f77b4"/>
     <use xlink:href="#m423cf498fd" x="289.615077" y="232.999848" style="fill: #1f77b4; stroke: #1f77b4"/>
     <use xlink:href="#m423cf498fd" x="315.01349" y="210.841593" style="fill: #1f77b4; stroke: #1f77b4"/>
     <use xlink:href="#m423cf498fd" x="340.411902" y="175.64907" style="fill: #1f77b4; stroke: #1f77b4"/>
     <use xlink:href="#m423cf498fd" x="365.810315" y="157.401096" style="fill: #1f77b4; stroke: #1f77b4"/>
     <use xlink:href="#m423cf498fd" x="391.208727" y="128.725707" style="fill: #1f77b4; stroke: #1f77b4"/>
     <use xlink:href="#m423cf498fd" x="467.403964" y="128.725707" style="fill: #1f77b4; stroke: #1f77b4"/>
     <use xlink:href="#m423cf498fd" x="492.802377" y="128.725707" style="fill: #1f77b4; stroke: #1f77b4"/>
     <use xlink:href="#m423cf498fd" x="518.200789" y="128.725707" style="fill: #1f77b4; stroke: #1f77b4"/>
     <use xlink:href="#m423cf498fd" x="543.599202" y="128.725707" style="fill: #1f77b4; stroke: #1f77b4"/>
     <use xlink:href="#m423cf498fd" x="568.997614" y="128.725707" style="fill: #1f77b4; stroke: #1f77b4"/>
     <use xlink:href="#m423cf498fd" x="619.794439" y="128.725707" style="fill: #1f77b4; stroke: #1f77b4"/>
     <use xlink:href="#m423cf498fd" x="645.192852" y="128.725707" style="fill: #1f77b4; stroke: #1f77b4"/>
     <use xlink:href="#m423cf498fd" x="670.591264" y="128.725707" style="fill: #1f77b4; stroke: #1f77b4"/>
     <use xlink:href="#m423cf498fd" x="695.989677" y="128.725707" style="fill: #1f77b4; stroke: #1f77b4"/>
     <use xlink:href="#m423cf498fd" x="721.388089" y="128.725707" style="fill: #1f77b4; stroke: #1f77b4"/>
     <use xlink:href="#m423cf498fd" x="746.786502" y="109.174305" style="fill: #1f77b4; stroke: #1f77b4"/>
     <use xlink:href="#m423cf498fd" x="772.184914" y="109.174305" style="fill: #1f77b4; stroke: #1f77b4"/>
     <use xlink:href="#m423cf498fd" x="797.583326" y="109.174305" style="fill: #1f77b4; stroke: #1f77b4"/>
    </g>
   </g>
   <g id="line2d_32">
    <path d="M 86.427777 382.953836 
L 111.82619 356.885301 
L 137.224602 341.244179 
L 162.623015 321.692778 
L 188.021427 295.624242 
L 213.41984 279.983121 
L 238.818252 253.914586 
L 264.216665 238.273465 
L 289.615077 205.687795 
L 315.01349 190.046674 
L 340.411902 163.978139 
L 365.810315 148.337018 
L 391.208727 96.199947 
L 467.403964 96.199947 
L 492.802377 96.199947 
L 518.200789 96.199947 
L 543.599202 96.199947 
L 568.997614 96.199947 
L 619.794439 96.199947 
L 645.192852 96.199947 
L 670.591264 96.199947 
L 695.989677 96.199947 
L 721.388089 96.199947 
L 746.786502 96.199947 
L 772.184914 96.199947 
L 797.583326 96.199947 
" clip-path="url(#pef2ed5f0a7)" style="fill: none; stroke: #ff7f0e; stroke-width: 1.5; stroke-linecap: square"/>
    <defs>
     <path id="me3811332c1" d="M 0 3.5 
C 0.928211 3.5 1.81853 3.131218 2.474874 2.474874 
C 3.131218 1.81853 3.5 0.928211 3.5 0 
C 3.5 -0.928211 3.131218 -1.81853 2.474874 -2.474874 
C 1.81853 -3.131218 0.928211 -3.5 0 -3.5 
C -0.928211 -3.5 -1.81853 -3.131218 -2.474874 -2.474874 
C -3.131218 -1.81853 -3.5 -0.928211 -3.5 0 
C -3.5 0.928211 -3.131218 1.81853 -2.474874 2.474874 
C -1.81853 3.131218 -0.928211 3.5 0 3.5 
z
" style="stroke: #ff7f0e"/>
    </defs>
    <g clip-path="url(#pef2ed5f0a7)">
     <use xlink:href="#me3811332c1" x="86.427777" y="382.953836" style="fill: #ff7f0e; stroke: #ff7f0e"/>
     <use xlink:href="#me3811332c1" x="111.82619" y="356.885301" style="fill: #ff7f0e; stroke: #ff7f0e"/>
     <use xlink:href="#me3811332c1" x="137.224602" y="341.244179" style="fill: #ff7f0e; stroke: #ff7f0e"/>
     <use xlink:href="#me3811332c1" x="162.623015" y="321.692778" style="fill: #ff7f0e; stroke: #ff7f0e"/>
     <use xlink:href="#me3811332c1" x="188.021427" y="295.624242" style="fill: #ff7f0e; stroke: #ff7f0e"/>
     <use xlink:href="#me3811332c1" x="213.41984" y="279.983121" style="fill: #ff7f0e; stroke: #ff7f0e"/>
     <use xlink:href="#me3811332c1" x="238.818252" y="253.914586" style="fill: #ff7f0e; stroke: #ff7f0e"/>
     <use xlink:href="#me3811332c1" x="264.216665" y="238.273465" style="fill: #ff7f0e; stroke: #ff7f0e"/>
     <use xlink:href="#me3811332c1" x="289.615077" y="205.687795" style="fill: #ff7f0e; stroke: #ff7f0e"/>
     <use xlink:href="#me3811332c1" x="315.01349" y="190.046674" style="fill: #ff7f0e; stroke: #ff7f0e"/>
     <use xlink:href="#me3811332c1" x="340.411902" y="163.978139" style="fill: #ff7f0e; stroke: #ff7f0e"/>
     <use xlink:href="#me3811332c1" x="365.810315" y="148.337018" style="fill: #ff7f0e; stroke: #ff7f0e"/>
     <use xlink:href="#me3811332c1" x="391.208727" y="96.199947" style="fill: #ff7f0e; stroke: #ff7f0e"/>
     <use xlink:href="#me3811332c1" x="467.403964" y="96.199947" style="fill: #ff7f0e; stroke: #ff7f0e"/>
     <use xlink:href="#me3811332c1" x="492.802377" y="96.199947" style="fill: #ff7f0e; stroke: #ff7f0e"/>
     <use xlink:href="#me3811332c1" x="518.200789" y="96.199947" style="fill: #ff7f0e; stroke: #ff7f0e"/>
     <use xlink:href="#me3811332c1" x="543.599202" y="96.199947" style="fill: #ff7f0e; stroke: #ff7f0e"/>
     <use xlink:href="#me3811332c1" x="568.997614" y="96.199947" style="fill: #ff7f0e; stroke: #ff7f0e"/>
     <use xlink:href="#me3811332c1" x="619.794439" y="96.199947" style="fill: #ff7f0e; stroke: #ff7f0e"/>
     <use xlink:href="#me3811332c1" x="645.192852" y="96.199947" style="fill: #ff7f0e; stroke: #ff7f0e"/>
     <use xlink:href="#me3811332c1" x="670.591264" y="96.199947" style="fill: #ff7f0e; stroke: #ff7f0e"/>
     <use xlink:href="#me3811332c1" x="695.989677" y="96.199947" style="fill: #ff7f0e; stroke: #ff7f0e"/>
     <use xlink:href="#me3811332c1" x="721.388089" y="96.199947" style="fill: #ff7f0e; stroke: #ff7f0e"/>
     <use xlink:href="#me3811332c1" x="746.786502" y="96.199947" style="fill: #ff7f0e; stroke: #ff7f0e"/>
     <use xlink:href="#me3811332c1" x="772.184914" y="96.199947" style="fill: #ff7f0e; stroke: #ff7f0e"/>
     <use xlink:href="#me3811332c1" x="797.583326" y="96.199947" style="fill: #ff7f0e; stroke: #ff7f0e"/>
    </g>
   </g>
   <g id="line2d_33">
    <path d="M 86.427777 382.835771 
L 111.82619 350.250101 
L 137.224602 341.126114 
L 162.623015 334.60898 
L 188.021427 321.574712 
L 213.41984 296.809604 
L 238.818252 288.989043 
L 264.216665 273.347922 
L 289.615077 244.672533 
L 315.01349 222.514278 
L 340.411902 163.860073 
L 365.810315 148.218952 
L 391.208727 103.902442 
L 467.403964 103.902442 
L 492.802377 103.902442 
L 518.200789 103.902442 
L 543.599202 103.902442 
L 568.997614 103.902442 
L 619.794439 103.902442 
L 645.192852 103.902442 
L 670.591264 103.902442 
L 695.989677 103.902442 
L 721.388089 103.902442 
L 746.786502 84.351041 
L 772.184914 84.351041 
L 797.583326 84.351041 
" clip-path="url(#pef2ed5f0a7)" style="fill: none; stroke: #2ca02c; stroke-width: 1.5; stroke-linecap: square"/>
    <defs>
     <path id="m60bbf47b23" d="M 0 3.5 
C 0.928211 3.5 1.81853 3.131218 2.474874 2.474874 
C 3.131218 1.81853 3.5 0.928211 3.5 0 
C 3.5 -0.928211 3.131218 -1.81853 2.474874 -2.474874 
C 1.81853 -3.131218 0.928211 -3.5 0 -3.5 
C -0.928211 -3.5 -1.81853 -3.131218 -2.474874 -2.474874 
C -3.131218 -1.81853 -3.5 -0.928211 -3.5 0 
C -3.5 0.928211 -3.131218 1.81853 -2.474874 2.474874 
C -1.81853 3.131218 -0.928211 3.5 0 3.5 
z
" style="stroke: #2ca02c"/>
    </defs>
    <g clip-path="url(#pef2ed5f0a7)">
     <use xlink:href="#m60bbf47b23" x="86.427777" y="382.835771" style="fill: #2ca02c; stroke: #2ca02c"/>
     <use xlink:href="#m60bbf47b23" x="111.82619" y="350.250101" style="fill: #2ca02c; stroke: #2ca02c"/>
     <use xlink:href="#m60bbf47b23" x="137.224602" y="341.126114" style="fill: #2ca02c; stroke: #2ca02c"/>
     <use xlink:href="#m60bbf47b23" x="162.623015" y="334.60898" style="fill: #2ca02c; stroke: #2ca02c"/>
     <use xlink:href="#m60bbf47b23" x="188.021427" y="321.574712" style="fill: #2ca02c; stroke: #2ca02c"/>
     <use xlink:href="#m60bbf47b23" x="213.41984" y="296.809604" style="fill: #2ca02c; stroke: #2ca02c"/>
     <use xlink:href="#m60bbf47b23" x="238.818252" y="288.989043" style="fill: #2ca02c; stroke: #2ca02c"/>
     <use xlink:href="#m60bbf47b23" x="264.216665" y="273.347922" style="fill: #2ca02c; stroke: #2ca02c"/>
     <use xlink:href="#m60bbf47b23" x="289.615077" y="244.672533" style="fill: #2ca02c; stroke: #2ca02c"/>
     <use xlink:href="#m60bbf47b23" x="315.01349" y="222.514278" style="fill: #2ca02c; stroke: #2ca02c"/>
     <use xlink:href="#m60bbf47b23" x="340.411902" y="163.860073" style="fill: #2ca02c; stroke: #2ca02c"/>
     <use xlink:href="#m60bbf47b23" x="365.810315" y="148.218952" style="fill: #2ca02c; stroke: #2ca02c"/>
     <use xlink:href="#m60bbf47b23" x="391.208727" y="103.902442" style="fill: #2ca02c; stroke: #2ca02c"/>
     <use xlink:href="#m60bbf47b23" x="467.403964" y="103.902442" style="fill: #2ca02c; stroke: #2ca02c"/>
     <use xlink:href="#m60bbf47b23" x="492.802377" y="103.902442" style="fill: #2ca02c; stroke: #2ca02c"/>
     <use xlink:href="#m60bbf47b23" x="518.200789" y="103.902442" style="fill: #2ca02c; stroke: #2ca02c"/>
     <use xlink:href="#m60bbf47b23" x="543.599202" y="103.902442" style="fill: #2ca02c; stroke: #2ca02c"/>
     <use xlink:href="#m60bbf47b23" x="568.997614" y="103.902442" style="fill: #2ca02c; stroke: #2ca02c"/>
     <use xlink:href="#m60bbf47b23" x="619.794439" y="103.902442" style="fill: #2ca02c; stroke: #2ca02c"/>
     <use xlink:href="#m60bbf47b23" x="645.192852" y="103.902442" style="fill: #2ca02c; stroke: #2ca02c"/>
     <use xlink:href="#m60bbf47b23" x="670.591264" y="103.902442" style="fill: #2ca02c; stroke: #2ca02c"/>
     <use xlink:href="#m60bbf47b23" x="695.989677" y="103.902442" style="fill: #2ca02c; stroke: #2ca02c"/>
     <use xlink:href="#m60bbf47b23" x="721.388089" y="103.902442" style="fill: #2ca02c; stroke: #2ca02c"/>
     <use xlink:href="#m60bbf47b23" x="746.786502" y="84.351041" style="fill: #2ca02c; stroke: #2ca02c"/>
     <use xlink:href="#m60bbf47b23" x="772.184914" y="84.351041" style="fill: #2ca02c; stroke: #2ca02c"/>
     <use xlink:href="#m60bbf47b23" x="797.583326" y="84.351041" style="fill: #2ca02c; stroke: #2ca02c"/>
    </g>
   </g>
   <g id="line2d_34">
    <path d="M 86.427777 383.037642 
L 111.82619 360.879387 
L 137.224602 345.238266 
L 162.623015 329.597144 
L 188.021427 323.08001 
L 213.41984 298.314902 
L 238.818252 286.584061 
L 264.216665 278.7635 
L 289.615077 252.694965 
L 315.01349 227.929856 
L 340.411902 188.827053 
L 365.810315 171.882505 
L 391.208727 143.207116 
L 467.403964 143.207116 
L 492.802377 143.207116 
L 518.200789 143.207116 
L 543.599202 143.207116 
L 568.997614 143.207116 
L 619.794439 143.207116 
L 645.192852 143.207116 
L 670.591264 143.207116 
L 695.989677 143.207116 
L 721.388089 143.207116 
L 746.786502 123.655715 
L 772.184914 123.655715 
L 797.583326 123.655715 
" clip-path="url(#pef2ed5f0a7)" style="fill: none; stroke: #d62728; stroke-width: 1.5; stroke-linecap: square"/>
    <defs>
     <path id="m98217b3deb" d="M 0 3.5 
C 0.928211 3.5 1.81853 3.131218 2.474874 2.474874 
C 3.131218 1.81853 3.5 0.928211 3.5 0 
C 3.5 -0.928211 3.131218 -1.81853 2.474874 -2.474874 
C 1.81853 -3.131218 0.928211 -3.5 0 -3.5 
C -0.928211 -3.5 -1.81853 -3.131218 -2.474874 -2.474874 
C -3.131218 -1.81853 -3.5 -0.928211 -3.5 0 
C -3.5 0.928211 -3.131218 1.81853 -2.474874 2.474874 
C -1.81853 3.131218 -0.928211 3.5 0 3.5 
z
" style="stroke: #d62728"/>
    </defs>
    <g clip-path="url(#pef2ed5f0a7)">
     <use xlink:href="#m98217b3deb" x="86.427777" y="383.037642" style="fill: #d62728; stroke: #d62728"/>
     <use xlink:href="#m98217b3deb" x="111.82619" y="360.879387" style="fill: #d62728; stroke: #d62728"/>
     <use xlink:href="#m98217b3deb" x="137.224602" y="345.238266" style="fill: #d62728; stroke: #d62728"/>
     <use xlink:href="#m98217b3deb" x="162.623015" y="329.597144" style="fill: #d62728; stroke: #d62728"/>
     <use xlink:href="#m98217b3deb" x="188.021427" y="323.08001" style="fill: #d62728; stroke: #d62728"/>
     <use xlink:href="#m98217b3deb" x="213.41984" y="298.314902" style="fill: #d62728; stroke: #d62728"/>
     <use xlink:href="#m98217b3deb" x="238.818252" y="286.584061" style="fill: #d62728; stroke: #d62728"/>
     <use xlink:href="#m98217b3deb" x="264.216665" y="278.7635" style="fill: #d62728; stroke: #d62728"/>
     <use xlink:href="#m98217b3deb" x="289.615077" y="252.694965" style="fill: #d62728; stroke: #d62728"/>
     <use xlink:href="#m98217b3deb" x="315.01349" y="227.929856" style="fill: #d62728; stroke: #d62728"/>
     <use xlink:href="#m98217b3deb" x="340.411902" y="188.827053" style="fill: #d62728; stroke: #d62728"/>
     <use xlink:href="#m98217b3deb" x="365.810315" y="171.882505" style="fill: #d62728; stroke: #d62728"/>
     <use xlink:href="#m98217b3deb" x="391.208727" y="143.207116" style="fill: #d62728; stroke: #d62728"/>
     <use xlink:href="#m98217b3deb" x="467.403964" y="143.207116" style="fill: #d62728; stroke: #d62728"/>
     <use xlink:href="#m98217b3deb" x="492.802377" y="143.207116" style="fill: #d62728; stroke: #d62728"/>
     <use xlink:href="#m98217b3deb" x="518.200789" y="143.207116" style="fill: #d62728; stroke: #d62728"/>
     <use xlink:href="#m98217b3deb" x="543.599202" y="143.207116" style="fill: #d62728; stroke: #d62728"/>
     <use xlink:href="#m98217b3deb" x="568.997614" y="143.207116" style="fill: #d62728; stroke: #d62728"/>
     <use xlink:href="#m98217b3deb" x="619.794439" y="143.207116" style="fill: #d62728; stroke: #d62728"/>
     <use xlink:href="#m98217b3deb" x="645.192852" y="143.207116" style="fill: #d62728; stroke: #d62728"/>
     <use xlink:href="#m98217b3deb" x="670.591264" y="143.207116" style="fill: #d62728; stroke: #d62728"/>
     <use xlink:href="#m98217b3deb" x="695.989677" y="143.207116" style="fill: #d62728; stroke: #d62728"/>
     <use xlink:href="#m98217b3deb" x="721.388089" y="143.207116" style="fill: #d62728; stroke: #d62728"/>
     <use xlink:href="#m98217b3deb" x="746.786502" y="123.655715" style="fill: #d62728; stroke: #d62728"/>
     <use xlink:href="#m98217b3deb" x="772.184914" y="123.655715" style="fill: #d62728; stroke: #d62728"/>
     <use xlink:href="#m98217b3deb" x="797.583326" y="123.655715" style="fill: #d62728; stroke: #d62728"/>
    </g>
   </g>
   <g id="line2d_35">
    <path d="M 86.427777 382.962761 
L 111.82619 347.770238 
L 137.224602 319.094849 
L 162.623015 303.453728 
L 188.021427 287.812606 
L 213.41984 272.171485 
L 238.818252 269.564632 
L 264.216665 247.406377 
L 289.615077 214.820707 
L 315.01349 190.055599 
L 340.411902 150.952796 
L 365.810315 135.311675 
L 391.208727 106.636286 
L 467.403964 106.636286 
L 492.802377 106.636286 
L 518.200789 106.636286 
L 543.599202 106.636286 
L 568.997614 106.636286 
L 619.794439 106.636286 
L 645.192852 106.636286 
L 670.591264 106.636286 
L 695.989677 106.636286 
L 721.388089 106.636286 
L 746.786502 87.084884 
L 772.184914 87.084884 
L 797.583326 87.084884 
" clip-path="url(#pef2ed5f0a7)" style="fill: none; stroke: #9467bd; stroke-width: 1.5; stroke-linecap: square"/>
    <defs>
     <path id="m0cdf5b2bff" d="M 0 3.5 
C 0.928211 3.5 1.81853 3.131218 2.474874 2.474874 
C 3.131218 1.81853 3.5 0.928211 3.5 0 
C 3.5 -0.928211 3.131218 -1.81853 2.474874 -2.474874 
C 1.81853 -3.131218 0.928211 -3.5 0 -3.5 
C -0.928211 -3.5 -1.81853 -3.131218 -2.474874 -2.474874 
C -3.131218 -1.81853 -3.5 -0.928211 -3.5 0 
C -3.5 0.928211 -3.131218 1.81853 -2.474874 2.474874 
C -1.81853 3.131218 -0.928211 3.5 0 3.5 
z
" style="stroke: #9467bd"/>
    </defs>
    <g clip-path="url(#pef2ed5f0a7)">
     <use xlink:href="#m0cdf5b2bff" x="86.427777" y="382.962761" style="fill: #9467bd; stroke: #9467bd"/>
     <use xlink:href="#m0cdf5b2bff" x="111.82619" y="347.770238" style="fill: #9467bd; stroke: #9467bd"/>
     <use xlink:href="#m0cdf5b2bff" x="137.224602" y="319.094849" style="fill: #9467bd; stroke: #9467bd"/>
     <use xlink:href="#m0cdf5b2bff" x="162.623015" y="303.453728" style="fill: #9467bd; stroke: #9467bd"/>
     <use xlink:href="#m0cdf5b2bff" x="188.021427" y="287.812606" style="fill: #9467bd; stroke: #9467bd"/>
     <use xlink:href="#m0cdf5b2bff" x="213.41984" y="272.171485" style="fill: #9467bd; stroke: #9467bd"/>
     <use xlink:href="#m0cdf5b2bff" x="238.818252" y="269.564632" style="fill: #9467bd; stroke: #9467bd"/>
     <use xlink:href="#m0cdf5b2bff" x="264.216665" y="247.406377" style="fill: #9467bd; stroke: #9467bd"/>
     <use xlink:href="#m0cdf5b2bff" x="289.615077" y="214.820707" style="fill: #9467bd; stroke: #9467bd"/>
     <use xlink:href="#m0cdf5b2bff" x="315.01349" y="190.055599" style="fill: #9467bd; stroke: #9467bd"/>
     <use xlink:href="#m0cdf5b2bff" x="340.411902" y="150.952796" style="fill: #9467bd; stroke: #9467bd"/>
     <use xlink:href="#m0cdf5b2bff" x="365.810315" y="135.311675" style="fill: #9467bd; stroke: #9467bd"/>
     <use xlink:href="#m0cdf5b2bff" x="391.208727" y="106.636286" style="fill: #9467bd; stroke: #9467bd"/>
     <use xlink:href="#m0cdf5b2bff" x="467.403964" y="106.636286" style="fill: #9467bd; stroke: #9467bd"/>
     <use xlink:href="#m0cdf5b2bff" x="492.802377" y="106.636286" style="fill: #9467bd; stroke: #9467bd"/>
     <use xlink:href="#m0cdf5b2bff" x="518.200789" y="106.636286" style="fill: #9467bd; stroke: #9467bd"/>
     <use xlink:href="#m0cdf5b2bff" x="543.599202" y="106.636286" style="fill: #9467bd; stroke: #9467bd"/>
     <use xlink:href="#m0cdf5b2bff" x="568.997614" y="106.636286" style="fill: #9467bd; stroke: #9467bd"/>
     <use xlink:href="#m0cdf5b2bff" x="619.794439" y="106.636286" style="fill: #9467bd; stroke: #9467bd"/>
     <use xlink:href="#m0cdf5b2bff" x="645.192852" y="106.636286" style="fill: #9467bd; stroke: #9467bd"/>
     <use xlink:href="#m0cdf5b2bff" x="670.591264" y="106.636286" style="fill: #9467bd; stroke: #9467bd"/>
     <use xlink:href="#m0cdf5b2bff" x="695.989677" y="106.636286" style="fill: #9467bd; stroke: #9467bd"/>
     <use xlink:href="#m0cdf5b2bff" x="721.388089" y="106.636286" style="fill: #9467bd; stroke: #9467bd"/>
     <use xlink:href="#m0cdf5b2bff" x="746.786502" y="87.084884" style="fill: #9467bd; stroke: #9467bd"/>
     <use xlink:href="#m0cdf5b2bff" x="772.184914" y="87.084884" style="fill: #9467bd; stroke: #9467bd"/>
     <use xlink:href="#m0cdf5b2bff" x="797.583326" y="87.084884" style="fill: #9467bd; stroke: #9467bd"/>
    </g>
   </g>
   <g id="line2d_36">
    <path d="M 86.427777 382.918233 
L 111.82619 350.332563 
L 137.224602 324.264028 
L 162.623015 298.195493 
L 188.021427 278.644091 
L 213.41984 256.485836 
L 238.818252 253.878982 
L 264.216665 248.665275 
L 289.615077 203.045339 
L 315.01349 178.28023 
L 340.411902 145.694561 
L 365.810315 124.839732 
L 391.208727 63.578674 
L 467.403964 63.578674 
L 492.802377 63.578674 
L 518.200789 63.578674 
L 543.599202 63.578674 
L 568.997614 63.578674 
L 619.794439 63.578674 
L 645.192852 63.578674 
L 670.591264 63.578674 
L 695.989677 63.578674 
L 721.388089 63.578674 
L 746.786502 44.027273 
L 772.184914 44.027273 
L 797.583326 44.027273 
" clip-path="url(#pef2ed5f0a7)" style="fill: none; stroke: #8c564b; stroke-width: 1.5; stroke-linecap: square"/>
    <defs>
     <path id="m10955fc965" d="M 0 3.5 
C 0.928211 3.5 1.81853 3.131218 2.474874 2.474874 
C 3.131218 1.81853 3.5 0.928211 3.5 0 
C 3.5 -0.928211 3.131218 -1.81853 2.474874 -2.474874 
C 1.81853 -3.131218 0.928211 -3.5 0 -3.5 
C -0.928211 -3.5 -1.81853 -3.131218 -2.474874 -2.474874 
C -3.131218 -1.81853 -3.5 -0.928211 -3.5 0 
C -3.5 0.928211 -3.131218 1.81853 -2.474874 2.474874 
C -1.81853 3.131218 -0.928211 3.5 0 3.5 
z
" style="stroke: #8c564b"/>
    </defs>
    <g clip-path="url(#pef2ed5f0a7)">
     <use xlink:href="#m10955fc965" x="86.427777" y="382.918233" style="fill: #8c564b; stroke: #8c564b"/>
     <use xlink:href="#m10955fc965" x="111.82619" y="350.332563" style="fill: #8c564b; stroke: #8c564b"/>
     <use xlink:href="#m10955fc965" x="137.224602" y="324.264028" style="fill: #8c564b; stroke: #8c564b"/>
     <use xlink:href="#m10955fc965" x="162.623015" y="298.195493" style="fill: #8c564b; stroke: #8c564b"/>
     <use xlink:href="#m10955fc965" x="188.021427" y="278.644091" style="fill: #8c564b; stroke: #8c564b"/>
     <use xlink:href="#m10955fc965" x="213.41984" y="256.485836" style="fill: #8c564b; stroke: #8c564b"/>
     <use xlink:href="#m10955fc965" x="238.818252" y="253.878982" style="fill: #8c564b; stroke: #8c564b"/>
     <use xlink:href="#m10955fc965" x="264.216665" y="248.665275" style="fill: #8c564b; stroke: #8c564b"/>
     <use xlink:href="#m10955fc965" x="289.615077" y="203.045339" style="fill: #8c564b; stroke: #8c564b"/>
     <use xlink:href="#m10955fc965" x="315.01349" y="178.28023" style="fill: #8c564b; stroke: #8c564b"/>
     <use xlink:href="#m10955fc965" x="340.411902" y="145.694561" style="fill: #8c564b; stroke: #8c564b"/>
     <use xlink:href="#m10955fc965" x="365.810315" y="124.839732" style="fill: #8c564b; stroke: #8c564b"/>
     <use xlink:href="#m10955fc965" x="391.208727" y="63.578674" style="fill: #8c564b; stroke: #8c564b"/>
     <use xlink:href="#m10955fc965" x="467.403964" y="63.578674" style="fill: #8c564b; stroke: #8c564b"/>
     <use xlink:href="#m10955fc965" x="492.802377" y="63.578674" style="fill: #8c564b; stroke: #8c564b"/>
     <use xlink:href="#m10955fc965" x="518.200789" y="63.578674" style="fill: #8c564b; stroke: #8c564b"/>
     <use xlink:href="#m10955fc965" x="543.599202" y="63.578674" style="fill: #8c564b; stroke: #8c564b"/>
     <use xlink:href="#m10955fc965" x="568.997614" y="63.578674" style="fill: #8c564b; stroke: #8c564b"/>
     <use xlink:href="#m10955fc965" x="619.794439" y="63.578674" style="fill: #8c564b; stroke: #8c564b"/>
     <use xlink:href="#m10955fc965" x="645.192852" y="63.578674" style="fill: #8c564b; stroke: #8c564b"/>
     <use xlink:href="#m10955fc965" x="670.591264" y="63.578674" style="fill: #8c564b; stroke: #8c564b"/>
     <use xlink:href="#m10955fc965" x="695.989677" y="63.578674" style="fill: #8c564b; stroke: #8c564b"/>
     <use xlink:href="#m10955fc965" x="721.388089" y="63.578674" style="fill: #8c564b; stroke: #8c564b"/>
     <use xlink:href="#m10955fc965" x="746.786502" y="44.027273" style="fill: #8c564b; stroke: #8c564b"/>
     <use xlink:href="#m10955fc965" x="772.184914" y="44.027273" style="fill: #8c564b; stroke: #8c564b"/>
     <use xlink:href="#m10955fc965" x="797.583326" y="44.027273" style="fill: #8c564b; stroke: #8c564b"/>
    </g>
   </g>
   <g id="line2d_37">
    <path d="M 86.427777 386.972727 
L 111.82619 384.365874 
L 137.224602 381.75902 
L 162.623015 349.173351 
L 188.021427 342.656217 
L 213.41984 340.049364 
L 238.818252 313.980828 
L 264.216665 306.160268 
L 289.615077 293.126 
L 315.01349 281.395159 
L 340.411902 261.843757 
L 365.810315 247.506063 
L 391.208727 177.121018 
L 467.403964 177.121018 
L 492.802377 177.121018 
L 518.200789 177.121018 
L 543.599202 177.121018 
L 568.997614 177.121018 
L 619.794439 177.121018 
L 645.192852 177.121018 
L 670.591264 177.121018 
L 695.989677 177.121018 
L 721.388089 177.121018 
L 746.786502 177.121018 
L 772.184914 177.121018 
L 797.583326 177.121018 
" clip-path="url(#pef2ed5f0a7)" style="fill: none; stroke: #e377c2; stroke-width: 1.5; stroke-linecap: square"/>
    <defs>
     <path id="m3f07da24ab" d="M 0 3.5 
C 0.928211 3.5 1.81853 3.131218 2.474874 2.474874 
C 3.131218 1.81853 3.5 0.928211 3.5 0 
C 3.5 -0.928211 3.131218 -1.81853 2.474874 -2.474874 
C 1.81853 -3.131218 0.928211 -3.5 0 -3.5 
C -0.928211 -3.5 -1.81853 -3.131218 -2.474874 -2.474874 
C -3.131218 -1.81853 -3.5 -0.928211 -3.5 0 
C -3.5 0.928211 -3.131218 1.81853 -2.474874 2.474874 
C -1.81853 3.131218 -0.928211 3.5 0 3.5 
z
" style="stroke: #e377c2"/>
    </defs>
    <g clip-path="url(#pef2ed5f0a7)">
     <use xlink:href="#m3f07da24ab" x="86.427777" y="386.972727" style="fill: #e377c2; stroke: #e377c2"/>
     <use xlink:href="#m3f07da24ab" x="111.82619" y="384.365874" style="fill: #e377c2; stroke: #e377c2"/>
     <use xlink:href="#m3f07da24ab" x="137.224602" y="381.75902" style="fill: #e377c2; stroke: #e377c2"/>
     <use xlink:href="#m3f07da24ab" x="162.623015" y="349.173351" style="fill: #e377c2; stroke: #e377c2"/>
     <use xlink:href="#m3f07da24ab" x="188.021427" y="342.656217" style="fill: #e377c2; stroke: #e377c2"/>
     <use xlink:href="#m3f07da24ab" x="213.41984" y="340.049364" style="fill: #e377c2; stroke: #e377c2"/>
     <use xlink:href="#m3f07da24ab" x="238.818252" y="313.980828" style="fill: #e377c2; stroke: #e377c2"/>
     <use xlink:href="#m3f07da24ab" x="264.216665" y="306.160268" style="fill: #e377c2; stroke: #e377c2"/>
     <use xlink:href="#m3f07da24ab" x="289.615077" y="293.126" style="fill: #e377c2; stroke: #e377c2"/>
     <use xlink:href="#m3f07da24ab" x="315.01349" y="281.395159" style="fill: #e377c2; stroke: #e377c2"/>
     <use xlink:href="#m3f07da24ab" x="340.411902" y="261.843757" style="fill: #e377c2; stroke: #e377c2"/>
     <use xlink:href="#m3f07da24ab" x="365.810315" y="247.506063" style="fill: #e377c2; stroke: #e377c2"/>
     <use xlink:href="#m3f07da24ab" x="391.208727" y="177.121018" style="fill: #e377c2; stroke: #e377c2"/>
     <use xlink:href="#m3f07da24ab" x="467.403964" y="177.121018" style="fill: #e377c2; stroke: #e377c2"/>
     <use xlink:href="#m3f07da24ab" x="492.802377" y="177.121018" style="fill: #e377c2; stroke: #e377c2"/>
     <use xlink:href="#m3f07da24ab" x="518.200789" y="177.121018" style="fill: #e377c2; stroke: #e377c2"/>
     <use xlink:href="#m3f07da24ab" x="543.599202" y="177.121018" style="fill: #e377c2; stroke: #e377c2"/>
     <use xlink:href="#m3f07da24ab" x="568.997614" y="177.121018" style="fill: #e377c2; stroke: #e377c2"/>
     <use xlink:href="#m3f07da24ab" x="619.794439" y="177.121018" style="fill: #e377c2; stroke: #e377c2"/>
     <use xlink:href="#m3f07da24ab" x="645.192852" y="177.121018" style="fill: #e377c2; stroke: #e377c2"/>
     <use xlink:href="#m3f07da24ab" x="670.591264" y="177.121018" style="fill: #e377c2; stroke: #e377c2"/>
     <use xlink:href="#m3f07da24ab" x="695.989677" y="177.121018" style="fill: #e377c2; stroke: #e377c2"/>
     <use xlink:href="#m3f07da24ab" x="721.388089" y="177.121018" style="fill: #e377c2; stroke: #e377c2"/>
     <use xlink:href="#m3f07da24ab" x="746.786502" y="177.121018" style="fill: #e377c2; stroke: #e377c2"/>
     <use xlink:href="#m3f07da24ab" x="772.184914" y="177.121018" style="fill: #e377c2; stroke: #e377c2"/>
     <use xlink:href="#m3f07da24ab" x="797.583326" y="177.121018" style="fill: #e377c2; stroke: #e377c2"/>
    </g>
   </g>
   <g id="line2d_38">
    <path d="M 86.427777 386.848163 
L 111.82619 358.172774 
L 137.224602 329.497386 
L 162.623015 320.373398 
L 188.021427 294.304863 
L 213.41984 269.539754 
L 238.818252 253.898633 
L 264.216665 251.291779 
L 289.615077 222.61639 
L 315.01349 216.099257 
L 340.411902 163.962186 
L 365.810315 149.624491 
L 391.208727 105.307981 
L 467.403964 105.307981 
L 492.802377 105.307981 
L 518.200789 105.307981 
L 543.599202 105.307981 
L 568.997614 105.307981 
L 619.794439 105.307981 
L 645.192852 105.307981 
L 670.591264 105.307981 
L 695.989677 105.307981 
L 721.388089 105.307981 
L 746.786502 85.75658 
L 772.184914 85.75658 
L 797.583326 85.75658 
" clip-path="url(#pef2ed5f0a7)" style="fill: none; stroke: #7f7f7f; stroke-width: 1.5; stroke-linecap: square"/>
    <defs>
     <path id="m4a3a58296a" d="M 0 3.5 
C 0.928211 3.5 1.81853 3.131218 2.474874 2.474874 
C 3.131218 1.81853 3.5 0.928211 3.5 0 
C 3.5 -0.928211 3.131218 -1.81853 2.474874 -2.474874 
C 1.81853 -3.131218 0.928211 -3.5 0 -3.5 
C -0.928211 -3.5 -1.81853 -3.131218 -2.474874 -2.474874 
C -3.131218 -1.81853 -3.5 -0.928211 -3.5 0 
C -3.5 0.928211 -3.131218 1.81853 -2.474874 2.474874 
C -1.81853 3.131218 -0.928211 3.5 0 3.5 
z
" style="stroke: #7f7f7f"/>
    </defs>
    <g clip-path="url(#pef2ed5f0a7)">
     <use xlink:href="#m4a3a58296a" x="86.427777" y="386.848163" style="fill: #7f7f7f; stroke: #7f7f7f"/>
     <use xlink:href="#m4a3a58296a" x="111.82619" y="358.172774" style="fill: #7f7f7f; stroke: #7f7f7f"/>
     <use xlink:href="#m4a3a58296a" x="137.224602" y="329.497386" style="fill: #7f7f7f; stroke: #7f7f7f"/>
     <use xlink:href="#m4a3a58296a" x="162.623015" y="320.373398" style="fill: #7f7f7f; stroke: #7f7f7f"/>
     <use xlink:href="#m4a3a58296a" x="188.021427" y="294.304863" style="fill: #7f7f7f; stroke: #7f7f7f"/>
     <use xlink:href="#m4a3a58296a" x="213.41984" y="269.539754" style="fill: #7f7f7f; stroke: #7f7f7f"/>
     <use xlink:href="#m4a3a58296a" x="238.818252" y="253.898633" style="fill: #7f7f7f; stroke: #7f7f7f"/>
     <use xlink:href="#m4a3a58296a" x="264.216665" y="251.291779" style="fill: #7f7f7f; stroke: #7f7f7f"/>
     <use xlink:href="#m4a3a58296a" x="289.615077" y="222.61639" style="fill: #7f7f7f; stroke: #7f7f7f"/>
     <use xlink:href="#m4a3a58296a" x="315.01349" y="216.099257" style="fill: #7f7f7f; stroke: #7f7f7f"/>
     <use xlink:href="#m4a3a58296a" x="340.411902" y="163.962186" style="fill: #7f7f7f; stroke: #7f7f7f"/>
     <use xlink:href="#m4a3a58296a" x="365.810315" y="149.624491" style="fill: #7f7f7f; stroke: #7f7f7f"/>
     <use xlink:href="#m4a3a58296a" x="391.208727" y="105.307981" style="fill: #7f7f7f; stroke: #7f7f7f"/>
     <use xlink:href="#m4a3a58296a" x="467.403964" y="105.307981" style="fill: #7f7f7f; stroke: #7f7f7f"/>
     <use xlink:href="#m4a3a58296a" x="492.802377" y="105.307981" style="fill: #7f7f7f; stroke: #7f7f7f"/>
     <use xlink:href="#m4a3a58296a" x="518.200789" y="105.307981" style="fill: #7f7f7f; stroke: #7f7f7f"/>
     <use xlink:href="#m4a3a58296a" x="543.599202" y="105.307981" style="fill: #7f7f7f; stroke: #7f7f7f"/>
     <use xlink:href="#m4a3a58296a" x="568.997614" y="105.307981" style="fill: #7f7f7f; stroke: #7f7f7f"/>
     <use xlink:href="#m4a3a58296a" x="619.794439" y="105.307981" style="fill: #7f7f7f; stroke: #7f7f7f"/>
     <use xlink:href="#m4a3a58296a" x="645.192852" y="105.307981" style="fill: #7f7f7f; stroke: #7f7f7f"/>
     <use xlink:href="#m4a3a58296a" x="670.591264" y="105.307981" style="fill: #7f7f7f; stroke: #7f7f7f"/>
     <use xlink:href="#m4a3a58296a" x="695.989677" y="105.307981" style="fill: #7f7f7f; stroke: #7f7f7f"/>
     <use xlink:href="#m4a3a58296a" x="721.388089" y="105.307981" style="fill: #7f7f7f; stroke: #7f7f7f"/>
     <use xlink:href="#m4a3a58296a" x="746.786502" y="85.75658" style="fill: #7f7f7f; stroke: #7f7f7f"/>
     <use xlink:href="#m4a3a58296a" x="772.184914" y="85.75658" style="fill: #7f7f7f; stroke: #7f7f7f"/>
     <use xlink:href="#m4a3a58296a" x="797.583326" y="85.75658" style="fill: #7f7f7f; stroke: #7f7f7f"/>
    </g>
   </g>
   <g id="line2d_39">
    <path d="M 86.427777 376.554379 
L 111.82619 363.520111 
L 137.224602 343.96871 
L 162.623015 328.327588 
L 188.021427 312.686467 
L 213.41984 277.493944 
L 238.818252 272.280237 
L 264.216665 260.549396 
L 289.615077 227.963727 
L 315.01349 201.895192 
L 340.411902 149.758121 
L 365.810315 134.117 
L 391.208727 79.373076 
L 467.403964 79.373076 
L 492.802377 79.373076 
L 518.200789 79.373076 
L 543.599202 79.373076 
L 568.997614 79.373076 
L 619.794439 79.373076 
L 645.192852 79.373076 
L 670.591264 79.373076 
L 695.989677 79.373076 
L 721.388089 79.373076 
L 746.786502 59.821674 
L 772.184914 59.821674 
L 797.583326 59.821674 
" clip-path="url(#pef2ed5f0a7)" style="fill: none; stroke: #bcbd22; stroke-width: 1.5; stroke-linecap: square"/>
    <defs>
     <path id="md0b22df107" d="M 0 3.5 
C 0.928211 3.5 1.81853 3.131218 2.474874 2.474874 
C 3.131218 1.81853 3.5 0.928211 3.5 0 
C 3.5 -0.928211 3.131218 -1.81853 2.474874 -2.474874 
C 1.81853 -3.131218 0.928211 -3.5 0 -3.5 
C -0.928211 -3.5 -1.81853 -3.131218 -2.474874 -2.474874 
C -3.131218 -1.81853 -3.5 -0.928211 -3.5 0 
C -3.5 0.928211 -3.131218 1.81853 -2.474874 2.474874 
C -1.81853 3.131218 -0.928211 3.5 0 3.5 
z
" style="stroke: #bcbd22"/>
    </defs>
    <g clip-path="url(#pef2ed5f0a7)">
     <use xlink:href="#md0b22df107" x="86.427777" y="376.554379" style="fill: #bcbd22; stroke: #bcbd22"/>
     <use xlink:href="#md0b22df107" x="111.82619" y="363.520111" style="fill: #bcbd22; stroke: #bcbd22"/>
     <use xlink:href="#md0b22df107" x="137.224602" y="343.96871" style="fill: #bcbd22; stroke: #bcbd22"/>
     <use xlink:href="#md0b22df107" x="162.623015" y="328.327588" style="fill: #bcbd22; stroke: #bcbd22"/>
     <use xlink:href="#md0b22df107" x="188.021427" y="312.686467" style="fill: #bcbd22; stroke: #bcbd22"/>
     <use xlink:href="#md0b22df107" x="213.41984" y="277.493944" style="fill: #bcbd22; stroke: #bcbd22"/>
     <use xlink:href="#md0b22df107" x="238.818252" y="272.280237" style="fill: #bcbd22; stroke: #bcbd22"/>
     <use xlink:href="#md0b22df107" x="264.216665" y="260.549396" style="fill: #bcbd22; stroke: #bcbd22"/>
     <use xlink:href="#md0b22df107" x="289.615077" y="227.963727" style="fill: #bcbd22; stroke: #bcbd22"/>
     <use xlink:href="#md0b22df107" x="315.01349" y="201.895192" style="fill: #bcbd22; stroke: #bcbd22"/>
     <use xlink:href="#md0b22df107" x="340.411902" y="149.758121" style="fill: #bcbd22; stroke: #bcbd22"/>
     <use xlink:href="#md0b22df107" x="365.810315" y="134.117" style="fill: #bcbd22; stroke: #bcbd22"/>
     <use xlink:href="#md0b22df107" x="391.208727" y="79.373076" style="fill: #bcbd22; stroke: #bcbd22"/>
     <use xlink:href="#md0b22df107" x="467.403964" y="79.373076" style="fill: #bcbd22; stroke: #bcbd22"/>
     <use xlink:href="#md0b22df107" x="492.802377" y="79.373076" style="fill: #bcbd22; stroke: #bcbd22"/>
     <use xlink:href="#md0b22df107" x="518.200789" y="79.373076" style="fill: #bcbd22; stroke: #bcbd22"/>
     <use xlink:href="#md0b22df107" x="543.599202" y="79.373076" style="fill: #bcbd22; stroke: #bcbd22"/>
     <use xlink:href="#md0b22df107" x="568.997614" y="79.373076" style="fill: #bcbd22; stroke: #bcbd22"/>
     <use xlink:href="#md0b22df107" x="619.794439" y="79.373076" style="fill: #bcbd22; stroke: #bcbd22"/>
     <use xlink:href="#md0b22df107" x="645.192852" y="79.373076" style="fill: #bcbd22; stroke: #bcbd22"/>
     <use xlink:href="#md0b22df107" x="670.591264" y="79.373076" style="fill: #bcbd22; stroke: #bcbd22"/>
     <use xlink:href="#md0b22df107" x="695.989677" y="79.373076" style="fill: #bcbd22; stroke: #bcbd22"/>
     <use xlink:href="#md0b22df107" x="721.388089" y="79.373076" style="fill: #bcbd22; stroke: #bcbd22"/>
     <use xlink:href="#md0b22df107" x="746.786502" y="59.821674" style="fill: #bcbd22; stroke: #bcbd22"/>
     <use xlink:href="#md0b22df107" x="772.184914" y="59.821674" style="fill: #bcbd22; stroke: #bcbd22"/>
     <use xlink:href="#md0b22df107" x="797.583326" y="59.821674" style="fill: #bcbd22; stroke: #bcbd22"/>
    </g>
   </g>
   <g id="patch_3">
    <path d="M 50.87 404.12 
L 50.87 26.88 
" style="fill: none; stroke: #000000; stroke-width: 0.8; stroke-linejoin: miter; stroke-linecap: square"/>
   </g>
   <g id="patch_4">
    <path d="M 833.141104 404.12 
L 833.141104 26.88 
" style="fill: none; stroke: #000000; stroke-width: 0.8; stroke-linejoin: miter; stroke-linecap: square"/>
   </g>
   <g id="patch_5">
    <path d="M 50.87 404.12 
L 833.141104 404.12 
" style="fill: none; stroke: #000000; stroke-width: 0.8; stroke-linejoin: miter; stroke-linecap: square"/>
   </g>
   <g id="patch_6">
    <path d="M 50.87 26.88 
L 833.141104 26.88 
" style="fill: none; stroke: #000000; stroke-width: 0.8; stroke-linejoin: miter; stroke-linecap: square"/>
   </g>
   <g id="text_17">
    <!-- Standings -->
    <g transform="translate(412.151802 20.88) scale(0.12 -0.12)">
     <defs>
      <path id="DejaVuSans-74" d="M 1172 4494 
L 1172 3500 
L 2356 3500 
L 2356 3053 
L 1172 3053 
L 1172 1153 
Q 1172 725 1289 603 
Q 1406 481 1766 481 
L 2356 481 
L 2356 0 
L 1766 0 
Q 1100 0 847 248 
Q 594 497 594 1153 
L 594 3053 
L 172 3053 
L 172 3500 
L 594 3500 
L 594 4494 
L 1172 4494 
z
" transform="scale(0.015625)"/>
      <path id="DejaVuSans-61" d="M 2194 1759 
Q 1497 1759 1228 1600 
Q 959 1441 959 1056 
Q 959 750 1161 570 
Q 1363 391 1709 391 
Q 2188 391 2477 730 
Q 2766 1069 2766 1631 
L 2766 1759 
L 2194 1759 
z
M 3341 1997 
L 3341 0 
L 2766 0 
L 2766 531 
Q 2569 213 2275 61 
Q 1981 -91 1556 -91 
Q 1019 -91 701 211 
Q 384 513 384 1019 
Q 384 1609 779 1909 
Q 1175 2209 1959 2209 
L 2766 2209 
L 2766 2266 
Q 2766 2663 2505 2880 
Q 2244 3097 1772 3097 
Q 1472 3097 1187 3025 
Q 903 2953 641 2809 
L 641 3341 
Q 956 3463 1253 3523 
Q 1550 3584 1831 3584 
Q 2591 3584 2966 3190 
Q 3341 2797 3341 1997 
z
" transform="scale(0.015625)"/>
      <path id="DejaVuSans-6e" d="M 3513 2113 
L 3513 0 
L 2938 0 
L 2938 2094 
Q 2938 2591 2744 2837 
Q 2550 3084 2163 3084 
Q 1697 3084 1428 2787 
Q 1159 2491 1159 1978 
L 1159 0 
L 581 0 
L 581 3500 
L 1159 3500 
L 1159 2956 
Q 1366 3272 1645 3428 
Q 1925 3584 2291 3584 
Q 2894 3584 3203 3211 
Q 3513 2838 3513 2113 
z
" transform="scale(0.015625)"/>
      <path id="DejaVuSans-64" d="M 2906 2969 
L 2906 4863 
L 3481 4863 
L 3481 0 
L 2906 0 
L 2906 525 
Q 2725 213 2448 61 
Q 2172 -91 1784 -91 
Q 1150 -91 751 415 
Q 353 922 353 1747 
Q 353 2572 751 3078 
Q 1150 3584 1784 3584 
Q 2172 3584 2448 3432 
Q 2725 3281 2906 2969 
z
M 947 1747 
Q 947 1113 1208 752 
Q 1469 391 1925 391 
Q 2381 391 2643 752 
Q 2906 1113 2906 1747 
Q 2906 2381 2643 2742 
Q 2381 3103 1925 3103 
Q 1469 3103 1208 2742 
Q 947 2381 947 1747 
z
" transform="scale(0.015625)"/>
      <path id="DejaVuSans-69" d="M 603 3500 
L 1178 3500 
L 1178 0 
L 603 0 
L 603 3500 
z
M 603 4863 
L 1178 4863 
L 1178 4134 
L 603 4134 
L 603 4863 
z
" transform="scale(0.015625)"/>
      <path id="DejaVuSans-67" d="M 2906 1791 
Q 2906 2416 2648 2759 
Q 2391 3103 1925 3103 
Q 1463 3103 1205 2759 
Q 947 2416 947 1791 
Q 947 1169 1205 825 
Q 1463 481 1925 481 
Q 2391 481 2648 825 
Q 2906 1169 2906 1791 
z
M 3481 434 
Q 3481 -459 3084 -895 
Q 2688 -1331 1869 -1331 
Q 1566 -1331 1297 -1286 
Q 1028 -1241 775 -1147 
L 775 -588 
Q 1028 -725 1275 -790 
Q 1522 -856 1778 -856 
Q 2344 -856 2625 -561 
Q 2906 -266 2906 331 
L 2906 616 
Q 2728 306 2450 153 
Q 2172 0 1784 0 
Q 1141 0 747 490 
Q 353 981 353 1791 
Q 353 2603 747 3093 
Q 1141 3584 1784 3584 
Q 2172 3584 2450 3431 
Q 2728 3278 2906 2969 
L 2906 3500 
L 3481 3500 
L 3481 434 
z
" transform="scale(0.015625)"/>
      <path id="DejaVuSans-73" d="M 2834 3397 
L 2834 2853 
Q 2591 2978 2328 3040 
Q 2066 3103 1784 3103 
Q 1356 3103 1142 2972 
Q 928 2841 928 2578 
Q 928 2378 1081 2264 
Q 1234 2150 1697 2047 
L 1894 2003 
Q 2506 1872 2764 1633 
Q 3022 1394 3022 966 
Q 3022 478 2636 193 
Q 2250 -91 1575 -91 
Q 1294 -91 989 -36 
Q 684 19 347 128 
L 347 722 
Q 666 556 975 473 
Q 1284 391 1588 391 
Q 1994 391 2212 530 
Q 2431 669 2431 922 
Q 2431 1156 2273 1281 
Q 2116 1406 1581 1522 
L 1381 1569 
Q 847 1681 609 1914 
Q 372 2147 372 2553 
Q 372 3047 722 3315 
Q 1072 3584 1716 3584 
Q 2034 3584 2315 3537 
Q 2597 3491 2834 3397 
z
" transform="scale(0.015625)"/>
     </defs>
     <use xlink:href="#DejaVuSans-53"/>
     <use xlink:href="#DejaVuSans-74" x="63.476562"/>
     <use xlink:href="#DejaVuSans-61" x="102.685547"/>
     <use xlink:href="#DejaVuSans-6e" x="163.964844"/>
     <use xlink:href="#DejaVuSans-64" x="227.34375"/>
     <use xlink:href="#DejaVuSans-69" x="290.820312"/>
     <use xlink:href="#DejaVuSans-6e" x="318.603516"/>
     <use xlink:href="#DejaVuSans-67" x="381.982422"/>
     <use xlink:href="#DejaVuSans-73" x="445.458984"/>
    </g>
   </g>
   <g id="legend_1">
    <g id="patch_7">
     <path d="M 57.87 166.983125 
L 149.490313 166.983125 
Q 151.490313 166.983125 151.490313 164.983125 
L 151.490313 33.88 
Q 151.490313 31.88 149.490313 31.88 
L 57.87 31.88 
Q 55.87 31.88 55.87 33.88 
L 55.87 164.983125 
Q 55.87 166.983125 57.87 166.983125 
z
" style="fill: #ffffff; opacity: 0.8; stroke: #cccccc; stroke-linejoin: miter"/>
    </g>
    <g id="line2d_40">
     <path d="M 59.87 39.978437 
L 69.87 39.978437 
L 79.87 39.978437 
" style="fill: none; stroke: #1f77b4; stroke-width: 1.5; stroke-linecap: square"/>
     <g>
      <use xlink:href="#m423cf498fd" x="69.87" y="39.978437" style="fill: #1f77b4; stroke: #1f77b4"/>
     </g>
    </g>
    <g id="text_18">
     <!-- Martin Ba -->
     <g transform="translate(87.87 43.478437) scale(0.1 -0.1)">
      <defs>
       <path id="DejaVuSans-4d" d="M 628 4666 
L 1569 4666 
L 2759 1491 
L 3956 4666 
L 4897 4666 
L 4897 0 
L 4281 0 
L 4281 4097 
L 3078 897 
L 2444 897 
L 1241 4097 
L 1241 0 
L 628 0 
L 628 4666 
z
" transform="scale(0.015625)"/>
       <path id="DejaVuSans-20" transform="scale(0.015625)"/>
       <path id="DejaVuSans-42" d="M 1259 2228 
L 1259 519 
L 2272 519 
Q 2781 519 3026 730 
Q 3272 941 3272 1375 
Q 3272 1813 3026 2020 
Q 2781 2228 2272 2228 
L 1259 2228 
z
M 1259 4147 
L 1259 2741 
L 2194 2741 
Q 2656 2741 2882 2914 
Q 3109 3088 3109 3444 
Q 3109 3797 2882 3972 
Q 2656 4147 2194 4147 
L 1259 4147 
z
M 628 4666 
L 2241 4666 
Q 2963 4666 3353 4366 
Q 3744 4066 3744 3513 
Q 3744 3084 3544 2831 
Q 3344 2578 2956 2516 
Q 3422 2416 3680 2098 
Q 3938 1781 3938 1306 
Q 3938 681 3513 340 
Q 3088 0 2303 0 
L 628 0 
L 628 4666 
z
" transform="scale(0.015625)"/>
      </defs>
      <use xlink:href="#DejaVuSans-4d"/>
      <use xlink:href="#DejaVuSans-61" x="86.279297"/>
      <use xlink:href="#DejaVuSans-72" x="147.558594"/>
      <use xlink:href="#DejaVuSans-74" x="188.671875"/>
      <use xlink:href="#DejaVuSans-69" x="227.880859"/>
      <use xlink:href="#DejaVuSans-6e" x="255.664062"/>
      <use xlink:href="#DejaVuSans-20" x="319.042969"/>
      <use xlink:href="#DejaVuSans-42" x="350.830078"/>
      <use xlink:href="#DejaVuSans-61" x="419.433594"/>
     </g>
    </g>
    <g id="line2d_41">
     <path d="M 59.87 54.656563 
L 69.87 54.656563 
L 79.87 54.656563 
" style="fill: none; stroke: #ff7f0e; stroke-width: 1.5; stroke-linecap: square"/>
     <g>
      <use xlink:href="#me3811332c1" x="69.87" y="54.656563" style="fill: #ff7f0e; stroke: #ff7f0e"/>
     </g>
    </g>
    <g id="text_19">
     <!-- Maren St -->
     <g transform="translate(87.87 58.156563) scale(0.1 -0.1)">
      <use xlink:href="#DejaVuSans-4d"/>
      <use xlink:href="#DejaVuSans-61" x="86.279297"/>
      <use xlink:href="#DejaVuSans-72" x="147.558594"/>
      <use xlink:href="#DejaVuSans-65" x="186.421875"/>
      <use xlink:href="#DejaVuSans-6e" x="247.945312"/>
      <use xlink:href="#DejaVuSans-20" x="311.324219"/>
      <use xlink:href="#DejaVuSans-53" x="343.111328"/>
      <use xlink:href="#DejaVuSans-74" x="406.587891"/>
     </g>
    </g>
    <g id="line2d_42">
     <path d="M 59.87 69.334687 
L 69.87 69.334687 
L 79.87 69.334687 
" style="fill: none; stroke: #2ca02c; stroke-width: 1.5; stroke-linecap: square"/>
     <g>
      <use xlink:href="#m60bbf47b23" x="69.87" y="69.334687" style="fill: #2ca02c; stroke: #2ca02c"/>
     </g>
    </g>
    <g id="text_20">
     <!-- Jakob Ve -->
     <g transform="translate(87.87 72.834687) scale(0.1 -0.1)">
      <defs>
       <path id="DejaVuSans-4a" d="M 628 4666 
L 1259 4666 
L 1259 325 
Q 1259 -519 939 -900 
Q 619 -1281 -91 -1281 
L -331 -1281 
L -331 -750 
L -134 -750 
Q 284 -750 456 -515 
Q 628 -281 628 325 
L 628 4666 
z
" transform="scale(0.015625)"/>
       <path id="DejaVuSans-6b" d="M 581 4863 
L 1159 4863 
L 1159 1991 
L 2875 3500 
L 3609 3500 
L 1753 1863 
L 3688 0 
L 2938 0 
L 1159 1709 
L 1159 0 
L 581 0 
L 581 4863 
z
" transform="scale(0.015625)"/>
       <path id="DejaVuSans-62" d="M 3116 1747 
Q 3116 2381 2855 2742 
Q 2594 3103 2138 3103 
Q 1681 3103 1420 2742 
Q 1159 2381 1159 1747 
Q 1159 1113 1420 752 
Q 1681 391 2138 391 
Q 2594 391 2855 752 
Q 3116 1113 3116 1747 
z
M 1159 2969 
Q 1341 3281 1617 3432 
Q 1894 3584 2278 3584 
Q 2916 3584 3314 3078 
Q 3713 2572 3713 1747 
Q 3713 922 3314 415 
Q 2916 -91 2278 -91 
Q 1894 -91 1617 61 
Q 1341 213 1159 525 
L 1159 0 
L 581 0 
L 581 4863 
L 1159 4863 
L 1159 2969 
z
" transform="scale(0.015625)"/>
       <path id="DejaVuSans-56" d="M 1831 0 
L 50 4666 
L 709 4666 
L 2188 738 
L 3669 4666 
L 4325 4666 
L 2547 0 
L 1831 0 
z
" transform="scale(0.015625)"/>
      </defs>
      <use xlink:href="#DejaVuSans-4a"/>
      <use xlink:href="#DejaVuSans-61" x="29.492188"/>
      <use xlink:href="#DejaVuSans-6b" x="90.771484"/>
      <use xlink:href="#DejaVuSans-6f" x="145.056641"/>
      <use xlink:href="#DejaVuSans-62" x="206.238281"/>
      <use xlink:href="#DejaVuSans-20" x="269.714844"/>
      <use xlink:href="#DejaVuSans-56" x="301.501953"/>
      <use xlink:href="#DejaVuSans-65" x="362.160156"/>
     </g>
    </g>
    <g id="line2d_43">
     <path d="M 59.87 84.012812 
L 69.87 84.012812 
L 79.87 84.012812 
" style="fill: none; stroke: #d62728; stroke-width: 1.5; stroke-linecap: square"/>
     <g>
      <use xlink:href="#m98217b3deb" x="69.87" y="84.012812" style="fill: #d62728; stroke: #d62728"/>
     </g>
    </g>
    <g id="text_21">
     <!-- Mathas Po -->
     <g transform="translate(87.87 87.512812) scale(0.1 -0.1)">
      <defs>
       <path id="DejaVuSans-68" d="M 3513 2113 
L 3513 0 
L 2938 0 
L 2938 2094 
Q 2938 2591 2744 2837 
Q 2550 3084 2163 3084 
Q 1697 3084 1428 2787 
Q 1159 2491 1159 1978 
L 1159 0 
L 581 0 
L 581 4863 
L 1159 4863 
L 1159 2956 
Q 1366 3272 1645 3428 
Q 1925 3584 2291 3584 
Q 2894 3584 3203 3211 
Q 3513 2838 3513 2113 
z
" transform="scale(0.015625)"/>
       <path id="DejaVuSans-50" d="M 1259 4147 
L 1259 2394 
L 2053 2394 
Q 2494 2394 2734 2622 
Q 2975 2850 2975 3272 
Q 2975 3691 2734 3919 
Q 2494 4147 2053 4147 
L 1259 4147 
z
M 628 4666 
L 2053 4666 
Q 2838 4666 3239 4311 
Q 3641 3956 3641 3272 
Q 3641 2581 3239 2228 
Q 2838 1875 2053 1875 
L 1259 1875 
L 1259 0 
L 628 0 
L 628 4666 
z
" transform="scale(0.015625)"/>
      </defs>
      <use xlink:href="#DejaVuSans-4d"/>
      <use xlink:href="#DejaVuSans-61" x="86.279297"/>
      <use xlink:href="#DejaVuSans-74" x="147.558594"/>
      <use xlink:href="#DejaVuSans-68" x="186.767578"/>
      <use xlink:href="#DejaVuSans-61" x="250.146484"/>
      <use xlink:href="#DejaVuSans-73" x="311.425781"/>
      <use xlink:href="#DejaVuSans-20" x="363.525391"/>
      <use xlink:href="#DejaVuSans-50" x="395.3125"/>
      <use xlink:href="#DejaVuSans-6f" x="451.990234"/>
     </g>
    </g>
    <g id="line2d_44">
     <path d="M 59.87 98.690938 
L 69.87 98.690938 
L 79.87 98.690938 
" style="fill: none; stroke: #9467bd; stroke-width: 1.5; stroke-linecap: square"/>
     <g>
      <use xlink:href="#m0cdf5b2bff" x="69.87" y="98.690938" style="fill: #9467bd; stroke: #9467bd"/>
     </g>
    </g>
    <g id="text_22">
     <!-- Christian Gr -->
     <g transform="translate(87.87 102.190938) scale(0.1 -0.1)">
      <defs>
       <path id="DejaVuSans-43" d="M 4122 4306 
L 4122 3641 
Q 3803 3938 3442 4084 
Q 3081 4231 2675 4231 
Q 1875 4231 1450 3742 
Q 1025 3253 1025 2328 
Q 1025 1406 1450 917 
Q 1875 428 2675 428 
Q 3081 428 3442 575 
Q 3803 722 4122 1019 
L 4122 359 
Q 3791 134 3420 21 
Q 3050 -91 2638 -91 
Q 1578 -91 968 557 
Q 359 1206 359 2328 
Q 359 3453 968 4101 
Q 1578 4750 2638 4750 
Q 3056 4750 3426 4639 
Q 3797 4528 4122 4306 
z
" transform="scale(0.015625)"/>
       <path id="DejaVuSans-47" d="M 3809 666 
L 3809 1919 
L 2778 1919 
L 2778 2438 
L 4434 2438 
L 4434 434 
Q 4069 175 3628 42 
Q 3188 -91 2688 -91 
Q 1594 -91 976 548 
Q 359 1188 359 2328 
Q 359 3472 976 4111 
Q 1594 4750 2688 4750 
Q 3144 4750 3555 4637 
Q 3966 4525 4313 4306 
L 4313 3634 
Q 3963 3931 3569 4081 
Q 3175 4231 2741 4231 
Q 1884 4231 1454 3753 
Q 1025 3275 1025 2328 
Q 1025 1384 1454 906 
Q 1884 428 2741 428 
Q 3075 428 3337 486 
Q 3600 544 3809 666 
z
" transform="scale(0.015625)"/>
      </defs>
      <use xlink:href="#DejaVuSans-43"/>
      <use xlink:href="#DejaVuSans-68" x="69.824219"/>
      <use xlink:href="#DejaVuSans-72" x="133.203125"/>
      <use xlink:href="#DejaVuSans-69" x="174.316406"/>
      <use xlink:href="#DejaVuSans-73" x="202.099609"/>
      <use xlink:href="#DejaVuSans-74" x="254.199219"/>
      <use xlink:href="#DejaVuSans-69" x="293.408203"/>
      <use xlink:href="#DejaVuSans-61" x="321.191406"/>
      <use xlink:href="#DejaVuSans-6e" x="382.470703"/>
      <use xlink:href="#DejaVuSans-20" x="445.849609"/>
      <use xlink:href="#DejaVuSans-47" x="477.636719"/>
      <use xlink:href="#DejaVuSans-72" x="555.126953"/>
     </g>
    </g>
    <g id="line2d_45">
     <path d="M 59.87 113.369062 
L 69.87 113.369062 
L 79.87 113.369062 
" style="fill: none; stroke: #8c564b; stroke-width: 1.5; stroke-linecap: square"/>
     <g>
      <use xlink:href="#m10955fc965" x="69.87" y="113.369062" style="fill: #8c564b; stroke: #8c564b"/>
     </g>
    </g>
    <g id="text_23">
     <!-- RIKKE GR -->
     <g transform="translate(87.87 116.869062) scale(0.1 -0.1)">
      <defs>
       <path id="DejaVuSans-52" d="M 2841 2188 
Q 3044 2119 3236 1894 
Q 3428 1669 3622 1275 
L 4263 0 
L 3584 0 
L 2988 1197 
Q 2756 1666 2539 1819 
Q 2322 1972 1947 1972 
L 1259 1972 
L 1259 0 
L 628 0 
L 628 4666 
L 2053 4666 
Q 2853 4666 3247 4331 
Q 3641 3997 3641 3322 
Q 3641 2881 3436 2590 
Q 3231 2300 2841 2188 
z
M 1259 4147 
L 1259 2491 
L 2053 2491 
Q 2509 2491 2742 2702 
Q 2975 2913 2975 3322 
Q 2975 3731 2742 3939 
Q 2509 4147 2053 4147 
L 1259 4147 
z
" transform="scale(0.015625)"/>
       <path id="DejaVuSans-49" d="M 628 4666 
L 1259 4666 
L 1259 0 
L 628 0 
L 628 4666 
z
" transform="scale(0.015625)"/>
       <path id="DejaVuSans-4b" d="M 628 4666 
L 1259 4666 
L 1259 2694 
L 3353 4666 
L 4166 4666 
L 1850 2491 
L 4331 0 
L 3500 0 
L 1259 2247 
L 1259 0 
L 628 0 
L 628 4666 
z
" transform="scale(0.015625)"/>
       <path id="DejaVuSans-45" d="M 628 4666 
L 3578 4666 
L 3578 4134 
L 1259 4134 
L 1259 2753 
L 3481 2753 
L 3481 2222 
L 1259 2222 
L 1259 531 
L 3634 531 
L 3634 0 
L 628 0 
L 628 4666 
z
" transform="scale(0.015625)"/>
      </defs>
      <use xlink:href="#DejaVuSans-52"/>
      <use xlink:href="#DejaVuSans-49" x="69.482422"/>
      <use xlink:href="#DejaVuSans-4b" x="98.974609"/>
      <use xlink:href="#DejaVuSans-4b" x="164.550781"/>
      <use xlink:href="#DejaVuSans-45" x="230.126953"/>
      <use xlink:href="#DejaVuSans-20" x="293.310547"/>
      <use xlink:href="#DejaVuSans-47" x="325.097656"/>
      <use xlink:href="#DejaVuSans-52" x="402.587891"/>
     </g>
    </g>
    <g id="line2d_46">
     <path d="M 59.87 128.047187 
L 69.87 128.047187 
L 79.87 128.047187 
" style="fill: none; stroke: #e377c2; stroke-width: 1.5; stroke-linecap: square"/>
     <g>
      <use xlink:href="#m3f07da24ab" x="69.87" y="128.047187" style="fill: #e377c2; stroke: #e377c2"/>
     </g>
    </g>
    <g id="text_24">
     <!-- lea bo -->
     <g transform="translate(87.87 131.547187) scale(0.1 -0.1)">
      <defs>
       <path id="DejaVuSans-6c" d="M 603 4863 
L 1178 4863 
L 1178 0 
L 603 0 
L 603 4863 
z
" transform="scale(0.015625)"/>
      </defs>
      <use xlink:href="#DejaVuSans-6c"/>
      <use xlink:href="#DejaVuSans-65" x="27.783203"/>
      <use xlink:href="#DejaVuSans-61" x="89.306641"/>
      <use xlink:href="#DejaVuSans-20" x="150.585938"/>
      <use xlink:href="#DejaVuSans-62" x="182.373047"/>
      <use xlink:href="#DejaVuSans-6f" x="245.849609"/>
     </g>
    </g>
    <g id="line2d_47">
     <path d="M 59.87 142.725312 
L 69.87 142.725312 
L 79.87 142.725312 
" style="fill: none; stroke: #7f7f7f; stroke-width: 1.5; stroke-linecap: square"/>
     <g>
      <use xlink:href="#m4a3a58296a" x="69.87" y="142.725312" style="fill: #7f7f7f; stroke: #7f7f7f"/>
     </g>
    </g>
    <g id="text_25">
     <!-- Andreas Ku -->
     <g transform="translate(87.87 146.225312) scale(0.1 -0.1)">
      <defs>
       <path id="DejaVuSans-41" d="M 2188 4044 
L 1331 1722 
L 3047 1722 
L 2188 4044 
z
M 1831 4666 
L 2547 4666 
L 4325 0 
L 3669 0 
L 3244 1197 
L 1141 1197 
L 716 0 
L 50 0 
L 1831 4666 
z
" transform="scale(0.015625)"/>
       <path id="DejaVuSans-75" d="M 544 1381 
L 544 3500 
L 1119 3500 
L 1119 1403 
Q 1119 906 1312 657 
Q 1506 409 1894 409 
Q 2359 409 2629 706 
Q 2900 1003 2900 1516 
L 2900 3500 
L 3475 3500 
L 3475 0 
L 2900 0 
L 2900 538 
Q 2691 219 2414 64 
Q 2138 -91 1772 -91 
Q 1169 -91 856 284 
Q 544 659 544 1381 
z
M 1991 3584 
L 1991 3584 
z
" transform="scale(0.015625)"/>
      </defs>
      <use xlink:href="#DejaVuSans-41"/>
      <use xlink:href="#DejaVuSans-6e" x="68.408203"/>
      <use xlink:href="#DejaVuSans-64" x="131.787109"/>
      <use xlink:href="#DejaVuSans-72" x="195.263672"/>
      <use xlink:href="#DejaVuSans-65" x="234.126953"/>
      <use xlink:href="#DejaVuSans-61" x="295.650391"/>
      <use xlink:href="#DejaVuSans-73" x="356.929688"/>
      <use xlink:href="#DejaVuSans-20" x="409.029297"/>
      <use xlink:href="#DejaVuSans-4b" x="440.816406"/>
      <use xlink:href="#DejaVuSans-75" x="501.392578"/>
     </g>
    </g>
    <g id="line2d_48">
     <path d="M 59.87 157.403437 
L 69.87 157.403437 
L 79.87 157.403437 
" style="fill: none; stroke: #bcbd22; stroke-width: 1.5; stroke-linecap: square"/>
     <g>
      <use xlink:href="#md0b22df107" x="69.87" y="157.403437" style="fill: #bcbd22; stroke: #bcbd22"/>
     </g>
    </g>
    <g id="text_26">
     <!-- Salty Gu -->
     <g transform="translate(87.87 160.903437) scale(0.1 -0.1)">
      <defs>
       <path id="DejaVuSans-79" d="M 2059 -325 
Q 1816 -950 1584 -1140 
Q 1353 -1331 966 -1331 
L 506 -1331 
L 506 -850 
L 844 -850 
Q 1081 -850 1212 -737 
Q 1344 -625 1503 -206 
L 1606 56 
L 191 3500 
L 800 3500 
L 1894 763 
L 2988 3500 
L 3597 3500 
L 2059 -325 
z
" transform="scale(0.015625)"/>
      </defs>
      <use xlink:href="#DejaVuSans-53"/>
      <use xlink:href="#DejaVuSans-61" x="63.476562"/>
      <use xlink:href="#DejaVuSans-6c" x="124.755859"/>
      <use xlink:href="#DejaVuSans-74" x="152.539062"/>
      <use xlink:href="#DejaVuSans-79" x="191.748047"/>
      <use xlink:href="#DejaVuSans-20" x="250.927734"/>
      <use xlink:href="#DejaVuSans-47" x="282.714844"/>
      <use xlink:href="#DejaVuSans-75" x="360.205078"/>
     </g>
    </g>
   </g>
  </g>
 </g>
 <defs>
  <clipPath id="pef2ed5f0a7">
   <rect x="50.87" y="26.88" width="782.271104" height="377.24"/>
  </clipPath>
 </defs>
</svg>
