<?xml version="1.0" encoding="utf-8" standalone="no"?>
<!DOCTYPE svg PUBLIC "-//W3C//DTD SVG 1.1//EN"
  "http://www.w3.org/Graphics/SVG/1.1/DTD/svg11.dtd">
<svg xmlns:xlink="http://www.w3.org/1999/xlink" width="864pt" height="432pt" viewBox="0 0 864 432" xmlns="http://www.w3.org/2000/svg" version="1.1">
 <metadata>
  <rdf:RDF xmlns:dc="http://purl.org/dc/elements/1.1/" xmlns:cc="http://creativecommons.org/ns#" xmlns:rdf="http://www.w3.org/1999/02/22-rdf-syntax-ns#">
   <cc:Work>
    <dc:type rdf:resource="http://purl.org/dc/dcmitype/StillImage"/>
    <dc:date>2024-07-23T10:32:33.954294</dc:date>
    <dc:format>image/svg+xml</dc:format>
    <dc:creator>
     <cc:Agent>
      <dc:title>Matplotlib v3.9.1, https://matplotlib.org/</dc:title>
     </cc:Agent>
    </dc:creator>
   </cc:Work>
  </rdf:RDF>
 </metadata>
 <defs>
  <style type="text/css">*{stroke-linejoin: round; stroke-linecap: butt}</style>
 </defs>
 <g id="figure_1">
  <g id="patch_1">
   <path d="M 0 432 
L 864 432 
L 864 0 
L 0 0 
z
" style="fill: #ffffff"/>
  </g>
  <g id="axes_1">
   <g id="patch_2">
    <path d="M 50.87 404.12 
L 853.2 404.12 
L 853.2 26.88 
L 50.87 26.88 
z
" style="fill: #ffffff"/>
   </g>
   <g id="matplotlib.axis_1">
    <g id="xtick_1">
     <g id="line2d_1">
      <path d="M 106.041876 404.12 
L 106.041876 26.88 
" clip-path="url(#p79e9aaaa62)" style="fill: none; stroke-dasharray: 2.96,1.28; stroke-dashoffset: 0; stroke: #b0b0b0; stroke-width: 0.8"/>
     </g>
     <g id="line2d_2">
      <defs>
       <path id="me88126836c" d="M 0 0 
L 0 3.5 
" style="stroke: #000000; stroke-width: 0.8"/>
      </defs>
      <g>
       <use xlink:href="#me88126836c" x="106.041876" y="404.12" style="stroke: #000000; stroke-width: 0.8"/>
      </g>
     </g>
     <g id="text_1">
      <!-- 2024-06-15 -->
      <g transform="translate(76.984064 418.718437) scale(0.1 -0.1)">
       <defs>
        <path id="DejaVuSans-32" d="M 1228 531 
L 3431 531 
L 3431 0 
L 469 0 
L 469 531 
Q 828 903 1448 1529 
Q 2069 2156 2228 2338 
Q 2531 2678 2651 2914 
Q 2772 3150 2772 3378 
Q 2772 3750 2511 3984 
Q 2250 4219 1831 4219 
Q 1534 4219 1204 4116 
Q 875 4013 500 3803 
L 500 4441 
Q 881 4594 1212 4672 
Q 1544 4750 1819 4750 
Q 2544 4750 2975 4387 
Q 3406 4025 3406 3419 
Q 3406 3131 3298 2873 
Q 3191 2616 2906 2266 
Q 2828 2175 2409 1742 
Q 1991 1309 1228 531 
z
" transform="scale(0.015625)"/>
        <path id="DejaVuSans-30" d="M 2034 4250 
Q 1547 4250 1301 3770 
Q 1056 3291 1056 2328 
Q 1056 1369 1301 889 
Q 1547 409 2034 409 
Q 2525 409 2770 889 
Q 3016 1369 3016 2328 
Q 3016 3291 2770 3770 
Q 2525 4250 2034 4250 
z
M 2034 4750 
Q 2819 4750 3233 4129 
Q 3647 3509 3647 2328 
Q 3647 1150 3233 529 
Q 2819 -91 2034 -91 
Q 1250 -91 836 529 
Q 422 1150 422 2328 
Q 422 3509 836 4129 
Q 1250 4750 2034 4750 
z
" transform="scale(0.015625)"/>
        <path id="DejaVuSans-34" d="M 2419 4116 
L 825 1625 
L 2419 1625 
L 2419 4116 
z
M 2253 4666 
L 3047 4666 
L 3047 1625 
L 3713 1625 
L 3713 1100 
L 3047 1100 
L 3047 0 
L 2419 0 
L 2419 1100 
L 313 1100 
L 313 1709 
L 2253 4666 
z
" transform="scale(0.015625)"/>
        <path id="DejaVuSans-2d" d="M 313 2009 
L 1997 2009 
L 1997 1497 
L 313 1497 
L 313 2009 
z
" transform="scale(0.015625)"/>
        <path id="DejaVuSans-36" d="M 2113 2584 
Q 1688 2584 1439 2293 
Q 1191 2003 1191 1497 
Q 1191 994 1439 701 
Q 1688 409 2113 409 
Q 2538 409 2786 701 
Q 3034 994 3034 1497 
Q 3034 2003 2786 2293 
Q 2538 2584 2113 2584 
z
M 3366 4563 
L 3366 3988 
Q 3128 4100 2886 4159 
Q 2644 4219 2406 4219 
Q 1781 4219 1451 3797 
Q 1122 3375 1075 2522 
Q 1259 2794 1537 2939 
Q 1816 3084 2150 3084 
Q 2853 3084 3261 2657 
Q 3669 2231 3669 1497 
Q 3669 778 3244 343 
Q 2819 -91 2113 -91 
Q 1303 -91 875 529 
Q 447 1150 447 2328 
Q 447 3434 972 4092 
Q 1497 4750 2381 4750 
Q 2619 4750 2861 4703 
Q 3103 4656 3366 4563 
z
" transform="scale(0.015625)"/>
        <path id="DejaVuSans-31" d="M 794 531 
L 1825 531 
L 1825 4091 
L 703 3866 
L 703 4441 
L 1819 4666 
L 2450 4666 
L 2450 531 
L 3481 531 
L 3481 0 
L 794 0 
L 794 531 
z
" transform="scale(0.015625)"/>
        <path id="DejaVuSans-35" d="M 691 4666 
L 3169 4666 
L 3169 4134 
L 1269 4134 
L 1269 2991 
Q 1406 3038 1543 3061 
Q 1681 3084 1819 3084 
Q 2600 3084 3056 2656 
Q 3513 2228 3513 1497 
Q 3513 744 3044 326 
Q 2575 -91 1722 -91 
Q 1428 -91 1123 -41 
Q 819 9 494 109 
L 494 744 
Q 775 591 1075 516 
Q 1375 441 1709 441 
Q 2250 441 2565 725 
Q 2881 1009 2881 1497 
Q 2881 1984 2565 2268 
Q 2250 2553 1709 2553 
Q 1456 2553 1204 2497 
Q 953 2441 691 2322 
L 691 4666 
z
" transform="scale(0.015625)"/>
       </defs>
       <use xlink:href="#DejaVuSans-32"/>
       <use xlink:href="#DejaVuSans-30" x="63.623047"/>
       <use xlink:href="#DejaVuSans-32" x="127.246094"/>
       <use xlink:href="#DejaVuSans-34" x="190.869141"/>
       <use xlink:href="#DejaVuSans-2d" x="254.492188"/>
       <use xlink:href="#DejaVuSans-30" x="290.576172"/>
       <use xlink:href="#DejaVuSans-36" x="354.199219"/>
       <use xlink:href="#DejaVuSans-2d" x="417.822266"/>
       <use xlink:href="#DejaVuSans-31" x="453.90625"/>
       <use xlink:href="#DejaVuSans-35" x="517.529297"/>
      </g>
     </g>
    </g>
    <g id="xtick_2">
     <g id="line2d_3">
      <path d="M 236.958193 404.12 
L 236.958193 26.88 
" clip-path="url(#p79e9aaaa62)" style="fill: none; stroke-dasharray: 2.96,1.28; stroke-dashoffset: 0; stroke: #b0b0b0; stroke-width: 0.8"/>
     </g>
     <g id="line2d_4">
      <g>
       <use xlink:href="#me88126836c" x="236.958193" y="404.12" style="stroke: #000000; stroke-width: 0.8"/>
      </g>
     </g>
     <g id="text_2">
      <!-- 2024-06-22 -->
      <g transform="translate(207.900381 418.718437) scale(0.1 -0.1)">
       <use xlink:href="#DejaVuSans-32"/>
       <use xlink:href="#DejaVuSans-30" x="63.623047"/>
       <use xlink:href="#DejaVuSans-32" x="127.246094"/>
       <use xlink:href="#DejaVuSans-34" x="190.869141"/>
       <use xlink:href="#DejaVuSans-2d" x="254.492188"/>
       <use xlink:href="#DejaVuSans-30" x="290.576172"/>
       <use xlink:href="#DejaVuSans-36" x="354.199219"/>
       <use xlink:href="#DejaVuSans-2d" x="417.822266"/>
       <use xlink:href="#DejaVuSans-32" x="453.90625"/>
       <use xlink:href="#DejaVuSans-32" x="517.529297"/>
      </g>
     </g>
    </g>
    <g id="xtick_3">
     <g id="line2d_5">
      <path d="M 405.279172 404.12 
L 405.279172 26.88 
" clip-path="url(#p79e9aaaa62)" style="fill: none; stroke-dasharray: 2.96,1.28; stroke-dashoffset: 0; stroke: #b0b0b0; stroke-width: 0.8"/>
     </g>
     <g id="line2d_6">
      <g>
       <use xlink:href="#me88126836c" x="405.279172" y="404.12" style="stroke: #000000; stroke-width: 0.8"/>
      </g>
     </g>
     <g id="text_3">
      <!-- 2024-07-01 -->
      <g transform="translate(376.22136 418.718437) scale(0.1 -0.1)">
       <defs>
        <path id="DejaVuSans-37" d="M 525 4666 
L 3525 4666 
L 3525 4397 
L 1831 0 
L 1172 0 
L 2766 4134 
L 525 4134 
L 525 4666 
z
" transform="scale(0.015625)"/>
       </defs>
       <use xlink:href="#DejaVuSans-32"/>
       <use xlink:href="#DejaVuSans-30" x="63.623047"/>
       <use xlink:href="#DejaVuSans-32" x="127.246094"/>
       <use xlink:href="#DejaVuSans-34" x="190.869141"/>
       <use xlink:href="#DejaVuSans-2d" x="254.492188"/>
       <use xlink:href="#DejaVuSans-30" x="290.576172"/>
       <use xlink:href="#DejaVuSans-37" x="354.199219"/>
       <use xlink:href="#DejaVuSans-2d" x="417.822266"/>
       <use xlink:href="#DejaVuSans-30" x="453.90625"/>
       <use xlink:href="#DejaVuSans-31" x="517.529297"/>
      </g>
     </g>
    </g>
    <g id="xtick_4">
     <g id="line2d_7">
      <path d="M 536.19549 404.12 
L 536.19549 26.88 
" clip-path="url(#p79e9aaaa62)" style="fill: none; stroke-dasharray: 2.96,1.28; stroke-dashoffset: 0; stroke: #b0b0b0; stroke-width: 0.8"/>
     </g>
     <g id="line2d_8">
      <g>
       <use xlink:href="#me88126836c" x="536.19549" y="404.12" style="stroke: #000000; stroke-width: 0.8"/>
      </g>
     </g>
     <g id="text_4">
      <!-- 2024-07-08 -->
      <g transform="translate(507.137677 418.718437) scale(0.1 -0.1)">
       <defs>
        <path id="DejaVuSans-38" d="M 2034 2216 
Q 1584 2216 1326 1975 
Q 1069 1734 1069 1313 
Q 1069 891 1326 650 
Q 1584 409 2034 409 
Q 2484 409 2743 651 
Q 3003 894 3003 1313 
Q 3003 1734 2745 1975 
Q 2488 2216 2034 2216 
z
M 1403 2484 
Q 997 2584 770 2862 
Q 544 3141 544 3541 
Q 544 4100 942 4425 
Q 1341 4750 2034 4750 
Q 2731 4750 3128 4425 
Q 3525 4100 3525 3541 
Q 3525 3141 3298 2862 
Q 3072 2584 2669 2484 
Q 3125 2378 3379 2068 
Q 3634 1759 3634 1313 
Q 3634 634 3220 271 
Q 2806 -91 2034 -91 
Q 1263 -91 848 271 
Q 434 634 434 1313 
Q 434 1759 690 2068 
Q 947 2378 1403 2484 
z
M 1172 3481 
Q 1172 3119 1398 2916 
Q 1625 2713 2034 2713 
Q 2441 2713 2670 2916 
Q 2900 3119 2900 3481 
Q 2900 3844 2670 4047 
Q 2441 4250 2034 4250 
Q 1625 4250 1398 4047 
Q 1172 3844 1172 3481 
z
" transform="scale(0.015625)"/>
       </defs>
       <use xlink:href="#DejaVuSans-32"/>
       <use xlink:href="#DejaVuSans-30" x="63.623047"/>
       <use xlink:href="#DejaVuSans-32" x="127.246094"/>
       <use xlink:href="#DejaVuSans-34" x="190.869141"/>
       <use xlink:href="#DejaVuSans-2d" x="254.492188"/>
       <use xlink:href="#DejaVuSans-30" x="290.576172"/>
       <use xlink:href="#DejaVuSans-37" x="354.199219"/>
       <use xlink:href="#DejaVuSans-2d" x="417.822266"/>
       <use xlink:href="#DejaVuSans-30" x="453.90625"/>
       <use xlink:href="#DejaVuSans-38" x="517.529297"/>
      </g>
     </g>
    </g>
    <g id="xtick_5">
     <g id="line2d_9">
      <path d="M 667.111807 404.12 
L 667.111807 26.88 
" clip-path="url(#p79e9aaaa62)" style="fill: none; stroke-dasharray: 2.96,1.28; stroke-dashoffset: 0; stroke: #b0b0b0; stroke-width: 0.8"/>
     </g>
     <g id="line2d_10">
      <g>
       <use xlink:href="#me88126836c" x="667.111807" y="404.12" style="stroke: #000000; stroke-width: 0.8"/>
      </g>
     </g>
     <g id="text_5">
      <!-- 2024-07-15 -->
      <g transform="translate(638.053994 418.718437) scale(0.1 -0.1)">
       <use xlink:href="#DejaVuSans-32"/>
       <use xlink:href="#DejaVuSans-30" x="63.623047"/>
       <use xlink:href="#DejaVuSans-32" x="127.246094"/>
       <use xlink:href="#DejaVuSans-34" x="190.869141"/>
       <use xlink:href="#DejaVuSans-2d" x="254.492188"/>
       <use xlink:href="#DejaVuSans-30" x="290.576172"/>
       <use xlink:href="#DejaVuSans-37" x="354.199219"/>
       <use xlink:href="#DejaVuSans-2d" x="417.822266"/>
       <use xlink:href="#DejaVuSans-31" x="453.90625"/>
       <use xlink:href="#DejaVuSans-35" x="517.529297"/>
      </g>
     </g>
    </g>
    <g id="xtick_6">
     <g id="line2d_11">
      <path d="M 798.028124 404.12 
L 798.028124 26.88 
" clip-path="url(#p79e9aaaa62)" style="fill: none; stroke-dasharray: 2.96,1.28; stroke-dashoffset: 0; stroke: #b0b0b0; stroke-width: 0.8"/>
     </g>
     <g id="line2d_12">
      <g>
       <use xlink:href="#me88126836c" x="798.028124" y="404.12" style="stroke: #000000; stroke-width: 0.8"/>
      </g>
     </g>
     <g id="text_6">
      <!-- 2024-07-22 -->
      <g transform="translate(768.970311 418.718437) scale(0.1 -0.1)">
       <use xlink:href="#DejaVuSans-32"/>
       <use xlink:href="#DejaVuSans-30" x="63.623047"/>
       <use xlink:href="#DejaVuSans-32" x="127.246094"/>
       <use xlink:href="#DejaVuSans-34" x="190.869141"/>
       <use xlink:href="#DejaVuSans-2d" x="254.492188"/>
       <use xlink:href="#DejaVuSans-30" x="290.576172"/>
       <use xlink:href="#DejaVuSans-37" x="354.199219"/>
       <use xlink:href="#DejaVuSans-2d" x="417.822266"/>
       <use xlink:href="#DejaVuSans-32" x="453.90625"/>
       <use xlink:href="#DejaVuSans-32" x="517.529297"/>
      </g>
     </g>
    </g>
   </g>
   <g id="matplotlib.axis_2">
    <g id="ytick_1">
     <g id="line2d_13">
      <path d="M 50.87 389.339899 
L 853.2 389.339899 
" clip-path="url(#p79e9aaaa62)" style="fill: none; stroke-dasharray: 2.96,1.28; stroke-dashoffset: 0; stroke: #b0b0b0; stroke-width: 0.8"/>
     </g>
     <g id="line2d_14">
      <defs>
       <path id="mf9df9548f4" d="M 0 0 
L -3.5 0 
" style="stroke: #000000; stroke-width: 0.8"/>
      </defs>
      <g>
       <use xlink:href="#mf9df9548f4" x="50.87" y="389.339899" style="stroke: #000000; stroke-width: 0.8"/>
      </g>
     </g>
     <g id="text_7">
      <!-- 0 -->
      <g transform="translate(37.5075 393.139117) scale(0.1 -0.1)">
       <use xlink:href="#DejaVuSans-30"/>
      </g>
     </g>
    </g>
    <g id="ytick_2">
     <g id="line2d_15">
      <path d="M 50.87 327.68829 
L 853.2 327.68829 
" clip-path="url(#p79e9aaaa62)" style="fill: none; stroke-dasharray: 2.96,1.28; stroke-dashoffset: 0; stroke: #b0b0b0; stroke-width: 0.8"/>
     </g>
     <g id="line2d_16">
      <g>
       <use xlink:href="#mf9df9548f4" x="50.87" y="327.68829" style="stroke: #000000; stroke-width: 0.8"/>
      </g>
     </g>
     <g id="text_8">
      <!-- 50 -->
      <g transform="translate(31.145 331.487509) scale(0.1 -0.1)">
       <use xlink:href="#DejaVuSans-35"/>
       <use xlink:href="#DejaVuSans-30" x="63.623047"/>
      </g>
     </g>
    </g>
    <g id="ytick_3">
     <g id="line2d_17">
      <path d="M 50.87 266.036682 
L 853.2 266.036682 
" clip-path="url(#p79e9aaaa62)" style="fill: none; stroke-dasharray: 2.96,1.28; stroke-dashoffset: 0; stroke: #b0b0b0; stroke-width: 0.8"/>
     </g>
     <g id="line2d_18">
      <g>
       <use xlink:href="#mf9df9548f4" x="50.87" y="266.036682" style="stroke: #000000; stroke-width: 0.8"/>
      </g>
     </g>
     <g id="text_9">
      <!-- 100 -->
      <g transform="translate(24.7825 269.835901) scale(0.1 -0.1)">
       <use xlink:href="#DejaVuSans-31"/>
       <use xlink:href="#DejaVuSans-30" x="63.623047"/>
       <use xlink:href="#DejaVuSans-30" x="127.246094"/>
      </g>
     </g>
    </g>
    <g id="ytick_4">
     <g id="line2d_19">
      <path d="M 50.87 204.385073 
L 853.2 204.385073 
" clip-path="url(#p79e9aaaa62)" style="fill: none; stroke-dasharray: 2.96,1.28; stroke-dashoffset: 0; stroke: #b0b0b0; stroke-width: 0.8"/>
     </g>
     <g id="line2d_20">
      <g>
       <use xlink:href="#mf9df9548f4" x="50.87" y="204.385073" style="stroke: #000000; stroke-width: 0.8"/>
      </g>
     </g>
     <g id="text_10">
      <!-- 150 -->
      <g transform="translate(24.7825 208.184292) scale(0.1 -0.1)">
       <use xlink:href="#DejaVuSans-31"/>
       <use xlink:href="#DejaVuSans-35" x="63.623047"/>
       <use xlink:href="#DejaVuSans-30" x="127.246094"/>
      </g>
     </g>
    </g>
    <g id="ytick_5">
     <g id="line2d_21">
      <path d="M 50.87 142.733465 
L 853.2 142.733465 
" clip-path="url(#p79e9aaaa62)" style="fill: none; stroke-dasharray: 2.96,1.28; stroke-dashoffset: 0; stroke: #b0b0b0; stroke-width: 0.8"/>
     </g>
     <g id="line2d_22">
      <g>
       <use xlink:href="#mf9df9548f4" x="50.87" y="142.733465" style="stroke: #000000; stroke-width: 0.8"/>
      </g>
     </g>
     <g id="text_11">
      <!-- 200 -->
      <g transform="translate(24.7825 146.532684) scale(0.1 -0.1)">
       <use xlink:href="#DejaVuSans-32"/>
       <use xlink:href="#DejaVuSans-30" x="63.623047"/>
       <use xlink:href="#DejaVuSans-30" x="127.246094"/>
      </g>
     </g>
    </g>
    <g id="ytick_6">
     <g id="line2d_23">
      <path d="M 50.87 81.081857 
L 853.2 81.081857 
" clip-path="url(#p79e9aaaa62)" style="fill: none; stroke-dasharray: 2.96,1.28; stroke-dashoffset: 0; stroke: #b0b0b0; stroke-width: 0.8"/>
     </g>
     <g id="line2d_24">
      <g>
       <use xlink:href="#mf9df9548f4" x="50.87" y="81.081857" style="stroke: #000000; stroke-width: 0.8"/>
      </g>
     </g>
     <g id="text_12">
      <!-- 250 -->
      <g transform="translate(24.7825 84.881075) scale(0.1 -0.1)">
       <use xlink:href="#DejaVuSans-32"/>
       <use xlink:href="#DejaVuSans-35" x="63.623047"/>
       <use xlink:href="#DejaVuSans-30" x="127.246094"/>
      </g>
     </g>
    </g>
    <g id="text_13">
     <!-- Score -->
     <g transform="translate(18.702813 229.502344) rotate(-90) scale(0.1 -0.1)">
      <defs>
       <path id="DejaVuSans-53" d="M 3425 4513 
L 3425 3897 
Q 3066 4069 2747 4153 
Q 2428 4238 2131 4238 
Q 1616 4238 1336 4038 
Q 1056 3838 1056 3469 
Q 1056 3159 1242 3001 
Q 1428 2844 1947 2747 
L 2328 2669 
Q 3034 2534 3370 2195 
Q 3706 1856 3706 1288 
Q 3706 609 3251 259 
Q 2797 -91 1919 -91 
Q 1588 -91 1214 -16 
Q 841 59 441 206 
L 441 856 
Q 825 641 1194 531 
Q 1563 422 1919 422 
Q 2459 422 2753 634 
Q 3047 847 3047 1241 
Q 3047 1584 2836 1778 
Q 2625 1972 2144 2069 
L 1759 2144 
Q 1053 2284 737 2584 
Q 422 2884 422 3419 
Q 422 4038 858 4394 
Q 1294 4750 2059 4750 
Q 2388 4750 2728 4690 
Q 3069 4631 3425 4513 
z
" transform="scale(0.015625)"/>
       <path id="DejaVuSans-63" d="M 3122 3366 
L 3122 2828 
Q 2878 2963 2633 3030 
Q 2388 3097 2138 3097 
Q 1578 3097 1268 2742 
Q 959 2388 959 1747 
Q 959 1106 1268 751 
Q 1578 397 2138 397 
Q 2388 397 2633 464 
Q 2878 531 3122 666 
L 3122 134 
Q 2881 22 2623 -34 
Q 2366 -91 2075 -91 
Q 1284 -91 818 406 
Q 353 903 353 1747 
Q 353 2603 823 3093 
Q 1294 3584 2113 3584 
Q 2378 3584 2631 3529 
Q 2884 3475 3122 3366 
z
" transform="scale(0.015625)"/>
       <path id="DejaVuSans-6f" d="M 1959 3097 
Q 1497 3097 1228 2736 
Q 959 2375 959 1747 
Q 959 1119 1226 758 
Q 1494 397 1959 397 
Q 2419 397 2687 759 
Q 2956 1122 2956 1747 
Q 2956 2369 2687 2733 
Q 2419 3097 1959 3097 
z
M 1959 3584 
Q 2709 3584 3137 3096 
Q 3566 2609 3566 1747 
Q 3566 888 3137 398 
Q 2709 -91 1959 -91 
Q 1206 -91 779 398 
Q 353 888 353 1747 
Q 353 2609 779 3096 
Q 1206 3584 1959 3584 
z
" transform="scale(0.015625)"/>
       <path id="DejaVuSans-72" d="M 2631 2963 
Q 2534 3019 2420 3045 
Q 2306 3072 2169 3072 
Q 1681 3072 1420 2755 
Q 1159 2438 1159 1844 
L 1159 0 
L 581 0 
L 581 3500 
L 1159 3500 
L 1159 2956 
Q 1341 3275 1631 3429 
Q 1922 3584 2338 3584 
Q 2397 3584 2469 3576 
Q 2541 3569 2628 3553 
L 2631 2963 
z
" transform="scale(0.015625)"/>
       <path id="DejaVuSans-65" d="M 3597 1894 
L 3597 1613 
L 953 1613 
Q 991 1019 1311 708 
Q 1631 397 2203 397 
Q 2534 397 2845 478 
Q 3156 559 3463 722 
L 3463 178 
Q 3153 47 2828 -22 
Q 2503 -91 2169 -91 
Q 1331 -91 842 396 
Q 353 884 353 1716 
Q 353 2575 817 3079 
Q 1281 3584 2069 3584 
Q 2775 3584 3186 3129 
Q 3597 2675 3597 1894 
z
M 3022 2063 
Q 3016 2534 2758 2815 
Q 2500 3097 2075 3097 
Q 1594 3097 1305 2825 
Q 1016 2553 972 2059 
L 3022 2063 
z
" transform="scale(0.015625)"/>
      </defs>
      <use xlink:href="#DejaVuSans-53"/>
      <use xlink:href="#DejaVuSans-63" x="63.476562"/>
      <use xlink:href="#DejaVuSans-6f" x="118.457031"/>
      <use xlink:href="#DejaVuSans-72" x="179.638672"/>
      <use xlink:href="#DejaVuSans-65" x="218.501953"/>
     </g>
    </g>
   </g>
   <g id="line2d_25">
    <path d="M 87.339545 383.207964 
L 106.041876 352.382159 
L 124.744207 327.721516 
L 143.446538 315.391194 
L 162.148869 296.895712 
L 180.8512 275.934165 
L 199.553531 268.535972 
L 218.255862 259.904747 
L 236.958193 241.409264 
L 255.660524 220.447717 
L 274.362855 187.155849 
L 293.065186 169.893399 
L 311.767517 142.766691 
L 367.87451 142.766691 
L 386.576841 142.766691 
L 405.279172 142.766691 
L 423.981503 142.766691 
L 442.683834 142.766691 
L 480.088497 142.766691 
L 498.790828 142.766691 
L 517.493159 142.766691 
L 536.19549 142.766691 
L 554.897821 142.766691 
L 573.600152 124.271208 
L 592.302483 124.271208 
L 611.004814 124.271208 
L 629.707145 124.271208 
L 648.409476 124.271208 
L 667.111807 81.115082 
L 685.814138 81.115082 
L 704.516469 81.115082 
L 723.2188 81.115082 
L 741.921131 81.115082 
L 760.623462 81.115082 
L 779.325793 81.115082 
L 798.028124 81.115082 
L 816.730455 81.115082 
" clip-path="url(#p79e9aaaa62)" style="fill: none; stroke: #1f77b4; stroke-width: 1.5; stroke-linecap: square"/>
    <defs>
     <path id="m32e3371677" d="M 0 3.5 
C 0.928211 3.5 1.81853 3.131218 2.474874 2.474874 
C 3.131218 1.81853 3.5 0.928211 3.5 0 
C 3.5 -0.928211 3.131218 -1.81853 2.474874 -2.474874 
C 1.81853 -3.131218 0.928211 -3.5 0 -3.5 
C -0.928211 -3.5 -1.81853 -3.131218 -2.474874 -2.474874 
C -3.131218 -1.81853 -3.5 -0.928211 -3.5 0 
C -3.5 0.928211 -3.131218 1.81853 -2.474874 2.474874 
C -1.81853 3.131218 -0.928211 3.5 0 3.5 
z
" style="stroke: #1f77b4"/>
    </defs>
    <g clip-path="url(#p79e9aaaa62)">
     <use xlink:href="#m32e3371677" x="87.339545" y="383.207964" style="fill: #1f77b4; stroke: #1f77b4"/>
     <use xlink:href="#m32e3371677" x="106.041876" y="352.382159" style="fill: #1f77b4; stroke: #1f77b4"/>
     <use xlink:href="#m32e3371677" x="124.744207" y="327.721516" style="fill: #1f77b4; stroke: #1f77b4"/>
     <use xlink:href="#m32e3371677" x="143.446538" y="315.391194" style="fill: #1f77b4; stroke: #1f77b4"/>
     <use xlink:href="#m32e3371677" x="162.148869" y="296.895712" style="fill: #1f77b4; stroke: #1f77b4"/>
     <use xlink:href="#m32e3371677" x="180.8512" y="275.934165" style="fill: #1f77b4; stroke: #1f77b4"/>
     <use xlink:href="#m32e3371677" x="199.553531" y="268.535972" style="fill: #1f77b4; stroke: #1f77b4"/>
     <use xlink:href="#m32e3371677" x="218.255862" y="259.904747" style="fill: #1f77b4; stroke: #1f77b4"/>
     <use xlink:href="#m32e3371677" x="236.958193" y="241.409264" style="fill: #1f77b4; stroke: #1f77b4"/>
     <use xlink:href="#m32e3371677" x="255.660524" y="220.447717" style="fill: #1f77b4; stroke: #1f77b4"/>
     <use xlink:href="#m32e3371677" x="274.362855" y="187.155849" style="fill: #1f77b4; stroke: #1f77b4"/>
     <use xlink:href="#m32e3371677" x="293.065186" y="169.893399" style="fill: #1f77b4; stroke: #1f77b4"/>
     <use xlink:href="#m32e3371677" x="311.767517" y="142.766691" style="fill: #1f77b4; stroke: #1f77b4"/>
     <use xlink:href="#m32e3371677" x="367.87451" y="142.766691" style="fill: #1f77b4; stroke: #1f77b4"/>
     <use xlink:href="#m32e3371677" x="386.576841" y="142.766691" style="fill: #1f77b4; stroke: #1f77b4"/>
     <use xlink:href="#m32e3371677" x="405.279172" y="142.766691" style="fill: #1f77b4; stroke: #1f77b4"/>
     <use xlink:href="#m32e3371677" x="423.981503" y="142.766691" style="fill: #1f77b4; stroke: #1f77b4"/>
     <use xlink:href="#m32e3371677" x="442.683834" y="142.766691" style="fill: #1f77b4; stroke: #1f77b4"/>
     <use xlink:href="#m32e3371677" x="480.088497" y="142.766691" style="fill: #1f77b4; stroke: #1f77b4"/>
     <use xlink:href="#m32e3371677" x="498.790828" y="142.766691" style="fill: #1f77b4; stroke: #1f77b4"/>
     <use xlink:href="#m32e3371677" x="517.493159" y="142.766691" style="fill: #1f77b4; stroke: #1f77b4"/>
     <use xlink:href="#m32e3371677" x="536.19549" y="142.766691" style="fill: #1f77b4; stroke: #1f77b4"/>
     <use xlink:href="#m32e3371677" x="554.897821" y="142.766691" style="fill: #1f77b4; stroke: #1f77b4"/>
     <use xlink:href="#m32e3371677" x="573.600152" y="124.271208" style="fill: #1f77b4; stroke: #1f77b4"/>
     <use xlink:href="#m32e3371677" x="592.302483" y="124.271208" style="fill: #1f77b4; stroke: #1f77b4"/>
     <use xlink:href="#m32e3371677" x="611.004814" y="124.271208" style="fill: #1f77b4; stroke: #1f77b4"/>
     <use xlink:href="#m32e3371677" x="629.707145" y="124.271208" style="fill: #1f77b4; stroke: #1f77b4"/>
     <use xlink:href="#m32e3371677" x="648.409476" y="124.271208" style="fill: #1f77b4; stroke: #1f77b4"/>
     <use xlink:href="#m32e3371677" x="667.111807" y="81.115082" style="fill: #1f77b4; stroke: #1f77b4"/>
     <use xlink:href="#m32e3371677" x="685.814138" y="81.115082" style="fill: #1f77b4; stroke: #1f77b4"/>
     <use xlink:href="#m32e3371677" x="704.516469" y="81.115082" style="fill: #1f77b4; stroke: #1f77b4"/>
     <use xlink:href="#m32e3371677" x="723.2188" y="81.115082" style="fill: #1f77b4; stroke: #1f77b4"/>
     <use xlink:href="#m32e3371677" x="741.921131" y="81.115082" style="fill: #1f77b4; stroke: #1f77b4"/>
     <use xlink:href="#m32e3371677" x="760.623462" y="81.115082" style="fill: #1f77b4; stroke: #1f77b4"/>
     <use xlink:href="#m32e3371677" x="779.325793" y="81.115082" style="fill: #1f77b4; stroke: #1f77b4"/>
     <use xlink:href="#m32e3371677" x="798.028124" y="81.115082" style="fill: #1f77b4; stroke: #1f77b4"/>
     <use xlink:href="#m32e3371677" x="816.730455" y="81.115082" style="fill: #1f77b4; stroke: #1f77b4"/>
    </g>
   </g>
   <g id="line2d_26">
    <path d="M 87.339545 383.223042 
L 106.041876 358.562399 
L 124.744207 343.766013 
L 143.446538 325.27053 
L 162.148869 300.609887 
L 180.8512 285.813501 
L 199.553531 261.152858 
L 218.255862 246.356472 
L 236.958193 215.530667 
L 255.660524 200.734281 
L 274.362855 176.073638 
L 293.065186 161.277252 
L 311.767517 111.955965 
L 367.87451 111.955965 
L 386.576841 111.955965 
L 405.279172 111.955965 
L 423.981503 111.955965 
L 442.683834 111.955965 
L 480.088497 111.955965 
L 498.790828 111.955965 
L 517.493159 111.955965 
L 536.19549 111.955965 
L 554.897821 111.955965 
L 573.600152 111.955965 
L 592.302483 111.955965 
L 611.004814 111.955965 
L 629.707145 111.955965 
L 648.409476 111.955965 
L 667.111807 93.460483 
L 685.814138 93.460483 
L 704.516469 93.460483 
L 723.2188 93.460483 
L 741.921131 93.460483 
L 760.623462 93.460483 
L 779.325793 93.460483 
L 798.028124 93.460483 
L 816.730455 93.460483 
" clip-path="url(#p79e9aaaa62)" style="fill: none; stroke: #ff7f0e; stroke-width: 1.5; stroke-linecap: square"/>
    <defs>
     <path id="m52a087fe2e" d="M 0 3.5 
C 0.928211 3.5 1.81853 3.131218 2.474874 2.474874 
C 3.131218 1.81853 3.5 0.928211 3.5 0 
C 3.5 -0.928211 3.131218 -1.81853 2.474874 -2.474874 
C 1.81853 -3.131218 0.928211 -3.5 0 -3.5 
C -0.928211 -3.5 -1.81853 -3.131218 -2.474874 -2.474874 
C -3.131218 -1.81853 -3.5 -0.928211 -3.5 0 
C -3.5 0.928211 -3.131218 1.81853 -2.474874 2.474874 
C -1.81853 3.131218 -0.928211 3.5 0 3.5 
z
" style="stroke: #ff7f0e"/>
    </defs>
    <g clip-path="url(#p79e9aaaa62)">
     <use xlink:href="#m52a087fe2e" x="87.339545" y="383.223042" style="fill: #ff7f0e; stroke: #ff7f0e"/>
     <use xlink:href="#m52a087fe2e" x="106.041876" y="358.562399" style="fill: #ff7f0e; stroke: #ff7f0e"/>
     <use xlink:href="#m52a087fe2e" x="124.744207" y="343.766013" style="fill: #ff7f0e; stroke: #ff7f0e"/>
     <use xlink:href="#m52a087fe2e" x="143.446538" y="325.27053" style="fill: #ff7f0e; stroke: #ff7f0e"/>
     <use xlink:href="#m52a087fe2e" x="162.148869" y="300.609887" style="fill: #ff7f0e; stroke: #ff7f0e"/>
     <use xlink:href="#m52a087fe2e" x="180.8512" y="285.813501" style="fill: #ff7f0e; stroke: #ff7f0e"/>
     <use xlink:href="#m52a087fe2e" x="199.553531" y="261.152858" style="fill: #ff7f0e; stroke: #ff7f0e"/>
     <use xlink:href="#m52a087fe2e" x="218.255862" y="246.356472" style="fill: #ff7f0e; stroke: #ff7f0e"/>
     <use xlink:href="#m52a087fe2e" x="236.958193" y="215.530667" style="fill: #ff7f0e; stroke: #ff7f0e"/>
     <use xlink:href="#m52a087fe2e" x="255.660524" y="200.734281" style="fill: #ff7f0e; stroke: #ff7f0e"/>
     <use xlink:href="#m52a087fe2e" x="274.362855" y="176.073638" style="fill: #ff7f0e; stroke: #ff7f0e"/>
     <use xlink:href="#m52a087fe2e" x="293.065186" y="161.277252" style="fill: #ff7f0e; stroke: #ff7f0e"/>
     <use xlink:href="#m52a087fe2e" x="311.767517" y="111.955965" style="fill: #ff7f0e; stroke: #ff7f0e"/>
     <use xlink:href="#m52a087fe2e" x="367.87451" y="111.955965" style="fill: #ff7f0e; stroke: #ff7f0e"/>
     <use xlink:href="#m52a087fe2e" x="386.576841" y="111.955965" style="fill: #ff7f0e; stroke: #ff7f0e"/>
     <use xlink:href="#m52a087fe2e" x="405.279172" y="111.955965" style="fill: #ff7f0e; stroke: #ff7f0e"/>
     <use xlink:href="#m52a087fe2e" x="423.981503" y="111.955965" style="fill: #ff7f0e; stroke: #ff7f0e"/>
     <use xlink:href="#m52a087fe2e" x="442.683834" y="111.955965" style="fill: #ff7f0e; stroke: #ff7f0e"/>
     <use xlink:href="#m52a087fe2e" x="480.088497" y="111.955965" style="fill: #ff7f0e; stroke: #ff7f0e"/>
     <use xlink:href="#m52a087fe2e" x="498.790828" y="111.955965" style="fill: #ff7f0e; stroke: #ff7f0e"/>
     <use xlink:href="#m52a087fe2e" x="517.493159" y="111.955965" style="fill: #ff7f0e; stroke: #ff7f0e"/>
     <use xlink:href="#m52a087fe2e" x="536.19549" y="111.955965" style="fill: #ff7f0e; stroke: #ff7f0e"/>
     <use xlink:href="#m52a087fe2e" x="554.897821" y="111.955965" style="fill: #ff7f0e; stroke: #ff7f0e"/>
     <use xlink:href="#m52a087fe2e" x="573.600152" y="111.955965" style="fill: #ff7f0e; stroke: #ff7f0e"/>
     <use xlink:href="#m52a087fe2e" x="592.302483" y="111.955965" style="fill: #ff7f0e; stroke: #ff7f0e"/>
     <use xlink:href="#m52a087fe2e" x="611.004814" y="111.955965" style="fill: #ff7f0e; stroke: #ff7f0e"/>
     <use xlink:href="#m52a087fe2e" x="629.707145" y="111.955965" style="fill: #ff7f0e; stroke: #ff7f0e"/>
     <use xlink:href="#m52a087fe2e" x="648.409476" y="111.955965" style="fill: #ff7f0e; stroke: #ff7f0e"/>
     <use xlink:href="#m52a087fe2e" x="667.111807" y="93.460483" style="fill: #ff7f0e; stroke: #ff7f0e"/>
     <use xlink:href="#m52a087fe2e" x="685.814138" y="93.460483" style="fill: #ff7f0e; stroke: #ff7f0e"/>
     <use xlink:href="#m52a087fe2e" x="704.516469" y="93.460483" style="fill: #ff7f0e; stroke: #ff7f0e"/>
     <use xlink:href="#m52a087fe2e" x="723.2188" y="93.460483" style="fill: #ff7f0e; stroke: #ff7f0e"/>
     <use xlink:href="#m52a087fe2e" x="741.921131" y="93.460483" style="fill: #ff7f0e; stroke: #ff7f0e"/>
     <use xlink:href="#m52a087fe2e" x="760.623462" y="93.460483" style="fill: #ff7f0e; stroke: #ff7f0e"/>
     <use xlink:href="#m52a087fe2e" x="779.325793" y="93.460483" style="fill: #ff7f0e; stroke: #ff7f0e"/>
     <use xlink:href="#m52a087fe2e" x="798.028124" y="93.460483" style="fill: #ff7f0e; stroke: #ff7f0e"/>
     <use xlink:href="#m52a087fe2e" x="816.730455" y="93.460483" style="fill: #ff7f0e; stroke: #ff7f0e"/>
    </g>
   </g>
   <g id="line2d_27">
    <path d="M 87.339545 383.138977 
L 106.041876 352.313173 
L 124.744207 343.681947 
L 143.446538 337.516787 
L 162.148869 325.186465 
L 180.8512 301.758854 
L 199.553531 294.360661 
L 218.255862 279.564275 
L 236.958193 252.437567 
L 255.660524 231.47602 
L 274.362855 175.989573 
L 293.065186 161.193187 
L 311.767517 119.270093 
L 367.87451 119.270093 
L 386.576841 119.270093 
L 405.279172 119.270093 
L 423.981503 119.270093 
L 442.683834 119.270093 
L 480.088497 119.270093 
L 498.790828 119.270093 
L 517.493159 119.270093 
L 536.19549 119.270093 
L 554.897821 119.270093 
L 573.600152 100.77461 
L 592.302483 100.77461 
L 611.004814 100.77461 
L 629.707145 100.77461 
L 648.409476 100.77461 
L 667.111807 82.279128 
L 685.814138 82.279128 
L 704.516469 82.279128 
L 723.2188 82.279128 
L 741.921131 82.279128 
L 760.623462 82.279128 
L 779.325793 82.279128 
L 798.028124 82.279128 
L 816.730455 82.279128 
" clip-path="url(#p79e9aaaa62)" style="fill: none; stroke: #2ca02c; stroke-width: 1.5; stroke-linecap: square"/>
    <defs>
     <path id="mc95919ac44" d="M 0 3.5 
C 0.928211 3.5 1.81853 3.131218 2.474874 2.474874 
C 3.131218 1.81853 3.5 0.928211 3.5 0 
C 3.5 -0.928211 3.131218 -1.81853 2.474874 -2.474874 
C 1.81853 -3.131218 0.928211 -3.5 0 -3.5 
C -0.928211 -3.5 -1.81853 -3.131218 -2.474874 -2.474874 
C -3.131218 -1.81853 -3.5 -0.928211 -3.5 0 
C -3.5 0.928211 -3.131218 1.81853 -2.474874 2.474874 
C -1.81853 3.131218 -0.928211 3.5 0 3.5 
z
" style="stroke: #2ca02c"/>
    </defs>
    <g clip-path="url(#p79e9aaaa62)">
     <use xlink:href="#mc95919ac44" x="87.339545" y="383.138977" style="fill: #2ca02c; stroke: #2ca02c"/>
     <use xlink:href="#mc95919ac44" x="106.041876" y="352.313173" style="fill: #2ca02c; stroke: #2ca02c"/>
     <use xlink:href="#mc95919ac44" x="124.744207" y="343.681947" style="fill: #2ca02c; stroke: #2ca02c"/>
     <use xlink:href="#mc95919ac44" x="143.446538" y="337.516787" style="fill: #2ca02c; stroke: #2ca02c"/>
     <use xlink:href="#mc95919ac44" x="162.148869" y="325.186465" style="fill: #2ca02c; stroke: #2ca02c"/>
     <use xlink:href="#mc95919ac44" x="180.8512" y="301.758854" style="fill: #2ca02c; stroke: #2ca02c"/>
     <use xlink:href="#mc95919ac44" x="199.553531" y="294.360661" style="fill: #2ca02c; stroke: #2ca02c"/>
     <use xlink:href="#mc95919ac44" x="218.255862" y="279.564275" style="fill: #2ca02c; stroke: #2ca02c"/>
     <use xlink:href="#mc95919ac44" x="236.958193" y="252.437567" style="fill: #2ca02c; stroke: #2ca02c"/>
     <use xlink:href="#mc95919ac44" x="255.660524" y="231.47602" style="fill: #2ca02c; stroke: #2ca02c"/>
     <use xlink:href="#mc95919ac44" x="274.362855" y="175.989573" style="fill: #2ca02c; stroke: #2ca02c"/>
     <use xlink:href="#mc95919ac44" x="293.065186" y="161.193187" style="fill: #2ca02c; stroke: #2ca02c"/>
     <use xlink:href="#mc95919ac44" x="311.767517" y="119.270093" style="fill: #2ca02c; stroke: #2ca02c"/>
     <use xlink:href="#mc95919ac44" x="367.87451" y="119.270093" style="fill: #2ca02c; stroke: #2ca02c"/>
     <use xlink:href="#mc95919ac44" x="386.576841" y="119.270093" style="fill: #2ca02c; stroke: #2ca02c"/>
     <use xlink:href="#mc95919ac44" x="405.279172" y="119.270093" style="fill: #2ca02c; stroke: #2ca02c"/>
     <use xlink:href="#mc95919ac44" x="423.981503" y="119.270093" style="fill: #2ca02c; stroke: #2ca02c"/>
     <use xlink:href="#mc95919ac44" x="442.683834" y="119.270093" style="fill: #2ca02c; stroke: #2ca02c"/>
     <use xlink:href="#mc95919ac44" x="480.088497" y="119.270093" style="fill: #2ca02c; stroke: #2ca02c"/>
     <use xlink:href="#mc95919ac44" x="498.790828" y="119.270093" style="fill: #2ca02c; stroke: #2ca02c"/>
     <use xlink:href="#mc95919ac44" x="517.493159" y="119.270093" style="fill: #2ca02c; stroke: #2ca02c"/>
     <use xlink:href="#mc95919ac44" x="536.19549" y="119.270093" style="fill: #2ca02c; stroke: #2ca02c"/>
     <use xlink:href="#mc95919ac44" x="554.897821" y="119.270093" style="fill: #2ca02c; stroke: #2ca02c"/>
     <use xlink:href="#mc95919ac44" x="573.600152" y="100.77461" style="fill: #2ca02c; stroke: #2ca02c"/>
     <use xlink:href="#mc95919ac44" x="592.302483" y="100.77461" style="fill: #2ca02c; stroke: #2ca02c"/>
     <use xlink:href="#mc95919ac44" x="611.004814" y="100.77461" style="fill: #2ca02c; stroke: #2ca02c"/>
     <use xlink:href="#mc95919ac44" x="629.707145" y="100.77461" style="fill: #2ca02c; stroke: #2ca02c"/>
     <use xlink:href="#mc95919ac44" x="648.409476" y="100.77461" style="fill: #2ca02c; stroke: #2ca02c"/>
     <use xlink:href="#mc95919ac44" x="667.111807" y="82.279128" style="fill: #2ca02c; stroke: #2ca02c"/>
     <use xlink:href="#mc95919ac44" x="685.814138" y="82.279128" style="fill: #2ca02c; stroke: #2ca02c"/>
     <use xlink:href="#mc95919ac44" x="704.516469" y="82.279128" style="fill: #2ca02c; stroke: #2ca02c"/>
     <use xlink:href="#mc95919ac44" x="723.2188" y="82.279128" style="fill: #2ca02c; stroke: #2ca02c"/>
     <use xlink:href="#mc95919ac44" x="741.921131" y="82.279128" style="fill: #2ca02c; stroke: #2ca02c"/>
     <use xlink:href="#mc95919ac44" x="760.623462" y="82.279128" style="fill: #2ca02c; stroke: #2ca02c"/>
     <use xlink:href="#mc95919ac44" x="779.325793" y="82.279128" style="fill: #2ca02c; stroke: #2ca02c"/>
     <use xlink:href="#mc95919ac44" x="798.028124" y="82.279128" style="fill: #2ca02c; stroke: #2ca02c"/>
     <use xlink:href="#mc95919ac44" x="816.730455" y="82.279128" style="fill: #2ca02c; stroke: #2ca02c"/>
    </g>
   </g>
   <g id="line2d_28">
    <path d="M 87.339545 383.092527 
L 106.041876 362.13098 
L 124.744207 347.334594 
L 143.446538 332.538208 
L 162.148869 326.373048 
L 180.8512 302.945436 
L 199.553531 291.848147 
L 218.255862 284.449954 
L 236.958193 259.789311 
L 255.660524 236.361699 
L 274.362855 199.370734 
L 293.065186 183.341316 
L 311.767517 156.214608 
L 367.87451 156.214608 
L 386.576841 156.214608 
L 405.279172 156.214608 
L 423.981503 156.214608 
L 442.683834 156.214608 
L 480.088497 156.214608 
L 498.790828 156.214608 
L 517.493159 156.214608 
L 536.19549 156.214608 
L 554.897821 156.214608 
L 573.600152 137.719126 
L 592.302483 137.719126 
L 611.004814 137.719126 
L 629.707145 137.719126 
L 648.409476 137.719126 
L 667.111807 106.893322 
L 685.814138 106.893322 
L 704.516469 106.893322 
L 723.2188 106.893322 
L 741.921131 106.893322 
L 760.623462 106.893322 
L 779.325793 106.893322 
L 798.028124 106.893322 
L 816.730455 106.893322 
" clip-path="url(#p79e9aaaa62)" style="fill: none; stroke: #d62728; stroke-width: 1.5; stroke-linecap: square"/>
    <defs>
     <path id="m14189ff9ad" d="M 0 3.5 
C 0.928211 3.5 1.81853 3.131218 2.474874 2.474874 
C 3.131218 1.81853 3.5 0.928211 3.5 0 
C 3.5 -0.928211 3.131218 -1.81853 2.474874 -2.474874 
C 1.81853 -3.131218 0.928211 -3.5 0 -3.5 
C -0.928211 -3.5 -1.81853 -3.131218 -2.474874 -2.474874 
C -3.131218 -1.81853 -3.5 -0.928211 -3.5 0 
C -3.5 0.928211 -3.131218 1.81853 -2.474874 2.474874 
C -1.81853 3.131218 -0.928211 3.5 0 3.5 
z
" style="stroke: #d62728"/>
    </defs>
    <g clip-path="url(#p79e9aaaa62)">
     <use xlink:href="#m14189ff9ad" x="87.339545" y="383.092527" style="fill: #d62728; stroke: #d62728"/>
     <use xlink:href="#m14189ff9ad" x="106.041876" y="362.13098" style="fill: #d62728; stroke: #d62728"/>
     <use xlink:href="#m14189ff9ad" x="124.744207" y="347.334594" style="fill: #d62728; stroke: #d62728"/>
     <use xlink:href="#m14189ff9ad" x="143.446538" y="332.538208" style="fill: #d62728; stroke: #d62728"/>
     <use xlink:href="#m14189ff9ad" x="162.148869" y="326.373048" style="fill: #d62728; stroke: #d62728"/>
     <use xlink:href="#m14189ff9ad" x="180.8512" y="302.945436" style="fill: #d62728; stroke: #d62728"/>
     <use xlink:href="#m14189ff9ad" x="199.553531" y="291.848147" style="fill: #d62728; stroke: #d62728"/>
     <use xlink:href="#m14189ff9ad" x="218.255862" y="284.449954" style="fill: #d62728; stroke: #d62728"/>
     <use xlink:href="#m14189ff9ad" x="236.958193" y="259.789311" style="fill: #d62728; stroke: #d62728"/>
     <use xlink:href="#m14189ff9ad" x="255.660524" y="236.361699" style="fill: #d62728; stroke: #d62728"/>
     <use xlink:href="#m14189ff9ad" x="274.362855" y="199.370734" style="fill: #d62728; stroke: #d62728"/>
     <use xlink:href="#m14189ff9ad" x="293.065186" y="183.341316" style="fill: #d62728; stroke: #d62728"/>
     <use xlink:href="#m14189ff9ad" x="311.767517" y="156.214608" style="fill: #d62728; stroke: #d62728"/>
     <use xlink:href="#m14189ff9ad" x="367.87451" y="156.214608" style="fill: #d62728; stroke: #d62728"/>
     <use xlink:href="#m14189ff9ad" x="386.576841" y="156.214608" style="fill: #d62728; stroke: #d62728"/>
     <use xlink:href="#m14189ff9ad" x="405.279172" y="156.214608" style="fill: #d62728; stroke: #d62728"/>
     <use xlink:href="#m14189ff9ad" x="423.981503" y="156.214608" style="fill: #d62728; stroke: #d62728"/>
     <use xlink:href="#m14189ff9ad" x="442.683834" y="156.214608" style="fill: #d62728; stroke: #d62728"/>
     <use xlink:href="#m14189ff9ad" x="480.088497" y="156.214608" style="fill: #d62728; stroke: #d62728"/>
     <use xlink:href="#m14189ff9ad" x="498.790828" y="156.214608" style="fill: #d62728; stroke: #d62728"/>
     <use xlink:href="#m14189ff9ad" x="517.493159" y="156.214608" style="fill: #d62728; stroke: #d62728"/>
     <use xlink:href="#m14189ff9ad" x="536.19549" y="156.214608" style="fill: #d62728; stroke: #d62728"/>
     <use xlink:href="#m14189ff9ad" x="554.897821" y="156.214608" style="fill: #d62728; stroke: #d62728"/>
     <use xlink:href="#m14189ff9ad" x="573.600152" y="137.719126" style="fill: #d62728; stroke: #d62728"/>
     <use xlink:href="#m14189ff9ad" x="592.302483" y="137.719126" style="fill: #d62728; stroke: #d62728"/>
     <use xlink:href="#m14189ff9ad" x="611.004814" y="137.719126" style="fill: #d62728; stroke: #d62728"/>
     <use xlink:href="#m14189ff9ad" x="629.707145" y="137.719126" style="fill: #d62728; stroke: #d62728"/>
     <use xlink:href="#m14189ff9ad" x="648.409476" y="137.719126" style="fill: #d62728; stroke: #d62728"/>
     <use xlink:href="#m14189ff9ad" x="667.111807" y="106.893322" style="fill: #d62728; stroke: #d62728"/>
     <use xlink:href="#m14189ff9ad" x="685.814138" y="106.893322" style="fill: #d62728; stroke: #d62728"/>
     <use xlink:href="#m14189ff9ad" x="704.516469" y="106.893322" style="fill: #d62728; stroke: #d62728"/>
     <use xlink:href="#m14189ff9ad" x="723.2188" y="106.893322" style="fill: #d62728; stroke: #d62728"/>
     <use xlink:href="#m14189ff9ad" x="741.921131" y="106.893322" style="fill: #d62728; stroke: #d62728"/>
     <use xlink:href="#m14189ff9ad" x="760.623462" y="106.893322" style="fill: #d62728; stroke: #d62728"/>
     <use xlink:href="#m14189ff9ad" x="779.325793" y="106.893322" style="fill: #d62728; stroke: #d62728"/>
     <use xlink:href="#m14189ff9ad" x="798.028124" y="106.893322" style="fill: #d62728; stroke: #d62728"/>
     <use xlink:href="#m14189ff9ad" x="816.730455" y="106.893322" style="fill: #d62728; stroke: #d62728"/>
    </g>
   </g>
   <g id="line2d_29">
    <path d="M 87.339545 383.255807 
L 106.041876 349.963938 
L 124.744207 322.83723 
L 143.446538 308.040844 
L 162.148869 293.244458 
L 180.8512 278.448072 
L 199.553531 275.982008 
L 218.255862 255.020461 
L 236.958193 224.194657 
L 255.660524 200.767046 
L 274.362855 163.776081 
L 293.065186 148.979695 
L 311.767517 121.852987 
L 367.87451 121.852987 
L 386.576841 121.852987 
L 405.279172 121.852987 
L 423.981503 121.852987 
L 442.683834 121.852987 
L 480.088497 121.852987 
L 498.790828 121.852987 
L 517.493159 121.852987 
L 536.19549 121.852987 
L 554.897821 121.852987 
L 573.600152 103.357505 
L 592.302483 103.357505 
L 611.004814 103.357505 
L 629.707145 103.357505 
L 648.409476 103.357505 
L 667.111807 78.696861 
L 685.814138 78.696861 
L 704.516469 78.696861 
L 723.2188 78.696861 
L 741.921131 78.696861 
L 760.623462 78.696861 
L 779.325793 78.696861 
L 798.028124 78.696861 
L 816.730455 78.696861 
" clip-path="url(#p79e9aaaa62)" style="fill: none; stroke: #9467bd; stroke-width: 1.5; stroke-linecap: square"/>
    <defs>
     <path id="mc8a12a2119" d="M 0 3.5 
C 0.928211 3.5 1.81853 3.131218 2.474874 2.474874 
C 3.131218 1.81853 3.5 0.928211 3.5 0 
C 3.5 -0.928211 3.131218 -1.81853 2.474874 -2.474874 
C 1.81853 -3.131218 0.928211 -3.5 0 -3.5 
C -0.928211 -3.5 -1.81853 -3.131218 -2.474874 -2.474874 
C -3.131218 -1.81853 -3.5 -0.928211 -3.5 0 
C -3.5 0.928211 -3.131218 1.81853 -2.474874 2.474874 
C -1.81853 3.131218 -0.928211 3.5 0 3.5 
z
" style="stroke: #9467bd"/>
    </defs>
    <g clip-path="url(#p79e9aaaa62)">
     <use xlink:href="#mc8a12a2119" x="87.339545" y="383.255807" style="fill: #9467bd; stroke: #9467bd"/>
     <use xlink:href="#mc8a12a2119" x="106.041876" y="349.963938" style="fill: #9467bd; stroke: #9467bd"/>
     <use xlink:href="#mc8a12a2119" x="124.744207" y="322.83723" style="fill: #9467bd; stroke: #9467bd"/>
     <use xlink:href="#mc8a12a2119" x="143.446538" y="308.040844" style="fill: #9467bd; stroke: #9467bd"/>
     <use xlink:href="#mc8a12a2119" x="162.148869" y="293.244458" style="fill: #9467bd; stroke: #9467bd"/>
     <use xlink:href="#mc8a12a2119" x="180.8512" y="278.448072" style="fill: #9467bd; stroke: #9467bd"/>
     <use xlink:href="#mc8a12a2119" x="199.553531" y="275.982008" style="fill: #9467bd; stroke: #9467bd"/>
     <use xlink:href="#mc8a12a2119" x="218.255862" y="255.020461" style="fill: #9467bd; stroke: #9467bd"/>
     <use xlink:href="#mc8a12a2119" x="236.958193" y="224.194657" style="fill: #9467bd; stroke: #9467bd"/>
     <use xlink:href="#mc8a12a2119" x="255.660524" y="200.767046" style="fill: #9467bd; stroke: #9467bd"/>
     <use xlink:href="#mc8a12a2119" x="274.362855" y="163.776081" style="fill: #9467bd; stroke: #9467bd"/>
     <use xlink:href="#mc8a12a2119" x="293.065186" y="148.979695" style="fill: #9467bd; stroke: #9467bd"/>
     <use xlink:href="#mc8a12a2119" x="311.767517" y="121.852987" style="fill: #9467bd; stroke: #9467bd"/>
     <use xlink:href="#mc8a12a2119" x="367.87451" y="121.852987" style="fill: #9467bd; stroke: #9467bd"/>
     <use xlink:href="#mc8a12a2119" x="386.576841" y="121.852987" style="fill: #9467bd; stroke: #9467bd"/>
     <use xlink:href="#mc8a12a2119" x="405.279172" y="121.852987" style="fill: #9467bd; stroke: #9467bd"/>
     <use xlink:href="#mc8a12a2119" x="423.981503" y="121.852987" style="fill: #9467bd; stroke: #9467bd"/>
     <use xlink:href="#mc8a12a2119" x="442.683834" y="121.852987" style="fill: #9467bd; stroke: #9467bd"/>
     <use xlink:href="#mc8a12a2119" x="480.088497" y="121.852987" style="fill: #9467bd; stroke: #9467bd"/>
     <use xlink:href="#mc8a12a2119" x="498.790828" y="121.852987" style="fill: #9467bd; stroke: #9467bd"/>
     <use xlink:href="#mc8a12a2119" x="517.493159" y="121.852987" style="fill: #9467bd; stroke: #9467bd"/>
     <use xlink:href="#mc8a12a2119" x="536.19549" y="121.852987" style="fill: #9467bd; stroke: #9467bd"/>
     <use xlink:href="#mc8a12a2119" x="554.897821" y="121.852987" style="fill: #9467bd; stroke: #9467bd"/>
     <use xlink:href="#mc8a12a2119" x="573.600152" y="103.357505" style="fill: #9467bd; stroke: #9467bd"/>
     <use xlink:href="#mc8a12a2119" x="592.302483" y="103.357505" style="fill: #9467bd; stroke: #9467bd"/>
     <use xlink:href="#mc8a12a2119" x="611.004814" y="103.357505" style="fill: #9467bd; stroke: #9467bd"/>
     <use xlink:href="#mc8a12a2119" x="629.707145" y="103.357505" style="fill: #9467bd; stroke: #9467bd"/>
     <use xlink:href="#mc8a12a2119" x="648.409476" y="103.357505" style="fill: #9467bd; stroke: #9467bd"/>
     <use xlink:href="#mc8a12a2119" x="667.111807" y="78.696861" style="fill: #9467bd; stroke: #9467bd"/>
     <use xlink:href="#mc8a12a2119" x="685.814138" y="78.696861" style="fill: #9467bd; stroke: #9467bd"/>
     <use xlink:href="#mc8a12a2119" x="704.516469" y="78.696861" style="fill: #9467bd; stroke: #9467bd"/>
     <use xlink:href="#mc8a12a2119" x="723.2188" y="78.696861" style="fill: #9467bd; stroke: #9467bd"/>
     <use xlink:href="#mc8a12a2119" x="741.921131" y="78.696861" style="fill: #9467bd; stroke: #9467bd"/>
     <use xlink:href="#mc8a12a2119" x="760.623462" y="78.696861" style="fill: #9467bd; stroke: #9467bd"/>
     <use xlink:href="#mc8a12a2119" x="779.325793" y="78.696861" style="fill: #9467bd; stroke: #9467bd"/>
     <use xlink:href="#mc8a12a2119" x="798.028124" y="78.696861" style="fill: #9467bd; stroke: #9467bd"/>
     <use xlink:href="#mc8a12a2119" x="816.730455" y="78.696861" style="fill: #9467bd; stroke: #9467bd"/>
    </g>
   </g>
   <g id="line2d_30">
    <path d="M 87.339545 383.111119 
L 106.041876 352.285315 
L 124.744207 327.624671 
L 143.446538 302.964028 
L 162.148869 284.468545 
L 180.8512 263.506999 
L 199.553531 261.040934 
L 218.255862 256.108806 
L 236.958193 212.95268 
L 255.660524 189.525069 
L 274.362855 158.699264 
L 293.065186 138.97075 
L 311.767517 81.018238 
L 367.87451 81.018238 
L 386.576841 81.018238 
L 405.279172 81.018238 
L 423.981503 81.018238 
L 442.683834 81.018238 
L 480.088497 81.018238 
L 498.790828 81.018238 
L 517.493159 81.018238 
L 536.19549 81.018238 
L 554.897821 81.018238 
L 573.600152 62.522755 
L 592.302483 62.522755 
L 611.004814 62.522755 
L 629.707145 62.522755 
L 648.409476 62.522755 
L 667.111807 44.027273 
L 685.814138 44.027273 
L 704.516469 44.027273 
L 723.2188 44.027273 
L 741.921131 44.027273 
L 760.623462 44.027273 
L 779.325793 44.027273 
L 798.028124 44.027273 
L 816.730455 44.027273 
" clip-path="url(#p79e9aaaa62)" style="fill: none; stroke: #8c564b; stroke-width: 1.5; stroke-linecap: square"/>
    <defs>
     <path id="m889a543560" d="M 0 3.5 
C 0.928211 3.5 1.81853 3.131218 2.474874 2.474874 
C 3.131218 1.81853 3.5 0.928211 3.5 0 
C 3.5 -0.928211 3.131218 -1.81853 2.474874 -2.474874 
C 1.81853 -3.131218 0.928211 -3.5 0 -3.5 
C -0.928211 -3.5 -1.81853 -3.131218 -2.474874 -2.474874 
C -3.131218 -1.81853 -3.5 -0.928211 -3.5 0 
C -3.5 0.928211 -3.131218 1.81853 -2.474874 2.474874 
C -1.81853 3.131218 -0.928211 3.5 0 3.5 
z
" style="stroke: #8c564b"/>
    </defs>
    <g clip-path="url(#p79e9aaaa62)">
     <use xlink:href="#m889a543560" x="87.339545" y="383.111119" style="fill: #8c564b; stroke: #8c564b"/>
     <use xlink:href="#m889a543560" x="106.041876" y="352.285315" style="fill: #8c564b; stroke: #8c564b"/>
     <use xlink:href="#m889a543560" x="124.744207" y="327.624671" style="fill: #8c564b; stroke: #8c564b"/>
     <use xlink:href="#m889a543560" x="143.446538" y="302.964028" style="fill: #8c564b; stroke: #8c564b"/>
     <use xlink:href="#m889a543560" x="162.148869" y="284.468545" style="fill: #8c564b; stroke: #8c564b"/>
     <use xlink:href="#m889a543560" x="180.8512" y="263.506999" style="fill: #8c564b; stroke: #8c564b"/>
     <use xlink:href="#m889a543560" x="199.553531" y="261.040934" style="fill: #8c564b; stroke: #8c564b"/>
     <use xlink:href="#m889a543560" x="218.255862" y="256.108806" style="fill: #8c564b; stroke: #8c564b"/>
     <use xlink:href="#m889a543560" x="236.958193" y="212.95268" style="fill: #8c564b; stroke: #8c564b"/>
     <use xlink:href="#m889a543560" x="255.660524" y="189.525069" style="fill: #8c564b; stroke: #8c564b"/>
     <use xlink:href="#m889a543560" x="274.362855" y="158.699264" style="fill: #8c564b; stroke: #8c564b"/>
     <use xlink:href="#m889a543560" x="293.065186" y="138.97075" style="fill: #8c564b; stroke: #8c564b"/>
     <use xlink:href="#m889a543560" x="311.767517" y="81.018238" style="fill: #8c564b; stroke: #8c564b"/>
     <use xlink:href="#m889a543560" x="367.87451" y="81.018238" style="fill: #8c564b; stroke: #8c564b"/>
     <use xlink:href="#m889a543560" x="386.576841" y="81.018238" style="fill: #8c564b; stroke: #8c564b"/>
     <use xlink:href="#m889a543560" x="405.279172" y="81.018238" style="fill: #8c564b; stroke: #8c564b"/>
     <use xlink:href="#m889a543560" x="423.981503" y="81.018238" style="fill: #8c564b; stroke: #8c564b"/>
     <use xlink:href="#m889a543560" x="442.683834" y="81.018238" style="fill: #8c564b; stroke: #8c564b"/>
     <use xlink:href="#m889a543560" x="480.088497" y="81.018238" style="fill: #8c564b; stroke: #8c564b"/>
     <use xlink:href="#m889a543560" x="498.790828" y="81.018238" style="fill: #8c564b; stroke: #8c564b"/>
     <use xlink:href="#m889a543560" x="517.493159" y="81.018238" style="fill: #8c564b; stroke: #8c564b"/>
     <use xlink:href="#m889a543560" x="536.19549" y="81.018238" style="fill: #8c564b; stroke: #8c564b"/>
     <use xlink:href="#m889a543560" x="554.897821" y="81.018238" style="fill: #8c564b; stroke: #8c564b"/>
     <use xlink:href="#m889a543560" x="573.600152" y="62.522755" style="fill: #8c564b; stroke: #8c564b"/>
     <use xlink:href="#m889a543560" x="592.302483" y="62.522755" style="fill: #8c564b; stroke: #8c564b"/>
     <use xlink:href="#m889a543560" x="611.004814" y="62.522755" style="fill: #8c564b; stroke: #8c564b"/>
     <use xlink:href="#m889a543560" x="629.707145" y="62.522755" style="fill: #8c564b; stroke: #8c564b"/>
     <use xlink:href="#m889a543560" x="648.409476" y="62.522755" style="fill: #8c564b; stroke: #8c564b"/>
     <use xlink:href="#m889a543560" x="667.111807" y="44.027273" style="fill: #8c564b; stroke: #8c564b"/>
     <use xlink:href="#m889a543560" x="685.814138" y="44.027273" style="fill: #8c564b; stroke: #8c564b"/>
     <use xlink:href="#m889a543560" x="704.516469" y="44.027273" style="fill: #8c564b; stroke: #8c564b"/>
     <use xlink:href="#m889a543560" x="723.2188" y="44.027273" style="fill: #8c564b; stroke: #8c564b"/>
     <use xlink:href="#m889a543560" x="741.921131" y="44.027273" style="fill: #8c564b; stroke: #8c564b"/>
     <use xlink:href="#m889a543560" x="760.623462" y="44.027273" style="fill: #8c564b; stroke: #8c564b"/>
     <use xlink:href="#m889a543560" x="779.325793" y="44.027273" style="fill: #8c564b; stroke: #8c564b"/>
     <use xlink:href="#m889a543560" x="798.028124" y="44.027273" style="fill: #8c564b; stroke: #8c564b"/>
     <use xlink:href="#m889a543560" x="816.730455" y="44.027273" style="fill: #8c564b; stroke: #8c564b"/>
    </g>
   </g>
   <g id="line2d_31">
    <path d="M 87.339545 386.972727 
L 106.041876 384.506663 
L 124.744207 382.040599 
L 143.446538 351.214794 
L 162.148869 345.049634 
L 180.8512 342.583569 
L 199.553531 317.922926 
L 218.255862 310.524733 
L 236.958193 298.194411 
L 255.660524 287.097122 
L 274.362855 268.601639 
L 293.065186 255.038285 
L 311.767517 188.454548 
L 367.87451 188.454548 
L 386.576841 188.454548 
L 405.279172 188.454548 
L 423.981503 188.454548 
L 442.683834 188.454548 
L 480.088497 188.454548 
L 498.790828 188.454548 
L 517.493159 188.454548 
L 536.19549 188.454548 
L 554.897821 188.454548 
L 573.600152 188.454548 
L 592.302483 188.454548 
L 611.004814 188.454548 
L 629.707145 188.454548 
L 648.409476 188.454548 
L 667.111807 188.454548 
L 685.814138 188.454548 
L 704.516469 188.454548 
L 723.2188 188.454548 
L 741.921131 188.454548 
L 760.623462 188.454548 
L 779.325793 188.454548 
L 798.028124 188.454548 
L 816.730455 188.454548 
" clip-path="url(#p79e9aaaa62)" style="fill: none; stroke: #e377c2; stroke-width: 1.5; stroke-linecap: square"/>
    <defs>
     <path id="m737b432b28" d="M 0 3.5 
C 0.928211 3.5 1.81853 3.131218 2.474874 2.474874 
C 3.131218 1.81853 3.5 0.928211 3.5 0 
C 3.5 -0.928211 3.131218 -1.81853 2.474874 -2.474874 
C 1.81853 -3.131218 0.928211 -3.5 0 -3.5 
C -0.928211 -3.5 -1.81853 -3.131218 -2.474874 -2.474874 
C -3.131218 -1.81853 -3.5 -0.928211 -3.5 0 
C -3.5 0.928211 -3.131218 1.81853 -2.474874 2.474874 
C -1.81853 3.131218 -0.928211 3.5 0 3.5 
z
" style="stroke: #e377c2"/>
    </defs>
    <g clip-path="url(#p79e9aaaa62)">
     <use xlink:href="#m737b432b28" x="87.339545" y="386.972727" style="fill: #e377c2; stroke: #e377c2"/>
     <use xlink:href="#m737b432b28" x="106.041876" y="384.506663" style="fill: #e377c2; stroke: #e377c2"/>
     <use xlink:href="#m737b432b28" x="124.744207" y="382.040599" style="fill: #e377c2; stroke: #e377c2"/>
     <use xlink:href="#m737b432b28" x="143.446538" y="351.214794" style="fill: #e377c2; stroke: #e377c2"/>
     <use xlink:href="#m737b432b28" x="162.148869" y="345.049634" style="fill: #e377c2; stroke: #e377c2"/>
     <use xlink:href="#m737b432b28" x="180.8512" y="342.583569" style="fill: #e377c2; stroke: #e377c2"/>
     <use xlink:href="#m737b432b28" x="199.553531" y="317.922926" style="fill: #e377c2; stroke: #e377c2"/>
     <use xlink:href="#m737b432b28" x="218.255862" y="310.524733" style="fill: #e377c2; stroke: #e377c2"/>
     <use xlink:href="#m737b432b28" x="236.958193" y="298.194411" style="fill: #e377c2; stroke: #e377c2"/>
     <use xlink:href="#m737b432b28" x="255.660524" y="287.097122" style="fill: #e377c2; stroke: #e377c2"/>
     <use xlink:href="#m737b432b28" x="274.362855" y="268.601639" style="fill: #e377c2; stroke: #e377c2"/>
     <use xlink:href="#m737b432b28" x="293.065186" y="255.038285" style="fill: #e377c2; stroke: #e377c2"/>
     <use xlink:href="#m737b432b28" x="311.767517" y="188.454548" style="fill: #e377c2; stroke: #e377c2"/>
     <use xlink:href="#m737b432b28" x="367.87451" y="188.454548" style="fill: #e377c2; stroke: #e377c2"/>
     <use xlink:href="#m737b432b28" x="386.576841" y="188.454548" style="fill: #e377c2; stroke: #e377c2"/>
     <use xlink:href="#m737b432b28" x="405.279172" y="188.454548" style="fill: #e377c2; stroke: #e377c2"/>
     <use xlink:href="#m737b432b28" x="423.981503" y="188.454548" style="fill: #e377c2; stroke: #e377c2"/>
     <use xlink:href="#m737b432b28" x="442.683834" y="188.454548" style="fill: #e377c2; stroke: #e377c2"/>
     <use xlink:href="#m737b432b28" x="480.088497" y="188.454548" style="fill: #e377c2; stroke: #e377c2"/>
     <use xlink:href="#m737b432b28" x="498.790828" y="188.454548" style="fill: #e377c2; stroke: #e377c2"/>
     <use xlink:href="#m737b432b28" x="517.493159" y="188.454548" style="fill: #e377c2; stroke: #e377c2"/>
     <use xlink:href="#m737b432b28" x="536.19549" y="188.454548" style="fill: #e377c2; stroke: #e377c2"/>
     <use xlink:href="#m737b432b28" x="554.897821" y="188.454548" style="fill: #e377c2; stroke: #e377c2"/>
     <use xlink:href="#m737b432b28" x="573.600152" y="188.454548" style="fill: #e377c2; stroke: #e377c2"/>
     <use xlink:href="#m737b432b28" x="592.302483" y="188.454548" style="fill: #e377c2; stroke: #e377c2"/>
     <use xlink:href="#m737b432b28" x="611.004814" y="188.454548" style="fill: #e377c2; stroke: #e377c2"/>
     <use xlink:href="#m737b432b28" x="629.707145" y="188.454548" style="fill: #e377c2; stroke: #e377c2"/>
     <use xlink:href="#m737b432b28" x="648.409476" y="188.454548" style="fill: #e377c2; stroke: #e377c2"/>
     <use xlink:href="#m737b432b28" x="667.111807" y="188.454548" style="fill: #e377c2; stroke: #e377c2"/>
     <use xlink:href="#m737b432b28" x="685.814138" y="188.454548" style="fill: #e377c2; stroke: #e377c2"/>
     <use xlink:href="#m737b432b28" x="704.516469" y="188.454548" style="fill: #e377c2; stroke: #e377c2"/>
     <use xlink:href="#m737b432b28" x="723.2188" y="188.454548" style="fill: #e377c2; stroke: #e377c2"/>
     <use xlink:href="#m737b432b28" x="741.921131" y="188.454548" style="fill: #e377c2; stroke: #e377c2"/>
     <use xlink:href="#m737b432b28" x="760.623462" y="188.454548" style="fill: #e377c2; stroke: #e377c2"/>
     <use xlink:href="#m737b432b28" x="779.325793" y="188.454548" style="fill: #e377c2; stroke: #e377c2"/>
     <use xlink:href="#m737b432b28" x="798.028124" y="188.454548" style="fill: #e377c2; stroke: #e377c2"/>
     <use xlink:href="#m737b432b28" x="816.730455" y="188.454548" style="fill: #e377c2; stroke: #e377c2"/>
    </g>
   </g>
   <g id="line2d_32">
    <path d="M 87.339545 386.849948 
L 106.041876 359.72324 
L 124.744207 332.596532 
L 143.446538 323.965307 
L 162.148869 299.304664 
L 180.8512 275.877053 
L 199.553531 261.080667 
L 218.255862 258.614602 
L 236.958193 231.487895 
L 255.660524 225.322734 
L 274.362855 176.001447 
L 293.065186 162.438093 
L 311.767517 120.515 
L 367.87451 120.515 
L 386.576841 120.515 
L 405.279172 120.515 
L 423.981503 120.515 
L 442.683834 120.515 
L 480.088497 120.515 
L 498.790828 120.515 
L 517.493159 120.515 
L 536.19549 120.515 
L 554.897821 120.515 
L 573.600152 102.019517 
L 592.302483 102.019517 
L 611.004814 102.019517 
L 629.707145 102.019517 
L 648.409476 102.019517 
L 667.111807 95.854356 
L 685.814138 95.854356 
L 704.516469 95.854356 
L 723.2188 95.854356 
L 741.921131 95.854356 
L 760.623462 95.854356 
L 779.325793 95.854356 
L 798.028124 95.854356 
L 816.730455 95.854356 
" clip-path="url(#p79e9aaaa62)" style="fill: none; stroke: #7f7f7f; stroke-width: 1.5; stroke-linecap: square"/>
    <defs>
     <path id="mef90099daa" d="M 0 3.5 
C 0.928211 3.5 1.81853 3.131218 2.474874 2.474874 
C 3.131218 1.81853 3.5 0.928211 3.5 0 
C 3.5 -0.928211 3.131218 -1.81853 2.474874 -2.474874 
C 1.81853 -3.131218 0.928211 -3.5 0 -3.5 
C -0.928211 -3.5 -1.81853 -3.131218 -2.474874 -2.474874 
C -3.131218 -1.81853 -3.5 -0.928211 -3.5 0 
C -3.5 0.928211 -3.131218 1.81853 -2.474874 2.474874 
C -1.81853 3.131218 -0.928211 3.5 0 3.5 
z
" style="stroke: #7f7f7f"/>
    </defs>
    <g clip-path="url(#p79e9aaaa62)">
     <use xlink:href="#mef90099daa" x="87.339545" y="386.849948" style="fill: #7f7f7f; stroke: #7f7f7f"/>
     <use xlink:href="#mef90099daa" x="106.041876" y="359.72324" style="fill: #7f7f7f; stroke: #7f7f7f"/>
     <use xlink:href="#mef90099daa" x="124.744207" y="332.596532" style="fill: #7f7f7f; stroke: #7f7f7f"/>
     <use xlink:href="#mef90099daa" x="143.446538" y="323.965307" style="fill: #7f7f7f; stroke: #7f7f7f"/>
     <use xlink:href="#mef90099daa" x="162.148869" y="299.304664" style="fill: #7f7f7f; stroke: #7f7f7f"/>
     <use xlink:href="#mef90099daa" x="180.8512" y="275.877053" style="fill: #7f7f7f; stroke: #7f7f7f"/>
     <use xlink:href="#mef90099daa" x="199.553531" y="261.080667" style="fill: #7f7f7f; stroke: #7f7f7f"/>
     <use xlink:href="#mef90099daa" x="218.255862" y="258.614602" style="fill: #7f7f7f; stroke: #7f7f7f"/>
     <use xlink:href="#mef90099daa" x="236.958193" y="231.487895" style="fill: #7f7f7f; stroke: #7f7f7f"/>
     <use xlink:href="#mef90099daa" x="255.660524" y="225.322734" style="fill: #7f7f7f; stroke: #7f7f7f"/>
     <use xlink:href="#mef90099daa" x="274.362855" y="176.001447" style="fill: #7f7f7f; stroke: #7f7f7f"/>
     <use xlink:href="#mef90099daa" x="293.065186" y="162.438093" style="fill: #7f7f7f; stroke: #7f7f7f"/>
     <use xlink:href="#mef90099daa" x="311.767517" y="120.515" style="fill: #7f7f7f; stroke: #7f7f7f"/>
     <use xlink:href="#mef90099daa" x="367.87451" y="120.515" style="fill: #7f7f7f; stroke: #7f7f7f"/>
     <use xlink:href="#mef90099daa" x="386.576841" y="120.515" style="fill: #7f7f7f; stroke: #7f7f7f"/>
     <use xlink:href="#mef90099daa" x="405.279172" y="120.515" style="fill: #7f7f7f; stroke: #7f7f7f"/>
     <use xlink:href="#mef90099daa" x="423.981503" y="120.515" style="fill: #7f7f7f; stroke: #7f7f7f"/>
     <use xlink:href="#mef90099daa" x="442.683834" y="120.515" style="fill: #7f7f7f; stroke: #7f7f7f"/>
     <use xlink:href="#mef90099daa" x="480.088497" y="120.515" style="fill: #7f7f7f; stroke: #7f7f7f"/>
     <use xlink:href="#mef90099daa" x="498.790828" y="120.515" style="fill: #7f7f7f; stroke: #7f7f7f"/>
     <use xlink:href="#mef90099daa" x="517.493159" y="120.515" style="fill: #7f7f7f; stroke: #7f7f7f"/>
     <use xlink:href="#mef90099daa" x="536.19549" y="120.515" style="fill: #7f7f7f; stroke: #7f7f7f"/>
     <use xlink:href="#mef90099daa" x="554.897821" y="120.515" style="fill: #7f7f7f; stroke: #7f7f7f"/>
     <use xlink:href="#mef90099daa" x="573.600152" y="102.019517" style="fill: #7f7f7f; stroke: #7f7f7f"/>
     <use xlink:href="#mef90099daa" x="592.302483" y="102.019517" style="fill: #7f7f7f; stroke: #7f7f7f"/>
     <use xlink:href="#mef90099daa" x="611.004814" y="102.019517" style="fill: #7f7f7f; stroke: #7f7f7f"/>
     <use xlink:href="#mef90099daa" x="629.707145" y="102.019517" style="fill: #7f7f7f; stroke: #7f7f7f"/>
     <use xlink:href="#mef90099daa" x="648.409476" y="102.019517" style="fill: #7f7f7f; stroke: #7f7f7f"/>
     <use xlink:href="#mef90099daa" x="667.111807" y="95.854356" style="fill: #7f7f7f; stroke: #7f7f7f"/>
     <use xlink:href="#mef90099daa" x="685.814138" y="95.854356" style="fill: #7f7f7f; stroke: #7f7f7f"/>
     <use xlink:href="#mef90099daa" x="704.516469" y="95.854356" style="fill: #7f7f7f; stroke: #7f7f7f"/>
     <use xlink:href="#mef90099daa" x="723.2188" y="95.854356" style="fill: #7f7f7f; stroke: #7f7f7f"/>
     <use xlink:href="#mef90099daa" x="741.921131" y="95.854356" style="fill: #7f7f7f; stroke: #7f7f7f"/>
     <use xlink:href="#mef90099daa" x="760.623462" y="95.854356" style="fill: #7f7f7f; stroke: #7f7f7f"/>
     <use xlink:href="#mef90099daa" x="779.325793" y="95.854356" style="fill: #7f7f7f; stroke: #7f7f7f"/>
     <use xlink:href="#mef90099daa" x="798.028124" y="95.854356" style="fill: #7f7f7f; stroke: #7f7f7f"/>
     <use xlink:href="#mef90099daa" x="816.730455" y="95.854356" style="fill: #7f7f7f; stroke: #7f7f7f"/>
    </g>
   </g>
   <g id="line2d_33">
    <path d="M 87.339545 376.918881 
L 106.041876 364.588559 
L 124.744207 346.093077 
L 143.446538 331.296691 
L 162.148869 316.500305 
L 180.8512 283.208436 
L 199.553531 278.276307 
L 218.255862 267.179018 
L 236.958193 236.353214 
L 255.660524 211.69257 
L 274.362855 162.371284 
L 293.065186 147.574898 
L 311.767517 95.787547 
L 367.87451 95.787547 
L 386.576841 95.787547 
L 405.279172 95.787547 
L 423.981503 95.787547 
L 442.683834 95.787547 
L 480.088497 95.787547 
L 498.790828 95.787547 
L 517.493159 95.787547 
L 536.19549 95.787547 
L 554.897821 95.787547 
L 573.600152 77.292064 
L 592.302483 77.292064 
L 611.004814 77.292064 
L 629.707145 77.292064 
L 648.409476 77.292064 
L 667.111807 77.292064 
L 685.814138 77.292064 
L 704.516469 77.292064 
L 723.2188 77.292064 
L 741.921131 77.292064 
L 760.623462 77.292064 
L 779.325793 77.292064 
L 798.028124 77.292064 
L 816.730455 77.292064 
" clip-path="url(#p79e9aaaa62)" style="fill: none; stroke: #bcbd22; stroke-width: 1.5; stroke-linecap: square"/>
    <defs>
     <path id="mfce7b8500b" d="M 0 3.5 
C 0.928211 3.5 1.81853 3.131218 2.474874 2.474874 
C 3.131218 1.81853 3.5 0.928211 3.5 0 
C 3.5 -0.928211 3.131218 -1.81853 2.474874 -2.474874 
C 1.81853 -3.131218 0.928211 -3.5 0 -3.5 
C -0.928211 -3.5 -1.81853 -3.131218 -2.474874 -2.474874 
C -3.131218 -1.81853 -3.5 -0.928211 -3.5 0 
C -3.5 0.928211 -3.131218 1.81853 -2.474874 2.474874 
C -1.81853 3.131218 -0.928211 3.5 0 3.5 
z
" style="stroke: #bcbd22"/>
    </defs>
    <g clip-path="url(#p79e9aaaa62)">
     <use xlink:href="#mfce7b8500b" x="87.339545" y="376.918881" style="fill: #bcbd22; stroke: #bcbd22"/>
     <use xlink:href="#mfce7b8500b" x="106.041876" y="364.588559" style="fill: #bcbd22; stroke: #bcbd22"/>
     <use xlink:href="#mfce7b8500b" x="124.744207" y="346.093077" style="fill: #bcbd22; stroke: #bcbd22"/>
     <use xlink:href="#mfce7b8500b" x="143.446538" y="331.296691" style="fill: #bcbd22; stroke: #bcbd22"/>
     <use xlink:href="#mfce7b8500b" x="162.148869" y="316.500305" style="fill: #bcbd22; stroke: #bcbd22"/>
     <use xlink:href="#mfce7b8500b" x="180.8512" y="283.208436" style="fill: #bcbd22; stroke: #bcbd22"/>
     <use xlink:href="#mfce7b8500b" x="199.553531" y="278.276307" style="fill: #bcbd22; stroke: #bcbd22"/>
     <use xlink:href="#mfce7b8500b" x="218.255862" y="267.179018" style="fill: #bcbd22; stroke: #bcbd22"/>
     <use xlink:href="#mfce7b8500b" x="236.958193" y="236.353214" style="fill: #bcbd22; stroke: #bcbd22"/>
     <use xlink:href="#mfce7b8500b" x="255.660524" y="211.69257" style="fill: #bcbd22; stroke: #bcbd22"/>
     <use xlink:href="#mfce7b8500b" x="274.362855" y="162.371284" style="fill: #bcbd22; stroke: #bcbd22"/>
     <use xlink:href="#mfce7b8500b" x="293.065186" y="147.574898" style="fill: #bcbd22; stroke: #bcbd22"/>
     <use xlink:href="#mfce7b8500b" x="311.767517" y="95.787547" style="fill: #bcbd22; stroke: #bcbd22"/>
     <use xlink:href="#mfce7b8500b" x="367.87451" y="95.787547" style="fill: #bcbd22; stroke: #bcbd22"/>
     <use xlink:href="#mfce7b8500b" x="386.576841" y="95.787547" style="fill: #bcbd22; stroke: #bcbd22"/>
     <use xlink:href="#mfce7b8500b" x="405.279172" y="95.787547" style="fill: #bcbd22; stroke: #bcbd22"/>
     <use xlink:href="#mfce7b8500b" x="423.981503" y="95.787547" style="fill: #bcbd22; stroke: #bcbd22"/>
     <use xlink:href="#mfce7b8500b" x="442.683834" y="95.787547" style="fill: #bcbd22; stroke: #bcbd22"/>
     <use xlink:href="#mfce7b8500b" x="480.088497" y="95.787547" style="fill: #bcbd22; stroke: #bcbd22"/>
     <use xlink:href="#mfce7b8500b" x="498.790828" y="95.787547" style="fill: #bcbd22; stroke: #bcbd22"/>
     <use xlink:href="#mfce7b8500b" x="517.493159" y="95.787547" style="fill: #bcbd22; stroke: #bcbd22"/>
     <use xlink:href="#mfce7b8500b" x="536.19549" y="95.787547" style="fill: #bcbd22; stroke: #bcbd22"/>
     <use xlink:href="#mfce7b8500b" x="554.897821" y="95.787547" style="fill: #bcbd22; stroke: #bcbd22"/>
     <use xlink:href="#mfce7b8500b" x="573.600152" y="77.292064" style="fill: #bcbd22; stroke: #bcbd22"/>
     <use xlink:href="#mfce7b8500b" x="592.302483" y="77.292064" style="fill: #bcbd22; stroke: #bcbd22"/>
     <use xlink:href="#mfce7b8500b" x="611.004814" y="77.292064" style="fill: #bcbd22; stroke: #bcbd22"/>
     <use xlink:href="#mfce7b8500b" x="629.707145" y="77.292064" style="fill: #bcbd22; stroke: #bcbd22"/>
     <use xlink:href="#mfce7b8500b" x="648.409476" y="77.292064" style="fill: #bcbd22; stroke: #bcbd22"/>
     <use xlink:href="#mfce7b8500b" x="667.111807" y="77.292064" style="fill: #bcbd22; stroke: #bcbd22"/>
     <use xlink:href="#mfce7b8500b" x="685.814138" y="77.292064" style="fill: #bcbd22; stroke: #bcbd22"/>
     <use xlink:href="#mfce7b8500b" x="704.516469" y="77.292064" style="fill: #bcbd22; stroke: #bcbd22"/>
     <use xlink:href="#mfce7b8500b" x="723.2188" y="77.292064" style="fill: #bcbd22; stroke: #bcbd22"/>
     <use xlink:href="#mfce7b8500b" x="741.921131" y="77.292064" style="fill: #bcbd22; stroke: #bcbd22"/>
     <use xlink:href="#mfce7b8500b" x="760.623462" y="77.292064" style="fill: #bcbd22; stroke: #bcbd22"/>
     <use xlink:href="#mfce7b8500b" x="779.325793" y="77.292064" style="fill: #bcbd22; stroke: #bcbd22"/>
     <use xlink:href="#mfce7b8500b" x="798.028124" y="77.292064" style="fill: #bcbd22; stroke: #bcbd22"/>
     <use xlink:href="#mfce7b8500b" x="816.730455" y="77.292064" style="fill: #bcbd22; stroke: #bcbd22"/>
    </g>
   </g>
   <g id="patch_3">
    <path d="M 50.87 404.12 
L 50.87 26.88 
" style="fill: none; stroke: #000000; stroke-width: 0.8; stroke-linejoin: miter; stroke-linecap: square"/>
   </g>
   <g id="patch_4">
    <path d="M 853.2 404.12 
L 853.2 26.88 
" style="fill: none; stroke: #000000; stroke-width: 0.8; stroke-linejoin: miter; stroke-linecap: square"/>
   </g>
   <g id="patch_5">
    <path d="M 50.87 404.12 
L 853.2 404.12 
" style="fill: none; stroke: #000000; stroke-width: 0.8; stroke-linejoin: miter; stroke-linecap: square"/>
   </g>
   <g id="patch_6">
    <path d="M 50.87 26.88 
L 853.2 26.88 
" style="fill: none; stroke: #000000; stroke-width: 0.8; stroke-linejoin: miter; stroke-linecap: square"/>
   </g>
   <g id="text_14">
    <!-- Standings -->
    <g transform="translate(422.18125 20.88) scale(0.12 -0.12)">
     <defs>
      <path id="DejaVuSans-74" d="M 1172 4494 
L 1172 3500 
L 2356 3500 
L 2356 3053 
L 1172 3053 
L 1172 1153 
Q 1172 725 1289 603 
Q 1406 481 1766 481 
L 2356 481 
L 2356 0 
L 1766 0 
Q 1100 0 847 248 
Q 594 497 594 1153 
L 594 3053 
L 172 3053 
L 172 3500 
L 594 3500 
L 594 4494 
L 1172 4494 
z
" transform="scale(0.015625)"/>
      <path id="DejaVuSans-61" d="M 2194 1759 
Q 1497 1759 1228 1600 
Q 959 1441 959 1056 
Q 959 750 1161 570 
Q 1363 391 1709 391 
Q 2188 391 2477 730 
Q 2766 1069 2766 1631 
L 2766 1759 
L 2194 1759 
z
M 3341 1997 
L 3341 0 
L 2766 0 
L 2766 531 
Q 2569 213 2275 61 
Q 1981 -91 1556 -91 
Q 1019 -91 701 211 
Q 384 513 384 1019 
Q 384 1609 779 1909 
Q 1175 2209 1959 2209 
L 2766 2209 
L 2766 2266 
Q 2766 2663 2505 2880 
Q 2244 3097 1772 3097 
Q 1472 3097 1187 3025 
Q 903 2953 641 2809 
L 641 3341 
Q 956 3463 1253 3523 
Q 1550 3584 1831 3584 
Q 2591 3584 2966 3190 
Q 3341 2797 3341 1997 
z
" transform="scale(0.015625)"/>
      <path id="DejaVuSans-6e" d="M 3513 2113 
L 3513 0 
L 2938 0 
L 2938 2094 
Q 2938 2591 2744 2837 
Q 2550 3084 2163 3084 
Q 1697 3084 1428 2787 
Q 1159 2491 1159 1978 
L 1159 0 
L 581 0 
L 581 3500 
L 1159 3500 
L 1159 2956 
Q 1366 3272 1645 3428 
Q 1925 3584 2291 3584 
Q 2894 3584 3203 3211 
Q 3513 2838 3513 2113 
z
" transform="scale(0.015625)"/>
      <path id="DejaVuSans-64" d="M 2906 2969 
L 2906 4863 
L 3481 4863 
L 3481 0 
L 2906 0 
L 2906 525 
Q 2725 213 2448 61 
Q 2172 -91 1784 -91 
Q 1150 -91 751 415 
Q 353 922 353 1747 
Q 353 2572 751 3078 
Q 1150 3584 1784 3584 
Q 2172 3584 2448 3432 
Q 2725 3281 2906 2969 
z
M 947 1747 
Q 947 1113 1208 752 
Q 1469 391 1925 391 
Q 2381 391 2643 752 
Q 2906 1113 2906 1747 
Q 2906 2381 2643 2742 
Q 2381 3103 1925 3103 
Q 1469 3103 1208 2742 
Q 947 2381 947 1747 
z
" transform="scale(0.015625)"/>
      <path id="DejaVuSans-69" d="M 603 3500 
L 1178 3500 
L 1178 0 
L 603 0 
L 603 3500 
z
M 603 4863 
L 1178 4863 
L 1178 4134 
L 603 4134 
L 603 4863 
z
" transform="scale(0.015625)"/>
      <path id="DejaVuSans-67" d="M 2906 1791 
Q 2906 2416 2648 2759 
Q 2391 3103 1925 3103 
Q 1463 3103 1205 2759 
Q 947 2416 947 1791 
Q 947 1169 1205 825 
Q 1463 481 1925 481 
Q 2391 481 2648 825 
Q 2906 1169 2906 1791 
z
M 3481 434 
Q 3481 -459 3084 -895 
Q 2688 -1331 1869 -1331 
Q 1566 -1331 1297 -1286 
Q 1028 -1241 775 -1147 
L 775 -588 
Q 1028 -725 1275 -790 
Q 1522 -856 1778 -856 
Q 2344 -856 2625 -561 
Q 2906 -266 2906 331 
L 2906 616 
Q 2728 306 2450 153 
Q 2172 0 1784 0 
Q 1141 0 747 490 
Q 353 981 353 1791 
Q 353 2603 747 3093 
Q 1141 3584 1784 3584 
Q 2172 3584 2450 3431 
Q 2728 3278 2906 2969 
L 2906 3500 
L 3481 3500 
L 3481 434 
z
" transform="scale(0.015625)"/>
      <path id="DejaVuSans-73" d="M 2834 3397 
L 2834 2853 
Q 2591 2978 2328 3040 
Q 2066 3103 1784 3103 
Q 1356 3103 1142 2972 
Q 928 2841 928 2578 
Q 928 2378 1081 2264 
Q 1234 2150 1697 2047 
L 1894 2003 
Q 2506 1872 2764 1633 
Q 3022 1394 3022 966 
Q 3022 478 2636 193 
Q 2250 -91 1575 -91 
Q 1294 -91 989 -36 
Q 684 19 347 128 
L 347 722 
Q 666 556 975 473 
Q 1284 391 1588 391 
Q 1994 391 2212 530 
Q 2431 669 2431 922 
Q 2431 1156 2273 1281 
Q 2116 1406 1581 1522 
L 1381 1569 
Q 847 1681 609 1914 
Q 372 2147 372 2553 
Q 372 3047 722 3315 
Q 1072 3584 1716 3584 
Q 2034 3584 2315 3537 
Q 2597 3491 2834 3397 
z
" transform="scale(0.015625)"/>
     </defs>
     <use xlink:href="#DejaVuSans-53"/>
     <use xlink:href="#DejaVuSans-74" x="63.476562"/>
     <use xlink:href="#DejaVuSans-61" x="102.685547"/>
     <use xlink:href="#DejaVuSans-6e" x="163.964844"/>
     <use xlink:href="#DejaVuSans-64" x="227.34375"/>
     <use xlink:href="#DejaVuSans-69" x="290.820312"/>
     <use xlink:href="#DejaVuSans-6e" x="318.603516"/>
     <use xlink:href="#DejaVuSans-67" x="381.982422"/>
     <use xlink:href="#DejaVuSans-73" x="445.458984"/>
    </g>
   </g>
   <g id="legend_1">
    <g id="patch_7">
     <path d="M 57.87 166.983125 
L 149.490313 166.983125 
Q 151.490313 166.983125 151.490313 164.983125 
L 151.490313 33.88 
Q 151.490313 31.88 149.490313 31.88 
L 57.87 31.88 
Q 55.87 31.88 55.87 33.88 
L 55.87 164.983125 
Q 55.87 166.983125 57.87 166.983125 
z
" style="fill: #ffffff; opacity: 0.8; stroke: #cccccc; stroke-linejoin: miter"/>
    </g>
    <g id="line2d_34">
     <path d="M 59.87 39.978437 
L 69.87 39.978437 
L 79.87 39.978437 
" style="fill: none; stroke: #1f77b4; stroke-width: 1.5; stroke-linecap: square"/>
     <g>
      <use xlink:href="#m32e3371677" x="69.87" y="39.978437" style="fill: #1f77b4; stroke: #1f77b4"/>
     </g>
    </g>
    <g id="text_15">
     <!-- Martin Ba -->
     <g transform="translate(87.87 43.478437) scale(0.1 -0.1)">
      <defs>
       <path id="DejaVuSans-4d" d="M 628 4666 
L 1569 4666 
L 2759 1491 
L 3956 4666 
L 4897 4666 
L 4897 0 
L 4281 0 
L 4281 4097 
L 3078 897 
L 2444 897 
L 1241 4097 
L 1241 0 
L 628 0 
L 628 4666 
z
" transform="scale(0.015625)"/>
       <path id="DejaVuSans-20" transform="scale(0.015625)"/>
       <path id="DejaVuSans-42" d="M 1259 2228 
L 1259 519 
L 2272 519 
Q 2781 519 3026 730 
Q 3272 941 3272 1375 
Q 3272 1813 3026 2020 
Q 2781 2228 2272 2228 
L 1259 2228 
z
M 1259 4147 
L 1259 2741 
L 2194 2741 
Q 2656 2741 2882 2914 
Q 3109 3088 3109 3444 
Q 3109 3797 2882 3972 
Q 2656 4147 2194 4147 
L 1259 4147 
z
M 628 4666 
L 2241 4666 
Q 2963 4666 3353 4366 
Q 3744 4066 3744 3513 
Q 3744 3084 3544 2831 
Q 3344 2578 2956 2516 
Q 3422 2416 3680 2098 
Q 3938 1781 3938 1306 
Q 3938 681 3513 340 
Q 3088 0 2303 0 
L 628 0 
L 628 4666 
z
" transform="scale(0.015625)"/>
      </defs>
      <use xlink:href="#DejaVuSans-4d"/>
      <use xlink:href="#DejaVuSans-61" x="86.279297"/>
      <use xlink:href="#DejaVuSans-72" x="147.558594"/>
      <use xlink:href="#DejaVuSans-74" x="188.671875"/>
      <use xlink:href="#DejaVuSans-69" x="227.880859"/>
      <use xlink:href="#DejaVuSans-6e" x="255.664062"/>
      <use xlink:href="#DejaVuSans-20" x="319.042969"/>
      <use xlink:href="#DejaVuSans-42" x="350.830078"/>
      <use xlink:href="#DejaVuSans-61" x="419.433594"/>
     </g>
    </g>
    <g id="line2d_35">
     <path d="M 59.87 54.656563 
L 69.87 54.656563 
L 79.87 54.656563 
" style="fill: none; stroke: #ff7f0e; stroke-width: 1.5; stroke-linecap: square"/>
     <g>
      <use xlink:href="#m52a087fe2e" x="69.87" y="54.656563" style="fill: #ff7f0e; stroke: #ff7f0e"/>
     </g>
    </g>
    <g id="text_16">
     <!-- Maren St -->
     <g transform="translate(87.87 58.156563) scale(0.1 -0.1)">
      <use xlink:href="#DejaVuSans-4d"/>
      <use xlink:href="#DejaVuSans-61" x="86.279297"/>
      <use xlink:href="#DejaVuSans-72" x="147.558594"/>
      <use xlink:href="#DejaVuSans-65" x="186.421875"/>
      <use xlink:href="#DejaVuSans-6e" x="247.945312"/>
      <use xlink:href="#DejaVuSans-20" x="311.324219"/>
      <use xlink:href="#DejaVuSans-53" x="343.111328"/>
      <use xlink:href="#DejaVuSans-74" x="406.587891"/>
     </g>
    </g>
    <g id="line2d_36">
     <path d="M 59.87 69.334687 
L 69.87 69.334687 
L 79.87 69.334687 
" style="fill: none; stroke: #2ca02c; stroke-width: 1.5; stroke-linecap: square"/>
     <g>
      <use xlink:href="#mc95919ac44" x="69.87" y="69.334687" style="fill: #2ca02c; stroke: #2ca02c"/>
     </g>
    </g>
    <g id="text_17">
     <!-- Jakob Ve -->
     <g transform="translate(87.87 72.834687) scale(0.1 -0.1)">
      <defs>
       <path id="DejaVuSans-4a" d="M 628 4666 
L 1259 4666 
L 1259 325 
Q 1259 -519 939 -900 
Q 619 -1281 -91 -1281 
L -331 -1281 
L -331 -750 
L -134 -750 
Q 284 -750 456 -515 
Q 628 -281 628 325 
L 628 4666 
z
" transform="scale(0.015625)"/>
       <path id="DejaVuSans-6b" d="M 581 4863 
L 1159 4863 
L 1159 1991 
L 2875 3500 
L 3609 3500 
L 1753 1863 
L 3688 0 
L 2938 0 
L 1159 1709 
L 1159 0 
L 581 0 
L 581 4863 
z
" transform="scale(0.015625)"/>
       <path id="DejaVuSans-62" d="M 3116 1747 
Q 3116 2381 2855 2742 
Q 2594 3103 2138 3103 
Q 1681 3103 1420 2742 
Q 1159 2381 1159 1747 
Q 1159 1113 1420 752 
Q 1681 391 2138 391 
Q 2594 391 2855 752 
Q 3116 1113 3116 1747 
z
M 1159 2969 
Q 1341 3281 1617 3432 
Q 1894 3584 2278 3584 
Q 2916 3584 3314 3078 
Q 3713 2572 3713 1747 
Q 3713 922 3314 415 
Q 2916 -91 2278 -91 
Q 1894 -91 1617 61 
Q 1341 213 1159 525 
L 1159 0 
L 581 0 
L 581 4863 
L 1159 4863 
L 1159 2969 
z
" transform="scale(0.015625)"/>
       <path id="DejaVuSans-56" d="M 1831 0 
L 50 4666 
L 709 4666 
L 2188 738 
L 3669 4666 
L 4325 4666 
L 2547 0 
L 1831 0 
z
" transform="scale(0.015625)"/>
      </defs>
      <use xlink:href="#DejaVuSans-4a"/>
      <use xlink:href="#DejaVuSans-61" x="29.492188"/>
      <use xlink:href="#DejaVuSans-6b" x="90.771484"/>
      <use xlink:href="#DejaVuSans-6f" x="145.056641"/>
      <use xlink:href="#DejaVuSans-62" x="206.238281"/>
      <use xlink:href="#DejaVuSans-20" x="269.714844"/>
      <use xlink:href="#DejaVuSans-56" x="301.501953"/>
      <use xlink:href="#DejaVuSans-65" x="362.160156"/>
     </g>
    </g>
    <g id="line2d_37">
     <path d="M 59.87 84.012812 
L 69.87 84.012812 
L 79.87 84.012812 
" style="fill: none; stroke: #d62728; stroke-width: 1.5; stroke-linecap: square"/>
     <g>
      <use xlink:href="#m14189ff9ad" x="69.87" y="84.012812" style="fill: #d62728; stroke: #d62728"/>
     </g>
    </g>
    <g id="text_18">
     <!-- Mathas Po -->
     <g transform="translate(87.87 87.512812) scale(0.1 -0.1)">
      <defs>
       <path id="DejaVuSans-68" d="M 3513 2113 
L 3513 0 
L 2938 0 
L 2938 2094 
Q 2938 2591 2744 2837 
Q 2550 3084 2163 3084 
Q 1697 3084 1428 2787 
Q 1159 2491 1159 1978 
L 1159 0 
L 581 0 
L 581 4863 
L 1159 4863 
L 1159 2956 
Q 1366 3272 1645 3428 
Q 1925 3584 2291 3584 
Q 2894 3584 3203 3211 
Q 3513 2838 3513 2113 
z
" transform="scale(0.015625)"/>
       <path id="DejaVuSans-50" d="M 1259 4147 
L 1259 2394 
L 2053 2394 
Q 2494 2394 2734 2622 
Q 2975 2850 2975 3272 
Q 2975 3691 2734 3919 
Q 2494 4147 2053 4147 
L 1259 4147 
z
M 628 4666 
L 2053 4666 
Q 2838 4666 3239 4311 
Q 3641 3956 3641 3272 
Q 3641 2581 3239 2228 
Q 2838 1875 2053 1875 
L 1259 1875 
L 1259 0 
L 628 0 
L 628 4666 
z
" transform="scale(0.015625)"/>
      </defs>
      <use xlink:href="#DejaVuSans-4d"/>
      <use xlink:href="#DejaVuSans-61" x="86.279297"/>
      <use xlink:href="#DejaVuSans-74" x="147.558594"/>
      <use xlink:href="#DejaVuSans-68" x="186.767578"/>
      <use xlink:href="#DejaVuSans-61" x="250.146484"/>
      <use xlink:href="#DejaVuSans-73" x="311.425781"/>
      <use xlink:href="#DejaVuSans-20" x="363.525391"/>
      <use xlink:href="#DejaVuSans-50" x="395.3125"/>
      <use xlink:href="#DejaVuSans-6f" x="451.990234"/>
     </g>
    </g>
    <g id="line2d_38">
     <path d="M 59.87 98.690938 
L 69.87 98.690938 
L 79.87 98.690938 
" style="fill: none; stroke: #9467bd; stroke-width: 1.5; stroke-linecap: square"/>
     <g>
      <use xlink:href="#mc8a12a2119" x="69.87" y="98.690938" style="fill: #9467bd; stroke: #9467bd"/>
     </g>
    </g>
    <g id="text_19">
     <!-- Christian Gr -->
     <g transform="translate(87.87 102.190938) scale(0.1 -0.1)">
      <defs>
       <path id="DejaVuSans-43" d="M 4122 4306 
L 4122 3641 
Q 3803 3938 3442 4084 
Q 3081 4231 2675 4231 
Q 1875 4231 1450 3742 
Q 1025 3253 1025 2328 
Q 1025 1406 1450 917 
Q 1875 428 2675 428 
Q 3081 428 3442 575 
Q 3803 722 4122 1019 
L 4122 359 
Q 3791 134 3420 21 
Q 3050 -91 2638 -91 
Q 1578 -91 968 557 
Q 359 1206 359 2328 
Q 359 3453 968 4101 
Q 1578 4750 2638 4750 
Q 3056 4750 3426 4639 
Q 3797 4528 4122 4306 
z
" transform="scale(0.015625)"/>
       <path id="DejaVuSans-47" d="M 3809 666 
L 3809 1919 
L 2778 1919 
L 2778 2438 
L 4434 2438 
L 4434 434 
Q 4069 175 3628 42 
Q 3188 -91 2688 -91 
Q 1594 -91 976 548 
Q 359 1188 359 2328 
Q 359 3472 976 4111 
Q 1594 4750 2688 4750 
Q 3144 4750 3555 4637 
Q 3966 4525 4313 4306 
L 4313 3634 
Q 3963 3931 3569 4081 
Q 3175 4231 2741 4231 
Q 1884 4231 1454 3753 
Q 1025 3275 1025 2328 
Q 1025 1384 1454 906 
Q 1884 428 2741 428 
Q 3075 428 3337 486 
Q 3600 544 3809 666 
z
" transform="scale(0.015625)"/>
      </defs>
      <use xlink:href="#DejaVuSans-43"/>
      <use xlink:href="#DejaVuSans-68" x="69.824219"/>
      <use xlink:href="#DejaVuSans-72" x="133.203125"/>
      <use xlink:href="#DejaVuSans-69" x="174.316406"/>
      <use xlink:href="#DejaVuSans-73" x="202.099609"/>
      <use xlink:href="#DejaVuSans-74" x="254.199219"/>
      <use xlink:href="#DejaVuSans-69" x="293.408203"/>
      <use xlink:href="#DejaVuSans-61" x="321.191406"/>
      <use xlink:href="#DejaVuSans-6e" x="382.470703"/>
      <use xlink:href="#DejaVuSans-20" x="445.849609"/>
      <use xlink:href="#DejaVuSans-47" x="477.636719"/>
      <use xlink:href="#DejaVuSans-72" x="555.126953"/>
     </g>
    </g>
    <g id="line2d_39">
     <path d="M 59.87 113.369062 
L 69.87 113.369062 
L 79.87 113.369062 
" style="fill: none; stroke: #8c564b; stroke-width: 1.5; stroke-linecap: square"/>
     <g>
      <use xlink:href="#m889a543560" x="69.87" y="113.369062" style="fill: #8c564b; stroke: #8c564b"/>
     </g>
    </g>
    <g id="text_20">
     <!-- RIKKE GR -->
     <g transform="translate(87.87 116.869062) scale(0.1 -0.1)">
      <defs>
       <path id="DejaVuSans-52" d="M 2841 2188 
Q 3044 2119 3236 1894 
Q 3428 1669 3622 1275 
L 4263 0 
L 3584 0 
L 2988 1197 
Q 2756 1666 2539 1819 
Q 2322 1972 1947 1972 
L 1259 1972 
L 1259 0 
L 628 0 
L 628 4666 
L 2053 4666 
Q 2853 4666 3247 4331 
Q 3641 3997 3641 3322 
Q 3641 2881 3436 2590 
Q 3231 2300 2841 2188 
z
M 1259 4147 
L 1259 2491 
L 2053 2491 
Q 2509 2491 2742 2702 
Q 2975 2913 2975 3322 
Q 2975 3731 2742 3939 
Q 2509 4147 2053 4147 
L 1259 4147 
z
" transform="scale(0.015625)"/>
       <path id="DejaVuSans-49" d="M 628 4666 
L 1259 4666 
L 1259 0 
L 628 0 
L 628 4666 
z
" transform="scale(0.015625)"/>
       <path id="DejaVuSans-4b" d="M 628 4666 
L 1259 4666 
L 1259 2694 
L 3353 4666 
L 4166 4666 
L 1850 2491 
L 4331 0 
L 3500 0 
L 1259 2247 
L 1259 0 
L 628 0 
L 628 4666 
z
" transform="scale(0.015625)"/>
       <path id="DejaVuSans-45" d="M 628 4666 
L 3578 4666 
L 3578 4134 
L 1259 4134 
L 1259 2753 
L 3481 2753 
L 3481 2222 
L 1259 2222 
L 1259 531 
L 3634 531 
L 3634 0 
L 628 0 
L 628 4666 
z
" transform="scale(0.015625)"/>
      </defs>
      <use xlink:href="#DejaVuSans-52"/>
      <use xlink:href="#DejaVuSans-49" x="69.482422"/>
      <use xlink:href="#DejaVuSans-4b" x="98.974609"/>
      <use xlink:href="#DejaVuSans-4b" x="164.550781"/>
      <use xlink:href="#DejaVuSans-45" x="230.126953"/>
      <use xlink:href="#DejaVuSans-20" x="293.310547"/>
      <use xlink:href="#DejaVuSans-47" x="325.097656"/>
      <use xlink:href="#DejaVuSans-52" x="402.587891"/>
     </g>
    </g>
    <g id="line2d_40">
     <path d="M 59.87 128.047187 
L 69.87 128.047187 
L 79.87 128.047187 
" style="fill: none; stroke: #e377c2; stroke-width: 1.5; stroke-linecap: square"/>
     <g>
      <use xlink:href="#m737b432b28" x="69.87" y="128.047187" style="fill: #e377c2; stroke: #e377c2"/>
     </g>
    </g>
    <g id="text_21">
     <!-- lea bo -->
     <g transform="translate(87.87 131.547187) scale(0.1 -0.1)">
      <defs>
       <path id="DejaVuSans-6c" d="M 603 4863 
L 1178 4863 
L 1178 0 
L 603 0 
L 603 4863 
z
" transform="scale(0.015625)"/>
      </defs>
      <use xlink:href="#DejaVuSans-6c"/>
      <use xlink:href="#DejaVuSans-65" x="27.783203"/>
      <use xlink:href="#DejaVuSans-61" x="89.306641"/>
      <use xlink:href="#DejaVuSans-20" x="150.585938"/>
      <use xlink:href="#DejaVuSans-62" x="182.373047"/>
      <use xlink:href="#DejaVuSans-6f" x="245.849609"/>
     </g>
    </g>
    <g id="line2d_41">
     <path d="M 59.87 142.725312 
L 69.87 142.725312 
L 79.87 142.725312 
" style="fill: none; stroke: #7f7f7f; stroke-width: 1.5; stroke-linecap: square"/>
     <g>
      <use xlink:href="#mef90099daa" x="69.87" y="142.725312" style="fill: #7f7f7f; stroke: #7f7f7f"/>
     </g>
    </g>
    <g id="text_22">
     <!-- Andreas Ku -->
     <g transform="translate(87.87 146.225312) scale(0.1 -0.1)">
      <defs>
       <path id="DejaVuSans-41" d="M 2188 4044 
L 1331 1722 
L 3047 1722 
L 2188 4044 
z
M 1831 4666 
L 2547 4666 
L 4325 0 
L 3669 0 
L 3244 1197 
L 1141 1197 
L 716 0 
L 50 0 
L 1831 4666 
z
" transform="scale(0.015625)"/>
       <path id="DejaVuSans-75" d="M 544 1381 
L 544 3500 
L 1119 3500 
L 1119 1403 
Q 1119 906 1312 657 
Q 1506 409 1894 409 
Q 2359 409 2629 706 
Q 2900 1003 2900 1516 
L 2900 3500 
L 3475 3500 
L 3475 0 
L 2900 0 
L 2900 538 
Q 2691 219 2414 64 
Q 2138 -91 1772 -91 
Q 1169 -91 856 284 
Q 544 659 544 1381 
z
M 1991 3584 
L 1991 3584 
z
" transform="scale(0.015625)"/>
      </defs>
      <use xlink:href="#DejaVuSans-41"/>
      <use xlink:href="#DejaVuSans-6e" x="68.408203"/>
      <use xlink:href="#DejaVuSans-64" x="131.787109"/>
      <use xlink:href="#DejaVuSans-72" x="195.263672"/>
      <use xlink:href="#DejaVuSans-65" x="234.126953"/>
      <use xlink:href="#DejaVuSans-61" x="295.650391"/>
      <use xlink:href="#DejaVuSans-73" x="356.929688"/>
      <use xlink:href="#DejaVuSans-20" x="409.029297"/>
      <use xlink:href="#DejaVuSans-4b" x="440.816406"/>
      <use xlink:href="#DejaVuSans-75" x="501.392578"/>
     </g>
    </g>
    <g id="line2d_42">
     <path d="M 59.87 157.403437 
L 69.87 157.403437 
L 79.87 157.403437 
" style="fill: none; stroke: #bcbd22; stroke-width: 1.5; stroke-linecap: square"/>
     <g>
      <use xlink:href="#mfce7b8500b" x="69.87" y="157.403437" style="fill: #bcbd22; stroke: #bcbd22"/>
     </g>
    </g>
    <g id="text_23">
     <!-- Salty Gu -->
     <g transform="translate(87.87 160.903437) scale(0.1 -0.1)">
      <defs>
       <path id="DejaVuSans-79" d="M 2059 -325 
Q 1816 -950 1584 -1140 
Q 1353 -1331 966 -1331 
L 506 -1331 
L 506 -850 
L 844 -850 
Q 1081 -850 1212 -737 
Q 1344 -625 1503 -206 
L 1606 56 
L 191 3500 
L 800 3500 
L 1894 763 
L 2988 3500 
L 3597 3500 
L 2059 -325 
z
" transform="scale(0.015625)"/>
      </defs>
      <use xlink:href="#DejaVuSans-53"/>
      <use xlink:href="#DejaVuSans-61" x="63.476562"/>
      <use xlink:href="#DejaVuSans-6c" x="124.755859"/>
      <use xlink:href="#DejaVuSans-74" x="152.539062"/>
      <use xlink:href="#DejaVuSans-79" x="191.748047"/>
      <use xlink:href="#DejaVuSans-20" x="250.927734"/>
      <use xlink:href="#DejaVuSans-47" x="282.714844"/>
      <use xlink:href="#DejaVuSans-75" x="360.205078"/>
     </g>
    </g>
   </g>
  </g>
 </g>
 <defs>
  <clipPath id="p79e9aaaa62">
   <rect x="50.87" y="26.88" width="802.33" height="377.24"/>
  </clipPath>
 </defs>
</svg>
