<?xml version="1.0" encoding="utf-8" standalone="no"?>
<!DOCTYPE svg PUBLIC "-//W3C//DTD SVG 1.1//EN"
  "http://www.w3.org/Graphics/SVG/1.1/DTD/svg11.dtd">
<svg xmlns:xlink="http://www.w3.org/1999/xlink" width="864pt" height="432pt" viewBox="0 0 864 432" xmlns="http://www.w3.org/2000/svg" version="1.1">
 <metadata>
  <rdf:RDF xmlns:dc="http://purl.org/dc/elements/1.1/" xmlns:cc="http://creativecommons.org/ns#" xmlns:rdf="http://www.w3.org/1999/02/22-rdf-syntax-ns#">
   <cc:Work>
    <dc:type rdf:resource="http://purl.org/dc/dcmitype/StillImage"/>
    <dc:date>2024-07-10T23:26:59.649112</dc:date>
    <dc:format>image/svg+xml</dc:format>
    <dc:creator>
     <cc:Agent>
      <dc:title>Matplotlib v3.9.1, https://matplotlib.org/</dc:title>
     </cc:Agent>
    </dc:creator>
   </cc:Work>
  </rdf:RDF>
 </metadata>
 <defs>
  <style type="text/css">*{stroke-linejoin: round; stroke-linecap: butt}</style>
 </defs>
 <g id="figure_1">
  <g id="patch_1">
   <path d="M 0 432 
L 864 432 
L 864 0 
L 0 0 
z
" style="fill: #ffffff"/>
  </g>
  <g id="axes_1">
   <g id="patch_2">
    <path d="M 50.87 404.12 
L 853.2 404.12 
L 853.2 26.88 
L 50.87 26.88 
z
" style="fill: #ffffff"/>
   </g>
   <g id="matplotlib.axis_1">
    <g id="xtick_1">
     <g id="line2d_1">
      <path d="M 59.286049 404.12 
L 59.286049 26.88 
" clip-path="url(#pd6eb3d9087)" style="fill: none; stroke-dasharray: 2.96,1.28; stroke-dashoffset: 0; stroke: #b0b0b0; stroke-width: 0.8"/>
     </g>
     <g id="line2d_2">
      <defs>
       <path id="m27ea7a0aea" d="M 0 0 
L 0 3.5 
" style="stroke: #000000; stroke-width: 0.8"/>
      </defs>
      <g>
       <use xlink:href="#m27ea7a0aea" x="59.286049" y="404.12" style="stroke: #000000; stroke-width: 0.8"/>
      </g>
     </g>
     <g id="text_1">
      <!-- 2024-06-13 -->
      <g transform="translate(30.228236 418.718437) scale(0.1 -0.1)">
       <defs>
        <path id="DejaVuSans-32" d="M 1228 531 
L 3431 531 
L 3431 0 
L 469 0 
L 469 531 
Q 828 903 1448 1529 
Q 2069 2156 2228 2338 
Q 2531 2678 2651 2914 
Q 2772 3150 2772 3378 
Q 2772 3750 2511 3984 
Q 2250 4219 1831 4219 
Q 1534 4219 1204 4116 
Q 875 4013 500 3803 
L 500 4441 
Q 881 4594 1212 4672 
Q 1544 4750 1819 4750 
Q 2544 4750 2975 4387 
Q 3406 4025 3406 3419 
Q 3406 3131 3298 2873 
Q 3191 2616 2906 2266 
Q 2828 2175 2409 1742 
Q 1991 1309 1228 531 
z
" transform="scale(0.015625)"/>
        <path id="DejaVuSans-30" d="M 2034 4250 
Q 1547 4250 1301 3770 
Q 1056 3291 1056 2328 
Q 1056 1369 1301 889 
Q 1547 409 2034 409 
Q 2525 409 2770 889 
Q 3016 1369 3016 2328 
Q 3016 3291 2770 3770 
Q 2525 4250 2034 4250 
z
M 2034 4750 
Q 2819 4750 3233 4129 
Q 3647 3509 3647 2328 
Q 3647 1150 3233 529 
Q 2819 -91 2034 -91 
Q 1250 -91 836 529 
Q 422 1150 422 2328 
Q 422 3509 836 4129 
Q 1250 4750 2034 4750 
z
" transform="scale(0.015625)"/>
        <path id="DejaVuSans-34" d="M 2419 4116 
L 825 1625 
L 2419 1625 
L 2419 4116 
z
M 2253 4666 
L 3047 4666 
L 3047 1625 
L 3713 1625 
L 3713 1100 
L 3047 1100 
L 3047 0 
L 2419 0 
L 2419 1100 
L 313 1100 
L 313 1709 
L 2253 4666 
z
" transform="scale(0.015625)"/>
        <path id="DejaVuSans-2d" d="M 313 2009 
L 1997 2009 
L 1997 1497 
L 313 1497 
L 313 2009 
z
" transform="scale(0.015625)"/>
        <path id="DejaVuSans-36" d="M 2113 2584 
Q 1688 2584 1439 2293 
Q 1191 2003 1191 1497 
Q 1191 994 1439 701 
Q 1688 409 2113 409 
Q 2538 409 2786 701 
Q 3034 994 3034 1497 
Q 3034 2003 2786 2293 
Q 2538 2584 2113 2584 
z
M 3366 4563 
L 3366 3988 
Q 3128 4100 2886 4159 
Q 2644 4219 2406 4219 
Q 1781 4219 1451 3797 
Q 1122 3375 1075 2522 
Q 1259 2794 1537 2939 
Q 1816 3084 2150 3084 
Q 2853 3084 3261 2657 
Q 3669 2231 3669 1497 
Q 3669 778 3244 343 
Q 2819 -91 2113 -91 
Q 1303 -91 875 529 
Q 447 1150 447 2328 
Q 447 3434 972 4092 
Q 1497 4750 2381 4750 
Q 2619 4750 2861 4703 
Q 3103 4656 3366 4563 
z
" transform="scale(0.015625)"/>
        <path id="DejaVuSans-31" d="M 794 531 
L 1825 531 
L 1825 4091 
L 703 3866 
L 703 4441 
L 1819 4666 
L 2450 4666 
L 2450 531 
L 3481 531 
L 3481 0 
L 794 0 
L 794 531 
z
" transform="scale(0.015625)"/>
        <path id="DejaVuSans-33" d="M 2597 2516 
Q 3050 2419 3304 2112 
Q 3559 1806 3559 1356 
Q 3559 666 3084 287 
Q 2609 -91 1734 -91 
Q 1441 -91 1130 -33 
Q 819 25 488 141 
L 488 750 
Q 750 597 1062 519 
Q 1375 441 1716 441 
Q 2309 441 2620 675 
Q 2931 909 2931 1356 
Q 2931 1769 2642 2001 
Q 2353 2234 1838 2234 
L 1294 2234 
L 1294 2753 
L 1863 2753 
Q 2328 2753 2575 2939 
Q 2822 3125 2822 3475 
Q 2822 3834 2567 4026 
Q 2313 4219 1838 4219 
Q 1578 4219 1281 4162 
Q 984 4106 628 3988 
L 628 4550 
Q 988 4650 1302 4700 
Q 1616 4750 1894 4750 
Q 2613 4750 3031 4423 
Q 3450 4097 3450 3541 
Q 3450 3153 3228 2886 
Q 3006 2619 2597 2516 
z
" transform="scale(0.015625)"/>
       </defs>
       <use xlink:href="#DejaVuSans-32"/>
       <use xlink:href="#DejaVuSans-30" x="63.623047"/>
       <use xlink:href="#DejaVuSans-32" x="127.246094"/>
       <use xlink:href="#DejaVuSans-34" x="190.869141"/>
       <use xlink:href="#DejaVuSans-2d" x="254.492188"/>
       <use xlink:href="#DejaVuSans-30" x="290.576172"/>
       <use xlink:href="#DejaVuSans-36" x="354.199219"/>
       <use xlink:href="#DejaVuSans-2d" x="417.822266"/>
       <use xlink:href="#DejaVuSans-31" x="453.90625"/>
       <use xlink:href="#DejaVuSans-33" x="517.529297"/>
      </g>
     </g>
    </g>
    <g id="xtick_2">
     <g id="line2d_3">
      <path d="M 171.500035 404.12 
L 171.500035 26.88 
" clip-path="url(#pd6eb3d9087)" style="fill: none; stroke-dasharray: 2.96,1.28; stroke-dashoffset: 0; stroke: #b0b0b0; stroke-width: 0.8"/>
     </g>
     <g id="line2d_4">
      <g>
       <use xlink:href="#m27ea7a0aea" x="171.500035" y="404.12" style="stroke: #000000; stroke-width: 0.8"/>
      </g>
     </g>
     <g id="text_2">
      <!-- 2024-06-17 -->
      <g transform="translate(142.442222 418.718437) scale(0.1 -0.1)">
       <defs>
        <path id="DejaVuSans-37" d="M 525 4666 
L 3525 4666 
L 3525 4397 
L 1831 0 
L 1172 0 
L 2766 4134 
L 525 4134 
L 525 4666 
z
" transform="scale(0.015625)"/>
       </defs>
       <use xlink:href="#DejaVuSans-32"/>
       <use xlink:href="#DejaVuSans-30" x="63.623047"/>
       <use xlink:href="#DejaVuSans-32" x="127.246094"/>
       <use xlink:href="#DejaVuSans-34" x="190.869141"/>
       <use xlink:href="#DejaVuSans-2d" x="254.492188"/>
       <use xlink:href="#DejaVuSans-30" x="290.576172"/>
       <use xlink:href="#DejaVuSans-36" x="354.199219"/>
       <use xlink:href="#DejaVuSans-2d" x="417.822266"/>
       <use xlink:href="#DejaVuSans-31" x="453.90625"/>
       <use xlink:href="#DejaVuSans-37" x="517.529297"/>
      </g>
     </g>
    </g>
    <g id="xtick_3">
     <g id="line2d_5">
      <path d="M 283.714021 404.12 
L 283.714021 26.88 
" clip-path="url(#pd6eb3d9087)" style="fill: none; stroke-dasharray: 2.96,1.28; stroke-dashoffset: 0; stroke: #b0b0b0; stroke-width: 0.8"/>
     </g>
     <g id="line2d_6">
      <g>
       <use xlink:href="#m27ea7a0aea" x="283.714021" y="404.12" style="stroke: #000000; stroke-width: 0.8"/>
      </g>
     </g>
     <g id="text_3">
      <!-- 2024-06-21 -->
      <g transform="translate(254.656208 418.718437) scale(0.1 -0.1)">
       <use xlink:href="#DejaVuSans-32"/>
       <use xlink:href="#DejaVuSans-30" x="63.623047"/>
       <use xlink:href="#DejaVuSans-32" x="127.246094"/>
       <use xlink:href="#DejaVuSans-34" x="190.869141"/>
       <use xlink:href="#DejaVuSans-2d" x="254.492188"/>
       <use xlink:href="#DejaVuSans-30" x="290.576172"/>
       <use xlink:href="#DejaVuSans-36" x="354.199219"/>
       <use xlink:href="#DejaVuSans-2d" x="417.822266"/>
       <use xlink:href="#DejaVuSans-32" x="453.90625"/>
       <use xlink:href="#DejaVuSans-31" x="517.529297"/>
      </g>
     </g>
    </g>
    <g id="xtick_4">
     <g id="line2d_7">
      <path d="M 395.928007 404.12 
L 395.928007 26.88 
" clip-path="url(#pd6eb3d9087)" style="fill: none; stroke-dasharray: 2.96,1.28; stroke-dashoffset: 0; stroke: #b0b0b0; stroke-width: 0.8"/>
     </g>
     <g id="line2d_8">
      <g>
       <use xlink:href="#m27ea7a0aea" x="395.928007" y="404.12" style="stroke: #000000; stroke-width: 0.8"/>
      </g>
     </g>
     <g id="text_4">
      <!-- 2024-06-25 -->
      <g transform="translate(366.870194 418.718437) scale(0.1 -0.1)">
       <defs>
        <path id="DejaVuSans-35" d="M 691 4666 
L 3169 4666 
L 3169 4134 
L 1269 4134 
L 1269 2991 
Q 1406 3038 1543 3061 
Q 1681 3084 1819 3084 
Q 2600 3084 3056 2656 
Q 3513 2228 3513 1497 
Q 3513 744 3044 326 
Q 2575 -91 1722 -91 
Q 1428 -91 1123 -41 
Q 819 9 494 109 
L 494 744 
Q 775 591 1075 516 
Q 1375 441 1709 441 
Q 2250 441 2565 725 
Q 2881 1009 2881 1497 
Q 2881 1984 2565 2268 
Q 2250 2553 1709 2553 
Q 1456 2553 1204 2497 
Q 953 2441 691 2322 
L 691 4666 
z
" transform="scale(0.015625)"/>
       </defs>
       <use xlink:href="#DejaVuSans-32"/>
       <use xlink:href="#DejaVuSans-30" x="63.623047"/>
       <use xlink:href="#DejaVuSans-32" x="127.246094"/>
       <use xlink:href="#DejaVuSans-34" x="190.869141"/>
       <use xlink:href="#DejaVuSans-2d" x="254.492188"/>
       <use xlink:href="#DejaVuSans-30" x="290.576172"/>
       <use xlink:href="#DejaVuSans-36" x="354.199219"/>
       <use xlink:href="#DejaVuSans-2d" x="417.822266"/>
       <use xlink:href="#DejaVuSans-32" x="453.90625"/>
       <use xlink:href="#DejaVuSans-35" x="517.529297"/>
      </g>
     </g>
    </g>
    <g id="xtick_5">
     <g id="line2d_9">
      <path d="M 508.141993 404.12 
L 508.141993 26.88 
" clip-path="url(#pd6eb3d9087)" style="fill: none; stroke-dasharray: 2.96,1.28; stroke-dashoffset: 0; stroke: #b0b0b0; stroke-width: 0.8"/>
     </g>
     <g id="line2d_10">
      <g>
       <use xlink:href="#m27ea7a0aea" x="508.141993" y="404.12" style="stroke: #000000; stroke-width: 0.8"/>
      </g>
     </g>
     <g id="text_5">
      <!-- 2024-06-29 -->
      <g transform="translate(479.084181 418.718437) scale(0.1 -0.1)">
       <defs>
        <path id="DejaVuSans-39" d="M 703 97 
L 703 672 
Q 941 559 1184 500 
Q 1428 441 1663 441 
Q 2288 441 2617 861 
Q 2947 1281 2994 2138 
Q 2813 1869 2534 1725 
Q 2256 1581 1919 1581 
Q 1219 1581 811 2004 
Q 403 2428 403 3163 
Q 403 3881 828 4315 
Q 1253 4750 1959 4750 
Q 2769 4750 3195 4129 
Q 3622 3509 3622 2328 
Q 3622 1225 3098 567 
Q 2575 -91 1691 -91 
Q 1453 -91 1209 -44 
Q 966 3 703 97 
z
M 1959 2075 
Q 2384 2075 2632 2365 
Q 2881 2656 2881 3163 
Q 2881 3666 2632 3958 
Q 2384 4250 1959 4250 
Q 1534 4250 1286 3958 
Q 1038 3666 1038 3163 
Q 1038 2656 1286 2365 
Q 1534 2075 1959 2075 
z
" transform="scale(0.015625)"/>
       </defs>
       <use xlink:href="#DejaVuSans-32"/>
       <use xlink:href="#DejaVuSans-30" x="63.623047"/>
       <use xlink:href="#DejaVuSans-32" x="127.246094"/>
       <use xlink:href="#DejaVuSans-34" x="190.869141"/>
       <use xlink:href="#DejaVuSans-2d" x="254.492188"/>
       <use xlink:href="#DejaVuSans-30" x="290.576172"/>
       <use xlink:href="#DejaVuSans-36" x="354.199219"/>
       <use xlink:href="#DejaVuSans-2d" x="417.822266"/>
       <use xlink:href="#DejaVuSans-32" x="453.90625"/>
       <use xlink:href="#DejaVuSans-39" x="517.529297"/>
      </g>
     </g>
    </g>
    <g id="xtick_6">
     <g id="line2d_11">
      <path d="M 564.248986 404.12 
L 564.248986 26.88 
" clip-path="url(#pd6eb3d9087)" style="fill: none; stroke-dasharray: 2.96,1.28; stroke-dashoffset: 0; stroke: #b0b0b0; stroke-width: 0.8"/>
     </g>
     <g id="line2d_12">
      <g>
       <use xlink:href="#m27ea7a0aea" x="564.248986" y="404.12" style="stroke: #000000; stroke-width: 0.8"/>
      </g>
     </g>
     <g id="text_6">
      <!-- 2024-07-01 -->
      <g transform="translate(535.191174 418.718437) scale(0.1 -0.1)">
       <use xlink:href="#DejaVuSans-32"/>
       <use xlink:href="#DejaVuSans-30" x="63.623047"/>
       <use xlink:href="#DejaVuSans-32" x="127.246094"/>
       <use xlink:href="#DejaVuSans-34" x="190.869141"/>
       <use xlink:href="#DejaVuSans-2d" x="254.492188"/>
       <use xlink:href="#DejaVuSans-30" x="290.576172"/>
       <use xlink:href="#DejaVuSans-37" x="354.199219"/>
       <use xlink:href="#DejaVuSans-2d" x="417.822266"/>
       <use xlink:href="#DejaVuSans-30" x="453.90625"/>
       <use xlink:href="#DejaVuSans-31" x="517.529297"/>
      </g>
     </g>
    </g>
    <g id="xtick_7">
     <g id="line2d_13">
      <path d="M 676.462972 404.12 
L 676.462972 26.88 
" clip-path="url(#pd6eb3d9087)" style="fill: none; stroke-dasharray: 2.96,1.28; stroke-dashoffset: 0; stroke: #b0b0b0; stroke-width: 0.8"/>
     </g>
     <g id="line2d_14">
      <g>
       <use xlink:href="#m27ea7a0aea" x="676.462972" y="404.12" style="stroke: #000000; stroke-width: 0.8"/>
      </g>
     </g>
     <g id="text_7">
      <!-- 2024-07-05 -->
      <g transform="translate(647.40516 418.718437) scale(0.1 -0.1)">
       <use xlink:href="#DejaVuSans-32"/>
       <use xlink:href="#DejaVuSans-30" x="63.623047"/>
       <use xlink:href="#DejaVuSans-32" x="127.246094"/>
       <use xlink:href="#DejaVuSans-34" x="190.869141"/>
       <use xlink:href="#DejaVuSans-2d" x="254.492188"/>
       <use xlink:href="#DejaVuSans-30" x="290.576172"/>
       <use xlink:href="#DejaVuSans-37" x="354.199219"/>
       <use xlink:href="#DejaVuSans-2d" x="417.822266"/>
       <use xlink:href="#DejaVuSans-30" x="453.90625"/>
       <use xlink:href="#DejaVuSans-35" x="517.529297"/>
      </g>
     </g>
    </g>
    <g id="xtick_8">
     <g id="line2d_15">
      <path d="M 788.676958 404.12 
L 788.676958 26.88 
" clip-path="url(#pd6eb3d9087)" style="fill: none; stroke-dasharray: 2.96,1.28; stroke-dashoffset: 0; stroke: #b0b0b0; stroke-width: 0.8"/>
     </g>
     <g id="line2d_16">
      <g>
       <use xlink:href="#m27ea7a0aea" x="788.676958" y="404.12" style="stroke: #000000; stroke-width: 0.8"/>
      </g>
     </g>
     <g id="text_8">
      <!-- 2024-07-09 -->
      <g transform="translate(759.619146 418.718437) scale(0.1 -0.1)">
       <use xlink:href="#DejaVuSans-32"/>
       <use xlink:href="#DejaVuSans-30" x="63.623047"/>
       <use xlink:href="#DejaVuSans-32" x="127.246094"/>
       <use xlink:href="#DejaVuSans-34" x="190.869141"/>
       <use xlink:href="#DejaVuSans-2d" x="254.492188"/>
       <use xlink:href="#DejaVuSans-30" x="290.576172"/>
       <use xlink:href="#DejaVuSans-37" x="354.199219"/>
       <use xlink:href="#DejaVuSans-2d" x="417.822266"/>
       <use xlink:href="#DejaVuSans-30" x="453.90625"/>
       <use xlink:href="#DejaVuSans-39" x="517.529297"/>
      </g>
     </g>
    </g>
   </g>
   <g id="matplotlib.axis_2">
    <g id="ytick_1">
     <g id="line2d_17">
      <path d="M 50.87 389.58186 
L 853.2 389.58186 
" clip-path="url(#pd6eb3d9087)" style="fill: none; stroke-dasharray: 2.96,1.28; stroke-dashoffset: 0; stroke: #b0b0b0; stroke-width: 0.8"/>
     </g>
     <g id="line2d_18">
      <defs>
       <path id="mc7aa7c307f" d="M 0 0 
L -3.5 0 
" style="stroke: #000000; stroke-width: 0.8"/>
      </defs>
      <g>
       <use xlink:href="#mc7aa7c307f" x="50.87" y="389.58186" style="stroke: #000000; stroke-width: 0.8"/>
      </g>
     </g>
     <g id="text_9">
      <!-- 0 -->
      <g transform="translate(37.5075 393.381078) scale(0.1 -0.1)">
       <use xlink:href="#DejaVuSans-30"/>
      </g>
     </g>
    </g>
    <g id="ytick_2">
     <g id="line2d_19">
      <path d="M 50.87 324.140269 
L 853.2 324.140269 
" clip-path="url(#pd6eb3d9087)" style="fill: none; stroke-dasharray: 2.96,1.28; stroke-dashoffset: 0; stroke: #b0b0b0; stroke-width: 0.8"/>
     </g>
     <g id="line2d_20">
      <g>
       <use xlink:href="#mc7aa7c307f" x="50.87" y="324.140269" style="stroke: #000000; stroke-width: 0.8"/>
      </g>
     </g>
     <g id="text_10">
      <!-- 50 -->
      <g transform="translate(31.145 327.939487) scale(0.1 -0.1)">
       <use xlink:href="#DejaVuSans-35"/>
       <use xlink:href="#DejaVuSans-30" x="63.623047"/>
      </g>
     </g>
    </g>
    <g id="ytick_3">
     <g id="line2d_21">
      <path d="M 50.87 258.698678 
L 853.2 258.698678 
" clip-path="url(#pd6eb3d9087)" style="fill: none; stroke-dasharray: 2.96,1.28; stroke-dashoffset: 0; stroke: #b0b0b0; stroke-width: 0.8"/>
     </g>
     <g id="line2d_22">
      <g>
       <use xlink:href="#mc7aa7c307f" x="50.87" y="258.698678" style="stroke: #000000; stroke-width: 0.8"/>
      </g>
     </g>
     <g id="text_11">
      <!-- 100 -->
      <g transform="translate(24.7825 262.497896) scale(0.1 -0.1)">
       <use xlink:href="#DejaVuSans-31"/>
       <use xlink:href="#DejaVuSans-30" x="63.623047"/>
       <use xlink:href="#DejaVuSans-30" x="127.246094"/>
      </g>
     </g>
    </g>
    <g id="ytick_4">
     <g id="line2d_23">
      <path d="M 50.87 193.257086 
L 853.2 193.257086 
" clip-path="url(#pd6eb3d9087)" style="fill: none; stroke-dasharray: 2.96,1.28; stroke-dashoffset: 0; stroke: #b0b0b0; stroke-width: 0.8"/>
     </g>
     <g id="line2d_24">
      <g>
       <use xlink:href="#mc7aa7c307f" x="50.87" y="193.257086" style="stroke: #000000; stroke-width: 0.8"/>
      </g>
     </g>
     <g id="text_12">
      <!-- 150 -->
      <g transform="translate(24.7825 197.056305) scale(0.1 -0.1)">
       <use xlink:href="#DejaVuSans-31"/>
       <use xlink:href="#DejaVuSans-35" x="63.623047"/>
       <use xlink:href="#DejaVuSans-30" x="127.246094"/>
      </g>
     </g>
    </g>
    <g id="ytick_5">
     <g id="line2d_25">
      <path d="M 50.87 127.815495 
L 853.2 127.815495 
" clip-path="url(#pd6eb3d9087)" style="fill: none; stroke-dasharray: 2.96,1.28; stroke-dashoffset: 0; stroke: #b0b0b0; stroke-width: 0.8"/>
     </g>
     <g id="line2d_26">
      <g>
       <use xlink:href="#mc7aa7c307f" x="50.87" y="127.815495" style="stroke: #000000; stroke-width: 0.8"/>
      </g>
     </g>
     <g id="text_13">
      <!-- 200 -->
      <g transform="translate(24.7825 131.614714) scale(0.1 -0.1)">
       <use xlink:href="#DejaVuSans-32"/>
       <use xlink:href="#DejaVuSans-30" x="63.623047"/>
       <use xlink:href="#DejaVuSans-30" x="127.246094"/>
      </g>
     </g>
    </g>
    <g id="ytick_6">
     <g id="line2d_27">
      <path d="M 50.87 62.373904 
L 853.2 62.373904 
" clip-path="url(#pd6eb3d9087)" style="fill: none; stroke-dasharray: 2.96,1.28; stroke-dashoffset: 0; stroke: #b0b0b0; stroke-width: 0.8"/>
     </g>
     <g id="line2d_28">
      <g>
       <use xlink:href="#mc7aa7c307f" x="50.87" y="62.373904" style="stroke: #000000; stroke-width: 0.8"/>
      </g>
     </g>
     <g id="text_14">
      <!-- 250 -->
      <g transform="translate(24.7825 66.173123) scale(0.1 -0.1)">
       <use xlink:href="#DejaVuSans-32"/>
       <use xlink:href="#DejaVuSans-35" x="63.623047"/>
       <use xlink:href="#DejaVuSans-30" x="127.246094"/>
      </g>
     </g>
    </g>
    <g id="text_15">
     <!-- Score -->
     <g transform="translate(18.702813 229.502344) rotate(-90) scale(0.1 -0.1)">
      <defs>
       <path id="DejaVuSans-53" d="M 3425 4513 
L 3425 3897 
Q 3066 4069 2747 4153 
Q 2428 4238 2131 4238 
Q 1616 4238 1336 4038 
Q 1056 3838 1056 3469 
Q 1056 3159 1242 3001 
Q 1428 2844 1947 2747 
L 2328 2669 
Q 3034 2534 3370 2195 
Q 3706 1856 3706 1288 
Q 3706 609 3251 259 
Q 2797 -91 1919 -91 
Q 1588 -91 1214 -16 
Q 841 59 441 206 
L 441 856 
Q 825 641 1194 531 
Q 1563 422 1919 422 
Q 2459 422 2753 634 
Q 3047 847 3047 1241 
Q 3047 1584 2836 1778 
Q 2625 1972 2144 2069 
L 1759 2144 
Q 1053 2284 737 2584 
Q 422 2884 422 3419 
Q 422 4038 858 4394 
Q 1294 4750 2059 4750 
Q 2388 4750 2728 4690 
Q 3069 4631 3425 4513 
z
" transform="scale(0.015625)"/>
       <path id="DejaVuSans-63" d="M 3122 3366 
L 3122 2828 
Q 2878 2963 2633 3030 
Q 2388 3097 2138 3097 
Q 1578 3097 1268 2742 
Q 959 2388 959 1747 
Q 959 1106 1268 751 
Q 1578 397 2138 397 
Q 2388 397 2633 464 
Q 2878 531 3122 666 
L 3122 134 
Q 2881 22 2623 -34 
Q 2366 -91 2075 -91 
Q 1284 -91 818 406 
Q 353 903 353 1747 
Q 353 2603 823 3093 
Q 1294 3584 2113 3584 
Q 2378 3584 2631 3529 
Q 2884 3475 3122 3366 
z
" transform="scale(0.015625)"/>
       <path id="DejaVuSans-6f" d="M 1959 3097 
Q 1497 3097 1228 2736 
Q 959 2375 959 1747 
Q 959 1119 1226 758 
Q 1494 397 1959 397 
Q 2419 397 2687 759 
Q 2956 1122 2956 1747 
Q 2956 2369 2687 2733 
Q 2419 3097 1959 3097 
z
M 1959 3584 
Q 2709 3584 3137 3096 
Q 3566 2609 3566 1747 
Q 3566 888 3137 398 
Q 2709 -91 1959 -91 
Q 1206 -91 779 398 
Q 353 888 353 1747 
Q 353 2609 779 3096 
Q 1206 3584 1959 3584 
z
" transform="scale(0.015625)"/>
       <path id="DejaVuSans-72" d="M 2631 2963 
Q 2534 3019 2420 3045 
Q 2306 3072 2169 3072 
Q 1681 3072 1420 2755 
Q 1159 2438 1159 1844 
L 1159 0 
L 581 0 
L 581 3500 
L 1159 3500 
L 1159 2956 
Q 1341 3275 1631 3429 
Q 1922 3584 2338 3584 
Q 2397 3584 2469 3576 
Q 2541 3569 2628 3553 
L 2631 2963 
z
" transform="scale(0.015625)"/>
       <path id="DejaVuSans-65" d="M 3597 1894 
L 3597 1613 
L 953 1613 
Q 991 1019 1311 708 
Q 1631 397 2203 397 
Q 2534 397 2845 478 
Q 3156 559 3463 722 
L 3463 178 
Q 3153 47 2828 -22 
Q 2503 -91 2169 -91 
Q 1331 -91 842 396 
Q 353 884 353 1716 
Q 353 2575 817 3079 
Q 1281 3584 2069 3584 
Q 2775 3584 3186 3129 
Q 3597 2675 3597 1894 
z
M 3022 2063 
Q 3016 2534 2758 2815 
Q 2500 3097 2075 3097 
Q 1594 3097 1305 2825 
Q 1016 2553 972 2059 
L 3022 2063 
z
" transform="scale(0.015625)"/>
      </defs>
      <use xlink:href="#DejaVuSans-53"/>
      <use xlink:href="#DejaVuSans-63" x="63.476562"/>
      <use xlink:href="#DejaVuSans-6f" x="118.457031"/>
      <use xlink:href="#DejaVuSans-72" x="179.638672"/>
      <use xlink:href="#DejaVuSans-65" x="218.501953"/>
     </g>
    </g>
   </g>
   <g id="line2d_29">
    <path d="M 87.339545 382.975276 
L 115.393042 356.79864 
L 143.446538 345.019153 
L 171.500035 335.857331 
L 199.553531 322.769012 
L 227.607028 310.989526 
L 255.660524 310.989526 
L 283.714021 291.357049 
L 311.767517 256.018589 
L 339.821014 231.150785 
L 367.87451 202.356485 
L 395.928007 184.032839 
L 423.981503 152.620876 
L 508.141993 152.620876 
L 536.19549 152.620876 
L 564.248986 152.620876 
L 592.302483 152.620876 
L 620.355979 152.620876 
L 676.462972 152.620876 
L 704.516469 152.620876 
L 732.569965 152.620876 
L 760.623462 152.620876 
L 788.676958 152.620876 
L 816.730455 152.620876 
" clip-path="url(#pd6eb3d9087)" style="fill: none; stroke: #1f77b4; stroke-width: 1.5; stroke-linecap: square"/>
    <defs>
     <path id="mfe3038236e" d="M 0 3.5 
C 0.928211 3.5 1.81853 3.131218 2.474874 2.474874 
C 3.131218 1.81853 3.5 0.928211 3.5 0 
C 3.5 -0.928211 3.131218 -1.81853 2.474874 -2.474874 
C 1.81853 -3.131218 0.928211 -3.5 0 -3.5 
C -0.928211 -3.5 -1.81853 -3.131218 -2.474874 -2.474874 
C -3.131218 -1.81853 -3.5 -0.928211 -3.5 0 
C -3.5 0.928211 -3.131218 1.81853 -2.474874 2.474874 
C -1.81853 3.131218 -0.928211 3.5 0 3.5 
z
" style="stroke: #1f77b4"/>
    </defs>
    <g clip-path="url(#pd6eb3d9087)">
     <use xlink:href="#mfe3038236e" x="87.339545" y="382.975276" style="fill: #1f77b4; stroke: #1f77b4"/>
     <use xlink:href="#mfe3038236e" x="115.393042" y="356.79864" style="fill: #1f77b4; stroke: #1f77b4"/>
     <use xlink:href="#mfe3038236e" x="143.446538" y="345.019153" style="fill: #1f77b4; stroke: #1f77b4"/>
     <use xlink:href="#mfe3038236e" x="171.500035" y="335.857331" style="fill: #1f77b4; stroke: #1f77b4"/>
     <use xlink:href="#mfe3038236e" x="199.553531" y="322.769012" style="fill: #1f77b4; stroke: #1f77b4"/>
     <use xlink:href="#mfe3038236e" x="227.607028" y="310.989526" style="fill: #1f77b4; stroke: #1f77b4"/>
     <use xlink:href="#mfe3038236e" x="255.660524" y="310.989526" style="fill: #1f77b4; stroke: #1f77b4"/>
     <use xlink:href="#mfe3038236e" x="283.714021" y="291.357049" style="fill: #1f77b4; stroke: #1f77b4"/>
     <use xlink:href="#mfe3038236e" x="311.767517" y="256.018589" style="fill: #1f77b4; stroke: #1f77b4"/>
     <use xlink:href="#mfe3038236e" x="339.821014" y="231.150785" style="fill: #1f77b4; stroke: #1f77b4"/>
     <use xlink:href="#mfe3038236e" x="367.87451" y="202.356485" style="fill: #1f77b4; stroke: #1f77b4"/>
     <use xlink:href="#mfe3038236e" x="395.928007" y="184.032839" style="fill: #1f77b4; stroke: #1f77b4"/>
     <use xlink:href="#mfe3038236e" x="423.981503" y="152.620876" style="fill: #1f77b4; stroke: #1f77b4"/>
     <use xlink:href="#mfe3038236e" x="508.141993" y="152.620876" style="fill: #1f77b4; stroke: #1f77b4"/>
     <use xlink:href="#mfe3038236e" x="536.19549" y="152.620876" style="fill: #1f77b4; stroke: #1f77b4"/>
     <use xlink:href="#mfe3038236e" x="564.248986" y="152.620876" style="fill: #1f77b4; stroke: #1f77b4"/>
     <use xlink:href="#mfe3038236e" x="592.302483" y="152.620876" style="fill: #1f77b4; stroke: #1f77b4"/>
     <use xlink:href="#mfe3038236e" x="620.355979" y="152.620876" style="fill: #1f77b4; stroke: #1f77b4"/>
     <use xlink:href="#mfe3038236e" x="676.462972" y="152.620876" style="fill: #1f77b4; stroke: #1f77b4"/>
     <use xlink:href="#mfe3038236e" x="704.516469" y="152.620876" style="fill: #1f77b4; stroke: #1f77b4"/>
     <use xlink:href="#mfe3038236e" x="732.569965" y="152.620876" style="fill: #1f77b4; stroke: #1f77b4"/>
     <use xlink:href="#mfe3038236e" x="760.623462" y="152.620876" style="fill: #1f77b4; stroke: #1f77b4"/>
     <use xlink:href="#mfe3038236e" x="788.676958" y="152.620876" style="fill: #1f77b4; stroke: #1f77b4"/>
     <use xlink:href="#mfe3038236e" x="816.730455" y="152.620876" style="fill: #1f77b4; stroke: #1f77b4"/>
    </g>
   </g>
   <g id="line2d_30">
    <path d="M 87.339545 386.972727 
L 115.393042 347.707773 
L 143.446538 318.913473 
L 171.500035 303.207491 
L 199.553531 283.575013 
L 227.607028 265.251368 
L 255.660524 240.383563 
L 283.714021 235.148236 
L 311.767517 199.809777 
L 339.821014 190.647954 
L 367.87451 168.397813 
L 395.928007 154.000663 
L 423.981503 116.04454 
L 508.141993 116.04454 
L 536.19549 116.04454 
L 564.248986 116.04454 
L 592.302483 116.04454 
L 620.355979 116.04454 
L 676.462972 116.04454 
L 704.516469 116.04454 
L 732.569965 116.04454 
L 760.623462 116.04454 
L 788.676958 116.04454 
L 816.730455 116.04454 
" clip-path="url(#pd6eb3d9087)" style="fill: none; stroke: #ff7f0e; stroke-width: 1.5; stroke-linecap: square"/>
    <defs>
     <path id="m0961905952" d="M 0 3.5 
C 0.928211 3.5 1.81853 3.131218 2.474874 2.474874 
C 3.131218 1.81853 3.5 0.928211 3.5 0 
C 3.5 -0.928211 3.131218 -1.81853 2.474874 -2.474874 
C 1.81853 -3.131218 0.928211 -3.5 0 -3.5 
C -0.928211 -3.5 -1.81853 -3.131218 -2.474874 -2.474874 
C -3.131218 -1.81853 -3.5 -0.928211 -3.5 0 
C -3.5 0.928211 -3.131218 1.81853 -2.474874 2.474874 
C -1.81853 3.131218 -0.928211 3.5 0 3.5 
z
" style="stroke: #ff7f0e"/>
    </defs>
    <g clip-path="url(#pd6eb3d9087)">
     <use xlink:href="#m0961905952" x="87.339545" y="386.972727" style="fill: #ff7f0e; stroke: #ff7f0e"/>
     <use xlink:href="#m0961905952" x="115.393042" y="347.707773" style="fill: #ff7f0e; stroke: #ff7f0e"/>
     <use xlink:href="#m0961905952" x="143.446538" y="318.913473" style="fill: #ff7f0e; stroke: #ff7f0e"/>
     <use xlink:href="#m0961905952" x="171.500035" y="303.207491" style="fill: #ff7f0e; stroke: #ff7f0e"/>
     <use xlink:href="#m0961905952" x="199.553531" y="283.575013" style="fill: #ff7f0e; stroke: #ff7f0e"/>
     <use xlink:href="#m0961905952" x="227.607028" y="265.251368" style="fill: #ff7f0e; stroke: #ff7f0e"/>
     <use xlink:href="#m0961905952" x="255.660524" y="240.383563" style="fill: #ff7f0e; stroke: #ff7f0e"/>
     <use xlink:href="#m0961905952" x="283.714021" y="235.148236" style="fill: #ff7f0e; stroke: #ff7f0e"/>
     <use xlink:href="#m0961905952" x="311.767517" y="199.809777" style="fill: #ff7f0e; stroke: #ff7f0e"/>
     <use xlink:href="#m0961905952" x="339.821014" y="190.647954" style="fill: #ff7f0e; stroke: #ff7f0e"/>
     <use xlink:href="#m0961905952" x="367.87451" y="168.397813" style="fill: #ff7f0e; stroke: #ff7f0e"/>
     <use xlink:href="#m0961905952" x="395.928007" y="154.000663" style="fill: #ff7f0e; stroke: #ff7f0e"/>
     <use xlink:href="#m0961905952" x="423.981503" y="116.04454" style="fill: #ff7f0e; stroke: #ff7f0e"/>
     <use xlink:href="#m0961905952" x="508.141993" y="116.04454" style="fill: #ff7f0e; stroke: #ff7f0e"/>
     <use xlink:href="#m0961905952" x="536.19549" y="116.04454" style="fill: #ff7f0e; stroke: #ff7f0e"/>
     <use xlink:href="#m0961905952" x="564.248986" y="116.04454" style="fill: #ff7f0e; stroke: #ff7f0e"/>
     <use xlink:href="#m0961905952" x="592.302483" y="116.04454" style="fill: #ff7f0e; stroke: #ff7f0e"/>
     <use xlink:href="#m0961905952" x="620.355979" y="116.04454" style="fill: #ff7f0e; stroke: #ff7f0e"/>
     <use xlink:href="#m0961905952" x="676.462972" y="116.04454" style="fill: #ff7f0e; stroke: #ff7f0e"/>
     <use xlink:href="#m0961905952" x="704.516469" y="116.04454" style="fill: #ff7f0e; stroke: #ff7f0e"/>
     <use xlink:href="#m0961905952" x="732.569965" y="116.04454" style="fill: #ff7f0e; stroke: #ff7f0e"/>
     <use xlink:href="#m0961905952" x="760.623462" y="116.04454" style="fill: #ff7f0e; stroke: #ff7f0e"/>
     <use xlink:href="#m0961905952" x="788.676958" y="116.04454" style="fill: #ff7f0e; stroke: #ff7f0e"/>
     <use xlink:href="#m0961905952" x="816.730455" y="116.04454" style="fill: #ff7f0e; stroke: #ff7f0e"/>
    </g>
   </g>
   <g id="line2d_31">
    <path d="M 87.339545 376.405686 
L 115.393042 350.229049 
L 143.446538 330.596572 
L 171.500035 317.508254 
L 199.553531 284.787458 
L 227.607028 266.463813 
L 255.660524 254.684326 
L 283.714021 219.345867 
L 311.767517 186.625072 
L 339.821014 157.830771 
L 367.87451 135.580631 
L 395.928007 127.72764 
L 423.981503 68.830208 
L 508.141993 68.830208 
L 536.19549 68.830208 
L 564.248986 68.830208 
L 592.302483 68.830208 
L 620.355979 68.830208 
L 676.462972 68.830208 
L 704.516469 68.830208 
L 732.569965 68.830208 
L 760.623462 68.830208 
L 788.676958 68.830208 
L 816.730455 68.830208 
" clip-path="url(#pd6eb3d9087)" style="fill: none; stroke: #2ca02c; stroke-width: 1.5; stroke-linecap: square"/>
    <defs>
     <path id="m6fd135b10f" d="M 0 3.5 
C 0.928211 3.5 1.81853 3.131218 2.474874 2.474874 
C 3.131218 1.81853 3.5 0.928211 3.5 0 
C 3.5 -0.928211 3.131218 -1.81853 2.474874 -2.474874 
C 1.81853 -3.131218 0.928211 -3.5 0 -3.5 
C -0.928211 -3.5 -1.81853 -3.131218 -2.474874 -2.474874 
C -3.131218 -1.81853 -3.5 -0.928211 -3.5 0 
C -3.5 0.928211 -3.131218 1.81853 -2.474874 2.474874 
C -1.81853 3.131218 -0.928211 3.5 0 3.5 
z
" style="stroke: #2ca02c"/>
    </defs>
    <g clip-path="url(#pd6eb3d9087)">
     <use xlink:href="#m6fd135b10f" x="87.339545" y="376.405686" style="fill: #2ca02c; stroke: #2ca02c"/>
     <use xlink:href="#m6fd135b10f" x="115.393042" y="350.229049" style="fill: #2ca02c; stroke: #2ca02c"/>
     <use xlink:href="#m6fd135b10f" x="143.446538" y="330.596572" style="fill: #2ca02c; stroke: #2ca02c"/>
     <use xlink:href="#m6fd135b10f" x="171.500035" y="317.508254" style="fill: #2ca02c; stroke: #2ca02c"/>
     <use xlink:href="#m6fd135b10f" x="199.553531" y="284.787458" style="fill: #2ca02c; stroke: #2ca02c"/>
     <use xlink:href="#m6fd135b10f" x="227.607028" y="266.463813" style="fill: #2ca02c; stroke: #2ca02c"/>
     <use xlink:href="#m6fd135b10f" x="255.660524" y="254.684326" style="fill: #2ca02c; stroke: #2ca02c"/>
     <use xlink:href="#m6fd135b10f" x="283.714021" y="219.345867" style="fill: #2ca02c; stroke: #2ca02c"/>
     <use xlink:href="#m6fd135b10f" x="311.767517" y="186.625072" style="fill: #2ca02c; stroke: #2ca02c"/>
     <use xlink:href="#m6fd135b10f" x="339.821014" y="157.830771" style="fill: #2ca02c; stroke: #2ca02c"/>
     <use xlink:href="#m6fd135b10f" x="367.87451" y="135.580631" style="fill: #2ca02c; stroke: #2ca02c"/>
     <use xlink:href="#m6fd135b10f" x="395.928007" y="127.72764" style="fill: #2ca02c; stroke: #2ca02c"/>
     <use xlink:href="#m6fd135b10f" x="423.981503" y="68.830208" style="fill: #2ca02c; stroke: #2ca02c"/>
     <use xlink:href="#m6fd135b10f" x="508.141993" y="68.830208" style="fill: #2ca02c; stroke: #2ca02c"/>
     <use xlink:href="#m6fd135b10f" x="536.19549" y="68.830208" style="fill: #2ca02c; stroke: #2ca02c"/>
     <use xlink:href="#m6fd135b10f" x="564.248986" y="68.830208" style="fill: #2ca02c; stroke: #2ca02c"/>
     <use xlink:href="#m6fd135b10f" x="592.302483" y="68.830208" style="fill: #2ca02c; stroke: #2ca02c"/>
     <use xlink:href="#m6fd135b10f" x="620.355979" y="68.830208" style="fill: #2ca02c; stroke: #2ca02c"/>
     <use xlink:href="#m6fd135b10f" x="676.462972" y="68.830208" style="fill: #2ca02c; stroke: #2ca02c"/>
     <use xlink:href="#m6fd135b10f" x="704.516469" y="68.830208" style="fill: #2ca02c; stroke: #2ca02c"/>
     <use xlink:href="#m6fd135b10f" x="732.569965" y="68.830208" style="fill: #2ca02c; stroke: #2ca02c"/>
     <use xlink:href="#m6fd135b10f" x="760.623462" y="68.830208" style="fill: #2ca02c; stroke: #2ca02c"/>
     <use xlink:href="#m6fd135b10f" x="788.676958" y="68.830208" style="fill: #2ca02c; stroke: #2ca02c"/>
     <use xlink:href="#m6fd135b10f" x="816.730455" y="68.830208" style="fill: #2ca02c; stroke: #2ca02c"/>
    </g>
   </g>
   <g id="line2d_32">
    <path d="M 87.339545 376.470555 
L 115.393042 354.220414 
L 143.446538 314.95546 
L 171.500035 305.793637 
L 199.553531 286.16116 
L 227.607028 266.528682 
L 255.660524 237.734382 
L 283.714021 225.954896 
L 311.767517 193.2341 
L 339.821014 181.454614 
L 367.87451 146.116155 
L 395.928007 125.174846 
L 423.981503 63.65975 
L 508.141993 63.65975 
L 536.19549 63.65975 
L 564.248986 63.65975 
L 592.302483 63.65975 
L 620.355979 63.65975 
L 676.462972 63.65975 
L 704.516469 63.65975 
L 732.569965 63.65975 
L 760.623462 63.65975 
L 788.676958 63.65975 
L 816.730455 44.027273 
" clip-path="url(#pd6eb3d9087)" style="fill: none; stroke: #d62728; stroke-width: 1.5; stroke-linecap: square"/>
    <defs>
     <path id="m51a719c2e9" d="M 0 3.5 
C 0.928211 3.5 1.81853 3.131218 2.474874 2.474874 
C 3.131218 1.81853 3.5 0.928211 3.5 0 
C 3.5 -0.928211 3.131218 -1.81853 2.474874 -2.474874 
C 1.81853 -3.131218 0.928211 -3.5 0 -3.5 
C -0.928211 -3.5 -1.81853 -3.131218 -2.474874 -2.474874 
C -3.131218 -1.81853 -3.5 -0.928211 -3.5 0 
C -3.5 0.928211 -3.131218 1.81853 -2.474874 2.474874 
C -1.81853 3.131218 -0.928211 3.5 0 3.5 
z
" style="stroke: #d62728"/>
    </defs>
    <g clip-path="url(#pd6eb3d9087)">
     <use xlink:href="#m51a719c2e9" x="87.339545" y="376.470555" style="fill: #d62728; stroke: #d62728"/>
     <use xlink:href="#m51a719c2e9" x="115.393042" y="354.220414" style="fill: #d62728; stroke: #d62728"/>
     <use xlink:href="#m51a719c2e9" x="143.446538" y="314.95546" style="fill: #d62728; stroke: #d62728"/>
     <use xlink:href="#m51a719c2e9" x="171.500035" y="305.793637" style="fill: #d62728; stroke: #d62728"/>
     <use xlink:href="#m51a719c2e9" x="199.553531" y="286.16116" style="fill: #d62728; stroke: #d62728"/>
     <use xlink:href="#m51a719c2e9" x="227.607028" y="266.528682" style="fill: #d62728; stroke: #d62728"/>
     <use xlink:href="#m51a719c2e9" x="255.660524" y="237.734382" style="fill: #d62728; stroke: #d62728"/>
     <use xlink:href="#m51a719c2e9" x="283.714021" y="225.954896" style="fill: #d62728; stroke: #d62728"/>
     <use xlink:href="#m51a719c2e9" x="311.767517" y="193.2341" style="fill: #d62728; stroke: #d62728"/>
     <use xlink:href="#m51a719c2e9" x="339.821014" y="181.454614" style="fill: #d62728; stroke: #d62728"/>
     <use xlink:href="#m51a719c2e9" x="367.87451" y="146.116155" style="fill: #d62728; stroke: #d62728"/>
     <use xlink:href="#m51a719c2e9" x="395.928007" y="125.174846" style="fill: #d62728; stroke: #d62728"/>
     <use xlink:href="#m51a719c2e9" x="423.981503" y="63.65975" style="fill: #d62728; stroke: #d62728"/>
     <use xlink:href="#m51a719c2e9" x="508.141993" y="63.65975" style="fill: #d62728; stroke: #d62728"/>
     <use xlink:href="#m51a719c2e9" x="536.19549" y="63.65975" style="fill: #d62728; stroke: #d62728"/>
     <use xlink:href="#m51a719c2e9" x="564.248986" y="63.65975" style="fill: #d62728; stroke: #d62728"/>
     <use xlink:href="#m51a719c2e9" x="592.302483" y="63.65975" style="fill: #d62728; stroke: #d62728"/>
     <use xlink:href="#m51a719c2e9" x="620.355979" y="63.65975" style="fill: #d62728; stroke: #d62728"/>
     <use xlink:href="#m51a719c2e9" x="676.462972" y="63.65975" style="fill: #d62728; stroke: #d62728"/>
     <use xlink:href="#m51a719c2e9" x="704.516469" y="63.65975" style="fill: #d62728; stroke: #d62728"/>
     <use xlink:href="#m51a719c2e9" x="732.569965" y="63.65975" style="fill: #d62728; stroke: #d62728"/>
     <use xlink:href="#m51a719c2e9" x="760.623462" y="63.65975" style="fill: #d62728; stroke: #d62728"/>
     <use xlink:href="#m51a719c2e9" x="788.676958" y="63.65975" style="fill: #d62728; stroke: #d62728"/>
     <use xlink:href="#m51a719c2e9" x="816.730455" y="44.027273" style="fill: #d62728; stroke: #d62728"/>
    </g>
   </g>
   <g id="line2d_33">
    <path d="M 87.339545 382.980247 
L 115.393042 347.641787 
L 143.446538 318.847487 
L 171.500035 303.141506 
L 199.553531 287.435524 
L 227.607028 271.729542 
L 255.660524 269.111878 
L 283.714021 246.861737 
L 311.767517 214.140942 
L 339.821014 189.273137 
L 367.87451 150.008182 
L 395.928007 134.302201 
L 423.981503 105.5079 
L 508.141993 105.5079 
L 536.19549 105.5079 
L 564.248986 105.5079 
L 592.302483 105.5079 
L 620.355979 105.5079 
L 676.462972 105.5079 
L 704.516469 105.5079 
L 732.569965 105.5079 
L 760.623462 105.5079 
L 788.676958 105.5079 
L 816.730455 85.875423 
" clip-path="url(#pd6eb3d9087)" style="fill: none; stroke: #9467bd; stroke-width: 1.5; stroke-linecap: square"/>
    <defs>
     <path id="m0a3cd453d7" d="M 0 3.5 
C 0.928211 3.5 1.81853 3.131218 2.474874 2.474874 
C 3.131218 1.81853 3.5 0.928211 3.5 0 
C 3.5 -0.928211 3.131218 -1.81853 2.474874 -2.474874 
C 1.81853 -3.131218 0.928211 -3.5 0 -3.5 
C -0.928211 -3.5 -1.81853 -3.131218 -2.474874 -2.474874 
C -3.131218 -1.81853 -3.5 -0.928211 -3.5 0 
C -3.5 0.928211 -3.131218 1.81853 -2.474874 2.474874 
C -1.81853 3.131218 -0.928211 3.5 0 3.5 
z
" style="stroke: #9467bd"/>
    </defs>
    <g clip-path="url(#pd6eb3d9087)">
     <use xlink:href="#m0a3cd453d7" x="87.339545" y="382.980247" style="fill: #9467bd; stroke: #9467bd"/>
     <use xlink:href="#m0a3cd453d7" x="115.393042" y="347.641787" style="fill: #9467bd; stroke: #9467bd"/>
     <use xlink:href="#m0a3cd453d7" x="143.446538" y="318.847487" style="fill: #9467bd; stroke: #9467bd"/>
     <use xlink:href="#m0a3cd453d7" x="171.500035" y="303.141506" style="fill: #9467bd; stroke: #9467bd"/>
     <use xlink:href="#m0a3cd453d7" x="199.553531" y="287.435524" style="fill: #9467bd; stroke: #9467bd"/>
     <use xlink:href="#m0a3cd453d7" x="227.607028" y="271.729542" style="fill: #9467bd; stroke: #9467bd"/>
     <use xlink:href="#m0a3cd453d7" x="255.660524" y="269.111878" style="fill: #9467bd; stroke: #9467bd"/>
     <use xlink:href="#m0a3cd453d7" x="283.714021" y="246.861737" style="fill: #9467bd; stroke: #9467bd"/>
     <use xlink:href="#m0a3cd453d7" x="311.767517" y="214.140942" style="fill: #9467bd; stroke: #9467bd"/>
     <use xlink:href="#m0a3cd453d7" x="339.821014" y="189.273137" style="fill: #9467bd; stroke: #9467bd"/>
     <use xlink:href="#m0a3cd453d7" x="367.87451" y="150.008182" style="fill: #9467bd; stroke: #9467bd"/>
     <use xlink:href="#m0a3cd453d7" x="395.928007" y="134.302201" style="fill: #9467bd; stroke: #9467bd"/>
     <use xlink:href="#m0a3cd453d7" x="423.981503" y="105.5079" style="fill: #9467bd; stroke: #9467bd"/>
     <use xlink:href="#m0a3cd453d7" x="508.141993" y="105.5079" style="fill: #9467bd; stroke: #9467bd"/>
     <use xlink:href="#m0a3cd453d7" x="536.19549" y="105.5079" style="fill: #9467bd; stroke: #9467bd"/>
     <use xlink:href="#m0a3cd453d7" x="564.248986" y="105.5079" style="fill: #9467bd; stroke: #9467bd"/>
     <use xlink:href="#m0a3cd453d7" x="592.302483" y="105.5079" style="fill: #9467bd; stroke: #9467bd"/>
     <use xlink:href="#m0a3cd453d7" x="620.355979" y="105.5079" style="fill: #9467bd; stroke: #9467bd"/>
     <use xlink:href="#m0a3cd453d7" x="676.462972" y="105.5079" style="fill: #9467bd; stroke: #9467bd"/>
     <use xlink:href="#m0a3cd453d7" x="704.516469" y="105.5079" style="fill: #9467bd; stroke: #9467bd"/>
     <use xlink:href="#m0a3cd453d7" x="732.569965" y="105.5079" style="fill: #9467bd; stroke: #9467bd"/>
     <use xlink:href="#m0a3cd453d7" x="760.623462" y="105.5079" style="fill: #9467bd; stroke: #9467bd"/>
     <use xlink:href="#m0a3cd453d7" x="788.676958" y="105.5079" style="fill: #9467bd; stroke: #9467bd"/>
     <use xlink:href="#m0a3cd453d7" x="816.730455" y="85.875423" style="fill: #9467bd; stroke: #9467bd"/>
    </g>
   </g>
   <g id="line2d_34">
    <path d="M 87.339545 376.5666 
L 115.393042 363.478282 
L 143.446538 341.228141 
L 171.500035 328.139823 
L 199.553531 301.963187 
L 227.607028 266.624727 
L 255.660524 248.301082 
L 283.714021 248.301082 
L 311.767517 215.580286 
L 339.821014 203.8008 
L 367.87451 175.0065 
L 395.928007 167.153509 
L 423.981503 126.579722 
L 508.141993 126.579722 
L 536.19549 126.579722 
L 564.248986 126.579722 
L 592.302483 126.579722 
L 620.355979 126.579722 
L 676.462972 126.579722 
L 704.516469 126.579722 
L 732.569965 126.579722 
L 760.623462 126.579722 
L 788.676958 126.579722 
L 816.730455 126.579722 
" clip-path="url(#pd6eb3d9087)" style="fill: none; stroke: #8c564b; stroke-width: 1.5; stroke-linecap: square"/>
    <defs>
     <path id="ma380a20870" d="M 0 3.5 
C 0.928211 3.5 1.81853 3.131218 2.474874 2.474874 
C 3.131218 1.81853 3.5 0.928211 3.5 0 
C 3.5 -0.928211 3.131218 -1.81853 2.474874 -2.474874 
C 1.81853 -3.131218 0.928211 -3.5 0 -3.5 
C -0.928211 -3.5 -1.81853 -3.131218 -2.474874 -2.474874 
C -3.131218 -1.81853 -3.5 -0.928211 -3.5 0 
C -3.5 0.928211 -3.131218 1.81853 -2.474874 2.474874 
C -1.81853 3.131218 -0.928211 3.5 0 3.5 
z
" style="stroke: #8c564b"/>
    </defs>
    <g clip-path="url(#pd6eb3d9087)">
     <use xlink:href="#ma380a20870" x="87.339545" y="376.5666" style="fill: #8c564b; stroke: #8c564b"/>
     <use xlink:href="#ma380a20870" x="115.393042" y="363.478282" style="fill: #8c564b; stroke: #8c564b"/>
     <use xlink:href="#ma380a20870" x="143.446538" y="341.228141" style="fill: #8c564b; stroke: #8c564b"/>
     <use xlink:href="#ma380a20870" x="171.500035" y="328.139823" style="fill: #8c564b; stroke: #8c564b"/>
     <use xlink:href="#ma380a20870" x="199.553531" y="301.963187" style="fill: #8c564b; stroke: #8c564b"/>
     <use xlink:href="#ma380a20870" x="227.607028" y="266.624727" style="fill: #8c564b; stroke: #8c564b"/>
     <use xlink:href="#ma380a20870" x="255.660524" y="248.301082" style="fill: #8c564b; stroke: #8c564b"/>
     <use xlink:href="#ma380a20870" x="283.714021" y="248.301082" style="fill: #8c564b; stroke: #8c564b"/>
     <use xlink:href="#ma380a20870" x="311.767517" y="215.580286" style="fill: #8c564b; stroke: #8c564b"/>
     <use xlink:href="#ma380a20870" x="339.821014" y="203.8008" style="fill: #8c564b; stroke: #8c564b"/>
     <use xlink:href="#ma380a20870" x="367.87451" y="175.0065" style="fill: #8c564b; stroke: #8c564b"/>
     <use xlink:href="#ma380a20870" x="395.928007" y="167.153509" style="fill: #8c564b; stroke: #8c564b"/>
     <use xlink:href="#ma380a20870" x="423.981503" y="126.579722" style="fill: #8c564b; stroke: #8c564b"/>
     <use xlink:href="#ma380a20870" x="508.141993" y="126.579722" style="fill: #8c564b; stroke: #8c564b"/>
     <use xlink:href="#ma380a20870" x="536.19549" y="126.579722" style="fill: #8c564b; stroke: #8c564b"/>
     <use xlink:href="#ma380a20870" x="564.248986" y="126.579722" style="fill: #8c564b; stroke: #8c564b"/>
     <use xlink:href="#ma380a20870" x="592.302483" y="126.579722" style="fill: #8c564b; stroke: #8c564b"/>
     <use xlink:href="#ma380a20870" x="620.355979" y="126.579722" style="fill: #8c564b; stroke: #8c564b"/>
     <use xlink:href="#ma380a20870" x="676.462972" y="126.579722" style="fill: #8c564b; stroke: #8c564b"/>
     <use xlink:href="#ma380a20870" x="704.516469" y="126.579722" style="fill: #8c564b; stroke: #8c564b"/>
     <use xlink:href="#ma380a20870" x="732.569965" y="126.579722" style="fill: #8c564b; stroke: #8c564b"/>
     <use xlink:href="#ma380a20870" x="760.623462" y="126.579722" style="fill: #8c564b; stroke: #8c564b"/>
     <use xlink:href="#ma380a20870" x="788.676958" y="126.579722" style="fill: #8c564b; stroke: #8c564b"/>
     <use xlink:href="#ma380a20870" x="816.730455" y="126.579722" style="fill: #8c564b; stroke: #8c564b"/>
    </g>
   </g>
   <g id="line2d_35">
    <path d="M 87.339545 376.524213 
L 115.393042 350.347576 
L 143.446538 328.097435 
L 171.500035 308.464958 
L 199.553531 299.303135 
L 227.607028 266.58234 
L 255.660524 258.729349 
L 283.714021 256.111685 
L 311.767517 227.317385 
L 339.821014 218.155562 
L 367.87451 182.817103 
L 395.928007 167.111121 
L 423.981503 125.228503 
L 508.141993 125.228503 
L 536.19549 125.228503 
L 564.248986 125.228503 
L 592.302483 125.228503 
L 620.355979 125.228503 
L 676.462972 125.228503 
L 704.516469 125.228503 
L 732.569965 125.228503 
L 760.623462 125.228503 
L 788.676958 125.228503 
L 816.730455 105.596026 
" clip-path="url(#pd6eb3d9087)" style="fill: none; stroke: #e377c2; stroke-width: 1.5; stroke-linecap: square"/>
    <defs>
     <path id="ma6b02a8374" d="M 0 3.5 
C 0.928211 3.5 1.81853 3.131218 2.474874 2.474874 
C 3.131218 1.81853 3.5 0.928211 3.5 0 
C 3.5 -0.928211 3.131218 -1.81853 2.474874 -2.474874 
C 1.81853 -3.131218 0.928211 -3.5 0 -3.5 
C -0.928211 -3.5 -1.81853 -3.131218 -2.474874 -2.474874 
C -3.131218 -1.81853 -3.5 -0.928211 -3.5 0 
C -3.5 0.928211 -3.131218 1.81853 -2.474874 2.474874 
C -1.81853 3.131218 -0.928211 3.5 0 3.5 
z
" style="stroke: #e377c2"/>
    </defs>
    <g clip-path="url(#pd6eb3d9087)">
     <use xlink:href="#ma6b02a8374" x="87.339545" y="376.524213" style="fill: #e377c2; stroke: #e377c2"/>
     <use xlink:href="#ma6b02a8374" x="115.393042" y="350.347576" style="fill: #e377c2; stroke: #e377c2"/>
     <use xlink:href="#ma6b02a8374" x="143.446538" y="328.097435" style="fill: #e377c2; stroke: #e377c2"/>
     <use xlink:href="#ma6b02a8374" x="171.500035" y="308.464958" style="fill: #e377c2; stroke: #e377c2"/>
     <use xlink:href="#ma6b02a8374" x="199.553531" y="299.303135" style="fill: #e377c2; stroke: #e377c2"/>
     <use xlink:href="#ma6b02a8374" x="227.607028" y="266.58234" style="fill: #e377c2; stroke: #e377c2"/>
     <use xlink:href="#ma6b02a8374" x="255.660524" y="258.729349" style="fill: #e377c2; stroke: #e377c2"/>
     <use xlink:href="#ma6b02a8374" x="283.714021" y="256.111685" style="fill: #e377c2; stroke: #e377c2"/>
     <use xlink:href="#ma6b02a8374" x="311.767517" y="227.317385" style="fill: #e377c2; stroke: #e377c2"/>
     <use xlink:href="#ma6b02a8374" x="339.821014" y="218.155562" style="fill: #e377c2; stroke: #e377c2"/>
     <use xlink:href="#ma6b02a8374" x="367.87451" y="182.817103" style="fill: #e377c2; stroke: #e377c2"/>
     <use xlink:href="#ma6b02a8374" x="395.928007" y="167.111121" style="fill: #e377c2; stroke: #e377c2"/>
     <use xlink:href="#ma6b02a8374" x="423.981503" y="125.228503" style="fill: #e377c2; stroke: #e377c2"/>
     <use xlink:href="#ma6b02a8374" x="508.141993" y="125.228503" style="fill: #e377c2; stroke: #e377c2"/>
     <use xlink:href="#ma6b02a8374" x="536.19549" y="125.228503" style="fill: #e377c2; stroke: #e377c2"/>
     <use xlink:href="#ma6b02a8374" x="564.248986" y="125.228503" style="fill: #e377c2; stroke: #e377c2"/>
     <use xlink:href="#ma6b02a8374" x="592.302483" y="125.228503" style="fill: #e377c2; stroke: #e377c2"/>
     <use xlink:href="#ma6b02a8374" x="620.355979" y="125.228503" style="fill: #e377c2; stroke: #e377c2"/>
     <use xlink:href="#ma6b02a8374" x="676.462972" y="125.228503" style="fill: #e377c2; stroke: #e377c2"/>
     <use xlink:href="#ma6b02a8374" x="704.516469" y="125.228503" style="fill: #e377c2; stroke: #e377c2"/>
     <use xlink:href="#ma6b02a8374" x="732.569965" y="125.228503" style="fill: #e377c2; stroke: #e377c2"/>
     <use xlink:href="#ma6b02a8374" x="760.623462" y="125.228503" style="fill: #e377c2; stroke: #e377c2"/>
     <use xlink:href="#ma6b02a8374" x="788.676958" y="125.228503" style="fill: #e377c2; stroke: #e377c2"/>
     <use xlink:href="#ma6b02a8374" x="816.730455" y="105.596026" style="fill: #e377c2; stroke: #e377c2"/>
    </g>
   </g>
   <g id="line2d_36">
    <path d="M 87.339545 383.047273 
L 115.393042 375.194282 
L 143.446538 355.561804 
L 171.500035 352.944141 
L 199.553531 333.311663 
L 227.607028 330.694 
L 255.660524 308.443859 
L 283.714021 288.811381 
L 311.767517 243.002268 
L 339.821014 237.76694 
L 367.87451 224.678622 
L 395.928007 180.17834 
L 423.981503 142.222217 
L 508.141993 142.222217 
L 536.19549 142.222217 
L 564.248986 142.222217 
L 592.302483 142.222217 
L 620.355979 142.222217 
L 676.462972 142.222217 
L 704.516469 142.222217 
L 732.569965 142.222217 
L 760.623462 142.222217 
L 788.676958 142.222217 
L 816.730455 122.58974 
" clip-path="url(#pd6eb3d9087)" style="fill: none; stroke: #7f7f7f; stroke-width: 1.5; stroke-linecap: square"/>
    <defs>
     <path id="m85af6f2a52" d="M 0 3.5 
C 0.928211 3.5 1.81853 3.131218 2.474874 2.474874 
C 3.131218 1.81853 3.5 0.928211 3.5 0 
C 3.5 -0.928211 3.131218 -1.81853 2.474874 -2.474874 
C 1.81853 -3.131218 0.928211 -3.5 0 -3.5 
C -0.928211 -3.5 -1.81853 -3.131218 -2.474874 -2.474874 
C -3.131218 -1.81853 -3.5 -0.928211 -3.5 0 
C -3.5 0.928211 -3.131218 1.81853 -2.474874 2.474874 
C -1.81853 3.131218 -0.928211 3.5 0 3.5 
z
" style="stroke: #7f7f7f"/>
    </defs>
    <g clip-path="url(#pd6eb3d9087)">
     <use xlink:href="#m85af6f2a52" x="87.339545" y="383.047273" style="fill: #7f7f7f; stroke: #7f7f7f"/>
     <use xlink:href="#m85af6f2a52" x="115.393042" y="375.194282" style="fill: #7f7f7f; stroke: #7f7f7f"/>
     <use xlink:href="#m85af6f2a52" x="143.446538" y="355.561804" style="fill: #7f7f7f; stroke: #7f7f7f"/>
     <use xlink:href="#m85af6f2a52" x="171.500035" y="352.944141" style="fill: #7f7f7f; stroke: #7f7f7f"/>
     <use xlink:href="#m85af6f2a52" x="199.553531" y="333.311663" style="fill: #7f7f7f; stroke: #7f7f7f"/>
     <use xlink:href="#m85af6f2a52" x="227.607028" y="330.694" style="fill: #7f7f7f; stroke: #7f7f7f"/>
     <use xlink:href="#m85af6f2a52" x="255.660524" y="308.443859" style="fill: #7f7f7f; stroke: #7f7f7f"/>
     <use xlink:href="#m85af6f2a52" x="283.714021" y="288.811381" style="fill: #7f7f7f; stroke: #7f7f7f"/>
     <use xlink:href="#m85af6f2a52" x="311.767517" y="243.002268" style="fill: #7f7f7f; stroke: #7f7f7f"/>
     <use xlink:href="#m85af6f2a52" x="339.821014" y="237.76694" style="fill: #7f7f7f; stroke: #7f7f7f"/>
     <use xlink:href="#m85af6f2a52" x="367.87451" y="224.678622" style="fill: #7f7f7f; stroke: #7f7f7f"/>
     <use xlink:href="#m85af6f2a52" x="395.928007" y="180.17834" style="fill: #7f7f7f; stroke: #7f7f7f"/>
     <use xlink:href="#m85af6f2a52" x="423.981503" y="142.222217" style="fill: #7f7f7f; stroke: #7f7f7f"/>
     <use xlink:href="#m85af6f2a52" x="508.141993" y="142.222217" style="fill: #7f7f7f; stroke: #7f7f7f"/>
     <use xlink:href="#m85af6f2a52" x="536.19549" y="142.222217" style="fill: #7f7f7f; stroke: #7f7f7f"/>
     <use xlink:href="#m85af6f2a52" x="564.248986" y="142.222217" style="fill: #7f7f7f; stroke: #7f7f7f"/>
     <use xlink:href="#m85af6f2a52" x="592.302483" y="142.222217" style="fill: #7f7f7f; stroke: #7f7f7f"/>
     <use xlink:href="#m85af6f2a52" x="620.355979" y="142.222217" style="fill: #7f7f7f; stroke: #7f7f7f"/>
     <use xlink:href="#m85af6f2a52" x="676.462972" y="142.222217" style="fill: #7f7f7f; stroke: #7f7f7f"/>
     <use xlink:href="#m85af6f2a52" x="704.516469" y="142.222217" style="fill: #7f7f7f; stroke: #7f7f7f"/>
     <use xlink:href="#m85af6f2a52" x="732.569965" y="142.222217" style="fill: #7f7f7f; stroke: #7f7f7f"/>
     <use xlink:href="#m85af6f2a52" x="760.623462" y="142.222217" style="fill: #7f7f7f; stroke: #7f7f7f"/>
     <use xlink:href="#m85af6f2a52" x="788.676958" y="142.222217" style="fill: #7f7f7f; stroke: #7f7f7f"/>
     <use xlink:href="#m85af6f2a52" x="816.730455" y="122.58974" style="fill: #7f7f7f; stroke: #7f7f7f"/>
    </g>
   </g>
   <g id="line2d_37">
    <path d="M 87.339545 382.989234 
L 115.393042 356.812598 
L 143.446538 328.018297 
L 171.500035 318.856475 
L 199.553531 299.223997 
L 227.607028 270.429697 
L 255.660524 241.635397 
L 283.714021 239.017734 
L 311.767517 206.296938 
L 339.821014 164.41432 
L 367.87451 135.62002 
L 395.928007 106.82572 
L 423.981503 71.48726 
L 508.141993 71.48726 
L 536.19549 71.48726 
L 564.248986 71.48726 
L 592.302483 71.48726 
L 620.355979 71.48726 
L 676.462972 71.48726 
L 704.516469 71.48726 
L 732.569965 71.48726 
L 760.623462 71.48726 
L 788.676958 71.48726 
L 816.730455 71.48726 
" clip-path="url(#pd6eb3d9087)" style="fill: none; stroke: #bcbd22; stroke-width: 1.5; stroke-linecap: square"/>
    <defs>
     <path id="m359c5b2ae4" d="M 0 3.5 
C 0.928211 3.5 1.81853 3.131218 2.474874 2.474874 
C 3.131218 1.81853 3.5 0.928211 3.5 0 
C 3.5 -0.928211 3.131218 -1.81853 2.474874 -2.474874 
C 1.81853 -3.131218 0.928211 -3.5 0 -3.5 
C -0.928211 -3.5 -1.81853 -3.131218 -2.474874 -2.474874 
C -3.131218 -1.81853 -3.5 -0.928211 -3.5 0 
C -3.5 0.928211 -3.131218 1.81853 -2.474874 2.474874 
C -1.81853 3.131218 -0.928211 3.5 0 3.5 
z
" style="stroke: #bcbd22"/>
    </defs>
    <g clip-path="url(#pd6eb3d9087)">
     <use xlink:href="#m359c5b2ae4" x="87.339545" y="382.989234" style="fill: #bcbd22; stroke: #bcbd22"/>
     <use xlink:href="#m359c5b2ae4" x="115.393042" y="356.812598" style="fill: #bcbd22; stroke: #bcbd22"/>
     <use xlink:href="#m359c5b2ae4" x="143.446538" y="328.018297" style="fill: #bcbd22; stroke: #bcbd22"/>
     <use xlink:href="#m359c5b2ae4" x="171.500035" y="318.856475" style="fill: #bcbd22; stroke: #bcbd22"/>
     <use xlink:href="#m359c5b2ae4" x="199.553531" y="299.223997" style="fill: #bcbd22; stroke: #bcbd22"/>
     <use xlink:href="#m359c5b2ae4" x="227.607028" y="270.429697" style="fill: #bcbd22; stroke: #bcbd22"/>
     <use xlink:href="#m359c5b2ae4" x="255.660524" y="241.635397" style="fill: #bcbd22; stroke: #bcbd22"/>
     <use xlink:href="#m359c5b2ae4" x="283.714021" y="239.017734" style="fill: #bcbd22; stroke: #bcbd22"/>
     <use xlink:href="#m359c5b2ae4" x="311.767517" y="206.296938" style="fill: #bcbd22; stroke: #bcbd22"/>
     <use xlink:href="#m359c5b2ae4" x="339.821014" y="164.41432" style="fill: #bcbd22; stroke: #bcbd22"/>
     <use xlink:href="#m359c5b2ae4" x="367.87451" y="135.62002" style="fill: #bcbd22; stroke: #bcbd22"/>
     <use xlink:href="#m359c5b2ae4" x="395.928007" y="106.82572" style="fill: #bcbd22; stroke: #bcbd22"/>
     <use xlink:href="#m359c5b2ae4" x="423.981503" y="71.48726" style="fill: #bcbd22; stroke: #bcbd22"/>
     <use xlink:href="#m359c5b2ae4" x="508.141993" y="71.48726" style="fill: #bcbd22; stroke: #bcbd22"/>
     <use xlink:href="#m359c5b2ae4" x="536.19549" y="71.48726" style="fill: #bcbd22; stroke: #bcbd22"/>
     <use xlink:href="#m359c5b2ae4" x="564.248986" y="71.48726" style="fill: #bcbd22; stroke: #bcbd22"/>
     <use xlink:href="#m359c5b2ae4" x="592.302483" y="71.48726" style="fill: #bcbd22; stroke: #bcbd22"/>
     <use xlink:href="#m359c5b2ae4" x="620.355979" y="71.48726" style="fill: #bcbd22; stroke: #bcbd22"/>
     <use xlink:href="#m359c5b2ae4" x="676.462972" y="71.48726" style="fill: #bcbd22; stroke: #bcbd22"/>
     <use xlink:href="#m359c5b2ae4" x="704.516469" y="71.48726" style="fill: #bcbd22; stroke: #bcbd22"/>
     <use xlink:href="#m359c5b2ae4" x="732.569965" y="71.48726" style="fill: #bcbd22; stroke: #bcbd22"/>
     <use xlink:href="#m359c5b2ae4" x="760.623462" y="71.48726" style="fill: #bcbd22; stroke: #bcbd22"/>
     <use xlink:href="#m359c5b2ae4" x="788.676958" y="71.48726" style="fill: #bcbd22; stroke: #bcbd22"/>
     <use xlink:href="#m359c5b2ae4" x="816.730455" y="71.48726" style="fill: #bcbd22; stroke: #bcbd22"/>
    </g>
   </g>
   <g id="patch_3">
    <path d="M 50.87 404.12 
L 50.87 26.88 
" style="fill: none; stroke: #000000; stroke-width: 0.8; stroke-linejoin: miter; stroke-linecap: square"/>
   </g>
   <g id="patch_4">
    <path d="M 853.2 404.12 
L 853.2 26.88 
" style="fill: none; stroke: #000000; stroke-width: 0.8; stroke-linejoin: miter; stroke-linecap: square"/>
   </g>
   <g id="patch_5">
    <path d="M 50.87 404.12 
L 853.2 404.12 
" style="fill: none; stroke: #000000; stroke-width: 0.8; stroke-linejoin: miter; stroke-linecap: square"/>
   </g>
   <g id="patch_6">
    <path d="M 50.87 26.88 
L 853.2 26.88 
" style="fill: none; stroke: #000000; stroke-width: 0.8; stroke-linejoin: miter; stroke-linecap: square"/>
   </g>
   <g id="text_16">
    <!-- Standings -->
    <g transform="translate(422.18125 20.88) scale(0.12 -0.12)">
     <defs>
      <path id="DejaVuSans-74" d="M 1172 4494 
L 1172 3500 
L 2356 3500 
L 2356 3053 
L 1172 3053 
L 1172 1153 
Q 1172 725 1289 603 
Q 1406 481 1766 481 
L 2356 481 
L 2356 0 
L 1766 0 
Q 1100 0 847 248 
Q 594 497 594 1153 
L 594 3053 
L 172 3053 
L 172 3500 
L 594 3500 
L 594 4494 
L 1172 4494 
z
" transform="scale(0.015625)"/>
      <path id="DejaVuSans-61" d="M 2194 1759 
Q 1497 1759 1228 1600 
Q 959 1441 959 1056 
Q 959 750 1161 570 
Q 1363 391 1709 391 
Q 2188 391 2477 730 
Q 2766 1069 2766 1631 
L 2766 1759 
L 2194 1759 
z
M 3341 1997 
L 3341 0 
L 2766 0 
L 2766 531 
Q 2569 213 2275 61 
Q 1981 -91 1556 -91 
Q 1019 -91 701 211 
Q 384 513 384 1019 
Q 384 1609 779 1909 
Q 1175 2209 1959 2209 
L 2766 2209 
L 2766 2266 
Q 2766 2663 2505 2880 
Q 2244 3097 1772 3097 
Q 1472 3097 1187 3025 
Q 903 2953 641 2809 
L 641 3341 
Q 956 3463 1253 3523 
Q 1550 3584 1831 3584 
Q 2591 3584 2966 3190 
Q 3341 2797 3341 1997 
z
" transform="scale(0.015625)"/>
      <path id="DejaVuSans-6e" d="M 3513 2113 
L 3513 0 
L 2938 0 
L 2938 2094 
Q 2938 2591 2744 2837 
Q 2550 3084 2163 3084 
Q 1697 3084 1428 2787 
Q 1159 2491 1159 1978 
L 1159 0 
L 581 0 
L 581 3500 
L 1159 3500 
L 1159 2956 
Q 1366 3272 1645 3428 
Q 1925 3584 2291 3584 
Q 2894 3584 3203 3211 
Q 3513 2838 3513 2113 
z
" transform="scale(0.015625)"/>
      <path id="DejaVuSans-64" d="M 2906 2969 
L 2906 4863 
L 3481 4863 
L 3481 0 
L 2906 0 
L 2906 525 
Q 2725 213 2448 61 
Q 2172 -91 1784 -91 
Q 1150 -91 751 415 
Q 353 922 353 1747 
Q 353 2572 751 3078 
Q 1150 3584 1784 3584 
Q 2172 3584 2448 3432 
Q 2725 3281 2906 2969 
z
M 947 1747 
Q 947 1113 1208 752 
Q 1469 391 1925 391 
Q 2381 391 2643 752 
Q 2906 1113 2906 1747 
Q 2906 2381 2643 2742 
Q 2381 3103 1925 3103 
Q 1469 3103 1208 2742 
Q 947 2381 947 1747 
z
" transform="scale(0.015625)"/>
      <path id="DejaVuSans-69" d="M 603 3500 
L 1178 3500 
L 1178 0 
L 603 0 
L 603 3500 
z
M 603 4863 
L 1178 4863 
L 1178 4134 
L 603 4134 
L 603 4863 
z
" transform="scale(0.015625)"/>
      <path id="DejaVuSans-67" d="M 2906 1791 
Q 2906 2416 2648 2759 
Q 2391 3103 1925 3103 
Q 1463 3103 1205 2759 
Q 947 2416 947 1791 
Q 947 1169 1205 825 
Q 1463 481 1925 481 
Q 2391 481 2648 825 
Q 2906 1169 2906 1791 
z
M 3481 434 
Q 3481 -459 3084 -895 
Q 2688 -1331 1869 -1331 
Q 1566 -1331 1297 -1286 
Q 1028 -1241 775 -1147 
L 775 -588 
Q 1028 -725 1275 -790 
Q 1522 -856 1778 -856 
Q 2344 -856 2625 -561 
Q 2906 -266 2906 331 
L 2906 616 
Q 2728 306 2450 153 
Q 2172 0 1784 0 
Q 1141 0 747 490 
Q 353 981 353 1791 
Q 353 2603 747 3093 
Q 1141 3584 1784 3584 
Q 2172 3584 2450 3431 
Q 2728 3278 2906 2969 
L 2906 3500 
L 3481 3500 
L 3481 434 
z
" transform="scale(0.015625)"/>
      <path id="DejaVuSans-73" d="M 2834 3397 
L 2834 2853 
Q 2591 2978 2328 3040 
Q 2066 3103 1784 3103 
Q 1356 3103 1142 2972 
Q 928 2841 928 2578 
Q 928 2378 1081 2264 
Q 1234 2150 1697 2047 
L 1894 2003 
Q 2506 1872 2764 1633 
Q 3022 1394 3022 966 
Q 3022 478 2636 193 
Q 2250 -91 1575 -91 
Q 1294 -91 989 -36 
Q 684 19 347 128 
L 347 722 
Q 666 556 975 473 
Q 1284 391 1588 391 
Q 1994 391 2212 530 
Q 2431 669 2431 922 
Q 2431 1156 2273 1281 
Q 2116 1406 1581 1522 
L 1381 1569 
Q 847 1681 609 1914 
Q 372 2147 372 2553 
Q 372 3047 722 3315 
Q 1072 3584 1716 3584 
Q 2034 3584 2315 3537 
Q 2597 3491 2834 3397 
z
" transform="scale(0.015625)"/>
     </defs>
     <use xlink:href="#DejaVuSans-53"/>
     <use xlink:href="#DejaVuSans-74" x="63.476562"/>
     <use xlink:href="#DejaVuSans-61" x="102.685547"/>
     <use xlink:href="#DejaVuSans-6e" x="163.964844"/>
     <use xlink:href="#DejaVuSans-64" x="227.34375"/>
     <use xlink:href="#DejaVuSans-69" x="290.820312"/>
     <use xlink:href="#DejaVuSans-6e" x="318.603516"/>
     <use xlink:href="#DejaVuSans-67" x="381.982422"/>
     <use xlink:href="#DejaVuSans-73" x="445.458984"/>
    </g>
   </g>
   <g id="legend_1">
    <g id="patch_7">
     <path d="M 57.87 166.983125 
L 153.949688 166.983125 
Q 155.949688 166.983125 155.949688 164.983125 
L 155.949688 33.88 
Q 155.949688 31.88 153.949688 31.88 
L 57.87 31.88 
Q 55.87 31.88 55.87 33.88 
L 55.87 164.983125 
Q 55.87 166.983125 57.87 166.983125 
z
" style="fill: #ffffff; opacity: 0.8; stroke: #cccccc; stroke-linejoin: miter"/>
    </g>
    <g id="line2d_38">
     <path d="M 59.87 39.978437 
L 69.87 39.978437 
L 79.87 39.978437 
" style="fill: none; stroke: #1f77b4; stroke-width: 1.5; stroke-linecap: square"/>
     <g>
      <use xlink:href="#mfe3038236e" x="69.87" y="39.978437" style="fill: #1f77b4; stroke: #1f77b4"/>
     </g>
    </g>
    <g id="text_17">
     <!-- Alan Ce -->
     <g transform="translate(87.87 43.478437) scale(0.1 -0.1)">
      <defs>
       <path id="DejaVuSans-41" d="M 2188 4044 
L 1331 1722 
L 3047 1722 
L 2188 4044 
z
M 1831 4666 
L 2547 4666 
L 4325 0 
L 3669 0 
L 3244 1197 
L 1141 1197 
L 716 0 
L 50 0 
L 1831 4666 
z
" transform="scale(0.015625)"/>
       <path id="DejaVuSans-6c" d="M 603 4863 
L 1178 4863 
L 1178 0 
L 603 0 
L 603 4863 
z
" transform="scale(0.015625)"/>
       <path id="DejaVuSans-20" transform="scale(0.015625)"/>
       <path id="DejaVuSans-43" d="M 4122 4306 
L 4122 3641 
Q 3803 3938 3442 4084 
Q 3081 4231 2675 4231 
Q 1875 4231 1450 3742 
Q 1025 3253 1025 2328 
Q 1025 1406 1450 917 
Q 1875 428 2675 428 
Q 3081 428 3442 575 
Q 3803 722 4122 1019 
L 4122 359 
Q 3791 134 3420 21 
Q 3050 -91 2638 -91 
Q 1578 -91 968 557 
Q 359 1206 359 2328 
Q 359 3453 968 4101 
Q 1578 4750 2638 4750 
Q 3056 4750 3426 4639 
Q 3797 4528 4122 4306 
z
" transform="scale(0.015625)"/>
      </defs>
      <use xlink:href="#DejaVuSans-41"/>
      <use xlink:href="#DejaVuSans-6c" x="68.408203"/>
      <use xlink:href="#DejaVuSans-61" x="96.191406"/>
      <use xlink:href="#DejaVuSans-6e" x="157.470703"/>
      <use xlink:href="#DejaVuSans-20" x="220.849609"/>
      <use xlink:href="#DejaVuSans-43" x="252.636719"/>
      <use xlink:href="#DejaVuSans-65" x="322.460938"/>
     </g>
    </g>
    <g id="line2d_39">
     <path d="M 59.87 54.656563 
L 69.87 54.656563 
L 79.87 54.656563 
" style="fill: none; stroke: #ff7f0e; stroke-width: 1.5; stroke-linecap: square"/>
     <g>
      <use xlink:href="#m0961905952" x="69.87" y="54.656563" style="fill: #ff7f0e; stroke: #ff7f0e"/>
     </g>
    </g>
    <g id="text_18">
     <!-- Sebastian Le -->
     <g transform="translate(87.87 58.156563) scale(0.1 -0.1)">
      <defs>
       <path id="DejaVuSans-62" d="M 3116 1747 
Q 3116 2381 2855 2742 
Q 2594 3103 2138 3103 
Q 1681 3103 1420 2742 
Q 1159 2381 1159 1747 
Q 1159 1113 1420 752 
Q 1681 391 2138 391 
Q 2594 391 2855 752 
Q 3116 1113 3116 1747 
z
M 1159 2969 
Q 1341 3281 1617 3432 
Q 1894 3584 2278 3584 
Q 2916 3584 3314 3078 
Q 3713 2572 3713 1747 
Q 3713 922 3314 415 
Q 2916 -91 2278 -91 
Q 1894 -91 1617 61 
Q 1341 213 1159 525 
L 1159 0 
L 581 0 
L 581 4863 
L 1159 4863 
L 1159 2969 
z
" transform="scale(0.015625)"/>
       <path id="DejaVuSans-4c" d="M 628 4666 
L 1259 4666 
L 1259 531 
L 3531 531 
L 3531 0 
L 628 0 
L 628 4666 
z
" transform="scale(0.015625)"/>
      </defs>
      <use xlink:href="#DejaVuSans-53"/>
      <use xlink:href="#DejaVuSans-65" x="63.476562"/>
      <use xlink:href="#DejaVuSans-62" x="125"/>
      <use xlink:href="#DejaVuSans-61" x="188.476562"/>
      <use xlink:href="#DejaVuSans-73" x="249.755859"/>
      <use xlink:href="#DejaVuSans-74" x="301.855469"/>
      <use xlink:href="#DejaVuSans-69" x="341.064453"/>
      <use xlink:href="#DejaVuSans-61" x="368.847656"/>
      <use xlink:href="#DejaVuSans-6e" x="430.126953"/>
      <use xlink:href="#DejaVuSans-20" x="493.505859"/>
      <use xlink:href="#DejaVuSans-4c" x="525.292969"/>
      <use xlink:href="#DejaVuSans-65" x="579.255859"/>
     </g>
    </g>
    <g id="line2d_40">
     <path d="M 59.87 69.334687 
L 69.87 69.334687 
L 79.87 69.334687 
" style="fill: none; stroke: #2ca02c; stroke-width: 1.5; stroke-linecap: square"/>
     <g>
      <use xlink:href="#m6fd135b10f" x="69.87" y="69.334687" style="fill: #2ca02c; stroke: #2ca02c"/>
     </g>
    </g>
    <g id="text_19">
     <!-- Sarah Gy -->
     <g transform="translate(87.87 72.834687) scale(0.1 -0.1)">
      <defs>
       <path id="DejaVuSans-68" d="M 3513 2113 
L 3513 0 
L 2938 0 
L 2938 2094 
Q 2938 2591 2744 2837 
Q 2550 3084 2163 3084 
Q 1697 3084 1428 2787 
Q 1159 2491 1159 1978 
L 1159 0 
L 581 0 
L 581 4863 
L 1159 4863 
L 1159 2956 
Q 1366 3272 1645 3428 
Q 1925 3584 2291 3584 
Q 2894 3584 3203 3211 
Q 3513 2838 3513 2113 
z
" transform="scale(0.015625)"/>
       <path id="DejaVuSans-47" d="M 3809 666 
L 3809 1919 
L 2778 1919 
L 2778 2438 
L 4434 2438 
L 4434 434 
Q 4069 175 3628 42 
Q 3188 -91 2688 -91 
Q 1594 -91 976 548 
Q 359 1188 359 2328 
Q 359 3472 976 4111 
Q 1594 4750 2688 4750 
Q 3144 4750 3555 4637 
Q 3966 4525 4313 4306 
L 4313 3634 
Q 3963 3931 3569 4081 
Q 3175 4231 2741 4231 
Q 1884 4231 1454 3753 
Q 1025 3275 1025 2328 
Q 1025 1384 1454 906 
Q 1884 428 2741 428 
Q 3075 428 3337 486 
Q 3600 544 3809 666 
z
" transform="scale(0.015625)"/>
       <path id="DejaVuSans-79" d="M 2059 -325 
Q 1816 -950 1584 -1140 
Q 1353 -1331 966 -1331 
L 506 -1331 
L 506 -850 
L 844 -850 
Q 1081 -850 1212 -737 
Q 1344 -625 1503 -206 
L 1606 56 
L 191 3500 
L 800 3500 
L 1894 763 
L 2988 3500 
L 3597 3500 
L 2059 -325 
z
" transform="scale(0.015625)"/>
      </defs>
      <use xlink:href="#DejaVuSans-53"/>
      <use xlink:href="#DejaVuSans-61" x="63.476562"/>
      <use xlink:href="#DejaVuSans-72" x="124.755859"/>
      <use xlink:href="#DejaVuSans-61" x="165.869141"/>
      <use xlink:href="#DejaVuSans-68" x="227.148438"/>
      <use xlink:href="#DejaVuSans-20" x="290.527344"/>
      <use xlink:href="#DejaVuSans-47" x="322.314453"/>
      <use xlink:href="#DejaVuSans-79" x="399.804688"/>
     </g>
    </g>
    <g id="line2d_41">
     <path d="M 59.87 84.012812 
L 69.87 84.012812 
L 79.87 84.012812 
" style="fill: none; stroke: #d62728; stroke-width: 1.5; stroke-linecap: square"/>
     <g>
      <use xlink:href="#m51a719c2e9" x="69.87" y="84.012812" style="fill: #d62728; stroke: #d62728"/>
     </g>
    </g>
    <g id="text_20">
     <!-- Matias BN -->
     <g transform="translate(87.87 87.512812) scale(0.1 -0.1)">
      <defs>
       <path id="DejaVuSans-4d" d="M 628 4666 
L 1569 4666 
L 2759 1491 
L 3956 4666 
L 4897 4666 
L 4897 0 
L 4281 0 
L 4281 4097 
L 3078 897 
L 2444 897 
L 1241 4097 
L 1241 0 
L 628 0 
L 628 4666 
z
" transform="scale(0.015625)"/>
       <path id="DejaVuSans-42" d="M 1259 2228 
L 1259 519 
L 2272 519 
Q 2781 519 3026 730 
Q 3272 941 3272 1375 
Q 3272 1813 3026 2020 
Q 2781 2228 2272 2228 
L 1259 2228 
z
M 1259 4147 
L 1259 2741 
L 2194 2741 
Q 2656 2741 2882 2914 
Q 3109 3088 3109 3444 
Q 3109 3797 2882 3972 
Q 2656 4147 2194 4147 
L 1259 4147 
z
M 628 4666 
L 2241 4666 
Q 2963 4666 3353 4366 
Q 3744 4066 3744 3513 
Q 3744 3084 3544 2831 
Q 3344 2578 2956 2516 
Q 3422 2416 3680 2098 
Q 3938 1781 3938 1306 
Q 3938 681 3513 340 
Q 3088 0 2303 0 
L 628 0 
L 628 4666 
z
" transform="scale(0.015625)"/>
       <path id="DejaVuSans-4e" d="M 628 4666 
L 1478 4666 
L 3547 763 
L 3547 4666 
L 4159 4666 
L 4159 0 
L 3309 0 
L 1241 3903 
L 1241 0 
L 628 0 
L 628 4666 
z
" transform="scale(0.015625)"/>
      </defs>
      <use xlink:href="#DejaVuSans-4d"/>
      <use xlink:href="#DejaVuSans-61" x="86.279297"/>
      <use xlink:href="#DejaVuSans-74" x="147.558594"/>
      <use xlink:href="#DejaVuSans-69" x="186.767578"/>
      <use xlink:href="#DejaVuSans-61" x="214.550781"/>
      <use xlink:href="#DejaVuSans-73" x="275.830078"/>
      <use xlink:href="#DejaVuSans-20" x="327.929688"/>
      <use xlink:href="#DejaVuSans-42" x="359.716797"/>
      <use xlink:href="#DejaVuSans-4e" x="428.320312"/>
     </g>
    </g>
    <g id="line2d_42">
     <path d="M 59.87 98.690938 
L 69.87 98.690938 
L 79.87 98.690938 
" style="fill: none; stroke: #9467bd; stroke-width: 1.5; stroke-linecap: square"/>
     <g>
      <use xlink:href="#m0a3cd453d7" x="69.87" y="98.690938" style="fill: #9467bd; stroke: #9467bd"/>
     </g>
    </g>
    <g id="text_21">
     <!-- Christian Gr -->
     <g transform="translate(87.87 102.190938) scale(0.1 -0.1)">
      <use xlink:href="#DejaVuSans-43"/>
      <use xlink:href="#DejaVuSans-68" x="69.824219"/>
      <use xlink:href="#DejaVuSans-72" x="133.203125"/>
      <use xlink:href="#DejaVuSans-69" x="174.316406"/>
      <use xlink:href="#DejaVuSans-73" x="202.099609"/>
      <use xlink:href="#DejaVuSans-74" x="254.199219"/>
      <use xlink:href="#DejaVuSans-69" x="293.408203"/>
      <use xlink:href="#DejaVuSans-61" x="321.191406"/>
      <use xlink:href="#DejaVuSans-6e" x="382.470703"/>
      <use xlink:href="#DejaVuSans-20" x="445.849609"/>
      <use xlink:href="#DejaVuSans-47" x="477.636719"/>
      <use xlink:href="#DejaVuSans-72" x="555.126953"/>
     </g>
    </g>
    <g id="line2d_43">
     <path d="M 59.87 113.369062 
L 69.87 113.369062 
L 79.87 113.369062 
" style="fill: none; stroke: #8c564b; stroke-width: 1.5; stroke-linecap: square"/>
     <g>
      <use xlink:href="#ma380a20870" x="69.87" y="113.369062" style="fill: #8c564b; stroke: #8c564b"/>
     </g>
    </g>
    <g id="text_22">
     <!-- Oscar En -->
     <g transform="translate(87.87 116.869062) scale(0.1 -0.1)">
      <defs>
       <path id="DejaVuSans-4f" d="M 2522 4238 
Q 1834 4238 1429 3725 
Q 1025 3213 1025 2328 
Q 1025 1447 1429 934 
Q 1834 422 2522 422 
Q 3209 422 3611 934 
Q 4013 1447 4013 2328 
Q 4013 3213 3611 3725 
Q 3209 4238 2522 4238 
z
M 2522 4750 
Q 3503 4750 4090 4092 
Q 4678 3434 4678 2328 
Q 4678 1225 4090 567 
Q 3503 -91 2522 -91 
Q 1538 -91 948 565 
Q 359 1222 359 2328 
Q 359 3434 948 4092 
Q 1538 4750 2522 4750 
z
" transform="scale(0.015625)"/>
       <path id="DejaVuSans-45" d="M 628 4666 
L 3578 4666 
L 3578 4134 
L 1259 4134 
L 1259 2753 
L 3481 2753 
L 3481 2222 
L 1259 2222 
L 1259 531 
L 3634 531 
L 3634 0 
L 628 0 
L 628 4666 
z
" transform="scale(0.015625)"/>
      </defs>
      <use xlink:href="#DejaVuSans-4f"/>
      <use xlink:href="#DejaVuSans-73" x="78.710938"/>
      <use xlink:href="#DejaVuSans-63" x="130.810547"/>
      <use xlink:href="#DejaVuSans-61" x="185.791016"/>
      <use xlink:href="#DejaVuSans-72" x="247.070312"/>
      <use xlink:href="#DejaVuSans-20" x="288.183594"/>
      <use xlink:href="#DejaVuSans-45" x="319.970703"/>
      <use xlink:href="#DejaVuSans-6e" x="383.154297"/>
     </g>
    </g>
    <g id="line2d_44">
     <path d="M 59.87 128.047187 
L 69.87 128.047187 
L 79.87 128.047187 
" style="fill: none; stroke: #e377c2; stroke-width: 1.5; stroke-linecap: square"/>
     <g>
      <use xlink:href="#ma6b02a8374" x="69.87" y="128.047187" style="fill: #e377c2; stroke: #e377c2"/>
     </g>
    </g>
    <g id="text_23">
     <!-- Bjarke Ha -->
     <g transform="translate(87.87 131.547187) scale(0.1 -0.1)">
      <defs>
       <path id="DejaVuSans-6a" d="M 603 3500 
L 1178 3500 
L 1178 -63 
Q 1178 -731 923 -1031 
Q 669 -1331 103 -1331 
L -116 -1331 
L -116 -844 
L 38 -844 
Q 366 -844 484 -692 
Q 603 -541 603 -63 
L 603 3500 
z
M 603 4863 
L 1178 4863 
L 1178 4134 
L 603 4134 
L 603 4863 
z
" transform="scale(0.015625)"/>
       <path id="DejaVuSans-6b" d="M 581 4863 
L 1159 4863 
L 1159 1991 
L 2875 3500 
L 3609 3500 
L 1753 1863 
L 3688 0 
L 2938 0 
L 1159 1709 
L 1159 0 
L 581 0 
L 581 4863 
z
" transform="scale(0.015625)"/>
       <path id="DejaVuSans-48" d="M 628 4666 
L 1259 4666 
L 1259 2753 
L 3553 2753 
L 3553 4666 
L 4184 4666 
L 4184 0 
L 3553 0 
L 3553 2222 
L 1259 2222 
L 1259 0 
L 628 0 
L 628 4666 
z
" transform="scale(0.015625)"/>
      </defs>
      <use xlink:href="#DejaVuSans-42"/>
      <use xlink:href="#DejaVuSans-6a" x="68.603516"/>
      <use xlink:href="#DejaVuSans-61" x="96.386719"/>
      <use xlink:href="#DejaVuSans-72" x="157.666016"/>
      <use xlink:href="#DejaVuSans-6b" x="198.779297"/>
      <use xlink:href="#DejaVuSans-65" x="253.064453"/>
      <use xlink:href="#DejaVuSans-20" x="314.587891"/>
      <use xlink:href="#DejaVuSans-48" x="346.375"/>
      <use xlink:href="#DejaVuSans-61" x="421.570312"/>
     </g>
    </g>
    <g id="line2d_45">
     <path d="M 59.87 142.725312 
L 69.87 142.725312 
L 79.87 142.725312 
" style="fill: none; stroke: #7f7f7f; stroke-width: 1.5; stroke-linecap: square"/>
     <g>
      <use xlink:href="#m85af6f2a52" x="69.87" y="142.725312" style="fill: #7f7f7f; stroke: #7f7f7f"/>
     </g>
    </g>
    <g id="text_24">
     <!-- Sif Ma -->
     <g transform="translate(87.87 146.225312) scale(0.1 -0.1)">
      <defs>
       <path id="DejaVuSans-66" d="M 2375 4863 
L 2375 4384 
L 1825 4384 
Q 1516 4384 1395 4259 
Q 1275 4134 1275 3809 
L 1275 3500 
L 2222 3500 
L 2222 3053 
L 1275 3053 
L 1275 0 
L 697 0 
L 697 3053 
L 147 3053 
L 147 3500 
L 697 3500 
L 697 3744 
Q 697 4328 969 4595 
Q 1241 4863 1831 4863 
L 2375 4863 
z
" transform="scale(0.015625)"/>
      </defs>
      <use xlink:href="#DejaVuSans-53"/>
      <use xlink:href="#DejaVuSans-69" x="63.476562"/>
      <use xlink:href="#DejaVuSans-66" x="91.259766"/>
      <use xlink:href="#DejaVuSans-20" x="126.464844"/>
      <use xlink:href="#DejaVuSans-4d" x="158.251953"/>
      <use xlink:href="#DejaVuSans-61" x="244.53125"/>
     </g>
    </g>
    <g id="line2d_46">
     <path d="M 59.87 157.403437 
L 69.87 157.403437 
L 79.87 157.403437 
" style="fill: none; stroke: #bcbd22; stroke-width: 1.5; stroke-linecap: square"/>
     <g>
      <use xlink:href="#m359c5b2ae4" x="69.87" y="157.403437" style="fill: #bcbd22; stroke: #bcbd22"/>
     </g>
    </g>
    <g id="text_25">
     <!-- Helene Cl -->
     <g transform="translate(87.87 160.903437) scale(0.1 -0.1)">
      <use xlink:href="#DejaVuSans-48"/>
      <use xlink:href="#DejaVuSans-65" x="75.195312"/>
      <use xlink:href="#DejaVuSans-6c" x="136.71875"/>
      <use xlink:href="#DejaVuSans-65" x="164.501953"/>
      <use xlink:href="#DejaVuSans-6e" x="226.025391"/>
      <use xlink:href="#DejaVuSans-65" x="289.404297"/>
      <use xlink:href="#DejaVuSans-20" x="350.927734"/>
      <use xlink:href="#DejaVuSans-43" x="382.714844"/>
      <use xlink:href="#DejaVuSans-6c" x="452.539062"/>
     </g>
    </g>
   </g>
  </g>
 </g>
 <defs>
  <clipPath id="pd6eb3d9087">
   <rect x="50.87" y="26.88" width="802.33" height="377.24"/>
  </clipPath>
 </defs>
</svg>
