<?xml version="1.0" encoding="utf-8" standalone="no"?>
<!DOCTYPE svg PUBLIC "-//W3C//DTD SVG 1.1//EN"
  "http://www.w3.org/Graphics/SVG/1.1/DTD/svg11.dtd">
<svg xmlns:xlink="http://www.w3.org/1999/xlink" width="864pt" height="432pt" viewBox="0 0 864 432" xmlns="http://www.w3.org/2000/svg" version="1.1">
 <metadata>
  <rdf:RDF xmlns:dc="http://purl.org/dc/elements/1.1/" xmlns:cc="http://creativecommons.org/ns#" xmlns:rdf="http://www.w3.org/1999/02/22-rdf-syntax-ns#">
   <cc:Work>
    <dc:type rdf:resource="http://purl.org/dc/dcmitype/StillImage"/>
    <dc:date>2024-08-01T12:48:49.847016</dc:date>
    <dc:format>image/svg+xml</dc:format>
    <dc:creator>
     <cc:Agent>
      <dc:title>Matplotlib v3.9.1, https://matplotlib.org/</dc:title>
     </cc:Agent>
    </dc:creator>
   </cc:Work>
  </rdf:RDF>
 </metadata>
 <defs>
  <style type="text/css">*{stroke-linejoin: round; stroke-linecap: butt}</style>
 </defs>
 <g id="figure_1">
  <g id="patch_1">
   <path d="M 0 432 
L 864 432 
L 864 0 
L 0 0 
z
" style="fill: #ffffff"/>
  </g>
  <g id="axes_1">
   <g id="patch_2">
    <path d="M 50.87 404.12 
L 853.2 404.12 
L 853.2 26.88 
L 50.87 26.88 
z
" style="fill: #ffffff"/>
   </g>
   <g id="matplotlib.axis_1">
    <g id="xtick_1">
     <g id="line2d_1">
      <path d="M 102.535189 404.12 
L 102.535189 26.88 
" clip-path="url(#p51a47a5d29)" style="fill: none; stroke-dasharray: 2.96,1.28; stroke-dashoffset: 0; stroke: #b0b0b0; stroke-width: 0.8"/>
     </g>
     <g id="line2d_2">
      <defs>
       <path id="m74f865531b" d="M 0 0 
L 0 3.5 
" style="stroke: #000000; stroke-width: 0.8"/>
      </defs>
      <g>
       <use xlink:href="#m74f865531b" x="102.535189" y="404.12" style="stroke: #000000; stroke-width: 0.8"/>
      </g>
     </g>
     <g id="text_1">
      <!-- 2024-06-15 -->
      <g transform="translate(73.477377 418.718437) scale(0.1 -0.1)">
       <defs>
        <path id="DejaVuSans-32" d="M 1228 531 
L 3431 531 
L 3431 0 
L 469 0 
L 469 531 
Q 828 903 1448 1529 
Q 2069 2156 2228 2338 
Q 2531 2678 2651 2914 
Q 2772 3150 2772 3378 
Q 2772 3750 2511 3984 
Q 2250 4219 1831 4219 
Q 1534 4219 1204 4116 
Q 875 4013 500 3803 
L 500 4441 
Q 881 4594 1212 4672 
Q 1544 4750 1819 4750 
Q 2544 4750 2975 4387 
Q 3406 4025 3406 3419 
Q 3406 3131 3298 2873 
Q 3191 2616 2906 2266 
Q 2828 2175 2409 1742 
Q 1991 1309 1228 531 
z
" transform="scale(0.015625)"/>
        <path id="DejaVuSans-30" d="M 2034 4250 
Q 1547 4250 1301 3770 
Q 1056 3291 1056 2328 
Q 1056 1369 1301 889 
Q 1547 409 2034 409 
Q 2525 409 2770 889 
Q 3016 1369 3016 2328 
Q 3016 3291 2770 3770 
Q 2525 4250 2034 4250 
z
M 2034 4750 
Q 2819 4750 3233 4129 
Q 3647 3509 3647 2328 
Q 3647 1150 3233 529 
Q 2819 -91 2034 -91 
Q 1250 -91 836 529 
Q 422 1150 422 2328 
Q 422 3509 836 4129 
Q 1250 4750 2034 4750 
z
" transform="scale(0.015625)"/>
        <path id="DejaVuSans-34" d="M 2419 4116 
L 825 1625 
L 2419 1625 
L 2419 4116 
z
M 2253 4666 
L 3047 4666 
L 3047 1625 
L 3713 1625 
L 3713 1100 
L 3047 1100 
L 3047 0 
L 2419 0 
L 2419 1100 
L 313 1100 
L 313 1709 
L 2253 4666 
z
" transform="scale(0.015625)"/>
        <path id="DejaVuSans-2d" d="M 313 2009 
L 1997 2009 
L 1997 1497 
L 313 1497 
L 313 2009 
z
" transform="scale(0.015625)"/>
        <path id="DejaVuSans-36" d="M 2113 2584 
Q 1688 2584 1439 2293 
Q 1191 2003 1191 1497 
Q 1191 994 1439 701 
Q 1688 409 2113 409 
Q 2538 409 2786 701 
Q 3034 994 3034 1497 
Q 3034 2003 2786 2293 
Q 2538 2584 2113 2584 
z
M 3366 4563 
L 3366 3988 
Q 3128 4100 2886 4159 
Q 2644 4219 2406 4219 
Q 1781 4219 1451 3797 
Q 1122 3375 1075 2522 
Q 1259 2794 1537 2939 
Q 1816 3084 2150 3084 
Q 2853 3084 3261 2657 
Q 3669 2231 3669 1497 
Q 3669 778 3244 343 
Q 2819 -91 2113 -91 
Q 1303 -91 875 529 
Q 447 1150 447 2328 
Q 447 3434 972 4092 
Q 1497 4750 2381 4750 
Q 2619 4750 2861 4703 
Q 3103 4656 3366 4563 
z
" transform="scale(0.015625)"/>
        <path id="DejaVuSans-31" d="M 794 531 
L 1825 531 
L 1825 4091 
L 703 3866 
L 703 4441 
L 1819 4666 
L 2450 4666 
L 2450 531 
L 3481 531 
L 3481 0 
L 794 0 
L 794 531 
z
" transform="scale(0.015625)"/>
        <path id="DejaVuSans-35" d="M 691 4666 
L 3169 4666 
L 3169 4134 
L 1269 4134 
L 1269 2991 
Q 1406 3038 1543 3061 
Q 1681 3084 1819 3084 
Q 2600 3084 3056 2656 
Q 3513 2228 3513 1497 
Q 3513 744 3044 326 
Q 2575 -91 1722 -91 
Q 1428 -91 1123 -41 
Q 819 9 494 109 
L 494 744 
Q 775 591 1075 516 
Q 1375 441 1709 441 
Q 2250 441 2565 725 
Q 2881 1009 2881 1497 
Q 2881 1984 2565 2268 
Q 2250 2553 1709 2553 
Q 1456 2553 1204 2497 
Q 953 2441 691 2322 
L 691 4666 
z
" transform="scale(0.015625)"/>
       </defs>
       <use xlink:href="#DejaVuSans-32"/>
       <use xlink:href="#DejaVuSans-30" x="63.623047"/>
       <use xlink:href="#DejaVuSans-32" x="127.246094"/>
       <use xlink:href="#DejaVuSans-34" x="190.869141"/>
       <use xlink:href="#DejaVuSans-2d" x="254.492188"/>
       <use xlink:href="#DejaVuSans-30" x="290.576172"/>
       <use xlink:href="#DejaVuSans-36" x="354.199219"/>
       <use xlink:href="#DejaVuSans-2d" x="417.822266"/>
       <use xlink:href="#DejaVuSans-31" x="453.90625"/>
       <use xlink:href="#DejaVuSans-35" x="517.529297"/>
      </g>
     </g>
    </g>
    <g id="xtick_2">
     <g id="line2d_3">
      <path d="M 208.904697 404.12 
L 208.904697 26.88 
" clip-path="url(#p51a47a5d29)" style="fill: none; stroke-dasharray: 2.96,1.28; stroke-dashoffset: 0; stroke: #b0b0b0; stroke-width: 0.8"/>
     </g>
     <g id="line2d_4">
      <g>
       <use xlink:href="#m74f865531b" x="208.904697" y="404.12" style="stroke: #000000; stroke-width: 0.8"/>
      </g>
     </g>
     <g id="text_2">
      <!-- 2024-06-22 -->
      <g transform="translate(179.846884 418.718437) scale(0.1 -0.1)">
       <use xlink:href="#DejaVuSans-32"/>
       <use xlink:href="#DejaVuSans-30" x="63.623047"/>
       <use xlink:href="#DejaVuSans-32" x="127.246094"/>
       <use xlink:href="#DejaVuSans-34" x="190.869141"/>
       <use xlink:href="#DejaVuSans-2d" x="254.492188"/>
       <use xlink:href="#DejaVuSans-30" x="290.576172"/>
       <use xlink:href="#DejaVuSans-36" x="354.199219"/>
       <use xlink:href="#DejaVuSans-2d" x="417.822266"/>
       <use xlink:href="#DejaVuSans-32" x="453.90625"/>
       <use xlink:href="#DejaVuSans-32" x="517.529297"/>
      </g>
     </g>
    </g>
    <g id="xtick_3">
     <g id="line2d_5">
      <path d="M 345.665492 404.12 
L 345.665492 26.88 
" clip-path="url(#p51a47a5d29)" style="fill: none; stroke-dasharray: 2.96,1.28; stroke-dashoffset: 0; stroke: #b0b0b0; stroke-width: 0.8"/>
     </g>
     <g id="line2d_6">
      <g>
       <use xlink:href="#m74f865531b" x="345.665492" y="404.12" style="stroke: #000000; stroke-width: 0.8"/>
      </g>
     </g>
     <g id="text_3">
      <!-- 2024-07-01 -->
      <g transform="translate(316.60768 418.718437) scale(0.1 -0.1)">
       <defs>
        <path id="DejaVuSans-37" d="M 525 4666 
L 3525 4666 
L 3525 4397 
L 1831 0 
L 1172 0 
L 2766 4134 
L 525 4134 
L 525 4666 
z
" transform="scale(0.015625)"/>
       </defs>
       <use xlink:href="#DejaVuSans-32"/>
       <use xlink:href="#DejaVuSans-30" x="63.623047"/>
       <use xlink:href="#DejaVuSans-32" x="127.246094"/>
       <use xlink:href="#DejaVuSans-34" x="190.869141"/>
       <use xlink:href="#DejaVuSans-2d" x="254.492188"/>
       <use xlink:href="#DejaVuSans-30" x="290.576172"/>
       <use xlink:href="#DejaVuSans-37" x="354.199219"/>
       <use xlink:href="#DejaVuSans-2d" x="417.822266"/>
       <use xlink:href="#DejaVuSans-30" x="453.90625"/>
       <use xlink:href="#DejaVuSans-31" x="517.529297"/>
      </g>
     </g>
    </g>
    <g id="xtick_4">
     <g id="line2d_7">
      <path d="M 452.035 404.12 
L 452.035 26.88 
" clip-path="url(#p51a47a5d29)" style="fill: none; stroke-dasharray: 2.96,1.28; stroke-dashoffset: 0; stroke: #b0b0b0; stroke-width: 0.8"/>
     </g>
     <g id="line2d_8">
      <g>
       <use xlink:href="#m74f865531b" x="452.035" y="404.12" style="stroke: #000000; stroke-width: 0.8"/>
      </g>
     </g>
     <g id="text_4">
      <!-- 2024-07-08 -->
      <g transform="translate(422.977187 418.718437) scale(0.1 -0.1)">
       <defs>
        <path id="DejaVuSans-38" d="M 2034 2216 
Q 1584 2216 1326 1975 
Q 1069 1734 1069 1313 
Q 1069 891 1326 650 
Q 1584 409 2034 409 
Q 2484 409 2743 651 
Q 3003 894 3003 1313 
Q 3003 1734 2745 1975 
Q 2488 2216 2034 2216 
z
M 1403 2484 
Q 997 2584 770 2862 
Q 544 3141 544 3541 
Q 544 4100 942 4425 
Q 1341 4750 2034 4750 
Q 2731 4750 3128 4425 
Q 3525 4100 3525 3541 
Q 3525 3141 3298 2862 
Q 3072 2584 2669 2484 
Q 3125 2378 3379 2068 
Q 3634 1759 3634 1313 
Q 3634 634 3220 271 
Q 2806 -91 2034 -91 
Q 1263 -91 848 271 
Q 434 634 434 1313 
Q 434 1759 690 2068 
Q 947 2378 1403 2484 
z
M 1172 3481 
Q 1172 3119 1398 2916 
Q 1625 2713 2034 2713 
Q 2441 2713 2670 2916 
Q 2900 3119 2900 3481 
Q 2900 3844 2670 4047 
Q 2441 4250 2034 4250 
Q 1625 4250 1398 4047 
Q 1172 3844 1172 3481 
z
" transform="scale(0.015625)"/>
       </defs>
       <use xlink:href="#DejaVuSans-32"/>
       <use xlink:href="#DejaVuSans-30" x="63.623047"/>
       <use xlink:href="#DejaVuSans-32" x="127.246094"/>
       <use xlink:href="#DejaVuSans-34" x="190.869141"/>
       <use xlink:href="#DejaVuSans-2d" x="254.492188"/>
       <use xlink:href="#DejaVuSans-30" x="290.576172"/>
       <use xlink:href="#DejaVuSans-37" x="354.199219"/>
       <use xlink:href="#DejaVuSans-2d" x="417.822266"/>
       <use xlink:href="#DejaVuSans-30" x="453.90625"/>
       <use xlink:href="#DejaVuSans-38" x="517.529297"/>
      </g>
     </g>
    </g>
    <g id="xtick_5">
     <g id="line2d_9">
      <path d="M 558.404508 404.12 
L 558.404508 26.88 
" clip-path="url(#p51a47a5d29)" style="fill: none; stroke-dasharray: 2.96,1.28; stroke-dashoffset: 0; stroke: #b0b0b0; stroke-width: 0.8"/>
     </g>
     <g id="line2d_10">
      <g>
       <use xlink:href="#m74f865531b" x="558.404508" y="404.12" style="stroke: #000000; stroke-width: 0.8"/>
      </g>
     </g>
     <g id="text_5">
      <!-- 2024-07-15 -->
      <g transform="translate(529.346695 418.718437) scale(0.1 -0.1)">
       <use xlink:href="#DejaVuSans-32"/>
       <use xlink:href="#DejaVuSans-30" x="63.623047"/>
       <use xlink:href="#DejaVuSans-32" x="127.246094"/>
       <use xlink:href="#DejaVuSans-34" x="190.869141"/>
       <use xlink:href="#DejaVuSans-2d" x="254.492188"/>
       <use xlink:href="#DejaVuSans-30" x="290.576172"/>
       <use xlink:href="#DejaVuSans-37" x="354.199219"/>
       <use xlink:href="#DejaVuSans-2d" x="417.822266"/>
       <use xlink:href="#DejaVuSans-31" x="453.90625"/>
       <use xlink:href="#DejaVuSans-35" x="517.529297"/>
      </g>
     </g>
    </g>
    <g id="xtick_6">
     <g id="line2d_11">
      <path d="M 664.774015 404.12 
L 664.774015 26.88 
" clip-path="url(#p51a47a5d29)" style="fill: none; stroke-dasharray: 2.96,1.28; stroke-dashoffset: 0; stroke: #b0b0b0; stroke-width: 0.8"/>
     </g>
     <g id="line2d_12">
      <g>
       <use xlink:href="#m74f865531b" x="664.774015" y="404.12" style="stroke: #000000; stroke-width: 0.8"/>
      </g>
     </g>
     <g id="text_6">
      <!-- 2024-07-22 -->
      <g transform="translate(635.716203 418.718437) scale(0.1 -0.1)">
       <use xlink:href="#DejaVuSans-32"/>
       <use xlink:href="#DejaVuSans-30" x="63.623047"/>
       <use xlink:href="#DejaVuSans-32" x="127.246094"/>
       <use xlink:href="#DejaVuSans-34" x="190.869141"/>
       <use xlink:href="#DejaVuSans-2d" x="254.492188"/>
       <use xlink:href="#DejaVuSans-30" x="290.576172"/>
       <use xlink:href="#DejaVuSans-37" x="354.199219"/>
       <use xlink:href="#DejaVuSans-2d" x="417.822266"/>
       <use xlink:href="#DejaVuSans-32" x="453.90625"/>
       <use xlink:href="#DejaVuSans-32" x="517.529297"/>
      </g>
     </g>
    </g>
    <g id="xtick_7">
     <g id="line2d_13">
      <path d="M 816.730455 404.12 
L 816.730455 26.88 
" clip-path="url(#p51a47a5d29)" style="fill: none; stroke-dasharray: 2.96,1.28; stroke-dashoffset: 0; stroke: #b0b0b0; stroke-width: 0.8"/>
     </g>
     <g id="line2d_14">
      <g>
       <use xlink:href="#m74f865531b" x="816.730455" y="404.12" style="stroke: #000000; stroke-width: 0.8"/>
      </g>
     </g>
     <g id="text_7">
      <!-- 2024-08-01 -->
      <g transform="translate(787.672642 418.718437) scale(0.1 -0.1)">
       <use xlink:href="#DejaVuSans-32"/>
       <use xlink:href="#DejaVuSans-30" x="63.623047"/>
       <use xlink:href="#DejaVuSans-32" x="127.246094"/>
       <use xlink:href="#DejaVuSans-34" x="190.869141"/>
       <use xlink:href="#DejaVuSans-2d" x="254.492188"/>
       <use xlink:href="#DejaVuSans-30" x="290.576172"/>
       <use xlink:href="#DejaVuSans-38" x="354.199219"/>
       <use xlink:href="#DejaVuSans-2d" x="417.822266"/>
       <use xlink:href="#DejaVuSans-30" x="453.90625"/>
       <use xlink:href="#DejaVuSans-31" x="517.529297"/>
      </g>
     </g>
    </g>
   </g>
   <g id="matplotlib.axis_2">
    <g id="ytick_1">
     <g id="line2d_15">
      <path d="M 50.87 389.343752 
L 853.2 389.343752 
" clip-path="url(#p51a47a5d29)" style="fill: none; stroke-dasharray: 2.96,1.28; stroke-dashoffset: 0; stroke: #b0b0b0; stroke-width: 0.8"/>
     </g>
     <g id="line2d_16">
      <defs>
       <path id="m156d495cfd" d="M 0 0 
L -3.5 0 
" style="stroke: #000000; stroke-width: 0.8"/>
      </defs>
      <g>
       <use xlink:href="#m156d495cfd" x="50.87" y="389.343752" style="stroke: #000000; stroke-width: 0.8"/>
      </g>
     </g>
     <g id="text_8">
      <!-- 0 -->
      <g transform="translate(37.5075 393.142971) scale(0.1 -0.1)">
       <use xlink:href="#DejaVuSans-30"/>
      </g>
     </g>
    </g>
    <g id="ytick_2">
     <g id="line2d_17">
      <path d="M 50.87 327.68923 
L 853.2 327.68923 
" clip-path="url(#p51a47a5d29)" style="fill: none; stroke-dasharray: 2.96,1.28; stroke-dashoffset: 0; stroke: #b0b0b0; stroke-width: 0.8"/>
     </g>
     <g id="line2d_18">
      <g>
       <use xlink:href="#m156d495cfd" x="50.87" y="327.68923" style="stroke: #000000; stroke-width: 0.8"/>
      </g>
     </g>
     <g id="text_9">
      <!-- 50 -->
      <g transform="translate(31.145 331.488448) scale(0.1 -0.1)">
       <use xlink:href="#DejaVuSans-35"/>
       <use xlink:href="#DejaVuSans-30" x="63.623047"/>
      </g>
     </g>
    </g>
    <g id="ytick_3">
     <g id="line2d_19">
      <path d="M 50.87 266.034707 
L 853.2 266.034707 
" clip-path="url(#p51a47a5d29)" style="fill: none; stroke-dasharray: 2.96,1.28; stroke-dashoffset: 0; stroke: #b0b0b0; stroke-width: 0.8"/>
     </g>
     <g id="line2d_20">
      <g>
       <use xlink:href="#m156d495cfd" x="50.87" y="266.034707" style="stroke: #000000; stroke-width: 0.8"/>
      </g>
     </g>
     <g id="text_10">
      <!-- 100 -->
      <g transform="translate(24.7825 269.833925) scale(0.1 -0.1)">
       <use xlink:href="#DejaVuSans-31"/>
       <use xlink:href="#DejaVuSans-30" x="63.623047"/>
       <use xlink:href="#DejaVuSans-30" x="127.246094"/>
      </g>
     </g>
    </g>
    <g id="ytick_4">
     <g id="line2d_21">
      <path d="M 50.87 204.380184 
L 853.2 204.380184 
" clip-path="url(#p51a47a5d29)" style="fill: none; stroke-dasharray: 2.96,1.28; stroke-dashoffset: 0; stroke: #b0b0b0; stroke-width: 0.8"/>
     </g>
     <g id="line2d_22">
      <g>
       <use xlink:href="#m156d495cfd" x="50.87" y="204.380184" style="stroke: #000000; stroke-width: 0.8"/>
      </g>
     </g>
     <g id="text_11">
      <!-- 150 -->
      <g transform="translate(24.7825 208.179402) scale(0.1 -0.1)">
       <use xlink:href="#DejaVuSans-31"/>
       <use xlink:href="#DejaVuSans-35" x="63.623047"/>
       <use xlink:href="#DejaVuSans-30" x="127.246094"/>
      </g>
     </g>
    </g>
    <g id="ytick_5">
     <g id="line2d_23">
      <path d="M 50.87 142.725661 
L 853.2 142.725661 
" clip-path="url(#p51a47a5d29)" style="fill: none; stroke-dasharray: 2.96,1.28; stroke-dashoffset: 0; stroke: #b0b0b0; stroke-width: 0.8"/>
     </g>
     <g id="line2d_24">
      <g>
       <use xlink:href="#m156d495cfd" x="50.87" y="142.725661" style="stroke: #000000; stroke-width: 0.8"/>
      </g>
     </g>
     <g id="text_12">
      <!-- 200 -->
      <g transform="translate(24.7825 146.524879) scale(0.1 -0.1)">
       <use xlink:href="#DejaVuSans-32"/>
       <use xlink:href="#DejaVuSans-30" x="63.623047"/>
       <use xlink:href="#DejaVuSans-30" x="127.246094"/>
      </g>
     </g>
    </g>
    <g id="ytick_6">
     <g id="line2d_25">
      <path d="M 50.87 81.071138 
L 853.2 81.071138 
" clip-path="url(#p51a47a5d29)" style="fill: none; stroke-dasharray: 2.96,1.28; stroke-dashoffset: 0; stroke: #b0b0b0; stroke-width: 0.8"/>
     </g>
     <g id="line2d_26">
      <g>
       <use xlink:href="#m156d495cfd" x="50.87" y="81.071138" style="stroke: #000000; stroke-width: 0.8"/>
      </g>
     </g>
     <g id="text_13">
      <!-- 250 -->
      <g transform="translate(24.7825 84.870356) scale(0.1 -0.1)">
       <use xlink:href="#DejaVuSans-32"/>
       <use xlink:href="#DejaVuSans-35" x="63.623047"/>
       <use xlink:href="#DejaVuSans-30" x="127.246094"/>
      </g>
     </g>
    </g>
    <g id="text_14">
     <!-- Score -->
     <g transform="translate(18.702813 229.502344) rotate(-90) scale(0.1 -0.1)">
      <defs>
       <path id="DejaVuSans-53" d="M 3425 4513 
L 3425 3897 
Q 3066 4069 2747 4153 
Q 2428 4238 2131 4238 
Q 1616 4238 1336 4038 
Q 1056 3838 1056 3469 
Q 1056 3159 1242 3001 
Q 1428 2844 1947 2747 
L 2328 2669 
Q 3034 2534 3370 2195 
Q 3706 1856 3706 1288 
Q 3706 609 3251 259 
Q 2797 -91 1919 -91 
Q 1588 -91 1214 -16 
Q 841 59 441 206 
L 441 856 
Q 825 641 1194 531 
Q 1563 422 1919 422 
Q 2459 422 2753 634 
Q 3047 847 3047 1241 
Q 3047 1584 2836 1778 
Q 2625 1972 2144 2069 
L 1759 2144 
Q 1053 2284 737 2584 
Q 422 2884 422 3419 
Q 422 4038 858 4394 
Q 1294 4750 2059 4750 
Q 2388 4750 2728 4690 
Q 3069 4631 3425 4513 
z
" transform="scale(0.015625)"/>
       <path id="DejaVuSans-63" d="M 3122 3366 
L 3122 2828 
Q 2878 2963 2633 3030 
Q 2388 3097 2138 3097 
Q 1578 3097 1268 2742 
Q 959 2388 959 1747 
Q 959 1106 1268 751 
Q 1578 397 2138 397 
Q 2388 397 2633 464 
Q 2878 531 3122 666 
L 3122 134 
Q 2881 22 2623 -34 
Q 2366 -91 2075 -91 
Q 1284 -91 818 406 
Q 353 903 353 1747 
Q 353 2603 823 3093 
Q 1294 3584 2113 3584 
Q 2378 3584 2631 3529 
Q 2884 3475 3122 3366 
z
" transform="scale(0.015625)"/>
       <path id="DejaVuSans-6f" d="M 1959 3097 
Q 1497 3097 1228 2736 
Q 959 2375 959 1747 
Q 959 1119 1226 758 
Q 1494 397 1959 397 
Q 2419 397 2687 759 
Q 2956 1122 2956 1747 
Q 2956 2369 2687 2733 
Q 2419 3097 1959 3097 
z
M 1959 3584 
Q 2709 3584 3137 3096 
Q 3566 2609 3566 1747 
Q 3566 888 3137 398 
Q 2709 -91 1959 -91 
Q 1206 -91 779 398 
Q 353 888 353 1747 
Q 353 2609 779 3096 
Q 1206 3584 1959 3584 
z
" transform="scale(0.015625)"/>
       <path id="DejaVuSans-72" d="M 2631 2963 
Q 2534 3019 2420 3045 
Q 2306 3072 2169 3072 
Q 1681 3072 1420 2755 
Q 1159 2438 1159 1844 
L 1159 0 
L 581 0 
L 581 3500 
L 1159 3500 
L 1159 2956 
Q 1341 3275 1631 3429 
Q 1922 3584 2338 3584 
Q 2397 3584 2469 3576 
Q 2541 3569 2628 3553 
L 2631 2963 
z
" transform="scale(0.015625)"/>
       <path id="DejaVuSans-65" d="M 3597 1894 
L 3597 1613 
L 953 1613 
Q 991 1019 1311 708 
Q 1631 397 2203 397 
Q 2534 397 2845 478 
Q 3156 559 3463 722 
L 3463 178 
Q 3153 47 2828 -22 
Q 2503 -91 2169 -91 
Q 1331 -91 842 396 
Q 353 884 353 1716 
Q 353 2575 817 3079 
Q 1281 3584 2069 3584 
Q 2775 3584 3186 3129 
Q 3597 2675 3597 1894 
z
M 3022 2063 
Q 3016 2534 2758 2815 
Q 2500 3097 2075 3097 
Q 1594 3097 1305 2825 
Q 1016 2553 972 2059 
L 3022 2063 
z
" transform="scale(0.015625)"/>
      </defs>
      <use xlink:href="#DejaVuSans-53"/>
      <use xlink:href="#DejaVuSans-63" x="63.476562"/>
      <use xlink:href="#DejaVuSans-6f" x="118.457031"/>
      <use xlink:href="#DejaVuSans-72" x="179.638672"/>
      <use xlink:href="#DejaVuSans-65" x="218.501953"/>
     </g>
    </g>
   </g>
   <g id="line2d_27">
    <path d="M 87.339545 383.22602 
L 102.535189 352.398759 
L 117.730833 327.73695 
L 132.926477 315.406045 
L 148.122121 296.909688 
L 163.317765 275.94715 
L 178.513409 268.548608 
L 193.709053 259.916974 
L 208.904697 241.420618 
L 224.100341 220.45808 
L 239.295985 187.164637 
L 254.491629 169.901371 
L 269.687273 142.773381 
L 315.274205 142.773381 
L 330.469848 142.773381 
L 345.665492 142.773381 
L 360.861136 142.773381 
L 376.05678 142.773381 
L 406.448068 142.773381 
L 421.643712 142.773381 
L 436.839356 142.773381 
L 452.035 142.773381 
L 467.230644 142.773381 
L 482.426288 124.277024 
L 497.621932 124.277024 
L 512.817576 124.277024 
L 528.01322 124.277024 
L 543.208864 124.277024 
L 558.404508 81.118858 
L 573.600152 81.118858 
L 588.795795 81.118858 
L 603.991439 81.118858 
L 619.187083 81.118858 
L 634.382727 81.118858 
L 649.578371 81.118858 
L 664.774015 81.118858 
L 679.969659 81.118858 
L 695.165303 81.118858 
L 710.360947 81.118858 
L 725.556591 81.118858 
L 740.752235 81.118858 
L 755.947879 81.118858 
L 771.143523 81.118858 
L 786.339167 81.118858 
L 801.534811 81.118858 
L 816.730455 81.118858 
" clip-path="url(#p51a47a5d29)" style="fill: none; stroke: #1f77b4; stroke-width: 1.5; stroke-linecap: square"/>
    <defs>
     <path id="m4d48455303" d="M 0 3.5 
C 0.928211 3.5 1.81853 3.131218 2.474874 2.474874 
C 3.131218 1.81853 3.5 0.928211 3.5 0 
C 3.5 -0.928211 3.131218 -1.81853 2.474874 -2.474874 
C 1.81853 -3.131218 0.928211 -3.5 0 -3.5 
C -0.928211 -3.5 -1.81853 -3.131218 -2.474874 -2.474874 
C -3.131218 -1.81853 -3.5 -0.928211 -3.5 0 
C -3.5 0.928211 -3.131218 1.81853 -2.474874 2.474874 
C -1.81853 3.131218 -0.928211 3.5 0 3.5 
z
" style="stroke: #1f77b4"/>
    </defs>
    <g clip-path="url(#p51a47a5d29)">
     <use xlink:href="#m4d48455303" x="87.339545" y="383.22602" style="fill: #1f77b4; stroke: #1f77b4"/>
     <use xlink:href="#m4d48455303" x="102.535189" y="352.398759" style="fill: #1f77b4; stroke: #1f77b4"/>
     <use xlink:href="#m4d48455303" x="117.730833" y="327.73695" style="fill: #1f77b4; stroke: #1f77b4"/>
     <use xlink:href="#m4d48455303" x="132.926477" y="315.406045" style="fill: #1f77b4; stroke: #1f77b4"/>
     <use xlink:href="#m4d48455303" x="148.122121" y="296.909688" style="fill: #1f77b4; stroke: #1f77b4"/>
     <use xlink:href="#m4d48455303" x="163.317765" y="275.94715" style="fill: #1f77b4; stroke: #1f77b4"/>
     <use xlink:href="#m4d48455303" x="178.513409" y="268.548608" style="fill: #1f77b4; stroke: #1f77b4"/>
     <use xlink:href="#m4d48455303" x="193.709053" y="259.916974" style="fill: #1f77b4; stroke: #1f77b4"/>
     <use xlink:href="#m4d48455303" x="208.904697" y="241.420618" style="fill: #1f77b4; stroke: #1f77b4"/>
     <use xlink:href="#m4d48455303" x="224.100341" y="220.45808" style="fill: #1f77b4; stroke: #1f77b4"/>
     <use xlink:href="#m4d48455303" x="239.295985" y="187.164637" style="fill: #1f77b4; stroke: #1f77b4"/>
     <use xlink:href="#m4d48455303" x="254.491629" y="169.901371" style="fill: #1f77b4; stroke: #1f77b4"/>
     <use xlink:href="#m4d48455303" x="269.687273" y="142.773381" style="fill: #1f77b4; stroke: #1f77b4"/>
     <use xlink:href="#m4d48455303" x="315.274205" y="142.773381" style="fill: #1f77b4; stroke: #1f77b4"/>
     <use xlink:href="#m4d48455303" x="330.469848" y="142.773381" style="fill: #1f77b4; stroke: #1f77b4"/>
     <use xlink:href="#m4d48455303" x="345.665492" y="142.773381" style="fill: #1f77b4; stroke: #1f77b4"/>
     <use xlink:href="#m4d48455303" x="360.861136" y="142.773381" style="fill: #1f77b4; stroke: #1f77b4"/>
     <use xlink:href="#m4d48455303" x="376.05678" y="142.773381" style="fill: #1f77b4; stroke: #1f77b4"/>
     <use xlink:href="#m4d48455303" x="406.448068" y="142.773381" style="fill: #1f77b4; stroke: #1f77b4"/>
     <use xlink:href="#m4d48455303" x="421.643712" y="142.773381" style="fill: #1f77b4; stroke: #1f77b4"/>
     <use xlink:href="#m4d48455303" x="436.839356" y="142.773381" style="fill: #1f77b4; stroke: #1f77b4"/>
     <use xlink:href="#m4d48455303" x="452.035" y="142.773381" style="fill: #1f77b4; stroke: #1f77b4"/>
     <use xlink:href="#m4d48455303" x="467.230644" y="142.773381" style="fill: #1f77b4; stroke: #1f77b4"/>
     <use xlink:href="#m4d48455303" x="482.426288" y="124.277024" style="fill: #1f77b4; stroke: #1f77b4"/>
     <use xlink:href="#m4d48455303" x="497.621932" y="124.277024" style="fill: #1f77b4; stroke: #1f77b4"/>
     <use xlink:href="#m4d48455303" x="512.817576" y="124.277024" style="fill: #1f77b4; stroke: #1f77b4"/>
     <use xlink:href="#m4d48455303" x="528.01322" y="124.277024" style="fill: #1f77b4; stroke: #1f77b4"/>
     <use xlink:href="#m4d48455303" x="543.208864" y="124.277024" style="fill: #1f77b4; stroke: #1f77b4"/>
     <use xlink:href="#m4d48455303" x="558.404508" y="81.118858" style="fill: #1f77b4; stroke: #1f77b4"/>
     <use xlink:href="#m4d48455303" x="573.600152" y="81.118858" style="fill: #1f77b4; stroke: #1f77b4"/>
     <use xlink:href="#m4d48455303" x="588.795795" y="81.118858" style="fill: #1f77b4; stroke: #1f77b4"/>
     <use xlink:href="#m4d48455303" x="603.991439" y="81.118858" style="fill: #1f77b4; stroke: #1f77b4"/>
     <use xlink:href="#m4d48455303" x="619.187083" y="81.118858" style="fill: #1f77b4; stroke: #1f77b4"/>
     <use xlink:href="#m4d48455303" x="634.382727" y="81.118858" style="fill: #1f77b4; stroke: #1f77b4"/>
     <use xlink:href="#m4d48455303" x="649.578371" y="81.118858" style="fill: #1f77b4; stroke: #1f77b4"/>
     <use xlink:href="#m4d48455303" x="664.774015" y="81.118858" style="fill: #1f77b4; stroke: #1f77b4"/>
     <use xlink:href="#m4d48455303" x="679.969659" y="81.118858" style="fill: #1f77b4; stroke: #1f77b4"/>
     <use xlink:href="#m4d48455303" x="695.165303" y="81.118858" style="fill: #1f77b4; stroke: #1f77b4"/>
     <use xlink:href="#m4d48455303" x="710.360947" y="81.118858" style="fill: #1f77b4; stroke: #1f77b4"/>
     <use xlink:href="#m4d48455303" x="725.556591" y="81.118858" style="fill: #1f77b4; stroke: #1f77b4"/>
     <use xlink:href="#m4d48455303" x="740.752235" y="81.118858" style="fill: #1f77b4; stroke: #1f77b4"/>
     <use xlink:href="#m4d48455303" x="755.947879" y="81.118858" style="fill: #1f77b4; stroke: #1f77b4"/>
     <use xlink:href="#m4d48455303" x="771.143523" y="81.118858" style="fill: #1f77b4; stroke: #1f77b4"/>
     <use xlink:href="#m4d48455303" x="786.339167" y="81.118858" style="fill: #1f77b4; stroke: #1f77b4"/>
     <use xlink:href="#m4d48455303" x="801.534811" y="81.118858" style="fill: #1f77b4; stroke: #1f77b4"/>
     <use xlink:href="#m4d48455303" x="816.730455" y="81.118858" style="fill: #1f77b4; stroke: #1f77b4"/>
    </g>
   </g>
   <g id="line2d_28">
    <path d="M 87.339545 383.208371 
L 102.535189 358.546562 
L 117.730833 343.749476 
L 132.926477 325.253119 
L 148.122121 300.59131 
L 163.317765 285.794225 
L 178.513409 261.132416 
L 193.709053 246.33533 
L 208.904697 215.508069 
L 224.100341 200.710983 
L 239.295985 176.049174 
L 254.491629 161.252088 
L 269.687273 111.92847 
L 315.274205 111.92847 
L 330.469848 111.92847 
L 345.665492 111.92847 
L 360.861136 111.92847 
L 376.05678 111.92847 
L 406.448068 111.92847 
L 421.643712 111.92847 
L 436.839356 111.92847 
L 452.035 111.92847 
L 467.230644 111.92847 
L 482.426288 111.92847 
L 497.621932 111.92847 
L 512.817576 111.92847 
L 528.01322 111.92847 
L 543.208864 111.92847 
L 558.404508 93.432113 
L 573.600152 93.432113 
L 588.795795 93.432113 
L 603.991439 93.432113 
L 619.187083 93.432113 
L 634.382727 93.432113 
L 649.578371 93.432113 
L 664.774015 93.432113 
L 679.969659 93.432113 
L 695.165303 93.432113 
L 710.360947 93.432113 
L 725.556591 93.432113 
L 740.752235 93.432113 
L 755.947879 93.432113 
L 771.143523 93.432113 
L 786.339167 93.432113 
L 801.534811 93.432113 
L 816.730455 93.432113 
" clip-path="url(#p51a47a5d29)" style="fill: none; stroke: #ff7f0e; stroke-width: 1.5; stroke-linecap: square"/>
    <defs>
     <path id="m433180ada9" d="M 0 3.5 
C 0.928211 3.5 1.81853 3.131218 2.474874 2.474874 
C 3.131218 1.81853 3.5 0.928211 3.5 0 
C 3.5 -0.928211 3.131218 -1.81853 2.474874 -2.474874 
C 1.81853 -3.131218 0.928211 -3.5 0 -3.5 
C -0.928211 -3.5 -1.81853 -3.131218 -2.474874 -2.474874 
C -3.131218 -1.81853 -3.5 -0.928211 -3.5 0 
C -3.5 0.928211 -3.131218 1.81853 -2.474874 2.474874 
C -1.81853 3.131218 -0.928211 3.5 0 3.5 
z
" style="stroke: #ff7f0e"/>
    </defs>
    <g clip-path="url(#p51a47a5d29)">
     <use xlink:href="#m433180ada9" x="87.339545" y="383.208371" style="fill: #ff7f0e; stroke: #ff7f0e"/>
     <use xlink:href="#m433180ada9" x="102.535189" y="358.546562" style="fill: #ff7f0e; stroke: #ff7f0e"/>
     <use xlink:href="#m433180ada9" x="117.730833" y="343.749476" style="fill: #ff7f0e; stroke: #ff7f0e"/>
     <use xlink:href="#m433180ada9" x="132.926477" y="325.253119" style="fill: #ff7f0e; stroke: #ff7f0e"/>
     <use xlink:href="#m433180ada9" x="148.122121" y="300.59131" style="fill: #ff7f0e; stroke: #ff7f0e"/>
     <use xlink:href="#m433180ada9" x="163.317765" y="285.794225" style="fill: #ff7f0e; stroke: #ff7f0e"/>
     <use xlink:href="#m433180ada9" x="178.513409" y="261.132416" style="fill: #ff7f0e; stroke: #ff7f0e"/>
     <use xlink:href="#m433180ada9" x="193.709053" y="246.33533" style="fill: #ff7f0e; stroke: #ff7f0e"/>
     <use xlink:href="#m433180ada9" x="208.904697" y="215.508069" style="fill: #ff7f0e; stroke: #ff7f0e"/>
     <use xlink:href="#m433180ada9" x="224.100341" y="200.710983" style="fill: #ff7f0e; stroke: #ff7f0e"/>
     <use xlink:href="#m433180ada9" x="239.295985" y="176.049174" style="fill: #ff7f0e; stroke: #ff7f0e"/>
     <use xlink:href="#m433180ada9" x="254.491629" y="161.252088" style="fill: #ff7f0e; stroke: #ff7f0e"/>
     <use xlink:href="#m433180ada9" x="269.687273" y="111.92847" style="fill: #ff7f0e; stroke: #ff7f0e"/>
     <use xlink:href="#m433180ada9" x="315.274205" y="111.92847" style="fill: #ff7f0e; stroke: #ff7f0e"/>
     <use xlink:href="#m433180ada9" x="330.469848" y="111.92847" style="fill: #ff7f0e; stroke: #ff7f0e"/>
     <use xlink:href="#m433180ada9" x="345.665492" y="111.92847" style="fill: #ff7f0e; stroke: #ff7f0e"/>
     <use xlink:href="#m433180ada9" x="360.861136" y="111.92847" style="fill: #ff7f0e; stroke: #ff7f0e"/>
     <use xlink:href="#m433180ada9" x="376.05678" y="111.92847" style="fill: #ff7f0e; stroke: #ff7f0e"/>
     <use xlink:href="#m433180ada9" x="406.448068" y="111.92847" style="fill: #ff7f0e; stroke: #ff7f0e"/>
     <use xlink:href="#m433180ada9" x="421.643712" y="111.92847" style="fill: #ff7f0e; stroke: #ff7f0e"/>
     <use xlink:href="#m433180ada9" x="436.839356" y="111.92847" style="fill: #ff7f0e; stroke: #ff7f0e"/>
     <use xlink:href="#m433180ada9" x="452.035" y="111.92847" style="fill: #ff7f0e; stroke: #ff7f0e"/>
     <use xlink:href="#m433180ada9" x="467.230644" y="111.92847" style="fill: #ff7f0e; stroke: #ff7f0e"/>
     <use xlink:href="#m433180ada9" x="482.426288" y="111.92847" style="fill: #ff7f0e; stroke: #ff7f0e"/>
     <use xlink:href="#m433180ada9" x="497.621932" y="111.92847" style="fill: #ff7f0e; stroke: #ff7f0e"/>
     <use xlink:href="#m433180ada9" x="512.817576" y="111.92847" style="fill: #ff7f0e; stroke: #ff7f0e"/>
     <use xlink:href="#m433180ada9" x="528.01322" y="111.92847" style="fill: #ff7f0e; stroke: #ff7f0e"/>
     <use xlink:href="#m433180ada9" x="543.208864" y="111.92847" style="fill: #ff7f0e; stroke: #ff7f0e"/>
     <use xlink:href="#m433180ada9" x="558.404508" y="93.432113" style="fill: #ff7f0e; stroke: #ff7f0e"/>
     <use xlink:href="#m433180ada9" x="573.600152" y="93.432113" style="fill: #ff7f0e; stroke: #ff7f0e"/>
     <use xlink:href="#m433180ada9" x="588.795795" y="93.432113" style="fill: #ff7f0e; stroke: #ff7f0e"/>
     <use xlink:href="#m433180ada9" x="603.991439" y="93.432113" style="fill: #ff7f0e; stroke: #ff7f0e"/>
     <use xlink:href="#m433180ada9" x="619.187083" y="93.432113" style="fill: #ff7f0e; stroke: #ff7f0e"/>
     <use xlink:href="#m433180ada9" x="634.382727" y="93.432113" style="fill: #ff7f0e; stroke: #ff7f0e"/>
     <use xlink:href="#m433180ada9" x="649.578371" y="93.432113" style="fill: #ff7f0e; stroke: #ff7f0e"/>
     <use xlink:href="#m433180ada9" x="664.774015" y="93.432113" style="fill: #ff7f0e; stroke: #ff7f0e"/>
     <use xlink:href="#m433180ada9" x="679.969659" y="93.432113" style="fill: #ff7f0e; stroke: #ff7f0e"/>
     <use xlink:href="#m433180ada9" x="695.165303" y="93.432113" style="fill: #ff7f0e; stroke: #ff7f0e"/>
     <use xlink:href="#m433180ada9" x="710.360947" y="93.432113" style="fill: #ff7f0e; stroke: #ff7f0e"/>
     <use xlink:href="#m433180ada9" x="725.556591" y="93.432113" style="fill: #ff7f0e; stroke: #ff7f0e"/>
     <use xlink:href="#m433180ada9" x="740.752235" y="93.432113" style="fill: #ff7f0e; stroke: #ff7f0e"/>
     <use xlink:href="#m433180ada9" x="755.947879" y="93.432113" style="fill: #ff7f0e; stroke: #ff7f0e"/>
     <use xlink:href="#m433180ada9" x="771.143523" y="93.432113" style="fill: #ff7f0e; stroke: #ff7f0e"/>
     <use xlink:href="#m433180ada9" x="786.339167" y="93.432113" style="fill: #ff7f0e; stroke: #ff7f0e"/>
     <use xlink:href="#m433180ada9" x="801.534811" y="93.432113" style="fill: #ff7f0e; stroke: #ff7f0e"/>
     <use xlink:href="#m433180ada9" x="816.730455" y="93.432113" style="fill: #ff7f0e; stroke: #ff7f0e"/>
    </g>
   </g>
   <g id="line2d_29">
    <path d="M 87.339545 383.16689 
L 102.535189 352.339629 
L 117.730833 343.707996 
L 132.926477 337.542543 
L 148.122121 325.211639 
L 163.317765 301.78292 
L 178.513409 294.384377 
L 193.709053 279.587292 
L 208.904697 252.459302 
L 224.100341 231.496764 
L 239.295985 176.007693 
L 254.491629 161.210608 
L 269.687273 119.285532 
L 315.274205 119.285532 
L 330.469848 119.285532 
L 345.665492 119.285532 
L 360.861136 119.285532 
L 376.05678 119.285532 
L 406.448068 119.285532 
L 421.643712 119.285532 
L 436.839356 119.285532 
L 452.035 119.285532 
L 467.230644 119.285532 
L 482.426288 100.789175 
L 497.621932 100.789175 
L 512.817576 100.789175 
L 528.01322 100.789175 
L 543.208864 100.789175 
L 558.404508 82.292818 
L 573.600152 82.292818 
L 588.795795 82.292818 
L 603.991439 82.292818 
L 619.187083 82.292818 
L 634.382727 82.292818 
L 649.578371 82.292818 
L 664.774015 82.292818 
L 679.969659 82.292818 
L 695.165303 82.292818 
L 710.360947 82.292818 
L 725.556591 82.292818 
L 740.752235 82.292818 
L 755.947879 82.292818 
L 771.143523 82.292818 
L 786.339167 82.292818 
L 801.534811 82.292818 
L 816.730455 82.292818 
" clip-path="url(#p51a47a5d29)" style="fill: none; stroke: #2ca02c; stroke-width: 1.5; stroke-linecap: square"/>
    <defs>
     <path id="me8e29c50b2" d="M 0 3.5 
C 0.928211 3.5 1.81853 3.131218 2.474874 2.474874 
C 3.131218 1.81853 3.5 0.928211 3.5 0 
C 3.5 -0.928211 3.131218 -1.81853 2.474874 -2.474874 
C 1.81853 -3.131218 0.928211 -3.5 0 -3.5 
C -0.928211 -3.5 -1.81853 -3.131218 -2.474874 -2.474874 
C -3.131218 -1.81853 -3.5 -0.928211 -3.5 0 
C -3.5 0.928211 -3.131218 1.81853 -2.474874 2.474874 
C -1.81853 3.131218 -0.928211 3.5 0 3.5 
z
" style="stroke: #2ca02c"/>
    </defs>
    <g clip-path="url(#p51a47a5d29)">
     <use xlink:href="#me8e29c50b2" x="87.339545" y="383.16689" style="fill: #2ca02c; stroke: #2ca02c"/>
     <use xlink:href="#me8e29c50b2" x="102.535189" y="352.339629" style="fill: #2ca02c; stroke: #2ca02c"/>
     <use xlink:href="#me8e29c50b2" x="117.730833" y="343.707996" style="fill: #2ca02c; stroke: #2ca02c"/>
     <use xlink:href="#me8e29c50b2" x="132.926477" y="337.542543" style="fill: #2ca02c; stroke: #2ca02c"/>
     <use xlink:href="#me8e29c50b2" x="148.122121" y="325.211639" style="fill: #2ca02c; stroke: #2ca02c"/>
     <use xlink:href="#me8e29c50b2" x="163.317765" y="301.78292" style="fill: #2ca02c; stroke: #2ca02c"/>
     <use xlink:href="#me8e29c50b2" x="178.513409" y="294.384377" style="fill: #2ca02c; stroke: #2ca02c"/>
     <use xlink:href="#me8e29c50b2" x="193.709053" y="279.587292" style="fill: #2ca02c; stroke: #2ca02c"/>
     <use xlink:href="#me8e29c50b2" x="208.904697" y="252.459302" style="fill: #2ca02c; stroke: #2ca02c"/>
     <use xlink:href="#me8e29c50b2" x="224.100341" y="231.496764" style="fill: #2ca02c; stroke: #2ca02c"/>
     <use xlink:href="#me8e29c50b2" x="239.295985" y="176.007693" style="fill: #2ca02c; stroke: #2ca02c"/>
     <use xlink:href="#me8e29c50b2" x="254.491629" y="161.210608" style="fill: #2ca02c; stroke: #2ca02c"/>
     <use xlink:href="#me8e29c50b2" x="269.687273" y="119.285532" style="fill: #2ca02c; stroke: #2ca02c"/>
     <use xlink:href="#me8e29c50b2" x="315.274205" y="119.285532" style="fill: #2ca02c; stroke: #2ca02c"/>
     <use xlink:href="#me8e29c50b2" x="330.469848" y="119.285532" style="fill: #2ca02c; stroke: #2ca02c"/>
     <use xlink:href="#me8e29c50b2" x="345.665492" y="119.285532" style="fill: #2ca02c; stroke: #2ca02c"/>
     <use xlink:href="#me8e29c50b2" x="360.861136" y="119.285532" style="fill: #2ca02c; stroke: #2ca02c"/>
     <use xlink:href="#me8e29c50b2" x="376.05678" y="119.285532" style="fill: #2ca02c; stroke: #2ca02c"/>
     <use xlink:href="#me8e29c50b2" x="406.448068" y="119.285532" style="fill: #2ca02c; stroke: #2ca02c"/>
     <use xlink:href="#me8e29c50b2" x="421.643712" y="119.285532" style="fill: #2ca02c; stroke: #2ca02c"/>
     <use xlink:href="#me8e29c50b2" x="436.839356" y="119.285532" style="fill: #2ca02c; stroke: #2ca02c"/>
     <use xlink:href="#me8e29c50b2" x="452.035" y="119.285532" style="fill: #2ca02c; stroke: #2ca02c"/>
     <use xlink:href="#me8e29c50b2" x="467.230644" y="119.285532" style="fill: #2ca02c; stroke: #2ca02c"/>
     <use xlink:href="#me8e29c50b2" x="482.426288" y="100.789175" style="fill: #2ca02c; stroke: #2ca02c"/>
     <use xlink:href="#me8e29c50b2" x="497.621932" y="100.789175" style="fill: #2ca02c; stroke: #2ca02c"/>
     <use xlink:href="#me8e29c50b2" x="512.817576" y="100.789175" style="fill: #2ca02c; stroke: #2ca02c"/>
     <use xlink:href="#me8e29c50b2" x="528.01322" y="100.789175" style="fill: #2ca02c; stroke: #2ca02c"/>
     <use xlink:href="#me8e29c50b2" x="543.208864" y="100.789175" style="fill: #2ca02c; stroke: #2ca02c"/>
     <use xlink:href="#me8e29c50b2" x="558.404508" y="82.292818" style="fill: #2ca02c; stroke: #2ca02c"/>
     <use xlink:href="#me8e29c50b2" x="573.600152" y="82.292818" style="fill: #2ca02c; stroke: #2ca02c"/>
     <use xlink:href="#me8e29c50b2" x="588.795795" y="82.292818" style="fill: #2ca02c; stroke: #2ca02c"/>
     <use xlink:href="#me8e29c50b2" x="603.991439" y="82.292818" style="fill: #2ca02c; stroke: #2ca02c"/>
     <use xlink:href="#me8e29c50b2" x="619.187083" y="82.292818" style="fill: #2ca02c; stroke: #2ca02c"/>
     <use xlink:href="#me8e29c50b2" x="634.382727" y="82.292818" style="fill: #2ca02c; stroke: #2ca02c"/>
     <use xlink:href="#me8e29c50b2" x="649.578371" y="82.292818" style="fill: #2ca02c; stroke: #2ca02c"/>
     <use xlink:href="#me8e29c50b2" x="664.774015" y="82.292818" style="fill: #2ca02c; stroke: #2ca02c"/>
     <use xlink:href="#me8e29c50b2" x="679.969659" y="82.292818" style="fill: #2ca02c; stroke: #2ca02c"/>
     <use xlink:href="#me8e29c50b2" x="695.165303" y="82.292818" style="fill: #2ca02c; stroke: #2ca02c"/>
     <use xlink:href="#me8e29c50b2" x="710.360947" y="82.292818" style="fill: #2ca02c; stroke: #2ca02c"/>
     <use xlink:href="#me8e29c50b2" x="725.556591" y="82.292818" style="fill: #2ca02c; stroke: #2ca02c"/>
     <use xlink:href="#me8e29c50b2" x="740.752235" y="82.292818" style="fill: #2ca02c; stroke: #2ca02c"/>
     <use xlink:href="#me8e29c50b2" x="755.947879" y="82.292818" style="fill: #2ca02c; stroke: #2ca02c"/>
     <use xlink:href="#me8e29c50b2" x="771.143523" y="82.292818" style="fill: #2ca02c; stroke: #2ca02c"/>
     <use xlink:href="#me8e29c50b2" x="786.339167" y="82.292818" style="fill: #2ca02c; stroke: #2ca02c"/>
     <use xlink:href="#me8e29c50b2" x="801.534811" y="82.292818" style="fill: #2ca02c; stroke: #2ca02c"/>
     <use xlink:href="#me8e29c50b2" x="816.730455" y="82.292818" style="fill: #2ca02c; stroke: #2ca02c"/>
    </g>
   </g>
   <g id="line2d_30">
    <path d="M 87.339545 383.111809 
L 102.535189 362.149271 
L 117.730833 347.352186 
L 132.926477 332.5551 
L 148.122121 326.389648 
L 163.317765 302.960929 
L 178.513409 291.863115 
L 193.709053 284.464572 
L 208.904697 259.802763 
L 224.100341 236.374044 
L 239.295985 199.38133 
L 254.491629 183.351154 
L 269.687273 156.223164 
L 315.274205 156.223164 
L 330.469848 156.223164 
L 345.665492 156.223164 
L 360.861136 156.223164 
L 376.05678 156.223164 
L 406.448068 156.223164 
L 421.643712 156.223164 
L 436.839356 156.223164 
L 452.035 156.223164 
L 467.230644 156.223164 
L 482.426288 137.726807 
L 497.621932 137.726807 
L 512.817576 137.726807 
L 528.01322 137.726807 
L 543.208864 137.726807 
L 558.404508 106.899546 
L 573.600152 106.899546 
L 588.795795 106.899546 
L 603.991439 106.899546 
L 619.187083 106.899546 
L 634.382727 106.899546 
L 649.578371 106.899546 
L 664.774015 106.899546 
L 679.969659 106.899546 
L 695.165303 106.899546 
L 710.360947 106.899546 
L 725.556591 106.899546 
L 740.752235 106.899546 
L 755.947879 106.899546 
L 771.143523 106.899546 
L 786.339167 106.899546 
L 801.534811 106.899546 
L 816.730455 106.899546 
" clip-path="url(#p51a47a5d29)" style="fill: none; stroke: #d62728; stroke-width: 1.5; stroke-linecap: square"/>
    <defs>
     <path id="m5ae30f74cf" d="M 0 3.5 
C 0.928211 3.5 1.81853 3.131218 2.474874 2.474874 
C 3.131218 1.81853 3.5 0.928211 3.5 0 
C 3.5 -0.928211 3.131218 -1.81853 2.474874 -2.474874 
C 1.81853 -3.131218 0.928211 -3.5 0 -3.5 
C -0.928211 -3.5 -1.81853 -3.131218 -2.474874 -2.474874 
C -3.131218 -1.81853 -3.5 -0.928211 -3.5 0 
C -3.5 0.928211 -3.131218 1.81853 -2.474874 2.474874 
C -1.81853 3.131218 -0.928211 3.5 0 3.5 
z
" style="stroke: #d62728"/>
    </defs>
    <g clip-path="url(#p51a47a5d29)">
     <use xlink:href="#m5ae30f74cf" x="87.339545" y="383.111809" style="fill: #d62728; stroke: #d62728"/>
     <use xlink:href="#m5ae30f74cf" x="102.535189" y="362.149271" style="fill: #d62728; stroke: #d62728"/>
     <use xlink:href="#m5ae30f74cf" x="117.730833" y="347.352186" style="fill: #d62728; stroke: #d62728"/>
     <use xlink:href="#m5ae30f74cf" x="132.926477" y="332.5551" style="fill: #d62728; stroke: #d62728"/>
     <use xlink:href="#m5ae30f74cf" x="148.122121" y="326.389648" style="fill: #d62728; stroke: #d62728"/>
     <use xlink:href="#m5ae30f74cf" x="163.317765" y="302.960929" style="fill: #d62728; stroke: #d62728"/>
     <use xlink:href="#m5ae30f74cf" x="178.513409" y="291.863115" style="fill: #d62728; stroke: #d62728"/>
     <use xlink:href="#m5ae30f74cf" x="193.709053" y="284.464572" style="fill: #d62728; stroke: #d62728"/>
     <use xlink:href="#m5ae30f74cf" x="208.904697" y="259.802763" style="fill: #d62728; stroke: #d62728"/>
     <use xlink:href="#m5ae30f74cf" x="224.100341" y="236.374044" style="fill: #d62728; stroke: #d62728"/>
     <use xlink:href="#m5ae30f74cf" x="239.295985" y="199.38133" style="fill: #d62728; stroke: #d62728"/>
     <use xlink:href="#m5ae30f74cf" x="254.491629" y="183.351154" style="fill: #d62728; stroke: #d62728"/>
     <use xlink:href="#m5ae30f74cf" x="269.687273" y="156.223164" style="fill: #d62728; stroke: #d62728"/>
     <use xlink:href="#m5ae30f74cf" x="315.274205" y="156.223164" style="fill: #d62728; stroke: #d62728"/>
     <use xlink:href="#m5ae30f74cf" x="330.469848" y="156.223164" style="fill: #d62728; stroke: #d62728"/>
     <use xlink:href="#m5ae30f74cf" x="345.665492" y="156.223164" style="fill: #d62728; stroke: #d62728"/>
     <use xlink:href="#m5ae30f74cf" x="360.861136" y="156.223164" style="fill: #d62728; stroke: #d62728"/>
     <use xlink:href="#m5ae30f74cf" x="376.05678" y="156.223164" style="fill: #d62728; stroke: #d62728"/>
     <use xlink:href="#m5ae30f74cf" x="406.448068" y="156.223164" style="fill: #d62728; stroke: #d62728"/>
     <use xlink:href="#m5ae30f74cf" x="421.643712" y="156.223164" style="fill: #d62728; stroke: #d62728"/>
     <use xlink:href="#m5ae30f74cf" x="436.839356" y="156.223164" style="fill: #d62728; stroke: #d62728"/>
     <use xlink:href="#m5ae30f74cf" x="452.035" y="156.223164" style="fill: #d62728; stroke: #d62728"/>
     <use xlink:href="#m5ae30f74cf" x="467.230644" y="156.223164" style="fill: #d62728; stroke: #d62728"/>
     <use xlink:href="#m5ae30f74cf" x="482.426288" y="137.726807" style="fill: #d62728; stroke: #d62728"/>
     <use xlink:href="#m5ae30f74cf" x="497.621932" y="137.726807" style="fill: #d62728; stroke: #d62728"/>
     <use xlink:href="#m5ae30f74cf" x="512.817576" y="137.726807" style="fill: #d62728; stroke: #d62728"/>
     <use xlink:href="#m5ae30f74cf" x="528.01322" y="137.726807" style="fill: #d62728; stroke: #d62728"/>
     <use xlink:href="#m5ae30f74cf" x="543.208864" y="137.726807" style="fill: #d62728; stroke: #d62728"/>
     <use xlink:href="#m5ae30f74cf" x="558.404508" y="106.899546" style="fill: #d62728; stroke: #d62728"/>
     <use xlink:href="#m5ae30f74cf" x="573.600152" y="106.899546" style="fill: #d62728; stroke: #d62728"/>
     <use xlink:href="#m5ae30f74cf" x="588.795795" y="106.899546" style="fill: #d62728; stroke: #d62728"/>
     <use xlink:href="#m5ae30f74cf" x="603.991439" y="106.899546" style="fill: #d62728; stroke: #d62728"/>
     <use xlink:href="#m5ae30f74cf" x="619.187083" y="106.899546" style="fill: #d62728; stroke: #d62728"/>
     <use xlink:href="#m5ae30f74cf" x="634.382727" y="106.899546" style="fill: #d62728; stroke: #d62728"/>
     <use xlink:href="#m5ae30f74cf" x="649.578371" y="106.899546" style="fill: #d62728; stroke: #d62728"/>
     <use xlink:href="#m5ae30f74cf" x="664.774015" y="106.899546" style="fill: #d62728; stroke: #d62728"/>
     <use xlink:href="#m5ae30f74cf" x="679.969659" y="106.899546" style="fill: #d62728; stroke: #d62728"/>
     <use xlink:href="#m5ae30f74cf" x="695.165303" y="106.899546" style="fill: #d62728; stroke: #d62728"/>
     <use xlink:href="#m5ae30f74cf" x="710.360947" y="106.899546" style="fill: #d62728; stroke: #d62728"/>
     <use xlink:href="#m5ae30f74cf" x="725.556591" y="106.899546" style="fill: #d62728; stroke: #d62728"/>
     <use xlink:href="#m5ae30f74cf" x="740.752235" y="106.899546" style="fill: #d62728; stroke: #d62728"/>
     <use xlink:href="#m5ae30f74cf" x="755.947879" y="106.899546" style="fill: #d62728; stroke: #d62728"/>
     <use xlink:href="#m5ae30f74cf" x="771.143523" y="106.899546" style="fill: #d62728; stroke: #d62728"/>
     <use xlink:href="#m5ae30f74cf" x="786.339167" y="106.899546" style="fill: #d62728; stroke: #d62728"/>
     <use xlink:href="#m5ae30f74cf" x="801.534811" y="106.899546" style="fill: #d62728; stroke: #d62728"/>
     <use xlink:href="#m5ae30f74cf" x="816.730455" y="106.899546" style="fill: #d62728; stroke: #d62728"/>
    </g>
   </g>
   <g id="line2d_31">
    <path d="M 87.339545 383.294519 
L 102.535189 350.001076 
L 117.730833 322.873086 
L 132.926477 308.076001 
L 148.122121 293.278915 
L 163.317765 278.48183 
L 178.513409 276.015649 
L 193.709053 255.053111 
L 208.904697 224.22585 
L 224.100341 200.797131 
L 239.295985 163.804417 
L 254.491629 149.007332 
L 269.687273 121.879342 
L 315.274205 121.879342 
L 330.469848 121.879342 
L 345.665492 121.879342 
L 360.861136 121.879342 
L 376.05678 121.879342 
L 406.448068 121.879342 
L 421.643712 121.879342 
L 436.839356 121.879342 
L 452.035 121.879342 
L 467.230644 121.879342 
L 482.426288 103.382985 
L 497.621932 103.382985 
L 512.817576 103.382985 
L 528.01322 103.382985 
L 543.208864 103.382985 
L 558.404508 78.721175 
L 573.600152 78.721175 
L 588.795795 78.721175 
L 603.991439 78.721175 
L 619.187083 78.721175 
L 634.382727 78.721175 
L 649.578371 78.721175 
L 664.774015 78.721175 
L 679.969659 78.721175 
L 695.165303 78.721175 
L 710.360947 78.721175 
L 725.556591 78.721175 
L 740.752235 78.721175 
L 755.947879 78.721175 
L 771.143523 78.721175 
L 786.339167 78.721175 
L 801.534811 78.721175 
L 816.730455 78.721175 
" clip-path="url(#p51a47a5d29)" style="fill: none; stroke: #9467bd; stroke-width: 1.5; stroke-linecap: square"/>
    <defs>
     <path id="m74b0a965de" d="M 0 3.5 
C 0.928211 3.5 1.81853 3.131218 2.474874 2.474874 
C 3.131218 1.81853 3.5 0.928211 3.5 0 
C 3.5 -0.928211 3.131218 -1.81853 2.474874 -2.474874 
C 1.81853 -3.131218 0.928211 -3.5 0 -3.5 
C -0.928211 -3.5 -1.81853 -3.131218 -2.474874 -2.474874 
C -3.131218 -1.81853 -3.5 -0.928211 -3.5 0 
C -3.5 0.928211 -3.131218 1.81853 -2.474874 2.474874 
C -1.81853 3.131218 -0.928211 3.5 0 3.5 
z
" style="stroke: #9467bd"/>
    </defs>
    <g clip-path="url(#p51a47a5d29)">
     <use xlink:href="#m74b0a965de" x="87.339545" y="383.294519" style="fill: #9467bd; stroke: #9467bd"/>
     <use xlink:href="#m74b0a965de" x="102.535189" y="350.001076" style="fill: #9467bd; stroke: #9467bd"/>
     <use xlink:href="#m74b0a965de" x="117.730833" y="322.873086" style="fill: #9467bd; stroke: #9467bd"/>
     <use xlink:href="#m74b0a965de" x="132.926477" y="308.076001" style="fill: #9467bd; stroke: #9467bd"/>
     <use xlink:href="#m74b0a965de" x="148.122121" y="293.278915" style="fill: #9467bd; stroke: #9467bd"/>
     <use xlink:href="#m74b0a965de" x="163.317765" y="278.48183" style="fill: #9467bd; stroke: #9467bd"/>
     <use xlink:href="#m74b0a965de" x="178.513409" y="276.015649" style="fill: #9467bd; stroke: #9467bd"/>
     <use xlink:href="#m74b0a965de" x="193.709053" y="255.053111" style="fill: #9467bd; stroke: #9467bd"/>
     <use xlink:href="#m74b0a965de" x="208.904697" y="224.22585" style="fill: #9467bd; stroke: #9467bd"/>
     <use xlink:href="#m74b0a965de" x="224.100341" y="200.797131" style="fill: #9467bd; stroke: #9467bd"/>
     <use xlink:href="#m74b0a965de" x="239.295985" y="163.804417" style="fill: #9467bd; stroke: #9467bd"/>
     <use xlink:href="#m74b0a965de" x="254.491629" y="149.007332" style="fill: #9467bd; stroke: #9467bd"/>
     <use xlink:href="#m74b0a965de" x="269.687273" y="121.879342" style="fill: #9467bd; stroke: #9467bd"/>
     <use xlink:href="#m74b0a965de" x="315.274205" y="121.879342" style="fill: #9467bd; stroke: #9467bd"/>
     <use xlink:href="#m74b0a965de" x="330.469848" y="121.879342" style="fill: #9467bd; stroke: #9467bd"/>
     <use xlink:href="#m74b0a965de" x="345.665492" y="121.879342" style="fill: #9467bd; stroke: #9467bd"/>
     <use xlink:href="#m74b0a965de" x="360.861136" y="121.879342" style="fill: #9467bd; stroke: #9467bd"/>
     <use xlink:href="#m74b0a965de" x="376.05678" y="121.879342" style="fill: #9467bd; stroke: #9467bd"/>
     <use xlink:href="#m74b0a965de" x="406.448068" y="121.879342" style="fill: #9467bd; stroke: #9467bd"/>
     <use xlink:href="#m74b0a965de" x="421.643712" y="121.879342" style="fill: #9467bd; stroke: #9467bd"/>
     <use xlink:href="#m74b0a965de" x="436.839356" y="121.879342" style="fill: #9467bd; stroke: #9467bd"/>
     <use xlink:href="#m74b0a965de" x="452.035" y="121.879342" style="fill: #9467bd; stroke: #9467bd"/>
     <use xlink:href="#m74b0a965de" x="467.230644" y="121.879342" style="fill: #9467bd; stroke: #9467bd"/>
     <use xlink:href="#m74b0a965de" x="482.426288" y="103.382985" style="fill: #9467bd; stroke: #9467bd"/>
     <use xlink:href="#m74b0a965de" x="497.621932" y="103.382985" style="fill: #9467bd; stroke: #9467bd"/>
     <use xlink:href="#m74b0a965de" x="512.817576" y="103.382985" style="fill: #9467bd; stroke: #9467bd"/>
     <use xlink:href="#m74b0a965de" x="528.01322" y="103.382985" style="fill: #9467bd; stroke: #9467bd"/>
     <use xlink:href="#m74b0a965de" x="543.208864" y="103.382985" style="fill: #9467bd; stroke: #9467bd"/>
     <use xlink:href="#m74b0a965de" x="558.404508" y="78.721175" style="fill: #9467bd; stroke: #9467bd"/>
     <use xlink:href="#m74b0a965de" x="573.600152" y="78.721175" style="fill: #9467bd; stroke: #9467bd"/>
     <use xlink:href="#m74b0a965de" x="588.795795" y="78.721175" style="fill: #9467bd; stroke: #9467bd"/>
     <use xlink:href="#m74b0a965de" x="603.991439" y="78.721175" style="fill: #9467bd; stroke: #9467bd"/>
     <use xlink:href="#m74b0a965de" x="619.187083" y="78.721175" style="fill: #9467bd; stroke: #9467bd"/>
     <use xlink:href="#m74b0a965de" x="634.382727" y="78.721175" style="fill: #9467bd; stroke: #9467bd"/>
     <use xlink:href="#m74b0a965de" x="649.578371" y="78.721175" style="fill: #9467bd; stroke: #9467bd"/>
     <use xlink:href="#m74b0a965de" x="664.774015" y="78.721175" style="fill: #9467bd; stroke: #9467bd"/>
     <use xlink:href="#m74b0a965de" x="679.969659" y="78.721175" style="fill: #9467bd; stroke: #9467bd"/>
     <use xlink:href="#m74b0a965de" x="695.165303" y="78.721175" style="fill: #9467bd; stroke: #9467bd"/>
     <use xlink:href="#m74b0a965de" x="710.360947" y="78.721175" style="fill: #9467bd; stroke: #9467bd"/>
     <use xlink:href="#m74b0a965de" x="725.556591" y="78.721175" style="fill: #9467bd; stroke: #9467bd"/>
     <use xlink:href="#m74b0a965de" x="740.752235" y="78.721175" style="fill: #9467bd; stroke: #9467bd"/>
     <use xlink:href="#m74b0a965de" x="755.947879" y="78.721175" style="fill: #9467bd; stroke: #9467bd"/>
     <use xlink:href="#m74b0a965de" x="771.143523" y="78.721175" style="fill: #9467bd; stroke: #9467bd"/>
     <use xlink:href="#m74b0a965de" x="786.339167" y="78.721175" style="fill: #9467bd; stroke: #9467bd"/>
     <use xlink:href="#m74b0a965de" x="801.534811" y="78.721175" style="fill: #9467bd; stroke: #9467bd"/>
     <use xlink:href="#m74b0a965de" x="816.730455" y="78.721175" style="fill: #9467bd; stroke: #9467bd"/>
    </g>
   </g>
   <g id="line2d_32">
    <path d="M 87.339545 383.127149 
L 102.535189 352.299888 
L 117.730833 327.638078 
L 132.926477 302.976269 
L 148.122121 284.479912 
L 163.317765 263.517374 
L 178.513409 261.051194 
L 193.709053 256.118832 
L 208.904697 212.960666 
L 224.100341 189.531947 
L 239.295985 158.704685 
L 254.491629 138.975238 
L 269.687273 81.019987 
L 315.274205 81.019987 
L 330.469848 81.019987 
L 345.665492 81.019987 
L 360.861136 81.019987 
L 376.05678 81.019987 
L 406.448068 81.019987 
L 421.643712 81.019987 
L 436.839356 81.019987 
L 452.035 81.019987 
L 467.230644 81.019987 
L 482.426288 62.52363 
L 497.621932 62.52363 
L 512.817576 62.52363 
L 528.01322 62.52363 
L 543.208864 62.52363 
L 558.404508 44.027273 
L 573.600152 44.027273 
L 588.795795 44.027273 
L 603.991439 44.027273 
L 619.187083 44.027273 
L 634.382727 44.027273 
L 649.578371 44.027273 
L 664.774015 44.027273 
L 679.969659 44.027273 
L 695.165303 44.027273 
L 710.360947 44.027273 
L 725.556591 44.027273 
L 740.752235 44.027273 
L 755.947879 44.027273 
L 771.143523 44.027273 
L 786.339167 44.027273 
L 801.534811 44.027273 
L 816.730455 44.027273 
" clip-path="url(#p51a47a5d29)" style="fill: none; stroke: #8c564b; stroke-width: 1.5; stroke-linecap: square"/>
    <defs>
     <path id="m1f9472435f" d="M 0 3.5 
C 0.928211 3.5 1.81853 3.131218 2.474874 2.474874 
C 3.131218 1.81853 3.5 0.928211 3.5 0 
C 3.5 -0.928211 3.131218 -1.81853 2.474874 -2.474874 
C 1.81853 -3.131218 0.928211 -3.5 0 -3.5 
C -0.928211 -3.5 -1.81853 -3.131218 -2.474874 -2.474874 
C -3.131218 -1.81853 -3.5 -0.928211 -3.5 0 
C -3.5 0.928211 -3.131218 1.81853 -2.474874 2.474874 
C -1.81853 3.131218 -0.928211 3.5 0 3.5 
z
" style="stroke: #8c564b"/>
    </defs>
    <g clip-path="url(#p51a47a5d29)">
     <use xlink:href="#m1f9472435f" x="87.339545" y="383.127149" style="fill: #8c564b; stroke: #8c564b"/>
     <use xlink:href="#m1f9472435f" x="102.535189" y="352.299888" style="fill: #8c564b; stroke: #8c564b"/>
     <use xlink:href="#m1f9472435f" x="117.730833" y="327.638078" style="fill: #8c564b; stroke: #8c564b"/>
     <use xlink:href="#m1f9472435f" x="132.926477" y="302.976269" style="fill: #8c564b; stroke: #8c564b"/>
     <use xlink:href="#m1f9472435f" x="148.122121" y="284.479912" style="fill: #8c564b; stroke: #8c564b"/>
     <use xlink:href="#m1f9472435f" x="163.317765" y="263.517374" style="fill: #8c564b; stroke: #8c564b"/>
     <use xlink:href="#m1f9472435f" x="178.513409" y="261.051194" style="fill: #8c564b; stroke: #8c564b"/>
     <use xlink:href="#m1f9472435f" x="193.709053" y="256.118832" style="fill: #8c564b; stroke: #8c564b"/>
     <use xlink:href="#m1f9472435f" x="208.904697" y="212.960666" style="fill: #8c564b; stroke: #8c564b"/>
     <use xlink:href="#m1f9472435f" x="224.100341" y="189.531947" style="fill: #8c564b; stroke: #8c564b"/>
     <use xlink:href="#m1f9472435f" x="239.295985" y="158.704685" style="fill: #8c564b; stroke: #8c564b"/>
     <use xlink:href="#m1f9472435f" x="254.491629" y="138.975238" style="fill: #8c564b; stroke: #8c564b"/>
     <use xlink:href="#m1f9472435f" x="269.687273" y="81.019987" style="fill: #8c564b; stroke: #8c564b"/>
     <use xlink:href="#m1f9472435f" x="315.274205" y="81.019987" style="fill: #8c564b; stroke: #8c564b"/>
     <use xlink:href="#m1f9472435f" x="330.469848" y="81.019987" style="fill: #8c564b; stroke: #8c564b"/>
     <use xlink:href="#m1f9472435f" x="345.665492" y="81.019987" style="fill: #8c564b; stroke: #8c564b"/>
     <use xlink:href="#m1f9472435f" x="360.861136" y="81.019987" style="fill: #8c564b; stroke: #8c564b"/>
     <use xlink:href="#m1f9472435f" x="376.05678" y="81.019987" style="fill: #8c564b; stroke: #8c564b"/>
     <use xlink:href="#m1f9472435f" x="406.448068" y="81.019987" style="fill: #8c564b; stroke: #8c564b"/>
     <use xlink:href="#m1f9472435f" x="421.643712" y="81.019987" style="fill: #8c564b; stroke: #8c564b"/>
     <use xlink:href="#m1f9472435f" x="436.839356" y="81.019987" style="fill: #8c564b; stroke: #8c564b"/>
     <use xlink:href="#m1f9472435f" x="452.035" y="81.019987" style="fill: #8c564b; stroke: #8c564b"/>
     <use xlink:href="#m1f9472435f" x="467.230644" y="81.019987" style="fill: #8c564b; stroke: #8c564b"/>
     <use xlink:href="#m1f9472435f" x="482.426288" y="62.52363" style="fill: #8c564b; stroke: #8c564b"/>
     <use xlink:href="#m1f9472435f" x="497.621932" y="62.52363" style="fill: #8c564b; stroke: #8c564b"/>
     <use xlink:href="#m1f9472435f" x="512.817576" y="62.52363" style="fill: #8c564b; stroke: #8c564b"/>
     <use xlink:href="#m1f9472435f" x="528.01322" y="62.52363" style="fill: #8c564b; stroke: #8c564b"/>
     <use xlink:href="#m1f9472435f" x="543.208864" y="62.52363" style="fill: #8c564b; stroke: #8c564b"/>
     <use xlink:href="#m1f9472435f" x="558.404508" y="44.027273" style="fill: #8c564b; stroke: #8c564b"/>
     <use xlink:href="#m1f9472435f" x="573.600152" y="44.027273" style="fill: #8c564b; stroke: #8c564b"/>
     <use xlink:href="#m1f9472435f" x="588.795795" y="44.027273" style="fill: #8c564b; stroke: #8c564b"/>
     <use xlink:href="#m1f9472435f" x="603.991439" y="44.027273" style="fill: #8c564b; stroke: #8c564b"/>
     <use xlink:href="#m1f9472435f" x="619.187083" y="44.027273" style="fill: #8c564b; stroke: #8c564b"/>
     <use xlink:href="#m1f9472435f" x="634.382727" y="44.027273" style="fill: #8c564b; stroke: #8c564b"/>
     <use xlink:href="#m1f9472435f" x="649.578371" y="44.027273" style="fill: #8c564b; stroke: #8c564b"/>
     <use xlink:href="#m1f9472435f" x="664.774015" y="44.027273" style="fill: #8c564b; stroke: #8c564b"/>
     <use xlink:href="#m1f9472435f" x="679.969659" y="44.027273" style="fill: #8c564b; stroke: #8c564b"/>
     <use xlink:href="#m1f9472435f" x="695.165303" y="44.027273" style="fill: #8c564b; stroke: #8c564b"/>
     <use xlink:href="#m1f9472435f" x="710.360947" y="44.027273" style="fill: #8c564b; stroke: #8c564b"/>
     <use xlink:href="#m1f9472435f" x="725.556591" y="44.027273" style="fill: #8c564b; stroke: #8c564b"/>
     <use xlink:href="#m1f9472435f" x="740.752235" y="44.027273" style="fill: #8c564b; stroke: #8c564b"/>
     <use xlink:href="#m1f9472435f" x="755.947879" y="44.027273" style="fill: #8c564b; stroke: #8c564b"/>
     <use xlink:href="#m1f9472435f" x="771.143523" y="44.027273" style="fill: #8c564b; stroke: #8c564b"/>
     <use xlink:href="#m1f9472435f" x="786.339167" y="44.027273" style="fill: #8c564b; stroke: #8c564b"/>
     <use xlink:href="#m1f9472435f" x="801.534811" y="44.027273" style="fill: #8c564b; stroke: #8c564b"/>
     <use xlink:href="#m1f9472435f" x="816.730455" y="44.027273" style="fill: #8c564b; stroke: #8c564b"/>
    </g>
   </g>
   <g id="line2d_33">
    <path d="M 87.339545 386.83133 
L 102.535189 384.365149 
L 117.730833 381.898968 
L 132.926477 351.071707 
L 148.122121 344.906255 
L 163.317765 342.440074 
L 178.513409 317.778264 
L 193.709053 310.379722 
L 208.904697 298.048817 
L 224.100341 286.951003 
L 239.295985 268.454646 
L 254.491629 254.890651 
L 269.687273 188.303766 
L 315.274205 188.303766 
L 330.469848 188.303766 
L 345.665492 188.303766 
L 360.861136 188.303766 
L 376.05678 188.303766 
L 406.448068 188.303766 
L 421.643712 188.303766 
L 436.839356 188.303766 
L 452.035 188.303766 
L 467.230644 188.303766 
L 482.426288 188.303766 
L 497.621932 188.303766 
L 512.817576 188.303766 
L 528.01322 188.303766 
L 543.208864 188.303766 
L 558.404508 188.303766 
L 573.600152 188.303766 
L 588.795795 188.303766 
L 603.991439 188.303766 
L 619.187083 188.303766 
L 634.382727 188.303766 
L 649.578371 188.303766 
L 664.774015 188.303766 
L 679.969659 188.303766 
L 695.165303 188.303766 
L 710.360947 188.303766 
L 725.556591 188.303766 
L 740.752235 188.303766 
L 755.947879 188.303766 
L 771.143523 188.303766 
L 786.339167 188.303766 
L 801.534811 188.303766 
L 816.730455 188.303766 
" clip-path="url(#p51a47a5d29)" style="fill: none; stroke: #e377c2; stroke-width: 1.5; stroke-linecap: square"/>
    <defs>
     <path id="m2e87e18b26" d="M 0 3.5 
C 0.928211 3.5 1.81853 3.131218 2.474874 2.474874 
C 3.131218 1.81853 3.5 0.928211 3.5 0 
C 3.5 -0.928211 3.131218 -1.81853 2.474874 -2.474874 
C 1.81853 -3.131218 0.928211 -3.5 0 -3.5 
C -0.928211 -3.5 -1.81853 -3.131218 -2.474874 -2.474874 
C -3.131218 -1.81853 -3.5 -0.928211 -3.5 0 
C -3.5 0.928211 -3.131218 1.81853 -2.474874 2.474874 
C -1.81853 3.131218 -0.928211 3.5 0 3.5 
z
" style="stroke: #e377c2"/>
    </defs>
    <g clip-path="url(#p51a47a5d29)">
     <use xlink:href="#m2e87e18b26" x="87.339545" y="386.83133" style="fill: #e377c2; stroke: #e377c2"/>
     <use xlink:href="#m2e87e18b26" x="102.535189" y="384.365149" style="fill: #e377c2; stroke: #e377c2"/>
     <use xlink:href="#m2e87e18b26" x="117.730833" y="381.898968" style="fill: #e377c2; stroke: #e377c2"/>
     <use xlink:href="#m2e87e18b26" x="132.926477" y="351.071707" style="fill: #e377c2; stroke: #e377c2"/>
     <use xlink:href="#m2e87e18b26" x="148.122121" y="344.906255" style="fill: #e377c2; stroke: #e377c2"/>
     <use xlink:href="#m2e87e18b26" x="163.317765" y="342.440074" style="fill: #e377c2; stroke: #e377c2"/>
     <use xlink:href="#m2e87e18b26" x="178.513409" y="317.778264" style="fill: #e377c2; stroke: #e377c2"/>
     <use xlink:href="#m2e87e18b26" x="193.709053" y="310.379722" style="fill: #e377c2; stroke: #e377c2"/>
     <use xlink:href="#m2e87e18b26" x="208.904697" y="298.048817" style="fill: #e377c2; stroke: #e377c2"/>
     <use xlink:href="#m2e87e18b26" x="224.100341" y="286.951003" style="fill: #e377c2; stroke: #e377c2"/>
     <use xlink:href="#m2e87e18b26" x="239.295985" y="268.454646" style="fill: #e377c2; stroke: #e377c2"/>
     <use xlink:href="#m2e87e18b26" x="254.491629" y="254.890651" style="fill: #e377c2; stroke: #e377c2"/>
     <use xlink:href="#m2e87e18b26" x="269.687273" y="188.303766" style="fill: #e377c2; stroke: #e377c2"/>
     <use xlink:href="#m2e87e18b26" x="315.274205" y="188.303766" style="fill: #e377c2; stroke: #e377c2"/>
     <use xlink:href="#m2e87e18b26" x="330.469848" y="188.303766" style="fill: #e377c2; stroke: #e377c2"/>
     <use xlink:href="#m2e87e18b26" x="345.665492" y="188.303766" style="fill: #e377c2; stroke: #e377c2"/>
     <use xlink:href="#m2e87e18b26" x="360.861136" y="188.303766" style="fill: #e377c2; stroke: #e377c2"/>
     <use xlink:href="#m2e87e18b26" x="376.05678" y="188.303766" style="fill: #e377c2; stroke: #e377c2"/>
     <use xlink:href="#m2e87e18b26" x="406.448068" y="188.303766" style="fill: #e377c2; stroke: #e377c2"/>
     <use xlink:href="#m2e87e18b26" x="421.643712" y="188.303766" style="fill: #e377c2; stroke: #e377c2"/>
     <use xlink:href="#m2e87e18b26" x="436.839356" y="188.303766" style="fill: #e377c2; stroke: #e377c2"/>
     <use xlink:href="#m2e87e18b26" x="452.035" y="188.303766" style="fill: #e377c2; stroke: #e377c2"/>
     <use xlink:href="#m2e87e18b26" x="467.230644" y="188.303766" style="fill: #e377c2; stroke: #e377c2"/>
     <use xlink:href="#m2e87e18b26" x="482.426288" y="188.303766" style="fill: #e377c2; stroke: #e377c2"/>
     <use xlink:href="#m2e87e18b26" x="497.621932" y="188.303766" style="fill: #e377c2; stroke: #e377c2"/>
     <use xlink:href="#m2e87e18b26" x="512.817576" y="188.303766" style="fill: #e377c2; stroke: #e377c2"/>
     <use xlink:href="#m2e87e18b26" x="528.01322" y="188.303766" style="fill: #e377c2; stroke: #e377c2"/>
     <use xlink:href="#m2e87e18b26" x="543.208864" y="188.303766" style="fill: #e377c2; stroke: #e377c2"/>
     <use xlink:href="#m2e87e18b26" x="558.404508" y="188.303766" style="fill: #e377c2; stroke: #e377c2"/>
     <use xlink:href="#m2e87e18b26" x="573.600152" y="188.303766" style="fill: #e377c2; stroke: #e377c2"/>
     <use xlink:href="#m2e87e18b26" x="588.795795" y="188.303766" style="fill: #e377c2; stroke: #e377c2"/>
     <use xlink:href="#m2e87e18b26" x="603.991439" y="188.303766" style="fill: #e377c2; stroke: #e377c2"/>
     <use xlink:href="#m2e87e18b26" x="619.187083" y="188.303766" style="fill: #e377c2; stroke: #e377c2"/>
     <use xlink:href="#m2e87e18b26" x="634.382727" y="188.303766" style="fill: #e377c2; stroke: #e377c2"/>
     <use xlink:href="#m2e87e18b26" x="649.578371" y="188.303766" style="fill: #e377c2; stroke: #e377c2"/>
     <use xlink:href="#m2e87e18b26" x="664.774015" y="188.303766" style="fill: #e377c2; stroke: #e377c2"/>
     <use xlink:href="#m2e87e18b26" x="679.969659" y="188.303766" style="fill: #e377c2; stroke: #e377c2"/>
     <use xlink:href="#m2e87e18b26" x="695.165303" y="188.303766" style="fill: #e377c2; stroke: #e377c2"/>
     <use xlink:href="#m2e87e18b26" x="710.360947" y="188.303766" style="fill: #e377c2; stroke: #e377c2"/>
     <use xlink:href="#m2e87e18b26" x="725.556591" y="188.303766" style="fill: #e377c2; stroke: #e377c2"/>
     <use xlink:href="#m2e87e18b26" x="740.752235" y="188.303766" style="fill: #e377c2; stroke: #e377c2"/>
     <use xlink:href="#m2e87e18b26" x="755.947879" y="188.303766" style="fill: #e377c2; stroke: #e377c2"/>
     <use xlink:href="#m2e87e18b26" x="771.143523" y="188.303766" style="fill: #e377c2; stroke: #e377c2"/>
     <use xlink:href="#m2e87e18b26" x="786.339167" y="188.303766" style="fill: #e377c2; stroke: #e377c2"/>
     <use xlink:href="#m2e87e18b26" x="801.534811" y="188.303766" style="fill: #e377c2; stroke: #e377c2"/>
     <use xlink:href="#m2e87e18b26" x="816.730455" y="188.303766" style="fill: #e377c2; stroke: #e377c2"/>
    </g>
   </g>
   <g id="line2d_34">
    <path d="M 87.339545 386.972727 
L 102.535189 359.844737 
L 117.730833 332.716747 
L 132.926477 324.085114 
L 148.122121 299.423305 
L 163.317765 275.994586 
L 178.513409 261.1975 
L 193.709053 258.73132 
L 208.904697 231.603329 
L 224.100341 225.437877 
L 239.295985 176.114259 
L 254.491629 162.550264 
L 269.687273 120.625188 
L 315.274205 120.625188 
L 330.469848 120.625188 
L 345.665492 120.625188 
L 360.861136 120.625188 
L 376.05678 120.625188 
L 406.448068 120.625188 
L 421.643712 120.625188 
L 436.839356 120.625188 
L 452.035 120.625188 
L 467.230644 120.625188 
L 482.426288 102.128831 
L 497.621932 102.128831 
L 512.817576 102.128831 
L 528.01322 102.128831 
L 543.208864 102.128831 
L 558.404508 95.963379 
L 573.600152 95.963379 
L 588.795795 95.963379 
L 603.991439 95.963379 
L 619.187083 95.963379 
L 634.382727 95.963379 
L 649.578371 95.963379 
L 664.774015 95.963379 
L 679.969659 95.963379 
L 695.165303 95.963379 
L 710.360947 95.963379 
L 725.556591 95.963379 
L 740.752235 95.963379 
L 755.947879 95.963379 
L 771.143523 95.963379 
L 786.339167 95.963379 
L 801.534811 95.963379 
L 816.730455 95.963379 
" clip-path="url(#p51a47a5d29)" style="fill: none; stroke: #7f7f7f; stroke-width: 1.5; stroke-linecap: square"/>
    <defs>
     <path id="mf08b627981" d="M 0 3.5 
C 0.928211 3.5 1.81853 3.131218 2.474874 2.474874 
C 3.131218 1.81853 3.5 0.928211 3.5 0 
C 3.5 -0.928211 3.131218 -1.81853 2.474874 -2.474874 
C 1.81853 -3.131218 0.928211 -3.5 0 -3.5 
C -0.928211 -3.5 -1.81853 -3.131218 -2.474874 -2.474874 
C -3.131218 -1.81853 -3.5 -0.928211 -3.5 0 
C -3.5 0.928211 -3.131218 1.81853 -2.474874 2.474874 
C -1.81853 3.131218 -0.928211 3.5 0 3.5 
z
" style="stroke: #7f7f7f"/>
    </defs>
    <g clip-path="url(#p51a47a5d29)">
     <use xlink:href="#mf08b627981" x="87.339545" y="386.972727" style="fill: #7f7f7f; stroke: #7f7f7f"/>
     <use xlink:href="#mf08b627981" x="102.535189" y="359.844737" style="fill: #7f7f7f; stroke: #7f7f7f"/>
     <use xlink:href="#mf08b627981" x="117.730833" y="332.716747" style="fill: #7f7f7f; stroke: #7f7f7f"/>
     <use xlink:href="#mf08b627981" x="132.926477" y="324.085114" style="fill: #7f7f7f; stroke: #7f7f7f"/>
     <use xlink:href="#mf08b627981" x="148.122121" y="299.423305" style="fill: #7f7f7f; stroke: #7f7f7f"/>
     <use xlink:href="#mf08b627981" x="163.317765" y="275.994586" style="fill: #7f7f7f; stroke: #7f7f7f"/>
     <use xlink:href="#mf08b627981" x="178.513409" y="261.1975" style="fill: #7f7f7f; stroke: #7f7f7f"/>
     <use xlink:href="#mf08b627981" x="193.709053" y="258.73132" style="fill: #7f7f7f; stroke: #7f7f7f"/>
     <use xlink:href="#mf08b627981" x="208.904697" y="231.603329" style="fill: #7f7f7f; stroke: #7f7f7f"/>
     <use xlink:href="#mf08b627981" x="224.100341" y="225.437877" style="fill: #7f7f7f; stroke: #7f7f7f"/>
     <use xlink:href="#mf08b627981" x="239.295985" y="176.114259" style="fill: #7f7f7f; stroke: #7f7f7f"/>
     <use xlink:href="#mf08b627981" x="254.491629" y="162.550264" style="fill: #7f7f7f; stroke: #7f7f7f"/>
     <use xlink:href="#mf08b627981" x="269.687273" y="120.625188" style="fill: #7f7f7f; stroke: #7f7f7f"/>
     <use xlink:href="#mf08b627981" x="315.274205" y="120.625188" style="fill: #7f7f7f; stroke: #7f7f7f"/>
     <use xlink:href="#mf08b627981" x="330.469848" y="120.625188" style="fill: #7f7f7f; stroke: #7f7f7f"/>
     <use xlink:href="#mf08b627981" x="345.665492" y="120.625188" style="fill: #7f7f7f; stroke: #7f7f7f"/>
     <use xlink:href="#mf08b627981" x="360.861136" y="120.625188" style="fill: #7f7f7f; stroke: #7f7f7f"/>
     <use xlink:href="#mf08b627981" x="376.05678" y="120.625188" style="fill: #7f7f7f; stroke: #7f7f7f"/>
     <use xlink:href="#mf08b627981" x="406.448068" y="120.625188" style="fill: #7f7f7f; stroke: #7f7f7f"/>
     <use xlink:href="#mf08b627981" x="421.643712" y="120.625188" style="fill: #7f7f7f; stroke: #7f7f7f"/>
     <use xlink:href="#mf08b627981" x="436.839356" y="120.625188" style="fill: #7f7f7f; stroke: #7f7f7f"/>
     <use xlink:href="#mf08b627981" x="452.035" y="120.625188" style="fill: #7f7f7f; stroke: #7f7f7f"/>
     <use xlink:href="#mf08b627981" x="467.230644" y="120.625188" style="fill: #7f7f7f; stroke: #7f7f7f"/>
     <use xlink:href="#mf08b627981" x="482.426288" y="102.128831" style="fill: #7f7f7f; stroke: #7f7f7f"/>
     <use xlink:href="#mf08b627981" x="497.621932" y="102.128831" style="fill: #7f7f7f; stroke: #7f7f7f"/>
     <use xlink:href="#mf08b627981" x="512.817576" y="102.128831" style="fill: #7f7f7f; stroke: #7f7f7f"/>
     <use xlink:href="#mf08b627981" x="528.01322" y="102.128831" style="fill: #7f7f7f; stroke: #7f7f7f"/>
     <use xlink:href="#mf08b627981" x="543.208864" y="102.128831" style="fill: #7f7f7f; stroke: #7f7f7f"/>
     <use xlink:href="#mf08b627981" x="558.404508" y="95.963379" style="fill: #7f7f7f; stroke: #7f7f7f"/>
     <use xlink:href="#mf08b627981" x="573.600152" y="95.963379" style="fill: #7f7f7f; stroke: #7f7f7f"/>
     <use xlink:href="#mf08b627981" x="588.795795" y="95.963379" style="fill: #7f7f7f; stroke: #7f7f7f"/>
     <use xlink:href="#mf08b627981" x="603.991439" y="95.963379" style="fill: #7f7f7f; stroke: #7f7f7f"/>
     <use xlink:href="#mf08b627981" x="619.187083" y="95.963379" style="fill: #7f7f7f; stroke: #7f7f7f"/>
     <use xlink:href="#mf08b627981" x="634.382727" y="95.963379" style="fill: #7f7f7f; stroke: #7f7f7f"/>
     <use xlink:href="#mf08b627981" x="649.578371" y="95.963379" style="fill: #7f7f7f; stroke: #7f7f7f"/>
     <use xlink:href="#mf08b627981" x="664.774015" y="95.963379" style="fill: #7f7f7f; stroke: #7f7f7f"/>
     <use xlink:href="#mf08b627981" x="679.969659" y="95.963379" style="fill: #7f7f7f; stroke: #7f7f7f"/>
     <use xlink:href="#mf08b627981" x="695.165303" y="95.963379" style="fill: #7f7f7f; stroke: #7f7f7f"/>
     <use xlink:href="#mf08b627981" x="710.360947" y="95.963379" style="fill: #7f7f7f; stroke: #7f7f7f"/>
     <use xlink:href="#mf08b627981" x="725.556591" y="95.963379" style="fill: #7f7f7f; stroke: #7f7f7f"/>
     <use xlink:href="#mf08b627981" x="740.752235" y="95.963379" style="fill: #7f7f7f; stroke: #7f7f7f"/>
     <use xlink:href="#mf08b627981" x="755.947879" y="95.963379" style="fill: #7f7f7f; stroke: #7f7f7f"/>
     <use xlink:href="#mf08b627981" x="771.143523" y="95.963379" style="fill: #7f7f7f; stroke: #7f7f7f"/>
     <use xlink:href="#mf08b627981" x="786.339167" y="95.963379" style="fill: #7f7f7f; stroke: #7f7f7f"/>
     <use xlink:href="#mf08b627981" x="801.534811" y="95.963379" style="fill: #7f7f7f; stroke: #7f7f7f"/>
     <use xlink:href="#mf08b627981" x="816.730455" y="95.963379" style="fill: #7f7f7f; stroke: #7f7f7f"/>
    </g>
   </g>
   <g id="line2d_35">
    <path d="M 87.339545 377.130858 
L 102.535189 364.799954 
L 117.730833 346.303597 
L 132.926477 331.506511 
L 148.122121 316.709426 
L 163.317765 283.415984 
L 178.513409 278.483622 
L 193.709053 267.385808 
L 208.904697 236.558546 
L 224.100341 211.896737 
L 239.295985 162.573119 
L 254.491629 147.776033 
L 269.687273 95.986234 
L 315.274205 95.986234 
L 330.469848 95.986234 
L 345.665492 95.986234 
L 360.861136 95.986234 
L 376.05678 95.986234 
L 406.448068 95.986234 
L 421.643712 95.986234 
L 436.839356 95.986234 
L 452.035 95.986234 
L 467.230644 95.986234 
L 482.426288 77.489877 
L 497.621932 77.489877 
L 512.817576 77.489877 
L 528.01322 77.489877 
L 543.208864 77.489877 
L 558.404508 77.489877 
L 573.600152 77.489877 
L 588.795795 77.489877 
L 603.991439 77.489877 
L 619.187083 77.489877 
L 634.382727 77.489877 
L 649.578371 77.489877 
L 664.774015 77.489877 
L 679.969659 77.489877 
L 695.165303 77.489877 
L 710.360947 77.489877 
L 725.556591 77.489877 
L 740.752235 77.489877 
L 755.947879 77.489877 
L 771.143523 77.489877 
L 786.339167 77.489877 
L 801.534811 77.489877 
L 816.730455 77.489877 
" clip-path="url(#p51a47a5d29)" style="fill: none; stroke: #bcbd22; stroke-width: 1.5; stroke-linecap: square"/>
    <defs>
     <path id="m390ccb9b9e" d="M 0 3.5 
C 0.928211 3.5 1.81853 3.131218 2.474874 2.474874 
C 3.131218 1.81853 3.5 0.928211 3.5 0 
C 3.5 -0.928211 3.131218 -1.81853 2.474874 -2.474874 
C 1.81853 -3.131218 0.928211 -3.5 0 -3.5 
C -0.928211 -3.5 -1.81853 -3.131218 -2.474874 -2.474874 
C -3.131218 -1.81853 -3.5 -0.928211 -3.5 0 
C -3.5 0.928211 -3.131218 1.81853 -2.474874 2.474874 
C -1.81853 3.131218 -0.928211 3.5 0 3.5 
z
" style="stroke: #bcbd22"/>
    </defs>
    <g clip-path="url(#p51a47a5d29)">
     <use xlink:href="#m390ccb9b9e" x="87.339545" y="377.130858" style="fill: #bcbd22; stroke: #bcbd22"/>
     <use xlink:href="#m390ccb9b9e" x="102.535189" y="364.799954" style="fill: #bcbd22; stroke: #bcbd22"/>
     <use xlink:href="#m390ccb9b9e" x="117.730833" y="346.303597" style="fill: #bcbd22; stroke: #bcbd22"/>
     <use xlink:href="#m390ccb9b9e" x="132.926477" y="331.506511" style="fill: #bcbd22; stroke: #bcbd22"/>
     <use xlink:href="#m390ccb9b9e" x="148.122121" y="316.709426" style="fill: #bcbd22; stroke: #bcbd22"/>
     <use xlink:href="#m390ccb9b9e" x="163.317765" y="283.415984" style="fill: #bcbd22; stroke: #bcbd22"/>
     <use xlink:href="#m390ccb9b9e" x="178.513409" y="278.483622" style="fill: #bcbd22; stroke: #bcbd22"/>
     <use xlink:href="#m390ccb9b9e" x="193.709053" y="267.385808" style="fill: #bcbd22; stroke: #bcbd22"/>
     <use xlink:href="#m390ccb9b9e" x="208.904697" y="236.558546" style="fill: #bcbd22; stroke: #bcbd22"/>
     <use xlink:href="#m390ccb9b9e" x="224.100341" y="211.896737" style="fill: #bcbd22; stroke: #bcbd22"/>
     <use xlink:href="#m390ccb9b9e" x="239.295985" y="162.573119" style="fill: #bcbd22; stroke: #bcbd22"/>
     <use xlink:href="#m390ccb9b9e" x="254.491629" y="147.776033" style="fill: #bcbd22; stroke: #bcbd22"/>
     <use xlink:href="#m390ccb9b9e" x="269.687273" y="95.986234" style="fill: #bcbd22; stroke: #bcbd22"/>
     <use xlink:href="#m390ccb9b9e" x="315.274205" y="95.986234" style="fill: #bcbd22; stroke: #bcbd22"/>
     <use xlink:href="#m390ccb9b9e" x="330.469848" y="95.986234" style="fill: #bcbd22; stroke: #bcbd22"/>
     <use xlink:href="#m390ccb9b9e" x="345.665492" y="95.986234" style="fill: #bcbd22; stroke: #bcbd22"/>
     <use xlink:href="#m390ccb9b9e" x="360.861136" y="95.986234" style="fill: #bcbd22; stroke: #bcbd22"/>
     <use xlink:href="#m390ccb9b9e" x="376.05678" y="95.986234" style="fill: #bcbd22; stroke: #bcbd22"/>
     <use xlink:href="#m390ccb9b9e" x="406.448068" y="95.986234" style="fill: #bcbd22; stroke: #bcbd22"/>
     <use xlink:href="#m390ccb9b9e" x="421.643712" y="95.986234" style="fill: #bcbd22; stroke: #bcbd22"/>
     <use xlink:href="#m390ccb9b9e" x="436.839356" y="95.986234" style="fill: #bcbd22; stroke: #bcbd22"/>
     <use xlink:href="#m390ccb9b9e" x="452.035" y="95.986234" style="fill: #bcbd22; stroke: #bcbd22"/>
     <use xlink:href="#m390ccb9b9e" x="467.230644" y="95.986234" style="fill: #bcbd22; stroke: #bcbd22"/>
     <use xlink:href="#m390ccb9b9e" x="482.426288" y="77.489877" style="fill: #bcbd22; stroke: #bcbd22"/>
     <use xlink:href="#m390ccb9b9e" x="497.621932" y="77.489877" style="fill: #bcbd22; stroke: #bcbd22"/>
     <use xlink:href="#m390ccb9b9e" x="512.817576" y="77.489877" style="fill: #bcbd22; stroke: #bcbd22"/>
     <use xlink:href="#m390ccb9b9e" x="528.01322" y="77.489877" style="fill: #bcbd22; stroke: #bcbd22"/>
     <use xlink:href="#m390ccb9b9e" x="543.208864" y="77.489877" style="fill: #bcbd22; stroke: #bcbd22"/>
     <use xlink:href="#m390ccb9b9e" x="558.404508" y="77.489877" style="fill: #bcbd22; stroke: #bcbd22"/>
     <use xlink:href="#m390ccb9b9e" x="573.600152" y="77.489877" style="fill: #bcbd22; stroke: #bcbd22"/>
     <use xlink:href="#m390ccb9b9e" x="588.795795" y="77.489877" style="fill: #bcbd22; stroke: #bcbd22"/>
     <use xlink:href="#m390ccb9b9e" x="603.991439" y="77.489877" style="fill: #bcbd22; stroke: #bcbd22"/>
     <use xlink:href="#m390ccb9b9e" x="619.187083" y="77.489877" style="fill: #bcbd22; stroke: #bcbd22"/>
     <use xlink:href="#m390ccb9b9e" x="634.382727" y="77.489877" style="fill: #bcbd22; stroke: #bcbd22"/>
     <use xlink:href="#m390ccb9b9e" x="649.578371" y="77.489877" style="fill: #bcbd22; stroke: #bcbd22"/>
     <use xlink:href="#m390ccb9b9e" x="664.774015" y="77.489877" style="fill: #bcbd22; stroke: #bcbd22"/>
     <use xlink:href="#m390ccb9b9e" x="679.969659" y="77.489877" style="fill: #bcbd22; stroke: #bcbd22"/>
     <use xlink:href="#m390ccb9b9e" x="695.165303" y="77.489877" style="fill: #bcbd22; stroke: #bcbd22"/>
     <use xlink:href="#m390ccb9b9e" x="710.360947" y="77.489877" style="fill: #bcbd22; stroke: #bcbd22"/>
     <use xlink:href="#m390ccb9b9e" x="725.556591" y="77.489877" style="fill: #bcbd22; stroke: #bcbd22"/>
     <use xlink:href="#m390ccb9b9e" x="740.752235" y="77.489877" style="fill: #bcbd22; stroke: #bcbd22"/>
     <use xlink:href="#m390ccb9b9e" x="755.947879" y="77.489877" style="fill: #bcbd22; stroke: #bcbd22"/>
     <use xlink:href="#m390ccb9b9e" x="771.143523" y="77.489877" style="fill: #bcbd22; stroke: #bcbd22"/>
     <use xlink:href="#m390ccb9b9e" x="786.339167" y="77.489877" style="fill: #bcbd22; stroke: #bcbd22"/>
     <use xlink:href="#m390ccb9b9e" x="801.534811" y="77.489877" style="fill: #bcbd22; stroke: #bcbd22"/>
     <use xlink:href="#m390ccb9b9e" x="816.730455" y="77.489877" style="fill: #bcbd22; stroke: #bcbd22"/>
    </g>
   </g>
   <g id="patch_3">
    <path d="M 50.87 404.12 
L 50.87 26.88 
" style="fill: none; stroke: #000000; stroke-width: 0.8; stroke-linejoin: miter; stroke-linecap: square"/>
   </g>
   <g id="patch_4">
    <path d="M 853.2 404.12 
L 853.2 26.88 
" style="fill: none; stroke: #000000; stroke-width: 0.8; stroke-linejoin: miter; stroke-linecap: square"/>
   </g>
   <g id="patch_5">
    <path d="M 50.87 404.12 
L 853.2 404.12 
" style="fill: none; stroke: #000000; stroke-width: 0.8; stroke-linejoin: miter; stroke-linecap: square"/>
   </g>
   <g id="patch_6">
    <path d="M 50.87 26.88 
L 853.2 26.88 
" style="fill: none; stroke: #000000; stroke-width: 0.8; stroke-linejoin: miter; stroke-linecap: square"/>
   </g>
   <g id="text_15">
    <!-- Standings -->
    <g transform="translate(422.18125 20.88) scale(0.12 -0.12)">
     <defs>
      <path id="DejaVuSans-74" d="M 1172 4494 
L 1172 3500 
L 2356 3500 
L 2356 3053 
L 1172 3053 
L 1172 1153 
Q 1172 725 1289 603 
Q 1406 481 1766 481 
L 2356 481 
L 2356 0 
L 1766 0 
Q 1100 0 847 248 
Q 594 497 594 1153 
L 594 3053 
L 172 3053 
L 172 3500 
L 594 3500 
L 594 4494 
L 1172 4494 
z
" transform="scale(0.015625)"/>
      <path id="DejaVuSans-61" d="M 2194 1759 
Q 1497 1759 1228 1600 
Q 959 1441 959 1056 
Q 959 750 1161 570 
Q 1363 391 1709 391 
Q 2188 391 2477 730 
Q 2766 1069 2766 1631 
L 2766 1759 
L 2194 1759 
z
M 3341 1997 
L 3341 0 
L 2766 0 
L 2766 531 
Q 2569 213 2275 61 
Q 1981 -91 1556 -91 
Q 1019 -91 701 211 
Q 384 513 384 1019 
Q 384 1609 779 1909 
Q 1175 2209 1959 2209 
L 2766 2209 
L 2766 2266 
Q 2766 2663 2505 2880 
Q 2244 3097 1772 3097 
Q 1472 3097 1187 3025 
Q 903 2953 641 2809 
L 641 3341 
Q 956 3463 1253 3523 
Q 1550 3584 1831 3584 
Q 2591 3584 2966 3190 
Q 3341 2797 3341 1997 
z
" transform="scale(0.015625)"/>
      <path id="DejaVuSans-6e" d="M 3513 2113 
L 3513 0 
L 2938 0 
L 2938 2094 
Q 2938 2591 2744 2837 
Q 2550 3084 2163 3084 
Q 1697 3084 1428 2787 
Q 1159 2491 1159 1978 
L 1159 0 
L 581 0 
L 581 3500 
L 1159 3500 
L 1159 2956 
Q 1366 3272 1645 3428 
Q 1925 3584 2291 3584 
Q 2894 3584 3203 3211 
Q 3513 2838 3513 2113 
z
" transform="scale(0.015625)"/>
      <path id="DejaVuSans-64" d="M 2906 2969 
L 2906 4863 
L 3481 4863 
L 3481 0 
L 2906 0 
L 2906 525 
Q 2725 213 2448 61 
Q 2172 -91 1784 -91 
Q 1150 -91 751 415 
Q 353 922 353 1747 
Q 353 2572 751 3078 
Q 1150 3584 1784 3584 
Q 2172 3584 2448 3432 
Q 2725 3281 2906 2969 
z
M 947 1747 
Q 947 1113 1208 752 
Q 1469 391 1925 391 
Q 2381 391 2643 752 
Q 2906 1113 2906 1747 
Q 2906 2381 2643 2742 
Q 2381 3103 1925 3103 
Q 1469 3103 1208 2742 
Q 947 2381 947 1747 
z
" transform="scale(0.015625)"/>
      <path id="DejaVuSans-69" d="M 603 3500 
L 1178 3500 
L 1178 0 
L 603 0 
L 603 3500 
z
M 603 4863 
L 1178 4863 
L 1178 4134 
L 603 4134 
L 603 4863 
z
" transform="scale(0.015625)"/>
      <path id="DejaVuSans-67" d="M 2906 1791 
Q 2906 2416 2648 2759 
Q 2391 3103 1925 3103 
Q 1463 3103 1205 2759 
Q 947 2416 947 1791 
Q 947 1169 1205 825 
Q 1463 481 1925 481 
Q 2391 481 2648 825 
Q 2906 1169 2906 1791 
z
M 3481 434 
Q 3481 -459 3084 -895 
Q 2688 -1331 1869 -1331 
Q 1566 -1331 1297 -1286 
Q 1028 -1241 775 -1147 
L 775 -588 
Q 1028 -725 1275 -790 
Q 1522 -856 1778 -856 
Q 2344 -856 2625 -561 
Q 2906 -266 2906 331 
L 2906 616 
Q 2728 306 2450 153 
Q 2172 0 1784 0 
Q 1141 0 747 490 
Q 353 981 353 1791 
Q 353 2603 747 3093 
Q 1141 3584 1784 3584 
Q 2172 3584 2450 3431 
Q 2728 3278 2906 2969 
L 2906 3500 
L 3481 3500 
L 3481 434 
z
" transform="scale(0.015625)"/>
      <path id="DejaVuSans-73" d="M 2834 3397 
L 2834 2853 
Q 2591 2978 2328 3040 
Q 2066 3103 1784 3103 
Q 1356 3103 1142 2972 
Q 928 2841 928 2578 
Q 928 2378 1081 2264 
Q 1234 2150 1697 2047 
L 1894 2003 
Q 2506 1872 2764 1633 
Q 3022 1394 3022 966 
Q 3022 478 2636 193 
Q 2250 -91 1575 -91 
Q 1294 -91 989 -36 
Q 684 19 347 128 
L 347 722 
Q 666 556 975 473 
Q 1284 391 1588 391 
Q 1994 391 2212 530 
Q 2431 669 2431 922 
Q 2431 1156 2273 1281 
Q 2116 1406 1581 1522 
L 1381 1569 
Q 847 1681 609 1914 
Q 372 2147 372 2553 
Q 372 3047 722 3315 
Q 1072 3584 1716 3584 
Q 2034 3584 2315 3537 
Q 2597 3491 2834 3397 
z
" transform="scale(0.015625)"/>
     </defs>
     <use xlink:href="#DejaVuSans-53"/>
     <use xlink:href="#DejaVuSans-74" x="63.476562"/>
     <use xlink:href="#DejaVuSans-61" x="102.685547"/>
     <use xlink:href="#DejaVuSans-6e" x="163.964844"/>
     <use xlink:href="#DejaVuSans-64" x="227.34375"/>
     <use xlink:href="#DejaVuSans-69" x="290.820312"/>
     <use xlink:href="#DejaVuSans-6e" x="318.603516"/>
     <use xlink:href="#DejaVuSans-67" x="381.982422"/>
     <use xlink:href="#DejaVuSans-73" x="445.458984"/>
    </g>
   </g>
   <g id="legend_1">
    <g id="patch_7">
     <path d="M 57.87 166.983125 
L 149.490313 166.983125 
Q 151.490313 166.983125 151.490313 164.983125 
L 151.490313 33.88 
Q 151.490313 31.88 149.490313 31.88 
L 57.87 31.88 
Q 55.87 31.88 55.87 33.88 
L 55.87 164.983125 
Q 55.87 166.983125 57.87 166.983125 
z
" style="fill: #ffffff; opacity: 0.8; stroke: #cccccc; stroke-linejoin: miter"/>
    </g>
    <g id="line2d_36">
     <path d="M 59.87 39.978437 
L 69.87 39.978437 
L 79.87 39.978437 
" style="fill: none; stroke: #1f77b4; stroke-width: 1.5; stroke-linecap: square"/>
     <g>
      <use xlink:href="#m4d48455303" x="69.87" y="39.978437" style="fill: #1f77b4; stroke: #1f77b4"/>
     </g>
    </g>
    <g id="text_16">
     <!-- Martin Ba -->
     <g transform="translate(87.87 43.478437) scale(0.1 -0.1)">
      <defs>
       <path id="DejaVuSans-4d" d="M 628 4666 
L 1569 4666 
L 2759 1491 
L 3956 4666 
L 4897 4666 
L 4897 0 
L 4281 0 
L 4281 4097 
L 3078 897 
L 2444 897 
L 1241 4097 
L 1241 0 
L 628 0 
L 628 4666 
z
" transform="scale(0.015625)"/>
       <path id="DejaVuSans-20" transform="scale(0.015625)"/>
       <path id="DejaVuSans-42" d="M 1259 2228 
L 1259 519 
L 2272 519 
Q 2781 519 3026 730 
Q 3272 941 3272 1375 
Q 3272 1813 3026 2020 
Q 2781 2228 2272 2228 
L 1259 2228 
z
M 1259 4147 
L 1259 2741 
L 2194 2741 
Q 2656 2741 2882 2914 
Q 3109 3088 3109 3444 
Q 3109 3797 2882 3972 
Q 2656 4147 2194 4147 
L 1259 4147 
z
M 628 4666 
L 2241 4666 
Q 2963 4666 3353 4366 
Q 3744 4066 3744 3513 
Q 3744 3084 3544 2831 
Q 3344 2578 2956 2516 
Q 3422 2416 3680 2098 
Q 3938 1781 3938 1306 
Q 3938 681 3513 340 
Q 3088 0 2303 0 
L 628 0 
L 628 4666 
z
" transform="scale(0.015625)"/>
      </defs>
      <use xlink:href="#DejaVuSans-4d"/>
      <use xlink:href="#DejaVuSans-61" x="86.279297"/>
      <use xlink:href="#DejaVuSans-72" x="147.558594"/>
      <use xlink:href="#DejaVuSans-74" x="188.671875"/>
      <use xlink:href="#DejaVuSans-69" x="227.880859"/>
      <use xlink:href="#DejaVuSans-6e" x="255.664062"/>
      <use xlink:href="#DejaVuSans-20" x="319.042969"/>
      <use xlink:href="#DejaVuSans-42" x="350.830078"/>
      <use xlink:href="#DejaVuSans-61" x="419.433594"/>
     </g>
    </g>
    <g id="line2d_37">
     <path d="M 59.87 54.656563 
L 69.87 54.656563 
L 79.87 54.656563 
" style="fill: none; stroke: #ff7f0e; stroke-width: 1.5; stroke-linecap: square"/>
     <g>
      <use xlink:href="#m433180ada9" x="69.87" y="54.656563" style="fill: #ff7f0e; stroke: #ff7f0e"/>
     </g>
    </g>
    <g id="text_17">
     <!-- Maren St -->
     <g transform="translate(87.87 58.156563) scale(0.1 -0.1)">
      <use xlink:href="#DejaVuSans-4d"/>
      <use xlink:href="#DejaVuSans-61" x="86.279297"/>
      <use xlink:href="#DejaVuSans-72" x="147.558594"/>
      <use xlink:href="#DejaVuSans-65" x="186.421875"/>
      <use xlink:href="#DejaVuSans-6e" x="247.945312"/>
      <use xlink:href="#DejaVuSans-20" x="311.324219"/>
      <use xlink:href="#DejaVuSans-53" x="343.111328"/>
      <use xlink:href="#DejaVuSans-74" x="406.587891"/>
     </g>
    </g>
    <g id="line2d_38">
     <path d="M 59.87 69.334687 
L 69.87 69.334687 
L 79.87 69.334687 
" style="fill: none; stroke: #2ca02c; stroke-width: 1.5; stroke-linecap: square"/>
     <g>
      <use xlink:href="#me8e29c50b2" x="69.87" y="69.334687" style="fill: #2ca02c; stroke: #2ca02c"/>
     </g>
    </g>
    <g id="text_18">
     <!-- Jakob Ve -->
     <g transform="translate(87.87 72.834687) scale(0.1 -0.1)">
      <defs>
       <path id="DejaVuSans-4a" d="M 628 4666 
L 1259 4666 
L 1259 325 
Q 1259 -519 939 -900 
Q 619 -1281 -91 -1281 
L -331 -1281 
L -331 -750 
L -134 -750 
Q 284 -750 456 -515 
Q 628 -281 628 325 
L 628 4666 
z
" transform="scale(0.015625)"/>
       <path id="DejaVuSans-6b" d="M 581 4863 
L 1159 4863 
L 1159 1991 
L 2875 3500 
L 3609 3500 
L 1753 1863 
L 3688 0 
L 2938 0 
L 1159 1709 
L 1159 0 
L 581 0 
L 581 4863 
z
" transform="scale(0.015625)"/>
       <path id="DejaVuSans-62" d="M 3116 1747 
Q 3116 2381 2855 2742 
Q 2594 3103 2138 3103 
Q 1681 3103 1420 2742 
Q 1159 2381 1159 1747 
Q 1159 1113 1420 752 
Q 1681 391 2138 391 
Q 2594 391 2855 752 
Q 3116 1113 3116 1747 
z
M 1159 2969 
Q 1341 3281 1617 3432 
Q 1894 3584 2278 3584 
Q 2916 3584 3314 3078 
Q 3713 2572 3713 1747 
Q 3713 922 3314 415 
Q 2916 -91 2278 -91 
Q 1894 -91 1617 61 
Q 1341 213 1159 525 
L 1159 0 
L 581 0 
L 581 4863 
L 1159 4863 
L 1159 2969 
z
" transform="scale(0.015625)"/>
       <path id="DejaVuSans-56" d="M 1831 0 
L 50 4666 
L 709 4666 
L 2188 738 
L 3669 4666 
L 4325 4666 
L 2547 0 
L 1831 0 
z
" transform="scale(0.015625)"/>
      </defs>
      <use xlink:href="#DejaVuSans-4a"/>
      <use xlink:href="#DejaVuSans-61" x="29.492188"/>
      <use xlink:href="#DejaVuSans-6b" x="90.771484"/>
      <use xlink:href="#DejaVuSans-6f" x="145.056641"/>
      <use xlink:href="#DejaVuSans-62" x="206.238281"/>
      <use xlink:href="#DejaVuSans-20" x="269.714844"/>
      <use xlink:href="#DejaVuSans-56" x="301.501953"/>
      <use xlink:href="#DejaVuSans-65" x="362.160156"/>
     </g>
    </g>
    <g id="line2d_39">
     <path d="M 59.87 84.012812 
L 69.87 84.012812 
L 79.87 84.012812 
" style="fill: none; stroke: #d62728; stroke-width: 1.5; stroke-linecap: square"/>
     <g>
      <use xlink:href="#m5ae30f74cf" x="69.87" y="84.012812" style="fill: #d62728; stroke: #d62728"/>
     </g>
    </g>
    <g id="text_19">
     <!-- Mathas Po -->
     <g transform="translate(87.87 87.512812) scale(0.1 -0.1)">
      <defs>
       <path id="DejaVuSans-68" d="M 3513 2113 
L 3513 0 
L 2938 0 
L 2938 2094 
Q 2938 2591 2744 2837 
Q 2550 3084 2163 3084 
Q 1697 3084 1428 2787 
Q 1159 2491 1159 1978 
L 1159 0 
L 581 0 
L 581 4863 
L 1159 4863 
L 1159 2956 
Q 1366 3272 1645 3428 
Q 1925 3584 2291 3584 
Q 2894 3584 3203 3211 
Q 3513 2838 3513 2113 
z
" transform="scale(0.015625)"/>
       <path id="DejaVuSans-50" d="M 1259 4147 
L 1259 2394 
L 2053 2394 
Q 2494 2394 2734 2622 
Q 2975 2850 2975 3272 
Q 2975 3691 2734 3919 
Q 2494 4147 2053 4147 
L 1259 4147 
z
M 628 4666 
L 2053 4666 
Q 2838 4666 3239 4311 
Q 3641 3956 3641 3272 
Q 3641 2581 3239 2228 
Q 2838 1875 2053 1875 
L 1259 1875 
L 1259 0 
L 628 0 
L 628 4666 
z
" transform="scale(0.015625)"/>
      </defs>
      <use xlink:href="#DejaVuSans-4d"/>
      <use xlink:href="#DejaVuSans-61" x="86.279297"/>
      <use xlink:href="#DejaVuSans-74" x="147.558594"/>
      <use xlink:href="#DejaVuSans-68" x="186.767578"/>
      <use xlink:href="#DejaVuSans-61" x="250.146484"/>
      <use xlink:href="#DejaVuSans-73" x="311.425781"/>
      <use xlink:href="#DejaVuSans-20" x="363.525391"/>
      <use xlink:href="#DejaVuSans-50" x="395.3125"/>
      <use xlink:href="#DejaVuSans-6f" x="451.990234"/>
     </g>
    </g>
    <g id="line2d_40">
     <path d="M 59.87 98.690938 
L 69.87 98.690938 
L 79.87 98.690938 
" style="fill: none; stroke: #9467bd; stroke-width: 1.5; stroke-linecap: square"/>
     <g>
      <use xlink:href="#m74b0a965de" x="69.87" y="98.690938" style="fill: #9467bd; stroke: #9467bd"/>
     </g>
    </g>
    <g id="text_20">
     <!-- Christian Gr -->
     <g transform="translate(87.87 102.190938) scale(0.1 -0.1)">
      <defs>
       <path id="DejaVuSans-43" d="M 4122 4306 
L 4122 3641 
Q 3803 3938 3442 4084 
Q 3081 4231 2675 4231 
Q 1875 4231 1450 3742 
Q 1025 3253 1025 2328 
Q 1025 1406 1450 917 
Q 1875 428 2675 428 
Q 3081 428 3442 575 
Q 3803 722 4122 1019 
L 4122 359 
Q 3791 134 3420 21 
Q 3050 -91 2638 -91 
Q 1578 -91 968 557 
Q 359 1206 359 2328 
Q 359 3453 968 4101 
Q 1578 4750 2638 4750 
Q 3056 4750 3426 4639 
Q 3797 4528 4122 4306 
z
" transform="scale(0.015625)"/>
       <path id="DejaVuSans-47" d="M 3809 666 
L 3809 1919 
L 2778 1919 
L 2778 2438 
L 4434 2438 
L 4434 434 
Q 4069 175 3628 42 
Q 3188 -91 2688 -91 
Q 1594 -91 976 548 
Q 359 1188 359 2328 
Q 359 3472 976 4111 
Q 1594 4750 2688 4750 
Q 3144 4750 3555 4637 
Q 3966 4525 4313 4306 
L 4313 3634 
Q 3963 3931 3569 4081 
Q 3175 4231 2741 4231 
Q 1884 4231 1454 3753 
Q 1025 3275 1025 2328 
Q 1025 1384 1454 906 
Q 1884 428 2741 428 
Q 3075 428 3337 486 
Q 3600 544 3809 666 
z
" transform="scale(0.015625)"/>
      </defs>
      <use xlink:href="#DejaVuSans-43"/>
      <use xlink:href="#DejaVuSans-68" x="69.824219"/>
      <use xlink:href="#DejaVuSans-72" x="133.203125"/>
      <use xlink:href="#DejaVuSans-69" x="174.316406"/>
      <use xlink:href="#DejaVuSans-73" x="202.099609"/>
      <use xlink:href="#DejaVuSans-74" x="254.199219"/>
      <use xlink:href="#DejaVuSans-69" x="293.408203"/>
      <use xlink:href="#DejaVuSans-61" x="321.191406"/>
      <use xlink:href="#DejaVuSans-6e" x="382.470703"/>
      <use xlink:href="#DejaVuSans-20" x="445.849609"/>
      <use xlink:href="#DejaVuSans-47" x="477.636719"/>
      <use xlink:href="#DejaVuSans-72" x="555.126953"/>
     </g>
    </g>
    <g id="line2d_41">
     <path d="M 59.87 113.369062 
L 69.87 113.369062 
L 79.87 113.369062 
" style="fill: none; stroke: #8c564b; stroke-width: 1.5; stroke-linecap: square"/>
     <g>
      <use xlink:href="#m1f9472435f" x="69.87" y="113.369062" style="fill: #8c564b; stroke: #8c564b"/>
     </g>
    </g>
    <g id="text_21">
     <!-- RIKKE GR -->
     <g transform="translate(87.87 116.869062) scale(0.1 -0.1)">
      <defs>
       <path id="DejaVuSans-52" d="M 2841 2188 
Q 3044 2119 3236 1894 
Q 3428 1669 3622 1275 
L 4263 0 
L 3584 0 
L 2988 1197 
Q 2756 1666 2539 1819 
Q 2322 1972 1947 1972 
L 1259 1972 
L 1259 0 
L 628 0 
L 628 4666 
L 2053 4666 
Q 2853 4666 3247 4331 
Q 3641 3997 3641 3322 
Q 3641 2881 3436 2590 
Q 3231 2300 2841 2188 
z
M 1259 4147 
L 1259 2491 
L 2053 2491 
Q 2509 2491 2742 2702 
Q 2975 2913 2975 3322 
Q 2975 3731 2742 3939 
Q 2509 4147 2053 4147 
L 1259 4147 
z
" transform="scale(0.015625)"/>
       <path id="DejaVuSans-49" d="M 628 4666 
L 1259 4666 
L 1259 0 
L 628 0 
L 628 4666 
z
" transform="scale(0.015625)"/>
       <path id="DejaVuSans-4b" d="M 628 4666 
L 1259 4666 
L 1259 2694 
L 3353 4666 
L 4166 4666 
L 1850 2491 
L 4331 0 
L 3500 0 
L 1259 2247 
L 1259 0 
L 628 0 
L 628 4666 
z
" transform="scale(0.015625)"/>
       <path id="DejaVuSans-45" d="M 628 4666 
L 3578 4666 
L 3578 4134 
L 1259 4134 
L 1259 2753 
L 3481 2753 
L 3481 2222 
L 1259 2222 
L 1259 531 
L 3634 531 
L 3634 0 
L 628 0 
L 628 4666 
z
" transform="scale(0.015625)"/>
      </defs>
      <use xlink:href="#DejaVuSans-52"/>
      <use xlink:href="#DejaVuSans-49" x="69.482422"/>
      <use xlink:href="#DejaVuSans-4b" x="98.974609"/>
      <use xlink:href="#DejaVuSans-4b" x="164.550781"/>
      <use xlink:href="#DejaVuSans-45" x="230.126953"/>
      <use xlink:href="#DejaVuSans-20" x="293.310547"/>
      <use xlink:href="#DejaVuSans-47" x="325.097656"/>
      <use xlink:href="#DejaVuSans-52" x="402.587891"/>
     </g>
    </g>
    <g id="line2d_42">
     <path d="M 59.87 128.047187 
L 69.87 128.047187 
L 79.87 128.047187 
" style="fill: none; stroke: #e377c2; stroke-width: 1.5; stroke-linecap: square"/>
     <g>
      <use xlink:href="#m2e87e18b26" x="69.87" y="128.047187" style="fill: #e377c2; stroke: #e377c2"/>
     </g>
    </g>
    <g id="text_22">
     <!-- lea bo -->
     <g transform="translate(87.87 131.547187) scale(0.1 -0.1)">
      <defs>
       <path id="DejaVuSans-6c" d="M 603 4863 
L 1178 4863 
L 1178 0 
L 603 0 
L 603 4863 
z
" transform="scale(0.015625)"/>
      </defs>
      <use xlink:href="#DejaVuSans-6c"/>
      <use xlink:href="#DejaVuSans-65" x="27.783203"/>
      <use xlink:href="#DejaVuSans-61" x="89.306641"/>
      <use xlink:href="#DejaVuSans-20" x="150.585938"/>
      <use xlink:href="#DejaVuSans-62" x="182.373047"/>
      <use xlink:href="#DejaVuSans-6f" x="245.849609"/>
     </g>
    </g>
    <g id="line2d_43">
     <path d="M 59.87 142.725312 
L 69.87 142.725312 
L 79.87 142.725312 
" style="fill: none; stroke: #7f7f7f; stroke-width: 1.5; stroke-linecap: square"/>
     <g>
      <use xlink:href="#mf08b627981" x="69.87" y="142.725312" style="fill: #7f7f7f; stroke: #7f7f7f"/>
     </g>
    </g>
    <g id="text_23">
     <!-- Andreas Ku -->
     <g transform="translate(87.87 146.225312) scale(0.1 -0.1)">
      <defs>
       <path id="DejaVuSans-41" d="M 2188 4044 
L 1331 1722 
L 3047 1722 
L 2188 4044 
z
M 1831 4666 
L 2547 4666 
L 4325 0 
L 3669 0 
L 3244 1197 
L 1141 1197 
L 716 0 
L 50 0 
L 1831 4666 
z
" transform="scale(0.015625)"/>
       <path id="DejaVuSans-75" d="M 544 1381 
L 544 3500 
L 1119 3500 
L 1119 1403 
Q 1119 906 1312 657 
Q 1506 409 1894 409 
Q 2359 409 2629 706 
Q 2900 1003 2900 1516 
L 2900 3500 
L 3475 3500 
L 3475 0 
L 2900 0 
L 2900 538 
Q 2691 219 2414 64 
Q 2138 -91 1772 -91 
Q 1169 -91 856 284 
Q 544 659 544 1381 
z
M 1991 3584 
L 1991 3584 
z
" transform="scale(0.015625)"/>
      </defs>
      <use xlink:href="#DejaVuSans-41"/>
      <use xlink:href="#DejaVuSans-6e" x="68.408203"/>
      <use xlink:href="#DejaVuSans-64" x="131.787109"/>
      <use xlink:href="#DejaVuSans-72" x="195.263672"/>
      <use xlink:href="#DejaVuSans-65" x="234.126953"/>
      <use xlink:href="#DejaVuSans-61" x="295.650391"/>
      <use xlink:href="#DejaVuSans-73" x="356.929688"/>
      <use xlink:href="#DejaVuSans-20" x="409.029297"/>
      <use xlink:href="#DejaVuSans-4b" x="440.816406"/>
      <use xlink:href="#DejaVuSans-75" x="501.392578"/>
     </g>
    </g>
    <g id="line2d_44">
     <path d="M 59.87 157.403437 
L 69.87 157.403437 
L 79.87 157.403437 
" style="fill: none; stroke: #bcbd22; stroke-width: 1.5; stroke-linecap: square"/>
     <g>
      <use xlink:href="#m390ccb9b9e" x="69.87" y="157.403437" style="fill: #bcbd22; stroke: #bcbd22"/>
     </g>
    </g>
    <g id="text_24">
     <!-- Salty Gu -->
     <g transform="translate(87.87 160.903437) scale(0.1 -0.1)">
      <defs>
       <path id="DejaVuSans-79" d="M 2059 -325 
Q 1816 -950 1584 -1140 
Q 1353 -1331 966 -1331 
L 506 -1331 
L 506 -850 
L 844 -850 
Q 1081 -850 1212 -737 
Q 1344 -625 1503 -206 
L 1606 56 
L 191 3500 
L 800 3500 
L 1894 763 
L 2988 3500 
L 3597 3500 
L 2059 -325 
z
" transform="scale(0.015625)"/>
      </defs>
      <use xlink:href="#DejaVuSans-53"/>
      <use xlink:href="#DejaVuSans-61" x="63.476562"/>
      <use xlink:href="#DejaVuSans-6c" x="124.755859"/>
      <use xlink:href="#DejaVuSans-74" x="152.539062"/>
      <use xlink:href="#DejaVuSans-79" x="191.748047"/>
      <use xlink:href="#DejaVuSans-20" x="250.927734"/>
      <use xlink:href="#DejaVuSans-47" x="282.714844"/>
      <use xlink:href="#DejaVuSans-75" x="360.205078"/>
     </g>
    </g>
   </g>
  </g>
 </g>
 <defs>
  <clipPath id="p51a47a5d29">
   <rect x="50.87" y="26.88" width="802.33" height="377.24"/>
  </clipPath>
 </defs>
</svg>
