<?xml version="1.0" encoding="utf-8" standalone="no"?>
<!DOCTYPE svg PUBLIC "-//W3C//DTD SVG 1.1//EN"
  "http://www.w3.org/Graphics/SVG/1.1/DTD/svg11.dtd">
<svg xmlns:xlink="http://www.w3.org/1999/xlink" width="864pt" height="432pt" viewBox="0 0 864 432" xmlns="http://www.w3.org/2000/svg" version="1.1">
 <metadata>
  <rdf:RDF xmlns:dc="http://purl.org/dc/elements/1.1/" xmlns:cc="http://creativecommons.org/ns#" xmlns:rdf="http://www.w3.org/1999/02/22-rdf-syntax-ns#">
   <cc:Work>
    <dc:type rdf:resource="http://purl.org/dc/dcmitype/StillImage"/>
    <dc:date>2024-08-23T09:29:18.751943</dc:date>
    <dc:format>image/svg+xml</dc:format>
    <dc:creator>
     <cc:Agent>
      <dc:title>Matplotlib v3.9.2, https://matplotlib.org/</dc:title>
     </cc:Agent>
    </dc:creator>
   </cc:Work>
  </rdf:RDF>
 </metadata>
 <defs>
  <style type="text/css">*{stroke-linejoin: round; stroke-linecap: butt}</style>
 </defs>
 <g id="figure_1">
  <g id="patch_1">
   <path d="M 0 432 
L 864 432 
L 864 0 
L 0 0 
z
" style="fill: #ffffff"/>
  </g>
  <g id="axes_1">
   <g id="patch_2">
    <path d="M 50.87 404.12 
L 853.2 404.12 
L 853.2 26.88 
L 50.87 26.88 
z
" style="fill: #ffffff"/>
   </g>
   <g id="matplotlib.axis_1">
    <g id="xtick_1">
     <g id="line2d_1">
      <path d="M 97.759416 404.12 
L 97.759416 26.88 
" clip-path="url(#p9ae0678881)" style="fill: none; stroke-dasharray: 2.96,1.28; stroke-dashoffset: 0; stroke: #b0b0b0; stroke-width: 0.8"/>
     </g>
     <g id="line2d_2">
      <defs>
       <path id="m4b4ee45308" d="M 0 0 
L 0 3.5 
" style="stroke: #000000; stroke-width: 0.8"/>
      </defs>
      <g>
       <use xlink:href="#m4b4ee45308" x="97.759416" y="404.12" style="stroke: #000000; stroke-width: 0.8"/>
      </g>
     </g>
     <g id="text_1">
      <!-- 2024-06-15 -->
      <g transform="translate(68.701603 418.718437) scale(0.1 -0.1)">
       <defs>
        <path id="DejaVuSans-32" d="M 1228 531 
L 3431 531 
L 3431 0 
L 469 0 
L 469 531 
Q 828 903 1448 1529 
Q 2069 2156 2228 2338 
Q 2531 2678 2651 2914 
Q 2772 3150 2772 3378 
Q 2772 3750 2511 3984 
Q 2250 4219 1831 4219 
Q 1534 4219 1204 4116 
Q 875 4013 500 3803 
L 500 4441 
Q 881 4594 1212 4672 
Q 1544 4750 1819 4750 
Q 2544 4750 2975 4387 
Q 3406 4025 3406 3419 
Q 3406 3131 3298 2873 
Q 3191 2616 2906 2266 
Q 2828 2175 2409 1742 
Q 1991 1309 1228 531 
z
" transform="scale(0.015625)"/>
        <path id="DejaVuSans-30" d="M 2034 4250 
Q 1547 4250 1301 3770 
Q 1056 3291 1056 2328 
Q 1056 1369 1301 889 
Q 1547 409 2034 409 
Q 2525 409 2770 889 
Q 3016 1369 3016 2328 
Q 3016 3291 2770 3770 
Q 2525 4250 2034 4250 
z
M 2034 4750 
Q 2819 4750 3233 4129 
Q 3647 3509 3647 2328 
Q 3647 1150 3233 529 
Q 2819 -91 2034 -91 
Q 1250 -91 836 529 
Q 422 1150 422 2328 
Q 422 3509 836 4129 
Q 1250 4750 2034 4750 
z
" transform="scale(0.015625)"/>
        <path id="DejaVuSans-34" d="M 2419 4116 
L 825 1625 
L 2419 1625 
L 2419 4116 
z
M 2253 4666 
L 3047 4666 
L 3047 1625 
L 3713 1625 
L 3713 1100 
L 3047 1100 
L 3047 0 
L 2419 0 
L 2419 1100 
L 313 1100 
L 313 1709 
L 2253 4666 
z
" transform="scale(0.015625)"/>
        <path id="DejaVuSans-2d" d="M 313 2009 
L 1997 2009 
L 1997 1497 
L 313 1497 
L 313 2009 
z
" transform="scale(0.015625)"/>
        <path id="DejaVuSans-36" d="M 2113 2584 
Q 1688 2584 1439 2293 
Q 1191 2003 1191 1497 
Q 1191 994 1439 701 
Q 1688 409 2113 409 
Q 2538 409 2786 701 
Q 3034 994 3034 1497 
Q 3034 2003 2786 2293 
Q 2538 2584 2113 2584 
z
M 3366 4563 
L 3366 3988 
Q 3128 4100 2886 4159 
Q 2644 4219 2406 4219 
Q 1781 4219 1451 3797 
Q 1122 3375 1075 2522 
Q 1259 2794 1537 2939 
Q 1816 3084 2150 3084 
Q 2853 3084 3261 2657 
Q 3669 2231 3669 1497 
Q 3669 778 3244 343 
Q 2819 -91 2113 -91 
Q 1303 -91 875 529 
Q 447 1150 447 2328 
Q 447 3434 972 4092 
Q 1497 4750 2381 4750 
Q 2619 4750 2861 4703 
Q 3103 4656 3366 4563 
z
" transform="scale(0.015625)"/>
        <path id="DejaVuSans-31" d="M 794 531 
L 1825 531 
L 1825 4091 
L 703 3866 
L 703 4441 
L 1819 4666 
L 2450 4666 
L 2450 531 
L 3481 531 
L 3481 0 
L 794 0 
L 794 531 
z
" transform="scale(0.015625)"/>
        <path id="DejaVuSans-35" d="M 691 4666 
L 3169 4666 
L 3169 4134 
L 1269 4134 
L 1269 2991 
Q 1406 3038 1543 3061 
Q 1681 3084 1819 3084 
Q 2600 3084 3056 2656 
Q 3513 2228 3513 1497 
Q 3513 744 3044 326 
Q 2575 -91 1722 -91 
Q 1428 -91 1123 -41 
Q 819 9 494 109 
L 494 744 
Q 775 591 1075 516 
Q 1375 441 1709 441 
Q 2250 441 2565 725 
Q 2881 1009 2881 1497 
Q 2881 1984 2565 2268 
Q 2250 2553 1709 2553 
Q 1456 2553 1204 2497 
Q 953 2441 691 2322 
L 691 4666 
z
" transform="scale(0.015625)"/>
       </defs>
       <use xlink:href="#DejaVuSans-32"/>
       <use xlink:href="#DejaVuSans-30" x="63.623047"/>
       <use xlink:href="#DejaVuSans-32" x="127.246094"/>
       <use xlink:href="#DejaVuSans-34" x="190.869141"/>
       <use xlink:href="#DejaVuSans-2d" x="254.492188"/>
       <use xlink:href="#DejaVuSans-30" x="290.576172"/>
       <use xlink:href="#DejaVuSans-36" x="354.199219"/>
       <use xlink:href="#DejaVuSans-2d" x="417.822266"/>
       <use xlink:href="#DejaVuSans-31" x="453.90625"/>
       <use xlink:href="#DejaVuSans-35" x="517.529297"/>
      </g>
     </g>
    </g>
    <g id="xtick_2">
     <g id="line2d_3">
      <path d="M 264.477338 404.12 
L 264.477338 26.88 
" clip-path="url(#p9ae0678881)" style="fill: none; stroke-dasharray: 2.96,1.28; stroke-dashoffset: 0; stroke: #b0b0b0; stroke-width: 0.8"/>
     </g>
     <g id="line2d_4">
      <g>
       <use xlink:href="#m4b4ee45308" x="264.477338" y="404.12" style="stroke: #000000; stroke-width: 0.8"/>
      </g>
     </g>
     <g id="text_2">
      <!-- 2024-07-01 -->
      <g transform="translate(235.419525 418.718437) scale(0.1 -0.1)">
       <defs>
        <path id="DejaVuSans-37" d="M 525 4666 
L 3525 4666 
L 3525 4397 
L 1831 0 
L 1172 0 
L 2766 4134 
L 525 4134 
L 525 4666 
z
" transform="scale(0.015625)"/>
       </defs>
       <use xlink:href="#DejaVuSans-32"/>
       <use xlink:href="#DejaVuSans-30" x="63.623047"/>
       <use xlink:href="#DejaVuSans-32" x="127.246094"/>
       <use xlink:href="#DejaVuSans-34" x="190.869141"/>
       <use xlink:href="#DejaVuSans-2d" x="254.492188"/>
       <use xlink:href="#DejaVuSans-30" x="290.576172"/>
       <use xlink:href="#DejaVuSans-37" x="354.199219"/>
       <use xlink:href="#DejaVuSans-2d" x="417.822266"/>
       <use xlink:href="#DejaVuSans-30" x="453.90625"/>
       <use xlink:href="#DejaVuSans-31" x="517.529297"/>
      </g>
     </g>
    </g>
    <g id="xtick_3">
     <g id="line2d_5">
      <path d="M 410.355519 404.12 
L 410.355519 26.88 
" clip-path="url(#p9ae0678881)" style="fill: none; stroke-dasharray: 2.96,1.28; stroke-dashoffset: 0; stroke: #b0b0b0; stroke-width: 0.8"/>
     </g>
     <g id="line2d_6">
      <g>
       <use xlink:href="#m4b4ee45308" x="410.355519" y="404.12" style="stroke: #000000; stroke-width: 0.8"/>
      </g>
     </g>
     <g id="text_3">
      <!-- 2024-07-15 -->
      <g transform="translate(381.297707 418.718437) scale(0.1 -0.1)">
       <use xlink:href="#DejaVuSans-32"/>
       <use xlink:href="#DejaVuSans-30" x="63.623047"/>
       <use xlink:href="#DejaVuSans-32" x="127.246094"/>
       <use xlink:href="#DejaVuSans-34" x="190.869141"/>
       <use xlink:href="#DejaVuSans-2d" x="254.492188"/>
       <use xlink:href="#DejaVuSans-30" x="290.576172"/>
       <use xlink:href="#DejaVuSans-37" x="354.199219"/>
       <use xlink:href="#DejaVuSans-2d" x="417.822266"/>
       <use xlink:href="#DejaVuSans-31" x="453.90625"/>
       <use xlink:href="#DejaVuSans-35" x="517.529297"/>
      </g>
     </g>
    </g>
    <g id="xtick_4">
     <g id="line2d_7">
      <path d="M 587.493312 404.12 
L 587.493312 26.88 
" clip-path="url(#p9ae0678881)" style="fill: none; stroke-dasharray: 2.96,1.28; stroke-dashoffset: 0; stroke: #b0b0b0; stroke-width: 0.8"/>
     </g>
     <g id="line2d_8">
      <g>
       <use xlink:href="#m4b4ee45308" x="587.493312" y="404.12" style="stroke: #000000; stroke-width: 0.8"/>
      </g>
     </g>
     <g id="text_4">
      <!-- 2024-08-01 -->
      <g transform="translate(558.435499 418.718437) scale(0.1 -0.1)">
       <defs>
        <path id="DejaVuSans-38" d="M 2034 2216 
Q 1584 2216 1326 1975 
Q 1069 1734 1069 1313 
Q 1069 891 1326 650 
Q 1584 409 2034 409 
Q 2484 409 2743 651 
Q 3003 894 3003 1313 
Q 3003 1734 2745 1975 
Q 2488 2216 2034 2216 
z
M 1403 2484 
Q 997 2584 770 2862 
Q 544 3141 544 3541 
Q 544 4100 942 4425 
Q 1341 4750 2034 4750 
Q 2731 4750 3128 4425 
Q 3525 4100 3525 3541 
Q 3525 3141 3298 2862 
Q 3072 2584 2669 2484 
Q 3125 2378 3379 2068 
Q 3634 1759 3634 1313 
Q 3634 634 3220 271 
Q 2806 -91 2034 -91 
Q 1263 -91 848 271 
Q 434 634 434 1313 
Q 434 1759 690 2068 
Q 947 2378 1403 2484 
z
M 1172 3481 
Q 1172 3119 1398 2916 
Q 1625 2713 2034 2713 
Q 2441 2713 2670 2916 
Q 2900 3119 2900 3481 
Q 2900 3844 2670 4047 
Q 2441 4250 2034 4250 
Q 1625 4250 1398 4047 
Q 1172 3844 1172 3481 
z
" transform="scale(0.015625)"/>
       </defs>
       <use xlink:href="#DejaVuSans-32"/>
       <use xlink:href="#DejaVuSans-30" x="63.623047"/>
       <use xlink:href="#DejaVuSans-32" x="127.246094"/>
       <use xlink:href="#DejaVuSans-34" x="190.869141"/>
       <use xlink:href="#DejaVuSans-2d" x="254.492188"/>
       <use xlink:href="#DejaVuSans-30" x="290.576172"/>
       <use xlink:href="#DejaVuSans-38" x="354.199219"/>
       <use xlink:href="#DejaVuSans-2d" x="417.822266"/>
       <use xlink:href="#DejaVuSans-30" x="453.90625"/>
       <use xlink:href="#DejaVuSans-31" x="517.529297"/>
      </g>
     </g>
    </g>
    <g id="xtick_5">
     <g id="line2d_9">
      <path d="M 733.371494 404.12 
L 733.371494 26.88 
" clip-path="url(#p9ae0678881)" style="fill: none; stroke-dasharray: 2.96,1.28; stroke-dashoffset: 0; stroke: #b0b0b0; stroke-width: 0.8"/>
     </g>
     <g id="line2d_10">
      <g>
       <use xlink:href="#m4b4ee45308" x="733.371494" y="404.12" style="stroke: #000000; stroke-width: 0.8"/>
      </g>
     </g>
     <g id="text_5">
      <!-- 2024-08-15 -->
      <g transform="translate(704.313681 418.718437) scale(0.1 -0.1)">
       <use xlink:href="#DejaVuSans-32"/>
       <use xlink:href="#DejaVuSans-30" x="63.623047"/>
       <use xlink:href="#DejaVuSans-32" x="127.246094"/>
       <use xlink:href="#DejaVuSans-34" x="190.869141"/>
       <use xlink:href="#DejaVuSans-2d" x="254.492188"/>
       <use xlink:href="#DejaVuSans-30" x="290.576172"/>
       <use xlink:href="#DejaVuSans-38" x="354.199219"/>
       <use xlink:href="#DejaVuSans-2d" x="417.822266"/>
       <use xlink:href="#DejaVuSans-31" x="453.90625"/>
       <use xlink:href="#DejaVuSans-35" x="517.529297"/>
      </g>
     </g>
    </g>
   </g>
   <g id="matplotlib.axis_2">
    <g id="ytick_1">
     <g id="line2d_11">
      <path d="M 50.87 393.429938 
L 853.2 393.429938 
" clip-path="url(#p9ae0678881)" style="fill: none; stroke-dasharray: 2.96,1.28; stroke-dashoffset: 0; stroke: #b0b0b0; stroke-width: 0.8"/>
     </g>
     <g id="line2d_12">
      <defs>
       <path id="mf54986ee2d" d="M 0 0 
L -3.5 0 
" style="stroke: #000000; stroke-width: 0.8"/>
      </defs>
      <g>
       <use xlink:href="#mf54986ee2d" x="50.87" y="393.429938" style="stroke: #000000; stroke-width: 0.8"/>
      </g>
     </g>
     <g id="text_6">
      <!-- 0 -->
      <g transform="translate(37.5075 397.229156) scale(0.1 -0.1)">
       <use xlink:href="#DejaVuSans-30"/>
      </g>
     </g>
    </g>
    <g id="ytick_2">
     <g id="line2d_13">
      <path d="M 50.87 330.110375 
L 853.2 330.110375 
" clip-path="url(#p9ae0678881)" style="fill: none; stroke-dasharray: 2.96,1.28; stroke-dashoffset: 0; stroke: #b0b0b0; stroke-width: 0.8"/>
     </g>
     <g id="line2d_14">
      <g>
       <use xlink:href="#mf54986ee2d" x="50.87" y="330.110375" style="stroke: #000000; stroke-width: 0.8"/>
      </g>
     </g>
     <g id="text_7">
      <!-- 50 -->
      <g transform="translate(31.145 333.909594) scale(0.1 -0.1)">
       <use xlink:href="#DejaVuSans-35"/>
       <use xlink:href="#DejaVuSans-30" x="63.623047"/>
      </g>
     </g>
    </g>
    <g id="ytick_3">
     <g id="line2d_15">
      <path d="M 50.87 266.790813 
L 853.2 266.790813 
" clip-path="url(#p9ae0678881)" style="fill: none; stroke-dasharray: 2.96,1.28; stroke-dashoffset: 0; stroke: #b0b0b0; stroke-width: 0.8"/>
     </g>
     <g id="line2d_16">
      <g>
       <use xlink:href="#mf54986ee2d" x="50.87" y="266.790813" style="stroke: #000000; stroke-width: 0.8"/>
      </g>
     </g>
     <g id="text_8">
      <!-- 100 -->
      <g transform="translate(24.7825 270.590032) scale(0.1 -0.1)">
       <use xlink:href="#DejaVuSans-31"/>
       <use xlink:href="#DejaVuSans-30" x="63.623047"/>
       <use xlink:href="#DejaVuSans-30" x="127.246094"/>
      </g>
     </g>
    </g>
    <g id="ytick_4">
     <g id="line2d_17">
      <path d="M 50.87 203.471251 
L 853.2 203.471251 
" clip-path="url(#p9ae0678881)" style="fill: none; stroke-dasharray: 2.96,1.28; stroke-dashoffset: 0; stroke: #b0b0b0; stroke-width: 0.8"/>
     </g>
     <g id="line2d_18">
      <g>
       <use xlink:href="#mf54986ee2d" x="50.87" y="203.471251" style="stroke: #000000; stroke-width: 0.8"/>
      </g>
     </g>
     <g id="text_9">
      <!-- 150 -->
      <g transform="translate(24.7825 207.27047) scale(0.1 -0.1)">
       <use xlink:href="#DejaVuSans-31"/>
       <use xlink:href="#DejaVuSans-35" x="63.623047"/>
       <use xlink:href="#DejaVuSans-30" x="127.246094"/>
      </g>
     </g>
    </g>
    <g id="ytick_5">
     <g id="line2d_19">
      <path d="M 50.87 140.151689 
L 853.2 140.151689 
" clip-path="url(#p9ae0678881)" style="fill: none; stroke-dasharray: 2.96,1.28; stroke-dashoffset: 0; stroke: #b0b0b0; stroke-width: 0.8"/>
     </g>
     <g id="line2d_20">
      <g>
       <use xlink:href="#mf54986ee2d" x="50.87" y="140.151689" style="stroke: #000000; stroke-width: 0.8"/>
      </g>
     </g>
     <g id="text_10">
      <!-- 200 -->
      <g transform="translate(24.7825 143.950908) scale(0.1 -0.1)">
       <use xlink:href="#DejaVuSans-32"/>
       <use xlink:href="#DejaVuSans-30" x="63.623047"/>
       <use xlink:href="#DejaVuSans-30" x="127.246094"/>
      </g>
     </g>
    </g>
    <g id="ytick_6">
     <g id="line2d_21">
      <path d="M 50.87 76.832127 
L 853.2 76.832127 
" clip-path="url(#p9ae0678881)" style="fill: none; stroke-dasharray: 2.96,1.28; stroke-dashoffset: 0; stroke: #b0b0b0; stroke-width: 0.8"/>
     </g>
     <g id="line2d_22">
      <g>
       <use xlink:href="#mf54986ee2d" x="50.87" y="76.832127" style="stroke: #000000; stroke-width: 0.8"/>
      </g>
     </g>
     <g id="text_11">
      <!-- 250 -->
      <g transform="translate(24.7825 80.631345) scale(0.1 -0.1)">
       <use xlink:href="#DejaVuSans-32"/>
       <use xlink:href="#DejaVuSans-35" x="63.623047"/>
       <use xlink:href="#DejaVuSans-30" x="127.246094"/>
      </g>
     </g>
    </g>
    <g id="text_12">
     <!-- Score -->
     <g transform="translate(18.702813 229.502344) rotate(-90) scale(0.1 -0.1)">
      <defs>
       <path id="DejaVuSans-53" d="M 3425 4513 
L 3425 3897 
Q 3066 4069 2747 4153 
Q 2428 4238 2131 4238 
Q 1616 4238 1336 4038 
Q 1056 3838 1056 3469 
Q 1056 3159 1242 3001 
Q 1428 2844 1947 2747 
L 2328 2669 
Q 3034 2534 3370 2195 
Q 3706 1856 3706 1288 
Q 3706 609 3251 259 
Q 2797 -91 1919 -91 
Q 1588 -91 1214 -16 
Q 841 59 441 206 
L 441 856 
Q 825 641 1194 531 
Q 1563 422 1919 422 
Q 2459 422 2753 634 
Q 3047 847 3047 1241 
Q 3047 1584 2836 1778 
Q 2625 1972 2144 2069 
L 1759 2144 
Q 1053 2284 737 2584 
Q 422 2884 422 3419 
Q 422 4038 858 4394 
Q 1294 4750 2059 4750 
Q 2388 4750 2728 4690 
Q 3069 4631 3425 4513 
z
" transform="scale(0.015625)"/>
       <path id="DejaVuSans-63" d="M 3122 3366 
L 3122 2828 
Q 2878 2963 2633 3030 
Q 2388 3097 2138 3097 
Q 1578 3097 1268 2742 
Q 959 2388 959 1747 
Q 959 1106 1268 751 
Q 1578 397 2138 397 
Q 2388 397 2633 464 
Q 2878 531 3122 666 
L 3122 134 
Q 2881 22 2623 -34 
Q 2366 -91 2075 -91 
Q 1284 -91 818 406 
Q 353 903 353 1747 
Q 353 2603 823 3093 
Q 1294 3584 2113 3584 
Q 2378 3584 2631 3529 
Q 2884 3475 3122 3366 
z
" transform="scale(0.015625)"/>
       <path id="DejaVuSans-6f" d="M 1959 3097 
Q 1497 3097 1228 2736 
Q 959 2375 959 1747 
Q 959 1119 1226 758 
Q 1494 397 1959 397 
Q 2419 397 2687 759 
Q 2956 1122 2956 1747 
Q 2956 2369 2687 2733 
Q 2419 3097 1959 3097 
z
M 1959 3584 
Q 2709 3584 3137 3096 
Q 3566 2609 3566 1747 
Q 3566 888 3137 398 
Q 2709 -91 1959 -91 
Q 1206 -91 779 398 
Q 353 888 353 1747 
Q 353 2609 779 3096 
Q 1206 3584 1959 3584 
z
" transform="scale(0.015625)"/>
       <path id="DejaVuSans-72" d="M 2631 2963 
Q 2534 3019 2420 3045 
Q 2306 3072 2169 3072 
Q 1681 3072 1420 2755 
Q 1159 2438 1159 1844 
L 1159 0 
L 581 0 
L 581 3500 
L 1159 3500 
L 1159 2956 
Q 1341 3275 1631 3429 
Q 1922 3584 2338 3584 
Q 2397 3584 2469 3576 
Q 2541 3569 2628 3553 
L 2631 2963 
z
" transform="scale(0.015625)"/>
       <path id="DejaVuSans-65" d="M 3597 1894 
L 3597 1613 
L 953 1613 
Q 991 1019 1311 708 
Q 1631 397 2203 397 
Q 2534 397 2845 478 
Q 3156 559 3463 722 
L 3463 178 
Q 3153 47 2828 -22 
Q 2503 -91 2169 -91 
Q 1331 -91 842 396 
Q 353 884 353 1716 
Q 353 2575 817 3079 
Q 1281 3584 2069 3584 
Q 2775 3584 3186 3129 
Q 3597 2675 3597 1894 
z
M 3022 2063 
Q 3016 2534 2758 2815 
Q 2500 3097 2075 3097 
Q 1594 3097 1305 2825 
Q 1016 2553 972 2059 
L 3022 2063 
z
" transform="scale(0.015625)"/>
      </defs>
      <use xlink:href="#DejaVuSans-53"/>
      <use xlink:href="#DejaVuSans-63" x="63.476562"/>
      <use xlink:href="#DejaVuSans-6f" x="118.457031"/>
      <use xlink:href="#DejaVuSans-72" x="179.638672"/>
      <use xlink:href="#DejaVuSans-65" x="218.501953"/>
     </g>
    </g>
   </g>
   <g id="line2d_23">
    <path d="M 87.339545 380.682617 
L 97.759416 359.153966 
L 108.179286 321.162228 
L 118.599156 312.29749 
L 129.019026 293.301621 
L 139.438896 274.305752 
L 149.858766 246.445145 
L 160.278636 235.047624 
L 170.698506 203.387843 
L 181.118377 191.990321 
L 191.538247 157.797758 
L 201.958117 137.535498 
L 212.377987 78.015109 
L 243.637597 78.015109 
L 254.057468 78.015109 
L 264.477338 78.015109 
L 274.897208 78.015109 
L 285.317078 78.015109 
L 306.156818 78.015109 
L 316.576688 78.015109 
L 326.996558 78.015109 
L 337.416429 78.015109 
L 347.836299 78.015109 
L 358.256169 59.019241 
L 368.676039 59.019241 
L 379.095909 59.019241 
L 389.515779 59.019241 
L 399.935649 59.019241 
L 410.355519 46.355328 
L 420.77539 46.355328 
L 431.19526 46.355328 
L 441.61513 46.355328 
L 452.035 46.355328 
L 462.45487 46.355328 
L 472.87474 46.355328 
L 483.29461 46.355328 
L 493.714481 46.355328 
L 504.134351 46.355328 
L 514.554221 46.355328 
L 524.974091 46.355328 
L 535.393961 46.355328 
L 545.813831 46.355328 
L 556.233701 46.355328 
L 566.653571 46.355328 
L 577.073442 46.355328 
L 587.493312 46.355328 
L 597.913182 46.355328 
L 608.333052 46.355328 
L 618.752922 46.355328 
L 629.172792 46.355328 
L 639.592662 46.355328 
L 650.012532 46.355328 
L 660.432403 46.355328 
L 670.852273 46.355328 
L 681.272143 46.355328 
L 691.692013 46.355328 
L 702.111883 46.355328 
L 712.531753 46.355328 
L 722.951623 46.355328 
L 733.371494 46.355328 
L 743.791364 46.355328 
L 754.211234 46.355328 
L 764.631104 46.355328 
L 775.050974 46.355328 
L 785.470844 46.355328 
L 795.890714 46.355328 
L 806.310584 46.355328 
L 816.730455 46.355328 
" clip-path="url(#p9ae0678881)" style="fill: none; stroke: #1f77b4; stroke-width: 1.5; stroke-linecap: square"/>
    <defs>
     <path id="mebfdab6277" d="M 0 3.5 
C 0.928211 3.5 1.81853 3.131218 2.474874 2.474874 
C 3.131218 1.81853 3.5 0.928211 3.5 0 
C 3.5 -0.928211 3.131218 -1.81853 2.474874 -2.474874 
C 1.81853 -3.131218 0.928211 -3.5 0 -3.5 
C -0.928211 -3.5 -1.81853 -3.131218 -2.474874 -2.474874 
C -3.131218 -1.81853 -3.5 -0.928211 -3.5 0 
C -3.5 0.928211 -3.131218 1.81853 -2.474874 2.474874 
C -1.81853 3.131218 -0.928211 3.5 0 3.5 
z
" style="stroke: #1f77b4"/>
    </defs>
    <g clip-path="url(#p9ae0678881)">
     <use xlink:href="#mebfdab6277" x="87.339545" y="380.682617" style="fill: #1f77b4; stroke: #1f77b4"/>
     <use xlink:href="#mebfdab6277" x="97.759416" y="359.153966" style="fill: #1f77b4; stroke: #1f77b4"/>
     <use xlink:href="#mebfdab6277" x="108.179286" y="321.162228" style="fill: #1f77b4; stroke: #1f77b4"/>
     <use xlink:href="#mebfdab6277" x="118.599156" y="312.29749" style="fill: #1f77b4; stroke: #1f77b4"/>
     <use xlink:href="#mebfdab6277" x="129.019026" y="293.301621" style="fill: #1f77b4; stroke: #1f77b4"/>
     <use xlink:href="#mebfdab6277" x="139.438896" y="274.305752" style="fill: #1f77b4; stroke: #1f77b4"/>
     <use xlink:href="#mebfdab6277" x="149.858766" y="246.445145" style="fill: #1f77b4; stroke: #1f77b4"/>
     <use xlink:href="#mebfdab6277" x="160.278636" y="235.047624" style="fill: #1f77b4; stroke: #1f77b4"/>
     <use xlink:href="#mebfdab6277" x="170.698506" y="203.387843" style="fill: #1f77b4; stroke: #1f77b4"/>
     <use xlink:href="#mebfdab6277" x="181.118377" y="191.990321" style="fill: #1f77b4; stroke: #1f77b4"/>
     <use xlink:href="#mebfdab6277" x="191.538247" y="157.797758" style="fill: #1f77b4; stroke: #1f77b4"/>
     <use xlink:href="#mebfdab6277" x="201.958117" y="137.535498" style="fill: #1f77b4; stroke: #1f77b4"/>
     <use xlink:href="#mebfdab6277" x="212.377987" y="78.015109" style="fill: #1f77b4; stroke: #1f77b4"/>
     <use xlink:href="#mebfdab6277" x="243.637597" y="78.015109" style="fill: #1f77b4; stroke: #1f77b4"/>
     <use xlink:href="#mebfdab6277" x="254.057468" y="78.015109" style="fill: #1f77b4; stroke: #1f77b4"/>
     <use xlink:href="#mebfdab6277" x="264.477338" y="78.015109" style="fill: #1f77b4; stroke: #1f77b4"/>
     <use xlink:href="#mebfdab6277" x="274.897208" y="78.015109" style="fill: #1f77b4; stroke: #1f77b4"/>
     <use xlink:href="#mebfdab6277" x="285.317078" y="78.015109" style="fill: #1f77b4; stroke: #1f77b4"/>
     <use xlink:href="#mebfdab6277" x="306.156818" y="78.015109" style="fill: #1f77b4; stroke: #1f77b4"/>
     <use xlink:href="#mebfdab6277" x="316.576688" y="78.015109" style="fill: #1f77b4; stroke: #1f77b4"/>
     <use xlink:href="#mebfdab6277" x="326.996558" y="78.015109" style="fill: #1f77b4; stroke: #1f77b4"/>
     <use xlink:href="#mebfdab6277" x="337.416429" y="78.015109" style="fill: #1f77b4; stroke: #1f77b4"/>
     <use xlink:href="#mebfdab6277" x="347.836299" y="78.015109" style="fill: #1f77b4; stroke: #1f77b4"/>
     <use xlink:href="#mebfdab6277" x="358.256169" y="59.019241" style="fill: #1f77b4; stroke: #1f77b4"/>
     <use xlink:href="#mebfdab6277" x="368.676039" y="59.019241" style="fill: #1f77b4; stroke: #1f77b4"/>
     <use xlink:href="#mebfdab6277" x="379.095909" y="59.019241" style="fill: #1f77b4; stroke: #1f77b4"/>
     <use xlink:href="#mebfdab6277" x="389.515779" y="59.019241" style="fill: #1f77b4; stroke: #1f77b4"/>
     <use xlink:href="#mebfdab6277" x="399.935649" y="59.019241" style="fill: #1f77b4; stroke: #1f77b4"/>
     <use xlink:href="#mebfdab6277" x="410.355519" y="46.355328" style="fill: #1f77b4; stroke: #1f77b4"/>
     <use xlink:href="#mebfdab6277" x="420.77539" y="46.355328" style="fill: #1f77b4; stroke: #1f77b4"/>
     <use xlink:href="#mebfdab6277" x="431.19526" y="46.355328" style="fill: #1f77b4; stroke: #1f77b4"/>
     <use xlink:href="#mebfdab6277" x="441.61513" y="46.355328" style="fill: #1f77b4; stroke: #1f77b4"/>
     <use xlink:href="#mebfdab6277" x="452.035" y="46.355328" style="fill: #1f77b4; stroke: #1f77b4"/>
     <use xlink:href="#mebfdab6277" x="462.45487" y="46.355328" style="fill: #1f77b4; stroke: #1f77b4"/>
     <use xlink:href="#mebfdab6277" x="472.87474" y="46.355328" style="fill: #1f77b4; stroke: #1f77b4"/>
     <use xlink:href="#mebfdab6277" x="483.29461" y="46.355328" style="fill: #1f77b4; stroke: #1f77b4"/>
     <use xlink:href="#mebfdab6277" x="493.714481" y="46.355328" style="fill: #1f77b4; stroke: #1f77b4"/>
     <use xlink:href="#mebfdab6277" x="504.134351" y="46.355328" style="fill: #1f77b4; stroke: #1f77b4"/>
     <use xlink:href="#mebfdab6277" x="514.554221" y="46.355328" style="fill: #1f77b4; stroke: #1f77b4"/>
     <use xlink:href="#mebfdab6277" x="524.974091" y="46.355328" style="fill: #1f77b4; stroke: #1f77b4"/>
     <use xlink:href="#mebfdab6277" x="535.393961" y="46.355328" style="fill: #1f77b4; stroke: #1f77b4"/>
     <use xlink:href="#mebfdab6277" x="545.813831" y="46.355328" style="fill: #1f77b4; stroke: #1f77b4"/>
     <use xlink:href="#mebfdab6277" x="556.233701" y="46.355328" style="fill: #1f77b4; stroke: #1f77b4"/>
     <use xlink:href="#mebfdab6277" x="566.653571" y="46.355328" style="fill: #1f77b4; stroke: #1f77b4"/>
     <use xlink:href="#mebfdab6277" x="577.073442" y="46.355328" style="fill: #1f77b4; stroke: #1f77b4"/>
     <use xlink:href="#mebfdab6277" x="587.493312" y="46.355328" style="fill: #1f77b4; stroke: #1f77b4"/>
     <use xlink:href="#mebfdab6277" x="597.913182" y="46.355328" style="fill: #1f77b4; stroke: #1f77b4"/>
     <use xlink:href="#mebfdab6277" x="608.333052" y="46.355328" style="fill: #1f77b4; stroke: #1f77b4"/>
     <use xlink:href="#mebfdab6277" x="618.752922" y="46.355328" style="fill: #1f77b4; stroke: #1f77b4"/>
     <use xlink:href="#mebfdab6277" x="629.172792" y="46.355328" style="fill: #1f77b4; stroke: #1f77b4"/>
     <use xlink:href="#mebfdab6277" x="639.592662" y="46.355328" style="fill: #1f77b4; stroke: #1f77b4"/>
     <use xlink:href="#mebfdab6277" x="650.012532" y="46.355328" style="fill: #1f77b4; stroke: #1f77b4"/>
     <use xlink:href="#mebfdab6277" x="660.432403" y="46.355328" style="fill: #1f77b4; stroke: #1f77b4"/>
     <use xlink:href="#mebfdab6277" x="670.852273" y="46.355328" style="fill: #1f77b4; stroke: #1f77b4"/>
     <use xlink:href="#mebfdab6277" x="681.272143" y="46.355328" style="fill: #1f77b4; stroke: #1f77b4"/>
     <use xlink:href="#mebfdab6277" x="691.692013" y="46.355328" style="fill: #1f77b4; stroke: #1f77b4"/>
     <use xlink:href="#mebfdab6277" x="702.111883" y="46.355328" style="fill: #1f77b4; stroke: #1f77b4"/>
     <use xlink:href="#mebfdab6277" x="712.531753" y="46.355328" style="fill: #1f77b4; stroke: #1f77b4"/>
     <use xlink:href="#mebfdab6277" x="722.951623" y="46.355328" style="fill: #1f77b4; stroke: #1f77b4"/>
     <use xlink:href="#mebfdab6277" x="733.371494" y="46.355328" style="fill: #1f77b4; stroke: #1f77b4"/>
     <use xlink:href="#mebfdab6277" x="743.791364" y="46.355328" style="fill: #1f77b4; stroke: #1f77b4"/>
     <use xlink:href="#mebfdab6277" x="754.211234" y="46.355328" style="fill: #1f77b4; stroke: #1f77b4"/>
     <use xlink:href="#mebfdab6277" x="764.631104" y="46.355328" style="fill: #1f77b4; stroke: #1f77b4"/>
     <use xlink:href="#mebfdab6277" x="775.050974" y="46.355328" style="fill: #1f77b4; stroke: #1f77b4"/>
     <use xlink:href="#mebfdab6277" x="785.470844" y="46.355328" style="fill: #1f77b4; stroke: #1f77b4"/>
     <use xlink:href="#mebfdab6277" x="795.890714" y="46.355328" style="fill: #1f77b4; stroke: #1f77b4"/>
     <use xlink:href="#mebfdab6277" x="806.310584" y="46.355328" style="fill: #1f77b4; stroke: #1f77b4"/>
     <use xlink:href="#mebfdab6277" x="816.730455" y="46.355328" style="fill: #1f77b4; stroke: #1f77b4"/>
    </g>
   </g>
   <g id="line2d_24">
    <path d="M 87.339545 380.793492 
L 97.759416 359.264841 
L 108.179286 340.268972 
L 118.599156 333.937016 
L 129.019026 327.605059 
L 139.438896 303.543626 
L 149.858766 292.146105 
L 160.278636 285.814148 
L 170.698506 254.154367 
L 181.118377 216.16263 
L 191.538247 190.834805 
L 201.958117 176.904501 
L 212.377987 130.048025 
L 243.637597 130.048025 
L 254.057468 130.048025 
L 264.477338 130.048025 
L 274.897208 130.048025 
L 285.317078 130.048025 
L 306.156818 130.048025 
L 316.576688 130.048025 
L 326.996558 130.048025 
L 337.416429 130.048025 
L 347.836299 130.048025 
L 358.256169 111.052157 
L 368.676039 111.052157 
L 379.095909 111.052157 
L 389.515779 111.052157 
L 399.935649 111.052157 
L 410.355519 79.392376 
L 420.77539 79.392376 
L 431.19526 79.392376 
L 441.61513 79.392376 
L 452.035 79.392376 
L 462.45487 79.392376 
L 472.87474 79.392376 
L 483.29461 79.392376 
L 493.714481 79.392376 
L 504.134351 79.392376 
L 514.554221 79.392376 
L 524.974091 79.392376 
L 535.393961 79.392376 
L 545.813831 79.392376 
L 556.233701 79.392376 
L 566.653571 79.392376 
L 577.073442 79.392376 
L 587.493312 79.392376 
L 597.913182 79.392376 
L 608.333052 79.392376 
L 618.752922 79.392376 
L 629.172792 79.392376 
L 639.592662 79.392376 
L 650.012532 79.392376 
L 660.432403 79.392376 
L 670.852273 79.392376 
L 681.272143 79.392376 
L 691.692013 79.392376 
L 702.111883 79.392376 
L 712.531753 79.392376 
L 722.951623 79.392376 
L 733.371494 79.392376 
L 743.791364 79.392376 
L 754.211234 79.392376 
L 764.631104 79.392376 
L 775.050974 79.392376 
L 785.470844 79.392376 
L 795.890714 79.392376 
L 806.310584 79.392376 
L 816.730455 79.392376 
" clip-path="url(#p9ae0678881)" style="fill: none; stroke: #ff7f0e; stroke-width: 1.5; stroke-linecap: square"/>
    <defs>
     <path id="m1494a0260f" d="M 0 3.5 
C 0.928211 3.5 1.81853 3.131218 2.474874 2.474874 
C 3.131218 1.81853 3.5 0.928211 3.5 0 
C 3.5 -0.928211 3.131218 -1.81853 2.474874 -2.474874 
C 1.81853 -3.131218 0.928211 -3.5 0 -3.5 
C -0.928211 -3.5 -1.81853 -3.131218 -2.474874 -2.474874 
C -3.131218 -1.81853 -3.5 -0.928211 -3.5 0 
C -3.5 0.928211 -3.131218 1.81853 -2.474874 2.474874 
C -1.81853 3.131218 -0.928211 3.5 0 3.5 
z
" style="stroke: #ff7f0e"/>
    </defs>
    <g clip-path="url(#p9ae0678881)">
     <use xlink:href="#m1494a0260f" x="87.339545" y="380.793492" style="fill: #ff7f0e; stroke: #ff7f0e"/>
     <use xlink:href="#m1494a0260f" x="97.759416" y="359.264841" style="fill: #ff7f0e; stroke: #ff7f0e"/>
     <use xlink:href="#m1494a0260f" x="108.179286" y="340.268972" style="fill: #ff7f0e; stroke: #ff7f0e"/>
     <use xlink:href="#m1494a0260f" x="118.599156" y="333.937016" style="fill: #ff7f0e; stroke: #ff7f0e"/>
     <use xlink:href="#m1494a0260f" x="129.019026" y="327.605059" style="fill: #ff7f0e; stroke: #ff7f0e"/>
     <use xlink:href="#m1494a0260f" x="139.438896" y="303.543626" style="fill: #ff7f0e; stroke: #ff7f0e"/>
     <use xlink:href="#m1494a0260f" x="149.858766" y="292.146105" style="fill: #ff7f0e; stroke: #ff7f0e"/>
     <use xlink:href="#m1494a0260f" x="160.278636" y="285.814148" style="fill: #ff7f0e; stroke: #ff7f0e"/>
     <use xlink:href="#m1494a0260f" x="170.698506" y="254.154367" style="fill: #ff7f0e; stroke: #ff7f0e"/>
     <use xlink:href="#m1494a0260f" x="181.118377" y="216.16263" style="fill: #ff7f0e; stroke: #ff7f0e"/>
     <use xlink:href="#m1494a0260f" x="191.538247" y="190.834805" style="fill: #ff7f0e; stroke: #ff7f0e"/>
     <use xlink:href="#m1494a0260f" x="201.958117" y="176.904501" style="fill: #ff7f0e; stroke: #ff7f0e"/>
     <use xlink:href="#m1494a0260f" x="212.377987" y="130.048025" style="fill: #ff7f0e; stroke: #ff7f0e"/>
     <use xlink:href="#m1494a0260f" x="243.637597" y="130.048025" style="fill: #ff7f0e; stroke: #ff7f0e"/>
     <use xlink:href="#m1494a0260f" x="254.057468" y="130.048025" style="fill: #ff7f0e; stroke: #ff7f0e"/>
     <use xlink:href="#m1494a0260f" x="264.477338" y="130.048025" style="fill: #ff7f0e; stroke: #ff7f0e"/>
     <use xlink:href="#m1494a0260f" x="274.897208" y="130.048025" style="fill: #ff7f0e; stroke: #ff7f0e"/>
     <use xlink:href="#m1494a0260f" x="285.317078" y="130.048025" style="fill: #ff7f0e; stroke: #ff7f0e"/>
     <use xlink:href="#m1494a0260f" x="306.156818" y="130.048025" style="fill: #ff7f0e; stroke: #ff7f0e"/>
     <use xlink:href="#m1494a0260f" x="316.576688" y="130.048025" style="fill: #ff7f0e; stroke: #ff7f0e"/>
     <use xlink:href="#m1494a0260f" x="326.996558" y="130.048025" style="fill: #ff7f0e; stroke: #ff7f0e"/>
     <use xlink:href="#m1494a0260f" x="337.416429" y="130.048025" style="fill: #ff7f0e; stroke: #ff7f0e"/>
     <use xlink:href="#m1494a0260f" x="347.836299" y="130.048025" style="fill: #ff7f0e; stroke: #ff7f0e"/>
     <use xlink:href="#m1494a0260f" x="358.256169" y="111.052157" style="fill: #ff7f0e; stroke: #ff7f0e"/>
     <use xlink:href="#m1494a0260f" x="368.676039" y="111.052157" style="fill: #ff7f0e; stroke: #ff7f0e"/>
     <use xlink:href="#m1494a0260f" x="379.095909" y="111.052157" style="fill: #ff7f0e; stroke: #ff7f0e"/>
     <use xlink:href="#m1494a0260f" x="389.515779" y="111.052157" style="fill: #ff7f0e; stroke: #ff7f0e"/>
     <use xlink:href="#m1494a0260f" x="399.935649" y="111.052157" style="fill: #ff7f0e; stroke: #ff7f0e"/>
     <use xlink:href="#m1494a0260f" x="410.355519" y="79.392376" style="fill: #ff7f0e; stroke: #ff7f0e"/>
     <use xlink:href="#m1494a0260f" x="420.77539" y="79.392376" style="fill: #ff7f0e; stroke: #ff7f0e"/>
     <use xlink:href="#m1494a0260f" x="431.19526" y="79.392376" style="fill: #ff7f0e; stroke: #ff7f0e"/>
     <use xlink:href="#m1494a0260f" x="441.61513" y="79.392376" style="fill: #ff7f0e; stroke: #ff7f0e"/>
     <use xlink:href="#m1494a0260f" x="452.035" y="79.392376" style="fill: #ff7f0e; stroke: #ff7f0e"/>
     <use xlink:href="#m1494a0260f" x="462.45487" y="79.392376" style="fill: #ff7f0e; stroke: #ff7f0e"/>
     <use xlink:href="#m1494a0260f" x="472.87474" y="79.392376" style="fill: #ff7f0e; stroke: #ff7f0e"/>
     <use xlink:href="#m1494a0260f" x="483.29461" y="79.392376" style="fill: #ff7f0e; stroke: #ff7f0e"/>
     <use xlink:href="#m1494a0260f" x="493.714481" y="79.392376" style="fill: #ff7f0e; stroke: #ff7f0e"/>
     <use xlink:href="#m1494a0260f" x="504.134351" y="79.392376" style="fill: #ff7f0e; stroke: #ff7f0e"/>
     <use xlink:href="#m1494a0260f" x="514.554221" y="79.392376" style="fill: #ff7f0e; stroke: #ff7f0e"/>
     <use xlink:href="#m1494a0260f" x="524.974091" y="79.392376" style="fill: #ff7f0e; stroke: #ff7f0e"/>
     <use xlink:href="#m1494a0260f" x="535.393961" y="79.392376" style="fill: #ff7f0e; stroke: #ff7f0e"/>
     <use xlink:href="#m1494a0260f" x="545.813831" y="79.392376" style="fill: #ff7f0e; stroke: #ff7f0e"/>
     <use xlink:href="#m1494a0260f" x="556.233701" y="79.392376" style="fill: #ff7f0e; stroke: #ff7f0e"/>
     <use xlink:href="#m1494a0260f" x="566.653571" y="79.392376" style="fill: #ff7f0e; stroke: #ff7f0e"/>
     <use xlink:href="#m1494a0260f" x="577.073442" y="79.392376" style="fill: #ff7f0e; stroke: #ff7f0e"/>
     <use xlink:href="#m1494a0260f" x="587.493312" y="79.392376" style="fill: #ff7f0e; stroke: #ff7f0e"/>
     <use xlink:href="#m1494a0260f" x="597.913182" y="79.392376" style="fill: #ff7f0e; stroke: #ff7f0e"/>
     <use xlink:href="#m1494a0260f" x="608.333052" y="79.392376" style="fill: #ff7f0e; stroke: #ff7f0e"/>
     <use xlink:href="#m1494a0260f" x="618.752922" y="79.392376" style="fill: #ff7f0e; stroke: #ff7f0e"/>
     <use xlink:href="#m1494a0260f" x="629.172792" y="79.392376" style="fill: #ff7f0e; stroke: #ff7f0e"/>
     <use xlink:href="#m1494a0260f" x="639.592662" y="79.392376" style="fill: #ff7f0e; stroke: #ff7f0e"/>
     <use xlink:href="#m1494a0260f" x="650.012532" y="79.392376" style="fill: #ff7f0e; stroke: #ff7f0e"/>
     <use xlink:href="#m1494a0260f" x="660.432403" y="79.392376" style="fill: #ff7f0e; stroke: #ff7f0e"/>
     <use xlink:href="#m1494a0260f" x="670.852273" y="79.392376" style="fill: #ff7f0e; stroke: #ff7f0e"/>
     <use xlink:href="#m1494a0260f" x="681.272143" y="79.392376" style="fill: #ff7f0e; stroke: #ff7f0e"/>
     <use xlink:href="#m1494a0260f" x="691.692013" y="79.392376" style="fill: #ff7f0e; stroke: #ff7f0e"/>
     <use xlink:href="#m1494a0260f" x="702.111883" y="79.392376" style="fill: #ff7f0e; stroke: #ff7f0e"/>
     <use xlink:href="#m1494a0260f" x="712.531753" y="79.392376" style="fill: #ff7f0e; stroke: #ff7f0e"/>
     <use xlink:href="#m1494a0260f" x="722.951623" y="79.392376" style="fill: #ff7f0e; stroke: #ff7f0e"/>
     <use xlink:href="#m1494a0260f" x="733.371494" y="79.392376" style="fill: #ff7f0e; stroke: #ff7f0e"/>
     <use xlink:href="#m1494a0260f" x="743.791364" y="79.392376" style="fill: #ff7f0e; stroke: #ff7f0e"/>
     <use xlink:href="#m1494a0260f" x="754.211234" y="79.392376" style="fill: #ff7f0e; stroke: #ff7f0e"/>
     <use xlink:href="#m1494a0260f" x="764.631104" y="79.392376" style="fill: #ff7f0e; stroke: #ff7f0e"/>
     <use xlink:href="#m1494a0260f" x="775.050974" y="79.392376" style="fill: #ff7f0e; stroke: #ff7f0e"/>
     <use xlink:href="#m1494a0260f" x="785.470844" y="79.392376" style="fill: #ff7f0e; stroke: #ff7f0e"/>
     <use xlink:href="#m1494a0260f" x="795.890714" y="79.392376" style="fill: #ff7f0e; stroke: #ff7f0e"/>
     <use xlink:href="#m1494a0260f" x="806.310584" y="79.392376" style="fill: #ff7f0e; stroke: #ff7f0e"/>
     <use xlink:href="#m1494a0260f" x="816.730455" y="79.392376" style="fill: #ff7f0e; stroke: #ff7f0e"/>
    </g>
   </g>
   <g id="line2d_25">
    <path d="M 87.339545 380.873574 
L 97.759416 355.545749 
L 108.179286 331.484315 
L 118.599156 318.820403 
L 129.019026 293.492578 
L 139.438896 271.963927 
L 149.858766 250.435276 
L 160.278636 212.443538 
L 170.698506 190.914887 
L 181.118377 182.050148 
L 191.538247 154.189541 
L 201.958117 142.79202 
L 212.377987 99.734718 
L 243.637597 99.734718 
L 254.057468 99.734718 
L 264.477338 99.734718 
L 274.897208 99.734718 
L 285.317078 99.734718 
L 306.156818 99.734718 
L 316.576688 99.734718 
L 326.996558 99.734718 
L 337.416429 99.734718 
L 347.836299 99.734718 
L 358.256169 80.738849 
L 368.676039 80.738849 
L 379.095909 80.738849 
L 389.515779 80.738849 
L 399.935649 80.738849 
L 410.355519 80.738849 
L 420.77539 80.738849 
L 431.19526 80.738849 
L 441.61513 80.738849 
L 452.035 80.738849 
L 462.45487 80.738849 
L 472.87474 80.738849 
L 483.29461 80.738849 
L 493.714481 80.738849 
L 504.134351 80.738849 
L 514.554221 80.738849 
L 524.974091 80.738849 
L 535.393961 80.738849 
L 545.813831 80.738849 
L 556.233701 80.738849 
L 566.653571 80.738849 
L 577.073442 80.738849 
L 587.493312 80.738849 
L 597.913182 80.738849 
L 608.333052 80.738849 
L 618.752922 80.738849 
L 629.172792 80.738849 
L 639.592662 80.738849 
L 650.012532 80.738849 
L 660.432403 80.738849 
L 670.852273 80.738849 
L 681.272143 80.738849 
L 691.692013 80.738849 
L 702.111883 80.738849 
L 712.531753 80.738849 
L 722.951623 80.738849 
L 733.371494 80.738849 
L 743.791364 80.738849 
L 754.211234 80.738849 
L 764.631104 80.738849 
L 775.050974 80.738849 
L 785.470844 80.738849 
L 795.890714 80.738849 
L 806.310584 80.738849 
L 816.730455 80.738849 
" clip-path="url(#p9ae0678881)" style="fill: none; stroke: #2ca02c; stroke-width: 1.5; stroke-linecap: square"/>
    <defs>
     <path id="m6c62d41be0" d="M 0 3.5 
C 0.928211 3.5 1.81853 3.131218 2.474874 2.474874 
C 3.131218 1.81853 3.5 0.928211 3.5 0 
C 3.5 -0.928211 3.131218 -1.81853 2.474874 -2.474874 
C 1.81853 -3.131218 0.928211 -3.5 0 -3.5 
C -0.928211 -3.5 -1.81853 -3.131218 -2.474874 -2.474874 
C -3.131218 -1.81853 -3.5 -0.928211 -3.5 0 
C -3.5 0.928211 -3.131218 1.81853 -2.474874 2.474874 
C -1.81853 3.131218 -0.928211 3.5 0 3.5 
z
" style="stroke: #2ca02c"/>
    </defs>
    <g clip-path="url(#p9ae0678881)">
     <use xlink:href="#m6c62d41be0" x="87.339545" y="380.873574" style="fill: #2ca02c; stroke: #2ca02c"/>
     <use xlink:href="#m6c62d41be0" x="97.759416" y="355.545749" style="fill: #2ca02c; stroke: #2ca02c"/>
     <use xlink:href="#m6c62d41be0" x="108.179286" y="331.484315" style="fill: #2ca02c; stroke: #2ca02c"/>
     <use xlink:href="#m6c62d41be0" x="118.599156" y="318.820403" style="fill: #2ca02c; stroke: #2ca02c"/>
     <use xlink:href="#m6c62d41be0" x="129.019026" y="293.492578" style="fill: #2ca02c; stroke: #2ca02c"/>
     <use xlink:href="#m6c62d41be0" x="139.438896" y="271.963927" style="fill: #2ca02c; stroke: #2ca02c"/>
     <use xlink:href="#m6c62d41be0" x="149.858766" y="250.435276" style="fill: #2ca02c; stroke: #2ca02c"/>
     <use xlink:href="#m6c62d41be0" x="160.278636" y="212.443538" style="fill: #2ca02c; stroke: #2ca02c"/>
     <use xlink:href="#m6c62d41be0" x="170.698506" y="190.914887" style="fill: #2ca02c; stroke: #2ca02c"/>
     <use xlink:href="#m6c62d41be0" x="181.118377" y="182.050148" style="fill: #2ca02c; stroke: #2ca02c"/>
     <use xlink:href="#m6c62d41be0" x="191.538247" y="154.189541" style="fill: #2ca02c; stroke: #2ca02c"/>
     <use xlink:href="#m6c62d41be0" x="201.958117" y="142.79202" style="fill: #2ca02c; stroke: #2ca02c"/>
     <use xlink:href="#m6c62d41be0" x="212.377987" y="99.734718" style="fill: #2ca02c; stroke: #2ca02c"/>
     <use xlink:href="#m6c62d41be0" x="243.637597" y="99.734718" style="fill: #2ca02c; stroke: #2ca02c"/>
     <use xlink:href="#m6c62d41be0" x="254.057468" y="99.734718" style="fill: #2ca02c; stroke: #2ca02c"/>
     <use xlink:href="#m6c62d41be0" x="264.477338" y="99.734718" style="fill: #2ca02c; stroke: #2ca02c"/>
     <use xlink:href="#m6c62d41be0" x="274.897208" y="99.734718" style="fill: #2ca02c; stroke: #2ca02c"/>
     <use xlink:href="#m6c62d41be0" x="285.317078" y="99.734718" style="fill: #2ca02c; stroke: #2ca02c"/>
     <use xlink:href="#m6c62d41be0" x="306.156818" y="99.734718" style="fill: #2ca02c; stroke: #2ca02c"/>
     <use xlink:href="#m6c62d41be0" x="316.576688" y="99.734718" style="fill: #2ca02c; stroke: #2ca02c"/>
     <use xlink:href="#m6c62d41be0" x="326.996558" y="99.734718" style="fill: #2ca02c; stroke: #2ca02c"/>
     <use xlink:href="#m6c62d41be0" x="337.416429" y="99.734718" style="fill: #2ca02c; stroke: #2ca02c"/>
     <use xlink:href="#m6c62d41be0" x="347.836299" y="99.734718" style="fill: #2ca02c; stroke: #2ca02c"/>
     <use xlink:href="#m6c62d41be0" x="358.256169" y="80.738849" style="fill: #2ca02c; stroke: #2ca02c"/>
     <use xlink:href="#m6c62d41be0" x="368.676039" y="80.738849" style="fill: #2ca02c; stroke: #2ca02c"/>
     <use xlink:href="#m6c62d41be0" x="379.095909" y="80.738849" style="fill: #2ca02c; stroke: #2ca02c"/>
     <use xlink:href="#m6c62d41be0" x="389.515779" y="80.738849" style="fill: #2ca02c; stroke: #2ca02c"/>
     <use xlink:href="#m6c62d41be0" x="399.935649" y="80.738849" style="fill: #2ca02c; stroke: #2ca02c"/>
     <use xlink:href="#m6c62d41be0" x="410.355519" y="80.738849" style="fill: #2ca02c; stroke: #2ca02c"/>
     <use xlink:href="#m6c62d41be0" x="420.77539" y="80.738849" style="fill: #2ca02c; stroke: #2ca02c"/>
     <use xlink:href="#m6c62d41be0" x="431.19526" y="80.738849" style="fill: #2ca02c; stroke: #2ca02c"/>
     <use xlink:href="#m6c62d41be0" x="441.61513" y="80.738849" style="fill: #2ca02c; stroke: #2ca02c"/>
     <use xlink:href="#m6c62d41be0" x="452.035" y="80.738849" style="fill: #2ca02c; stroke: #2ca02c"/>
     <use xlink:href="#m6c62d41be0" x="462.45487" y="80.738849" style="fill: #2ca02c; stroke: #2ca02c"/>
     <use xlink:href="#m6c62d41be0" x="472.87474" y="80.738849" style="fill: #2ca02c; stroke: #2ca02c"/>
     <use xlink:href="#m6c62d41be0" x="483.29461" y="80.738849" style="fill: #2ca02c; stroke: #2ca02c"/>
     <use xlink:href="#m6c62d41be0" x="493.714481" y="80.738849" style="fill: #2ca02c; stroke: #2ca02c"/>
     <use xlink:href="#m6c62d41be0" x="504.134351" y="80.738849" style="fill: #2ca02c; stroke: #2ca02c"/>
     <use xlink:href="#m6c62d41be0" x="514.554221" y="80.738849" style="fill: #2ca02c; stroke: #2ca02c"/>
     <use xlink:href="#m6c62d41be0" x="524.974091" y="80.738849" style="fill: #2ca02c; stroke: #2ca02c"/>
     <use xlink:href="#m6c62d41be0" x="535.393961" y="80.738849" style="fill: #2ca02c; stroke: #2ca02c"/>
     <use xlink:href="#m6c62d41be0" x="545.813831" y="80.738849" style="fill: #2ca02c; stroke: #2ca02c"/>
     <use xlink:href="#m6c62d41be0" x="556.233701" y="80.738849" style="fill: #2ca02c; stroke: #2ca02c"/>
     <use xlink:href="#m6c62d41be0" x="566.653571" y="80.738849" style="fill: #2ca02c; stroke: #2ca02c"/>
     <use xlink:href="#m6c62d41be0" x="577.073442" y="80.738849" style="fill: #2ca02c; stroke: #2ca02c"/>
     <use xlink:href="#m6c62d41be0" x="587.493312" y="80.738849" style="fill: #2ca02c; stroke: #2ca02c"/>
     <use xlink:href="#m6c62d41be0" x="597.913182" y="80.738849" style="fill: #2ca02c; stroke: #2ca02c"/>
     <use xlink:href="#m6c62d41be0" x="608.333052" y="80.738849" style="fill: #2ca02c; stroke: #2ca02c"/>
     <use xlink:href="#m6c62d41be0" x="618.752922" y="80.738849" style="fill: #2ca02c; stroke: #2ca02c"/>
     <use xlink:href="#m6c62d41be0" x="629.172792" y="80.738849" style="fill: #2ca02c; stroke: #2ca02c"/>
     <use xlink:href="#m6c62d41be0" x="639.592662" y="80.738849" style="fill: #2ca02c; stroke: #2ca02c"/>
     <use xlink:href="#m6c62d41be0" x="650.012532" y="80.738849" style="fill: #2ca02c; stroke: #2ca02c"/>
     <use xlink:href="#m6c62d41be0" x="660.432403" y="80.738849" style="fill: #2ca02c; stroke: #2ca02c"/>
     <use xlink:href="#m6c62d41be0" x="670.852273" y="80.738849" style="fill: #2ca02c; stroke: #2ca02c"/>
     <use xlink:href="#m6c62d41be0" x="681.272143" y="80.738849" style="fill: #2ca02c; stroke: #2ca02c"/>
     <use xlink:href="#m6c62d41be0" x="691.692013" y="80.738849" style="fill: #2ca02c; stroke: #2ca02c"/>
     <use xlink:href="#m6c62d41be0" x="702.111883" y="80.738849" style="fill: #2ca02c; stroke: #2ca02c"/>
     <use xlink:href="#m6c62d41be0" x="712.531753" y="80.738849" style="fill: #2ca02c; stroke: #2ca02c"/>
     <use xlink:href="#m6c62d41be0" x="722.951623" y="80.738849" style="fill: #2ca02c; stroke: #2ca02c"/>
     <use xlink:href="#m6c62d41be0" x="733.371494" y="80.738849" style="fill: #2ca02c; stroke: #2ca02c"/>
     <use xlink:href="#m6c62d41be0" x="743.791364" y="80.738849" style="fill: #2ca02c; stroke: #2ca02c"/>
     <use xlink:href="#m6c62d41be0" x="754.211234" y="80.738849" style="fill: #2ca02c; stroke: #2ca02c"/>
     <use xlink:href="#m6c62d41be0" x="764.631104" y="80.738849" style="fill: #2ca02c; stroke: #2ca02c"/>
     <use xlink:href="#m6c62d41be0" x="775.050974" y="80.738849" style="fill: #2ca02c; stroke: #2ca02c"/>
     <use xlink:href="#m6c62d41be0" x="785.470844" y="80.738849" style="fill: #2ca02c; stroke: #2ca02c"/>
     <use xlink:href="#m6c62d41be0" x="795.890714" y="80.738849" style="fill: #2ca02c; stroke: #2ca02c"/>
     <use xlink:href="#m6c62d41be0" x="806.310584" y="80.738849" style="fill: #2ca02c; stroke: #2ca02c"/>
     <use xlink:href="#m6c62d41be0" x="816.730455" y="80.738849" style="fill: #2ca02c; stroke: #2ca02c"/>
    </g>
   </g>
   <g id="line2d_26">
    <path d="M 87.339545 380.887344 
L 97.759416 349.227562 
L 108.179286 317.567781 
L 118.599156 292.239956 
L 129.019026 279.576044 
L 139.438896 239.051524 
L 149.858766 214.990091 
L 160.278636 202.326178 
L 170.698506 180.797527 
L 181.118377 169.400006 
L 191.538247 135.207442 
L 201.958117 121.277139 
L 212.377987 82.01901 
L 243.637597 82.01901 
L 254.057468 82.01901 
L 264.477338 82.01901 
L 274.897208 82.01901 
L 285.317078 82.01901 
L 306.156818 82.01901 
L 316.576688 82.01901 
L 326.996558 82.01901 
L 337.416429 82.01901 
L 347.836299 82.01901 
L 358.256169 63.023141 
L 368.676039 63.023141 
L 379.095909 63.023141 
L 389.515779 63.023141 
L 399.935649 63.023141 
L 410.355519 44.027273 
L 420.77539 44.027273 
L 431.19526 44.027273 
L 441.61513 44.027273 
L 452.035 44.027273 
L 462.45487 44.027273 
L 472.87474 44.027273 
L 483.29461 44.027273 
L 493.714481 44.027273 
L 504.134351 44.027273 
L 514.554221 44.027273 
L 524.974091 44.027273 
L 535.393961 44.027273 
L 545.813831 44.027273 
L 556.233701 44.027273 
L 566.653571 44.027273 
L 577.073442 44.027273 
L 587.493312 44.027273 
L 597.913182 44.027273 
L 608.333052 44.027273 
L 618.752922 44.027273 
L 629.172792 44.027273 
L 639.592662 44.027273 
L 650.012532 44.027273 
L 660.432403 44.027273 
L 670.852273 44.027273 
L 681.272143 44.027273 
L 691.692013 44.027273 
L 702.111883 44.027273 
L 712.531753 44.027273 
L 722.951623 44.027273 
L 733.371494 44.027273 
L 743.791364 44.027273 
L 754.211234 44.027273 
L 764.631104 44.027273 
L 775.050974 44.027273 
L 785.470844 44.027273 
L 795.890714 44.027273 
L 806.310584 44.027273 
L 816.730455 44.027273 
" clip-path="url(#p9ae0678881)" style="fill: none; stroke: #d62728; stroke-width: 1.5; stroke-linecap: square"/>
    <defs>
     <path id="m1a3a7ca122" d="M 0 3.5 
C 0.928211 3.5 1.81853 3.131218 2.474874 2.474874 
C 3.131218 1.81853 3.5 0.928211 3.5 0 
C 3.5 -0.928211 3.131218 -1.81853 2.474874 -2.474874 
C 1.81853 -3.131218 0.928211 -3.5 0 -3.5 
C -0.928211 -3.5 -1.81853 -3.131218 -2.474874 -2.474874 
C -3.131218 -1.81853 -3.5 -0.928211 -3.5 0 
C -3.5 0.928211 -3.131218 1.81853 -2.474874 2.474874 
C -1.81853 3.131218 -0.928211 3.5 0 3.5 
z
" style="stroke: #d62728"/>
    </defs>
    <g clip-path="url(#p9ae0678881)">
     <use xlink:href="#m1a3a7ca122" x="87.339545" y="380.887344" style="fill: #d62728; stroke: #d62728"/>
     <use xlink:href="#m1a3a7ca122" x="97.759416" y="349.227562" style="fill: #d62728; stroke: #d62728"/>
     <use xlink:href="#m1a3a7ca122" x="108.179286" y="317.567781" style="fill: #d62728; stroke: #d62728"/>
     <use xlink:href="#m1a3a7ca122" x="118.599156" y="292.239956" style="fill: #d62728; stroke: #d62728"/>
     <use xlink:href="#m1a3a7ca122" x="129.019026" y="279.576044" style="fill: #d62728; stroke: #d62728"/>
     <use xlink:href="#m1a3a7ca122" x="139.438896" y="239.051524" style="fill: #d62728; stroke: #d62728"/>
     <use xlink:href="#m1a3a7ca122" x="149.858766" y="214.990091" style="fill: #d62728; stroke: #d62728"/>
     <use xlink:href="#m1a3a7ca122" x="160.278636" y="202.326178" style="fill: #d62728; stroke: #d62728"/>
     <use xlink:href="#m1a3a7ca122" x="170.698506" y="180.797527" style="fill: #d62728; stroke: #d62728"/>
     <use xlink:href="#m1a3a7ca122" x="181.118377" y="169.400006" style="fill: #d62728; stroke: #d62728"/>
     <use xlink:href="#m1a3a7ca122" x="191.538247" y="135.207442" style="fill: #d62728; stroke: #d62728"/>
     <use xlink:href="#m1a3a7ca122" x="201.958117" y="121.277139" style="fill: #d62728; stroke: #d62728"/>
     <use xlink:href="#m1a3a7ca122" x="212.377987" y="82.01901" style="fill: #d62728; stroke: #d62728"/>
     <use xlink:href="#m1a3a7ca122" x="243.637597" y="82.01901" style="fill: #d62728; stroke: #d62728"/>
     <use xlink:href="#m1a3a7ca122" x="254.057468" y="82.01901" style="fill: #d62728; stroke: #d62728"/>
     <use xlink:href="#m1a3a7ca122" x="264.477338" y="82.01901" style="fill: #d62728; stroke: #d62728"/>
     <use xlink:href="#m1a3a7ca122" x="274.897208" y="82.01901" style="fill: #d62728; stroke: #d62728"/>
     <use xlink:href="#m1a3a7ca122" x="285.317078" y="82.01901" style="fill: #d62728; stroke: #d62728"/>
     <use xlink:href="#m1a3a7ca122" x="306.156818" y="82.01901" style="fill: #d62728; stroke: #d62728"/>
     <use xlink:href="#m1a3a7ca122" x="316.576688" y="82.01901" style="fill: #d62728; stroke: #d62728"/>
     <use xlink:href="#m1a3a7ca122" x="326.996558" y="82.01901" style="fill: #d62728; stroke: #d62728"/>
     <use xlink:href="#m1a3a7ca122" x="337.416429" y="82.01901" style="fill: #d62728; stroke: #d62728"/>
     <use xlink:href="#m1a3a7ca122" x="347.836299" y="82.01901" style="fill: #d62728; stroke: #d62728"/>
     <use xlink:href="#m1a3a7ca122" x="358.256169" y="63.023141" style="fill: #d62728; stroke: #d62728"/>
     <use xlink:href="#m1a3a7ca122" x="368.676039" y="63.023141" style="fill: #d62728; stroke: #d62728"/>
     <use xlink:href="#m1a3a7ca122" x="379.095909" y="63.023141" style="fill: #d62728; stroke: #d62728"/>
     <use xlink:href="#m1a3a7ca122" x="389.515779" y="63.023141" style="fill: #d62728; stroke: #d62728"/>
     <use xlink:href="#m1a3a7ca122" x="399.935649" y="63.023141" style="fill: #d62728; stroke: #d62728"/>
     <use xlink:href="#m1a3a7ca122" x="410.355519" y="44.027273" style="fill: #d62728; stroke: #d62728"/>
     <use xlink:href="#m1a3a7ca122" x="420.77539" y="44.027273" style="fill: #d62728; stroke: #d62728"/>
     <use xlink:href="#m1a3a7ca122" x="431.19526" y="44.027273" style="fill: #d62728; stroke: #d62728"/>
     <use xlink:href="#m1a3a7ca122" x="441.61513" y="44.027273" style="fill: #d62728; stroke: #d62728"/>
     <use xlink:href="#m1a3a7ca122" x="452.035" y="44.027273" style="fill: #d62728; stroke: #d62728"/>
     <use xlink:href="#m1a3a7ca122" x="462.45487" y="44.027273" style="fill: #d62728; stroke: #d62728"/>
     <use xlink:href="#m1a3a7ca122" x="472.87474" y="44.027273" style="fill: #d62728; stroke: #d62728"/>
     <use xlink:href="#m1a3a7ca122" x="483.29461" y="44.027273" style="fill: #d62728; stroke: #d62728"/>
     <use xlink:href="#m1a3a7ca122" x="493.714481" y="44.027273" style="fill: #d62728; stroke: #d62728"/>
     <use xlink:href="#m1a3a7ca122" x="504.134351" y="44.027273" style="fill: #d62728; stroke: #d62728"/>
     <use xlink:href="#m1a3a7ca122" x="514.554221" y="44.027273" style="fill: #d62728; stroke: #d62728"/>
     <use xlink:href="#m1a3a7ca122" x="524.974091" y="44.027273" style="fill: #d62728; stroke: #d62728"/>
     <use xlink:href="#m1a3a7ca122" x="535.393961" y="44.027273" style="fill: #d62728; stroke: #d62728"/>
     <use xlink:href="#m1a3a7ca122" x="545.813831" y="44.027273" style="fill: #d62728; stroke: #d62728"/>
     <use xlink:href="#m1a3a7ca122" x="556.233701" y="44.027273" style="fill: #d62728; stroke: #d62728"/>
     <use xlink:href="#m1a3a7ca122" x="566.653571" y="44.027273" style="fill: #d62728; stroke: #d62728"/>
     <use xlink:href="#m1a3a7ca122" x="577.073442" y="44.027273" style="fill: #d62728; stroke: #d62728"/>
     <use xlink:href="#m1a3a7ca122" x="587.493312" y="44.027273" style="fill: #d62728; stroke: #d62728"/>
     <use xlink:href="#m1a3a7ca122" x="597.913182" y="44.027273" style="fill: #d62728; stroke: #d62728"/>
     <use xlink:href="#m1a3a7ca122" x="608.333052" y="44.027273" style="fill: #d62728; stroke: #d62728"/>
     <use xlink:href="#m1a3a7ca122" x="618.752922" y="44.027273" style="fill: #d62728; stroke: #d62728"/>
     <use xlink:href="#m1a3a7ca122" x="629.172792" y="44.027273" style="fill: #d62728; stroke: #d62728"/>
     <use xlink:href="#m1a3a7ca122" x="639.592662" y="44.027273" style="fill: #d62728; stroke: #d62728"/>
     <use xlink:href="#m1a3a7ca122" x="650.012532" y="44.027273" style="fill: #d62728; stroke: #d62728"/>
     <use xlink:href="#m1a3a7ca122" x="660.432403" y="44.027273" style="fill: #d62728; stroke: #d62728"/>
     <use xlink:href="#m1a3a7ca122" x="670.852273" y="44.027273" style="fill: #d62728; stroke: #d62728"/>
     <use xlink:href="#m1a3a7ca122" x="681.272143" y="44.027273" style="fill: #d62728; stroke: #d62728"/>
     <use xlink:href="#m1a3a7ca122" x="691.692013" y="44.027273" style="fill: #d62728; stroke: #d62728"/>
     <use xlink:href="#m1a3a7ca122" x="702.111883" y="44.027273" style="fill: #d62728; stroke: #d62728"/>
     <use xlink:href="#m1a3a7ca122" x="712.531753" y="44.027273" style="fill: #d62728; stroke: #d62728"/>
     <use xlink:href="#m1a3a7ca122" x="722.951623" y="44.027273" style="fill: #d62728; stroke: #d62728"/>
     <use xlink:href="#m1a3a7ca122" x="733.371494" y="44.027273" style="fill: #d62728; stroke: #d62728"/>
     <use xlink:href="#m1a3a7ca122" x="743.791364" y="44.027273" style="fill: #d62728; stroke: #d62728"/>
     <use xlink:href="#m1a3a7ca122" x="754.211234" y="44.027273" style="fill: #d62728; stroke: #d62728"/>
     <use xlink:href="#m1a3a7ca122" x="764.631104" y="44.027273" style="fill: #d62728; stroke: #d62728"/>
     <use xlink:href="#m1a3a7ca122" x="775.050974" y="44.027273" style="fill: #d62728; stroke: #d62728"/>
     <use xlink:href="#m1a3a7ca122" x="785.470844" y="44.027273" style="fill: #d62728; stroke: #d62728"/>
     <use xlink:href="#m1a3a7ca122" x="795.890714" y="44.027273" style="fill: #d62728; stroke: #d62728"/>
     <use xlink:href="#m1a3a7ca122" x="806.310584" y="44.027273" style="fill: #d62728; stroke: #d62728"/>
     <use xlink:href="#m1a3a7ca122" x="816.730455" y="44.027273" style="fill: #d62728; stroke: #d62728"/>
    </g>
   </g>
   <g id="line2d_27">
    <path d="M 87.339545 386.972727 
L 97.759416 361.644902 
L 108.179286 336.317078 
L 118.599156 323.653165 
L 129.019026 304.657296 
L 139.438896 283.128645 
L 149.858766 264.132777 
L 160.278636 251.468864 
L 170.698506 207.145171 
L 181.118377 200.813214 
L 191.538247 166.620651 
L 201.958117 155.22313 
L 212.377987 95.702741 
L 243.637597 95.702741 
L 254.057468 95.702741 
L 264.477338 95.702741 
L 274.897208 95.702741 
L 285.317078 95.702741 
L 306.156818 95.702741 
L 316.576688 95.702741 
L 326.996558 95.702741 
L 337.416429 95.702741 
L 347.836299 95.702741 
L 358.256169 95.702741 
L 368.676039 95.702741 
L 379.095909 95.702741 
L 389.515779 95.702741 
L 399.935649 95.702741 
L 410.355519 64.04296 
L 420.77539 64.04296 
L 431.19526 64.04296 
L 441.61513 64.04296 
L 452.035 64.04296 
L 462.45487 64.04296 
L 472.87474 64.04296 
L 483.29461 64.04296 
L 493.714481 64.04296 
L 504.134351 64.04296 
L 514.554221 64.04296 
L 524.974091 64.04296 
L 535.393961 64.04296 
L 545.813831 64.04296 
L 556.233701 64.04296 
L 566.653571 64.04296 
L 577.073442 64.04296 
L 587.493312 64.04296 
L 597.913182 64.04296 
L 608.333052 64.04296 
L 618.752922 64.04296 
L 629.172792 64.04296 
L 639.592662 64.04296 
L 650.012532 64.04296 
L 660.432403 64.04296 
L 670.852273 64.04296 
L 681.272143 64.04296 
L 691.692013 64.04296 
L 702.111883 64.04296 
L 712.531753 64.04296 
L 722.951623 64.04296 
L 733.371494 64.04296 
L 743.791364 64.04296 
L 754.211234 64.04296 
L 764.631104 64.04296 
L 775.050974 64.04296 
L 785.470844 64.04296 
L 795.890714 64.04296 
L 806.310584 64.04296 
L 816.730455 64.04296 
" clip-path="url(#p9ae0678881)" style="fill: none; stroke: #9467bd; stroke-width: 1.5; stroke-linecap: square"/>
    <defs>
     <path id="m4a56d3baba" d="M 0 3.5 
C 0.928211 3.5 1.81853 3.131218 2.474874 2.474874 
C 3.131218 1.81853 3.5 0.928211 3.5 0 
C 3.5 -0.928211 3.131218 -1.81853 2.474874 -2.474874 
C 1.81853 -3.131218 0.928211 -3.5 0 -3.5 
C -0.928211 -3.5 -1.81853 -3.131218 -2.474874 -2.474874 
C -3.131218 -1.81853 -3.5 -0.928211 -3.5 0 
C -3.5 0.928211 -3.131218 1.81853 -2.474874 2.474874 
C -1.81853 3.131218 -0.928211 3.5 0 3.5 
z
" style="stroke: #9467bd"/>
    </defs>
    <g clip-path="url(#p9ae0678881)">
     <use xlink:href="#m4a56d3baba" x="87.339545" y="386.972727" style="fill: #9467bd; stroke: #9467bd"/>
     <use xlink:href="#m4a56d3baba" x="97.759416" y="361.644902" style="fill: #9467bd; stroke: #9467bd"/>
     <use xlink:href="#m4a56d3baba" x="108.179286" y="336.317078" style="fill: #9467bd; stroke: #9467bd"/>
     <use xlink:href="#m4a56d3baba" x="118.599156" y="323.653165" style="fill: #9467bd; stroke: #9467bd"/>
     <use xlink:href="#m4a56d3baba" x="129.019026" y="304.657296" style="fill: #9467bd; stroke: #9467bd"/>
     <use xlink:href="#m4a56d3baba" x="139.438896" y="283.128645" style="fill: #9467bd; stroke: #9467bd"/>
     <use xlink:href="#m4a56d3baba" x="149.858766" y="264.132777" style="fill: #9467bd; stroke: #9467bd"/>
     <use xlink:href="#m4a56d3baba" x="160.278636" y="251.468864" style="fill: #9467bd; stroke: #9467bd"/>
     <use xlink:href="#m4a56d3baba" x="170.698506" y="207.145171" style="fill: #9467bd; stroke: #9467bd"/>
     <use xlink:href="#m4a56d3baba" x="181.118377" y="200.813214" style="fill: #9467bd; stroke: #9467bd"/>
     <use xlink:href="#m4a56d3baba" x="191.538247" y="166.620651" style="fill: #9467bd; stroke: #9467bd"/>
     <use xlink:href="#m4a56d3baba" x="201.958117" y="155.22313" style="fill: #9467bd; stroke: #9467bd"/>
     <use xlink:href="#m4a56d3baba" x="212.377987" y="95.702741" style="fill: #9467bd; stroke: #9467bd"/>
     <use xlink:href="#m4a56d3baba" x="243.637597" y="95.702741" style="fill: #9467bd; stroke: #9467bd"/>
     <use xlink:href="#m4a56d3baba" x="254.057468" y="95.702741" style="fill: #9467bd; stroke: #9467bd"/>
     <use xlink:href="#m4a56d3baba" x="264.477338" y="95.702741" style="fill: #9467bd; stroke: #9467bd"/>
     <use xlink:href="#m4a56d3baba" x="274.897208" y="95.702741" style="fill: #9467bd; stroke: #9467bd"/>
     <use xlink:href="#m4a56d3baba" x="285.317078" y="95.702741" style="fill: #9467bd; stroke: #9467bd"/>
     <use xlink:href="#m4a56d3baba" x="306.156818" y="95.702741" style="fill: #9467bd; stroke: #9467bd"/>
     <use xlink:href="#m4a56d3baba" x="316.576688" y="95.702741" style="fill: #9467bd; stroke: #9467bd"/>
     <use xlink:href="#m4a56d3baba" x="326.996558" y="95.702741" style="fill: #9467bd; stroke: #9467bd"/>
     <use xlink:href="#m4a56d3baba" x="337.416429" y="95.702741" style="fill: #9467bd; stroke: #9467bd"/>
     <use xlink:href="#m4a56d3baba" x="347.836299" y="95.702741" style="fill: #9467bd; stroke: #9467bd"/>
     <use xlink:href="#m4a56d3baba" x="358.256169" y="95.702741" style="fill: #9467bd; stroke: #9467bd"/>
     <use xlink:href="#m4a56d3baba" x="368.676039" y="95.702741" style="fill: #9467bd; stroke: #9467bd"/>
     <use xlink:href="#m4a56d3baba" x="379.095909" y="95.702741" style="fill: #9467bd; stroke: #9467bd"/>
     <use xlink:href="#m4a56d3baba" x="389.515779" y="95.702741" style="fill: #9467bd; stroke: #9467bd"/>
     <use xlink:href="#m4a56d3baba" x="399.935649" y="95.702741" style="fill: #9467bd; stroke: #9467bd"/>
     <use xlink:href="#m4a56d3baba" x="410.355519" y="64.04296" style="fill: #9467bd; stroke: #9467bd"/>
     <use xlink:href="#m4a56d3baba" x="420.77539" y="64.04296" style="fill: #9467bd; stroke: #9467bd"/>
     <use xlink:href="#m4a56d3baba" x="431.19526" y="64.04296" style="fill: #9467bd; stroke: #9467bd"/>
     <use xlink:href="#m4a56d3baba" x="441.61513" y="64.04296" style="fill: #9467bd; stroke: #9467bd"/>
     <use xlink:href="#m4a56d3baba" x="452.035" y="64.04296" style="fill: #9467bd; stroke: #9467bd"/>
     <use xlink:href="#m4a56d3baba" x="462.45487" y="64.04296" style="fill: #9467bd; stroke: #9467bd"/>
     <use xlink:href="#m4a56d3baba" x="472.87474" y="64.04296" style="fill: #9467bd; stroke: #9467bd"/>
     <use xlink:href="#m4a56d3baba" x="483.29461" y="64.04296" style="fill: #9467bd; stroke: #9467bd"/>
     <use xlink:href="#m4a56d3baba" x="493.714481" y="64.04296" style="fill: #9467bd; stroke: #9467bd"/>
     <use xlink:href="#m4a56d3baba" x="504.134351" y="64.04296" style="fill: #9467bd; stroke: #9467bd"/>
     <use xlink:href="#m4a56d3baba" x="514.554221" y="64.04296" style="fill: #9467bd; stroke: #9467bd"/>
     <use xlink:href="#m4a56d3baba" x="524.974091" y="64.04296" style="fill: #9467bd; stroke: #9467bd"/>
     <use xlink:href="#m4a56d3baba" x="535.393961" y="64.04296" style="fill: #9467bd; stroke: #9467bd"/>
     <use xlink:href="#m4a56d3baba" x="545.813831" y="64.04296" style="fill: #9467bd; stroke: #9467bd"/>
     <use xlink:href="#m4a56d3baba" x="556.233701" y="64.04296" style="fill: #9467bd; stroke: #9467bd"/>
     <use xlink:href="#m4a56d3baba" x="566.653571" y="64.04296" style="fill: #9467bd; stroke: #9467bd"/>
     <use xlink:href="#m4a56d3baba" x="577.073442" y="64.04296" style="fill: #9467bd; stroke: #9467bd"/>
     <use xlink:href="#m4a56d3baba" x="587.493312" y="64.04296" style="fill: #9467bd; stroke: #9467bd"/>
     <use xlink:href="#m4a56d3baba" x="597.913182" y="64.04296" style="fill: #9467bd; stroke: #9467bd"/>
     <use xlink:href="#m4a56d3baba" x="608.333052" y="64.04296" style="fill: #9467bd; stroke: #9467bd"/>
     <use xlink:href="#m4a56d3baba" x="618.752922" y="64.04296" style="fill: #9467bd; stroke: #9467bd"/>
     <use xlink:href="#m4a56d3baba" x="629.172792" y="64.04296" style="fill: #9467bd; stroke: #9467bd"/>
     <use xlink:href="#m4a56d3baba" x="639.592662" y="64.04296" style="fill: #9467bd; stroke: #9467bd"/>
     <use xlink:href="#m4a56d3baba" x="650.012532" y="64.04296" style="fill: #9467bd; stroke: #9467bd"/>
     <use xlink:href="#m4a56d3baba" x="660.432403" y="64.04296" style="fill: #9467bd; stroke: #9467bd"/>
     <use xlink:href="#m4a56d3baba" x="670.852273" y="64.04296" style="fill: #9467bd; stroke: #9467bd"/>
     <use xlink:href="#m4a56d3baba" x="681.272143" y="64.04296" style="fill: #9467bd; stroke: #9467bd"/>
     <use xlink:href="#m4a56d3baba" x="691.692013" y="64.04296" style="fill: #9467bd; stroke: #9467bd"/>
     <use xlink:href="#m4a56d3baba" x="702.111883" y="64.04296" style="fill: #9467bd; stroke: #9467bd"/>
     <use xlink:href="#m4a56d3baba" x="712.531753" y="64.04296" style="fill: #9467bd; stroke: #9467bd"/>
     <use xlink:href="#m4a56d3baba" x="722.951623" y="64.04296" style="fill: #9467bd; stroke: #9467bd"/>
     <use xlink:href="#m4a56d3baba" x="733.371494" y="64.04296" style="fill: #9467bd; stroke: #9467bd"/>
     <use xlink:href="#m4a56d3baba" x="743.791364" y="64.04296" style="fill: #9467bd; stroke: #9467bd"/>
     <use xlink:href="#m4a56d3baba" x="754.211234" y="64.04296" style="fill: #9467bd; stroke: #9467bd"/>
     <use xlink:href="#m4a56d3baba" x="764.631104" y="64.04296" style="fill: #9467bd; stroke: #9467bd"/>
     <use xlink:href="#m4a56d3baba" x="775.050974" y="64.04296" style="fill: #9467bd; stroke: #9467bd"/>
     <use xlink:href="#m4a56d3baba" x="785.470844" y="64.04296" style="fill: #9467bd; stroke: #9467bd"/>
     <use xlink:href="#m4a56d3baba" x="795.890714" y="64.04296" style="fill: #9467bd; stroke: #9467bd"/>
     <use xlink:href="#m4a56d3baba" x="806.310584" y="64.04296" style="fill: #9467bd; stroke: #9467bd"/>
     <use xlink:href="#m4a56d3baba" x="816.730455" y="64.04296" style="fill: #9467bd; stroke: #9467bd"/>
    </g>
   </g>
   <g id="line2d_28">
    <path d="M 87.339545 380.840137 
L 97.759416 365.643442 
L 108.179286 354.245921 
L 118.599156 328.918096 
L 129.019026 309.922227 
L 139.438896 304.856663 
L 149.858766 295.991924 
L 160.278636 280.795229 
L 170.698506 236.471535 
L 181.118377 204.811754 
L 191.538247 166.820017 
L 201.958117 142.758583 
L 212.377987 93.369325 
L 243.637597 93.369325 
L 254.057468 93.369325 
L 264.477338 93.369325 
L 274.897208 93.369325 
L 285.317078 93.369325 
L 306.156818 93.369325 
L 316.576688 93.369325 
L 326.996558 93.369325 
L 337.416429 93.369325 
L 347.836299 93.369325 
L 358.256169 93.369325 
L 368.676039 93.369325 
L 379.095909 93.369325 
L 389.515779 93.369325 
L 399.935649 93.369325 
L 410.355519 61.709544 
L 420.77539 61.709544 
L 431.19526 61.709544 
L 441.61513 61.709544 
L 452.035 61.709544 
L 462.45487 61.709544 
L 472.87474 61.709544 
L 483.29461 61.709544 
L 493.714481 61.709544 
L 504.134351 61.709544 
L 514.554221 61.709544 
L 524.974091 61.709544 
L 535.393961 61.709544 
L 545.813831 61.709544 
L 556.233701 61.709544 
L 566.653571 61.709544 
L 577.073442 61.709544 
L 587.493312 61.709544 
L 597.913182 61.709544 
L 608.333052 61.709544 
L 618.752922 61.709544 
L 629.172792 61.709544 
L 639.592662 61.709544 
L 650.012532 61.709544 
L 660.432403 61.709544 
L 670.852273 61.709544 
L 681.272143 61.709544 
L 691.692013 61.709544 
L 702.111883 61.709544 
L 712.531753 61.709544 
L 722.951623 61.709544 
L 733.371494 61.709544 
L 743.791364 61.709544 
L 754.211234 61.709544 
L 764.631104 61.709544 
L 775.050974 61.709544 
L 785.470844 61.709544 
L 795.890714 61.709544 
L 806.310584 61.709544 
L 816.730455 61.709544 
" clip-path="url(#p9ae0678881)" style="fill: none; stroke: #8c564b; stroke-width: 1.5; stroke-linecap: square"/>
    <defs>
     <path id="mb2c076b158" d="M 0 3.5 
C 0.928211 3.5 1.81853 3.131218 2.474874 2.474874 
C 3.131218 1.81853 3.5 0.928211 3.5 0 
C 3.5 -0.928211 3.131218 -1.81853 2.474874 -2.474874 
C 1.81853 -3.131218 0.928211 -3.5 0 -3.5 
C -0.928211 -3.5 -1.81853 -3.131218 -2.474874 -2.474874 
C -3.131218 -1.81853 -3.5 -0.928211 -3.5 0 
C -3.5 0.928211 -3.131218 1.81853 -2.474874 2.474874 
C -1.81853 3.131218 -0.928211 3.5 0 3.5 
z
" style="stroke: #8c564b"/>
    </defs>
    <g clip-path="url(#p9ae0678881)">
     <use xlink:href="#mb2c076b158" x="87.339545" y="380.840137" style="fill: #8c564b; stroke: #8c564b"/>
     <use xlink:href="#mb2c076b158" x="97.759416" y="365.643442" style="fill: #8c564b; stroke: #8c564b"/>
     <use xlink:href="#mb2c076b158" x="108.179286" y="354.245921" style="fill: #8c564b; stroke: #8c564b"/>
     <use xlink:href="#mb2c076b158" x="118.599156" y="328.918096" style="fill: #8c564b; stroke: #8c564b"/>
     <use xlink:href="#mb2c076b158" x="129.019026" y="309.922227" style="fill: #8c564b; stroke: #8c564b"/>
     <use xlink:href="#mb2c076b158" x="139.438896" y="304.856663" style="fill: #8c564b; stroke: #8c564b"/>
     <use xlink:href="#mb2c076b158" x="149.858766" y="295.991924" style="fill: #8c564b; stroke: #8c564b"/>
     <use xlink:href="#mb2c076b158" x="160.278636" y="280.795229" style="fill: #8c564b; stroke: #8c564b"/>
     <use xlink:href="#mb2c076b158" x="170.698506" y="236.471535" style="fill: #8c564b; stroke: #8c564b"/>
     <use xlink:href="#mb2c076b158" x="181.118377" y="204.811754" style="fill: #8c564b; stroke: #8c564b"/>
     <use xlink:href="#mb2c076b158" x="191.538247" y="166.820017" style="fill: #8c564b; stroke: #8c564b"/>
     <use xlink:href="#mb2c076b158" x="201.958117" y="142.758583" style="fill: #8c564b; stroke: #8c564b"/>
     <use xlink:href="#mb2c076b158" x="212.377987" y="93.369325" style="fill: #8c564b; stroke: #8c564b"/>
     <use xlink:href="#mb2c076b158" x="243.637597" y="93.369325" style="fill: #8c564b; stroke: #8c564b"/>
     <use xlink:href="#mb2c076b158" x="254.057468" y="93.369325" style="fill: #8c564b; stroke: #8c564b"/>
     <use xlink:href="#mb2c076b158" x="264.477338" y="93.369325" style="fill: #8c564b; stroke: #8c564b"/>
     <use xlink:href="#mb2c076b158" x="274.897208" y="93.369325" style="fill: #8c564b; stroke: #8c564b"/>
     <use xlink:href="#mb2c076b158" x="285.317078" y="93.369325" style="fill: #8c564b; stroke: #8c564b"/>
     <use xlink:href="#mb2c076b158" x="306.156818" y="93.369325" style="fill: #8c564b; stroke: #8c564b"/>
     <use xlink:href="#mb2c076b158" x="316.576688" y="93.369325" style="fill: #8c564b; stroke: #8c564b"/>
     <use xlink:href="#mb2c076b158" x="326.996558" y="93.369325" style="fill: #8c564b; stroke: #8c564b"/>
     <use xlink:href="#mb2c076b158" x="337.416429" y="93.369325" style="fill: #8c564b; stroke: #8c564b"/>
     <use xlink:href="#mb2c076b158" x="347.836299" y="93.369325" style="fill: #8c564b; stroke: #8c564b"/>
     <use xlink:href="#mb2c076b158" x="358.256169" y="93.369325" style="fill: #8c564b; stroke: #8c564b"/>
     <use xlink:href="#mb2c076b158" x="368.676039" y="93.369325" style="fill: #8c564b; stroke: #8c564b"/>
     <use xlink:href="#mb2c076b158" x="379.095909" y="93.369325" style="fill: #8c564b; stroke: #8c564b"/>
     <use xlink:href="#mb2c076b158" x="389.515779" y="93.369325" style="fill: #8c564b; stroke: #8c564b"/>
     <use xlink:href="#mb2c076b158" x="399.935649" y="93.369325" style="fill: #8c564b; stroke: #8c564b"/>
     <use xlink:href="#mb2c076b158" x="410.355519" y="61.709544" style="fill: #8c564b; stroke: #8c564b"/>
     <use xlink:href="#mb2c076b158" x="420.77539" y="61.709544" style="fill: #8c564b; stroke: #8c564b"/>
     <use xlink:href="#mb2c076b158" x="431.19526" y="61.709544" style="fill: #8c564b; stroke: #8c564b"/>
     <use xlink:href="#mb2c076b158" x="441.61513" y="61.709544" style="fill: #8c564b; stroke: #8c564b"/>
     <use xlink:href="#mb2c076b158" x="452.035" y="61.709544" style="fill: #8c564b; stroke: #8c564b"/>
     <use xlink:href="#mb2c076b158" x="462.45487" y="61.709544" style="fill: #8c564b; stroke: #8c564b"/>
     <use xlink:href="#mb2c076b158" x="472.87474" y="61.709544" style="fill: #8c564b; stroke: #8c564b"/>
     <use xlink:href="#mb2c076b158" x="483.29461" y="61.709544" style="fill: #8c564b; stroke: #8c564b"/>
     <use xlink:href="#mb2c076b158" x="493.714481" y="61.709544" style="fill: #8c564b; stroke: #8c564b"/>
     <use xlink:href="#mb2c076b158" x="504.134351" y="61.709544" style="fill: #8c564b; stroke: #8c564b"/>
     <use xlink:href="#mb2c076b158" x="514.554221" y="61.709544" style="fill: #8c564b; stroke: #8c564b"/>
     <use xlink:href="#mb2c076b158" x="524.974091" y="61.709544" style="fill: #8c564b; stroke: #8c564b"/>
     <use xlink:href="#mb2c076b158" x="535.393961" y="61.709544" style="fill: #8c564b; stroke: #8c564b"/>
     <use xlink:href="#mb2c076b158" x="545.813831" y="61.709544" style="fill: #8c564b; stroke: #8c564b"/>
     <use xlink:href="#mb2c076b158" x="556.233701" y="61.709544" style="fill: #8c564b; stroke: #8c564b"/>
     <use xlink:href="#mb2c076b158" x="566.653571" y="61.709544" style="fill: #8c564b; stroke: #8c564b"/>
     <use xlink:href="#mb2c076b158" x="577.073442" y="61.709544" style="fill: #8c564b; stroke: #8c564b"/>
     <use xlink:href="#mb2c076b158" x="587.493312" y="61.709544" style="fill: #8c564b; stroke: #8c564b"/>
     <use xlink:href="#mb2c076b158" x="597.913182" y="61.709544" style="fill: #8c564b; stroke: #8c564b"/>
     <use xlink:href="#mb2c076b158" x="608.333052" y="61.709544" style="fill: #8c564b; stroke: #8c564b"/>
     <use xlink:href="#mb2c076b158" x="618.752922" y="61.709544" style="fill: #8c564b; stroke: #8c564b"/>
     <use xlink:href="#mb2c076b158" x="629.172792" y="61.709544" style="fill: #8c564b; stroke: #8c564b"/>
     <use xlink:href="#mb2c076b158" x="639.592662" y="61.709544" style="fill: #8c564b; stroke: #8c564b"/>
     <use xlink:href="#mb2c076b158" x="650.012532" y="61.709544" style="fill: #8c564b; stroke: #8c564b"/>
     <use xlink:href="#mb2c076b158" x="660.432403" y="61.709544" style="fill: #8c564b; stroke: #8c564b"/>
     <use xlink:href="#mb2c076b158" x="670.852273" y="61.709544" style="fill: #8c564b; stroke: #8c564b"/>
     <use xlink:href="#mb2c076b158" x="681.272143" y="61.709544" style="fill: #8c564b; stroke: #8c564b"/>
     <use xlink:href="#mb2c076b158" x="691.692013" y="61.709544" style="fill: #8c564b; stroke: #8c564b"/>
     <use xlink:href="#mb2c076b158" x="702.111883" y="61.709544" style="fill: #8c564b; stroke: #8c564b"/>
     <use xlink:href="#mb2c076b158" x="712.531753" y="61.709544" style="fill: #8c564b; stroke: #8c564b"/>
     <use xlink:href="#mb2c076b158" x="722.951623" y="61.709544" style="fill: #8c564b; stroke: #8c564b"/>
     <use xlink:href="#mb2c076b158" x="733.371494" y="61.709544" style="fill: #8c564b; stroke: #8c564b"/>
     <use xlink:href="#mb2c076b158" x="743.791364" y="61.709544" style="fill: #8c564b; stroke: #8c564b"/>
     <use xlink:href="#mb2c076b158" x="754.211234" y="61.709544" style="fill: #8c564b; stroke: #8c564b"/>
     <use xlink:href="#mb2c076b158" x="764.631104" y="61.709544" style="fill: #8c564b; stroke: #8c564b"/>
     <use xlink:href="#mb2c076b158" x="775.050974" y="61.709544" style="fill: #8c564b; stroke: #8c564b"/>
     <use xlink:href="#mb2c076b158" x="785.470844" y="61.709544" style="fill: #8c564b; stroke: #8c564b"/>
     <use xlink:href="#mb2c076b158" x="795.890714" y="61.709544" style="fill: #8c564b; stroke: #8c564b"/>
     <use xlink:href="#mb2c076b158" x="806.310584" y="61.709544" style="fill: #8c564b; stroke: #8c564b"/>
     <use xlink:href="#mb2c076b158" x="816.730455" y="61.709544" style="fill: #8c564b; stroke: #8c564b"/>
    </g>
   </g>
   <g id="patch_3">
    <path d="M 50.87 404.12 
L 50.87 26.88 
" style="fill: none; stroke: #000000; stroke-width: 0.8; stroke-linejoin: miter; stroke-linecap: square"/>
   </g>
   <g id="patch_4">
    <path d="M 853.2 404.12 
L 853.2 26.88 
" style="fill: none; stroke: #000000; stroke-width: 0.8; stroke-linejoin: miter; stroke-linecap: square"/>
   </g>
   <g id="patch_5">
    <path d="M 50.87 404.12 
L 853.2 404.12 
" style="fill: none; stroke: #000000; stroke-width: 0.8; stroke-linejoin: miter; stroke-linecap: square"/>
   </g>
   <g id="patch_6">
    <path d="M 50.87 26.88 
L 853.2 26.88 
" style="fill: none; stroke: #000000; stroke-width: 0.8; stroke-linejoin: miter; stroke-linecap: square"/>
   </g>
   <g id="text_13">
    <!-- Standings -->
    <g transform="translate(422.18125 20.88) scale(0.12 -0.12)">
     <defs>
      <path id="DejaVuSans-74" d="M 1172 4494 
L 1172 3500 
L 2356 3500 
L 2356 3053 
L 1172 3053 
L 1172 1153 
Q 1172 725 1289 603 
Q 1406 481 1766 481 
L 2356 481 
L 2356 0 
L 1766 0 
Q 1100 0 847 248 
Q 594 497 594 1153 
L 594 3053 
L 172 3053 
L 172 3500 
L 594 3500 
L 594 4494 
L 1172 4494 
z
" transform="scale(0.015625)"/>
      <path id="DejaVuSans-61" d="M 2194 1759 
Q 1497 1759 1228 1600 
Q 959 1441 959 1056 
Q 959 750 1161 570 
Q 1363 391 1709 391 
Q 2188 391 2477 730 
Q 2766 1069 2766 1631 
L 2766 1759 
L 2194 1759 
z
M 3341 1997 
L 3341 0 
L 2766 0 
L 2766 531 
Q 2569 213 2275 61 
Q 1981 -91 1556 -91 
Q 1019 -91 701 211 
Q 384 513 384 1019 
Q 384 1609 779 1909 
Q 1175 2209 1959 2209 
L 2766 2209 
L 2766 2266 
Q 2766 2663 2505 2880 
Q 2244 3097 1772 3097 
Q 1472 3097 1187 3025 
Q 903 2953 641 2809 
L 641 3341 
Q 956 3463 1253 3523 
Q 1550 3584 1831 3584 
Q 2591 3584 2966 3190 
Q 3341 2797 3341 1997 
z
" transform="scale(0.015625)"/>
      <path id="DejaVuSans-6e" d="M 3513 2113 
L 3513 0 
L 2938 0 
L 2938 2094 
Q 2938 2591 2744 2837 
Q 2550 3084 2163 3084 
Q 1697 3084 1428 2787 
Q 1159 2491 1159 1978 
L 1159 0 
L 581 0 
L 581 3500 
L 1159 3500 
L 1159 2956 
Q 1366 3272 1645 3428 
Q 1925 3584 2291 3584 
Q 2894 3584 3203 3211 
Q 3513 2838 3513 2113 
z
" transform="scale(0.015625)"/>
      <path id="DejaVuSans-64" d="M 2906 2969 
L 2906 4863 
L 3481 4863 
L 3481 0 
L 2906 0 
L 2906 525 
Q 2725 213 2448 61 
Q 2172 -91 1784 -91 
Q 1150 -91 751 415 
Q 353 922 353 1747 
Q 353 2572 751 3078 
Q 1150 3584 1784 3584 
Q 2172 3584 2448 3432 
Q 2725 3281 2906 2969 
z
M 947 1747 
Q 947 1113 1208 752 
Q 1469 391 1925 391 
Q 2381 391 2643 752 
Q 2906 1113 2906 1747 
Q 2906 2381 2643 2742 
Q 2381 3103 1925 3103 
Q 1469 3103 1208 2742 
Q 947 2381 947 1747 
z
" transform="scale(0.015625)"/>
      <path id="DejaVuSans-69" d="M 603 3500 
L 1178 3500 
L 1178 0 
L 603 0 
L 603 3500 
z
M 603 4863 
L 1178 4863 
L 1178 4134 
L 603 4134 
L 603 4863 
z
" transform="scale(0.015625)"/>
      <path id="DejaVuSans-67" d="M 2906 1791 
Q 2906 2416 2648 2759 
Q 2391 3103 1925 3103 
Q 1463 3103 1205 2759 
Q 947 2416 947 1791 
Q 947 1169 1205 825 
Q 1463 481 1925 481 
Q 2391 481 2648 825 
Q 2906 1169 2906 1791 
z
M 3481 434 
Q 3481 -459 3084 -895 
Q 2688 -1331 1869 -1331 
Q 1566 -1331 1297 -1286 
Q 1028 -1241 775 -1147 
L 775 -588 
Q 1028 -725 1275 -790 
Q 1522 -856 1778 -856 
Q 2344 -856 2625 -561 
Q 2906 -266 2906 331 
L 2906 616 
Q 2728 306 2450 153 
Q 2172 0 1784 0 
Q 1141 0 747 490 
Q 353 981 353 1791 
Q 353 2603 747 3093 
Q 1141 3584 1784 3584 
Q 2172 3584 2450 3431 
Q 2728 3278 2906 2969 
L 2906 3500 
L 3481 3500 
L 3481 434 
z
" transform="scale(0.015625)"/>
      <path id="DejaVuSans-73" d="M 2834 3397 
L 2834 2853 
Q 2591 2978 2328 3040 
Q 2066 3103 1784 3103 
Q 1356 3103 1142 2972 
Q 928 2841 928 2578 
Q 928 2378 1081 2264 
Q 1234 2150 1697 2047 
L 1894 2003 
Q 2506 1872 2764 1633 
Q 3022 1394 3022 966 
Q 3022 478 2636 193 
Q 2250 -91 1575 -91 
Q 1294 -91 989 -36 
Q 684 19 347 128 
L 347 722 
Q 666 556 975 473 
Q 1284 391 1588 391 
Q 1994 391 2212 530 
Q 2431 669 2431 922 
Q 2431 1156 2273 1281 
Q 2116 1406 1581 1522 
L 1381 1569 
Q 847 1681 609 1914 
Q 372 2147 372 2553 
Q 372 3047 722 3315 
Q 1072 3584 1716 3584 
Q 2034 3584 2315 3537 
Q 2597 3491 2834 3397 
z
" transform="scale(0.015625)"/>
     </defs>
     <use xlink:href="#DejaVuSans-53"/>
     <use xlink:href="#DejaVuSans-74" x="63.476562"/>
     <use xlink:href="#DejaVuSans-61" x="102.685547"/>
     <use xlink:href="#DejaVuSans-6e" x="163.964844"/>
     <use xlink:href="#DejaVuSans-64" x="227.34375"/>
     <use xlink:href="#DejaVuSans-69" x="290.820312"/>
     <use xlink:href="#DejaVuSans-6e" x="318.603516"/>
     <use xlink:href="#DejaVuSans-67" x="381.982422"/>
     <use xlink:href="#DejaVuSans-73" x="445.458984"/>
    </g>
   </g>
   <g id="legend_1">
    <g id="patch_7">
     <path d="M 57.87 122.94875 
L 143.37 122.94875 
Q 145.37 122.94875 145.37 120.94875 
L 145.37 33.88 
Q 145.37 31.88 143.37 31.88 
L 57.87 31.88 
Q 55.87 31.88 55.87 33.88 
L 55.87 120.94875 
Q 55.87 122.94875 57.87 122.94875 
z
" style="fill: #ffffff; opacity: 0.8; stroke: #cccccc; stroke-linejoin: miter"/>
    </g>
    <g id="line2d_29">
     <path d="M 59.87 39.978438 
L 69.87 39.978438 
L 79.87 39.978438 
" style="fill: none; stroke: #1f77b4; stroke-width: 1.5; stroke-linecap: square"/>
     <g>
      <use xlink:href="#mebfdab6277" x="69.87" y="39.978438" style="fill: #1f77b4; stroke: #1f77b4"/>
     </g>
    </g>
    <g id="text_14">
     <!-- Matias BN -->
     <g transform="translate(87.87 43.478438) scale(0.1 -0.1)">
      <defs>
       <path id="DejaVuSans-4d" d="M 628 4666 
L 1569 4666 
L 2759 1491 
L 3956 4666 
L 4897 4666 
L 4897 0 
L 4281 0 
L 4281 4097 
L 3078 897 
L 2444 897 
L 1241 4097 
L 1241 0 
L 628 0 
L 628 4666 
z
" transform="scale(0.015625)"/>
       <path id="DejaVuSans-20" transform="scale(0.015625)"/>
       <path id="DejaVuSans-42" d="M 1259 2228 
L 1259 519 
L 2272 519 
Q 2781 519 3026 730 
Q 3272 941 3272 1375 
Q 3272 1813 3026 2020 
Q 2781 2228 2272 2228 
L 1259 2228 
z
M 1259 4147 
L 1259 2741 
L 2194 2741 
Q 2656 2741 2882 2914 
Q 3109 3088 3109 3444 
Q 3109 3797 2882 3972 
Q 2656 4147 2194 4147 
L 1259 4147 
z
M 628 4666 
L 2241 4666 
Q 2963 4666 3353 4366 
Q 3744 4066 3744 3513 
Q 3744 3084 3544 2831 
Q 3344 2578 2956 2516 
Q 3422 2416 3680 2098 
Q 3938 1781 3938 1306 
Q 3938 681 3513 340 
Q 3088 0 2303 0 
L 628 0 
L 628 4666 
z
" transform="scale(0.015625)"/>
       <path id="DejaVuSans-4e" d="M 628 4666 
L 1478 4666 
L 3547 763 
L 3547 4666 
L 4159 4666 
L 4159 0 
L 3309 0 
L 1241 3903 
L 1241 0 
L 628 0 
L 628 4666 
z
" transform="scale(0.015625)"/>
      </defs>
      <use xlink:href="#DejaVuSans-4d"/>
      <use xlink:href="#DejaVuSans-61" x="86.279297"/>
      <use xlink:href="#DejaVuSans-74" x="147.558594"/>
      <use xlink:href="#DejaVuSans-69" x="186.767578"/>
      <use xlink:href="#DejaVuSans-61" x="214.550781"/>
      <use xlink:href="#DejaVuSans-73" x="275.830078"/>
      <use xlink:href="#DejaVuSans-20" x="327.929688"/>
      <use xlink:href="#DejaVuSans-42" x="359.716797"/>
      <use xlink:href="#DejaVuSans-4e" x="428.320312"/>
     </g>
    </g>
    <g id="line2d_30">
     <path d="M 59.87 54.656563 
L 69.87 54.656563 
L 79.87 54.656563 
" style="fill: none; stroke: #ff7f0e; stroke-width: 1.5; stroke-linecap: square"/>
     <g>
      <use xlink:href="#m1494a0260f" x="69.87" y="54.656563" style="fill: #ff7f0e; stroke: #ff7f0e"/>
     </g>
    </g>
    <g id="text_15">
     <!-- Mattias Ra -->
     <g transform="translate(87.87 58.156563) scale(0.1 -0.1)">
      <defs>
       <path id="DejaVuSans-52" d="M 2841 2188 
Q 3044 2119 3236 1894 
Q 3428 1669 3622 1275 
L 4263 0 
L 3584 0 
L 2988 1197 
Q 2756 1666 2539 1819 
Q 2322 1972 1947 1972 
L 1259 1972 
L 1259 0 
L 628 0 
L 628 4666 
L 2053 4666 
Q 2853 4666 3247 4331 
Q 3641 3997 3641 3322 
Q 3641 2881 3436 2590 
Q 3231 2300 2841 2188 
z
M 1259 4147 
L 1259 2491 
L 2053 2491 
Q 2509 2491 2742 2702 
Q 2975 2913 2975 3322 
Q 2975 3731 2742 3939 
Q 2509 4147 2053 4147 
L 1259 4147 
z
" transform="scale(0.015625)"/>
      </defs>
      <use xlink:href="#DejaVuSans-4d"/>
      <use xlink:href="#DejaVuSans-61" x="86.279297"/>
      <use xlink:href="#DejaVuSans-74" x="147.558594"/>
      <use xlink:href="#DejaVuSans-74" x="186.767578"/>
      <use xlink:href="#DejaVuSans-69" x="225.976562"/>
      <use xlink:href="#DejaVuSans-61" x="253.759766"/>
      <use xlink:href="#DejaVuSans-73" x="315.039062"/>
      <use xlink:href="#DejaVuSans-20" x="367.138672"/>
      <use xlink:href="#DejaVuSans-52" x="398.925781"/>
      <use xlink:href="#DejaVuSans-61" x="466.158203"/>
     </g>
    </g>
    <g id="line2d_31">
     <path d="M 59.87 69.334688 
L 69.87 69.334688 
L 79.87 69.334688 
" style="fill: none; stroke: #2ca02c; stroke-width: 1.5; stroke-linecap: square"/>
     <g>
      <use xlink:href="#m6c62d41be0" x="69.87" y="69.334688" style="fill: #2ca02c; stroke: #2ca02c"/>
     </g>
    </g>
    <g id="text_16">
     <!-- Simon Bo -->
     <g transform="translate(87.87 72.834688) scale(0.1 -0.1)">
      <defs>
       <path id="DejaVuSans-6d" d="M 3328 2828 
Q 3544 3216 3844 3400 
Q 4144 3584 4550 3584 
Q 5097 3584 5394 3201 
Q 5691 2819 5691 2113 
L 5691 0 
L 5113 0 
L 5113 2094 
Q 5113 2597 4934 2840 
Q 4756 3084 4391 3084 
Q 3944 3084 3684 2787 
Q 3425 2491 3425 1978 
L 3425 0 
L 2847 0 
L 2847 2094 
Q 2847 2600 2669 2842 
Q 2491 3084 2119 3084 
Q 1678 3084 1418 2786 
Q 1159 2488 1159 1978 
L 1159 0 
L 581 0 
L 581 3500 
L 1159 3500 
L 1159 2956 
Q 1356 3278 1631 3431 
Q 1906 3584 2284 3584 
Q 2666 3584 2933 3390 
Q 3200 3197 3328 2828 
z
" transform="scale(0.015625)"/>
      </defs>
      <use xlink:href="#DejaVuSans-53"/>
      <use xlink:href="#DejaVuSans-69" x="63.476562"/>
      <use xlink:href="#DejaVuSans-6d" x="91.259766"/>
      <use xlink:href="#DejaVuSans-6f" x="188.671875"/>
      <use xlink:href="#DejaVuSans-6e" x="249.853516"/>
      <use xlink:href="#DejaVuSans-20" x="313.232422"/>
      <use xlink:href="#DejaVuSans-42" x="345.019531"/>
      <use xlink:href="#DejaVuSans-6f" x="413.623047"/>
     </g>
    </g>
    <g id="line2d_32">
     <path d="M 59.87 84.012813 
L 69.87 84.012813 
L 79.87 84.012813 
" style="fill: none; stroke: #d62728; stroke-width: 1.5; stroke-linecap: square"/>
     <g>
      <use xlink:href="#m1a3a7ca122" x="69.87" y="84.012813" style="fill: #d62728; stroke: #d62728"/>
     </g>
    </g>
    <g id="text_17">
     <!-- Kristian Se -->
     <g transform="translate(87.87 87.512813) scale(0.1 -0.1)">
      <defs>
       <path id="DejaVuSans-4b" d="M 628 4666 
L 1259 4666 
L 1259 2694 
L 3353 4666 
L 4166 4666 
L 1850 2491 
L 4331 0 
L 3500 0 
L 1259 2247 
L 1259 0 
L 628 0 
L 628 4666 
z
" transform="scale(0.015625)"/>
      </defs>
      <use xlink:href="#DejaVuSans-4b"/>
      <use xlink:href="#DejaVuSans-72" x="65.576172"/>
      <use xlink:href="#DejaVuSans-69" x="106.689453"/>
      <use xlink:href="#DejaVuSans-73" x="134.472656"/>
      <use xlink:href="#DejaVuSans-74" x="186.572266"/>
      <use xlink:href="#DejaVuSans-69" x="225.78125"/>
      <use xlink:href="#DejaVuSans-61" x="253.564453"/>
      <use xlink:href="#DejaVuSans-6e" x="314.84375"/>
      <use xlink:href="#DejaVuSans-20" x="378.222656"/>
      <use xlink:href="#DejaVuSans-53" x="410.009766"/>
      <use xlink:href="#DejaVuSans-65" x="473.486328"/>
     </g>
    </g>
    <g id="line2d_33">
     <path d="M 59.87 98.690938 
L 69.87 98.690938 
L 79.87 98.690938 
" style="fill: none; stroke: #9467bd; stroke-width: 1.5; stroke-linecap: square"/>
     <g>
      <use xlink:href="#m4a56d3baba" x="69.87" y="98.690938" style="fill: #9467bd; stroke: #9467bd"/>
     </g>
    </g>
    <g id="text_18">
     <!-- Jesper M -->
     <g transform="translate(87.87 102.190938) scale(0.1 -0.1)">
      <defs>
       <path id="DejaVuSans-4a" d="M 628 4666 
L 1259 4666 
L 1259 325 
Q 1259 -519 939 -900 
Q 619 -1281 -91 -1281 
L -331 -1281 
L -331 -750 
L -134 -750 
Q 284 -750 456 -515 
Q 628 -281 628 325 
L 628 4666 
z
" transform="scale(0.015625)"/>
       <path id="DejaVuSans-70" d="M 1159 525 
L 1159 -1331 
L 581 -1331 
L 581 3500 
L 1159 3500 
L 1159 2969 
Q 1341 3281 1617 3432 
Q 1894 3584 2278 3584 
Q 2916 3584 3314 3078 
Q 3713 2572 3713 1747 
Q 3713 922 3314 415 
Q 2916 -91 2278 -91 
Q 1894 -91 1617 61 
Q 1341 213 1159 525 
z
M 3116 1747 
Q 3116 2381 2855 2742 
Q 2594 3103 2138 3103 
Q 1681 3103 1420 2742 
Q 1159 2381 1159 1747 
Q 1159 1113 1420 752 
Q 1681 391 2138 391 
Q 2594 391 2855 752 
Q 3116 1113 3116 1747 
z
" transform="scale(0.015625)"/>
       <path id="DejaVuSans-f8" d="M 2828 2503 
L 1306 653 
Q 1434 522 1595 459 
Q 1756 397 1959 397 
Q 2419 397 2687 759 
Q 2956 1122 2956 1747 
Q 2956 1994 2925 2176 
Q 2894 2359 2828 2503 
z
M 2606 2841 
Q 2475 2969 2314 3033 
Q 2153 3097 1959 3097 
Q 1488 3097 1223 2730 
Q 959 2363 959 1703 
Q 959 1478 989 1306 
Q 1019 1134 1081 991 
L 2606 2841 
z
M 691 519 
Q 522 759 437 1067 
Q 353 1375 353 1747 
Q 353 2609 779 3096 
Q 1206 3584 1959 3584 
Q 2250 3584 2498 3504 
Q 2747 3425 2956 3263 
L 3391 3788 
L 3688 3541 
L 3231 2981 
Q 3397 2741 3481 2431 
Q 3566 2122 3566 1747 
Q 3566 888 3137 398 
Q 2709 -91 1959 -91 
Q 1659 -91 1407 -9 
Q 1156 72 959 231 
L 525 -294 
L 225 -50 
L 691 519 
z
" transform="scale(0.015625)"/>
      </defs>
      <use xlink:href="#DejaVuSans-4a"/>
      <use xlink:href="#DejaVuSans-65" x="29.492188"/>
      <use xlink:href="#DejaVuSans-73" x="91.015625"/>
      <use xlink:href="#DejaVuSans-70" x="143.115234"/>
      <use xlink:href="#DejaVuSans-65" x="206.591797"/>
      <use xlink:href="#DejaVuSans-72" x="268.115234"/>
      <use xlink:href="#DejaVuSans-20" x="309.228516"/>
      <use xlink:href="#DejaVuSans-4d" x="341.015625"/>
      <use xlink:href="#DejaVuSans-f8" x="427.294922"/>
     </g>
    </g>
    <g id="line2d_34">
     <path d="M 59.87 113.369063 
L 69.87 113.369063 
L 79.87 113.369063 
" style="fill: none; stroke: #8c564b; stroke-width: 1.5; stroke-linecap: square"/>
     <g>
      <use xlink:href="#mb2c076b158" x="69.87" y="113.369063" style="fill: #8c564b; stroke: #8c564b"/>
     </g>
    </g>
    <g id="text_19">
     <!-- Ayman Ka -->
     <g transform="translate(87.87 116.869063) scale(0.1 -0.1)">
      <defs>
       <path id="DejaVuSans-41" d="M 2188 4044 
L 1331 1722 
L 3047 1722 
L 2188 4044 
z
M 1831 4666 
L 2547 4666 
L 4325 0 
L 3669 0 
L 3244 1197 
L 1141 1197 
L 716 0 
L 50 0 
L 1831 4666 
z
" transform="scale(0.015625)"/>
       <path id="DejaVuSans-79" d="M 2059 -325 
Q 1816 -950 1584 -1140 
Q 1353 -1331 966 -1331 
L 506 -1331 
L 506 -850 
L 844 -850 
Q 1081 -850 1212 -737 
Q 1344 -625 1503 -206 
L 1606 56 
L 191 3500 
L 800 3500 
L 1894 763 
L 2988 3500 
L 3597 3500 
L 2059 -325 
z
" transform="scale(0.015625)"/>
      </defs>
      <use xlink:href="#DejaVuSans-41"/>
      <use xlink:href="#DejaVuSans-79" x="61.658203"/>
      <use xlink:href="#DejaVuSans-6d" x="120.837891"/>
      <use xlink:href="#DejaVuSans-61" x="218.25"/>
      <use xlink:href="#DejaVuSans-6e" x="279.529297"/>
      <use xlink:href="#DejaVuSans-20" x="342.908203"/>
      <use xlink:href="#DejaVuSans-4b" x="374.695312"/>
      <use xlink:href="#DejaVuSans-61" x="438.521484"/>
     </g>
    </g>
   </g>
  </g>
 </g>
 <defs>
  <clipPath id="p9ae0678881">
   <rect x="50.87" y="26.88" width="802.33" height="377.24"/>
  </clipPath>
 </defs>
</svg>
