<?xml version="1.0" encoding="utf-8" standalone="no"?>
<!DOCTYPE svg PUBLIC "-//W3C//DTD SVG 1.1//EN"
  "http://www.w3.org/Graphics/SVG/1.1/DTD/svg11.dtd">
<svg xmlns:xlink="http://www.w3.org/1999/xlink" width="864pt" height="432pt" viewBox="0 0 864 432" xmlns="http://www.w3.org/2000/svg" version="1.1">
 <metadata>
  <rdf:RDF xmlns:dc="http://purl.org/dc/elements/1.1/" xmlns:cc="http://creativecommons.org/ns#" xmlns:rdf="http://www.w3.org/1999/02/22-rdf-syntax-ns#">
   <cc:Work>
    <dc:type rdf:resource="http://purl.org/dc/dcmitype/StillImage"/>
    <dc:date>2024-07-18T01:41:57.424069</dc:date>
    <dc:format>image/svg+xml</dc:format>
    <dc:creator>
     <cc:Agent>
      <dc:title>Matplotlib v3.9.1, https://matplotlib.org/</dc:title>
     </cc:Agent>
    </dc:creator>
   </cc:Work>
  </rdf:RDF>
 </metadata>
 <defs>
  <style type="text/css">*{stroke-linejoin: round; stroke-linecap: butt}</style>
 </defs>
 <g id="figure_1">
  <g id="patch_1">
   <path d="M 0 432 
L 864 432 
L 864 0 
L 0 0 
z
" style="fill: #ffffff"/>
  </g>
  <g id="axes_1">
   <g id="patch_2">
    <path d="M 50.87 404.12 
L 853.2 404.12 
L 853.2 26.88 
L 50.87 26.88 
z
" style="fill: #ffffff"/>
   </g>
   <g id="matplotlib.axis_1">
    <g id="xtick_1">
     <g id="line2d_1">
      <path d="M 65.886872 404.12 
L 65.886872 26.88 
" clip-path="url(#p1002618133)" style="fill: none; stroke-dasharray: 2.96,1.28; stroke-dashoffset: 0; stroke: #b0b0b0; stroke-width: 0.8"/>
     </g>
     <g id="line2d_2">
      <defs>
       <path id="m901e334af9" d="M 0 0 
L 0 3.5 
" style="stroke: #000000; stroke-width: 0.8"/>
      </defs>
      <g>
       <use xlink:href="#m901e334af9" x="65.886872" y="404.12" style="stroke: #000000; stroke-width: 0.8"/>
      </g>
     </g>
     <g id="text_1">
      <!-- 2024-06-13 -->
      <g transform="translate(36.829059 418.718437) scale(0.1 -0.1)">
       <defs>
        <path id="DejaVuSans-32" d="M 1228 531 
L 3431 531 
L 3431 0 
L 469 0 
L 469 531 
Q 828 903 1448 1529 
Q 2069 2156 2228 2338 
Q 2531 2678 2651 2914 
Q 2772 3150 2772 3378 
Q 2772 3750 2511 3984 
Q 2250 4219 1831 4219 
Q 1534 4219 1204 4116 
Q 875 4013 500 3803 
L 500 4441 
Q 881 4594 1212 4672 
Q 1544 4750 1819 4750 
Q 2544 4750 2975 4387 
Q 3406 4025 3406 3419 
Q 3406 3131 3298 2873 
Q 3191 2616 2906 2266 
Q 2828 2175 2409 1742 
Q 1991 1309 1228 531 
z
" transform="scale(0.015625)"/>
        <path id="DejaVuSans-30" d="M 2034 4250 
Q 1547 4250 1301 3770 
Q 1056 3291 1056 2328 
Q 1056 1369 1301 889 
Q 1547 409 2034 409 
Q 2525 409 2770 889 
Q 3016 1369 3016 2328 
Q 3016 3291 2770 3770 
Q 2525 4250 2034 4250 
z
M 2034 4750 
Q 2819 4750 3233 4129 
Q 3647 3509 3647 2328 
Q 3647 1150 3233 529 
Q 2819 -91 2034 -91 
Q 1250 -91 836 529 
Q 422 1150 422 2328 
Q 422 3509 836 4129 
Q 1250 4750 2034 4750 
z
" transform="scale(0.015625)"/>
        <path id="DejaVuSans-34" d="M 2419 4116 
L 825 1625 
L 2419 1625 
L 2419 4116 
z
M 2253 4666 
L 3047 4666 
L 3047 1625 
L 3713 1625 
L 3713 1100 
L 3047 1100 
L 3047 0 
L 2419 0 
L 2419 1100 
L 313 1100 
L 313 1709 
L 2253 4666 
z
" transform="scale(0.015625)"/>
        <path id="DejaVuSans-2d" d="M 313 2009 
L 1997 2009 
L 1997 1497 
L 313 1497 
L 313 2009 
z
" transform="scale(0.015625)"/>
        <path id="DejaVuSans-36" d="M 2113 2584 
Q 1688 2584 1439 2293 
Q 1191 2003 1191 1497 
Q 1191 994 1439 701 
Q 1688 409 2113 409 
Q 2538 409 2786 701 
Q 3034 994 3034 1497 
Q 3034 2003 2786 2293 
Q 2538 2584 2113 2584 
z
M 3366 4563 
L 3366 3988 
Q 3128 4100 2886 4159 
Q 2644 4219 2406 4219 
Q 1781 4219 1451 3797 
Q 1122 3375 1075 2522 
Q 1259 2794 1537 2939 
Q 1816 3084 2150 3084 
Q 2853 3084 3261 2657 
Q 3669 2231 3669 1497 
Q 3669 778 3244 343 
Q 2819 -91 2113 -91 
Q 1303 -91 875 529 
Q 447 1150 447 2328 
Q 447 3434 972 4092 
Q 1497 4750 2381 4750 
Q 2619 4750 2861 4703 
Q 3103 4656 3366 4563 
z
" transform="scale(0.015625)"/>
        <path id="DejaVuSans-31" d="M 794 531 
L 1825 531 
L 1825 4091 
L 703 3866 
L 703 4441 
L 1819 4666 
L 2450 4666 
L 2450 531 
L 3481 531 
L 3481 0 
L 794 0 
L 794 531 
z
" transform="scale(0.015625)"/>
        <path id="DejaVuSans-33" d="M 2597 2516 
Q 3050 2419 3304 2112 
Q 3559 1806 3559 1356 
Q 3559 666 3084 287 
Q 2609 -91 1734 -91 
Q 1441 -91 1130 -33 
Q 819 25 488 141 
L 488 750 
Q 750 597 1062 519 
Q 1375 441 1716 441 
Q 2309 441 2620 675 
Q 2931 909 2931 1356 
Q 2931 1769 2642 2001 
Q 2353 2234 1838 2234 
L 1294 2234 
L 1294 2753 
L 1863 2753 
Q 2328 2753 2575 2939 
Q 2822 3125 2822 3475 
Q 2822 3834 2567 4026 
Q 2313 4219 1838 4219 
Q 1578 4219 1281 4162 
Q 984 4106 628 3988 
L 628 4550 
Q 988 4650 1302 4700 
Q 1616 4750 1894 4750 
Q 2613 4750 3031 4423 
Q 3450 4097 3450 3541 
Q 3450 3153 3228 2886 
Q 3006 2619 2597 2516 
z
" transform="scale(0.015625)"/>
       </defs>
       <use xlink:href="#DejaVuSans-32"/>
       <use xlink:href="#DejaVuSans-30" x="63.623047"/>
       <use xlink:href="#DejaVuSans-32" x="127.246094"/>
       <use xlink:href="#DejaVuSans-34" x="190.869141"/>
       <use xlink:href="#DejaVuSans-2d" x="254.492188"/>
       <use xlink:href="#DejaVuSans-30" x="290.576172"/>
       <use xlink:href="#DejaVuSans-36" x="354.199219"/>
       <use xlink:href="#DejaVuSans-2d" x="417.822266"/>
       <use xlink:href="#DejaVuSans-31" x="453.90625"/>
       <use xlink:href="#DejaVuSans-33" x="517.529297"/>
      </g>
     </g>
    </g>
    <g id="xtick_2">
     <g id="line2d_3">
      <path d="M 151.697567 404.12 
L 151.697567 26.88 
" clip-path="url(#p1002618133)" style="fill: none; stroke-dasharray: 2.96,1.28; stroke-dashoffset: 0; stroke: #b0b0b0; stroke-width: 0.8"/>
     </g>
     <g id="line2d_4">
      <g>
       <use xlink:href="#m901e334af9" x="151.697567" y="404.12" style="stroke: #000000; stroke-width: 0.8"/>
      </g>
     </g>
     <g id="text_2">
      <!-- 2024-06-17 -->
      <g transform="translate(122.639754 418.718437) scale(0.1 -0.1)">
       <defs>
        <path id="DejaVuSans-37" d="M 525 4666 
L 3525 4666 
L 3525 4397 
L 1831 0 
L 1172 0 
L 2766 4134 
L 525 4134 
L 525 4666 
z
" transform="scale(0.015625)"/>
       </defs>
       <use xlink:href="#DejaVuSans-32"/>
       <use xlink:href="#DejaVuSans-30" x="63.623047"/>
       <use xlink:href="#DejaVuSans-32" x="127.246094"/>
       <use xlink:href="#DejaVuSans-34" x="190.869141"/>
       <use xlink:href="#DejaVuSans-2d" x="254.492188"/>
       <use xlink:href="#DejaVuSans-30" x="290.576172"/>
       <use xlink:href="#DejaVuSans-36" x="354.199219"/>
       <use xlink:href="#DejaVuSans-2d" x="417.822266"/>
       <use xlink:href="#DejaVuSans-31" x="453.90625"/>
       <use xlink:href="#DejaVuSans-37" x="517.529297"/>
      </g>
     </g>
    </g>
    <g id="xtick_3">
     <g id="line2d_5">
      <path d="M 237.508262 404.12 
L 237.508262 26.88 
" clip-path="url(#p1002618133)" style="fill: none; stroke-dasharray: 2.96,1.28; stroke-dashoffset: 0; stroke: #b0b0b0; stroke-width: 0.8"/>
     </g>
     <g id="line2d_6">
      <g>
       <use xlink:href="#m901e334af9" x="237.508262" y="404.12" style="stroke: #000000; stroke-width: 0.8"/>
      </g>
     </g>
     <g id="text_3">
      <!-- 2024-06-21 -->
      <g transform="translate(208.45045 418.718437) scale(0.1 -0.1)">
       <use xlink:href="#DejaVuSans-32"/>
       <use xlink:href="#DejaVuSans-30" x="63.623047"/>
       <use xlink:href="#DejaVuSans-32" x="127.246094"/>
       <use xlink:href="#DejaVuSans-34" x="190.869141"/>
       <use xlink:href="#DejaVuSans-2d" x="254.492188"/>
       <use xlink:href="#DejaVuSans-30" x="290.576172"/>
       <use xlink:href="#DejaVuSans-36" x="354.199219"/>
       <use xlink:href="#DejaVuSans-2d" x="417.822266"/>
       <use xlink:href="#DejaVuSans-32" x="453.90625"/>
       <use xlink:href="#DejaVuSans-31" x="517.529297"/>
      </g>
     </g>
    </g>
    <g id="xtick_4">
     <g id="line2d_7">
      <path d="M 323.318957 404.12 
L 323.318957 26.88 
" clip-path="url(#p1002618133)" style="fill: none; stroke-dasharray: 2.96,1.28; stroke-dashoffset: 0; stroke: #b0b0b0; stroke-width: 0.8"/>
     </g>
     <g id="line2d_8">
      <g>
       <use xlink:href="#m901e334af9" x="323.318957" y="404.12" style="stroke: #000000; stroke-width: 0.8"/>
      </g>
     </g>
     <g id="text_4">
      <!-- 2024-06-25 -->
      <g transform="translate(294.261145 418.718437) scale(0.1 -0.1)">
       <defs>
        <path id="DejaVuSans-35" d="M 691 4666 
L 3169 4666 
L 3169 4134 
L 1269 4134 
L 1269 2991 
Q 1406 3038 1543 3061 
Q 1681 3084 1819 3084 
Q 2600 3084 3056 2656 
Q 3513 2228 3513 1497 
Q 3513 744 3044 326 
Q 2575 -91 1722 -91 
Q 1428 -91 1123 -41 
Q 819 9 494 109 
L 494 744 
Q 775 591 1075 516 
Q 1375 441 1709 441 
Q 2250 441 2565 725 
Q 2881 1009 2881 1497 
Q 2881 1984 2565 2268 
Q 2250 2553 1709 2553 
Q 1456 2553 1204 2497 
Q 953 2441 691 2322 
L 691 4666 
z
" transform="scale(0.015625)"/>
       </defs>
       <use xlink:href="#DejaVuSans-32"/>
       <use xlink:href="#DejaVuSans-30" x="63.623047"/>
       <use xlink:href="#DejaVuSans-32" x="127.246094"/>
       <use xlink:href="#DejaVuSans-34" x="190.869141"/>
       <use xlink:href="#DejaVuSans-2d" x="254.492188"/>
       <use xlink:href="#DejaVuSans-30" x="290.576172"/>
       <use xlink:href="#DejaVuSans-36" x="354.199219"/>
       <use xlink:href="#DejaVuSans-2d" x="417.822266"/>
       <use xlink:href="#DejaVuSans-32" x="453.90625"/>
       <use xlink:href="#DejaVuSans-35" x="517.529297"/>
      </g>
     </g>
    </g>
    <g id="xtick_5">
     <g id="line2d_9">
      <path d="M 409.129652 404.12 
L 409.129652 26.88 
" clip-path="url(#p1002618133)" style="fill: none; stroke-dasharray: 2.96,1.28; stroke-dashoffset: 0; stroke: #b0b0b0; stroke-width: 0.8"/>
     </g>
     <g id="line2d_10">
      <g>
       <use xlink:href="#m901e334af9" x="409.129652" y="404.12" style="stroke: #000000; stroke-width: 0.8"/>
      </g>
     </g>
     <g id="text_5">
      <!-- 2024-06-29 -->
      <g transform="translate(380.07184 418.718437) scale(0.1 -0.1)">
       <defs>
        <path id="DejaVuSans-39" d="M 703 97 
L 703 672 
Q 941 559 1184 500 
Q 1428 441 1663 441 
Q 2288 441 2617 861 
Q 2947 1281 2994 2138 
Q 2813 1869 2534 1725 
Q 2256 1581 1919 1581 
Q 1219 1581 811 2004 
Q 403 2428 403 3163 
Q 403 3881 828 4315 
Q 1253 4750 1959 4750 
Q 2769 4750 3195 4129 
Q 3622 3509 3622 2328 
Q 3622 1225 3098 567 
Q 2575 -91 1691 -91 
Q 1453 -91 1209 -44 
Q 966 3 703 97 
z
M 1959 2075 
Q 2384 2075 2632 2365 
Q 2881 2656 2881 3163 
Q 2881 3666 2632 3958 
Q 2384 4250 1959 4250 
Q 1534 4250 1286 3958 
Q 1038 3666 1038 3163 
Q 1038 2656 1286 2365 
Q 1534 2075 1959 2075 
z
" transform="scale(0.015625)"/>
       </defs>
       <use xlink:href="#DejaVuSans-32"/>
       <use xlink:href="#DejaVuSans-30" x="63.623047"/>
       <use xlink:href="#DejaVuSans-32" x="127.246094"/>
       <use xlink:href="#DejaVuSans-34" x="190.869141"/>
       <use xlink:href="#DejaVuSans-2d" x="254.492188"/>
       <use xlink:href="#DejaVuSans-30" x="290.576172"/>
       <use xlink:href="#DejaVuSans-36" x="354.199219"/>
       <use xlink:href="#DejaVuSans-2d" x="417.822266"/>
       <use xlink:href="#DejaVuSans-32" x="453.90625"/>
       <use xlink:href="#DejaVuSans-39" x="517.529297"/>
      </g>
     </g>
    </g>
    <g id="xtick_6">
     <g id="line2d_11">
      <path d="M 452.035 404.12 
L 452.035 26.88 
" clip-path="url(#p1002618133)" style="fill: none; stroke-dasharray: 2.96,1.28; stroke-dashoffset: 0; stroke: #b0b0b0; stroke-width: 0.8"/>
     </g>
     <g id="line2d_12">
      <g>
       <use xlink:href="#m901e334af9" x="452.035" y="404.12" style="stroke: #000000; stroke-width: 0.8"/>
      </g>
     </g>
     <g id="text_6">
      <!-- 2024-07-01 -->
      <g transform="translate(422.977187 418.718437) scale(0.1 -0.1)">
       <use xlink:href="#DejaVuSans-32"/>
       <use xlink:href="#DejaVuSans-30" x="63.623047"/>
       <use xlink:href="#DejaVuSans-32" x="127.246094"/>
       <use xlink:href="#DejaVuSans-34" x="190.869141"/>
       <use xlink:href="#DejaVuSans-2d" x="254.492188"/>
       <use xlink:href="#DejaVuSans-30" x="290.576172"/>
       <use xlink:href="#DejaVuSans-37" x="354.199219"/>
       <use xlink:href="#DejaVuSans-2d" x="417.822266"/>
       <use xlink:href="#DejaVuSans-30" x="453.90625"/>
       <use xlink:href="#DejaVuSans-31" x="517.529297"/>
      </g>
     </g>
    </g>
    <g id="xtick_7">
     <g id="line2d_13">
      <path d="M 537.845695 404.12 
L 537.845695 26.88 
" clip-path="url(#p1002618133)" style="fill: none; stroke-dasharray: 2.96,1.28; stroke-dashoffset: 0; stroke: #b0b0b0; stroke-width: 0.8"/>
     </g>
     <g id="line2d_14">
      <g>
       <use xlink:href="#m901e334af9" x="537.845695" y="404.12" style="stroke: #000000; stroke-width: 0.8"/>
      </g>
     </g>
     <g id="text_7">
      <!-- 2024-07-05 -->
      <g transform="translate(508.787883 418.718437) scale(0.1 -0.1)">
       <use xlink:href="#DejaVuSans-32"/>
       <use xlink:href="#DejaVuSans-30" x="63.623047"/>
       <use xlink:href="#DejaVuSans-32" x="127.246094"/>
       <use xlink:href="#DejaVuSans-34" x="190.869141"/>
       <use xlink:href="#DejaVuSans-2d" x="254.492188"/>
       <use xlink:href="#DejaVuSans-30" x="290.576172"/>
       <use xlink:href="#DejaVuSans-37" x="354.199219"/>
       <use xlink:href="#DejaVuSans-2d" x="417.822266"/>
       <use xlink:href="#DejaVuSans-30" x="453.90625"/>
       <use xlink:href="#DejaVuSans-35" x="517.529297"/>
      </g>
     </g>
    </g>
    <g id="xtick_8">
     <g id="line2d_15">
      <path d="M 623.65639 404.12 
L 623.65639 26.88 
" clip-path="url(#p1002618133)" style="fill: none; stroke-dasharray: 2.96,1.28; stroke-dashoffset: 0; stroke: #b0b0b0; stroke-width: 0.8"/>
     </g>
     <g id="line2d_16">
      <g>
       <use xlink:href="#m901e334af9" x="623.65639" y="404.12" style="stroke: #000000; stroke-width: 0.8"/>
      </g>
     </g>
     <g id="text_8">
      <!-- 2024-07-09 -->
      <g transform="translate(594.598578 418.718437) scale(0.1 -0.1)">
       <use xlink:href="#DejaVuSans-32"/>
       <use xlink:href="#DejaVuSans-30" x="63.623047"/>
       <use xlink:href="#DejaVuSans-32" x="127.246094"/>
       <use xlink:href="#DejaVuSans-34" x="190.869141"/>
       <use xlink:href="#DejaVuSans-2d" x="254.492188"/>
       <use xlink:href="#DejaVuSans-30" x="290.576172"/>
       <use xlink:href="#DejaVuSans-37" x="354.199219"/>
       <use xlink:href="#DejaVuSans-2d" x="417.822266"/>
       <use xlink:href="#DejaVuSans-30" x="453.90625"/>
       <use xlink:href="#DejaVuSans-39" x="517.529297"/>
      </g>
     </g>
    </g>
    <g id="xtick_9">
     <g id="line2d_17">
      <path d="M 709.467086 404.12 
L 709.467086 26.88 
" clip-path="url(#p1002618133)" style="fill: none; stroke-dasharray: 2.96,1.28; stroke-dashoffset: 0; stroke: #b0b0b0; stroke-width: 0.8"/>
     </g>
     <g id="line2d_18">
      <g>
       <use xlink:href="#m901e334af9" x="709.467086" y="404.12" style="stroke: #000000; stroke-width: 0.8"/>
      </g>
     </g>
     <g id="text_9">
      <!-- 2024-07-13 -->
      <g transform="translate(680.409273 418.718437) scale(0.1 -0.1)">
       <use xlink:href="#DejaVuSans-32"/>
       <use xlink:href="#DejaVuSans-30" x="63.623047"/>
       <use xlink:href="#DejaVuSans-32" x="127.246094"/>
       <use xlink:href="#DejaVuSans-34" x="190.869141"/>
       <use xlink:href="#DejaVuSans-2d" x="254.492188"/>
       <use xlink:href="#DejaVuSans-30" x="290.576172"/>
       <use xlink:href="#DejaVuSans-37" x="354.199219"/>
       <use xlink:href="#DejaVuSans-2d" x="417.822266"/>
       <use xlink:href="#DejaVuSans-31" x="453.90625"/>
       <use xlink:href="#DejaVuSans-33" x="517.529297"/>
      </g>
     </g>
    </g>
    <g id="xtick_10">
     <g id="line2d_19">
      <path d="M 795.277781 404.12 
L 795.277781 26.88 
" clip-path="url(#p1002618133)" style="fill: none; stroke-dasharray: 2.96,1.28; stroke-dashoffset: 0; stroke: #b0b0b0; stroke-width: 0.8"/>
     </g>
     <g id="line2d_20">
      <g>
       <use xlink:href="#m901e334af9" x="795.277781" y="404.12" style="stroke: #000000; stroke-width: 0.8"/>
      </g>
     </g>
     <g id="text_10">
      <!-- 2024-07-17 -->
      <g transform="translate(766.219968 418.718437) scale(0.1 -0.1)">
       <use xlink:href="#DejaVuSans-32"/>
       <use xlink:href="#DejaVuSans-30" x="63.623047"/>
       <use xlink:href="#DejaVuSans-32" x="127.246094"/>
       <use xlink:href="#DejaVuSans-34" x="190.869141"/>
       <use xlink:href="#DejaVuSans-2d" x="254.492188"/>
       <use xlink:href="#DejaVuSans-30" x="290.576172"/>
       <use xlink:href="#DejaVuSans-37" x="354.199219"/>
       <use xlink:href="#DejaVuSans-2d" x="417.822266"/>
       <use xlink:href="#DejaVuSans-31" x="453.90625"/>
       <use xlink:href="#DejaVuSans-37" x="517.529297"/>
      </g>
     </g>
    </g>
   </g>
   <g id="matplotlib.axis_2">
    <g id="ytick_1">
     <g id="line2d_21">
      <path d="M 50.87 389.373147 
L 853.2 389.373147 
" clip-path="url(#p1002618133)" style="fill: none; stroke-dasharray: 2.96,1.28; stroke-dashoffset: 0; stroke: #b0b0b0; stroke-width: 0.8"/>
     </g>
     <g id="line2d_22">
      <defs>
       <path id="mc563916d0c" d="M 0 0 
L -3.5 0 
" style="stroke: #000000; stroke-width: 0.8"/>
      </defs>
      <g>
       <use xlink:href="#mc563916d0c" x="50.87" y="389.373147" style="stroke: #000000; stroke-width: 0.8"/>
      </g>
     </g>
     <g id="text_11">
      <!-- 0 -->
      <g transform="translate(37.5075 393.172366) scale(0.1 -0.1)">
       <use xlink:href="#DejaVuSans-30"/>
      </g>
     </g>
    </g>
    <g id="ytick_2">
     <g id="line2d_23">
      <path d="M 50.87 327.691842 
L 853.2 327.691842 
" clip-path="url(#p1002618133)" style="fill: none; stroke-dasharray: 2.96,1.28; stroke-dashoffset: 0; stroke: #b0b0b0; stroke-width: 0.8"/>
     </g>
     <g id="line2d_24">
      <g>
       <use xlink:href="#mc563916d0c" x="50.87" y="327.691842" style="stroke: #000000; stroke-width: 0.8"/>
      </g>
     </g>
     <g id="text_12">
      <!-- 50 -->
      <g transform="translate(31.145 331.491061) scale(0.1 -0.1)">
       <use xlink:href="#DejaVuSans-35"/>
       <use xlink:href="#DejaVuSans-30" x="63.623047"/>
      </g>
     </g>
    </g>
    <g id="ytick_3">
     <g id="line2d_25">
      <path d="M 50.87 266.010537 
L 853.2 266.010537 
" clip-path="url(#p1002618133)" style="fill: none; stroke-dasharray: 2.96,1.28; stroke-dashoffset: 0; stroke: #b0b0b0; stroke-width: 0.8"/>
     </g>
     <g id="line2d_26">
      <g>
       <use xlink:href="#mc563916d0c" x="50.87" y="266.010537" style="stroke: #000000; stroke-width: 0.8"/>
      </g>
     </g>
     <g id="text_13">
      <!-- 100 -->
      <g transform="translate(24.7825 269.809756) scale(0.1 -0.1)">
       <use xlink:href="#DejaVuSans-31"/>
       <use xlink:href="#DejaVuSans-30" x="63.623047"/>
       <use xlink:href="#DejaVuSans-30" x="127.246094"/>
      </g>
     </g>
    </g>
    <g id="ytick_4">
     <g id="line2d_27">
      <path d="M 50.87 204.329233 
L 853.2 204.329233 
" clip-path="url(#p1002618133)" style="fill: none; stroke-dasharray: 2.96,1.28; stroke-dashoffset: 0; stroke: #b0b0b0; stroke-width: 0.8"/>
     </g>
     <g id="line2d_28">
      <g>
       <use xlink:href="#mc563916d0c" x="50.87" y="204.329233" style="stroke: #000000; stroke-width: 0.8"/>
      </g>
     </g>
     <g id="text_14">
      <!-- 150 -->
      <g transform="translate(24.7825 208.128451) scale(0.1 -0.1)">
       <use xlink:href="#DejaVuSans-31"/>
       <use xlink:href="#DejaVuSans-35" x="63.623047"/>
       <use xlink:href="#DejaVuSans-30" x="127.246094"/>
      </g>
     </g>
    </g>
    <g id="ytick_5">
     <g id="line2d_29">
      <path d="M 50.87 142.647928 
L 853.2 142.647928 
" clip-path="url(#p1002618133)" style="fill: none; stroke-dasharray: 2.96,1.28; stroke-dashoffset: 0; stroke: #b0b0b0; stroke-width: 0.8"/>
     </g>
     <g id="line2d_30">
      <g>
       <use xlink:href="#mc563916d0c" x="50.87" y="142.647928" style="stroke: #000000; stroke-width: 0.8"/>
      </g>
     </g>
     <g id="text_15">
      <!-- 200 -->
      <g transform="translate(24.7825 146.447147) scale(0.1 -0.1)">
       <use xlink:href="#DejaVuSans-32"/>
       <use xlink:href="#DejaVuSans-30" x="63.623047"/>
       <use xlink:href="#DejaVuSans-30" x="127.246094"/>
      </g>
     </g>
    </g>
    <g id="ytick_6">
     <g id="line2d_31">
      <path d="M 50.87 80.966623 
L 853.2 80.966623 
" clip-path="url(#p1002618133)" style="fill: none; stroke-dasharray: 2.96,1.28; stroke-dashoffset: 0; stroke: #b0b0b0; stroke-width: 0.8"/>
     </g>
     <g id="line2d_32">
      <g>
       <use xlink:href="#mc563916d0c" x="50.87" y="80.966623" style="stroke: #000000; stroke-width: 0.8"/>
      </g>
     </g>
     <g id="text_16">
      <!-- 250 -->
      <g transform="translate(24.7825 84.765842) scale(0.1 -0.1)">
       <use xlink:href="#DejaVuSans-32"/>
       <use xlink:href="#DejaVuSans-35" x="63.623047"/>
       <use xlink:href="#DejaVuSans-30" x="127.246094"/>
      </g>
     </g>
    </g>
    <g id="text_17">
     <!-- Score -->
     <g transform="translate(18.702813 229.502344) rotate(-90) scale(0.1 -0.1)">
      <defs>
       <path id="DejaVuSans-53" d="M 3425 4513 
L 3425 3897 
Q 3066 4069 2747 4153 
Q 2428 4238 2131 4238 
Q 1616 4238 1336 4038 
Q 1056 3838 1056 3469 
Q 1056 3159 1242 3001 
Q 1428 2844 1947 2747 
L 2328 2669 
Q 3034 2534 3370 2195 
Q 3706 1856 3706 1288 
Q 3706 609 3251 259 
Q 2797 -91 1919 -91 
Q 1588 -91 1214 -16 
Q 841 59 441 206 
L 441 856 
Q 825 641 1194 531 
Q 1563 422 1919 422 
Q 2459 422 2753 634 
Q 3047 847 3047 1241 
Q 3047 1584 2836 1778 
Q 2625 1972 2144 2069 
L 1759 2144 
Q 1053 2284 737 2584 
Q 422 2884 422 3419 
Q 422 4038 858 4394 
Q 1294 4750 2059 4750 
Q 2388 4750 2728 4690 
Q 3069 4631 3425 4513 
z
" transform="scale(0.015625)"/>
       <path id="DejaVuSans-63" d="M 3122 3366 
L 3122 2828 
Q 2878 2963 2633 3030 
Q 2388 3097 2138 3097 
Q 1578 3097 1268 2742 
Q 959 2388 959 1747 
Q 959 1106 1268 751 
Q 1578 397 2138 397 
Q 2388 397 2633 464 
Q 2878 531 3122 666 
L 3122 134 
Q 2881 22 2623 -34 
Q 2366 -91 2075 -91 
Q 1284 -91 818 406 
Q 353 903 353 1747 
Q 353 2603 823 3093 
Q 1294 3584 2113 3584 
Q 2378 3584 2631 3529 
Q 2884 3475 3122 3366 
z
" transform="scale(0.015625)"/>
       <path id="DejaVuSans-6f" d="M 1959 3097 
Q 1497 3097 1228 2736 
Q 959 2375 959 1747 
Q 959 1119 1226 758 
Q 1494 397 1959 397 
Q 2419 397 2687 759 
Q 2956 1122 2956 1747 
Q 2956 2369 2687 2733 
Q 2419 3097 1959 3097 
z
M 1959 3584 
Q 2709 3584 3137 3096 
Q 3566 2609 3566 1747 
Q 3566 888 3137 398 
Q 2709 -91 1959 -91 
Q 1206 -91 779 398 
Q 353 888 353 1747 
Q 353 2609 779 3096 
Q 1206 3584 1959 3584 
z
" transform="scale(0.015625)"/>
       <path id="DejaVuSans-72" d="M 2631 2963 
Q 2534 3019 2420 3045 
Q 2306 3072 2169 3072 
Q 1681 3072 1420 2755 
Q 1159 2438 1159 1844 
L 1159 0 
L 581 0 
L 581 3500 
L 1159 3500 
L 1159 2956 
Q 1341 3275 1631 3429 
Q 1922 3584 2338 3584 
Q 2397 3584 2469 3576 
Q 2541 3569 2628 3553 
L 2631 2963 
z
" transform="scale(0.015625)"/>
       <path id="DejaVuSans-65" d="M 3597 1894 
L 3597 1613 
L 953 1613 
Q 991 1019 1311 708 
Q 1631 397 2203 397 
Q 2534 397 2845 478 
Q 3156 559 3463 722 
L 3463 178 
Q 3153 47 2828 -22 
Q 2503 -91 2169 -91 
Q 1331 -91 842 396 
Q 353 884 353 1716 
Q 353 2575 817 3079 
Q 1281 3584 2069 3584 
Q 2775 3584 3186 3129 
Q 3597 2675 3597 1894 
z
M 3022 2063 
Q 3016 2534 2758 2815 
Q 2500 3097 2075 3097 
Q 1594 3097 1305 2825 
Q 1016 2553 972 2059 
L 3022 2063 
z
" transform="scale(0.015625)"/>
      </defs>
      <use xlink:href="#DejaVuSans-53"/>
      <use xlink:href="#DejaVuSans-63" x="63.476562"/>
      <use xlink:href="#DejaVuSans-6f" x="118.457031"/>
      <use xlink:href="#DejaVuSans-72" x="179.638672"/>
      <use xlink:href="#DejaVuSans-65" x="218.501953"/>
     </g>
    </g>
   </g>
   <g id="line2d_33">
    <path d="M 87.339545 383.316459 
L 108.792219 352.475806 
L 130.244893 327.803284 
L 151.697567 315.467023 
L 173.150241 296.962632 
L 194.602914 275.990988 
L 216.055588 268.589232 
L 237.508262 259.953849 
L 258.960936 241.449457 
L 280.41361 220.477814 
L 301.866283 187.169909 
L 323.318957 169.899144 
L 344.771631 142.75937 
L 409.129652 142.75937 
L 430.582326 142.75937 
L 452.035 142.75937 
L 473.487674 142.75937 
L 494.940348 142.75937 
L 537.845695 142.75937 
L 559.298369 142.75937 
L 580.751043 142.75937 
L 602.203717 142.75937 
L 623.65639 142.75937 
L 645.109064 124.254978 
L 666.561738 124.254978 
L 688.014412 124.254978 
L 709.467086 124.254978 
L 730.919759 124.254978 
L 752.372433 81.078065 
L 773.825107 81.078065 
L 795.277781 81.078065 
L 816.730455 81.078065 
" clip-path="url(#p1002618133)" style="fill: none; stroke: #1f77b4; stroke-width: 1.5; stroke-linecap: square"/>
    <defs>
     <path id="med85606b93" d="M 0 3.5 
C 0.928211 3.5 1.81853 3.131218 2.474874 2.474874 
C 3.131218 1.81853 3.5 0.928211 3.5 0 
C 3.5 -0.928211 3.131218 -1.81853 2.474874 -2.474874 
C 1.81853 -3.131218 0.928211 -3.5 0 -3.5 
C -0.928211 -3.5 -1.81853 -3.131218 -2.474874 -2.474874 
C -3.131218 -1.81853 -3.5 -0.928211 -3.5 0 
C -3.5 0.928211 -3.131218 1.81853 -2.474874 2.474874 
C -1.81853 3.131218 -0.928211 3.5 0 3.5 
z
" style="stroke: #1f77b4"/>
    </defs>
    <g clip-path="url(#p1002618133)">
     <use xlink:href="#med85606b93" x="87.339545" y="383.316459" style="fill: #1f77b4; stroke: #1f77b4"/>
     <use xlink:href="#med85606b93" x="108.792219" y="352.475806" style="fill: #1f77b4; stroke: #1f77b4"/>
     <use xlink:href="#med85606b93" x="130.244893" y="327.803284" style="fill: #1f77b4; stroke: #1f77b4"/>
     <use xlink:href="#med85606b93" x="151.697567" y="315.467023" style="fill: #1f77b4; stroke: #1f77b4"/>
     <use xlink:href="#med85606b93" x="173.150241" y="296.962632" style="fill: #1f77b4; stroke: #1f77b4"/>
     <use xlink:href="#med85606b93" x="194.602914" y="275.990988" style="fill: #1f77b4; stroke: #1f77b4"/>
     <use xlink:href="#med85606b93" x="216.055588" y="268.589232" style="fill: #1f77b4; stroke: #1f77b4"/>
     <use xlink:href="#med85606b93" x="237.508262" y="259.953849" style="fill: #1f77b4; stroke: #1f77b4"/>
     <use xlink:href="#med85606b93" x="258.960936" y="241.449457" style="fill: #1f77b4; stroke: #1f77b4"/>
     <use xlink:href="#med85606b93" x="280.41361" y="220.477814" style="fill: #1f77b4; stroke: #1f77b4"/>
     <use xlink:href="#med85606b93" x="301.866283" y="187.169909" style="fill: #1f77b4; stroke: #1f77b4"/>
     <use xlink:href="#med85606b93" x="323.318957" y="169.899144" style="fill: #1f77b4; stroke: #1f77b4"/>
     <use xlink:href="#med85606b93" x="344.771631" y="142.75937" style="fill: #1f77b4; stroke: #1f77b4"/>
     <use xlink:href="#med85606b93" x="409.129652" y="142.75937" style="fill: #1f77b4; stroke: #1f77b4"/>
     <use xlink:href="#med85606b93" x="430.582326" y="142.75937" style="fill: #1f77b4; stroke: #1f77b4"/>
     <use xlink:href="#med85606b93" x="452.035" y="142.75937" style="fill: #1f77b4; stroke: #1f77b4"/>
     <use xlink:href="#med85606b93" x="473.487674" y="142.75937" style="fill: #1f77b4; stroke: #1f77b4"/>
     <use xlink:href="#med85606b93" x="494.940348" y="142.75937" style="fill: #1f77b4; stroke: #1f77b4"/>
     <use xlink:href="#med85606b93" x="537.845695" y="142.75937" style="fill: #1f77b4; stroke: #1f77b4"/>
     <use xlink:href="#med85606b93" x="559.298369" y="142.75937" style="fill: #1f77b4; stroke: #1f77b4"/>
     <use xlink:href="#med85606b93" x="580.751043" y="142.75937" style="fill: #1f77b4; stroke: #1f77b4"/>
     <use xlink:href="#med85606b93" x="602.203717" y="142.75937" style="fill: #1f77b4; stroke: #1f77b4"/>
     <use xlink:href="#med85606b93" x="623.65639" y="142.75937" style="fill: #1f77b4; stroke: #1f77b4"/>
     <use xlink:href="#med85606b93" x="645.109064" y="124.254978" style="fill: #1f77b4; stroke: #1f77b4"/>
     <use xlink:href="#med85606b93" x="666.561738" y="124.254978" style="fill: #1f77b4; stroke: #1f77b4"/>
     <use xlink:href="#med85606b93" x="688.014412" y="124.254978" style="fill: #1f77b4; stroke: #1f77b4"/>
     <use xlink:href="#med85606b93" x="709.467086" y="124.254978" style="fill: #1f77b4; stroke: #1f77b4"/>
     <use xlink:href="#med85606b93" x="730.919759" y="124.254978" style="fill: #1f77b4; stroke: #1f77b4"/>
     <use xlink:href="#med85606b93" x="752.372433" y="81.078065" style="fill: #1f77b4; stroke: #1f77b4"/>
     <use xlink:href="#med85606b93" x="773.825107" y="81.078065" style="fill: #1f77b4; stroke: #1f77b4"/>
     <use xlink:href="#med85606b93" x="795.277781" y="81.078065" style="fill: #1f77b4; stroke: #1f77b4"/>
     <use xlink:href="#med85606b93" x="816.730455" y="81.078065" style="fill: #1f77b4; stroke: #1f77b4"/>
    </g>
   </g>
   <g id="line2d_34">
    <path d="M 87.339545 383.203457 
L 108.792219 358.530935 
L 130.244893 343.727422 
L 151.697567 325.22303 
L 173.150241 300.550508 
L 194.602914 285.746995 
L 216.055588 261.074473 
L 237.508262 246.27096 
L 258.960936 215.430308 
L 280.41361 200.626795 
L 301.866283 175.954273 
L 323.318957 161.150759 
L 344.771631 111.805716 
L 409.129652 111.805716 
L 430.582326 111.805716 
L 452.035 111.805716 
L 473.487674 111.805716 
L 494.940348 111.805716 
L 537.845695 111.805716 
L 559.298369 111.805716 
L 580.751043 111.805716 
L 602.203717 111.805716 
L 623.65639 111.805716 
L 645.109064 111.805716 
L 666.561738 111.805716 
L 688.014412 111.805716 
L 709.467086 111.805716 
L 730.919759 111.805716 
L 752.372433 93.301324 
L 773.825107 93.301324 
L 795.277781 93.301324 
L 816.730455 93.301324 
" clip-path="url(#p1002618133)" style="fill: none; stroke: #ff7f0e; stroke-width: 1.5; stroke-linecap: square"/>
    <defs>
     <path id="m208f1bc459" d="M 0 3.5 
C 0.928211 3.5 1.81853 3.131218 2.474874 2.474874 
C 3.131218 1.81853 3.5 0.928211 3.5 0 
C 3.5 -0.928211 3.131218 -1.81853 2.474874 -2.474874 
C 1.81853 -3.131218 0.928211 -3.5 0 -3.5 
C -0.928211 -3.5 -1.81853 -3.131218 -2.474874 -2.474874 
C -3.131218 -1.81853 -3.5 -0.928211 -3.5 0 
C -3.5 0.928211 -3.131218 1.81853 -2.474874 2.474874 
C -1.81853 3.131218 -0.928211 3.5 0 3.5 
z
" style="stroke: #ff7f0e"/>
    </defs>
    <g clip-path="url(#p1002618133)">
     <use xlink:href="#m208f1bc459" x="87.339545" y="383.203457" style="fill: #ff7f0e; stroke: #ff7f0e"/>
     <use xlink:href="#m208f1bc459" x="108.792219" y="358.530935" style="fill: #ff7f0e; stroke: #ff7f0e"/>
     <use xlink:href="#m208f1bc459" x="130.244893" y="343.727422" style="fill: #ff7f0e; stroke: #ff7f0e"/>
     <use xlink:href="#m208f1bc459" x="151.697567" y="325.22303" style="fill: #ff7f0e; stroke: #ff7f0e"/>
     <use xlink:href="#m208f1bc459" x="173.150241" y="300.550508" style="fill: #ff7f0e; stroke: #ff7f0e"/>
     <use xlink:href="#m208f1bc459" x="194.602914" y="285.746995" style="fill: #ff7f0e; stroke: #ff7f0e"/>
     <use xlink:href="#m208f1bc459" x="216.055588" y="261.074473" style="fill: #ff7f0e; stroke: #ff7f0e"/>
     <use xlink:href="#m208f1bc459" x="237.508262" y="246.27096" style="fill: #ff7f0e; stroke: #ff7f0e"/>
     <use xlink:href="#m208f1bc459" x="258.960936" y="215.430308" style="fill: #ff7f0e; stroke: #ff7f0e"/>
     <use xlink:href="#m208f1bc459" x="280.41361" y="200.626795" style="fill: #ff7f0e; stroke: #ff7f0e"/>
     <use xlink:href="#m208f1bc459" x="301.866283" y="175.954273" style="fill: #ff7f0e; stroke: #ff7f0e"/>
     <use xlink:href="#m208f1bc459" x="323.318957" y="161.150759" style="fill: #ff7f0e; stroke: #ff7f0e"/>
     <use xlink:href="#m208f1bc459" x="344.771631" y="111.805716" style="fill: #ff7f0e; stroke: #ff7f0e"/>
     <use xlink:href="#m208f1bc459" x="409.129652" y="111.805716" style="fill: #ff7f0e; stroke: #ff7f0e"/>
     <use xlink:href="#m208f1bc459" x="430.582326" y="111.805716" style="fill: #ff7f0e; stroke: #ff7f0e"/>
     <use xlink:href="#m208f1bc459" x="452.035" y="111.805716" style="fill: #ff7f0e; stroke: #ff7f0e"/>
     <use xlink:href="#m208f1bc459" x="473.487674" y="111.805716" style="fill: #ff7f0e; stroke: #ff7f0e"/>
     <use xlink:href="#m208f1bc459" x="494.940348" y="111.805716" style="fill: #ff7f0e; stroke: #ff7f0e"/>
     <use xlink:href="#m208f1bc459" x="537.845695" y="111.805716" style="fill: #ff7f0e; stroke: #ff7f0e"/>
     <use xlink:href="#m208f1bc459" x="559.298369" y="111.805716" style="fill: #ff7f0e; stroke: #ff7f0e"/>
     <use xlink:href="#m208f1bc459" x="580.751043" y="111.805716" style="fill: #ff7f0e; stroke: #ff7f0e"/>
     <use xlink:href="#m208f1bc459" x="602.203717" y="111.805716" style="fill: #ff7f0e; stroke: #ff7f0e"/>
     <use xlink:href="#m208f1bc459" x="623.65639" y="111.805716" style="fill: #ff7f0e; stroke: #ff7f0e"/>
     <use xlink:href="#m208f1bc459" x="645.109064" y="111.805716" style="fill: #ff7f0e; stroke: #ff7f0e"/>
     <use xlink:href="#m208f1bc459" x="666.561738" y="111.805716" style="fill: #ff7f0e; stroke: #ff7f0e"/>
     <use xlink:href="#m208f1bc459" x="688.014412" y="111.805716" style="fill: #ff7f0e; stroke: #ff7f0e"/>
     <use xlink:href="#m208f1bc459" x="709.467086" y="111.805716" style="fill: #ff7f0e; stroke: #ff7f0e"/>
     <use xlink:href="#m208f1bc459" x="730.919759" y="111.805716" style="fill: #ff7f0e; stroke: #ff7f0e"/>
     <use xlink:href="#m208f1bc459" x="752.372433" y="93.301324" style="fill: #ff7f0e; stroke: #ff7f0e"/>
     <use xlink:href="#m208f1bc459" x="773.825107" y="93.301324" style="fill: #ff7f0e; stroke: #ff7f0e"/>
     <use xlink:href="#m208f1bc459" x="795.277781" y="93.301324" style="fill: #ff7f0e; stroke: #ff7f0e"/>
     <use xlink:href="#m208f1bc459" x="816.730455" y="93.301324" style="fill: #ff7f0e; stroke: #ff7f0e"/>
    </g>
   </g>
   <g id="line2d_35">
    <path d="M 87.339545 383.266004 
L 108.792219 352.425352 
L 130.244893 343.789969 
L 151.697567 337.621839 
L 173.150241 325.285578 
L 194.602914 301.846682 
L 216.055588 294.444925 
L 237.508262 279.641412 
L 258.960936 252.501638 
L 280.41361 231.529994 
L 301.866283 176.01682 
L 323.318957 161.213307 
L 344.771631 119.27002 
L 409.129652 119.27002 
L 430.582326 119.27002 
L 452.035 119.27002 
L 473.487674 119.27002 
L 494.940348 119.27002 
L 537.845695 119.27002 
L 559.298369 119.27002 
L 580.751043 119.27002 
L 602.203717 119.27002 
L 623.65639 119.27002 
L 645.109064 100.765628 
L 666.561738 100.765628 
L 688.014412 100.765628 
L 709.467086 100.765628 
L 730.919759 100.765628 
L 752.372433 82.261237 
L 773.825107 82.261237 
L 795.277781 82.261237 
L 816.730455 82.261237 
" clip-path="url(#p1002618133)" style="fill: none; stroke: #2ca02c; stroke-width: 1.5; stroke-linecap: square"/>
    <defs>
     <path id="m8835032340" d="M 0 3.5 
C 0.928211 3.5 1.81853 3.131218 2.474874 2.474874 
C 3.131218 1.81853 3.5 0.928211 3.5 0 
C 3.5 -0.928211 3.131218 -1.81853 2.474874 -2.474874 
C 1.81853 -3.131218 0.928211 -3.5 0 -3.5 
C -0.928211 -3.5 -1.81853 -3.131218 -2.474874 -2.474874 
C -3.131218 -1.81853 -3.5 -0.928211 -3.5 0 
C -3.5 0.928211 -3.131218 1.81853 -2.474874 2.474874 
C -1.81853 3.131218 -0.928211 3.5 0 3.5 
z
" style="stroke: #2ca02c"/>
    </defs>
    <g clip-path="url(#p1002618133)">
     <use xlink:href="#m8835032340" x="87.339545" y="383.266004" style="fill: #2ca02c; stroke: #2ca02c"/>
     <use xlink:href="#m8835032340" x="108.792219" y="352.425352" style="fill: #2ca02c; stroke: #2ca02c"/>
     <use xlink:href="#m8835032340" x="130.244893" y="343.789969" style="fill: #2ca02c; stroke: #2ca02c"/>
     <use xlink:href="#m8835032340" x="151.697567" y="337.621839" style="fill: #2ca02c; stroke: #2ca02c"/>
     <use xlink:href="#m8835032340" x="173.150241" y="325.285578" style="fill: #2ca02c; stroke: #2ca02c"/>
     <use xlink:href="#m8835032340" x="194.602914" y="301.846682" style="fill: #2ca02c; stroke: #2ca02c"/>
     <use xlink:href="#m8835032340" x="216.055588" y="294.444925" style="fill: #2ca02c; stroke: #2ca02c"/>
     <use xlink:href="#m8835032340" x="237.508262" y="279.641412" style="fill: #2ca02c; stroke: #2ca02c"/>
     <use xlink:href="#m8835032340" x="258.960936" y="252.501638" style="fill: #2ca02c; stroke: #2ca02c"/>
     <use xlink:href="#m8835032340" x="280.41361" y="231.529994" style="fill: #2ca02c; stroke: #2ca02c"/>
     <use xlink:href="#m8835032340" x="301.866283" y="176.01682" style="fill: #2ca02c; stroke: #2ca02c"/>
     <use xlink:href="#m8835032340" x="323.318957" y="161.213307" style="fill: #2ca02c; stroke: #2ca02c"/>
     <use xlink:href="#m8835032340" x="344.771631" y="119.27002" style="fill: #2ca02c; stroke: #2ca02c"/>
     <use xlink:href="#m8835032340" x="409.129652" y="119.27002" style="fill: #2ca02c; stroke: #2ca02c"/>
     <use xlink:href="#m8835032340" x="430.582326" y="119.27002" style="fill: #2ca02c; stroke: #2ca02c"/>
     <use xlink:href="#m8835032340" x="452.035" y="119.27002" style="fill: #2ca02c; stroke: #2ca02c"/>
     <use xlink:href="#m8835032340" x="473.487674" y="119.27002" style="fill: #2ca02c; stroke: #2ca02c"/>
     <use xlink:href="#m8835032340" x="494.940348" y="119.27002" style="fill: #2ca02c; stroke: #2ca02c"/>
     <use xlink:href="#m8835032340" x="537.845695" y="119.27002" style="fill: #2ca02c; stroke: #2ca02c"/>
     <use xlink:href="#m8835032340" x="559.298369" y="119.27002" style="fill: #2ca02c; stroke: #2ca02c"/>
     <use xlink:href="#m8835032340" x="580.751043" y="119.27002" style="fill: #2ca02c; stroke: #2ca02c"/>
     <use xlink:href="#m8835032340" x="602.203717" y="119.27002" style="fill: #2ca02c; stroke: #2ca02c"/>
     <use xlink:href="#m8835032340" x="623.65639" y="119.27002" style="fill: #2ca02c; stroke: #2ca02c"/>
     <use xlink:href="#m8835032340" x="645.109064" y="100.765628" style="fill: #2ca02c; stroke: #2ca02c"/>
     <use xlink:href="#m8835032340" x="666.561738" y="100.765628" style="fill: #2ca02c; stroke: #2ca02c"/>
     <use xlink:href="#m8835032340" x="688.014412" y="100.765628" style="fill: #2ca02c; stroke: #2ca02c"/>
     <use xlink:href="#m8835032340" x="709.467086" y="100.765628" style="fill: #2ca02c; stroke: #2ca02c"/>
     <use xlink:href="#m8835032340" x="730.919759" y="100.765628" style="fill: #2ca02c; stroke: #2ca02c"/>
     <use xlink:href="#m8835032340" x="752.372433" y="82.261237" style="fill: #2ca02c; stroke: #2ca02c"/>
     <use xlink:href="#m8835032340" x="773.825107" y="82.261237" style="fill: #2ca02c; stroke: #2ca02c"/>
     <use xlink:href="#m8835032340" x="795.277781" y="82.261237" style="fill: #2ca02c; stroke: #2ca02c"/>
     <use xlink:href="#m8835032340" x="816.730455" y="82.261237" style="fill: #2ca02c; stroke: #2ca02c"/>
    </g>
   </g>
   <g id="line2d_36">
    <path d="M 87.339545 383.180188 
L 108.792219 362.208544 
L 130.244893 347.405031 
L 151.697567 332.601518 
L 173.150241 326.433387 
L 194.602914 302.994491 
L 216.055588 291.891856 
L 237.508262 284.4901 
L 258.960936 259.817578 
L 280.41361 236.378682 
L 301.866283 199.369899 
L 323.318957 183.33276 
L 344.771631 156.192986 
L 409.129652 156.192986 
L 430.582326 156.192986 
L 452.035 156.192986 
L 473.487674 156.192986 
L 494.940348 156.192986 
L 537.845695 156.192986 
L 559.298369 156.192986 
L 580.751043 156.192986 
L 602.203717 156.192986 
L 623.65639 156.192986 
L 645.109064 137.688594 
L 666.561738 137.688594 
L 688.014412 137.688594 
L 709.467086 137.688594 
L 730.919759 137.688594 
L 752.372433 106.847942 
L 773.825107 106.847942 
L 795.277781 106.847942 
L 816.730455 106.847942 
" clip-path="url(#p1002618133)" style="fill: none; stroke: #d62728; stroke-width: 1.5; stroke-linecap: square"/>
    <defs>
     <path id="m98c98e547f" d="M 0 3.5 
C 0.928211 3.5 1.81853 3.131218 2.474874 2.474874 
C 3.131218 1.81853 3.5 0.928211 3.5 0 
C 3.5 -0.928211 3.131218 -1.81853 2.474874 -2.474874 
C 1.81853 -3.131218 0.928211 -3.5 0 -3.5 
C -0.928211 -3.5 -1.81853 -3.131218 -2.474874 -2.474874 
C -3.131218 -1.81853 -3.5 -0.928211 -3.5 0 
C -3.5 0.928211 -3.131218 1.81853 -2.474874 2.474874 
C -1.81853 3.131218 -0.928211 3.5 0 3.5 
z
" style="stroke: #d62728"/>
    </defs>
    <g clip-path="url(#p1002618133)">
     <use xlink:href="#m98c98e547f" x="87.339545" y="383.180188" style="fill: #d62728; stroke: #d62728"/>
     <use xlink:href="#m98c98e547f" x="108.792219" y="362.208544" style="fill: #d62728; stroke: #d62728"/>
     <use xlink:href="#m98c98e547f" x="130.244893" y="347.405031" style="fill: #d62728; stroke: #d62728"/>
     <use xlink:href="#m98c98e547f" x="151.697567" y="332.601518" style="fill: #d62728; stroke: #d62728"/>
     <use xlink:href="#m98c98e547f" x="173.150241" y="326.433387" style="fill: #d62728; stroke: #d62728"/>
     <use xlink:href="#m98c98e547f" x="194.602914" y="302.994491" style="fill: #d62728; stroke: #d62728"/>
     <use xlink:href="#m98c98e547f" x="216.055588" y="291.891856" style="fill: #d62728; stroke: #d62728"/>
     <use xlink:href="#m98c98e547f" x="237.508262" y="284.4901" style="fill: #d62728; stroke: #d62728"/>
     <use xlink:href="#m98c98e547f" x="258.960936" y="259.817578" style="fill: #d62728; stroke: #d62728"/>
     <use xlink:href="#m98c98e547f" x="280.41361" y="236.378682" style="fill: #d62728; stroke: #d62728"/>
     <use xlink:href="#m98c98e547f" x="301.866283" y="199.369899" style="fill: #d62728; stroke: #d62728"/>
     <use xlink:href="#m98c98e547f" x="323.318957" y="183.33276" style="fill: #d62728; stroke: #d62728"/>
     <use xlink:href="#m98c98e547f" x="344.771631" y="156.192986" style="fill: #d62728; stroke: #d62728"/>
     <use xlink:href="#m98c98e547f" x="409.129652" y="156.192986" style="fill: #d62728; stroke: #d62728"/>
     <use xlink:href="#m98c98e547f" x="430.582326" y="156.192986" style="fill: #d62728; stroke: #d62728"/>
     <use xlink:href="#m98c98e547f" x="452.035" y="156.192986" style="fill: #d62728; stroke: #d62728"/>
     <use xlink:href="#m98c98e547f" x="473.487674" y="156.192986" style="fill: #d62728; stroke: #d62728"/>
     <use xlink:href="#m98c98e547f" x="494.940348" y="156.192986" style="fill: #d62728; stroke: #d62728"/>
     <use xlink:href="#m98c98e547f" x="537.845695" y="156.192986" style="fill: #d62728; stroke: #d62728"/>
     <use xlink:href="#m98c98e547f" x="559.298369" y="156.192986" style="fill: #d62728; stroke: #d62728"/>
     <use xlink:href="#m98c98e547f" x="580.751043" y="156.192986" style="fill: #d62728; stroke: #d62728"/>
     <use xlink:href="#m98c98e547f" x="602.203717" y="156.192986" style="fill: #d62728; stroke: #d62728"/>
     <use xlink:href="#m98c98e547f" x="623.65639" y="156.192986" style="fill: #d62728; stroke: #d62728"/>
     <use xlink:href="#m98c98e547f" x="645.109064" y="137.688594" style="fill: #d62728; stroke: #d62728"/>
     <use xlink:href="#m98c98e547f" x="666.561738" y="137.688594" style="fill: #d62728; stroke: #d62728"/>
     <use xlink:href="#m98c98e547f" x="688.014412" y="137.688594" style="fill: #d62728; stroke: #d62728"/>
     <use xlink:href="#m98c98e547f" x="709.467086" y="137.688594" style="fill: #d62728; stroke: #d62728"/>
     <use xlink:href="#m98c98e547f" x="730.919759" y="137.688594" style="fill: #d62728; stroke: #d62728"/>
     <use xlink:href="#m98c98e547f" x="752.372433" y="106.847942" style="fill: #d62728; stroke: #d62728"/>
     <use xlink:href="#m98c98e547f" x="773.825107" y="106.847942" style="fill: #d62728; stroke: #d62728"/>
     <use xlink:href="#m98c98e547f" x="795.277781" y="106.847942" style="fill: #d62728; stroke: #d62728"/>
     <use xlink:href="#m98c98e547f" x="816.730455" y="106.847942" style="fill: #d62728; stroke: #d62728"/>
    </g>
   </g>
   <g id="line2d_37">
    <path d="M 87.339545 383.247547 
L 108.792219 349.939642 
L 130.244893 322.799868 
L 151.697567 307.996355 
L 173.150241 293.192842 
L 194.602914 278.389329 
L 216.055588 275.922077 
L 237.508262 254.950433 
L 258.960936 224.109781 
L 280.41361 200.670885 
L 301.866283 163.662102 
L 323.318957 148.858589 
L 344.771631 121.718815 
L 409.129652 121.718815 
L 430.582326 121.718815 
L 452.035 121.718815 
L 473.487674 121.718815 
L 494.940348 121.718815 
L 537.845695 121.718815 
L 559.298369 121.718815 
L 580.751043 121.718815 
L 602.203717 121.718815 
L 623.65639 121.718815 
L 645.109064 103.214423 
L 666.561738 103.214423 
L 688.014412 103.214423 
L 709.467086 103.214423 
L 730.919759 103.214423 
L 752.372433 78.541901 
L 773.825107 78.541901 
L 795.277781 78.541901 
L 816.730455 78.541901 
" clip-path="url(#p1002618133)" style="fill: none; stroke: #9467bd; stroke-width: 1.5; stroke-linecap: square"/>
    <defs>
     <path id="m269e8e0bcb" d="M 0 3.5 
C 0.928211 3.5 1.81853 3.131218 2.474874 2.474874 
C 3.131218 1.81853 3.5 0.928211 3.5 0 
C 3.5 -0.928211 3.131218 -1.81853 2.474874 -2.474874 
C 1.81853 -3.131218 0.928211 -3.5 0 -3.5 
C -0.928211 -3.5 -1.81853 -3.131218 -2.474874 -2.474874 
C -3.131218 -1.81853 -3.5 -0.928211 -3.5 0 
C -3.5 0.928211 -3.131218 1.81853 -2.474874 2.474874 
C -1.81853 3.131218 -0.928211 3.5 0 3.5 
z
" style="stroke: #9467bd"/>
    </defs>
    <g clip-path="url(#p1002618133)">
     <use xlink:href="#m269e8e0bcb" x="87.339545" y="383.247547" style="fill: #9467bd; stroke: #9467bd"/>
     <use xlink:href="#m269e8e0bcb" x="108.792219" y="349.939642" style="fill: #9467bd; stroke: #9467bd"/>
     <use xlink:href="#m269e8e0bcb" x="130.244893" y="322.799868" style="fill: #9467bd; stroke: #9467bd"/>
     <use xlink:href="#m269e8e0bcb" x="151.697567" y="307.996355" style="fill: #9467bd; stroke: #9467bd"/>
     <use xlink:href="#m269e8e0bcb" x="173.150241" y="293.192842" style="fill: #9467bd; stroke: #9467bd"/>
     <use xlink:href="#m269e8e0bcb" x="194.602914" y="278.389329" style="fill: #9467bd; stroke: #9467bd"/>
     <use xlink:href="#m269e8e0bcb" x="216.055588" y="275.922077" style="fill: #9467bd; stroke: #9467bd"/>
     <use xlink:href="#m269e8e0bcb" x="237.508262" y="254.950433" style="fill: #9467bd; stroke: #9467bd"/>
     <use xlink:href="#m269e8e0bcb" x="258.960936" y="224.109781" style="fill: #9467bd; stroke: #9467bd"/>
     <use xlink:href="#m269e8e0bcb" x="280.41361" y="200.670885" style="fill: #9467bd; stroke: #9467bd"/>
     <use xlink:href="#m269e8e0bcb" x="301.866283" y="163.662102" style="fill: #9467bd; stroke: #9467bd"/>
     <use xlink:href="#m269e8e0bcb" x="323.318957" y="148.858589" style="fill: #9467bd; stroke: #9467bd"/>
     <use xlink:href="#m269e8e0bcb" x="344.771631" y="121.718815" style="fill: #9467bd; stroke: #9467bd"/>
     <use xlink:href="#m269e8e0bcb" x="409.129652" y="121.718815" style="fill: #9467bd; stroke: #9467bd"/>
     <use xlink:href="#m269e8e0bcb" x="430.582326" y="121.718815" style="fill: #9467bd; stroke: #9467bd"/>
     <use xlink:href="#m269e8e0bcb" x="452.035" y="121.718815" style="fill: #9467bd; stroke: #9467bd"/>
     <use xlink:href="#m269e8e0bcb" x="473.487674" y="121.718815" style="fill: #9467bd; stroke: #9467bd"/>
     <use xlink:href="#m269e8e0bcb" x="494.940348" y="121.718815" style="fill: #9467bd; stroke: #9467bd"/>
     <use xlink:href="#m269e8e0bcb" x="537.845695" y="121.718815" style="fill: #9467bd; stroke: #9467bd"/>
     <use xlink:href="#m269e8e0bcb" x="559.298369" y="121.718815" style="fill: #9467bd; stroke: #9467bd"/>
     <use xlink:href="#m269e8e0bcb" x="580.751043" y="121.718815" style="fill: #9467bd; stroke: #9467bd"/>
     <use xlink:href="#m269e8e0bcb" x="602.203717" y="121.718815" style="fill: #9467bd; stroke: #9467bd"/>
     <use xlink:href="#m269e8e0bcb" x="623.65639" y="121.718815" style="fill: #9467bd; stroke: #9467bd"/>
     <use xlink:href="#m269e8e0bcb" x="645.109064" y="103.214423" style="fill: #9467bd; stroke: #9467bd"/>
     <use xlink:href="#m269e8e0bcb" x="666.561738" y="103.214423" style="fill: #9467bd; stroke: #9467bd"/>
     <use xlink:href="#m269e8e0bcb" x="688.014412" y="103.214423" style="fill: #9467bd; stroke: #9467bd"/>
     <use xlink:href="#m269e8e0bcb" x="709.467086" y="103.214423" style="fill: #9467bd; stroke: #9467bd"/>
     <use xlink:href="#m269e8e0bcb" x="730.919759" y="103.214423" style="fill: #9467bd; stroke: #9467bd"/>
     <use xlink:href="#m269e8e0bcb" x="752.372433" y="78.541901" style="fill: #9467bd; stroke: #9467bd"/>
     <use xlink:href="#m269e8e0bcb" x="773.825107" y="78.541901" style="fill: #9467bd; stroke: #9467bd"/>
     <use xlink:href="#m269e8e0bcb" x="795.277781" y="78.541901" style="fill: #9467bd; stroke: #9467bd"/>
     <use xlink:href="#m269e8e0bcb" x="816.730455" y="78.541901" style="fill: #9467bd; stroke: #9467bd"/>
    </g>
   </g>
   <g id="line2d_38">
    <path d="M 87.339545 383.274449 
L 108.792219 352.433797 
L 130.244893 327.761275 
L 151.697567 303.088753 
L 173.150241 284.584361 
L 194.602914 263.612718 
L 216.055588 261.145466 
L 237.508262 256.210961 
L 258.960936 213.034048 
L 280.41361 189.595152 
L 301.866283 158.7545 
L 323.318957 139.016482 
L 344.771631 81.036056 
L 409.129652 81.036056 
L 430.582326 81.036056 
L 452.035 81.036056 
L 473.487674 81.036056 
L 494.940348 81.036056 
L 537.845695 81.036056 
L 559.298369 81.036056 
L 580.751043 81.036056 
L 602.203717 81.036056 
L 623.65639 81.036056 
L 645.109064 62.531664 
L 666.561738 62.531664 
L 688.014412 62.531664 
L 709.467086 62.531664 
L 730.919759 62.531664 
L 752.372433 44.027273 
L 773.825107 44.027273 
L 795.277781 44.027273 
L 816.730455 44.027273 
" clip-path="url(#p1002618133)" style="fill: none; stroke: #8c564b; stroke-width: 1.5; stroke-linecap: square"/>
    <defs>
     <path id="m58fc0f0652" d="M 0 3.5 
C 0.928211 3.5 1.81853 3.131218 2.474874 2.474874 
C 3.131218 1.81853 3.5 0.928211 3.5 0 
C 3.5 -0.928211 3.131218 -1.81853 2.474874 -2.474874 
C 1.81853 -3.131218 0.928211 -3.5 0 -3.5 
C -0.928211 -3.5 -1.81853 -3.131218 -2.474874 -2.474874 
C -3.131218 -1.81853 -3.5 -0.928211 -3.5 0 
C -3.5 0.928211 -3.131218 1.81853 -2.474874 2.474874 
C -1.81853 3.131218 -0.928211 3.5 0 3.5 
z
" style="stroke: #8c564b"/>
    </defs>
    <g clip-path="url(#p1002618133)">
     <use xlink:href="#m58fc0f0652" x="87.339545" y="383.274449" style="fill: #8c564b; stroke: #8c564b"/>
     <use xlink:href="#m58fc0f0652" x="108.792219" y="352.433797" style="fill: #8c564b; stroke: #8c564b"/>
     <use xlink:href="#m58fc0f0652" x="130.244893" y="327.761275" style="fill: #8c564b; stroke: #8c564b"/>
     <use xlink:href="#m58fc0f0652" x="151.697567" y="303.088753" style="fill: #8c564b; stroke: #8c564b"/>
     <use xlink:href="#m58fc0f0652" x="173.150241" y="284.584361" style="fill: #8c564b; stroke: #8c564b"/>
     <use xlink:href="#m58fc0f0652" x="194.602914" y="263.612718" style="fill: #8c564b; stroke: #8c564b"/>
     <use xlink:href="#m58fc0f0652" x="216.055588" y="261.145466" style="fill: #8c564b; stroke: #8c564b"/>
     <use xlink:href="#m58fc0f0652" x="237.508262" y="256.210961" style="fill: #8c564b; stroke: #8c564b"/>
     <use xlink:href="#m58fc0f0652" x="258.960936" y="213.034048" style="fill: #8c564b; stroke: #8c564b"/>
     <use xlink:href="#m58fc0f0652" x="280.41361" y="189.595152" style="fill: #8c564b; stroke: #8c564b"/>
     <use xlink:href="#m58fc0f0652" x="301.866283" y="158.7545" style="fill: #8c564b; stroke: #8c564b"/>
     <use xlink:href="#m58fc0f0652" x="323.318957" y="139.016482" style="fill: #8c564b; stroke: #8c564b"/>
     <use xlink:href="#m58fc0f0652" x="344.771631" y="81.036056" style="fill: #8c564b; stroke: #8c564b"/>
     <use xlink:href="#m58fc0f0652" x="409.129652" y="81.036056" style="fill: #8c564b; stroke: #8c564b"/>
     <use xlink:href="#m58fc0f0652" x="430.582326" y="81.036056" style="fill: #8c564b; stroke: #8c564b"/>
     <use xlink:href="#m58fc0f0652" x="452.035" y="81.036056" style="fill: #8c564b; stroke: #8c564b"/>
     <use xlink:href="#m58fc0f0652" x="473.487674" y="81.036056" style="fill: #8c564b; stroke: #8c564b"/>
     <use xlink:href="#m58fc0f0652" x="494.940348" y="81.036056" style="fill: #8c564b; stroke: #8c564b"/>
     <use xlink:href="#m58fc0f0652" x="537.845695" y="81.036056" style="fill: #8c564b; stroke: #8c564b"/>
     <use xlink:href="#m58fc0f0652" x="559.298369" y="81.036056" style="fill: #8c564b; stroke: #8c564b"/>
     <use xlink:href="#m58fc0f0652" x="580.751043" y="81.036056" style="fill: #8c564b; stroke: #8c564b"/>
     <use xlink:href="#m58fc0f0652" x="602.203717" y="81.036056" style="fill: #8c564b; stroke: #8c564b"/>
     <use xlink:href="#m58fc0f0652" x="623.65639" y="81.036056" style="fill: #8c564b; stroke: #8c564b"/>
     <use xlink:href="#m58fc0f0652" x="645.109064" y="62.531664" style="fill: #8c564b; stroke: #8c564b"/>
     <use xlink:href="#m58fc0f0652" x="666.561738" y="62.531664" style="fill: #8c564b; stroke: #8c564b"/>
     <use xlink:href="#m58fc0f0652" x="688.014412" y="62.531664" style="fill: #8c564b; stroke: #8c564b"/>
     <use xlink:href="#m58fc0f0652" x="709.467086" y="62.531664" style="fill: #8c564b; stroke: #8c564b"/>
     <use xlink:href="#m58fc0f0652" x="730.919759" y="62.531664" style="fill: #8c564b; stroke: #8c564b"/>
     <use xlink:href="#m58fc0f0652" x="752.372433" y="44.027273" style="fill: #8c564b; stroke: #8c564b"/>
     <use xlink:href="#m58fc0f0652" x="773.825107" y="44.027273" style="fill: #8c564b; stroke: #8c564b"/>
     <use xlink:href="#m58fc0f0652" x="795.277781" y="44.027273" style="fill: #8c564b; stroke: #8c564b"/>
     <use xlink:href="#m58fc0f0652" x="816.730455" y="44.027273" style="fill: #8c564b; stroke: #8c564b"/>
    </g>
   </g>
   <g id="line2d_39">
    <path d="M 87.339545 386.972727 
L 108.792219 384.505475 
L 130.244893 382.038223 
L 151.697567 351.19757 
L 173.150241 345.02944 
L 194.602914 342.562188 
L 216.055588 317.889666 
L 237.508262 310.487909 
L 258.960936 298.151648 
L 280.41361 287.049014 
L 301.866283 268.544622 
L 323.318957 254.974735 
L 344.771631 188.358926 
L 409.129652 188.358926 
L 430.582326 188.358926 
L 452.035 188.358926 
L 473.487674 188.358926 
L 494.940348 188.358926 
L 537.845695 188.358926 
L 559.298369 188.358926 
L 580.751043 188.358926 
L 602.203717 188.358926 
L 623.65639 188.358926 
L 645.109064 188.358926 
L 666.561738 188.358926 
L 688.014412 188.358926 
L 709.467086 188.358926 
L 730.919759 188.358926 
L 752.372433 188.358926 
L 773.825107 188.358926 
L 795.277781 188.358926 
L 816.730455 188.358926 
" clip-path="url(#p1002618133)" style="fill: none; stroke: #e377c2; stroke-width: 1.5; stroke-linecap: square"/>
    <defs>
     <path id="m2c907ec409" d="M 0 3.5 
C 0.928211 3.5 1.81853 3.131218 2.474874 2.474874 
C 3.131218 1.81853 3.5 0.928211 3.5 0 
C 3.5 -0.928211 3.131218 -1.81853 2.474874 -2.474874 
C 1.81853 -3.131218 0.928211 -3.5 0 -3.5 
C -0.928211 -3.5 -1.81853 -3.131218 -2.474874 -2.474874 
C -3.131218 -1.81853 -3.5 -0.928211 -3.5 0 
C -3.5 0.928211 -3.131218 1.81853 -2.474874 2.474874 
C -1.81853 3.131218 -0.928211 3.5 0 3.5 
z
" style="stroke: #e377c2"/>
    </defs>
    <g clip-path="url(#p1002618133)">
     <use xlink:href="#m2c907ec409" x="87.339545" y="386.972727" style="fill: #e377c2; stroke: #e377c2"/>
     <use xlink:href="#m2c907ec409" x="108.792219" y="384.505475" style="fill: #e377c2; stroke: #e377c2"/>
     <use xlink:href="#m2c907ec409" x="130.244893" y="382.038223" style="fill: #e377c2; stroke: #e377c2"/>
     <use xlink:href="#m2c907ec409" x="151.697567" y="351.19757" style="fill: #e377c2; stroke: #e377c2"/>
     <use xlink:href="#m2c907ec409" x="173.150241" y="345.02944" style="fill: #e377c2; stroke: #e377c2"/>
     <use xlink:href="#m2c907ec409" x="194.602914" y="342.562188" style="fill: #e377c2; stroke: #e377c2"/>
     <use xlink:href="#m2c907ec409" x="216.055588" y="317.889666" style="fill: #e377c2; stroke: #e377c2"/>
     <use xlink:href="#m2c907ec409" x="237.508262" y="310.487909" style="fill: #e377c2; stroke: #e377c2"/>
     <use xlink:href="#m2c907ec409" x="258.960936" y="298.151648" style="fill: #e377c2; stroke: #e377c2"/>
     <use xlink:href="#m2c907ec409" x="280.41361" y="287.049014" style="fill: #e377c2; stroke: #e377c2"/>
     <use xlink:href="#m2c907ec409" x="301.866283" y="268.544622" style="fill: #e377c2; stroke: #e377c2"/>
     <use xlink:href="#m2c907ec409" x="323.318957" y="254.974735" style="fill: #e377c2; stroke: #e377c2"/>
     <use xlink:href="#m2c907ec409" x="344.771631" y="188.358926" style="fill: #e377c2; stroke: #e377c2"/>
     <use xlink:href="#m2c907ec409" x="409.129652" y="188.358926" style="fill: #e377c2; stroke: #e377c2"/>
     <use xlink:href="#m2c907ec409" x="430.582326" y="188.358926" style="fill: #e377c2; stroke: #e377c2"/>
     <use xlink:href="#m2c907ec409" x="452.035" y="188.358926" style="fill: #e377c2; stroke: #e377c2"/>
     <use xlink:href="#m2c907ec409" x="473.487674" y="188.358926" style="fill: #e377c2; stroke: #e377c2"/>
     <use xlink:href="#m2c907ec409" x="494.940348" y="188.358926" style="fill: #e377c2; stroke: #e377c2"/>
     <use xlink:href="#m2c907ec409" x="537.845695" y="188.358926" style="fill: #e377c2; stroke: #e377c2"/>
     <use xlink:href="#m2c907ec409" x="559.298369" y="188.358926" style="fill: #e377c2; stroke: #e377c2"/>
     <use xlink:href="#m2c907ec409" x="580.751043" y="188.358926" style="fill: #e377c2; stroke: #e377c2"/>
     <use xlink:href="#m2c907ec409" x="602.203717" y="188.358926" style="fill: #e377c2; stroke: #e377c2"/>
     <use xlink:href="#m2c907ec409" x="623.65639" y="188.358926" style="fill: #e377c2; stroke: #e377c2"/>
     <use xlink:href="#m2c907ec409" x="645.109064" y="188.358926" style="fill: #e377c2; stroke: #e377c2"/>
     <use xlink:href="#m2c907ec409" x="666.561738" y="188.358926" style="fill: #e377c2; stroke: #e377c2"/>
     <use xlink:href="#m2c907ec409" x="688.014412" y="188.358926" style="fill: #e377c2; stroke: #e377c2"/>
     <use xlink:href="#m2c907ec409" x="709.467086" y="188.358926" style="fill: #e377c2; stroke: #e377c2"/>
     <use xlink:href="#m2c907ec409" x="730.919759" y="188.358926" style="fill: #e377c2; stroke: #e377c2"/>
     <use xlink:href="#m2c907ec409" x="752.372433" y="188.358926" style="fill: #e377c2; stroke: #e377c2"/>
     <use xlink:href="#m2c907ec409" x="773.825107" y="188.358926" style="fill: #e377c2; stroke: #e377c2"/>
     <use xlink:href="#m2c907ec409" x="795.277781" y="188.358926" style="fill: #e377c2; stroke: #e377c2"/>
     <use xlink:href="#m2c907ec409" x="816.730455" y="188.358926" style="fill: #e377c2; stroke: #e377c2"/>
    </g>
   </g>
   <g id="line2d_40">
    <path d="M 87.339545 386.78276 
L 108.792219 359.642986 
L 130.244893 332.503212 
L 151.697567 323.867829 
L 173.150241 299.195307 
L 194.602914 275.756411 
L 216.055588 260.952898 
L 237.508262 258.485646 
L 258.960936 231.345872 
L 280.41361 225.177741 
L 301.866283 175.832698 
L 323.318957 162.262811 
L 344.771631 120.319523 
L 409.129652 120.319523 
L 430.582326 120.319523 
L 452.035 120.319523 
L 473.487674 120.319523 
L 494.940348 120.319523 
L 537.845695 120.319523 
L 559.298369 120.319523 
L 580.751043 120.319523 
L 602.203717 120.319523 
L 623.65639 120.319523 
L 645.109064 101.815132 
L 666.561738 101.815132 
L 688.014412 101.815132 
L 709.467086 101.815132 
L 730.919759 101.815132 
L 752.372433 95.647001 
L 773.825107 95.647001 
L 795.277781 95.647001 
L 816.730455 95.647001 
" clip-path="url(#p1002618133)" style="fill: none; stroke: #7f7f7f; stroke-width: 1.5; stroke-linecap: square"/>
    <defs>
     <path id="m345b83c6f7" d="M 0 3.5 
C 0.928211 3.5 1.81853 3.131218 2.474874 2.474874 
C 3.131218 1.81853 3.5 0.928211 3.5 0 
C 3.5 -0.928211 3.131218 -1.81853 2.474874 -2.474874 
C 1.81853 -3.131218 0.928211 -3.5 0 -3.5 
C -0.928211 -3.5 -1.81853 -3.131218 -2.474874 -2.474874 
C -3.131218 -1.81853 -3.5 -0.928211 -3.5 0 
C -3.5 0.928211 -3.131218 1.81853 -2.474874 2.474874 
C -1.81853 3.131218 -0.928211 3.5 0 3.5 
z
" style="stroke: #7f7f7f"/>
    </defs>
    <g clip-path="url(#p1002618133)">
     <use xlink:href="#m345b83c6f7" x="87.339545" y="386.78276" style="fill: #7f7f7f; stroke: #7f7f7f"/>
     <use xlink:href="#m345b83c6f7" x="108.792219" y="359.642986" style="fill: #7f7f7f; stroke: #7f7f7f"/>
     <use xlink:href="#m345b83c6f7" x="130.244893" y="332.503212" style="fill: #7f7f7f; stroke: #7f7f7f"/>
     <use xlink:href="#m345b83c6f7" x="151.697567" y="323.867829" style="fill: #7f7f7f; stroke: #7f7f7f"/>
     <use xlink:href="#m345b83c6f7" x="173.150241" y="299.195307" style="fill: #7f7f7f; stroke: #7f7f7f"/>
     <use xlink:href="#m345b83c6f7" x="194.602914" y="275.756411" style="fill: #7f7f7f; stroke: #7f7f7f"/>
     <use xlink:href="#m345b83c6f7" x="216.055588" y="260.952898" style="fill: #7f7f7f; stroke: #7f7f7f"/>
     <use xlink:href="#m345b83c6f7" x="237.508262" y="258.485646" style="fill: #7f7f7f; stroke: #7f7f7f"/>
     <use xlink:href="#m345b83c6f7" x="258.960936" y="231.345872" style="fill: #7f7f7f; stroke: #7f7f7f"/>
     <use xlink:href="#m345b83c6f7" x="280.41361" y="225.177741" style="fill: #7f7f7f; stroke: #7f7f7f"/>
     <use xlink:href="#m345b83c6f7" x="301.866283" y="175.832698" style="fill: #7f7f7f; stroke: #7f7f7f"/>
     <use xlink:href="#m345b83c6f7" x="323.318957" y="162.262811" style="fill: #7f7f7f; stroke: #7f7f7f"/>
     <use xlink:href="#m345b83c6f7" x="344.771631" y="120.319523" style="fill: #7f7f7f; stroke: #7f7f7f"/>
     <use xlink:href="#m345b83c6f7" x="409.129652" y="120.319523" style="fill: #7f7f7f; stroke: #7f7f7f"/>
     <use xlink:href="#m345b83c6f7" x="430.582326" y="120.319523" style="fill: #7f7f7f; stroke: #7f7f7f"/>
     <use xlink:href="#m345b83c6f7" x="452.035" y="120.319523" style="fill: #7f7f7f; stroke: #7f7f7f"/>
     <use xlink:href="#m345b83c6f7" x="473.487674" y="120.319523" style="fill: #7f7f7f; stroke: #7f7f7f"/>
     <use xlink:href="#m345b83c6f7" x="494.940348" y="120.319523" style="fill: #7f7f7f; stroke: #7f7f7f"/>
     <use xlink:href="#m345b83c6f7" x="537.845695" y="120.319523" style="fill: #7f7f7f; stroke: #7f7f7f"/>
     <use xlink:href="#m345b83c6f7" x="559.298369" y="120.319523" style="fill: #7f7f7f; stroke: #7f7f7f"/>
     <use xlink:href="#m345b83c6f7" x="580.751043" y="120.319523" style="fill: #7f7f7f; stroke: #7f7f7f"/>
     <use xlink:href="#m345b83c6f7" x="602.203717" y="120.319523" style="fill: #7f7f7f; stroke: #7f7f7f"/>
     <use xlink:href="#m345b83c6f7" x="623.65639" y="120.319523" style="fill: #7f7f7f; stroke: #7f7f7f"/>
     <use xlink:href="#m345b83c6f7" x="645.109064" y="101.815132" style="fill: #7f7f7f; stroke: #7f7f7f"/>
     <use xlink:href="#m345b83c6f7" x="666.561738" y="101.815132" style="fill: #7f7f7f; stroke: #7f7f7f"/>
     <use xlink:href="#m345b83c6f7" x="688.014412" y="101.815132" style="fill: #7f7f7f; stroke: #7f7f7f"/>
     <use xlink:href="#m345b83c6f7" x="709.467086" y="101.815132" style="fill: #7f7f7f; stroke: #7f7f7f"/>
     <use xlink:href="#m345b83c6f7" x="730.919759" y="101.815132" style="fill: #7f7f7f; stroke: #7f7f7f"/>
     <use xlink:href="#m345b83c6f7" x="752.372433" y="95.647001" style="fill: #7f7f7f; stroke: #7f7f7f"/>
     <use xlink:href="#m345b83c6f7" x="773.825107" y="95.647001" style="fill: #7f7f7f; stroke: #7f7f7f"/>
     <use xlink:href="#m345b83c6f7" x="795.277781" y="95.647001" style="fill: #7f7f7f; stroke: #7f7f7f"/>
     <use xlink:href="#m345b83c6f7" x="816.730455" y="95.647001" style="fill: #7f7f7f; stroke: #7f7f7f"/>
    </g>
   </g>
   <g id="line2d_41">
    <path d="M 87.339545 376.991173 
L 108.792219 364.654912 
L 130.244893 346.150521 
L 151.697567 331.347008 
L 173.150241 316.543495 
L 194.602914 283.23559 
L 216.055588 278.301086 
L 237.508262 267.198451 
L 258.960936 236.357798 
L 280.41361 211.685276 
L 301.866283 162.340233 
L 323.318957 147.536719 
L 344.771631 95.724423 
L 409.129652 95.724423 
L 430.582326 95.724423 
L 452.035 95.724423 
L 473.487674 95.724423 
L 494.940348 95.724423 
L 537.845695 95.724423 
L 559.298369 95.724423 
L 580.751043 95.724423 
L 602.203717 95.724423 
L 623.65639 95.724423 
L 645.109064 77.220032 
L 666.561738 77.220032 
L 688.014412 77.220032 
L 709.467086 77.220032 
L 730.919759 77.220032 
L 752.372433 77.220032 
L 773.825107 77.220032 
L 795.277781 77.220032 
L 816.730455 77.220032 
" clip-path="url(#p1002618133)" style="fill: none; stroke: #bcbd22; stroke-width: 1.5; stroke-linecap: square"/>
    <defs>
     <path id="m83956ba52e" d="M 0 3.5 
C 0.928211 3.5 1.81853 3.131218 2.474874 2.474874 
C 3.131218 1.81853 3.5 0.928211 3.5 0 
C 3.5 -0.928211 3.131218 -1.81853 2.474874 -2.474874 
C 1.81853 -3.131218 0.928211 -3.5 0 -3.5 
C -0.928211 -3.5 -1.81853 -3.131218 -2.474874 -2.474874 
C -3.131218 -1.81853 -3.5 -0.928211 -3.5 0 
C -3.5 0.928211 -3.131218 1.81853 -2.474874 2.474874 
C -1.81853 3.131218 -0.928211 3.5 0 3.5 
z
" style="stroke: #bcbd22"/>
    </defs>
    <g clip-path="url(#p1002618133)">
     <use xlink:href="#m83956ba52e" x="87.339545" y="376.991173" style="fill: #bcbd22; stroke: #bcbd22"/>
     <use xlink:href="#m83956ba52e" x="108.792219" y="364.654912" style="fill: #bcbd22; stroke: #bcbd22"/>
     <use xlink:href="#m83956ba52e" x="130.244893" y="346.150521" style="fill: #bcbd22; stroke: #bcbd22"/>
     <use xlink:href="#m83956ba52e" x="151.697567" y="331.347008" style="fill: #bcbd22; stroke: #bcbd22"/>
     <use xlink:href="#m83956ba52e" x="173.150241" y="316.543495" style="fill: #bcbd22; stroke: #bcbd22"/>
     <use xlink:href="#m83956ba52e" x="194.602914" y="283.23559" style="fill: #bcbd22; stroke: #bcbd22"/>
     <use xlink:href="#m83956ba52e" x="216.055588" y="278.301086" style="fill: #bcbd22; stroke: #bcbd22"/>
     <use xlink:href="#m83956ba52e" x="237.508262" y="267.198451" style="fill: #bcbd22; stroke: #bcbd22"/>
     <use xlink:href="#m83956ba52e" x="258.960936" y="236.357798" style="fill: #bcbd22; stroke: #bcbd22"/>
     <use xlink:href="#m83956ba52e" x="280.41361" y="211.685276" style="fill: #bcbd22; stroke: #bcbd22"/>
     <use xlink:href="#m83956ba52e" x="301.866283" y="162.340233" style="fill: #bcbd22; stroke: #bcbd22"/>
     <use xlink:href="#m83956ba52e" x="323.318957" y="147.536719" style="fill: #bcbd22; stroke: #bcbd22"/>
     <use xlink:href="#m83956ba52e" x="344.771631" y="95.724423" style="fill: #bcbd22; stroke: #bcbd22"/>
     <use xlink:href="#m83956ba52e" x="409.129652" y="95.724423" style="fill: #bcbd22; stroke: #bcbd22"/>
     <use xlink:href="#m83956ba52e" x="430.582326" y="95.724423" style="fill: #bcbd22; stroke: #bcbd22"/>
     <use xlink:href="#m83956ba52e" x="452.035" y="95.724423" style="fill: #bcbd22; stroke: #bcbd22"/>
     <use xlink:href="#m83956ba52e" x="473.487674" y="95.724423" style="fill: #bcbd22; stroke: #bcbd22"/>
     <use xlink:href="#m83956ba52e" x="494.940348" y="95.724423" style="fill: #bcbd22; stroke: #bcbd22"/>
     <use xlink:href="#m83956ba52e" x="537.845695" y="95.724423" style="fill: #bcbd22; stroke: #bcbd22"/>
     <use xlink:href="#m83956ba52e" x="559.298369" y="95.724423" style="fill: #bcbd22; stroke: #bcbd22"/>
     <use xlink:href="#m83956ba52e" x="580.751043" y="95.724423" style="fill: #bcbd22; stroke: #bcbd22"/>
     <use xlink:href="#m83956ba52e" x="602.203717" y="95.724423" style="fill: #bcbd22; stroke: #bcbd22"/>
     <use xlink:href="#m83956ba52e" x="623.65639" y="95.724423" style="fill: #bcbd22; stroke: #bcbd22"/>
     <use xlink:href="#m83956ba52e" x="645.109064" y="77.220032" style="fill: #bcbd22; stroke: #bcbd22"/>
     <use xlink:href="#m83956ba52e" x="666.561738" y="77.220032" style="fill: #bcbd22; stroke: #bcbd22"/>
     <use xlink:href="#m83956ba52e" x="688.014412" y="77.220032" style="fill: #bcbd22; stroke: #bcbd22"/>
     <use xlink:href="#m83956ba52e" x="709.467086" y="77.220032" style="fill: #bcbd22; stroke: #bcbd22"/>
     <use xlink:href="#m83956ba52e" x="730.919759" y="77.220032" style="fill: #bcbd22; stroke: #bcbd22"/>
     <use xlink:href="#m83956ba52e" x="752.372433" y="77.220032" style="fill: #bcbd22; stroke: #bcbd22"/>
     <use xlink:href="#m83956ba52e" x="773.825107" y="77.220032" style="fill: #bcbd22; stroke: #bcbd22"/>
     <use xlink:href="#m83956ba52e" x="795.277781" y="77.220032" style="fill: #bcbd22; stroke: #bcbd22"/>
     <use xlink:href="#m83956ba52e" x="816.730455" y="77.220032" style="fill: #bcbd22; stroke: #bcbd22"/>
    </g>
   </g>
   <g id="patch_3">
    <path d="M 50.87 404.12 
L 50.87 26.88 
" style="fill: none; stroke: #000000; stroke-width: 0.8; stroke-linejoin: miter; stroke-linecap: square"/>
   </g>
   <g id="patch_4">
    <path d="M 853.2 404.12 
L 853.2 26.88 
" style="fill: none; stroke: #000000; stroke-width: 0.8; stroke-linejoin: miter; stroke-linecap: square"/>
   </g>
   <g id="patch_5">
    <path d="M 50.87 404.12 
L 853.2 404.12 
" style="fill: none; stroke: #000000; stroke-width: 0.8; stroke-linejoin: miter; stroke-linecap: square"/>
   </g>
   <g id="patch_6">
    <path d="M 50.87 26.88 
L 853.2 26.88 
" style="fill: none; stroke: #000000; stroke-width: 0.8; stroke-linejoin: miter; stroke-linecap: square"/>
   </g>
   <g id="text_18">
    <!-- Standings -->
    <g transform="translate(422.18125 20.88) scale(0.12 -0.12)">
     <defs>
      <path id="DejaVuSans-74" d="M 1172 4494 
L 1172 3500 
L 2356 3500 
L 2356 3053 
L 1172 3053 
L 1172 1153 
Q 1172 725 1289 603 
Q 1406 481 1766 481 
L 2356 481 
L 2356 0 
L 1766 0 
Q 1100 0 847 248 
Q 594 497 594 1153 
L 594 3053 
L 172 3053 
L 172 3500 
L 594 3500 
L 594 4494 
L 1172 4494 
z
" transform="scale(0.015625)"/>
      <path id="DejaVuSans-61" d="M 2194 1759 
Q 1497 1759 1228 1600 
Q 959 1441 959 1056 
Q 959 750 1161 570 
Q 1363 391 1709 391 
Q 2188 391 2477 730 
Q 2766 1069 2766 1631 
L 2766 1759 
L 2194 1759 
z
M 3341 1997 
L 3341 0 
L 2766 0 
L 2766 531 
Q 2569 213 2275 61 
Q 1981 -91 1556 -91 
Q 1019 -91 701 211 
Q 384 513 384 1019 
Q 384 1609 779 1909 
Q 1175 2209 1959 2209 
L 2766 2209 
L 2766 2266 
Q 2766 2663 2505 2880 
Q 2244 3097 1772 3097 
Q 1472 3097 1187 3025 
Q 903 2953 641 2809 
L 641 3341 
Q 956 3463 1253 3523 
Q 1550 3584 1831 3584 
Q 2591 3584 2966 3190 
Q 3341 2797 3341 1997 
z
" transform="scale(0.015625)"/>
      <path id="DejaVuSans-6e" d="M 3513 2113 
L 3513 0 
L 2938 0 
L 2938 2094 
Q 2938 2591 2744 2837 
Q 2550 3084 2163 3084 
Q 1697 3084 1428 2787 
Q 1159 2491 1159 1978 
L 1159 0 
L 581 0 
L 581 3500 
L 1159 3500 
L 1159 2956 
Q 1366 3272 1645 3428 
Q 1925 3584 2291 3584 
Q 2894 3584 3203 3211 
Q 3513 2838 3513 2113 
z
" transform="scale(0.015625)"/>
      <path id="DejaVuSans-64" d="M 2906 2969 
L 2906 4863 
L 3481 4863 
L 3481 0 
L 2906 0 
L 2906 525 
Q 2725 213 2448 61 
Q 2172 -91 1784 -91 
Q 1150 -91 751 415 
Q 353 922 353 1747 
Q 353 2572 751 3078 
Q 1150 3584 1784 3584 
Q 2172 3584 2448 3432 
Q 2725 3281 2906 2969 
z
M 947 1747 
Q 947 1113 1208 752 
Q 1469 391 1925 391 
Q 2381 391 2643 752 
Q 2906 1113 2906 1747 
Q 2906 2381 2643 2742 
Q 2381 3103 1925 3103 
Q 1469 3103 1208 2742 
Q 947 2381 947 1747 
z
" transform="scale(0.015625)"/>
      <path id="DejaVuSans-69" d="M 603 3500 
L 1178 3500 
L 1178 0 
L 603 0 
L 603 3500 
z
M 603 4863 
L 1178 4863 
L 1178 4134 
L 603 4134 
L 603 4863 
z
" transform="scale(0.015625)"/>
      <path id="DejaVuSans-67" d="M 2906 1791 
Q 2906 2416 2648 2759 
Q 2391 3103 1925 3103 
Q 1463 3103 1205 2759 
Q 947 2416 947 1791 
Q 947 1169 1205 825 
Q 1463 481 1925 481 
Q 2391 481 2648 825 
Q 2906 1169 2906 1791 
z
M 3481 434 
Q 3481 -459 3084 -895 
Q 2688 -1331 1869 -1331 
Q 1566 -1331 1297 -1286 
Q 1028 -1241 775 -1147 
L 775 -588 
Q 1028 -725 1275 -790 
Q 1522 -856 1778 -856 
Q 2344 -856 2625 -561 
Q 2906 -266 2906 331 
L 2906 616 
Q 2728 306 2450 153 
Q 2172 0 1784 0 
Q 1141 0 747 490 
Q 353 981 353 1791 
Q 353 2603 747 3093 
Q 1141 3584 1784 3584 
Q 2172 3584 2450 3431 
Q 2728 3278 2906 2969 
L 2906 3500 
L 3481 3500 
L 3481 434 
z
" transform="scale(0.015625)"/>
      <path id="DejaVuSans-73" d="M 2834 3397 
L 2834 2853 
Q 2591 2978 2328 3040 
Q 2066 3103 1784 3103 
Q 1356 3103 1142 2972 
Q 928 2841 928 2578 
Q 928 2378 1081 2264 
Q 1234 2150 1697 2047 
L 1894 2003 
Q 2506 1872 2764 1633 
Q 3022 1394 3022 966 
Q 3022 478 2636 193 
Q 2250 -91 1575 -91 
Q 1294 -91 989 -36 
Q 684 19 347 128 
L 347 722 
Q 666 556 975 473 
Q 1284 391 1588 391 
Q 1994 391 2212 530 
Q 2431 669 2431 922 
Q 2431 1156 2273 1281 
Q 2116 1406 1581 1522 
L 1381 1569 
Q 847 1681 609 1914 
Q 372 2147 372 2553 
Q 372 3047 722 3315 
Q 1072 3584 1716 3584 
Q 2034 3584 2315 3537 
Q 2597 3491 2834 3397 
z
" transform="scale(0.015625)"/>
     </defs>
     <use xlink:href="#DejaVuSans-53"/>
     <use xlink:href="#DejaVuSans-74" x="63.476562"/>
     <use xlink:href="#DejaVuSans-61" x="102.685547"/>
     <use xlink:href="#DejaVuSans-6e" x="163.964844"/>
     <use xlink:href="#DejaVuSans-64" x="227.34375"/>
     <use xlink:href="#DejaVuSans-69" x="290.820312"/>
     <use xlink:href="#DejaVuSans-6e" x="318.603516"/>
     <use xlink:href="#DejaVuSans-67" x="381.982422"/>
     <use xlink:href="#DejaVuSans-73" x="445.458984"/>
    </g>
   </g>
   <g id="legend_1">
    <g id="patch_7">
     <path d="M 57.87 166.983125 
L 149.490313 166.983125 
Q 151.490313 166.983125 151.490313 164.983125 
L 151.490313 33.88 
Q 151.490313 31.88 149.490313 31.88 
L 57.87 31.88 
Q 55.87 31.88 55.87 33.88 
L 55.87 164.983125 
Q 55.87 166.983125 57.87 166.983125 
z
" style="fill: #ffffff; opacity: 0.8; stroke: #cccccc; stroke-linejoin: miter"/>
    </g>
    <g id="line2d_42">
     <path d="M 59.87 39.978437 
L 69.87 39.978437 
L 79.87 39.978437 
" style="fill: none; stroke: #1f77b4; stroke-width: 1.5; stroke-linecap: square"/>
     <g>
      <use xlink:href="#med85606b93" x="69.87" y="39.978437" style="fill: #1f77b4; stroke: #1f77b4"/>
     </g>
    </g>
    <g id="text_19">
     <!-- Martin Ba -->
     <g transform="translate(87.87 43.478437) scale(0.1 -0.1)">
      <defs>
       <path id="DejaVuSans-4d" d="M 628 4666 
L 1569 4666 
L 2759 1491 
L 3956 4666 
L 4897 4666 
L 4897 0 
L 4281 0 
L 4281 4097 
L 3078 897 
L 2444 897 
L 1241 4097 
L 1241 0 
L 628 0 
L 628 4666 
z
" transform="scale(0.015625)"/>
       <path id="DejaVuSans-20" transform="scale(0.015625)"/>
       <path id="DejaVuSans-42" d="M 1259 2228 
L 1259 519 
L 2272 519 
Q 2781 519 3026 730 
Q 3272 941 3272 1375 
Q 3272 1813 3026 2020 
Q 2781 2228 2272 2228 
L 1259 2228 
z
M 1259 4147 
L 1259 2741 
L 2194 2741 
Q 2656 2741 2882 2914 
Q 3109 3088 3109 3444 
Q 3109 3797 2882 3972 
Q 2656 4147 2194 4147 
L 1259 4147 
z
M 628 4666 
L 2241 4666 
Q 2963 4666 3353 4366 
Q 3744 4066 3744 3513 
Q 3744 3084 3544 2831 
Q 3344 2578 2956 2516 
Q 3422 2416 3680 2098 
Q 3938 1781 3938 1306 
Q 3938 681 3513 340 
Q 3088 0 2303 0 
L 628 0 
L 628 4666 
z
" transform="scale(0.015625)"/>
      </defs>
      <use xlink:href="#DejaVuSans-4d"/>
      <use xlink:href="#DejaVuSans-61" x="86.279297"/>
      <use xlink:href="#DejaVuSans-72" x="147.558594"/>
      <use xlink:href="#DejaVuSans-74" x="188.671875"/>
      <use xlink:href="#DejaVuSans-69" x="227.880859"/>
      <use xlink:href="#DejaVuSans-6e" x="255.664062"/>
      <use xlink:href="#DejaVuSans-20" x="319.042969"/>
      <use xlink:href="#DejaVuSans-42" x="350.830078"/>
      <use xlink:href="#DejaVuSans-61" x="419.433594"/>
     </g>
    </g>
    <g id="line2d_43">
     <path d="M 59.87 54.656563 
L 69.87 54.656563 
L 79.87 54.656563 
" style="fill: none; stroke: #ff7f0e; stroke-width: 1.5; stroke-linecap: square"/>
     <g>
      <use xlink:href="#m208f1bc459" x="69.87" y="54.656563" style="fill: #ff7f0e; stroke: #ff7f0e"/>
     </g>
    </g>
    <g id="text_20">
     <!-- Maren St -->
     <g transform="translate(87.87 58.156563) scale(0.1 -0.1)">
      <use xlink:href="#DejaVuSans-4d"/>
      <use xlink:href="#DejaVuSans-61" x="86.279297"/>
      <use xlink:href="#DejaVuSans-72" x="147.558594"/>
      <use xlink:href="#DejaVuSans-65" x="186.421875"/>
      <use xlink:href="#DejaVuSans-6e" x="247.945312"/>
      <use xlink:href="#DejaVuSans-20" x="311.324219"/>
      <use xlink:href="#DejaVuSans-53" x="343.111328"/>
      <use xlink:href="#DejaVuSans-74" x="406.587891"/>
     </g>
    </g>
    <g id="line2d_44">
     <path d="M 59.87 69.334687 
L 69.87 69.334687 
L 79.87 69.334687 
" style="fill: none; stroke: #2ca02c; stroke-width: 1.5; stroke-linecap: square"/>
     <g>
      <use xlink:href="#m8835032340" x="69.87" y="69.334687" style="fill: #2ca02c; stroke: #2ca02c"/>
     </g>
    </g>
    <g id="text_21">
     <!-- Jakob Ve -->
     <g transform="translate(87.87 72.834687) scale(0.1 -0.1)">
      <defs>
       <path id="DejaVuSans-4a" d="M 628 4666 
L 1259 4666 
L 1259 325 
Q 1259 -519 939 -900 
Q 619 -1281 -91 -1281 
L -331 -1281 
L -331 -750 
L -134 -750 
Q 284 -750 456 -515 
Q 628 -281 628 325 
L 628 4666 
z
" transform="scale(0.015625)"/>
       <path id="DejaVuSans-6b" d="M 581 4863 
L 1159 4863 
L 1159 1991 
L 2875 3500 
L 3609 3500 
L 1753 1863 
L 3688 0 
L 2938 0 
L 1159 1709 
L 1159 0 
L 581 0 
L 581 4863 
z
" transform="scale(0.015625)"/>
       <path id="DejaVuSans-62" d="M 3116 1747 
Q 3116 2381 2855 2742 
Q 2594 3103 2138 3103 
Q 1681 3103 1420 2742 
Q 1159 2381 1159 1747 
Q 1159 1113 1420 752 
Q 1681 391 2138 391 
Q 2594 391 2855 752 
Q 3116 1113 3116 1747 
z
M 1159 2969 
Q 1341 3281 1617 3432 
Q 1894 3584 2278 3584 
Q 2916 3584 3314 3078 
Q 3713 2572 3713 1747 
Q 3713 922 3314 415 
Q 2916 -91 2278 -91 
Q 1894 -91 1617 61 
Q 1341 213 1159 525 
L 1159 0 
L 581 0 
L 581 4863 
L 1159 4863 
L 1159 2969 
z
" transform="scale(0.015625)"/>
       <path id="DejaVuSans-56" d="M 1831 0 
L 50 4666 
L 709 4666 
L 2188 738 
L 3669 4666 
L 4325 4666 
L 2547 0 
L 1831 0 
z
" transform="scale(0.015625)"/>
      </defs>
      <use xlink:href="#DejaVuSans-4a"/>
      <use xlink:href="#DejaVuSans-61" x="29.492188"/>
      <use xlink:href="#DejaVuSans-6b" x="90.771484"/>
      <use xlink:href="#DejaVuSans-6f" x="145.056641"/>
      <use xlink:href="#DejaVuSans-62" x="206.238281"/>
      <use xlink:href="#DejaVuSans-20" x="269.714844"/>
      <use xlink:href="#DejaVuSans-56" x="301.501953"/>
      <use xlink:href="#DejaVuSans-65" x="362.160156"/>
     </g>
    </g>
    <g id="line2d_45">
     <path d="M 59.87 84.012812 
L 69.87 84.012812 
L 79.87 84.012812 
" style="fill: none; stroke: #d62728; stroke-width: 1.5; stroke-linecap: square"/>
     <g>
      <use xlink:href="#m98c98e547f" x="69.87" y="84.012812" style="fill: #d62728; stroke: #d62728"/>
     </g>
    </g>
    <g id="text_22">
     <!-- Mathas Po -->
     <g transform="translate(87.87 87.512812) scale(0.1 -0.1)">
      <defs>
       <path id="DejaVuSans-68" d="M 3513 2113 
L 3513 0 
L 2938 0 
L 2938 2094 
Q 2938 2591 2744 2837 
Q 2550 3084 2163 3084 
Q 1697 3084 1428 2787 
Q 1159 2491 1159 1978 
L 1159 0 
L 581 0 
L 581 4863 
L 1159 4863 
L 1159 2956 
Q 1366 3272 1645 3428 
Q 1925 3584 2291 3584 
Q 2894 3584 3203 3211 
Q 3513 2838 3513 2113 
z
" transform="scale(0.015625)"/>
       <path id="DejaVuSans-50" d="M 1259 4147 
L 1259 2394 
L 2053 2394 
Q 2494 2394 2734 2622 
Q 2975 2850 2975 3272 
Q 2975 3691 2734 3919 
Q 2494 4147 2053 4147 
L 1259 4147 
z
M 628 4666 
L 2053 4666 
Q 2838 4666 3239 4311 
Q 3641 3956 3641 3272 
Q 3641 2581 3239 2228 
Q 2838 1875 2053 1875 
L 1259 1875 
L 1259 0 
L 628 0 
L 628 4666 
z
" transform="scale(0.015625)"/>
      </defs>
      <use xlink:href="#DejaVuSans-4d"/>
      <use xlink:href="#DejaVuSans-61" x="86.279297"/>
      <use xlink:href="#DejaVuSans-74" x="147.558594"/>
      <use xlink:href="#DejaVuSans-68" x="186.767578"/>
      <use xlink:href="#DejaVuSans-61" x="250.146484"/>
      <use xlink:href="#DejaVuSans-73" x="311.425781"/>
      <use xlink:href="#DejaVuSans-20" x="363.525391"/>
      <use xlink:href="#DejaVuSans-50" x="395.3125"/>
      <use xlink:href="#DejaVuSans-6f" x="451.990234"/>
     </g>
    </g>
    <g id="line2d_46">
     <path d="M 59.87 98.690938 
L 69.87 98.690938 
L 79.87 98.690938 
" style="fill: none; stroke: #9467bd; stroke-width: 1.5; stroke-linecap: square"/>
     <g>
      <use xlink:href="#m269e8e0bcb" x="69.87" y="98.690938" style="fill: #9467bd; stroke: #9467bd"/>
     </g>
    </g>
    <g id="text_23">
     <!-- Christian Gr -->
     <g transform="translate(87.87 102.190938) scale(0.1 -0.1)">
      <defs>
       <path id="DejaVuSans-43" d="M 4122 4306 
L 4122 3641 
Q 3803 3938 3442 4084 
Q 3081 4231 2675 4231 
Q 1875 4231 1450 3742 
Q 1025 3253 1025 2328 
Q 1025 1406 1450 917 
Q 1875 428 2675 428 
Q 3081 428 3442 575 
Q 3803 722 4122 1019 
L 4122 359 
Q 3791 134 3420 21 
Q 3050 -91 2638 -91 
Q 1578 -91 968 557 
Q 359 1206 359 2328 
Q 359 3453 968 4101 
Q 1578 4750 2638 4750 
Q 3056 4750 3426 4639 
Q 3797 4528 4122 4306 
z
" transform="scale(0.015625)"/>
       <path id="DejaVuSans-47" d="M 3809 666 
L 3809 1919 
L 2778 1919 
L 2778 2438 
L 4434 2438 
L 4434 434 
Q 4069 175 3628 42 
Q 3188 -91 2688 -91 
Q 1594 -91 976 548 
Q 359 1188 359 2328 
Q 359 3472 976 4111 
Q 1594 4750 2688 4750 
Q 3144 4750 3555 4637 
Q 3966 4525 4313 4306 
L 4313 3634 
Q 3963 3931 3569 4081 
Q 3175 4231 2741 4231 
Q 1884 4231 1454 3753 
Q 1025 3275 1025 2328 
Q 1025 1384 1454 906 
Q 1884 428 2741 428 
Q 3075 428 3337 486 
Q 3600 544 3809 666 
z
" transform="scale(0.015625)"/>
      </defs>
      <use xlink:href="#DejaVuSans-43"/>
      <use xlink:href="#DejaVuSans-68" x="69.824219"/>
      <use xlink:href="#DejaVuSans-72" x="133.203125"/>
      <use xlink:href="#DejaVuSans-69" x="174.316406"/>
      <use xlink:href="#DejaVuSans-73" x="202.099609"/>
      <use xlink:href="#DejaVuSans-74" x="254.199219"/>
      <use xlink:href="#DejaVuSans-69" x="293.408203"/>
      <use xlink:href="#DejaVuSans-61" x="321.191406"/>
      <use xlink:href="#DejaVuSans-6e" x="382.470703"/>
      <use xlink:href="#DejaVuSans-20" x="445.849609"/>
      <use xlink:href="#DejaVuSans-47" x="477.636719"/>
      <use xlink:href="#DejaVuSans-72" x="555.126953"/>
     </g>
    </g>
    <g id="line2d_47">
     <path d="M 59.87 113.369062 
L 69.87 113.369062 
L 79.87 113.369062 
" style="fill: none; stroke: #8c564b; stroke-width: 1.5; stroke-linecap: square"/>
     <g>
      <use xlink:href="#m58fc0f0652" x="69.87" y="113.369062" style="fill: #8c564b; stroke: #8c564b"/>
     </g>
    </g>
    <g id="text_24">
     <!-- RIKKE GR -->
     <g transform="translate(87.87 116.869062) scale(0.1 -0.1)">
      <defs>
       <path id="DejaVuSans-52" d="M 2841 2188 
Q 3044 2119 3236 1894 
Q 3428 1669 3622 1275 
L 4263 0 
L 3584 0 
L 2988 1197 
Q 2756 1666 2539 1819 
Q 2322 1972 1947 1972 
L 1259 1972 
L 1259 0 
L 628 0 
L 628 4666 
L 2053 4666 
Q 2853 4666 3247 4331 
Q 3641 3997 3641 3322 
Q 3641 2881 3436 2590 
Q 3231 2300 2841 2188 
z
M 1259 4147 
L 1259 2491 
L 2053 2491 
Q 2509 2491 2742 2702 
Q 2975 2913 2975 3322 
Q 2975 3731 2742 3939 
Q 2509 4147 2053 4147 
L 1259 4147 
z
" transform="scale(0.015625)"/>
       <path id="DejaVuSans-49" d="M 628 4666 
L 1259 4666 
L 1259 0 
L 628 0 
L 628 4666 
z
" transform="scale(0.015625)"/>
       <path id="DejaVuSans-4b" d="M 628 4666 
L 1259 4666 
L 1259 2694 
L 3353 4666 
L 4166 4666 
L 1850 2491 
L 4331 0 
L 3500 0 
L 1259 2247 
L 1259 0 
L 628 0 
L 628 4666 
z
" transform="scale(0.015625)"/>
       <path id="DejaVuSans-45" d="M 628 4666 
L 3578 4666 
L 3578 4134 
L 1259 4134 
L 1259 2753 
L 3481 2753 
L 3481 2222 
L 1259 2222 
L 1259 531 
L 3634 531 
L 3634 0 
L 628 0 
L 628 4666 
z
" transform="scale(0.015625)"/>
      </defs>
      <use xlink:href="#DejaVuSans-52"/>
      <use xlink:href="#DejaVuSans-49" x="69.482422"/>
      <use xlink:href="#DejaVuSans-4b" x="98.974609"/>
      <use xlink:href="#DejaVuSans-4b" x="164.550781"/>
      <use xlink:href="#DejaVuSans-45" x="230.126953"/>
      <use xlink:href="#DejaVuSans-20" x="293.310547"/>
      <use xlink:href="#DejaVuSans-47" x="325.097656"/>
      <use xlink:href="#DejaVuSans-52" x="402.587891"/>
     </g>
    </g>
    <g id="line2d_48">
     <path d="M 59.87 128.047187 
L 69.87 128.047187 
L 79.87 128.047187 
" style="fill: none; stroke: #e377c2; stroke-width: 1.5; stroke-linecap: square"/>
     <g>
      <use xlink:href="#m2c907ec409" x="69.87" y="128.047187" style="fill: #e377c2; stroke: #e377c2"/>
     </g>
    </g>
    <g id="text_25">
     <!-- lea bo -->
     <g transform="translate(87.87 131.547187) scale(0.1 -0.1)">
      <defs>
       <path id="DejaVuSans-6c" d="M 603 4863 
L 1178 4863 
L 1178 0 
L 603 0 
L 603 4863 
z
" transform="scale(0.015625)"/>
      </defs>
      <use xlink:href="#DejaVuSans-6c"/>
      <use xlink:href="#DejaVuSans-65" x="27.783203"/>
      <use xlink:href="#DejaVuSans-61" x="89.306641"/>
      <use xlink:href="#DejaVuSans-20" x="150.585938"/>
      <use xlink:href="#DejaVuSans-62" x="182.373047"/>
      <use xlink:href="#DejaVuSans-6f" x="245.849609"/>
     </g>
    </g>
    <g id="line2d_49">
     <path d="M 59.87 142.725312 
L 69.87 142.725312 
L 79.87 142.725312 
" style="fill: none; stroke: #7f7f7f; stroke-width: 1.5; stroke-linecap: square"/>
     <g>
      <use xlink:href="#m345b83c6f7" x="69.87" y="142.725312" style="fill: #7f7f7f; stroke: #7f7f7f"/>
     </g>
    </g>
    <g id="text_26">
     <!-- Andreas Ku -->
     <g transform="translate(87.87 146.225312) scale(0.1 -0.1)">
      <defs>
       <path id="DejaVuSans-41" d="M 2188 4044 
L 1331 1722 
L 3047 1722 
L 2188 4044 
z
M 1831 4666 
L 2547 4666 
L 4325 0 
L 3669 0 
L 3244 1197 
L 1141 1197 
L 716 0 
L 50 0 
L 1831 4666 
z
" transform="scale(0.015625)"/>
       <path id="DejaVuSans-75" d="M 544 1381 
L 544 3500 
L 1119 3500 
L 1119 1403 
Q 1119 906 1312 657 
Q 1506 409 1894 409 
Q 2359 409 2629 706 
Q 2900 1003 2900 1516 
L 2900 3500 
L 3475 3500 
L 3475 0 
L 2900 0 
L 2900 538 
Q 2691 219 2414 64 
Q 2138 -91 1772 -91 
Q 1169 -91 856 284 
Q 544 659 544 1381 
z
M 1991 3584 
L 1991 3584 
z
" transform="scale(0.015625)"/>
      </defs>
      <use xlink:href="#DejaVuSans-41"/>
      <use xlink:href="#DejaVuSans-6e" x="68.408203"/>
      <use xlink:href="#DejaVuSans-64" x="131.787109"/>
      <use xlink:href="#DejaVuSans-72" x="195.263672"/>
      <use xlink:href="#DejaVuSans-65" x="234.126953"/>
      <use xlink:href="#DejaVuSans-61" x="295.650391"/>
      <use xlink:href="#DejaVuSans-73" x="356.929688"/>
      <use xlink:href="#DejaVuSans-20" x="409.029297"/>
      <use xlink:href="#DejaVuSans-4b" x="440.816406"/>
      <use xlink:href="#DejaVuSans-75" x="501.392578"/>
     </g>
    </g>
    <g id="line2d_50">
     <path d="M 59.87 157.403437 
L 69.87 157.403437 
L 79.87 157.403437 
" style="fill: none; stroke: #bcbd22; stroke-width: 1.5; stroke-linecap: square"/>
     <g>
      <use xlink:href="#m83956ba52e" x="69.87" y="157.403437" style="fill: #bcbd22; stroke: #bcbd22"/>
     </g>
    </g>
    <g id="text_27">
     <!-- Salty Gu -->
     <g transform="translate(87.87 160.903437) scale(0.1 -0.1)">
      <defs>
       <path id="DejaVuSans-79" d="M 2059 -325 
Q 1816 -950 1584 -1140 
Q 1353 -1331 966 -1331 
L 506 -1331 
L 506 -850 
L 844 -850 
Q 1081 -850 1212 -737 
Q 1344 -625 1503 -206 
L 1606 56 
L 191 3500 
L 800 3500 
L 1894 763 
L 2988 3500 
L 3597 3500 
L 2059 -325 
z
" transform="scale(0.015625)"/>
      </defs>
      <use xlink:href="#DejaVuSans-53"/>
      <use xlink:href="#DejaVuSans-61" x="63.476562"/>
      <use xlink:href="#DejaVuSans-6c" x="124.755859"/>
      <use xlink:href="#DejaVuSans-74" x="152.539062"/>
      <use xlink:href="#DejaVuSans-79" x="191.748047"/>
      <use xlink:href="#DejaVuSans-20" x="250.927734"/>
      <use xlink:href="#DejaVuSans-47" x="282.714844"/>
      <use xlink:href="#DejaVuSans-75" x="360.205078"/>
     </g>
    </g>
   </g>
  </g>
 </g>
 <defs>
  <clipPath id="p1002618133">
   <rect x="50.87" y="26.88" width="802.33" height="377.24"/>
  </clipPath>
 </defs>
</svg>
