<?xml version="1.0" encoding="utf-8" standalone="no"?>
<!DOCTYPE svg PUBLIC "-//W3C//DTD SVG 1.1//EN"
  "http://www.w3.org/Graphics/SVG/1.1/DTD/svg11.dtd">
<svg xmlns:xlink="http://www.w3.org/1999/xlink" width="864pt" height="432pt" viewBox="0 0 864 432" xmlns="http://www.w3.org/2000/svg" version="1.1">
 <metadata>
  <rdf:RDF xmlns:dc="http://purl.org/dc/elements/1.1/" xmlns:cc="http://creativecommons.org/ns#" xmlns:rdf="http://www.w3.org/1999/02/22-rdf-syntax-ns#">
   <cc:Work>
    <dc:type rdf:resource="http://purl.org/dc/dcmitype/StillImage"/>
    <dc:date>2024-08-31T18:33:51.717749</dc:date>
    <dc:format>image/svg+xml</dc:format>
    <dc:creator>
     <cc:Agent>
      <dc:title>Matplotlib v3.9.2, https://matplotlib.org/</dc:title>
     </cc:Agent>
    </dc:creator>
   </cc:Work>
  </rdf:RDF>
 </metadata>
 <defs>
  <style type="text/css">*{stroke-linejoin: round; stroke-linecap: butt}</style>
 </defs>
 <g id="figure_1">
  <g id="patch_1">
   <path d="M 0 432 
L 864 432 
L 864 0 
L 0 0 
z
" style="fill: #ffffff"/>
  </g>
  <g id="axes_1">
   <g id="patch_2">
    <path d="M 50.87 404.12 
L 847.032168 404.12 
L 847.032168 26.88 
L 50.87 26.88 
z
" style="fill: #ffffff"/>
   </g>
   <g id="matplotlib.axis_1">
    <g id="xtick_1">
     <g id="line2d_1">
      <path d="M 96.338469 404.12 
L 96.338469 26.88 
" clip-path="url(#p02646d250c)" style="fill: none; stroke-dasharray: 2.96,1.28; stroke-dashoffset: 0; stroke: #b0b0b0; stroke-width: 0.8"/>
     </g>
     <g id="line2d_2">
      <defs>
       <path id="m5d32c19129" d="M 0 0 
L 0 3.5 
" style="stroke: #000000; stroke-width: 0.8"/>
      </defs>
      <g>
       <use xlink:href="#m5d32c19129" x="96.338469" y="404.12" style="stroke: #000000; stroke-width: 0.8"/>
      </g>
     </g>
     <g id="text_1">
      <!-- 2024-06-15 -->
      <g transform="translate(67.280656 418.718437) scale(0.1 -0.1)">
       <defs>
        <path id="DejaVuSans-32" d="M 1228 531 
L 3431 531 
L 3431 0 
L 469 0 
L 469 531 
Q 828 903 1448 1529 
Q 2069 2156 2228 2338 
Q 2531 2678 2651 2914 
Q 2772 3150 2772 3378 
Q 2772 3750 2511 3984 
Q 2250 4219 1831 4219 
Q 1534 4219 1204 4116 
Q 875 4013 500 3803 
L 500 4441 
Q 881 4594 1212 4672 
Q 1544 4750 1819 4750 
Q 2544 4750 2975 4387 
Q 3406 4025 3406 3419 
Q 3406 3131 3298 2873 
Q 3191 2616 2906 2266 
Q 2828 2175 2409 1742 
Q 1991 1309 1228 531 
z
" transform="scale(0.015625)"/>
        <path id="DejaVuSans-30" d="M 2034 4250 
Q 1547 4250 1301 3770 
Q 1056 3291 1056 2328 
Q 1056 1369 1301 889 
Q 1547 409 2034 409 
Q 2525 409 2770 889 
Q 3016 1369 3016 2328 
Q 3016 3291 2770 3770 
Q 2525 4250 2034 4250 
z
M 2034 4750 
Q 2819 4750 3233 4129 
Q 3647 3509 3647 2328 
Q 3647 1150 3233 529 
Q 2819 -91 2034 -91 
Q 1250 -91 836 529 
Q 422 1150 422 2328 
Q 422 3509 836 4129 
Q 1250 4750 2034 4750 
z
" transform="scale(0.015625)"/>
        <path id="DejaVuSans-34" d="M 2419 4116 
L 825 1625 
L 2419 1625 
L 2419 4116 
z
M 2253 4666 
L 3047 4666 
L 3047 1625 
L 3713 1625 
L 3713 1100 
L 3047 1100 
L 3047 0 
L 2419 0 
L 2419 1100 
L 313 1100 
L 313 1709 
L 2253 4666 
z
" transform="scale(0.015625)"/>
        <path id="DejaVuSans-2d" d="M 313 2009 
L 1997 2009 
L 1997 1497 
L 313 1497 
L 313 2009 
z
" transform="scale(0.015625)"/>
        <path id="DejaVuSans-36" d="M 2113 2584 
Q 1688 2584 1439 2293 
Q 1191 2003 1191 1497 
Q 1191 994 1439 701 
Q 1688 409 2113 409 
Q 2538 409 2786 701 
Q 3034 994 3034 1497 
Q 3034 2003 2786 2293 
Q 2538 2584 2113 2584 
z
M 3366 4563 
L 3366 3988 
Q 3128 4100 2886 4159 
Q 2644 4219 2406 4219 
Q 1781 4219 1451 3797 
Q 1122 3375 1075 2522 
Q 1259 2794 1537 2939 
Q 1816 3084 2150 3084 
Q 2853 3084 3261 2657 
Q 3669 2231 3669 1497 
Q 3669 778 3244 343 
Q 2819 -91 2113 -91 
Q 1303 -91 875 529 
Q 447 1150 447 2328 
Q 447 3434 972 4092 
Q 1497 4750 2381 4750 
Q 2619 4750 2861 4703 
Q 3103 4656 3366 4563 
z
" transform="scale(0.015625)"/>
        <path id="DejaVuSans-31" d="M 794 531 
L 1825 531 
L 1825 4091 
L 703 3866 
L 703 4441 
L 1819 4666 
L 2450 4666 
L 2450 531 
L 3481 531 
L 3481 0 
L 794 0 
L 794 531 
z
" transform="scale(0.015625)"/>
        <path id="DejaVuSans-35" d="M 691 4666 
L 3169 4666 
L 3169 4134 
L 1269 4134 
L 1269 2991 
Q 1406 3038 1543 3061 
Q 1681 3084 1819 3084 
Q 2600 3084 3056 2656 
Q 3513 2228 3513 1497 
Q 3513 744 3044 326 
Q 2575 -91 1722 -91 
Q 1428 -91 1123 -41 
Q 819 9 494 109 
L 494 744 
Q 775 591 1075 516 
Q 1375 441 1709 441 
Q 2250 441 2565 725 
Q 2881 1009 2881 1497 
Q 2881 1984 2565 2268 
Q 2250 2553 1709 2553 
Q 1456 2553 1204 2497 
Q 953 2441 691 2322 
L 691 4666 
z
" transform="scale(0.015625)"/>
       </defs>
       <use xlink:href="#DejaVuSans-32"/>
       <use xlink:href="#DejaVuSans-30" x="63.623047"/>
       <use xlink:href="#DejaVuSans-32" x="127.246094"/>
       <use xlink:href="#DejaVuSans-34" x="190.869141"/>
       <use xlink:href="#DejaVuSans-2d" x="254.492188"/>
       <use xlink:href="#DejaVuSans-30" x="290.576172"/>
       <use xlink:href="#DejaVuSans-36" x="354.199219"/>
       <use xlink:href="#DejaVuSans-2d" x="417.822266"/>
       <use xlink:href="#DejaVuSans-31" x="453.90625"/>
       <use xlink:href="#DejaVuSans-35" x="517.529297"/>
      </g>
     </g>
    </g>
    <g id="xtick_2">
     <g id="line2d_3">
      <path d="M 244.806938 404.12 
L 244.806938 26.88 
" clip-path="url(#p02646d250c)" style="fill: none; stroke-dasharray: 2.96,1.28; stroke-dashoffset: 0; stroke: #b0b0b0; stroke-width: 0.8"/>
     </g>
     <g id="line2d_4">
      <g>
       <use xlink:href="#m5d32c19129" x="244.806938" y="404.12" style="stroke: #000000; stroke-width: 0.8"/>
      </g>
     </g>
     <g id="text_2">
      <!-- 2024-07-01 -->
      <g transform="translate(215.749126 418.718437) scale(0.1 -0.1)">
       <defs>
        <path id="DejaVuSans-37" d="M 525 4666 
L 3525 4666 
L 3525 4397 
L 1831 0 
L 1172 0 
L 2766 4134 
L 525 4134 
L 525 4666 
z
" transform="scale(0.015625)"/>
       </defs>
       <use xlink:href="#DejaVuSans-32"/>
       <use xlink:href="#DejaVuSans-30" x="63.623047"/>
       <use xlink:href="#DejaVuSans-32" x="127.246094"/>
       <use xlink:href="#DejaVuSans-34" x="190.869141"/>
       <use xlink:href="#DejaVuSans-2d" x="254.492188"/>
       <use xlink:href="#DejaVuSans-30" x="290.576172"/>
       <use xlink:href="#DejaVuSans-37" x="354.199219"/>
       <use xlink:href="#DejaVuSans-2d" x="417.822266"/>
       <use xlink:href="#DejaVuSans-30" x="453.90625"/>
       <use xlink:href="#DejaVuSans-31" x="517.529297"/>
      </g>
     </g>
    </g>
    <g id="xtick_3">
     <g id="line2d_5">
      <path d="M 374.716849 404.12 
L 374.716849 26.88 
" clip-path="url(#p02646d250c)" style="fill: none; stroke-dasharray: 2.96,1.28; stroke-dashoffset: 0; stroke: #b0b0b0; stroke-width: 0.8"/>
     </g>
     <g id="line2d_6">
      <g>
       <use xlink:href="#m5d32c19129" x="374.716849" y="404.12" style="stroke: #000000; stroke-width: 0.8"/>
      </g>
     </g>
     <g id="text_3">
      <!-- 2024-07-15 -->
      <g transform="translate(345.659037 418.718437) scale(0.1 -0.1)">
       <use xlink:href="#DejaVuSans-32"/>
       <use xlink:href="#DejaVuSans-30" x="63.623047"/>
       <use xlink:href="#DejaVuSans-32" x="127.246094"/>
       <use xlink:href="#DejaVuSans-34" x="190.869141"/>
       <use xlink:href="#DejaVuSans-2d" x="254.492188"/>
       <use xlink:href="#DejaVuSans-30" x="290.576172"/>
       <use xlink:href="#DejaVuSans-37" x="354.199219"/>
       <use xlink:href="#DejaVuSans-2d" x="417.822266"/>
       <use xlink:href="#DejaVuSans-31" x="453.90625"/>
       <use xlink:href="#DejaVuSans-35" x="517.529297"/>
      </g>
     </g>
    </g>
    <g id="xtick_4">
     <g id="line2d_7">
      <path d="M 532.464598 404.12 
L 532.464598 26.88 
" clip-path="url(#p02646d250c)" style="fill: none; stroke-dasharray: 2.96,1.28; stroke-dashoffset: 0; stroke: #b0b0b0; stroke-width: 0.8"/>
     </g>
     <g id="line2d_8">
      <g>
       <use xlink:href="#m5d32c19129" x="532.464598" y="404.12" style="stroke: #000000; stroke-width: 0.8"/>
      </g>
     </g>
     <g id="text_4">
      <!-- 2024-08-01 -->
      <g transform="translate(503.406786 418.718437) scale(0.1 -0.1)">
       <defs>
        <path id="DejaVuSans-38" d="M 2034 2216 
Q 1584 2216 1326 1975 
Q 1069 1734 1069 1313 
Q 1069 891 1326 650 
Q 1584 409 2034 409 
Q 2484 409 2743 651 
Q 3003 894 3003 1313 
Q 3003 1734 2745 1975 
Q 2488 2216 2034 2216 
z
M 1403 2484 
Q 997 2584 770 2862 
Q 544 3141 544 3541 
Q 544 4100 942 4425 
Q 1341 4750 2034 4750 
Q 2731 4750 3128 4425 
Q 3525 4100 3525 3541 
Q 3525 3141 3298 2862 
Q 3072 2584 2669 2484 
Q 3125 2378 3379 2068 
Q 3634 1759 3634 1313 
Q 3634 634 3220 271 
Q 2806 -91 2034 -91 
Q 1263 -91 848 271 
Q 434 634 434 1313 
Q 434 1759 690 2068 
Q 947 2378 1403 2484 
z
M 1172 3481 
Q 1172 3119 1398 2916 
Q 1625 2713 2034 2713 
Q 2441 2713 2670 2916 
Q 2900 3119 2900 3481 
Q 2900 3844 2670 4047 
Q 2441 4250 2034 4250 
Q 1625 4250 1398 4047 
Q 1172 3844 1172 3481 
z
" transform="scale(0.015625)"/>
       </defs>
       <use xlink:href="#DejaVuSans-32"/>
       <use xlink:href="#DejaVuSans-30" x="63.623047"/>
       <use xlink:href="#DejaVuSans-32" x="127.246094"/>
       <use xlink:href="#DejaVuSans-34" x="190.869141"/>
       <use xlink:href="#DejaVuSans-2d" x="254.492188"/>
       <use xlink:href="#DejaVuSans-30" x="290.576172"/>
       <use xlink:href="#DejaVuSans-38" x="354.199219"/>
       <use xlink:href="#DejaVuSans-2d" x="417.822266"/>
       <use xlink:href="#DejaVuSans-30" x="453.90625"/>
       <use xlink:href="#DejaVuSans-31" x="517.529297"/>
      </g>
     </g>
    </g>
    <g id="xtick_5">
     <g id="line2d_9">
      <path d="M 662.374509 404.12 
L 662.374509 26.88 
" clip-path="url(#p02646d250c)" style="fill: none; stroke-dasharray: 2.96,1.28; stroke-dashoffset: 0; stroke: #b0b0b0; stroke-width: 0.8"/>
     </g>
     <g id="line2d_10">
      <g>
       <use xlink:href="#m5d32c19129" x="662.374509" y="404.12" style="stroke: #000000; stroke-width: 0.8"/>
      </g>
     </g>
     <g id="text_5">
      <!-- 2024-08-15 -->
      <g transform="translate(633.316696 418.718437) scale(0.1 -0.1)">
       <use xlink:href="#DejaVuSans-32"/>
       <use xlink:href="#DejaVuSans-30" x="63.623047"/>
       <use xlink:href="#DejaVuSans-32" x="127.246094"/>
       <use xlink:href="#DejaVuSans-34" x="190.869141"/>
       <use xlink:href="#DejaVuSans-2d" x="254.492188"/>
       <use xlink:href="#DejaVuSans-30" x="290.576172"/>
       <use xlink:href="#DejaVuSans-38" x="354.199219"/>
       <use xlink:href="#DejaVuSans-2d" x="417.822266"/>
       <use xlink:href="#DejaVuSans-31" x="453.90625"/>
       <use xlink:href="#DejaVuSans-35" x="517.529297"/>
      </g>
     </g>
    </g>
    <g id="xtick_6">
     <g id="line2d_11">
      <path d="M 820.122258 404.12 
L 820.122258 26.88 
" clip-path="url(#p02646d250c)" style="fill: none; stroke-dasharray: 2.96,1.28; stroke-dashoffset: 0; stroke: #b0b0b0; stroke-width: 0.8"/>
     </g>
     <g id="line2d_12">
      <g>
       <use xlink:href="#m5d32c19129" x="820.122258" y="404.12" style="stroke: #000000; stroke-width: 0.8"/>
      </g>
     </g>
     <g id="text_6">
      <!-- 2024-09-01 -->
      <g transform="translate(791.064445 418.718437) scale(0.1 -0.1)">
       <defs>
        <path id="DejaVuSans-39" d="M 703 97 
L 703 672 
Q 941 559 1184 500 
Q 1428 441 1663 441 
Q 2288 441 2617 861 
Q 2947 1281 2994 2138 
Q 2813 1869 2534 1725 
Q 2256 1581 1919 1581 
Q 1219 1581 811 2004 
Q 403 2428 403 3163 
Q 403 3881 828 4315 
Q 1253 4750 1959 4750 
Q 2769 4750 3195 4129 
Q 3622 3509 3622 2328 
Q 3622 1225 3098 567 
Q 2575 -91 1691 -91 
Q 1453 -91 1209 -44 
Q 966 3 703 97 
z
M 1959 2075 
Q 2384 2075 2632 2365 
Q 2881 2656 2881 3163 
Q 2881 3666 2632 3958 
Q 2384 4250 1959 4250 
Q 1534 4250 1286 3958 
Q 1038 3666 1038 3163 
Q 1038 2656 1286 2365 
Q 1534 2075 1959 2075 
z
" transform="scale(0.015625)"/>
       </defs>
       <use xlink:href="#DejaVuSans-32"/>
       <use xlink:href="#DejaVuSans-30" x="63.623047"/>
       <use xlink:href="#DejaVuSans-32" x="127.246094"/>
       <use xlink:href="#DejaVuSans-34" x="190.869141"/>
       <use xlink:href="#DejaVuSans-2d" x="254.492188"/>
       <use xlink:href="#DejaVuSans-30" x="290.576172"/>
       <use xlink:href="#DejaVuSans-39" x="354.199219"/>
       <use xlink:href="#DejaVuSans-2d" x="417.822266"/>
       <use xlink:href="#DejaVuSans-30" x="453.90625"/>
       <use xlink:href="#DejaVuSans-31" x="517.529297"/>
      </g>
     </g>
    </g>
   </g>
   <g id="matplotlib.axis_2">
    <g id="ytick_1">
     <g id="line2d_13">
      <path d="M 50.87 393.297514 
L 847.032168 393.297514 
" clip-path="url(#p02646d250c)" style="fill: none; stroke-dasharray: 2.96,1.28; stroke-dashoffset: 0; stroke: #b0b0b0; stroke-width: 0.8"/>
     </g>
     <g id="line2d_14">
      <defs>
       <path id="m583e394f9f" d="M 0 0 
L -3.5 0 
" style="stroke: #000000; stroke-width: 0.8"/>
      </defs>
      <g>
       <use xlink:href="#m583e394f9f" x="50.87" y="393.297514" style="stroke: #000000; stroke-width: 0.8"/>
      </g>
     </g>
     <g id="text_7">
      <!-- 0 -->
      <g transform="translate(37.5075 397.096733) scale(0.1 -0.1)">
       <use xlink:href="#DejaVuSans-30"/>
      </g>
     </g>
    </g>
    <g id="ytick_2">
     <g id="line2d_15">
      <path d="M 50.87 330.014255 
L 847.032168 330.014255 
" clip-path="url(#p02646d250c)" style="fill: none; stroke-dasharray: 2.96,1.28; stroke-dashoffset: 0; stroke: #b0b0b0; stroke-width: 0.8"/>
     </g>
     <g id="line2d_16">
      <g>
       <use xlink:href="#m583e394f9f" x="50.87" y="330.014255" style="stroke: #000000; stroke-width: 0.8"/>
      </g>
     </g>
     <g id="text_8">
      <!-- 50 -->
      <g transform="translate(31.145 333.813474) scale(0.1 -0.1)">
       <use xlink:href="#DejaVuSans-35"/>
       <use xlink:href="#DejaVuSans-30" x="63.623047"/>
      </g>
     </g>
    </g>
    <g id="ytick_3">
     <g id="line2d_17">
      <path d="M 50.87 266.730997 
L 847.032168 266.730997 
" clip-path="url(#p02646d250c)" style="fill: none; stroke-dasharray: 2.96,1.28; stroke-dashoffset: 0; stroke: #b0b0b0; stroke-width: 0.8"/>
     </g>
     <g id="line2d_18">
      <g>
       <use xlink:href="#m583e394f9f" x="50.87" y="266.730997" style="stroke: #000000; stroke-width: 0.8"/>
      </g>
     </g>
     <g id="text_9">
      <!-- 100 -->
      <g transform="translate(24.7825 270.530215) scale(0.1 -0.1)">
       <use xlink:href="#DejaVuSans-31"/>
       <use xlink:href="#DejaVuSans-30" x="63.623047"/>
       <use xlink:href="#DejaVuSans-30" x="127.246094"/>
      </g>
     </g>
    </g>
    <g id="ytick_4">
     <g id="line2d_19">
      <path d="M 50.87 203.447738 
L 847.032168 203.447738 
" clip-path="url(#p02646d250c)" style="fill: none; stroke-dasharray: 2.96,1.28; stroke-dashoffset: 0; stroke: #b0b0b0; stroke-width: 0.8"/>
     </g>
     <g id="line2d_20">
      <g>
       <use xlink:href="#m583e394f9f" x="50.87" y="203.447738" style="stroke: #000000; stroke-width: 0.8"/>
      </g>
     </g>
     <g id="text_10">
      <!-- 150 -->
      <g transform="translate(24.7825 207.246957) scale(0.1 -0.1)">
       <use xlink:href="#DejaVuSans-31"/>
       <use xlink:href="#DejaVuSans-35" x="63.623047"/>
       <use xlink:href="#DejaVuSans-30" x="127.246094"/>
      </g>
     </g>
    </g>
    <g id="ytick_5">
     <g id="line2d_21">
      <path d="M 50.87 140.164479 
L 847.032168 140.164479 
" clip-path="url(#p02646d250c)" style="fill: none; stroke-dasharray: 2.96,1.28; stroke-dashoffset: 0; stroke: #b0b0b0; stroke-width: 0.8"/>
     </g>
     <g id="line2d_22">
      <g>
       <use xlink:href="#m583e394f9f" x="50.87" y="140.164479" style="stroke: #000000; stroke-width: 0.8"/>
      </g>
     </g>
     <g id="text_11">
      <!-- 200 -->
      <g transform="translate(24.7825 143.963698) scale(0.1 -0.1)">
       <use xlink:href="#DejaVuSans-32"/>
       <use xlink:href="#DejaVuSans-30" x="63.623047"/>
       <use xlink:href="#DejaVuSans-30" x="127.246094"/>
      </g>
     </g>
    </g>
    <g id="ytick_6">
     <g id="line2d_23">
      <path d="M 50.87 76.881221 
L 847.032168 76.881221 
" clip-path="url(#p02646d250c)" style="fill: none; stroke-dasharray: 2.96,1.28; stroke-dashoffset: 0; stroke: #b0b0b0; stroke-width: 0.8"/>
     </g>
     <g id="line2d_24">
      <g>
       <use xlink:href="#m583e394f9f" x="50.87" y="76.881221" style="stroke: #000000; stroke-width: 0.8"/>
      </g>
     </g>
     <g id="text_12">
      <!-- 250 -->
      <g transform="translate(24.7825 80.680439) scale(0.1 -0.1)">
       <use xlink:href="#DejaVuSans-32"/>
       <use xlink:href="#DejaVuSans-35" x="63.623047"/>
       <use xlink:href="#DejaVuSans-30" x="127.246094"/>
      </g>
     </g>
    </g>
    <g id="text_13">
     <!-- Score -->
     <g transform="translate(18.702813 229.502344) rotate(-90) scale(0.1 -0.1)">
      <defs>
       <path id="DejaVuSans-53" d="M 3425 4513 
L 3425 3897 
Q 3066 4069 2747 4153 
Q 2428 4238 2131 4238 
Q 1616 4238 1336 4038 
Q 1056 3838 1056 3469 
Q 1056 3159 1242 3001 
Q 1428 2844 1947 2747 
L 2328 2669 
Q 3034 2534 3370 2195 
Q 3706 1856 3706 1288 
Q 3706 609 3251 259 
Q 2797 -91 1919 -91 
Q 1588 -91 1214 -16 
Q 841 59 441 206 
L 441 856 
Q 825 641 1194 531 
Q 1563 422 1919 422 
Q 2459 422 2753 634 
Q 3047 847 3047 1241 
Q 3047 1584 2836 1778 
Q 2625 1972 2144 2069 
L 1759 2144 
Q 1053 2284 737 2584 
Q 422 2884 422 3419 
Q 422 4038 858 4394 
Q 1294 4750 2059 4750 
Q 2388 4750 2728 4690 
Q 3069 4631 3425 4513 
z
" transform="scale(0.015625)"/>
       <path id="DejaVuSans-63" d="M 3122 3366 
L 3122 2828 
Q 2878 2963 2633 3030 
Q 2388 3097 2138 3097 
Q 1578 3097 1268 2742 
Q 959 2388 959 1747 
Q 959 1106 1268 751 
Q 1578 397 2138 397 
Q 2388 397 2633 464 
Q 2878 531 3122 666 
L 3122 134 
Q 2881 22 2623 -34 
Q 2366 -91 2075 -91 
Q 1284 -91 818 406 
Q 353 903 353 1747 
Q 353 2603 823 3093 
Q 1294 3584 2113 3584 
Q 2378 3584 2631 3529 
Q 2884 3475 3122 3366 
z
" transform="scale(0.015625)"/>
       <path id="DejaVuSans-6f" d="M 1959 3097 
Q 1497 3097 1228 2736 
Q 959 2375 959 1747 
Q 959 1119 1226 758 
Q 1494 397 1959 397 
Q 2419 397 2687 759 
Q 2956 1122 2956 1747 
Q 2956 2369 2687 2733 
Q 2419 3097 1959 3097 
z
M 1959 3584 
Q 2709 3584 3137 3096 
Q 3566 2609 3566 1747 
Q 3566 888 3137 398 
Q 2709 -91 1959 -91 
Q 1206 -91 779 398 
Q 353 888 353 1747 
Q 353 2609 779 3096 
Q 1206 3584 1959 3584 
z
" transform="scale(0.015625)"/>
       <path id="DejaVuSans-72" d="M 2631 2963 
Q 2534 3019 2420 3045 
Q 2306 3072 2169 3072 
Q 1681 3072 1420 2755 
Q 1159 2438 1159 1844 
L 1159 0 
L 581 0 
L 581 3500 
L 1159 3500 
L 1159 2956 
Q 1341 3275 1631 3429 
Q 1922 3584 2338 3584 
Q 2397 3584 2469 3576 
Q 2541 3569 2628 3553 
L 2631 2963 
z
" transform="scale(0.015625)"/>
       <path id="DejaVuSans-65" d="M 3597 1894 
L 3597 1613 
L 953 1613 
Q 991 1019 1311 708 
Q 1631 397 2203 397 
Q 2534 397 2845 478 
Q 3156 559 3463 722 
L 3463 178 
Q 3153 47 2828 -22 
Q 2503 -91 2169 -91 
Q 1331 -91 842 396 
Q 353 884 353 1716 
Q 353 2575 817 3079 
Q 1281 3584 2069 3584 
Q 2775 3584 3186 3129 
Q 3597 2675 3597 1894 
z
M 3022 2063 
Q 3016 2534 2758 2815 
Q 2500 3097 2075 3097 
Q 1594 3097 1305 2825 
Q 1016 2553 972 2059 
L 3022 2063 
z
" transform="scale(0.015625)"/>
      </defs>
      <use xlink:href="#DejaVuSans-53"/>
      <use xlink:href="#DejaVuSans-63" x="63.476562"/>
      <use xlink:href="#DejaVuSans-6f" x="118.457031"/>
      <use xlink:href="#DejaVuSans-72" x="179.638672"/>
      <use xlink:href="#DejaVuSans-65" x="218.501953"/>
     </g>
    </g>
   </g>
   <g id="line2d_25">
    <path d="M 87.059189 380.75139 
L 96.338469 359.235082 
L 105.617748 321.265127 
L 114.897027 312.405471 
L 124.176307 293.420493 
L 133.455586 274.435516 
L 142.734866 246.590882 
L 152.014145 235.199895 
L 161.293424 203.558266 
L 170.572704 192.167279 
L 179.851983 157.99432 
L 189.131262 137.743677 
L 198.410542 78.257414 
L 226.24838 78.257414 
L 235.527659 78.257414 
L 244.806938 78.257414 
L 254.086218 78.257414 
L 263.365497 78.257414 
L 281.924056 78.257414 
L 291.203335 78.257414 
L 300.482614 78.257414 
L 309.761894 78.257414 
L 319.041173 78.257414 
L 328.320452 59.272436 
L 337.599732 59.272436 
L 346.879011 59.272436 
L 356.15829 59.272436 
L 365.43757 59.272436 
L 374.716849 46.615784 
L 383.996128 46.615784 
L 393.275408 46.615784 
L 402.554687 46.615784 
L 411.833967 46.615784 
L 421.113246 46.615784 
L 430.392525 46.615784 
L 439.671805 46.615784 
L 448.951084 46.615784 
L 458.230363 46.615784 
L 467.509643 46.615784 
L 476.788922 46.615784 
L 486.068201 46.615784 
L 495.347481 46.615784 
L 504.62676 46.615784 
L 513.906039 46.615784 
L 523.185319 46.615784 
L 532.464598 46.615784 
L 541.743877 46.615784 
L 551.023157 46.615784 
L 560.302436 46.615784 
L 569.581715 46.615784 
L 578.860995 46.615784 
L 588.140274 46.615784 
L 597.419553 46.615784 
L 606.698833 46.615784 
L 615.978112 46.615784 
L 625.257391 46.615784 
L 634.536671 46.615784 
L 643.81595 46.615784 
L 653.09523 46.615784 
L 662.374509 46.615784 
L 671.653788 46.615784 
L 680.933068 46.615784 
L 690.212347 46.615784 
L 699.491626 46.615784 
L 708.770906 46.615784 
L 718.050185 46.615784 
L 727.329464 46.615784 
L 736.608744 46.615784 
L 745.888023 46.615784 
L 755.167302 46.615784 
L 764.446582 46.615784 
L 773.725861 46.615784 
L 783.00514 46.615784 
L 792.28442 46.615784 
L 801.563699 46.615784 
L 810.842978 46.615784 
" clip-path="url(#p02646d250c)" style="fill: none; stroke: #1f77b4; stroke-width: 1.5; stroke-linecap: square"/>
    <defs>
     <path id="me757b4d745" d="M 0 3.5 
C 0.928211 3.5 1.81853 3.131218 2.474874 2.474874 
C 3.131218 1.81853 3.5 0.928211 3.5 0 
C 3.5 -0.928211 3.131218 -1.81853 2.474874 -2.474874 
C 1.81853 -3.131218 0.928211 -3.5 0 -3.5 
C -0.928211 -3.5 -1.81853 -3.131218 -2.474874 -2.474874 
C -3.131218 -1.81853 -3.5 -0.928211 -3.5 0 
C -3.5 0.928211 -3.131218 1.81853 -2.474874 2.474874 
C -1.81853 3.131218 -0.928211 3.5 0 3.5 
z
" style="stroke: #1f77b4"/>
    </defs>
    <g clip-path="url(#p02646d250c)">
     <use xlink:href="#me757b4d745" x="87.059189" y="380.75139" style="fill: #1f77b4; stroke: #1f77b4"/>
     <use xlink:href="#me757b4d745" x="96.338469" y="359.235082" style="fill: #1f77b4; stroke: #1f77b4"/>
     <use xlink:href="#me757b4d745" x="105.617748" y="321.265127" style="fill: #1f77b4; stroke: #1f77b4"/>
     <use xlink:href="#me757b4d745" x="114.897027" y="312.405471" style="fill: #1f77b4; stroke: #1f77b4"/>
     <use xlink:href="#me757b4d745" x="124.176307" y="293.420493" style="fill: #1f77b4; stroke: #1f77b4"/>
     <use xlink:href="#me757b4d745" x="133.455586" y="274.435516" style="fill: #1f77b4; stroke: #1f77b4"/>
     <use xlink:href="#me757b4d745" x="142.734866" y="246.590882" style="fill: #1f77b4; stroke: #1f77b4"/>
     <use xlink:href="#me757b4d745" x="152.014145" y="235.199895" style="fill: #1f77b4; stroke: #1f77b4"/>
     <use xlink:href="#me757b4d745" x="161.293424" y="203.558266" style="fill: #1f77b4; stroke: #1f77b4"/>
     <use xlink:href="#me757b4d745" x="170.572704" y="192.167279" style="fill: #1f77b4; stroke: #1f77b4"/>
     <use xlink:href="#me757b4d745" x="179.851983" y="157.99432" style="fill: #1f77b4; stroke: #1f77b4"/>
     <use xlink:href="#me757b4d745" x="189.131262" y="137.743677" style="fill: #1f77b4; stroke: #1f77b4"/>
     <use xlink:href="#me757b4d745" x="198.410542" y="78.257414" style="fill: #1f77b4; stroke: #1f77b4"/>
     <use xlink:href="#me757b4d745" x="226.24838" y="78.257414" style="fill: #1f77b4; stroke: #1f77b4"/>
     <use xlink:href="#me757b4d745" x="235.527659" y="78.257414" style="fill: #1f77b4; stroke: #1f77b4"/>
     <use xlink:href="#me757b4d745" x="244.806938" y="78.257414" style="fill: #1f77b4; stroke: #1f77b4"/>
     <use xlink:href="#me757b4d745" x="254.086218" y="78.257414" style="fill: #1f77b4; stroke: #1f77b4"/>
     <use xlink:href="#me757b4d745" x="263.365497" y="78.257414" style="fill: #1f77b4; stroke: #1f77b4"/>
     <use xlink:href="#me757b4d745" x="281.924056" y="78.257414" style="fill: #1f77b4; stroke: #1f77b4"/>
     <use xlink:href="#me757b4d745" x="291.203335" y="78.257414" style="fill: #1f77b4; stroke: #1f77b4"/>
     <use xlink:href="#me757b4d745" x="300.482614" y="78.257414" style="fill: #1f77b4; stroke: #1f77b4"/>
     <use xlink:href="#me757b4d745" x="309.761894" y="78.257414" style="fill: #1f77b4; stroke: #1f77b4"/>
     <use xlink:href="#me757b4d745" x="319.041173" y="78.257414" style="fill: #1f77b4; stroke: #1f77b4"/>
     <use xlink:href="#me757b4d745" x="328.320452" y="59.272436" style="fill: #1f77b4; stroke: #1f77b4"/>
     <use xlink:href="#me757b4d745" x="337.599732" y="59.272436" style="fill: #1f77b4; stroke: #1f77b4"/>
     <use xlink:href="#me757b4d745" x="346.879011" y="59.272436" style="fill: #1f77b4; stroke: #1f77b4"/>
     <use xlink:href="#me757b4d745" x="356.15829" y="59.272436" style="fill: #1f77b4; stroke: #1f77b4"/>
     <use xlink:href="#me757b4d745" x="365.43757" y="59.272436" style="fill: #1f77b4; stroke: #1f77b4"/>
     <use xlink:href="#me757b4d745" x="374.716849" y="46.615784" style="fill: #1f77b4; stroke: #1f77b4"/>
     <use xlink:href="#me757b4d745" x="383.996128" y="46.615784" style="fill: #1f77b4; stroke: #1f77b4"/>
     <use xlink:href="#me757b4d745" x="393.275408" y="46.615784" style="fill: #1f77b4; stroke: #1f77b4"/>
     <use xlink:href="#me757b4d745" x="402.554687" y="46.615784" style="fill: #1f77b4; stroke: #1f77b4"/>
     <use xlink:href="#me757b4d745" x="411.833967" y="46.615784" style="fill: #1f77b4; stroke: #1f77b4"/>
     <use xlink:href="#me757b4d745" x="421.113246" y="46.615784" style="fill: #1f77b4; stroke: #1f77b4"/>
     <use xlink:href="#me757b4d745" x="430.392525" y="46.615784" style="fill: #1f77b4; stroke: #1f77b4"/>
     <use xlink:href="#me757b4d745" x="439.671805" y="46.615784" style="fill: #1f77b4; stroke: #1f77b4"/>
     <use xlink:href="#me757b4d745" x="448.951084" y="46.615784" style="fill: #1f77b4; stroke: #1f77b4"/>
     <use xlink:href="#me757b4d745" x="458.230363" y="46.615784" style="fill: #1f77b4; stroke: #1f77b4"/>
     <use xlink:href="#me757b4d745" x="467.509643" y="46.615784" style="fill: #1f77b4; stroke: #1f77b4"/>
     <use xlink:href="#me757b4d745" x="476.788922" y="46.615784" style="fill: #1f77b4; stroke: #1f77b4"/>
     <use xlink:href="#me757b4d745" x="486.068201" y="46.615784" style="fill: #1f77b4; stroke: #1f77b4"/>
     <use xlink:href="#me757b4d745" x="495.347481" y="46.615784" style="fill: #1f77b4; stroke: #1f77b4"/>
     <use xlink:href="#me757b4d745" x="504.62676" y="46.615784" style="fill: #1f77b4; stroke: #1f77b4"/>
     <use xlink:href="#me757b4d745" x="513.906039" y="46.615784" style="fill: #1f77b4; stroke: #1f77b4"/>
     <use xlink:href="#me757b4d745" x="523.185319" y="46.615784" style="fill: #1f77b4; stroke: #1f77b4"/>
     <use xlink:href="#me757b4d745" x="532.464598" y="46.615784" style="fill: #1f77b4; stroke: #1f77b4"/>
     <use xlink:href="#me757b4d745" x="541.743877" y="46.615784" style="fill: #1f77b4; stroke: #1f77b4"/>
     <use xlink:href="#me757b4d745" x="551.023157" y="46.615784" style="fill: #1f77b4; stroke: #1f77b4"/>
     <use xlink:href="#me757b4d745" x="560.302436" y="46.615784" style="fill: #1f77b4; stroke: #1f77b4"/>
     <use xlink:href="#me757b4d745" x="569.581715" y="46.615784" style="fill: #1f77b4; stroke: #1f77b4"/>
     <use xlink:href="#me757b4d745" x="578.860995" y="46.615784" style="fill: #1f77b4; stroke: #1f77b4"/>
     <use xlink:href="#me757b4d745" x="588.140274" y="46.615784" style="fill: #1f77b4; stroke: #1f77b4"/>
     <use xlink:href="#me757b4d745" x="597.419553" y="46.615784" style="fill: #1f77b4; stroke: #1f77b4"/>
     <use xlink:href="#me757b4d745" x="606.698833" y="46.615784" style="fill: #1f77b4; stroke: #1f77b4"/>
     <use xlink:href="#me757b4d745" x="615.978112" y="46.615784" style="fill: #1f77b4; stroke: #1f77b4"/>
     <use xlink:href="#me757b4d745" x="625.257391" y="46.615784" style="fill: #1f77b4; stroke: #1f77b4"/>
     <use xlink:href="#me757b4d745" x="634.536671" y="46.615784" style="fill: #1f77b4; stroke: #1f77b4"/>
     <use xlink:href="#me757b4d745" x="643.81595" y="46.615784" style="fill: #1f77b4; stroke: #1f77b4"/>
     <use xlink:href="#me757b4d745" x="653.09523" y="46.615784" style="fill: #1f77b4; stroke: #1f77b4"/>
     <use xlink:href="#me757b4d745" x="662.374509" y="46.615784" style="fill: #1f77b4; stroke: #1f77b4"/>
     <use xlink:href="#me757b4d745" x="671.653788" y="46.615784" style="fill: #1f77b4; stroke: #1f77b4"/>
     <use xlink:href="#me757b4d745" x="680.933068" y="46.615784" style="fill: #1f77b4; stroke: #1f77b4"/>
     <use xlink:href="#me757b4d745" x="690.212347" y="46.615784" style="fill: #1f77b4; stroke: #1f77b4"/>
     <use xlink:href="#me757b4d745" x="699.491626" y="46.615784" style="fill: #1f77b4; stroke: #1f77b4"/>
     <use xlink:href="#me757b4d745" x="708.770906" y="46.615784" style="fill: #1f77b4; stroke: #1f77b4"/>
     <use xlink:href="#me757b4d745" x="718.050185" y="46.615784" style="fill: #1f77b4; stroke: #1f77b4"/>
     <use xlink:href="#me757b4d745" x="727.329464" y="46.615784" style="fill: #1f77b4; stroke: #1f77b4"/>
     <use xlink:href="#me757b4d745" x="736.608744" y="46.615784" style="fill: #1f77b4; stroke: #1f77b4"/>
     <use xlink:href="#me757b4d745" x="745.888023" y="46.615784" style="fill: #1f77b4; stroke: #1f77b4"/>
     <use xlink:href="#me757b4d745" x="755.167302" y="46.615784" style="fill: #1f77b4; stroke: #1f77b4"/>
     <use xlink:href="#me757b4d745" x="764.446582" y="46.615784" style="fill: #1f77b4; stroke: #1f77b4"/>
     <use xlink:href="#me757b4d745" x="773.725861" y="46.615784" style="fill: #1f77b4; stroke: #1f77b4"/>
     <use xlink:href="#me757b4d745" x="783.00514" y="46.615784" style="fill: #1f77b4; stroke: #1f77b4"/>
     <use xlink:href="#me757b4d745" x="792.28442" y="46.615784" style="fill: #1f77b4; stroke: #1f77b4"/>
     <use xlink:href="#me757b4d745" x="801.563699" y="46.615784" style="fill: #1f77b4; stroke: #1f77b4"/>
     <use xlink:href="#me757b4d745" x="810.842978" y="46.615784" style="fill: #1f77b4; stroke: #1f77b4"/>
    </g>
   </g>
   <g id="line2d_26">
    <path d="M 87.059189 380.639306 
L 96.338469 359.122998 
L 105.617748 340.138021 
L 114.897027 333.809695 
L 124.176307 327.481369 
L 133.455586 303.43373 
L 142.734866 292.042744 
L 152.014145 285.714418 
L 161.293424 254.072789 
L 170.572704 216.102833 
L 179.851983 190.78953 
L 189.131262 176.867213 
L 198.410542 130.037602 
L 226.24838 130.037602 
L 235.527659 130.037602 
L 244.806938 130.037602 
L 254.086218 130.037602 
L 263.365497 130.037602 
L 281.924056 130.037602 
L 291.203335 130.037602 
L 300.482614 130.037602 
L 309.761894 130.037602 
L 319.041173 130.037602 
L 328.320452 111.052624 
L 337.599732 111.052624 
L 346.879011 111.052624 
L 356.15829 111.052624 
L 365.43757 111.052624 
L 374.716849 79.410995 
L 383.996128 79.410995 
L 393.275408 79.410995 
L 402.554687 79.410995 
L 411.833967 79.410995 
L 421.113246 79.410995 
L 430.392525 79.410995 
L 439.671805 79.410995 
L 448.951084 79.410995 
L 458.230363 79.410995 
L 467.509643 79.410995 
L 476.788922 79.410995 
L 486.068201 79.410995 
L 495.347481 79.410995 
L 504.62676 79.410995 
L 513.906039 79.410995 
L 523.185319 79.410995 
L 532.464598 79.410995 
L 541.743877 79.410995 
L 551.023157 79.410995 
L 560.302436 79.410995 
L 569.581715 79.410995 
L 578.860995 79.410995 
L 588.140274 79.410995 
L 597.419553 79.410995 
L 606.698833 79.410995 
L 615.978112 79.410995 
L 625.257391 79.410995 
L 634.536671 79.410995 
L 643.81595 79.410995 
L 653.09523 79.410995 
L 662.374509 79.410995 
L 671.653788 79.410995 
L 680.933068 79.410995 
L 690.212347 79.410995 
L 699.491626 79.410995 
L 708.770906 79.410995 
L 718.050185 79.410995 
L 727.329464 79.410995 
L 736.608744 79.410995 
L 745.888023 79.410995 
L 755.167302 79.410995 
L 764.446582 79.410995 
L 773.725861 79.410995 
L 783.00514 79.410995 
L 792.28442 79.410995 
L 801.563699 79.410995 
L 810.842978 79.410995 
" clip-path="url(#p02646d250c)" style="fill: none; stroke: #ff7f0e; stroke-width: 1.5; stroke-linecap: square"/>
    <defs>
     <path id="m0acd4c163e" d="M 0 3.5 
C 0.928211 3.5 1.81853 3.131218 2.474874 2.474874 
C 3.131218 1.81853 3.5 0.928211 3.5 0 
C 3.5 -0.928211 3.131218 -1.81853 2.474874 -2.474874 
C 1.81853 -3.131218 0.928211 -3.5 0 -3.5 
C -0.928211 -3.5 -1.81853 -3.131218 -2.474874 -2.474874 
C -3.131218 -1.81853 -3.5 -0.928211 -3.5 0 
C -3.5 0.928211 -3.131218 1.81853 -2.474874 2.474874 
C -1.81853 3.131218 -0.928211 3.5 0 3.5 
z
" style="stroke: #ff7f0e"/>
    </defs>
    <g clip-path="url(#p02646d250c)">
     <use xlink:href="#m0acd4c163e" x="87.059189" y="380.639306" style="fill: #ff7f0e; stroke: #ff7f0e"/>
     <use xlink:href="#m0acd4c163e" x="96.338469" y="359.122998" style="fill: #ff7f0e; stroke: #ff7f0e"/>
     <use xlink:href="#m0acd4c163e" x="105.617748" y="340.138021" style="fill: #ff7f0e; stroke: #ff7f0e"/>
     <use xlink:href="#m0acd4c163e" x="114.897027" y="333.809695" style="fill: #ff7f0e; stroke: #ff7f0e"/>
     <use xlink:href="#m0acd4c163e" x="124.176307" y="327.481369" style="fill: #ff7f0e; stroke: #ff7f0e"/>
     <use xlink:href="#m0acd4c163e" x="133.455586" y="303.43373" style="fill: #ff7f0e; stroke: #ff7f0e"/>
     <use xlink:href="#m0acd4c163e" x="142.734866" y="292.042744" style="fill: #ff7f0e; stroke: #ff7f0e"/>
     <use xlink:href="#m0acd4c163e" x="152.014145" y="285.714418" style="fill: #ff7f0e; stroke: #ff7f0e"/>
     <use xlink:href="#m0acd4c163e" x="161.293424" y="254.072789" style="fill: #ff7f0e; stroke: #ff7f0e"/>
     <use xlink:href="#m0acd4c163e" x="170.572704" y="216.102833" style="fill: #ff7f0e; stroke: #ff7f0e"/>
     <use xlink:href="#m0acd4c163e" x="179.851983" y="190.78953" style="fill: #ff7f0e; stroke: #ff7f0e"/>
     <use xlink:href="#m0acd4c163e" x="189.131262" y="176.867213" style="fill: #ff7f0e; stroke: #ff7f0e"/>
     <use xlink:href="#m0acd4c163e" x="198.410542" y="130.037602" style="fill: #ff7f0e; stroke: #ff7f0e"/>
     <use xlink:href="#m0acd4c163e" x="226.24838" y="130.037602" style="fill: #ff7f0e; stroke: #ff7f0e"/>
     <use xlink:href="#m0acd4c163e" x="235.527659" y="130.037602" style="fill: #ff7f0e; stroke: #ff7f0e"/>
     <use xlink:href="#m0acd4c163e" x="244.806938" y="130.037602" style="fill: #ff7f0e; stroke: #ff7f0e"/>
     <use xlink:href="#m0acd4c163e" x="254.086218" y="130.037602" style="fill: #ff7f0e; stroke: #ff7f0e"/>
     <use xlink:href="#m0acd4c163e" x="263.365497" y="130.037602" style="fill: #ff7f0e; stroke: #ff7f0e"/>
     <use xlink:href="#m0acd4c163e" x="281.924056" y="130.037602" style="fill: #ff7f0e; stroke: #ff7f0e"/>
     <use xlink:href="#m0acd4c163e" x="291.203335" y="130.037602" style="fill: #ff7f0e; stroke: #ff7f0e"/>
     <use xlink:href="#m0acd4c163e" x="300.482614" y="130.037602" style="fill: #ff7f0e; stroke: #ff7f0e"/>
     <use xlink:href="#m0acd4c163e" x="309.761894" y="130.037602" style="fill: #ff7f0e; stroke: #ff7f0e"/>
     <use xlink:href="#m0acd4c163e" x="319.041173" y="130.037602" style="fill: #ff7f0e; stroke: #ff7f0e"/>
     <use xlink:href="#m0acd4c163e" x="328.320452" y="111.052624" style="fill: #ff7f0e; stroke: #ff7f0e"/>
     <use xlink:href="#m0acd4c163e" x="337.599732" y="111.052624" style="fill: #ff7f0e; stroke: #ff7f0e"/>
     <use xlink:href="#m0acd4c163e" x="346.879011" y="111.052624" style="fill: #ff7f0e; stroke: #ff7f0e"/>
     <use xlink:href="#m0acd4c163e" x="356.15829" y="111.052624" style="fill: #ff7f0e; stroke: #ff7f0e"/>
     <use xlink:href="#m0acd4c163e" x="365.43757" y="111.052624" style="fill: #ff7f0e; stroke: #ff7f0e"/>
     <use xlink:href="#m0acd4c163e" x="374.716849" y="79.410995" style="fill: #ff7f0e; stroke: #ff7f0e"/>
     <use xlink:href="#m0acd4c163e" x="383.996128" y="79.410995" style="fill: #ff7f0e; stroke: #ff7f0e"/>
     <use xlink:href="#m0acd4c163e" x="393.275408" y="79.410995" style="fill: #ff7f0e; stroke: #ff7f0e"/>
     <use xlink:href="#m0acd4c163e" x="402.554687" y="79.410995" style="fill: #ff7f0e; stroke: #ff7f0e"/>
     <use xlink:href="#m0acd4c163e" x="411.833967" y="79.410995" style="fill: #ff7f0e; stroke: #ff7f0e"/>
     <use xlink:href="#m0acd4c163e" x="421.113246" y="79.410995" style="fill: #ff7f0e; stroke: #ff7f0e"/>
     <use xlink:href="#m0acd4c163e" x="430.392525" y="79.410995" style="fill: #ff7f0e; stroke: #ff7f0e"/>
     <use xlink:href="#m0acd4c163e" x="439.671805" y="79.410995" style="fill: #ff7f0e; stroke: #ff7f0e"/>
     <use xlink:href="#m0acd4c163e" x="448.951084" y="79.410995" style="fill: #ff7f0e; stroke: #ff7f0e"/>
     <use xlink:href="#m0acd4c163e" x="458.230363" y="79.410995" style="fill: #ff7f0e; stroke: #ff7f0e"/>
     <use xlink:href="#m0acd4c163e" x="467.509643" y="79.410995" style="fill: #ff7f0e; stroke: #ff7f0e"/>
     <use xlink:href="#m0acd4c163e" x="476.788922" y="79.410995" style="fill: #ff7f0e; stroke: #ff7f0e"/>
     <use xlink:href="#m0acd4c163e" x="486.068201" y="79.410995" style="fill: #ff7f0e; stroke: #ff7f0e"/>
     <use xlink:href="#m0acd4c163e" x="495.347481" y="79.410995" style="fill: #ff7f0e; stroke: #ff7f0e"/>
     <use xlink:href="#m0acd4c163e" x="504.62676" y="79.410995" style="fill: #ff7f0e; stroke: #ff7f0e"/>
     <use xlink:href="#m0acd4c163e" x="513.906039" y="79.410995" style="fill: #ff7f0e; stroke: #ff7f0e"/>
     <use xlink:href="#m0acd4c163e" x="523.185319" y="79.410995" style="fill: #ff7f0e; stroke: #ff7f0e"/>
     <use xlink:href="#m0acd4c163e" x="532.464598" y="79.410995" style="fill: #ff7f0e; stroke: #ff7f0e"/>
     <use xlink:href="#m0acd4c163e" x="541.743877" y="79.410995" style="fill: #ff7f0e; stroke: #ff7f0e"/>
     <use xlink:href="#m0acd4c163e" x="551.023157" y="79.410995" style="fill: #ff7f0e; stroke: #ff7f0e"/>
     <use xlink:href="#m0acd4c163e" x="560.302436" y="79.410995" style="fill: #ff7f0e; stroke: #ff7f0e"/>
     <use xlink:href="#m0acd4c163e" x="569.581715" y="79.410995" style="fill: #ff7f0e; stroke: #ff7f0e"/>
     <use xlink:href="#m0acd4c163e" x="578.860995" y="79.410995" style="fill: #ff7f0e; stroke: #ff7f0e"/>
     <use xlink:href="#m0acd4c163e" x="588.140274" y="79.410995" style="fill: #ff7f0e; stroke: #ff7f0e"/>
     <use xlink:href="#m0acd4c163e" x="597.419553" y="79.410995" style="fill: #ff7f0e; stroke: #ff7f0e"/>
     <use xlink:href="#m0acd4c163e" x="606.698833" y="79.410995" style="fill: #ff7f0e; stroke: #ff7f0e"/>
     <use xlink:href="#m0acd4c163e" x="615.978112" y="79.410995" style="fill: #ff7f0e; stroke: #ff7f0e"/>
     <use xlink:href="#m0acd4c163e" x="625.257391" y="79.410995" style="fill: #ff7f0e; stroke: #ff7f0e"/>
     <use xlink:href="#m0acd4c163e" x="634.536671" y="79.410995" style="fill: #ff7f0e; stroke: #ff7f0e"/>
     <use xlink:href="#m0acd4c163e" x="643.81595" y="79.410995" style="fill: #ff7f0e; stroke: #ff7f0e"/>
     <use xlink:href="#m0acd4c163e" x="653.09523" y="79.410995" style="fill: #ff7f0e; stroke: #ff7f0e"/>
     <use xlink:href="#m0acd4c163e" x="662.374509" y="79.410995" style="fill: #ff7f0e; stroke: #ff7f0e"/>
     <use xlink:href="#m0acd4c163e" x="671.653788" y="79.410995" style="fill: #ff7f0e; stroke: #ff7f0e"/>
     <use xlink:href="#m0acd4c163e" x="680.933068" y="79.410995" style="fill: #ff7f0e; stroke: #ff7f0e"/>
     <use xlink:href="#m0acd4c163e" x="690.212347" y="79.410995" style="fill: #ff7f0e; stroke: #ff7f0e"/>
     <use xlink:href="#m0acd4c163e" x="699.491626" y="79.410995" style="fill: #ff7f0e; stroke: #ff7f0e"/>
     <use xlink:href="#m0acd4c163e" x="708.770906" y="79.410995" style="fill: #ff7f0e; stroke: #ff7f0e"/>
     <use xlink:href="#m0acd4c163e" x="718.050185" y="79.410995" style="fill: #ff7f0e; stroke: #ff7f0e"/>
     <use xlink:href="#m0acd4c163e" x="727.329464" y="79.410995" style="fill: #ff7f0e; stroke: #ff7f0e"/>
     <use xlink:href="#m0acd4c163e" x="736.608744" y="79.410995" style="fill: #ff7f0e; stroke: #ff7f0e"/>
     <use xlink:href="#m0acd4c163e" x="745.888023" y="79.410995" style="fill: #ff7f0e; stroke: #ff7f0e"/>
     <use xlink:href="#m0acd4c163e" x="755.167302" y="79.410995" style="fill: #ff7f0e; stroke: #ff7f0e"/>
     <use xlink:href="#m0acd4c163e" x="764.446582" y="79.410995" style="fill: #ff7f0e; stroke: #ff7f0e"/>
     <use xlink:href="#m0acd4c163e" x="773.725861" y="79.410995" style="fill: #ff7f0e; stroke: #ff7f0e"/>
     <use xlink:href="#m0acd4c163e" x="783.00514" y="79.410995" style="fill: #ff7f0e; stroke: #ff7f0e"/>
     <use xlink:href="#m0acd4c163e" x="792.28442" y="79.410995" style="fill: #ff7f0e; stroke: #ff7f0e"/>
     <use xlink:href="#m0acd4c163e" x="801.563699" y="79.410995" style="fill: #ff7f0e; stroke: #ff7f0e"/>
     <use xlink:href="#m0acd4c163e" x="810.842978" y="79.410995" style="fill: #ff7f0e; stroke: #ff7f0e"/>
    </g>
   </g>
   <g id="line2d_27">
    <path d="M 87.059189 380.598584 
L 96.338469 355.285281 
L 105.617748 331.237643 
L 114.897027 318.580991 
L 124.176307 293.267687 
L 133.455586 271.751379 
L 142.734866 250.235071 
L 152.014145 212.265116 
L 161.293424 190.748808 
L 170.572704 181.889152 
L 179.851983 154.044518 
L 189.131262 142.653532 
L 198.410542 99.620916 
L 226.24838 99.620916 
L 235.527659 99.620916 
L 244.806938 99.620916 
L 254.086218 99.620916 
L 263.365497 99.620916 
L 281.924056 99.620916 
L 291.203335 99.620916 
L 300.482614 99.620916 
L 309.761894 99.620916 
L 319.041173 99.620916 
L 328.320452 80.635938 
L 337.599732 80.635938 
L 346.879011 80.635938 
L 356.15829 80.635938 
L 365.43757 80.635938 
L 374.716849 80.635938 
L 383.996128 80.635938 
L 393.275408 80.635938 
L 402.554687 80.635938 
L 411.833967 80.635938 
L 421.113246 80.635938 
L 430.392525 80.635938 
L 439.671805 80.635938 
L 448.951084 80.635938 
L 458.230363 80.635938 
L 467.509643 80.635938 
L 476.788922 80.635938 
L 486.068201 80.635938 
L 495.347481 80.635938 
L 504.62676 80.635938 
L 513.906039 80.635938 
L 523.185319 80.635938 
L 532.464598 80.635938 
L 541.743877 80.635938 
L 551.023157 80.635938 
L 560.302436 80.635938 
L 569.581715 80.635938 
L 578.860995 80.635938 
L 588.140274 80.635938 
L 597.419553 80.635938 
L 606.698833 80.635938 
L 615.978112 80.635938 
L 625.257391 80.635938 
L 634.536671 80.635938 
L 643.81595 80.635938 
L 653.09523 80.635938 
L 662.374509 80.635938 
L 671.653788 80.635938 
L 680.933068 80.635938 
L 690.212347 80.635938 
L 699.491626 80.635938 
L 708.770906 80.635938 
L 718.050185 80.635938 
L 727.329464 80.635938 
L 736.608744 80.635938 
L 745.888023 80.635938 
L 755.167302 80.635938 
L 764.446582 80.635938 
L 773.725861 80.635938 
L 783.00514 80.635938 
L 792.28442 80.635938 
L 801.563699 80.635938 
L 810.842978 80.635938 
" clip-path="url(#p02646d250c)" style="fill: none; stroke: #2ca02c; stroke-width: 1.5; stroke-linecap: square"/>
    <defs>
     <path id="m657aafb15e" d="M 0 3.5 
C 0.928211 3.5 1.81853 3.131218 2.474874 2.474874 
C 3.131218 1.81853 3.5 0.928211 3.5 0 
C 3.5 -0.928211 3.131218 -1.81853 2.474874 -2.474874 
C 1.81853 -3.131218 0.928211 -3.5 0 -3.5 
C -0.928211 -3.5 -1.81853 -3.131218 -2.474874 -2.474874 
C -3.131218 -1.81853 -3.5 -0.928211 -3.5 0 
C -3.5 0.928211 -3.131218 1.81853 -2.474874 2.474874 
C -1.81853 3.131218 -0.928211 3.5 0 3.5 
z
" style="stroke: #2ca02c"/>
    </defs>
    <g clip-path="url(#p02646d250c)">
     <use xlink:href="#m657aafb15e" x="87.059189" y="380.598584" style="fill: #2ca02c; stroke: #2ca02c"/>
     <use xlink:href="#m657aafb15e" x="96.338469" y="355.285281" style="fill: #2ca02c; stroke: #2ca02c"/>
     <use xlink:href="#m657aafb15e" x="105.617748" y="331.237643" style="fill: #2ca02c; stroke: #2ca02c"/>
     <use xlink:href="#m657aafb15e" x="114.897027" y="318.580991" style="fill: #2ca02c; stroke: #2ca02c"/>
     <use xlink:href="#m657aafb15e" x="124.176307" y="293.267687" style="fill: #2ca02c; stroke: #2ca02c"/>
     <use xlink:href="#m657aafb15e" x="133.455586" y="271.751379" style="fill: #2ca02c; stroke: #2ca02c"/>
     <use xlink:href="#m657aafb15e" x="142.734866" y="250.235071" style="fill: #2ca02c; stroke: #2ca02c"/>
     <use xlink:href="#m657aafb15e" x="152.014145" y="212.265116" style="fill: #2ca02c; stroke: #2ca02c"/>
     <use xlink:href="#m657aafb15e" x="161.293424" y="190.748808" style="fill: #2ca02c; stroke: #2ca02c"/>
     <use xlink:href="#m657aafb15e" x="170.572704" y="181.889152" style="fill: #2ca02c; stroke: #2ca02c"/>
     <use xlink:href="#m657aafb15e" x="179.851983" y="154.044518" style="fill: #2ca02c; stroke: #2ca02c"/>
     <use xlink:href="#m657aafb15e" x="189.131262" y="142.653532" style="fill: #2ca02c; stroke: #2ca02c"/>
     <use xlink:href="#m657aafb15e" x="198.410542" y="99.620916" style="fill: #2ca02c; stroke: #2ca02c"/>
     <use xlink:href="#m657aafb15e" x="226.24838" y="99.620916" style="fill: #2ca02c; stroke: #2ca02c"/>
     <use xlink:href="#m657aafb15e" x="235.527659" y="99.620916" style="fill: #2ca02c; stroke: #2ca02c"/>
     <use xlink:href="#m657aafb15e" x="244.806938" y="99.620916" style="fill: #2ca02c; stroke: #2ca02c"/>
     <use xlink:href="#m657aafb15e" x="254.086218" y="99.620916" style="fill: #2ca02c; stroke: #2ca02c"/>
     <use xlink:href="#m657aafb15e" x="263.365497" y="99.620916" style="fill: #2ca02c; stroke: #2ca02c"/>
     <use xlink:href="#m657aafb15e" x="281.924056" y="99.620916" style="fill: #2ca02c; stroke: #2ca02c"/>
     <use xlink:href="#m657aafb15e" x="291.203335" y="99.620916" style="fill: #2ca02c; stroke: #2ca02c"/>
     <use xlink:href="#m657aafb15e" x="300.482614" y="99.620916" style="fill: #2ca02c; stroke: #2ca02c"/>
     <use xlink:href="#m657aafb15e" x="309.761894" y="99.620916" style="fill: #2ca02c; stroke: #2ca02c"/>
     <use xlink:href="#m657aafb15e" x="319.041173" y="99.620916" style="fill: #2ca02c; stroke: #2ca02c"/>
     <use xlink:href="#m657aafb15e" x="328.320452" y="80.635938" style="fill: #2ca02c; stroke: #2ca02c"/>
     <use xlink:href="#m657aafb15e" x="337.599732" y="80.635938" style="fill: #2ca02c; stroke: #2ca02c"/>
     <use xlink:href="#m657aafb15e" x="346.879011" y="80.635938" style="fill: #2ca02c; stroke: #2ca02c"/>
     <use xlink:href="#m657aafb15e" x="356.15829" y="80.635938" style="fill: #2ca02c; stroke: #2ca02c"/>
     <use xlink:href="#m657aafb15e" x="365.43757" y="80.635938" style="fill: #2ca02c; stroke: #2ca02c"/>
     <use xlink:href="#m657aafb15e" x="374.716849" y="80.635938" style="fill: #2ca02c; stroke: #2ca02c"/>
     <use xlink:href="#m657aafb15e" x="383.996128" y="80.635938" style="fill: #2ca02c; stroke: #2ca02c"/>
     <use xlink:href="#m657aafb15e" x="393.275408" y="80.635938" style="fill: #2ca02c; stroke: #2ca02c"/>
     <use xlink:href="#m657aafb15e" x="402.554687" y="80.635938" style="fill: #2ca02c; stroke: #2ca02c"/>
     <use xlink:href="#m657aafb15e" x="411.833967" y="80.635938" style="fill: #2ca02c; stroke: #2ca02c"/>
     <use xlink:href="#m657aafb15e" x="421.113246" y="80.635938" style="fill: #2ca02c; stroke: #2ca02c"/>
     <use xlink:href="#m657aafb15e" x="430.392525" y="80.635938" style="fill: #2ca02c; stroke: #2ca02c"/>
     <use xlink:href="#m657aafb15e" x="439.671805" y="80.635938" style="fill: #2ca02c; stroke: #2ca02c"/>
     <use xlink:href="#m657aafb15e" x="448.951084" y="80.635938" style="fill: #2ca02c; stroke: #2ca02c"/>
     <use xlink:href="#m657aafb15e" x="458.230363" y="80.635938" style="fill: #2ca02c; stroke: #2ca02c"/>
     <use xlink:href="#m657aafb15e" x="467.509643" y="80.635938" style="fill: #2ca02c; stroke: #2ca02c"/>
     <use xlink:href="#m657aafb15e" x="476.788922" y="80.635938" style="fill: #2ca02c; stroke: #2ca02c"/>
     <use xlink:href="#m657aafb15e" x="486.068201" y="80.635938" style="fill: #2ca02c; stroke: #2ca02c"/>
     <use xlink:href="#m657aafb15e" x="495.347481" y="80.635938" style="fill: #2ca02c; stroke: #2ca02c"/>
     <use xlink:href="#m657aafb15e" x="504.62676" y="80.635938" style="fill: #2ca02c; stroke: #2ca02c"/>
     <use xlink:href="#m657aafb15e" x="513.906039" y="80.635938" style="fill: #2ca02c; stroke: #2ca02c"/>
     <use xlink:href="#m657aafb15e" x="523.185319" y="80.635938" style="fill: #2ca02c; stroke: #2ca02c"/>
     <use xlink:href="#m657aafb15e" x="532.464598" y="80.635938" style="fill: #2ca02c; stroke: #2ca02c"/>
     <use xlink:href="#m657aafb15e" x="541.743877" y="80.635938" style="fill: #2ca02c; stroke: #2ca02c"/>
     <use xlink:href="#m657aafb15e" x="551.023157" y="80.635938" style="fill: #2ca02c; stroke: #2ca02c"/>
     <use xlink:href="#m657aafb15e" x="560.302436" y="80.635938" style="fill: #2ca02c; stroke: #2ca02c"/>
     <use xlink:href="#m657aafb15e" x="569.581715" y="80.635938" style="fill: #2ca02c; stroke: #2ca02c"/>
     <use xlink:href="#m657aafb15e" x="578.860995" y="80.635938" style="fill: #2ca02c; stroke: #2ca02c"/>
     <use xlink:href="#m657aafb15e" x="588.140274" y="80.635938" style="fill: #2ca02c; stroke: #2ca02c"/>
     <use xlink:href="#m657aafb15e" x="597.419553" y="80.635938" style="fill: #2ca02c; stroke: #2ca02c"/>
     <use xlink:href="#m657aafb15e" x="606.698833" y="80.635938" style="fill: #2ca02c; stroke: #2ca02c"/>
     <use xlink:href="#m657aafb15e" x="615.978112" y="80.635938" style="fill: #2ca02c; stroke: #2ca02c"/>
     <use xlink:href="#m657aafb15e" x="625.257391" y="80.635938" style="fill: #2ca02c; stroke: #2ca02c"/>
     <use xlink:href="#m657aafb15e" x="634.536671" y="80.635938" style="fill: #2ca02c; stroke: #2ca02c"/>
     <use xlink:href="#m657aafb15e" x="643.81595" y="80.635938" style="fill: #2ca02c; stroke: #2ca02c"/>
     <use xlink:href="#m657aafb15e" x="653.09523" y="80.635938" style="fill: #2ca02c; stroke: #2ca02c"/>
     <use xlink:href="#m657aafb15e" x="662.374509" y="80.635938" style="fill: #2ca02c; stroke: #2ca02c"/>
     <use xlink:href="#m657aafb15e" x="671.653788" y="80.635938" style="fill: #2ca02c; stroke: #2ca02c"/>
     <use xlink:href="#m657aafb15e" x="680.933068" y="80.635938" style="fill: #2ca02c; stroke: #2ca02c"/>
     <use xlink:href="#m657aafb15e" x="690.212347" y="80.635938" style="fill: #2ca02c; stroke: #2ca02c"/>
     <use xlink:href="#m657aafb15e" x="699.491626" y="80.635938" style="fill: #2ca02c; stroke: #2ca02c"/>
     <use xlink:href="#m657aafb15e" x="708.770906" y="80.635938" style="fill: #2ca02c; stroke: #2ca02c"/>
     <use xlink:href="#m657aafb15e" x="718.050185" y="80.635938" style="fill: #2ca02c; stroke: #2ca02c"/>
     <use xlink:href="#m657aafb15e" x="727.329464" y="80.635938" style="fill: #2ca02c; stroke: #2ca02c"/>
     <use xlink:href="#m657aafb15e" x="736.608744" y="80.635938" style="fill: #2ca02c; stroke: #2ca02c"/>
     <use xlink:href="#m657aafb15e" x="745.888023" y="80.635938" style="fill: #2ca02c; stroke: #2ca02c"/>
     <use xlink:href="#m657aafb15e" x="755.167302" y="80.635938" style="fill: #2ca02c; stroke: #2ca02c"/>
     <use xlink:href="#m657aafb15e" x="764.446582" y="80.635938" style="fill: #2ca02c; stroke: #2ca02c"/>
     <use xlink:href="#m657aafb15e" x="773.725861" y="80.635938" style="fill: #2ca02c; stroke: #2ca02c"/>
     <use xlink:href="#m657aafb15e" x="783.00514" y="80.635938" style="fill: #2ca02c; stroke: #2ca02c"/>
     <use xlink:href="#m657aafb15e" x="792.28442" y="80.635938" style="fill: #2ca02c; stroke: #2ca02c"/>
     <use xlink:href="#m657aafb15e" x="801.563699" y="80.635938" style="fill: #2ca02c; stroke: #2ca02c"/>
     <use xlink:href="#m657aafb15e" x="810.842978" y="80.635938" style="fill: #2ca02c; stroke: #2ca02c"/>
    </g>
   </g>
   <g id="line2d_28">
    <path d="M 87.059189 380.694209 
L 96.338469 349.05258 
L 105.617748 317.41095 
L 114.897027 292.097647 
L 124.176307 279.440995 
L 133.455586 238.93971 
L 142.734866 214.892071 
L 152.014145 202.235419 
L 161.293424 180.719112 
L 170.572704 169.328125 
L 179.851983 135.155165 
L 189.131262 121.232848 
L 198.410542 81.997228 
L 226.24838 81.997228 
L 235.527659 81.997228 
L 244.806938 81.997228 
L 254.086218 81.997228 
L 263.365497 81.997228 
L 281.924056 81.997228 
L 291.203335 81.997228 
L 300.482614 81.997228 
L 309.761894 81.997228 
L 319.041173 81.997228 
L 328.320452 63.01225 
L 337.599732 63.01225 
L 346.879011 63.01225 
L 356.15829 63.01225 
L 365.43757 63.01225 
L 374.716849 44.027273 
L 383.996128 44.027273 
L 393.275408 44.027273 
L 402.554687 44.027273 
L 411.833967 44.027273 
L 421.113246 44.027273 
L 430.392525 44.027273 
L 439.671805 44.027273 
L 448.951084 44.027273 
L 458.230363 44.027273 
L 467.509643 44.027273 
L 476.788922 44.027273 
L 486.068201 44.027273 
L 495.347481 44.027273 
L 504.62676 44.027273 
L 513.906039 44.027273 
L 523.185319 44.027273 
L 532.464598 44.027273 
L 541.743877 44.027273 
L 551.023157 44.027273 
L 560.302436 44.027273 
L 569.581715 44.027273 
L 578.860995 44.027273 
L 588.140274 44.027273 
L 597.419553 44.027273 
L 606.698833 44.027273 
L 615.978112 44.027273 
L 625.257391 44.027273 
L 634.536671 44.027273 
L 643.81595 44.027273 
L 653.09523 44.027273 
L 662.374509 44.027273 
L 671.653788 44.027273 
L 680.933068 44.027273 
L 690.212347 44.027273 
L 699.491626 44.027273 
L 708.770906 44.027273 
L 718.050185 44.027273 
L 727.329464 44.027273 
L 736.608744 44.027273 
L 745.888023 44.027273 
L 755.167302 44.027273 
L 764.446582 44.027273 
L 773.725861 44.027273 
L 783.00514 44.027273 
L 792.28442 44.027273 
L 801.563699 44.027273 
L 810.842978 44.027273 
" clip-path="url(#p02646d250c)" style="fill: none; stroke: #d62728; stroke-width: 1.5; stroke-linecap: square"/>
    <defs>
     <path id="m53a2b341d9" d="M 0 3.5 
C 0.928211 3.5 1.81853 3.131218 2.474874 2.474874 
C 3.131218 1.81853 3.5 0.928211 3.5 0 
C 3.5 -0.928211 3.131218 -1.81853 2.474874 -2.474874 
C 1.81853 -3.131218 0.928211 -3.5 0 -3.5 
C -0.928211 -3.5 -1.81853 -3.131218 -2.474874 -2.474874 
C -3.131218 -1.81853 -3.5 -0.928211 -3.5 0 
C -3.5 0.928211 -3.131218 1.81853 -2.474874 2.474874 
C -1.81853 3.131218 -0.928211 3.5 0 3.5 
z
" style="stroke: #d62728"/>
    </defs>
    <g clip-path="url(#p02646d250c)">
     <use xlink:href="#m53a2b341d9" x="87.059189" y="380.694209" style="fill: #d62728; stroke: #d62728"/>
     <use xlink:href="#m53a2b341d9" x="96.338469" y="349.05258" style="fill: #d62728; stroke: #d62728"/>
     <use xlink:href="#m53a2b341d9" x="105.617748" y="317.41095" style="fill: #d62728; stroke: #d62728"/>
     <use xlink:href="#m53a2b341d9" x="114.897027" y="292.097647" style="fill: #d62728; stroke: #d62728"/>
     <use xlink:href="#m53a2b341d9" x="124.176307" y="279.440995" style="fill: #d62728; stroke: #d62728"/>
     <use xlink:href="#m53a2b341d9" x="133.455586" y="238.93971" style="fill: #d62728; stroke: #d62728"/>
     <use xlink:href="#m53a2b341d9" x="142.734866" y="214.892071" style="fill: #d62728; stroke: #d62728"/>
     <use xlink:href="#m53a2b341d9" x="152.014145" y="202.235419" style="fill: #d62728; stroke: #d62728"/>
     <use xlink:href="#m53a2b341d9" x="161.293424" y="180.719112" style="fill: #d62728; stroke: #d62728"/>
     <use xlink:href="#m53a2b341d9" x="170.572704" y="169.328125" style="fill: #d62728; stroke: #d62728"/>
     <use xlink:href="#m53a2b341d9" x="179.851983" y="135.155165" style="fill: #d62728; stroke: #d62728"/>
     <use xlink:href="#m53a2b341d9" x="189.131262" y="121.232848" style="fill: #d62728; stroke: #d62728"/>
     <use xlink:href="#m53a2b341d9" x="198.410542" y="81.997228" style="fill: #d62728; stroke: #d62728"/>
     <use xlink:href="#m53a2b341d9" x="226.24838" y="81.997228" style="fill: #d62728; stroke: #d62728"/>
     <use xlink:href="#m53a2b341d9" x="235.527659" y="81.997228" style="fill: #d62728; stroke: #d62728"/>
     <use xlink:href="#m53a2b341d9" x="244.806938" y="81.997228" style="fill: #d62728; stroke: #d62728"/>
     <use xlink:href="#m53a2b341d9" x="254.086218" y="81.997228" style="fill: #d62728; stroke: #d62728"/>
     <use xlink:href="#m53a2b341d9" x="263.365497" y="81.997228" style="fill: #d62728; stroke: #d62728"/>
     <use xlink:href="#m53a2b341d9" x="281.924056" y="81.997228" style="fill: #d62728; stroke: #d62728"/>
     <use xlink:href="#m53a2b341d9" x="291.203335" y="81.997228" style="fill: #d62728; stroke: #d62728"/>
     <use xlink:href="#m53a2b341d9" x="300.482614" y="81.997228" style="fill: #d62728; stroke: #d62728"/>
     <use xlink:href="#m53a2b341d9" x="309.761894" y="81.997228" style="fill: #d62728; stroke: #d62728"/>
     <use xlink:href="#m53a2b341d9" x="319.041173" y="81.997228" style="fill: #d62728; stroke: #d62728"/>
     <use xlink:href="#m53a2b341d9" x="328.320452" y="63.01225" style="fill: #d62728; stroke: #d62728"/>
     <use xlink:href="#m53a2b341d9" x="337.599732" y="63.01225" style="fill: #d62728; stroke: #d62728"/>
     <use xlink:href="#m53a2b341d9" x="346.879011" y="63.01225" style="fill: #d62728; stroke: #d62728"/>
     <use xlink:href="#m53a2b341d9" x="356.15829" y="63.01225" style="fill: #d62728; stroke: #d62728"/>
     <use xlink:href="#m53a2b341d9" x="365.43757" y="63.01225" style="fill: #d62728; stroke: #d62728"/>
     <use xlink:href="#m53a2b341d9" x="374.716849" y="44.027273" style="fill: #d62728; stroke: #d62728"/>
     <use xlink:href="#m53a2b341d9" x="383.996128" y="44.027273" style="fill: #d62728; stroke: #d62728"/>
     <use xlink:href="#m53a2b341d9" x="393.275408" y="44.027273" style="fill: #d62728; stroke: #d62728"/>
     <use xlink:href="#m53a2b341d9" x="402.554687" y="44.027273" style="fill: #d62728; stroke: #d62728"/>
     <use xlink:href="#m53a2b341d9" x="411.833967" y="44.027273" style="fill: #d62728; stroke: #d62728"/>
     <use xlink:href="#m53a2b341d9" x="421.113246" y="44.027273" style="fill: #d62728; stroke: #d62728"/>
     <use xlink:href="#m53a2b341d9" x="430.392525" y="44.027273" style="fill: #d62728; stroke: #d62728"/>
     <use xlink:href="#m53a2b341d9" x="439.671805" y="44.027273" style="fill: #d62728; stroke: #d62728"/>
     <use xlink:href="#m53a2b341d9" x="448.951084" y="44.027273" style="fill: #d62728; stroke: #d62728"/>
     <use xlink:href="#m53a2b341d9" x="458.230363" y="44.027273" style="fill: #d62728; stroke: #d62728"/>
     <use xlink:href="#m53a2b341d9" x="467.509643" y="44.027273" style="fill: #d62728; stroke: #d62728"/>
     <use xlink:href="#m53a2b341d9" x="476.788922" y="44.027273" style="fill: #d62728; stroke: #d62728"/>
     <use xlink:href="#m53a2b341d9" x="486.068201" y="44.027273" style="fill: #d62728; stroke: #d62728"/>
     <use xlink:href="#m53a2b341d9" x="495.347481" y="44.027273" style="fill: #d62728; stroke: #d62728"/>
     <use xlink:href="#m53a2b341d9" x="504.62676" y="44.027273" style="fill: #d62728; stroke: #d62728"/>
     <use xlink:href="#m53a2b341d9" x="513.906039" y="44.027273" style="fill: #d62728; stroke: #d62728"/>
     <use xlink:href="#m53a2b341d9" x="523.185319" y="44.027273" style="fill: #d62728; stroke: #d62728"/>
     <use xlink:href="#m53a2b341d9" x="532.464598" y="44.027273" style="fill: #d62728; stroke: #d62728"/>
     <use xlink:href="#m53a2b341d9" x="541.743877" y="44.027273" style="fill: #d62728; stroke: #d62728"/>
     <use xlink:href="#m53a2b341d9" x="551.023157" y="44.027273" style="fill: #d62728; stroke: #d62728"/>
     <use xlink:href="#m53a2b341d9" x="560.302436" y="44.027273" style="fill: #d62728; stroke: #d62728"/>
     <use xlink:href="#m53a2b341d9" x="569.581715" y="44.027273" style="fill: #d62728; stroke: #d62728"/>
     <use xlink:href="#m53a2b341d9" x="578.860995" y="44.027273" style="fill: #d62728; stroke: #d62728"/>
     <use xlink:href="#m53a2b341d9" x="588.140274" y="44.027273" style="fill: #d62728; stroke: #d62728"/>
     <use xlink:href="#m53a2b341d9" x="597.419553" y="44.027273" style="fill: #d62728; stroke: #d62728"/>
     <use xlink:href="#m53a2b341d9" x="606.698833" y="44.027273" style="fill: #d62728; stroke: #d62728"/>
     <use xlink:href="#m53a2b341d9" x="615.978112" y="44.027273" style="fill: #d62728; stroke: #d62728"/>
     <use xlink:href="#m53a2b341d9" x="625.257391" y="44.027273" style="fill: #d62728; stroke: #d62728"/>
     <use xlink:href="#m53a2b341d9" x="634.536671" y="44.027273" style="fill: #d62728; stroke: #d62728"/>
     <use xlink:href="#m53a2b341d9" x="643.81595" y="44.027273" style="fill: #d62728; stroke: #d62728"/>
     <use xlink:href="#m53a2b341d9" x="653.09523" y="44.027273" style="fill: #d62728; stroke: #d62728"/>
     <use xlink:href="#m53a2b341d9" x="662.374509" y="44.027273" style="fill: #d62728; stroke: #d62728"/>
     <use xlink:href="#m53a2b341d9" x="671.653788" y="44.027273" style="fill: #d62728; stroke: #d62728"/>
     <use xlink:href="#m53a2b341d9" x="680.933068" y="44.027273" style="fill: #d62728; stroke: #d62728"/>
     <use xlink:href="#m53a2b341d9" x="690.212347" y="44.027273" style="fill: #d62728; stroke: #d62728"/>
     <use xlink:href="#m53a2b341d9" x="699.491626" y="44.027273" style="fill: #d62728; stroke: #d62728"/>
     <use xlink:href="#m53a2b341d9" x="708.770906" y="44.027273" style="fill: #d62728; stroke: #d62728"/>
     <use xlink:href="#m53a2b341d9" x="718.050185" y="44.027273" style="fill: #d62728; stroke: #d62728"/>
     <use xlink:href="#m53a2b341d9" x="727.329464" y="44.027273" style="fill: #d62728; stroke: #d62728"/>
     <use xlink:href="#m53a2b341d9" x="736.608744" y="44.027273" style="fill: #d62728; stroke: #d62728"/>
     <use xlink:href="#m53a2b341d9" x="745.888023" y="44.027273" style="fill: #d62728; stroke: #d62728"/>
     <use xlink:href="#m53a2b341d9" x="755.167302" y="44.027273" style="fill: #d62728; stroke: #d62728"/>
     <use xlink:href="#m53a2b341d9" x="764.446582" y="44.027273" style="fill: #d62728; stroke: #d62728"/>
     <use xlink:href="#m53a2b341d9" x="773.725861" y="44.027273" style="fill: #d62728; stroke: #d62728"/>
     <use xlink:href="#m53a2b341d9" x="783.00514" y="44.027273" style="fill: #d62728; stroke: #d62728"/>
     <use xlink:href="#m53a2b341d9" x="792.28442" y="44.027273" style="fill: #d62728; stroke: #d62728"/>
     <use xlink:href="#m53a2b341d9" x="801.563699" y="44.027273" style="fill: #d62728; stroke: #d62728"/>
     <use xlink:href="#m53a2b341d9" x="810.842978" y="44.027273" style="fill: #d62728; stroke: #d62728"/>
    </g>
   </g>
   <g id="line2d_29">
    <path d="M 87.059189 386.972727 
L 96.338469 361.659424 
L 105.617748 336.34612 
L 114.897027 323.689469 
L 124.176307 304.704491 
L 133.455586 283.188183 
L 142.734866 264.203205 
L 152.014145 251.546554 
L 161.293424 207.248273 
L 170.572704 200.919947 
L 179.851983 166.746987 
L 189.131262 155.356 
L 198.410542 95.869737 
L 226.24838 95.869737 
L 235.527659 95.869737 
L 244.806938 95.869737 
L 254.086218 95.869737 
L 263.365497 95.869737 
L 281.924056 95.869737 
L 291.203335 95.869737 
L 300.482614 95.869737 
L 309.761894 95.869737 
L 319.041173 95.869737 
L 328.320452 95.869737 
L 337.599732 95.869737 
L 346.879011 95.869737 
L 356.15829 95.869737 
L 365.43757 95.869737 
L 374.716849 64.228108 
L 383.996128 64.228108 
L 393.275408 64.228108 
L 402.554687 64.228108 
L 411.833967 64.228108 
L 421.113246 64.228108 
L 430.392525 64.228108 
L 439.671805 64.228108 
L 448.951084 64.228108 
L 458.230363 64.228108 
L 467.509643 64.228108 
L 476.788922 64.228108 
L 486.068201 64.228108 
L 495.347481 64.228108 
L 504.62676 64.228108 
L 513.906039 64.228108 
L 523.185319 64.228108 
L 532.464598 64.228108 
L 541.743877 64.228108 
L 551.023157 64.228108 
L 560.302436 64.228108 
L 569.581715 64.228108 
L 578.860995 64.228108 
L 588.140274 64.228108 
L 597.419553 64.228108 
L 606.698833 64.228108 
L 615.978112 64.228108 
L 625.257391 64.228108 
L 634.536671 64.228108 
L 643.81595 64.228108 
L 653.09523 64.228108 
L 662.374509 64.228108 
L 671.653788 64.228108 
L 680.933068 64.228108 
L 690.212347 64.228108 
L 699.491626 64.228108 
L 708.770906 64.228108 
L 718.050185 64.228108 
L 727.329464 64.228108 
L 736.608744 64.228108 
L 745.888023 64.228108 
L 755.167302 64.228108 
L 764.446582 64.228108 
L 773.725861 64.228108 
L 783.00514 64.228108 
L 792.28442 64.228108 
L 801.563699 64.228108 
L 810.842978 64.228108 
" clip-path="url(#p02646d250c)" style="fill: none; stroke: #9467bd; stroke-width: 1.5; stroke-linecap: square"/>
    <defs>
     <path id="mbbc57ee449" d="M 0 3.5 
C 0.928211 3.5 1.81853 3.131218 2.474874 2.474874 
C 3.131218 1.81853 3.5 0.928211 3.5 0 
C 3.5 -0.928211 3.131218 -1.81853 2.474874 -2.474874 
C 1.81853 -3.131218 0.928211 -3.5 0 -3.5 
C -0.928211 -3.5 -1.81853 -3.131218 -2.474874 -2.474874 
C -3.131218 -1.81853 -3.5 -0.928211 -3.5 0 
C -3.5 0.928211 -3.131218 1.81853 -2.474874 2.474874 
C -1.81853 3.131218 -0.928211 3.5 0 3.5 
z
" style="stroke: #9467bd"/>
    </defs>
    <g clip-path="url(#p02646d250c)">
     <use xlink:href="#mbbc57ee449" x="87.059189" y="386.972727" style="fill: #9467bd; stroke: #9467bd"/>
     <use xlink:href="#mbbc57ee449" x="96.338469" y="361.659424" style="fill: #9467bd; stroke: #9467bd"/>
     <use xlink:href="#mbbc57ee449" x="105.617748" y="336.34612" style="fill: #9467bd; stroke: #9467bd"/>
     <use xlink:href="#mbbc57ee449" x="114.897027" y="323.689469" style="fill: #9467bd; stroke: #9467bd"/>
     <use xlink:href="#mbbc57ee449" x="124.176307" y="304.704491" style="fill: #9467bd; stroke: #9467bd"/>
     <use xlink:href="#mbbc57ee449" x="133.455586" y="283.188183" style="fill: #9467bd; stroke: #9467bd"/>
     <use xlink:href="#mbbc57ee449" x="142.734866" y="264.203205" style="fill: #9467bd; stroke: #9467bd"/>
     <use xlink:href="#mbbc57ee449" x="152.014145" y="251.546554" style="fill: #9467bd; stroke: #9467bd"/>
     <use xlink:href="#mbbc57ee449" x="161.293424" y="207.248273" style="fill: #9467bd; stroke: #9467bd"/>
     <use xlink:href="#mbbc57ee449" x="170.572704" y="200.919947" style="fill: #9467bd; stroke: #9467bd"/>
     <use xlink:href="#mbbc57ee449" x="179.851983" y="166.746987" style="fill: #9467bd; stroke: #9467bd"/>
     <use xlink:href="#mbbc57ee449" x="189.131262" y="155.356" style="fill: #9467bd; stroke: #9467bd"/>
     <use xlink:href="#mbbc57ee449" x="198.410542" y="95.869737" style="fill: #9467bd; stroke: #9467bd"/>
     <use xlink:href="#mbbc57ee449" x="226.24838" y="95.869737" style="fill: #9467bd; stroke: #9467bd"/>
     <use xlink:href="#mbbc57ee449" x="235.527659" y="95.869737" style="fill: #9467bd; stroke: #9467bd"/>
     <use xlink:href="#mbbc57ee449" x="244.806938" y="95.869737" style="fill: #9467bd; stroke: #9467bd"/>
     <use xlink:href="#mbbc57ee449" x="254.086218" y="95.869737" style="fill: #9467bd; stroke: #9467bd"/>
     <use xlink:href="#mbbc57ee449" x="263.365497" y="95.869737" style="fill: #9467bd; stroke: #9467bd"/>
     <use xlink:href="#mbbc57ee449" x="281.924056" y="95.869737" style="fill: #9467bd; stroke: #9467bd"/>
     <use xlink:href="#mbbc57ee449" x="291.203335" y="95.869737" style="fill: #9467bd; stroke: #9467bd"/>
     <use xlink:href="#mbbc57ee449" x="300.482614" y="95.869737" style="fill: #9467bd; stroke: #9467bd"/>
     <use xlink:href="#mbbc57ee449" x="309.761894" y="95.869737" style="fill: #9467bd; stroke: #9467bd"/>
     <use xlink:href="#mbbc57ee449" x="319.041173" y="95.869737" style="fill: #9467bd; stroke: #9467bd"/>
     <use xlink:href="#mbbc57ee449" x="328.320452" y="95.869737" style="fill: #9467bd; stroke: #9467bd"/>
     <use xlink:href="#mbbc57ee449" x="337.599732" y="95.869737" style="fill: #9467bd; stroke: #9467bd"/>
     <use xlink:href="#mbbc57ee449" x="346.879011" y="95.869737" style="fill: #9467bd; stroke: #9467bd"/>
     <use xlink:href="#mbbc57ee449" x="356.15829" y="95.869737" style="fill: #9467bd; stroke: #9467bd"/>
     <use xlink:href="#mbbc57ee449" x="365.43757" y="95.869737" style="fill: #9467bd; stroke: #9467bd"/>
     <use xlink:href="#mbbc57ee449" x="374.716849" y="64.228108" style="fill: #9467bd; stroke: #9467bd"/>
     <use xlink:href="#mbbc57ee449" x="383.996128" y="64.228108" style="fill: #9467bd; stroke: #9467bd"/>
     <use xlink:href="#mbbc57ee449" x="393.275408" y="64.228108" style="fill: #9467bd; stroke: #9467bd"/>
     <use xlink:href="#mbbc57ee449" x="402.554687" y="64.228108" style="fill: #9467bd; stroke: #9467bd"/>
     <use xlink:href="#mbbc57ee449" x="411.833967" y="64.228108" style="fill: #9467bd; stroke: #9467bd"/>
     <use xlink:href="#mbbc57ee449" x="421.113246" y="64.228108" style="fill: #9467bd; stroke: #9467bd"/>
     <use xlink:href="#mbbc57ee449" x="430.392525" y="64.228108" style="fill: #9467bd; stroke: #9467bd"/>
     <use xlink:href="#mbbc57ee449" x="439.671805" y="64.228108" style="fill: #9467bd; stroke: #9467bd"/>
     <use xlink:href="#mbbc57ee449" x="448.951084" y="64.228108" style="fill: #9467bd; stroke: #9467bd"/>
     <use xlink:href="#mbbc57ee449" x="458.230363" y="64.228108" style="fill: #9467bd; stroke: #9467bd"/>
     <use xlink:href="#mbbc57ee449" x="467.509643" y="64.228108" style="fill: #9467bd; stroke: #9467bd"/>
     <use xlink:href="#mbbc57ee449" x="476.788922" y="64.228108" style="fill: #9467bd; stroke: #9467bd"/>
     <use xlink:href="#mbbc57ee449" x="486.068201" y="64.228108" style="fill: #9467bd; stroke: #9467bd"/>
     <use xlink:href="#mbbc57ee449" x="495.347481" y="64.228108" style="fill: #9467bd; stroke: #9467bd"/>
     <use xlink:href="#mbbc57ee449" x="504.62676" y="64.228108" style="fill: #9467bd; stroke: #9467bd"/>
     <use xlink:href="#mbbc57ee449" x="513.906039" y="64.228108" style="fill: #9467bd; stroke: #9467bd"/>
     <use xlink:href="#mbbc57ee449" x="523.185319" y="64.228108" style="fill: #9467bd; stroke: #9467bd"/>
     <use xlink:href="#mbbc57ee449" x="532.464598" y="64.228108" style="fill: #9467bd; stroke: #9467bd"/>
     <use xlink:href="#mbbc57ee449" x="541.743877" y="64.228108" style="fill: #9467bd; stroke: #9467bd"/>
     <use xlink:href="#mbbc57ee449" x="551.023157" y="64.228108" style="fill: #9467bd; stroke: #9467bd"/>
     <use xlink:href="#mbbc57ee449" x="560.302436" y="64.228108" style="fill: #9467bd; stroke: #9467bd"/>
     <use xlink:href="#mbbc57ee449" x="569.581715" y="64.228108" style="fill: #9467bd; stroke: #9467bd"/>
     <use xlink:href="#mbbc57ee449" x="578.860995" y="64.228108" style="fill: #9467bd; stroke: #9467bd"/>
     <use xlink:href="#mbbc57ee449" x="588.140274" y="64.228108" style="fill: #9467bd; stroke: #9467bd"/>
     <use xlink:href="#mbbc57ee449" x="597.419553" y="64.228108" style="fill: #9467bd; stroke: #9467bd"/>
     <use xlink:href="#mbbc57ee449" x="606.698833" y="64.228108" style="fill: #9467bd; stroke: #9467bd"/>
     <use xlink:href="#mbbc57ee449" x="615.978112" y="64.228108" style="fill: #9467bd; stroke: #9467bd"/>
     <use xlink:href="#mbbc57ee449" x="625.257391" y="64.228108" style="fill: #9467bd; stroke: #9467bd"/>
     <use xlink:href="#mbbc57ee449" x="634.536671" y="64.228108" style="fill: #9467bd; stroke: #9467bd"/>
     <use xlink:href="#mbbc57ee449" x="643.81595" y="64.228108" style="fill: #9467bd; stroke: #9467bd"/>
     <use xlink:href="#mbbc57ee449" x="653.09523" y="64.228108" style="fill: #9467bd; stroke: #9467bd"/>
     <use xlink:href="#mbbc57ee449" x="662.374509" y="64.228108" style="fill: #9467bd; stroke: #9467bd"/>
     <use xlink:href="#mbbc57ee449" x="671.653788" y="64.228108" style="fill: #9467bd; stroke: #9467bd"/>
     <use xlink:href="#mbbc57ee449" x="680.933068" y="64.228108" style="fill: #9467bd; stroke: #9467bd"/>
     <use xlink:href="#mbbc57ee449" x="690.212347" y="64.228108" style="fill: #9467bd; stroke: #9467bd"/>
     <use xlink:href="#mbbc57ee449" x="699.491626" y="64.228108" style="fill: #9467bd; stroke: #9467bd"/>
     <use xlink:href="#mbbc57ee449" x="708.770906" y="64.228108" style="fill: #9467bd; stroke: #9467bd"/>
     <use xlink:href="#mbbc57ee449" x="718.050185" y="64.228108" style="fill: #9467bd; stroke: #9467bd"/>
     <use xlink:href="#mbbc57ee449" x="727.329464" y="64.228108" style="fill: #9467bd; stroke: #9467bd"/>
     <use xlink:href="#mbbc57ee449" x="736.608744" y="64.228108" style="fill: #9467bd; stroke: #9467bd"/>
     <use xlink:href="#mbbc57ee449" x="745.888023" y="64.228108" style="fill: #9467bd; stroke: #9467bd"/>
     <use xlink:href="#mbbc57ee449" x="755.167302" y="64.228108" style="fill: #9467bd; stroke: #9467bd"/>
     <use xlink:href="#mbbc57ee449" x="764.446582" y="64.228108" style="fill: #9467bd; stroke: #9467bd"/>
     <use xlink:href="#mbbc57ee449" x="773.725861" y="64.228108" style="fill: #9467bd; stroke: #9467bd"/>
     <use xlink:href="#mbbc57ee449" x="783.00514" y="64.228108" style="fill: #9467bd; stroke: #9467bd"/>
     <use xlink:href="#mbbc57ee449" x="792.28442" y="64.228108" style="fill: #9467bd; stroke: #9467bd"/>
     <use xlink:href="#mbbc57ee449" x="801.563699" y="64.228108" style="fill: #9467bd; stroke: #9467bd"/>
     <use xlink:href="#mbbc57ee449" x="810.842978" y="64.228108" style="fill: #9467bd; stroke: #9467bd"/>
    </g>
   </g>
   <g id="line2d_30">
    <path d="M 87.059189 380.609545 
L 96.338469 365.421563 
L 105.617748 354.030576 
L 114.897027 328.717273 
L 124.176307 309.732295 
L 133.455586 304.669634 
L 142.734866 295.809978 
L 152.014145 280.621996 
L 161.293424 236.323715 
L 170.572704 204.682086 
L 179.851983 166.71213 
L 189.131262 142.664492 
L 198.410542 93.30355 
L 226.24838 93.30355 
L 235.527659 93.30355 
L 244.806938 93.30355 
L 254.086218 93.30355 
L 263.365497 93.30355 
L 281.924056 93.30355 
L 291.203335 93.30355 
L 300.482614 93.30355 
L 309.761894 93.30355 
L 319.041173 93.30355 
L 328.320452 93.30355 
L 337.599732 93.30355 
L 346.879011 93.30355 
L 356.15829 93.30355 
L 365.43757 93.30355 
L 374.716849 61.661921 
L 383.996128 61.661921 
L 393.275408 61.661921 
L 402.554687 61.661921 
L 411.833967 61.661921 
L 421.113246 61.661921 
L 430.392525 61.661921 
L 439.671805 61.661921 
L 448.951084 61.661921 
L 458.230363 61.661921 
L 467.509643 61.661921 
L 476.788922 61.661921 
L 486.068201 61.661921 
L 495.347481 61.661921 
L 504.62676 61.661921 
L 513.906039 61.661921 
L 523.185319 61.661921 
L 532.464598 61.661921 
L 541.743877 61.661921 
L 551.023157 61.661921 
L 560.302436 61.661921 
L 569.581715 61.661921 
L 578.860995 61.661921 
L 588.140274 61.661921 
L 597.419553 61.661921 
L 606.698833 61.661921 
L 615.978112 61.661921 
L 625.257391 61.661921 
L 634.536671 61.661921 
L 643.81595 61.661921 
L 653.09523 61.661921 
L 662.374509 61.661921 
L 671.653788 61.661921 
L 680.933068 61.661921 
L 690.212347 61.661921 
L 699.491626 61.661921 
L 708.770906 61.661921 
L 718.050185 61.661921 
L 727.329464 61.661921 
L 736.608744 61.661921 
L 745.888023 61.661921 
L 755.167302 61.661921 
L 764.446582 61.661921 
L 773.725861 61.661921 
L 783.00514 61.661921 
L 792.28442 61.661921 
L 801.563699 61.661921 
L 810.842978 61.661921 
" clip-path="url(#p02646d250c)" style="fill: none; stroke: #8c564b; stroke-width: 1.5; stroke-linecap: square"/>
    <defs>
     <path id="m13bbd1f728" d="M 0 3.5 
C 0.928211 3.5 1.81853 3.131218 2.474874 2.474874 
C 3.131218 1.81853 3.5 0.928211 3.5 0 
C 3.5 -0.928211 3.131218 -1.81853 2.474874 -2.474874 
C 1.81853 -3.131218 0.928211 -3.5 0 -3.5 
C -0.928211 -3.5 -1.81853 -3.131218 -2.474874 -2.474874 
C -3.131218 -1.81853 -3.5 -0.928211 -3.5 0 
C -3.5 0.928211 -3.131218 1.81853 -2.474874 2.474874 
C -1.81853 3.131218 -0.928211 3.5 0 3.5 
z
" style="stroke: #8c564b"/>
    </defs>
    <g clip-path="url(#p02646d250c)">
     <use xlink:href="#m13bbd1f728" x="87.059189" y="380.609545" style="fill: #8c564b; stroke: #8c564b"/>
     <use xlink:href="#m13bbd1f728" x="96.338469" y="365.421563" style="fill: #8c564b; stroke: #8c564b"/>
     <use xlink:href="#m13bbd1f728" x="105.617748" y="354.030576" style="fill: #8c564b; stroke: #8c564b"/>
     <use xlink:href="#m13bbd1f728" x="114.897027" y="328.717273" style="fill: #8c564b; stroke: #8c564b"/>
     <use xlink:href="#m13bbd1f728" x="124.176307" y="309.732295" style="fill: #8c564b; stroke: #8c564b"/>
     <use xlink:href="#m13bbd1f728" x="133.455586" y="304.669634" style="fill: #8c564b; stroke: #8c564b"/>
     <use xlink:href="#m13bbd1f728" x="142.734866" y="295.809978" style="fill: #8c564b; stroke: #8c564b"/>
     <use xlink:href="#m13bbd1f728" x="152.014145" y="280.621996" style="fill: #8c564b; stroke: #8c564b"/>
     <use xlink:href="#m13bbd1f728" x="161.293424" y="236.323715" style="fill: #8c564b; stroke: #8c564b"/>
     <use xlink:href="#m13bbd1f728" x="170.572704" y="204.682086" style="fill: #8c564b; stroke: #8c564b"/>
     <use xlink:href="#m13bbd1f728" x="179.851983" y="166.71213" style="fill: #8c564b; stroke: #8c564b"/>
     <use xlink:href="#m13bbd1f728" x="189.131262" y="142.664492" style="fill: #8c564b; stroke: #8c564b"/>
     <use xlink:href="#m13bbd1f728" x="198.410542" y="93.30355" style="fill: #8c564b; stroke: #8c564b"/>
     <use xlink:href="#m13bbd1f728" x="226.24838" y="93.30355" style="fill: #8c564b; stroke: #8c564b"/>
     <use xlink:href="#m13bbd1f728" x="235.527659" y="93.30355" style="fill: #8c564b; stroke: #8c564b"/>
     <use xlink:href="#m13bbd1f728" x="244.806938" y="93.30355" style="fill: #8c564b; stroke: #8c564b"/>
     <use xlink:href="#m13bbd1f728" x="254.086218" y="93.30355" style="fill: #8c564b; stroke: #8c564b"/>
     <use xlink:href="#m13bbd1f728" x="263.365497" y="93.30355" style="fill: #8c564b; stroke: #8c564b"/>
     <use xlink:href="#m13bbd1f728" x="281.924056" y="93.30355" style="fill: #8c564b; stroke: #8c564b"/>
     <use xlink:href="#m13bbd1f728" x="291.203335" y="93.30355" style="fill: #8c564b; stroke: #8c564b"/>
     <use xlink:href="#m13bbd1f728" x="300.482614" y="93.30355" style="fill: #8c564b; stroke: #8c564b"/>
     <use xlink:href="#m13bbd1f728" x="309.761894" y="93.30355" style="fill: #8c564b; stroke: #8c564b"/>
     <use xlink:href="#m13bbd1f728" x="319.041173" y="93.30355" style="fill: #8c564b; stroke: #8c564b"/>
     <use xlink:href="#m13bbd1f728" x="328.320452" y="93.30355" style="fill: #8c564b; stroke: #8c564b"/>
     <use xlink:href="#m13bbd1f728" x="337.599732" y="93.30355" style="fill: #8c564b; stroke: #8c564b"/>
     <use xlink:href="#m13bbd1f728" x="346.879011" y="93.30355" style="fill: #8c564b; stroke: #8c564b"/>
     <use xlink:href="#m13bbd1f728" x="356.15829" y="93.30355" style="fill: #8c564b; stroke: #8c564b"/>
     <use xlink:href="#m13bbd1f728" x="365.43757" y="93.30355" style="fill: #8c564b; stroke: #8c564b"/>
     <use xlink:href="#m13bbd1f728" x="374.716849" y="61.661921" style="fill: #8c564b; stroke: #8c564b"/>
     <use xlink:href="#m13bbd1f728" x="383.996128" y="61.661921" style="fill: #8c564b; stroke: #8c564b"/>
     <use xlink:href="#m13bbd1f728" x="393.275408" y="61.661921" style="fill: #8c564b; stroke: #8c564b"/>
     <use xlink:href="#m13bbd1f728" x="402.554687" y="61.661921" style="fill: #8c564b; stroke: #8c564b"/>
     <use xlink:href="#m13bbd1f728" x="411.833967" y="61.661921" style="fill: #8c564b; stroke: #8c564b"/>
     <use xlink:href="#m13bbd1f728" x="421.113246" y="61.661921" style="fill: #8c564b; stroke: #8c564b"/>
     <use xlink:href="#m13bbd1f728" x="430.392525" y="61.661921" style="fill: #8c564b; stroke: #8c564b"/>
     <use xlink:href="#m13bbd1f728" x="439.671805" y="61.661921" style="fill: #8c564b; stroke: #8c564b"/>
     <use xlink:href="#m13bbd1f728" x="448.951084" y="61.661921" style="fill: #8c564b; stroke: #8c564b"/>
     <use xlink:href="#m13bbd1f728" x="458.230363" y="61.661921" style="fill: #8c564b; stroke: #8c564b"/>
     <use xlink:href="#m13bbd1f728" x="467.509643" y="61.661921" style="fill: #8c564b; stroke: #8c564b"/>
     <use xlink:href="#m13bbd1f728" x="476.788922" y="61.661921" style="fill: #8c564b; stroke: #8c564b"/>
     <use xlink:href="#m13bbd1f728" x="486.068201" y="61.661921" style="fill: #8c564b; stroke: #8c564b"/>
     <use xlink:href="#m13bbd1f728" x="495.347481" y="61.661921" style="fill: #8c564b; stroke: #8c564b"/>
     <use xlink:href="#m13bbd1f728" x="504.62676" y="61.661921" style="fill: #8c564b; stroke: #8c564b"/>
     <use xlink:href="#m13bbd1f728" x="513.906039" y="61.661921" style="fill: #8c564b; stroke: #8c564b"/>
     <use xlink:href="#m13bbd1f728" x="523.185319" y="61.661921" style="fill: #8c564b; stroke: #8c564b"/>
     <use xlink:href="#m13bbd1f728" x="532.464598" y="61.661921" style="fill: #8c564b; stroke: #8c564b"/>
     <use xlink:href="#m13bbd1f728" x="541.743877" y="61.661921" style="fill: #8c564b; stroke: #8c564b"/>
     <use xlink:href="#m13bbd1f728" x="551.023157" y="61.661921" style="fill: #8c564b; stroke: #8c564b"/>
     <use xlink:href="#m13bbd1f728" x="560.302436" y="61.661921" style="fill: #8c564b; stroke: #8c564b"/>
     <use xlink:href="#m13bbd1f728" x="569.581715" y="61.661921" style="fill: #8c564b; stroke: #8c564b"/>
     <use xlink:href="#m13bbd1f728" x="578.860995" y="61.661921" style="fill: #8c564b; stroke: #8c564b"/>
     <use xlink:href="#m13bbd1f728" x="588.140274" y="61.661921" style="fill: #8c564b; stroke: #8c564b"/>
     <use xlink:href="#m13bbd1f728" x="597.419553" y="61.661921" style="fill: #8c564b; stroke: #8c564b"/>
     <use xlink:href="#m13bbd1f728" x="606.698833" y="61.661921" style="fill: #8c564b; stroke: #8c564b"/>
     <use xlink:href="#m13bbd1f728" x="615.978112" y="61.661921" style="fill: #8c564b; stroke: #8c564b"/>
     <use xlink:href="#m13bbd1f728" x="625.257391" y="61.661921" style="fill: #8c564b; stroke: #8c564b"/>
     <use xlink:href="#m13bbd1f728" x="634.536671" y="61.661921" style="fill: #8c564b; stroke: #8c564b"/>
     <use xlink:href="#m13bbd1f728" x="643.81595" y="61.661921" style="fill: #8c564b; stroke: #8c564b"/>
     <use xlink:href="#m13bbd1f728" x="653.09523" y="61.661921" style="fill: #8c564b; stroke: #8c564b"/>
     <use xlink:href="#m13bbd1f728" x="662.374509" y="61.661921" style="fill: #8c564b; stroke: #8c564b"/>
     <use xlink:href="#m13bbd1f728" x="671.653788" y="61.661921" style="fill: #8c564b; stroke: #8c564b"/>
     <use xlink:href="#m13bbd1f728" x="680.933068" y="61.661921" style="fill: #8c564b; stroke: #8c564b"/>
     <use xlink:href="#m13bbd1f728" x="690.212347" y="61.661921" style="fill: #8c564b; stroke: #8c564b"/>
     <use xlink:href="#m13bbd1f728" x="699.491626" y="61.661921" style="fill: #8c564b; stroke: #8c564b"/>
     <use xlink:href="#m13bbd1f728" x="708.770906" y="61.661921" style="fill: #8c564b; stroke: #8c564b"/>
     <use xlink:href="#m13bbd1f728" x="718.050185" y="61.661921" style="fill: #8c564b; stroke: #8c564b"/>
     <use xlink:href="#m13bbd1f728" x="727.329464" y="61.661921" style="fill: #8c564b; stroke: #8c564b"/>
     <use xlink:href="#m13bbd1f728" x="736.608744" y="61.661921" style="fill: #8c564b; stroke: #8c564b"/>
     <use xlink:href="#m13bbd1f728" x="745.888023" y="61.661921" style="fill: #8c564b; stroke: #8c564b"/>
     <use xlink:href="#m13bbd1f728" x="755.167302" y="61.661921" style="fill: #8c564b; stroke: #8c564b"/>
     <use xlink:href="#m13bbd1f728" x="764.446582" y="61.661921" style="fill: #8c564b; stroke: #8c564b"/>
     <use xlink:href="#m13bbd1f728" x="773.725861" y="61.661921" style="fill: #8c564b; stroke: #8c564b"/>
     <use xlink:href="#m13bbd1f728" x="783.00514" y="61.661921" style="fill: #8c564b; stroke: #8c564b"/>
     <use xlink:href="#m13bbd1f728" x="792.28442" y="61.661921" style="fill: #8c564b; stroke: #8c564b"/>
     <use xlink:href="#m13bbd1f728" x="801.563699" y="61.661921" style="fill: #8c564b; stroke: #8c564b"/>
     <use xlink:href="#m13bbd1f728" x="810.842978" y="61.661921" style="fill: #8c564b; stroke: #8c564b"/>
    </g>
   </g>
   <g id="patch_3">
    <path d="M 50.87 404.12 
L 50.87 26.88 
" style="fill: none; stroke: #000000; stroke-width: 0.8; stroke-linejoin: miter; stroke-linecap: square"/>
   </g>
   <g id="patch_4">
    <path d="M 847.032168 404.12 
L 847.032168 26.88 
" style="fill: none; stroke: #000000; stroke-width: 0.8; stroke-linejoin: miter; stroke-linecap: square"/>
   </g>
   <g id="patch_5">
    <path d="M 50.87 404.12 
L 847.032168 404.12 
" style="fill: none; stroke: #000000; stroke-width: 0.8; stroke-linejoin: miter; stroke-linecap: square"/>
   </g>
   <g id="patch_6">
    <path d="M 50.87 26.88 
L 847.032168 26.88 
" style="fill: none; stroke: #000000; stroke-width: 0.8; stroke-linejoin: miter; stroke-linecap: square"/>
   </g>
   <g id="text_14">
    <!-- Standings -->
    <g transform="translate(419.097334 20.88) scale(0.12 -0.12)">
     <defs>
      <path id="DejaVuSans-74" d="M 1172 4494 
L 1172 3500 
L 2356 3500 
L 2356 3053 
L 1172 3053 
L 1172 1153 
Q 1172 725 1289 603 
Q 1406 481 1766 481 
L 2356 481 
L 2356 0 
L 1766 0 
Q 1100 0 847 248 
Q 594 497 594 1153 
L 594 3053 
L 172 3053 
L 172 3500 
L 594 3500 
L 594 4494 
L 1172 4494 
z
" transform="scale(0.015625)"/>
      <path id="DejaVuSans-61" d="M 2194 1759 
Q 1497 1759 1228 1600 
Q 959 1441 959 1056 
Q 959 750 1161 570 
Q 1363 391 1709 391 
Q 2188 391 2477 730 
Q 2766 1069 2766 1631 
L 2766 1759 
L 2194 1759 
z
M 3341 1997 
L 3341 0 
L 2766 0 
L 2766 531 
Q 2569 213 2275 61 
Q 1981 -91 1556 -91 
Q 1019 -91 701 211 
Q 384 513 384 1019 
Q 384 1609 779 1909 
Q 1175 2209 1959 2209 
L 2766 2209 
L 2766 2266 
Q 2766 2663 2505 2880 
Q 2244 3097 1772 3097 
Q 1472 3097 1187 3025 
Q 903 2953 641 2809 
L 641 3341 
Q 956 3463 1253 3523 
Q 1550 3584 1831 3584 
Q 2591 3584 2966 3190 
Q 3341 2797 3341 1997 
z
" transform="scale(0.015625)"/>
      <path id="DejaVuSans-6e" d="M 3513 2113 
L 3513 0 
L 2938 0 
L 2938 2094 
Q 2938 2591 2744 2837 
Q 2550 3084 2163 3084 
Q 1697 3084 1428 2787 
Q 1159 2491 1159 1978 
L 1159 0 
L 581 0 
L 581 3500 
L 1159 3500 
L 1159 2956 
Q 1366 3272 1645 3428 
Q 1925 3584 2291 3584 
Q 2894 3584 3203 3211 
Q 3513 2838 3513 2113 
z
" transform="scale(0.015625)"/>
      <path id="DejaVuSans-64" d="M 2906 2969 
L 2906 4863 
L 3481 4863 
L 3481 0 
L 2906 0 
L 2906 525 
Q 2725 213 2448 61 
Q 2172 -91 1784 -91 
Q 1150 -91 751 415 
Q 353 922 353 1747 
Q 353 2572 751 3078 
Q 1150 3584 1784 3584 
Q 2172 3584 2448 3432 
Q 2725 3281 2906 2969 
z
M 947 1747 
Q 947 1113 1208 752 
Q 1469 391 1925 391 
Q 2381 391 2643 752 
Q 2906 1113 2906 1747 
Q 2906 2381 2643 2742 
Q 2381 3103 1925 3103 
Q 1469 3103 1208 2742 
Q 947 2381 947 1747 
z
" transform="scale(0.015625)"/>
      <path id="DejaVuSans-69" d="M 603 3500 
L 1178 3500 
L 1178 0 
L 603 0 
L 603 3500 
z
M 603 4863 
L 1178 4863 
L 1178 4134 
L 603 4134 
L 603 4863 
z
" transform="scale(0.015625)"/>
      <path id="DejaVuSans-67" d="M 2906 1791 
Q 2906 2416 2648 2759 
Q 2391 3103 1925 3103 
Q 1463 3103 1205 2759 
Q 947 2416 947 1791 
Q 947 1169 1205 825 
Q 1463 481 1925 481 
Q 2391 481 2648 825 
Q 2906 1169 2906 1791 
z
M 3481 434 
Q 3481 -459 3084 -895 
Q 2688 -1331 1869 -1331 
Q 1566 -1331 1297 -1286 
Q 1028 -1241 775 -1147 
L 775 -588 
Q 1028 -725 1275 -790 
Q 1522 -856 1778 -856 
Q 2344 -856 2625 -561 
Q 2906 -266 2906 331 
L 2906 616 
Q 2728 306 2450 153 
Q 2172 0 1784 0 
Q 1141 0 747 490 
Q 353 981 353 1791 
Q 353 2603 747 3093 
Q 1141 3584 1784 3584 
Q 2172 3584 2450 3431 
Q 2728 3278 2906 2969 
L 2906 3500 
L 3481 3500 
L 3481 434 
z
" transform="scale(0.015625)"/>
      <path id="DejaVuSans-73" d="M 2834 3397 
L 2834 2853 
Q 2591 2978 2328 3040 
Q 2066 3103 1784 3103 
Q 1356 3103 1142 2972 
Q 928 2841 928 2578 
Q 928 2378 1081 2264 
Q 1234 2150 1697 2047 
L 1894 2003 
Q 2506 1872 2764 1633 
Q 3022 1394 3022 966 
Q 3022 478 2636 193 
Q 2250 -91 1575 -91 
Q 1294 -91 989 -36 
Q 684 19 347 128 
L 347 722 
Q 666 556 975 473 
Q 1284 391 1588 391 
Q 1994 391 2212 530 
Q 2431 669 2431 922 
Q 2431 1156 2273 1281 
Q 2116 1406 1581 1522 
L 1381 1569 
Q 847 1681 609 1914 
Q 372 2147 372 2553 
Q 372 3047 722 3315 
Q 1072 3584 1716 3584 
Q 2034 3584 2315 3537 
Q 2597 3491 2834 3397 
z
" transform="scale(0.015625)"/>
     </defs>
     <use xlink:href="#DejaVuSans-53"/>
     <use xlink:href="#DejaVuSans-74" x="63.476562"/>
     <use xlink:href="#DejaVuSans-61" x="102.685547"/>
     <use xlink:href="#DejaVuSans-6e" x="163.964844"/>
     <use xlink:href="#DejaVuSans-64" x="227.34375"/>
     <use xlink:href="#DejaVuSans-69" x="290.820312"/>
     <use xlink:href="#DejaVuSans-6e" x="318.603516"/>
     <use xlink:href="#DejaVuSans-67" x="381.982422"/>
     <use xlink:href="#DejaVuSans-73" x="445.458984"/>
    </g>
   </g>
   <g id="legend_1">
    <g id="patch_7">
     <path d="M 57.87 122.94875 
L 143.37 122.94875 
Q 145.37 122.94875 145.37 120.94875 
L 145.37 33.88 
Q 145.37 31.88 143.37 31.88 
L 57.87 31.88 
Q 55.87 31.88 55.87 33.88 
L 55.87 120.94875 
Q 55.87 122.94875 57.87 122.94875 
z
" style="fill: #ffffff; opacity: 0.8; stroke: #cccccc; stroke-linejoin: miter"/>
    </g>
    <g id="line2d_31">
     <path d="M 59.87 39.978438 
L 69.87 39.978438 
L 79.87 39.978438 
" style="fill: none; stroke: #1f77b4; stroke-width: 1.5; stroke-linecap: square"/>
     <g>
      <use xlink:href="#me757b4d745" x="69.87" y="39.978438" style="fill: #1f77b4; stroke: #1f77b4"/>
     </g>
    </g>
    <g id="text_15">
     <!-- Matias BN -->
     <g transform="translate(87.87 43.478438) scale(0.1 -0.1)">
      <defs>
       <path id="DejaVuSans-4d" d="M 628 4666 
L 1569 4666 
L 2759 1491 
L 3956 4666 
L 4897 4666 
L 4897 0 
L 4281 0 
L 4281 4097 
L 3078 897 
L 2444 897 
L 1241 4097 
L 1241 0 
L 628 0 
L 628 4666 
z
" transform="scale(0.015625)"/>
       <path id="DejaVuSans-20" transform="scale(0.015625)"/>
       <path id="DejaVuSans-42" d="M 1259 2228 
L 1259 519 
L 2272 519 
Q 2781 519 3026 730 
Q 3272 941 3272 1375 
Q 3272 1813 3026 2020 
Q 2781 2228 2272 2228 
L 1259 2228 
z
M 1259 4147 
L 1259 2741 
L 2194 2741 
Q 2656 2741 2882 2914 
Q 3109 3088 3109 3444 
Q 3109 3797 2882 3972 
Q 2656 4147 2194 4147 
L 1259 4147 
z
M 628 4666 
L 2241 4666 
Q 2963 4666 3353 4366 
Q 3744 4066 3744 3513 
Q 3744 3084 3544 2831 
Q 3344 2578 2956 2516 
Q 3422 2416 3680 2098 
Q 3938 1781 3938 1306 
Q 3938 681 3513 340 
Q 3088 0 2303 0 
L 628 0 
L 628 4666 
z
" transform="scale(0.015625)"/>
       <path id="DejaVuSans-4e" d="M 628 4666 
L 1478 4666 
L 3547 763 
L 3547 4666 
L 4159 4666 
L 4159 0 
L 3309 0 
L 1241 3903 
L 1241 0 
L 628 0 
L 628 4666 
z
" transform="scale(0.015625)"/>
      </defs>
      <use xlink:href="#DejaVuSans-4d"/>
      <use xlink:href="#DejaVuSans-61" x="86.279297"/>
      <use xlink:href="#DejaVuSans-74" x="147.558594"/>
      <use xlink:href="#DejaVuSans-69" x="186.767578"/>
      <use xlink:href="#DejaVuSans-61" x="214.550781"/>
      <use xlink:href="#DejaVuSans-73" x="275.830078"/>
      <use xlink:href="#DejaVuSans-20" x="327.929688"/>
      <use xlink:href="#DejaVuSans-42" x="359.716797"/>
      <use xlink:href="#DejaVuSans-4e" x="428.320312"/>
     </g>
    </g>
    <g id="line2d_32">
     <path d="M 59.87 54.656563 
L 69.87 54.656563 
L 79.87 54.656563 
" style="fill: none; stroke: #ff7f0e; stroke-width: 1.5; stroke-linecap: square"/>
     <g>
      <use xlink:href="#m0acd4c163e" x="69.87" y="54.656563" style="fill: #ff7f0e; stroke: #ff7f0e"/>
     </g>
    </g>
    <g id="text_16">
     <!-- Mattias Ra -->
     <g transform="translate(87.87 58.156563) scale(0.1 -0.1)">
      <defs>
       <path id="DejaVuSans-52" d="M 2841 2188 
Q 3044 2119 3236 1894 
Q 3428 1669 3622 1275 
L 4263 0 
L 3584 0 
L 2988 1197 
Q 2756 1666 2539 1819 
Q 2322 1972 1947 1972 
L 1259 1972 
L 1259 0 
L 628 0 
L 628 4666 
L 2053 4666 
Q 2853 4666 3247 4331 
Q 3641 3997 3641 3322 
Q 3641 2881 3436 2590 
Q 3231 2300 2841 2188 
z
M 1259 4147 
L 1259 2491 
L 2053 2491 
Q 2509 2491 2742 2702 
Q 2975 2913 2975 3322 
Q 2975 3731 2742 3939 
Q 2509 4147 2053 4147 
L 1259 4147 
z
" transform="scale(0.015625)"/>
      </defs>
      <use xlink:href="#DejaVuSans-4d"/>
      <use xlink:href="#DejaVuSans-61" x="86.279297"/>
      <use xlink:href="#DejaVuSans-74" x="147.558594"/>
      <use xlink:href="#DejaVuSans-74" x="186.767578"/>
      <use xlink:href="#DejaVuSans-69" x="225.976562"/>
      <use xlink:href="#DejaVuSans-61" x="253.759766"/>
      <use xlink:href="#DejaVuSans-73" x="315.039062"/>
      <use xlink:href="#DejaVuSans-20" x="367.138672"/>
      <use xlink:href="#DejaVuSans-52" x="398.925781"/>
      <use xlink:href="#DejaVuSans-61" x="466.158203"/>
     </g>
    </g>
    <g id="line2d_33">
     <path d="M 59.87 69.334688 
L 69.87 69.334688 
L 79.87 69.334688 
" style="fill: none; stroke: #2ca02c; stroke-width: 1.5; stroke-linecap: square"/>
     <g>
      <use xlink:href="#m657aafb15e" x="69.87" y="69.334688" style="fill: #2ca02c; stroke: #2ca02c"/>
     </g>
    </g>
    <g id="text_17">
     <!-- Simon Bo -->
     <g transform="translate(87.87 72.834688) scale(0.1 -0.1)">
      <defs>
       <path id="DejaVuSans-6d" d="M 3328 2828 
Q 3544 3216 3844 3400 
Q 4144 3584 4550 3584 
Q 5097 3584 5394 3201 
Q 5691 2819 5691 2113 
L 5691 0 
L 5113 0 
L 5113 2094 
Q 5113 2597 4934 2840 
Q 4756 3084 4391 3084 
Q 3944 3084 3684 2787 
Q 3425 2491 3425 1978 
L 3425 0 
L 2847 0 
L 2847 2094 
Q 2847 2600 2669 2842 
Q 2491 3084 2119 3084 
Q 1678 3084 1418 2786 
Q 1159 2488 1159 1978 
L 1159 0 
L 581 0 
L 581 3500 
L 1159 3500 
L 1159 2956 
Q 1356 3278 1631 3431 
Q 1906 3584 2284 3584 
Q 2666 3584 2933 3390 
Q 3200 3197 3328 2828 
z
" transform="scale(0.015625)"/>
      </defs>
      <use xlink:href="#DejaVuSans-53"/>
      <use xlink:href="#DejaVuSans-69" x="63.476562"/>
      <use xlink:href="#DejaVuSans-6d" x="91.259766"/>
      <use xlink:href="#DejaVuSans-6f" x="188.671875"/>
      <use xlink:href="#DejaVuSans-6e" x="249.853516"/>
      <use xlink:href="#DejaVuSans-20" x="313.232422"/>
      <use xlink:href="#DejaVuSans-42" x="345.019531"/>
      <use xlink:href="#DejaVuSans-6f" x="413.623047"/>
     </g>
    </g>
    <g id="line2d_34">
     <path d="M 59.87 84.012813 
L 69.87 84.012813 
L 79.87 84.012813 
" style="fill: none; stroke: #d62728; stroke-width: 1.5; stroke-linecap: square"/>
     <g>
      <use xlink:href="#m53a2b341d9" x="69.87" y="84.012813" style="fill: #d62728; stroke: #d62728"/>
     </g>
    </g>
    <g id="text_18">
     <!-- Kristian Se -->
     <g transform="translate(87.87 87.512813) scale(0.1 -0.1)">
      <defs>
       <path id="DejaVuSans-4b" d="M 628 4666 
L 1259 4666 
L 1259 2694 
L 3353 4666 
L 4166 4666 
L 1850 2491 
L 4331 0 
L 3500 0 
L 1259 2247 
L 1259 0 
L 628 0 
L 628 4666 
z
" transform="scale(0.015625)"/>
      </defs>
      <use xlink:href="#DejaVuSans-4b"/>
      <use xlink:href="#DejaVuSans-72" x="65.576172"/>
      <use xlink:href="#DejaVuSans-69" x="106.689453"/>
      <use xlink:href="#DejaVuSans-73" x="134.472656"/>
      <use xlink:href="#DejaVuSans-74" x="186.572266"/>
      <use xlink:href="#DejaVuSans-69" x="225.78125"/>
      <use xlink:href="#DejaVuSans-61" x="253.564453"/>
      <use xlink:href="#DejaVuSans-6e" x="314.84375"/>
      <use xlink:href="#DejaVuSans-20" x="378.222656"/>
      <use xlink:href="#DejaVuSans-53" x="410.009766"/>
      <use xlink:href="#DejaVuSans-65" x="473.486328"/>
     </g>
    </g>
    <g id="line2d_35">
     <path d="M 59.87 98.690938 
L 69.87 98.690938 
L 79.87 98.690938 
" style="fill: none; stroke: #9467bd; stroke-width: 1.5; stroke-linecap: square"/>
     <g>
      <use xlink:href="#mbbc57ee449" x="69.87" y="98.690938" style="fill: #9467bd; stroke: #9467bd"/>
     </g>
    </g>
    <g id="text_19">
     <!-- Jesper M -->
     <g transform="translate(87.87 102.190938) scale(0.1 -0.1)">
      <defs>
       <path id="DejaVuSans-4a" d="M 628 4666 
L 1259 4666 
L 1259 325 
Q 1259 -519 939 -900 
Q 619 -1281 -91 -1281 
L -331 -1281 
L -331 -750 
L -134 -750 
Q 284 -750 456 -515 
Q 628 -281 628 325 
L 628 4666 
z
" transform="scale(0.015625)"/>
       <path id="DejaVuSans-70" d="M 1159 525 
L 1159 -1331 
L 581 -1331 
L 581 3500 
L 1159 3500 
L 1159 2969 
Q 1341 3281 1617 3432 
Q 1894 3584 2278 3584 
Q 2916 3584 3314 3078 
Q 3713 2572 3713 1747 
Q 3713 922 3314 415 
Q 2916 -91 2278 -91 
Q 1894 -91 1617 61 
Q 1341 213 1159 525 
z
M 3116 1747 
Q 3116 2381 2855 2742 
Q 2594 3103 2138 3103 
Q 1681 3103 1420 2742 
Q 1159 2381 1159 1747 
Q 1159 1113 1420 752 
Q 1681 391 2138 391 
Q 2594 391 2855 752 
Q 3116 1113 3116 1747 
z
" transform="scale(0.015625)"/>
       <path id="DejaVuSans-f8" d="M 2828 2503 
L 1306 653 
Q 1434 522 1595 459 
Q 1756 397 1959 397 
Q 2419 397 2687 759 
Q 2956 1122 2956 1747 
Q 2956 1994 2925 2176 
Q 2894 2359 2828 2503 
z
M 2606 2841 
Q 2475 2969 2314 3033 
Q 2153 3097 1959 3097 
Q 1488 3097 1223 2730 
Q 959 2363 959 1703 
Q 959 1478 989 1306 
Q 1019 1134 1081 991 
L 2606 2841 
z
M 691 519 
Q 522 759 437 1067 
Q 353 1375 353 1747 
Q 353 2609 779 3096 
Q 1206 3584 1959 3584 
Q 2250 3584 2498 3504 
Q 2747 3425 2956 3263 
L 3391 3788 
L 3688 3541 
L 3231 2981 
Q 3397 2741 3481 2431 
Q 3566 2122 3566 1747 
Q 3566 888 3137 398 
Q 2709 -91 1959 -91 
Q 1659 -91 1407 -9 
Q 1156 72 959 231 
L 525 -294 
L 225 -50 
L 691 519 
z
" transform="scale(0.015625)"/>
      </defs>
      <use xlink:href="#DejaVuSans-4a"/>
      <use xlink:href="#DejaVuSans-65" x="29.492188"/>
      <use xlink:href="#DejaVuSans-73" x="91.015625"/>
      <use xlink:href="#DejaVuSans-70" x="143.115234"/>
      <use xlink:href="#DejaVuSans-65" x="206.591797"/>
      <use xlink:href="#DejaVuSans-72" x="268.115234"/>
      <use xlink:href="#DejaVuSans-20" x="309.228516"/>
      <use xlink:href="#DejaVuSans-4d" x="341.015625"/>
      <use xlink:href="#DejaVuSans-f8" x="427.294922"/>
     </g>
    </g>
    <g id="line2d_36">
     <path d="M 59.87 113.369063 
L 69.87 113.369063 
L 79.87 113.369063 
" style="fill: none; stroke: #8c564b; stroke-width: 1.5; stroke-linecap: square"/>
     <g>
      <use xlink:href="#m13bbd1f728" x="69.87" y="113.369063" style="fill: #8c564b; stroke: #8c564b"/>
     </g>
    </g>
    <g id="text_20">
     <!-- Ayman Ka -->
     <g transform="translate(87.87 116.869063) scale(0.1 -0.1)">
      <defs>
       <path id="DejaVuSans-41" d="M 2188 4044 
L 1331 1722 
L 3047 1722 
L 2188 4044 
z
M 1831 4666 
L 2547 4666 
L 4325 0 
L 3669 0 
L 3244 1197 
L 1141 1197 
L 716 0 
L 50 0 
L 1831 4666 
z
" transform="scale(0.015625)"/>
       <path id="DejaVuSans-79" d="M 2059 -325 
Q 1816 -950 1584 -1140 
Q 1353 -1331 966 -1331 
L 506 -1331 
L 506 -850 
L 844 -850 
Q 1081 -850 1212 -737 
Q 1344 -625 1503 -206 
L 1606 56 
L 191 3500 
L 800 3500 
L 1894 763 
L 2988 3500 
L 3597 3500 
L 2059 -325 
z
" transform="scale(0.015625)"/>
      </defs>
      <use xlink:href="#DejaVuSans-41"/>
      <use xlink:href="#DejaVuSans-79" x="61.658203"/>
      <use xlink:href="#DejaVuSans-6d" x="120.837891"/>
      <use xlink:href="#DejaVuSans-61" x="218.25"/>
      <use xlink:href="#DejaVuSans-6e" x="279.529297"/>
      <use xlink:href="#DejaVuSans-20" x="342.908203"/>
      <use xlink:href="#DejaVuSans-4b" x="374.695312"/>
      <use xlink:href="#DejaVuSans-61" x="438.521484"/>
     </g>
    </g>
   </g>
  </g>
 </g>
 <defs>
  <clipPath id="p02646d250c">
   <rect x="50.87" y="26.88" width="796.162168" height="377.24"/>
  </clipPath>
 </defs>
</svg>
