<?xml version="1.0" encoding="utf-8" standalone="no"?>
<!DOCTYPE svg PUBLIC "-//W3C//DTD SVG 1.1//EN"
  "http://www.w3.org/Graphics/SVG/1.1/DTD/svg11.dtd">
<svg xmlns:xlink="http://www.w3.org/1999/xlink" width="864pt" height="432pt" viewBox="0 0 864 432" xmlns="http://www.w3.org/2000/svg" version="1.1">
 <metadata>
  <rdf:RDF xmlns:dc="http://purl.org/dc/elements/1.1/" xmlns:cc="http://creativecommons.org/ns#" xmlns:rdf="http://www.w3.org/1999/02/22-rdf-syntax-ns#">
   <cc:Work>
    <dc:type rdf:resource="http://purl.org/dc/dcmitype/StillImage"/>
    <dc:date>2024-06-26T20:30:34.648626</dc:date>
    <dc:format>image/svg+xml</dc:format>
    <dc:creator>
     <cc:Agent>
      <dc:title>Matplotlib v3.9.0, https://matplotlib.org/</dc:title>
     </cc:Agent>
    </dc:creator>
   </cc:Work>
  </rdf:RDF>
 </metadata>
 <defs>
  <style type="text/css">*{stroke-linejoin: round; stroke-linecap: butt}</style>
 </defs>
 <g id="figure_1">
  <g id="patch_1">
   <path d="M 0 432 
L 864 432 
L 864 0 
L 0 0 
z
" style="fill: #ffffff"/>
  </g>
  <g id="axes_1">
   <g id="patch_2">
    <path d="M 50.87 404.12 
L 853.2 404.12 
L 853.2 26.88 
L 50.87 26.88 
z
" style="fill: #ffffff"/>
   </g>
   <g id="matplotlib.axis_1">
    <g id="xtick_1">
     <g id="line2d_1">
      <path d="M 148.122121 404.12 
L 148.122121 26.88 
" clip-path="url(#p9d849dd120)" style="fill: none; stroke-dasharray: 2.96,1.28; stroke-dashoffset: 0; stroke: #b0b0b0; stroke-width: 0.8"/>
     </g>
     <g id="line2d_2">
      <defs>
       <path id="ma90dd9d04e" d="M 0 0 
L 0 3.5 
" style="stroke: #000000; stroke-width: 0.8"/>
      </defs>
      <g>
       <use xlink:href="#ma90dd9d04e" x="148.122121" y="404.12" style="stroke: #000000; stroke-width: 0.8"/>
      </g>
     </g>
     <g id="text_1">
      <!-- 2024-06-15 -->
      <g transform="translate(119.064309 418.718437) scale(0.1 -0.1)">
       <defs>
        <path id="DejaVuSans-32" d="M 1228 531 
L 3431 531 
L 3431 0 
L 469 0 
L 469 531 
Q 828 903 1448 1529 
Q 2069 2156 2228 2338 
Q 2531 2678 2651 2914 
Q 2772 3150 2772 3378 
Q 2772 3750 2511 3984 
Q 2250 4219 1831 4219 
Q 1534 4219 1204 4116 
Q 875 4013 500 3803 
L 500 4441 
Q 881 4594 1212 4672 
Q 1544 4750 1819 4750 
Q 2544 4750 2975 4387 
Q 3406 4025 3406 3419 
Q 3406 3131 3298 2873 
Q 3191 2616 2906 2266 
Q 2828 2175 2409 1742 
Q 1991 1309 1228 531 
z
" transform="scale(0.015625)"/>
        <path id="DejaVuSans-30" d="M 2034 4250 
Q 1547 4250 1301 3770 
Q 1056 3291 1056 2328 
Q 1056 1369 1301 889 
Q 1547 409 2034 409 
Q 2525 409 2770 889 
Q 3016 1369 3016 2328 
Q 3016 3291 2770 3770 
Q 2525 4250 2034 4250 
z
M 2034 4750 
Q 2819 4750 3233 4129 
Q 3647 3509 3647 2328 
Q 3647 1150 3233 529 
Q 2819 -91 2034 -91 
Q 1250 -91 836 529 
Q 422 1150 422 2328 
Q 422 3509 836 4129 
Q 1250 4750 2034 4750 
z
" transform="scale(0.015625)"/>
        <path id="DejaVuSans-34" d="M 2419 4116 
L 825 1625 
L 2419 1625 
L 2419 4116 
z
M 2253 4666 
L 3047 4666 
L 3047 1625 
L 3713 1625 
L 3713 1100 
L 3047 1100 
L 3047 0 
L 2419 0 
L 2419 1100 
L 313 1100 
L 313 1709 
L 2253 4666 
z
" transform="scale(0.015625)"/>
        <path id="DejaVuSans-2d" d="M 313 2009 
L 1997 2009 
L 1997 1497 
L 313 1497 
L 313 2009 
z
" transform="scale(0.015625)"/>
        <path id="DejaVuSans-36" d="M 2113 2584 
Q 1688 2584 1439 2293 
Q 1191 2003 1191 1497 
Q 1191 994 1439 701 
Q 1688 409 2113 409 
Q 2538 409 2786 701 
Q 3034 994 3034 1497 
Q 3034 2003 2786 2293 
Q 2538 2584 2113 2584 
z
M 3366 4563 
L 3366 3988 
Q 3128 4100 2886 4159 
Q 2644 4219 2406 4219 
Q 1781 4219 1451 3797 
Q 1122 3375 1075 2522 
Q 1259 2794 1537 2939 
Q 1816 3084 2150 3084 
Q 2853 3084 3261 2657 
Q 3669 2231 3669 1497 
Q 3669 778 3244 343 
Q 2819 -91 2113 -91 
Q 1303 -91 875 529 
Q 447 1150 447 2328 
Q 447 3434 972 4092 
Q 1497 4750 2381 4750 
Q 2619 4750 2861 4703 
Q 3103 4656 3366 4563 
z
" transform="scale(0.015625)"/>
        <path id="DejaVuSans-31" d="M 794 531 
L 1825 531 
L 1825 4091 
L 703 3866 
L 703 4441 
L 1819 4666 
L 2450 4666 
L 2450 531 
L 3481 531 
L 3481 0 
L 794 0 
L 794 531 
z
" transform="scale(0.015625)"/>
        <path id="DejaVuSans-35" d="M 691 4666 
L 3169 4666 
L 3169 4134 
L 1269 4134 
L 1269 2991 
Q 1406 3038 1543 3061 
Q 1681 3084 1819 3084 
Q 2600 3084 3056 2656 
Q 3513 2228 3513 1497 
Q 3513 744 3044 326 
Q 2575 -91 1722 -91 
Q 1428 -91 1123 -41 
Q 819 9 494 109 
L 494 744 
Q 775 591 1075 516 
Q 1375 441 1709 441 
Q 2250 441 2565 725 
Q 2881 1009 2881 1497 
Q 2881 1984 2565 2268 
Q 2250 2553 1709 2553 
Q 1456 2553 1204 2497 
Q 953 2441 691 2322 
L 691 4666 
z
" transform="scale(0.015625)"/>
       </defs>
       <use xlink:href="#DejaVuSans-32"/>
       <use xlink:href="#DejaVuSans-30" x="63.623047"/>
       <use xlink:href="#DejaVuSans-32" x="127.246094"/>
       <use xlink:href="#DejaVuSans-34" x="190.869141"/>
       <use xlink:href="#DejaVuSans-2d" x="254.492188"/>
       <use xlink:href="#DejaVuSans-30" x="290.576172"/>
       <use xlink:href="#DejaVuSans-36" x="354.199219"/>
       <use xlink:href="#DejaVuSans-2d" x="417.822266"/>
       <use xlink:href="#DejaVuSans-31" x="453.90625"/>
       <use xlink:href="#DejaVuSans-35" x="517.529297"/>
      </g>
     </g>
    </g>
    <g id="xtick_2">
     <g id="line2d_3">
      <path d="M 269.687273 404.12 
L 269.687273 26.88 
" clip-path="url(#p9d849dd120)" style="fill: none; stroke-dasharray: 2.96,1.28; stroke-dashoffset: 0; stroke: #b0b0b0; stroke-width: 0.8"/>
     </g>
     <g id="line2d_4">
      <g>
       <use xlink:href="#ma90dd9d04e" x="269.687273" y="404.12" style="stroke: #000000; stroke-width: 0.8"/>
      </g>
     </g>
     <g id="text_2">
      <!-- 2024-06-17 -->
      <g transform="translate(240.62946 418.718437) scale(0.1 -0.1)">
       <defs>
        <path id="DejaVuSans-37" d="M 525 4666 
L 3525 4666 
L 3525 4397 
L 1831 0 
L 1172 0 
L 2766 4134 
L 525 4134 
L 525 4666 
z
" transform="scale(0.015625)"/>
       </defs>
       <use xlink:href="#DejaVuSans-32"/>
       <use xlink:href="#DejaVuSans-30" x="63.623047"/>
       <use xlink:href="#DejaVuSans-32" x="127.246094"/>
       <use xlink:href="#DejaVuSans-34" x="190.869141"/>
       <use xlink:href="#DejaVuSans-2d" x="254.492188"/>
       <use xlink:href="#DejaVuSans-30" x="290.576172"/>
       <use xlink:href="#DejaVuSans-36" x="354.199219"/>
       <use xlink:href="#DejaVuSans-2d" x="417.822266"/>
       <use xlink:href="#DejaVuSans-31" x="453.90625"/>
       <use xlink:href="#DejaVuSans-37" x="517.529297"/>
      </g>
     </g>
    </g>
    <g id="xtick_3">
     <g id="line2d_5">
      <path d="M 391.252424 404.12 
L 391.252424 26.88 
" clip-path="url(#p9d849dd120)" style="fill: none; stroke-dasharray: 2.96,1.28; stroke-dashoffset: 0; stroke: #b0b0b0; stroke-width: 0.8"/>
     </g>
     <g id="line2d_6">
      <g>
       <use xlink:href="#ma90dd9d04e" x="391.252424" y="404.12" style="stroke: #000000; stroke-width: 0.8"/>
      </g>
     </g>
     <g id="text_3">
      <!-- 2024-06-19 -->
      <g transform="translate(362.194612 418.718437) scale(0.1 -0.1)">
       <defs>
        <path id="DejaVuSans-39" d="M 703 97 
L 703 672 
Q 941 559 1184 500 
Q 1428 441 1663 441 
Q 2288 441 2617 861 
Q 2947 1281 2994 2138 
Q 2813 1869 2534 1725 
Q 2256 1581 1919 1581 
Q 1219 1581 811 2004 
Q 403 2428 403 3163 
Q 403 3881 828 4315 
Q 1253 4750 1959 4750 
Q 2769 4750 3195 4129 
Q 3622 3509 3622 2328 
Q 3622 1225 3098 567 
Q 2575 -91 1691 -91 
Q 1453 -91 1209 -44 
Q 966 3 703 97 
z
M 1959 2075 
Q 2384 2075 2632 2365 
Q 2881 2656 2881 3163 
Q 2881 3666 2632 3958 
Q 2384 4250 1959 4250 
Q 1534 4250 1286 3958 
Q 1038 3666 1038 3163 
Q 1038 2656 1286 2365 
Q 1534 2075 1959 2075 
z
" transform="scale(0.015625)"/>
       </defs>
       <use xlink:href="#DejaVuSans-32"/>
       <use xlink:href="#DejaVuSans-30" x="63.623047"/>
       <use xlink:href="#DejaVuSans-32" x="127.246094"/>
       <use xlink:href="#DejaVuSans-34" x="190.869141"/>
       <use xlink:href="#DejaVuSans-2d" x="254.492188"/>
       <use xlink:href="#DejaVuSans-30" x="290.576172"/>
       <use xlink:href="#DejaVuSans-36" x="354.199219"/>
       <use xlink:href="#DejaVuSans-2d" x="417.822266"/>
       <use xlink:href="#DejaVuSans-31" x="453.90625"/>
       <use xlink:href="#DejaVuSans-39" x="517.529297"/>
      </g>
     </g>
    </g>
    <g id="xtick_4">
     <g id="line2d_7">
      <path d="M 512.817576 404.12 
L 512.817576 26.88 
" clip-path="url(#p9d849dd120)" style="fill: none; stroke-dasharray: 2.96,1.28; stroke-dashoffset: 0; stroke: #b0b0b0; stroke-width: 0.8"/>
     </g>
     <g id="line2d_8">
      <g>
       <use xlink:href="#ma90dd9d04e" x="512.817576" y="404.12" style="stroke: #000000; stroke-width: 0.8"/>
      </g>
     </g>
     <g id="text_4">
      <!-- 2024-06-21 -->
      <g transform="translate(483.759763 418.718437) scale(0.1 -0.1)">
       <use xlink:href="#DejaVuSans-32"/>
       <use xlink:href="#DejaVuSans-30" x="63.623047"/>
       <use xlink:href="#DejaVuSans-32" x="127.246094"/>
       <use xlink:href="#DejaVuSans-34" x="190.869141"/>
       <use xlink:href="#DejaVuSans-2d" x="254.492188"/>
       <use xlink:href="#DejaVuSans-30" x="290.576172"/>
       <use xlink:href="#DejaVuSans-36" x="354.199219"/>
       <use xlink:href="#DejaVuSans-2d" x="417.822266"/>
       <use xlink:href="#DejaVuSans-32" x="453.90625"/>
       <use xlink:href="#DejaVuSans-31" x="517.529297"/>
      </g>
     </g>
    </g>
    <g id="xtick_5">
     <g id="line2d_9">
      <path d="M 634.382727 404.12 
L 634.382727 26.88 
" clip-path="url(#p9d849dd120)" style="fill: none; stroke-dasharray: 2.96,1.28; stroke-dashoffset: 0; stroke: #b0b0b0; stroke-width: 0.8"/>
     </g>
     <g id="line2d_10">
      <g>
       <use xlink:href="#ma90dd9d04e" x="634.382727" y="404.12" style="stroke: #000000; stroke-width: 0.8"/>
      </g>
     </g>
     <g id="text_5">
      <!-- 2024-06-23 -->
      <g transform="translate(605.324915 418.718437) scale(0.1 -0.1)">
       <defs>
        <path id="DejaVuSans-33" d="M 2597 2516 
Q 3050 2419 3304 2112 
Q 3559 1806 3559 1356 
Q 3559 666 3084 287 
Q 2609 -91 1734 -91 
Q 1441 -91 1130 -33 
Q 819 25 488 141 
L 488 750 
Q 750 597 1062 519 
Q 1375 441 1716 441 
Q 2309 441 2620 675 
Q 2931 909 2931 1356 
Q 2931 1769 2642 2001 
Q 2353 2234 1838 2234 
L 1294 2234 
L 1294 2753 
L 1863 2753 
Q 2328 2753 2575 2939 
Q 2822 3125 2822 3475 
Q 2822 3834 2567 4026 
Q 2313 4219 1838 4219 
Q 1578 4219 1281 4162 
Q 984 4106 628 3988 
L 628 4550 
Q 988 4650 1302 4700 
Q 1616 4750 1894 4750 
Q 2613 4750 3031 4423 
Q 3450 4097 3450 3541 
Q 3450 3153 3228 2886 
Q 3006 2619 2597 2516 
z
" transform="scale(0.015625)"/>
       </defs>
       <use xlink:href="#DejaVuSans-32"/>
       <use xlink:href="#DejaVuSans-30" x="63.623047"/>
       <use xlink:href="#DejaVuSans-32" x="127.246094"/>
       <use xlink:href="#DejaVuSans-34" x="190.869141"/>
       <use xlink:href="#DejaVuSans-2d" x="254.492188"/>
       <use xlink:href="#DejaVuSans-30" x="290.576172"/>
       <use xlink:href="#DejaVuSans-36" x="354.199219"/>
       <use xlink:href="#DejaVuSans-2d" x="417.822266"/>
       <use xlink:href="#DejaVuSans-32" x="453.90625"/>
       <use xlink:href="#DejaVuSans-33" x="517.529297"/>
      </g>
     </g>
    </g>
    <g id="xtick_6">
     <g id="line2d_11">
      <path d="M 755.947879 404.12 
L 755.947879 26.88 
" clip-path="url(#p9d849dd120)" style="fill: none; stroke-dasharray: 2.96,1.28; stroke-dashoffset: 0; stroke: #b0b0b0; stroke-width: 0.8"/>
     </g>
     <g id="line2d_12">
      <g>
       <use xlink:href="#ma90dd9d04e" x="755.947879" y="404.12" style="stroke: #000000; stroke-width: 0.8"/>
      </g>
     </g>
     <g id="text_6">
      <!-- 2024-06-25 -->
      <g transform="translate(726.890066 418.718437) scale(0.1 -0.1)">
       <use xlink:href="#DejaVuSans-32"/>
       <use xlink:href="#DejaVuSans-30" x="63.623047"/>
       <use xlink:href="#DejaVuSans-32" x="127.246094"/>
       <use xlink:href="#DejaVuSans-34" x="190.869141"/>
       <use xlink:href="#DejaVuSans-2d" x="254.492188"/>
       <use xlink:href="#DejaVuSans-30" x="290.576172"/>
       <use xlink:href="#DejaVuSans-36" x="354.199219"/>
       <use xlink:href="#DejaVuSans-2d" x="417.822266"/>
       <use xlink:href="#DejaVuSans-32" x="453.90625"/>
       <use xlink:href="#DejaVuSans-35" x="517.529297"/>
      </g>
     </g>
    </g>
   </g>
   <g id="matplotlib.axis_2">
    <g id="ytick_1">
     <g id="line2d_13">
      <path d="M 50.87 393.066892 
L 853.2 393.066892 
" clip-path="url(#p9d849dd120)" style="fill: none; stroke-dasharray: 2.96,1.28; stroke-dashoffset: 0; stroke: #b0b0b0; stroke-width: 0.8"/>
     </g>
     <g id="line2d_14">
      <defs>
       <path id="m4a0ac9f804" d="M 0 0 
L -3.5 0 
" style="stroke: #000000; stroke-width: 0.8"/>
      </defs>
      <g>
       <use xlink:href="#m4a0ac9f804" x="50.87" y="393.066892" style="stroke: #000000; stroke-width: 0.8"/>
      </g>
     </g>
     <g id="text_7">
      <!-- 0 -->
      <g transform="translate(37.5075 396.866111) scale(0.1 -0.1)">
       <use xlink:href="#DejaVuSans-30"/>
      </g>
     </g>
    </g>
    <g id="ytick_2">
     <g id="line2d_15">
      <path d="M 50.87 331.40342 
L 853.2 331.40342 
" clip-path="url(#p9d849dd120)" style="fill: none; stroke-dasharray: 2.96,1.28; stroke-dashoffset: 0; stroke: #b0b0b0; stroke-width: 0.8"/>
     </g>
     <g id="line2d_16">
      <g>
       <use xlink:href="#m4a0ac9f804" x="50.87" y="331.40342" style="stroke: #000000; stroke-width: 0.8"/>
      </g>
     </g>
     <g id="text_8">
      <!-- 50 -->
      <g transform="translate(31.145 335.202639) scale(0.1 -0.1)">
       <use xlink:href="#DejaVuSans-35"/>
       <use xlink:href="#DejaVuSans-30" x="63.623047"/>
      </g>
     </g>
    </g>
    <g id="ytick_3">
     <g id="line2d_17">
      <path d="M 50.87 269.739948 
L 853.2 269.739948 
" clip-path="url(#p9d849dd120)" style="fill: none; stroke-dasharray: 2.96,1.28; stroke-dashoffset: 0; stroke: #b0b0b0; stroke-width: 0.8"/>
     </g>
     <g id="line2d_18">
      <g>
       <use xlink:href="#m4a0ac9f804" x="50.87" y="269.739948" style="stroke: #000000; stroke-width: 0.8"/>
      </g>
     </g>
     <g id="text_9">
      <!-- 100 -->
      <g transform="translate(24.7825 273.539167) scale(0.1 -0.1)">
       <use xlink:href="#DejaVuSans-31"/>
       <use xlink:href="#DejaVuSans-30" x="63.623047"/>
       <use xlink:href="#DejaVuSans-30" x="127.246094"/>
      </g>
     </g>
    </g>
    <g id="ytick_4">
     <g id="line2d_19">
      <path d="M 50.87 208.076476 
L 853.2 208.076476 
" clip-path="url(#p9d849dd120)" style="fill: none; stroke-dasharray: 2.96,1.28; stroke-dashoffset: 0; stroke: #b0b0b0; stroke-width: 0.8"/>
     </g>
     <g id="line2d_20">
      <g>
       <use xlink:href="#m4a0ac9f804" x="50.87" y="208.076476" style="stroke: #000000; stroke-width: 0.8"/>
      </g>
     </g>
     <g id="text_10">
      <!-- 150 -->
      <g transform="translate(24.7825 211.875694) scale(0.1 -0.1)">
       <use xlink:href="#DejaVuSans-31"/>
       <use xlink:href="#DejaVuSans-35" x="63.623047"/>
       <use xlink:href="#DejaVuSans-30" x="127.246094"/>
      </g>
     </g>
    </g>
    <g id="ytick_5">
     <g id="line2d_21">
      <path d="M 50.87 146.413004 
L 853.2 146.413004 
" clip-path="url(#p9d849dd120)" style="fill: none; stroke-dasharray: 2.96,1.28; stroke-dashoffset: 0; stroke: #b0b0b0; stroke-width: 0.8"/>
     </g>
     <g id="line2d_22">
      <g>
       <use xlink:href="#m4a0ac9f804" x="50.87" y="146.413004" style="stroke: #000000; stroke-width: 0.8"/>
      </g>
     </g>
     <g id="text_11">
      <!-- 200 -->
      <g transform="translate(24.7825 150.212222) scale(0.1 -0.1)">
       <use xlink:href="#DejaVuSans-32"/>
       <use xlink:href="#DejaVuSans-30" x="63.623047"/>
       <use xlink:href="#DejaVuSans-30" x="127.246094"/>
      </g>
     </g>
    </g>
    <g id="ytick_6">
     <g id="line2d_23">
      <path d="M 50.87 84.749531 
L 853.2 84.749531 
" clip-path="url(#p9d849dd120)" style="fill: none; stroke-dasharray: 2.96,1.28; stroke-dashoffset: 0; stroke: #b0b0b0; stroke-width: 0.8"/>
     </g>
     <g id="line2d_24">
      <g>
       <use xlink:href="#m4a0ac9f804" x="50.87" y="84.749531" style="stroke: #000000; stroke-width: 0.8"/>
      </g>
     </g>
     <g id="text_12">
      <!-- 250 -->
      <g transform="translate(24.7825 88.54875) scale(0.1 -0.1)">
       <use xlink:href="#DejaVuSans-32"/>
       <use xlink:href="#DejaVuSans-35" x="63.623047"/>
       <use xlink:href="#DejaVuSans-30" x="127.246094"/>
      </g>
     </g>
    </g>
    <g id="text_13">
     <!-- Score -->
     <g transform="translate(18.702813 229.502344) rotate(-90) scale(0.1 -0.1)">
      <defs>
       <path id="DejaVuSans-53" d="M 3425 4513 
L 3425 3897 
Q 3066 4069 2747 4153 
Q 2428 4238 2131 4238 
Q 1616 4238 1336 4038 
Q 1056 3838 1056 3469 
Q 1056 3159 1242 3001 
Q 1428 2844 1947 2747 
L 2328 2669 
Q 3034 2534 3370 2195 
Q 3706 1856 3706 1288 
Q 3706 609 3251 259 
Q 2797 -91 1919 -91 
Q 1588 -91 1214 -16 
Q 841 59 441 206 
L 441 856 
Q 825 641 1194 531 
Q 1563 422 1919 422 
Q 2459 422 2753 634 
Q 3047 847 3047 1241 
Q 3047 1584 2836 1778 
Q 2625 1972 2144 2069 
L 1759 2144 
Q 1053 2284 737 2584 
Q 422 2884 422 3419 
Q 422 4038 858 4394 
Q 1294 4750 2059 4750 
Q 2388 4750 2728 4690 
Q 3069 4631 3425 4513 
z
" transform="scale(0.015625)"/>
       <path id="DejaVuSans-63" d="M 3122 3366 
L 3122 2828 
Q 2878 2963 2633 3030 
Q 2388 3097 2138 3097 
Q 1578 3097 1268 2742 
Q 959 2388 959 1747 
Q 959 1106 1268 751 
Q 1578 397 2138 397 
Q 2388 397 2633 464 
Q 2878 531 3122 666 
L 3122 134 
Q 2881 22 2623 -34 
Q 2366 -91 2075 -91 
Q 1284 -91 818 406 
Q 353 903 353 1747 
Q 353 2603 823 3093 
Q 1294 3584 2113 3584 
Q 2378 3584 2631 3529 
Q 2884 3475 3122 3366 
z
" transform="scale(0.015625)"/>
       <path id="DejaVuSans-6f" d="M 1959 3097 
Q 1497 3097 1228 2736 
Q 959 2375 959 1747 
Q 959 1119 1226 758 
Q 1494 397 1959 397 
Q 2419 397 2687 759 
Q 2956 1122 2956 1747 
Q 2956 2369 2687 2733 
Q 2419 3097 1959 3097 
z
M 1959 3584 
Q 2709 3584 3137 3096 
Q 3566 2609 3566 1747 
Q 3566 888 3137 398 
Q 2709 -91 1959 -91 
Q 1206 -91 779 398 
Q 353 888 353 1747 
Q 353 2609 779 3096 
Q 1206 3584 1959 3584 
z
" transform="scale(0.015625)"/>
       <path id="DejaVuSans-72" d="M 2631 2963 
Q 2534 3019 2420 3045 
Q 2306 3072 2169 3072 
Q 1681 3072 1420 2755 
Q 1159 2438 1159 1844 
L 1159 0 
L 581 0 
L 581 3500 
L 1159 3500 
L 1159 2956 
Q 1341 3275 1631 3429 
Q 1922 3584 2338 3584 
Q 2397 3584 2469 3576 
Q 2541 3569 2628 3553 
L 2631 2963 
z
" transform="scale(0.015625)"/>
       <path id="DejaVuSans-65" d="M 3597 1894 
L 3597 1613 
L 953 1613 
Q 991 1019 1311 708 
Q 1631 397 2203 397 
Q 2534 397 2845 478 
Q 3156 559 3463 722 
L 3463 178 
Q 3153 47 2828 -22 
Q 2503 -91 2169 -91 
Q 1331 -91 842 396 
Q 353 884 353 1716 
Q 353 2575 817 3079 
Q 1281 3584 2069 3584 
Q 2775 3584 3186 3129 
Q 3597 2675 3597 1894 
z
M 3022 2063 
Q 3016 2534 2758 2815 
Q 2500 3097 2075 3097 
Q 1594 3097 1305 2825 
Q 1016 2553 972 2059 
L 3022 2063 
z
" transform="scale(0.015625)"/>
      </defs>
      <use xlink:href="#DejaVuSans-53"/>
      <use xlink:href="#DejaVuSans-63" x="63.476562"/>
      <use xlink:href="#DejaVuSans-6f" x="118.457031"/>
      <use xlink:href="#DejaVuSans-72" x="179.638672"/>
      <use xlink:href="#DejaVuSans-65" x="218.501953"/>
     </g>
    </g>
   </g>
   <g id="line2d_25">
    <path d="M 87.339545 386.934008 
L 148.122121 362.268619 
L 208.904697 325.270536 
L 269.687273 316.63765 
L 330.469848 308.004764 
L 391.252424 268.540141 
L 452.035 245.108022 
L 512.817576 234.008597 
L 573.600152 200.710322 
L 634.382727 192.077436 
L 695.165303 142.746658 
L 755.947879 125.480886 
L 816.730455 83.549725 
" clip-path="url(#p9d849dd120)" style="fill: none; stroke: #1f77b4; stroke-width: 1.5; stroke-linecap: square"/>
    <defs>
     <path id="m7b3d4bc5f2" d="M 0 3.5 
C 0.928211 3.5 1.81853 3.131218 2.474874 2.474874 
C 3.131218 1.81853 3.5 0.928211 3.5 0 
C 3.5 -0.928211 3.131218 -1.81853 2.474874 -2.474874 
C 1.81853 -3.131218 0.928211 -3.5 0 -3.5 
C -0.928211 -3.5 -1.81853 -3.131218 -2.474874 -2.474874 
C -3.131218 -1.81853 -3.5 -0.928211 -3.5 0 
C -3.5 0.928211 -3.131218 1.81853 -2.474874 2.474874 
C -1.81853 3.131218 -0.928211 3.5 0 3.5 
z
" style="stroke: #1f77b4"/>
    </defs>
    <g clip-path="url(#p9d849dd120)">
     <use xlink:href="#m7b3d4bc5f2" x="87.339545" y="386.934008" style="fill: #1f77b4; stroke: #1f77b4"/>
     <use xlink:href="#m7b3d4bc5f2" x="148.122121" y="362.268619" style="fill: #1f77b4; stroke: #1f77b4"/>
     <use xlink:href="#m7b3d4bc5f2" x="208.904697" y="325.270536" style="fill: #1f77b4; stroke: #1f77b4"/>
     <use xlink:href="#m7b3d4bc5f2" x="269.687273" y="316.63765" style="fill: #1f77b4; stroke: #1f77b4"/>
     <use xlink:href="#m7b3d4bc5f2" x="330.469848" y="308.004764" style="fill: #1f77b4; stroke: #1f77b4"/>
     <use xlink:href="#m7b3d4bc5f2" x="391.252424" y="268.540141" style="fill: #1f77b4; stroke: #1f77b4"/>
     <use xlink:href="#m7b3d4bc5f2" x="452.035" y="245.108022" style="fill: #1f77b4; stroke: #1f77b4"/>
     <use xlink:href="#m7b3d4bc5f2" x="512.817576" y="234.008597" style="fill: #1f77b4; stroke: #1f77b4"/>
     <use xlink:href="#m7b3d4bc5f2" x="573.600152" y="200.710322" style="fill: #1f77b4; stroke: #1f77b4"/>
     <use xlink:href="#m7b3d4bc5f2" x="634.382727" y="192.077436" style="fill: #1f77b4; stroke: #1f77b4"/>
     <use xlink:href="#m7b3d4bc5f2" x="695.165303" y="142.746658" style="fill: #1f77b4; stroke: #1f77b4"/>
     <use xlink:href="#m7b3d4bc5f2" x="755.947879" y="125.480886" style="fill: #1f77b4; stroke: #1f77b4"/>
     <use xlink:href="#m7b3d4bc5f2" x="816.730455" y="83.549725" style="fill: #1f77b4; stroke: #1f77b4"/>
    </g>
   </g>
   <g id="line2d_26">
    <path d="M 87.339545 380.637014 
L 148.122121 359.671433 
L 208.904697 341.172392 
L 269.687273 316.507003 
L 330.469848 310.340656 
L 391.252424 286.908536 
L 452.035 247.443914 
L 512.817576 232.644681 
L 573.600152 183.313903 
L 634.382727 174.681017 
L 695.165303 166.048131 
L 755.947879 146.31582 
L 816.730455 66.153306 
" clip-path="url(#p9d849dd120)" style="fill: none; stroke: #ff7f0e; stroke-width: 1.5; stroke-linecap: square"/>
    <defs>
     <path id="m34091f3dfb" d="M 0 3.5 
C 0.928211 3.5 1.81853 3.131218 2.474874 2.474874 
C 3.131218 1.81853 3.5 0.928211 3.5 0 
C 3.5 -0.928211 3.131218 -1.81853 2.474874 -2.474874 
C 1.81853 -3.131218 0.928211 -3.5 0 -3.5 
C -0.928211 -3.5 -1.81853 -3.131218 -2.474874 -2.474874 
C -3.131218 -1.81853 -3.5 -0.928211 -3.5 0 
C -3.5 0.928211 -3.131218 1.81853 -2.474874 2.474874 
C -1.81853 3.131218 -0.928211 3.5 0 3.5 
z
" style="stroke: #ff7f0e"/>
    </defs>
    <g clip-path="url(#p9d849dd120)">
     <use xlink:href="#m34091f3dfb" x="87.339545" y="380.637014" style="fill: #ff7f0e; stroke: #ff7f0e"/>
     <use xlink:href="#m34091f3dfb" x="148.122121" y="359.671433" style="fill: #ff7f0e; stroke: #ff7f0e"/>
     <use xlink:href="#m34091f3dfb" x="208.904697" y="341.172392" style="fill: #ff7f0e; stroke: #ff7f0e"/>
     <use xlink:href="#m34091f3dfb" x="269.687273" y="316.507003" style="fill: #ff7f0e; stroke: #ff7f0e"/>
     <use xlink:href="#m34091f3dfb" x="330.469848" y="310.340656" style="fill: #ff7f0e; stroke: #ff7f0e"/>
     <use xlink:href="#m34091f3dfb" x="391.252424" y="286.908536" style="fill: #ff7f0e; stroke: #ff7f0e"/>
     <use xlink:href="#m34091f3dfb" x="452.035" y="247.443914" style="fill: #ff7f0e; stroke: #ff7f0e"/>
     <use xlink:href="#m34091f3dfb" x="512.817576" y="232.644681" style="fill: #ff7f0e; stroke: #ff7f0e"/>
     <use xlink:href="#m34091f3dfb" x="573.600152" y="183.313903" style="fill: #ff7f0e; stroke: #ff7f0e"/>
     <use xlink:href="#m34091f3dfb" x="634.382727" y="174.681017" style="fill: #ff7f0e; stroke: #ff7f0e"/>
     <use xlink:href="#m34091f3dfb" x="695.165303" y="166.048131" style="fill: #ff7f0e; stroke: #ff7f0e"/>
     <use xlink:href="#m34091f3dfb" x="755.947879" y="146.31582" style="fill: #ff7f0e; stroke: #ff7f0e"/>
     <use xlink:href="#m34091f3dfb" x="816.730455" y="66.153306" style="fill: #ff7f0e; stroke: #ff7f0e"/>
    </g>
   </g>
   <g id="line2d_27">
    <path d="M 87.339545 386.94778 
L 148.122121 372.148547 
L 208.904697 338.850272 
L 269.687273 326.517578 
L 330.469848 308.018536 
L 391.252424 290.752764 
L 452.035 267.320645 
L 512.817576 258.687758 
L 573.600152 234.02237 
L 634.382727 225.389483 
L 695.165303 198.257556 
L 755.947879 184.691592 
L 816.730455 120.561581 
" clip-path="url(#p9d849dd120)" style="fill: none; stroke: #2ca02c; stroke-width: 1.5; stroke-linecap: square"/>
    <defs>
     <path id="m9e45aad87f" d="M 0 3.5 
C 0.928211 3.5 1.81853 3.131218 2.474874 2.474874 
C 3.131218 1.81853 3.5 0.928211 3.5 0 
C 3.5 -0.928211 3.131218 -1.81853 2.474874 -2.474874 
C 1.81853 -3.131218 0.928211 -3.5 0 -3.5 
C -0.928211 -3.5 -1.81853 -3.131218 -2.474874 -2.474874 
C -3.131218 -1.81853 -3.5 -0.928211 -3.5 0 
C -3.5 0.928211 -3.131218 1.81853 -2.474874 2.474874 
C -1.81853 3.131218 -0.928211 3.5 0 3.5 
z
" style="stroke: #2ca02c"/>
    </defs>
    <g clip-path="url(#p9d849dd120)">
     <use xlink:href="#m9e45aad87f" x="87.339545" y="386.94778" style="fill: #2ca02c; stroke: #2ca02c"/>
     <use xlink:href="#m9e45aad87f" x="148.122121" y="372.148547" style="fill: #2ca02c; stroke: #2ca02c"/>
     <use xlink:href="#m9e45aad87f" x="208.904697" y="338.850272" style="fill: #2ca02c; stroke: #2ca02c"/>
     <use xlink:href="#m9e45aad87f" x="269.687273" y="326.517578" style="fill: #2ca02c; stroke: #2ca02c"/>
     <use xlink:href="#m9e45aad87f" x="330.469848" y="308.018536" style="fill: #2ca02c; stroke: #2ca02c"/>
     <use xlink:href="#m9e45aad87f" x="391.252424" y="290.752764" style="fill: #2ca02c; stroke: #2ca02c"/>
     <use xlink:href="#m9e45aad87f" x="452.035" y="267.320645" style="fill: #2ca02c; stroke: #2ca02c"/>
     <use xlink:href="#m9e45aad87f" x="512.817576" y="258.687758" style="fill: #2ca02c; stroke: #2ca02c"/>
     <use xlink:href="#m9e45aad87f" x="573.600152" y="234.02237" style="fill: #2ca02c; stroke: #2ca02c"/>
     <use xlink:href="#m9e45aad87f" x="634.382727" y="225.389483" style="fill: #2ca02c; stroke: #2ca02c"/>
     <use xlink:href="#m9e45aad87f" x="695.165303" y="198.257556" style="fill: #2ca02c; stroke: #2ca02c"/>
     <use xlink:href="#m9e45aad87f" x="755.947879" y="184.691592" style="fill: #2ca02c; stroke: #2ca02c"/>
     <use xlink:href="#m9e45aad87f" x="816.730455" y="120.561581" style="fill: #2ca02c; stroke: #2ca02c"/>
    </g>
   </g>
   <g id="line2d_28">
    <path d="M 87.339545 386.972727 
L 148.122121 374.640033 
L 208.904697 357.374261 
L 269.687273 348.741375 
L 330.469848 324.075986 
L 391.252424 312.976561 
L 452.035 292.01098 
L 512.817576 289.544441 
L 573.600152 264.879053 
L 634.382727 250.079819 
L 695.165303 222.947891 
L 755.947879 214.315005 
L 816.730455 162.517689 
" clip-path="url(#p9d849dd120)" style="fill: none; stroke: #d62728; stroke-width: 1.5; stroke-linecap: square"/>
    <defs>
     <path id="m5d15104020" d="M 0 3.5 
C 0.928211 3.5 1.81853 3.131218 2.474874 2.474874 
C 3.131218 1.81853 3.5 0.928211 3.5 0 
C 3.5 -0.928211 3.131218 -1.81853 2.474874 -2.474874 
C 1.81853 -3.131218 0.928211 -3.5 0 -3.5 
C -0.928211 -3.5 -1.81853 -3.131218 -2.474874 -2.474874 
C -3.131218 -1.81853 -3.5 -0.928211 -3.5 0 
C -3.5 0.928211 -3.131218 1.81853 -2.474874 2.474874 
C -1.81853 3.131218 -0.928211 3.5 0 3.5 
z
" style="stroke: #d62728"/>
    </defs>
    <g clip-path="url(#p9d849dd120)">
     <use xlink:href="#m5d15104020" x="87.339545" y="386.972727" style="fill: #d62728; stroke: #d62728"/>
     <use xlink:href="#m5d15104020" x="148.122121" y="374.640033" style="fill: #d62728; stroke: #d62728"/>
     <use xlink:href="#m5d15104020" x="208.904697" y="357.374261" style="fill: #d62728; stroke: #d62728"/>
     <use xlink:href="#m5d15104020" x="269.687273" y="348.741375" style="fill: #d62728; stroke: #d62728"/>
     <use xlink:href="#m5d15104020" x="330.469848" y="324.075986" style="fill: #d62728; stroke: #d62728"/>
     <use xlink:href="#m5d15104020" x="391.252424" y="312.976561" style="fill: #d62728; stroke: #d62728"/>
     <use xlink:href="#m5d15104020" x="452.035" y="292.01098" style="fill: #d62728; stroke: #d62728"/>
     <use xlink:href="#m5d15104020" x="512.817576" y="289.544441" style="fill: #d62728; stroke: #d62728"/>
     <use xlink:href="#m5d15104020" x="573.600152" y="264.879053" style="fill: #d62728; stroke: #d62728"/>
     <use xlink:href="#m5d15104020" x="634.382727" y="250.079819" style="fill: #d62728; stroke: #d62728"/>
     <use xlink:href="#m5d15104020" x="695.165303" y="222.947891" style="fill: #d62728; stroke: #d62728"/>
     <use xlink:href="#m5d15104020" x="755.947879" y="214.315005" style="fill: #d62728; stroke: #d62728"/>
     <use xlink:href="#m5d15104020" x="816.730455" y="162.517689" style="fill: #d62728; stroke: #d62728"/>
    </g>
   </g>
   <g id="line2d_29">
    <path d="M 87.339545 386.791077 
L 148.122121 355.959341 
L 208.904697 331.293952 
L 269.687273 306.628563 
L 330.469848 288.129522 
L 391.252424 248.6649 
L 452.035 225.23278 
L 512.817576 217.833164 
L 573.600152 187.001428 
L 634.382727 163.569308 
L 695.165303 130.271033 
L 755.947879 114.23853 
L 816.730455 72.307369 
" clip-path="url(#p9d849dd120)" style="fill: none; stroke: #9467bd; stroke-width: 1.5; stroke-linecap: square"/>
    <defs>
     <path id="m38d7f7edbe" d="M 0 3.5 
C 0.928211 3.5 1.81853 3.131218 2.474874 2.474874 
C 3.131218 1.81853 3.5 0.928211 3.5 0 
C 3.5 -0.928211 3.131218 -1.81853 2.474874 -2.474874 
C 1.81853 -3.131218 0.928211 -3.5 0 -3.5 
C -0.928211 -3.5 -1.81853 -3.131218 -2.474874 -2.474874 
C -3.131218 -1.81853 -3.5 -0.928211 -3.5 0 
C -3.5 0.928211 -3.131218 1.81853 -2.474874 2.474874 
C -1.81853 3.131218 -0.928211 3.5 0 3.5 
z
" style="stroke: #9467bd"/>
    </defs>
    <g clip-path="url(#p9d849dd120)">
     <use xlink:href="#m38d7f7edbe" x="87.339545" y="386.791077" style="fill: #9467bd; stroke: #9467bd"/>
     <use xlink:href="#m38d7f7edbe" x="148.122121" y="355.959341" style="fill: #9467bd; stroke: #9467bd"/>
     <use xlink:href="#m38d7f7edbe" x="208.904697" y="331.293952" style="fill: #9467bd; stroke: #9467bd"/>
     <use xlink:href="#m38d7f7edbe" x="269.687273" y="306.628563" style="fill: #9467bd; stroke: #9467bd"/>
     <use xlink:href="#m38d7f7edbe" x="330.469848" y="288.129522" style="fill: #9467bd; stroke: #9467bd"/>
     <use xlink:href="#m38d7f7edbe" x="391.252424" y="248.6649" style="fill: #9467bd; stroke: #9467bd"/>
     <use xlink:href="#m38d7f7edbe" x="452.035" y="225.23278" style="fill: #9467bd; stroke: #9467bd"/>
     <use xlink:href="#m38d7f7edbe" x="512.817576" y="217.833164" style="fill: #9467bd; stroke: #9467bd"/>
     <use xlink:href="#m38d7f7edbe" x="573.600152" y="187.001428" style="fill: #9467bd; stroke: #9467bd"/>
     <use xlink:href="#m38d7f7edbe" x="634.382727" y="163.569308" style="fill: #9467bd; stroke: #9467bd"/>
     <use xlink:href="#m38d7f7edbe" x="695.165303" y="130.271033" style="fill: #9467bd; stroke: #9467bd"/>
     <use xlink:href="#m38d7f7edbe" x="755.947879" y="114.23853" style="fill: #9467bd; stroke: #9467bd"/>
     <use xlink:href="#m38d7f7edbe" x="816.730455" y="72.307369" style="fill: #9467bd; stroke: #9467bd"/>
    </g>
   </g>
   <g id="line2d_30">
    <path d="M 87.339545 386.836503 
L 148.122121 368.337461 
L 208.904697 363.404384 
L 269.687273 354.771498 
L 330.469848 346.138612 
L 391.252424 322.706492 
L 452.035 299.274373 
L 512.817576 294.341295 
L 573.600152 291.874756 
L 634.382727 280.775331 
L 695.165303 253.643403 
L 755.947879 240.077439 
L 816.730455 178.413967 
" clip-path="url(#p9d849dd120)" style="fill: none; stroke: #8c564b; stroke-width: 1.5; stroke-linecap: square"/>
    <defs>
     <path id="mcfaf8df184" d="M 0 3.5 
C 0.928211 3.5 1.81853 3.131218 2.474874 2.474874 
C 3.131218 1.81853 3.5 0.928211 3.5 0 
C 3.5 -0.928211 3.131218 -1.81853 2.474874 -2.474874 
C 1.81853 -3.131218 0.928211 -3.5 0 -3.5 
C -0.928211 -3.5 -1.81853 -3.131218 -2.474874 -2.474874 
C -3.131218 -1.81853 -3.5 -0.928211 -3.5 0 
C -3.5 0.928211 -3.131218 1.81853 -2.474874 2.474874 
C -1.81853 3.131218 -0.928211 3.5 0 3.5 
z
" style="stroke: #8c564b"/>
    </defs>
    <g clip-path="url(#p9d849dd120)">
     <use xlink:href="#mcfaf8df184" x="87.339545" y="386.836503" style="fill: #8c564b; stroke: #8c564b"/>
     <use xlink:href="#mcfaf8df184" x="148.122121" y="368.337461" style="fill: #8c564b; stroke: #8c564b"/>
     <use xlink:href="#mcfaf8df184" x="208.904697" y="363.404384" style="fill: #8c564b; stroke: #8c564b"/>
     <use xlink:href="#mcfaf8df184" x="269.687273" y="354.771498" style="fill: #8c564b; stroke: #8c564b"/>
     <use xlink:href="#mcfaf8df184" x="330.469848" y="346.138612" style="fill: #8c564b; stroke: #8c564b"/>
     <use xlink:href="#mcfaf8df184" x="391.252424" y="322.706492" style="fill: #8c564b; stroke: #8c564b"/>
     <use xlink:href="#mcfaf8df184" x="452.035" y="299.274373" style="fill: #8c564b; stroke: #8c564b"/>
     <use xlink:href="#mcfaf8df184" x="512.817576" y="294.341295" style="fill: #8c564b; stroke: #8c564b"/>
     <use xlink:href="#mcfaf8df184" x="573.600152" y="291.874756" style="fill: #8c564b; stroke: #8c564b"/>
     <use xlink:href="#mcfaf8df184" x="634.382727" y="280.775331" style="fill: #8c564b; stroke: #8c564b"/>
     <use xlink:href="#mcfaf8df184" x="695.165303" y="253.643403" style="fill: #8c564b; stroke: #8c564b"/>
     <use xlink:href="#mcfaf8df184" x="755.947879" y="240.077439" style="fill: #8c564b; stroke: #8c564b"/>
     <use xlink:href="#mcfaf8df184" x="816.730455" y="178.413967" style="fill: #8c564b; stroke: #8c564b"/>
    </g>
   </g>
   <g id="line2d_31">
    <path d="M 87.339545 386.807484 
L 148.122121 372.008251 
L 208.904697 341.176515 
L 269.687273 335.010168 
L 330.469848 322.677473 
L 391.252424 298.012084 
L 452.035 295.545546 
L 512.817576 293.079007 
L 573.600152 268.413618 
L 634.382727 257.314193 
L 695.165303 238.815151 
L 755.947879 221.549379 
L 816.730455 167.285524 
" clip-path="url(#p9d849dd120)" style="fill: none; stroke: #e377c2; stroke-width: 1.5; stroke-linecap: square"/>
    <defs>
     <path id="mafecbbf311" d="M 0 3.5 
C 0.928211 3.5 1.81853 3.131218 2.474874 2.474874 
C 3.131218 1.81853 3.5 0.928211 3.5 0 
C 3.5 -0.928211 3.131218 -1.81853 2.474874 -2.474874 
C 1.81853 -3.131218 0.928211 -3.5 0 -3.5 
C -0.928211 -3.5 -1.81853 -3.131218 -2.474874 -2.474874 
C -3.131218 -1.81853 -3.5 -0.928211 -3.5 0 
C -3.5 0.928211 -3.131218 1.81853 -2.474874 2.474874 
C -1.81853 3.131218 -0.928211 3.5 0 3.5 
z
" style="stroke: #e377c2"/>
    </defs>
    <g clip-path="url(#p9d849dd120)">
     <use xlink:href="#mafecbbf311" x="87.339545" y="386.807484" style="fill: #e377c2; stroke: #e377c2"/>
     <use xlink:href="#mafecbbf311" x="148.122121" y="372.008251" style="fill: #e377c2; stroke: #e377c2"/>
     <use xlink:href="#mafecbbf311" x="208.904697" y="341.176515" style="fill: #e377c2; stroke: #e377c2"/>
     <use xlink:href="#mafecbbf311" x="269.687273" y="335.010168" style="fill: #e377c2; stroke: #e377c2"/>
     <use xlink:href="#mafecbbf311" x="330.469848" y="322.677473" style="fill: #e377c2; stroke: #e377c2"/>
     <use xlink:href="#mafecbbf311" x="391.252424" y="298.012084" style="fill: #e377c2; stroke: #e377c2"/>
     <use xlink:href="#mafecbbf311" x="452.035" y="295.545546" style="fill: #e377c2; stroke: #e377c2"/>
     <use xlink:href="#mafecbbf311" x="512.817576" y="293.079007" style="fill: #e377c2; stroke: #e377c2"/>
     <use xlink:href="#mafecbbf311" x="573.600152" y="268.413618" style="fill: #e377c2; stroke: #e377c2"/>
     <use xlink:href="#mafecbbf311" x="634.382727" y="257.314193" style="fill: #e377c2; stroke: #e377c2"/>
     <use xlink:href="#mafecbbf311" x="695.165303" y="238.815151" style="fill: #e377c2; stroke: #e377c2"/>
     <use xlink:href="#mafecbbf311" x="755.947879" y="221.549379" style="fill: #e377c2; stroke: #e377c2"/>
     <use xlink:href="#mafecbbf311" x="816.730455" y="167.285524" style="fill: #e377c2; stroke: #e377c2"/>
    </g>
   </g>
   <g id="line2d_32">
    <path d="M 87.339545 386.874886 
L 148.122121 356.04315 
L 208.904697 328.911222 
L 269.687273 316.578528 
L 330.469848 298.079486 
L 391.252424 264.781211 
L 452.035 225.316589 
L 512.817576 216.683703 
L 573.600152 189.551775 
L 634.382727 150.087153 
L 695.165303 135.28792 
L 755.947879 122.955225 
L 816.730455 73.624448 
" clip-path="url(#p9d849dd120)" style="fill: none; stroke: #7f7f7f; stroke-width: 1.5; stroke-linecap: square"/>
    <defs>
     <path id="m31ebb427ee" d="M 0 3.5 
C 0.928211 3.5 1.81853 3.131218 2.474874 2.474874 
C 3.131218 1.81853 3.5 0.928211 3.5 0 
C 3.5 -0.928211 3.131218 -1.81853 2.474874 -2.474874 
C 1.81853 -3.131218 0.928211 -3.5 0 -3.5 
C -0.928211 -3.5 -1.81853 -3.131218 -2.474874 -2.474874 
C -3.131218 -1.81853 -3.5 -0.928211 -3.5 0 
C -3.5 0.928211 -3.131218 1.81853 -2.474874 2.474874 
C -1.81853 3.131218 -0.928211 3.5 0 3.5 
z
" style="stroke: #7f7f7f"/>
    </defs>
    <g clip-path="url(#p9d849dd120)">
     <use xlink:href="#m31ebb427ee" x="87.339545" y="386.874886" style="fill: #7f7f7f; stroke: #7f7f7f"/>
     <use xlink:href="#m31ebb427ee" x="148.122121" y="356.04315" style="fill: #7f7f7f; stroke: #7f7f7f"/>
     <use xlink:href="#m31ebb427ee" x="208.904697" y="328.911222" style="fill: #7f7f7f; stroke: #7f7f7f"/>
     <use xlink:href="#m31ebb427ee" x="269.687273" y="316.578528" style="fill: #7f7f7f; stroke: #7f7f7f"/>
     <use xlink:href="#m31ebb427ee" x="330.469848" y="298.079486" style="fill: #7f7f7f; stroke: #7f7f7f"/>
     <use xlink:href="#m31ebb427ee" x="391.252424" y="264.781211" style="fill: #7f7f7f; stroke: #7f7f7f"/>
     <use xlink:href="#m31ebb427ee" x="452.035" y="225.316589" style="fill: #7f7f7f; stroke: #7f7f7f"/>
     <use xlink:href="#m31ebb427ee" x="512.817576" y="216.683703" style="fill: #7f7f7f; stroke: #7f7f7f"/>
     <use xlink:href="#m31ebb427ee" x="573.600152" y="189.551775" style="fill: #7f7f7f; stroke: #7f7f7f"/>
     <use xlink:href="#m31ebb427ee" x="634.382727" y="150.087153" style="fill: #7f7f7f; stroke: #7f7f7f"/>
     <use xlink:href="#m31ebb427ee" x="695.165303" y="135.28792" style="fill: #7f7f7f; stroke: #7f7f7f"/>
     <use xlink:href="#m31ebb427ee" x="755.947879" y="122.955225" style="fill: #7f7f7f; stroke: #7f7f7f"/>
     <use xlink:href="#m31ebb427ee" x="816.730455" y="73.624448" style="fill: #7f7f7f; stroke: #7f7f7f"/>
    </g>
   </g>
   <g id="line2d_33">
    <path d="M 87.339545 386.805367 
L 148.122121 368.306325 
L 208.904697 357.2069 
L 269.687273 344.874206 
L 330.469848 326.375164 
L 391.252424 286.910542 
L 452.035 263.478423 
L 512.817576 244.979381 
L 573.600152 207.981298 
L 634.382727 199.348412 
L 695.165303 174.683023 
L 755.947879 145.084556 
L 816.730455 74.788198 
" clip-path="url(#p9d849dd120)" style="fill: none; stroke: #bcbd22; stroke-width: 1.5; stroke-linecap: square"/>
    <defs>
     <path id="m7cb26d9a3f" d="M 0 3.5 
C 0.928211 3.5 1.81853 3.131218 2.474874 2.474874 
C 3.131218 1.81853 3.5 0.928211 3.5 0 
C 3.5 -0.928211 3.131218 -1.81853 2.474874 -2.474874 
C 1.81853 -3.131218 0.928211 -3.5 0 -3.5 
C -0.928211 -3.5 -1.81853 -3.131218 -2.474874 -2.474874 
C -3.131218 -1.81853 -3.5 -0.928211 -3.5 0 
C -3.5 0.928211 -3.131218 1.81853 -2.474874 2.474874 
C -1.81853 3.131218 -0.928211 3.5 0 3.5 
z
" style="stroke: #bcbd22"/>
    </defs>
    <g clip-path="url(#p9d849dd120)">
     <use xlink:href="#m7cb26d9a3f" x="87.339545" y="386.805367" style="fill: #bcbd22; stroke: #bcbd22"/>
     <use xlink:href="#m7cb26d9a3f" x="148.122121" y="368.306325" style="fill: #bcbd22; stroke: #bcbd22"/>
     <use xlink:href="#m7cb26d9a3f" x="208.904697" y="357.2069" style="fill: #bcbd22; stroke: #bcbd22"/>
     <use xlink:href="#m7cb26d9a3f" x="269.687273" y="344.874206" style="fill: #bcbd22; stroke: #bcbd22"/>
     <use xlink:href="#m7cb26d9a3f" x="330.469848" y="326.375164" style="fill: #bcbd22; stroke: #bcbd22"/>
     <use xlink:href="#m7cb26d9a3f" x="391.252424" y="286.910542" style="fill: #bcbd22; stroke: #bcbd22"/>
     <use xlink:href="#m7cb26d9a3f" x="452.035" y="263.478423" style="fill: #bcbd22; stroke: #bcbd22"/>
     <use xlink:href="#m7cb26d9a3f" x="512.817576" y="244.979381" style="fill: #bcbd22; stroke: #bcbd22"/>
     <use xlink:href="#m7cb26d9a3f" x="573.600152" y="207.981298" style="fill: #bcbd22; stroke: #bcbd22"/>
     <use xlink:href="#m7cb26d9a3f" x="634.382727" y="199.348412" style="fill: #bcbd22; stroke: #bcbd22"/>
     <use xlink:href="#m7cb26d9a3f" x="695.165303" y="174.683023" style="fill: #bcbd22; stroke: #bcbd22"/>
     <use xlink:href="#m7cb26d9a3f" x="755.947879" y="145.084556" style="fill: #bcbd22; stroke: #bcbd22"/>
     <use xlink:href="#m7cb26d9a3f" x="816.730455" y="74.788198" style="fill: #bcbd22; stroke: #bcbd22"/>
    </g>
   </g>
   <g id="line2d_34">
    <path d="M 87.339545 380.799492 
L 148.122121 356.134103 
L 208.904697 335.168522 
L 269.687273 316.669481 
L 330.469848 308.036595 
L 391.252424 277.204859 
L 452.035 269.805242 
L 512.817576 267.338703 
L 573.600152 240.206775 
L 634.382727 231.573889 
L 695.165303 198.275614 
L 755.947879 183.476381 
L 816.730455 141.54522 
" clip-path="url(#p9d849dd120)" style="fill: none; stroke: #17becf; stroke-width: 1.5; stroke-linecap: square"/>
    <defs>
     <path id="m4b7aab92f9" d="M 0 3.5 
C 0.928211 3.5 1.81853 3.131218 2.474874 2.474874 
C 3.131218 1.81853 3.5 0.928211 3.5 0 
C 3.5 -0.928211 3.131218 -1.81853 2.474874 -2.474874 
C 1.81853 -3.131218 0.928211 -3.5 0 -3.5 
C -0.928211 -3.5 -1.81853 -3.131218 -2.474874 -2.474874 
C -3.131218 -1.81853 -3.5 -0.928211 -3.5 0 
C -3.5 0.928211 -3.131218 1.81853 -2.474874 2.474874 
C -1.81853 3.131218 -0.928211 3.5 0 3.5 
z
" style="stroke: #17becf"/>
    </defs>
    <g clip-path="url(#p9d849dd120)">
     <use xlink:href="#m4b7aab92f9" x="87.339545" y="380.799492" style="fill: #17becf; stroke: #17becf"/>
     <use xlink:href="#m4b7aab92f9" x="148.122121" y="356.134103" style="fill: #17becf; stroke: #17becf"/>
     <use xlink:href="#m4b7aab92f9" x="208.904697" y="335.168522" style="fill: #17becf; stroke: #17becf"/>
     <use xlink:href="#m4b7aab92f9" x="269.687273" y="316.669481" style="fill: #17becf; stroke: #17becf"/>
     <use xlink:href="#m4b7aab92f9" x="330.469848" y="308.036595" style="fill: #17becf; stroke: #17becf"/>
     <use xlink:href="#m4b7aab92f9" x="391.252424" y="277.204859" style="fill: #17becf; stroke: #17becf"/>
     <use xlink:href="#m4b7aab92f9" x="452.035" y="269.805242" style="fill: #17becf; stroke: #17becf"/>
     <use xlink:href="#m4b7aab92f9" x="512.817576" y="267.338703" style="fill: #17becf; stroke: #17becf"/>
     <use xlink:href="#m4b7aab92f9" x="573.600152" y="240.206775" style="fill: #17becf; stroke: #17becf"/>
     <use xlink:href="#m4b7aab92f9" x="634.382727" y="231.573889" style="fill: #17becf; stroke: #17becf"/>
     <use xlink:href="#m4b7aab92f9" x="695.165303" y="198.275614" style="fill: #17becf; stroke: #17becf"/>
     <use xlink:href="#m4b7aab92f9" x="755.947879" y="183.476381" style="fill: #17becf; stroke: #17becf"/>
     <use xlink:href="#m4b7aab92f9" x="816.730455" y="141.54522" style="fill: #17becf; stroke: #17becf"/>
    </g>
   </g>
   <g id="line2d_35">
    <path d="M 87.339545 386.824325 
L 148.122121 372.025091 
L 208.904697 360.925666 
L 269.687273 348.592972 
L 330.469848 339.960086 
L 391.252424 337.493547 
L 452.035 310.361619 
L 512.817576 310.361619 
L 573.600152 291.862578 
L 634.382727 267.197189 
L 695.165303 233.898914 
L 755.947879 206.766986 
L 816.730455 173.468711 
" clip-path="url(#p9d849dd120)" style="fill: none; stroke: #1f77b4; stroke-width: 1.5; stroke-linecap: square"/>
    <g clip-path="url(#p9d849dd120)">
     <use xlink:href="#m7b3d4bc5f2" x="87.339545" y="386.824325" style="fill: #1f77b4; stroke: #1f77b4"/>
     <use xlink:href="#m7b3d4bc5f2" x="148.122121" y="372.025091" style="fill: #1f77b4; stroke: #1f77b4"/>
     <use xlink:href="#m7b3d4bc5f2" x="208.904697" y="360.925666" style="fill: #1f77b4; stroke: #1f77b4"/>
     <use xlink:href="#m7b3d4bc5f2" x="269.687273" y="348.592972" style="fill: #1f77b4; stroke: #1f77b4"/>
     <use xlink:href="#m7b3d4bc5f2" x="330.469848" y="339.960086" style="fill: #1f77b4; stroke: #1f77b4"/>
     <use xlink:href="#m7b3d4bc5f2" x="391.252424" y="337.493547" style="fill: #1f77b4; stroke: #1f77b4"/>
     <use xlink:href="#m7b3d4bc5f2" x="452.035" y="310.361619" style="fill: #1f77b4; stroke: #1f77b4"/>
     <use xlink:href="#m7b3d4bc5f2" x="512.817576" y="310.361619" style="fill: #1f77b4; stroke: #1f77b4"/>
     <use xlink:href="#m7b3d4bc5f2" x="573.600152" y="291.862578" style="fill: #1f77b4; stroke: #1f77b4"/>
     <use xlink:href="#m7b3d4bc5f2" x="634.382727" y="267.197189" style="fill: #1f77b4; stroke: #1f77b4"/>
     <use xlink:href="#m7b3d4bc5f2" x="695.165303" y="233.898914" style="fill: #1f77b4; stroke: #1f77b4"/>
     <use xlink:href="#m7b3d4bc5f2" x="755.947879" y="206.766986" style="fill: #1f77b4; stroke: #1f77b4"/>
     <use xlink:href="#m7b3d4bc5f2" x="816.730455" y="173.468711" style="fill: #1f77b4; stroke: #1f77b4"/>
    </g>
   </g>
   <g id="line2d_36">
    <path d="M 87.339545 386.891444 
L 148.122121 368.392402 
L 208.904697 347.426822 
L 269.687273 344.960283 
L 330.469848 338.793936 
L 391.252424 320.294894 
L 452.035 264.797769 
L 512.817576 256.164883 
L 573.600152 241.36565 
L 634.382727 235.199302 
L 695.165303 214.233722 
L 755.947879 189.568333 
L 816.730455 141.470825 
" clip-path="url(#p9d849dd120)" style="fill: none; stroke: #ff7f0e; stroke-width: 1.5; stroke-linecap: square"/>
    <g clip-path="url(#p9d849dd120)">
     <use xlink:href="#m34091f3dfb" x="87.339545" y="386.891444" style="fill: #ff7f0e; stroke: #ff7f0e"/>
     <use xlink:href="#m34091f3dfb" x="148.122121" y="368.392402" style="fill: #ff7f0e; stroke: #ff7f0e"/>
     <use xlink:href="#m34091f3dfb" x="208.904697" y="347.426822" style="fill: #ff7f0e; stroke: #ff7f0e"/>
     <use xlink:href="#m34091f3dfb" x="269.687273" y="344.960283" style="fill: #ff7f0e; stroke: #ff7f0e"/>
     <use xlink:href="#m34091f3dfb" x="330.469848" y="338.793936" style="fill: #ff7f0e; stroke: #ff7f0e"/>
     <use xlink:href="#m34091f3dfb" x="391.252424" y="320.294894" style="fill: #ff7f0e; stroke: #ff7f0e"/>
     <use xlink:href="#m34091f3dfb" x="452.035" y="264.797769" style="fill: #ff7f0e; stroke: #ff7f0e"/>
     <use xlink:href="#m34091f3dfb" x="512.817576" y="256.164883" style="fill: #ff7f0e; stroke: #ff7f0e"/>
     <use xlink:href="#m34091f3dfb" x="573.600152" y="241.36565" style="fill: #ff7f0e; stroke: #ff7f0e"/>
     <use xlink:href="#m34091f3dfb" x="634.382727" y="235.199302" style="fill: #ff7f0e; stroke: #ff7f0e"/>
     <use xlink:href="#m34091f3dfb" x="695.165303" y="214.233722" style="fill: #ff7f0e; stroke: #ff7f0e"/>
     <use xlink:href="#m34091f3dfb" x="755.947879" y="189.568333" style="fill: #ff7f0e; stroke: #ff7f0e"/>
     <use xlink:href="#m34091f3dfb" x="816.730455" y="141.470825" style="fill: #ff7f0e; stroke: #ff7f0e"/>
    </g>
   </g>
   <g id="line2d_37">
    <path d="M 87.339545 380.70983 
L 148.122121 347.411555 
L 208.904697 314.113281 
L 269.687273 301.780586 
L 330.469848 280.815006 
L 391.252424 266.015772 
L 452.035 226.55115 
L 512.817576 199.419222 
L 573.600152 174.753834 
L 634.382727 137.75575 
L 695.165303 98.291128 
L 755.947879 89.658242 
L 816.730455 44.027273 
" clip-path="url(#p9d849dd120)" style="fill: none; stroke: #2ca02c; stroke-width: 1.5; stroke-linecap: square"/>
    <g clip-path="url(#p9d849dd120)">
     <use xlink:href="#m9e45aad87f" x="87.339545" y="380.70983" style="fill: #2ca02c; stroke: #2ca02c"/>
     <use xlink:href="#m9e45aad87f" x="148.122121" y="347.411555" style="fill: #2ca02c; stroke: #2ca02c"/>
     <use xlink:href="#m9e45aad87f" x="208.904697" y="314.113281" style="fill: #2ca02c; stroke: #2ca02c"/>
     <use xlink:href="#m9e45aad87f" x="269.687273" y="301.780586" style="fill: #2ca02c; stroke: #2ca02c"/>
     <use xlink:href="#m9e45aad87f" x="330.469848" y="280.815006" style="fill: #2ca02c; stroke: #2ca02c"/>
     <use xlink:href="#m9e45aad87f" x="391.252424" y="266.015772" style="fill: #2ca02c; stroke: #2ca02c"/>
     <use xlink:href="#m9e45aad87f" x="452.035" y="226.55115" style="fill: #2ca02c; stroke: #2ca02c"/>
     <use xlink:href="#m9e45aad87f" x="512.817576" y="199.419222" style="fill: #2ca02c; stroke: #2ca02c"/>
     <use xlink:href="#m9e45aad87f" x="573.600152" y="174.753834" style="fill: #2ca02c; stroke: #2ca02c"/>
     <use xlink:href="#m9e45aad87f" x="634.382727" y="137.75575" style="fill: #2ca02c; stroke: #2ca02c"/>
     <use xlink:href="#m9e45aad87f" x="695.165303" y="98.291128" style="fill: #2ca02c; stroke: #2ca02c"/>
     <use xlink:href="#m9e45aad87f" x="755.947879" y="89.658242" style="fill: #2ca02c; stroke: #2ca02c"/>
     <use xlink:href="#m9e45aad87f" x="816.730455" y="44.027273" style="fill: #2ca02c; stroke: #2ca02c"/>
    </g>
   </g>
   <g id="line2d_38">
    <path d="M 87.339545 386.936136 
L 148.122121 362.270747 
L 208.904697 328.972472 
L 269.687273 316.639778 
L 330.469848 298.140736 
L 391.252424 261.142653 
L 452.035 221.678031 
L 512.817576 210.578606 
L 573.600152 183.446678 
L 634.382727 162.481098 
L 695.165303 113.15032 
L 755.947879 108.217242 
L 816.730455 50.253578 
" clip-path="url(#p9d849dd120)" style="fill: none; stroke: #d62728; stroke-width: 1.5; stroke-linecap: square"/>
    <g clip-path="url(#p9d849dd120)">
     <use xlink:href="#m5d15104020" x="87.339545" y="386.936136" style="fill: #d62728; stroke: #d62728"/>
     <use xlink:href="#m5d15104020" x="148.122121" y="362.270747" style="fill: #d62728; stroke: #d62728"/>
     <use xlink:href="#m5d15104020" x="208.904697" y="328.972472" style="fill: #d62728; stroke: #d62728"/>
     <use xlink:href="#m5d15104020" x="269.687273" y="316.639778" style="fill: #d62728; stroke: #d62728"/>
     <use xlink:href="#m5d15104020" x="330.469848" y="298.140736" style="fill: #d62728; stroke: #d62728"/>
     <use xlink:href="#m5d15104020" x="391.252424" y="261.142653" style="fill: #d62728; stroke: #d62728"/>
     <use xlink:href="#m5d15104020" x="452.035" y="221.678031" style="fill: #d62728; stroke: #d62728"/>
     <use xlink:href="#m5d15104020" x="512.817576" y="210.578606" style="fill: #d62728; stroke: #d62728"/>
     <use xlink:href="#m5d15104020" x="573.600152" y="183.446678" style="fill: #d62728; stroke: #d62728"/>
     <use xlink:href="#m5d15104020" x="634.382727" y="162.481098" style="fill: #d62728; stroke: #d62728"/>
     <use xlink:href="#m5d15104020" x="695.165303" y="113.15032" style="fill: #d62728; stroke: #d62728"/>
     <use xlink:href="#m5d15104020" x="755.947879" y="108.217242" style="fill: #d62728; stroke: #d62728"/>
     <use xlink:href="#m5d15104020" x="816.730455" y="50.253578" style="fill: #d62728; stroke: #d62728"/>
    </g>
   </g>
   <g id="line2d_39">
    <path d="M 87.339545 386.958502 
L 148.122121 378.325616 
L 208.904697 347.49388 
L 269.687273 335.161185 
L 330.469848 322.828491 
L 391.252424 305.562719 
L 452.035 284.597138 
L 512.817576 284.597138 
L 573.600152 253.765402 
L 634.382727 245.132516 
L 695.165303 218.000588 
L 755.947879 206.901163 
L 816.730455 136.604805 
" clip-path="url(#p9d849dd120)" style="fill: none; stroke: #9467bd; stroke-width: 1.5; stroke-linecap: square"/>
    <g clip-path="url(#p9d849dd120)">
     <use xlink:href="#m38d7f7edbe" x="87.339545" y="386.958502" style="fill: #9467bd; stroke: #9467bd"/>
     <use xlink:href="#m38d7f7edbe" x="148.122121" y="378.325616" style="fill: #9467bd; stroke: #9467bd"/>
     <use xlink:href="#m38d7f7edbe" x="208.904697" y="347.49388" style="fill: #9467bd; stroke: #9467bd"/>
     <use xlink:href="#m38d7f7edbe" x="269.687273" y="335.161185" style="fill: #9467bd; stroke: #9467bd"/>
     <use xlink:href="#m38d7f7edbe" x="330.469848" y="322.828491" style="fill: #9467bd; stroke: #9467bd"/>
     <use xlink:href="#m38d7f7edbe" x="391.252424" y="305.562719" style="fill: #9467bd; stroke: #9467bd"/>
     <use xlink:href="#m38d7f7edbe" x="452.035" y="284.597138" style="fill: #9467bd; stroke: #9467bd"/>
     <use xlink:href="#m38d7f7edbe" x="512.817576" y="284.597138" style="fill: #9467bd; stroke: #9467bd"/>
     <use xlink:href="#m38d7f7edbe" x="573.600152" y="253.765402" style="fill: #9467bd; stroke: #9467bd"/>
     <use xlink:href="#m38d7f7edbe" x="634.382727" y="245.132516" style="fill: #9467bd; stroke: #9467bd"/>
     <use xlink:href="#m38d7f7edbe" x="695.165303" y="218.000588" style="fill: #9467bd; stroke: #9467bd"/>
     <use xlink:href="#m38d7f7edbe" x="755.947879" y="206.901163" style="fill: #9467bd; stroke: #9467bd"/>
     <use xlink:href="#m38d7f7edbe" x="816.730455" y="136.604805" style="fill: #9467bd; stroke: #9467bd"/>
    </g>
   </g>
   <g id="patch_3">
    <path d="M 50.87 404.12 
L 50.87 26.88 
" style="fill: none; stroke: #000000; stroke-width: 0.8; stroke-linejoin: miter; stroke-linecap: square"/>
   </g>
   <g id="patch_4">
    <path d="M 853.2 404.12 
L 853.2 26.88 
" style="fill: none; stroke: #000000; stroke-width: 0.8; stroke-linejoin: miter; stroke-linecap: square"/>
   </g>
   <g id="patch_5">
    <path d="M 50.87 404.12 
L 853.2 404.12 
" style="fill: none; stroke: #000000; stroke-width: 0.8; stroke-linejoin: miter; stroke-linecap: square"/>
   </g>
   <g id="patch_6">
    <path d="M 50.87 26.88 
L 853.2 26.88 
" style="fill: none; stroke: #000000; stroke-width: 0.8; stroke-linejoin: miter; stroke-linecap: square"/>
   </g>
   <g id="text_14">
    <!-- Standings -->
    <g transform="translate(422.18125 20.88) scale(0.12 -0.12)">
     <defs>
      <path id="DejaVuSans-74" d="M 1172 4494 
L 1172 3500 
L 2356 3500 
L 2356 3053 
L 1172 3053 
L 1172 1153 
Q 1172 725 1289 603 
Q 1406 481 1766 481 
L 2356 481 
L 2356 0 
L 1766 0 
Q 1100 0 847 248 
Q 594 497 594 1153 
L 594 3053 
L 172 3053 
L 172 3500 
L 594 3500 
L 594 4494 
L 1172 4494 
z
" transform="scale(0.015625)"/>
      <path id="DejaVuSans-61" d="M 2194 1759 
Q 1497 1759 1228 1600 
Q 959 1441 959 1056 
Q 959 750 1161 570 
Q 1363 391 1709 391 
Q 2188 391 2477 730 
Q 2766 1069 2766 1631 
L 2766 1759 
L 2194 1759 
z
M 3341 1997 
L 3341 0 
L 2766 0 
L 2766 531 
Q 2569 213 2275 61 
Q 1981 -91 1556 -91 
Q 1019 -91 701 211 
Q 384 513 384 1019 
Q 384 1609 779 1909 
Q 1175 2209 1959 2209 
L 2766 2209 
L 2766 2266 
Q 2766 2663 2505 2880 
Q 2244 3097 1772 3097 
Q 1472 3097 1187 3025 
Q 903 2953 641 2809 
L 641 3341 
Q 956 3463 1253 3523 
Q 1550 3584 1831 3584 
Q 2591 3584 2966 3190 
Q 3341 2797 3341 1997 
z
" transform="scale(0.015625)"/>
      <path id="DejaVuSans-6e" d="M 3513 2113 
L 3513 0 
L 2938 0 
L 2938 2094 
Q 2938 2591 2744 2837 
Q 2550 3084 2163 3084 
Q 1697 3084 1428 2787 
Q 1159 2491 1159 1978 
L 1159 0 
L 581 0 
L 581 3500 
L 1159 3500 
L 1159 2956 
Q 1366 3272 1645 3428 
Q 1925 3584 2291 3584 
Q 2894 3584 3203 3211 
Q 3513 2838 3513 2113 
z
" transform="scale(0.015625)"/>
      <path id="DejaVuSans-64" d="M 2906 2969 
L 2906 4863 
L 3481 4863 
L 3481 0 
L 2906 0 
L 2906 525 
Q 2725 213 2448 61 
Q 2172 -91 1784 -91 
Q 1150 -91 751 415 
Q 353 922 353 1747 
Q 353 2572 751 3078 
Q 1150 3584 1784 3584 
Q 2172 3584 2448 3432 
Q 2725 3281 2906 2969 
z
M 947 1747 
Q 947 1113 1208 752 
Q 1469 391 1925 391 
Q 2381 391 2643 752 
Q 2906 1113 2906 1747 
Q 2906 2381 2643 2742 
Q 2381 3103 1925 3103 
Q 1469 3103 1208 2742 
Q 947 2381 947 1747 
z
" transform="scale(0.015625)"/>
      <path id="DejaVuSans-69" d="M 603 3500 
L 1178 3500 
L 1178 0 
L 603 0 
L 603 3500 
z
M 603 4863 
L 1178 4863 
L 1178 4134 
L 603 4134 
L 603 4863 
z
" transform="scale(0.015625)"/>
      <path id="DejaVuSans-67" d="M 2906 1791 
Q 2906 2416 2648 2759 
Q 2391 3103 1925 3103 
Q 1463 3103 1205 2759 
Q 947 2416 947 1791 
Q 947 1169 1205 825 
Q 1463 481 1925 481 
Q 2391 481 2648 825 
Q 2906 1169 2906 1791 
z
M 3481 434 
Q 3481 -459 3084 -895 
Q 2688 -1331 1869 -1331 
Q 1566 -1331 1297 -1286 
Q 1028 -1241 775 -1147 
L 775 -588 
Q 1028 -725 1275 -790 
Q 1522 -856 1778 -856 
Q 2344 -856 2625 -561 
Q 2906 -266 2906 331 
L 2906 616 
Q 2728 306 2450 153 
Q 2172 0 1784 0 
Q 1141 0 747 490 
Q 353 981 353 1791 
Q 353 2603 747 3093 
Q 1141 3584 1784 3584 
Q 2172 3584 2450 3431 
Q 2728 3278 2906 2969 
L 2906 3500 
L 3481 3500 
L 3481 434 
z
" transform="scale(0.015625)"/>
      <path id="DejaVuSans-73" d="M 2834 3397 
L 2834 2853 
Q 2591 2978 2328 3040 
Q 2066 3103 1784 3103 
Q 1356 3103 1142 2972 
Q 928 2841 928 2578 
Q 928 2378 1081 2264 
Q 1234 2150 1697 2047 
L 1894 2003 
Q 2506 1872 2764 1633 
Q 3022 1394 3022 966 
Q 3022 478 2636 193 
Q 2250 -91 1575 -91 
Q 1294 -91 989 -36 
Q 684 19 347 128 
L 347 722 
Q 666 556 975 473 
Q 1284 391 1588 391 
Q 1994 391 2212 530 
Q 2431 669 2431 922 
Q 2431 1156 2273 1281 
Q 2116 1406 1581 1522 
L 1381 1569 
Q 847 1681 609 1914 
Q 372 2147 372 2553 
Q 372 3047 722 3315 
Q 1072 3584 1716 3584 
Q 2034 3584 2315 3537 
Q 2597 3491 2834 3397 
z
" transform="scale(0.015625)"/>
     </defs>
     <use xlink:href="#DejaVuSans-53"/>
     <use xlink:href="#DejaVuSans-74" x="63.476562"/>
     <use xlink:href="#DejaVuSans-61" x="102.685547"/>
     <use xlink:href="#DejaVuSans-6e" x="163.964844"/>
     <use xlink:href="#DejaVuSans-64" x="227.34375"/>
     <use xlink:href="#DejaVuSans-69" x="290.820312"/>
     <use xlink:href="#DejaVuSans-6e" x="318.603516"/>
     <use xlink:href="#DejaVuSans-67" x="381.982422"/>
     <use xlink:href="#DejaVuSans-73" x="445.458984"/>
    </g>
   </g>
   <g id="legend_1">
    <g id="patch_7">
     <path d="M 57.87 152.305 
L 266.735625 152.305 
Q 268.735625 152.305 268.735625 150.305 
L 268.735625 33.88 
Q 268.735625 31.88 266.735625 31.88 
L 57.87 31.88 
Q 55.87 31.88 55.87 33.88 
L 55.87 150.305 
Q 55.87 152.305 57.87 152.305 
z
" style="fill: #ffffff; opacity: 0.8; stroke: #cccccc; stroke-linejoin: miter"/>
    </g>
    <g id="line2d_40">
     <path d="M 59.87 39.978437 
L 69.87 39.978437 
L 79.87 39.978437 
" style="fill: none; stroke: #1f77b4; stroke-width: 1.5; stroke-linecap: square"/>
     <g>
      <use xlink:href="#m7b3d4bc5f2" x="69.87" y="39.978437" style="fill: #1f77b4; stroke: #1f77b4"/>
     </g>
    </g>
    <g id="text_15">
     <!-- Tobias H -->
     <g transform="translate(87.87 43.478437) scale(0.1 -0.1)">
      <defs>
       <path id="DejaVuSans-54" d="M -19 4666 
L 3928 4666 
L 3928 4134 
L 2272 4134 
L 2272 0 
L 1638 0 
L 1638 4134 
L -19 4134 
L -19 4666 
z
" transform="scale(0.015625)"/>
       <path id="DejaVuSans-62" d="M 3116 1747 
Q 3116 2381 2855 2742 
Q 2594 3103 2138 3103 
Q 1681 3103 1420 2742 
Q 1159 2381 1159 1747 
Q 1159 1113 1420 752 
Q 1681 391 2138 391 
Q 2594 391 2855 752 
Q 3116 1113 3116 1747 
z
M 1159 2969 
Q 1341 3281 1617 3432 
Q 1894 3584 2278 3584 
Q 2916 3584 3314 3078 
Q 3713 2572 3713 1747 
Q 3713 922 3314 415 
Q 2916 -91 2278 -91 
Q 1894 -91 1617 61 
Q 1341 213 1159 525 
L 1159 0 
L 581 0 
L 581 4863 
L 1159 4863 
L 1159 2969 
z
" transform="scale(0.015625)"/>
       <path id="DejaVuSans-20" transform="scale(0.015625)"/>
       <path id="DejaVuSans-48" d="M 628 4666 
L 1259 4666 
L 1259 2753 
L 3553 2753 
L 3553 4666 
L 4184 4666 
L 4184 0 
L 3553 0 
L 3553 2222 
L 1259 2222 
L 1259 0 
L 628 0 
L 628 4666 
z
" transform="scale(0.015625)"/>
       <path id="DejaVuSans-f8" d="M 2828 2503 
L 1306 653 
Q 1434 522 1595 459 
Q 1756 397 1959 397 
Q 2419 397 2687 759 
Q 2956 1122 2956 1747 
Q 2956 1994 2925 2176 
Q 2894 2359 2828 2503 
z
M 2606 2841 
Q 2475 2969 2314 3033 
Q 2153 3097 1959 3097 
Q 1488 3097 1223 2730 
Q 959 2363 959 1703 
Q 959 1478 989 1306 
Q 1019 1134 1081 991 
L 2606 2841 
z
M 691 519 
Q 522 759 437 1067 
Q 353 1375 353 1747 
Q 353 2609 779 3096 
Q 1206 3584 1959 3584 
Q 2250 3584 2498 3504 
Q 2747 3425 2956 3263 
L 3391 3788 
L 3688 3541 
L 3231 2981 
Q 3397 2741 3481 2431 
Q 3566 2122 3566 1747 
Q 3566 888 3137 398 
Q 2709 -91 1959 -91 
Q 1659 -91 1407 -9 
Q 1156 72 959 231 
L 525 -294 
L 225 -50 
L 691 519 
z
" transform="scale(0.015625)"/>
      </defs>
      <use xlink:href="#DejaVuSans-54"/>
      <use xlink:href="#DejaVuSans-6f" x="44.083984"/>
      <use xlink:href="#DejaVuSans-62" x="105.265625"/>
      <use xlink:href="#DejaVuSans-69" x="168.742188"/>
      <use xlink:href="#DejaVuSans-61" x="196.525391"/>
      <use xlink:href="#DejaVuSans-73" x="257.804688"/>
      <use xlink:href="#DejaVuSans-20" x="309.904297"/>
      <use xlink:href="#DejaVuSans-48" x="341.691406"/>
      <use xlink:href="#DejaVuSans-f8" x="416.886719"/>
     </g>
    </g>
    <g id="line2d_41">
     <path d="M 59.87 54.656563 
L 69.87 54.656563 
L 79.87 54.656563 
" style="fill: none; stroke: #ff7f0e; stroke-width: 1.5; stroke-linecap: square"/>
     <g>
      <use xlink:href="#m34091f3dfb" x="69.87" y="54.656563" style="fill: #ff7f0e; stroke: #ff7f0e"/>
     </g>
    </g>
    <g id="text_16">
     <!-- Regitze Ar -->
     <g transform="translate(87.87 58.156563) scale(0.1 -0.1)">
      <defs>
       <path id="DejaVuSans-52" d="M 2841 2188 
Q 3044 2119 3236 1894 
Q 3428 1669 3622 1275 
L 4263 0 
L 3584 0 
L 2988 1197 
Q 2756 1666 2539 1819 
Q 2322 1972 1947 1972 
L 1259 1972 
L 1259 0 
L 628 0 
L 628 4666 
L 2053 4666 
Q 2853 4666 3247 4331 
Q 3641 3997 3641 3322 
Q 3641 2881 3436 2590 
Q 3231 2300 2841 2188 
z
M 1259 4147 
L 1259 2491 
L 2053 2491 
Q 2509 2491 2742 2702 
Q 2975 2913 2975 3322 
Q 2975 3731 2742 3939 
Q 2509 4147 2053 4147 
L 1259 4147 
z
" transform="scale(0.015625)"/>
       <path id="DejaVuSans-7a" d="M 353 3500 
L 3084 3500 
L 3084 2975 
L 922 459 
L 3084 459 
L 3084 0 
L 275 0 
L 275 525 
L 2438 3041 
L 353 3041 
L 353 3500 
z
" transform="scale(0.015625)"/>
       <path id="DejaVuSans-41" d="M 2188 4044 
L 1331 1722 
L 3047 1722 
L 2188 4044 
z
M 1831 4666 
L 2547 4666 
L 4325 0 
L 3669 0 
L 3244 1197 
L 1141 1197 
L 716 0 
L 50 0 
L 1831 4666 
z
" transform="scale(0.015625)"/>
      </defs>
      <use xlink:href="#DejaVuSans-52"/>
      <use xlink:href="#DejaVuSans-65" x="64.982422"/>
      <use xlink:href="#DejaVuSans-67" x="126.505859"/>
      <use xlink:href="#DejaVuSans-69" x="189.982422"/>
      <use xlink:href="#DejaVuSans-74" x="217.765625"/>
      <use xlink:href="#DejaVuSans-7a" x="256.974609"/>
      <use xlink:href="#DejaVuSans-65" x="309.464844"/>
      <use xlink:href="#DejaVuSans-20" x="370.988281"/>
      <use xlink:href="#DejaVuSans-41" x="402.775391"/>
      <use xlink:href="#DejaVuSans-72" x="471.183594"/>
     </g>
    </g>
    <g id="line2d_42">
     <path d="M 59.87 69.334687 
L 69.87 69.334687 
L 79.87 69.334687 
" style="fill: none; stroke: #2ca02c; stroke-width: 1.5; stroke-linecap: square"/>
     <g>
      <use xlink:href="#m9e45aad87f" x="69.87" y="69.334687" style="fill: #2ca02c; stroke: #2ca02c"/>
     </g>
    </g>
    <g id="text_17">
     <!-- Thomas Pe -->
     <g transform="translate(87.87 72.834687) scale(0.1 -0.1)">
      <defs>
       <path id="DejaVuSans-68" d="M 3513 2113 
L 3513 0 
L 2938 0 
L 2938 2094 
Q 2938 2591 2744 2837 
Q 2550 3084 2163 3084 
Q 1697 3084 1428 2787 
Q 1159 2491 1159 1978 
L 1159 0 
L 581 0 
L 581 4863 
L 1159 4863 
L 1159 2956 
Q 1366 3272 1645 3428 
Q 1925 3584 2291 3584 
Q 2894 3584 3203 3211 
Q 3513 2838 3513 2113 
z
" transform="scale(0.015625)"/>
       <path id="DejaVuSans-6d" d="M 3328 2828 
Q 3544 3216 3844 3400 
Q 4144 3584 4550 3584 
Q 5097 3584 5394 3201 
Q 5691 2819 5691 2113 
L 5691 0 
L 5113 0 
L 5113 2094 
Q 5113 2597 4934 2840 
Q 4756 3084 4391 3084 
Q 3944 3084 3684 2787 
Q 3425 2491 3425 1978 
L 3425 0 
L 2847 0 
L 2847 2094 
Q 2847 2600 2669 2842 
Q 2491 3084 2119 3084 
Q 1678 3084 1418 2786 
Q 1159 2488 1159 1978 
L 1159 0 
L 581 0 
L 581 3500 
L 1159 3500 
L 1159 2956 
Q 1356 3278 1631 3431 
Q 1906 3584 2284 3584 
Q 2666 3584 2933 3390 
Q 3200 3197 3328 2828 
z
" transform="scale(0.015625)"/>
       <path id="DejaVuSans-50" d="M 1259 4147 
L 1259 2394 
L 2053 2394 
Q 2494 2394 2734 2622 
Q 2975 2850 2975 3272 
Q 2975 3691 2734 3919 
Q 2494 4147 2053 4147 
L 1259 4147 
z
M 628 4666 
L 2053 4666 
Q 2838 4666 3239 4311 
Q 3641 3956 3641 3272 
Q 3641 2581 3239 2228 
Q 2838 1875 2053 1875 
L 1259 1875 
L 1259 0 
L 628 0 
L 628 4666 
z
" transform="scale(0.015625)"/>
      </defs>
      <use xlink:href="#DejaVuSans-54"/>
      <use xlink:href="#DejaVuSans-68" x="61.083984"/>
      <use xlink:href="#DejaVuSans-6f" x="124.462891"/>
      <use xlink:href="#DejaVuSans-6d" x="185.644531"/>
      <use xlink:href="#DejaVuSans-61" x="283.056641"/>
      <use xlink:href="#DejaVuSans-73" x="344.335938"/>
      <use xlink:href="#DejaVuSans-20" x="396.435547"/>
      <use xlink:href="#DejaVuSans-50" x="428.222656"/>
      <use xlink:href="#DejaVuSans-65" x="484.900391"/>
     </g>
    </g>
    <g id="line2d_43">
     <path d="M 59.87 84.012812 
L 69.87 84.012812 
L 79.87 84.012812 
" style="fill: none; stroke: #d62728; stroke-width: 1.5; stroke-linecap: square"/>
     <g>
      <use xlink:href="#m5d15104020" x="69.87" y="84.012812" style="fill: #d62728; stroke: #d62728"/>
     </g>
    </g>
    <g id="text_18">
     <!-- Rasmus  Kj -->
     <g transform="translate(87.87 87.512812) scale(0.1 -0.1)">
      <defs>
       <path id="DejaVuSans-75" d="M 544 1381 
L 544 3500 
L 1119 3500 
L 1119 1403 
Q 1119 906 1312 657 
Q 1506 409 1894 409 
Q 2359 409 2629 706 
Q 2900 1003 2900 1516 
L 2900 3500 
L 3475 3500 
L 3475 0 
L 2900 0 
L 2900 538 
Q 2691 219 2414 64 
Q 2138 -91 1772 -91 
Q 1169 -91 856 284 
Q 544 659 544 1381 
z
M 1991 3584 
L 1991 3584 
z
" transform="scale(0.015625)"/>
       <path id="DejaVuSans-4b" d="M 628 4666 
L 1259 4666 
L 1259 2694 
L 3353 4666 
L 4166 4666 
L 1850 2491 
L 4331 0 
L 3500 0 
L 1259 2247 
L 1259 0 
L 628 0 
L 628 4666 
z
" transform="scale(0.015625)"/>
       <path id="DejaVuSans-6a" d="M 603 3500 
L 1178 3500 
L 1178 -63 
Q 1178 -731 923 -1031 
Q 669 -1331 103 -1331 
L -116 -1331 
L -116 -844 
L 38 -844 
Q 366 -844 484 -692 
Q 603 -541 603 -63 
L 603 3500 
z
M 603 4863 
L 1178 4863 
L 1178 4134 
L 603 4134 
L 603 4863 
z
" transform="scale(0.015625)"/>
      </defs>
      <use xlink:href="#DejaVuSans-52"/>
      <use xlink:href="#DejaVuSans-61" x="67.232422"/>
      <use xlink:href="#DejaVuSans-73" x="128.511719"/>
      <use xlink:href="#DejaVuSans-6d" x="180.611328"/>
      <use xlink:href="#DejaVuSans-75" x="278.023438"/>
      <use xlink:href="#DejaVuSans-73" x="341.402344"/>
      <use xlink:href="#DejaVuSans-20" x="393.501953"/>
      <use xlink:href="#DejaVuSans-20" x="425.289062"/>
      <use xlink:href="#DejaVuSans-4b" x="457.076172"/>
      <use xlink:href="#DejaVuSans-6a" x="522.652344"/>
     </g>
    </g>
    <g id="line2d_44">
     <path d="M 59.87 98.690938 
L 69.87 98.690938 
L 79.87 98.690938 
" style="fill: none; stroke: #9467bd; stroke-width: 1.5; stroke-linecap: square"/>
     <g>
      <use xlink:href="#m38d7f7edbe" x="69.87" y="98.690938" style="fill: #9467bd; stroke: #9467bd"/>
     </g>
    </g>
    <g id="text_19">
     <!-- Line Bi -->
     <g transform="translate(87.87 102.190938) scale(0.1 -0.1)">
      <defs>
       <path id="DejaVuSans-4c" d="M 628 4666 
L 1259 4666 
L 1259 531 
L 3531 531 
L 3531 0 
L 628 0 
L 628 4666 
z
" transform="scale(0.015625)"/>
       <path id="DejaVuSans-42" d="M 1259 2228 
L 1259 519 
L 2272 519 
Q 2781 519 3026 730 
Q 3272 941 3272 1375 
Q 3272 1813 3026 2020 
Q 2781 2228 2272 2228 
L 1259 2228 
z
M 1259 4147 
L 1259 2741 
L 2194 2741 
Q 2656 2741 2882 2914 
Q 3109 3088 3109 3444 
Q 3109 3797 2882 3972 
Q 2656 4147 2194 4147 
L 1259 4147 
z
M 628 4666 
L 2241 4666 
Q 2963 4666 3353 4366 
Q 3744 4066 3744 3513 
Q 3744 3084 3544 2831 
Q 3344 2578 2956 2516 
Q 3422 2416 3680 2098 
Q 3938 1781 3938 1306 
Q 3938 681 3513 340 
Q 3088 0 2303 0 
L 628 0 
L 628 4666 
z
" transform="scale(0.015625)"/>
      </defs>
      <use xlink:href="#DejaVuSans-4c"/>
      <use xlink:href="#DejaVuSans-69" x="55.712891"/>
      <use xlink:href="#DejaVuSans-6e" x="83.496094"/>
      <use xlink:href="#DejaVuSans-65" x="146.875"/>
      <use xlink:href="#DejaVuSans-20" x="208.398438"/>
      <use xlink:href="#DejaVuSans-42" x="240.185547"/>
      <use xlink:href="#DejaVuSans-69" x="308.789062"/>
     </g>
    </g>
    <g id="line2d_45">
     <path d="M 59.87 113.369062 
L 69.87 113.369062 
L 79.87 113.369062 
" style="fill: none; stroke: #8c564b; stroke-width: 1.5; stroke-linecap: square"/>
     <g>
      <use xlink:href="#mcfaf8df184" x="69.87" y="113.369062" style="fill: #8c564b; stroke: #8c564b"/>
     </g>
    </g>
    <g id="text_20">
     <!-- mathilde  ho -->
     <g transform="translate(87.87 116.869062) scale(0.1 -0.1)">
      <defs>
       <path id="DejaVuSans-6c" d="M 603 4863 
L 1178 4863 
L 1178 0 
L 603 0 
L 603 4863 
z
" transform="scale(0.015625)"/>
      </defs>
      <use xlink:href="#DejaVuSans-6d"/>
      <use xlink:href="#DejaVuSans-61" x="97.412109"/>
      <use xlink:href="#DejaVuSans-74" x="158.691406"/>
      <use xlink:href="#DejaVuSans-68" x="197.900391"/>
      <use xlink:href="#DejaVuSans-69" x="261.279297"/>
      <use xlink:href="#DejaVuSans-6c" x="289.0625"/>
      <use xlink:href="#DejaVuSans-64" x="316.845703"/>
      <use xlink:href="#DejaVuSans-65" x="380.322266"/>
      <use xlink:href="#DejaVuSans-20" x="441.845703"/>
      <use xlink:href="#DejaVuSans-20" x="473.632812"/>
      <use xlink:href="#DejaVuSans-68" x="505.419922"/>
      <use xlink:href="#DejaVuSans-6f" x="568.798828"/>
     </g>
    </g>
    <g id="line2d_46">
     <path d="M 59.87 128.047187 
L 69.87 128.047187 
L 79.87 128.047187 
" style="fill: none; stroke: #e377c2; stroke-width: 1.5; stroke-linecap: square"/>
     <g>
      <use xlink:href="#mafecbbf311" x="69.87" y="128.047187" style="fill: #e377c2; stroke: #e377c2"/>
     </g>
    </g>
    <g id="text_21">
     <!-- Christine Jo -->
     <g transform="translate(87.87 131.547187) scale(0.1 -0.1)">
      <defs>
       <path id="DejaVuSans-43" d="M 4122 4306 
L 4122 3641 
Q 3803 3938 3442 4084 
Q 3081 4231 2675 4231 
Q 1875 4231 1450 3742 
Q 1025 3253 1025 2328 
Q 1025 1406 1450 917 
Q 1875 428 2675 428 
Q 3081 428 3442 575 
Q 3803 722 4122 1019 
L 4122 359 
Q 3791 134 3420 21 
Q 3050 -91 2638 -91 
Q 1578 -91 968 557 
Q 359 1206 359 2328 
Q 359 3453 968 4101 
Q 1578 4750 2638 4750 
Q 3056 4750 3426 4639 
Q 3797 4528 4122 4306 
z
" transform="scale(0.015625)"/>
       <path id="DejaVuSans-4a" d="M 628 4666 
L 1259 4666 
L 1259 325 
Q 1259 -519 939 -900 
Q 619 -1281 -91 -1281 
L -331 -1281 
L -331 -750 
L -134 -750 
Q 284 -750 456 -515 
Q 628 -281 628 325 
L 628 4666 
z
" transform="scale(0.015625)"/>
      </defs>
      <use xlink:href="#DejaVuSans-43"/>
      <use xlink:href="#DejaVuSans-68" x="69.824219"/>
      <use xlink:href="#DejaVuSans-72" x="133.203125"/>
      <use xlink:href="#DejaVuSans-69" x="174.316406"/>
      <use xlink:href="#DejaVuSans-73" x="202.099609"/>
      <use xlink:href="#DejaVuSans-74" x="254.199219"/>
      <use xlink:href="#DejaVuSans-69" x="293.408203"/>
      <use xlink:href="#DejaVuSans-6e" x="321.191406"/>
      <use xlink:href="#DejaVuSans-65" x="384.570312"/>
      <use xlink:href="#DejaVuSans-20" x="446.09375"/>
      <use xlink:href="#DejaVuSans-4a" x="477.880859"/>
      <use xlink:href="#DejaVuSans-6f" x="507.373047"/>
     </g>
    </g>
    <g id="line2d_47">
     <path d="M 59.87 142.725312 
L 69.87 142.725312 
L 79.87 142.725312 
" style="fill: none; stroke: #7f7f7f; stroke-width: 1.5; stroke-linecap: square"/>
     <g>
      <use xlink:href="#m31ebb427ee" x="69.87" y="142.725312" style="fill: #7f7f7f; stroke: #7f7f7f"/>
     </g>
    </g>
    <g id="text_22">
     <!-- Andreas An -->
     <g transform="translate(87.87 146.225312) scale(0.1 -0.1)">
      <use xlink:href="#DejaVuSans-41"/>
      <use xlink:href="#DejaVuSans-6e" x="68.408203"/>
      <use xlink:href="#DejaVuSans-64" x="131.787109"/>
      <use xlink:href="#DejaVuSans-72" x="195.263672"/>
      <use xlink:href="#DejaVuSans-65" x="234.126953"/>
      <use xlink:href="#DejaVuSans-61" x="295.650391"/>
      <use xlink:href="#DejaVuSans-73" x="356.929688"/>
      <use xlink:href="#DejaVuSans-20" x="409.029297"/>
      <use xlink:href="#DejaVuSans-41" x="440.816406"/>
      <use xlink:href="#DejaVuSans-6e" x="509.224609"/>
     </g>
    </g>
    <g id="line2d_48">
     <path d="M 170.866875 39.978437 
L 180.866875 39.978437 
L 190.866875 39.978437 
" style="fill: none; stroke: #bcbd22; stroke-width: 1.5; stroke-linecap: square"/>
     <g>
      <use xlink:href="#m7cb26d9a3f" x="180.866875" y="39.978437" style="fill: #bcbd22; stroke: #bcbd22"/>
     </g>
    </g>
    <g id="text_23">
     <!-- Marianne Ol -->
     <g transform="translate(198.866875 43.478437) scale(0.1 -0.1)">
      <defs>
       <path id="DejaVuSans-4d" d="M 628 4666 
L 1569 4666 
L 2759 1491 
L 3956 4666 
L 4897 4666 
L 4897 0 
L 4281 0 
L 4281 4097 
L 3078 897 
L 2444 897 
L 1241 4097 
L 1241 0 
L 628 0 
L 628 4666 
z
" transform="scale(0.015625)"/>
       <path id="DejaVuSans-4f" d="M 2522 4238 
Q 1834 4238 1429 3725 
Q 1025 3213 1025 2328 
Q 1025 1447 1429 934 
Q 1834 422 2522 422 
Q 3209 422 3611 934 
Q 4013 1447 4013 2328 
Q 4013 3213 3611 3725 
Q 3209 4238 2522 4238 
z
M 2522 4750 
Q 3503 4750 4090 4092 
Q 4678 3434 4678 2328 
Q 4678 1225 4090 567 
Q 3503 -91 2522 -91 
Q 1538 -91 948 565 
Q 359 1222 359 2328 
Q 359 3434 948 4092 
Q 1538 4750 2522 4750 
z
" transform="scale(0.015625)"/>
      </defs>
      <use xlink:href="#DejaVuSans-4d"/>
      <use xlink:href="#DejaVuSans-61" x="86.279297"/>
      <use xlink:href="#DejaVuSans-72" x="147.558594"/>
      <use xlink:href="#DejaVuSans-69" x="188.671875"/>
      <use xlink:href="#DejaVuSans-61" x="216.455078"/>
      <use xlink:href="#DejaVuSans-6e" x="277.734375"/>
      <use xlink:href="#DejaVuSans-6e" x="341.113281"/>
      <use xlink:href="#DejaVuSans-65" x="404.492188"/>
      <use xlink:href="#DejaVuSans-20" x="466.015625"/>
      <use xlink:href="#DejaVuSans-4f" x="497.802734"/>
      <use xlink:href="#DejaVuSans-6c" x="576.513672"/>
     </g>
    </g>
    <g id="line2d_49">
     <path d="M 170.866875 54.656563 
L 180.866875 54.656563 
L 190.866875 54.656563 
" style="fill: none; stroke: #17becf; stroke-width: 1.5; stroke-linecap: square"/>
     <g>
      <use xlink:href="#m4b7aab92f9" x="180.866875" y="54.656563" style="fill: #17becf; stroke: #17becf"/>
     </g>
    </g>
    <g id="text_24">
     <!-- Bjarke Ha -->
     <g transform="translate(198.866875 58.156563) scale(0.1 -0.1)">
      <defs>
       <path id="DejaVuSans-6b" d="M 581 4863 
L 1159 4863 
L 1159 1991 
L 2875 3500 
L 3609 3500 
L 1753 1863 
L 3688 0 
L 2938 0 
L 1159 1709 
L 1159 0 
L 581 0 
L 581 4863 
z
" transform="scale(0.015625)"/>
      </defs>
      <use xlink:href="#DejaVuSans-42"/>
      <use xlink:href="#DejaVuSans-6a" x="68.603516"/>
      <use xlink:href="#DejaVuSans-61" x="96.386719"/>
      <use xlink:href="#DejaVuSans-72" x="157.666016"/>
      <use xlink:href="#DejaVuSans-6b" x="198.779297"/>
      <use xlink:href="#DejaVuSans-65" x="253.064453"/>
      <use xlink:href="#DejaVuSans-20" x="314.587891"/>
      <use xlink:href="#DejaVuSans-48" x="346.375"/>
      <use xlink:href="#DejaVuSans-61" x="421.570312"/>
     </g>
    </g>
    <g id="line2d_50">
     <path d="M 170.866875 69.334687 
L 180.866875 69.334687 
L 190.866875 69.334687 
" style="fill: none; stroke: #1f77b4; stroke-width: 1.5; stroke-linecap: square"/>
     <g>
      <use xlink:href="#m7b3d4bc5f2" x="180.866875" y="69.334687" style="fill: #1f77b4; stroke: #1f77b4"/>
     </g>
    </g>
    <g id="text_25">
     <!-- Bob Ju -->
     <g transform="translate(198.866875 72.834687) scale(0.1 -0.1)">
      <use xlink:href="#DejaVuSans-42"/>
      <use xlink:href="#DejaVuSans-6f" x="68.603516"/>
      <use xlink:href="#DejaVuSans-62" x="129.785156"/>
      <use xlink:href="#DejaVuSans-20" x="193.261719"/>
      <use xlink:href="#DejaVuSans-4a" x="225.048828"/>
      <use xlink:href="#DejaVuSans-75" x="254.541016"/>
     </g>
    </g>
    <g id="line2d_51">
     <path d="M 170.866875 84.012812 
L 180.866875 84.012812 
L 190.866875 84.012812 
" style="fill: none; stroke: #ff7f0e; stroke-width: 1.5; stroke-linecap: square"/>
     <g>
      <use xlink:href="#m34091f3dfb" x="180.866875" y="84.012812" style="fill: #ff7f0e; stroke: #ff7f0e"/>
     </g>
    </g>
    <g id="text_26">
     <!-- Marianne g -->
     <g transform="translate(198.866875 87.512812) scale(0.1 -0.1)">
      <defs>
       <path id="DejaVuSans-c6" d="M 5766 4666 
L 5766 4134 
L 3450 4134 
L 3450 2753 
L 5672 2753 
L 5672 2222 
L 3450 2222 
L 3450 531 
L 5825 531 
L 5825 0 
L 2816 0 
L 2816 1197 
L 1166 1197 
L 666 0 
L 25 0 
L 1978 4666 
L 5766 4666 
z
M 2413 4172 
L 1381 1722 
L 2816 1722 
L 2816 4172 
L 2413 4172 
z
" transform="scale(0.015625)"/>
      </defs>
      <use xlink:href="#DejaVuSans-4d"/>
      <use xlink:href="#DejaVuSans-61" x="86.279297"/>
      <use xlink:href="#DejaVuSans-72" x="147.558594"/>
      <use xlink:href="#DejaVuSans-69" x="188.671875"/>
      <use xlink:href="#DejaVuSans-61" x="216.455078"/>
      <use xlink:href="#DejaVuSans-6e" x="277.734375"/>
      <use xlink:href="#DejaVuSans-6e" x="341.113281"/>
      <use xlink:href="#DejaVuSans-65" x="404.492188"/>
      <use xlink:href="#DejaVuSans-20" x="466.015625"/>
      <use xlink:href="#DejaVuSans-c6" x="497.802734"/>
      <use xlink:href="#DejaVuSans-67" x="595.214844"/>
     </g>
    </g>
    <g id="line2d_52">
     <path d="M 170.866875 98.690938 
L 180.866875 98.690938 
L 190.866875 98.690938 
" style="fill: none; stroke: #2ca02c; stroke-width: 1.5; stroke-linecap: square"/>
     <g>
      <use xlink:href="#m9e45aad87f" x="180.866875" y="98.690938" style="fill: #2ca02c; stroke: #2ca02c"/>
     </g>
    </g>
    <g id="text_27">
     <!-- Mathias  Th -->
     <g transform="translate(198.866875 102.190938) scale(0.1 -0.1)">
      <use xlink:href="#DejaVuSans-4d"/>
      <use xlink:href="#DejaVuSans-61" x="86.279297"/>
      <use xlink:href="#DejaVuSans-74" x="147.558594"/>
      <use xlink:href="#DejaVuSans-68" x="186.767578"/>
      <use xlink:href="#DejaVuSans-69" x="250.146484"/>
      <use xlink:href="#DejaVuSans-61" x="277.929688"/>
      <use xlink:href="#DejaVuSans-73" x="339.208984"/>
      <use xlink:href="#DejaVuSans-20" x="391.308594"/>
      <use xlink:href="#DejaVuSans-20" x="423.095703"/>
      <use xlink:href="#DejaVuSans-54" x="454.882812"/>
      <use xlink:href="#DejaVuSans-68" x="515.966797"/>
     </g>
    </g>
    <g id="line2d_53">
     <path d="M 170.866875 113.369062 
L 180.866875 113.369062 
L 190.866875 113.369062 
" style="fill: none; stroke: #d62728; stroke-width: 1.5; stroke-linecap: square"/>
     <g>
      <use xlink:href="#m5d15104020" x="180.866875" y="113.369062" style="fill: #d62728; stroke: #d62728"/>
     </g>
    </g>
    <g id="text_28">
     <!-- Lisbeth Ul -->
     <g transform="translate(198.866875 116.869062) scale(0.1 -0.1)">
      <defs>
       <path id="DejaVuSans-55" d="M 556 4666 
L 1191 4666 
L 1191 1831 
Q 1191 1081 1462 751 
Q 1734 422 2344 422 
Q 2950 422 3222 751 
Q 3494 1081 3494 1831 
L 3494 4666 
L 4128 4666 
L 4128 1753 
Q 4128 841 3676 375 
Q 3225 -91 2344 -91 
Q 1459 -91 1007 375 
Q 556 841 556 1753 
L 556 4666 
z
" transform="scale(0.015625)"/>
      </defs>
      <use xlink:href="#DejaVuSans-4c"/>
      <use xlink:href="#DejaVuSans-69" x="55.712891"/>
      <use xlink:href="#DejaVuSans-73" x="83.496094"/>
      <use xlink:href="#DejaVuSans-62" x="135.595703"/>
      <use xlink:href="#DejaVuSans-65" x="199.072266"/>
      <use xlink:href="#DejaVuSans-74" x="260.595703"/>
      <use xlink:href="#DejaVuSans-68" x="299.804688"/>
      <use xlink:href="#DejaVuSans-20" x="363.183594"/>
      <use xlink:href="#DejaVuSans-55" x="394.970703"/>
      <use xlink:href="#DejaVuSans-6c" x="468.164062"/>
     </g>
    </g>
    <g id="line2d_54">
     <path d="M 170.866875 128.047187 
L 180.866875 128.047187 
L 190.866875 128.047187 
" style="fill: none; stroke: #9467bd; stroke-width: 1.5; stroke-linecap: square"/>
     <g>
      <use xlink:href="#m38d7f7edbe" x="180.866875" y="128.047187" style="fill: #9467bd; stroke: #9467bd"/>
     </g>
    </g>
    <g id="text_29">
     <!-- Hanne Ho -->
     <g transform="translate(198.866875 131.547187) scale(0.1 -0.1)">
      <use xlink:href="#DejaVuSans-48"/>
      <use xlink:href="#DejaVuSans-61" x="75.195312"/>
      <use xlink:href="#DejaVuSans-6e" x="136.474609"/>
      <use xlink:href="#DejaVuSans-6e" x="199.853516"/>
      <use xlink:href="#DejaVuSans-65" x="263.232422"/>
      <use xlink:href="#DejaVuSans-20" x="324.755859"/>
      <use xlink:href="#DejaVuSans-48" x="356.542969"/>
      <use xlink:href="#DejaVuSans-6f" x="431.738281"/>
     </g>
    </g>
   </g>
  </g>
 </g>
 <defs>
  <clipPath id="p9d849dd120">
   <rect x="50.87" y="26.88" width="802.33" height="377.24"/>
  </clipPath>
 </defs>
</svg>
