<?xml version="1.0" encoding="utf-8" standalone="no"?>
<!DOCTYPE svg PUBLIC "-//W3C//DTD SVG 1.1//EN"
  "http://www.w3.org/Graphics/SVG/1.1/DTD/svg11.dtd">
<svg xmlns:xlink="http://www.w3.org/1999/xlink" width="864pt" height="432pt" viewBox="0 0 864 432" xmlns="http://www.w3.org/2000/svg" version="1.1">
 <metadata>
  <rdf:RDF xmlns:dc="http://purl.org/dc/elements/1.1/" xmlns:cc="http://creativecommons.org/ns#" xmlns:rdf="http://www.w3.org/1999/02/22-rdf-syntax-ns#">
   <cc:Work>
    <dc:type rdf:resource="http://purl.org/dc/dcmitype/StillImage"/>
    <dc:date>2024-07-31T18:33:47.018961</dc:date>
    <dc:format>image/svg+xml</dc:format>
    <dc:creator>
     <cc:Agent>
      <dc:title>Matplotlib v3.9.1, https://matplotlib.org/</dc:title>
     </cc:Agent>
    </dc:creator>
   </cc:Work>
  </rdf:RDF>
 </metadata>
 <defs>
  <style type="text/css">*{stroke-linejoin: round; stroke-linecap: butt}</style>
 </defs>
 <g id="figure_1">
  <g id="patch_1">
   <path d="M 0 432 
L 864 432 
L 864 0 
L 0 0 
z
" style="fill: #ffffff"/>
  </g>
  <g id="axes_1">
   <g id="patch_2">
    <path d="M 50.87 404.12 
L 841.88472 404.12 
L 841.88472 26.88 
L 50.87 26.88 
z
" style="fill: #ffffff"/>
   </g>
   <g id="matplotlib.axis_1">
    <g id="xtick_1">
     <g id="line2d_1">
      <path d="M 102.125306 404.12 
L 102.125306 26.88 
" clip-path="url(#p3571621905)" style="fill: none; stroke-dasharray: 2.96,1.28; stroke-dashoffset: 0; stroke: #b0b0b0; stroke-width: 0.8"/>
     </g>
     <g id="line2d_2">
      <defs>
       <path id="m49bd91f312" d="M 0 0 
L 0 3.5 
" style="stroke: #000000; stroke-width: 0.8"/>
      </defs>
      <g>
       <use xlink:href="#m49bd91f312" x="102.125306" y="404.12" style="stroke: #000000; stroke-width: 0.8"/>
      </g>
     </g>
     <g id="text_1">
      <!-- 2024-06-15 -->
      <g transform="translate(73.067493 418.718437) scale(0.1 -0.1)">
       <defs>
        <path id="DejaVuSans-32" d="M 1228 531 
L 3431 531 
L 3431 0 
L 469 0 
L 469 531 
Q 828 903 1448 1529 
Q 2069 2156 2228 2338 
Q 2531 2678 2651 2914 
Q 2772 3150 2772 3378 
Q 2772 3750 2511 3984 
Q 2250 4219 1831 4219 
Q 1534 4219 1204 4116 
Q 875 4013 500 3803 
L 500 4441 
Q 881 4594 1212 4672 
Q 1544 4750 1819 4750 
Q 2544 4750 2975 4387 
Q 3406 4025 3406 3419 
Q 3406 3131 3298 2873 
Q 3191 2616 2906 2266 
Q 2828 2175 2409 1742 
Q 1991 1309 1228 531 
z
" transform="scale(0.015625)"/>
        <path id="DejaVuSans-30" d="M 2034 4250 
Q 1547 4250 1301 3770 
Q 1056 3291 1056 2328 
Q 1056 1369 1301 889 
Q 1547 409 2034 409 
Q 2525 409 2770 889 
Q 3016 1369 3016 2328 
Q 3016 3291 2770 3770 
Q 2525 4250 2034 4250 
z
M 2034 4750 
Q 2819 4750 3233 4129 
Q 3647 3509 3647 2328 
Q 3647 1150 3233 529 
Q 2819 -91 2034 -91 
Q 1250 -91 836 529 
Q 422 1150 422 2328 
Q 422 3509 836 4129 
Q 1250 4750 2034 4750 
z
" transform="scale(0.015625)"/>
        <path id="DejaVuSans-34" d="M 2419 4116 
L 825 1625 
L 2419 1625 
L 2419 4116 
z
M 2253 4666 
L 3047 4666 
L 3047 1625 
L 3713 1625 
L 3713 1100 
L 3047 1100 
L 3047 0 
L 2419 0 
L 2419 1100 
L 313 1100 
L 313 1709 
L 2253 4666 
z
" transform="scale(0.015625)"/>
        <path id="DejaVuSans-2d" d="M 313 2009 
L 1997 2009 
L 1997 1497 
L 313 1497 
L 313 2009 
z
" transform="scale(0.015625)"/>
        <path id="DejaVuSans-36" d="M 2113 2584 
Q 1688 2584 1439 2293 
Q 1191 2003 1191 1497 
Q 1191 994 1439 701 
Q 1688 409 2113 409 
Q 2538 409 2786 701 
Q 3034 994 3034 1497 
Q 3034 2003 2786 2293 
Q 2538 2584 2113 2584 
z
M 3366 4563 
L 3366 3988 
Q 3128 4100 2886 4159 
Q 2644 4219 2406 4219 
Q 1781 4219 1451 3797 
Q 1122 3375 1075 2522 
Q 1259 2794 1537 2939 
Q 1816 3084 2150 3084 
Q 2853 3084 3261 2657 
Q 3669 2231 3669 1497 
Q 3669 778 3244 343 
Q 2819 -91 2113 -91 
Q 1303 -91 875 529 
Q 447 1150 447 2328 
Q 447 3434 972 4092 
Q 1497 4750 2381 4750 
Q 2619 4750 2861 4703 
Q 3103 4656 3366 4563 
z
" transform="scale(0.015625)"/>
        <path id="DejaVuSans-31" d="M 794 531 
L 1825 531 
L 1825 4091 
L 703 3866 
L 703 4441 
L 1819 4666 
L 2450 4666 
L 2450 531 
L 3481 531 
L 3481 0 
L 794 0 
L 794 531 
z
" transform="scale(0.015625)"/>
        <path id="DejaVuSans-35" d="M 691 4666 
L 3169 4666 
L 3169 4134 
L 1269 4134 
L 1269 2991 
Q 1406 3038 1543 3061 
Q 1681 3084 1819 3084 
Q 2600 3084 3056 2656 
Q 3513 2228 3513 1497 
Q 3513 744 3044 326 
Q 2575 -91 1722 -91 
Q 1428 -91 1123 -41 
Q 819 9 494 109 
L 494 744 
Q 775 591 1075 516 
Q 1375 441 1709 441 
Q 2250 441 2565 725 
Q 2881 1009 2881 1497 
Q 2881 1984 2565 2268 
Q 2250 2553 1709 2553 
Q 1456 2553 1204 2497 
Q 953 2441 691 2322 
L 691 4666 
z
" transform="scale(0.015625)"/>
       </defs>
       <use xlink:href="#DejaVuSans-32"/>
       <use xlink:href="#DejaVuSans-30" x="63.623047"/>
       <use xlink:href="#DejaVuSans-32" x="127.246094"/>
       <use xlink:href="#DejaVuSans-34" x="190.869141"/>
       <use xlink:href="#DejaVuSans-2d" x="254.492188"/>
       <use xlink:href="#DejaVuSans-30" x="290.576172"/>
       <use xlink:href="#DejaVuSans-36" x="354.199219"/>
       <use xlink:href="#DejaVuSans-2d" x="417.822266"/>
       <use xlink:href="#DejaVuSans-31" x="453.90625"/>
       <use xlink:href="#DejaVuSans-35" x="517.529297"/>
      </g>
     </g>
    </g>
    <g id="xtick_2">
     <g id="line2d_3">
      <path d="M 209.225945 404.12 
L 209.225945 26.88 
" clip-path="url(#p3571621905)" style="fill: none; stroke-dasharray: 2.96,1.28; stroke-dashoffset: 0; stroke: #b0b0b0; stroke-width: 0.8"/>
     </g>
     <g id="line2d_4">
      <g>
       <use xlink:href="#m49bd91f312" x="209.225945" y="404.12" style="stroke: #000000; stroke-width: 0.8"/>
      </g>
     </g>
     <g id="text_2">
      <!-- 2024-06-22 -->
      <g transform="translate(180.168132 418.718437) scale(0.1 -0.1)">
       <use xlink:href="#DejaVuSans-32"/>
       <use xlink:href="#DejaVuSans-30" x="63.623047"/>
       <use xlink:href="#DejaVuSans-32" x="127.246094"/>
       <use xlink:href="#DejaVuSans-34" x="190.869141"/>
       <use xlink:href="#DejaVuSans-2d" x="254.492188"/>
       <use xlink:href="#DejaVuSans-30" x="290.576172"/>
       <use xlink:href="#DejaVuSans-36" x="354.199219"/>
       <use xlink:href="#DejaVuSans-2d" x="417.822266"/>
       <use xlink:href="#DejaVuSans-32" x="453.90625"/>
       <use xlink:href="#DejaVuSans-32" x="517.529297"/>
      </g>
     </g>
    </g>
    <g id="xtick_3">
     <g id="line2d_5">
      <path d="M 346.926766 404.12 
L 346.926766 26.88 
" clip-path="url(#p3571621905)" style="fill: none; stroke-dasharray: 2.96,1.28; stroke-dashoffset: 0; stroke: #b0b0b0; stroke-width: 0.8"/>
     </g>
     <g id="line2d_6">
      <g>
       <use xlink:href="#m49bd91f312" x="346.926766" y="404.12" style="stroke: #000000; stroke-width: 0.8"/>
      </g>
     </g>
     <g id="text_3">
      <!-- 2024-07-01 -->
      <g transform="translate(317.868954 418.718437) scale(0.1 -0.1)">
       <defs>
        <path id="DejaVuSans-37" d="M 525 4666 
L 3525 4666 
L 3525 4397 
L 1831 0 
L 1172 0 
L 2766 4134 
L 525 4134 
L 525 4666 
z
" transform="scale(0.015625)"/>
       </defs>
       <use xlink:href="#DejaVuSans-32"/>
       <use xlink:href="#DejaVuSans-30" x="63.623047"/>
       <use xlink:href="#DejaVuSans-32" x="127.246094"/>
       <use xlink:href="#DejaVuSans-34" x="190.869141"/>
       <use xlink:href="#DejaVuSans-2d" x="254.492188"/>
       <use xlink:href="#DejaVuSans-30" x="290.576172"/>
       <use xlink:href="#DejaVuSans-37" x="354.199219"/>
       <use xlink:href="#DejaVuSans-2d" x="417.822266"/>
       <use xlink:href="#DejaVuSans-30" x="453.90625"/>
       <use xlink:href="#DejaVuSans-31" x="517.529297"/>
      </g>
     </g>
    </g>
    <g id="xtick_4">
     <g id="line2d_7">
      <path d="M 454.027405 404.12 
L 454.027405 26.88 
" clip-path="url(#p3571621905)" style="fill: none; stroke-dasharray: 2.96,1.28; stroke-dashoffset: 0; stroke: #b0b0b0; stroke-width: 0.8"/>
     </g>
     <g id="line2d_8">
      <g>
       <use xlink:href="#m49bd91f312" x="454.027405" y="404.12" style="stroke: #000000; stroke-width: 0.8"/>
      </g>
     </g>
     <g id="text_4">
      <!-- 2024-07-08 -->
      <g transform="translate(424.969593 418.718437) scale(0.1 -0.1)">
       <defs>
        <path id="DejaVuSans-38" d="M 2034 2216 
Q 1584 2216 1326 1975 
Q 1069 1734 1069 1313 
Q 1069 891 1326 650 
Q 1584 409 2034 409 
Q 2484 409 2743 651 
Q 3003 894 3003 1313 
Q 3003 1734 2745 1975 
Q 2488 2216 2034 2216 
z
M 1403 2484 
Q 997 2584 770 2862 
Q 544 3141 544 3541 
Q 544 4100 942 4425 
Q 1341 4750 2034 4750 
Q 2731 4750 3128 4425 
Q 3525 4100 3525 3541 
Q 3525 3141 3298 2862 
Q 3072 2584 2669 2484 
Q 3125 2378 3379 2068 
Q 3634 1759 3634 1313 
Q 3634 634 3220 271 
Q 2806 -91 2034 -91 
Q 1263 -91 848 271 
Q 434 634 434 1313 
Q 434 1759 690 2068 
Q 947 2378 1403 2484 
z
M 1172 3481 
Q 1172 3119 1398 2916 
Q 1625 2713 2034 2713 
Q 2441 2713 2670 2916 
Q 2900 3119 2900 3481 
Q 2900 3844 2670 4047 
Q 2441 4250 2034 4250 
Q 1625 4250 1398 4047 
Q 1172 3844 1172 3481 
z
" transform="scale(0.015625)"/>
       </defs>
       <use xlink:href="#DejaVuSans-32"/>
       <use xlink:href="#DejaVuSans-30" x="63.623047"/>
       <use xlink:href="#DejaVuSans-32" x="127.246094"/>
       <use xlink:href="#DejaVuSans-34" x="190.869141"/>
       <use xlink:href="#DejaVuSans-2d" x="254.492188"/>
       <use xlink:href="#DejaVuSans-30" x="290.576172"/>
       <use xlink:href="#DejaVuSans-37" x="354.199219"/>
       <use xlink:href="#DejaVuSans-2d" x="417.822266"/>
       <use xlink:href="#DejaVuSans-30" x="453.90625"/>
       <use xlink:href="#DejaVuSans-38" x="517.529297"/>
      </g>
     </g>
    </g>
    <g id="xtick_5">
     <g id="line2d_9">
      <path d="M 561.128044 404.12 
L 561.128044 26.88 
" clip-path="url(#p3571621905)" style="fill: none; stroke-dasharray: 2.96,1.28; stroke-dashoffset: 0; stroke: #b0b0b0; stroke-width: 0.8"/>
     </g>
     <g id="line2d_10">
      <g>
       <use xlink:href="#m49bd91f312" x="561.128044" y="404.12" style="stroke: #000000; stroke-width: 0.8"/>
      </g>
     </g>
     <g id="text_5">
      <!-- 2024-07-15 -->
      <g transform="translate(532.070232 418.718437) scale(0.1 -0.1)">
       <use xlink:href="#DejaVuSans-32"/>
       <use xlink:href="#DejaVuSans-30" x="63.623047"/>
       <use xlink:href="#DejaVuSans-32" x="127.246094"/>
       <use xlink:href="#DejaVuSans-34" x="190.869141"/>
       <use xlink:href="#DejaVuSans-2d" x="254.492188"/>
       <use xlink:href="#DejaVuSans-30" x="290.576172"/>
       <use xlink:href="#DejaVuSans-37" x="354.199219"/>
       <use xlink:href="#DejaVuSans-2d" x="417.822266"/>
       <use xlink:href="#DejaVuSans-31" x="453.90625"/>
       <use xlink:href="#DejaVuSans-35" x="517.529297"/>
      </g>
     </g>
    </g>
    <g id="xtick_6">
     <g id="line2d_11">
      <path d="M 668.228683 404.12 
L 668.228683 26.88 
" clip-path="url(#p3571621905)" style="fill: none; stroke-dasharray: 2.96,1.28; stroke-dashoffset: 0; stroke: #b0b0b0; stroke-width: 0.8"/>
     </g>
     <g id="line2d_12">
      <g>
       <use xlink:href="#m49bd91f312" x="668.228683" y="404.12" style="stroke: #000000; stroke-width: 0.8"/>
      </g>
     </g>
     <g id="text_6">
      <!-- 2024-07-22 -->
      <g transform="translate(639.170871 418.718437) scale(0.1 -0.1)">
       <use xlink:href="#DejaVuSans-32"/>
       <use xlink:href="#DejaVuSans-30" x="63.623047"/>
       <use xlink:href="#DejaVuSans-32" x="127.246094"/>
       <use xlink:href="#DejaVuSans-34" x="190.869141"/>
       <use xlink:href="#DejaVuSans-2d" x="254.492188"/>
       <use xlink:href="#DejaVuSans-30" x="290.576172"/>
       <use xlink:href="#DejaVuSans-37" x="354.199219"/>
       <use xlink:href="#DejaVuSans-2d" x="417.822266"/>
       <use xlink:href="#DejaVuSans-32" x="453.90625"/>
       <use xlink:href="#DejaVuSans-32" x="517.529297"/>
      </g>
     </g>
    </g>
    <g id="xtick_7">
     <g id="line2d_13">
      <path d="M 821.229596 404.12 
L 821.229596 26.88 
" clip-path="url(#p3571621905)" style="fill: none; stroke-dasharray: 2.96,1.28; stroke-dashoffset: 0; stroke: #b0b0b0; stroke-width: 0.8"/>
     </g>
     <g id="line2d_14">
      <g>
       <use xlink:href="#m49bd91f312" x="821.229596" y="404.12" style="stroke: #000000; stroke-width: 0.8"/>
      </g>
     </g>
     <g id="text_7">
      <!-- 2024-08-01 -->
      <g transform="translate(792.171784 418.718437) scale(0.1 -0.1)">
       <use xlink:href="#DejaVuSans-32"/>
       <use xlink:href="#DejaVuSans-30" x="63.623047"/>
       <use xlink:href="#DejaVuSans-32" x="127.246094"/>
       <use xlink:href="#DejaVuSans-34" x="190.869141"/>
       <use xlink:href="#DejaVuSans-2d" x="254.492188"/>
       <use xlink:href="#DejaVuSans-30" x="290.576172"/>
       <use xlink:href="#DejaVuSans-38" x="354.199219"/>
       <use xlink:href="#DejaVuSans-2d" x="417.822266"/>
       <use xlink:href="#DejaVuSans-30" x="453.90625"/>
       <use xlink:href="#DejaVuSans-31" x="517.529297"/>
      </g>
     </g>
    </g>
   </g>
   <g id="matplotlib.axis_2">
    <g id="ytick_1">
     <g id="line2d_15">
      <path d="M 50.87 389.394076 
L 841.88472 389.394076 
" clip-path="url(#p3571621905)" style="fill: none; stroke-dasharray: 2.96,1.28; stroke-dashoffset: 0; stroke: #b0b0b0; stroke-width: 0.8"/>
     </g>
     <g id="line2d_16">
      <defs>
       <path id="mdc2a8d4bd4" d="M 0 0 
L -3.5 0 
" style="stroke: #000000; stroke-width: 0.8"/>
      </defs>
      <g>
       <use xlink:href="#mdc2a8d4bd4" x="50.87" y="389.394076" style="stroke: #000000; stroke-width: 0.8"/>
      </g>
     </g>
     <g id="text_8">
      <!-- 0 -->
      <g transform="translate(37.5075 393.193294) scale(0.1 -0.1)">
       <use xlink:href="#DejaVuSans-30"/>
      </g>
     </g>
    </g>
    <g id="ytick_2">
     <g id="line2d_17">
      <path d="M 50.87 326.37914 
L 841.88472 326.37914 
" clip-path="url(#p3571621905)" style="fill: none; stroke-dasharray: 2.96,1.28; stroke-dashoffset: 0; stroke: #b0b0b0; stroke-width: 0.8"/>
     </g>
     <g id="line2d_18">
      <g>
       <use xlink:href="#mdc2a8d4bd4" x="50.87" y="326.37914" style="stroke: #000000; stroke-width: 0.8"/>
      </g>
     </g>
     <g id="text_9">
      <!-- 50 -->
      <g transform="translate(31.145 330.178359) scale(0.1 -0.1)">
       <use xlink:href="#DejaVuSans-35"/>
       <use xlink:href="#DejaVuSans-30" x="63.623047"/>
      </g>
     </g>
    </g>
    <g id="ytick_3">
     <g id="line2d_19">
      <path d="M 50.87 263.364204 
L 841.88472 263.364204 
" clip-path="url(#p3571621905)" style="fill: none; stroke-dasharray: 2.96,1.28; stroke-dashoffset: 0; stroke: #b0b0b0; stroke-width: 0.8"/>
     </g>
     <g id="line2d_20">
      <g>
       <use xlink:href="#mdc2a8d4bd4" x="50.87" y="263.364204" style="stroke: #000000; stroke-width: 0.8"/>
      </g>
     </g>
     <g id="text_10">
      <!-- 100 -->
      <g transform="translate(24.7825 267.163423) scale(0.1 -0.1)">
       <use xlink:href="#DejaVuSans-31"/>
       <use xlink:href="#DejaVuSans-30" x="63.623047"/>
       <use xlink:href="#DejaVuSans-30" x="127.246094"/>
      </g>
     </g>
    </g>
    <g id="ytick_4">
     <g id="line2d_21">
      <path d="M 50.87 200.349268 
L 841.88472 200.349268 
" clip-path="url(#p3571621905)" style="fill: none; stroke-dasharray: 2.96,1.28; stroke-dashoffset: 0; stroke: #b0b0b0; stroke-width: 0.8"/>
     </g>
     <g id="line2d_22">
      <g>
       <use xlink:href="#mdc2a8d4bd4" x="50.87" y="200.349268" style="stroke: #000000; stroke-width: 0.8"/>
      </g>
     </g>
     <g id="text_11">
      <!-- 150 -->
      <g transform="translate(24.7825 204.148487) scale(0.1 -0.1)">
       <use xlink:href="#DejaVuSans-31"/>
       <use xlink:href="#DejaVuSans-35" x="63.623047"/>
       <use xlink:href="#DejaVuSans-30" x="127.246094"/>
      </g>
     </g>
    </g>
    <g id="ytick_5">
     <g id="line2d_23">
      <path d="M 50.87 137.334332 
L 841.88472 137.334332 
" clip-path="url(#p3571621905)" style="fill: none; stroke-dasharray: 2.96,1.28; stroke-dashoffset: 0; stroke: #b0b0b0; stroke-width: 0.8"/>
     </g>
     <g id="line2d_24">
      <g>
       <use xlink:href="#mdc2a8d4bd4" x="50.87" y="137.334332" style="stroke: #000000; stroke-width: 0.8"/>
      </g>
     </g>
     <g id="text_12">
      <!-- 200 -->
      <g transform="translate(24.7825 141.133551) scale(0.1 -0.1)">
       <use xlink:href="#DejaVuSans-32"/>
       <use xlink:href="#DejaVuSans-30" x="63.623047"/>
       <use xlink:href="#DejaVuSans-30" x="127.246094"/>
      </g>
     </g>
    </g>
    <g id="ytick_6">
     <g id="line2d_25">
      <path d="M 50.87 74.319397 
L 841.88472 74.319397 
" clip-path="url(#p3571621905)" style="fill: none; stroke-dasharray: 2.96,1.28; stroke-dashoffset: 0; stroke: #b0b0b0; stroke-width: 0.8"/>
     </g>
     <g id="line2d_26">
      <g>
       <use xlink:href="#mdc2a8d4bd4" x="50.87" y="74.319397" style="stroke: #000000; stroke-width: 0.8"/>
      </g>
     </g>
     <g id="text_13">
      <!-- 250 -->
      <g transform="translate(24.7825 78.118615) scale(0.1 -0.1)">
       <use xlink:href="#DejaVuSans-32"/>
       <use xlink:href="#DejaVuSans-35" x="63.623047"/>
       <use xlink:href="#DejaVuSans-30" x="127.246094"/>
      </g>
     </g>
    </g>
    <g id="text_14">
     <!-- Score -->
     <g transform="translate(18.702813 229.502344) rotate(-90) scale(0.1 -0.1)">
      <defs>
       <path id="DejaVuSans-53" d="M 3425 4513 
L 3425 3897 
Q 3066 4069 2747 4153 
Q 2428 4238 2131 4238 
Q 1616 4238 1336 4038 
Q 1056 3838 1056 3469 
Q 1056 3159 1242 3001 
Q 1428 2844 1947 2747 
L 2328 2669 
Q 3034 2534 3370 2195 
Q 3706 1856 3706 1288 
Q 3706 609 3251 259 
Q 2797 -91 1919 -91 
Q 1588 -91 1214 -16 
Q 841 59 441 206 
L 441 856 
Q 825 641 1194 531 
Q 1563 422 1919 422 
Q 2459 422 2753 634 
Q 3047 847 3047 1241 
Q 3047 1584 2836 1778 
Q 2625 1972 2144 2069 
L 1759 2144 
Q 1053 2284 737 2584 
Q 422 2884 422 3419 
Q 422 4038 858 4394 
Q 1294 4750 2059 4750 
Q 2388 4750 2728 4690 
Q 3069 4631 3425 4513 
z
" transform="scale(0.015625)"/>
       <path id="DejaVuSans-63" d="M 3122 3366 
L 3122 2828 
Q 2878 2963 2633 3030 
Q 2388 3097 2138 3097 
Q 1578 3097 1268 2742 
Q 959 2388 959 1747 
Q 959 1106 1268 751 
Q 1578 397 2138 397 
Q 2388 397 2633 464 
Q 2878 531 3122 666 
L 3122 134 
Q 2881 22 2623 -34 
Q 2366 -91 2075 -91 
Q 1284 -91 818 406 
Q 353 903 353 1747 
Q 353 2603 823 3093 
Q 1294 3584 2113 3584 
Q 2378 3584 2631 3529 
Q 2884 3475 3122 3366 
z
" transform="scale(0.015625)"/>
       <path id="DejaVuSans-6f" d="M 1959 3097 
Q 1497 3097 1228 2736 
Q 959 2375 959 1747 
Q 959 1119 1226 758 
Q 1494 397 1959 397 
Q 2419 397 2687 759 
Q 2956 1122 2956 1747 
Q 2956 2369 2687 2733 
Q 2419 3097 1959 3097 
z
M 1959 3584 
Q 2709 3584 3137 3096 
Q 3566 2609 3566 1747 
Q 3566 888 3137 398 
Q 2709 -91 1959 -91 
Q 1206 -91 779 398 
Q 353 888 353 1747 
Q 353 2609 779 3096 
Q 1206 3584 1959 3584 
z
" transform="scale(0.015625)"/>
       <path id="DejaVuSans-72" d="M 2631 2963 
Q 2534 3019 2420 3045 
Q 2306 3072 2169 3072 
Q 1681 3072 1420 2755 
Q 1159 2438 1159 1844 
L 1159 0 
L 581 0 
L 581 3500 
L 1159 3500 
L 1159 2956 
Q 1341 3275 1631 3429 
Q 1922 3584 2338 3584 
Q 2397 3584 2469 3576 
Q 2541 3569 2628 3553 
L 2631 2963 
z
" transform="scale(0.015625)"/>
       <path id="DejaVuSans-65" d="M 3597 1894 
L 3597 1613 
L 953 1613 
Q 991 1019 1311 708 
Q 1631 397 2203 397 
Q 2534 397 2845 478 
Q 3156 559 3463 722 
L 3463 178 
Q 3153 47 2828 -22 
Q 2503 -91 2169 -91 
Q 1331 -91 842 396 
Q 353 884 353 1716 
Q 353 2575 817 3079 
Q 1281 3584 2069 3584 
Q 2775 3584 3186 3129 
Q 3597 2675 3597 1894 
z
M 3022 2063 
Q 3016 2534 2758 2815 
Q 2500 3097 2075 3097 
Q 1594 3097 1305 2825 
Q 1016 2553 972 2059 
L 3022 2063 
z
" transform="scale(0.015625)"/>
      </defs>
      <use xlink:href="#DejaVuSans-53"/>
      <use xlink:href="#DejaVuSans-63" x="63.476562"/>
      <use xlink:href="#DejaVuSans-6f" x="118.457031"/>
      <use xlink:href="#DejaVuSans-72" x="179.638672"/>
      <use xlink:href="#DejaVuSans-65" x="218.501953"/>
     </g>
    </g>
   </g>
   <g id="line2d_27">
    <path d="M 86.825215 383.203347 
L 102.125306 357.997373 
L 117.425397 346.654684 
L 132.725488 337.832593 
L 148.02558 325.229606 
L 163.325671 313.886918 
L 178.625762 313.886918 
L 193.925854 294.982437 
L 209.225945 260.954372 
L 224.526036 237.008696 
L 239.826127 209.282124 
L 255.126219 191.637942 
L 270.42631 161.390773 
L 316.326584 161.390773 
L 331.626675 161.390773 
L 346.926766 161.390773 
L 362.226858 161.390773 
L 377.526949 161.390773 
L 408.127132 161.390773 
L 423.427223 161.390773 
L 438.727314 161.390773 
L 454.027405 161.390773 
L 469.327497 161.390773 
L 484.627588 161.390773 
L 499.927679 161.390773 
L 515.227771 161.390773 
L 530.527862 161.390773 
L 545.827953 161.390773 
L 561.128044 123.581812 
L 576.428136 123.581812 
L 591.728227 123.581812 
L 607.028318 123.581812 
L 622.32841 123.581812 
L 637.628501 123.581812 
L 652.928592 123.581812 
L 668.228683 123.581812 
L 683.528775 123.581812 
L 698.828866 123.581812 
L 714.128957 123.581812 
L 729.429049 123.581812 
L 744.72914 123.581812 
L 760.029231 123.581812 
L 775.329322 123.581812 
L 790.629414 123.581812 
L 805.929505 123.581812 
" clip-path="url(#p3571621905)" style="fill: none; stroke: #1f77b4; stroke-width: 1.5; stroke-linecap: square"/>
    <defs>
     <path id="md70fad4594" d="M 0 3.5 
C 0.928211 3.5 1.81853 3.131218 2.474874 2.474874 
C 3.131218 1.81853 3.5 0.928211 3.5 0 
C 3.5 -0.928211 3.131218 -1.81853 2.474874 -2.474874 
C 1.81853 -3.131218 0.928211 -3.5 0 -3.5 
C -0.928211 -3.5 -1.81853 -3.131218 -2.474874 -2.474874 
C -3.131218 -1.81853 -3.5 -0.928211 -3.5 0 
C -3.5 0.928211 -3.131218 1.81853 -2.474874 2.474874 
C -1.81853 3.131218 -0.928211 3.5 0 3.5 
z
" style="stroke: #1f77b4"/>
    </defs>
    <g clip-path="url(#p3571621905)">
     <use xlink:href="#md70fad4594" x="86.825215" y="383.203347" style="fill: #1f77b4; stroke: #1f77b4"/>
     <use xlink:href="#md70fad4594" x="102.125306" y="357.997373" style="fill: #1f77b4; stroke: #1f77b4"/>
     <use xlink:href="#md70fad4594" x="117.425397" y="346.654684" style="fill: #1f77b4; stroke: #1f77b4"/>
     <use xlink:href="#md70fad4594" x="132.725488" y="337.832593" style="fill: #1f77b4; stroke: #1f77b4"/>
     <use xlink:href="#md70fad4594" x="148.02558" y="325.229606" style="fill: #1f77b4; stroke: #1f77b4"/>
     <use xlink:href="#md70fad4594" x="163.325671" y="313.886918" style="fill: #1f77b4; stroke: #1f77b4"/>
     <use xlink:href="#md70fad4594" x="178.625762" y="313.886918" style="fill: #1f77b4; stroke: #1f77b4"/>
     <use xlink:href="#md70fad4594" x="193.925854" y="294.982437" style="fill: #1f77b4; stroke: #1f77b4"/>
     <use xlink:href="#md70fad4594" x="209.225945" y="260.954372" style="fill: #1f77b4; stroke: #1f77b4"/>
     <use xlink:href="#md70fad4594" x="224.526036" y="237.008696" style="fill: #1f77b4; stroke: #1f77b4"/>
     <use xlink:href="#md70fad4594" x="239.826127" y="209.282124" style="fill: #1f77b4; stroke: #1f77b4"/>
     <use xlink:href="#md70fad4594" x="255.126219" y="191.637942" style="fill: #1f77b4; stroke: #1f77b4"/>
     <use xlink:href="#md70fad4594" x="270.42631" y="161.390773" style="fill: #1f77b4; stroke: #1f77b4"/>
     <use xlink:href="#md70fad4594" x="316.326584" y="161.390773" style="fill: #1f77b4; stroke: #1f77b4"/>
     <use xlink:href="#md70fad4594" x="331.626675" y="161.390773" style="fill: #1f77b4; stroke: #1f77b4"/>
     <use xlink:href="#md70fad4594" x="346.926766" y="161.390773" style="fill: #1f77b4; stroke: #1f77b4"/>
     <use xlink:href="#md70fad4594" x="362.226858" y="161.390773" style="fill: #1f77b4; stroke: #1f77b4"/>
     <use xlink:href="#md70fad4594" x="377.526949" y="161.390773" style="fill: #1f77b4; stroke: #1f77b4"/>
     <use xlink:href="#md70fad4594" x="408.127132" y="161.390773" style="fill: #1f77b4; stroke: #1f77b4"/>
     <use xlink:href="#md70fad4594" x="423.427223" y="161.390773" style="fill: #1f77b4; stroke: #1f77b4"/>
     <use xlink:href="#md70fad4594" x="438.727314" y="161.390773" style="fill: #1f77b4; stroke: #1f77b4"/>
     <use xlink:href="#md70fad4594" x="454.027405" y="161.390773" style="fill: #1f77b4; stroke: #1f77b4"/>
     <use xlink:href="#md70fad4594" x="469.327497" y="161.390773" style="fill: #1f77b4; stroke: #1f77b4"/>
     <use xlink:href="#md70fad4594" x="484.627588" y="161.390773" style="fill: #1f77b4; stroke: #1f77b4"/>
     <use xlink:href="#md70fad4594" x="499.927679" y="161.390773" style="fill: #1f77b4; stroke: #1f77b4"/>
     <use xlink:href="#md70fad4594" x="515.227771" y="161.390773" style="fill: #1f77b4; stroke: #1f77b4"/>
     <use xlink:href="#md70fad4594" x="530.527862" y="161.390773" style="fill: #1f77b4; stroke: #1f77b4"/>
     <use xlink:href="#md70fad4594" x="545.827953" y="161.390773" style="fill: #1f77b4; stroke: #1f77b4"/>
     <use xlink:href="#md70fad4594" x="561.128044" y="123.581812" style="fill: #1f77b4; stroke: #1f77b4"/>
     <use xlink:href="#md70fad4594" x="576.428136" y="123.581812" style="fill: #1f77b4; stroke: #1f77b4"/>
     <use xlink:href="#md70fad4594" x="591.728227" y="123.581812" style="fill: #1f77b4; stroke: #1f77b4"/>
     <use xlink:href="#md70fad4594" x="607.028318" y="123.581812" style="fill: #1f77b4; stroke: #1f77b4"/>
     <use xlink:href="#md70fad4594" x="622.32841" y="123.581812" style="fill: #1f77b4; stroke: #1f77b4"/>
     <use xlink:href="#md70fad4594" x="637.628501" y="123.581812" style="fill: #1f77b4; stroke: #1f77b4"/>
     <use xlink:href="#md70fad4594" x="652.928592" y="123.581812" style="fill: #1f77b4; stroke: #1f77b4"/>
     <use xlink:href="#md70fad4594" x="668.228683" y="123.581812" style="fill: #1f77b4; stroke: #1f77b4"/>
     <use xlink:href="#md70fad4594" x="683.528775" y="123.581812" style="fill: #1f77b4; stroke: #1f77b4"/>
     <use xlink:href="#md70fad4594" x="698.828866" y="123.581812" style="fill: #1f77b4; stroke: #1f77b4"/>
     <use xlink:href="#md70fad4594" x="714.128957" y="123.581812" style="fill: #1f77b4; stroke: #1f77b4"/>
     <use xlink:href="#md70fad4594" x="729.429049" y="123.581812" style="fill: #1f77b4; stroke: #1f77b4"/>
     <use xlink:href="#md70fad4594" x="744.72914" y="123.581812" style="fill: #1f77b4; stroke: #1f77b4"/>
     <use xlink:href="#md70fad4594" x="760.029231" y="123.581812" style="fill: #1f77b4; stroke: #1f77b4"/>
     <use xlink:href="#md70fad4594" x="775.329322" y="123.581812" style="fill: #1f77b4; stroke: #1f77b4"/>
     <use xlink:href="#md70fad4594" x="790.629414" y="123.581812" style="fill: #1f77b4; stroke: #1f77b4"/>
     <use xlink:href="#md70fad4594" x="805.929505" y="123.581812" style="fill: #1f77b4; stroke: #1f77b4"/>
    </g>
   </g>
   <g id="line2d_28">
    <path d="M 86.825215 386.972727 
L 102.125306 349.163766 
L 117.425397 321.437194 
L 132.725488 306.313609 
L 148.02558 287.409129 
L 163.325671 269.764947 
L 178.625762 245.819271 
L 193.925854 240.778076 
L 209.225945 206.750011 
L 224.526036 197.92792 
L 239.826127 176.502842 
L 255.126219 162.639556 
L 270.42631 126.090893 
L 316.326584 126.090893 
L 331.626675 126.090893 
L 346.926766 126.090893 
L 362.226858 126.090893 
L 377.526949 126.090893 
L 408.127132 126.090893 
L 423.427223 126.090893 
L 438.727314 126.090893 
L 454.027405 126.090893 
L 469.327497 126.090893 
L 484.627588 126.090893 
L 499.927679 126.090893 
L 515.227771 126.090893 
L 530.527862 126.090893 
L 545.827953 126.090893 
L 561.128044 119.7894 
L 576.428136 119.7894 
L 591.728227 119.7894 
L 607.028318 119.7894 
L 622.32841 119.7894 
L 637.628501 119.7894 
L 652.928592 119.7894 
L 668.228683 119.7894 
L 683.528775 119.7894 
L 698.828866 119.7894 
L 714.128957 119.7894 
L 729.429049 119.7894 
L 744.72914 119.7894 
L 760.029231 119.7894 
L 775.329322 119.7894 
L 790.629414 119.7894 
L 805.929505 119.7894 
" clip-path="url(#p3571621905)" style="fill: none; stroke: #ff7f0e; stroke-width: 1.5; stroke-linecap: square"/>
    <defs>
     <path id="meafbd32e3c" d="M 0 3.5 
C 0.928211 3.5 1.81853 3.131218 2.474874 2.474874 
C 3.131218 1.81853 3.5 0.928211 3.5 0 
C 3.5 -0.928211 3.131218 -1.81853 2.474874 -2.474874 
C 1.81853 -3.131218 0.928211 -3.5 0 -3.5 
C -0.928211 -3.5 -1.81853 -3.131218 -2.474874 -2.474874 
C -3.131218 -1.81853 -3.5 -0.928211 -3.5 0 
C -3.5 0.928211 -3.131218 1.81853 -2.474874 2.474874 
C -1.81853 3.131218 -0.928211 3.5 0 3.5 
z
" style="stroke: #ff7f0e"/>
    </defs>
    <g clip-path="url(#p3571621905)">
     <use xlink:href="#meafbd32e3c" x="86.825215" y="386.972727" style="fill: #ff7f0e; stroke: #ff7f0e"/>
     <use xlink:href="#meafbd32e3c" x="102.125306" y="349.163766" style="fill: #ff7f0e; stroke: #ff7f0e"/>
     <use xlink:href="#meafbd32e3c" x="117.425397" y="321.437194" style="fill: #ff7f0e; stroke: #ff7f0e"/>
     <use xlink:href="#meafbd32e3c" x="132.725488" y="306.313609" style="fill: #ff7f0e; stroke: #ff7f0e"/>
     <use xlink:href="#meafbd32e3c" x="148.02558" y="287.409129" style="fill: #ff7f0e; stroke: #ff7f0e"/>
     <use xlink:href="#meafbd32e3c" x="163.325671" y="269.764947" style="fill: #ff7f0e; stroke: #ff7f0e"/>
     <use xlink:href="#meafbd32e3c" x="178.625762" y="245.819271" style="fill: #ff7f0e; stroke: #ff7f0e"/>
     <use xlink:href="#meafbd32e3c" x="193.925854" y="240.778076" style="fill: #ff7f0e; stroke: #ff7f0e"/>
     <use xlink:href="#meafbd32e3c" x="209.225945" y="206.750011" style="fill: #ff7f0e; stroke: #ff7f0e"/>
     <use xlink:href="#meafbd32e3c" x="224.526036" y="197.92792" style="fill: #ff7f0e; stroke: #ff7f0e"/>
     <use xlink:href="#meafbd32e3c" x="239.826127" y="176.502842" style="fill: #ff7f0e; stroke: #ff7f0e"/>
     <use xlink:href="#meafbd32e3c" x="255.126219" y="162.639556" style="fill: #ff7f0e; stroke: #ff7f0e"/>
     <use xlink:href="#meafbd32e3c" x="270.42631" y="126.090893" style="fill: #ff7f0e; stroke: #ff7f0e"/>
     <use xlink:href="#meafbd32e3c" x="316.326584" y="126.090893" style="fill: #ff7f0e; stroke: #ff7f0e"/>
     <use xlink:href="#meafbd32e3c" x="331.626675" y="126.090893" style="fill: #ff7f0e; stroke: #ff7f0e"/>
     <use xlink:href="#meafbd32e3c" x="346.926766" y="126.090893" style="fill: #ff7f0e; stroke: #ff7f0e"/>
     <use xlink:href="#meafbd32e3c" x="362.226858" y="126.090893" style="fill: #ff7f0e; stroke: #ff7f0e"/>
     <use xlink:href="#meafbd32e3c" x="377.526949" y="126.090893" style="fill: #ff7f0e; stroke: #ff7f0e"/>
     <use xlink:href="#meafbd32e3c" x="408.127132" y="126.090893" style="fill: #ff7f0e; stroke: #ff7f0e"/>
     <use xlink:href="#meafbd32e3c" x="423.427223" y="126.090893" style="fill: #ff7f0e; stroke: #ff7f0e"/>
     <use xlink:href="#meafbd32e3c" x="438.727314" y="126.090893" style="fill: #ff7f0e; stroke: #ff7f0e"/>
     <use xlink:href="#meafbd32e3c" x="454.027405" y="126.090893" style="fill: #ff7f0e; stroke: #ff7f0e"/>
     <use xlink:href="#meafbd32e3c" x="469.327497" y="126.090893" style="fill: #ff7f0e; stroke: #ff7f0e"/>
     <use xlink:href="#meafbd32e3c" x="484.627588" y="126.090893" style="fill: #ff7f0e; stroke: #ff7f0e"/>
     <use xlink:href="#meafbd32e3c" x="499.927679" y="126.090893" style="fill: #ff7f0e; stroke: #ff7f0e"/>
     <use xlink:href="#meafbd32e3c" x="515.227771" y="126.090893" style="fill: #ff7f0e; stroke: #ff7f0e"/>
     <use xlink:href="#meafbd32e3c" x="530.527862" y="126.090893" style="fill: #ff7f0e; stroke: #ff7f0e"/>
     <use xlink:href="#meafbd32e3c" x="545.827953" y="126.090893" style="fill: #ff7f0e; stroke: #ff7f0e"/>
     <use xlink:href="#meafbd32e3c" x="561.128044" y="119.7894" style="fill: #ff7f0e; stroke: #ff7f0e"/>
     <use xlink:href="#meafbd32e3c" x="576.428136" y="119.7894" style="fill: #ff7f0e; stroke: #ff7f0e"/>
     <use xlink:href="#meafbd32e3c" x="591.728227" y="119.7894" style="fill: #ff7f0e; stroke: #ff7f0e"/>
     <use xlink:href="#meafbd32e3c" x="607.028318" y="119.7894" style="fill: #ff7f0e; stroke: #ff7f0e"/>
     <use xlink:href="#meafbd32e3c" x="622.32841" y="119.7894" style="fill: #ff7f0e; stroke: #ff7f0e"/>
     <use xlink:href="#meafbd32e3c" x="637.628501" y="119.7894" style="fill: #ff7f0e; stroke: #ff7f0e"/>
     <use xlink:href="#meafbd32e3c" x="652.928592" y="119.7894" style="fill: #ff7f0e; stroke: #ff7f0e"/>
     <use xlink:href="#meafbd32e3c" x="668.228683" y="119.7894" style="fill: #ff7f0e; stroke: #ff7f0e"/>
     <use xlink:href="#meafbd32e3c" x="683.528775" y="119.7894" style="fill: #ff7f0e; stroke: #ff7f0e"/>
     <use xlink:href="#meafbd32e3c" x="698.828866" y="119.7894" style="fill: #ff7f0e; stroke: #ff7f0e"/>
     <use xlink:href="#meafbd32e3c" x="714.128957" y="119.7894" style="fill: #ff7f0e; stroke: #ff7f0e"/>
     <use xlink:href="#meafbd32e3c" x="729.429049" y="119.7894" style="fill: #ff7f0e; stroke: #ff7f0e"/>
     <use xlink:href="#meafbd32e3c" x="744.72914" y="119.7894" style="fill: #ff7f0e; stroke: #ff7f0e"/>
     <use xlink:href="#meafbd32e3c" x="760.029231" y="119.7894" style="fill: #ff7f0e; stroke: #ff7f0e"/>
     <use xlink:href="#meafbd32e3c" x="775.329322" y="119.7894" style="fill: #ff7f0e; stroke: #ff7f0e"/>
     <use xlink:href="#meafbd32e3c" x="790.629414" y="119.7894" style="fill: #ff7f0e; stroke: #ff7f0e"/>
     <use xlink:href="#meafbd32e3c" x="805.929505" y="119.7894" style="fill: #ff7f0e; stroke: #ff7f0e"/>
    </g>
   </g>
   <g id="line2d_29">
    <path d="M 86.825215 376.739933 
L 102.125306 351.533958 
L 117.425397 332.629478 
L 132.725488 320.02649 
L 148.02558 288.519023 
L 163.325671 270.874841 
L 178.625762 259.532152 
L 193.925854 225.504087 
L 209.225945 193.996619 
L 224.526036 166.270047 
L 239.826127 144.844969 
L 255.126219 137.283177 
L 270.42631 80.569734 
L 316.326584 80.569734 
L 331.626675 80.569734 
L 346.926766 80.569734 
L 362.226858 80.569734 
L 377.526949 80.569734 
L 408.127132 80.569734 
L 423.427223 80.569734 
L 438.727314 80.569734 
L 454.027405 80.569734 
L 469.327497 80.569734 
L 484.627588 80.569734 
L 499.927679 80.569734 
L 515.227771 80.569734 
L 530.527862 80.569734 
L 545.827953 80.569734 
L 561.128044 80.569734 
L 576.428136 80.569734 
L 591.728227 80.569734 
L 607.028318 80.569734 
L 622.32841 80.569734 
L 637.628501 80.569734 
L 652.928592 80.569734 
L 668.228683 80.569734 
L 683.528775 80.569734 
L 698.828866 80.569734 
L 714.128957 80.569734 
L 729.429049 80.569734 
L 744.72914 80.569734 
L 760.029231 80.569734 
L 775.329322 80.569734 
L 790.629414 80.569734 
L 805.929505 80.569734 
" clip-path="url(#p3571621905)" style="fill: none; stroke: #2ca02c; stroke-width: 1.5; stroke-linecap: square"/>
    <defs>
     <path id="m9795ecba6a" d="M 0 3.5 
C 0.928211 3.5 1.81853 3.131218 2.474874 2.474874 
C 3.131218 1.81853 3.5 0.928211 3.5 0 
C 3.5 -0.928211 3.131218 -1.81853 2.474874 -2.474874 
C 1.81853 -3.131218 0.928211 -3.5 0 -3.5 
C -0.928211 -3.5 -1.81853 -3.131218 -2.474874 -2.474874 
C -3.131218 -1.81853 -3.5 -0.928211 -3.5 0 
C -3.5 0.928211 -3.131218 1.81853 -2.474874 2.474874 
C -1.81853 3.131218 -0.928211 3.5 0 3.5 
z
" style="stroke: #2ca02c"/>
    </defs>
    <g clip-path="url(#p3571621905)">
     <use xlink:href="#m9795ecba6a" x="86.825215" y="376.739933" style="fill: #2ca02c; stroke: #2ca02c"/>
     <use xlink:href="#m9795ecba6a" x="102.125306" y="351.533958" style="fill: #2ca02c; stroke: #2ca02c"/>
     <use xlink:href="#m9795ecba6a" x="117.425397" y="332.629478" style="fill: #2ca02c; stroke: #2ca02c"/>
     <use xlink:href="#m9795ecba6a" x="132.725488" y="320.02649" style="fill: #2ca02c; stroke: #2ca02c"/>
     <use xlink:href="#m9795ecba6a" x="148.02558" y="288.519023" style="fill: #2ca02c; stroke: #2ca02c"/>
     <use xlink:href="#m9795ecba6a" x="163.325671" y="270.874841" style="fill: #2ca02c; stroke: #2ca02c"/>
     <use xlink:href="#m9795ecba6a" x="178.625762" y="259.532152" style="fill: #2ca02c; stroke: #2ca02c"/>
     <use xlink:href="#m9795ecba6a" x="193.925854" y="225.504087" style="fill: #2ca02c; stroke: #2ca02c"/>
     <use xlink:href="#m9795ecba6a" x="209.225945" y="193.996619" style="fill: #2ca02c; stroke: #2ca02c"/>
     <use xlink:href="#m9795ecba6a" x="224.526036" y="166.270047" style="fill: #2ca02c; stroke: #2ca02c"/>
     <use xlink:href="#m9795ecba6a" x="239.826127" y="144.844969" style="fill: #2ca02c; stroke: #2ca02c"/>
     <use xlink:href="#m9795ecba6a" x="255.126219" y="137.283177" style="fill: #2ca02c; stroke: #2ca02c"/>
     <use xlink:href="#m9795ecba6a" x="270.42631" y="80.569734" style="fill: #2ca02c; stroke: #2ca02c"/>
     <use xlink:href="#m9795ecba6a" x="316.326584" y="80.569734" style="fill: #2ca02c; stroke: #2ca02c"/>
     <use xlink:href="#m9795ecba6a" x="331.626675" y="80.569734" style="fill: #2ca02c; stroke: #2ca02c"/>
     <use xlink:href="#m9795ecba6a" x="346.926766" y="80.569734" style="fill: #2ca02c; stroke: #2ca02c"/>
     <use xlink:href="#m9795ecba6a" x="362.226858" y="80.569734" style="fill: #2ca02c; stroke: #2ca02c"/>
     <use xlink:href="#m9795ecba6a" x="377.526949" y="80.569734" style="fill: #2ca02c; stroke: #2ca02c"/>
     <use xlink:href="#m9795ecba6a" x="408.127132" y="80.569734" style="fill: #2ca02c; stroke: #2ca02c"/>
     <use xlink:href="#m9795ecba6a" x="423.427223" y="80.569734" style="fill: #2ca02c; stroke: #2ca02c"/>
     <use xlink:href="#m9795ecba6a" x="438.727314" y="80.569734" style="fill: #2ca02c; stroke: #2ca02c"/>
     <use xlink:href="#m9795ecba6a" x="454.027405" y="80.569734" style="fill: #2ca02c; stroke: #2ca02c"/>
     <use xlink:href="#m9795ecba6a" x="469.327497" y="80.569734" style="fill: #2ca02c; stroke: #2ca02c"/>
     <use xlink:href="#m9795ecba6a" x="484.627588" y="80.569734" style="fill: #2ca02c; stroke: #2ca02c"/>
     <use xlink:href="#m9795ecba6a" x="499.927679" y="80.569734" style="fill: #2ca02c; stroke: #2ca02c"/>
     <use xlink:href="#m9795ecba6a" x="515.227771" y="80.569734" style="fill: #2ca02c; stroke: #2ca02c"/>
     <use xlink:href="#m9795ecba6a" x="530.527862" y="80.569734" style="fill: #2ca02c; stroke: #2ca02c"/>
     <use xlink:href="#m9795ecba6a" x="545.827953" y="80.569734" style="fill: #2ca02c; stroke: #2ca02c"/>
     <use xlink:href="#m9795ecba6a" x="561.128044" y="80.569734" style="fill: #2ca02c; stroke: #2ca02c"/>
     <use xlink:href="#m9795ecba6a" x="576.428136" y="80.569734" style="fill: #2ca02c; stroke: #2ca02c"/>
     <use xlink:href="#m9795ecba6a" x="591.728227" y="80.569734" style="fill: #2ca02c; stroke: #2ca02c"/>
     <use xlink:href="#m9795ecba6a" x="607.028318" y="80.569734" style="fill: #2ca02c; stroke: #2ca02c"/>
     <use xlink:href="#m9795ecba6a" x="622.32841" y="80.569734" style="fill: #2ca02c; stroke: #2ca02c"/>
     <use xlink:href="#m9795ecba6a" x="637.628501" y="80.569734" style="fill: #2ca02c; stroke: #2ca02c"/>
     <use xlink:href="#m9795ecba6a" x="652.928592" y="80.569734" style="fill: #2ca02c; stroke: #2ca02c"/>
     <use xlink:href="#m9795ecba6a" x="668.228683" y="80.569734" style="fill: #2ca02c; stroke: #2ca02c"/>
     <use xlink:href="#m9795ecba6a" x="683.528775" y="80.569734" style="fill: #2ca02c; stroke: #2ca02c"/>
     <use xlink:href="#m9795ecba6a" x="698.828866" y="80.569734" style="fill: #2ca02c; stroke: #2ca02c"/>
     <use xlink:href="#m9795ecba6a" x="714.128957" y="80.569734" style="fill: #2ca02c; stroke: #2ca02c"/>
     <use xlink:href="#m9795ecba6a" x="729.429049" y="80.569734" style="fill: #2ca02c; stroke: #2ca02c"/>
     <use xlink:href="#m9795ecba6a" x="744.72914" y="80.569734" style="fill: #2ca02c; stroke: #2ca02c"/>
     <use xlink:href="#m9795ecba6a" x="760.029231" y="80.569734" style="fill: #2ca02c; stroke: #2ca02c"/>
     <use xlink:href="#m9795ecba6a" x="775.329322" y="80.569734" style="fill: #2ca02c; stroke: #2ca02c"/>
     <use xlink:href="#m9795ecba6a" x="790.629414" y="80.569734" style="fill: #2ca02c; stroke: #2ca02c"/>
     <use xlink:href="#m9795ecba6a" x="805.929505" y="80.569734" style="fill: #2ca02c; stroke: #2ca02c"/>
    </g>
   </g>
   <g id="line2d_30">
    <path d="M 86.825215 376.746134 
L 102.125306 355.321055 
L 117.425397 317.512094 
L 132.725488 308.690003 
L 148.02558 289.785522 
L 163.325671 270.881042 
L 178.625762 243.15447 
L 193.925854 231.811781 
L 209.225945 200.304313 
L 224.526036 188.961625 
L 239.826127 154.93356 
L 255.126219 134.76878 
L 270.42631 75.534741 
L 316.326584 75.534741 
L 331.626675 75.534741 
L 346.926766 75.534741 
L 362.226858 75.534741 
L 377.526949 75.534741 
L 408.127132 75.534741 
L 423.427223 75.534741 
L 438.727314 75.534741 
L 454.027405 75.534741 
L 469.327497 75.534741 
L 484.627588 56.63026 
L 499.927679 56.63026 
L 515.227771 56.63026 
L 530.527862 56.63026 
L 545.827953 56.63026 
L 561.128044 44.027273 
L 576.428136 44.027273 
L 591.728227 44.027273 
L 607.028318 44.027273 
L 622.32841 44.027273 
L 637.628501 44.027273 
L 652.928592 44.027273 
L 668.228683 44.027273 
L 683.528775 44.027273 
L 698.828866 44.027273 
L 714.128957 44.027273 
L 729.429049 44.027273 
L 744.72914 44.027273 
L 760.029231 44.027273 
L 775.329322 44.027273 
L 790.629414 44.027273 
L 805.929505 44.027273 
" clip-path="url(#p3571621905)" style="fill: none; stroke: #d62728; stroke-width: 1.5; stroke-linecap: square"/>
    <defs>
     <path id="me78e6cc9c4" d="M 0 3.5 
C 0.928211 3.5 1.81853 3.131218 2.474874 2.474874 
C 3.131218 1.81853 3.5 0.928211 3.5 0 
C 3.5 -0.928211 3.131218 -1.81853 2.474874 -2.474874 
C 1.81853 -3.131218 0.928211 -3.5 0 -3.5 
C -0.928211 -3.5 -1.81853 -3.131218 -2.474874 -2.474874 
C -3.131218 -1.81853 -3.5 -0.928211 -3.5 0 
C -3.5 0.928211 -3.131218 1.81853 -2.474874 2.474874 
C -1.81853 3.131218 -0.928211 3.5 0 3.5 
z
" style="stroke: #d62728"/>
    </defs>
    <g clip-path="url(#p3571621905)">
     <use xlink:href="#me78e6cc9c4" x="86.825215" y="376.746134" style="fill: #d62728; stroke: #d62728"/>
     <use xlink:href="#me78e6cc9c4" x="102.125306" y="355.321055" style="fill: #d62728; stroke: #d62728"/>
     <use xlink:href="#me78e6cc9c4" x="117.425397" y="317.512094" style="fill: #d62728; stroke: #d62728"/>
     <use xlink:href="#me78e6cc9c4" x="132.725488" y="308.690003" style="fill: #d62728; stroke: #d62728"/>
     <use xlink:href="#me78e6cc9c4" x="148.02558" y="289.785522" style="fill: #d62728; stroke: #d62728"/>
     <use xlink:href="#me78e6cc9c4" x="163.325671" y="270.881042" style="fill: #d62728; stroke: #d62728"/>
     <use xlink:href="#me78e6cc9c4" x="178.625762" y="243.15447" style="fill: #d62728; stroke: #d62728"/>
     <use xlink:href="#me78e6cc9c4" x="193.925854" y="231.811781" style="fill: #d62728; stroke: #d62728"/>
     <use xlink:href="#me78e6cc9c4" x="209.225945" y="200.304313" style="fill: #d62728; stroke: #d62728"/>
     <use xlink:href="#me78e6cc9c4" x="224.526036" y="188.961625" style="fill: #d62728; stroke: #d62728"/>
     <use xlink:href="#me78e6cc9c4" x="239.826127" y="154.93356" style="fill: #d62728; stroke: #d62728"/>
     <use xlink:href="#me78e6cc9c4" x="255.126219" y="134.76878" style="fill: #d62728; stroke: #d62728"/>
     <use xlink:href="#me78e6cc9c4" x="270.42631" y="75.534741" style="fill: #d62728; stroke: #d62728"/>
     <use xlink:href="#me78e6cc9c4" x="316.326584" y="75.534741" style="fill: #d62728; stroke: #d62728"/>
     <use xlink:href="#me78e6cc9c4" x="331.626675" y="75.534741" style="fill: #d62728; stroke: #d62728"/>
     <use xlink:href="#me78e6cc9c4" x="346.926766" y="75.534741" style="fill: #d62728; stroke: #d62728"/>
     <use xlink:href="#me78e6cc9c4" x="362.226858" y="75.534741" style="fill: #d62728; stroke: #d62728"/>
     <use xlink:href="#me78e6cc9c4" x="377.526949" y="75.534741" style="fill: #d62728; stroke: #d62728"/>
     <use xlink:href="#me78e6cc9c4" x="408.127132" y="75.534741" style="fill: #d62728; stroke: #d62728"/>
     <use xlink:href="#me78e6cc9c4" x="423.427223" y="75.534741" style="fill: #d62728; stroke: #d62728"/>
     <use xlink:href="#me78e6cc9c4" x="438.727314" y="75.534741" style="fill: #d62728; stroke: #d62728"/>
     <use xlink:href="#me78e6cc9c4" x="454.027405" y="75.534741" style="fill: #d62728; stroke: #d62728"/>
     <use xlink:href="#me78e6cc9c4" x="469.327497" y="75.534741" style="fill: #d62728; stroke: #d62728"/>
     <use xlink:href="#me78e6cc9c4" x="484.627588" y="56.63026" style="fill: #d62728; stroke: #d62728"/>
     <use xlink:href="#me78e6cc9c4" x="499.927679" y="56.63026" style="fill: #d62728; stroke: #d62728"/>
     <use xlink:href="#me78e6cc9c4" x="515.227771" y="56.63026" style="fill: #d62728; stroke: #d62728"/>
     <use xlink:href="#me78e6cc9c4" x="530.527862" y="56.63026" style="fill: #d62728; stroke: #d62728"/>
     <use xlink:href="#me78e6cc9c4" x="545.827953" y="56.63026" style="fill: #d62728; stroke: #d62728"/>
     <use xlink:href="#me78e6cc9c4" x="561.128044" y="44.027273" style="fill: #d62728; stroke: #d62728"/>
     <use xlink:href="#me78e6cc9c4" x="576.428136" y="44.027273" style="fill: #d62728; stroke: #d62728"/>
     <use xlink:href="#me78e6cc9c4" x="591.728227" y="44.027273" style="fill: #d62728; stroke: #d62728"/>
     <use xlink:href="#me78e6cc9c4" x="607.028318" y="44.027273" style="fill: #d62728; stroke: #d62728"/>
     <use xlink:href="#me78e6cc9c4" x="622.32841" y="44.027273" style="fill: #d62728; stroke: #d62728"/>
     <use xlink:href="#me78e6cc9c4" x="637.628501" y="44.027273" style="fill: #d62728; stroke: #d62728"/>
     <use xlink:href="#me78e6cc9c4" x="652.928592" y="44.027273" style="fill: #d62728; stroke: #d62728"/>
     <use xlink:href="#me78e6cc9c4" x="668.228683" y="44.027273" style="fill: #d62728; stroke: #d62728"/>
     <use xlink:href="#me78e6cc9c4" x="683.528775" y="44.027273" style="fill: #d62728; stroke: #d62728"/>
     <use xlink:href="#me78e6cc9c4" x="698.828866" y="44.027273" style="fill: #d62728; stroke: #d62728"/>
     <use xlink:href="#me78e6cc9c4" x="714.128957" y="44.027273" style="fill: #d62728; stroke: #d62728"/>
     <use xlink:href="#me78e6cc9c4" x="729.429049" y="44.027273" style="fill: #d62728; stroke: #d62728"/>
     <use xlink:href="#me78e6cc9c4" x="744.72914" y="44.027273" style="fill: #d62728; stroke: #d62728"/>
     <use xlink:href="#me78e6cc9c4" x="760.029231" y="44.027273" style="fill: #d62728; stroke: #d62728"/>
     <use xlink:href="#me78e6cc9c4" x="775.329322" y="44.027273" style="fill: #d62728; stroke: #d62728"/>
     <use xlink:href="#me78e6cc9c4" x="790.629414" y="44.027273" style="fill: #d62728; stroke: #d62728"/>
     <use xlink:href="#me78e6cc9c4" x="805.929505" y="44.027273" style="fill: #d62728; stroke: #d62728"/>
    </g>
   </g>
   <g id="line2d_31">
    <path d="M 86.825215 383.102587 
L 102.125306 349.074522 
L 117.425397 321.34795 
L 132.725488 306.224366 
L 148.02558 291.100781 
L 163.325671 275.977197 
L 178.625762 273.456599 
L 193.925854 252.031521 
L 209.225945 220.524053 
L 224.526036 196.578377 
L 239.826127 158.769416 
L 255.126219 143.645831 
L 270.42631 115.91926 
L 316.326584 115.91926 
L 331.626675 115.91926 
L 346.926766 115.91926 
L 362.226858 115.91926 
L 377.526949 115.91926 
L 408.127132 115.91926 
L 423.427223 115.91926 
L 438.727314 115.91926 
L 454.027405 115.91926 
L 469.327497 115.91926 
L 484.627588 97.014779 
L 499.927679 97.014779 
L 515.227771 97.014779 
L 530.527862 97.014779 
L 545.827953 97.014779 
L 561.128044 71.808805 
L 576.428136 71.808805 
L 591.728227 71.808805 
L 607.028318 71.808805 
L 622.32841 71.808805 
L 637.628501 71.808805 
L 652.928592 71.808805 
L 668.228683 71.808805 
L 683.528775 71.808805 
L 698.828866 71.808805 
L 714.128957 71.808805 
L 729.429049 71.808805 
L 744.72914 71.808805 
L 760.029231 71.808805 
L 775.329322 71.808805 
L 790.629414 71.808805 
L 805.929505 71.808805 
" clip-path="url(#p3571621905)" style="fill: none; stroke: #9467bd; stroke-width: 1.5; stroke-linecap: square"/>
    <defs>
     <path id="m836bcb6162" d="M 0 3.5 
C 0.928211 3.5 1.81853 3.131218 2.474874 2.474874 
C 3.131218 1.81853 3.5 0.928211 3.5 0 
C 3.5 -0.928211 3.131218 -1.81853 2.474874 -2.474874 
C 1.81853 -3.131218 0.928211 -3.5 0 -3.5 
C -0.928211 -3.5 -1.81853 -3.131218 -2.474874 -2.474874 
C -3.131218 -1.81853 -3.5 -0.928211 -3.5 0 
C -3.5 0.928211 -3.131218 1.81853 -2.474874 2.474874 
C -1.81853 3.131218 -0.928211 3.5 0 3.5 
z
" style="stroke: #9467bd"/>
    </defs>
    <g clip-path="url(#p3571621905)">
     <use xlink:href="#m836bcb6162" x="86.825215" y="383.102587" style="fill: #9467bd; stroke: #9467bd"/>
     <use xlink:href="#m836bcb6162" x="102.125306" y="349.074522" style="fill: #9467bd; stroke: #9467bd"/>
     <use xlink:href="#m836bcb6162" x="117.425397" y="321.34795" style="fill: #9467bd; stroke: #9467bd"/>
     <use xlink:href="#m836bcb6162" x="132.725488" y="306.224366" style="fill: #9467bd; stroke: #9467bd"/>
     <use xlink:href="#m836bcb6162" x="148.02558" y="291.100781" style="fill: #9467bd; stroke: #9467bd"/>
     <use xlink:href="#m836bcb6162" x="163.325671" y="275.977197" style="fill: #9467bd; stroke: #9467bd"/>
     <use xlink:href="#m836bcb6162" x="178.625762" y="273.456599" style="fill: #9467bd; stroke: #9467bd"/>
     <use xlink:href="#m836bcb6162" x="193.925854" y="252.031521" style="fill: #9467bd; stroke: #9467bd"/>
     <use xlink:href="#m836bcb6162" x="209.225945" y="220.524053" style="fill: #9467bd; stroke: #9467bd"/>
     <use xlink:href="#m836bcb6162" x="224.526036" y="196.578377" style="fill: #9467bd; stroke: #9467bd"/>
     <use xlink:href="#m836bcb6162" x="239.826127" y="158.769416" style="fill: #9467bd; stroke: #9467bd"/>
     <use xlink:href="#m836bcb6162" x="255.126219" y="143.645831" style="fill: #9467bd; stroke: #9467bd"/>
     <use xlink:href="#m836bcb6162" x="270.42631" y="115.91926" style="fill: #9467bd; stroke: #9467bd"/>
     <use xlink:href="#m836bcb6162" x="316.326584" y="115.91926" style="fill: #9467bd; stroke: #9467bd"/>
     <use xlink:href="#m836bcb6162" x="331.626675" y="115.91926" style="fill: #9467bd; stroke: #9467bd"/>
     <use xlink:href="#m836bcb6162" x="346.926766" y="115.91926" style="fill: #9467bd; stroke: #9467bd"/>
     <use xlink:href="#m836bcb6162" x="362.226858" y="115.91926" style="fill: #9467bd; stroke: #9467bd"/>
     <use xlink:href="#m836bcb6162" x="377.526949" y="115.91926" style="fill: #9467bd; stroke: #9467bd"/>
     <use xlink:href="#m836bcb6162" x="408.127132" y="115.91926" style="fill: #9467bd; stroke: #9467bd"/>
     <use xlink:href="#m836bcb6162" x="423.427223" y="115.91926" style="fill: #9467bd; stroke: #9467bd"/>
     <use xlink:href="#m836bcb6162" x="438.727314" y="115.91926" style="fill: #9467bd; stroke: #9467bd"/>
     <use xlink:href="#m836bcb6162" x="454.027405" y="115.91926" style="fill: #9467bd; stroke: #9467bd"/>
     <use xlink:href="#m836bcb6162" x="469.327497" y="115.91926" style="fill: #9467bd; stroke: #9467bd"/>
     <use xlink:href="#m836bcb6162" x="484.627588" y="97.014779" style="fill: #9467bd; stroke: #9467bd"/>
     <use xlink:href="#m836bcb6162" x="499.927679" y="97.014779" style="fill: #9467bd; stroke: #9467bd"/>
     <use xlink:href="#m836bcb6162" x="515.227771" y="97.014779" style="fill: #9467bd; stroke: #9467bd"/>
     <use xlink:href="#m836bcb6162" x="530.527862" y="97.014779" style="fill: #9467bd; stroke: #9467bd"/>
     <use xlink:href="#m836bcb6162" x="545.827953" y="97.014779" style="fill: #9467bd; stroke: #9467bd"/>
     <use xlink:href="#m836bcb6162" x="561.128044" y="71.808805" style="fill: #9467bd; stroke: #9467bd"/>
     <use xlink:href="#m836bcb6162" x="576.428136" y="71.808805" style="fill: #9467bd; stroke: #9467bd"/>
     <use xlink:href="#m836bcb6162" x="591.728227" y="71.808805" style="fill: #9467bd; stroke: #9467bd"/>
     <use xlink:href="#m836bcb6162" x="607.028318" y="71.808805" style="fill: #9467bd; stroke: #9467bd"/>
     <use xlink:href="#m836bcb6162" x="622.32841" y="71.808805" style="fill: #9467bd; stroke: #9467bd"/>
     <use xlink:href="#m836bcb6162" x="637.628501" y="71.808805" style="fill: #9467bd; stroke: #9467bd"/>
     <use xlink:href="#m836bcb6162" x="652.928592" y="71.808805" style="fill: #9467bd; stroke: #9467bd"/>
     <use xlink:href="#m836bcb6162" x="668.228683" y="71.808805" style="fill: #9467bd; stroke: #9467bd"/>
     <use xlink:href="#m836bcb6162" x="683.528775" y="71.808805" style="fill: #9467bd; stroke: #9467bd"/>
     <use xlink:href="#m836bcb6162" x="698.828866" y="71.808805" style="fill: #9467bd; stroke: #9467bd"/>
     <use xlink:href="#m836bcb6162" x="714.128957" y="71.808805" style="fill: #9467bd; stroke: #9467bd"/>
     <use xlink:href="#m836bcb6162" x="729.429049" y="71.808805" style="fill: #9467bd; stroke: #9467bd"/>
     <use xlink:href="#m836bcb6162" x="744.72914" y="71.808805" style="fill: #9467bd; stroke: #9467bd"/>
     <use xlink:href="#m836bcb6162" x="760.029231" y="71.808805" style="fill: #9467bd; stroke: #9467bd"/>
     <use xlink:href="#m836bcb6162" x="775.329322" y="71.808805" style="fill: #9467bd; stroke: #9467bd"/>
     <use xlink:href="#m836bcb6162" x="790.629414" y="71.808805" style="fill: #9467bd; stroke: #9467bd"/>
     <use xlink:href="#m836bcb6162" x="805.929505" y="71.808805" style="fill: #9467bd; stroke: #9467bd"/>
    </g>
   </g>
   <g id="line2d_32">
    <path d="M 86.825215 376.862332 
L 102.125306 364.259345 
L 117.425397 342.834266 
L 132.725488 330.231279 
L 148.02558 305.025305 
L 163.325671 270.99724 
L 178.625762 253.353058 
L 193.925854 253.353058 
L 209.225945 221.84559 
L 224.526036 210.502901 
L 239.826127 182.776329 
L 255.126219 175.214537 
L 270.42631 136.145277 
L 316.326584 136.145277 
L 331.626675 136.145277 
L 346.926766 136.145277 
L 362.226858 136.145277 
L 377.526949 136.145277 
L 408.127132 136.145277 
L 423.427223 136.145277 
L 438.727314 136.145277 
L 454.027405 136.145277 
L 469.327497 136.145277 
L 484.627588 136.145277 
L 499.927679 136.145277 
L 515.227771 136.145277 
L 530.527862 136.145277 
L 545.827953 136.145277 
L 561.128044 117.240796 
L 576.428136 117.240796 
L 591.728227 117.240796 
L 607.028318 117.240796 
L 622.32841 117.240796 
L 637.628501 117.240796 
L 652.928592 117.240796 
L 668.228683 117.240796 
L 683.528775 117.240796 
L 698.828866 117.240796 
L 714.128957 117.240796 
L 729.429049 117.240796 
L 744.72914 117.240796 
L 760.029231 117.240796 
L 775.329322 117.240796 
L 790.629414 117.240796 
L 805.929505 117.240796 
" clip-path="url(#p3571621905)" style="fill: none; stroke: #8c564b; stroke-width: 1.5; stroke-linecap: square"/>
    <defs>
     <path id="mc00e67df4b" d="M 0 3.5 
C 0.928211 3.5 1.81853 3.131218 2.474874 2.474874 
C 3.131218 1.81853 3.5 0.928211 3.5 0 
C 3.5 -0.928211 3.131218 -1.81853 2.474874 -2.474874 
C 1.81853 -3.131218 0.928211 -3.5 0 -3.5 
C -0.928211 -3.5 -1.81853 -3.131218 -2.474874 -2.474874 
C -3.131218 -1.81853 -3.5 -0.928211 -3.5 0 
C -3.5 0.928211 -3.131218 1.81853 -2.474874 2.474874 
C -1.81853 3.131218 -0.928211 3.5 0 3.5 
z
" style="stroke: #8c564b"/>
    </defs>
    <g clip-path="url(#p3571621905)">
     <use xlink:href="#mc00e67df4b" x="86.825215" y="376.862332" style="fill: #8c564b; stroke: #8c564b"/>
     <use xlink:href="#mc00e67df4b" x="102.125306" y="364.259345" style="fill: #8c564b; stroke: #8c564b"/>
     <use xlink:href="#mc00e67df4b" x="117.425397" y="342.834266" style="fill: #8c564b; stroke: #8c564b"/>
     <use xlink:href="#mc00e67df4b" x="132.725488" y="330.231279" style="fill: #8c564b; stroke: #8c564b"/>
     <use xlink:href="#mc00e67df4b" x="148.02558" y="305.025305" style="fill: #8c564b; stroke: #8c564b"/>
     <use xlink:href="#mc00e67df4b" x="163.325671" y="270.99724" style="fill: #8c564b; stroke: #8c564b"/>
     <use xlink:href="#mc00e67df4b" x="178.625762" y="253.353058" style="fill: #8c564b; stroke: #8c564b"/>
     <use xlink:href="#mc00e67df4b" x="193.925854" y="253.353058" style="fill: #8c564b; stroke: #8c564b"/>
     <use xlink:href="#mc00e67df4b" x="209.225945" y="221.84559" style="fill: #8c564b; stroke: #8c564b"/>
     <use xlink:href="#mc00e67df4b" x="224.526036" y="210.502901" style="fill: #8c564b; stroke: #8c564b"/>
     <use xlink:href="#mc00e67df4b" x="239.826127" y="182.776329" style="fill: #8c564b; stroke: #8c564b"/>
     <use xlink:href="#mc00e67df4b" x="255.126219" y="175.214537" style="fill: #8c564b; stroke: #8c564b"/>
     <use xlink:href="#mc00e67df4b" x="270.42631" y="136.145277" style="fill: #8c564b; stroke: #8c564b"/>
     <use xlink:href="#mc00e67df4b" x="316.326584" y="136.145277" style="fill: #8c564b; stroke: #8c564b"/>
     <use xlink:href="#mc00e67df4b" x="331.626675" y="136.145277" style="fill: #8c564b; stroke: #8c564b"/>
     <use xlink:href="#mc00e67df4b" x="346.926766" y="136.145277" style="fill: #8c564b; stroke: #8c564b"/>
     <use xlink:href="#mc00e67df4b" x="362.226858" y="136.145277" style="fill: #8c564b; stroke: #8c564b"/>
     <use xlink:href="#mc00e67df4b" x="377.526949" y="136.145277" style="fill: #8c564b; stroke: #8c564b"/>
     <use xlink:href="#mc00e67df4b" x="408.127132" y="136.145277" style="fill: #8c564b; stroke: #8c564b"/>
     <use xlink:href="#mc00e67df4b" x="423.427223" y="136.145277" style="fill: #8c564b; stroke: #8c564b"/>
     <use xlink:href="#mc00e67df4b" x="438.727314" y="136.145277" style="fill: #8c564b; stroke: #8c564b"/>
     <use xlink:href="#mc00e67df4b" x="454.027405" y="136.145277" style="fill: #8c564b; stroke: #8c564b"/>
     <use xlink:href="#mc00e67df4b" x="469.327497" y="136.145277" style="fill: #8c564b; stroke: #8c564b"/>
     <use xlink:href="#mc00e67df4b" x="484.627588" y="136.145277" style="fill: #8c564b; stroke: #8c564b"/>
     <use xlink:href="#mc00e67df4b" x="499.927679" y="136.145277" style="fill: #8c564b; stroke: #8c564b"/>
     <use xlink:href="#mc00e67df4b" x="515.227771" y="136.145277" style="fill: #8c564b; stroke: #8c564b"/>
     <use xlink:href="#mc00e67df4b" x="530.527862" y="136.145277" style="fill: #8c564b; stroke: #8c564b"/>
     <use xlink:href="#mc00e67df4b" x="545.827953" y="136.145277" style="fill: #8c564b; stroke: #8c564b"/>
     <use xlink:href="#mc00e67df4b" x="561.128044" y="117.240796" style="fill: #8c564b; stroke: #8c564b"/>
     <use xlink:href="#mc00e67df4b" x="576.428136" y="117.240796" style="fill: #8c564b; stroke: #8c564b"/>
     <use xlink:href="#mc00e67df4b" x="591.728227" y="117.240796" style="fill: #8c564b; stroke: #8c564b"/>
     <use xlink:href="#mc00e67df4b" x="607.028318" y="117.240796" style="fill: #8c564b; stroke: #8c564b"/>
     <use xlink:href="#mc00e67df4b" x="622.32841" y="117.240796" style="fill: #8c564b; stroke: #8c564b"/>
     <use xlink:href="#mc00e67df4b" x="637.628501" y="117.240796" style="fill: #8c564b; stroke: #8c564b"/>
     <use xlink:href="#mc00e67df4b" x="652.928592" y="117.240796" style="fill: #8c564b; stroke: #8c564b"/>
     <use xlink:href="#mc00e67df4b" x="668.228683" y="117.240796" style="fill: #8c564b; stroke: #8c564b"/>
     <use xlink:href="#mc00e67df4b" x="683.528775" y="117.240796" style="fill: #8c564b; stroke: #8c564b"/>
     <use xlink:href="#mc00e67df4b" x="698.828866" y="117.240796" style="fill: #8c564b; stroke: #8c564b"/>
     <use xlink:href="#mc00e67df4b" x="714.128957" y="117.240796" style="fill: #8c564b; stroke: #8c564b"/>
     <use xlink:href="#mc00e67df4b" x="729.429049" y="117.240796" style="fill: #8c564b; stroke: #8c564b"/>
     <use xlink:href="#mc00e67df4b" x="744.72914" y="117.240796" style="fill: #8c564b; stroke: #8c564b"/>
     <use xlink:href="#mc00e67df4b" x="760.029231" y="117.240796" style="fill: #8c564b; stroke: #8c564b"/>
     <use xlink:href="#mc00e67df4b" x="775.329322" y="117.240796" style="fill: #8c564b; stroke: #8c564b"/>
     <use xlink:href="#mc00e67df4b" x="790.629414" y="117.240796" style="fill: #8c564b; stroke: #8c564b"/>
     <use xlink:href="#mc00e67df4b" x="805.929505" y="117.240796" style="fill: #8c564b; stroke: #8c564b"/>
    </g>
   </g>
   <g id="line2d_33">
    <path d="M 86.825215 376.683442 
L 102.125306 351.477467 
L 117.425397 330.052389 
L 132.725488 311.147908 
L 148.02558 302.325817 
L 163.325671 270.81835 
L 178.625762 263.256557 
L 193.925854 260.73596 
L 209.225945 233.009388 
L 224.526036 224.187297 
L 239.826127 190.159232 
L 255.126219 175.035647 
L 270.42631 134.706088 
L 316.326584 134.706088 
L 331.626675 134.706088 
L 346.926766 134.706088 
L 362.226858 134.706088 
L 377.526949 134.706088 
L 408.127132 134.706088 
L 423.427223 134.706088 
L 438.727314 134.706088 
L 454.027405 134.706088 
L 469.327497 134.706088 
L 484.627588 115.801607 
L 499.927679 115.801607 
L 515.227771 115.801607 
L 530.527862 115.801607 
L 545.827953 115.801607 
L 561.128044 115.801607 
L 576.428136 115.801607 
L 591.728227 115.801607 
L 607.028318 115.801607 
L 622.32841 115.801607 
L 637.628501 115.801607 
L 652.928592 115.801607 
L 668.228683 115.801607 
L 683.528775 115.801607 
L 698.828866 115.801607 
L 714.128957 115.801607 
L 729.429049 115.801607 
L 744.72914 115.801607 
L 760.029231 115.801607 
L 775.329322 115.801607 
L 790.629414 115.801607 
L 805.929505 115.801607 
" clip-path="url(#p3571621905)" style="fill: none; stroke: #e377c2; stroke-width: 1.5; stroke-linecap: square"/>
    <defs>
     <path id="mdd3bab2579" d="M 0 3.5 
C 0.928211 3.5 1.81853 3.131218 2.474874 2.474874 
C 3.131218 1.81853 3.5 0.928211 3.5 0 
C 3.5 -0.928211 3.131218 -1.81853 2.474874 -2.474874 
C 1.81853 -3.131218 0.928211 -3.5 0 -3.5 
C -0.928211 -3.5 -1.81853 -3.131218 -2.474874 -2.474874 
C -3.131218 -1.81853 -3.5 -0.928211 -3.5 0 
C -3.5 0.928211 -3.131218 1.81853 -2.474874 2.474874 
C -1.81853 3.131218 -0.928211 3.5 0 3.5 
z
" style="stroke: #e377c2"/>
    </defs>
    <g clip-path="url(#p3571621905)">
     <use xlink:href="#mdd3bab2579" x="86.825215" y="376.683442" style="fill: #e377c2; stroke: #e377c2"/>
     <use xlink:href="#mdd3bab2579" x="102.125306" y="351.477467" style="fill: #e377c2; stroke: #e377c2"/>
     <use xlink:href="#mdd3bab2579" x="117.425397" y="330.052389" style="fill: #e377c2; stroke: #e377c2"/>
     <use xlink:href="#mdd3bab2579" x="132.725488" y="311.147908" style="fill: #e377c2; stroke: #e377c2"/>
     <use xlink:href="#mdd3bab2579" x="148.02558" y="302.325817" style="fill: #e377c2; stroke: #e377c2"/>
     <use xlink:href="#mdd3bab2579" x="163.325671" y="270.81835" style="fill: #e377c2; stroke: #e377c2"/>
     <use xlink:href="#mdd3bab2579" x="178.625762" y="263.256557" style="fill: #e377c2; stroke: #e377c2"/>
     <use xlink:href="#mdd3bab2579" x="193.925854" y="260.73596" style="fill: #e377c2; stroke: #e377c2"/>
     <use xlink:href="#mdd3bab2579" x="209.225945" y="233.009388" style="fill: #e377c2; stroke: #e377c2"/>
     <use xlink:href="#mdd3bab2579" x="224.526036" y="224.187297" style="fill: #e377c2; stroke: #e377c2"/>
     <use xlink:href="#mdd3bab2579" x="239.826127" y="190.159232" style="fill: #e377c2; stroke: #e377c2"/>
     <use xlink:href="#mdd3bab2579" x="255.126219" y="175.035647" style="fill: #e377c2; stroke: #e377c2"/>
     <use xlink:href="#mdd3bab2579" x="270.42631" y="134.706088" style="fill: #e377c2; stroke: #e377c2"/>
     <use xlink:href="#mdd3bab2579" x="316.326584" y="134.706088" style="fill: #e377c2; stroke: #e377c2"/>
     <use xlink:href="#mdd3bab2579" x="331.626675" y="134.706088" style="fill: #e377c2; stroke: #e377c2"/>
     <use xlink:href="#mdd3bab2579" x="346.926766" y="134.706088" style="fill: #e377c2; stroke: #e377c2"/>
     <use xlink:href="#mdd3bab2579" x="362.226858" y="134.706088" style="fill: #e377c2; stroke: #e377c2"/>
     <use xlink:href="#mdd3bab2579" x="377.526949" y="134.706088" style="fill: #e377c2; stroke: #e377c2"/>
     <use xlink:href="#mdd3bab2579" x="408.127132" y="134.706088" style="fill: #e377c2; stroke: #e377c2"/>
     <use xlink:href="#mdd3bab2579" x="423.427223" y="134.706088" style="fill: #e377c2; stroke: #e377c2"/>
     <use xlink:href="#mdd3bab2579" x="438.727314" y="134.706088" style="fill: #e377c2; stroke: #e377c2"/>
     <use xlink:href="#mdd3bab2579" x="454.027405" y="134.706088" style="fill: #e377c2; stroke: #e377c2"/>
     <use xlink:href="#mdd3bab2579" x="469.327497" y="134.706088" style="fill: #e377c2; stroke: #e377c2"/>
     <use xlink:href="#mdd3bab2579" x="484.627588" y="115.801607" style="fill: #e377c2; stroke: #e377c2"/>
     <use xlink:href="#mdd3bab2579" x="499.927679" y="115.801607" style="fill: #e377c2; stroke: #e377c2"/>
     <use xlink:href="#mdd3bab2579" x="515.227771" y="115.801607" style="fill: #e377c2; stroke: #e377c2"/>
     <use xlink:href="#mdd3bab2579" x="530.527862" y="115.801607" style="fill: #e377c2; stroke: #e377c2"/>
     <use xlink:href="#mdd3bab2579" x="545.827953" y="115.801607" style="fill: #e377c2; stroke: #e377c2"/>
     <use xlink:href="#mdd3bab2579" x="561.128044" y="115.801607" style="fill: #e377c2; stroke: #e377c2"/>
     <use xlink:href="#mdd3bab2579" x="576.428136" y="115.801607" style="fill: #e377c2; stroke: #e377c2"/>
     <use xlink:href="#mdd3bab2579" x="591.728227" y="115.801607" style="fill: #e377c2; stroke: #e377c2"/>
     <use xlink:href="#mdd3bab2579" x="607.028318" y="115.801607" style="fill: #e377c2; stroke: #e377c2"/>
     <use xlink:href="#mdd3bab2579" x="622.32841" y="115.801607" style="fill: #e377c2; stroke: #e377c2"/>
     <use xlink:href="#mdd3bab2579" x="637.628501" y="115.801607" style="fill: #e377c2; stroke: #e377c2"/>
     <use xlink:href="#mdd3bab2579" x="652.928592" y="115.801607" style="fill: #e377c2; stroke: #e377c2"/>
     <use xlink:href="#mdd3bab2579" x="668.228683" y="115.801607" style="fill: #e377c2; stroke: #e377c2"/>
     <use xlink:href="#mdd3bab2579" x="683.528775" y="115.801607" style="fill: #e377c2; stroke: #e377c2"/>
     <use xlink:href="#mdd3bab2579" x="698.828866" y="115.801607" style="fill: #e377c2; stroke: #e377c2"/>
     <use xlink:href="#mdd3bab2579" x="714.128957" y="115.801607" style="fill: #e377c2; stroke: #e377c2"/>
     <use xlink:href="#mdd3bab2579" x="729.429049" y="115.801607" style="fill: #e377c2; stroke: #e377c2"/>
     <use xlink:href="#mdd3bab2579" x="744.72914" y="115.801607" style="fill: #e377c2; stroke: #e377c2"/>
     <use xlink:href="#mdd3bab2579" x="760.029231" y="115.801607" style="fill: #e377c2; stroke: #e377c2"/>
     <use xlink:href="#mdd3bab2579" x="775.329322" y="115.801607" style="fill: #e377c2; stroke: #e377c2"/>
     <use xlink:href="#mdd3bab2579" x="790.629414" y="115.801607" style="fill: #e377c2; stroke: #e377c2"/>
     <use xlink:href="#mdd3bab2579" x="805.929505" y="115.801607" style="fill: #e377c2; stroke: #e377c2"/>
    </g>
   </g>
   <g id="line2d_34">
    <path d="M 86.825215 383.197008 
L 102.125306 375.635216 
L 117.425397 356.730735 
L 132.725488 354.210138 
L 148.02558 335.305657 
L 163.325671 332.78506 
L 178.625762 311.359981 
L 193.925854 292.455501 
L 209.225945 248.345046 
L 224.526036 243.303851 
L 239.826127 230.700864 
L 255.126219 187.850707 
L 270.42631 151.302044 
L 316.326584 151.302044 
L 331.626675 151.302044 
L 346.926766 151.302044 
L 362.226858 151.302044 
L 377.526949 151.302044 
L 408.127132 151.302044 
L 423.427223 151.302044 
L 438.727314 151.302044 
L 454.027405 151.302044 
L 469.327497 151.302044 
L 484.627588 132.397564 
L 499.927679 132.397564 
L 515.227771 132.397564 
L 530.527862 132.397564 
L 545.827953 132.397564 
L 561.128044 107.191589 
L 576.428136 107.191589 
L 591.728227 107.191589 
L 607.028318 107.191589 
L 622.32841 107.191589 
L 637.628501 107.191589 
L 652.928592 107.191589 
L 668.228683 107.191589 
L 683.528775 107.191589 
L 698.828866 107.191589 
L 714.128957 107.191589 
L 729.429049 107.191589 
L 744.72914 107.191589 
L 760.029231 107.191589 
L 775.329322 107.191589 
L 790.629414 107.191589 
L 805.929505 107.191589 
" clip-path="url(#p3571621905)" style="fill: none; stroke: #7f7f7f; stroke-width: 1.5; stroke-linecap: square"/>
    <defs>
     <path id="m7b1ea2250e" d="M 0 3.5 
C 0.928211 3.5 1.81853 3.131218 2.474874 2.474874 
C 3.131218 1.81853 3.5 0.928211 3.5 0 
C 3.5 -0.928211 3.131218 -1.81853 2.474874 -2.474874 
C 1.81853 -3.131218 0.928211 -3.5 0 -3.5 
C -0.928211 -3.5 -1.81853 -3.131218 -2.474874 -2.474874 
C -3.131218 -1.81853 -3.5 -0.928211 -3.5 0 
C -3.5 0.928211 -3.131218 1.81853 -2.474874 2.474874 
C -1.81853 3.131218 -0.928211 3.5 0 3.5 
z
" style="stroke: #7f7f7f"/>
    </defs>
    <g clip-path="url(#p3571621905)">
     <use xlink:href="#m7b1ea2250e" x="86.825215" y="383.197008" style="fill: #7f7f7f; stroke: #7f7f7f"/>
     <use xlink:href="#m7b1ea2250e" x="102.125306" y="375.635216" style="fill: #7f7f7f; stroke: #7f7f7f"/>
     <use xlink:href="#m7b1ea2250e" x="117.425397" y="356.730735" style="fill: #7f7f7f; stroke: #7f7f7f"/>
     <use xlink:href="#m7b1ea2250e" x="132.725488" y="354.210138" style="fill: #7f7f7f; stroke: #7f7f7f"/>
     <use xlink:href="#m7b1ea2250e" x="148.02558" y="335.305657" style="fill: #7f7f7f; stroke: #7f7f7f"/>
     <use xlink:href="#m7b1ea2250e" x="163.325671" y="332.78506" style="fill: #7f7f7f; stroke: #7f7f7f"/>
     <use xlink:href="#m7b1ea2250e" x="178.625762" y="311.359981" style="fill: #7f7f7f; stroke: #7f7f7f"/>
     <use xlink:href="#m7b1ea2250e" x="193.925854" y="292.455501" style="fill: #7f7f7f; stroke: #7f7f7f"/>
     <use xlink:href="#m7b1ea2250e" x="209.225945" y="248.345046" style="fill: #7f7f7f; stroke: #7f7f7f"/>
     <use xlink:href="#m7b1ea2250e" x="224.526036" y="243.303851" style="fill: #7f7f7f; stroke: #7f7f7f"/>
     <use xlink:href="#m7b1ea2250e" x="239.826127" y="230.700864" style="fill: #7f7f7f; stroke: #7f7f7f"/>
     <use xlink:href="#m7b1ea2250e" x="255.126219" y="187.850707" style="fill: #7f7f7f; stroke: #7f7f7f"/>
     <use xlink:href="#m7b1ea2250e" x="270.42631" y="151.302044" style="fill: #7f7f7f; stroke: #7f7f7f"/>
     <use xlink:href="#m7b1ea2250e" x="316.326584" y="151.302044" style="fill: #7f7f7f; stroke: #7f7f7f"/>
     <use xlink:href="#m7b1ea2250e" x="331.626675" y="151.302044" style="fill: #7f7f7f; stroke: #7f7f7f"/>
     <use xlink:href="#m7b1ea2250e" x="346.926766" y="151.302044" style="fill: #7f7f7f; stroke: #7f7f7f"/>
     <use xlink:href="#m7b1ea2250e" x="362.226858" y="151.302044" style="fill: #7f7f7f; stroke: #7f7f7f"/>
     <use xlink:href="#m7b1ea2250e" x="377.526949" y="151.302044" style="fill: #7f7f7f; stroke: #7f7f7f"/>
     <use xlink:href="#m7b1ea2250e" x="408.127132" y="151.302044" style="fill: #7f7f7f; stroke: #7f7f7f"/>
     <use xlink:href="#m7b1ea2250e" x="423.427223" y="151.302044" style="fill: #7f7f7f; stroke: #7f7f7f"/>
     <use xlink:href="#m7b1ea2250e" x="438.727314" y="151.302044" style="fill: #7f7f7f; stroke: #7f7f7f"/>
     <use xlink:href="#m7b1ea2250e" x="454.027405" y="151.302044" style="fill: #7f7f7f; stroke: #7f7f7f"/>
     <use xlink:href="#m7b1ea2250e" x="469.327497" y="151.302044" style="fill: #7f7f7f; stroke: #7f7f7f"/>
     <use xlink:href="#m7b1ea2250e" x="484.627588" y="132.397564" style="fill: #7f7f7f; stroke: #7f7f7f"/>
     <use xlink:href="#m7b1ea2250e" x="499.927679" y="132.397564" style="fill: #7f7f7f; stroke: #7f7f7f"/>
     <use xlink:href="#m7b1ea2250e" x="515.227771" y="132.397564" style="fill: #7f7f7f; stroke: #7f7f7f"/>
     <use xlink:href="#m7b1ea2250e" x="530.527862" y="132.397564" style="fill: #7f7f7f; stroke: #7f7f7f"/>
     <use xlink:href="#m7b1ea2250e" x="545.827953" y="132.397564" style="fill: #7f7f7f; stroke: #7f7f7f"/>
     <use xlink:href="#m7b1ea2250e" x="561.128044" y="107.191589" style="fill: #7f7f7f; stroke: #7f7f7f"/>
     <use xlink:href="#m7b1ea2250e" x="576.428136" y="107.191589" style="fill: #7f7f7f; stroke: #7f7f7f"/>
     <use xlink:href="#m7b1ea2250e" x="591.728227" y="107.191589" style="fill: #7f7f7f; stroke: #7f7f7f"/>
     <use xlink:href="#m7b1ea2250e" x="607.028318" y="107.191589" style="fill: #7f7f7f; stroke: #7f7f7f"/>
     <use xlink:href="#m7b1ea2250e" x="622.32841" y="107.191589" style="fill: #7f7f7f; stroke: #7f7f7f"/>
     <use xlink:href="#m7b1ea2250e" x="637.628501" y="107.191589" style="fill: #7f7f7f; stroke: #7f7f7f"/>
     <use xlink:href="#m7b1ea2250e" x="652.928592" y="107.191589" style="fill: #7f7f7f; stroke: #7f7f7f"/>
     <use xlink:href="#m7b1ea2250e" x="668.228683" y="107.191589" style="fill: #7f7f7f; stroke: #7f7f7f"/>
     <use xlink:href="#m7b1ea2250e" x="683.528775" y="107.191589" style="fill: #7f7f7f; stroke: #7f7f7f"/>
     <use xlink:href="#m7b1ea2250e" x="698.828866" y="107.191589" style="fill: #7f7f7f; stroke: #7f7f7f"/>
     <use xlink:href="#m7b1ea2250e" x="714.128957" y="107.191589" style="fill: #7f7f7f; stroke: #7f7f7f"/>
     <use xlink:href="#m7b1ea2250e" x="729.429049" y="107.191589" style="fill: #7f7f7f; stroke: #7f7f7f"/>
     <use xlink:href="#m7b1ea2250e" x="744.72914" y="107.191589" style="fill: #7f7f7f; stroke: #7f7f7f"/>
     <use xlink:href="#m7b1ea2250e" x="760.029231" y="107.191589" style="fill: #7f7f7f; stroke: #7f7f7f"/>
     <use xlink:href="#m7b1ea2250e" x="775.329322" y="107.191589" style="fill: #7f7f7f; stroke: #7f7f7f"/>
     <use xlink:href="#m7b1ea2250e" x="790.629414" y="107.191589" style="fill: #7f7f7f; stroke: #7f7f7f"/>
     <use xlink:href="#m7b1ea2250e" x="805.929505" y="107.191589" style="fill: #7f7f7f; stroke: #7f7f7f"/>
    </g>
   </g>
   <g id="line2d_35">
    <path d="M 86.825215 383.022179 
L 102.125306 357.816205 
L 117.425397 330.089633 
L 132.725488 321.267542 
L 148.02558 302.363062 
L 163.325671 274.63649 
L 178.625762 246.909918 
L 193.925854 244.389321 
L 209.225945 212.881853 
L 224.526036 172.552294 
L 239.826127 144.825722 
L 255.126219 117.09915 
L 270.42631 83.071085 
L 316.326584 83.071085 
L 331.626675 83.071085 
L 346.926766 83.071085 
L 362.226858 83.071085 
L 377.526949 83.071085 
L 408.127132 83.071085 
L 423.427223 83.071085 
L 438.727314 83.071085 
L 454.027405 83.071085 
L 469.327497 83.071085 
L 484.627588 83.071085 
L 499.927679 83.071085 
L 515.227771 83.071085 
L 530.527862 83.071085 
L 545.827953 83.071085 
L 561.128044 64.166604 
L 576.428136 64.166604 
L 591.728227 64.166604 
L 607.028318 64.166604 
L 622.32841 64.166604 
L 637.628501 64.166604 
L 652.928592 64.166604 
L 668.228683 64.166604 
L 683.528775 64.166604 
L 698.828866 64.166604 
L 714.128957 64.166604 
L 729.429049 64.166604 
L 744.72914 64.166604 
L 760.029231 64.166604 
L 775.329322 64.166604 
L 790.629414 64.166604 
L 805.929505 64.166604 
" clip-path="url(#p3571621905)" style="fill: none; stroke: #bcbd22; stroke-width: 1.5; stroke-linecap: square"/>
    <defs>
     <path id="m41c0ba6094" d="M 0 3.5 
C 0.928211 3.5 1.81853 3.131218 2.474874 2.474874 
C 3.131218 1.81853 3.5 0.928211 3.5 0 
C 3.5 -0.928211 3.131218 -1.81853 2.474874 -2.474874 
C 1.81853 -3.131218 0.928211 -3.5 0 -3.5 
C -0.928211 -3.5 -1.81853 -3.131218 -2.474874 -2.474874 
C -3.131218 -1.81853 -3.5 -0.928211 -3.5 0 
C -3.5 0.928211 -3.131218 1.81853 -2.474874 2.474874 
C -1.81853 3.131218 -0.928211 3.5 0 3.5 
z
" style="stroke: #bcbd22"/>
    </defs>
    <g clip-path="url(#p3571621905)">
     <use xlink:href="#m41c0ba6094" x="86.825215" y="383.022179" style="fill: #bcbd22; stroke: #bcbd22"/>
     <use xlink:href="#m41c0ba6094" x="102.125306" y="357.816205" style="fill: #bcbd22; stroke: #bcbd22"/>
     <use xlink:href="#m41c0ba6094" x="117.425397" y="330.089633" style="fill: #bcbd22; stroke: #bcbd22"/>
     <use xlink:href="#m41c0ba6094" x="132.725488" y="321.267542" style="fill: #bcbd22; stroke: #bcbd22"/>
     <use xlink:href="#m41c0ba6094" x="148.02558" y="302.363062" style="fill: #bcbd22; stroke: #bcbd22"/>
     <use xlink:href="#m41c0ba6094" x="163.325671" y="274.63649" style="fill: #bcbd22; stroke: #bcbd22"/>
     <use xlink:href="#m41c0ba6094" x="178.625762" y="246.909918" style="fill: #bcbd22; stroke: #bcbd22"/>
     <use xlink:href="#m41c0ba6094" x="193.925854" y="244.389321" style="fill: #bcbd22; stroke: #bcbd22"/>
     <use xlink:href="#m41c0ba6094" x="209.225945" y="212.881853" style="fill: #bcbd22; stroke: #bcbd22"/>
     <use xlink:href="#m41c0ba6094" x="224.526036" y="172.552294" style="fill: #bcbd22; stroke: #bcbd22"/>
     <use xlink:href="#m41c0ba6094" x="239.826127" y="144.825722" style="fill: #bcbd22; stroke: #bcbd22"/>
     <use xlink:href="#m41c0ba6094" x="255.126219" y="117.09915" style="fill: #bcbd22; stroke: #bcbd22"/>
     <use xlink:href="#m41c0ba6094" x="270.42631" y="83.071085" style="fill: #bcbd22; stroke: #bcbd22"/>
     <use xlink:href="#m41c0ba6094" x="316.326584" y="83.071085" style="fill: #bcbd22; stroke: #bcbd22"/>
     <use xlink:href="#m41c0ba6094" x="331.626675" y="83.071085" style="fill: #bcbd22; stroke: #bcbd22"/>
     <use xlink:href="#m41c0ba6094" x="346.926766" y="83.071085" style="fill: #bcbd22; stroke: #bcbd22"/>
     <use xlink:href="#m41c0ba6094" x="362.226858" y="83.071085" style="fill: #bcbd22; stroke: #bcbd22"/>
     <use xlink:href="#m41c0ba6094" x="377.526949" y="83.071085" style="fill: #bcbd22; stroke: #bcbd22"/>
     <use xlink:href="#m41c0ba6094" x="408.127132" y="83.071085" style="fill: #bcbd22; stroke: #bcbd22"/>
     <use xlink:href="#m41c0ba6094" x="423.427223" y="83.071085" style="fill: #bcbd22; stroke: #bcbd22"/>
     <use xlink:href="#m41c0ba6094" x="438.727314" y="83.071085" style="fill: #bcbd22; stroke: #bcbd22"/>
     <use xlink:href="#m41c0ba6094" x="454.027405" y="83.071085" style="fill: #bcbd22; stroke: #bcbd22"/>
     <use xlink:href="#m41c0ba6094" x="469.327497" y="83.071085" style="fill: #bcbd22; stroke: #bcbd22"/>
     <use xlink:href="#m41c0ba6094" x="484.627588" y="83.071085" style="fill: #bcbd22; stroke: #bcbd22"/>
     <use xlink:href="#m41c0ba6094" x="499.927679" y="83.071085" style="fill: #bcbd22; stroke: #bcbd22"/>
     <use xlink:href="#m41c0ba6094" x="515.227771" y="83.071085" style="fill: #bcbd22; stroke: #bcbd22"/>
     <use xlink:href="#m41c0ba6094" x="530.527862" y="83.071085" style="fill: #bcbd22; stroke: #bcbd22"/>
     <use xlink:href="#m41c0ba6094" x="545.827953" y="83.071085" style="fill: #bcbd22; stroke: #bcbd22"/>
     <use xlink:href="#m41c0ba6094" x="561.128044" y="64.166604" style="fill: #bcbd22; stroke: #bcbd22"/>
     <use xlink:href="#m41c0ba6094" x="576.428136" y="64.166604" style="fill: #bcbd22; stroke: #bcbd22"/>
     <use xlink:href="#m41c0ba6094" x="591.728227" y="64.166604" style="fill: #bcbd22; stroke: #bcbd22"/>
     <use xlink:href="#m41c0ba6094" x="607.028318" y="64.166604" style="fill: #bcbd22; stroke: #bcbd22"/>
     <use xlink:href="#m41c0ba6094" x="622.32841" y="64.166604" style="fill: #bcbd22; stroke: #bcbd22"/>
     <use xlink:href="#m41c0ba6094" x="637.628501" y="64.166604" style="fill: #bcbd22; stroke: #bcbd22"/>
     <use xlink:href="#m41c0ba6094" x="652.928592" y="64.166604" style="fill: #bcbd22; stroke: #bcbd22"/>
     <use xlink:href="#m41c0ba6094" x="668.228683" y="64.166604" style="fill: #bcbd22; stroke: #bcbd22"/>
     <use xlink:href="#m41c0ba6094" x="683.528775" y="64.166604" style="fill: #bcbd22; stroke: #bcbd22"/>
     <use xlink:href="#m41c0ba6094" x="698.828866" y="64.166604" style="fill: #bcbd22; stroke: #bcbd22"/>
     <use xlink:href="#m41c0ba6094" x="714.128957" y="64.166604" style="fill: #bcbd22; stroke: #bcbd22"/>
     <use xlink:href="#m41c0ba6094" x="729.429049" y="64.166604" style="fill: #bcbd22; stroke: #bcbd22"/>
     <use xlink:href="#m41c0ba6094" x="744.72914" y="64.166604" style="fill: #bcbd22; stroke: #bcbd22"/>
     <use xlink:href="#m41c0ba6094" x="760.029231" y="64.166604" style="fill: #bcbd22; stroke: #bcbd22"/>
     <use xlink:href="#m41c0ba6094" x="775.329322" y="64.166604" style="fill: #bcbd22; stroke: #bcbd22"/>
     <use xlink:href="#m41c0ba6094" x="790.629414" y="64.166604" style="fill: #bcbd22; stroke: #bcbd22"/>
     <use xlink:href="#m41c0ba6094" x="805.929505" y="64.166604" style="fill: #bcbd22; stroke: #bcbd22"/>
    </g>
   </g>
   <g id="patch_3">
    <path d="M 50.87 404.12 
L 50.87 26.88 
" style="fill: none; stroke: #000000; stroke-width: 0.8; stroke-linejoin: miter; stroke-linecap: square"/>
   </g>
   <g id="patch_4">
    <path d="M 841.88472 404.12 
L 841.88472 26.88 
" style="fill: none; stroke: #000000; stroke-width: 0.8; stroke-linejoin: miter; stroke-linecap: square"/>
   </g>
   <g id="patch_5">
    <path d="M 50.87 404.12 
L 841.88472 404.12 
" style="fill: none; stroke: #000000; stroke-width: 0.8; stroke-linejoin: miter; stroke-linecap: square"/>
   </g>
   <g id="patch_6">
    <path d="M 50.87 26.88 
L 841.88472 26.88 
" style="fill: none; stroke: #000000; stroke-width: 0.8; stroke-linejoin: miter; stroke-linecap: square"/>
   </g>
   <g id="text_15">
    <!-- Standings -->
    <g transform="translate(416.52361 20.88) scale(0.12 -0.12)">
     <defs>
      <path id="DejaVuSans-74" d="M 1172 4494 
L 1172 3500 
L 2356 3500 
L 2356 3053 
L 1172 3053 
L 1172 1153 
Q 1172 725 1289 603 
Q 1406 481 1766 481 
L 2356 481 
L 2356 0 
L 1766 0 
Q 1100 0 847 248 
Q 594 497 594 1153 
L 594 3053 
L 172 3053 
L 172 3500 
L 594 3500 
L 594 4494 
L 1172 4494 
z
" transform="scale(0.015625)"/>
      <path id="DejaVuSans-61" d="M 2194 1759 
Q 1497 1759 1228 1600 
Q 959 1441 959 1056 
Q 959 750 1161 570 
Q 1363 391 1709 391 
Q 2188 391 2477 730 
Q 2766 1069 2766 1631 
L 2766 1759 
L 2194 1759 
z
M 3341 1997 
L 3341 0 
L 2766 0 
L 2766 531 
Q 2569 213 2275 61 
Q 1981 -91 1556 -91 
Q 1019 -91 701 211 
Q 384 513 384 1019 
Q 384 1609 779 1909 
Q 1175 2209 1959 2209 
L 2766 2209 
L 2766 2266 
Q 2766 2663 2505 2880 
Q 2244 3097 1772 3097 
Q 1472 3097 1187 3025 
Q 903 2953 641 2809 
L 641 3341 
Q 956 3463 1253 3523 
Q 1550 3584 1831 3584 
Q 2591 3584 2966 3190 
Q 3341 2797 3341 1997 
z
" transform="scale(0.015625)"/>
      <path id="DejaVuSans-6e" d="M 3513 2113 
L 3513 0 
L 2938 0 
L 2938 2094 
Q 2938 2591 2744 2837 
Q 2550 3084 2163 3084 
Q 1697 3084 1428 2787 
Q 1159 2491 1159 1978 
L 1159 0 
L 581 0 
L 581 3500 
L 1159 3500 
L 1159 2956 
Q 1366 3272 1645 3428 
Q 1925 3584 2291 3584 
Q 2894 3584 3203 3211 
Q 3513 2838 3513 2113 
z
" transform="scale(0.015625)"/>
      <path id="DejaVuSans-64" d="M 2906 2969 
L 2906 4863 
L 3481 4863 
L 3481 0 
L 2906 0 
L 2906 525 
Q 2725 213 2448 61 
Q 2172 -91 1784 -91 
Q 1150 -91 751 415 
Q 353 922 353 1747 
Q 353 2572 751 3078 
Q 1150 3584 1784 3584 
Q 2172 3584 2448 3432 
Q 2725 3281 2906 2969 
z
M 947 1747 
Q 947 1113 1208 752 
Q 1469 391 1925 391 
Q 2381 391 2643 752 
Q 2906 1113 2906 1747 
Q 2906 2381 2643 2742 
Q 2381 3103 1925 3103 
Q 1469 3103 1208 2742 
Q 947 2381 947 1747 
z
" transform="scale(0.015625)"/>
      <path id="DejaVuSans-69" d="M 603 3500 
L 1178 3500 
L 1178 0 
L 603 0 
L 603 3500 
z
M 603 4863 
L 1178 4863 
L 1178 4134 
L 603 4134 
L 603 4863 
z
" transform="scale(0.015625)"/>
      <path id="DejaVuSans-67" d="M 2906 1791 
Q 2906 2416 2648 2759 
Q 2391 3103 1925 3103 
Q 1463 3103 1205 2759 
Q 947 2416 947 1791 
Q 947 1169 1205 825 
Q 1463 481 1925 481 
Q 2391 481 2648 825 
Q 2906 1169 2906 1791 
z
M 3481 434 
Q 3481 -459 3084 -895 
Q 2688 -1331 1869 -1331 
Q 1566 -1331 1297 -1286 
Q 1028 -1241 775 -1147 
L 775 -588 
Q 1028 -725 1275 -790 
Q 1522 -856 1778 -856 
Q 2344 -856 2625 -561 
Q 2906 -266 2906 331 
L 2906 616 
Q 2728 306 2450 153 
Q 2172 0 1784 0 
Q 1141 0 747 490 
Q 353 981 353 1791 
Q 353 2603 747 3093 
Q 1141 3584 1784 3584 
Q 2172 3584 2450 3431 
Q 2728 3278 2906 2969 
L 2906 3500 
L 3481 3500 
L 3481 434 
z
" transform="scale(0.015625)"/>
      <path id="DejaVuSans-73" d="M 2834 3397 
L 2834 2853 
Q 2591 2978 2328 3040 
Q 2066 3103 1784 3103 
Q 1356 3103 1142 2972 
Q 928 2841 928 2578 
Q 928 2378 1081 2264 
Q 1234 2150 1697 2047 
L 1894 2003 
Q 2506 1872 2764 1633 
Q 3022 1394 3022 966 
Q 3022 478 2636 193 
Q 2250 -91 1575 -91 
Q 1294 -91 989 -36 
Q 684 19 347 128 
L 347 722 
Q 666 556 975 473 
Q 1284 391 1588 391 
Q 1994 391 2212 530 
Q 2431 669 2431 922 
Q 2431 1156 2273 1281 
Q 2116 1406 1581 1522 
L 1381 1569 
Q 847 1681 609 1914 
Q 372 2147 372 2553 
Q 372 3047 722 3315 
Q 1072 3584 1716 3584 
Q 2034 3584 2315 3537 
Q 2597 3491 2834 3397 
z
" transform="scale(0.015625)"/>
     </defs>
     <use xlink:href="#DejaVuSans-53"/>
     <use xlink:href="#DejaVuSans-74" x="63.476562"/>
     <use xlink:href="#DejaVuSans-61" x="102.685547"/>
     <use xlink:href="#DejaVuSans-6e" x="163.964844"/>
     <use xlink:href="#DejaVuSans-64" x="227.34375"/>
     <use xlink:href="#DejaVuSans-69" x="290.820312"/>
     <use xlink:href="#DejaVuSans-6e" x="318.603516"/>
     <use xlink:href="#DejaVuSans-67" x="381.982422"/>
     <use xlink:href="#DejaVuSans-73" x="445.458984"/>
    </g>
   </g>
   <g id="legend_1">
    <g id="patch_7">
     <path d="M 57.87 166.983125 
L 153.949688 166.983125 
Q 155.949688 166.983125 155.949688 164.983125 
L 155.949688 33.88 
Q 155.949688 31.88 153.949688 31.88 
L 57.87 31.88 
Q 55.87 31.88 55.87 33.88 
L 55.87 164.983125 
Q 55.87 166.983125 57.87 166.983125 
z
" style="fill: #ffffff; opacity: 0.8; stroke: #cccccc; stroke-linejoin: miter"/>
    </g>
    <g id="line2d_36">
     <path d="M 59.87 39.978437 
L 69.87 39.978437 
L 79.87 39.978437 
" style="fill: none; stroke: #1f77b4; stroke-width: 1.5; stroke-linecap: square"/>
     <g>
      <use xlink:href="#md70fad4594" x="69.87" y="39.978437" style="fill: #1f77b4; stroke: #1f77b4"/>
     </g>
    </g>
    <g id="text_16">
     <!-- Alan Ce -->
     <g transform="translate(87.87 43.478437) scale(0.1 -0.1)">
      <defs>
       <path id="DejaVuSans-41" d="M 2188 4044 
L 1331 1722 
L 3047 1722 
L 2188 4044 
z
M 1831 4666 
L 2547 4666 
L 4325 0 
L 3669 0 
L 3244 1197 
L 1141 1197 
L 716 0 
L 50 0 
L 1831 4666 
z
" transform="scale(0.015625)"/>
       <path id="DejaVuSans-6c" d="M 603 4863 
L 1178 4863 
L 1178 0 
L 603 0 
L 603 4863 
z
" transform="scale(0.015625)"/>
       <path id="DejaVuSans-20" transform="scale(0.015625)"/>
       <path id="DejaVuSans-43" d="M 4122 4306 
L 4122 3641 
Q 3803 3938 3442 4084 
Q 3081 4231 2675 4231 
Q 1875 4231 1450 3742 
Q 1025 3253 1025 2328 
Q 1025 1406 1450 917 
Q 1875 428 2675 428 
Q 3081 428 3442 575 
Q 3803 722 4122 1019 
L 4122 359 
Q 3791 134 3420 21 
Q 3050 -91 2638 -91 
Q 1578 -91 968 557 
Q 359 1206 359 2328 
Q 359 3453 968 4101 
Q 1578 4750 2638 4750 
Q 3056 4750 3426 4639 
Q 3797 4528 4122 4306 
z
" transform="scale(0.015625)"/>
      </defs>
      <use xlink:href="#DejaVuSans-41"/>
      <use xlink:href="#DejaVuSans-6c" x="68.408203"/>
      <use xlink:href="#DejaVuSans-61" x="96.191406"/>
      <use xlink:href="#DejaVuSans-6e" x="157.470703"/>
      <use xlink:href="#DejaVuSans-20" x="220.849609"/>
      <use xlink:href="#DejaVuSans-43" x="252.636719"/>
      <use xlink:href="#DejaVuSans-65" x="322.460938"/>
     </g>
    </g>
    <g id="line2d_37">
     <path d="M 59.87 54.656563 
L 69.87 54.656563 
L 79.87 54.656563 
" style="fill: none; stroke: #ff7f0e; stroke-width: 1.5; stroke-linecap: square"/>
     <g>
      <use xlink:href="#meafbd32e3c" x="69.87" y="54.656563" style="fill: #ff7f0e; stroke: #ff7f0e"/>
     </g>
    </g>
    <g id="text_17">
     <!-- Sebastian Le -->
     <g transform="translate(87.87 58.156563) scale(0.1 -0.1)">
      <defs>
       <path id="DejaVuSans-62" d="M 3116 1747 
Q 3116 2381 2855 2742 
Q 2594 3103 2138 3103 
Q 1681 3103 1420 2742 
Q 1159 2381 1159 1747 
Q 1159 1113 1420 752 
Q 1681 391 2138 391 
Q 2594 391 2855 752 
Q 3116 1113 3116 1747 
z
M 1159 2969 
Q 1341 3281 1617 3432 
Q 1894 3584 2278 3584 
Q 2916 3584 3314 3078 
Q 3713 2572 3713 1747 
Q 3713 922 3314 415 
Q 2916 -91 2278 -91 
Q 1894 -91 1617 61 
Q 1341 213 1159 525 
L 1159 0 
L 581 0 
L 581 4863 
L 1159 4863 
L 1159 2969 
z
" transform="scale(0.015625)"/>
       <path id="DejaVuSans-4c" d="M 628 4666 
L 1259 4666 
L 1259 531 
L 3531 531 
L 3531 0 
L 628 0 
L 628 4666 
z
" transform="scale(0.015625)"/>
      </defs>
      <use xlink:href="#DejaVuSans-53"/>
      <use xlink:href="#DejaVuSans-65" x="63.476562"/>
      <use xlink:href="#DejaVuSans-62" x="125"/>
      <use xlink:href="#DejaVuSans-61" x="188.476562"/>
      <use xlink:href="#DejaVuSans-73" x="249.755859"/>
      <use xlink:href="#DejaVuSans-74" x="301.855469"/>
      <use xlink:href="#DejaVuSans-69" x="341.064453"/>
      <use xlink:href="#DejaVuSans-61" x="368.847656"/>
      <use xlink:href="#DejaVuSans-6e" x="430.126953"/>
      <use xlink:href="#DejaVuSans-20" x="493.505859"/>
      <use xlink:href="#DejaVuSans-4c" x="525.292969"/>
      <use xlink:href="#DejaVuSans-65" x="579.255859"/>
     </g>
    </g>
    <g id="line2d_38">
     <path d="M 59.87 69.334687 
L 69.87 69.334687 
L 79.87 69.334687 
" style="fill: none; stroke: #2ca02c; stroke-width: 1.5; stroke-linecap: square"/>
     <g>
      <use xlink:href="#m9795ecba6a" x="69.87" y="69.334687" style="fill: #2ca02c; stroke: #2ca02c"/>
     </g>
    </g>
    <g id="text_18">
     <!-- Sarah Gy -->
     <g transform="translate(87.87 72.834687) scale(0.1 -0.1)">
      <defs>
       <path id="DejaVuSans-68" d="M 3513 2113 
L 3513 0 
L 2938 0 
L 2938 2094 
Q 2938 2591 2744 2837 
Q 2550 3084 2163 3084 
Q 1697 3084 1428 2787 
Q 1159 2491 1159 1978 
L 1159 0 
L 581 0 
L 581 4863 
L 1159 4863 
L 1159 2956 
Q 1366 3272 1645 3428 
Q 1925 3584 2291 3584 
Q 2894 3584 3203 3211 
Q 3513 2838 3513 2113 
z
" transform="scale(0.015625)"/>
       <path id="DejaVuSans-47" d="M 3809 666 
L 3809 1919 
L 2778 1919 
L 2778 2438 
L 4434 2438 
L 4434 434 
Q 4069 175 3628 42 
Q 3188 -91 2688 -91 
Q 1594 -91 976 548 
Q 359 1188 359 2328 
Q 359 3472 976 4111 
Q 1594 4750 2688 4750 
Q 3144 4750 3555 4637 
Q 3966 4525 4313 4306 
L 4313 3634 
Q 3963 3931 3569 4081 
Q 3175 4231 2741 4231 
Q 1884 4231 1454 3753 
Q 1025 3275 1025 2328 
Q 1025 1384 1454 906 
Q 1884 428 2741 428 
Q 3075 428 3337 486 
Q 3600 544 3809 666 
z
" transform="scale(0.015625)"/>
       <path id="DejaVuSans-79" d="M 2059 -325 
Q 1816 -950 1584 -1140 
Q 1353 -1331 966 -1331 
L 506 -1331 
L 506 -850 
L 844 -850 
Q 1081 -850 1212 -737 
Q 1344 -625 1503 -206 
L 1606 56 
L 191 3500 
L 800 3500 
L 1894 763 
L 2988 3500 
L 3597 3500 
L 2059 -325 
z
" transform="scale(0.015625)"/>
      </defs>
      <use xlink:href="#DejaVuSans-53"/>
      <use xlink:href="#DejaVuSans-61" x="63.476562"/>
      <use xlink:href="#DejaVuSans-72" x="124.755859"/>
      <use xlink:href="#DejaVuSans-61" x="165.869141"/>
      <use xlink:href="#DejaVuSans-68" x="227.148438"/>
      <use xlink:href="#DejaVuSans-20" x="290.527344"/>
      <use xlink:href="#DejaVuSans-47" x="322.314453"/>
      <use xlink:href="#DejaVuSans-79" x="399.804688"/>
     </g>
    </g>
    <g id="line2d_39">
     <path d="M 59.87 84.012812 
L 69.87 84.012812 
L 79.87 84.012812 
" style="fill: none; stroke: #d62728; stroke-width: 1.5; stroke-linecap: square"/>
     <g>
      <use xlink:href="#me78e6cc9c4" x="69.87" y="84.012812" style="fill: #d62728; stroke: #d62728"/>
     </g>
    </g>
    <g id="text_19">
     <!-- Matias BN -->
     <g transform="translate(87.87 87.512812) scale(0.1 -0.1)">
      <defs>
       <path id="DejaVuSans-4d" d="M 628 4666 
L 1569 4666 
L 2759 1491 
L 3956 4666 
L 4897 4666 
L 4897 0 
L 4281 0 
L 4281 4097 
L 3078 897 
L 2444 897 
L 1241 4097 
L 1241 0 
L 628 0 
L 628 4666 
z
" transform="scale(0.015625)"/>
       <path id="DejaVuSans-42" d="M 1259 2228 
L 1259 519 
L 2272 519 
Q 2781 519 3026 730 
Q 3272 941 3272 1375 
Q 3272 1813 3026 2020 
Q 2781 2228 2272 2228 
L 1259 2228 
z
M 1259 4147 
L 1259 2741 
L 2194 2741 
Q 2656 2741 2882 2914 
Q 3109 3088 3109 3444 
Q 3109 3797 2882 3972 
Q 2656 4147 2194 4147 
L 1259 4147 
z
M 628 4666 
L 2241 4666 
Q 2963 4666 3353 4366 
Q 3744 4066 3744 3513 
Q 3744 3084 3544 2831 
Q 3344 2578 2956 2516 
Q 3422 2416 3680 2098 
Q 3938 1781 3938 1306 
Q 3938 681 3513 340 
Q 3088 0 2303 0 
L 628 0 
L 628 4666 
z
" transform="scale(0.015625)"/>
       <path id="DejaVuSans-4e" d="M 628 4666 
L 1478 4666 
L 3547 763 
L 3547 4666 
L 4159 4666 
L 4159 0 
L 3309 0 
L 1241 3903 
L 1241 0 
L 628 0 
L 628 4666 
z
" transform="scale(0.015625)"/>
      </defs>
      <use xlink:href="#DejaVuSans-4d"/>
      <use xlink:href="#DejaVuSans-61" x="86.279297"/>
      <use xlink:href="#DejaVuSans-74" x="147.558594"/>
      <use xlink:href="#DejaVuSans-69" x="186.767578"/>
      <use xlink:href="#DejaVuSans-61" x="214.550781"/>
      <use xlink:href="#DejaVuSans-73" x="275.830078"/>
      <use xlink:href="#DejaVuSans-20" x="327.929688"/>
      <use xlink:href="#DejaVuSans-42" x="359.716797"/>
      <use xlink:href="#DejaVuSans-4e" x="428.320312"/>
     </g>
    </g>
    <g id="line2d_40">
     <path d="M 59.87 98.690938 
L 69.87 98.690938 
L 79.87 98.690938 
" style="fill: none; stroke: #9467bd; stroke-width: 1.5; stroke-linecap: square"/>
     <g>
      <use xlink:href="#m836bcb6162" x="69.87" y="98.690938" style="fill: #9467bd; stroke: #9467bd"/>
     </g>
    </g>
    <g id="text_20">
     <!-- Christian Gr -->
     <g transform="translate(87.87 102.190938) scale(0.1 -0.1)">
      <use xlink:href="#DejaVuSans-43"/>
      <use xlink:href="#DejaVuSans-68" x="69.824219"/>
      <use xlink:href="#DejaVuSans-72" x="133.203125"/>
      <use xlink:href="#DejaVuSans-69" x="174.316406"/>
      <use xlink:href="#DejaVuSans-73" x="202.099609"/>
      <use xlink:href="#DejaVuSans-74" x="254.199219"/>
      <use xlink:href="#DejaVuSans-69" x="293.408203"/>
      <use xlink:href="#DejaVuSans-61" x="321.191406"/>
      <use xlink:href="#DejaVuSans-6e" x="382.470703"/>
      <use xlink:href="#DejaVuSans-20" x="445.849609"/>
      <use xlink:href="#DejaVuSans-47" x="477.636719"/>
      <use xlink:href="#DejaVuSans-72" x="555.126953"/>
     </g>
    </g>
    <g id="line2d_41">
     <path d="M 59.87 113.369062 
L 69.87 113.369062 
L 79.87 113.369062 
" style="fill: none; stroke: #8c564b; stroke-width: 1.5; stroke-linecap: square"/>
     <g>
      <use xlink:href="#mc00e67df4b" x="69.87" y="113.369062" style="fill: #8c564b; stroke: #8c564b"/>
     </g>
    </g>
    <g id="text_21">
     <!-- Oscar En -->
     <g transform="translate(87.87 116.869062) scale(0.1 -0.1)">
      <defs>
       <path id="DejaVuSans-4f" d="M 2522 4238 
Q 1834 4238 1429 3725 
Q 1025 3213 1025 2328 
Q 1025 1447 1429 934 
Q 1834 422 2522 422 
Q 3209 422 3611 934 
Q 4013 1447 4013 2328 
Q 4013 3213 3611 3725 
Q 3209 4238 2522 4238 
z
M 2522 4750 
Q 3503 4750 4090 4092 
Q 4678 3434 4678 2328 
Q 4678 1225 4090 567 
Q 3503 -91 2522 -91 
Q 1538 -91 948 565 
Q 359 1222 359 2328 
Q 359 3434 948 4092 
Q 1538 4750 2522 4750 
z
" transform="scale(0.015625)"/>
       <path id="DejaVuSans-45" d="M 628 4666 
L 3578 4666 
L 3578 4134 
L 1259 4134 
L 1259 2753 
L 3481 2753 
L 3481 2222 
L 1259 2222 
L 1259 531 
L 3634 531 
L 3634 0 
L 628 0 
L 628 4666 
z
" transform="scale(0.015625)"/>
      </defs>
      <use xlink:href="#DejaVuSans-4f"/>
      <use xlink:href="#DejaVuSans-73" x="78.710938"/>
      <use xlink:href="#DejaVuSans-63" x="130.810547"/>
      <use xlink:href="#DejaVuSans-61" x="185.791016"/>
      <use xlink:href="#DejaVuSans-72" x="247.070312"/>
      <use xlink:href="#DejaVuSans-20" x="288.183594"/>
      <use xlink:href="#DejaVuSans-45" x="319.970703"/>
      <use xlink:href="#DejaVuSans-6e" x="383.154297"/>
     </g>
    </g>
    <g id="line2d_42">
     <path d="M 59.87 128.047187 
L 69.87 128.047187 
L 79.87 128.047187 
" style="fill: none; stroke: #e377c2; stroke-width: 1.5; stroke-linecap: square"/>
     <g>
      <use xlink:href="#mdd3bab2579" x="69.87" y="128.047187" style="fill: #e377c2; stroke: #e377c2"/>
     </g>
    </g>
    <g id="text_22">
     <!-- Bjarke Ha -->
     <g transform="translate(87.87 131.547187) scale(0.1 -0.1)">
      <defs>
       <path id="DejaVuSans-6a" d="M 603 3500 
L 1178 3500 
L 1178 -63 
Q 1178 -731 923 -1031 
Q 669 -1331 103 -1331 
L -116 -1331 
L -116 -844 
L 38 -844 
Q 366 -844 484 -692 
Q 603 -541 603 -63 
L 603 3500 
z
M 603 4863 
L 1178 4863 
L 1178 4134 
L 603 4134 
L 603 4863 
z
" transform="scale(0.015625)"/>
       <path id="DejaVuSans-6b" d="M 581 4863 
L 1159 4863 
L 1159 1991 
L 2875 3500 
L 3609 3500 
L 1753 1863 
L 3688 0 
L 2938 0 
L 1159 1709 
L 1159 0 
L 581 0 
L 581 4863 
z
" transform="scale(0.015625)"/>
       <path id="DejaVuSans-48" d="M 628 4666 
L 1259 4666 
L 1259 2753 
L 3553 2753 
L 3553 4666 
L 4184 4666 
L 4184 0 
L 3553 0 
L 3553 2222 
L 1259 2222 
L 1259 0 
L 628 0 
L 628 4666 
z
" transform="scale(0.015625)"/>
      </defs>
      <use xlink:href="#DejaVuSans-42"/>
      <use xlink:href="#DejaVuSans-6a" x="68.603516"/>
      <use xlink:href="#DejaVuSans-61" x="96.386719"/>
      <use xlink:href="#DejaVuSans-72" x="157.666016"/>
      <use xlink:href="#DejaVuSans-6b" x="198.779297"/>
      <use xlink:href="#DejaVuSans-65" x="253.064453"/>
      <use xlink:href="#DejaVuSans-20" x="314.587891"/>
      <use xlink:href="#DejaVuSans-48" x="346.375"/>
      <use xlink:href="#DejaVuSans-61" x="421.570312"/>
     </g>
    </g>
    <g id="line2d_43">
     <path d="M 59.87 142.725312 
L 69.87 142.725312 
L 79.87 142.725312 
" style="fill: none; stroke: #7f7f7f; stroke-width: 1.5; stroke-linecap: square"/>
     <g>
      <use xlink:href="#m7b1ea2250e" x="69.87" y="142.725312" style="fill: #7f7f7f; stroke: #7f7f7f"/>
     </g>
    </g>
    <g id="text_23">
     <!-- Sif Ma -->
     <g transform="translate(87.87 146.225312) scale(0.1 -0.1)">
      <defs>
       <path id="DejaVuSans-66" d="M 2375 4863 
L 2375 4384 
L 1825 4384 
Q 1516 4384 1395 4259 
Q 1275 4134 1275 3809 
L 1275 3500 
L 2222 3500 
L 2222 3053 
L 1275 3053 
L 1275 0 
L 697 0 
L 697 3053 
L 147 3053 
L 147 3500 
L 697 3500 
L 697 3744 
Q 697 4328 969 4595 
Q 1241 4863 1831 4863 
L 2375 4863 
z
" transform="scale(0.015625)"/>
      </defs>
      <use xlink:href="#DejaVuSans-53"/>
      <use xlink:href="#DejaVuSans-69" x="63.476562"/>
      <use xlink:href="#DejaVuSans-66" x="91.259766"/>
      <use xlink:href="#DejaVuSans-20" x="126.464844"/>
      <use xlink:href="#DejaVuSans-4d" x="158.251953"/>
      <use xlink:href="#DejaVuSans-61" x="244.53125"/>
     </g>
    </g>
    <g id="line2d_44">
     <path d="M 59.87 157.403437 
L 69.87 157.403437 
L 79.87 157.403437 
" style="fill: none; stroke: #bcbd22; stroke-width: 1.5; stroke-linecap: square"/>
     <g>
      <use xlink:href="#m41c0ba6094" x="69.87" y="157.403437" style="fill: #bcbd22; stroke: #bcbd22"/>
     </g>
    </g>
    <g id="text_24">
     <!-- Helene Cl -->
     <g transform="translate(87.87 160.903437) scale(0.1 -0.1)">
      <use xlink:href="#DejaVuSans-48"/>
      <use xlink:href="#DejaVuSans-65" x="75.195312"/>
      <use xlink:href="#DejaVuSans-6c" x="136.71875"/>
      <use xlink:href="#DejaVuSans-65" x="164.501953"/>
      <use xlink:href="#DejaVuSans-6e" x="226.025391"/>
      <use xlink:href="#DejaVuSans-65" x="289.404297"/>
      <use xlink:href="#DejaVuSans-20" x="350.927734"/>
      <use xlink:href="#DejaVuSans-43" x="382.714844"/>
      <use xlink:href="#DejaVuSans-6c" x="452.539062"/>
     </g>
    </g>
   </g>
  </g>
 </g>
 <defs>
  <clipPath id="p3571621905">
   <rect x="50.87" y="26.88" width="791.01472" height="377.24"/>
  </clipPath>
 </defs>
</svg>
