<?xml version="1.0" encoding="utf-8" standalone="no"?>
<!DOCTYPE svg PUBLIC "-//W3C//DTD SVG 1.1//EN"
  "http://www.w3.org/Graphics/SVG/1.1/DTD/svg11.dtd">
<svg xmlns:xlink="http://www.w3.org/1999/xlink" width="864pt" height="432pt" viewBox="0 0 864 432" xmlns="http://www.w3.org/2000/svg" version="1.1">
 <metadata>
  <rdf:RDF xmlns:dc="http://purl.org/dc/elements/1.1/" xmlns:cc="http://creativecommons.org/ns#" xmlns:rdf="http://www.w3.org/1999/02/22-rdf-syntax-ns#">
   <cc:Work>
    <dc:type rdf:resource="http://purl.org/dc/dcmitype/StillImage"/>
    <dc:date>2024-07-06T22:30:18.264693</dc:date>
    <dc:format>image/svg+xml</dc:format>
    <dc:creator>
     <cc:Agent>
      <dc:title>Matplotlib v3.9.1, https://matplotlib.org/</dc:title>
     </cc:Agent>
    </dc:creator>
   </cc:Work>
  </rdf:RDF>
 </metadata>
 <defs>
  <style type="text/css">*{stroke-linejoin: round; stroke-linecap: butt}</style>
 </defs>
 <g id="figure_1">
  <g id="patch_1">
   <path d="M 0 432 
L 864 432 
L 864 0 
L 0 0 
z
" style="fill: #ffffff"/>
  </g>
  <g id="axes_1">
   <g id="patch_2">
    <path d="M 50.87 404.12 
L 853.2 404.12 
L 853.2 26.88 
L 50.87 26.88 
z
" style="fill: #ffffff"/>
   </g>
   <g id="matplotlib.axis_1">
    <g id="xtick_1">
     <g id="line2d_1">
      <path d="M 54.185413 404.12 
L 54.185413 26.88 
" clip-path="url(#pc8b99cb91e)" style="fill: none; stroke-dasharray: 2.96,1.28; stroke-dashoffset: 0; stroke: #b0b0b0; stroke-width: 0.8"/>
     </g>
     <g id="line2d_2">
      <defs>
       <path id="m8c4b7a06f5" d="M 0 0 
L 0 3.5 
" style="stroke: #000000; stroke-width: 0.8"/>
      </defs>
      <g>
       <use xlink:href="#m8c4b7a06f5" x="54.185413" y="404.12" style="stroke: #000000; stroke-width: 0.8"/>
      </g>
     </g>
     <g id="text_1">
      <!-- 2024-06-13 -->
      <g transform="translate(25.127601 418.718437) scale(0.1 -0.1)">
       <defs>
        <path id="DejaVuSans-32" d="M 1228 531 
L 3431 531 
L 3431 0 
L 469 0 
L 469 531 
Q 828 903 1448 1529 
Q 2069 2156 2228 2338 
Q 2531 2678 2651 2914 
Q 2772 3150 2772 3378 
Q 2772 3750 2511 3984 
Q 2250 4219 1831 4219 
Q 1534 4219 1204 4116 
Q 875 4013 500 3803 
L 500 4441 
Q 881 4594 1212 4672 
Q 1544 4750 1819 4750 
Q 2544 4750 2975 4387 
Q 3406 4025 3406 3419 
Q 3406 3131 3298 2873 
Q 3191 2616 2906 2266 
Q 2828 2175 2409 1742 
Q 1991 1309 1228 531 
z
" transform="scale(0.015625)"/>
        <path id="DejaVuSans-30" d="M 2034 4250 
Q 1547 4250 1301 3770 
Q 1056 3291 1056 2328 
Q 1056 1369 1301 889 
Q 1547 409 2034 409 
Q 2525 409 2770 889 
Q 3016 1369 3016 2328 
Q 3016 3291 2770 3770 
Q 2525 4250 2034 4250 
z
M 2034 4750 
Q 2819 4750 3233 4129 
Q 3647 3509 3647 2328 
Q 3647 1150 3233 529 
Q 2819 -91 2034 -91 
Q 1250 -91 836 529 
Q 422 1150 422 2328 
Q 422 3509 836 4129 
Q 1250 4750 2034 4750 
z
" transform="scale(0.015625)"/>
        <path id="DejaVuSans-34" d="M 2419 4116 
L 825 1625 
L 2419 1625 
L 2419 4116 
z
M 2253 4666 
L 3047 4666 
L 3047 1625 
L 3713 1625 
L 3713 1100 
L 3047 1100 
L 3047 0 
L 2419 0 
L 2419 1100 
L 313 1100 
L 313 1709 
L 2253 4666 
z
" transform="scale(0.015625)"/>
        <path id="DejaVuSans-2d" d="M 313 2009 
L 1997 2009 
L 1997 1497 
L 313 1497 
L 313 2009 
z
" transform="scale(0.015625)"/>
        <path id="DejaVuSans-36" d="M 2113 2584 
Q 1688 2584 1439 2293 
Q 1191 2003 1191 1497 
Q 1191 994 1439 701 
Q 1688 409 2113 409 
Q 2538 409 2786 701 
Q 3034 994 3034 1497 
Q 3034 2003 2786 2293 
Q 2538 2584 2113 2584 
z
M 3366 4563 
L 3366 3988 
Q 3128 4100 2886 4159 
Q 2644 4219 2406 4219 
Q 1781 4219 1451 3797 
Q 1122 3375 1075 2522 
Q 1259 2794 1537 2939 
Q 1816 3084 2150 3084 
Q 2853 3084 3261 2657 
Q 3669 2231 3669 1497 
Q 3669 778 3244 343 
Q 2819 -91 2113 -91 
Q 1303 -91 875 529 
Q 447 1150 447 2328 
Q 447 3434 972 4092 
Q 1497 4750 2381 4750 
Q 2619 4750 2861 4703 
Q 3103 4656 3366 4563 
z
" transform="scale(0.015625)"/>
        <path id="DejaVuSans-31" d="M 794 531 
L 1825 531 
L 1825 4091 
L 703 3866 
L 703 4441 
L 1819 4666 
L 2450 4666 
L 2450 531 
L 3481 531 
L 3481 0 
L 794 0 
L 794 531 
z
" transform="scale(0.015625)"/>
        <path id="DejaVuSans-33" d="M 2597 2516 
Q 3050 2419 3304 2112 
Q 3559 1806 3559 1356 
Q 3559 666 3084 287 
Q 2609 -91 1734 -91 
Q 1441 -91 1130 -33 
Q 819 25 488 141 
L 488 750 
Q 750 597 1062 519 
Q 1375 441 1716 441 
Q 2309 441 2620 675 
Q 2931 909 2931 1356 
Q 2931 1769 2642 2001 
Q 2353 2234 1838 2234 
L 1294 2234 
L 1294 2753 
L 1863 2753 
Q 2328 2753 2575 2939 
Q 2822 3125 2822 3475 
Q 2822 3834 2567 4026 
Q 2313 4219 1838 4219 
Q 1578 4219 1281 4162 
Q 984 4106 628 3988 
L 628 4550 
Q 988 4650 1302 4700 
Q 1616 4750 1894 4750 
Q 2613 4750 3031 4423 
Q 3450 4097 3450 3541 
Q 3450 3153 3228 2886 
Q 3006 2619 2597 2516 
z
" transform="scale(0.015625)"/>
       </defs>
       <use xlink:href="#DejaVuSans-32"/>
       <use xlink:href="#DejaVuSans-30" x="63.623047"/>
       <use xlink:href="#DejaVuSans-32" x="127.246094"/>
       <use xlink:href="#DejaVuSans-34" x="190.869141"/>
       <use xlink:href="#DejaVuSans-2d" x="254.492188"/>
       <use xlink:href="#DejaVuSans-30" x="290.576172"/>
       <use xlink:href="#DejaVuSans-36" x="354.199219"/>
       <use xlink:href="#DejaVuSans-2d" x="417.822266"/>
       <use xlink:href="#DejaVuSans-31" x="453.90625"/>
       <use xlink:href="#DejaVuSans-33" x="517.529297"/>
      </g>
     </g>
    </g>
    <g id="xtick_2">
     <g id="line2d_3">
      <path d="M 186.801942 404.12 
L 186.801942 26.88 
" clip-path="url(#pc8b99cb91e)" style="fill: none; stroke-dasharray: 2.96,1.28; stroke-dashoffset: 0; stroke: #b0b0b0; stroke-width: 0.8"/>
     </g>
     <g id="line2d_4">
      <g>
       <use xlink:href="#m8c4b7a06f5" x="186.801942" y="404.12" style="stroke: #000000; stroke-width: 0.8"/>
      </g>
     </g>
     <g id="text_2">
      <!-- 2024-06-17 -->
      <g transform="translate(157.74413 418.718437) scale(0.1 -0.1)">
       <defs>
        <path id="DejaVuSans-37" d="M 525 4666 
L 3525 4666 
L 3525 4397 
L 1831 0 
L 1172 0 
L 2766 4134 
L 525 4134 
L 525 4666 
z
" transform="scale(0.015625)"/>
       </defs>
       <use xlink:href="#DejaVuSans-32"/>
       <use xlink:href="#DejaVuSans-30" x="63.623047"/>
       <use xlink:href="#DejaVuSans-32" x="127.246094"/>
       <use xlink:href="#DejaVuSans-34" x="190.869141"/>
       <use xlink:href="#DejaVuSans-2d" x="254.492188"/>
       <use xlink:href="#DejaVuSans-30" x="290.576172"/>
       <use xlink:href="#DejaVuSans-36" x="354.199219"/>
       <use xlink:href="#DejaVuSans-2d" x="417.822266"/>
       <use xlink:href="#DejaVuSans-31" x="453.90625"/>
       <use xlink:href="#DejaVuSans-37" x="517.529297"/>
      </g>
     </g>
    </g>
    <g id="xtick_3">
     <g id="line2d_5">
      <path d="M 319.418471 404.12 
L 319.418471 26.88 
" clip-path="url(#pc8b99cb91e)" style="fill: none; stroke-dasharray: 2.96,1.28; stroke-dashoffset: 0; stroke: #b0b0b0; stroke-width: 0.8"/>
     </g>
     <g id="line2d_6">
      <g>
       <use xlink:href="#m8c4b7a06f5" x="319.418471" y="404.12" style="stroke: #000000; stroke-width: 0.8"/>
      </g>
     </g>
     <g id="text_3">
      <!-- 2024-06-21 -->
      <g transform="translate(290.360659 418.718437) scale(0.1 -0.1)">
       <use xlink:href="#DejaVuSans-32"/>
       <use xlink:href="#DejaVuSans-30" x="63.623047"/>
       <use xlink:href="#DejaVuSans-32" x="127.246094"/>
       <use xlink:href="#DejaVuSans-34" x="190.869141"/>
       <use xlink:href="#DejaVuSans-2d" x="254.492188"/>
       <use xlink:href="#DejaVuSans-30" x="290.576172"/>
       <use xlink:href="#DejaVuSans-36" x="354.199219"/>
       <use xlink:href="#DejaVuSans-2d" x="417.822266"/>
       <use xlink:href="#DejaVuSans-32" x="453.90625"/>
       <use xlink:href="#DejaVuSans-31" x="517.529297"/>
      </g>
     </g>
    </g>
    <g id="xtick_4">
     <g id="line2d_7">
      <path d="M 452.035 404.12 
L 452.035 26.88 
" clip-path="url(#pc8b99cb91e)" style="fill: none; stroke-dasharray: 2.96,1.28; stroke-dashoffset: 0; stroke: #b0b0b0; stroke-width: 0.8"/>
     </g>
     <g id="line2d_8">
      <g>
       <use xlink:href="#m8c4b7a06f5" x="452.035" y="404.12" style="stroke: #000000; stroke-width: 0.8"/>
      </g>
     </g>
     <g id="text_4">
      <!-- 2024-06-25 -->
      <g transform="translate(422.977187 418.718437) scale(0.1 -0.1)">
       <defs>
        <path id="DejaVuSans-35" d="M 691 4666 
L 3169 4666 
L 3169 4134 
L 1269 4134 
L 1269 2991 
Q 1406 3038 1543 3061 
Q 1681 3084 1819 3084 
Q 2600 3084 3056 2656 
Q 3513 2228 3513 1497 
Q 3513 744 3044 326 
Q 2575 -91 1722 -91 
Q 1428 -91 1123 -41 
Q 819 9 494 109 
L 494 744 
Q 775 591 1075 516 
Q 1375 441 1709 441 
Q 2250 441 2565 725 
Q 2881 1009 2881 1497 
Q 2881 1984 2565 2268 
Q 2250 2553 1709 2553 
Q 1456 2553 1204 2497 
Q 953 2441 691 2322 
L 691 4666 
z
" transform="scale(0.015625)"/>
       </defs>
       <use xlink:href="#DejaVuSans-32"/>
       <use xlink:href="#DejaVuSans-30" x="63.623047"/>
       <use xlink:href="#DejaVuSans-32" x="127.246094"/>
       <use xlink:href="#DejaVuSans-34" x="190.869141"/>
       <use xlink:href="#DejaVuSans-2d" x="254.492188"/>
       <use xlink:href="#DejaVuSans-30" x="290.576172"/>
       <use xlink:href="#DejaVuSans-36" x="354.199219"/>
       <use xlink:href="#DejaVuSans-2d" x="417.822266"/>
       <use xlink:href="#DejaVuSans-32" x="453.90625"/>
       <use xlink:href="#DejaVuSans-35" x="517.529297"/>
      </g>
     </g>
    </g>
    <g id="xtick_5">
     <g id="line2d_9">
      <path d="M 584.651529 404.12 
L 584.651529 26.88 
" clip-path="url(#pc8b99cb91e)" style="fill: none; stroke-dasharray: 2.96,1.28; stroke-dashoffset: 0; stroke: #b0b0b0; stroke-width: 0.8"/>
     </g>
     <g id="line2d_10">
      <g>
       <use xlink:href="#m8c4b7a06f5" x="584.651529" y="404.12" style="stroke: #000000; stroke-width: 0.8"/>
      </g>
     </g>
     <g id="text_5">
      <!-- 2024-06-29 -->
      <g transform="translate(555.593716 418.718437) scale(0.1 -0.1)">
       <defs>
        <path id="DejaVuSans-39" d="M 703 97 
L 703 672 
Q 941 559 1184 500 
Q 1428 441 1663 441 
Q 2288 441 2617 861 
Q 2947 1281 2994 2138 
Q 2813 1869 2534 1725 
Q 2256 1581 1919 1581 
Q 1219 1581 811 2004 
Q 403 2428 403 3163 
Q 403 3881 828 4315 
Q 1253 4750 1959 4750 
Q 2769 4750 3195 4129 
Q 3622 3509 3622 2328 
Q 3622 1225 3098 567 
Q 2575 -91 1691 -91 
Q 1453 -91 1209 -44 
Q 966 3 703 97 
z
M 1959 2075 
Q 2384 2075 2632 2365 
Q 2881 2656 2881 3163 
Q 2881 3666 2632 3958 
Q 2384 4250 1959 4250 
Q 1534 4250 1286 3958 
Q 1038 3666 1038 3163 
Q 1038 2656 1286 2365 
Q 1534 2075 1959 2075 
z
" transform="scale(0.015625)"/>
       </defs>
       <use xlink:href="#DejaVuSans-32"/>
       <use xlink:href="#DejaVuSans-30" x="63.623047"/>
       <use xlink:href="#DejaVuSans-32" x="127.246094"/>
       <use xlink:href="#DejaVuSans-34" x="190.869141"/>
       <use xlink:href="#DejaVuSans-2d" x="254.492188"/>
       <use xlink:href="#DejaVuSans-30" x="290.576172"/>
       <use xlink:href="#DejaVuSans-36" x="354.199219"/>
       <use xlink:href="#DejaVuSans-2d" x="417.822266"/>
       <use xlink:href="#DejaVuSans-32" x="453.90625"/>
       <use xlink:href="#DejaVuSans-39" x="517.529297"/>
      </g>
     </g>
    </g>
    <g id="xtick_6">
     <g id="line2d_11">
      <path d="M 650.959793 404.12 
L 650.959793 26.88 
" clip-path="url(#pc8b99cb91e)" style="fill: none; stroke-dasharray: 2.96,1.28; stroke-dashoffset: 0; stroke: #b0b0b0; stroke-width: 0.8"/>
     </g>
     <g id="line2d_12">
      <g>
       <use xlink:href="#m8c4b7a06f5" x="650.959793" y="404.12" style="stroke: #000000; stroke-width: 0.8"/>
      </g>
     </g>
     <g id="text_6">
      <!-- 2024-07-01 -->
      <g transform="translate(621.901981 418.718437) scale(0.1 -0.1)">
       <use xlink:href="#DejaVuSans-32"/>
       <use xlink:href="#DejaVuSans-30" x="63.623047"/>
       <use xlink:href="#DejaVuSans-32" x="127.246094"/>
       <use xlink:href="#DejaVuSans-34" x="190.869141"/>
       <use xlink:href="#DejaVuSans-2d" x="254.492188"/>
       <use xlink:href="#DejaVuSans-30" x="290.576172"/>
       <use xlink:href="#DejaVuSans-37" x="354.199219"/>
       <use xlink:href="#DejaVuSans-2d" x="417.822266"/>
       <use xlink:href="#DejaVuSans-30" x="453.90625"/>
       <use xlink:href="#DejaVuSans-31" x="517.529297"/>
      </g>
     </g>
    </g>
    <g id="xtick_7">
     <g id="line2d_13">
      <path d="M 783.576322 404.12 
L 783.576322 26.88 
" clip-path="url(#pc8b99cb91e)" style="fill: none; stroke-dasharray: 2.96,1.28; stroke-dashoffset: 0; stroke: #b0b0b0; stroke-width: 0.8"/>
     </g>
     <g id="line2d_14">
      <g>
       <use xlink:href="#m8c4b7a06f5" x="783.576322" y="404.12" style="stroke: #000000; stroke-width: 0.8"/>
      </g>
     </g>
     <g id="text_7">
      <!-- 2024-07-05 -->
      <g transform="translate(754.51851 418.718437) scale(0.1 -0.1)">
       <use xlink:href="#DejaVuSans-32"/>
       <use xlink:href="#DejaVuSans-30" x="63.623047"/>
       <use xlink:href="#DejaVuSans-32" x="127.246094"/>
       <use xlink:href="#DejaVuSans-34" x="190.869141"/>
       <use xlink:href="#DejaVuSans-2d" x="254.492188"/>
       <use xlink:href="#DejaVuSans-30" x="290.576172"/>
       <use xlink:href="#DejaVuSans-37" x="354.199219"/>
       <use xlink:href="#DejaVuSans-2d" x="417.822266"/>
       <use xlink:href="#DejaVuSans-30" x="453.90625"/>
       <use xlink:href="#DejaVuSans-35" x="517.529297"/>
      </g>
     </g>
    </g>
   </g>
   <g id="matplotlib.axis_2">
    <g id="ytick_1">
     <g id="line2d_15">
      <path d="M 50.87 393.830132 
L 853.2 393.830132 
" clip-path="url(#pc8b99cb91e)" style="fill: none; stroke-dasharray: 2.96,1.28; stroke-dashoffset: 0; stroke: #b0b0b0; stroke-width: 0.8"/>
     </g>
     <g id="line2d_16">
      <defs>
       <path id="m8ae15e3f4f" d="M 0 0 
L -3.5 0 
" style="stroke: #000000; stroke-width: 0.8"/>
      </defs>
      <g>
       <use xlink:href="#m8ae15e3f4f" x="50.87" y="393.830132" style="stroke: #000000; stroke-width: 0.8"/>
      </g>
     </g>
     <g id="text_8">
      <!-- 0 -->
      <g transform="translate(37.5075 397.629351) scale(0.1 -0.1)">
       <use xlink:href="#DejaVuSans-30"/>
      </g>
     </g>
    </g>
    <g id="ytick_2">
     <g id="line2d_17">
      <path d="M 50.87 323.883918 
L 853.2 323.883918 
" clip-path="url(#pc8b99cb91e)" style="fill: none; stroke-dasharray: 2.96,1.28; stroke-dashoffset: 0; stroke: #b0b0b0; stroke-width: 0.8"/>
     </g>
     <g id="line2d_18">
      <g>
       <use xlink:href="#m8ae15e3f4f" x="50.87" y="323.883918" style="stroke: #000000; stroke-width: 0.8"/>
      </g>
     </g>
     <g id="text_9">
      <!-- 50 -->
      <g transform="translate(31.145 327.683137) scale(0.1 -0.1)">
       <use xlink:href="#DejaVuSans-35"/>
       <use xlink:href="#DejaVuSans-30" x="63.623047"/>
      </g>
     </g>
    </g>
    <g id="ytick_3">
     <g id="line2d_19">
      <path d="M 50.87 253.937703 
L 853.2 253.937703 
" clip-path="url(#pc8b99cb91e)" style="fill: none; stroke-dasharray: 2.96,1.28; stroke-dashoffset: 0; stroke: #b0b0b0; stroke-width: 0.8"/>
     </g>
     <g id="line2d_20">
      <g>
       <use xlink:href="#m8ae15e3f4f" x="50.87" y="253.937703" style="stroke: #000000; stroke-width: 0.8"/>
      </g>
     </g>
     <g id="text_10">
      <!-- 100 -->
      <g transform="translate(24.7825 257.736922) scale(0.1 -0.1)">
       <use xlink:href="#DejaVuSans-31"/>
       <use xlink:href="#DejaVuSans-30" x="63.623047"/>
       <use xlink:href="#DejaVuSans-30" x="127.246094"/>
      </g>
     </g>
    </g>
    <g id="ytick_4">
     <g id="line2d_21">
      <path d="M 50.87 183.991488 
L 853.2 183.991488 
" clip-path="url(#pc8b99cb91e)" style="fill: none; stroke-dasharray: 2.96,1.28; stroke-dashoffset: 0; stroke: #b0b0b0; stroke-width: 0.8"/>
     </g>
     <g id="line2d_22">
      <g>
       <use xlink:href="#m8ae15e3f4f" x="50.87" y="183.991488" style="stroke: #000000; stroke-width: 0.8"/>
      </g>
     </g>
     <g id="text_11">
      <!-- 150 -->
      <g transform="translate(24.7825 187.790707) scale(0.1 -0.1)">
       <use xlink:href="#DejaVuSans-31"/>
       <use xlink:href="#DejaVuSans-35" x="63.623047"/>
       <use xlink:href="#DejaVuSans-30" x="127.246094"/>
      </g>
     </g>
    </g>
    <g id="ytick_5">
     <g id="line2d_23">
      <path d="M 50.87 114.045274 
L 853.2 114.045274 
" clip-path="url(#pc8b99cb91e)" style="fill: none; stroke-dasharray: 2.96,1.28; stroke-dashoffset: 0; stroke: #b0b0b0; stroke-width: 0.8"/>
     </g>
     <g id="line2d_24">
      <g>
       <use xlink:href="#m8ae15e3f4f" x="50.87" y="114.045274" style="stroke: #000000; stroke-width: 0.8"/>
      </g>
     </g>
     <g id="text_12">
      <!-- 200 -->
      <g transform="translate(24.7825 117.844492) scale(0.1 -0.1)">
       <use xlink:href="#DejaVuSans-32"/>
       <use xlink:href="#DejaVuSans-30" x="63.623047"/>
       <use xlink:href="#DejaVuSans-30" x="127.246094"/>
      </g>
     </g>
    </g>
    <g id="ytick_6">
     <g id="line2d_25">
      <path d="M 50.87 44.099059 
L 853.2 44.099059 
" clip-path="url(#pc8b99cb91e)" style="fill: none; stroke-dasharray: 2.96,1.28; stroke-dashoffset: 0; stroke: #b0b0b0; stroke-width: 0.8"/>
     </g>
     <g id="line2d_26">
      <g>
       <use xlink:href="#m8ae15e3f4f" x="50.87" y="44.099059" style="stroke: #000000; stroke-width: 0.8"/>
      </g>
     </g>
     <g id="text_13">
      <!-- 250 -->
      <g transform="translate(24.7825 47.898278) scale(0.1 -0.1)">
       <use xlink:href="#DejaVuSans-32"/>
       <use xlink:href="#DejaVuSans-35" x="63.623047"/>
       <use xlink:href="#DejaVuSans-30" x="127.246094"/>
      </g>
     </g>
    </g>
    <g id="text_14">
     <!-- Score -->
     <g transform="translate(18.702813 229.502344) rotate(-90) scale(0.1 -0.1)">
      <defs>
       <path id="DejaVuSans-53" d="M 3425 4513 
L 3425 3897 
Q 3066 4069 2747 4153 
Q 2428 4238 2131 4238 
Q 1616 4238 1336 4038 
Q 1056 3838 1056 3469 
Q 1056 3159 1242 3001 
Q 1428 2844 1947 2747 
L 2328 2669 
Q 3034 2534 3370 2195 
Q 3706 1856 3706 1288 
Q 3706 609 3251 259 
Q 2797 -91 1919 -91 
Q 1588 -91 1214 -16 
Q 841 59 441 206 
L 441 856 
Q 825 641 1194 531 
Q 1563 422 1919 422 
Q 2459 422 2753 634 
Q 3047 847 3047 1241 
Q 3047 1584 2836 1778 
Q 2625 1972 2144 2069 
L 1759 2144 
Q 1053 2284 737 2584 
Q 422 2884 422 3419 
Q 422 4038 858 4394 
Q 1294 4750 2059 4750 
Q 2388 4750 2728 4690 
Q 3069 4631 3425 4513 
z
" transform="scale(0.015625)"/>
       <path id="DejaVuSans-63" d="M 3122 3366 
L 3122 2828 
Q 2878 2963 2633 3030 
Q 2388 3097 2138 3097 
Q 1578 3097 1268 2742 
Q 959 2388 959 1747 
Q 959 1106 1268 751 
Q 1578 397 2138 397 
Q 2388 397 2633 464 
Q 2878 531 3122 666 
L 3122 134 
Q 2881 22 2623 -34 
Q 2366 -91 2075 -91 
Q 1284 -91 818 406 
Q 353 903 353 1747 
Q 353 2603 823 3093 
Q 1294 3584 2113 3584 
Q 2378 3584 2631 3529 
Q 2884 3475 3122 3366 
z
" transform="scale(0.015625)"/>
       <path id="DejaVuSans-6f" d="M 1959 3097 
Q 1497 3097 1228 2736 
Q 959 2375 959 1747 
Q 959 1119 1226 758 
Q 1494 397 1959 397 
Q 2419 397 2687 759 
Q 2956 1122 2956 1747 
Q 2956 2369 2687 2733 
Q 2419 3097 1959 3097 
z
M 1959 3584 
Q 2709 3584 3137 3096 
Q 3566 2609 3566 1747 
Q 3566 888 3137 398 
Q 2709 -91 1959 -91 
Q 1206 -91 779 398 
Q 353 888 353 1747 
Q 353 2609 779 3096 
Q 1206 3584 1959 3584 
z
" transform="scale(0.015625)"/>
       <path id="DejaVuSans-72" d="M 2631 2963 
Q 2534 3019 2420 3045 
Q 2306 3072 2169 3072 
Q 1681 3072 1420 2755 
Q 1159 2438 1159 1844 
L 1159 0 
L 581 0 
L 581 3500 
L 1159 3500 
L 1159 2956 
Q 1341 3275 1631 3429 
Q 1922 3584 2338 3584 
Q 2397 3584 2469 3576 
Q 2541 3569 2628 3553 
L 2631 2963 
z
" transform="scale(0.015625)"/>
       <path id="DejaVuSans-65" d="M 3597 1894 
L 3597 1613 
L 953 1613 
Q 991 1019 1311 708 
Q 1631 397 2203 397 
Q 2534 397 2845 478 
Q 3156 559 3463 722 
L 3463 178 
Q 3153 47 2828 -22 
Q 2503 -91 2169 -91 
Q 1331 -91 842 396 
Q 353 884 353 1716 
Q 353 2575 817 3079 
Q 1281 3584 2069 3584 
Q 2775 3584 3186 3129 
Q 3597 2675 3597 1894 
z
M 3022 2063 
Q 3016 2534 2758 2815 
Q 2500 3097 2075 3097 
Q 1594 3097 1305 2825 
Q 1016 2553 972 2059 
L 3022 2063 
z
" transform="scale(0.015625)"/>
      </defs>
      <use xlink:href="#DejaVuSans-53"/>
      <use xlink:href="#DejaVuSans-63" x="63.476562"/>
      <use xlink:href="#DejaVuSans-6f" x="118.457031"/>
      <use xlink:href="#DejaVuSans-72" x="179.638672"/>
      <use xlink:href="#DejaVuSans-65" x="218.501953"/>
     </g>
    </g>
   </g>
   <g id="line2d_27">
    <path d="M 87.339545 379.725871 
L 120.493678 365.736628 
L 153.64781 337.758142 
L 186.801942 323.768899 
L 219.956074 302.785034 
L 253.110207 285.997943 
L 286.264339 255.221608 
L 319.418471 231.439895 
L 352.572603 203.46141 
L 385.726736 176.881848 
L 418.880868 153.100135 
L 452.035 137.711968 
L 485.189132 57.973283 
L 584.651529 57.973283 
L 617.805661 57.973283 
L 650.959793 57.973283 
L 684.113926 57.973283 
L 717.268058 57.973283 
L 783.576322 57.973283 
L 816.730455 57.973283 
" clip-path="url(#pc8b99cb91e)" style="fill: none; stroke: #1f77b4; stroke-width: 1.5; stroke-linecap: square"/>
    <defs>
     <path id="ma86104c7c2" d="M 0 3.5 
C 0.928211 3.5 1.81853 3.131218 2.474874 2.474874 
C 3.131218 1.81853 3.5 0.928211 3.5 0 
C 3.5 -0.928211 3.131218 -1.81853 2.474874 -2.474874 
C 1.81853 -3.131218 0.928211 -3.5 0 -3.5 
C -0.928211 -3.5 -1.81853 -3.131218 -2.474874 -2.474874 
C -3.131218 -1.81853 -3.5 -0.928211 -3.5 0 
C -3.5 0.928211 -3.131218 1.81853 -2.474874 2.474874 
C -1.81853 3.131218 -0.928211 3.5 0 3.5 
z
" style="stroke: #1f77b4"/>
    </defs>
    <g clip-path="url(#pc8b99cb91e)">
     <use xlink:href="#ma86104c7c2" x="87.339545" y="379.725871" style="fill: #1f77b4; stroke: #1f77b4"/>
     <use xlink:href="#ma86104c7c2" x="120.493678" y="365.736628" style="fill: #1f77b4; stroke: #1f77b4"/>
     <use xlink:href="#ma86104c7c2" x="153.64781" y="337.758142" style="fill: #1f77b4; stroke: #1f77b4"/>
     <use xlink:href="#ma86104c7c2" x="186.801942" y="323.768899" style="fill: #1f77b4; stroke: #1f77b4"/>
     <use xlink:href="#ma86104c7c2" x="219.956074" y="302.785034" style="fill: #1f77b4; stroke: #1f77b4"/>
     <use xlink:href="#ma86104c7c2" x="253.110207" y="285.997943" style="fill: #1f77b4; stroke: #1f77b4"/>
     <use xlink:href="#ma86104c7c2" x="286.264339" y="255.221608" style="fill: #1f77b4; stroke: #1f77b4"/>
     <use xlink:href="#ma86104c7c2" x="319.418471" y="231.439895" style="fill: #1f77b4; stroke: #1f77b4"/>
     <use xlink:href="#ma86104c7c2" x="352.572603" y="203.46141" style="fill: #1f77b4; stroke: #1f77b4"/>
     <use xlink:href="#ma86104c7c2" x="385.726736" y="176.881848" style="fill: #1f77b4; stroke: #1f77b4"/>
     <use xlink:href="#ma86104c7c2" x="418.880868" y="153.100135" style="fill: #1f77b4; stroke: #1f77b4"/>
     <use xlink:href="#ma86104c7c2" x="452.035" y="137.711968" style="fill: #1f77b4; stroke: #1f77b4"/>
     <use xlink:href="#ma86104c7c2" x="485.189132" y="57.973283" style="fill: #1f77b4; stroke: #1f77b4"/>
     <use xlink:href="#ma86104c7c2" x="584.651529" y="57.973283" style="fill: #1f77b4; stroke: #1f77b4"/>
     <use xlink:href="#ma86104c7c2" x="617.805661" y="57.973283" style="fill: #1f77b4; stroke: #1f77b4"/>
     <use xlink:href="#ma86104c7c2" x="650.959793" y="57.973283" style="fill: #1f77b4; stroke: #1f77b4"/>
     <use xlink:href="#ma86104c7c2" x="684.113926" y="57.973283" style="fill: #1f77b4; stroke: #1f77b4"/>
     <use xlink:href="#ma86104c7c2" x="717.268058" y="57.973283" style="fill: #1f77b4; stroke: #1f77b4"/>
     <use xlink:href="#ma86104c7c2" x="783.576322" y="57.973283" style="fill: #1f77b4; stroke: #1f77b4"/>
     <use xlink:href="#ma86104c7c2" x="816.730455" y="57.973283" style="fill: #1f77b4; stroke: #1f77b4"/>
    </g>
   </g>
   <g id="line2d_28">
    <path d="M 87.339545 379.95494 
L 120.493678 365.965697 
L 153.64781 321.200119 
L 186.801942 297.418406 
L 219.956074 262.445299 
L 253.110207 241.461435 
L 286.264339 224.674343 
L 319.418471 216.280797 
L 352.572603 195.296933 
L 385.726736 195.296933 
L 418.880868 171.51522 
L 452.035 158.924901 
L 485.189132 100.170081 
L 584.651529 100.170081 
L 617.805661 100.170081 
L 650.959793 100.170081 
L 684.113926 100.170081 
L 717.268058 100.170081 
L 783.576322 100.170081 
L 816.730455 100.170081 
" clip-path="url(#pc8b99cb91e)" style="fill: none; stroke: #ff7f0e; stroke-width: 1.5; stroke-linecap: square"/>
    <defs>
     <path id="m44986f71f2" d="M 0 3.5 
C 0.928211 3.5 1.81853 3.131218 2.474874 2.474874 
C 3.131218 1.81853 3.5 0.928211 3.5 0 
C 3.5 -0.928211 3.131218 -1.81853 2.474874 -2.474874 
C 1.81853 -3.131218 0.928211 -3.5 0 -3.5 
C -0.928211 -3.5 -1.81853 -3.131218 -2.474874 -2.474874 
C -3.131218 -1.81853 -3.5 -0.928211 -3.5 0 
C -3.5 0.928211 -3.131218 1.81853 -2.474874 2.474874 
C -1.81853 3.131218 -0.928211 3.5 0 3.5 
z
" style="stroke: #ff7f0e"/>
    </defs>
    <g clip-path="url(#pc8b99cb91e)">
     <use xlink:href="#m44986f71f2" x="87.339545" y="379.95494" style="fill: #ff7f0e; stroke: #ff7f0e"/>
     <use xlink:href="#m44986f71f2" x="120.493678" y="365.965697" style="fill: #ff7f0e; stroke: #ff7f0e"/>
     <use xlink:href="#m44986f71f2" x="153.64781" y="321.200119" style="fill: #ff7f0e; stroke: #ff7f0e"/>
     <use xlink:href="#m44986f71f2" x="186.801942" y="297.418406" style="fill: #ff7f0e; stroke: #ff7f0e"/>
     <use xlink:href="#m44986f71f2" x="219.956074" y="262.445299" style="fill: #ff7f0e; stroke: #ff7f0e"/>
     <use xlink:href="#m44986f71f2" x="253.110207" y="241.461435" style="fill: #ff7f0e; stroke: #ff7f0e"/>
     <use xlink:href="#m44986f71f2" x="286.264339" y="224.674343" style="fill: #ff7f0e; stroke: #ff7f0e"/>
     <use xlink:href="#m44986f71f2" x="319.418471" y="216.280797" style="fill: #ff7f0e; stroke: #ff7f0e"/>
     <use xlink:href="#m44986f71f2" x="352.572603" y="195.296933" style="fill: #ff7f0e; stroke: #ff7f0e"/>
     <use xlink:href="#m44986f71f2" x="385.726736" y="195.296933" style="fill: #ff7f0e; stroke: #ff7f0e"/>
     <use xlink:href="#m44986f71f2" x="418.880868" y="171.51522" style="fill: #ff7f0e; stroke: #ff7f0e"/>
     <use xlink:href="#m44986f71f2" x="452.035" y="158.924901" style="fill: #ff7f0e; stroke: #ff7f0e"/>
     <use xlink:href="#m44986f71f2" x="485.189132" y="100.170081" style="fill: #ff7f0e; stroke: #ff7f0e"/>
     <use xlink:href="#m44986f71f2" x="584.651529" y="100.170081" style="fill: #ff7f0e; stroke: #ff7f0e"/>
     <use xlink:href="#m44986f71f2" x="617.805661" y="100.170081" style="fill: #ff7f0e; stroke: #ff7f0e"/>
     <use xlink:href="#m44986f71f2" x="650.959793" y="100.170081" style="fill: #ff7f0e; stroke: #ff7f0e"/>
     <use xlink:href="#m44986f71f2" x="684.113926" y="100.170081" style="fill: #ff7f0e; stroke: #ff7f0e"/>
     <use xlink:href="#m44986f71f2" x="717.268058" y="100.170081" style="fill: #ff7f0e; stroke: #ff7f0e"/>
     <use xlink:href="#m44986f71f2" x="783.576322" y="100.170081" style="fill: #ff7f0e; stroke: #ff7f0e"/>
     <use xlink:href="#m44986f71f2" x="816.730455" y="100.170081" style="fill: #ff7f0e; stroke: #ff7f0e"/>
    </g>
   </g>
   <g id="line2d_29">
    <path d="M 87.339545 386.701124 
L 120.493678 369.914032 
L 153.64781 332.143076 
L 186.801942 304.16459 
L 219.956074 283.180726 
L 253.110207 262.196862 
L 286.264339 227.223754 
L 319.418471 214.633436 
L 352.572603 186.65495 
L 385.726736 162.873237 
L 418.880868 134.894751 
L 452.035 112.511962 
L 485.189132 71.943158 
L 584.651529 71.943158 
L 617.805661 71.943158 
L 650.959793 71.943158 
L 684.113926 71.943158 
L 717.268058 71.943158 
L 783.576322 71.943158 
L 816.730455 71.943158 
" clip-path="url(#pc8b99cb91e)" style="fill: none; stroke: #2ca02c; stroke-width: 1.5; stroke-linecap: square"/>
    <defs>
     <path id="m2b38388cf9" d="M 0 3.5 
C 0.928211 3.5 1.81853 3.131218 2.474874 2.474874 
C 3.131218 1.81853 3.5 0.928211 3.5 0 
C 3.5 -0.928211 3.131218 -1.81853 2.474874 -2.474874 
C 1.81853 -3.131218 0.928211 -3.5 0 -3.5 
C -0.928211 -3.5 -1.81853 -3.131218 -2.474874 -2.474874 
C -3.131218 -1.81853 -3.5 -0.928211 -3.5 0 
C -3.5 0.928211 -3.131218 1.81853 -2.474874 2.474874 
C -1.81853 3.131218 -0.928211 3.5 0 3.5 
z
" style="stroke: #2ca02c"/>
    </defs>
    <g clip-path="url(#pc8b99cb91e)">
     <use xlink:href="#m2b38388cf9" x="87.339545" y="386.701124" style="fill: #2ca02c; stroke: #2ca02c"/>
     <use xlink:href="#m2b38388cf9" x="120.493678" y="369.914032" style="fill: #2ca02c; stroke: #2ca02c"/>
     <use xlink:href="#m2b38388cf9" x="153.64781" y="332.143076" style="fill: #2ca02c; stroke: #2ca02c"/>
     <use xlink:href="#m2b38388cf9" x="186.801942" y="304.16459" style="fill: #2ca02c; stroke: #2ca02c"/>
     <use xlink:href="#m2b38388cf9" x="219.956074" y="283.180726" style="fill: #2ca02c; stroke: #2ca02c"/>
     <use xlink:href="#m2b38388cf9" x="253.110207" y="262.196862" style="fill: #2ca02c; stroke: #2ca02c"/>
     <use xlink:href="#m2b38388cf9" x="286.264339" y="227.223754" style="fill: #2ca02c; stroke: #2ca02c"/>
     <use xlink:href="#m2b38388cf9" x="319.418471" y="214.633436" style="fill: #2ca02c; stroke: #2ca02c"/>
     <use xlink:href="#m2b38388cf9" x="352.572603" y="186.65495" style="fill: #2ca02c; stroke: #2ca02c"/>
     <use xlink:href="#m2b38388cf9" x="385.726736" y="162.873237" style="fill: #2ca02c; stroke: #2ca02c"/>
     <use xlink:href="#m2b38388cf9" x="418.880868" y="134.894751" style="fill: #2ca02c; stroke: #2ca02c"/>
     <use xlink:href="#m2b38388cf9" x="452.035" y="112.511962" style="fill: #2ca02c; stroke: #2ca02c"/>
     <use xlink:href="#m2b38388cf9" x="485.189132" y="71.943158" style="fill: #2ca02c; stroke: #2ca02c"/>
     <use xlink:href="#m2b38388cf9" x="584.651529" y="71.943158" style="fill: #2ca02c; stroke: #2ca02c"/>
     <use xlink:href="#m2b38388cf9" x="617.805661" y="71.943158" style="fill: #2ca02c; stroke: #2ca02c"/>
     <use xlink:href="#m2b38388cf9" x="650.959793" y="71.943158" style="fill: #2ca02c; stroke: #2ca02c"/>
     <use xlink:href="#m2b38388cf9" x="684.113926" y="71.943158" style="fill: #2ca02c; stroke: #2ca02c"/>
     <use xlink:href="#m2b38388cf9" x="717.268058" y="71.943158" style="fill: #2ca02c; stroke: #2ca02c"/>
     <use xlink:href="#m2b38388cf9" x="783.576322" y="71.943158" style="fill: #2ca02c; stroke: #2ca02c"/>
     <use xlink:href="#m2b38388cf9" x="816.730455" y="71.943158" style="fill: #2ca02c; stroke: #2ca02c"/>
    </g>
   </g>
   <g id="line2d_30">
    <path d="M 87.339545 386.842982 
L 120.493678 358.864496 
L 153.64781 330.88601 
L 186.801942 302.907524 
L 219.956074 281.92366 
L 253.110207 265.136568 
L 286.264339 259.540871 
L 319.418471 252.54625 
L 352.572603 221.769915 
L 385.726736 211.977445 
L 418.880868 183.998959 
L 452.035 167.211868 
L 485.189132 115.451669 
L 584.651529 115.451669 
L 617.805661 115.451669 
L 650.959793 115.451669 
L 684.113926 115.451669 
L 717.268058 115.451669 
L 783.576322 115.451669 
L 816.730455 115.451669 
" clip-path="url(#pc8b99cb91e)" style="fill: none; stroke: #d62728; stroke-width: 1.5; stroke-linecap: square"/>
    <defs>
     <path id="m8378d439cf" d="M 0 3.5 
C 0.928211 3.5 1.81853 3.131218 2.474874 2.474874 
C 3.131218 1.81853 3.5 0.928211 3.5 0 
C 3.5 -0.928211 3.131218 -1.81853 2.474874 -2.474874 
C 1.81853 -3.131218 0.928211 -3.5 0 -3.5 
C -0.928211 -3.5 -1.81853 -3.131218 -2.474874 -2.474874 
C -3.131218 -1.81853 -3.5 -0.928211 -3.5 0 
C -3.5 0.928211 -3.131218 1.81853 -2.474874 2.474874 
C -1.81853 3.131218 -0.928211 3.5 0 3.5 
z
" style="stroke: #d62728"/>
    </defs>
    <g clip-path="url(#pc8b99cb91e)">
     <use xlink:href="#m8378d439cf" x="87.339545" y="386.842982" style="fill: #d62728; stroke: #d62728"/>
     <use xlink:href="#m8378d439cf" x="120.493678" y="358.864496" style="fill: #d62728; stroke: #d62728"/>
     <use xlink:href="#m8378d439cf" x="153.64781" y="330.88601" style="fill: #d62728; stroke: #d62728"/>
     <use xlink:href="#m8378d439cf" x="186.801942" y="302.907524" style="fill: #d62728; stroke: #d62728"/>
     <use xlink:href="#m8378d439cf" x="219.956074" y="281.92366" style="fill: #d62728; stroke: #d62728"/>
     <use xlink:href="#m8378d439cf" x="253.110207" y="265.136568" style="fill: #d62728; stroke: #d62728"/>
     <use xlink:href="#m8378d439cf" x="286.264339" y="259.540871" style="fill: #d62728; stroke: #d62728"/>
     <use xlink:href="#m8378d439cf" x="319.418471" y="252.54625" style="fill: #d62728; stroke: #d62728"/>
     <use xlink:href="#m8378d439cf" x="352.572603" y="221.769915" style="fill: #d62728; stroke: #d62728"/>
     <use xlink:href="#m8378d439cf" x="385.726736" y="211.977445" style="fill: #d62728; stroke: #d62728"/>
     <use xlink:href="#m8378d439cf" x="418.880868" y="183.998959" style="fill: #d62728; stroke: #d62728"/>
     <use xlink:href="#m8378d439cf" x="452.035" y="167.211868" style="fill: #d62728; stroke: #d62728"/>
     <use xlink:href="#m8378d439cf" x="485.189132" y="115.451669" style="fill: #d62728; stroke: #d62728"/>
     <use xlink:href="#m8378d439cf" x="584.651529" y="115.451669" style="fill: #d62728; stroke: #d62728"/>
     <use xlink:href="#m8378d439cf" x="617.805661" y="115.451669" style="fill: #d62728; stroke: #d62728"/>
     <use xlink:href="#m8378d439cf" x="650.959793" y="115.451669" style="fill: #d62728; stroke: #d62728"/>
     <use xlink:href="#m8378d439cf" x="684.113926" y="115.451669" style="fill: #d62728; stroke: #d62728"/>
     <use xlink:href="#m8378d439cf" x="717.268058" y="115.451669" style="fill: #d62728; stroke: #d62728"/>
     <use xlink:href="#m8378d439cf" x="783.576322" y="115.451669" style="fill: #d62728; stroke: #d62728"/>
     <use xlink:href="#m8378d439cf" x="816.730455" y="115.451669" style="fill: #d62728; stroke: #d62728"/>
    </g>
   </g>
   <g id="line2d_31">
    <path d="M 87.339545 386.769588 
L 120.493678 362.987875 
L 153.64781 332.211541 
L 186.801942 318.222298 
L 219.956074 308.429828 
L 253.110207 291.642736 
L 286.264339 260.866402 
L 319.418471 246.877159 
L 352.572603 216.100824 
L 385.726736 206.308354 
L 418.880868 199.313733 
L 452.035 182.526641 
L 485.189132 148.952458 
L 584.651529 148.952458 
L 617.805661 148.952458 
L 650.959793 148.952458 
L 684.113926 148.952458 
L 717.268058 148.952458 
L 783.576322 148.952458 
L 816.730455 148.952458 
" clip-path="url(#pc8b99cb91e)" style="fill: none; stroke: #9467bd; stroke-width: 1.5; stroke-linecap: square"/>
    <defs>
     <path id="m0c1ef40006" d="M 0 3.5 
C 0.928211 3.5 1.81853 3.131218 2.474874 2.474874 
C 3.131218 1.81853 3.5 0.928211 3.5 0 
C 3.5 -0.928211 3.131218 -1.81853 2.474874 -2.474874 
C 1.81853 -3.131218 0.928211 -3.5 0 -3.5 
C -0.928211 -3.5 -1.81853 -3.131218 -2.474874 -2.474874 
C -3.131218 -1.81853 -3.5 -0.928211 -3.5 0 
C -3.5 0.928211 -3.131218 1.81853 -2.474874 2.474874 
C -1.81853 3.131218 -0.928211 3.5 0 3.5 
z
" style="stroke: #9467bd"/>
    </defs>
    <g clip-path="url(#pc8b99cb91e)">
     <use xlink:href="#m0c1ef40006" x="87.339545" y="386.769588" style="fill: #9467bd; stroke: #9467bd"/>
     <use xlink:href="#m0c1ef40006" x="120.493678" y="362.987875" style="fill: #9467bd; stroke: #9467bd"/>
     <use xlink:href="#m0c1ef40006" x="153.64781" y="332.211541" style="fill: #9467bd; stroke: #9467bd"/>
     <use xlink:href="#m0c1ef40006" x="186.801942" y="318.222298" style="fill: #9467bd; stroke: #9467bd"/>
     <use xlink:href="#m0c1ef40006" x="219.956074" y="308.429828" style="fill: #9467bd; stroke: #9467bd"/>
     <use xlink:href="#m0c1ef40006" x="253.110207" y="291.642736" style="fill: #9467bd; stroke: #9467bd"/>
     <use xlink:href="#m0c1ef40006" x="286.264339" y="260.866402" style="fill: #9467bd; stroke: #9467bd"/>
     <use xlink:href="#m0c1ef40006" x="319.418471" y="246.877159" style="fill: #9467bd; stroke: #9467bd"/>
     <use xlink:href="#m0c1ef40006" x="352.572603" y="216.100824" style="fill: #9467bd; stroke: #9467bd"/>
     <use xlink:href="#m0c1ef40006" x="385.726736" y="206.308354" style="fill: #9467bd; stroke: #9467bd"/>
     <use xlink:href="#m0c1ef40006" x="418.880868" y="199.313733" style="fill: #9467bd; stroke: #9467bd"/>
     <use xlink:href="#m0c1ef40006" x="452.035" y="182.526641" style="fill: #9467bd; stroke: #9467bd"/>
     <use xlink:href="#m0c1ef40006" x="485.189132" y="148.952458" style="fill: #9467bd; stroke: #9467bd"/>
     <use xlink:href="#m0c1ef40006" x="584.651529" y="148.952458" style="fill: #9467bd; stroke: #9467bd"/>
     <use xlink:href="#m0c1ef40006" x="617.805661" y="148.952458" style="fill: #9467bd; stroke: #9467bd"/>
     <use xlink:href="#m0c1ef40006" x="650.959793" y="148.952458" style="fill: #9467bd; stroke: #9467bd"/>
     <use xlink:href="#m0c1ef40006" x="684.113926" y="148.952458" style="fill: #9467bd; stroke: #9467bd"/>
     <use xlink:href="#m0c1ef40006" x="717.268058" y="148.952458" style="fill: #9467bd; stroke: #9467bd"/>
     <use xlink:href="#m0c1ef40006" x="783.576322" y="148.952458" style="fill: #9467bd; stroke: #9467bd"/>
     <use xlink:href="#m0c1ef40006" x="816.730455" y="148.952458" style="fill: #9467bd; stroke: #9467bd"/>
    </g>
   </g>
   <g id="line2d_32">
    <path d="M 87.339545 379.842861 
L 120.493678 351.864375 
L 153.64781 337.875132 
L 186.801942 323.885889 
L 219.956074 309.896646 
L 253.110207 265.131069 
L 286.264339 259.535372 
L 319.418471 252.54075 
L 352.572603 221.764416 
L 385.726736 211.971946 
L 418.880868 156.014974 
L 452.035 142.025731 
L 485.189132 100.058002 
L 584.651529 100.058002 
L 617.805661 100.058002 
L 650.959793 100.058002 
L 684.113926 100.058002 
L 717.268058 100.058002 
L 783.576322 100.058002 
L 816.730455 100.058002 
" clip-path="url(#pc8b99cb91e)" style="fill: none; stroke: #8c564b; stroke-width: 1.5; stroke-linecap: square"/>
    <defs>
     <path id="m5e99d28fc8" d="M 0 3.5 
C 0.928211 3.5 1.81853 3.131218 2.474874 2.474874 
C 3.131218 1.81853 3.5 0.928211 3.5 0 
C 3.5 -0.928211 3.131218 -1.81853 2.474874 -2.474874 
C 1.81853 -3.131218 0.928211 -3.5 0 -3.5 
C -0.928211 -3.5 -1.81853 -3.131218 -2.474874 -2.474874 
C -3.131218 -1.81853 -3.5 -0.928211 -3.5 0 
C -3.5 0.928211 -3.131218 1.81853 -2.474874 2.474874 
C -1.81853 3.131218 -0.928211 3.5 0 3.5 
z
" style="stroke: #8c564b"/>
    </defs>
    <g clip-path="url(#pc8b99cb91e)">
     <use xlink:href="#m5e99d28fc8" x="87.339545" y="379.842861" style="fill: #8c564b; stroke: #8c564b"/>
     <use xlink:href="#m5e99d28fc8" x="120.493678" y="351.864375" style="fill: #8c564b; stroke: #8c564b"/>
     <use xlink:href="#m5e99d28fc8" x="153.64781" y="337.875132" style="fill: #8c564b; stroke: #8c564b"/>
     <use xlink:href="#m5e99d28fc8" x="186.801942" y="323.885889" style="fill: #8c564b; stroke: #8c564b"/>
     <use xlink:href="#m5e99d28fc8" x="219.956074" y="309.896646" style="fill: #8c564b; stroke: #8c564b"/>
     <use xlink:href="#m5e99d28fc8" x="253.110207" y="265.131069" style="fill: #8c564b; stroke: #8c564b"/>
     <use xlink:href="#m5e99d28fc8" x="286.264339" y="259.535372" style="fill: #8c564b; stroke: #8c564b"/>
     <use xlink:href="#m5e99d28fc8" x="319.418471" y="252.54075" style="fill: #8c564b; stroke: #8c564b"/>
     <use xlink:href="#m5e99d28fc8" x="352.572603" y="221.764416" style="fill: #8c564b; stroke: #8c564b"/>
     <use xlink:href="#m5e99d28fc8" x="385.726736" y="211.971946" style="fill: #8c564b; stroke: #8c564b"/>
     <use xlink:href="#m5e99d28fc8" x="418.880868" y="156.014974" style="fill: #8c564b; stroke: #8c564b"/>
     <use xlink:href="#m5e99d28fc8" x="452.035" y="142.025731" style="fill: #8c564b; stroke: #8c564b"/>
     <use xlink:href="#m5e99d28fc8" x="485.189132" y="100.058002" style="fill: #8c564b; stroke: #8c564b"/>
     <use xlink:href="#m5e99d28fc8" x="584.651529" y="100.058002" style="fill: #8c564b; stroke: #8c564b"/>
     <use xlink:href="#m5e99d28fc8" x="617.805661" y="100.058002" style="fill: #8c564b; stroke: #8c564b"/>
     <use xlink:href="#m5e99d28fc8" x="650.959793" y="100.058002" style="fill: #8c564b; stroke: #8c564b"/>
     <use xlink:href="#m5e99d28fc8" x="684.113926" y="100.058002" style="fill: #8c564b; stroke: #8c564b"/>
     <use xlink:href="#m5e99d28fc8" x="717.268058" y="100.058002" style="fill: #8c564b; stroke: #8c564b"/>
     <use xlink:href="#m5e99d28fc8" x="783.576322" y="100.058002" style="fill: #8c564b; stroke: #8c564b"/>
     <use xlink:href="#m5e99d28fc8" x="816.730455" y="100.058002" style="fill: #8c564b; stroke: #8c564b"/>
    </g>
   </g>
   <g id="line2d_33">
    <path d="M 87.339545 386.972727 
L 120.493678 372.983484 
L 153.64781 342.20715 
L 186.801942 328.217907 
L 219.956074 314.228664 
L 253.110207 294.643724 
L 286.264339 277.856632 
L 319.418471 261.069541 
L 352.572603 226.096433 
L 385.726736 184.128705 
L 418.880868 128.171733 
L 452.035 108.586793 
L 485.189132 63.821215 
L 584.651529 63.821215 
L 617.805661 63.821215 
L 650.959793 63.821215 
L 684.113926 63.821215 
L 717.268058 63.821215 
L 783.576322 63.821215 
L 816.730455 63.821215 
" clip-path="url(#pc8b99cb91e)" style="fill: none; stroke: #e377c2; stroke-width: 1.5; stroke-linecap: square"/>
    <defs>
     <path id="m247240ee1e" d="M 0 3.5 
C 0.928211 3.5 1.81853 3.131218 2.474874 2.474874 
C 3.131218 1.81853 3.5 0.928211 3.5 0 
C 3.5 -0.928211 3.131218 -1.81853 2.474874 -2.474874 
C 1.81853 -3.131218 0.928211 -3.5 0 -3.5 
C -0.928211 -3.5 -1.81853 -3.131218 -2.474874 -2.474874 
C -3.131218 -1.81853 -3.5 -0.928211 -3.5 0 
C -3.5 0.928211 -3.131218 1.81853 -2.474874 2.474874 
C -1.81853 3.131218 -0.928211 3.5 0 3.5 
z
" style="stroke: #e377c2"/>
    </defs>
    <g clip-path="url(#pc8b99cb91e)">
     <use xlink:href="#m247240ee1e" x="87.339545" y="386.972727" style="fill: #e377c2; stroke: #e377c2"/>
     <use xlink:href="#m247240ee1e" x="120.493678" y="372.983484" style="fill: #e377c2; stroke: #e377c2"/>
     <use xlink:href="#m247240ee1e" x="153.64781" y="342.20715" style="fill: #e377c2; stroke: #e377c2"/>
     <use xlink:href="#m247240ee1e" x="186.801942" y="328.217907" style="fill: #e377c2; stroke: #e377c2"/>
     <use xlink:href="#m247240ee1e" x="219.956074" y="314.228664" style="fill: #e377c2; stroke: #e377c2"/>
     <use xlink:href="#m247240ee1e" x="253.110207" y="294.643724" style="fill: #e377c2; stroke: #e377c2"/>
     <use xlink:href="#m247240ee1e" x="286.264339" y="277.856632" style="fill: #e377c2; stroke: #e377c2"/>
     <use xlink:href="#m247240ee1e" x="319.418471" y="261.069541" style="fill: #e377c2; stroke: #e377c2"/>
     <use xlink:href="#m247240ee1e" x="352.572603" y="226.096433" style="fill: #e377c2; stroke: #e377c2"/>
     <use xlink:href="#m247240ee1e" x="385.726736" y="184.128705" style="fill: #e377c2; stroke: #e377c2"/>
     <use xlink:href="#m247240ee1e" x="418.880868" y="128.171733" style="fill: #e377c2; stroke: #e377c2"/>
     <use xlink:href="#m247240ee1e" x="452.035" y="108.586793" style="fill: #e377c2; stroke: #e377c2"/>
     <use xlink:href="#m247240ee1e" x="485.189132" y="63.821215" style="fill: #e377c2; stroke: #e377c2"/>
     <use xlink:href="#m247240ee1e" x="584.651529" y="63.821215" style="fill: #e377c2; stroke: #e377c2"/>
     <use xlink:href="#m247240ee1e" x="617.805661" y="63.821215" style="fill: #e377c2; stroke: #e377c2"/>
     <use xlink:href="#m247240ee1e" x="650.959793" y="63.821215" style="fill: #e377c2; stroke: #e377c2"/>
     <use xlink:href="#m247240ee1e" x="684.113926" y="63.821215" style="fill: #e377c2; stroke: #e377c2"/>
     <use xlink:href="#m247240ee1e" x="717.268058" y="63.821215" style="fill: #e377c2; stroke: #e377c2"/>
     <use xlink:href="#m247240ee1e" x="783.576322" y="63.821215" style="fill: #e377c2; stroke: #e377c2"/>
     <use xlink:href="#m247240ee1e" x="816.730455" y="63.821215" style="fill: #e377c2; stroke: #e377c2"/>
    </g>
   </g>
   <g id="line2d_34">
    <path d="M 87.339545 386.793703 
L 120.493678 349.022747 
L 153.64781 318.246412 
L 186.801942 301.459321 
L 219.956074 284.672229 
L 253.110207 267.885138 
L 286.264339 265.087289 
L 319.418471 241.305576 
L 352.572603 206.332469 
L 385.726736 179.752907 
L 418.880868 137.785178 
L 452.035 120.998087 
L 485.189132 90.221752 
L 584.651529 90.221752 
L 617.805661 90.221752 
L 650.959793 90.221752 
L 684.113926 90.221752 
L 717.268058 90.221752 
L 783.576322 90.221752 
L 816.730455 90.221752 
" clip-path="url(#pc8b99cb91e)" style="fill: none; stroke: #7f7f7f; stroke-width: 1.5; stroke-linecap: square"/>
    <defs>
     <path id="m5af0086e3c" d="M 0 3.5 
C 0.928211 3.5 1.81853 3.131218 2.474874 2.474874 
C 3.131218 1.81853 3.5 0.928211 3.5 0 
C 3.5 -0.928211 3.131218 -1.81853 2.474874 -2.474874 
C 1.81853 -3.131218 0.928211 -3.5 0 -3.5 
C -0.928211 -3.5 -1.81853 -3.131218 -2.474874 -2.474874 
C -3.131218 -1.81853 -3.5 -0.928211 -3.5 0 
C -3.5 0.928211 -3.131218 1.81853 -2.474874 2.474874 
C -1.81853 3.131218 -0.928211 3.5 0 3.5 
z
" style="stroke: #7f7f7f"/>
    </defs>
    <g clip-path="url(#pc8b99cb91e)">
     <use xlink:href="#m5af0086e3c" x="87.339545" y="386.793703" style="fill: #7f7f7f; stroke: #7f7f7f"/>
     <use xlink:href="#m5af0086e3c" x="120.493678" y="349.022747" style="fill: #7f7f7f; stroke: #7f7f7f"/>
     <use xlink:href="#m5af0086e3c" x="153.64781" y="318.246412" style="fill: #7f7f7f; stroke: #7f7f7f"/>
     <use xlink:href="#m5af0086e3c" x="186.801942" y="301.459321" style="fill: #7f7f7f; stroke: #7f7f7f"/>
     <use xlink:href="#m5af0086e3c" x="219.956074" y="284.672229" style="fill: #7f7f7f; stroke: #7f7f7f"/>
     <use xlink:href="#m5af0086e3c" x="253.110207" y="267.885138" style="fill: #7f7f7f; stroke: #7f7f7f"/>
     <use xlink:href="#m5af0086e3c" x="286.264339" y="265.087289" style="fill: #7f7f7f; stroke: #7f7f7f"/>
     <use xlink:href="#m5af0086e3c" x="319.418471" y="241.305576" style="fill: #7f7f7f; stroke: #7f7f7f"/>
     <use xlink:href="#m5af0086e3c" x="352.572603" y="206.332469" style="fill: #7f7f7f; stroke: #7f7f7f"/>
     <use xlink:href="#m5af0086e3c" x="385.726736" y="179.752907" style="fill: #7f7f7f; stroke: #7f7f7f"/>
     <use xlink:href="#m5af0086e3c" x="418.880868" y="137.785178" style="fill: #7f7f7f; stroke: #7f7f7f"/>
     <use xlink:href="#m5af0086e3c" x="452.035" y="120.998087" style="fill: #7f7f7f; stroke: #7f7f7f"/>
     <use xlink:href="#m5af0086e3c" x="485.189132" y="90.221752" style="fill: #7f7f7f; stroke: #7f7f7f"/>
     <use xlink:href="#m5af0086e3c" x="584.651529" y="90.221752" style="fill: #7f7f7f; stroke: #7f7f7f"/>
     <use xlink:href="#m5af0086e3c" x="617.805661" y="90.221752" style="fill: #7f7f7f; stroke: #7f7f7f"/>
     <use xlink:href="#m5af0086e3c" x="650.959793" y="90.221752" style="fill: #7f7f7f; stroke: #7f7f7f"/>
     <use xlink:href="#m5af0086e3c" x="684.113926" y="90.221752" style="fill: #7f7f7f; stroke: #7f7f7f"/>
     <use xlink:href="#m5af0086e3c" x="717.268058" y="90.221752" style="fill: #7f7f7f; stroke: #7f7f7f"/>
     <use xlink:href="#m5af0086e3c" x="783.576322" y="90.221752" style="fill: #7f7f7f; stroke: #7f7f7f"/>
     <use xlink:href="#m5af0086e3c" x="816.730455" y="90.221752" style="fill: #7f7f7f; stroke: #7f7f7f"/>
    </g>
   </g>
   <g id="line2d_35">
    <path d="M 87.339545 386.950724 
L 120.493678 365.966859 
L 153.64781 330.993752 
L 186.801942 314.20666 
L 219.956074 279.233553 
L 253.110207 269.441083 
L 286.264339 261.047537 
L 319.418471 237.265824 
L 352.572603 216.28196 
L 385.726736 199.494868 
L 418.880868 168.718534 
L 452.035 151.931442 
L 485.189132 95.97447 
L 584.651529 95.97447 
L 617.805661 95.97447 
L 650.959793 95.97447 
L 684.113926 95.97447 
L 717.268058 95.97447 
L 783.576322 95.97447 
L 816.730455 95.97447 
" clip-path="url(#pc8b99cb91e)" style="fill: none; stroke: #bcbd22; stroke-width: 1.5; stroke-linecap: square"/>
    <defs>
     <path id="m8c7833e344" d="M 0 3.5 
C 0.928211 3.5 1.81853 3.131218 2.474874 2.474874 
C 3.131218 1.81853 3.5 0.928211 3.5 0 
C 3.5 -0.928211 3.131218 -1.81853 2.474874 -2.474874 
C 1.81853 -3.131218 0.928211 -3.5 0 -3.5 
C -0.928211 -3.5 -1.81853 -3.131218 -2.474874 -2.474874 
C -3.131218 -1.81853 -3.5 -0.928211 -3.5 0 
C -3.5 0.928211 -3.131218 1.81853 -2.474874 2.474874 
C -1.81853 3.131218 -0.928211 3.5 0 3.5 
z
" style="stroke: #bcbd22"/>
    </defs>
    <g clip-path="url(#pc8b99cb91e)">
     <use xlink:href="#m8c7833e344" x="87.339545" y="386.950724" style="fill: #bcbd22; stroke: #bcbd22"/>
     <use xlink:href="#m8c7833e344" x="120.493678" y="365.966859" style="fill: #bcbd22; stroke: #bcbd22"/>
     <use xlink:href="#m8c7833e344" x="153.64781" y="330.993752" style="fill: #bcbd22; stroke: #bcbd22"/>
     <use xlink:href="#m8c7833e344" x="186.801942" y="314.20666" style="fill: #bcbd22; stroke: #bcbd22"/>
     <use xlink:href="#m8c7833e344" x="219.956074" y="279.233553" style="fill: #bcbd22; stroke: #bcbd22"/>
     <use xlink:href="#m8c7833e344" x="253.110207" y="269.441083" style="fill: #bcbd22; stroke: #bcbd22"/>
     <use xlink:href="#m8c7833e344" x="286.264339" y="261.047537" style="fill: #bcbd22; stroke: #bcbd22"/>
     <use xlink:href="#m8c7833e344" x="319.418471" y="237.265824" style="fill: #bcbd22; stroke: #bcbd22"/>
     <use xlink:href="#m8c7833e344" x="352.572603" y="216.28196" style="fill: #bcbd22; stroke: #bcbd22"/>
     <use xlink:href="#m8c7833e344" x="385.726736" y="199.494868" style="fill: #bcbd22; stroke: #bcbd22"/>
     <use xlink:href="#m8c7833e344" x="418.880868" y="168.718534" style="fill: #bcbd22; stroke: #bcbd22"/>
     <use xlink:href="#m8c7833e344" x="452.035" y="151.931442" style="fill: #bcbd22; stroke: #bcbd22"/>
     <use xlink:href="#m8c7833e344" x="485.189132" y="95.97447" style="fill: #bcbd22; stroke: #bcbd22"/>
     <use xlink:href="#m8c7833e344" x="584.651529" y="95.97447" style="fill: #bcbd22; stroke: #bcbd22"/>
     <use xlink:href="#m8c7833e344" x="617.805661" y="95.97447" style="fill: #bcbd22; stroke: #bcbd22"/>
     <use xlink:href="#m8c7833e344" x="650.959793" y="95.97447" style="fill: #bcbd22; stroke: #bcbd22"/>
     <use xlink:href="#m8c7833e344" x="684.113926" y="95.97447" style="fill: #bcbd22; stroke: #bcbd22"/>
     <use xlink:href="#m8c7833e344" x="717.268058" y="95.97447" style="fill: #bcbd22; stroke: #bcbd22"/>
     <use xlink:href="#m8c7833e344" x="783.576322" y="95.97447" style="fill: #bcbd22; stroke: #bcbd22"/>
     <use xlink:href="#m8c7833e344" x="816.730455" y="95.97447" style="fill: #bcbd22; stroke: #bcbd22"/>
    </g>
   </g>
   <g id="line2d_36">
    <path d="M 87.339545 386.956609 
L 120.493678 384.158761 
L 153.64781 346.387805 
L 186.801942 332.398562 
L 219.956074 290.430833 
L 253.110207 270.845893 
L 286.264339 261.053423 
L 319.418471 240.069558 
L 352.572603 202.298602 
L 385.726736 178.516889 
L 418.880868 161.729798 
L 452.035 144.942706 
L 485.189132 116.96422 
L 584.651529 116.96422 
L 617.805661 116.96422 
L 650.959793 116.96422 
L 684.113926 116.96422 
L 717.268058 116.96422 
L 783.576322 116.96422 
L 816.730455 116.96422 
" clip-path="url(#pc8b99cb91e)" style="fill: none; stroke: #17becf; stroke-width: 1.5; stroke-linecap: square"/>
    <defs>
     <path id="me1d413019f" d="M 0 3.5 
C 0.928211 3.5 1.81853 3.131218 2.474874 2.474874 
C 3.131218 1.81853 3.5 0.928211 3.5 0 
C 3.5 -0.928211 3.131218 -1.81853 2.474874 -2.474874 
C 1.81853 -3.131218 0.928211 -3.5 0 -3.5 
C -0.928211 -3.5 -1.81853 -3.131218 -2.474874 -2.474874 
C -3.131218 -1.81853 -3.5 -0.928211 -3.5 0 
C -3.5 0.928211 -3.131218 1.81853 -2.474874 2.474874 
C -1.81853 3.131218 -0.928211 3.5 0 3.5 
z
" style="stroke: #17becf"/>
    </defs>
    <g clip-path="url(#pc8b99cb91e)">
     <use xlink:href="#me1d413019f" x="87.339545" y="386.956609" style="fill: #17becf; stroke: #17becf"/>
     <use xlink:href="#me1d413019f" x="120.493678" y="384.158761" style="fill: #17becf; stroke: #17becf"/>
     <use xlink:href="#me1d413019f" x="153.64781" y="346.387805" style="fill: #17becf; stroke: #17becf"/>
     <use xlink:href="#me1d413019f" x="186.801942" y="332.398562" style="fill: #17becf; stroke: #17becf"/>
     <use xlink:href="#me1d413019f" x="219.956074" y="290.430833" style="fill: #17becf; stroke: #17becf"/>
     <use xlink:href="#me1d413019f" x="253.110207" y="270.845893" style="fill: #17becf; stroke: #17becf"/>
     <use xlink:href="#me1d413019f" x="286.264339" y="261.053423" style="fill: #17becf; stroke: #17becf"/>
     <use xlink:href="#me1d413019f" x="319.418471" y="240.069558" style="fill: #17becf; stroke: #17becf"/>
     <use xlink:href="#me1d413019f" x="352.572603" y="202.298602" style="fill: #17becf; stroke: #17becf"/>
     <use xlink:href="#me1d413019f" x="385.726736" y="178.516889" style="fill: #17becf; stroke: #17becf"/>
     <use xlink:href="#me1d413019f" x="418.880868" y="161.729798" style="fill: #17becf; stroke: #17becf"/>
     <use xlink:href="#me1d413019f" x="452.035" y="144.942706" style="fill: #17becf; stroke: #17becf"/>
     <use xlink:href="#me1d413019f" x="485.189132" y="116.96422" style="fill: #17becf; stroke: #17becf"/>
     <use xlink:href="#me1d413019f" x="584.651529" y="116.96422" style="fill: #17becf; stroke: #17becf"/>
     <use xlink:href="#me1d413019f" x="617.805661" y="116.96422" style="fill: #17becf; stroke: #17becf"/>
     <use xlink:href="#me1d413019f" x="650.959793" y="116.96422" style="fill: #17becf; stroke: #17becf"/>
     <use xlink:href="#me1d413019f" x="684.113926" y="116.96422" style="fill: #17becf; stroke: #17becf"/>
     <use xlink:href="#me1d413019f" x="717.268058" y="116.96422" style="fill: #17becf; stroke: #17becf"/>
     <use xlink:href="#me1d413019f" x="783.576322" y="116.96422" style="fill: #17becf; stroke: #17becf"/>
     <use xlink:href="#me1d413019f" x="816.730455" y="116.96422" style="fill: #17becf; stroke: #17becf"/>
    </g>
   </g>
   <g id="line2d_37">
    <path d="M 87.339545 386.791086 
L 120.493678 351.817979 
L 153.64781 332.233039 
L 186.801942 311.249175 
L 219.956074 297.259932 
L 253.110207 276.276067 
L 286.264339 273.478219 
L 319.418471 249.696506 
L 352.572603 228.712641 
L 385.726736 179.750291 
L 418.880868 144.777184 
L 452.035 107.006228 
L 485.189132 59.442802 
L 584.651529 59.442802 
L 617.805661 59.442802 
L 650.959793 59.442802 
L 684.113926 59.442802 
L 717.268058 59.442802 
L 783.576322 59.442802 
L 816.730455 59.442802 
" clip-path="url(#pc8b99cb91e)" style="fill: none; stroke: #1f77b4; stroke-width: 1.5; stroke-linecap: square"/>
    <g clip-path="url(#pc8b99cb91e)">
     <use xlink:href="#ma86104c7c2" x="87.339545" y="386.791086" style="fill: #1f77b4; stroke: #1f77b4"/>
     <use xlink:href="#ma86104c7c2" x="120.493678" y="351.817979" style="fill: #1f77b4; stroke: #1f77b4"/>
     <use xlink:href="#ma86104c7c2" x="153.64781" y="332.233039" style="fill: #1f77b4; stroke: #1f77b4"/>
     <use xlink:href="#ma86104c7c2" x="186.801942" y="311.249175" style="fill: #1f77b4; stroke: #1f77b4"/>
     <use xlink:href="#ma86104c7c2" x="219.956074" y="297.259932" style="fill: #1f77b4; stroke: #1f77b4"/>
     <use xlink:href="#ma86104c7c2" x="253.110207" y="276.276067" style="fill: #1f77b4; stroke: #1f77b4"/>
     <use xlink:href="#ma86104c7c2" x="286.264339" y="273.478219" style="fill: #1f77b4; stroke: #1f77b4"/>
     <use xlink:href="#ma86104c7c2" x="319.418471" y="249.696506" style="fill: #1f77b4; stroke: #1f77b4"/>
     <use xlink:href="#ma86104c7c2" x="352.572603" y="228.712641" style="fill: #1f77b4; stroke: #1f77b4"/>
     <use xlink:href="#ma86104c7c2" x="385.726736" y="179.750291" style="fill: #1f77b4; stroke: #1f77b4"/>
     <use xlink:href="#ma86104c7c2" x="418.880868" y="144.777184" style="fill: #1f77b4; stroke: #1f77b4"/>
     <use xlink:href="#ma86104c7c2" x="452.035" y="107.006228" style="fill: #1f77b4; stroke: #1f77b4"/>
     <use xlink:href="#ma86104c7c2" x="485.189132" y="59.442802" style="fill: #1f77b4; stroke: #1f77b4"/>
     <use xlink:href="#ma86104c7c2" x="584.651529" y="59.442802" style="fill: #1f77b4; stroke: #1f77b4"/>
     <use xlink:href="#ma86104c7c2" x="617.805661" y="59.442802" style="fill: #1f77b4; stroke: #1f77b4"/>
     <use xlink:href="#ma86104c7c2" x="650.959793" y="59.442802" style="fill: #1f77b4; stroke: #1f77b4"/>
     <use xlink:href="#ma86104c7c2" x="684.113926" y="59.442802" style="fill: #1f77b4; stroke: #1f77b4"/>
     <use xlink:href="#ma86104c7c2" x="717.268058" y="59.442802" style="fill: #1f77b4; stroke: #1f77b4"/>
     <use xlink:href="#ma86104c7c2" x="783.576322" y="59.442802" style="fill: #1f77b4; stroke: #1f77b4"/>
     <use xlink:href="#ma86104c7c2" x="816.730455" y="59.442802" style="fill: #1f77b4; stroke: #1f77b4"/>
    </g>
   </g>
   <g id="line2d_38">
    <path d="M 87.339545 386.826103 
L 120.493678 365.842239 
L 153.64781 328.071283 
L 186.801942 314.08204 
L 219.956074 300.092797 
L 253.110207 276.311084 
L 286.264339 266.518614 
L 319.418471 245.534749 
L 352.572603 203.567021 
L 385.726736 179.785308 
L 418.880868 144.8122 
L 452.035 129.424033 
L 485.189132 84.658456 
L 584.651529 84.658456 
L 617.805661 84.658456 
L 650.959793 84.658456 
L 684.113926 84.658456 
L 717.268058 84.658456 
L 783.576322 84.658456 
L 816.730455 84.658456 
" clip-path="url(#pc8b99cb91e)" style="fill: none; stroke: #ff7f0e; stroke-width: 1.5; stroke-linecap: square"/>
    <g clip-path="url(#pc8b99cb91e)">
     <use xlink:href="#m44986f71f2" x="87.339545" y="386.826103" style="fill: #ff7f0e; stroke: #ff7f0e"/>
     <use xlink:href="#m44986f71f2" x="120.493678" y="365.842239" style="fill: #ff7f0e; stroke: #ff7f0e"/>
     <use xlink:href="#m44986f71f2" x="153.64781" y="328.071283" style="fill: #ff7f0e; stroke: #ff7f0e"/>
     <use xlink:href="#m44986f71f2" x="186.801942" y="314.08204" style="fill: #ff7f0e; stroke: #ff7f0e"/>
     <use xlink:href="#m44986f71f2" x="219.956074" y="300.092797" style="fill: #ff7f0e; stroke: #ff7f0e"/>
     <use xlink:href="#m44986f71f2" x="253.110207" y="276.311084" style="fill: #ff7f0e; stroke: #ff7f0e"/>
     <use xlink:href="#m44986f71f2" x="286.264339" y="266.518614" style="fill: #ff7f0e; stroke: #ff7f0e"/>
     <use xlink:href="#m44986f71f2" x="319.418471" y="245.534749" style="fill: #ff7f0e; stroke: #ff7f0e"/>
     <use xlink:href="#m44986f71f2" x="352.572603" y="203.567021" style="fill: #ff7f0e; stroke: #ff7f0e"/>
     <use xlink:href="#m44986f71f2" x="385.726736" y="179.785308" style="fill: #ff7f0e; stroke: #ff7f0e"/>
     <use xlink:href="#m44986f71f2" x="418.880868" y="144.8122" style="fill: #ff7f0e; stroke: #ff7f0e"/>
     <use xlink:href="#m44986f71f2" x="452.035" y="129.424033" style="fill: #ff7f0e; stroke: #ff7f0e"/>
     <use xlink:href="#m44986f71f2" x="485.189132" y="84.658456" style="fill: #ff7f0e; stroke: #ff7f0e"/>
     <use xlink:href="#m44986f71f2" x="584.651529" y="84.658456" style="fill: #ff7f0e; stroke: #ff7f0e"/>
     <use xlink:href="#m44986f71f2" x="617.805661" y="84.658456" style="fill: #ff7f0e; stroke: #ff7f0e"/>
     <use xlink:href="#m44986f71f2" x="650.959793" y="84.658456" style="fill: #ff7f0e; stroke: #ff7f0e"/>
     <use xlink:href="#m44986f71f2" x="684.113926" y="84.658456" style="fill: #ff7f0e; stroke: #ff7f0e"/>
     <use xlink:href="#m44986f71f2" x="717.268058" y="84.658456" style="fill: #ff7f0e; stroke: #ff7f0e"/>
     <use xlink:href="#m44986f71f2" x="783.576322" y="84.658456" style="fill: #ff7f0e; stroke: #ff7f0e"/>
     <use xlink:href="#m44986f71f2" x="816.730455" y="84.658456" style="fill: #ff7f0e; stroke: #ff7f0e"/>
    </g>
   </g>
   <g id="line2d_39">
    <path d="M 87.339545 386.763725 
L 120.493678 337.801375 
L 153.64781 300.030419 
L 186.801942 286.041176 
L 219.956074 276.248706 
L 253.110207 241.275598 
L 286.264339 217.493885 
L 319.418471 207.701415 
L 352.572603 169.930459 
L 385.726736 146.148746 
L 418.880868 111.175639 
L 452.035 84.596077 
L 485.189132 44.027273 
L 584.651529 44.027273 
L 617.805661 44.027273 
L 650.959793 44.027273 
L 684.113926 44.027273 
L 717.268058 44.027273 
L 783.576322 44.027273 
L 816.730455 44.027273 
" clip-path="url(#pc8b99cb91e)" style="fill: none; stroke: #2ca02c; stroke-width: 1.5; stroke-linecap: square"/>
    <g clip-path="url(#pc8b99cb91e)">
     <use xlink:href="#m2b38388cf9" x="87.339545" y="386.763725" style="fill: #2ca02c; stroke: #2ca02c"/>
     <use xlink:href="#m2b38388cf9" x="120.493678" y="337.801375" style="fill: #2ca02c; stroke: #2ca02c"/>
     <use xlink:href="#m2b38388cf9" x="153.64781" y="300.030419" style="fill: #2ca02c; stroke: #2ca02c"/>
     <use xlink:href="#m2b38388cf9" x="186.801942" y="286.041176" style="fill: #2ca02c; stroke: #2ca02c"/>
     <use xlink:href="#m2b38388cf9" x="219.956074" y="276.248706" style="fill: #2ca02c; stroke: #2ca02c"/>
     <use xlink:href="#m2b38388cf9" x="253.110207" y="241.275598" style="fill: #2ca02c; stroke: #2ca02c"/>
     <use xlink:href="#m2b38388cf9" x="286.264339" y="217.493885" style="fill: #2ca02c; stroke: #2ca02c"/>
     <use xlink:href="#m2b38388cf9" x="319.418471" y="207.701415" style="fill: #2ca02c; stroke: #2ca02c"/>
     <use xlink:href="#m2b38388cf9" x="352.572603" y="169.930459" style="fill: #2ca02c; stroke: #2ca02c"/>
     <use xlink:href="#m2b38388cf9" x="385.726736" y="146.148746" style="fill: #2ca02c; stroke: #2ca02c"/>
     <use xlink:href="#m2b38388cf9" x="418.880868" y="111.175639" style="fill: #2ca02c; stroke: #2ca02c"/>
     <use xlink:href="#m2b38388cf9" x="452.035" y="84.596077" style="fill: #2ca02c; stroke: #2ca02c"/>
     <use xlink:href="#m2b38388cf9" x="485.189132" y="44.027273" style="fill: #2ca02c; stroke: #2ca02c"/>
     <use xlink:href="#m2b38388cf9" x="584.651529" y="44.027273" style="fill: #2ca02c; stroke: #2ca02c"/>
     <use xlink:href="#m2b38388cf9" x="617.805661" y="44.027273" style="fill: #2ca02c; stroke: #2ca02c"/>
     <use xlink:href="#m2b38388cf9" x="650.959793" y="44.027273" style="fill: #2ca02c; stroke: #2ca02c"/>
     <use xlink:href="#m2b38388cf9" x="684.113926" y="44.027273" style="fill: #2ca02c; stroke: #2ca02c"/>
     <use xlink:href="#m2b38388cf9" x="717.268058" y="44.027273" style="fill: #2ca02c; stroke: #2ca02c"/>
     <use xlink:href="#m2b38388cf9" x="783.576322" y="44.027273" style="fill: #2ca02c; stroke: #2ca02c"/>
     <use xlink:href="#m2b38388cf9" x="816.730455" y="44.027273" style="fill: #2ca02c; stroke: #2ca02c"/>
    </g>
   </g>
   <g id="line2d_40">
    <path d="M 87.339545 386.768097 
L 120.493678 362.986384 
L 153.64781 348.997141 
L 186.801942 339.204671 
L 219.956074 318.220807 
L 253.110207 308.428337 
L 286.264339 284.646624 
L 319.418471 249.673516 
L 352.572603 200.711166 
L 385.726736 174.131604 
L 418.880868 143.35527 
L 452.035 137.759573 
L 485.189132 81.802601 
L 584.651529 81.802601 
L 617.805661 81.802601 
L 650.959793 81.802601 
L 684.113926 81.802601 
L 717.268058 81.802601 
L 783.576322 81.802601 
L 816.730455 81.802601 
" clip-path="url(#pc8b99cb91e)" style="fill: none; stroke: #d62728; stroke-width: 1.5; stroke-linecap: square"/>
    <g clip-path="url(#pc8b99cb91e)">
     <use xlink:href="#m8378d439cf" x="87.339545" y="386.768097" style="fill: #d62728; stroke: #d62728"/>
     <use xlink:href="#m8378d439cf" x="120.493678" y="362.986384" style="fill: #d62728; stroke: #d62728"/>
     <use xlink:href="#m8378d439cf" x="153.64781" y="348.997141" style="fill: #d62728; stroke: #d62728"/>
     <use xlink:href="#m8378d439cf" x="186.801942" y="339.204671" style="fill: #d62728; stroke: #d62728"/>
     <use xlink:href="#m8378d439cf" x="219.956074" y="318.220807" style="fill: #d62728; stroke: #d62728"/>
     <use xlink:href="#m8378d439cf" x="253.110207" y="308.428337" style="fill: #d62728; stroke: #d62728"/>
     <use xlink:href="#m8378d439cf" x="286.264339" y="284.646624" style="fill: #d62728; stroke: #d62728"/>
     <use xlink:href="#m8378d439cf" x="319.418471" y="249.673516" style="fill: #d62728; stroke: #d62728"/>
     <use xlink:href="#m8378d439cf" x="352.572603" y="200.711166" style="fill: #d62728; stroke: #d62728"/>
     <use xlink:href="#m8378d439cf" x="385.726736" y="174.131604" style="fill: #d62728; stroke: #d62728"/>
     <use xlink:href="#m8378d439cf" x="418.880868" y="143.35527" style="fill: #d62728; stroke: #d62728"/>
     <use xlink:href="#m8378d439cf" x="452.035" y="137.759573" style="fill: #d62728; stroke: #d62728"/>
     <use xlink:href="#m8378d439cf" x="485.189132" y="81.802601" style="fill: #d62728; stroke: #d62728"/>
     <use xlink:href="#m8378d439cf" x="584.651529" y="81.802601" style="fill: #d62728; stroke: #d62728"/>
     <use xlink:href="#m8378d439cf" x="617.805661" y="81.802601" style="fill: #d62728; stroke: #d62728"/>
     <use xlink:href="#m8378d439cf" x="650.959793" y="81.802601" style="fill: #d62728; stroke: #d62728"/>
     <use xlink:href="#m8378d439cf" x="684.113926" y="81.802601" style="fill: #d62728; stroke: #d62728"/>
     <use xlink:href="#m8378d439cf" x="717.268058" y="81.802601" style="fill: #d62728; stroke: #d62728"/>
     <use xlink:href="#m8378d439cf" x="783.576322" y="81.802601" style="fill: #d62728; stroke: #d62728"/>
     <use xlink:href="#m8378d439cf" x="816.730455" y="81.802601" style="fill: #d62728; stroke: #d62728"/>
    </g>
   </g>
   <g id="patch_3">
    <path d="M 50.87 404.12 
L 50.87 26.88 
" style="fill: none; stroke: #000000; stroke-width: 0.8; stroke-linejoin: miter; stroke-linecap: square"/>
   </g>
   <g id="patch_4">
    <path d="M 853.2 404.12 
L 853.2 26.88 
" style="fill: none; stroke: #000000; stroke-width: 0.8; stroke-linejoin: miter; stroke-linecap: square"/>
   </g>
   <g id="patch_5">
    <path d="M 50.87 404.12 
L 853.2 404.12 
" style="fill: none; stroke: #000000; stroke-width: 0.8; stroke-linejoin: miter; stroke-linecap: square"/>
   </g>
   <g id="patch_6">
    <path d="M 50.87 26.88 
L 853.2 26.88 
" style="fill: none; stroke: #000000; stroke-width: 0.8; stroke-linejoin: miter; stroke-linecap: square"/>
   </g>
   <g id="text_15">
    <!-- Standings -->
    <g transform="translate(422.18125 20.88) scale(0.12 -0.12)">
     <defs>
      <path id="DejaVuSans-74" d="M 1172 4494 
L 1172 3500 
L 2356 3500 
L 2356 3053 
L 1172 3053 
L 1172 1153 
Q 1172 725 1289 603 
Q 1406 481 1766 481 
L 2356 481 
L 2356 0 
L 1766 0 
Q 1100 0 847 248 
Q 594 497 594 1153 
L 594 3053 
L 172 3053 
L 172 3500 
L 594 3500 
L 594 4494 
L 1172 4494 
z
" transform="scale(0.015625)"/>
      <path id="DejaVuSans-61" d="M 2194 1759 
Q 1497 1759 1228 1600 
Q 959 1441 959 1056 
Q 959 750 1161 570 
Q 1363 391 1709 391 
Q 2188 391 2477 730 
Q 2766 1069 2766 1631 
L 2766 1759 
L 2194 1759 
z
M 3341 1997 
L 3341 0 
L 2766 0 
L 2766 531 
Q 2569 213 2275 61 
Q 1981 -91 1556 -91 
Q 1019 -91 701 211 
Q 384 513 384 1019 
Q 384 1609 779 1909 
Q 1175 2209 1959 2209 
L 2766 2209 
L 2766 2266 
Q 2766 2663 2505 2880 
Q 2244 3097 1772 3097 
Q 1472 3097 1187 3025 
Q 903 2953 641 2809 
L 641 3341 
Q 956 3463 1253 3523 
Q 1550 3584 1831 3584 
Q 2591 3584 2966 3190 
Q 3341 2797 3341 1997 
z
" transform="scale(0.015625)"/>
      <path id="DejaVuSans-6e" d="M 3513 2113 
L 3513 0 
L 2938 0 
L 2938 2094 
Q 2938 2591 2744 2837 
Q 2550 3084 2163 3084 
Q 1697 3084 1428 2787 
Q 1159 2491 1159 1978 
L 1159 0 
L 581 0 
L 581 3500 
L 1159 3500 
L 1159 2956 
Q 1366 3272 1645 3428 
Q 1925 3584 2291 3584 
Q 2894 3584 3203 3211 
Q 3513 2838 3513 2113 
z
" transform="scale(0.015625)"/>
      <path id="DejaVuSans-64" d="M 2906 2969 
L 2906 4863 
L 3481 4863 
L 3481 0 
L 2906 0 
L 2906 525 
Q 2725 213 2448 61 
Q 2172 -91 1784 -91 
Q 1150 -91 751 415 
Q 353 922 353 1747 
Q 353 2572 751 3078 
Q 1150 3584 1784 3584 
Q 2172 3584 2448 3432 
Q 2725 3281 2906 2969 
z
M 947 1747 
Q 947 1113 1208 752 
Q 1469 391 1925 391 
Q 2381 391 2643 752 
Q 2906 1113 2906 1747 
Q 2906 2381 2643 2742 
Q 2381 3103 1925 3103 
Q 1469 3103 1208 2742 
Q 947 2381 947 1747 
z
" transform="scale(0.015625)"/>
      <path id="DejaVuSans-69" d="M 603 3500 
L 1178 3500 
L 1178 0 
L 603 0 
L 603 3500 
z
M 603 4863 
L 1178 4863 
L 1178 4134 
L 603 4134 
L 603 4863 
z
" transform="scale(0.015625)"/>
      <path id="DejaVuSans-67" d="M 2906 1791 
Q 2906 2416 2648 2759 
Q 2391 3103 1925 3103 
Q 1463 3103 1205 2759 
Q 947 2416 947 1791 
Q 947 1169 1205 825 
Q 1463 481 1925 481 
Q 2391 481 2648 825 
Q 2906 1169 2906 1791 
z
M 3481 434 
Q 3481 -459 3084 -895 
Q 2688 -1331 1869 -1331 
Q 1566 -1331 1297 -1286 
Q 1028 -1241 775 -1147 
L 775 -588 
Q 1028 -725 1275 -790 
Q 1522 -856 1778 -856 
Q 2344 -856 2625 -561 
Q 2906 -266 2906 331 
L 2906 616 
Q 2728 306 2450 153 
Q 2172 0 1784 0 
Q 1141 0 747 490 
Q 353 981 353 1791 
Q 353 2603 747 3093 
Q 1141 3584 1784 3584 
Q 2172 3584 2450 3431 
Q 2728 3278 2906 2969 
L 2906 3500 
L 3481 3500 
L 3481 434 
z
" transform="scale(0.015625)"/>
      <path id="DejaVuSans-73" d="M 2834 3397 
L 2834 2853 
Q 2591 2978 2328 3040 
Q 2066 3103 1784 3103 
Q 1356 3103 1142 2972 
Q 928 2841 928 2578 
Q 928 2378 1081 2264 
Q 1234 2150 1697 2047 
L 1894 2003 
Q 2506 1872 2764 1633 
Q 3022 1394 3022 966 
Q 3022 478 2636 193 
Q 2250 -91 1575 -91 
Q 1294 -91 989 -36 
Q 684 19 347 128 
L 347 722 
Q 666 556 975 473 
Q 1284 391 1588 391 
Q 1994 391 2212 530 
Q 2431 669 2431 922 
Q 2431 1156 2273 1281 
Q 2116 1406 1581 1522 
L 1381 1569 
Q 847 1681 609 1914 
Q 372 2147 372 2553 
Q 372 3047 722 3315 
Q 1072 3584 1716 3584 
Q 2034 3584 2315 3537 
Q 2597 3491 2834 3397 
z
" transform="scale(0.015625)"/>
     </defs>
     <use xlink:href="#DejaVuSans-53"/>
     <use xlink:href="#DejaVuSans-74" x="63.476562"/>
     <use xlink:href="#DejaVuSans-61" x="102.685547"/>
     <use xlink:href="#DejaVuSans-6e" x="163.964844"/>
     <use xlink:href="#DejaVuSans-64" x="227.34375"/>
     <use xlink:href="#DejaVuSans-69" x="290.820312"/>
     <use xlink:href="#DejaVuSans-6e" x="318.603516"/>
     <use xlink:href="#DejaVuSans-67" x="381.982422"/>
     <use xlink:href="#DejaVuSans-73" x="445.458984"/>
    </g>
   </g>
   <g id="legend_1">
    <g id="patch_7">
     <path d="M 57.87 137.626875 
L 260.771563 137.626875 
Q 262.771563 137.626875 262.771563 135.626875 
L 262.771563 33.88 
Q 262.771563 31.88 260.771563 31.88 
L 57.87 31.88 
Q 55.87 31.88 55.87 33.88 
L 55.87 135.626875 
Q 55.87 137.626875 57.87 137.626875 
z
" style="fill: #ffffff; opacity: 0.8; stroke: #cccccc; stroke-linejoin: miter"/>
    </g>
    <g id="line2d_41">
     <path d="M 59.87 39.978437 
L 69.87 39.978437 
L 79.87 39.978437 
" style="fill: none; stroke: #1f77b4; stroke-width: 1.5; stroke-linecap: square"/>
     <g>
      <use xlink:href="#ma86104c7c2" x="69.87" y="39.978437" style="fill: #1f77b4; stroke: #1f77b4"/>
     </g>
    </g>
    <g id="text_16">
     <!-- Kenneth Sc -->
     <g transform="translate(87.87 43.478437) scale(0.1 -0.1)">
      <defs>
       <path id="DejaVuSans-4b" d="M 628 4666 
L 1259 4666 
L 1259 2694 
L 3353 4666 
L 4166 4666 
L 1850 2491 
L 4331 0 
L 3500 0 
L 1259 2247 
L 1259 0 
L 628 0 
L 628 4666 
z
" transform="scale(0.015625)"/>
       <path id="DejaVuSans-68" d="M 3513 2113 
L 3513 0 
L 2938 0 
L 2938 2094 
Q 2938 2591 2744 2837 
Q 2550 3084 2163 3084 
Q 1697 3084 1428 2787 
Q 1159 2491 1159 1978 
L 1159 0 
L 581 0 
L 581 4863 
L 1159 4863 
L 1159 2956 
Q 1366 3272 1645 3428 
Q 1925 3584 2291 3584 
Q 2894 3584 3203 3211 
Q 3513 2838 3513 2113 
z
" transform="scale(0.015625)"/>
       <path id="DejaVuSans-20" transform="scale(0.015625)"/>
      </defs>
      <use xlink:href="#DejaVuSans-4b"/>
      <use xlink:href="#DejaVuSans-65" x="60.576172"/>
      <use xlink:href="#DejaVuSans-6e" x="122.099609"/>
      <use xlink:href="#DejaVuSans-6e" x="185.478516"/>
      <use xlink:href="#DejaVuSans-65" x="248.857422"/>
      <use xlink:href="#DejaVuSans-74" x="310.380859"/>
      <use xlink:href="#DejaVuSans-68" x="349.589844"/>
      <use xlink:href="#DejaVuSans-20" x="412.96875"/>
      <use xlink:href="#DejaVuSans-53" x="444.755859"/>
      <use xlink:href="#DejaVuSans-63" x="508.232422"/>
     </g>
    </g>
    <g id="line2d_42">
     <path d="M 59.87 54.656563 
L 69.87 54.656563 
L 79.87 54.656563 
" style="fill: none; stroke: #ff7f0e; stroke-width: 1.5; stroke-linecap: square"/>
     <g>
      <use xlink:href="#m44986f71f2" x="69.87" y="54.656563" style="fill: #ff7f0e; stroke: #ff7f0e"/>
     </g>
    </g>
    <g id="text_17">
     <!-- Laurits Pi -->
     <g transform="translate(87.87 58.156563) scale(0.1 -0.1)">
      <defs>
       <path id="DejaVuSans-4c" d="M 628 4666 
L 1259 4666 
L 1259 531 
L 3531 531 
L 3531 0 
L 628 0 
L 628 4666 
z
" transform="scale(0.015625)"/>
       <path id="DejaVuSans-75" d="M 544 1381 
L 544 3500 
L 1119 3500 
L 1119 1403 
Q 1119 906 1312 657 
Q 1506 409 1894 409 
Q 2359 409 2629 706 
Q 2900 1003 2900 1516 
L 2900 3500 
L 3475 3500 
L 3475 0 
L 2900 0 
L 2900 538 
Q 2691 219 2414 64 
Q 2138 -91 1772 -91 
Q 1169 -91 856 284 
Q 544 659 544 1381 
z
M 1991 3584 
L 1991 3584 
z
" transform="scale(0.015625)"/>
       <path id="DejaVuSans-50" d="M 1259 4147 
L 1259 2394 
L 2053 2394 
Q 2494 2394 2734 2622 
Q 2975 2850 2975 3272 
Q 2975 3691 2734 3919 
Q 2494 4147 2053 4147 
L 1259 4147 
z
M 628 4666 
L 2053 4666 
Q 2838 4666 3239 4311 
Q 3641 3956 3641 3272 
Q 3641 2581 3239 2228 
Q 2838 1875 2053 1875 
L 1259 1875 
L 1259 0 
L 628 0 
L 628 4666 
z
" transform="scale(0.015625)"/>
      </defs>
      <use xlink:href="#DejaVuSans-4c"/>
      <use xlink:href="#DejaVuSans-61" x="55.712891"/>
      <use xlink:href="#DejaVuSans-75" x="116.992188"/>
      <use xlink:href="#DejaVuSans-72" x="180.371094"/>
      <use xlink:href="#DejaVuSans-69" x="221.484375"/>
      <use xlink:href="#DejaVuSans-74" x="249.267578"/>
      <use xlink:href="#DejaVuSans-73" x="288.476562"/>
      <use xlink:href="#DejaVuSans-20" x="340.576172"/>
      <use xlink:href="#DejaVuSans-50" x="372.363281"/>
      <use xlink:href="#DejaVuSans-69" x="430.416016"/>
     </g>
    </g>
    <g id="line2d_43">
     <path d="M 59.87 69.334687 
L 69.87 69.334687 
L 79.87 69.334687 
" style="fill: none; stroke: #2ca02c; stroke-width: 1.5; stroke-linecap: square"/>
     <g>
      <use xlink:href="#m2b38388cf9" x="69.87" y="69.334687" style="fill: #2ca02c; stroke: #2ca02c"/>
     </g>
    </g>
    <g id="text_18">
     <!-- Ernst  B -->
     <g transform="translate(87.87 72.834687) scale(0.1 -0.1)">
      <defs>
       <path id="DejaVuSans-45" d="M 628 4666 
L 3578 4666 
L 3578 4134 
L 1259 4134 
L 1259 2753 
L 3481 2753 
L 3481 2222 
L 1259 2222 
L 1259 531 
L 3634 531 
L 3634 0 
L 628 0 
L 628 4666 
z
" transform="scale(0.015625)"/>
       <path id="DejaVuSans-42" d="M 1259 2228 
L 1259 519 
L 2272 519 
Q 2781 519 3026 730 
Q 3272 941 3272 1375 
Q 3272 1813 3026 2020 
Q 2781 2228 2272 2228 
L 1259 2228 
z
M 1259 4147 
L 1259 2741 
L 2194 2741 
Q 2656 2741 2882 2914 
Q 3109 3088 3109 3444 
Q 3109 3797 2882 3972 
Q 2656 4147 2194 4147 
L 1259 4147 
z
M 628 4666 
L 2241 4666 
Q 2963 4666 3353 4366 
Q 3744 4066 3744 3513 
Q 3744 3084 3544 2831 
Q 3344 2578 2956 2516 
Q 3422 2416 3680 2098 
Q 3938 1781 3938 1306 
Q 3938 681 3513 340 
Q 3088 0 2303 0 
L 628 0 
L 628 4666 
z
" transform="scale(0.015625)"/>
       <path id="DejaVuSans-f8" d="M 2828 2503 
L 1306 653 
Q 1434 522 1595 459 
Q 1756 397 1959 397 
Q 2419 397 2687 759 
Q 2956 1122 2956 1747 
Q 2956 1994 2925 2176 
Q 2894 2359 2828 2503 
z
M 2606 2841 
Q 2475 2969 2314 3033 
Q 2153 3097 1959 3097 
Q 1488 3097 1223 2730 
Q 959 2363 959 1703 
Q 959 1478 989 1306 
Q 1019 1134 1081 991 
L 2606 2841 
z
M 691 519 
Q 522 759 437 1067 
Q 353 1375 353 1747 
Q 353 2609 779 3096 
Q 1206 3584 1959 3584 
Q 2250 3584 2498 3504 
Q 2747 3425 2956 3263 
L 3391 3788 
L 3688 3541 
L 3231 2981 
Q 3397 2741 3481 2431 
Q 3566 2122 3566 1747 
Q 3566 888 3137 398 
Q 2709 -91 1959 -91 
Q 1659 -91 1407 -9 
Q 1156 72 959 231 
L 525 -294 
L 225 -50 
L 691 519 
z
" transform="scale(0.015625)"/>
      </defs>
      <use xlink:href="#DejaVuSans-45"/>
      <use xlink:href="#DejaVuSans-72" x="63.183594"/>
      <use xlink:href="#DejaVuSans-6e" x="102.546875"/>
      <use xlink:href="#DejaVuSans-73" x="165.925781"/>
      <use xlink:href="#DejaVuSans-74" x="218.025391"/>
      <use xlink:href="#DejaVuSans-20" x="257.234375"/>
      <use xlink:href="#DejaVuSans-20" x="289.021484"/>
      <use xlink:href="#DejaVuSans-42" x="320.808594"/>
      <use xlink:href="#DejaVuSans-f8" x="389.412109"/>
     </g>
    </g>
    <g id="line2d_44">
     <path d="M 59.87 84.012812 
L 69.87 84.012812 
L 79.87 84.012812 
" style="fill: none; stroke: #d62728; stroke-width: 1.5; stroke-linecap: square"/>
     <g>
      <use xlink:href="#m8378d439cf" x="69.87" y="84.012812" style="fill: #d62728; stroke: #d62728"/>
     </g>
    </g>
    <g id="text_19">
     <!-- Mette Is -->
     <g transform="translate(87.87 87.512812) scale(0.1 -0.1)">
      <defs>
       <path id="DejaVuSans-4d" d="M 628 4666 
L 1569 4666 
L 2759 1491 
L 3956 4666 
L 4897 4666 
L 4897 0 
L 4281 0 
L 4281 4097 
L 3078 897 
L 2444 897 
L 1241 4097 
L 1241 0 
L 628 0 
L 628 4666 
z
" transform="scale(0.015625)"/>
       <path id="DejaVuSans-49" d="M 628 4666 
L 1259 4666 
L 1259 0 
L 628 0 
L 628 4666 
z
" transform="scale(0.015625)"/>
      </defs>
      <use xlink:href="#DejaVuSans-4d"/>
      <use xlink:href="#DejaVuSans-65" x="86.279297"/>
      <use xlink:href="#DejaVuSans-74" x="147.802734"/>
      <use xlink:href="#DejaVuSans-74" x="187.011719"/>
      <use xlink:href="#DejaVuSans-65" x="226.220703"/>
      <use xlink:href="#DejaVuSans-20" x="287.744141"/>
      <use xlink:href="#DejaVuSans-49" x="319.53125"/>
      <use xlink:href="#DejaVuSans-73" x="349.023438"/>
     </g>
    </g>
    <g id="line2d_45">
     <path d="M 59.87 98.690938 
L 69.87 98.690938 
L 79.87 98.690938 
" style="fill: none; stroke: #9467bd; stroke-width: 1.5; stroke-linecap: square"/>
     <g>
      <use xlink:href="#m0c1ef40006" x="69.87" y="98.690938" style="fill: #9467bd; stroke: #9467bd"/>
     </g>
    </g>
    <g id="text_20">
     <!-- Christian Is -->
     <g transform="translate(87.87 102.190938) scale(0.1 -0.1)">
      <defs>
       <path id="DejaVuSans-43" d="M 4122 4306 
L 4122 3641 
Q 3803 3938 3442 4084 
Q 3081 4231 2675 4231 
Q 1875 4231 1450 3742 
Q 1025 3253 1025 2328 
Q 1025 1406 1450 917 
Q 1875 428 2675 428 
Q 3081 428 3442 575 
Q 3803 722 4122 1019 
L 4122 359 
Q 3791 134 3420 21 
Q 3050 -91 2638 -91 
Q 1578 -91 968 557 
Q 359 1206 359 2328 
Q 359 3453 968 4101 
Q 1578 4750 2638 4750 
Q 3056 4750 3426 4639 
Q 3797 4528 4122 4306 
z
" transform="scale(0.015625)"/>
      </defs>
      <use xlink:href="#DejaVuSans-43"/>
      <use xlink:href="#DejaVuSans-68" x="69.824219"/>
      <use xlink:href="#DejaVuSans-72" x="133.203125"/>
      <use xlink:href="#DejaVuSans-69" x="174.316406"/>
      <use xlink:href="#DejaVuSans-73" x="202.099609"/>
      <use xlink:href="#DejaVuSans-74" x="254.199219"/>
      <use xlink:href="#DejaVuSans-69" x="293.408203"/>
      <use xlink:href="#DejaVuSans-61" x="321.191406"/>
      <use xlink:href="#DejaVuSans-6e" x="382.470703"/>
      <use xlink:href="#DejaVuSans-20" x="445.849609"/>
      <use xlink:href="#DejaVuSans-49" x="477.636719"/>
      <use xlink:href="#DejaVuSans-73" x="507.128906"/>
     </g>
    </g>
    <g id="line2d_46">
     <path d="M 59.87 113.369062 
L 69.87 113.369062 
L 79.87 113.369062 
" style="fill: none; stroke: #8c564b; stroke-width: 1.5; stroke-linecap: square"/>
     <g>
      <use xlink:href="#m5e99d28fc8" x="69.87" y="113.369062" style="fill: #8c564b; stroke: #8c564b"/>
     </g>
    </g>
    <g id="text_21">
     <!-- Jonas Bo -->
     <g transform="translate(87.87 116.869062) scale(0.1 -0.1)">
      <defs>
       <path id="DejaVuSans-4a" d="M 628 4666 
L 1259 4666 
L 1259 325 
Q 1259 -519 939 -900 
Q 619 -1281 -91 -1281 
L -331 -1281 
L -331 -750 
L -134 -750 
Q 284 -750 456 -515 
Q 628 -281 628 325 
L 628 4666 
z
" transform="scale(0.015625)"/>
      </defs>
      <use xlink:href="#DejaVuSans-4a"/>
      <use xlink:href="#DejaVuSans-6f" x="29.492188"/>
      <use xlink:href="#DejaVuSans-6e" x="90.673828"/>
      <use xlink:href="#DejaVuSans-61" x="154.052734"/>
      <use xlink:href="#DejaVuSans-73" x="215.332031"/>
      <use xlink:href="#DejaVuSans-20" x="267.431641"/>
      <use xlink:href="#DejaVuSans-42" x="299.21875"/>
      <use xlink:href="#DejaVuSans-6f" x="367.822266"/>
     </g>
    </g>
    <g id="line2d_47">
     <path d="M 59.87 128.047187 
L 69.87 128.047187 
L 79.87 128.047187 
" style="fill: none; stroke: #e377c2; stroke-width: 1.5; stroke-linecap: square"/>
     <g>
      <use xlink:href="#m247240ee1e" x="69.87" y="128.047187" style="fill: #e377c2; stroke: #e377c2"/>
     </g>
    </g>
    <g id="text_22">
     <!-- Tobias Bo -->
     <g transform="translate(87.87 131.547187) scale(0.1 -0.1)">
      <defs>
       <path id="DejaVuSans-54" d="M -19 4666 
L 3928 4666 
L 3928 4134 
L 2272 4134 
L 2272 0 
L 1638 0 
L 1638 4134 
L -19 4134 
L -19 4666 
z
" transform="scale(0.015625)"/>
       <path id="DejaVuSans-62" d="M 3116 1747 
Q 3116 2381 2855 2742 
Q 2594 3103 2138 3103 
Q 1681 3103 1420 2742 
Q 1159 2381 1159 1747 
Q 1159 1113 1420 752 
Q 1681 391 2138 391 
Q 2594 391 2855 752 
Q 3116 1113 3116 1747 
z
M 1159 2969 
Q 1341 3281 1617 3432 
Q 1894 3584 2278 3584 
Q 2916 3584 3314 3078 
Q 3713 2572 3713 1747 
Q 3713 922 3314 415 
Q 2916 -91 2278 -91 
Q 1894 -91 1617 61 
Q 1341 213 1159 525 
L 1159 0 
L 581 0 
L 581 4863 
L 1159 4863 
L 1159 2969 
z
" transform="scale(0.015625)"/>
      </defs>
      <use xlink:href="#DejaVuSans-54"/>
      <use xlink:href="#DejaVuSans-6f" x="44.083984"/>
      <use xlink:href="#DejaVuSans-62" x="105.265625"/>
      <use xlink:href="#DejaVuSans-69" x="168.742188"/>
      <use xlink:href="#DejaVuSans-61" x="196.525391"/>
      <use xlink:href="#DejaVuSans-73" x="257.804688"/>
      <use xlink:href="#DejaVuSans-20" x="309.904297"/>
      <use xlink:href="#DejaVuSans-42" x="341.691406"/>
      <use xlink:href="#DejaVuSans-6f" x="410.294922"/>
     </g>
    </g>
    <g id="line2d_48">
     <path d="M 164.191875 39.978437 
L 174.191875 39.978437 
L 184.191875 39.978437 
" style="fill: none; stroke: #7f7f7f; stroke-width: 1.5; stroke-linecap: square"/>
     <g>
      <use xlink:href="#m5af0086e3c" x="174.191875" y="39.978437" style="fill: #7f7f7f; stroke: #7f7f7f"/>
     </g>
    </g>
    <g id="text_23">
     <!-- Christian Gr -->
     <g transform="translate(192.191875 43.478437) scale(0.1 -0.1)">
      <defs>
       <path id="DejaVuSans-47" d="M 3809 666 
L 3809 1919 
L 2778 1919 
L 2778 2438 
L 4434 2438 
L 4434 434 
Q 4069 175 3628 42 
Q 3188 -91 2688 -91 
Q 1594 -91 976 548 
Q 359 1188 359 2328 
Q 359 3472 976 4111 
Q 1594 4750 2688 4750 
Q 3144 4750 3555 4637 
Q 3966 4525 4313 4306 
L 4313 3634 
Q 3963 3931 3569 4081 
Q 3175 4231 2741 4231 
Q 1884 4231 1454 3753 
Q 1025 3275 1025 2328 
Q 1025 1384 1454 906 
Q 1884 428 2741 428 
Q 3075 428 3337 486 
Q 3600 544 3809 666 
z
" transform="scale(0.015625)"/>
      </defs>
      <use xlink:href="#DejaVuSans-43"/>
      <use xlink:href="#DejaVuSans-68" x="69.824219"/>
      <use xlink:href="#DejaVuSans-72" x="133.203125"/>
      <use xlink:href="#DejaVuSans-69" x="174.316406"/>
      <use xlink:href="#DejaVuSans-73" x="202.099609"/>
      <use xlink:href="#DejaVuSans-74" x="254.199219"/>
      <use xlink:href="#DejaVuSans-69" x="293.408203"/>
      <use xlink:href="#DejaVuSans-61" x="321.191406"/>
      <use xlink:href="#DejaVuSans-6e" x="382.470703"/>
      <use xlink:href="#DejaVuSans-20" x="445.849609"/>
      <use xlink:href="#DejaVuSans-47" x="477.636719"/>
      <use xlink:href="#DejaVuSans-72" x="555.126953"/>
     </g>
    </g>
    <g id="line2d_49">
     <path d="M 164.191875 54.656563 
L 174.191875 54.656563 
L 184.191875 54.656563 
" style="fill: none; stroke: #bcbd22; stroke-width: 1.5; stroke-linecap: square"/>
     <g>
      <use xlink:href="#m8c7833e344" x="174.191875" y="54.656563" style="fill: #bcbd22; stroke: #bcbd22"/>
     </g>
    </g>
    <g id="text_24">
     <!-- Oscar Kh -->
     <g transform="translate(192.191875 58.156563) scale(0.1 -0.1)">
      <defs>
       <path id="DejaVuSans-4f" d="M 2522 4238 
Q 1834 4238 1429 3725 
Q 1025 3213 1025 2328 
Q 1025 1447 1429 934 
Q 1834 422 2522 422 
Q 3209 422 3611 934 
Q 4013 1447 4013 2328 
Q 4013 3213 3611 3725 
Q 3209 4238 2522 4238 
z
M 2522 4750 
Q 3503 4750 4090 4092 
Q 4678 3434 4678 2328 
Q 4678 1225 4090 567 
Q 3503 -91 2522 -91 
Q 1538 -91 948 565 
Q 359 1222 359 2328 
Q 359 3434 948 4092 
Q 1538 4750 2522 4750 
z
" transform="scale(0.015625)"/>
      </defs>
      <use xlink:href="#DejaVuSans-4f"/>
      <use xlink:href="#DejaVuSans-73" x="78.710938"/>
      <use xlink:href="#DejaVuSans-63" x="130.810547"/>
      <use xlink:href="#DejaVuSans-61" x="185.791016"/>
      <use xlink:href="#DejaVuSans-72" x="247.070312"/>
      <use xlink:href="#DejaVuSans-20" x="288.183594"/>
      <use xlink:href="#DejaVuSans-4b" x="319.970703"/>
      <use xlink:href="#DejaVuSans-68" x="385.546875"/>
     </g>
    </g>
    <g id="line2d_50">
     <path d="M 164.191875 69.334687 
L 174.191875 69.334687 
L 184.191875 69.334687 
" style="fill: none; stroke: #17becf; stroke-width: 1.5; stroke-linecap: square"/>
     <g>
      <use xlink:href="#me1d413019f" x="174.191875" y="69.334687" style="fill: #17becf; stroke: #17becf"/>
     </g>
    </g>
    <g id="text_25">
     <!-- Isabella Is -->
     <g transform="translate(192.191875 72.834687) scale(0.1 -0.1)">
      <defs>
       <path id="DejaVuSans-6c" d="M 603 4863 
L 1178 4863 
L 1178 0 
L 603 0 
L 603 4863 
z
" transform="scale(0.015625)"/>
      </defs>
      <use xlink:href="#DejaVuSans-49"/>
      <use xlink:href="#DejaVuSans-73" x="29.492188"/>
      <use xlink:href="#DejaVuSans-61" x="81.591797"/>
      <use xlink:href="#DejaVuSans-62" x="142.871094"/>
      <use xlink:href="#DejaVuSans-65" x="206.347656"/>
      <use xlink:href="#DejaVuSans-6c" x="267.871094"/>
      <use xlink:href="#DejaVuSans-6c" x="295.654297"/>
      <use xlink:href="#DejaVuSans-61" x="323.4375"/>
      <use xlink:href="#DejaVuSans-20" x="384.716797"/>
      <use xlink:href="#DejaVuSans-49" x="416.503906"/>
      <use xlink:href="#DejaVuSans-73" x="445.996094"/>
     </g>
    </g>
    <g id="line2d_51">
     <path d="M 164.191875 84.012812 
L 174.191875 84.012812 
L 184.191875 84.012812 
" style="fill: none; stroke: #1f77b4; stroke-width: 1.5; stroke-linecap: square"/>
     <g>
      <use xlink:href="#ma86104c7c2" x="174.191875" y="84.012812" style="fill: #1f77b4; stroke: #1f77b4"/>
     </g>
    </g>
    <g id="text_26">
     <!-- Frederik Ha -->
     <g transform="translate(192.191875 87.512812) scale(0.1 -0.1)">
      <defs>
       <path id="DejaVuSans-46" d="M 628 4666 
L 3309 4666 
L 3309 4134 
L 1259 4134 
L 1259 2759 
L 3109 2759 
L 3109 2228 
L 1259 2228 
L 1259 0 
L 628 0 
L 628 4666 
z
" transform="scale(0.015625)"/>
       <path id="DejaVuSans-6b" d="M 581 4863 
L 1159 4863 
L 1159 1991 
L 2875 3500 
L 3609 3500 
L 1753 1863 
L 3688 0 
L 2938 0 
L 1159 1709 
L 1159 0 
L 581 0 
L 581 4863 
z
" transform="scale(0.015625)"/>
       <path id="DejaVuSans-48" d="M 628 4666 
L 1259 4666 
L 1259 2753 
L 3553 2753 
L 3553 4666 
L 4184 4666 
L 4184 0 
L 3553 0 
L 3553 2222 
L 1259 2222 
L 1259 0 
L 628 0 
L 628 4666 
z
" transform="scale(0.015625)"/>
      </defs>
      <use xlink:href="#DejaVuSans-46"/>
      <use xlink:href="#DejaVuSans-72" x="50.269531"/>
      <use xlink:href="#DejaVuSans-65" x="89.132812"/>
      <use xlink:href="#DejaVuSans-64" x="150.65625"/>
      <use xlink:href="#DejaVuSans-65" x="214.132812"/>
      <use xlink:href="#DejaVuSans-72" x="275.65625"/>
      <use xlink:href="#DejaVuSans-69" x="316.769531"/>
      <use xlink:href="#DejaVuSans-6b" x="344.552734"/>
      <use xlink:href="#DejaVuSans-20" x="402.462891"/>
      <use xlink:href="#DejaVuSans-48" x="434.25"/>
      <use xlink:href="#DejaVuSans-61" x="509.445312"/>
     </g>
    </g>
    <g id="line2d_52">
     <path d="M 164.191875 98.690938 
L 174.191875 98.690938 
L 184.191875 98.690938 
" style="fill: none; stroke: #ff7f0e; stroke-width: 1.5; stroke-linecap: square"/>
     <g>
      <use xlink:href="#m44986f71f2" x="174.191875" y="98.690938" style="fill: #ff7f0e; stroke: #ff7f0e"/>
     </g>
    </g>
    <g id="text_27">
     <!-- CamJams Gr -->
     <g transform="translate(192.191875 102.190938) scale(0.1 -0.1)">
      <defs>
       <path id="DejaVuSans-6d" d="M 3328 2828 
Q 3544 3216 3844 3400 
Q 4144 3584 4550 3584 
Q 5097 3584 5394 3201 
Q 5691 2819 5691 2113 
L 5691 0 
L 5113 0 
L 5113 2094 
Q 5113 2597 4934 2840 
Q 4756 3084 4391 3084 
Q 3944 3084 3684 2787 
Q 3425 2491 3425 1978 
L 3425 0 
L 2847 0 
L 2847 2094 
Q 2847 2600 2669 2842 
Q 2491 3084 2119 3084 
Q 1678 3084 1418 2786 
Q 1159 2488 1159 1978 
L 1159 0 
L 581 0 
L 581 3500 
L 1159 3500 
L 1159 2956 
Q 1356 3278 1631 3431 
Q 1906 3584 2284 3584 
Q 2666 3584 2933 3390 
Q 3200 3197 3328 2828 
z
" transform="scale(0.015625)"/>
      </defs>
      <use xlink:href="#DejaVuSans-43"/>
      <use xlink:href="#DejaVuSans-61" x="69.824219"/>
      <use xlink:href="#DejaVuSans-6d" x="131.103516"/>
      <use xlink:href="#DejaVuSans-4a" x="228.515625"/>
      <use xlink:href="#DejaVuSans-61" x="258.007812"/>
      <use xlink:href="#DejaVuSans-6d" x="319.287109"/>
      <use xlink:href="#DejaVuSans-73" x="416.699219"/>
      <use xlink:href="#DejaVuSans-20" x="468.798828"/>
      <use xlink:href="#DejaVuSans-47" x="500.585938"/>
      <use xlink:href="#DejaVuSans-72" x="578.076172"/>
     </g>
    </g>
    <g id="line2d_53">
     <path d="M 164.191875 113.369062 
L 174.191875 113.369062 
L 184.191875 113.369062 
" style="fill: none; stroke: #2ca02c; stroke-width: 1.5; stroke-linecap: square"/>
     <g>
      <use xlink:href="#m2b38388cf9" x="174.191875" y="113.369062" style="fill: #2ca02c; stroke: #2ca02c"/>
     </g>
    </g>
    <g id="text_28">
     <!-- Ebbe Ottar Je -->
     <g transform="translate(192.191875 116.869062) scale(0.1 -0.1)">
      <use xlink:href="#DejaVuSans-45"/>
      <use xlink:href="#DejaVuSans-62" x="63.183594"/>
      <use xlink:href="#DejaVuSans-62" x="126.660156"/>
      <use xlink:href="#DejaVuSans-65" x="190.136719"/>
      <use xlink:href="#DejaVuSans-20" x="251.660156"/>
      <use xlink:href="#DejaVuSans-4f" x="283.447266"/>
      <use xlink:href="#DejaVuSans-74" x="362.158203"/>
      <use xlink:href="#DejaVuSans-74" x="401.367188"/>
      <use xlink:href="#DejaVuSans-61" x="440.576172"/>
      <use xlink:href="#DejaVuSans-72" x="501.855469"/>
      <use xlink:href="#DejaVuSans-20" x="542.96875"/>
      <use xlink:href="#DejaVuSans-4a" x="574.755859"/>
      <use xlink:href="#DejaVuSans-65" x="604.248047"/>
     </g>
    </g>
    <g id="line2d_54">
     <path d="M 164.191875 128.047187 
L 174.191875 128.047187 
L 184.191875 128.047187 
" style="fill: none; stroke: #d62728; stroke-width: 1.5; stroke-linecap: square"/>
     <g>
      <use xlink:href="#m8378d439cf" x="174.191875" y="128.047187" style="fill: #d62728; stroke: #d62728"/>
     </g>
    </g>
    <g id="text_29">
     <!-- Joachim Gl -->
     <g transform="translate(192.191875 131.547187) scale(0.1 -0.1)">
      <use xlink:href="#DejaVuSans-4a"/>
      <use xlink:href="#DejaVuSans-6f" x="29.492188"/>
      <use xlink:href="#DejaVuSans-61" x="90.673828"/>
      <use xlink:href="#DejaVuSans-63" x="151.953125"/>
      <use xlink:href="#DejaVuSans-68" x="206.933594"/>
      <use xlink:href="#DejaVuSans-69" x="270.3125"/>
      <use xlink:href="#DejaVuSans-6d" x="298.095703"/>
      <use xlink:href="#DejaVuSans-20" x="395.507812"/>
      <use xlink:href="#DejaVuSans-47" x="427.294922"/>
      <use xlink:href="#DejaVuSans-6c" x="504.785156"/>
     </g>
    </g>
   </g>
  </g>
 </g>
 <defs>
  <clipPath id="pc8b99cb91e">
   <rect x="50.87" y="26.88" width="802.33" height="377.24"/>
  </clipPath>
 </defs>
</svg>
