<?xml version="1.0" encoding="utf-8" standalone="no"?>
<!DOCTYPE svg PUBLIC "-//W3C//DTD SVG 1.1//EN"
  "http://www.w3.org/Graphics/SVG/1.1/DTD/svg11.dtd">
<svg xmlns:xlink="http://www.w3.org/1999/xlink" width="864pt" height="432pt" viewBox="0 0 864 432" xmlns="http://www.w3.org/2000/svg" version="1.1">
 <metadata>
  <rdf:RDF xmlns:dc="http://purl.org/dc/elements/1.1/" xmlns:cc="http://creativecommons.org/ns#" xmlns:rdf="http://www.w3.org/1999/02/22-rdf-syntax-ns#">
   <cc:Work>
    <dc:type rdf:resource="http://purl.org/dc/dcmitype/StillImage"/>
    <dc:date>2024-08-26T11:25:56.243360</dc:date>
    <dc:format>image/svg+xml</dc:format>
    <dc:creator>
     <cc:Agent>
      <dc:title>Matplotlib v3.9.2, https://matplotlib.org/</dc:title>
     </cc:Agent>
    </dc:creator>
   </cc:Work>
  </rdf:RDF>
 </metadata>
 <defs>
  <style type="text/css">*{stroke-linejoin: round; stroke-linecap: butt}</style>
 </defs>
 <g id="figure_1">
  <g id="patch_1">
   <path d="M 0 432 
L 864 432 
L 864 0 
L 0 0 
z
" style="fill: #ffffff"/>
  </g>
  <g id="axes_1">
   <g id="patch_2">
    <path d="M 50.87 404.12 
L 853.2 404.12 
L 853.2 26.88 
L 50.87 26.88 
z
" style="fill: #ffffff"/>
   </g>
   <g id="matplotlib.axis_1">
    <g id="xtick_1">
     <g id="line2d_1">
      <path d="M 97.331202 404.12 
L 97.331202 26.88 
" clip-path="url(#p9cdd62df31)" style="fill: none; stroke-dasharray: 2.96,1.28; stroke-dashoffset: 0; stroke: #b0b0b0; stroke-width: 0.8"/>
     </g>
     <g id="line2d_2">
      <defs>
       <path id="mf6698ffdad" d="M 0 0 
L 0 3.5 
" style="stroke: #000000; stroke-width: 0.8"/>
      </defs>
      <g>
       <use xlink:href="#mf6698ffdad" x="97.331202" y="404.12" style="stroke: #000000; stroke-width: 0.8"/>
      </g>
     </g>
     <g id="text_1">
      <!-- 2024-06-15 -->
      <g transform="translate(68.273389 418.718437) scale(0.1 -0.1)">
       <defs>
        <path id="DejaVuSans-32" d="M 1228 531 
L 3431 531 
L 3431 0 
L 469 0 
L 469 531 
Q 828 903 1448 1529 
Q 2069 2156 2228 2338 
Q 2531 2678 2651 2914 
Q 2772 3150 2772 3378 
Q 2772 3750 2511 3984 
Q 2250 4219 1831 4219 
Q 1534 4219 1204 4116 
Q 875 4013 500 3803 
L 500 4441 
Q 881 4594 1212 4672 
Q 1544 4750 1819 4750 
Q 2544 4750 2975 4387 
Q 3406 4025 3406 3419 
Q 3406 3131 3298 2873 
Q 3191 2616 2906 2266 
Q 2828 2175 2409 1742 
Q 1991 1309 1228 531 
z
" transform="scale(0.015625)"/>
        <path id="DejaVuSans-30" d="M 2034 4250 
Q 1547 4250 1301 3770 
Q 1056 3291 1056 2328 
Q 1056 1369 1301 889 
Q 1547 409 2034 409 
Q 2525 409 2770 889 
Q 3016 1369 3016 2328 
Q 3016 3291 2770 3770 
Q 2525 4250 2034 4250 
z
M 2034 4750 
Q 2819 4750 3233 4129 
Q 3647 3509 3647 2328 
Q 3647 1150 3233 529 
Q 2819 -91 2034 -91 
Q 1250 -91 836 529 
Q 422 1150 422 2328 
Q 422 3509 836 4129 
Q 1250 4750 2034 4750 
z
" transform="scale(0.015625)"/>
        <path id="DejaVuSans-34" d="M 2419 4116 
L 825 1625 
L 2419 1625 
L 2419 4116 
z
M 2253 4666 
L 3047 4666 
L 3047 1625 
L 3713 1625 
L 3713 1100 
L 3047 1100 
L 3047 0 
L 2419 0 
L 2419 1100 
L 313 1100 
L 313 1709 
L 2253 4666 
z
" transform="scale(0.015625)"/>
        <path id="DejaVuSans-2d" d="M 313 2009 
L 1997 2009 
L 1997 1497 
L 313 1497 
L 313 2009 
z
" transform="scale(0.015625)"/>
        <path id="DejaVuSans-36" d="M 2113 2584 
Q 1688 2584 1439 2293 
Q 1191 2003 1191 1497 
Q 1191 994 1439 701 
Q 1688 409 2113 409 
Q 2538 409 2786 701 
Q 3034 994 3034 1497 
Q 3034 2003 2786 2293 
Q 2538 2584 2113 2584 
z
M 3366 4563 
L 3366 3988 
Q 3128 4100 2886 4159 
Q 2644 4219 2406 4219 
Q 1781 4219 1451 3797 
Q 1122 3375 1075 2522 
Q 1259 2794 1537 2939 
Q 1816 3084 2150 3084 
Q 2853 3084 3261 2657 
Q 3669 2231 3669 1497 
Q 3669 778 3244 343 
Q 2819 -91 2113 -91 
Q 1303 -91 875 529 
Q 447 1150 447 2328 
Q 447 3434 972 4092 
Q 1497 4750 2381 4750 
Q 2619 4750 2861 4703 
Q 3103 4656 3366 4563 
z
" transform="scale(0.015625)"/>
        <path id="DejaVuSans-31" d="M 794 531 
L 1825 531 
L 1825 4091 
L 703 3866 
L 703 4441 
L 1819 4666 
L 2450 4666 
L 2450 531 
L 3481 531 
L 3481 0 
L 794 0 
L 794 531 
z
" transform="scale(0.015625)"/>
        <path id="DejaVuSans-35" d="M 691 4666 
L 3169 4666 
L 3169 4134 
L 1269 4134 
L 1269 2991 
Q 1406 3038 1543 3061 
Q 1681 3084 1819 3084 
Q 2600 3084 3056 2656 
Q 3513 2228 3513 1497 
Q 3513 744 3044 326 
Q 2575 -91 1722 -91 
Q 1428 -91 1123 -41 
Q 819 9 494 109 
L 494 744 
Q 775 591 1075 516 
Q 1375 441 1709 441 
Q 2250 441 2565 725 
Q 2881 1009 2881 1497 
Q 2881 1984 2565 2268 
Q 2250 2553 1709 2553 
Q 1456 2553 1204 2497 
Q 953 2441 691 2322 
L 691 4666 
z
" transform="scale(0.015625)"/>
       </defs>
       <use xlink:href="#DejaVuSans-32"/>
       <use xlink:href="#DejaVuSans-30" x="63.623047"/>
       <use xlink:href="#DejaVuSans-32" x="127.246094"/>
       <use xlink:href="#DejaVuSans-34" x="190.869141"/>
       <use xlink:href="#DejaVuSans-2d" x="254.492188"/>
       <use xlink:href="#DejaVuSans-30" x="290.576172"/>
       <use xlink:href="#DejaVuSans-36" x="354.199219"/>
       <use xlink:href="#DejaVuSans-2d" x="417.822266"/>
       <use xlink:href="#DejaVuSans-31" x="453.90625"/>
       <use xlink:href="#DejaVuSans-35" x="517.529297"/>
      </g>
     </g>
    </g>
    <g id="xtick_2">
     <g id="line2d_3">
      <path d="M 257.197702 404.12 
L 257.197702 26.88 
" clip-path="url(#p9cdd62df31)" style="fill: none; stroke-dasharray: 2.96,1.28; stroke-dashoffset: 0; stroke: #b0b0b0; stroke-width: 0.8"/>
     </g>
     <g id="line2d_4">
      <g>
       <use xlink:href="#mf6698ffdad" x="257.197702" y="404.12" style="stroke: #000000; stroke-width: 0.8"/>
      </g>
     </g>
     <g id="text_2">
      <!-- 2024-07-01 -->
      <g transform="translate(228.13989 418.718437) scale(0.1 -0.1)">
       <defs>
        <path id="DejaVuSans-37" d="M 525 4666 
L 3525 4666 
L 3525 4397 
L 1831 0 
L 1172 0 
L 2766 4134 
L 525 4134 
L 525 4666 
z
" transform="scale(0.015625)"/>
       </defs>
       <use xlink:href="#DejaVuSans-32"/>
       <use xlink:href="#DejaVuSans-30" x="63.623047"/>
       <use xlink:href="#DejaVuSans-32" x="127.246094"/>
       <use xlink:href="#DejaVuSans-34" x="190.869141"/>
       <use xlink:href="#DejaVuSans-2d" x="254.492188"/>
       <use xlink:href="#DejaVuSans-30" x="290.576172"/>
       <use xlink:href="#DejaVuSans-37" x="354.199219"/>
       <use xlink:href="#DejaVuSans-2d" x="417.822266"/>
       <use xlink:href="#DejaVuSans-30" x="453.90625"/>
       <use xlink:href="#DejaVuSans-31" x="517.529297"/>
      </g>
     </g>
    </g>
    <g id="xtick_3">
     <g id="line2d_5">
      <path d="M 397.08089 404.12 
L 397.08089 26.88 
" clip-path="url(#p9cdd62df31)" style="fill: none; stroke-dasharray: 2.96,1.28; stroke-dashoffset: 0; stroke: #b0b0b0; stroke-width: 0.8"/>
     </g>
     <g id="line2d_6">
      <g>
       <use xlink:href="#mf6698ffdad" x="397.08089" y="404.12" style="stroke: #000000; stroke-width: 0.8"/>
      </g>
     </g>
     <g id="text_3">
      <!-- 2024-07-15 -->
      <g transform="translate(368.023078 418.718437) scale(0.1 -0.1)">
       <use xlink:href="#DejaVuSans-32"/>
       <use xlink:href="#DejaVuSans-30" x="63.623047"/>
       <use xlink:href="#DejaVuSans-32" x="127.246094"/>
       <use xlink:href="#DejaVuSans-34" x="190.869141"/>
       <use xlink:href="#DejaVuSans-2d" x="254.492188"/>
       <use xlink:href="#DejaVuSans-30" x="290.576172"/>
       <use xlink:href="#DejaVuSans-37" x="354.199219"/>
       <use xlink:href="#DejaVuSans-2d" x="417.822266"/>
       <use xlink:href="#DejaVuSans-31" x="453.90625"/>
       <use xlink:href="#DejaVuSans-35" x="517.529297"/>
      </g>
     </g>
    </g>
    <g id="xtick_4">
     <g id="line2d_7">
      <path d="M 566.939047 404.12 
L 566.939047 26.88 
" clip-path="url(#p9cdd62df31)" style="fill: none; stroke-dasharray: 2.96,1.28; stroke-dashoffset: 0; stroke: #b0b0b0; stroke-width: 0.8"/>
     </g>
     <g id="line2d_8">
      <g>
       <use xlink:href="#mf6698ffdad" x="566.939047" y="404.12" style="stroke: #000000; stroke-width: 0.8"/>
      </g>
     </g>
     <g id="text_4">
      <!-- 2024-08-01 -->
      <g transform="translate(537.881235 418.718437) scale(0.1 -0.1)">
       <defs>
        <path id="DejaVuSans-38" d="M 2034 2216 
Q 1584 2216 1326 1975 
Q 1069 1734 1069 1313 
Q 1069 891 1326 650 
Q 1584 409 2034 409 
Q 2484 409 2743 651 
Q 3003 894 3003 1313 
Q 3003 1734 2745 1975 
Q 2488 2216 2034 2216 
z
M 1403 2484 
Q 997 2584 770 2862 
Q 544 3141 544 3541 
Q 544 4100 942 4425 
Q 1341 4750 2034 4750 
Q 2731 4750 3128 4425 
Q 3525 4100 3525 3541 
Q 3525 3141 3298 2862 
Q 3072 2584 2669 2484 
Q 3125 2378 3379 2068 
Q 3634 1759 3634 1313 
Q 3634 634 3220 271 
Q 2806 -91 2034 -91 
Q 1263 -91 848 271 
Q 434 634 434 1313 
Q 434 1759 690 2068 
Q 947 2378 1403 2484 
z
M 1172 3481 
Q 1172 3119 1398 2916 
Q 1625 2713 2034 2713 
Q 2441 2713 2670 2916 
Q 2900 3119 2900 3481 
Q 2900 3844 2670 4047 
Q 2441 4250 2034 4250 
Q 1625 4250 1398 4047 
Q 1172 3844 1172 3481 
z
" transform="scale(0.015625)"/>
       </defs>
       <use xlink:href="#DejaVuSans-32"/>
       <use xlink:href="#DejaVuSans-30" x="63.623047"/>
       <use xlink:href="#DejaVuSans-32" x="127.246094"/>
       <use xlink:href="#DejaVuSans-34" x="190.869141"/>
       <use xlink:href="#DejaVuSans-2d" x="254.492188"/>
       <use xlink:href="#DejaVuSans-30" x="290.576172"/>
       <use xlink:href="#DejaVuSans-38" x="354.199219"/>
       <use xlink:href="#DejaVuSans-2d" x="417.822266"/>
       <use xlink:href="#DejaVuSans-30" x="453.90625"/>
       <use xlink:href="#DejaVuSans-31" x="517.529297"/>
      </g>
     </g>
    </g>
    <g id="xtick_5">
     <g id="line2d_9">
      <path d="M 706.822235 404.12 
L 706.822235 26.88 
" clip-path="url(#p9cdd62df31)" style="fill: none; stroke-dasharray: 2.96,1.28; stroke-dashoffset: 0; stroke: #b0b0b0; stroke-width: 0.8"/>
     </g>
     <g id="line2d_10">
      <g>
       <use xlink:href="#mf6698ffdad" x="706.822235" y="404.12" style="stroke: #000000; stroke-width: 0.8"/>
      </g>
     </g>
     <g id="text_5">
      <!-- 2024-08-15 -->
      <g transform="translate(677.764423 418.718437) scale(0.1 -0.1)">
       <use xlink:href="#DejaVuSans-32"/>
       <use xlink:href="#DejaVuSans-30" x="63.623047"/>
       <use xlink:href="#DejaVuSans-32" x="127.246094"/>
       <use xlink:href="#DejaVuSans-34" x="190.869141"/>
       <use xlink:href="#DejaVuSans-2d" x="254.492188"/>
       <use xlink:href="#DejaVuSans-30" x="290.576172"/>
       <use xlink:href="#DejaVuSans-38" x="354.199219"/>
       <use xlink:href="#DejaVuSans-2d" x="417.822266"/>
       <use xlink:href="#DejaVuSans-31" x="453.90625"/>
       <use xlink:href="#DejaVuSans-35" x="517.529297"/>
      </g>
     </g>
    </g>
   </g>
   <g id="matplotlib.axis_2">
    <g id="ytick_1">
     <g id="line2d_11">
      <path d="M 50.87 393.172728 
L 853.2 393.172728 
" clip-path="url(#p9cdd62df31)" style="fill: none; stroke-dasharray: 2.96,1.28; stroke-dashoffset: 0; stroke: #b0b0b0; stroke-width: 0.8"/>
     </g>
     <g id="line2d_12">
      <defs>
       <path id="mc38c862b73" d="M 0 0 
L -3.5 0 
" style="stroke: #000000; stroke-width: 0.8"/>
      </defs>
      <g>
       <use xlink:href="#mc38c862b73" x="50.87" y="393.172728" style="stroke: #000000; stroke-width: 0.8"/>
      </g>
     </g>
     <g id="text_6">
      <!-- 0 -->
      <g transform="translate(37.5075 396.971947) scale(0.1 -0.1)">
       <use xlink:href="#DejaVuSans-30"/>
      </g>
     </g>
    </g>
    <g id="ytick_2">
     <g id="line2d_13">
      <path d="M 50.87 329.938861 
L 853.2 329.938861 
" clip-path="url(#p9cdd62df31)" style="fill: none; stroke-dasharray: 2.96,1.28; stroke-dashoffset: 0; stroke: #b0b0b0; stroke-width: 0.8"/>
     </g>
     <g id="line2d_14">
      <g>
       <use xlink:href="#mc38c862b73" x="50.87" y="329.938861" style="stroke: #000000; stroke-width: 0.8"/>
      </g>
     </g>
     <g id="text_7">
      <!-- 50 -->
      <g transform="translate(31.145 333.738079) scale(0.1 -0.1)">
       <use xlink:href="#DejaVuSans-35"/>
       <use xlink:href="#DejaVuSans-30" x="63.623047"/>
      </g>
     </g>
    </g>
    <g id="ytick_3">
     <g id="line2d_15">
      <path d="M 50.87 266.704994 
L 853.2 266.704994 
" clip-path="url(#p9cdd62df31)" style="fill: none; stroke-dasharray: 2.96,1.28; stroke-dashoffset: 0; stroke: #b0b0b0; stroke-width: 0.8"/>
     </g>
     <g id="line2d_16">
      <g>
       <use xlink:href="#mc38c862b73" x="50.87" y="266.704994" style="stroke: #000000; stroke-width: 0.8"/>
      </g>
     </g>
     <g id="text_8">
      <!-- 100 -->
      <g transform="translate(24.7825 270.504212) scale(0.1 -0.1)">
       <use xlink:href="#DejaVuSans-31"/>
       <use xlink:href="#DejaVuSans-30" x="63.623047"/>
       <use xlink:href="#DejaVuSans-30" x="127.246094"/>
      </g>
     </g>
    </g>
    <g id="ytick_4">
     <g id="line2d_17">
      <path d="M 50.87 203.471127 
L 853.2 203.471127 
" clip-path="url(#p9cdd62df31)" style="fill: none; stroke-dasharray: 2.96,1.28; stroke-dashoffset: 0; stroke: #b0b0b0; stroke-width: 0.8"/>
     </g>
     <g id="line2d_18">
      <g>
       <use xlink:href="#mc38c862b73" x="50.87" y="203.471127" style="stroke: #000000; stroke-width: 0.8"/>
      </g>
     </g>
     <g id="text_9">
      <!-- 150 -->
      <g transform="translate(24.7825 207.270345) scale(0.1 -0.1)">
       <use xlink:href="#DejaVuSans-31"/>
       <use xlink:href="#DejaVuSans-35" x="63.623047"/>
       <use xlink:href="#DejaVuSans-30" x="127.246094"/>
      </g>
     </g>
    </g>
    <g id="ytick_5">
     <g id="line2d_19">
      <path d="M 50.87 140.237259 
L 853.2 140.237259 
" clip-path="url(#p9cdd62df31)" style="fill: none; stroke-dasharray: 2.96,1.28; stroke-dashoffset: 0; stroke: #b0b0b0; stroke-width: 0.8"/>
     </g>
     <g id="line2d_20">
      <g>
       <use xlink:href="#mc38c862b73" x="50.87" y="140.237259" style="stroke: #000000; stroke-width: 0.8"/>
      </g>
     </g>
     <g id="text_10">
      <!-- 200 -->
      <g transform="translate(24.7825 144.036478) scale(0.1 -0.1)">
       <use xlink:href="#DejaVuSans-32"/>
       <use xlink:href="#DejaVuSans-30" x="63.623047"/>
       <use xlink:href="#DejaVuSans-30" x="127.246094"/>
      </g>
     </g>
    </g>
    <g id="ytick_6">
     <g id="line2d_21">
      <path d="M 50.87 77.003392 
L 853.2 77.003392 
" clip-path="url(#p9cdd62df31)" style="fill: none; stroke-dasharray: 2.96,1.28; stroke-dashoffset: 0; stroke: #b0b0b0; stroke-width: 0.8"/>
     </g>
     <g id="line2d_22">
      <g>
       <use xlink:href="#mc38c862b73" x="50.87" y="77.003392" style="stroke: #000000; stroke-width: 0.8"/>
      </g>
     </g>
     <g id="text_11">
      <!-- 250 -->
      <g transform="translate(24.7825 80.802611) scale(0.1 -0.1)">
       <use xlink:href="#DejaVuSans-32"/>
       <use xlink:href="#DejaVuSans-35" x="63.623047"/>
       <use xlink:href="#DejaVuSans-30" x="127.246094"/>
      </g>
     </g>
    </g>
    <g id="text_12">
     <!-- Score -->
     <g transform="translate(18.702813 229.502344) rotate(-90) scale(0.1 -0.1)">
      <defs>
       <path id="DejaVuSans-53" d="M 3425 4513 
L 3425 3897 
Q 3066 4069 2747 4153 
Q 2428 4238 2131 4238 
Q 1616 4238 1336 4038 
Q 1056 3838 1056 3469 
Q 1056 3159 1242 3001 
Q 1428 2844 1947 2747 
L 2328 2669 
Q 3034 2534 3370 2195 
Q 3706 1856 3706 1288 
Q 3706 609 3251 259 
Q 2797 -91 1919 -91 
Q 1588 -91 1214 -16 
Q 841 59 441 206 
L 441 856 
Q 825 641 1194 531 
Q 1563 422 1919 422 
Q 2459 422 2753 634 
Q 3047 847 3047 1241 
Q 3047 1584 2836 1778 
Q 2625 1972 2144 2069 
L 1759 2144 
Q 1053 2284 737 2584 
Q 422 2884 422 3419 
Q 422 4038 858 4394 
Q 1294 4750 2059 4750 
Q 2388 4750 2728 4690 
Q 3069 4631 3425 4513 
z
" transform="scale(0.015625)"/>
       <path id="DejaVuSans-63" d="M 3122 3366 
L 3122 2828 
Q 2878 2963 2633 3030 
Q 2388 3097 2138 3097 
Q 1578 3097 1268 2742 
Q 959 2388 959 1747 
Q 959 1106 1268 751 
Q 1578 397 2138 397 
Q 2388 397 2633 464 
Q 2878 531 3122 666 
L 3122 134 
Q 2881 22 2623 -34 
Q 2366 -91 2075 -91 
Q 1284 -91 818 406 
Q 353 903 353 1747 
Q 353 2603 823 3093 
Q 1294 3584 2113 3584 
Q 2378 3584 2631 3529 
Q 2884 3475 3122 3366 
z
" transform="scale(0.015625)"/>
       <path id="DejaVuSans-6f" d="M 1959 3097 
Q 1497 3097 1228 2736 
Q 959 2375 959 1747 
Q 959 1119 1226 758 
Q 1494 397 1959 397 
Q 2419 397 2687 759 
Q 2956 1122 2956 1747 
Q 2956 2369 2687 2733 
Q 2419 3097 1959 3097 
z
M 1959 3584 
Q 2709 3584 3137 3096 
Q 3566 2609 3566 1747 
Q 3566 888 3137 398 
Q 2709 -91 1959 -91 
Q 1206 -91 779 398 
Q 353 888 353 1747 
Q 353 2609 779 3096 
Q 1206 3584 1959 3584 
z
" transform="scale(0.015625)"/>
       <path id="DejaVuSans-72" d="M 2631 2963 
Q 2534 3019 2420 3045 
Q 2306 3072 2169 3072 
Q 1681 3072 1420 2755 
Q 1159 2438 1159 1844 
L 1159 0 
L 581 0 
L 581 3500 
L 1159 3500 
L 1159 2956 
Q 1341 3275 1631 3429 
Q 1922 3584 2338 3584 
Q 2397 3584 2469 3576 
Q 2541 3569 2628 3553 
L 2631 2963 
z
" transform="scale(0.015625)"/>
       <path id="DejaVuSans-65" d="M 3597 1894 
L 3597 1613 
L 953 1613 
Q 991 1019 1311 708 
Q 1631 397 2203 397 
Q 2534 397 2845 478 
Q 3156 559 3463 722 
L 3463 178 
Q 3153 47 2828 -22 
Q 2503 -91 2169 -91 
Q 1331 -91 842 396 
Q 353 884 353 1716 
Q 353 2575 817 3079 
Q 1281 3584 2069 3584 
Q 2775 3584 3186 3129 
Q 3597 2675 3597 1894 
z
M 3022 2063 
Q 3016 2534 2758 2815 
Q 2500 3097 2075 3097 
Q 1594 3097 1305 2825 
Q 1016 2553 972 2059 
L 3022 2063 
z
" transform="scale(0.015625)"/>
      </defs>
      <use xlink:href="#DejaVuSans-53"/>
      <use xlink:href="#DejaVuSans-63" x="63.476562"/>
      <use xlink:href="#DejaVuSans-6f" x="118.457031"/>
      <use xlink:href="#DejaVuSans-72" x="179.638672"/>
      <use xlink:href="#DejaVuSans-65" x="218.501953"/>
     </g>
    </g>
   </g>
   <g id="line2d_23">
    <path d="M 87.339545 380.569113 
L 97.331202 359.069598 
L 107.322858 321.129278 
L 117.314514 312.276537 
L 127.306171 293.306376 
L 137.297827 274.336216 
L 147.289483 246.513315 
L 157.281139 235.131219 
L 167.272796 203.514285 
L 177.264452 192.132189 
L 187.256108 157.985901 
L 197.247765 137.751063 
L 207.239421 78.311228 
L 237.21439 78.311228 
L 247.206046 78.311228 
L 257.197702 78.311228 
L 267.189359 78.311228 
L 277.181015 78.311228 
L 297.164328 78.311228 
L 307.155984 78.311228 
L 317.14764 78.311228 
L 327.139296 78.311228 
L 337.130953 78.311228 
L 347.122609 59.341068 
L 357.114265 59.341068 
L 367.105922 59.341068 
L 377.097578 59.341068 
L 387.089234 59.341068 
L 397.08089 46.694295 
L 407.072547 46.694295 
L 417.064203 46.694295 
L 427.055859 46.694295 
L 437.047516 46.694295 
L 447.039172 46.694295 
L 457.030828 46.694295 
L 467.022484 46.694295 
L 477.014141 46.694295 
L 487.005797 46.694295 
L 496.997453 46.694295 
L 506.98911 46.694295 
L 516.980766 46.694295 
L 526.972422 46.694295 
L 536.964078 46.694295 
L 546.955735 46.694295 
L 556.947391 46.694295 
L 566.939047 46.694295 
L 576.930704 46.694295 
L 586.92236 46.694295 
L 596.914016 46.694295 
L 606.905672 46.694295 
L 616.897329 46.694295 
L 626.888985 46.694295 
L 636.880641 46.694295 
L 646.872298 46.694295 
L 656.863954 46.694295 
L 666.85561 46.694295 
L 676.847267 46.694295 
L 686.838923 46.694295 
L 696.830579 46.694295 
L 706.822235 46.694295 
L 716.813892 46.694295 
L 726.805548 46.694295 
L 736.797204 46.694295 
L 746.788861 46.694295 
L 756.780517 46.694295 
L 766.772173 46.694295 
L 776.763829 46.694295 
L 786.755486 46.694295 
L 796.747142 46.694295 
L 806.738798 46.694295 
L 816.730455 46.694295 
" clip-path="url(#p9cdd62df31)" style="fill: none; stroke: #1f77b4; stroke-width: 1.5; stroke-linecap: square"/>
    <defs>
     <path id="m1d1ed2841c" d="M 0 3.5 
C 0.928211 3.5 1.81853 3.131218 2.474874 2.474874 
C 3.131218 1.81853 3.5 0.928211 3.5 0 
C 3.5 -0.928211 3.131218 -1.81853 2.474874 -2.474874 
C 1.81853 -3.131218 0.928211 -3.5 0 -3.5 
C -0.928211 -3.5 -1.81853 -3.131218 -2.474874 -2.474874 
C -3.131218 -1.81853 -3.5 -0.928211 -3.5 0 
C -3.5 0.928211 -3.131218 1.81853 -2.474874 2.474874 
C -1.81853 3.131218 -0.928211 3.5 0 3.5 
z
" style="stroke: #1f77b4"/>
    </defs>
    <g clip-path="url(#p9cdd62df31)">
     <use xlink:href="#m1d1ed2841c" x="87.339545" y="380.569113" style="fill: #1f77b4; stroke: #1f77b4"/>
     <use xlink:href="#m1d1ed2841c" x="97.331202" y="359.069598" style="fill: #1f77b4; stroke: #1f77b4"/>
     <use xlink:href="#m1d1ed2841c" x="107.322858" y="321.129278" style="fill: #1f77b4; stroke: #1f77b4"/>
     <use xlink:href="#m1d1ed2841c" x="117.314514" y="312.276537" style="fill: #1f77b4; stroke: #1f77b4"/>
     <use xlink:href="#m1d1ed2841c" x="127.306171" y="293.306376" style="fill: #1f77b4; stroke: #1f77b4"/>
     <use xlink:href="#m1d1ed2841c" x="137.297827" y="274.336216" style="fill: #1f77b4; stroke: #1f77b4"/>
     <use xlink:href="#m1d1ed2841c" x="147.289483" y="246.513315" style="fill: #1f77b4; stroke: #1f77b4"/>
     <use xlink:href="#m1d1ed2841c" x="157.281139" y="235.131219" style="fill: #1f77b4; stroke: #1f77b4"/>
     <use xlink:href="#m1d1ed2841c" x="167.272796" y="203.514285" style="fill: #1f77b4; stroke: #1f77b4"/>
     <use xlink:href="#m1d1ed2841c" x="177.264452" y="192.132189" style="fill: #1f77b4; stroke: #1f77b4"/>
     <use xlink:href="#m1d1ed2841c" x="187.256108" y="157.985901" style="fill: #1f77b4; stroke: #1f77b4"/>
     <use xlink:href="#m1d1ed2841c" x="197.247765" y="137.751063" style="fill: #1f77b4; stroke: #1f77b4"/>
     <use xlink:href="#m1d1ed2841c" x="207.239421" y="78.311228" style="fill: #1f77b4; stroke: #1f77b4"/>
     <use xlink:href="#m1d1ed2841c" x="237.21439" y="78.311228" style="fill: #1f77b4; stroke: #1f77b4"/>
     <use xlink:href="#m1d1ed2841c" x="247.206046" y="78.311228" style="fill: #1f77b4; stroke: #1f77b4"/>
     <use xlink:href="#m1d1ed2841c" x="257.197702" y="78.311228" style="fill: #1f77b4; stroke: #1f77b4"/>
     <use xlink:href="#m1d1ed2841c" x="267.189359" y="78.311228" style="fill: #1f77b4; stroke: #1f77b4"/>
     <use xlink:href="#m1d1ed2841c" x="277.181015" y="78.311228" style="fill: #1f77b4; stroke: #1f77b4"/>
     <use xlink:href="#m1d1ed2841c" x="297.164328" y="78.311228" style="fill: #1f77b4; stroke: #1f77b4"/>
     <use xlink:href="#m1d1ed2841c" x="307.155984" y="78.311228" style="fill: #1f77b4; stroke: #1f77b4"/>
     <use xlink:href="#m1d1ed2841c" x="317.14764" y="78.311228" style="fill: #1f77b4; stroke: #1f77b4"/>
     <use xlink:href="#m1d1ed2841c" x="327.139296" y="78.311228" style="fill: #1f77b4; stroke: #1f77b4"/>
     <use xlink:href="#m1d1ed2841c" x="337.130953" y="78.311228" style="fill: #1f77b4; stroke: #1f77b4"/>
     <use xlink:href="#m1d1ed2841c" x="347.122609" y="59.341068" style="fill: #1f77b4; stroke: #1f77b4"/>
     <use xlink:href="#m1d1ed2841c" x="357.114265" y="59.341068" style="fill: #1f77b4; stroke: #1f77b4"/>
     <use xlink:href="#m1d1ed2841c" x="367.105922" y="59.341068" style="fill: #1f77b4; stroke: #1f77b4"/>
     <use xlink:href="#m1d1ed2841c" x="377.097578" y="59.341068" style="fill: #1f77b4; stroke: #1f77b4"/>
     <use xlink:href="#m1d1ed2841c" x="387.089234" y="59.341068" style="fill: #1f77b4; stroke: #1f77b4"/>
     <use xlink:href="#m1d1ed2841c" x="397.08089" y="46.694295" style="fill: #1f77b4; stroke: #1f77b4"/>
     <use xlink:href="#m1d1ed2841c" x="407.072547" y="46.694295" style="fill: #1f77b4; stroke: #1f77b4"/>
     <use xlink:href="#m1d1ed2841c" x="417.064203" y="46.694295" style="fill: #1f77b4; stroke: #1f77b4"/>
     <use xlink:href="#m1d1ed2841c" x="427.055859" y="46.694295" style="fill: #1f77b4; stroke: #1f77b4"/>
     <use xlink:href="#m1d1ed2841c" x="437.047516" y="46.694295" style="fill: #1f77b4; stroke: #1f77b4"/>
     <use xlink:href="#m1d1ed2841c" x="447.039172" y="46.694295" style="fill: #1f77b4; stroke: #1f77b4"/>
     <use xlink:href="#m1d1ed2841c" x="457.030828" y="46.694295" style="fill: #1f77b4; stroke: #1f77b4"/>
     <use xlink:href="#m1d1ed2841c" x="467.022484" y="46.694295" style="fill: #1f77b4; stroke: #1f77b4"/>
     <use xlink:href="#m1d1ed2841c" x="477.014141" y="46.694295" style="fill: #1f77b4; stroke: #1f77b4"/>
     <use xlink:href="#m1d1ed2841c" x="487.005797" y="46.694295" style="fill: #1f77b4; stroke: #1f77b4"/>
     <use xlink:href="#m1d1ed2841c" x="496.997453" y="46.694295" style="fill: #1f77b4; stroke: #1f77b4"/>
     <use xlink:href="#m1d1ed2841c" x="506.98911" y="46.694295" style="fill: #1f77b4; stroke: #1f77b4"/>
     <use xlink:href="#m1d1ed2841c" x="516.980766" y="46.694295" style="fill: #1f77b4; stroke: #1f77b4"/>
     <use xlink:href="#m1d1ed2841c" x="526.972422" y="46.694295" style="fill: #1f77b4; stroke: #1f77b4"/>
     <use xlink:href="#m1d1ed2841c" x="536.964078" y="46.694295" style="fill: #1f77b4; stroke: #1f77b4"/>
     <use xlink:href="#m1d1ed2841c" x="546.955735" y="46.694295" style="fill: #1f77b4; stroke: #1f77b4"/>
     <use xlink:href="#m1d1ed2841c" x="556.947391" y="46.694295" style="fill: #1f77b4; stroke: #1f77b4"/>
     <use xlink:href="#m1d1ed2841c" x="566.939047" y="46.694295" style="fill: #1f77b4; stroke: #1f77b4"/>
     <use xlink:href="#m1d1ed2841c" x="576.930704" y="46.694295" style="fill: #1f77b4; stroke: #1f77b4"/>
     <use xlink:href="#m1d1ed2841c" x="586.92236" y="46.694295" style="fill: #1f77b4; stroke: #1f77b4"/>
     <use xlink:href="#m1d1ed2841c" x="596.914016" y="46.694295" style="fill: #1f77b4; stroke: #1f77b4"/>
     <use xlink:href="#m1d1ed2841c" x="606.905672" y="46.694295" style="fill: #1f77b4; stroke: #1f77b4"/>
     <use xlink:href="#m1d1ed2841c" x="616.897329" y="46.694295" style="fill: #1f77b4; stroke: #1f77b4"/>
     <use xlink:href="#m1d1ed2841c" x="626.888985" y="46.694295" style="fill: #1f77b4; stroke: #1f77b4"/>
     <use xlink:href="#m1d1ed2841c" x="636.880641" y="46.694295" style="fill: #1f77b4; stroke: #1f77b4"/>
     <use xlink:href="#m1d1ed2841c" x="646.872298" y="46.694295" style="fill: #1f77b4; stroke: #1f77b4"/>
     <use xlink:href="#m1d1ed2841c" x="656.863954" y="46.694295" style="fill: #1f77b4; stroke: #1f77b4"/>
     <use xlink:href="#m1d1ed2841c" x="666.85561" y="46.694295" style="fill: #1f77b4; stroke: #1f77b4"/>
     <use xlink:href="#m1d1ed2841c" x="676.847267" y="46.694295" style="fill: #1f77b4; stroke: #1f77b4"/>
     <use xlink:href="#m1d1ed2841c" x="686.838923" y="46.694295" style="fill: #1f77b4; stroke: #1f77b4"/>
     <use xlink:href="#m1d1ed2841c" x="696.830579" y="46.694295" style="fill: #1f77b4; stroke: #1f77b4"/>
     <use xlink:href="#m1d1ed2841c" x="706.822235" y="46.694295" style="fill: #1f77b4; stroke: #1f77b4"/>
     <use xlink:href="#m1d1ed2841c" x="716.813892" y="46.694295" style="fill: #1f77b4; stroke: #1f77b4"/>
     <use xlink:href="#m1d1ed2841c" x="726.805548" y="46.694295" style="fill: #1f77b4; stroke: #1f77b4"/>
     <use xlink:href="#m1d1ed2841c" x="736.797204" y="46.694295" style="fill: #1f77b4; stroke: #1f77b4"/>
     <use xlink:href="#m1d1ed2841c" x="746.788861" y="46.694295" style="fill: #1f77b4; stroke: #1f77b4"/>
     <use xlink:href="#m1d1ed2841c" x="756.780517" y="46.694295" style="fill: #1f77b4; stroke: #1f77b4"/>
     <use xlink:href="#m1d1ed2841c" x="766.772173" y="46.694295" style="fill: #1f77b4; stroke: #1f77b4"/>
     <use xlink:href="#m1d1ed2841c" x="776.763829" y="46.694295" style="fill: #1f77b4; stroke: #1f77b4"/>
     <use xlink:href="#m1d1ed2841c" x="786.755486" y="46.694295" style="fill: #1f77b4; stroke: #1f77b4"/>
     <use xlink:href="#m1d1ed2841c" x="796.747142" y="46.694295" style="fill: #1f77b4; stroke: #1f77b4"/>
     <use xlink:href="#m1d1ed2841c" x="806.738798" y="46.694295" style="fill: #1f77b4; stroke: #1f77b4"/>
     <use xlink:href="#m1d1ed2841c" x="816.730455" y="46.694295" style="fill: #1f77b4; stroke: #1f77b4"/>
    </g>
   </g>
   <g id="line2d_24">
    <path d="M 87.339545 380.649462 
L 97.331202 359.149947 
L 107.322858 340.179787 
L 117.314514 333.8564 
L 127.306171 327.533013 
L 137.297827 303.504144 
L 147.289483 292.122048 
L 157.281139 285.798661 
L 167.272796 254.181728 
L 177.264452 216.241407 
L 187.256108 190.947861 
L 197.247765 177.03641 
L 207.239421 130.243348 
L 237.21439 130.243348 
L 247.206046 130.243348 
L 257.197702 130.243348 
L 267.189359 130.243348 
L 277.181015 130.243348 
L 297.164328 130.243348 
L 307.155984 130.243348 
L 317.14764 130.243348 
L 327.139296 130.243348 
L 337.130953 130.243348 
L 347.122609 111.273188 
L 357.114265 111.273188 
L 367.105922 111.273188 
L 377.097578 111.273188 
L 387.089234 111.273188 
L 397.08089 79.656254 
L 407.072547 79.656254 
L 417.064203 79.656254 
L 427.055859 79.656254 
L 437.047516 79.656254 
L 447.039172 79.656254 
L 457.030828 79.656254 
L 467.022484 79.656254 
L 477.014141 79.656254 
L 487.005797 79.656254 
L 496.997453 79.656254 
L 506.98911 79.656254 
L 516.980766 79.656254 
L 526.972422 79.656254 
L 536.964078 79.656254 
L 546.955735 79.656254 
L 556.947391 79.656254 
L 566.939047 79.656254 
L 576.930704 79.656254 
L 586.92236 79.656254 
L 596.914016 79.656254 
L 606.905672 79.656254 
L 616.897329 79.656254 
L 626.888985 79.656254 
L 636.880641 79.656254 
L 646.872298 79.656254 
L 656.863954 79.656254 
L 666.85561 79.656254 
L 676.847267 79.656254 
L 686.838923 79.656254 
L 696.830579 79.656254 
L 706.822235 79.656254 
L 716.813892 79.656254 
L 726.805548 79.656254 
L 736.797204 79.656254 
L 746.788861 79.656254 
L 756.780517 79.656254 
L 766.772173 79.656254 
L 776.763829 79.656254 
L 786.755486 79.656254 
L 796.747142 79.656254 
L 806.738798 79.656254 
L 816.730455 79.656254 
" clip-path="url(#p9cdd62df31)" style="fill: none; stroke: #ff7f0e; stroke-width: 1.5; stroke-linecap: square"/>
    <defs>
     <path id="md4cd46155e" d="M 0 3.5 
C 0.928211 3.5 1.81853 3.131218 2.474874 2.474874 
C 3.131218 1.81853 3.5 0.928211 3.5 0 
C 3.5 -0.928211 3.131218 -1.81853 2.474874 -2.474874 
C 1.81853 -3.131218 0.928211 -3.5 0 -3.5 
C -0.928211 -3.5 -1.81853 -3.131218 -2.474874 -2.474874 
C -3.131218 -1.81853 -3.5 -0.928211 -3.5 0 
C -3.5 0.928211 -3.131218 1.81853 -2.474874 2.474874 
C -1.81853 3.131218 -0.928211 3.5 0 3.5 
z
" style="stroke: #ff7f0e"/>
    </defs>
    <g clip-path="url(#p9cdd62df31)">
     <use xlink:href="#md4cd46155e" x="87.339545" y="380.649462" style="fill: #ff7f0e; stroke: #ff7f0e"/>
     <use xlink:href="#md4cd46155e" x="97.331202" y="359.149947" style="fill: #ff7f0e; stroke: #ff7f0e"/>
     <use xlink:href="#md4cd46155e" x="107.322858" y="340.179787" style="fill: #ff7f0e; stroke: #ff7f0e"/>
     <use xlink:href="#md4cd46155e" x="117.314514" y="333.8564" style="fill: #ff7f0e; stroke: #ff7f0e"/>
     <use xlink:href="#md4cd46155e" x="127.306171" y="327.533013" style="fill: #ff7f0e; stroke: #ff7f0e"/>
     <use xlink:href="#md4cd46155e" x="137.297827" y="303.504144" style="fill: #ff7f0e; stroke: #ff7f0e"/>
     <use xlink:href="#md4cd46155e" x="147.289483" y="292.122048" style="fill: #ff7f0e; stroke: #ff7f0e"/>
     <use xlink:href="#md4cd46155e" x="157.281139" y="285.798661" style="fill: #ff7f0e; stroke: #ff7f0e"/>
     <use xlink:href="#md4cd46155e" x="167.272796" y="254.181728" style="fill: #ff7f0e; stroke: #ff7f0e"/>
     <use xlink:href="#md4cd46155e" x="177.264452" y="216.241407" style="fill: #ff7f0e; stroke: #ff7f0e"/>
     <use xlink:href="#md4cd46155e" x="187.256108" y="190.947861" style="fill: #ff7f0e; stroke: #ff7f0e"/>
     <use xlink:href="#md4cd46155e" x="197.247765" y="177.03641" style="fill: #ff7f0e; stroke: #ff7f0e"/>
     <use xlink:href="#md4cd46155e" x="207.239421" y="130.243348" style="fill: #ff7f0e; stroke: #ff7f0e"/>
     <use xlink:href="#md4cd46155e" x="237.21439" y="130.243348" style="fill: #ff7f0e; stroke: #ff7f0e"/>
     <use xlink:href="#md4cd46155e" x="247.206046" y="130.243348" style="fill: #ff7f0e; stroke: #ff7f0e"/>
     <use xlink:href="#md4cd46155e" x="257.197702" y="130.243348" style="fill: #ff7f0e; stroke: #ff7f0e"/>
     <use xlink:href="#md4cd46155e" x="267.189359" y="130.243348" style="fill: #ff7f0e; stroke: #ff7f0e"/>
     <use xlink:href="#md4cd46155e" x="277.181015" y="130.243348" style="fill: #ff7f0e; stroke: #ff7f0e"/>
     <use xlink:href="#md4cd46155e" x="297.164328" y="130.243348" style="fill: #ff7f0e; stroke: #ff7f0e"/>
     <use xlink:href="#md4cd46155e" x="307.155984" y="130.243348" style="fill: #ff7f0e; stroke: #ff7f0e"/>
     <use xlink:href="#md4cd46155e" x="317.14764" y="130.243348" style="fill: #ff7f0e; stroke: #ff7f0e"/>
     <use xlink:href="#md4cd46155e" x="327.139296" y="130.243348" style="fill: #ff7f0e; stroke: #ff7f0e"/>
     <use xlink:href="#md4cd46155e" x="337.130953" y="130.243348" style="fill: #ff7f0e; stroke: #ff7f0e"/>
     <use xlink:href="#md4cd46155e" x="347.122609" y="111.273188" style="fill: #ff7f0e; stroke: #ff7f0e"/>
     <use xlink:href="#md4cd46155e" x="357.114265" y="111.273188" style="fill: #ff7f0e; stroke: #ff7f0e"/>
     <use xlink:href="#md4cd46155e" x="367.105922" y="111.273188" style="fill: #ff7f0e; stroke: #ff7f0e"/>
     <use xlink:href="#md4cd46155e" x="377.097578" y="111.273188" style="fill: #ff7f0e; stroke: #ff7f0e"/>
     <use xlink:href="#md4cd46155e" x="387.089234" y="111.273188" style="fill: #ff7f0e; stroke: #ff7f0e"/>
     <use xlink:href="#md4cd46155e" x="397.08089" y="79.656254" style="fill: #ff7f0e; stroke: #ff7f0e"/>
     <use xlink:href="#md4cd46155e" x="407.072547" y="79.656254" style="fill: #ff7f0e; stroke: #ff7f0e"/>
     <use xlink:href="#md4cd46155e" x="417.064203" y="79.656254" style="fill: #ff7f0e; stroke: #ff7f0e"/>
     <use xlink:href="#md4cd46155e" x="427.055859" y="79.656254" style="fill: #ff7f0e; stroke: #ff7f0e"/>
     <use xlink:href="#md4cd46155e" x="437.047516" y="79.656254" style="fill: #ff7f0e; stroke: #ff7f0e"/>
     <use xlink:href="#md4cd46155e" x="447.039172" y="79.656254" style="fill: #ff7f0e; stroke: #ff7f0e"/>
     <use xlink:href="#md4cd46155e" x="457.030828" y="79.656254" style="fill: #ff7f0e; stroke: #ff7f0e"/>
     <use xlink:href="#md4cd46155e" x="467.022484" y="79.656254" style="fill: #ff7f0e; stroke: #ff7f0e"/>
     <use xlink:href="#md4cd46155e" x="477.014141" y="79.656254" style="fill: #ff7f0e; stroke: #ff7f0e"/>
     <use xlink:href="#md4cd46155e" x="487.005797" y="79.656254" style="fill: #ff7f0e; stroke: #ff7f0e"/>
     <use xlink:href="#md4cd46155e" x="496.997453" y="79.656254" style="fill: #ff7f0e; stroke: #ff7f0e"/>
     <use xlink:href="#md4cd46155e" x="506.98911" y="79.656254" style="fill: #ff7f0e; stroke: #ff7f0e"/>
     <use xlink:href="#md4cd46155e" x="516.980766" y="79.656254" style="fill: #ff7f0e; stroke: #ff7f0e"/>
     <use xlink:href="#md4cd46155e" x="526.972422" y="79.656254" style="fill: #ff7f0e; stroke: #ff7f0e"/>
     <use xlink:href="#md4cd46155e" x="536.964078" y="79.656254" style="fill: #ff7f0e; stroke: #ff7f0e"/>
     <use xlink:href="#md4cd46155e" x="546.955735" y="79.656254" style="fill: #ff7f0e; stroke: #ff7f0e"/>
     <use xlink:href="#md4cd46155e" x="556.947391" y="79.656254" style="fill: #ff7f0e; stroke: #ff7f0e"/>
     <use xlink:href="#md4cd46155e" x="566.939047" y="79.656254" style="fill: #ff7f0e; stroke: #ff7f0e"/>
     <use xlink:href="#md4cd46155e" x="576.930704" y="79.656254" style="fill: #ff7f0e; stroke: #ff7f0e"/>
     <use xlink:href="#md4cd46155e" x="586.92236" y="79.656254" style="fill: #ff7f0e; stroke: #ff7f0e"/>
     <use xlink:href="#md4cd46155e" x="596.914016" y="79.656254" style="fill: #ff7f0e; stroke: #ff7f0e"/>
     <use xlink:href="#md4cd46155e" x="606.905672" y="79.656254" style="fill: #ff7f0e; stroke: #ff7f0e"/>
     <use xlink:href="#md4cd46155e" x="616.897329" y="79.656254" style="fill: #ff7f0e; stroke: #ff7f0e"/>
     <use xlink:href="#md4cd46155e" x="626.888985" y="79.656254" style="fill: #ff7f0e; stroke: #ff7f0e"/>
     <use xlink:href="#md4cd46155e" x="636.880641" y="79.656254" style="fill: #ff7f0e; stroke: #ff7f0e"/>
     <use xlink:href="#md4cd46155e" x="646.872298" y="79.656254" style="fill: #ff7f0e; stroke: #ff7f0e"/>
     <use xlink:href="#md4cd46155e" x="656.863954" y="79.656254" style="fill: #ff7f0e; stroke: #ff7f0e"/>
     <use xlink:href="#md4cd46155e" x="666.85561" y="79.656254" style="fill: #ff7f0e; stroke: #ff7f0e"/>
     <use xlink:href="#md4cd46155e" x="676.847267" y="79.656254" style="fill: #ff7f0e; stroke: #ff7f0e"/>
     <use xlink:href="#md4cd46155e" x="686.838923" y="79.656254" style="fill: #ff7f0e; stroke: #ff7f0e"/>
     <use xlink:href="#md4cd46155e" x="696.830579" y="79.656254" style="fill: #ff7f0e; stroke: #ff7f0e"/>
     <use xlink:href="#md4cd46155e" x="706.822235" y="79.656254" style="fill: #ff7f0e; stroke: #ff7f0e"/>
     <use xlink:href="#md4cd46155e" x="716.813892" y="79.656254" style="fill: #ff7f0e; stroke: #ff7f0e"/>
     <use xlink:href="#md4cd46155e" x="726.805548" y="79.656254" style="fill: #ff7f0e; stroke: #ff7f0e"/>
     <use xlink:href="#md4cd46155e" x="736.797204" y="79.656254" style="fill: #ff7f0e; stroke: #ff7f0e"/>
     <use xlink:href="#md4cd46155e" x="746.788861" y="79.656254" style="fill: #ff7f0e; stroke: #ff7f0e"/>
     <use xlink:href="#md4cd46155e" x="756.780517" y="79.656254" style="fill: #ff7f0e; stroke: #ff7f0e"/>
     <use xlink:href="#md4cd46155e" x="766.772173" y="79.656254" style="fill: #ff7f0e; stroke: #ff7f0e"/>
     <use xlink:href="#md4cd46155e" x="776.763829" y="79.656254" style="fill: #ff7f0e; stroke: #ff7f0e"/>
     <use xlink:href="#md4cd46155e" x="786.755486" y="79.656254" style="fill: #ff7f0e; stroke: #ff7f0e"/>
     <use xlink:href="#md4cd46155e" x="796.747142" y="79.656254" style="fill: #ff7f0e; stroke: #ff7f0e"/>
     <use xlink:href="#md4cd46155e" x="806.738798" y="79.656254" style="fill: #ff7f0e; stroke: #ff7f0e"/>
     <use xlink:href="#md4cd46155e" x="816.730455" y="79.656254" style="fill: #ff7f0e; stroke: #ff7f0e"/>
    </g>
   </g>
   <g id="line2d_25">
    <path d="M 87.339545 380.570134 
L 97.331202 355.276587 
L 107.322858 331.247717 
L 117.314514 318.600944 
L 127.306171 293.307397 
L 137.297827 271.807882 
L 147.289483 250.308367 
L 157.281139 212.368047 
L 167.272796 190.868532 
L 177.264452 182.015791 
L 187.256108 154.19289 
L 197.247765 142.810793 
L 207.239421 99.811764 
L 237.21439 99.811764 
L 247.206046 99.811764 
L 257.197702 99.811764 
L 267.189359 99.811764 
L 277.181015 99.811764 
L 297.164328 99.811764 
L 307.155984 99.811764 
L 317.14764 99.811764 
L 327.139296 99.811764 
L 337.130953 99.811764 
L 347.122609 80.841604 
L 357.114265 80.841604 
L 367.105922 80.841604 
L 377.097578 80.841604 
L 387.089234 80.841604 
L 397.08089 80.841604 
L 407.072547 80.841604 
L 417.064203 80.841604 
L 427.055859 80.841604 
L 437.047516 80.841604 
L 447.039172 80.841604 
L 457.030828 80.841604 
L 467.022484 80.841604 
L 477.014141 80.841604 
L 487.005797 80.841604 
L 496.997453 80.841604 
L 506.98911 80.841604 
L 516.980766 80.841604 
L 526.972422 80.841604 
L 536.964078 80.841604 
L 546.955735 80.841604 
L 556.947391 80.841604 
L 566.939047 80.841604 
L 576.930704 80.841604 
L 586.92236 80.841604 
L 596.914016 80.841604 
L 606.905672 80.841604 
L 616.897329 80.841604 
L 626.888985 80.841604 
L 636.880641 80.841604 
L 646.872298 80.841604 
L 656.863954 80.841604 
L 666.85561 80.841604 
L 676.847267 80.841604 
L 686.838923 80.841604 
L 696.830579 80.841604 
L 706.822235 80.841604 
L 716.813892 80.841604 
L 726.805548 80.841604 
L 736.797204 80.841604 
L 746.788861 80.841604 
L 756.780517 80.841604 
L 766.772173 80.841604 
L 776.763829 80.841604 
L 786.755486 80.841604 
L 796.747142 80.841604 
L 806.738798 80.841604 
L 816.730455 80.841604 
" clip-path="url(#p9cdd62df31)" style="fill: none; stroke: #2ca02c; stroke-width: 1.5; stroke-linecap: square"/>
    <defs>
     <path id="m13f4aa2a38" d="M 0 3.5 
C 0.928211 3.5 1.81853 3.131218 2.474874 2.474874 
C 3.131218 1.81853 3.5 0.928211 3.5 0 
C 3.5 -0.928211 3.131218 -1.81853 2.474874 -2.474874 
C 1.81853 -3.131218 0.928211 -3.5 0 -3.5 
C -0.928211 -3.5 -1.81853 -3.131218 -2.474874 -2.474874 
C -3.131218 -1.81853 -3.5 -0.928211 -3.5 0 
C -3.5 0.928211 -3.131218 1.81853 -2.474874 2.474874 
C -1.81853 3.131218 -0.928211 3.5 0 3.5 
z
" style="stroke: #2ca02c"/>
    </defs>
    <g clip-path="url(#p9cdd62df31)">
     <use xlink:href="#m13f4aa2a38" x="87.339545" y="380.570134" style="fill: #2ca02c; stroke: #2ca02c"/>
     <use xlink:href="#m13f4aa2a38" x="97.331202" y="355.276587" style="fill: #2ca02c; stroke: #2ca02c"/>
     <use xlink:href="#m13f4aa2a38" x="107.322858" y="331.247717" style="fill: #2ca02c; stroke: #2ca02c"/>
     <use xlink:href="#m13f4aa2a38" x="117.314514" y="318.600944" style="fill: #2ca02c; stroke: #2ca02c"/>
     <use xlink:href="#m13f4aa2a38" x="127.306171" y="293.307397" style="fill: #2ca02c; stroke: #2ca02c"/>
     <use xlink:href="#m13f4aa2a38" x="137.297827" y="271.807882" style="fill: #2ca02c; stroke: #2ca02c"/>
     <use xlink:href="#m13f4aa2a38" x="147.289483" y="250.308367" style="fill: #2ca02c; stroke: #2ca02c"/>
     <use xlink:href="#m13f4aa2a38" x="157.281139" y="212.368047" style="fill: #2ca02c; stroke: #2ca02c"/>
     <use xlink:href="#m13f4aa2a38" x="167.272796" y="190.868532" style="fill: #2ca02c; stroke: #2ca02c"/>
     <use xlink:href="#m13f4aa2a38" x="177.264452" y="182.015791" style="fill: #2ca02c; stroke: #2ca02c"/>
     <use xlink:href="#m13f4aa2a38" x="187.256108" y="154.19289" style="fill: #2ca02c; stroke: #2ca02c"/>
     <use xlink:href="#m13f4aa2a38" x="197.247765" y="142.810793" style="fill: #2ca02c; stroke: #2ca02c"/>
     <use xlink:href="#m13f4aa2a38" x="207.239421" y="99.811764" style="fill: #2ca02c; stroke: #2ca02c"/>
     <use xlink:href="#m13f4aa2a38" x="237.21439" y="99.811764" style="fill: #2ca02c; stroke: #2ca02c"/>
     <use xlink:href="#m13f4aa2a38" x="247.206046" y="99.811764" style="fill: #2ca02c; stroke: #2ca02c"/>
     <use xlink:href="#m13f4aa2a38" x="257.197702" y="99.811764" style="fill: #2ca02c; stroke: #2ca02c"/>
     <use xlink:href="#m13f4aa2a38" x="267.189359" y="99.811764" style="fill: #2ca02c; stroke: #2ca02c"/>
     <use xlink:href="#m13f4aa2a38" x="277.181015" y="99.811764" style="fill: #2ca02c; stroke: #2ca02c"/>
     <use xlink:href="#m13f4aa2a38" x="297.164328" y="99.811764" style="fill: #2ca02c; stroke: #2ca02c"/>
     <use xlink:href="#m13f4aa2a38" x="307.155984" y="99.811764" style="fill: #2ca02c; stroke: #2ca02c"/>
     <use xlink:href="#m13f4aa2a38" x="317.14764" y="99.811764" style="fill: #2ca02c; stroke: #2ca02c"/>
     <use xlink:href="#m13f4aa2a38" x="327.139296" y="99.811764" style="fill: #2ca02c; stroke: #2ca02c"/>
     <use xlink:href="#m13f4aa2a38" x="337.130953" y="99.811764" style="fill: #2ca02c; stroke: #2ca02c"/>
     <use xlink:href="#m13f4aa2a38" x="347.122609" y="80.841604" style="fill: #2ca02c; stroke: #2ca02c"/>
     <use xlink:href="#m13f4aa2a38" x="357.114265" y="80.841604" style="fill: #2ca02c; stroke: #2ca02c"/>
     <use xlink:href="#m13f4aa2a38" x="367.105922" y="80.841604" style="fill: #2ca02c; stroke: #2ca02c"/>
     <use xlink:href="#m13f4aa2a38" x="377.097578" y="80.841604" style="fill: #2ca02c; stroke: #2ca02c"/>
     <use xlink:href="#m13f4aa2a38" x="387.089234" y="80.841604" style="fill: #2ca02c; stroke: #2ca02c"/>
     <use xlink:href="#m13f4aa2a38" x="397.08089" y="80.841604" style="fill: #2ca02c; stroke: #2ca02c"/>
     <use xlink:href="#m13f4aa2a38" x="407.072547" y="80.841604" style="fill: #2ca02c; stroke: #2ca02c"/>
     <use xlink:href="#m13f4aa2a38" x="417.064203" y="80.841604" style="fill: #2ca02c; stroke: #2ca02c"/>
     <use xlink:href="#m13f4aa2a38" x="427.055859" y="80.841604" style="fill: #2ca02c; stroke: #2ca02c"/>
     <use xlink:href="#m13f4aa2a38" x="437.047516" y="80.841604" style="fill: #2ca02c; stroke: #2ca02c"/>
     <use xlink:href="#m13f4aa2a38" x="447.039172" y="80.841604" style="fill: #2ca02c; stroke: #2ca02c"/>
     <use xlink:href="#m13f4aa2a38" x="457.030828" y="80.841604" style="fill: #2ca02c; stroke: #2ca02c"/>
     <use xlink:href="#m13f4aa2a38" x="467.022484" y="80.841604" style="fill: #2ca02c; stroke: #2ca02c"/>
     <use xlink:href="#m13f4aa2a38" x="477.014141" y="80.841604" style="fill: #2ca02c; stroke: #2ca02c"/>
     <use xlink:href="#m13f4aa2a38" x="487.005797" y="80.841604" style="fill: #2ca02c; stroke: #2ca02c"/>
     <use xlink:href="#m13f4aa2a38" x="496.997453" y="80.841604" style="fill: #2ca02c; stroke: #2ca02c"/>
     <use xlink:href="#m13f4aa2a38" x="506.98911" y="80.841604" style="fill: #2ca02c; stroke: #2ca02c"/>
     <use xlink:href="#m13f4aa2a38" x="516.980766" y="80.841604" style="fill: #2ca02c; stroke: #2ca02c"/>
     <use xlink:href="#m13f4aa2a38" x="526.972422" y="80.841604" style="fill: #2ca02c; stroke: #2ca02c"/>
     <use xlink:href="#m13f4aa2a38" x="536.964078" y="80.841604" style="fill: #2ca02c; stroke: #2ca02c"/>
     <use xlink:href="#m13f4aa2a38" x="546.955735" y="80.841604" style="fill: #2ca02c; stroke: #2ca02c"/>
     <use xlink:href="#m13f4aa2a38" x="556.947391" y="80.841604" style="fill: #2ca02c; stroke: #2ca02c"/>
     <use xlink:href="#m13f4aa2a38" x="566.939047" y="80.841604" style="fill: #2ca02c; stroke: #2ca02c"/>
     <use xlink:href="#m13f4aa2a38" x="576.930704" y="80.841604" style="fill: #2ca02c; stroke: #2ca02c"/>
     <use xlink:href="#m13f4aa2a38" x="586.92236" y="80.841604" style="fill: #2ca02c; stroke: #2ca02c"/>
     <use xlink:href="#m13f4aa2a38" x="596.914016" y="80.841604" style="fill: #2ca02c; stroke: #2ca02c"/>
     <use xlink:href="#m13f4aa2a38" x="606.905672" y="80.841604" style="fill: #2ca02c; stroke: #2ca02c"/>
     <use xlink:href="#m13f4aa2a38" x="616.897329" y="80.841604" style="fill: #2ca02c; stroke: #2ca02c"/>
     <use xlink:href="#m13f4aa2a38" x="626.888985" y="80.841604" style="fill: #2ca02c; stroke: #2ca02c"/>
     <use xlink:href="#m13f4aa2a38" x="636.880641" y="80.841604" style="fill: #2ca02c; stroke: #2ca02c"/>
     <use xlink:href="#m13f4aa2a38" x="646.872298" y="80.841604" style="fill: #2ca02c; stroke: #2ca02c"/>
     <use xlink:href="#m13f4aa2a38" x="656.863954" y="80.841604" style="fill: #2ca02c; stroke: #2ca02c"/>
     <use xlink:href="#m13f4aa2a38" x="666.85561" y="80.841604" style="fill: #2ca02c; stroke: #2ca02c"/>
     <use xlink:href="#m13f4aa2a38" x="676.847267" y="80.841604" style="fill: #2ca02c; stroke: #2ca02c"/>
     <use xlink:href="#m13f4aa2a38" x="686.838923" y="80.841604" style="fill: #2ca02c; stroke: #2ca02c"/>
     <use xlink:href="#m13f4aa2a38" x="696.830579" y="80.841604" style="fill: #2ca02c; stroke: #2ca02c"/>
     <use xlink:href="#m13f4aa2a38" x="706.822235" y="80.841604" style="fill: #2ca02c; stroke: #2ca02c"/>
     <use xlink:href="#m13f4aa2a38" x="716.813892" y="80.841604" style="fill: #2ca02c; stroke: #2ca02c"/>
     <use xlink:href="#m13f4aa2a38" x="726.805548" y="80.841604" style="fill: #2ca02c; stroke: #2ca02c"/>
     <use xlink:href="#m13f4aa2a38" x="736.797204" y="80.841604" style="fill: #2ca02c; stroke: #2ca02c"/>
     <use xlink:href="#m13f4aa2a38" x="746.788861" y="80.841604" style="fill: #2ca02c; stroke: #2ca02c"/>
     <use xlink:href="#m13f4aa2a38" x="756.780517" y="80.841604" style="fill: #2ca02c; stroke: #2ca02c"/>
     <use xlink:href="#m13f4aa2a38" x="766.772173" y="80.841604" style="fill: #2ca02c; stroke: #2ca02c"/>
     <use xlink:href="#m13f4aa2a38" x="776.763829" y="80.841604" style="fill: #2ca02c; stroke: #2ca02c"/>
     <use xlink:href="#m13f4aa2a38" x="786.755486" y="80.841604" style="fill: #2ca02c; stroke: #2ca02c"/>
     <use xlink:href="#m13f4aa2a38" x="796.747142" y="80.841604" style="fill: #2ca02c; stroke: #2ca02c"/>
     <use xlink:href="#m13f4aa2a38" x="806.738798" y="80.841604" style="fill: #2ca02c; stroke: #2ca02c"/>
     <use xlink:href="#m13f4aa2a38" x="816.730455" y="80.841604" style="fill: #2ca02c; stroke: #2ca02c"/>
    </g>
   </g>
   <g id="line2d_26">
    <path d="M 87.339545 380.431446 
L 97.331202 348.814512 
L 107.322858 317.197579 
L 117.314514 291.904032 
L 127.306171 279.257258 
L 137.297827 238.787583 
L 147.289483 214.758714 
L 157.281139 202.11194 
L 167.272796 180.612426 
L 177.264452 169.23033 
L 187.256108 135.084041 
L 197.247765 121.172591 
L 207.239421 81.967593 
L 237.21439 81.967593 
L 247.206046 81.967593 
L 257.197702 81.967593 
L 267.189359 81.967593 
L 277.181015 81.967593 
L 297.164328 81.967593 
L 307.155984 81.967593 
L 317.14764 81.967593 
L 327.139296 81.967593 
L 337.130953 81.967593 
L 347.122609 62.997433 
L 357.114265 62.997433 
L 367.105922 62.997433 
L 377.097578 62.997433 
L 387.089234 62.997433 
L 397.08089 44.027273 
L 407.072547 44.027273 
L 417.064203 44.027273 
L 427.055859 44.027273 
L 437.047516 44.027273 
L 447.039172 44.027273 
L 457.030828 44.027273 
L 467.022484 44.027273 
L 477.014141 44.027273 
L 487.005797 44.027273 
L 496.997453 44.027273 
L 506.98911 44.027273 
L 516.980766 44.027273 
L 526.972422 44.027273 
L 536.964078 44.027273 
L 546.955735 44.027273 
L 556.947391 44.027273 
L 566.939047 44.027273 
L 576.930704 44.027273 
L 586.92236 44.027273 
L 596.914016 44.027273 
L 606.905672 44.027273 
L 616.897329 44.027273 
L 626.888985 44.027273 
L 636.880641 44.027273 
L 646.872298 44.027273 
L 656.863954 44.027273 
L 666.85561 44.027273 
L 676.847267 44.027273 
L 686.838923 44.027273 
L 696.830579 44.027273 
L 706.822235 44.027273 
L 716.813892 44.027273 
L 726.805548 44.027273 
L 736.797204 44.027273 
L 746.788861 44.027273 
L 756.780517 44.027273 
L 766.772173 44.027273 
L 776.763829 44.027273 
L 786.755486 44.027273 
L 796.747142 44.027273 
L 806.738798 44.027273 
L 816.730455 44.027273 
" clip-path="url(#p9cdd62df31)" style="fill: none; stroke: #d62728; stroke-width: 1.5; stroke-linecap: square"/>
    <defs>
     <path id="mbfa29b568b" d="M 0 3.5 
C 0.928211 3.5 1.81853 3.131218 2.474874 2.474874 
C 3.131218 1.81853 3.5 0.928211 3.5 0 
C 3.5 -0.928211 3.131218 -1.81853 2.474874 -2.474874 
C 1.81853 -3.131218 0.928211 -3.5 0 -3.5 
C -0.928211 -3.5 -1.81853 -3.131218 -2.474874 -2.474874 
C -3.131218 -1.81853 -3.5 -0.928211 -3.5 0 
C -3.5 0.928211 -3.131218 1.81853 -2.474874 2.474874 
C -1.81853 3.131218 -0.928211 3.5 0 3.5 
z
" style="stroke: #d62728"/>
    </defs>
    <g clip-path="url(#p9cdd62df31)">
     <use xlink:href="#mbfa29b568b" x="87.339545" y="380.431446" style="fill: #d62728; stroke: #d62728"/>
     <use xlink:href="#mbfa29b568b" x="97.331202" y="348.814512" style="fill: #d62728; stroke: #d62728"/>
     <use xlink:href="#mbfa29b568b" x="107.322858" y="317.197579" style="fill: #d62728; stroke: #d62728"/>
     <use xlink:href="#mbfa29b568b" x="117.314514" y="291.904032" style="fill: #d62728; stroke: #d62728"/>
     <use xlink:href="#mbfa29b568b" x="127.306171" y="279.257258" style="fill: #d62728; stroke: #d62728"/>
     <use xlink:href="#mbfa29b568b" x="137.297827" y="238.787583" style="fill: #d62728; stroke: #d62728"/>
     <use xlink:href="#mbfa29b568b" x="147.289483" y="214.758714" style="fill: #d62728; stroke: #d62728"/>
     <use xlink:href="#mbfa29b568b" x="157.281139" y="202.11194" style="fill: #d62728; stroke: #d62728"/>
     <use xlink:href="#mbfa29b568b" x="167.272796" y="180.612426" style="fill: #d62728; stroke: #d62728"/>
     <use xlink:href="#mbfa29b568b" x="177.264452" y="169.23033" style="fill: #d62728; stroke: #d62728"/>
     <use xlink:href="#mbfa29b568b" x="187.256108" y="135.084041" style="fill: #d62728; stroke: #d62728"/>
     <use xlink:href="#mbfa29b568b" x="197.247765" y="121.172591" style="fill: #d62728; stroke: #d62728"/>
     <use xlink:href="#mbfa29b568b" x="207.239421" y="81.967593" style="fill: #d62728; stroke: #d62728"/>
     <use xlink:href="#mbfa29b568b" x="237.21439" y="81.967593" style="fill: #d62728; stroke: #d62728"/>
     <use xlink:href="#mbfa29b568b" x="247.206046" y="81.967593" style="fill: #d62728; stroke: #d62728"/>
     <use xlink:href="#mbfa29b568b" x="257.197702" y="81.967593" style="fill: #d62728; stroke: #d62728"/>
     <use xlink:href="#mbfa29b568b" x="267.189359" y="81.967593" style="fill: #d62728; stroke: #d62728"/>
     <use xlink:href="#mbfa29b568b" x="277.181015" y="81.967593" style="fill: #d62728; stroke: #d62728"/>
     <use xlink:href="#mbfa29b568b" x="297.164328" y="81.967593" style="fill: #d62728; stroke: #d62728"/>
     <use xlink:href="#mbfa29b568b" x="307.155984" y="81.967593" style="fill: #d62728; stroke: #d62728"/>
     <use xlink:href="#mbfa29b568b" x="317.14764" y="81.967593" style="fill: #d62728; stroke: #d62728"/>
     <use xlink:href="#mbfa29b568b" x="327.139296" y="81.967593" style="fill: #d62728; stroke: #d62728"/>
     <use xlink:href="#mbfa29b568b" x="337.130953" y="81.967593" style="fill: #d62728; stroke: #d62728"/>
     <use xlink:href="#mbfa29b568b" x="347.122609" y="62.997433" style="fill: #d62728; stroke: #d62728"/>
     <use xlink:href="#mbfa29b568b" x="357.114265" y="62.997433" style="fill: #d62728; stroke: #d62728"/>
     <use xlink:href="#mbfa29b568b" x="367.105922" y="62.997433" style="fill: #d62728; stroke: #d62728"/>
     <use xlink:href="#mbfa29b568b" x="377.097578" y="62.997433" style="fill: #d62728; stroke: #d62728"/>
     <use xlink:href="#mbfa29b568b" x="387.089234" y="62.997433" style="fill: #d62728; stroke: #d62728"/>
     <use xlink:href="#mbfa29b568b" x="397.08089" y="44.027273" style="fill: #d62728; stroke: #d62728"/>
     <use xlink:href="#mbfa29b568b" x="407.072547" y="44.027273" style="fill: #d62728; stroke: #d62728"/>
     <use xlink:href="#mbfa29b568b" x="417.064203" y="44.027273" style="fill: #d62728; stroke: #d62728"/>
     <use xlink:href="#mbfa29b568b" x="427.055859" y="44.027273" style="fill: #d62728; stroke: #d62728"/>
     <use xlink:href="#mbfa29b568b" x="437.047516" y="44.027273" style="fill: #d62728; stroke: #d62728"/>
     <use xlink:href="#mbfa29b568b" x="447.039172" y="44.027273" style="fill: #d62728; stroke: #d62728"/>
     <use xlink:href="#mbfa29b568b" x="457.030828" y="44.027273" style="fill: #d62728; stroke: #d62728"/>
     <use xlink:href="#mbfa29b568b" x="467.022484" y="44.027273" style="fill: #d62728; stroke: #d62728"/>
     <use xlink:href="#mbfa29b568b" x="477.014141" y="44.027273" style="fill: #d62728; stroke: #d62728"/>
     <use xlink:href="#mbfa29b568b" x="487.005797" y="44.027273" style="fill: #d62728; stroke: #d62728"/>
     <use xlink:href="#mbfa29b568b" x="496.997453" y="44.027273" style="fill: #d62728; stroke: #d62728"/>
     <use xlink:href="#mbfa29b568b" x="506.98911" y="44.027273" style="fill: #d62728; stroke: #d62728"/>
     <use xlink:href="#mbfa29b568b" x="516.980766" y="44.027273" style="fill: #d62728; stroke: #d62728"/>
     <use xlink:href="#mbfa29b568b" x="526.972422" y="44.027273" style="fill: #d62728; stroke: #d62728"/>
     <use xlink:href="#mbfa29b568b" x="536.964078" y="44.027273" style="fill: #d62728; stroke: #d62728"/>
     <use xlink:href="#mbfa29b568b" x="546.955735" y="44.027273" style="fill: #d62728; stroke: #d62728"/>
     <use xlink:href="#mbfa29b568b" x="556.947391" y="44.027273" style="fill: #d62728; stroke: #d62728"/>
     <use xlink:href="#mbfa29b568b" x="566.939047" y="44.027273" style="fill: #d62728; stroke: #d62728"/>
     <use xlink:href="#mbfa29b568b" x="576.930704" y="44.027273" style="fill: #d62728; stroke: #d62728"/>
     <use xlink:href="#mbfa29b568b" x="586.92236" y="44.027273" style="fill: #d62728; stroke: #d62728"/>
     <use xlink:href="#mbfa29b568b" x="596.914016" y="44.027273" style="fill: #d62728; stroke: #d62728"/>
     <use xlink:href="#mbfa29b568b" x="606.905672" y="44.027273" style="fill: #d62728; stroke: #d62728"/>
     <use xlink:href="#mbfa29b568b" x="616.897329" y="44.027273" style="fill: #d62728; stroke: #d62728"/>
     <use xlink:href="#mbfa29b568b" x="626.888985" y="44.027273" style="fill: #d62728; stroke: #d62728"/>
     <use xlink:href="#mbfa29b568b" x="636.880641" y="44.027273" style="fill: #d62728; stroke: #d62728"/>
     <use xlink:href="#mbfa29b568b" x="646.872298" y="44.027273" style="fill: #d62728; stroke: #d62728"/>
     <use xlink:href="#mbfa29b568b" x="656.863954" y="44.027273" style="fill: #d62728; stroke: #d62728"/>
     <use xlink:href="#mbfa29b568b" x="666.85561" y="44.027273" style="fill: #d62728; stroke: #d62728"/>
     <use xlink:href="#mbfa29b568b" x="676.847267" y="44.027273" style="fill: #d62728; stroke: #d62728"/>
     <use xlink:href="#mbfa29b568b" x="686.838923" y="44.027273" style="fill: #d62728; stroke: #d62728"/>
     <use xlink:href="#mbfa29b568b" x="696.830579" y="44.027273" style="fill: #d62728; stroke: #d62728"/>
     <use xlink:href="#mbfa29b568b" x="706.822235" y="44.027273" style="fill: #d62728; stroke: #d62728"/>
     <use xlink:href="#mbfa29b568b" x="716.813892" y="44.027273" style="fill: #d62728; stroke: #d62728"/>
     <use xlink:href="#mbfa29b568b" x="726.805548" y="44.027273" style="fill: #d62728; stroke: #d62728"/>
     <use xlink:href="#mbfa29b568b" x="736.797204" y="44.027273" style="fill: #d62728; stroke: #d62728"/>
     <use xlink:href="#mbfa29b568b" x="746.788861" y="44.027273" style="fill: #d62728; stroke: #d62728"/>
     <use xlink:href="#mbfa29b568b" x="756.780517" y="44.027273" style="fill: #d62728; stroke: #d62728"/>
     <use xlink:href="#mbfa29b568b" x="766.772173" y="44.027273" style="fill: #d62728; stroke: #d62728"/>
     <use xlink:href="#mbfa29b568b" x="776.763829" y="44.027273" style="fill: #d62728; stroke: #d62728"/>
     <use xlink:href="#mbfa29b568b" x="786.755486" y="44.027273" style="fill: #d62728; stroke: #d62728"/>
     <use xlink:href="#mbfa29b568b" x="796.747142" y="44.027273" style="fill: #d62728; stroke: #d62728"/>
     <use xlink:href="#mbfa29b568b" x="806.738798" y="44.027273" style="fill: #d62728; stroke: #d62728"/>
     <use xlink:href="#mbfa29b568b" x="816.730455" y="44.027273" style="fill: #d62728; stroke: #d62728"/>
    </g>
   </g>
   <g id="line2d_27">
    <path d="M 87.339545 386.972727 
L 97.331202 361.67918 
L 107.322858 336.385634 
L 117.314514 323.73886 
L 127.306171 304.7687 
L 137.297827 283.269185 
L 147.289483 264.299025 
L 157.281139 251.652252 
L 167.272796 207.388545 
L 177.264452 201.065158 
L 187.256108 166.91887 
L 197.247765 155.536774 
L 207.239421 96.096939 
L 237.21439 96.096939 
L 247.206046 96.096939 
L 257.197702 96.096939 
L 267.189359 96.096939 
L 277.181015 96.096939 
L 297.164328 96.096939 
L 307.155984 96.096939 
L 317.14764 96.096939 
L 327.139296 96.096939 
L 337.130953 96.096939 
L 347.122609 96.096939 
L 357.114265 96.096939 
L 367.105922 96.096939 
L 377.097578 96.096939 
L 387.089234 96.096939 
L 397.08089 64.480005 
L 407.072547 64.480005 
L 417.064203 64.480005 
L 427.055859 64.480005 
L 437.047516 64.480005 
L 447.039172 64.480005 
L 457.030828 64.480005 
L 467.022484 64.480005 
L 477.014141 64.480005 
L 487.005797 64.480005 
L 496.997453 64.480005 
L 506.98911 64.480005 
L 516.980766 64.480005 
L 526.972422 64.480005 
L 536.964078 64.480005 
L 546.955735 64.480005 
L 556.947391 64.480005 
L 566.939047 64.480005 
L 576.930704 64.480005 
L 586.92236 64.480005 
L 596.914016 64.480005 
L 606.905672 64.480005 
L 616.897329 64.480005 
L 626.888985 64.480005 
L 636.880641 64.480005 
L 646.872298 64.480005 
L 656.863954 64.480005 
L 666.85561 64.480005 
L 676.847267 64.480005 
L 686.838923 64.480005 
L 696.830579 64.480005 
L 706.822235 64.480005 
L 716.813892 64.480005 
L 726.805548 64.480005 
L 736.797204 64.480005 
L 746.788861 64.480005 
L 756.780517 64.480005 
L 766.772173 64.480005 
L 776.763829 64.480005 
L 786.755486 64.480005 
L 796.747142 64.480005 
L 806.738798 64.480005 
L 816.730455 64.480005 
" clip-path="url(#p9cdd62df31)" style="fill: none; stroke: #9467bd; stroke-width: 1.5; stroke-linecap: square"/>
    <defs>
     <path id="mf1632069c0" d="M 0 3.5 
C 0.928211 3.5 1.81853 3.131218 2.474874 2.474874 
C 3.131218 1.81853 3.5 0.928211 3.5 0 
C 3.5 -0.928211 3.131218 -1.81853 2.474874 -2.474874 
C 1.81853 -3.131218 0.928211 -3.5 0 -3.5 
C -0.928211 -3.5 -1.81853 -3.131218 -2.474874 -2.474874 
C -3.131218 -1.81853 -3.5 -0.928211 -3.5 0 
C -3.5 0.928211 -3.131218 1.81853 -2.474874 2.474874 
C -1.81853 3.131218 -0.928211 3.5 0 3.5 
z
" style="stroke: #9467bd"/>
    </defs>
    <g clip-path="url(#p9cdd62df31)">
     <use xlink:href="#mf1632069c0" x="87.339545" y="386.972727" style="fill: #9467bd; stroke: #9467bd"/>
     <use xlink:href="#mf1632069c0" x="97.331202" y="361.67918" style="fill: #9467bd; stroke: #9467bd"/>
     <use xlink:href="#mf1632069c0" x="107.322858" y="336.385634" style="fill: #9467bd; stroke: #9467bd"/>
     <use xlink:href="#mf1632069c0" x="117.314514" y="323.73886" style="fill: #9467bd; stroke: #9467bd"/>
     <use xlink:href="#mf1632069c0" x="127.306171" y="304.7687" style="fill: #9467bd; stroke: #9467bd"/>
     <use xlink:href="#mf1632069c0" x="137.297827" y="283.269185" style="fill: #9467bd; stroke: #9467bd"/>
     <use xlink:href="#mf1632069c0" x="147.289483" y="264.299025" style="fill: #9467bd; stroke: #9467bd"/>
     <use xlink:href="#mf1632069c0" x="157.281139" y="251.652252" style="fill: #9467bd; stroke: #9467bd"/>
     <use xlink:href="#mf1632069c0" x="167.272796" y="207.388545" style="fill: #9467bd; stroke: #9467bd"/>
     <use xlink:href="#mf1632069c0" x="177.264452" y="201.065158" style="fill: #9467bd; stroke: #9467bd"/>
     <use xlink:href="#mf1632069c0" x="187.256108" y="166.91887" style="fill: #9467bd; stroke: #9467bd"/>
     <use xlink:href="#mf1632069c0" x="197.247765" y="155.536774" style="fill: #9467bd; stroke: #9467bd"/>
     <use xlink:href="#mf1632069c0" x="207.239421" y="96.096939" style="fill: #9467bd; stroke: #9467bd"/>
     <use xlink:href="#mf1632069c0" x="237.21439" y="96.096939" style="fill: #9467bd; stroke: #9467bd"/>
     <use xlink:href="#mf1632069c0" x="247.206046" y="96.096939" style="fill: #9467bd; stroke: #9467bd"/>
     <use xlink:href="#mf1632069c0" x="257.197702" y="96.096939" style="fill: #9467bd; stroke: #9467bd"/>
     <use xlink:href="#mf1632069c0" x="267.189359" y="96.096939" style="fill: #9467bd; stroke: #9467bd"/>
     <use xlink:href="#mf1632069c0" x="277.181015" y="96.096939" style="fill: #9467bd; stroke: #9467bd"/>
     <use xlink:href="#mf1632069c0" x="297.164328" y="96.096939" style="fill: #9467bd; stroke: #9467bd"/>
     <use xlink:href="#mf1632069c0" x="307.155984" y="96.096939" style="fill: #9467bd; stroke: #9467bd"/>
     <use xlink:href="#mf1632069c0" x="317.14764" y="96.096939" style="fill: #9467bd; stroke: #9467bd"/>
     <use xlink:href="#mf1632069c0" x="327.139296" y="96.096939" style="fill: #9467bd; stroke: #9467bd"/>
     <use xlink:href="#mf1632069c0" x="337.130953" y="96.096939" style="fill: #9467bd; stroke: #9467bd"/>
     <use xlink:href="#mf1632069c0" x="347.122609" y="96.096939" style="fill: #9467bd; stroke: #9467bd"/>
     <use xlink:href="#mf1632069c0" x="357.114265" y="96.096939" style="fill: #9467bd; stroke: #9467bd"/>
     <use xlink:href="#mf1632069c0" x="367.105922" y="96.096939" style="fill: #9467bd; stroke: #9467bd"/>
     <use xlink:href="#mf1632069c0" x="377.097578" y="96.096939" style="fill: #9467bd; stroke: #9467bd"/>
     <use xlink:href="#mf1632069c0" x="387.089234" y="96.096939" style="fill: #9467bd; stroke: #9467bd"/>
     <use xlink:href="#mf1632069c0" x="397.08089" y="64.480005" style="fill: #9467bd; stroke: #9467bd"/>
     <use xlink:href="#mf1632069c0" x="407.072547" y="64.480005" style="fill: #9467bd; stroke: #9467bd"/>
     <use xlink:href="#mf1632069c0" x="417.064203" y="64.480005" style="fill: #9467bd; stroke: #9467bd"/>
     <use xlink:href="#mf1632069c0" x="427.055859" y="64.480005" style="fill: #9467bd; stroke: #9467bd"/>
     <use xlink:href="#mf1632069c0" x="437.047516" y="64.480005" style="fill: #9467bd; stroke: #9467bd"/>
     <use xlink:href="#mf1632069c0" x="447.039172" y="64.480005" style="fill: #9467bd; stroke: #9467bd"/>
     <use xlink:href="#mf1632069c0" x="457.030828" y="64.480005" style="fill: #9467bd; stroke: #9467bd"/>
     <use xlink:href="#mf1632069c0" x="467.022484" y="64.480005" style="fill: #9467bd; stroke: #9467bd"/>
     <use xlink:href="#mf1632069c0" x="477.014141" y="64.480005" style="fill: #9467bd; stroke: #9467bd"/>
     <use xlink:href="#mf1632069c0" x="487.005797" y="64.480005" style="fill: #9467bd; stroke: #9467bd"/>
     <use xlink:href="#mf1632069c0" x="496.997453" y="64.480005" style="fill: #9467bd; stroke: #9467bd"/>
     <use xlink:href="#mf1632069c0" x="506.98911" y="64.480005" style="fill: #9467bd; stroke: #9467bd"/>
     <use xlink:href="#mf1632069c0" x="516.980766" y="64.480005" style="fill: #9467bd; stroke: #9467bd"/>
     <use xlink:href="#mf1632069c0" x="526.972422" y="64.480005" style="fill: #9467bd; stroke: #9467bd"/>
     <use xlink:href="#mf1632069c0" x="536.964078" y="64.480005" style="fill: #9467bd; stroke: #9467bd"/>
     <use xlink:href="#mf1632069c0" x="546.955735" y="64.480005" style="fill: #9467bd; stroke: #9467bd"/>
     <use xlink:href="#mf1632069c0" x="556.947391" y="64.480005" style="fill: #9467bd; stroke: #9467bd"/>
     <use xlink:href="#mf1632069c0" x="566.939047" y="64.480005" style="fill: #9467bd; stroke: #9467bd"/>
     <use xlink:href="#mf1632069c0" x="576.930704" y="64.480005" style="fill: #9467bd; stroke: #9467bd"/>
     <use xlink:href="#mf1632069c0" x="586.92236" y="64.480005" style="fill: #9467bd; stroke: #9467bd"/>
     <use xlink:href="#mf1632069c0" x="596.914016" y="64.480005" style="fill: #9467bd; stroke: #9467bd"/>
     <use xlink:href="#mf1632069c0" x="606.905672" y="64.480005" style="fill: #9467bd; stroke: #9467bd"/>
     <use xlink:href="#mf1632069c0" x="616.897329" y="64.480005" style="fill: #9467bd; stroke: #9467bd"/>
     <use xlink:href="#mf1632069c0" x="626.888985" y="64.480005" style="fill: #9467bd; stroke: #9467bd"/>
     <use xlink:href="#mf1632069c0" x="636.880641" y="64.480005" style="fill: #9467bd; stroke: #9467bd"/>
     <use xlink:href="#mf1632069c0" x="646.872298" y="64.480005" style="fill: #9467bd; stroke: #9467bd"/>
     <use xlink:href="#mf1632069c0" x="656.863954" y="64.480005" style="fill: #9467bd; stroke: #9467bd"/>
     <use xlink:href="#mf1632069c0" x="666.85561" y="64.480005" style="fill: #9467bd; stroke: #9467bd"/>
     <use xlink:href="#mf1632069c0" x="676.847267" y="64.480005" style="fill: #9467bd; stroke: #9467bd"/>
     <use xlink:href="#mf1632069c0" x="686.838923" y="64.480005" style="fill: #9467bd; stroke: #9467bd"/>
     <use xlink:href="#mf1632069c0" x="696.830579" y="64.480005" style="fill: #9467bd; stroke: #9467bd"/>
     <use xlink:href="#mf1632069c0" x="706.822235" y="64.480005" style="fill: #9467bd; stroke: #9467bd"/>
     <use xlink:href="#mf1632069c0" x="716.813892" y="64.480005" style="fill: #9467bd; stroke: #9467bd"/>
     <use xlink:href="#mf1632069c0" x="726.805548" y="64.480005" style="fill: #9467bd; stroke: #9467bd"/>
     <use xlink:href="#mf1632069c0" x="736.797204" y="64.480005" style="fill: #9467bd; stroke: #9467bd"/>
     <use xlink:href="#mf1632069c0" x="746.788861" y="64.480005" style="fill: #9467bd; stroke: #9467bd"/>
     <use xlink:href="#mf1632069c0" x="756.780517" y="64.480005" style="fill: #9467bd; stroke: #9467bd"/>
     <use xlink:href="#mf1632069c0" x="766.772173" y="64.480005" style="fill: #9467bd; stroke: #9467bd"/>
     <use xlink:href="#mf1632069c0" x="776.763829" y="64.480005" style="fill: #9467bd; stroke: #9467bd"/>
     <use xlink:href="#mf1632069c0" x="786.755486" y="64.480005" style="fill: #9467bd; stroke: #9467bd"/>
     <use xlink:href="#mf1632069c0" x="796.747142" y="64.480005" style="fill: #9467bd; stroke: #9467bd"/>
     <use xlink:href="#mf1632069c0" x="806.738798" y="64.480005" style="fill: #9467bd; stroke: #9467bd"/>
     <use xlink:href="#mf1632069c0" x="816.730455" y="64.480005" style="fill: #9467bd; stroke: #9467bd"/>
    </g>
   </g>
   <g id="line2d_28">
    <path d="M 87.339545 380.480477 
L 97.331202 365.304349 
L 107.322858 353.922252 
L 117.314514 328.628706 
L 127.306171 309.658546 
L 137.297827 304.599836 
L 147.289483 295.747095 
L 157.281139 280.570967 
L 167.272796 236.30726 
L 177.264452 204.690326 
L 187.256108 166.750006 
L 197.247765 142.721136 
L 207.239421 93.39872 
L 237.21439 93.39872 
L 247.206046 93.39872 
L 257.197702 93.39872 
L 267.189359 93.39872 
L 277.181015 93.39872 
L 297.164328 93.39872 
L 307.155984 93.39872 
L 317.14764 93.39872 
L 327.139296 93.39872 
L 337.130953 93.39872 
L 347.122609 93.39872 
L 357.114265 93.39872 
L 367.105922 93.39872 
L 377.097578 93.39872 
L 387.089234 93.39872 
L 397.08089 61.781787 
L 407.072547 61.781787 
L 417.064203 61.781787 
L 427.055859 61.781787 
L 437.047516 61.781787 
L 447.039172 61.781787 
L 457.030828 61.781787 
L 467.022484 61.781787 
L 477.014141 61.781787 
L 487.005797 61.781787 
L 496.997453 61.781787 
L 506.98911 61.781787 
L 516.980766 61.781787 
L 526.972422 61.781787 
L 536.964078 61.781787 
L 546.955735 61.781787 
L 556.947391 61.781787 
L 566.939047 61.781787 
L 576.930704 61.781787 
L 586.92236 61.781787 
L 596.914016 61.781787 
L 606.905672 61.781787 
L 616.897329 61.781787 
L 626.888985 61.781787 
L 636.880641 61.781787 
L 646.872298 61.781787 
L 656.863954 61.781787 
L 666.85561 61.781787 
L 676.847267 61.781787 
L 686.838923 61.781787 
L 696.830579 61.781787 
L 706.822235 61.781787 
L 716.813892 61.781787 
L 726.805548 61.781787 
L 736.797204 61.781787 
L 746.788861 61.781787 
L 756.780517 61.781787 
L 766.772173 61.781787 
L 776.763829 61.781787 
L 786.755486 61.781787 
L 796.747142 61.781787 
L 806.738798 61.781787 
L 816.730455 61.781787 
" clip-path="url(#p9cdd62df31)" style="fill: none; stroke: #8c564b; stroke-width: 1.5; stroke-linecap: square"/>
    <defs>
     <path id="m0301430a1c" d="M 0 3.5 
C 0.928211 3.5 1.81853 3.131218 2.474874 2.474874 
C 3.131218 1.81853 3.5 0.928211 3.5 0 
C 3.5 -0.928211 3.131218 -1.81853 2.474874 -2.474874 
C 1.81853 -3.131218 0.928211 -3.5 0 -3.5 
C -0.928211 -3.5 -1.81853 -3.131218 -2.474874 -2.474874 
C -3.131218 -1.81853 -3.5 -0.928211 -3.5 0 
C -3.5 0.928211 -3.131218 1.81853 -2.474874 2.474874 
C -1.81853 3.131218 -0.928211 3.5 0 3.5 
z
" style="stroke: #8c564b"/>
    </defs>
    <g clip-path="url(#p9cdd62df31)">
     <use xlink:href="#m0301430a1c" x="87.339545" y="380.480477" style="fill: #8c564b; stroke: #8c564b"/>
     <use xlink:href="#m0301430a1c" x="97.331202" y="365.304349" style="fill: #8c564b; stroke: #8c564b"/>
     <use xlink:href="#m0301430a1c" x="107.322858" y="353.922252" style="fill: #8c564b; stroke: #8c564b"/>
     <use xlink:href="#m0301430a1c" x="117.314514" y="328.628706" style="fill: #8c564b; stroke: #8c564b"/>
     <use xlink:href="#m0301430a1c" x="127.306171" y="309.658546" style="fill: #8c564b; stroke: #8c564b"/>
     <use xlink:href="#m0301430a1c" x="137.297827" y="304.599836" style="fill: #8c564b; stroke: #8c564b"/>
     <use xlink:href="#m0301430a1c" x="147.289483" y="295.747095" style="fill: #8c564b; stroke: #8c564b"/>
     <use xlink:href="#m0301430a1c" x="157.281139" y="280.570967" style="fill: #8c564b; stroke: #8c564b"/>
     <use xlink:href="#m0301430a1c" x="167.272796" y="236.30726" style="fill: #8c564b; stroke: #8c564b"/>
     <use xlink:href="#m0301430a1c" x="177.264452" y="204.690326" style="fill: #8c564b; stroke: #8c564b"/>
     <use xlink:href="#m0301430a1c" x="187.256108" y="166.750006" style="fill: #8c564b; stroke: #8c564b"/>
     <use xlink:href="#m0301430a1c" x="197.247765" y="142.721136" style="fill: #8c564b; stroke: #8c564b"/>
     <use xlink:href="#m0301430a1c" x="207.239421" y="93.39872" style="fill: #8c564b; stroke: #8c564b"/>
     <use xlink:href="#m0301430a1c" x="237.21439" y="93.39872" style="fill: #8c564b; stroke: #8c564b"/>
     <use xlink:href="#m0301430a1c" x="247.206046" y="93.39872" style="fill: #8c564b; stroke: #8c564b"/>
     <use xlink:href="#m0301430a1c" x="257.197702" y="93.39872" style="fill: #8c564b; stroke: #8c564b"/>
     <use xlink:href="#m0301430a1c" x="267.189359" y="93.39872" style="fill: #8c564b; stroke: #8c564b"/>
     <use xlink:href="#m0301430a1c" x="277.181015" y="93.39872" style="fill: #8c564b; stroke: #8c564b"/>
     <use xlink:href="#m0301430a1c" x="297.164328" y="93.39872" style="fill: #8c564b; stroke: #8c564b"/>
     <use xlink:href="#m0301430a1c" x="307.155984" y="93.39872" style="fill: #8c564b; stroke: #8c564b"/>
     <use xlink:href="#m0301430a1c" x="317.14764" y="93.39872" style="fill: #8c564b; stroke: #8c564b"/>
     <use xlink:href="#m0301430a1c" x="327.139296" y="93.39872" style="fill: #8c564b; stroke: #8c564b"/>
     <use xlink:href="#m0301430a1c" x="337.130953" y="93.39872" style="fill: #8c564b; stroke: #8c564b"/>
     <use xlink:href="#m0301430a1c" x="347.122609" y="93.39872" style="fill: #8c564b; stroke: #8c564b"/>
     <use xlink:href="#m0301430a1c" x="357.114265" y="93.39872" style="fill: #8c564b; stroke: #8c564b"/>
     <use xlink:href="#m0301430a1c" x="367.105922" y="93.39872" style="fill: #8c564b; stroke: #8c564b"/>
     <use xlink:href="#m0301430a1c" x="377.097578" y="93.39872" style="fill: #8c564b; stroke: #8c564b"/>
     <use xlink:href="#m0301430a1c" x="387.089234" y="93.39872" style="fill: #8c564b; stroke: #8c564b"/>
     <use xlink:href="#m0301430a1c" x="397.08089" y="61.781787" style="fill: #8c564b; stroke: #8c564b"/>
     <use xlink:href="#m0301430a1c" x="407.072547" y="61.781787" style="fill: #8c564b; stroke: #8c564b"/>
     <use xlink:href="#m0301430a1c" x="417.064203" y="61.781787" style="fill: #8c564b; stroke: #8c564b"/>
     <use xlink:href="#m0301430a1c" x="427.055859" y="61.781787" style="fill: #8c564b; stroke: #8c564b"/>
     <use xlink:href="#m0301430a1c" x="437.047516" y="61.781787" style="fill: #8c564b; stroke: #8c564b"/>
     <use xlink:href="#m0301430a1c" x="447.039172" y="61.781787" style="fill: #8c564b; stroke: #8c564b"/>
     <use xlink:href="#m0301430a1c" x="457.030828" y="61.781787" style="fill: #8c564b; stroke: #8c564b"/>
     <use xlink:href="#m0301430a1c" x="467.022484" y="61.781787" style="fill: #8c564b; stroke: #8c564b"/>
     <use xlink:href="#m0301430a1c" x="477.014141" y="61.781787" style="fill: #8c564b; stroke: #8c564b"/>
     <use xlink:href="#m0301430a1c" x="487.005797" y="61.781787" style="fill: #8c564b; stroke: #8c564b"/>
     <use xlink:href="#m0301430a1c" x="496.997453" y="61.781787" style="fill: #8c564b; stroke: #8c564b"/>
     <use xlink:href="#m0301430a1c" x="506.98911" y="61.781787" style="fill: #8c564b; stroke: #8c564b"/>
     <use xlink:href="#m0301430a1c" x="516.980766" y="61.781787" style="fill: #8c564b; stroke: #8c564b"/>
     <use xlink:href="#m0301430a1c" x="526.972422" y="61.781787" style="fill: #8c564b; stroke: #8c564b"/>
     <use xlink:href="#m0301430a1c" x="536.964078" y="61.781787" style="fill: #8c564b; stroke: #8c564b"/>
     <use xlink:href="#m0301430a1c" x="546.955735" y="61.781787" style="fill: #8c564b; stroke: #8c564b"/>
     <use xlink:href="#m0301430a1c" x="556.947391" y="61.781787" style="fill: #8c564b; stroke: #8c564b"/>
     <use xlink:href="#m0301430a1c" x="566.939047" y="61.781787" style="fill: #8c564b; stroke: #8c564b"/>
     <use xlink:href="#m0301430a1c" x="576.930704" y="61.781787" style="fill: #8c564b; stroke: #8c564b"/>
     <use xlink:href="#m0301430a1c" x="586.92236" y="61.781787" style="fill: #8c564b; stroke: #8c564b"/>
     <use xlink:href="#m0301430a1c" x="596.914016" y="61.781787" style="fill: #8c564b; stroke: #8c564b"/>
     <use xlink:href="#m0301430a1c" x="606.905672" y="61.781787" style="fill: #8c564b; stroke: #8c564b"/>
     <use xlink:href="#m0301430a1c" x="616.897329" y="61.781787" style="fill: #8c564b; stroke: #8c564b"/>
     <use xlink:href="#m0301430a1c" x="626.888985" y="61.781787" style="fill: #8c564b; stroke: #8c564b"/>
     <use xlink:href="#m0301430a1c" x="636.880641" y="61.781787" style="fill: #8c564b; stroke: #8c564b"/>
     <use xlink:href="#m0301430a1c" x="646.872298" y="61.781787" style="fill: #8c564b; stroke: #8c564b"/>
     <use xlink:href="#m0301430a1c" x="656.863954" y="61.781787" style="fill: #8c564b; stroke: #8c564b"/>
     <use xlink:href="#m0301430a1c" x="666.85561" y="61.781787" style="fill: #8c564b; stroke: #8c564b"/>
     <use xlink:href="#m0301430a1c" x="676.847267" y="61.781787" style="fill: #8c564b; stroke: #8c564b"/>
     <use xlink:href="#m0301430a1c" x="686.838923" y="61.781787" style="fill: #8c564b; stroke: #8c564b"/>
     <use xlink:href="#m0301430a1c" x="696.830579" y="61.781787" style="fill: #8c564b; stroke: #8c564b"/>
     <use xlink:href="#m0301430a1c" x="706.822235" y="61.781787" style="fill: #8c564b; stroke: #8c564b"/>
     <use xlink:href="#m0301430a1c" x="716.813892" y="61.781787" style="fill: #8c564b; stroke: #8c564b"/>
     <use xlink:href="#m0301430a1c" x="726.805548" y="61.781787" style="fill: #8c564b; stroke: #8c564b"/>
     <use xlink:href="#m0301430a1c" x="736.797204" y="61.781787" style="fill: #8c564b; stroke: #8c564b"/>
     <use xlink:href="#m0301430a1c" x="746.788861" y="61.781787" style="fill: #8c564b; stroke: #8c564b"/>
     <use xlink:href="#m0301430a1c" x="756.780517" y="61.781787" style="fill: #8c564b; stroke: #8c564b"/>
     <use xlink:href="#m0301430a1c" x="766.772173" y="61.781787" style="fill: #8c564b; stroke: #8c564b"/>
     <use xlink:href="#m0301430a1c" x="776.763829" y="61.781787" style="fill: #8c564b; stroke: #8c564b"/>
     <use xlink:href="#m0301430a1c" x="786.755486" y="61.781787" style="fill: #8c564b; stroke: #8c564b"/>
     <use xlink:href="#m0301430a1c" x="796.747142" y="61.781787" style="fill: #8c564b; stroke: #8c564b"/>
     <use xlink:href="#m0301430a1c" x="806.738798" y="61.781787" style="fill: #8c564b; stroke: #8c564b"/>
     <use xlink:href="#m0301430a1c" x="816.730455" y="61.781787" style="fill: #8c564b; stroke: #8c564b"/>
    </g>
   </g>
   <g id="patch_3">
    <path d="M 50.87 404.12 
L 50.87 26.88 
" style="fill: none; stroke: #000000; stroke-width: 0.8; stroke-linejoin: miter; stroke-linecap: square"/>
   </g>
   <g id="patch_4">
    <path d="M 853.2 404.12 
L 853.2 26.88 
" style="fill: none; stroke: #000000; stroke-width: 0.8; stroke-linejoin: miter; stroke-linecap: square"/>
   </g>
   <g id="patch_5">
    <path d="M 50.87 404.12 
L 853.2 404.12 
" style="fill: none; stroke: #000000; stroke-width: 0.8; stroke-linejoin: miter; stroke-linecap: square"/>
   </g>
   <g id="patch_6">
    <path d="M 50.87 26.88 
L 853.2 26.88 
" style="fill: none; stroke: #000000; stroke-width: 0.8; stroke-linejoin: miter; stroke-linecap: square"/>
   </g>
   <g id="text_13">
    <!-- Standings -->
    <g transform="translate(422.18125 20.88) scale(0.12 -0.12)">
     <defs>
      <path id="DejaVuSans-74" d="M 1172 4494 
L 1172 3500 
L 2356 3500 
L 2356 3053 
L 1172 3053 
L 1172 1153 
Q 1172 725 1289 603 
Q 1406 481 1766 481 
L 2356 481 
L 2356 0 
L 1766 0 
Q 1100 0 847 248 
Q 594 497 594 1153 
L 594 3053 
L 172 3053 
L 172 3500 
L 594 3500 
L 594 4494 
L 1172 4494 
z
" transform="scale(0.015625)"/>
      <path id="DejaVuSans-61" d="M 2194 1759 
Q 1497 1759 1228 1600 
Q 959 1441 959 1056 
Q 959 750 1161 570 
Q 1363 391 1709 391 
Q 2188 391 2477 730 
Q 2766 1069 2766 1631 
L 2766 1759 
L 2194 1759 
z
M 3341 1997 
L 3341 0 
L 2766 0 
L 2766 531 
Q 2569 213 2275 61 
Q 1981 -91 1556 -91 
Q 1019 -91 701 211 
Q 384 513 384 1019 
Q 384 1609 779 1909 
Q 1175 2209 1959 2209 
L 2766 2209 
L 2766 2266 
Q 2766 2663 2505 2880 
Q 2244 3097 1772 3097 
Q 1472 3097 1187 3025 
Q 903 2953 641 2809 
L 641 3341 
Q 956 3463 1253 3523 
Q 1550 3584 1831 3584 
Q 2591 3584 2966 3190 
Q 3341 2797 3341 1997 
z
" transform="scale(0.015625)"/>
      <path id="DejaVuSans-6e" d="M 3513 2113 
L 3513 0 
L 2938 0 
L 2938 2094 
Q 2938 2591 2744 2837 
Q 2550 3084 2163 3084 
Q 1697 3084 1428 2787 
Q 1159 2491 1159 1978 
L 1159 0 
L 581 0 
L 581 3500 
L 1159 3500 
L 1159 2956 
Q 1366 3272 1645 3428 
Q 1925 3584 2291 3584 
Q 2894 3584 3203 3211 
Q 3513 2838 3513 2113 
z
" transform="scale(0.015625)"/>
      <path id="DejaVuSans-64" d="M 2906 2969 
L 2906 4863 
L 3481 4863 
L 3481 0 
L 2906 0 
L 2906 525 
Q 2725 213 2448 61 
Q 2172 -91 1784 -91 
Q 1150 -91 751 415 
Q 353 922 353 1747 
Q 353 2572 751 3078 
Q 1150 3584 1784 3584 
Q 2172 3584 2448 3432 
Q 2725 3281 2906 2969 
z
M 947 1747 
Q 947 1113 1208 752 
Q 1469 391 1925 391 
Q 2381 391 2643 752 
Q 2906 1113 2906 1747 
Q 2906 2381 2643 2742 
Q 2381 3103 1925 3103 
Q 1469 3103 1208 2742 
Q 947 2381 947 1747 
z
" transform="scale(0.015625)"/>
      <path id="DejaVuSans-69" d="M 603 3500 
L 1178 3500 
L 1178 0 
L 603 0 
L 603 3500 
z
M 603 4863 
L 1178 4863 
L 1178 4134 
L 603 4134 
L 603 4863 
z
" transform="scale(0.015625)"/>
      <path id="DejaVuSans-67" d="M 2906 1791 
Q 2906 2416 2648 2759 
Q 2391 3103 1925 3103 
Q 1463 3103 1205 2759 
Q 947 2416 947 1791 
Q 947 1169 1205 825 
Q 1463 481 1925 481 
Q 2391 481 2648 825 
Q 2906 1169 2906 1791 
z
M 3481 434 
Q 3481 -459 3084 -895 
Q 2688 -1331 1869 -1331 
Q 1566 -1331 1297 -1286 
Q 1028 -1241 775 -1147 
L 775 -588 
Q 1028 -725 1275 -790 
Q 1522 -856 1778 -856 
Q 2344 -856 2625 -561 
Q 2906 -266 2906 331 
L 2906 616 
Q 2728 306 2450 153 
Q 2172 0 1784 0 
Q 1141 0 747 490 
Q 353 981 353 1791 
Q 353 2603 747 3093 
Q 1141 3584 1784 3584 
Q 2172 3584 2450 3431 
Q 2728 3278 2906 2969 
L 2906 3500 
L 3481 3500 
L 3481 434 
z
" transform="scale(0.015625)"/>
      <path id="DejaVuSans-73" d="M 2834 3397 
L 2834 2853 
Q 2591 2978 2328 3040 
Q 2066 3103 1784 3103 
Q 1356 3103 1142 2972 
Q 928 2841 928 2578 
Q 928 2378 1081 2264 
Q 1234 2150 1697 2047 
L 1894 2003 
Q 2506 1872 2764 1633 
Q 3022 1394 3022 966 
Q 3022 478 2636 193 
Q 2250 -91 1575 -91 
Q 1294 -91 989 -36 
Q 684 19 347 128 
L 347 722 
Q 666 556 975 473 
Q 1284 391 1588 391 
Q 1994 391 2212 530 
Q 2431 669 2431 922 
Q 2431 1156 2273 1281 
Q 2116 1406 1581 1522 
L 1381 1569 
Q 847 1681 609 1914 
Q 372 2147 372 2553 
Q 372 3047 722 3315 
Q 1072 3584 1716 3584 
Q 2034 3584 2315 3537 
Q 2597 3491 2834 3397 
z
" transform="scale(0.015625)"/>
     </defs>
     <use xlink:href="#DejaVuSans-53"/>
     <use xlink:href="#DejaVuSans-74" x="63.476562"/>
     <use xlink:href="#DejaVuSans-61" x="102.685547"/>
     <use xlink:href="#DejaVuSans-6e" x="163.964844"/>
     <use xlink:href="#DejaVuSans-64" x="227.34375"/>
     <use xlink:href="#DejaVuSans-69" x="290.820312"/>
     <use xlink:href="#DejaVuSans-6e" x="318.603516"/>
     <use xlink:href="#DejaVuSans-67" x="381.982422"/>
     <use xlink:href="#DejaVuSans-73" x="445.458984"/>
    </g>
   </g>
   <g id="legend_1">
    <g id="patch_7">
     <path d="M 57.87 122.94875 
L 143.37 122.94875 
Q 145.37 122.94875 145.37 120.94875 
L 145.37 33.88 
Q 145.37 31.88 143.37 31.88 
L 57.87 31.88 
Q 55.87 31.88 55.87 33.88 
L 55.87 120.94875 
Q 55.87 122.94875 57.87 122.94875 
z
" style="fill: #ffffff; opacity: 0.8; stroke: #cccccc; stroke-linejoin: miter"/>
    </g>
    <g id="line2d_29">
     <path d="M 59.87 39.978438 
L 69.87 39.978438 
L 79.87 39.978438 
" style="fill: none; stroke: #1f77b4; stroke-width: 1.5; stroke-linecap: square"/>
     <g>
      <use xlink:href="#m1d1ed2841c" x="69.87" y="39.978438" style="fill: #1f77b4; stroke: #1f77b4"/>
     </g>
    </g>
    <g id="text_14">
     <!-- Matias BN -->
     <g transform="translate(87.87 43.478438) scale(0.1 -0.1)">
      <defs>
       <path id="DejaVuSans-4d" d="M 628 4666 
L 1569 4666 
L 2759 1491 
L 3956 4666 
L 4897 4666 
L 4897 0 
L 4281 0 
L 4281 4097 
L 3078 897 
L 2444 897 
L 1241 4097 
L 1241 0 
L 628 0 
L 628 4666 
z
" transform="scale(0.015625)"/>
       <path id="DejaVuSans-20" transform="scale(0.015625)"/>
       <path id="DejaVuSans-42" d="M 1259 2228 
L 1259 519 
L 2272 519 
Q 2781 519 3026 730 
Q 3272 941 3272 1375 
Q 3272 1813 3026 2020 
Q 2781 2228 2272 2228 
L 1259 2228 
z
M 1259 4147 
L 1259 2741 
L 2194 2741 
Q 2656 2741 2882 2914 
Q 3109 3088 3109 3444 
Q 3109 3797 2882 3972 
Q 2656 4147 2194 4147 
L 1259 4147 
z
M 628 4666 
L 2241 4666 
Q 2963 4666 3353 4366 
Q 3744 4066 3744 3513 
Q 3744 3084 3544 2831 
Q 3344 2578 2956 2516 
Q 3422 2416 3680 2098 
Q 3938 1781 3938 1306 
Q 3938 681 3513 340 
Q 3088 0 2303 0 
L 628 0 
L 628 4666 
z
" transform="scale(0.015625)"/>
       <path id="DejaVuSans-4e" d="M 628 4666 
L 1478 4666 
L 3547 763 
L 3547 4666 
L 4159 4666 
L 4159 0 
L 3309 0 
L 1241 3903 
L 1241 0 
L 628 0 
L 628 4666 
z
" transform="scale(0.015625)"/>
      </defs>
      <use xlink:href="#DejaVuSans-4d"/>
      <use xlink:href="#DejaVuSans-61" x="86.279297"/>
      <use xlink:href="#DejaVuSans-74" x="147.558594"/>
      <use xlink:href="#DejaVuSans-69" x="186.767578"/>
      <use xlink:href="#DejaVuSans-61" x="214.550781"/>
      <use xlink:href="#DejaVuSans-73" x="275.830078"/>
      <use xlink:href="#DejaVuSans-20" x="327.929688"/>
      <use xlink:href="#DejaVuSans-42" x="359.716797"/>
      <use xlink:href="#DejaVuSans-4e" x="428.320312"/>
     </g>
    </g>
    <g id="line2d_30">
     <path d="M 59.87 54.656563 
L 69.87 54.656563 
L 79.87 54.656563 
" style="fill: none; stroke: #ff7f0e; stroke-width: 1.5; stroke-linecap: square"/>
     <g>
      <use xlink:href="#md4cd46155e" x="69.87" y="54.656563" style="fill: #ff7f0e; stroke: #ff7f0e"/>
     </g>
    </g>
    <g id="text_15">
     <!-- Mattias Ra -->
     <g transform="translate(87.87 58.156563) scale(0.1 -0.1)">
      <defs>
       <path id="DejaVuSans-52" d="M 2841 2188 
Q 3044 2119 3236 1894 
Q 3428 1669 3622 1275 
L 4263 0 
L 3584 0 
L 2988 1197 
Q 2756 1666 2539 1819 
Q 2322 1972 1947 1972 
L 1259 1972 
L 1259 0 
L 628 0 
L 628 4666 
L 2053 4666 
Q 2853 4666 3247 4331 
Q 3641 3997 3641 3322 
Q 3641 2881 3436 2590 
Q 3231 2300 2841 2188 
z
M 1259 4147 
L 1259 2491 
L 2053 2491 
Q 2509 2491 2742 2702 
Q 2975 2913 2975 3322 
Q 2975 3731 2742 3939 
Q 2509 4147 2053 4147 
L 1259 4147 
z
" transform="scale(0.015625)"/>
      </defs>
      <use xlink:href="#DejaVuSans-4d"/>
      <use xlink:href="#DejaVuSans-61" x="86.279297"/>
      <use xlink:href="#DejaVuSans-74" x="147.558594"/>
      <use xlink:href="#DejaVuSans-74" x="186.767578"/>
      <use xlink:href="#DejaVuSans-69" x="225.976562"/>
      <use xlink:href="#DejaVuSans-61" x="253.759766"/>
      <use xlink:href="#DejaVuSans-73" x="315.039062"/>
      <use xlink:href="#DejaVuSans-20" x="367.138672"/>
      <use xlink:href="#DejaVuSans-52" x="398.925781"/>
      <use xlink:href="#DejaVuSans-61" x="466.158203"/>
     </g>
    </g>
    <g id="line2d_31">
     <path d="M 59.87 69.334688 
L 69.87 69.334688 
L 79.87 69.334688 
" style="fill: none; stroke: #2ca02c; stroke-width: 1.5; stroke-linecap: square"/>
     <g>
      <use xlink:href="#m13f4aa2a38" x="69.87" y="69.334688" style="fill: #2ca02c; stroke: #2ca02c"/>
     </g>
    </g>
    <g id="text_16">
     <!-- Simon Bo -->
     <g transform="translate(87.87 72.834688) scale(0.1 -0.1)">
      <defs>
       <path id="DejaVuSans-6d" d="M 3328 2828 
Q 3544 3216 3844 3400 
Q 4144 3584 4550 3584 
Q 5097 3584 5394 3201 
Q 5691 2819 5691 2113 
L 5691 0 
L 5113 0 
L 5113 2094 
Q 5113 2597 4934 2840 
Q 4756 3084 4391 3084 
Q 3944 3084 3684 2787 
Q 3425 2491 3425 1978 
L 3425 0 
L 2847 0 
L 2847 2094 
Q 2847 2600 2669 2842 
Q 2491 3084 2119 3084 
Q 1678 3084 1418 2786 
Q 1159 2488 1159 1978 
L 1159 0 
L 581 0 
L 581 3500 
L 1159 3500 
L 1159 2956 
Q 1356 3278 1631 3431 
Q 1906 3584 2284 3584 
Q 2666 3584 2933 3390 
Q 3200 3197 3328 2828 
z
" transform="scale(0.015625)"/>
      </defs>
      <use xlink:href="#DejaVuSans-53"/>
      <use xlink:href="#DejaVuSans-69" x="63.476562"/>
      <use xlink:href="#DejaVuSans-6d" x="91.259766"/>
      <use xlink:href="#DejaVuSans-6f" x="188.671875"/>
      <use xlink:href="#DejaVuSans-6e" x="249.853516"/>
      <use xlink:href="#DejaVuSans-20" x="313.232422"/>
      <use xlink:href="#DejaVuSans-42" x="345.019531"/>
      <use xlink:href="#DejaVuSans-6f" x="413.623047"/>
     </g>
    </g>
    <g id="line2d_32">
     <path d="M 59.87 84.012813 
L 69.87 84.012813 
L 79.87 84.012813 
" style="fill: none; stroke: #d62728; stroke-width: 1.5; stroke-linecap: square"/>
     <g>
      <use xlink:href="#mbfa29b568b" x="69.87" y="84.012813" style="fill: #d62728; stroke: #d62728"/>
     </g>
    </g>
    <g id="text_17">
     <!-- Kristian Se -->
     <g transform="translate(87.87 87.512813) scale(0.1 -0.1)">
      <defs>
       <path id="DejaVuSans-4b" d="M 628 4666 
L 1259 4666 
L 1259 2694 
L 3353 4666 
L 4166 4666 
L 1850 2491 
L 4331 0 
L 3500 0 
L 1259 2247 
L 1259 0 
L 628 0 
L 628 4666 
z
" transform="scale(0.015625)"/>
      </defs>
      <use xlink:href="#DejaVuSans-4b"/>
      <use xlink:href="#DejaVuSans-72" x="65.576172"/>
      <use xlink:href="#DejaVuSans-69" x="106.689453"/>
      <use xlink:href="#DejaVuSans-73" x="134.472656"/>
      <use xlink:href="#DejaVuSans-74" x="186.572266"/>
      <use xlink:href="#DejaVuSans-69" x="225.78125"/>
      <use xlink:href="#DejaVuSans-61" x="253.564453"/>
      <use xlink:href="#DejaVuSans-6e" x="314.84375"/>
      <use xlink:href="#DejaVuSans-20" x="378.222656"/>
      <use xlink:href="#DejaVuSans-53" x="410.009766"/>
      <use xlink:href="#DejaVuSans-65" x="473.486328"/>
     </g>
    </g>
    <g id="line2d_33">
     <path d="M 59.87 98.690938 
L 69.87 98.690938 
L 79.87 98.690938 
" style="fill: none; stroke: #9467bd; stroke-width: 1.5; stroke-linecap: square"/>
     <g>
      <use xlink:href="#mf1632069c0" x="69.87" y="98.690938" style="fill: #9467bd; stroke: #9467bd"/>
     </g>
    </g>
    <g id="text_18">
     <!-- Jesper M -->
     <g transform="translate(87.87 102.190938) scale(0.1 -0.1)">
      <defs>
       <path id="DejaVuSans-4a" d="M 628 4666 
L 1259 4666 
L 1259 325 
Q 1259 -519 939 -900 
Q 619 -1281 -91 -1281 
L -331 -1281 
L -331 -750 
L -134 -750 
Q 284 -750 456 -515 
Q 628 -281 628 325 
L 628 4666 
z
" transform="scale(0.015625)"/>
       <path id="DejaVuSans-70" d="M 1159 525 
L 1159 -1331 
L 581 -1331 
L 581 3500 
L 1159 3500 
L 1159 2969 
Q 1341 3281 1617 3432 
Q 1894 3584 2278 3584 
Q 2916 3584 3314 3078 
Q 3713 2572 3713 1747 
Q 3713 922 3314 415 
Q 2916 -91 2278 -91 
Q 1894 -91 1617 61 
Q 1341 213 1159 525 
z
M 3116 1747 
Q 3116 2381 2855 2742 
Q 2594 3103 2138 3103 
Q 1681 3103 1420 2742 
Q 1159 2381 1159 1747 
Q 1159 1113 1420 752 
Q 1681 391 2138 391 
Q 2594 391 2855 752 
Q 3116 1113 3116 1747 
z
" transform="scale(0.015625)"/>
       <path id="DejaVuSans-f8" d="M 2828 2503 
L 1306 653 
Q 1434 522 1595 459 
Q 1756 397 1959 397 
Q 2419 397 2687 759 
Q 2956 1122 2956 1747 
Q 2956 1994 2925 2176 
Q 2894 2359 2828 2503 
z
M 2606 2841 
Q 2475 2969 2314 3033 
Q 2153 3097 1959 3097 
Q 1488 3097 1223 2730 
Q 959 2363 959 1703 
Q 959 1478 989 1306 
Q 1019 1134 1081 991 
L 2606 2841 
z
M 691 519 
Q 522 759 437 1067 
Q 353 1375 353 1747 
Q 353 2609 779 3096 
Q 1206 3584 1959 3584 
Q 2250 3584 2498 3504 
Q 2747 3425 2956 3263 
L 3391 3788 
L 3688 3541 
L 3231 2981 
Q 3397 2741 3481 2431 
Q 3566 2122 3566 1747 
Q 3566 888 3137 398 
Q 2709 -91 1959 -91 
Q 1659 -91 1407 -9 
Q 1156 72 959 231 
L 525 -294 
L 225 -50 
L 691 519 
z
" transform="scale(0.015625)"/>
      </defs>
      <use xlink:href="#DejaVuSans-4a"/>
      <use xlink:href="#DejaVuSans-65" x="29.492188"/>
      <use xlink:href="#DejaVuSans-73" x="91.015625"/>
      <use xlink:href="#DejaVuSans-70" x="143.115234"/>
      <use xlink:href="#DejaVuSans-65" x="206.591797"/>
      <use xlink:href="#DejaVuSans-72" x="268.115234"/>
      <use xlink:href="#DejaVuSans-20" x="309.228516"/>
      <use xlink:href="#DejaVuSans-4d" x="341.015625"/>
      <use xlink:href="#DejaVuSans-f8" x="427.294922"/>
     </g>
    </g>
    <g id="line2d_34">
     <path d="M 59.87 113.369063 
L 69.87 113.369063 
L 79.87 113.369063 
" style="fill: none; stroke: #8c564b; stroke-width: 1.5; stroke-linecap: square"/>
     <g>
      <use xlink:href="#m0301430a1c" x="69.87" y="113.369063" style="fill: #8c564b; stroke: #8c564b"/>
     </g>
    </g>
    <g id="text_19">
     <!-- Ayman Ka -->
     <g transform="translate(87.87 116.869063) scale(0.1 -0.1)">
      <defs>
       <path id="DejaVuSans-41" d="M 2188 4044 
L 1331 1722 
L 3047 1722 
L 2188 4044 
z
M 1831 4666 
L 2547 4666 
L 4325 0 
L 3669 0 
L 3244 1197 
L 1141 1197 
L 716 0 
L 50 0 
L 1831 4666 
z
" transform="scale(0.015625)"/>
       <path id="DejaVuSans-79" d="M 2059 -325 
Q 1816 -950 1584 -1140 
Q 1353 -1331 966 -1331 
L 506 -1331 
L 506 -850 
L 844 -850 
Q 1081 -850 1212 -737 
Q 1344 -625 1503 -206 
L 1606 56 
L 191 3500 
L 800 3500 
L 1894 763 
L 2988 3500 
L 3597 3500 
L 2059 -325 
z
" transform="scale(0.015625)"/>
      </defs>
      <use xlink:href="#DejaVuSans-41"/>
      <use xlink:href="#DejaVuSans-79" x="61.658203"/>
      <use xlink:href="#DejaVuSans-6d" x="120.837891"/>
      <use xlink:href="#DejaVuSans-61" x="218.25"/>
      <use xlink:href="#DejaVuSans-6e" x="279.529297"/>
      <use xlink:href="#DejaVuSans-20" x="342.908203"/>
      <use xlink:href="#DejaVuSans-4b" x="374.695312"/>
      <use xlink:href="#DejaVuSans-61" x="438.521484"/>
     </g>
    </g>
   </g>
  </g>
 </g>
 <defs>
  <clipPath id="p9cdd62df31">
   <rect x="50.87" y="26.88" width="802.33" height="377.24"/>
  </clipPath>
 </defs>
</svg>
