<?xml version="1.0" encoding="utf-8" standalone="no"?>
<!DOCTYPE svg PUBLIC "-//W3C//DTD SVG 1.1//EN"
  "http://www.w3.org/Graphics/SVG/1.1/DTD/svg11.dtd">
<svg xmlns:xlink="http://www.w3.org/1999/xlink" width="864pt" height="432pt" viewBox="0 0 864 432" xmlns="http://www.w3.org/2000/svg" version="1.1">
 <metadata>
  <rdf:RDF xmlns:dc="http://purl.org/dc/elements/1.1/" xmlns:cc="http://creativecommons.org/ns#" xmlns:rdf="http://www.w3.org/1999/02/22-rdf-syntax-ns#">
   <cc:Work>
    <dc:type rdf:resource="http://purl.org/dc/dcmitype/StillImage"/>
    <dc:date>2024-08-22T08:33:19.624935</dc:date>
    <dc:format>image/svg+xml</dc:format>
    <dc:creator>
     <cc:Agent>
      <dc:title>Matplotlib v3.9.2, https://matplotlib.org/</dc:title>
     </cc:Agent>
    </dc:creator>
   </cc:Work>
  </rdf:RDF>
 </metadata>
 <defs>
  <style type="text/css">*{stroke-linejoin: round; stroke-linecap: butt}</style>
 </defs>
 <g id="figure_1">
  <g id="patch_1">
   <path d="M 0 432 
L 864 432 
L 864 0 
L 0 0 
z
" style="fill: #ffffff"/>
  </g>
  <g id="axes_1">
   <g id="patch_2">
    <path d="M 50.87 404.12 
L 853.2 404.12 
L 853.2 26.88 
L 50.87 26.88 
z
" style="fill: #ffffff"/>
   </g>
   <g id="matplotlib.axis_1">
    <g id="xtick_1">
     <g id="line2d_1">
      <path d="M 97.910428 404.12 
L 97.910428 26.88 
" clip-path="url(#p6b531d4a43)" style="fill: none; stroke-dasharray: 2.96,1.28; stroke-dashoffset: 0; stroke: #b0b0b0; stroke-width: 0.8"/>
     </g>
     <g id="line2d_2">
      <defs>
       <path id="m014de14e33" d="M 0 0 
L 0 3.5 
" style="stroke: #000000; stroke-width: 0.8"/>
      </defs>
      <g>
       <use xlink:href="#m014de14e33" x="97.910428" y="404.12" style="stroke: #000000; stroke-width: 0.8"/>
      </g>
     </g>
     <g id="text_1">
      <!-- 2024-06-15 -->
      <g transform="translate(68.852616 418.718437) scale(0.1 -0.1)">
       <defs>
        <path id="DejaVuSans-32" d="M 1228 531 
L 3431 531 
L 3431 0 
L 469 0 
L 469 531 
Q 828 903 1448 1529 
Q 2069 2156 2228 2338 
Q 2531 2678 2651 2914 
Q 2772 3150 2772 3378 
Q 2772 3750 2511 3984 
Q 2250 4219 1831 4219 
Q 1534 4219 1204 4116 
Q 875 4013 500 3803 
L 500 4441 
Q 881 4594 1212 4672 
Q 1544 4750 1819 4750 
Q 2544 4750 2975 4387 
Q 3406 4025 3406 3419 
Q 3406 3131 3298 2873 
Q 3191 2616 2906 2266 
Q 2828 2175 2409 1742 
Q 1991 1309 1228 531 
z
" transform="scale(0.015625)"/>
        <path id="DejaVuSans-30" d="M 2034 4250 
Q 1547 4250 1301 3770 
Q 1056 3291 1056 2328 
Q 1056 1369 1301 889 
Q 1547 409 2034 409 
Q 2525 409 2770 889 
Q 3016 1369 3016 2328 
Q 3016 3291 2770 3770 
Q 2525 4250 2034 4250 
z
M 2034 4750 
Q 2819 4750 3233 4129 
Q 3647 3509 3647 2328 
Q 3647 1150 3233 529 
Q 2819 -91 2034 -91 
Q 1250 -91 836 529 
Q 422 1150 422 2328 
Q 422 3509 836 4129 
Q 1250 4750 2034 4750 
z
" transform="scale(0.015625)"/>
        <path id="DejaVuSans-34" d="M 2419 4116 
L 825 1625 
L 2419 1625 
L 2419 4116 
z
M 2253 4666 
L 3047 4666 
L 3047 1625 
L 3713 1625 
L 3713 1100 
L 3047 1100 
L 3047 0 
L 2419 0 
L 2419 1100 
L 313 1100 
L 313 1709 
L 2253 4666 
z
" transform="scale(0.015625)"/>
        <path id="DejaVuSans-2d" d="M 313 2009 
L 1997 2009 
L 1997 1497 
L 313 1497 
L 313 2009 
z
" transform="scale(0.015625)"/>
        <path id="DejaVuSans-36" d="M 2113 2584 
Q 1688 2584 1439 2293 
Q 1191 2003 1191 1497 
Q 1191 994 1439 701 
Q 1688 409 2113 409 
Q 2538 409 2786 701 
Q 3034 994 3034 1497 
Q 3034 2003 2786 2293 
Q 2538 2584 2113 2584 
z
M 3366 4563 
L 3366 3988 
Q 3128 4100 2886 4159 
Q 2644 4219 2406 4219 
Q 1781 4219 1451 3797 
Q 1122 3375 1075 2522 
Q 1259 2794 1537 2939 
Q 1816 3084 2150 3084 
Q 2853 3084 3261 2657 
Q 3669 2231 3669 1497 
Q 3669 778 3244 343 
Q 2819 -91 2113 -91 
Q 1303 -91 875 529 
Q 447 1150 447 2328 
Q 447 3434 972 4092 
Q 1497 4750 2381 4750 
Q 2619 4750 2861 4703 
Q 3103 4656 3366 4563 
z
" transform="scale(0.015625)"/>
        <path id="DejaVuSans-31" d="M 794 531 
L 1825 531 
L 1825 4091 
L 703 3866 
L 703 4441 
L 1819 4666 
L 2450 4666 
L 2450 531 
L 3481 531 
L 3481 0 
L 794 0 
L 794 531 
z
" transform="scale(0.015625)"/>
        <path id="DejaVuSans-35" d="M 691 4666 
L 3169 4666 
L 3169 4134 
L 1269 4134 
L 1269 2991 
Q 1406 3038 1543 3061 
Q 1681 3084 1819 3084 
Q 2600 3084 3056 2656 
Q 3513 2228 3513 1497 
Q 3513 744 3044 326 
Q 2575 -91 1722 -91 
Q 1428 -91 1123 -41 
Q 819 9 494 109 
L 494 744 
Q 775 591 1075 516 
Q 1375 441 1709 441 
Q 2250 441 2565 725 
Q 2881 1009 2881 1497 
Q 2881 1984 2565 2268 
Q 2250 2553 1709 2553 
Q 1456 2553 1204 2497 
Q 953 2441 691 2322 
L 691 4666 
z
" transform="scale(0.015625)"/>
       </defs>
       <use xlink:href="#DejaVuSans-32"/>
       <use xlink:href="#DejaVuSans-30" x="63.623047"/>
       <use xlink:href="#DejaVuSans-32" x="127.246094"/>
       <use xlink:href="#DejaVuSans-34" x="190.869141"/>
       <use xlink:href="#DejaVuSans-2d" x="254.492188"/>
       <use xlink:href="#DejaVuSans-30" x="290.576172"/>
       <use xlink:href="#DejaVuSans-36" x="354.199219"/>
       <use xlink:href="#DejaVuSans-2d" x="417.822266"/>
       <use xlink:href="#DejaVuSans-31" x="453.90625"/>
       <use xlink:href="#DejaVuSans-35" x="517.529297"/>
      </g>
     </g>
    </g>
    <g id="xtick_2">
     <g id="line2d_3">
      <path d="M 267.044552 404.12 
L 267.044552 26.88 
" clip-path="url(#p6b531d4a43)" style="fill: none; stroke-dasharray: 2.96,1.28; stroke-dashoffset: 0; stroke: #b0b0b0; stroke-width: 0.8"/>
     </g>
     <g id="line2d_4">
      <g>
       <use xlink:href="#m014de14e33" x="267.044552" y="404.12" style="stroke: #000000; stroke-width: 0.8"/>
      </g>
     </g>
     <g id="text_2">
      <!-- 2024-07-01 -->
      <g transform="translate(237.98674 418.718437) scale(0.1 -0.1)">
       <defs>
        <path id="DejaVuSans-37" d="M 525 4666 
L 3525 4666 
L 3525 4397 
L 1831 0 
L 1172 0 
L 2766 4134 
L 525 4134 
L 525 4666 
z
" transform="scale(0.015625)"/>
       </defs>
       <use xlink:href="#DejaVuSans-32"/>
       <use xlink:href="#DejaVuSans-30" x="63.623047"/>
       <use xlink:href="#DejaVuSans-32" x="127.246094"/>
       <use xlink:href="#DejaVuSans-34" x="190.869141"/>
       <use xlink:href="#DejaVuSans-2d" x="254.492188"/>
       <use xlink:href="#DejaVuSans-30" x="290.576172"/>
       <use xlink:href="#DejaVuSans-37" x="354.199219"/>
       <use xlink:href="#DejaVuSans-2d" x="417.822266"/>
       <use xlink:href="#DejaVuSans-30" x="453.90625"/>
       <use xlink:href="#DejaVuSans-31" x="517.529297"/>
      </g>
     </g>
    </g>
    <g id="xtick_3">
     <g id="line2d_5">
      <path d="M 415.03691 404.12 
L 415.03691 26.88 
" clip-path="url(#p6b531d4a43)" style="fill: none; stroke-dasharray: 2.96,1.28; stroke-dashoffset: 0; stroke: #b0b0b0; stroke-width: 0.8"/>
     </g>
     <g id="line2d_6">
      <g>
       <use xlink:href="#m014de14e33" x="415.03691" y="404.12" style="stroke: #000000; stroke-width: 0.8"/>
      </g>
     </g>
     <g id="text_3">
      <!-- 2024-07-15 -->
      <g transform="translate(385.979098 418.718437) scale(0.1 -0.1)">
       <use xlink:href="#DejaVuSans-32"/>
       <use xlink:href="#DejaVuSans-30" x="63.623047"/>
       <use xlink:href="#DejaVuSans-32" x="127.246094"/>
       <use xlink:href="#DejaVuSans-34" x="190.869141"/>
       <use xlink:href="#DejaVuSans-2d" x="254.492188"/>
       <use xlink:href="#DejaVuSans-30" x="290.576172"/>
       <use xlink:href="#DejaVuSans-37" x="354.199219"/>
       <use xlink:href="#DejaVuSans-2d" x="417.822266"/>
       <use xlink:href="#DejaVuSans-31" x="453.90625"/>
       <use xlink:href="#DejaVuSans-35" x="517.529297"/>
      </g>
     </g>
    </g>
    <g id="xtick_4">
     <g id="line2d_7">
      <path d="M 594.741917 404.12 
L 594.741917 26.88 
" clip-path="url(#p6b531d4a43)" style="fill: none; stroke-dasharray: 2.96,1.28; stroke-dashoffset: 0; stroke: #b0b0b0; stroke-width: 0.8"/>
     </g>
     <g id="line2d_8">
      <g>
       <use xlink:href="#m014de14e33" x="594.741917" y="404.12" style="stroke: #000000; stroke-width: 0.8"/>
      </g>
     </g>
     <g id="text_4">
      <!-- 2024-08-01 -->
      <g transform="translate(565.684104 418.718437) scale(0.1 -0.1)">
       <defs>
        <path id="DejaVuSans-38" d="M 2034 2216 
Q 1584 2216 1326 1975 
Q 1069 1734 1069 1313 
Q 1069 891 1326 650 
Q 1584 409 2034 409 
Q 2484 409 2743 651 
Q 3003 894 3003 1313 
Q 3003 1734 2745 1975 
Q 2488 2216 2034 2216 
z
M 1403 2484 
Q 997 2584 770 2862 
Q 544 3141 544 3541 
Q 544 4100 942 4425 
Q 1341 4750 2034 4750 
Q 2731 4750 3128 4425 
Q 3525 4100 3525 3541 
Q 3525 3141 3298 2862 
Q 3072 2584 2669 2484 
Q 3125 2378 3379 2068 
Q 3634 1759 3634 1313 
Q 3634 634 3220 271 
Q 2806 -91 2034 -91 
Q 1263 -91 848 271 
Q 434 634 434 1313 
Q 434 1759 690 2068 
Q 947 2378 1403 2484 
z
M 1172 3481 
Q 1172 3119 1398 2916 
Q 1625 2713 2034 2713 
Q 2441 2713 2670 2916 
Q 2900 3119 2900 3481 
Q 2900 3844 2670 4047 
Q 2441 4250 2034 4250 
Q 1625 4250 1398 4047 
Q 1172 3844 1172 3481 
z
" transform="scale(0.015625)"/>
       </defs>
       <use xlink:href="#DejaVuSans-32"/>
       <use xlink:href="#DejaVuSans-30" x="63.623047"/>
       <use xlink:href="#DejaVuSans-32" x="127.246094"/>
       <use xlink:href="#DejaVuSans-34" x="190.869141"/>
       <use xlink:href="#DejaVuSans-2d" x="254.492188"/>
       <use xlink:href="#DejaVuSans-30" x="290.576172"/>
       <use xlink:href="#DejaVuSans-38" x="354.199219"/>
       <use xlink:href="#DejaVuSans-2d" x="417.822266"/>
       <use xlink:href="#DejaVuSans-30" x="453.90625"/>
       <use xlink:href="#DejaVuSans-31" x="517.529297"/>
      </g>
     </g>
    </g>
    <g id="xtick_5">
     <g id="line2d_9">
      <path d="M 742.734275 404.12 
L 742.734275 26.88 
" clip-path="url(#p6b531d4a43)" style="fill: none; stroke-dasharray: 2.96,1.28; stroke-dashoffset: 0; stroke: #b0b0b0; stroke-width: 0.8"/>
     </g>
     <g id="line2d_10">
      <g>
       <use xlink:href="#m014de14e33" x="742.734275" y="404.12" style="stroke: #000000; stroke-width: 0.8"/>
      </g>
     </g>
     <g id="text_5">
      <!-- 2024-08-15 -->
      <g transform="translate(713.676463 418.718437) scale(0.1 -0.1)">
       <use xlink:href="#DejaVuSans-32"/>
       <use xlink:href="#DejaVuSans-30" x="63.623047"/>
       <use xlink:href="#DejaVuSans-32" x="127.246094"/>
       <use xlink:href="#DejaVuSans-34" x="190.869141"/>
       <use xlink:href="#DejaVuSans-2d" x="254.492188"/>
       <use xlink:href="#DejaVuSans-30" x="290.576172"/>
       <use xlink:href="#DejaVuSans-38" x="354.199219"/>
       <use xlink:href="#DejaVuSans-2d" x="417.822266"/>
       <use xlink:href="#DejaVuSans-31" x="453.90625"/>
       <use xlink:href="#DejaVuSans-35" x="517.529297"/>
      </g>
     </g>
    </g>
   </g>
   <g id="matplotlib.axis_2">
    <g id="ytick_1">
     <g id="line2d_11">
      <path d="M 50.87 393.262222 
L 853.2 393.262222 
" clip-path="url(#p6b531d4a43)" style="fill: none; stroke-dasharray: 2.96,1.28; stroke-dashoffset: 0; stroke: #b0b0b0; stroke-width: 0.8"/>
     </g>
     <g id="line2d_12">
      <defs>
       <path id="m3725bff56c" d="M 0 0 
L -3.5 0 
" style="stroke: #000000; stroke-width: 0.8"/>
      </defs>
      <g>
       <use xlink:href="#m3725bff56c" x="50.87" y="393.262222" style="stroke: #000000; stroke-width: 0.8"/>
      </g>
     </g>
     <g id="text_6">
      <!-- 0 -->
      <g transform="translate(37.5075 397.061441) scale(0.1 -0.1)">
       <use xlink:href="#DejaVuSans-30"/>
      </g>
     </g>
    </g>
    <g id="ytick_2">
     <g id="line2d_13">
      <path d="M 50.87 329.981687 
L 853.2 329.981687 
" clip-path="url(#p6b531d4a43)" style="fill: none; stroke-dasharray: 2.96,1.28; stroke-dashoffset: 0; stroke: #b0b0b0; stroke-width: 0.8"/>
     </g>
     <g id="line2d_14">
      <g>
       <use xlink:href="#m3725bff56c" x="50.87" y="329.981687" style="stroke: #000000; stroke-width: 0.8"/>
      </g>
     </g>
     <g id="text_7">
      <!-- 50 -->
      <g transform="translate(31.145 333.780906) scale(0.1 -0.1)">
       <use xlink:href="#DejaVuSans-35"/>
       <use xlink:href="#DejaVuSans-30" x="63.623047"/>
      </g>
     </g>
    </g>
    <g id="ytick_3">
     <g id="line2d_15">
      <path d="M 50.87 266.701152 
L 853.2 266.701152 
" clip-path="url(#p6b531d4a43)" style="fill: none; stroke-dasharray: 2.96,1.28; stroke-dashoffset: 0; stroke: #b0b0b0; stroke-width: 0.8"/>
     </g>
     <g id="line2d_16">
      <g>
       <use xlink:href="#m3725bff56c" x="50.87" y="266.701152" style="stroke: #000000; stroke-width: 0.8"/>
      </g>
     </g>
     <g id="text_8">
      <!-- 100 -->
      <g transform="translate(24.7825 270.500371) scale(0.1 -0.1)">
       <use xlink:href="#DejaVuSans-31"/>
       <use xlink:href="#DejaVuSans-30" x="63.623047"/>
       <use xlink:href="#DejaVuSans-30" x="127.246094"/>
      </g>
     </g>
    </g>
    <g id="ytick_4">
     <g id="line2d_17">
      <path d="M 50.87 203.420617 
L 853.2 203.420617 
" clip-path="url(#p6b531d4a43)" style="fill: none; stroke-dasharray: 2.96,1.28; stroke-dashoffset: 0; stroke: #b0b0b0; stroke-width: 0.8"/>
     </g>
     <g id="line2d_18">
      <g>
       <use xlink:href="#m3725bff56c" x="50.87" y="203.420617" style="stroke: #000000; stroke-width: 0.8"/>
      </g>
     </g>
     <g id="text_9">
      <!-- 150 -->
      <g transform="translate(24.7825 207.219836) scale(0.1 -0.1)">
       <use xlink:href="#DejaVuSans-31"/>
       <use xlink:href="#DejaVuSans-35" x="63.623047"/>
       <use xlink:href="#DejaVuSans-30" x="127.246094"/>
      </g>
     </g>
    </g>
    <g id="ytick_5">
     <g id="line2d_19">
      <path d="M 50.87 140.140082 
L 853.2 140.140082 
" clip-path="url(#p6b531d4a43)" style="fill: none; stroke-dasharray: 2.96,1.28; stroke-dashoffset: 0; stroke: #b0b0b0; stroke-width: 0.8"/>
     </g>
     <g id="line2d_20">
      <g>
       <use xlink:href="#m3725bff56c" x="50.87" y="140.140082" style="stroke: #000000; stroke-width: 0.8"/>
      </g>
     </g>
     <g id="text_10">
      <!-- 200 -->
      <g transform="translate(24.7825 143.939301) scale(0.1 -0.1)">
       <use xlink:href="#DejaVuSans-32"/>
       <use xlink:href="#DejaVuSans-30" x="63.623047"/>
       <use xlink:href="#DejaVuSans-30" x="127.246094"/>
      </g>
     </g>
    </g>
    <g id="ytick_6">
     <g id="line2d_21">
      <path d="M 50.87 76.859547 
L 853.2 76.859547 
" clip-path="url(#p6b531d4a43)" style="fill: none; stroke-dasharray: 2.96,1.28; stroke-dashoffset: 0; stroke: #b0b0b0; stroke-width: 0.8"/>
     </g>
     <g id="line2d_22">
      <g>
       <use xlink:href="#m3725bff56c" x="50.87" y="76.859547" style="stroke: #000000; stroke-width: 0.8"/>
      </g>
     </g>
     <g id="text_11">
      <!-- 250 -->
      <g transform="translate(24.7825 80.658765) scale(0.1 -0.1)">
       <use xlink:href="#DejaVuSans-32"/>
       <use xlink:href="#DejaVuSans-35" x="63.623047"/>
       <use xlink:href="#DejaVuSans-30" x="127.246094"/>
      </g>
     </g>
    </g>
    <g id="text_12">
     <!-- Score -->
     <g transform="translate(18.702813 229.502344) rotate(-90) scale(0.1 -0.1)">
      <defs>
       <path id="DejaVuSans-53" d="M 3425 4513 
L 3425 3897 
Q 3066 4069 2747 4153 
Q 2428 4238 2131 4238 
Q 1616 4238 1336 4038 
Q 1056 3838 1056 3469 
Q 1056 3159 1242 3001 
Q 1428 2844 1947 2747 
L 2328 2669 
Q 3034 2534 3370 2195 
Q 3706 1856 3706 1288 
Q 3706 609 3251 259 
Q 2797 -91 1919 -91 
Q 1588 -91 1214 -16 
Q 841 59 441 206 
L 441 856 
Q 825 641 1194 531 
Q 1563 422 1919 422 
Q 2459 422 2753 634 
Q 3047 847 3047 1241 
Q 3047 1584 2836 1778 
Q 2625 1972 2144 2069 
L 1759 2144 
Q 1053 2284 737 2584 
Q 422 2884 422 3419 
Q 422 4038 858 4394 
Q 1294 4750 2059 4750 
Q 2388 4750 2728 4690 
Q 3069 4631 3425 4513 
z
" transform="scale(0.015625)"/>
       <path id="DejaVuSans-63" d="M 3122 3366 
L 3122 2828 
Q 2878 2963 2633 3030 
Q 2388 3097 2138 3097 
Q 1578 3097 1268 2742 
Q 959 2388 959 1747 
Q 959 1106 1268 751 
Q 1578 397 2138 397 
Q 2388 397 2633 464 
Q 2878 531 3122 666 
L 3122 134 
Q 2881 22 2623 -34 
Q 2366 -91 2075 -91 
Q 1284 -91 818 406 
Q 353 903 353 1747 
Q 353 2603 823 3093 
Q 1294 3584 2113 3584 
Q 2378 3584 2631 3529 
Q 2884 3475 3122 3366 
z
" transform="scale(0.015625)"/>
       <path id="DejaVuSans-6f" d="M 1959 3097 
Q 1497 3097 1228 2736 
Q 959 2375 959 1747 
Q 959 1119 1226 758 
Q 1494 397 1959 397 
Q 2419 397 2687 759 
Q 2956 1122 2956 1747 
Q 2956 2369 2687 2733 
Q 2419 3097 1959 3097 
z
M 1959 3584 
Q 2709 3584 3137 3096 
Q 3566 2609 3566 1747 
Q 3566 888 3137 398 
Q 2709 -91 1959 -91 
Q 1206 -91 779 398 
Q 353 888 353 1747 
Q 353 2609 779 3096 
Q 1206 3584 1959 3584 
z
" transform="scale(0.015625)"/>
       <path id="DejaVuSans-72" d="M 2631 2963 
Q 2534 3019 2420 3045 
Q 2306 3072 2169 3072 
Q 1681 3072 1420 2755 
Q 1159 2438 1159 1844 
L 1159 0 
L 581 0 
L 581 3500 
L 1159 3500 
L 1159 2956 
Q 1341 3275 1631 3429 
Q 1922 3584 2338 3584 
Q 2397 3584 2469 3576 
Q 2541 3569 2628 3553 
L 2631 2963 
z
" transform="scale(0.015625)"/>
       <path id="DejaVuSans-65" d="M 3597 1894 
L 3597 1613 
L 953 1613 
Q 991 1019 1311 708 
Q 1631 397 2203 397 
Q 2534 397 2845 478 
Q 3156 559 3463 722 
L 3463 178 
Q 3153 47 2828 -22 
Q 2503 -91 2169 -91 
Q 1331 -91 842 396 
Q 353 884 353 1716 
Q 353 2575 817 3079 
Q 1281 3584 2069 3584 
Q 2775 3584 3186 3129 
Q 3597 2675 3597 1894 
z
M 3022 2063 
Q 3016 2534 2758 2815 
Q 2500 3097 2075 3097 
Q 1594 3097 1305 2825 
Q 1016 2553 972 2059 
L 3022 2063 
z
" transform="scale(0.015625)"/>
      </defs>
      <use xlink:href="#DejaVuSans-53"/>
      <use xlink:href="#DejaVuSans-63" x="63.476562"/>
      <use xlink:href="#DejaVuSans-6f" x="118.457031"/>
      <use xlink:href="#DejaVuSans-72" x="179.638672"/>
      <use xlink:href="#DejaVuSans-65" x="218.501953"/>
     </g>
    </g>
   </g>
   <g id="line2d_23">
    <path d="M 87.339545 380.641138 
L 97.910428 359.125756 
L 108.481311 321.157435 
L 119.052194 312.29816 
L 129.623076 293.313999 
L 140.193959 274.329839 
L 150.764842 246.486403 
L 161.335725 235.095907 
L 171.906607 203.455639 
L 182.47749 192.065143 
L 193.048373 157.893654 
L 203.619256 137.643883 
L 214.190138 78.16018 
L 245.902787 78.16018 
L 256.473669 78.16018 
L 267.044552 78.16018 
L 277.615435 78.16018 
L 288.186318 78.16018 
L 309.328083 78.16018 
L 319.898966 78.16018 
L 330.469848 78.16018 
L 341.040731 78.16018 
L 351.611614 78.16018 
L 362.182497 59.176019 
L 372.753379 59.176019 
L 383.324262 59.176019 
L 393.895145 59.176019 
L 404.466028 59.176019 
L 415.03691 46.519912 
L 425.607793 46.519912 
L 436.178676 46.519912 
L 446.749559 46.519912 
L 457.320441 46.519912 
L 467.891324 46.519912 
L 478.462207 46.519912 
L 489.03309 46.519912 
L 499.603972 46.519912 
L 510.174855 46.519912 
L 520.745738 46.519912 
L 531.316621 46.519912 
L 541.887503 46.519912 
L 552.458386 46.519912 
L 563.029269 46.519912 
L 573.600152 46.519912 
L 584.171034 46.519912 
L 594.741917 46.519912 
L 605.3128 46.519912 
L 615.883682 46.519912 
L 626.454565 46.519912 
L 637.025448 46.519912 
L 647.596331 46.519912 
L 658.167213 46.519912 
L 668.738096 46.519912 
L 679.308979 46.519912 
L 689.879862 46.519912 
L 700.450744 46.519912 
L 711.021627 46.519912 
L 721.59251 46.519912 
L 732.163393 46.519912 
L 742.734275 46.519912 
L 753.305158 46.519912 
L 763.876041 46.519912 
L 774.446924 46.519912 
L 785.017806 46.519912 
L 795.588689 46.519912 
L 806.159572 46.519912 
L 816.730455 46.519912 
" clip-path="url(#p6b531d4a43)" style="fill: none; stroke: #1f77b4; stroke-width: 1.5; stroke-linecap: square"/>
    <defs>
     <path id="m905da0495f" d="M 0 3.5 
C 0.928211 3.5 1.81853 3.131218 2.474874 2.474874 
C 3.131218 1.81853 3.5 0.928211 3.5 0 
C 3.5 -0.928211 3.131218 -1.81853 2.474874 -2.474874 
C 1.81853 -3.131218 0.928211 -3.5 0 -3.5 
C -0.928211 -3.5 -1.81853 -3.131218 -2.474874 -2.474874 
C -3.131218 -1.81853 -3.5 -0.928211 -3.5 0 
C -3.5 0.928211 -3.131218 1.81853 -2.474874 2.474874 
C -1.81853 3.131218 -0.928211 3.5 0 3.5 
z
" style="stroke: #1f77b4"/>
    </defs>
    <g clip-path="url(#p6b531d4a43)">
     <use xlink:href="#m905da0495f" x="87.339545" y="380.641138" style="fill: #1f77b4; stroke: #1f77b4"/>
     <use xlink:href="#m905da0495f" x="97.910428" y="359.125756" style="fill: #1f77b4; stroke: #1f77b4"/>
     <use xlink:href="#m905da0495f" x="108.481311" y="321.157435" style="fill: #1f77b4; stroke: #1f77b4"/>
     <use xlink:href="#m905da0495f" x="119.052194" y="312.29816" style="fill: #1f77b4; stroke: #1f77b4"/>
     <use xlink:href="#m905da0495f" x="129.623076" y="293.313999" style="fill: #1f77b4; stroke: #1f77b4"/>
     <use xlink:href="#m905da0495f" x="140.193959" y="274.329839" style="fill: #1f77b4; stroke: #1f77b4"/>
     <use xlink:href="#m905da0495f" x="150.764842" y="246.486403" style="fill: #1f77b4; stroke: #1f77b4"/>
     <use xlink:href="#m905da0495f" x="161.335725" y="235.095907" style="fill: #1f77b4; stroke: #1f77b4"/>
     <use xlink:href="#m905da0495f" x="171.906607" y="203.455639" style="fill: #1f77b4; stroke: #1f77b4"/>
     <use xlink:href="#m905da0495f" x="182.47749" y="192.065143" style="fill: #1f77b4; stroke: #1f77b4"/>
     <use xlink:href="#m905da0495f" x="193.048373" y="157.893654" style="fill: #1f77b4; stroke: #1f77b4"/>
     <use xlink:href="#m905da0495f" x="203.619256" y="137.643883" style="fill: #1f77b4; stroke: #1f77b4"/>
     <use xlink:href="#m905da0495f" x="214.190138" y="78.16018" style="fill: #1f77b4; stroke: #1f77b4"/>
     <use xlink:href="#m905da0495f" x="245.902787" y="78.16018" style="fill: #1f77b4; stroke: #1f77b4"/>
     <use xlink:href="#m905da0495f" x="256.473669" y="78.16018" style="fill: #1f77b4; stroke: #1f77b4"/>
     <use xlink:href="#m905da0495f" x="267.044552" y="78.16018" style="fill: #1f77b4; stroke: #1f77b4"/>
     <use xlink:href="#m905da0495f" x="277.615435" y="78.16018" style="fill: #1f77b4; stroke: #1f77b4"/>
     <use xlink:href="#m905da0495f" x="288.186318" y="78.16018" style="fill: #1f77b4; stroke: #1f77b4"/>
     <use xlink:href="#m905da0495f" x="309.328083" y="78.16018" style="fill: #1f77b4; stroke: #1f77b4"/>
     <use xlink:href="#m905da0495f" x="319.898966" y="78.16018" style="fill: #1f77b4; stroke: #1f77b4"/>
     <use xlink:href="#m905da0495f" x="330.469848" y="78.16018" style="fill: #1f77b4; stroke: #1f77b4"/>
     <use xlink:href="#m905da0495f" x="341.040731" y="78.16018" style="fill: #1f77b4; stroke: #1f77b4"/>
     <use xlink:href="#m905da0495f" x="351.611614" y="78.16018" style="fill: #1f77b4; stroke: #1f77b4"/>
     <use xlink:href="#m905da0495f" x="362.182497" y="59.176019" style="fill: #1f77b4; stroke: #1f77b4"/>
     <use xlink:href="#m905da0495f" x="372.753379" y="59.176019" style="fill: #1f77b4; stroke: #1f77b4"/>
     <use xlink:href="#m905da0495f" x="383.324262" y="59.176019" style="fill: #1f77b4; stroke: #1f77b4"/>
     <use xlink:href="#m905da0495f" x="393.895145" y="59.176019" style="fill: #1f77b4; stroke: #1f77b4"/>
     <use xlink:href="#m905da0495f" x="404.466028" y="59.176019" style="fill: #1f77b4; stroke: #1f77b4"/>
     <use xlink:href="#m905da0495f" x="415.03691" y="46.519912" style="fill: #1f77b4; stroke: #1f77b4"/>
     <use xlink:href="#m905da0495f" x="425.607793" y="46.519912" style="fill: #1f77b4; stroke: #1f77b4"/>
     <use xlink:href="#m905da0495f" x="436.178676" y="46.519912" style="fill: #1f77b4; stroke: #1f77b4"/>
     <use xlink:href="#m905da0495f" x="446.749559" y="46.519912" style="fill: #1f77b4; stroke: #1f77b4"/>
     <use xlink:href="#m905da0495f" x="457.320441" y="46.519912" style="fill: #1f77b4; stroke: #1f77b4"/>
     <use xlink:href="#m905da0495f" x="467.891324" y="46.519912" style="fill: #1f77b4; stroke: #1f77b4"/>
     <use xlink:href="#m905da0495f" x="478.462207" y="46.519912" style="fill: #1f77b4; stroke: #1f77b4"/>
     <use xlink:href="#m905da0495f" x="489.03309" y="46.519912" style="fill: #1f77b4; stroke: #1f77b4"/>
     <use xlink:href="#m905da0495f" x="499.603972" y="46.519912" style="fill: #1f77b4; stroke: #1f77b4"/>
     <use xlink:href="#m905da0495f" x="510.174855" y="46.519912" style="fill: #1f77b4; stroke: #1f77b4"/>
     <use xlink:href="#m905da0495f" x="520.745738" y="46.519912" style="fill: #1f77b4; stroke: #1f77b4"/>
     <use xlink:href="#m905da0495f" x="531.316621" y="46.519912" style="fill: #1f77b4; stroke: #1f77b4"/>
     <use xlink:href="#m905da0495f" x="541.887503" y="46.519912" style="fill: #1f77b4; stroke: #1f77b4"/>
     <use xlink:href="#m905da0495f" x="552.458386" y="46.519912" style="fill: #1f77b4; stroke: #1f77b4"/>
     <use xlink:href="#m905da0495f" x="563.029269" y="46.519912" style="fill: #1f77b4; stroke: #1f77b4"/>
     <use xlink:href="#m905da0495f" x="573.600152" y="46.519912" style="fill: #1f77b4; stroke: #1f77b4"/>
     <use xlink:href="#m905da0495f" x="584.171034" y="46.519912" style="fill: #1f77b4; stroke: #1f77b4"/>
     <use xlink:href="#m905da0495f" x="594.741917" y="46.519912" style="fill: #1f77b4; stroke: #1f77b4"/>
     <use xlink:href="#m905da0495f" x="605.3128" y="46.519912" style="fill: #1f77b4; stroke: #1f77b4"/>
     <use xlink:href="#m905da0495f" x="615.883682" y="46.519912" style="fill: #1f77b4; stroke: #1f77b4"/>
     <use xlink:href="#m905da0495f" x="626.454565" y="46.519912" style="fill: #1f77b4; stroke: #1f77b4"/>
     <use xlink:href="#m905da0495f" x="637.025448" y="46.519912" style="fill: #1f77b4; stroke: #1f77b4"/>
     <use xlink:href="#m905da0495f" x="647.596331" y="46.519912" style="fill: #1f77b4; stroke: #1f77b4"/>
     <use xlink:href="#m905da0495f" x="658.167213" y="46.519912" style="fill: #1f77b4; stroke: #1f77b4"/>
     <use xlink:href="#m905da0495f" x="668.738096" y="46.519912" style="fill: #1f77b4; stroke: #1f77b4"/>
     <use xlink:href="#m905da0495f" x="679.308979" y="46.519912" style="fill: #1f77b4; stroke: #1f77b4"/>
     <use xlink:href="#m905da0495f" x="689.879862" y="46.519912" style="fill: #1f77b4; stroke: #1f77b4"/>
     <use xlink:href="#m905da0495f" x="700.450744" y="46.519912" style="fill: #1f77b4; stroke: #1f77b4"/>
     <use xlink:href="#m905da0495f" x="711.021627" y="46.519912" style="fill: #1f77b4; stroke: #1f77b4"/>
     <use xlink:href="#m905da0495f" x="721.59251" y="46.519912" style="fill: #1f77b4; stroke: #1f77b4"/>
     <use xlink:href="#m905da0495f" x="732.163393" y="46.519912" style="fill: #1f77b4; stroke: #1f77b4"/>
     <use xlink:href="#m905da0495f" x="742.734275" y="46.519912" style="fill: #1f77b4; stroke: #1f77b4"/>
     <use xlink:href="#m905da0495f" x="753.305158" y="46.519912" style="fill: #1f77b4; stroke: #1f77b4"/>
     <use xlink:href="#m905da0495f" x="763.876041" y="46.519912" style="fill: #1f77b4; stroke: #1f77b4"/>
     <use xlink:href="#m905da0495f" x="774.446924" y="46.519912" style="fill: #1f77b4; stroke: #1f77b4"/>
     <use xlink:href="#m905da0495f" x="785.017806" y="46.519912" style="fill: #1f77b4; stroke: #1f77b4"/>
     <use xlink:href="#m905da0495f" x="795.588689" y="46.519912" style="fill: #1f77b4; stroke: #1f77b4"/>
     <use xlink:href="#m905da0495f" x="806.159572" y="46.519912" style="fill: #1f77b4; stroke: #1f77b4"/>
     <use xlink:href="#m905da0495f" x="816.730455" y="46.519912" style="fill: #1f77b4; stroke: #1f77b4"/>
    </g>
   </g>
   <g id="line2d_24">
    <path d="M 87.339545 380.710518 
L 97.910428 359.195136 
L 108.481311 340.210975 
L 119.052194 333.882922 
L 129.623076 327.554868 
L 140.193959 303.508265 
L 150.764842 292.117769 
L 161.335725 285.789715 
L 171.906607 254.149448 
L 182.47749 216.181127 
L 193.048373 190.868913 
L 203.619256 176.947195 
L 214.190138 130.119599 
L 245.902787 130.119599 
L 256.473669 130.119599 
L 267.044552 130.119599 
L 277.615435 130.119599 
L 288.186318 130.119599 
L 309.328083 130.119599 
L 319.898966 130.119599 
L 330.469848 130.119599 
L 341.040731 130.119599 
L 351.611614 130.119599 
L 362.182497 111.135438 
L 372.753379 111.135438 
L 383.324262 111.135438 
L 393.895145 111.135438 
L 404.466028 111.135438 
L 415.03691 79.495171 
L 425.607793 79.495171 
L 436.178676 79.495171 
L 446.749559 79.495171 
L 457.320441 79.495171 
L 467.891324 79.495171 
L 478.462207 79.495171 
L 489.03309 79.495171 
L 499.603972 79.495171 
L 510.174855 79.495171 
L 520.745738 79.495171 
L 531.316621 79.495171 
L 541.887503 79.495171 
L 552.458386 79.495171 
L 563.029269 79.495171 
L 573.600152 79.495171 
L 584.171034 79.495171 
L 594.741917 79.495171 
L 605.3128 79.495171 
L 615.883682 79.495171 
L 626.454565 79.495171 
L 637.025448 79.495171 
L 647.596331 79.495171 
L 658.167213 79.495171 
L 668.738096 79.495171 
L 679.308979 79.495171 
L 689.879862 79.495171 
L 700.450744 79.495171 
L 711.021627 79.495171 
L 721.59251 79.495171 
L 732.163393 79.495171 
L 742.734275 79.495171 
L 753.305158 79.495171 
L 763.876041 79.495171 
L 774.446924 79.495171 
L 785.017806 79.495171 
L 795.588689 79.495171 
L 806.159572 79.495171 
L 816.730455 79.495171 
" clip-path="url(#p6b531d4a43)" style="fill: none; stroke: #ff7f0e; stroke-width: 1.5; stroke-linecap: square"/>
    <defs>
     <path id="m4c1a3e501f" d="M 0 3.5 
C 0.928211 3.5 1.81853 3.131218 2.474874 2.474874 
C 3.131218 1.81853 3.5 0.928211 3.5 0 
C 3.5 -0.928211 3.131218 -1.81853 2.474874 -2.474874 
C 1.81853 -3.131218 0.928211 -3.5 0 -3.5 
C -0.928211 -3.5 -1.81853 -3.131218 -2.474874 -2.474874 
C -3.131218 -1.81853 -3.5 -0.928211 -3.5 0 
C -3.5 0.928211 -3.131218 1.81853 -2.474874 2.474874 
C -1.81853 3.131218 -0.928211 3.5 0 3.5 
z
" style="stroke: #ff7f0e"/>
    </defs>
    <g clip-path="url(#p6b531d4a43)">
     <use xlink:href="#m4c1a3e501f" x="87.339545" y="380.710518" style="fill: #ff7f0e; stroke: #ff7f0e"/>
     <use xlink:href="#m4c1a3e501f" x="97.910428" y="359.195136" style="fill: #ff7f0e; stroke: #ff7f0e"/>
     <use xlink:href="#m4c1a3e501f" x="108.481311" y="340.210975" style="fill: #ff7f0e; stroke: #ff7f0e"/>
     <use xlink:href="#m4c1a3e501f" x="119.052194" y="333.882922" style="fill: #ff7f0e; stroke: #ff7f0e"/>
     <use xlink:href="#m4c1a3e501f" x="129.623076" y="327.554868" style="fill: #ff7f0e; stroke: #ff7f0e"/>
     <use xlink:href="#m4c1a3e501f" x="140.193959" y="303.508265" style="fill: #ff7f0e; stroke: #ff7f0e"/>
     <use xlink:href="#m4c1a3e501f" x="150.764842" y="292.117769" style="fill: #ff7f0e; stroke: #ff7f0e"/>
     <use xlink:href="#m4c1a3e501f" x="161.335725" y="285.789715" style="fill: #ff7f0e; stroke: #ff7f0e"/>
     <use xlink:href="#m4c1a3e501f" x="171.906607" y="254.149448" style="fill: #ff7f0e; stroke: #ff7f0e"/>
     <use xlink:href="#m4c1a3e501f" x="182.47749" y="216.181127" style="fill: #ff7f0e; stroke: #ff7f0e"/>
     <use xlink:href="#m4c1a3e501f" x="193.048373" y="190.868913" style="fill: #ff7f0e; stroke: #ff7f0e"/>
     <use xlink:href="#m4c1a3e501f" x="203.619256" y="176.947195" style="fill: #ff7f0e; stroke: #ff7f0e"/>
     <use xlink:href="#m4c1a3e501f" x="214.190138" y="130.119599" style="fill: #ff7f0e; stroke: #ff7f0e"/>
     <use xlink:href="#m4c1a3e501f" x="245.902787" y="130.119599" style="fill: #ff7f0e; stroke: #ff7f0e"/>
     <use xlink:href="#m4c1a3e501f" x="256.473669" y="130.119599" style="fill: #ff7f0e; stroke: #ff7f0e"/>
     <use xlink:href="#m4c1a3e501f" x="267.044552" y="130.119599" style="fill: #ff7f0e; stroke: #ff7f0e"/>
     <use xlink:href="#m4c1a3e501f" x="277.615435" y="130.119599" style="fill: #ff7f0e; stroke: #ff7f0e"/>
     <use xlink:href="#m4c1a3e501f" x="288.186318" y="130.119599" style="fill: #ff7f0e; stroke: #ff7f0e"/>
     <use xlink:href="#m4c1a3e501f" x="309.328083" y="130.119599" style="fill: #ff7f0e; stroke: #ff7f0e"/>
     <use xlink:href="#m4c1a3e501f" x="319.898966" y="130.119599" style="fill: #ff7f0e; stroke: #ff7f0e"/>
     <use xlink:href="#m4c1a3e501f" x="330.469848" y="130.119599" style="fill: #ff7f0e; stroke: #ff7f0e"/>
     <use xlink:href="#m4c1a3e501f" x="341.040731" y="130.119599" style="fill: #ff7f0e; stroke: #ff7f0e"/>
     <use xlink:href="#m4c1a3e501f" x="351.611614" y="130.119599" style="fill: #ff7f0e; stroke: #ff7f0e"/>
     <use xlink:href="#m4c1a3e501f" x="362.182497" y="111.135438" style="fill: #ff7f0e; stroke: #ff7f0e"/>
     <use xlink:href="#m4c1a3e501f" x="372.753379" y="111.135438" style="fill: #ff7f0e; stroke: #ff7f0e"/>
     <use xlink:href="#m4c1a3e501f" x="383.324262" y="111.135438" style="fill: #ff7f0e; stroke: #ff7f0e"/>
     <use xlink:href="#m4c1a3e501f" x="393.895145" y="111.135438" style="fill: #ff7f0e; stroke: #ff7f0e"/>
     <use xlink:href="#m4c1a3e501f" x="404.466028" y="111.135438" style="fill: #ff7f0e; stroke: #ff7f0e"/>
     <use xlink:href="#m4c1a3e501f" x="415.03691" y="79.495171" style="fill: #ff7f0e; stroke: #ff7f0e"/>
     <use xlink:href="#m4c1a3e501f" x="425.607793" y="79.495171" style="fill: #ff7f0e; stroke: #ff7f0e"/>
     <use xlink:href="#m4c1a3e501f" x="436.178676" y="79.495171" style="fill: #ff7f0e; stroke: #ff7f0e"/>
     <use xlink:href="#m4c1a3e501f" x="446.749559" y="79.495171" style="fill: #ff7f0e; stroke: #ff7f0e"/>
     <use xlink:href="#m4c1a3e501f" x="457.320441" y="79.495171" style="fill: #ff7f0e; stroke: #ff7f0e"/>
     <use xlink:href="#m4c1a3e501f" x="467.891324" y="79.495171" style="fill: #ff7f0e; stroke: #ff7f0e"/>
     <use xlink:href="#m4c1a3e501f" x="478.462207" y="79.495171" style="fill: #ff7f0e; stroke: #ff7f0e"/>
     <use xlink:href="#m4c1a3e501f" x="489.03309" y="79.495171" style="fill: #ff7f0e; stroke: #ff7f0e"/>
     <use xlink:href="#m4c1a3e501f" x="499.603972" y="79.495171" style="fill: #ff7f0e; stroke: #ff7f0e"/>
     <use xlink:href="#m4c1a3e501f" x="510.174855" y="79.495171" style="fill: #ff7f0e; stroke: #ff7f0e"/>
     <use xlink:href="#m4c1a3e501f" x="520.745738" y="79.495171" style="fill: #ff7f0e; stroke: #ff7f0e"/>
     <use xlink:href="#m4c1a3e501f" x="531.316621" y="79.495171" style="fill: #ff7f0e; stroke: #ff7f0e"/>
     <use xlink:href="#m4c1a3e501f" x="541.887503" y="79.495171" style="fill: #ff7f0e; stroke: #ff7f0e"/>
     <use xlink:href="#m4c1a3e501f" x="552.458386" y="79.495171" style="fill: #ff7f0e; stroke: #ff7f0e"/>
     <use xlink:href="#m4c1a3e501f" x="563.029269" y="79.495171" style="fill: #ff7f0e; stroke: #ff7f0e"/>
     <use xlink:href="#m4c1a3e501f" x="573.600152" y="79.495171" style="fill: #ff7f0e; stroke: #ff7f0e"/>
     <use xlink:href="#m4c1a3e501f" x="584.171034" y="79.495171" style="fill: #ff7f0e; stroke: #ff7f0e"/>
     <use xlink:href="#m4c1a3e501f" x="594.741917" y="79.495171" style="fill: #ff7f0e; stroke: #ff7f0e"/>
     <use xlink:href="#m4c1a3e501f" x="605.3128" y="79.495171" style="fill: #ff7f0e; stroke: #ff7f0e"/>
     <use xlink:href="#m4c1a3e501f" x="615.883682" y="79.495171" style="fill: #ff7f0e; stroke: #ff7f0e"/>
     <use xlink:href="#m4c1a3e501f" x="626.454565" y="79.495171" style="fill: #ff7f0e; stroke: #ff7f0e"/>
     <use xlink:href="#m4c1a3e501f" x="637.025448" y="79.495171" style="fill: #ff7f0e; stroke: #ff7f0e"/>
     <use xlink:href="#m4c1a3e501f" x="647.596331" y="79.495171" style="fill: #ff7f0e; stroke: #ff7f0e"/>
     <use xlink:href="#m4c1a3e501f" x="658.167213" y="79.495171" style="fill: #ff7f0e; stroke: #ff7f0e"/>
     <use xlink:href="#m4c1a3e501f" x="668.738096" y="79.495171" style="fill: #ff7f0e; stroke: #ff7f0e"/>
     <use xlink:href="#m4c1a3e501f" x="679.308979" y="79.495171" style="fill: #ff7f0e; stroke: #ff7f0e"/>
     <use xlink:href="#m4c1a3e501f" x="689.879862" y="79.495171" style="fill: #ff7f0e; stroke: #ff7f0e"/>
     <use xlink:href="#m4c1a3e501f" x="700.450744" y="79.495171" style="fill: #ff7f0e; stroke: #ff7f0e"/>
     <use xlink:href="#m4c1a3e501f" x="711.021627" y="79.495171" style="fill: #ff7f0e; stroke: #ff7f0e"/>
     <use xlink:href="#m4c1a3e501f" x="721.59251" y="79.495171" style="fill: #ff7f0e; stroke: #ff7f0e"/>
     <use xlink:href="#m4c1a3e501f" x="732.163393" y="79.495171" style="fill: #ff7f0e; stroke: #ff7f0e"/>
     <use xlink:href="#m4c1a3e501f" x="742.734275" y="79.495171" style="fill: #ff7f0e; stroke: #ff7f0e"/>
     <use xlink:href="#m4c1a3e501f" x="753.305158" y="79.495171" style="fill: #ff7f0e; stroke: #ff7f0e"/>
     <use xlink:href="#m4c1a3e501f" x="763.876041" y="79.495171" style="fill: #ff7f0e; stroke: #ff7f0e"/>
     <use xlink:href="#m4c1a3e501f" x="774.446924" y="79.495171" style="fill: #ff7f0e; stroke: #ff7f0e"/>
     <use xlink:href="#m4c1a3e501f" x="785.017806" y="79.495171" style="fill: #ff7f0e; stroke: #ff7f0e"/>
     <use xlink:href="#m4c1a3e501f" x="795.588689" y="79.495171" style="fill: #ff7f0e; stroke: #ff7f0e"/>
     <use xlink:href="#m4c1a3e501f" x="806.159572" y="79.495171" style="fill: #ff7f0e; stroke: #ff7f0e"/>
     <use xlink:href="#m4c1a3e501f" x="816.730455" y="79.495171" style="fill: #ff7f0e; stroke: #ff7f0e"/>
    </g>
   </g>
   <g id="line2d_25">
    <path d="M 87.339545 380.647837 
L 97.910428 355.335623 
L 108.481311 331.289019 
L 119.052194 318.632912 
L 129.623076 293.320698 
L 140.193959 271.805316 
L 150.764842 250.289934 
L 161.335725 212.321613 
L 171.906607 190.806231 
L 182.47749 181.946956 
L 193.048373 154.103521 
L 203.619256 142.713025 
L 214.190138 99.682261 
L 245.902787 99.682261 
L 256.473669 99.682261 
L 267.044552 99.682261 
L 277.615435 99.682261 
L 288.186318 99.682261 
L 309.328083 99.682261 
L 319.898966 99.682261 
L 330.469848 99.682261 
L 341.040731 99.682261 
L 351.611614 99.682261 
L 362.182497 80.6981 
L 372.753379 80.6981 
L 383.324262 80.6981 
L 393.895145 80.6981 
L 404.466028 80.6981 
L 415.03691 80.6981 
L 425.607793 80.6981 
L 436.178676 80.6981 
L 446.749559 80.6981 
L 457.320441 80.6981 
L 467.891324 80.6981 
L 478.462207 80.6981 
L 489.03309 80.6981 
L 499.603972 80.6981 
L 510.174855 80.6981 
L 520.745738 80.6981 
L 531.316621 80.6981 
L 541.887503 80.6981 
L 552.458386 80.6981 
L 563.029269 80.6981 
L 573.600152 80.6981 
L 584.171034 80.6981 
L 594.741917 80.6981 
L 605.3128 80.6981 
L 615.883682 80.6981 
L 626.454565 80.6981 
L 637.025448 80.6981 
L 647.596331 80.6981 
L 658.167213 80.6981 
L 668.738096 80.6981 
L 679.308979 80.6981 
L 689.879862 80.6981 
L 700.450744 80.6981 
L 711.021627 80.6981 
L 721.59251 80.6981 
L 732.163393 80.6981 
L 742.734275 80.6981 
L 753.305158 80.6981 
L 763.876041 80.6981 
L 774.446924 80.6981 
L 785.017806 80.6981 
L 795.588689 80.6981 
L 806.159572 80.6981 
L 816.730455 80.6981 
" clip-path="url(#p6b531d4a43)" style="fill: none; stroke: #2ca02c; stroke-width: 1.5; stroke-linecap: square"/>
    <defs>
     <path id="m5d92c5d508" d="M 0 3.5 
C 0.928211 3.5 1.81853 3.131218 2.474874 2.474874 
C 3.131218 1.81853 3.5 0.928211 3.5 0 
C 3.5 -0.928211 3.131218 -1.81853 2.474874 -2.474874 
C 1.81853 -3.131218 0.928211 -3.5 0 -3.5 
C -0.928211 -3.5 -1.81853 -3.131218 -2.474874 -2.474874 
C -3.131218 -1.81853 -3.5 -0.928211 -3.5 0 
C -3.5 0.928211 -3.131218 1.81853 -2.474874 2.474874 
C -1.81853 3.131218 -0.928211 3.5 0 3.5 
z
" style="stroke: #2ca02c"/>
    </defs>
    <g clip-path="url(#p6b531d4a43)">
     <use xlink:href="#m5d92c5d508" x="87.339545" y="380.647837" style="fill: #2ca02c; stroke: #2ca02c"/>
     <use xlink:href="#m5d92c5d508" x="97.910428" y="355.335623" style="fill: #2ca02c; stroke: #2ca02c"/>
     <use xlink:href="#m5d92c5d508" x="108.481311" y="331.289019" style="fill: #2ca02c; stroke: #2ca02c"/>
     <use xlink:href="#m5d92c5d508" x="119.052194" y="318.632912" style="fill: #2ca02c; stroke: #2ca02c"/>
     <use xlink:href="#m5d92c5d508" x="129.623076" y="293.320698" style="fill: #2ca02c; stroke: #2ca02c"/>
     <use xlink:href="#m5d92c5d508" x="140.193959" y="271.805316" style="fill: #2ca02c; stroke: #2ca02c"/>
     <use xlink:href="#m5d92c5d508" x="150.764842" y="250.289934" style="fill: #2ca02c; stroke: #2ca02c"/>
     <use xlink:href="#m5d92c5d508" x="161.335725" y="212.321613" style="fill: #2ca02c; stroke: #2ca02c"/>
     <use xlink:href="#m5d92c5d508" x="171.906607" y="190.806231" style="fill: #2ca02c; stroke: #2ca02c"/>
     <use xlink:href="#m5d92c5d508" x="182.47749" y="181.946956" style="fill: #2ca02c; stroke: #2ca02c"/>
     <use xlink:href="#m5d92c5d508" x="193.048373" y="154.103521" style="fill: #2ca02c; stroke: #2ca02c"/>
     <use xlink:href="#m5d92c5d508" x="203.619256" y="142.713025" style="fill: #2ca02c; stroke: #2ca02c"/>
     <use xlink:href="#m5d92c5d508" x="214.190138" y="99.682261" style="fill: #2ca02c; stroke: #2ca02c"/>
     <use xlink:href="#m5d92c5d508" x="245.902787" y="99.682261" style="fill: #2ca02c; stroke: #2ca02c"/>
     <use xlink:href="#m5d92c5d508" x="256.473669" y="99.682261" style="fill: #2ca02c; stroke: #2ca02c"/>
     <use xlink:href="#m5d92c5d508" x="267.044552" y="99.682261" style="fill: #2ca02c; stroke: #2ca02c"/>
     <use xlink:href="#m5d92c5d508" x="277.615435" y="99.682261" style="fill: #2ca02c; stroke: #2ca02c"/>
     <use xlink:href="#m5d92c5d508" x="288.186318" y="99.682261" style="fill: #2ca02c; stroke: #2ca02c"/>
     <use xlink:href="#m5d92c5d508" x="309.328083" y="99.682261" style="fill: #2ca02c; stroke: #2ca02c"/>
     <use xlink:href="#m5d92c5d508" x="319.898966" y="99.682261" style="fill: #2ca02c; stroke: #2ca02c"/>
     <use xlink:href="#m5d92c5d508" x="330.469848" y="99.682261" style="fill: #2ca02c; stroke: #2ca02c"/>
     <use xlink:href="#m5d92c5d508" x="341.040731" y="99.682261" style="fill: #2ca02c; stroke: #2ca02c"/>
     <use xlink:href="#m5d92c5d508" x="351.611614" y="99.682261" style="fill: #2ca02c; stroke: #2ca02c"/>
     <use xlink:href="#m5d92c5d508" x="362.182497" y="80.6981" style="fill: #2ca02c; stroke: #2ca02c"/>
     <use xlink:href="#m5d92c5d508" x="372.753379" y="80.6981" style="fill: #2ca02c; stroke: #2ca02c"/>
     <use xlink:href="#m5d92c5d508" x="383.324262" y="80.6981" style="fill: #2ca02c; stroke: #2ca02c"/>
     <use xlink:href="#m5d92c5d508" x="393.895145" y="80.6981" style="fill: #2ca02c; stroke: #2ca02c"/>
     <use xlink:href="#m5d92c5d508" x="404.466028" y="80.6981" style="fill: #2ca02c; stroke: #2ca02c"/>
     <use xlink:href="#m5d92c5d508" x="415.03691" y="80.6981" style="fill: #2ca02c; stroke: #2ca02c"/>
     <use xlink:href="#m5d92c5d508" x="425.607793" y="80.6981" style="fill: #2ca02c; stroke: #2ca02c"/>
     <use xlink:href="#m5d92c5d508" x="436.178676" y="80.6981" style="fill: #2ca02c; stroke: #2ca02c"/>
     <use xlink:href="#m5d92c5d508" x="446.749559" y="80.6981" style="fill: #2ca02c; stroke: #2ca02c"/>
     <use xlink:href="#m5d92c5d508" x="457.320441" y="80.6981" style="fill: #2ca02c; stroke: #2ca02c"/>
     <use xlink:href="#m5d92c5d508" x="467.891324" y="80.6981" style="fill: #2ca02c; stroke: #2ca02c"/>
     <use xlink:href="#m5d92c5d508" x="478.462207" y="80.6981" style="fill: #2ca02c; stroke: #2ca02c"/>
     <use xlink:href="#m5d92c5d508" x="489.03309" y="80.6981" style="fill: #2ca02c; stroke: #2ca02c"/>
     <use xlink:href="#m5d92c5d508" x="499.603972" y="80.6981" style="fill: #2ca02c; stroke: #2ca02c"/>
     <use xlink:href="#m5d92c5d508" x="510.174855" y="80.6981" style="fill: #2ca02c; stroke: #2ca02c"/>
     <use xlink:href="#m5d92c5d508" x="520.745738" y="80.6981" style="fill: #2ca02c; stroke: #2ca02c"/>
     <use xlink:href="#m5d92c5d508" x="531.316621" y="80.6981" style="fill: #2ca02c; stroke: #2ca02c"/>
     <use xlink:href="#m5d92c5d508" x="541.887503" y="80.6981" style="fill: #2ca02c; stroke: #2ca02c"/>
     <use xlink:href="#m5d92c5d508" x="552.458386" y="80.6981" style="fill: #2ca02c; stroke: #2ca02c"/>
     <use xlink:href="#m5d92c5d508" x="563.029269" y="80.6981" style="fill: #2ca02c; stroke: #2ca02c"/>
     <use xlink:href="#m5d92c5d508" x="573.600152" y="80.6981" style="fill: #2ca02c; stroke: #2ca02c"/>
     <use xlink:href="#m5d92c5d508" x="584.171034" y="80.6981" style="fill: #2ca02c; stroke: #2ca02c"/>
     <use xlink:href="#m5d92c5d508" x="594.741917" y="80.6981" style="fill: #2ca02c; stroke: #2ca02c"/>
     <use xlink:href="#m5d92c5d508" x="605.3128" y="80.6981" style="fill: #2ca02c; stroke: #2ca02c"/>
     <use xlink:href="#m5d92c5d508" x="615.883682" y="80.6981" style="fill: #2ca02c; stroke: #2ca02c"/>
     <use xlink:href="#m5d92c5d508" x="626.454565" y="80.6981" style="fill: #2ca02c; stroke: #2ca02c"/>
     <use xlink:href="#m5d92c5d508" x="637.025448" y="80.6981" style="fill: #2ca02c; stroke: #2ca02c"/>
     <use xlink:href="#m5d92c5d508" x="647.596331" y="80.6981" style="fill: #2ca02c; stroke: #2ca02c"/>
     <use xlink:href="#m5d92c5d508" x="658.167213" y="80.6981" style="fill: #2ca02c; stroke: #2ca02c"/>
     <use xlink:href="#m5d92c5d508" x="668.738096" y="80.6981" style="fill: #2ca02c; stroke: #2ca02c"/>
     <use xlink:href="#m5d92c5d508" x="679.308979" y="80.6981" style="fill: #2ca02c; stroke: #2ca02c"/>
     <use xlink:href="#m5d92c5d508" x="689.879862" y="80.6981" style="fill: #2ca02c; stroke: #2ca02c"/>
     <use xlink:href="#m5d92c5d508" x="700.450744" y="80.6981" style="fill: #2ca02c; stroke: #2ca02c"/>
     <use xlink:href="#m5d92c5d508" x="711.021627" y="80.6981" style="fill: #2ca02c; stroke: #2ca02c"/>
     <use xlink:href="#m5d92c5d508" x="721.59251" y="80.6981" style="fill: #2ca02c; stroke: #2ca02c"/>
     <use xlink:href="#m5d92c5d508" x="732.163393" y="80.6981" style="fill: #2ca02c; stroke: #2ca02c"/>
     <use xlink:href="#m5d92c5d508" x="742.734275" y="80.6981" style="fill: #2ca02c; stroke: #2ca02c"/>
     <use xlink:href="#m5d92c5d508" x="753.305158" y="80.6981" style="fill: #2ca02c; stroke: #2ca02c"/>
     <use xlink:href="#m5d92c5d508" x="763.876041" y="80.6981" style="fill: #2ca02c; stroke: #2ca02c"/>
     <use xlink:href="#m5d92c5d508" x="774.446924" y="80.6981" style="fill: #2ca02c; stroke: #2ca02c"/>
     <use xlink:href="#m5d92c5d508" x="785.017806" y="80.6981" style="fill: #2ca02c; stroke: #2ca02c"/>
     <use xlink:href="#m5d92c5d508" x="795.588689" y="80.6981" style="fill: #2ca02c; stroke: #2ca02c"/>
     <use xlink:href="#m5d92c5d508" x="806.159572" y="80.6981" style="fill: #2ca02c; stroke: #2ca02c"/>
     <use xlink:href="#m5d92c5d508" x="816.730455" y="80.6981" style="fill: #2ca02c; stroke: #2ca02c"/>
    </g>
   </g>
   <g id="line2d_26">
    <path d="M 87.339545 380.67972 
L 97.910428 349.039452 
L 108.481311 317.399184 
L 119.052194 292.08697 
L 129.623076 279.430863 
L 140.193959 238.931321 
L 150.764842 214.884718 
L 161.335725 202.228611 
L 171.906607 180.713229 
L 182.47749 169.322732 
L 193.048373 135.151243 
L 203.619256 121.229526 
L 214.190138 81.995594 
L 245.902787 81.995594 
L 256.473669 81.995594 
L 267.044552 81.995594 
L 277.615435 81.995594 
L 288.186318 81.995594 
L 309.328083 81.995594 
L 319.898966 81.995594 
L 330.469848 81.995594 
L 341.040731 81.995594 
L 351.611614 81.995594 
L 362.182497 63.011433 
L 372.753379 63.011433 
L 383.324262 63.011433 
L 393.895145 63.011433 
L 404.466028 63.011433 
L 415.03691 44.027273 
L 425.607793 44.027273 
L 436.178676 44.027273 
L 446.749559 44.027273 
L 457.320441 44.027273 
L 467.891324 44.027273 
L 478.462207 44.027273 
L 489.03309 44.027273 
L 499.603972 44.027273 
L 510.174855 44.027273 
L 520.745738 44.027273 
L 531.316621 44.027273 
L 541.887503 44.027273 
L 552.458386 44.027273 
L 563.029269 44.027273 
L 573.600152 44.027273 
L 584.171034 44.027273 
L 594.741917 44.027273 
L 605.3128 44.027273 
L 615.883682 44.027273 
L 626.454565 44.027273 
L 637.025448 44.027273 
L 647.596331 44.027273 
L 658.167213 44.027273 
L 668.738096 44.027273 
L 679.308979 44.027273 
L 689.879862 44.027273 
L 700.450744 44.027273 
L 711.021627 44.027273 
L 721.59251 44.027273 
L 732.163393 44.027273 
L 742.734275 44.027273 
L 753.305158 44.027273 
L 763.876041 44.027273 
L 774.446924 44.027273 
L 785.017806 44.027273 
L 795.588689 44.027273 
L 806.159572 44.027273 
L 816.730455 44.027273 
" clip-path="url(#p6b531d4a43)" style="fill: none; stroke: #d62728; stroke-width: 1.5; stroke-linecap: square"/>
    <defs>
     <path id="m31f7bb903b" d="M 0 3.5 
C 0.928211 3.5 1.81853 3.131218 2.474874 2.474874 
C 3.131218 1.81853 3.5 0.928211 3.5 0 
C 3.5 -0.928211 3.131218 -1.81853 2.474874 -2.474874 
C 1.81853 -3.131218 0.928211 -3.5 0 -3.5 
C -0.928211 -3.5 -1.81853 -3.131218 -2.474874 -2.474874 
C -3.131218 -1.81853 -3.5 -0.928211 -3.5 0 
C -3.5 0.928211 -3.131218 1.81853 -2.474874 2.474874 
C -1.81853 3.131218 -0.928211 3.5 0 3.5 
z
" style="stroke: #d62728"/>
    </defs>
    <g clip-path="url(#p6b531d4a43)">
     <use xlink:href="#m31f7bb903b" x="87.339545" y="380.67972" style="fill: #d62728; stroke: #d62728"/>
     <use xlink:href="#m31f7bb903b" x="97.910428" y="349.039452" style="fill: #d62728; stroke: #d62728"/>
     <use xlink:href="#m31f7bb903b" x="108.481311" y="317.399184" style="fill: #d62728; stroke: #d62728"/>
     <use xlink:href="#m31f7bb903b" x="119.052194" y="292.08697" style="fill: #d62728; stroke: #d62728"/>
     <use xlink:href="#m31f7bb903b" x="129.623076" y="279.430863" style="fill: #d62728; stroke: #d62728"/>
     <use xlink:href="#m31f7bb903b" x="140.193959" y="238.931321" style="fill: #d62728; stroke: #d62728"/>
     <use xlink:href="#m31f7bb903b" x="150.764842" y="214.884718" style="fill: #d62728; stroke: #d62728"/>
     <use xlink:href="#m31f7bb903b" x="161.335725" y="202.228611" style="fill: #d62728; stroke: #d62728"/>
     <use xlink:href="#m31f7bb903b" x="171.906607" y="180.713229" style="fill: #d62728; stroke: #d62728"/>
     <use xlink:href="#m31f7bb903b" x="182.47749" y="169.322732" style="fill: #d62728; stroke: #d62728"/>
     <use xlink:href="#m31f7bb903b" x="193.048373" y="135.151243" style="fill: #d62728; stroke: #d62728"/>
     <use xlink:href="#m31f7bb903b" x="203.619256" y="121.229526" style="fill: #d62728; stroke: #d62728"/>
     <use xlink:href="#m31f7bb903b" x="214.190138" y="81.995594" style="fill: #d62728; stroke: #d62728"/>
     <use xlink:href="#m31f7bb903b" x="245.902787" y="81.995594" style="fill: #d62728; stroke: #d62728"/>
     <use xlink:href="#m31f7bb903b" x="256.473669" y="81.995594" style="fill: #d62728; stroke: #d62728"/>
     <use xlink:href="#m31f7bb903b" x="267.044552" y="81.995594" style="fill: #d62728; stroke: #d62728"/>
     <use xlink:href="#m31f7bb903b" x="277.615435" y="81.995594" style="fill: #d62728; stroke: #d62728"/>
     <use xlink:href="#m31f7bb903b" x="288.186318" y="81.995594" style="fill: #d62728; stroke: #d62728"/>
     <use xlink:href="#m31f7bb903b" x="309.328083" y="81.995594" style="fill: #d62728; stroke: #d62728"/>
     <use xlink:href="#m31f7bb903b" x="319.898966" y="81.995594" style="fill: #d62728; stroke: #d62728"/>
     <use xlink:href="#m31f7bb903b" x="330.469848" y="81.995594" style="fill: #d62728; stroke: #d62728"/>
     <use xlink:href="#m31f7bb903b" x="341.040731" y="81.995594" style="fill: #d62728; stroke: #d62728"/>
     <use xlink:href="#m31f7bb903b" x="351.611614" y="81.995594" style="fill: #d62728; stroke: #d62728"/>
     <use xlink:href="#m31f7bb903b" x="362.182497" y="63.011433" style="fill: #d62728; stroke: #d62728"/>
     <use xlink:href="#m31f7bb903b" x="372.753379" y="63.011433" style="fill: #d62728; stroke: #d62728"/>
     <use xlink:href="#m31f7bb903b" x="383.324262" y="63.011433" style="fill: #d62728; stroke: #d62728"/>
     <use xlink:href="#m31f7bb903b" x="393.895145" y="63.011433" style="fill: #d62728; stroke: #d62728"/>
     <use xlink:href="#m31f7bb903b" x="404.466028" y="63.011433" style="fill: #d62728; stroke: #d62728"/>
     <use xlink:href="#m31f7bb903b" x="415.03691" y="44.027273" style="fill: #d62728; stroke: #d62728"/>
     <use xlink:href="#m31f7bb903b" x="425.607793" y="44.027273" style="fill: #d62728; stroke: #d62728"/>
     <use xlink:href="#m31f7bb903b" x="436.178676" y="44.027273" style="fill: #d62728; stroke: #d62728"/>
     <use xlink:href="#m31f7bb903b" x="446.749559" y="44.027273" style="fill: #d62728; stroke: #d62728"/>
     <use xlink:href="#m31f7bb903b" x="457.320441" y="44.027273" style="fill: #d62728; stroke: #d62728"/>
     <use xlink:href="#m31f7bb903b" x="467.891324" y="44.027273" style="fill: #d62728; stroke: #d62728"/>
     <use xlink:href="#m31f7bb903b" x="478.462207" y="44.027273" style="fill: #d62728; stroke: #d62728"/>
     <use xlink:href="#m31f7bb903b" x="489.03309" y="44.027273" style="fill: #d62728; stroke: #d62728"/>
     <use xlink:href="#m31f7bb903b" x="499.603972" y="44.027273" style="fill: #d62728; stroke: #d62728"/>
     <use xlink:href="#m31f7bb903b" x="510.174855" y="44.027273" style="fill: #d62728; stroke: #d62728"/>
     <use xlink:href="#m31f7bb903b" x="520.745738" y="44.027273" style="fill: #d62728; stroke: #d62728"/>
     <use xlink:href="#m31f7bb903b" x="531.316621" y="44.027273" style="fill: #d62728; stroke: #d62728"/>
     <use xlink:href="#m31f7bb903b" x="541.887503" y="44.027273" style="fill: #d62728; stroke: #d62728"/>
     <use xlink:href="#m31f7bb903b" x="552.458386" y="44.027273" style="fill: #d62728; stroke: #d62728"/>
     <use xlink:href="#m31f7bb903b" x="563.029269" y="44.027273" style="fill: #d62728; stroke: #d62728"/>
     <use xlink:href="#m31f7bb903b" x="573.600152" y="44.027273" style="fill: #d62728; stroke: #d62728"/>
     <use xlink:href="#m31f7bb903b" x="584.171034" y="44.027273" style="fill: #d62728; stroke: #d62728"/>
     <use xlink:href="#m31f7bb903b" x="594.741917" y="44.027273" style="fill: #d62728; stroke: #d62728"/>
     <use xlink:href="#m31f7bb903b" x="605.3128" y="44.027273" style="fill: #d62728; stroke: #d62728"/>
     <use xlink:href="#m31f7bb903b" x="615.883682" y="44.027273" style="fill: #d62728; stroke: #d62728"/>
     <use xlink:href="#m31f7bb903b" x="626.454565" y="44.027273" style="fill: #d62728; stroke: #d62728"/>
     <use xlink:href="#m31f7bb903b" x="637.025448" y="44.027273" style="fill: #d62728; stroke: #d62728"/>
     <use xlink:href="#m31f7bb903b" x="647.596331" y="44.027273" style="fill: #d62728; stroke: #d62728"/>
     <use xlink:href="#m31f7bb903b" x="658.167213" y="44.027273" style="fill: #d62728; stroke: #d62728"/>
     <use xlink:href="#m31f7bb903b" x="668.738096" y="44.027273" style="fill: #d62728; stroke: #d62728"/>
     <use xlink:href="#m31f7bb903b" x="679.308979" y="44.027273" style="fill: #d62728; stroke: #d62728"/>
     <use xlink:href="#m31f7bb903b" x="689.879862" y="44.027273" style="fill: #d62728; stroke: #d62728"/>
     <use xlink:href="#m31f7bb903b" x="700.450744" y="44.027273" style="fill: #d62728; stroke: #d62728"/>
     <use xlink:href="#m31f7bb903b" x="711.021627" y="44.027273" style="fill: #d62728; stroke: #d62728"/>
     <use xlink:href="#m31f7bb903b" x="721.59251" y="44.027273" style="fill: #d62728; stroke: #d62728"/>
     <use xlink:href="#m31f7bb903b" x="732.163393" y="44.027273" style="fill: #d62728; stroke: #d62728"/>
     <use xlink:href="#m31f7bb903b" x="742.734275" y="44.027273" style="fill: #d62728; stroke: #d62728"/>
     <use xlink:href="#m31f7bb903b" x="753.305158" y="44.027273" style="fill: #d62728; stroke: #d62728"/>
     <use xlink:href="#m31f7bb903b" x="763.876041" y="44.027273" style="fill: #d62728; stroke: #d62728"/>
     <use xlink:href="#m31f7bb903b" x="774.446924" y="44.027273" style="fill: #d62728; stroke: #d62728"/>
     <use xlink:href="#m31f7bb903b" x="785.017806" y="44.027273" style="fill: #d62728; stroke: #d62728"/>
     <use xlink:href="#m31f7bb903b" x="795.588689" y="44.027273" style="fill: #d62728; stroke: #d62728"/>
     <use xlink:href="#m31f7bb903b" x="806.159572" y="44.027273" style="fill: #d62728; stroke: #d62728"/>
     <use xlink:href="#m31f7bb903b" x="816.730455" y="44.027273" style="fill: #d62728; stroke: #d62728"/>
    </g>
   </g>
   <g id="line2d_27">
    <path d="M 87.339545 386.972727 
L 97.910428 361.660513 
L 108.481311 336.348299 
L 119.052194 323.692192 
L 129.623076 304.708032 
L 140.193959 283.19265 
L 150.764842 264.208489 
L 161.335725 251.552382 
L 171.906607 207.256008 
L 182.47749 200.927954 
L 193.048373 166.756465 
L 203.619256 155.365969 
L 214.190138 95.882266 
L 245.902787 95.882266 
L 256.473669 95.882266 
L 267.044552 95.882266 
L 277.615435 95.882266 
L 288.186318 95.882266 
L 309.328083 95.882266 
L 319.898966 95.882266 
L 330.469848 95.882266 
L 341.040731 95.882266 
L 351.611614 95.882266 
L 362.182497 95.882266 
L 372.753379 95.882266 
L 383.324262 95.882266 
L 393.895145 95.882266 
L 404.466028 95.882266 
L 415.03691 64.241998 
L 425.607793 64.241998 
L 436.178676 64.241998 
L 446.749559 64.241998 
L 457.320441 64.241998 
L 467.891324 64.241998 
L 478.462207 64.241998 
L 489.03309 64.241998 
L 499.603972 64.241998 
L 510.174855 64.241998 
L 520.745738 64.241998 
L 531.316621 64.241998 
L 541.887503 64.241998 
L 552.458386 64.241998 
L 563.029269 64.241998 
L 573.600152 64.241998 
L 584.171034 64.241998 
L 594.741917 64.241998 
L 605.3128 64.241998 
L 615.883682 64.241998 
L 626.454565 64.241998 
L 637.025448 64.241998 
L 647.596331 64.241998 
L 658.167213 64.241998 
L 668.738096 64.241998 
L 679.308979 64.241998 
L 689.879862 64.241998 
L 700.450744 64.241998 
L 711.021627 64.241998 
L 721.59251 64.241998 
L 732.163393 64.241998 
L 742.734275 64.241998 
L 753.305158 64.241998 
L 763.876041 64.241998 
L 774.446924 64.241998 
L 785.017806 64.241998 
L 795.588689 64.241998 
L 806.159572 64.241998 
L 816.730455 64.241998 
" clip-path="url(#p6b531d4a43)" style="fill: none; stroke: #9467bd; stroke-width: 1.5; stroke-linecap: square"/>
    <defs>
     <path id="mbc0831918c" d="M 0 3.5 
C 0.928211 3.5 1.81853 3.131218 2.474874 2.474874 
C 3.131218 1.81853 3.5 0.928211 3.5 0 
C 3.5 -0.928211 3.131218 -1.81853 2.474874 -2.474874 
C 1.81853 -3.131218 0.928211 -3.5 0 -3.5 
C -0.928211 -3.5 -1.81853 -3.131218 -2.474874 -2.474874 
C -3.131218 -1.81853 -3.5 -0.928211 -3.5 0 
C -3.5 0.928211 -3.131218 1.81853 -2.474874 2.474874 
C -1.81853 3.131218 -0.928211 3.5 0 3.5 
z
" style="stroke: #9467bd"/>
    </defs>
    <g clip-path="url(#p6b531d4a43)">
     <use xlink:href="#mbc0831918c" x="87.339545" y="386.972727" style="fill: #9467bd; stroke: #9467bd"/>
     <use xlink:href="#mbc0831918c" x="97.910428" y="361.660513" style="fill: #9467bd; stroke: #9467bd"/>
     <use xlink:href="#mbc0831918c" x="108.481311" y="336.348299" style="fill: #9467bd; stroke: #9467bd"/>
     <use xlink:href="#mbc0831918c" x="119.052194" y="323.692192" style="fill: #9467bd; stroke: #9467bd"/>
     <use xlink:href="#mbc0831918c" x="129.623076" y="304.708032" style="fill: #9467bd; stroke: #9467bd"/>
     <use xlink:href="#mbc0831918c" x="140.193959" y="283.19265" style="fill: #9467bd; stroke: #9467bd"/>
     <use xlink:href="#mbc0831918c" x="150.764842" y="264.208489" style="fill: #9467bd; stroke: #9467bd"/>
     <use xlink:href="#mbc0831918c" x="161.335725" y="251.552382" style="fill: #9467bd; stroke: #9467bd"/>
     <use xlink:href="#mbc0831918c" x="171.906607" y="207.256008" style="fill: #9467bd; stroke: #9467bd"/>
     <use xlink:href="#mbc0831918c" x="182.47749" y="200.927954" style="fill: #9467bd; stroke: #9467bd"/>
     <use xlink:href="#mbc0831918c" x="193.048373" y="166.756465" style="fill: #9467bd; stroke: #9467bd"/>
     <use xlink:href="#mbc0831918c" x="203.619256" y="155.365969" style="fill: #9467bd; stroke: #9467bd"/>
     <use xlink:href="#mbc0831918c" x="214.190138" y="95.882266" style="fill: #9467bd; stroke: #9467bd"/>
     <use xlink:href="#mbc0831918c" x="245.902787" y="95.882266" style="fill: #9467bd; stroke: #9467bd"/>
     <use xlink:href="#mbc0831918c" x="256.473669" y="95.882266" style="fill: #9467bd; stroke: #9467bd"/>
     <use xlink:href="#mbc0831918c" x="267.044552" y="95.882266" style="fill: #9467bd; stroke: #9467bd"/>
     <use xlink:href="#mbc0831918c" x="277.615435" y="95.882266" style="fill: #9467bd; stroke: #9467bd"/>
     <use xlink:href="#mbc0831918c" x="288.186318" y="95.882266" style="fill: #9467bd; stroke: #9467bd"/>
     <use xlink:href="#mbc0831918c" x="309.328083" y="95.882266" style="fill: #9467bd; stroke: #9467bd"/>
     <use xlink:href="#mbc0831918c" x="319.898966" y="95.882266" style="fill: #9467bd; stroke: #9467bd"/>
     <use xlink:href="#mbc0831918c" x="330.469848" y="95.882266" style="fill: #9467bd; stroke: #9467bd"/>
     <use xlink:href="#mbc0831918c" x="341.040731" y="95.882266" style="fill: #9467bd; stroke: #9467bd"/>
     <use xlink:href="#mbc0831918c" x="351.611614" y="95.882266" style="fill: #9467bd; stroke: #9467bd"/>
     <use xlink:href="#mbc0831918c" x="362.182497" y="95.882266" style="fill: #9467bd; stroke: #9467bd"/>
     <use xlink:href="#mbc0831918c" x="372.753379" y="95.882266" style="fill: #9467bd; stroke: #9467bd"/>
     <use xlink:href="#mbc0831918c" x="383.324262" y="95.882266" style="fill: #9467bd; stroke: #9467bd"/>
     <use xlink:href="#mbc0831918c" x="393.895145" y="95.882266" style="fill: #9467bd; stroke: #9467bd"/>
     <use xlink:href="#mbc0831918c" x="404.466028" y="95.882266" style="fill: #9467bd; stroke: #9467bd"/>
     <use xlink:href="#mbc0831918c" x="415.03691" y="64.241998" style="fill: #9467bd; stroke: #9467bd"/>
     <use xlink:href="#mbc0831918c" x="425.607793" y="64.241998" style="fill: #9467bd; stroke: #9467bd"/>
     <use xlink:href="#mbc0831918c" x="436.178676" y="64.241998" style="fill: #9467bd; stroke: #9467bd"/>
     <use xlink:href="#mbc0831918c" x="446.749559" y="64.241998" style="fill: #9467bd; stroke: #9467bd"/>
     <use xlink:href="#mbc0831918c" x="457.320441" y="64.241998" style="fill: #9467bd; stroke: #9467bd"/>
     <use xlink:href="#mbc0831918c" x="467.891324" y="64.241998" style="fill: #9467bd; stroke: #9467bd"/>
     <use xlink:href="#mbc0831918c" x="478.462207" y="64.241998" style="fill: #9467bd; stroke: #9467bd"/>
     <use xlink:href="#mbc0831918c" x="489.03309" y="64.241998" style="fill: #9467bd; stroke: #9467bd"/>
     <use xlink:href="#mbc0831918c" x="499.603972" y="64.241998" style="fill: #9467bd; stroke: #9467bd"/>
     <use xlink:href="#mbc0831918c" x="510.174855" y="64.241998" style="fill: #9467bd; stroke: #9467bd"/>
     <use xlink:href="#mbc0831918c" x="520.745738" y="64.241998" style="fill: #9467bd; stroke: #9467bd"/>
     <use xlink:href="#mbc0831918c" x="531.316621" y="64.241998" style="fill: #9467bd; stroke: #9467bd"/>
     <use xlink:href="#mbc0831918c" x="541.887503" y="64.241998" style="fill: #9467bd; stroke: #9467bd"/>
     <use xlink:href="#mbc0831918c" x="552.458386" y="64.241998" style="fill: #9467bd; stroke: #9467bd"/>
     <use xlink:href="#mbc0831918c" x="563.029269" y="64.241998" style="fill: #9467bd; stroke: #9467bd"/>
     <use xlink:href="#mbc0831918c" x="573.600152" y="64.241998" style="fill: #9467bd; stroke: #9467bd"/>
     <use xlink:href="#mbc0831918c" x="584.171034" y="64.241998" style="fill: #9467bd; stroke: #9467bd"/>
     <use xlink:href="#mbc0831918c" x="594.741917" y="64.241998" style="fill: #9467bd; stroke: #9467bd"/>
     <use xlink:href="#mbc0831918c" x="605.3128" y="64.241998" style="fill: #9467bd; stroke: #9467bd"/>
     <use xlink:href="#mbc0831918c" x="615.883682" y="64.241998" style="fill: #9467bd; stroke: #9467bd"/>
     <use xlink:href="#mbc0831918c" x="626.454565" y="64.241998" style="fill: #9467bd; stroke: #9467bd"/>
     <use xlink:href="#mbc0831918c" x="637.025448" y="64.241998" style="fill: #9467bd; stroke: #9467bd"/>
     <use xlink:href="#mbc0831918c" x="647.596331" y="64.241998" style="fill: #9467bd; stroke: #9467bd"/>
     <use xlink:href="#mbc0831918c" x="658.167213" y="64.241998" style="fill: #9467bd; stroke: #9467bd"/>
     <use xlink:href="#mbc0831918c" x="668.738096" y="64.241998" style="fill: #9467bd; stroke: #9467bd"/>
     <use xlink:href="#mbc0831918c" x="679.308979" y="64.241998" style="fill: #9467bd; stroke: #9467bd"/>
     <use xlink:href="#mbc0831918c" x="689.879862" y="64.241998" style="fill: #9467bd; stroke: #9467bd"/>
     <use xlink:href="#mbc0831918c" x="700.450744" y="64.241998" style="fill: #9467bd; stroke: #9467bd"/>
     <use xlink:href="#mbc0831918c" x="711.021627" y="64.241998" style="fill: #9467bd; stroke: #9467bd"/>
     <use xlink:href="#mbc0831918c" x="721.59251" y="64.241998" style="fill: #9467bd; stroke: #9467bd"/>
     <use xlink:href="#mbc0831918c" x="732.163393" y="64.241998" style="fill: #9467bd; stroke: #9467bd"/>
     <use xlink:href="#mbc0831918c" x="742.734275" y="64.241998" style="fill: #9467bd; stroke: #9467bd"/>
     <use xlink:href="#mbc0831918c" x="753.305158" y="64.241998" style="fill: #9467bd; stroke: #9467bd"/>
     <use xlink:href="#mbc0831918c" x="763.876041" y="64.241998" style="fill: #9467bd; stroke: #9467bd"/>
     <use xlink:href="#mbc0831918c" x="774.446924" y="64.241998" style="fill: #9467bd; stroke: #9467bd"/>
     <use xlink:href="#mbc0831918c" x="785.017806" y="64.241998" style="fill: #9467bd; stroke: #9467bd"/>
     <use xlink:href="#mbc0831918c" x="795.588689" y="64.241998" style="fill: #9467bd; stroke: #9467bd"/>
     <use xlink:href="#mbc0831918c" x="806.159572" y="64.241998" style="fill: #9467bd; stroke: #9467bd"/>
     <use xlink:href="#mbc0831918c" x="816.730455" y="64.241998" style="fill: #9467bd; stroke: #9467bd"/>
    </g>
   </g>
   <g id="line2d_28">
    <path d="M 87.339545 380.538599 
L 97.910428 365.35127 
L 108.481311 353.960774 
L 119.052194 328.64856 
L 129.623076 309.664399 
L 140.193959 304.601956 
L 150.764842 295.742682 
L 161.335725 280.555353 
L 171.906607 236.258979 
L 182.47749 204.618711 
L 193.048373 166.65039 
L 203.619256 142.603787 
L 214.190138 93.244969 
L 245.902787 93.244969 
L 256.473669 93.244969 
L 267.044552 93.244969 
L 277.615435 93.244969 
L 288.186318 93.244969 
L 309.328083 93.244969 
L 319.898966 93.244969 
L 330.469848 93.244969 
L 341.040731 93.244969 
L 351.611614 93.244969 
L 362.182497 93.244969 
L 372.753379 93.244969 
L 383.324262 93.244969 
L 393.895145 93.244969 
L 404.466028 93.244969 
L 415.03691 61.604702 
L 425.607793 61.604702 
L 436.178676 61.604702 
L 446.749559 61.604702 
L 457.320441 61.604702 
L 467.891324 61.604702 
L 478.462207 61.604702 
L 489.03309 61.604702 
L 499.603972 61.604702 
L 510.174855 61.604702 
L 520.745738 61.604702 
L 531.316621 61.604702 
L 541.887503 61.604702 
L 552.458386 61.604702 
L 563.029269 61.604702 
L 573.600152 61.604702 
L 584.171034 61.604702 
L 594.741917 61.604702 
L 605.3128 61.604702 
L 615.883682 61.604702 
L 626.454565 61.604702 
L 637.025448 61.604702 
L 647.596331 61.604702 
L 658.167213 61.604702 
L 668.738096 61.604702 
L 679.308979 61.604702 
L 689.879862 61.604702 
L 700.450744 61.604702 
L 711.021627 61.604702 
L 721.59251 61.604702 
L 732.163393 61.604702 
L 742.734275 61.604702 
L 753.305158 61.604702 
L 763.876041 61.604702 
L 774.446924 61.604702 
L 785.017806 61.604702 
L 795.588689 61.604702 
L 806.159572 61.604702 
L 816.730455 61.604702 
" clip-path="url(#p6b531d4a43)" style="fill: none; stroke: #8c564b; stroke-width: 1.5; stroke-linecap: square"/>
    <defs>
     <path id="mfcec300824" d="M 0 3.5 
C 0.928211 3.5 1.81853 3.131218 2.474874 2.474874 
C 3.131218 1.81853 3.5 0.928211 3.5 0 
C 3.5 -0.928211 3.131218 -1.81853 2.474874 -2.474874 
C 1.81853 -3.131218 0.928211 -3.5 0 -3.5 
C -0.928211 -3.5 -1.81853 -3.131218 -2.474874 -2.474874 
C -3.131218 -1.81853 -3.5 -0.928211 -3.5 0 
C -3.5 0.928211 -3.131218 1.81853 -2.474874 2.474874 
C -1.81853 3.131218 -0.928211 3.5 0 3.5 
z
" style="stroke: #8c564b"/>
    </defs>
    <g clip-path="url(#p6b531d4a43)">
     <use xlink:href="#mfcec300824" x="87.339545" y="380.538599" style="fill: #8c564b; stroke: #8c564b"/>
     <use xlink:href="#mfcec300824" x="97.910428" y="365.35127" style="fill: #8c564b; stroke: #8c564b"/>
     <use xlink:href="#mfcec300824" x="108.481311" y="353.960774" style="fill: #8c564b; stroke: #8c564b"/>
     <use xlink:href="#mfcec300824" x="119.052194" y="328.64856" style="fill: #8c564b; stroke: #8c564b"/>
     <use xlink:href="#mfcec300824" x="129.623076" y="309.664399" style="fill: #8c564b; stroke: #8c564b"/>
     <use xlink:href="#mfcec300824" x="140.193959" y="304.601956" style="fill: #8c564b; stroke: #8c564b"/>
     <use xlink:href="#mfcec300824" x="150.764842" y="295.742682" style="fill: #8c564b; stroke: #8c564b"/>
     <use xlink:href="#mfcec300824" x="161.335725" y="280.555353" style="fill: #8c564b; stroke: #8c564b"/>
     <use xlink:href="#mfcec300824" x="171.906607" y="236.258979" style="fill: #8c564b; stroke: #8c564b"/>
     <use xlink:href="#mfcec300824" x="182.47749" y="204.618711" style="fill: #8c564b; stroke: #8c564b"/>
     <use xlink:href="#mfcec300824" x="193.048373" y="166.65039" style="fill: #8c564b; stroke: #8c564b"/>
     <use xlink:href="#mfcec300824" x="203.619256" y="142.603787" style="fill: #8c564b; stroke: #8c564b"/>
     <use xlink:href="#mfcec300824" x="214.190138" y="93.244969" style="fill: #8c564b; stroke: #8c564b"/>
     <use xlink:href="#mfcec300824" x="245.902787" y="93.244969" style="fill: #8c564b; stroke: #8c564b"/>
     <use xlink:href="#mfcec300824" x="256.473669" y="93.244969" style="fill: #8c564b; stroke: #8c564b"/>
     <use xlink:href="#mfcec300824" x="267.044552" y="93.244969" style="fill: #8c564b; stroke: #8c564b"/>
     <use xlink:href="#mfcec300824" x="277.615435" y="93.244969" style="fill: #8c564b; stroke: #8c564b"/>
     <use xlink:href="#mfcec300824" x="288.186318" y="93.244969" style="fill: #8c564b; stroke: #8c564b"/>
     <use xlink:href="#mfcec300824" x="309.328083" y="93.244969" style="fill: #8c564b; stroke: #8c564b"/>
     <use xlink:href="#mfcec300824" x="319.898966" y="93.244969" style="fill: #8c564b; stroke: #8c564b"/>
     <use xlink:href="#mfcec300824" x="330.469848" y="93.244969" style="fill: #8c564b; stroke: #8c564b"/>
     <use xlink:href="#mfcec300824" x="341.040731" y="93.244969" style="fill: #8c564b; stroke: #8c564b"/>
     <use xlink:href="#mfcec300824" x="351.611614" y="93.244969" style="fill: #8c564b; stroke: #8c564b"/>
     <use xlink:href="#mfcec300824" x="362.182497" y="93.244969" style="fill: #8c564b; stroke: #8c564b"/>
     <use xlink:href="#mfcec300824" x="372.753379" y="93.244969" style="fill: #8c564b; stroke: #8c564b"/>
     <use xlink:href="#mfcec300824" x="383.324262" y="93.244969" style="fill: #8c564b; stroke: #8c564b"/>
     <use xlink:href="#mfcec300824" x="393.895145" y="93.244969" style="fill: #8c564b; stroke: #8c564b"/>
     <use xlink:href="#mfcec300824" x="404.466028" y="93.244969" style="fill: #8c564b; stroke: #8c564b"/>
     <use xlink:href="#mfcec300824" x="415.03691" y="61.604702" style="fill: #8c564b; stroke: #8c564b"/>
     <use xlink:href="#mfcec300824" x="425.607793" y="61.604702" style="fill: #8c564b; stroke: #8c564b"/>
     <use xlink:href="#mfcec300824" x="436.178676" y="61.604702" style="fill: #8c564b; stroke: #8c564b"/>
     <use xlink:href="#mfcec300824" x="446.749559" y="61.604702" style="fill: #8c564b; stroke: #8c564b"/>
     <use xlink:href="#mfcec300824" x="457.320441" y="61.604702" style="fill: #8c564b; stroke: #8c564b"/>
     <use xlink:href="#mfcec300824" x="467.891324" y="61.604702" style="fill: #8c564b; stroke: #8c564b"/>
     <use xlink:href="#mfcec300824" x="478.462207" y="61.604702" style="fill: #8c564b; stroke: #8c564b"/>
     <use xlink:href="#mfcec300824" x="489.03309" y="61.604702" style="fill: #8c564b; stroke: #8c564b"/>
     <use xlink:href="#mfcec300824" x="499.603972" y="61.604702" style="fill: #8c564b; stroke: #8c564b"/>
     <use xlink:href="#mfcec300824" x="510.174855" y="61.604702" style="fill: #8c564b; stroke: #8c564b"/>
     <use xlink:href="#mfcec300824" x="520.745738" y="61.604702" style="fill: #8c564b; stroke: #8c564b"/>
     <use xlink:href="#mfcec300824" x="531.316621" y="61.604702" style="fill: #8c564b; stroke: #8c564b"/>
     <use xlink:href="#mfcec300824" x="541.887503" y="61.604702" style="fill: #8c564b; stroke: #8c564b"/>
     <use xlink:href="#mfcec300824" x="552.458386" y="61.604702" style="fill: #8c564b; stroke: #8c564b"/>
     <use xlink:href="#mfcec300824" x="563.029269" y="61.604702" style="fill: #8c564b; stroke: #8c564b"/>
     <use xlink:href="#mfcec300824" x="573.600152" y="61.604702" style="fill: #8c564b; stroke: #8c564b"/>
     <use xlink:href="#mfcec300824" x="584.171034" y="61.604702" style="fill: #8c564b; stroke: #8c564b"/>
     <use xlink:href="#mfcec300824" x="594.741917" y="61.604702" style="fill: #8c564b; stroke: #8c564b"/>
     <use xlink:href="#mfcec300824" x="605.3128" y="61.604702" style="fill: #8c564b; stroke: #8c564b"/>
     <use xlink:href="#mfcec300824" x="615.883682" y="61.604702" style="fill: #8c564b; stroke: #8c564b"/>
     <use xlink:href="#mfcec300824" x="626.454565" y="61.604702" style="fill: #8c564b; stroke: #8c564b"/>
     <use xlink:href="#mfcec300824" x="637.025448" y="61.604702" style="fill: #8c564b; stroke: #8c564b"/>
     <use xlink:href="#mfcec300824" x="647.596331" y="61.604702" style="fill: #8c564b; stroke: #8c564b"/>
     <use xlink:href="#mfcec300824" x="658.167213" y="61.604702" style="fill: #8c564b; stroke: #8c564b"/>
     <use xlink:href="#mfcec300824" x="668.738096" y="61.604702" style="fill: #8c564b; stroke: #8c564b"/>
     <use xlink:href="#mfcec300824" x="679.308979" y="61.604702" style="fill: #8c564b; stroke: #8c564b"/>
     <use xlink:href="#mfcec300824" x="689.879862" y="61.604702" style="fill: #8c564b; stroke: #8c564b"/>
     <use xlink:href="#mfcec300824" x="700.450744" y="61.604702" style="fill: #8c564b; stroke: #8c564b"/>
     <use xlink:href="#mfcec300824" x="711.021627" y="61.604702" style="fill: #8c564b; stroke: #8c564b"/>
     <use xlink:href="#mfcec300824" x="721.59251" y="61.604702" style="fill: #8c564b; stroke: #8c564b"/>
     <use xlink:href="#mfcec300824" x="732.163393" y="61.604702" style="fill: #8c564b; stroke: #8c564b"/>
     <use xlink:href="#mfcec300824" x="742.734275" y="61.604702" style="fill: #8c564b; stroke: #8c564b"/>
     <use xlink:href="#mfcec300824" x="753.305158" y="61.604702" style="fill: #8c564b; stroke: #8c564b"/>
     <use xlink:href="#mfcec300824" x="763.876041" y="61.604702" style="fill: #8c564b; stroke: #8c564b"/>
     <use xlink:href="#mfcec300824" x="774.446924" y="61.604702" style="fill: #8c564b; stroke: #8c564b"/>
     <use xlink:href="#mfcec300824" x="785.017806" y="61.604702" style="fill: #8c564b; stroke: #8c564b"/>
     <use xlink:href="#mfcec300824" x="795.588689" y="61.604702" style="fill: #8c564b; stroke: #8c564b"/>
     <use xlink:href="#mfcec300824" x="806.159572" y="61.604702" style="fill: #8c564b; stroke: #8c564b"/>
     <use xlink:href="#mfcec300824" x="816.730455" y="61.604702" style="fill: #8c564b; stroke: #8c564b"/>
    </g>
   </g>
   <g id="patch_3">
    <path d="M 50.87 404.12 
L 50.87 26.88 
" style="fill: none; stroke: #000000; stroke-width: 0.8; stroke-linejoin: miter; stroke-linecap: square"/>
   </g>
   <g id="patch_4">
    <path d="M 853.2 404.12 
L 853.2 26.88 
" style="fill: none; stroke: #000000; stroke-width: 0.8; stroke-linejoin: miter; stroke-linecap: square"/>
   </g>
   <g id="patch_5">
    <path d="M 50.87 404.12 
L 853.2 404.12 
" style="fill: none; stroke: #000000; stroke-width: 0.8; stroke-linejoin: miter; stroke-linecap: square"/>
   </g>
   <g id="patch_6">
    <path d="M 50.87 26.88 
L 853.2 26.88 
" style="fill: none; stroke: #000000; stroke-width: 0.8; stroke-linejoin: miter; stroke-linecap: square"/>
   </g>
   <g id="text_13">
    <!-- Standings -->
    <g transform="translate(422.18125 20.88) scale(0.12 -0.12)">
     <defs>
      <path id="DejaVuSans-74" d="M 1172 4494 
L 1172 3500 
L 2356 3500 
L 2356 3053 
L 1172 3053 
L 1172 1153 
Q 1172 725 1289 603 
Q 1406 481 1766 481 
L 2356 481 
L 2356 0 
L 1766 0 
Q 1100 0 847 248 
Q 594 497 594 1153 
L 594 3053 
L 172 3053 
L 172 3500 
L 594 3500 
L 594 4494 
L 1172 4494 
z
" transform="scale(0.015625)"/>
      <path id="DejaVuSans-61" d="M 2194 1759 
Q 1497 1759 1228 1600 
Q 959 1441 959 1056 
Q 959 750 1161 570 
Q 1363 391 1709 391 
Q 2188 391 2477 730 
Q 2766 1069 2766 1631 
L 2766 1759 
L 2194 1759 
z
M 3341 1997 
L 3341 0 
L 2766 0 
L 2766 531 
Q 2569 213 2275 61 
Q 1981 -91 1556 -91 
Q 1019 -91 701 211 
Q 384 513 384 1019 
Q 384 1609 779 1909 
Q 1175 2209 1959 2209 
L 2766 2209 
L 2766 2266 
Q 2766 2663 2505 2880 
Q 2244 3097 1772 3097 
Q 1472 3097 1187 3025 
Q 903 2953 641 2809 
L 641 3341 
Q 956 3463 1253 3523 
Q 1550 3584 1831 3584 
Q 2591 3584 2966 3190 
Q 3341 2797 3341 1997 
z
" transform="scale(0.015625)"/>
      <path id="DejaVuSans-6e" d="M 3513 2113 
L 3513 0 
L 2938 0 
L 2938 2094 
Q 2938 2591 2744 2837 
Q 2550 3084 2163 3084 
Q 1697 3084 1428 2787 
Q 1159 2491 1159 1978 
L 1159 0 
L 581 0 
L 581 3500 
L 1159 3500 
L 1159 2956 
Q 1366 3272 1645 3428 
Q 1925 3584 2291 3584 
Q 2894 3584 3203 3211 
Q 3513 2838 3513 2113 
z
" transform="scale(0.015625)"/>
      <path id="DejaVuSans-64" d="M 2906 2969 
L 2906 4863 
L 3481 4863 
L 3481 0 
L 2906 0 
L 2906 525 
Q 2725 213 2448 61 
Q 2172 -91 1784 -91 
Q 1150 -91 751 415 
Q 353 922 353 1747 
Q 353 2572 751 3078 
Q 1150 3584 1784 3584 
Q 2172 3584 2448 3432 
Q 2725 3281 2906 2969 
z
M 947 1747 
Q 947 1113 1208 752 
Q 1469 391 1925 391 
Q 2381 391 2643 752 
Q 2906 1113 2906 1747 
Q 2906 2381 2643 2742 
Q 2381 3103 1925 3103 
Q 1469 3103 1208 2742 
Q 947 2381 947 1747 
z
" transform="scale(0.015625)"/>
      <path id="DejaVuSans-69" d="M 603 3500 
L 1178 3500 
L 1178 0 
L 603 0 
L 603 3500 
z
M 603 4863 
L 1178 4863 
L 1178 4134 
L 603 4134 
L 603 4863 
z
" transform="scale(0.015625)"/>
      <path id="DejaVuSans-67" d="M 2906 1791 
Q 2906 2416 2648 2759 
Q 2391 3103 1925 3103 
Q 1463 3103 1205 2759 
Q 947 2416 947 1791 
Q 947 1169 1205 825 
Q 1463 481 1925 481 
Q 2391 481 2648 825 
Q 2906 1169 2906 1791 
z
M 3481 434 
Q 3481 -459 3084 -895 
Q 2688 -1331 1869 -1331 
Q 1566 -1331 1297 -1286 
Q 1028 -1241 775 -1147 
L 775 -588 
Q 1028 -725 1275 -790 
Q 1522 -856 1778 -856 
Q 2344 -856 2625 -561 
Q 2906 -266 2906 331 
L 2906 616 
Q 2728 306 2450 153 
Q 2172 0 1784 0 
Q 1141 0 747 490 
Q 353 981 353 1791 
Q 353 2603 747 3093 
Q 1141 3584 1784 3584 
Q 2172 3584 2450 3431 
Q 2728 3278 2906 2969 
L 2906 3500 
L 3481 3500 
L 3481 434 
z
" transform="scale(0.015625)"/>
      <path id="DejaVuSans-73" d="M 2834 3397 
L 2834 2853 
Q 2591 2978 2328 3040 
Q 2066 3103 1784 3103 
Q 1356 3103 1142 2972 
Q 928 2841 928 2578 
Q 928 2378 1081 2264 
Q 1234 2150 1697 2047 
L 1894 2003 
Q 2506 1872 2764 1633 
Q 3022 1394 3022 966 
Q 3022 478 2636 193 
Q 2250 -91 1575 -91 
Q 1294 -91 989 -36 
Q 684 19 347 128 
L 347 722 
Q 666 556 975 473 
Q 1284 391 1588 391 
Q 1994 391 2212 530 
Q 2431 669 2431 922 
Q 2431 1156 2273 1281 
Q 2116 1406 1581 1522 
L 1381 1569 
Q 847 1681 609 1914 
Q 372 2147 372 2553 
Q 372 3047 722 3315 
Q 1072 3584 1716 3584 
Q 2034 3584 2315 3537 
Q 2597 3491 2834 3397 
z
" transform="scale(0.015625)"/>
     </defs>
     <use xlink:href="#DejaVuSans-53"/>
     <use xlink:href="#DejaVuSans-74" x="63.476562"/>
     <use xlink:href="#DejaVuSans-61" x="102.685547"/>
     <use xlink:href="#DejaVuSans-6e" x="163.964844"/>
     <use xlink:href="#DejaVuSans-64" x="227.34375"/>
     <use xlink:href="#DejaVuSans-69" x="290.820312"/>
     <use xlink:href="#DejaVuSans-6e" x="318.603516"/>
     <use xlink:href="#DejaVuSans-67" x="381.982422"/>
     <use xlink:href="#DejaVuSans-73" x="445.458984"/>
    </g>
   </g>
   <g id="legend_1">
    <g id="patch_7">
     <path d="M 57.87 122.94875 
L 143.37 122.94875 
Q 145.37 122.94875 145.37 120.94875 
L 145.37 33.88 
Q 145.37 31.88 143.37 31.88 
L 57.87 31.88 
Q 55.87 31.88 55.87 33.88 
L 55.87 120.94875 
Q 55.87 122.94875 57.87 122.94875 
z
" style="fill: #ffffff; opacity: 0.8; stroke: #cccccc; stroke-linejoin: miter"/>
    </g>
    <g id="line2d_29">
     <path d="M 59.87 39.978438 
L 69.87 39.978438 
L 79.87 39.978438 
" style="fill: none; stroke: #1f77b4; stroke-width: 1.5; stroke-linecap: square"/>
     <g>
      <use xlink:href="#m905da0495f" x="69.87" y="39.978438" style="fill: #1f77b4; stroke: #1f77b4"/>
     </g>
    </g>
    <g id="text_14">
     <!-- Matias BN -->
     <g transform="translate(87.87 43.478438) scale(0.1 -0.1)">
      <defs>
       <path id="DejaVuSans-4d" d="M 628 4666 
L 1569 4666 
L 2759 1491 
L 3956 4666 
L 4897 4666 
L 4897 0 
L 4281 0 
L 4281 4097 
L 3078 897 
L 2444 897 
L 1241 4097 
L 1241 0 
L 628 0 
L 628 4666 
z
" transform="scale(0.015625)"/>
       <path id="DejaVuSans-20" transform="scale(0.015625)"/>
       <path id="DejaVuSans-42" d="M 1259 2228 
L 1259 519 
L 2272 519 
Q 2781 519 3026 730 
Q 3272 941 3272 1375 
Q 3272 1813 3026 2020 
Q 2781 2228 2272 2228 
L 1259 2228 
z
M 1259 4147 
L 1259 2741 
L 2194 2741 
Q 2656 2741 2882 2914 
Q 3109 3088 3109 3444 
Q 3109 3797 2882 3972 
Q 2656 4147 2194 4147 
L 1259 4147 
z
M 628 4666 
L 2241 4666 
Q 2963 4666 3353 4366 
Q 3744 4066 3744 3513 
Q 3744 3084 3544 2831 
Q 3344 2578 2956 2516 
Q 3422 2416 3680 2098 
Q 3938 1781 3938 1306 
Q 3938 681 3513 340 
Q 3088 0 2303 0 
L 628 0 
L 628 4666 
z
" transform="scale(0.015625)"/>
       <path id="DejaVuSans-4e" d="M 628 4666 
L 1478 4666 
L 3547 763 
L 3547 4666 
L 4159 4666 
L 4159 0 
L 3309 0 
L 1241 3903 
L 1241 0 
L 628 0 
L 628 4666 
z
" transform="scale(0.015625)"/>
      </defs>
      <use xlink:href="#DejaVuSans-4d"/>
      <use xlink:href="#DejaVuSans-61" x="86.279297"/>
      <use xlink:href="#DejaVuSans-74" x="147.558594"/>
      <use xlink:href="#DejaVuSans-69" x="186.767578"/>
      <use xlink:href="#DejaVuSans-61" x="214.550781"/>
      <use xlink:href="#DejaVuSans-73" x="275.830078"/>
      <use xlink:href="#DejaVuSans-20" x="327.929688"/>
      <use xlink:href="#DejaVuSans-42" x="359.716797"/>
      <use xlink:href="#DejaVuSans-4e" x="428.320312"/>
     </g>
    </g>
    <g id="line2d_30">
     <path d="M 59.87 54.656563 
L 69.87 54.656563 
L 79.87 54.656563 
" style="fill: none; stroke: #ff7f0e; stroke-width: 1.5; stroke-linecap: square"/>
     <g>
      <use xlink:href="#m4c1a3e501f" x="69.87" y="54.656563" style="fill: #ff7f0e; stroke: #ff7f0e"/>
     </g>
    </g>
    <g id="text_15">
     <!-- Mattias Ra -->
     <g transform="translate(87.87 58.156563) scale(0.1 -0.1)">
      <defs>
       <path id="DejaVuSans-52" d="M 2841 2188 
Q 3044 2119 3236 1894 
Q 3428 1669 3622 1275 
L 4263 0 
L 3584 0 
L 2988 1197 
Q 2756 1666 2539 1819 
Q 2322 1972 1947 1972 
L 1259 1972 
L 1259 0 
L 628 0 
L 628 4666 
L 2053 4666 
Q 2853 4666 3247 4331 
Q 3641 3997 3641 3322 
Q 3641 2881 3436 2590 
Q 3231 2300 2841 2188 
z
M 1259 4147 
L 1259 2491 
L 2053 2491 
Q 2509 2491 2742 2702 
Q 2975 2913 2975 3322 
Q 2975 3731 2742 3939 
Q 2509 4147 2053 4147 
L 1259 4147 
z
" transform="scale(0.015625)"/>
      </defs>
      <use xlink:href="#DejaVuSans-4d"/>
      <use xlink:href="#DejaVuSans-61" x="86.279297"/>
      <use xlink:href="#DejaVuSans-74" x="147.558594"/>
      <use xlink:href="#DejaVuSans-74" x="186.767578"/>
      <use xlink:href="#DejaVuSans-69" x="225.976562"/>
      <use xlink:href="#DejaVuSans-61" x="253.759766"/>
      <use xlink:href="#DejaVuSans-73" x="315.039062"/>
      <use xlink:href="#DejaVuSans-20" x="367.138672"/>
      <use xlink:href="#DejaVuSans-52" x="398.925781"/>
      <use xlink:href="#DejaVuSans-61" x="466.158203"/>
     </g>
    </g>
    <g id="line2d_31">
     <path d="M 59.87 69.334688 
L 69.87 69.334688 
L 79.87 69.334688 
" style="fill: none; stroke: #2ca02c; stroke-width: 1.5; stroke-linecap: square"/>
     <g>
      <use xlink:href="#m5d92c5d508" x="69.87" y="69.334688" style="fill: #2ca02c; stroke: #2ca02c"/>
     </g>
    </g>
    <g id="text_16">
     <!-- Simon Bo -->
     <g transform="translate(87.87 72.834688) scale(0.1 -0.1)">
      <defs>
       <path id="DejaVuSans-6d" d="M 3328 2828 
Q 3544 3216 3844 3400 
Q 4144 3584 4550 3584 
Q 5097 3584 5394 3201 
Q 5691 2819 5691 2113 
L 5691 0 
L 5113 0 
L 5113 2094 
Q 5113 2597 4934 2840 
Q 4756 3084 4391 3084 
Q 3944 3084 3684 2787 
Q 3425 2491 3425 1978 
L 3425 0 
L 2847 0 
L 2847 2094 
Q 2847 2600 2669 2842 
Q 2491 3084 2119 3084 
Q 1678 3084 1418 2786 
Q 1159 2488 1159 1978 
L 1159 0 
L 581 0 
L 581 3500 
L 1159 3500 
L 1159 2956 
Q 1356 3278 1631 3431 
Q 1906 3584 2284 3584 
Q 2666 3584 2933 3390 
Q 3200 3197 3328 2828 
z
" transform="scale(0.015625)"/>
      </defs>
      <use xlink:href="#DejaVuSans-53"/>
      <use xlink:href="#DejaVuSans-69" x="63.476562"/>
      <use xlink:href="#DejaVuSans-6d" x="91.259766"/>
      <use xlink:href="#DejaVuSans-6f" x="188.671875"/>
      <use xlink:href="#DejaVuSans-6e" x="249.853516"/>
      <use xlink:href="#DejaVuSans-20" x="313.232422"/>
      <use xlink:href="#DejaVuSans-42" x="345.019531"/>
      <use xlink:href="#DejaVuSans-6f" x="413.623047"/>
     </g>
    </g>
    <g id="line2d_32">
     <path d="M 59.87 84.012813 
L 69.87 84.012813 
L 79.87 84.012813 
" style="fill: none; stroke: #d62728; stroke-width: 1.5; stroke-linecap: square"/>
     <g>
      <use xlink:href="#m31f7bb903b" x="69.87" y="84.012813" style="fill: #d62728; stroke: #d62728"/>
     </g>
    </g>
    <g id="text_17">
     <!-- Kristian Se -->
     <g transform="translate(87.87 87.512813) scale(0.1 -0.1)">
      <defs>
       <path id="DejaVuSans-4b" d="M 628 4666 
L 1259 4666 
L 1259 2694 
L 3353 4666 
L 4166 4666 
L 1850 2491 
L 4331 0 
L 3500 0 
L 1259 2247 
L 1259 0 
L 628 0 
L 628 4666 
z
" transform="scale(0.015625)"/>
      </defs>
      <use xlink:href="#DejaVuSans-4b"/>
      <use xlink:href="#DejaVuSans-72" x="65.576172"/>
      <use xlink:href="#DejaVuSans-69" x="106.689453"/>
      <use xlink:href="#DejaVuSans-73" x="134.472656"/>
      <use xlink:href="#DejaVuSans-74" x="186.572266"/>
      <use xlink:href="#DejaVuSans-69" x="225.78125"/>
      <use xlink:href="#DejaVuSans-61" x="253.564453"/>
      <use xlink:href="#DejaVuSans-6e" x="314.84375"/>
      <use xlink:href="#DejaVuSans-20" x="378.222656"/>
      <use xlink:href="#DejaVuSans-53" x="410.009766"/>
      <use xlink:href="#DejaVuSans-65" x="473.486328"/>
     </g>
    </g>
    <g id="line2d_33">
     <path d="M 59.87 98.690938 
L 69.87 98.690938 
L 79.87 98.690938 
" style="fill: none; stroke: #9467bd; stroke-width: 1.5; stroke-linecap: square"/>
     <g>
      <use xlink:href="#mbc0831918c" x="69.87" y="98.690938" style="fill: #9467bd; stroke: #9467bd"/>
     </g>
    </g>
    <g id="text_18">
     <!-- Jesper M -->
     <g transform="translate(87.87 102.190938) scale(0.1 -0.1)">
      <defs>
       <path id="DejaVuSans-4a" d="M 628 4666 
L 1259 4666 
L 1259 325 
Q 1259 -519 939 -900 
Q 619 -1281 -91 -1281 
L -331 -1281 
L -331 -750 
L -134 -750 
Q 284 -750 456 -515 
Q 628 -281 628 325 
L 628 4666 
z
" transform="scale(0.015625)"/>
       <path id="DejaVuSans-70" d="M 1159 525 
L 1159 -1331 
L 581 -1331 
L 581 3500 
L 1159 3500 
L 1159 2969 
Q 1341 3281 1617 3432 
Q 1894 3584 2278 3584 
Q 2916 3584 3314 3078 
Q 3713 2572 3713 1747 
Q 3713 922 3314 415 
Q 2916 -91 2278 -91 
Q 1894 -91 1617 61 
Q 1341 213 1159 525 
z
M 3116 1747 
Q 3116 2381 2855 2742 
Q 2594 3103 2138 3103 
Q 1681 3103 1420 2742 
Q 1159 2381 1159 1747 
Q 1159 1113 1420 752 
Q 1681 391 2138 391 
Q 2594 391 2855 752 
Q 3116 1113 3116 1747 
z
" transform="scale(0.015625)"/>
       <path id="DejaVuSans-f8" d="M 2828 2503 
L 1306 653 
Q 1434 522 1595 459 
Q 1756 397 1959 397 
Q 2419 397 2687 759 
Q 2956 1122 2956 1747 
Q 2956 1994 2925 2176 
Q 2894 2359 2828 2503 
z
M 2606 2841 
Q 2475 2969 2314 3033 
Q 2153 3097 1959 3097 
Q 1488 3097 1223 2730 
Q 959 2363 959 1703 
Q 959 1478 989 1306 
Q 1019 1134 1081 991 
L 2606 2841 
z
M 691 519 
Q 522 759 437 1067 
Q 353 1375 353 1747 
Q 353 2609 779 3096 
Q 1206 3584 1959 3584 
Q 2250 3584 2498 3504 
Q 2747 3425 2956 3263 
L 3391 3788 
L 3688 3541 
L 3231 2981 
Q 3397 2741 3481 2431 
Q 3566 2122 3566 1747 
Q 3566 888 3137 398 
Q 2709 -91 1959 -91 
Q 1659 -91 1407 -9 
Q 1156 72 959 231 
L 525 -294 
L 225 -50 
L 691 519 
z
" transform="scale(0.015625)"/>
      </defs>
      <use xlink:href="#DejaVuSans-4a"/>
      <use xlink:href="#DejaVuSans-65" x="29.492188"/>
      <use xlink:href="#DejaVuSans-73" x="91.015625"/>
      <use xlink:href="#DejaVuSans-70" x="143.115234"/>
      <use xlink:href="#DejaVuSans-65" x="206.591797"/>
      <use xlink:href="#DejaVuSans-72" x="268.115234"/>
      <use xlink:href="#DejaVuSans-20" x="309.228516"/>
      <use xlink:href="#DejaVuSans-4d" x="341.015625"/>
      <use xlink:href="#DejaVuSans-f8" x="427.294922"/>
     </g>
    </g>
    <g id="line2d_34">
     <path d="M 59.87 113.369063 
L 69.87 113.369063 
L 79.87 113.369063 
" style="fill: none; stroke: #8c564b; stroke-width: 1.5; stroke-linecap: square"/>
     <g>
      <use xlink:href="#mfcec300824" x="69.87" y="113.369063" style="fill: #8c564b; stroke: #8c564b"/>
     </g>
    </g>
    <g id="text_19">
     <!-- Ayman Ka -->
     <g transform="translate(87.87 116.869063) scale(0.1 -0.1)">
      <defs>
       <path id="DejaVuSans-41" d="M 2188 4044 
L 1331 1722 
L 3047 1722 
L 2188 4044 
z
M 1831 4666 
L 2547 4666 
L 4325 0 
L 3669 0 
L 3244 1197 
L 1141 1197 
L 716 0 
L 50 0 
L 1831 4666 
z
" transform="scale(0.015625)"/>
       <path id="DejaVuSans-79" d="M 2059 -325 
Q 1816 -950 1584 -1140 
Q 1353 -1331 966 -1331 
L 506 -1331 
L 506 -850 
L 844 -850 
Q 1081 -850 1212 -737 
Q 1344 -625 1503 -206 
L 1606 56 
L 191 3500 
L 800 3500 
L 1894 763 
L 2988 3500 
L 3597 3500 
L 2059 -325 
z
" transform="scale(0.015625)"/>
      </defs>
      <use xlink:href="#DejaVuSans-41"/>
      <use xlink:href="#DejaVuSans-79" x="61.658203"/>
      <use xlink:href="#DejaVuSans-6d" x="120.837891"/>
      <use xlink:href="#DejaVuSans-61" x="218.25"/>
      <use xlink:href="#DejaVuSans-6e" x="279.529297"/>
      <use xlink:href="#DejaVuSans-20" x="342.908203"/>
      <use xlink:href="#DejaVuSans-4b" x="374.695312"/>
      <use xlink:href="#DejaVuSans-61" x="438.521484"/>
     </g>
    </g>
   </g>
  </g>
 </g>
 <defs>
  <clipPath id="p6b531d4a43">
   <rect x="50.87" y="26.88" width="802.33" height="377.24"/>
  </clipPath>
 </defs>
</svg>
