<?xml version="1.0" encoding="utf-8" standalone="no"?>
<!DOCTYPE svg PUBLIC "-//W3C//DTD SVG 1.1//EN"
  "http://www.w3.org/Graphics/SVG/1.1/DTD/svg11.dtd">
<svg xmlns:xlink="http://www.w3.org/1999/xlink" width="864pt" height="432pt" viewBox="0 0 864 432" xmlns="http://www.w3.org/2000/svg" version="1.1">
 <metadata>
  <rdf:RDF xmlns:dc="http://purl.org/dc/elements/1.1/" xmlns:cc="http://creativecommons.org/ns#" xmlns:rdf="http://www.w3.org/1999/02/22-rdf-syntax-ns#">
   <cc:Work>
    <dc:type rdf:resource="http://purl.org/dc/dcmitype/StillImage"/>
    <dc:date>2024-07-31T15:30:20.420594</dc:date>
    <dc:format>image/svg+xml</dc:format>
    <dc:creator>
     <cc:Agent>
      <dc:title>Matplotlib v3.9.1, https://matplotlib.org/</dc:title>
     </cc:Agent>
    </dc:creator>
   </cc:Work>
  </rdf:RDF>
 </metadata>
 <defs>
  <style type="text/css">*{stroke-linejoin: round; stroke-linecap: butt}</style>
 </defs>
 <g id="figure_1">
  <g id="patch_1">
   <path d="M 0 432 
L 864 432 
L 864 0 
L 0 0 
z
" style="fill: #ffffff"/>
  </g>
  <g id="axes_1">
   <g id="patch_2">
    <path d="M 50.87 404.12 
L 841.88472 404.12 
L 841.88472 26.88 
L 50.87 26.88 
z
" style="fill: #ffffff"/>
   </g>
   <g id="matplotlib.axis_1">
    <g id="xtick_1">
     <g id="line2d_1">
      <path d="M 102.125306 404.12 
L 102.125306 26.88 
" clip-path="url(#p3b1776b90e)" style="fill: none; stroke-dasharray: 2.96,1.28; stroke-dashoffset: 0; stroke: #b0b0b0; stroke-width: 0.8"/>
     </g>
     <g id="line2d_2">
      <defs>
       <path id="m112e80341f" d="M 0 0 
L 0 3.5 
" style="stroke: #000000; stroke-width: 0.8"/>
      </defs>
      <g>
       <use xlink:href="#m112e80341f" x="102.125306" y="404.12" style="stroke: #000000; stroke-width: 0.8"/>
      </g>
     </g>
     <g id="text_1">
      <!-- 2024-06-15 -->
      <g transform="translate(73.067493 418.718437) scale(0.1 -0.1)">
       <defs>
        <path id="DejaVuSans-32" d="M 1228 531 
L 3431 531 
L 3431 0 
L 469 0 
L 469 531 
Q 828 903 1448 1529 
Q 2069 2156 2228 2338 
Q 2531 2678 2651 2914 
Q 2772 3150 2772 3378 
Q 2772 3750 2511 3984 
Q 2250 4219 1831 4219 
Q 1534 4219 1204 4116 
Q 875 4013 500 3803 
L 500 4441 
Q 881 4594 1212 4672 
Q 1544 4750 1819 4750 
Q 2544 4750 2975 4387 
Q 3406 4025 3406 3419 
Q 3406 3131 3298 2873 
Q 3191 2616 2906 2266 
Q 2828 2175 2409 1742 
Q 1991 1309 1228 531 
z
" transform="scale(0.015625)"/>
        <path id="DejaVuSans-30" d="M 2034 4250 
Q 1547 4250 1301 3770 
Q 1056 3291 1056 2328 
Q 1056 1369 1301 889 
Q 1547 409 2034 409 
Q 2525 409 2770 889 
Q 3016 1369 3016 2328 
Q 3016 3291 2770 3770 
Q 2525 4250 2034 4250 
z
M 2034 4750 
Q 2819 4750 3233 4129 
Q 3647 3509 3647 2328 
Q 3647 1150 3233 529 
Q 2819 -91 2034 -91 
Q 1250 -91 836 529 
Q 422 1150 422 2328 
Q 422 3509 836 4129 
Q 1250 4750 2034 4750 
z
" transform="scale(0.015625)"/>
        <path id="DejaVuSans-34" d="M 2419 4116 
L 825 1625 
L 2419 1625 
L 2419 4116 
z
M 2253 4666 
L 3047 4666 
L 3047 1625 
L 3713 1625 
L 3713 1100 
L 3047 1100 
L 3047 0 
L 2419 0 
L 2419 1100 
L 313 1100 
L 313 1709 
L 2253 4666 
z
" transform="scale(0.015625)"/>
        <path id="DejaVuSans-2d" d="M 313 2009 
L 1997 2009 
L 1997 1497 
L 313 1497 
L 313 2009 
z
" transform="scale(0.015625)"/>
        <path id="DejaVuSans-36" d="M 2113 2584 
Q 1688 2584 1439 2293 
Q 1191 2003 1191 1497 
Q 1191 994 1439 701 
Q 1688 409 2113 409 
Q 2538 409 2786 701 
Q 3034 994 3034 1497 
Q 3034 2003 2786 2293 
Q 2538 2584 2113 2584 
z
M 3366 4563 
L 3366 3988 
Q 3128 4100 2886 4159 
Q 2644 4219 2406 4219 
Q 1781 4219 1451 3797 
Q 1122 3375 1075 2522 
Q 1259 2794 1537 2939 
Q 1816 3084 2150 3084 
Q 2853 3084 3261 2657 
Q 3669 2231 3669 1497 
Q 3669 778 3244 343 
Q 2819 -91 2113 -91 
Q 1303 -91 875 529 
Q 447 1150 447 2328 
Q 447 3434 972 4092 
Q 1497 4750 2381 4750 
Q 2619 4750 2861 4703 
Q 3103 4656 3366 4563 
z
" transform="scale(0.015625)"/>
        <path id="DejaVuSans-31" d="M 794 531 
L 1825 531 
L 1825 4091 
L 703 3866 
L 703 4441 
L 1819 4666 
L 2450 4666 
L 2450 531 
L 3481 531 
L 3481 0 
L 794 0 
L 794 531 
z
" transform="scale(0.015625)"/>
        <path id="DejaVuSans-35" d="M 691 4666 
L 3169 4666 
L 3169 4134 
L 1269 4134 
L 1269 2991 
Q 1406 3038 1543 3061 
Q 1681 3084 1819 3084 
Q 2600 3084 3056 2656 
Q 3513 2228 3513 1497 
Q 3513 744 3044 326 
Q 2575 -91 1722 -91 
Q 1428 -91 1123 -41 
Q 819 9 494 109 
L 494 744 
Q 775 591 1075 516 
Q 1375 441 1709 441 
Q 2250 441 2565 725 
Q 2881 1009 2881 1497 
Q 2881 1984 2565 2268 
Q 2250 2553 1709 2553 
Q 1456 2553 1204 2497 
Q 953 2441 691 2322 
L 691 4666 
z
" transform="scale(0.015625)"/>
       </defs>
       <use xlink:href="#DejaVuSans-32"/>
       <use xlink:href="#DejaVuSans-30" x="63.623047"/>
       <use xlink:href="#DejaVuSans-32" x="127.246094"/>
       <use xlink:href="#DejaVuSans-34" x="190.869141"/>
       <use xlink:href="#DejaVuSans-2d" x="254.492188"/>
       <use xlink:href="#DejaVuSans-30" x="290.576172"/>
       <use xlink:href="#DejaVuSans-36" x="354.199219"/>
       <use xlink:href="#DejaVuSans-2d" x="417.822266"/>
       <use xlink:href="#DejaVuSans-31" x="453.90625"/>
       <use xlink:href="#DejaVuSans-35" x="517.529297"/>
      </g>
     </g>
    </g>
    <g id="xtick_2">
     <g id="line2d_3">
      <path d="M 209.225945 404.12 
L 209.225945 26.88 
" clip-path="url(#p3b1776b90e)" style="fill: none; stroke-dasharray: 2.96,1.28; stroke-dashoffset: 0; stroke: #b0b0b0; stroke-width: 0.8"/>
     </g>
     <g id="line2d_4">
      <g>
       <use xlink:href="#m112e80341f" x="209.225945" y="404.12" style="stroke: #000000; stroke-width: 0.8"/>
      </g>
     </g>
     <g id="text_2">
      <!-- 2024-06-22 -->
      <g transform="translate(180.168132 418.718437) scale(0.1 -0.1)">
       <use xlink:href="#DejaVuSans-32"/>
       <use xlink:href="#DejaVuSans-30" x="63.623047"/>
       <use xlink:href="#DejaVuSans-32" x="127.246094"/>
       <use xlink:href="#DejaVuSans-34" x="190.869141"/>
       <use xlink:href="#DejaVuSans-2d" x="254.492188"/>
       <use xlink:href="#DejaVuSans-30" x="290.576172"/>
       <use xlink:href="#DejaVuSans-36" x="354.199219"/>
       <use xlink:href="#DejaVuSans-2d" x="417.822266"/>
       <use xlink:href="#DejaVuSans-32" x="453.90625"/>
       <use xlink:href="#DejaVuSans-32" x="517.529297"/>
      </g>
     </g>
    </g>
    <g id="xtick_3">
     <g id="line2d_5">
      <path d="M 346.926766 404.12 
L 346.926766 26.88 
" clip-path="url(#p3b1776b90e)" style="fill: none; stroke-dasharray: 2.96,1.28; stroke-dashoffset: 0; stroke: #b0b0b0; stroke-width: 0.8"/>
     </g>
     <g id="line2d_6">
      <g>
       <use xlink:href="#m112e80341f" x="346.926766" y="404.12" style="stroke: #000000; stroke-width: 0.8"/>
      </g>
     </g>
     <g id="text_3">
      <!-- 2024-07-01 -->
      <g transform="translate(317.868954 418.718437) scale(0.1 -0.1)">
       <defs>
        <path id="DejaVuSans-37" d="M 525 4666 
L 3525 4666 
L 3525 4397 
L 1831 0 
L 1172 0 
L 2766 4134 
L 525 4134 
L 525 4666 
z
" transform="scale(0.015625)"/>
       </defs>
       <use xlink:href="#DejaVuSans-32"/>
       <use xlink:href="#DejaVuSans-30" x="63.623047"/>
       <use xlink:href="#DejaVuSans-32" x="127.246094"/>
       <use xlink:href="#DejaVuSans-34" x="190.869141"/>
       <use xlink:href="#DejaVuSans-2d" x="254.492188"/>
       <use xlink:href="#DejaVuSans-30" x="290.576172"/>
       <use xlink:href="#DejaVuSans-37" x="354.199219"/>
       <use xlink:href="#DejaVuSans-2d" x="417.822266"/>
       <use xlink:href="#DejaVuSans-30" x="453.90625"/>
       <use xlink:href="#DejaVuSans-31" x="517.529297"/>
      </g>
     </g>
    </g>
    <g id="xtick_4">
     <g id="line2d_7">
      <path d="M 454.027405 404.12 
L 454.027405 26.88 
" clip-path="url(#p3b1776b90e)" style="fill: none; stroke-dasharray: 2.96,1.28; stroke-dashoffset: 0; stroke: #b0b0b0; stroke-width: 0.8"/>
     </g>
     <g id="line2d_8">
      <g>
       <use xlink:href="#m112e80341f" x="454.027405" y="404.12" style="stroke: #000000; stroke-width: 0.8"/>
      </g>
     </g>
     <g id="text_4">
      <!-- 2024-07-08 -->
      <g transform="translate(424.969593 418.718437) scale(0.1 -0.1)">
       <defs>
        <path id="DejaVuSans-38" d="M 2034 2216 
Q 1584 2216 1326 1975 
Q 1069 1734 1069 1313 
Q 1069 891 1326 650 
Q 1584 409 2034 409 
Q 2484 409 2743 651 
Q 3003 894 3003 1313 
Q 3003 1734 2745 1975 
Q 2488 2216 2034 2216 
z
M 1403 2484 
Q 997 2584 770 2862 
Q 544 3141 544 3541 
Q 544 4100 942 4425 
Q 1341 4750 2034 4750 
Q 2731 4750 3128 4425 
Q 3525 4100 3525 3541 
Q 3525 3141 3298 2862 
Q 3072 2584 2669 2484 
Q 3125 2378 3379 2068 
Q 3634 1759 3634 1313 
Q 3634 634 3220 271 
Q 2806 -91 2034 -91 
Q 1263 -91 848 271 
Q 434 634 434 1313 
Q 434 1759 690 2068 
Q 947 2378 1403 2484 
z
M 1172 3481 
Q 1172 3119 1398 2916 
Q 1625 2713 2034 2713 
Q 2441 2713 2670 2916 
Q 2900 3119 2900 3481 
Q 2900 3844 2670 4047 
Q 2441 4250 2034 4250 
Q 1625 4250 1398 4047 
Q 1172 3844 1172 3481 
z
" transform="scale(0.015625)"/>
       </defs>
       <use xlink:href="#DejaVuSans-32"/>
       <use xlink:href="#DejaVuSans-30" x="63.623047"/>
       <use xlink:href="#DejaVuSans-32" x="127.246094"/>
       <use xlink:href="#DejaVuSans-34" x="190.869141"/>
       <use xlink:href="#DejaVuSans-2d" x="254.492188"/>
       <use xlink:href="#DejaVuSans-30" x="290.576172"/>
       <use xlink:href="#DejaVuSans-37" x="354.199219"/>
       <use xlink:href="#DejaVuSans-2d" x="417.822266"/>
       <use xlink:href="#DejaVuSans-30" x="453.90625"/>
       <use xlink:href="#DejaVuSans-38" x="517.529297"/>
      </g>
     </g>
    </g>
    <g id="xtick_5">
     <g id="line2d_9">
      <path d="M 561.128044 404.12 
L 561.128044 26.88 
" clip-path="url(#p3b1776b90e)" style="fill: none; stroke-dasharray: 2.96,1.28; stroke-dashoffset: 0; stroke: #b0b0b0; stroke-width: 0.8"/>
     </g>
     <g id="line2d_10">
      <g>
       <use xlink:href="#m112e80341f" x="561.128044" y="404.12" style="stroke: #000000; stroke-width: 0.8"/>
      </g>
     </g>
     <g id="text_5">
      <!-- 2024-07-15 -->
      <g transform="translate(532.070232 418.718437) scale(0.1 -0.1)">
       <use xlink:href="#DejaVuSans-32"/>
       <use xlink:href="#DejaVuSans-30" x="63.623047"/>
       <use xlink:href="#DejaVuSans-32" x="127.246094"/>
       <use xlink:href="#DejaVuSans-34" x="190.869141"/>
       <use xlink:href="#DejaVuSans-2d" x="254.492188"/>
       <use xlink:href="#DejaVuSans-30" x="290.576172"/>
       <use xlink:href="#DejaVuSans-37" x="354.199219"/>
       <use xlink:href="#DejaVuSans-2d" x="417.822266"/>
       <use xlink:href="#DejaVuSans-31" x="453.90625"/>
       <use xlink:href="#DejaVuSans-35" x="517.529297"/>
      </g>
     </g>
    </g>
    <g id="xtick_6">
     <g id="line2d_11">
      <path d="M 668.228683 404.12 
L 668.228683 26.88 
" clip-path="url(#p3b1776b90e)" style="fill: none; stroke-dasharray: 2.96,1.28; stroke-dashoffset: 0; stroke: #b0b0b0; stroke-width: 0.8"/>
     </g>
     <g id="line2d_12">
      <g>
       <use xlink:href="#m112e80341f" x="668.228683" y="404.12" style="stroke: #000000; stroke-width: 0.8"/>
      </g>
     </g>
     <g id="text_6">
      <!-- 2024-07-22 -->
      <g transform="translate(639.170871 418.718437) scale(0.1 -0.1)">
       <use xlink:href="#DejaVuSans-32"/>
       <use xlink:href="#DejaVuSans-30" x="63.623047"/>
       <use xlink:href="#DejaVuSans-32" x="127.246094"/>
       <use xlink:href="#DejaVuSans-34" x="190.869141"/>
       <use xlink:href="#DejaVuSans-2d" x="254.492188"/>
       <use xlink:href="#DejaVuSans-30" x="290.576172"/>
       <use xlink:href="#DejaVuSans-37" x="354.199219"/>
       <use xlink:href="#DejaVuSans-2d" x="417.822266"/>
       <use xlink:href="#DejaVuSans-32" x="453.90625"/>
       <use xlink:href="#DejaVuSans-32" x="517.529297"/>
      </g>
     </g>
    </g>
    <g id="xtick_7">
     <g id="line2d_13">
      <path d="M 821.229596 404.12 
L 821.229596 26.88 
" clip-path="url(#p3b1776b90e)" style="fill: none; stroke-dasharray: 2.96,1.28; stroke-dashoffset: 0; stroke: #b0b0b0; stroke-width: 0.8"/>
     </g>
     <g id="line2d_14">
      <g>
       <use xlink:href="#m112e80341f" x="821.229596" y="404.12" style="stroke: #000000; stroke-width: 0.8"/>
      </g>
     </g>
     <g id="text_7">
      <!-- 2024-08-01 -->
      <g transform="translate(792.171784 418.718437) scale(0.1 -0.1)">
       <use xlink:href="#DejaVuSans-32"/>
       <use xlink:href="#DejaVuSans-30" x="63.623047"/>
       <use xlink:href="#DejaVuSans-32" x="127.246094"/>
       <use xlink:href="#DejaVuSans-34" x="190.869141"/>
       <use xlink:href="#DejaVuSans-2d" x="254.492188"/>
       <use xlink:href="#DejaVuSans-30" x="290.576172"/>
       <use xlink:href="#DejaVuSans-38" x="354.199219"/>
       <use xlink:href="#DejaVuSans-2d" x="417.822266"/>
       <use xlink:href="#DejaVuSans-30" x="453.90625"/>
       <use xlink:href="#DejaVuSans-31" x="517.529297"/>
      </g>
     </g>
    </g>
   </g>
   <g id="matplotlib.axis_2">
    <g id="ytick_1">
     <g id="line2d_15">
      <path d="M 50.87 393.400271 
L 841.88472 393.400271 
" clip-path="url(#p3b1776b90e)" style="fill: none; stroke-dasharray: 2.96,1.28; stroke-dashoffset: 0; stroke: #b0b0b0; stroke-width: 0.8"/>
     </g>
     <g id="line2d_16">
      <defs>
       <path id="m8afe8773a7" d="M 0 0 
L -3.5 0 
" style="stroke: #000000; stroke-width: 0.8"/>
      </defs>
      <g>
       <use xlink:href="#m8afe8773a7" x="50.87" y="393.400271" style="stroke: #000000; stroke-width: 0.8"/>
      </g>
     </g>
     <g id="text_8">
      <!-- 0 -->
      <g transform="translate(37.5075 397.19949) scale(0.1 -0.1)">
       <use xlink:href="#DejaVuSans-30"/>
      </g>
     </g>
    </g>
    <g id="ytick_2">
     <g id="line2d_17">
      <path d="M 50.87 330.097488 
L 841.88472 330.097488 
" clip-path="url(#p3b1776b90e)" style="fill: none; stroke-dasharray: 2.96,1.28; stroke-dashoffset: 0; stroke: #b0b0b0; stroke-width: 0.8"/>
     </g>
     <g id="line2d_18">
      <g>
       <use xlink:href="#m8afe8773a7" x="50.87" y="330.097488" style="stroke: #000000; stroke-width: 0.8"/>
      </g>
     </g>
     <g id="text_9">
      <!-- 50 -->
      <g transform="translate(31.145 333.896707) scale(0.1 -0.1)">
       <use xlink:href="#DejaVuSans-35"/>
       <use xlink:href="#DejaVuSans-30" x="63.623047"/>
      </g>
     </g>
    </g>
    <g id="ytick_3">
     <g id="line2d_19">
      <path d="M 50.87 266.794706 
L 841.88472 266.794706 
" clip-path="url(#p3b1776b90e)" style="fill: none; stroke-dasharray: 2.96,1.28; stroke-dashoffset: 0; stroke: #b0b0b0; stroke-width: 0.8"/>
     </g>
     <g id="line2d_20">
      <g>
       <use xlink:href="#m8afe8773a7" x="50.87" y="266.794706" style="stroke: #000000; stroke-width: 0.8"/>
      </g>
     </g>
     <g id="text_10">
      <!-- 100 -->
      <g transform="translate(24.7825 270.593925) scale(0.1 -0.1)">
       <use xlink:href="#DejaVuSans-31"/>
       <use xlink:href="#DejaVuSans-30" x="63.623047"/>
       <use xlink:href="#DejaVuSans-30" x="127.246094"/>
      </g>
     </g>
    </g>
    <g id="ytick_4">
     <g id="line2d_21">
      <path d="M 50.87 203.491923 
L 841.88472 203.491923 
" clip-path="url(#p3b1776b90e)" style="fill: none; stroke-dasharray: 2.96,1.28; stroke-dashoffset: 0; stroke: #b0b0b0; stroke-width: 0.8"/>
     </g>
     <g id="line2d_22">
      <g>
       <use xlink:href="#m8afe8773a7" x="50.87" y="203.491923" style="stroke: #000000; stroke-width: 0.8"/>
      </g>
     </g>
     <g id="text_11">
      <!-- 150 -->
      <g transform="translate(24.7825 207.291142) scale(0.1 -0.1)">
       <use xlink:href="#DejaVuSans-31"/>
       <use xlink:href="#DejaVuSans-35" x="63.623047"/>
       <use xlink:href="#DejaVuSans-30" x="127.246094"/>
      </g>
     </g>
    </g>
    <g id="ytick_5">
     <g id="line2d_23">
      <path d="M 50.87 140.189141 
L 841.88472 140.189141 
" clip-path="url(#p3b1776b90e)" style="fill: none; stroke-dasharray: 2.96,1.28; stroke-dashoffset: 0; stroke: #b0b0b0; stroke-width: 0.8"/>
     </g>
     <g id="line2d_24">
      <g>
       <use xlink:href="#m8afe8773a7" x="50.87" y="140.189141" style="stroke: #000000; stroke-width: 0.8"/>
      </g>
     </g>
     <g id="text_12">
      <!-- 200 -->
      <g transform="translate(24.7825 143.98836) scale(0.1 -0.1)">
       <use xlink:href="#DejaVuSans-32"/>
       <use xlink:href="#DejaVuSans-30" x="63.623047"/>
       <use xlink:href="#DejaVuSans-30" x="127.246094"/>
      </g>
     </g>
    </g>
    <g id="ytick_6">
     <g id="line2d_25">
      <path d="M 50.87 76.886358 
L 841.88472 76.886358 
" clip-path="url(#p3b1776b90e)" style="fill: none; stroke-dasharray: 2.96,1.28; stroke-dashoffset: 0; stroke: #b0b0b0; stroke-width: 0.8"/>
     </g>
     <g id="line2d_26">
      <g>
       <use xlink:href="#m8afe8773a7" x="50.87" y="76.886358" style="stroke: #000000; stroke-width: 0.8"/>
      </g>
     </g>
     <g id="text_13">
      <!-- 250 -->
      <g transform="translate(24.7825 80.685577) scale(0.1 -0.1)">
       <use xlink:href="#DejaVuSans-32"/>
       <use xlink:href="#DejaVuSans-35" x="63.623047"/>
       <use xlink:href="#DejaVuSans-30" x="127.246094"/>
      </g>
     </g>
    </g>
    <g id="text_14">
     <!-- Score -->
     <g transform="translate(18.702813 229.502344) rotate(-90) scale(0.1 -0.1)">
      <defs>
       <path id="DejaVuSans-53" d="M 3425 4513 
L 3425 3897 
Q 3066 4069 2747 4153 
Q 2428 4238 2131 4238 
Q 1616 4238 1336 4038 
Q 1056 3838 1056 3469 
Q 1056 3159 1242 3001 
Q 1428 2844 1947 2747 
L 2328 2669 
Q 3034 2534 3370 2195 
Q 3706 1856 3706 1288 
Q 3706 609 3251 259 
Q 2797 -91 1919 -91 
Q 1588 -91 1214 -16 
Q 841 59 441 206 
L 441 856 
Q 825 641 1194 531 
Q 1563 422 1919 422 
Q 2459 422 2753 634 
Q 3047 847 3047 1241 
Q 3047 1584 2836 1778 
Q 2625 1972 2144 2069 
L 1759 2144 
Q 1053 2284 737 2584 
Q 422 2884 422 3419 
Q 422 4038 858 4394 
Q 1294 4750 2059 4750 
Q 2388 4750 2728 4690 
Q 3069 4631 3425 4513 
z
" transform="scale(0.015625)"/>
       <path id="DejaVuSans-63" d="M 3122 3366 
L 3122 2828 
Q 2878 2963 2633 3030 
Q 2388 3097 2138 3097 
Q 1578 3097 1268 2742 
Q 959 2388 959 1747 
Q 959 1106 1268 751 
Q 1578 397 2138 397 
Q 2388 397 2633 464 
Q 2878 531 3122 666 
L 3122 134 
Q 2881 22 2623 -34 
Q 2366 -91 2075 -91 
Q 1284 -91 818 406 
Q 353 903 353 1747 
Q 353 2603 823 3093 
Q 1294 3584 2113 3584 
Q 2378 3584 2631 3529 
Q 2884 3475 3122 3366 
z
" transform="scale(0.015625)"/>
       <path id="DejaVuSans-6f" d="M 1959 3097 
Q 1497 3097 1228 2736 
Q 959 2375 959 1747 
Q 959 1119 1226 758 
Q 1494 397 1959 397 
Q 2419 397 2687 759 
Q 2956 1122 2956 1747 
Q 2956 2369 2687 2733 
Q 2419 3097 1959 3097 
z
M 1959 3584 
Q 2709 3584 3137 3096 
Q 3566 2609 3566 1747 
Q 3566 888 3137 398 
Q 2709 -91 1959 -91 
Q 1206 -91 779 398 
Q 353 888 353 1747 
Q 353 2609 779 3096 
Q 1206 3584 1959 3584 
z
" transform="scale(0.015625)"/>
       <path id="DejaVuSans-72" d="M 2631 2963 
Q 2534 3019 2420 3045 
Q 2306 3072 2169 3072 
Q 1681 3072 1420 2755 
Q 1159 2438 1159 1844 
L 1159 0 
L 581 0 
L 581 3500 
L 1159 3500 
L 1159 2956 
Q 1341 3275 1631 3429 
Q 1922 3584 2338 3584 
Q 2397 3584 2469 3576 
Q 2541 3569 2628 3553 
L 2631 2963 
z
" transform="scale(0.015625)"/>
       <path id="DejaVuSans-65" d="M 3597 1894 
L 3597 1613 
L 953 1613 
Q 991 1019 1311 708 
Q 1631 397 2203 397 
Q 2534 397 2845 478 
Q 3156 559 3463 722 
L 3463 178 
Q 3153 47 2828 -22 
Q 2503 -91 2169 -91 
Q 1331 -91 842 396 
Q 353 884 353 1716 
Q 353 2575 817 3079 
Q 1281 3584 2069 3584 
Q 2775 3584 3186 3129 
Q 3597 2675 3597 1894 
z
M 3022 2063 
Q 3016 2534 2758 2815 
Q 2500 3097 2075 3097 
Q 1594 3097 1305 2825 
Q 1016 2553 972 2059 
L 3022 2063 
z
" transform="scale(0.015625)"/>
      </defs>
      <use xlink:href="#DejaVuSans-53"/>
      <use xlink:href="#DejaVuSans-63" x="63.476562"/>
      <use xlink:href="#DejaVuSans-6f" x="118.457031"/>
      <use xlink:href="#DejaVuSans-72" x="179.638672"/>
      <use xlink:href="#DejaVuSans-65" x="218.501953"/>
     </g>
    </g>
   </g>
   <g id="line2d_27">
    <path d="M 86.825215 380.747133 
L 102.125306 359.224187 
L 117.425397 321.242518 
L 132.725488 312.380128 
L 148.02558 293.389294 
L 163.325671 274.398459 
L 178.625762 246.545235 
L 193.925854 235.150734 
L 209.225945 203.499343 
L 224.526036 192.104842 
L 239.826127 157.921339 
L 255.126219 137.664449 
L 270.42631 78.159833 
L 316.326584 78.159833 
L 331.626675 78.159833 
L 346.926766 78.159833 
L 362.226858 78.159833 
L 377.526949 78.159833 
L 408.127132 78.159833 
L 423.427223 78.159833 
L 438.727314 78.159833 
L 454.027405 78.159833 
L 469.327497 78.159833 
L 484.627588 59.168999 
L 499.927679 59.168999 
L 515.227771 59.168999 
L 530.527862 59.168999 
L 545.827953 59.168999 
L 561.128044 46.508442 
L 576.428136 46.508442 
L 591.728227 46.508442 
L 607.028318 46.508442 
L 622.32841 46.508442 
L 637.628501 46.508442 
L 652.928592 46.508442 
L 668.228683 46.508442 
L 683.528775 46.508442 
L 698.828866 46.508442 
L 714.128957 46.508442 
L 729.429049 46.508442 
L 744.72914 46.508442 
L 760.029231 46.508442 
L 775.329322 46.508442 
L 790.629414 46.508442 
L 805.929505 46.508442 
" clip-path="url(#p3b1776b90e)" style="fill: none; stroke: #1f77b4; stroke-width: 1.5; stroke-linecap: square"/>
    <defs>
     <path id="m2c9a8e16b2" d="M 0 3.5 
C 0.928211 3.5 1.81853 3.131218 2.474874 2.474874 
C 3.131218 1.81853 3.5 0.928211 3.5 0 
C 3.5 -0.928211 3.131218 -1.81853 2.474874 -2.474874 
C 1.81853 -3.131218 0.928211 -3.5 0 -3.5 
C -0.928211 -3.5 -1.81853 -3.131218 -2.474874 -2.474874 
C -3.131218 -1.81853 -3.5 -0.928211 -3.5 0 
C -3.5 0.928211 -3.131218 1.81853 -2.474874 2.474874 
C -1.81853 3.131218 -0.928211 3.5 0 3.5 
z
" style="stroke: #1f77b4"/>
    </defs>
    <g clip-path="url(#p3b1776b90e)">
     <use xlink:href="#m2c9a8e16b2" x="86.825215" y="380.747133" style="fill: #1f77b4; stroke: #1f77b4"/>
     <use xlink:href="#m2c9a8e16b2" x="102.125306" y="359.224187" style="fill: #1f77b4; stroke: #1f77b4"/>
     <use xlink:href="#m2c9a8e16b2" x="117.425397" y="321.242518" style="fill: #1f77b4; stroke: #1f77b4"/>
     <use xlink:href="#m2c9a8e16b2" x="132.725488" y="312.380128" style="fill: #1f77b4; stroke: #1f77b4"/>
     <use xlink:href="#m2c9a8e16b2" x="148.02558" y="293.389294" style="fill: #1f77b4; stroke: #1f77b4"/>
     <use xlink:href="#m2c9a8e16b2" x="163.325671" y="274.398459" style="fill: #1f77b4; stroke: #1f77b4"/>
     <use xlink:href="#m2c9a8e16b2" x="178.625762" y="246.545235" style="fill: #1f77b4; stroke: #1f77b4"/>
     <use xlink:href="#m2c9a8e16b2" x="193.925854" y="235.150734" style="fill: #1f77b4; stroke: #1f77b4"/>
     <use xlink:href="#m2c9a8e16b2" x="209.225945" y="203.499343" style="fill: #1f77b4; stroke: #1f77b4"/>
     <use xlink:href="#m2c9a8e16b2" x="224.526036" y="192.104842" style="fill: #1f77b4; stroke: #1f77b4"/>
     <use xlink:href="#m2c9a8e16b2" x="239.826127" y="157.921339" style="fill: #1f77b4; stroke: #1f77b4"/>
     <use xlink:href="#m2c9a8e16b2" x="255.126219" y="137.664449" style="fill: #1f77b4; stroke: #1f77b4"/>
     <use xlink:href="#m2c9a8e16b2" x="270.42631" y="78.159833" style="fill: #1f77b4; stroke: #1f77b4"/>
     <use xlink:href="#m2c9a8e16b2" x="316.326584" y="78.159833" style="fill: #1f77b4; stroke: #1f77b4"/>
     <use xlink:href="#m2c9a8e16b2" x="331.626675" y="78.159833" style="fill: #1f77b4; stroke: #1f77b4"/>
     <use xlink:href="#m2c9a8e16b2" x="346.926766" y="78.159833" style="fill: #1f77b4; stroke: #1f77b4"/>
     <use xlink:href="#m2c9a8e16b2" x="362.226858" y="78.159833" style="fill: #1f77b4; stroke: #1f77b4"/>
     <use xlink:href="#m2c9a8e16b2" x="377.526949" y="78.159833" style="fill: #1f77b4; stroke: #1f77b4"/>
     <use xlink:href="#m2c9a8e16b2" x="408.127132" y="78.159833" style="fill: #1f77b4; stroke: #1f77b4"/>
     <use xlink:href="#m2c9a8e16b2" x="423.427223" y="78.159833" style="fill: #1f77b4; stroke: #1f77b4"/>
     <use xlink:href="#m2c9a8e16b2" x="438.727314" y="78.159833" style="fill: #1f77b4; stroke: #1f77b4"/>
     <use xlink:href="#m2c9a8e16b2" x="454.027405" y="78.159833" style="fill: #1f77b4; stroke: #1f77b4"/>
     <use xlink:href="#m2c9a8e16b2" x="469.327497" y="78.159833" style="fill: #1f77b4; stroke: #1f77b4"/>
     <use xlink:href="#m2c9a8e16b2" x="484.627588" y="59.168999" style="fill: #1f77b4; stroke: #1f77b4"/>
     <use xlink:href="#m2c9a8e16b2" x="499.927679" y="59.168999" style="fill: #1f77b4; stroke: #1f77b4"/>
     <use xlink:href="#m2c9a8e16b2" x="515.227771" y="59.168999" style="fill: #1f77b4; stroke: #1f77b4"/>
     <use xlink:href="#m2c9a8e16b2" x="530.527862" y="59.168999" style="fill: #1f77b4; stroke: #1f77b4"/>
     <use xlink:href="#m2c9a8e16b2" x="545.827953" y="59.168999" style="fill: #1f77b4; stroke: #1f77b4"/>
     <use xlink:href="#m2c9a8e16b2" x="561.128044" y="46.508442" style="fill: #1f77b4; stroke: #1f77b4"/>
     <use xlink:href="#m2c9a8e16b2" x="576.428136" y="46.508442" style="fill: #1f77b4; stroke: #1f77b4"/>
     <use xlink:href="#m2c9a8e16b2" x="591.728227" y="46.508442" style="fill: #1f77b4; stroke: #1f77b4"/>
     <use xlink:href="#m2c9a8e16b2" x="607.028318" y="46.508442" style="fill: #1f77b4; stroke: #1f77b4"/>
     <use xlink:href="#m2c9a8e16b2" x="622.32841" y="46.508442" style="fill: #1f77b4; stroke: #1f77b4"/>
     <use xlink:href="#m2c9a8e16b2" x="637.628501" y="46.508442" style="fill: #1f77b4; stroke: #1f77b4"/>
     <use xlink:href="#m2c9a8e16b2" x="652.928592" y="46.508442" style="fill: #1f77b4; stroke: #1f77b4"/>
     <use xlink:href="#m2c9a8e16b2" x="668.228683" y="46.508442" style="fill: #1f77b4; stroke: #1f77b4"/>
     <use xlink:href="#m2c9a8e16b2" x="683.528775" y="46.508442" style="fill: #1f77b4; stroke: #1f77b4"/>
     <use xlink:href="#m2c9a8e16b2" x="698.828866" y="46.508442" style="fill: #1f77b4; stroke: #1f77b4"/>
     <use xlink:href="#m2c9a8e16b2" x="714.128957" y="46.508442" style="fill: #1f77b4; stroke: #1f77b4"/>
     <use xlink:href="#m2c9a8e16b2" x="729.429049" y="46.508442" style="fill: #1f77b4; stroke: #1f77b4"/>
     <use xlink:href="#m2c9a8e16b2" x="744.72914" y="46.508442" style="fill: #1f77b4; stroke: #1f77b4"/>
     <use xlink:href="#m2c9a8e16b2" x="760.029231" y="46.508442" style="fill: #1f77b4; stroke: #1f77b4"/>
     <use xlink:href="#m2c9a8e16b2" x="775.329322" y="46.508442" style="fill: #1f77b4; stroke: #1f77b4"/>
     <use xlink:href="#m2c9a8e16b2" x="790.629414" y="46.508442" style="fill: #1f77b4; stroke: #1f77b4"/>
     <use xlink:href="#m2c9a8e16b2" x="805.929505" y="46.508442" style="fill: #1f77b4; stroke: #1f77b4"/>
    </g>
   </g>
   <g id="line2d_28">
    <path d="M 86.825215 380.696396 
L 102.125306 359.17345 
L 117.425397 340.182615 
L 132.725488 333.852337 
L 148.02558 327.522059 
L 163.325671 303.467001 
L 178.625762 292.0725 
L 193.925854 285.742222 
L 209.225945 254.090831 
L 224.526036 216.109161 
L 239.826127 190.788048 
L 255.126219 176.861436 
L 270.42631 130.017377 
L 316.326584 130.017377 
L 331.626675 130.017377 
L 346.926766 130.017377 
L 362.226858 130.017377 
L 377.526949 130.017377 
L 408.127132 130.017377 
L 423.427223 130.017377 
L 438.727314 130.017377 
L 454.027405 130.017377 
L 469.327497 130.017377 
L 484.627588 111.026542 
L 499.927679 111.026542 
L 515.227771 111.026542 
L 530.527862 111.026542 
L 545.827953 111.026542 
L 561.128044 79.375151 
L 576.428136 79.375151 
L 591.728227 79.375151 
L 607.028318 79.375151 
L 622.32841 79.375151 
L 637.628501 79.375151 
L 652.928592 79.375151 
L 668.228683 79.375151 
L 683.528775 79.375151 
L 698.828866 79.375151 
L 714.128957 79.375151 
L 729.429049 79.375151 
L 744.72914 79.375151 
L 760.029231 79.375151 
L 775.329322 79.375151 
L 790.629414 79.375151 
L 805.929505 79.375151 
" clip-path="url(#p3b1776b90e)" style="fill: none; stroke: #ff7f0e; stroke-width: 1.5; stroke-linecap: square"/>
    <defs>
     <path id="m2575804ec8" d="M 0 3.5 
C 0.928211 3.5 1.81853 3.131218 2.474874 2.474874 
C 3.131218 1.81853 3.5 0.928211 3.5 0 
C 3.5 -0.928211 3.131218 -1.81853 2.474874 -2.474874 
C 1.81853 -3.131218 0.928211 -3.5 0 -3.5 
C -0.928211 -3.5 -1.81853 -3.131218 -2.474874 -2.474874 
C -3.131218 -1.81853 -3.5 -0.928211 -3.5 0 
C -3.5 0.928211 -3.131218 1.81853 -2.474874 2.474874 
C -1.81853 3.131218 -0.928211 3.5 0 3.5 
z
" style="stroke: #ff7f0e"/>
    </defs>
    <g clip-path="url(#p3b1776b90e)">
     <use xlink:href="#m2575804ec8" x="86.825215" y="380.696396" style="fill: #ff7f0e; stroke: #ff7f0e"/>
     <use xlink:href="#m2575804ec8" x="102.125306" y="359.17345" style="fill: #ff7f0e; stroke: #ff7f0e"/>
     <use xlink:href="#m2575804ec8" x="117.425397" y="340.182615" style="fill: #ff7f0e; stroke: #ff7f0e"/>
     <use xlink:href="#m2575804ec8" x="132.725488" y="333.852337" style="fill: #ff7f0e; stroke: #ff7f0e"/>
     <use xlink:href="#m2575804ec8" x="148.02558" y="327.522059" style="fill: #ff7f0e; stroke: #ff7f0e"/>
     <use xlink:href="#m2575804ec8" x="163.325671" y="303.467001" style="fill: #ff7f0e; stroke: #ff7f0e"/>
     <use xlink:href="#m2575804ec8" x="178.625762" y="292.0725" style="fill: #ff7f0e; stroke: #ff7f0e"/>
     <use xlink:href="#m2575804ec8" x="193.925854" y="285.742222" style="fill: #ff7f0e; stroke: #ff7f0e"/>
     <use xlink:href="#m2575804ec8" x="209.225945" y="254.090831" style="fill: #ff7f0e; stroke: #ff7f0e"/>
     <use xlink:href="#m2575804ec8" x="224.526036" y="216.109161" style="fill: #ff7f0e; stroke: #ff7f0e"/>
     <use xlink:href="#m2575804ec8" x="239.826127" y="190.788048" style="fill: #ff7f0e; stroke: #ff7f0e"/>
     <use xlink:href="#m2575804ec8" x="255.126219" y="176.861436" style="fill: #ff7f0e; stroke: #ff7f0e"/>
     <use xlink:href="#m2575804ec8" x="270.42631" y="130.017377" style="fill: #ff7f0e; stroke: #ff7f0e"/>
     <use xlink:href="#m2575804ec8" x="316.326584" y="130.017377" style="fill: #ff7f0e; stroke: #ff7f0e"/>
     <use xlink:href="#m2575804ec8" x="331.626675" y="130.017377" style="fill: #ff7f0e; stroke: #ff7f0e"/>
     <use xlink:href="#m2575804ec8" x="346.926766" y="130.017377" style="fill: #ff7f0e; stroke: #ff7f0e"/>
     <use xlink:href="#m2575804ec8" x="362.226858" y="130.017377" style="fill: #ff7f0e; stroke: #ff7f0e"/>
     <use xlink:href="#m2575804ec8" x="377.526949" y="130.017377" style="fill: #ff7f0e; stroke: #ff7f0e"/>
     <use xlink:href="#m2575804ec8" x="408.127132" y="130.017377" style="fill: #ff7f0e; stroke: #ff7f0e"/>
     <use xlink:href="#m2575804ec8" x="423.427223" y="130.017377" style="fill: #ff7f0e; stroke: #ff7f0e"/>
     <use xlink:href="#m2575804ec8" x="438.727314" y="130.017377" style="fill: #ff7f0e; stroke: #ff7f0e"/>
     <use xlink:href="#m2575804ec8" x="454.027405" y="130.017377" style="fill: #ff7f0e; stroke: #ff7f0e"/>
     <use xlink:href="#m2575804ec8" x="469.327497" y="130.017377" style="fill: #ff7f0e; stroke: #ff7f0e"/>
     <use xlink:href="#m2575804ec8" x="484.627588" y="111.026542" style="fill: #ff7f0e; stroke: #ff7f0e"/>
     <use xlink:href="#m2575804ec8" x="499.927679" y="111.026542" style="fill: #ff7f0e; stroke: #ff7f0e"/>
     <use xlink:href="#m2575804ec8" x="515.227771" y="111.026542" style="fill: #ff7f0e; stroke: #ff7f0e"/>
     <use xlink:href="#m2575804ec8" x="530.527862" y="111.026542" style="fill: #ff7f0e; stroke: #ff7f0e"/>
     <use xlink:href="#m2575804ec8" x="545.827953" y="111.026542" style="fill: #ff7f0e; stroke: #ff7f0e"/>
     <use xlink:href="#m2575804ec8" x="561.128044" y="79.375151" style="fill: #ff7f0e; stroke: #ff7f0e"/>
     <use xlink:href="#m2575804ec8" x="576.428136" y="79.375151" style="fill: #ff7f0e; stroke: #ff7f0e"/>
     <use xlink:href="#m2575804ec8" x="591.728227" y="79.375151" style="fill: #ff7f0e; stroke: #ff7f0e"/>
     <use xlink:href="#m2575804ec8" x="607.028318" y="79.375151" style="fill: #ff7f0e; stroke: #ff7f0e"/>
     <use xlink:href="#m2575804ec8" x="622.32841" y="79.375151" style="fill: #ff7f0e; stroke: #ff7f0e"/>
     <use xlink:href="#m2575804ec8" x="637.628501" y="79.375151" style="fill: #ff7f0e; stroke: #ff7f0e"/>
     <use xlink:href="#m2575804ec8" x="652.928592" y="79.375151" style="fill: #ff7f0e; stroke: #ff7f0e"/>
     <use xlink:href="#m2575804ec8" x="668.228683" y="79.375151" style="fill: #ff7f0e; stroke: #ff7f0e"/>
     <use xlink:href="#m2575804ec8" x="683.528775" y="79.375151" style="fill: #ff7f0e; stroke: #ff7f0e"/>
     <use xlink:href="#m2575804ec8" x="698.828866" y="79.375151" style="fill: #ff7f0e; stroke: #ff7f0e"/>
     <use xlink:href="#m2575804ec8" x="714.128957" y="79.375151" style="fill: #ff7f0e; stroke: #ff7f0e"/>
     <use xlink:href="#m2575804ec8" x="729.429049" y="79.375151" style="fill: #ff7f0e; stroke: #ff7f0e"/>
     <use xlink:href="#m2575804ec8" x="744.72914" y="79.375151" style="fill: #ff7f0e; stroke: #ff7f0e"/>
     <use xlink:href="#m2575804ec8" x="760.029231" y="79.375151" style="fill: #ff7f0e; stroke: #ff7f0e"/>
     <use xlink:href="#m2575804ec8" x="775.329322" y="79.375151" style="fill: #ff7f0e; stroke: #ff7f0e"/>
     <use xlink:href="#m2575804ec8" x="790.629414" y="79.375151" style="fill: #ff7f0e; stroke: #ff7f0e"/>
     <use xlink:href="#m2575804ec8" x="805.929505" y="79.375151" style="fill: #ff7f0e; stroke: #ff7f0e"/>
    </g>
   </g>
   <g id="line2d_29">
    <path d="M 86.825215 380.693089 
L 102.125306 355.371976 
L 117.425397 331.316919 
L 132.725488 318.656362 
L 148.02558 293.335249 
L 163.325671 271.812303 
L 178.625762 250.289357 
L 193.925854 212.307688 
L 209.225945 190.784742 
L 224.526036 181.922352 
L 239.826127 154.069128 
L 255.126219 142.674627 
L 270.42631 99.628735 
L 316.326584 99.628735 
L 331.626675 99.628735 
L 346.926766 99.628735 
L 362.226858 99.628735 
L 377.526949 99.628735 
L 408.127132 99.628735 
L 423.427223 99.628735 
L 438.727314 99.628735 
L 454.027405 99.628735 
L 469.327497 99.628735 
L 484.627588 80.6379 
L 499.927679 80.6379 
L 515.227771 80.6379 
L 530.527862 80.6379 
L 545.827953 80.6379 
L 561.128044 80.6379 
L 576.428136 80.6379 
L 591.728227 80.6379 
L 607.028318 80.6379 
L 622.32841 80.6379 
L 637.628501 80.6379 
L 652.928592 80.6379 
L 668.228683 80.6379 
L 683.528775 80.6379 
L 698.828866 80.6379 
L 714.128957 80.6379 
L 729.429049 80.6379 
L 744.72914 80.6379 
L 760.029231 80.6379 
L 775.329322 80.6379 
L 790.629414 80.6379 
L 805.929505 80.6379 
" clip-path="url(#p3b1776b90e)" style="fill: none; stroke: #2ca02c; stroke-width: 1.5; stroke-linecap: square"/>
    <defs>
     <path id="mefcbaea567" d="M 0 3.5 
C 0.928211 3.5 1.81853 3.131218 2.474874 2.474874 
C 3.131218 1.81853 3.5 0.928211 3.5 0 
C 3.5 -0.928211 3.131218 -1.81853 2.474874 -2.474874 
C 1.81853 -3.131218 0.928211 -3.5 0 -3.5 
C -0.928211 -3.5 -1.81853 -3.131218 -2.474874 -2.474874 
C -3.131218 -1.81853 -3.5 -0.928211 -3.5 0 
C -3.5 0.928211 -3.131218 1.81853 -2.474874 2.474874 
C -1.81853 3.131218 -0.928211 3.5 0 3.5 
z
" style="stroke: #2ca02c"/>
    </defs>
    <g clip-path="url(#p3b1776b90e)">
     <use xlink:href="#mefcbaea567" x="86.825215" y="380.693089" style="fill: #2ca02c; stroke: #2ca02c"/>
     <use xlink:href="#mefcbaea567" x="102.125306" y="355.371976" style="fill: #2ca02c; stroke: #2ca02c"/>
     <use xlink:href="#mefcbaea567" x="117.425397" y="331.316919" style="fill: #2ca02c; stroke: #2ca02c"/>
     <use xlink:href="#mefcbaea567" x="132.725488" y="318.656362" style="fill: #2ca02c; stroke: #2ca02c"/>
     <use xlink:href="#mefcbaea567" x="148.02558" y="293.335249" style="fill: #2ca02c; stroke: #2ca02c"/>
     <use xlink:href="#mefcbaea567" x="163.325671" y="271.812303" style="fill: #2ca02c; stroke: #2ca02c"/>
     <use xlink:href="#mefcbaea567" x="178.625762" y="250.289357" style="fill: #2ca02c; stroke: #2ca02c"/>
     <use xlink:href="#mefcbaea567" x="193.925854" y="212.307688" style="fill: #2ca02c; stroke: #2ca02c"/>
     <use xlink:href="#mefcbaea567" x="209.225945" y="190.784742" style="fill: #2ca02c; stroke: #2ca02c"/>
     <use xlink:href="#mefcbaea567" x="224.526036" y="181.922352" style="fill: #2ca02c; stroke: #2ca02c"/>
     <use xlink:href="#mefcbaea567" x="239.826127" y="154.069128" style="fill: #2ca02c; stroke: #2ca02c"/>
     <use xlink:href="#mefcbaea567" x="255.126219" y="142.674627" style="fill: #2ca02c; stroke: #2ca02c"/>
     <use xlink:href="#mefcbaea567" x="270.42631" y="99.628735" style="fill: #2ca02c; stroke: #2ca02c"/>
     <use xlink:href="#mefcbaea567" x="316.326584" y="99.628735" style="fill: #2ca02c; stroke: #2ca02c"/>
     <use xlink:href="#mefcbaea567" x="331.626675" y="99.628735" style="fill: #2ca02c; stroke: #2ca02c"/>
     <use xlink:href="#mefcbaea567" x="346.926766" y="99.628735" style="fill: #2ca02c; stroke: #2ca02c"/>
     <use xlink:href="#mefcbaea567" x="362.226858" y="99.628735" style="fill: #2ca02c; stroke: #2ca02c"/>
     <use xlink:href="#mefcbaea567" x="377.526949" y="99.628735" style="fill: #2ca02c; stroke: #2ca02c"/>
     <use xlink:href="#mefcbaea567" x="408.127132" y="99.628735" style="fill: #2ca02c; stroke: #2ca02c"/>
     <use xlink:href="#mefcbaea567" x="423.427223" y="99.628735" style="fill: #2ca02c; stroke: #2ca02c"/>
     <use xlink:href="#mefcbaea567" x="438.727314" y="99.628735" style="fill: #2ca02c; stroke: #2ca02c"/>
     <use xlink:href="#mefcbaea567" x="454.027405" y="99.628735" style="fill: #2ca02c; stroke: #2ca02c"/>
     <use xlink:href="#mefcbaea567" x="469.327497" y="99.628735" style="fill: #2ca02c; stroke: #2ca02c"/>
     <use xlink:href="#mefcbaea567" x="484.627588" y="80.6379" style="fill: #2ca02c; stroke: #2ca02c"/>
     <use xlink:href="#mefcbaea567" x="499.927679" y="80.6379" style="fill: #2ca02c; stroke: #2ca02c"/>
     <use xlink:href="#mefcbaea567" x="515.227771" y="80.6379" style="fill: #2ca02c; stroke: #2ca02c"/>
     <use xlink:href="#mefcbaea567" x="530.527862" y="80.6379" style="fill: #2ca02c; stroke: #2ca02c"/>
     <use xlink:href="#mefcbaea567" x="545.827953" y="80.6379" style="fill: #2ca02c; stroke: #2ca02c"/>
     <use xlink:href="#mefcbaea567" x="561.128044" y="80.6379" style="fill: #2ca02c; stroke: #2ca02c"/>
     <use xlink:href="#mefcbaea567" x="576.428136" y="80.6379" style="fill: #2ca02c; stroke: #2ca02c"/>
     <use xlink:href="#mefcbaea567" x="591.728227" y="80.6379" style="fill: #2ca02c; stroke: #2ca02c"/>
     <use xlink:href="#mefcbaea567" x="607.028318" y="80.6379" style="fill: #2ca02c; stroke: #2ca02c"/>
     <use xlink:href="#mefcbaea567" x="622.32841" y="80.6379" style="fill: #2ca02c; stroke: #2ca02c"/>
     <use xlink:href="#mefcbaea567" x="637.628501" y="80.6379" style="fill: #2ca02c; stroke: #2ca02c"/>
     <use xlink:href="#mefcbaea567" x="652.928592" y="80.6379" style="fill: #2ca02c; stroke: #2ca02c"/>
     <use xlink:href="#mefcbaea567" x="668.228683" y="80.6379" style="fill: #2ca02c; stroke: #2ca02c"/>
     <use xlink:href="#mefcbaea567" x="683.528775" y="80.6379" style="fill: #2ca02c; stroke: #2ca02c"/>
     <use xlink:href="#mefcbaea567" x="698.828866" y="80.6379" style="fill: #2ca02c; stroke: #2ca02c"/>
     <use xlink:href="#mefcbaea567" x="714.128957" y="80.6379" style="fill: #2ca02c; stroke: #2ca02c"/>
     <use xlink:href="#mefcbaea567" x="729.429049" y="80.6379" style="fill: #2ca02c; stroke: #2ca02c"/>
     <use xlink:href="#mefcbaea567" x="744.72914" y="80.6379" style="fill: #2ca02c; stroke: #2ca02c"/>
     <use xlink:href="#mefcbaea567" x="760.029231" y="80.6379" style="fill: #2ca02c; stroke: #2ca02c"/>
     <use xlink:href="#mefcbaea567" x="775.329322" y="80.6379" style="fill: #2ca02c; stroke: #2ca02c"/>
     <use xlink:href="#mefcbaea567" x="790.629414" y="80.6379" style="fill: #2ca02c; stroke: #2ca02c"/>
     <use xlink:href="#mefcbaea567" x="805.929505" y="80.6379" style="fill: #2ca02c; stroke: #2ca02c"/>
    </g>
   </g>
   <g id="line2d_30">
    <path d="M 86.825215 380.798075 
L 102.125306 349.146684 
L 117.425397 317.495293 
L 132.725488 292.17418 
L 148.02558 279.513623 
L 163.325671 238.999843 
L 178.625762 214.944785 
L 193.925854 202.284229 
L 209.225945 180.761283 
L 224.526036 169.366782 
L 239.826127 135.183279 
L 255.126219 121.256667 
L 270.42631 82.008942 
L 316.326584 82.008942 
L 331.626675 82.008942 
L 346.926766 82.008942 
L 362.226858 82.008942 
L 377.526949 82.008942 
L 408.127132 82.008942 
L 423.427223 82.008942 
L 438.727314 82.008942 
L 454.027405 82.008942 
L 469.327497 82.008942 
L 484.627588 63.018107 
L 499.927679 63.018107 
L 515.227771 63.018107 
L 530.527862 63.018107 
L 545.827953 63.018107 
L 561.128044 44.027273 
L 576.428136 44.027273 
L 591.728227 44.027273 
L 607.028318 44.027273 
L 622.32841 44.027273 
L 637.628501 44.027273 
L 652.928592 44.027273 
L 668.228683 44.027273 
L 683.528775 44.027273 
L 698.828866 44.027273 
L 714.128957 44.027273 
L 729.429049 44.027273 
L 744.72914 44.027273 
L 760.029231 44.027273 
L 775.329322 44.027273 
L 790.629414 44.027273 
L 805.929505 44.027273 
" clip-path="url(#p3b1776b90e)" style="fill: none; stroke: #d62728; stroke-width: 1.5; stroke-linecap: square"/>
    <defs>
     <path id="m9613f1230e" d="M 0 3.5 
C 0.928211 3.5 1.81853 3.131218 2.474874 2.474874 
C 3.131218 1.81853 3.5 0.928211 3.5 0 
C 3.5 -0.928211 3.131218 -1.81853 2.474874 -2.474874 
C 1.81853 -3.131218 0.928211 -3.5 0 -3.5 
C -0.928211 -3.5 -1.81853 -3.131218 -2.474874 -2.474874 
C -3.131218 -1.81853 -3.5 -0.928211 -3.5 0 
C -3.5 0.928211 -3.131218 1.81853 -2.474874 2.474874 
C -1.81853 3.131218 -0.928211 3.5 0 3.5 
z
" style="stroke: #d62728"/>
    </defs>
    <g clip-path="url(#p3b1776b90e)">
     <use xlink:href="#m9613f1230e" x="86.825215" y="380.798075" style="fill: #d62728; stroke: #d62728"/>
     <use xlink:href="#m9613f1230e" x="102.125306" y="349.146684" style="fill: #d62728; stroke: #d62728"/>
     <use xlink:href="#m9613f1230e" x="117.425397" y="317.495293" style="fill: #d62728; stroke: #d62728"/>
     <use xlink:href="#m9613f1230e" x="132.725488" y="292.17418" style="fill: #d62728; stroke: #d62728"/>
     <use xlink:href="#m9613f1230e" x="148.02558" y="279.513623" style="fill: #d62728; stroke: #d62728"/>
     <use xlink:href="#m9613f1230e" x="163.325671" y="238.999843" style="fill: #d62728; stroke: #d62728"/>
     <use xlink:href="#m9613f1230e" x="178.625762" y="214.944785" style="fill: #d62728; stroke: #d62728"/>
     <use xlink:href="#m9613f1230e" x="193.925854" y="202.284229" style="fill: #d62728; stroke: #d62728"/>
     <use xlink:href="#m9613f1230e" x="209.225945" y="180.761283" style="fill: #d62728; stroke: #d62728"/>
     <use xlink:href="#m9613f1230e" x="224.526036" y="169.366782" style="fill: #d62728; stroke: #d62728"/>
     <use xlink:href="#m9613f1230e" x="239.826127" y="135.183279" style="fill: #d62728; stroke: #d62728"/>
     <use xlink:href="#m9613f1230e" x="255.126219" y="121.256667" style="fill: #d62728; stroke: #d62728"/>
     <use xlink:href="#m9613f1230e" x="270.42631" y="82.008942" style="fill: #d62728; stroke: #d62728"/>
     <use xlink:href="#m9613f1230e" x="316.326584" y="82.008942" style="fill: #d62728; stroke: #d62728"/>
     <use xlink:href="#m9613f1230e" x="331.626675" y="82.008942" style="fill: #d62728; stroke: #d62728"/>
     <use xlink:href="#m9613f1230e" x="346.926766" y="82.008942" style="fill: #d62728; stroke: #d62728"/>
     <use xlink:href="#m9613f1230e" x="362.226858" y="82.008942" style="fill: #d62728; stroke: #d62728"/>
     <use xlink:href="#m9613f1230e" x="377.526949" y="82.008942" style="fill: #d62728; stroke: #d62728"/>
     <use xlink:href="#m9613f1230e" x="408.127132" y="82.008942" style="fill: #d62728; stroke: #d62728"/>
     <use xlink:href="#m9613f1230e" x="423.427223" y="82.008942" style="fill: #d62728; stroke: #d62728"/>
     <use xlink:href="#m9613f1230e" x="438.727314" y="82.008942" style="fill: #d62728; stroke: #d62728"/>
     <use xlink:href="#m9613f1230e" x="454.027405" y="82.008942" style="fill: #d62728; stroke: #d62728"/>
     <use xlink:href="#m9613f1230e" x="469.327497" y="82.008942" style="fill: #d62728; stroke: #d62728"/>
     <use xlink:href="#m9613f1230e" x="484.627588" y="63.018107" style="fill: #d62728; stroke: #d62728"/>
     <use xlink:href="#m9613f1230e" x="499.927679" y="63.018107" style="fill: #d62728; stroke: #d62728"/>
     <use xlink:href="#m9613f1230e" x="515.227771" y="63.018107" style="fill: #d62728; stroke: #d62728"/>
     <use xlink:href="#m9613f1230e" x="530.527862" y="63.018107" style="fill: #d62728; stroke: #d62728"/>
     <use xlink:href="#m9613f1230e" x="545.827953" y="63.018107" style="fill: #d62728; stroke: #d62728"/>
     <use xlink:href="#m9613f1230e" x="561.128044" y="44.027273" style="fill: #d62728; stroke: #d62728"/>
     <use xlink:href="#m9613f1230e" x="576.428136" y="44.027273" style="fill: #d62728; stroke: #d62728"/>
     <use xlink:href="#m9613f1230e" x="591.728227" y="44.027273" style="fill: #d62728; stroke: #d62728"/>
     <use xlink:href="#m9613f1230e" x="607.028318" y="44.027273" style="fill: #d62728; stroke: #d62728"/>
     <use xlink:href="#m9613f1230e" x="622.32841" y="44.027273" style="fill: #d62728; stroke: #d62728"/>
     <use xlink:href="#m9613f1230e" x="637.628501" y="44.027273" style="fill: #d62728; stroke: #d62728"/>
     <use xlink:href="#m9613f1230e" x="652.928592" y="44.027273" style="fill: #d62728; stroke: #d62728"/>
     <use xlink:href="#m9613f1230e" x="668.228683" y="44.027273" style="fill: #d62728; stroke: #d62728"/>
     <use xlink:href="#m9613f1230e" x="683.528775" y="44.027273" style="fill: #d62728; stroke: #d62728"/>
     <use xlink:href="#m9613f1230e" x="698.828866" y="44.027273" style="fill: #d62728; stroke: #d62728"/>
     <use xlink:href="#m9613f1230e" x="714.128957" y="44.027273" style="fill: #d62728; stroke: #d62728"/>
     <use xlink:href="#m9613f1230e" x="729.429049" y="44.027273" style="fill: #d62728; stroke: #d62728"/>
     <use xlink:href="#m9613f1230e" x="744.72914" y="44.027273" style="fill: #d62728; stroke: #d62728"/>
     <use xlink:href="#m9613f1230e" x="760.029231" y="44.027273" style="fill: #d62728; stroke: #d62728"/>
     <use xlink:href="#m9613f1230e" x="775.329322" y="44.027273" style="fill: #d62728; stroke: #d62728"/>
     <use xlink:href="#m9613f1230e" x="790.629414" y="44.027273" style="fill: #d62728; stroke: #d62728"/>
     <use xlink:href="#m9613f1230e" x="805.929505" y="44.027273" style="fill: #d62728; stroke: #d62728"/>
    </g>
   </g>
   <g id="line2d_31">
    <path d="M 86.825215 386.972727 
L 102.125306 361.651614 
L 117.425397 336.330501 
L 132.725488 323.669945 
L 148.02558 304.67911 
L 163.325671 283.156164 
L 178.625762 264.165329 
L 193.925854 251.504773 
L 209.225945 207.192825 
L 224.526036 200.862547 
L 239.826127 166.679044 
L 255.126219 155.284543 
L 270.42631 95.779928 
L 316.326584 95.779928 
L 331.626675 95.779928 
L 346.926766 95.779928 
L 362.226858 95.779928 
L 377.526949 95.779928 
L 408.127132 95.779928 
L 423.427223 95.779928 
L 438.727314 95.779928 
L 454.027405 95.779928 
L 469.327497 95.779928 
L 484.627588 95.779928 
L 499.927679 95.779928 
L 515.227771 95.779928 
L 530.527862 95.779928 
L 545.827953 95.779928 
L 561.128044 64.128537 
L 576.428136 64.128537 
L 591.728227 64.128537 
L 607.028318 64.128537 
L 622.32841 64.128537 
L 637.628501 64.128537 
L 652.928592 64.128537 
L 668.228683 64.128537 
L 683.528775 64.128537 
L 698.828866 64.128537 
L 714.128957 64.128537 
L 729.429049 64.128537 
L 744.72914 64.128537 
L 760.029231 64.128537 
L 775.329322 64.128537 
L 790.629414 64.128537 
L 805.929505 64.128537 
" clip-path="url(#p3b1776b90e)" style="fill: none; stroke: #9467bd; stroke-width: 1.5; stroke-linecap: square"/>
    <defs>
     <path id="me2ceb50988" d="M 0 3.5 
C 0.928211 3.5 1.81853 3.131218 2.474874 2.474874 
C 3.131218 1.81853 3.5 0.928211 3.5 0 
C 3.5 -0.928211 3.131218 -1.81853 2.474874 -2.474874 
C 1.81853 -3.131218 0.928211 -3.5 0 -3.5 
C -0.928211 -3.5 -1.81853 -3.131218 -2.474874 -2.474874 
C -3.131218 -1.81853 -3.5 -0.928211 -3.5 0 
C -3.5 0.928211 -3.131218 1.81853 -2.474874 2.474874 
C -1.81853 3.131218 -0.928211 3.5 0 3.5 
z
" style="stroke: #9467bd"/>
    </defs>
    <g clip-path="url(#p3b1776b90e)">
     <use xlink:href="#me2ceb50988" x="86.825215" y="386.972727" style="fill: #9467bd; stroke: #9467bd"/>
     <use xlink:href="#me2ceb50988" x="102.125306" y="361.651614" style="fill: #9467bd; stroke: #9467bd"/>
     <use xlink:href="#me2ceb50988" x="117.425397" y="336.330501" style="fill: #9467bd; stroke: #9467bd"/>
     <use xlink:href="#me2ceb50988" x="132.725488" y="323.669945" style="fill: #9467bd; stroke: #9467bd"/>
     <use xlink:href="#me2ceb50988" x="148.02558" y="304.67911" style="fill: #9467bd; stroke: #9467bd"/>
     <use xlink:href="#me2ceb50988" x="163.325671" y="283.156164" style="fill: #9467bd; stroke: #9467bd"/>
     <use xlink:href="#me2ceb50988" x="178.625762" y="264.165329" style="fill: #9467bd; stroke: #9467bd"/>
     <use xlink:href="#me2ceb50988" x="193.925854" y="251.504773" style="fill: #9467bd; stroke: #9467bd"/>
     <use xlink:href="#me2ceb50988" x="209.225945" y="207.192825" style="fill: #9467bd; stroke: #9467bd"/>
     <use xlink:href="#me2ceb50988" x="224.526036" y="200.862547" style="fill: #9467bd; stroke: #9467bd"/>
     <use xlink:href="#me2ceb50988" x="239.826127" y="166.679044" style="fill: #9467bd; stroke: #9467bd"/>
     <use xlink:href="#me2ceb50988" x="255.126219" y="155.284543" style="fill: #9467bd; stroke: #9467bd"/>
     <use xlink:href="#me2ceb50988" x="270.42631" y="95.779928" style="fill: #9467bd; stroke: #9467bd"/>
     <use xlink:href="#me2ceb50988" x="316.326584" y="95.779928" style="fill: #9467bd; stroke: #9467bd"/>
     <use xlink:href="#me2ceb50988" x="331.626675" y="95.779928" style="fill: #9467bd; stroke: #9467bd"/>
     <use xlink:href="#me2ceb50988" x="346.926766" y="95.779928" style="fill: #9467bd; stroke: #9467bd"/>
     <use xlink:href="#me2ceb50988" x="362.226858" y="95.779928" style="fill: #9467bd; stroke: #9467bd"/>
     <use xlink:href="#me2ceb50988" x="377.526949" y="95.779928" style="fill: #9467bd; stroke: #9467bd"/>
     <use xlink:href="#me2ceb50988" x="408.127132" y="95.779928" style="fill: #9467bd; stroke: #9467bd"/>
     <use xlink:href="#me2ceb50988" x="423.427223" y="95.779928" style="fill: #9467bd; stroke: #9467bd"/>
     <use xlink:href="#me2ceb50988" x="438.727314" y="95.779928" style="fill: #9467bd; stroke: #9467bd"/>
     <use xlink:href="#me2ceb50988" x="454.027405" y="95.779928" style="fill: #9467bd; stroke: #9467bd"/>
     <use xlink:href="#me2ceb50988" x="469.327497" y="95.779928" style="fill: #9467bd; stroke: #9467bd"/>
     <use xlink:href="#me2ceb50988" x="484.627588" y="95.779928" style="fill: #9467bd; stroke: #9467bd"/>
     <use xlink:href="#me2ceb50988" x="499.927679" y="95.779928" style="fill: #9467bd; stroke: #9467bd"/>
     <use xlink:href="#me2ceb50988" x="515.227771" y="95.779928" style="fill: #9467bd; stroke: #9467bd"/>
     <use xlink:href="#me2ceb50988" x="530.527862" y="95.779928" style="fill: #9467bd; stroke: #9467bd"/>
     <use xlink:href="#me2ceb50988" x="545.827953" y="95.779928" style="fill: #9467bd; stroke: #9467bd"/>
     <use xlink:href="#me2ceb50988" x="561.128044" y="64.128537" style="fill: #9467bd; stroke: #9467bd"/>
     <use xlink:href="#me2ceb50988" x="576.428136" y="64.128537" style="fill: #9467bd; stroke: #9467bd"/>
     <use xlink:href="#me2ceb50988" x="591.728227" y="64.128537" style="fill: #9467bd; stroke: #9467bd"/>
     <use xlink:href="#me2ceb50988" x="607.028318" y="64.128537" style="fill: #9467bd; stroke: #9467bd"/>
     <use xlink:href="#me2ceb50988" x="622.32841" y="64.128537" style="fill: #9467bd; stroke: #9467bd"/>
     <use xlink:href="#me2ceb50988" x="637.628501" y="64.128537" style="fill: #9467bd; stroke: #9467bd"/>
     <use xlink:href="#me2ceb50988" x="652.928592" y="64.128537" style="fill: #9467bd; stroke: #9467bd"/>
     <use xlink:href="#me2ceb50988" x="668.228683" y="64.128537" style="fill: #9467bd; stroke: #9467bd"/>
     <use xlink:href="#me2ceb50988" x="683.528775" y="64.128537" style="fill: #9467bd; stroke: #9467bd"/>
     <use xlink:href="#me2ceb50988" x="698.828866" y="64.128537" style="fill: #9467bd; stroke: #9467bd"/>
     <use xlink:href="#me2ceb50988" x="714.128957" y="64.128537" style="fill: #9467bd; stroke: #9467bd"/>
     <use xlink:href="#me2ceb50988" x="729.429049" y="64.128537" style="fill: #9467bd; stroke: #9467bd"/>
     <use xlink:href="#me2ceb50988" x="744.72914" y="64.128537" style="fill: #9467bd; stroke: #9467bd"/>
     <use xlink:href="#me2ceb50988" x="760.029231" y="64.128537" style="fill: #9467bd; stroke: #9467bd"/>
     <use xlink:href="#me2ceb50988" x="775.329322" y="64.128537" style="fill: #9467bd; stroke: #9467bd"/>
     <use xlink:href="#me2ceb50988" x="790.629414" y="64.128537" style="fill: #9467bd; stroke: #9467bd"/>
     <use xlink:href="#me2ceb50988" x="805.929505" y="64.128537" style="fill: #9467bd; stroke: #9467bd"/>
    </g>
   </g>
   <g id="line2d_32">
    <path d="M 86.825215 380.656963 
L 102.125306 365.464296 
L 117.425397 354.069795 
L 132.725488 328.748682 
L 148.02558 309.757847 
L 163.325671 304.693624 
L 178.625762 295.831235 
L 193.925854 280.638567 
L 209.225945 236.326619 
L 224.526036 204.675228 
L 239.826127 166.693559 
L 255.126219 142.638501 
L 270.42631 93.262331 
L 316.326584 93.262331 
L 331.626675 93.262331 
L 346.926766 93.262331 
L 362.226858 93.262331 
L 377.526949 93.262331 
L 408.127132 93.262331 
L 423.427223 93.262331 
L 438.727314 93.262331 
L 454.027405 93.262331 
L 469.327497 93.262331 
L 484.627588 93.262331 
L 499.927679 93.262331 
L 515.227771 93.262331 
L 530.527862 93.262331 
L 545.827953 93.262331 
L 561.128044 61.61094 
L 576.428136 61.61094 
L 591.728227 61.61094 
L 607.028318 61.61094 
L 622.32841 61.61094 
L 637.628501 61.61094 
L 652.928592 61.61094 
L 668.228683 61.61094 
L 683.528775 61.61094 
L 698.828866 61.61094 
L 714.128957 61.61094 
L 729.429049 61.61094 
L 744.72914 61.61094 
L 760.029231 61.61094 
L 775.329322 61.61094 
L 790.629414 61.61094 
L 805.929505 61.61094 
" clip-path="url(#p3b1776b90e)" style="fill: none; stroke: #8c564b; stroke-width: 1.5; stroke-linecap: square"/>
    <defs>
     <path id="m1174e28805" d="M 0 3.5 
C 0.928211 3.5 1.81853 3.131218 2.474874 2.474874 
C 3.131218 1.81853 3.5 0.928211 3.5 0 
C 3.5 -0.928211 3.131218 -1.81853 2.474874 -2.474874 
C 1.81853 -3.131218 0.928211 -3.5 0 -3.5 
C -0.928211 -3.5 -1.81853 -3.131218 -2.474874 -2.474874 
C -3.131218 -1.81853 -3.5 -0.928211 -3.5 0 
C -3.5 0.928211 -3.131218 1.81853 -2.474874 2.474874 
C -1.81853 3.131218 -0.928211 3.5 0 3.5 
z
" style="stroke: #8c564b"/>
    </defs>
    <g clip-path="url(#p3b1776b90e)">
     <use xlink:href="#m1174e28805" x="86.825215" y="380.656963" style="fill: #8c564b; stroke: #8c564b"/>
     <use xlink:href="#m1174e28805" x="102.125306" y="365.464296" style="fill: #8c564b; stroke: #8c564b"/>
     <use xlink:href="#m1174e28805" x="117.425397" y="354.069795" style="fill: #8c564b; stroke: #8c564b"/>
     <use xlink:href="#m1174e28805" x="132.725488" y="328.748682" style="fill: #8c564b; stroke: #8c564b"/>
     <use xlink:href="#m1174e28805" x="148.02558" y="309.757847" style="fill: #8c564b; stroke: #8c564b"/>
     <use xlink:href="#m1174e28805" x="163.325671" y="304.693624" style="fill: #8c564b; stroke: #8c564b"/>
     <use xlink:href="#m1174e28805" x="178.625762" y="295.831235" style="fill: #8c564b; stroke: #8c564b"/>
     <use xlink:href="#m1174e28805" x="193.925854" y="280.638567" style="fill: #8c564b; stroke: #8c564b"/>
     <use xlink:href="#m1174e28805" x="209.225945" y="236.326619" style="fill: #8c564b; stroke: #8c564b"/>
     <use xlink:href="#m1174e28805" x="224.526036" y="204.675228" style="fill: #8c564b; stroke: #8c564b"/>
     <use xlink:href="#m1174e28805" x="239.826127" y="166.693559" style="fill: #8c564b; stroke: #8c564b"/>
     <use xlink:href="#m1174e28805" x="255.126219" y="142.638501" style="fill: #8c564b; stroke: #8c564b"/>
     <use xlink:href="#m1174e28805" x="270.42631" y="93.262331" style="fill: #8c564b; stroke: #8c564b"/>
     <use xlink:href="#m1174e28805" x="316.326584" y="93.262331" style="fill: #8c564b; stroke: #8c564b"/>
     <use xlink:href="#m1174e28805" x="331.626675" y="93.262331" style="fill: #8c564b; stroke: #8c564b"/>
     <use xlink:href="#m1174e28805" x="346.926766" y="93.262331" style="fill: #8c564b; stroke: #8c564b"/>
     <use xlink:href="#m1174e28805" x="362.226858" y="93.262331" style="fill: #8c564b; stroke: #8c564b"/>
     <use xlink:href="#m1174e28805" x="377.526949" y="93.262331" style="fill: #8c564b; stroke: #8c564b"/>
     <use xlink:href="#m1174e28805" x="408.127132" y="93.262331" style="fill: #8c564b; stroke: #8c564b"/>
     <use xlink:href="#m1174e28805" x="423.427223" y="93.262331" style="fill: #8c564b; stroke: #8c564b"/>
     <use xlink:href="#m1174e28805" x="438.727314" y="93.262331" style="fill: #8c564b; stroke: #8c564b"/>
     <use xlink:href="#m1174e28805" x="454.027405" y="93.262331" style="fill: #8c564b; stroke: #8c564b"/>
     <use xlink:href="#m1174e28805" x="469.327497" y="93.262331" style="fill: #8c564b; stroke: #8c564b"/>
     <use xlink:href="#m1174e28805" x="484.627588" y="93.262331" style="fill: #8c564b; stroke: #8c564b"/>
     <use xlink:href="#m1174e28805" x="499.927679" y="93.262331" style="fill: #8c564b; stroke: #8c564b"/>
     <use xlink:href="#m1174e28805" x="515.227771" y="93.262331" style="fill: #8c564b; stroke: #8c564b"/>
     <use xlink:href="#m1174e28805" x="530.527862" y="93.262331" style="fill: #8c564b; stroke: #8c564b"/>
     <use xlink:href="#m1174e28805" x="545.827953" y="93.262331" style="fill: #8c564b; stroke: #8c564b"/>
     <use xlink:href="#m1174e28805" x="561.128044" y="61.61094" style="fill: #8c564b; stroke: #8c564b"/>
     <use xlink:href="#m1174e28805" x="576.428136" y="61.61094" style="fill: #8c564b; stroke: #8c564b"/>
     <use xlink:href="#m1174e28805" x="591.728227" y="61.61094" style="fill: #8c564b; stroke: #8c564b"/>
     <use xlink:href="#m1174e28805" x="607.028318" y="61.61094" style="fill: #8c564b; stroke: #8c564b"/>
     <use xlink:href="#m1174e28805" x="622.32841" y="61.61094" style="fill: #8c564b; stroke: #8c564b"/>
     <use xlink:href="#m1174e28805" x="637.628501" y="61.61094" style="fill: #8c564b; stroke: #8c564b"/>
     <use xlink:href="#m1174e28805" x="652.928592" y="61.61094" style="fill: #8c564b; stroke: #8c564b"/>
     <use xlink:href="#m1174e28805" x="668.228683" y="61.61094" style="fill: #8c564b; stroke: #8c564b"/>
     <use xlink:href="#m1174e28805" x="683.528775" y="61.61094" style="fill: #8c564b; stroke: #8c564b"/>
     <use xlink:href="#m1174e28805" x="698.828866" y="61.61094" style="fill: #8c564b; stroke: #8c564b"/>
     <use xlink:href="#m1174e28805" x="714.128957" y="61.61094" style="fill: #8c564b; stroke: #8c564b"/>
     <use xlink:href="#m1174e28805" x="729.429049" y="61.61094" style="fill: #8c564b; stroke: #8c564b"/>
     <use xlink:href="#m1174e28805" x="744.72914" y="61.61094" style="fill: #8c564b; stroke: #8c564b"/>
     <use xlink:href="#m1174e28805" x="760.029231" y="61.61094" style="fill: #8c564b; stroke: #8c564b"/>
     <use xlink:href="#m1174e28805" x="775.329322" y="61.61094" style="fill: #8c564b; stroke: #8c564b"/>
     <use xlink:href="#m1174e28805" x="790.629414" y="61.61094" style="fill: #8c564b; stroke: #8c564b"/>
     <use xlink:href="#m1174e28805" x="805.929505" y="61.61094" style="fill: #8c564b; stroke: #8c564b"/>
    </g>
   </g>
   <g id="patch_3">
    <path d="M 50.87 404.12 
L 50.87 26.88 
" style="fill: none; stroke: #000000; stroke-width: 0.8; stroke-linejoin: miter; stroke-linecap: square"/>
   </g>
   <g id="patch_4">
    <path d="M 841.88472 404.12 
L 841.88472 26.88 
" style="fill: none; stroke: #000000; stroke-width: 0.8; stroke-linejoin: miter; stroke-linecap: square"/>
   </g>
   <g id="patch_5">
    <path d="M 50.87 404.12 
L 841.88472 404.12 
" style="fill: none; stroke: #000000; stroke-width: 0.8; stroke-linejoin: miter; stroke-linecap: square"/>
   </g>
   <g id="patch_6">
    <path d="M 50.87 26.88 
L 841.88472 26.88 
" style="fill: none; stroke: #000000; stroke-width: 0.8; stroke-linejoin: miter; stroke-linecap: square"/>
   </g>
   <g id="text_15">
    <!-- Standings -->
    <g transform="translate(416.52361 20.88) scale(0.12 -0.12)">
     <defs>
      <path id="DejaVuSans-74" d="M 1172 4494 
L 1172 3500 
L 2356 3500 
L 2356 3053 
L 1172 3053 
L 1172 1153 
Q 1172 725 1289 603 
Q 1406 481 1766 481 
L 2356 481 
L 2356 0 
L 1766 0 
Q 1100 0 847 248 
Q 594 497 594 1153 
L 594 3053 
L 172 3053 
L 172 3500 
L 594 3500 
L 594 4494 
L 1172 4494 
z
" transform="scale(0.015625)"/>
      <path id="DejaVuSans-61" d="M 2194 1759 
Q 1497 1759 1228 1600 
Q 959 1441 959 1056 
Q 959 750 1161 570 
Q 1363 391 1709 391 
Q 2188 391 2477 730 
Q 2766 1069 2766 1631 
L 2766 1759 
L 2194 1759 
z
M 3341 1997 
L 3341 0 
L 2766 0 
L 2766 531 
Q 2569 213 2275 61 
Q 1981 -91 1556 -91 
Q 1019 -91 701 211 
Q 384 513 384 1019 
Q 384 1609 779 1909 
Q 1175 2209 1959 2209 
L 2766 2209 
L 2766 2266 
Q 2766 2663 2505 2880 
Q 2244 3097 1772 3097 
Q 1472 3097 1187 3025 
Q 903 2953 641 2809 
L 641 3341 
Q 956 3463 1253 3523 
Q 1550 3584 1831 3584 
Q 2591 3584 2966 3190 
Q 3341 2797 3341 1997 
z
" transform="scale(0.015625)"/>
      <path id="DejaVuSans-6e" d="M 3513 2113 
L 3513 0 
L 2938 0 
L 2938 2094 
Q 2938 2591 2744 2837 
Q 2550 3084 2163 3084 
Q 1697 3084 1428 2787 
Q 1159 2491 1159 1978 
L 1159 0 
L 581 0 
L 581 3500 
L 1159 3500 
L 1159 2956 
Q 1366 3272 1645 3428 
Q 1925 3584 2291 3584 
Q 2894 3584 3203 3211 
Q 3513 2838 3513 2113 
z
" transform="scale(0.015625)"/>
      <path id="DejaVuSans-64" d="M 2906 2969 
L 2906 4863 
L 3481 4863 
L 3481 0 
L 2906 0 
L 2906 525 
Q 2725 213 2448 61 
Q 2172 -91 1784 -91 
Q 1150 -91 751 415 
Q 353 922 353 1747 
Q 353 2572 751 3078 
Q 1150 3584 1784 3584 
Q 2172 3584 2448 3432 
Q 2725 3281 2906 2969 
z
M 947 1747 
Q 947 1113 1208 752 
Q 1469 391 1925 391 
Q 2381 391 2643 752 
Q 2906 1113 2906 1747 
Q 2906 2381 2643 2742 
Q 2381 3103 1925 3103 
Q 1469 3103 1208 2742 
Q 947 2381 947 1747 
z
" transform="scale(0.015625)"/>
      <path id="DejaVuSans-69" d="M 603 3500 
L 1178 3500 
L 1178 0 
L 603 0 
L 603 3500 
z
M 603 4863 
L 1178 4863 
L 1178 4134 
L 603 4134 
L 603 4863 
z
" transform="scale(0.015625)"/>
      <path id="DejaVuSans-67" d="M 2906 1791 
Q 2906 2416 2648 2759 
Q 2391 3103 1925 3103 
Q 1463 3103 1205 2759 
Q 947 2416 947 1791 
Q 947 1169 1205 825 
Q 1463 481 1925 481 
Q 2391 481 2648 825 
Q 2906 1169 2906 1791 
z
M 3481 434 
Q 3481 -459 3084 -895 
Q 2688 -1331 1869 -1331 
Q 1566 -1331 1297 -1286 
Q 1028 -1241 775 -1147 
L 775 -588 
Q 1028 -725 1275 -790 
Q 1522 -856 1778 -856 
Q 2344 -856 2625 -561 
Q 2906 -266 2906 331 
L 2906 616 
Q 2728 306 2450 153 
Q 2172 0 1784 0 
Q 1141 0 747 490 
Q 353 981 353 1791 
Q 353 2603 747 3093 
Q 1141 3584 1784 3584 
Q 2172 3584 2450 3431 
Q 2728 3278 2906 2969 
L 2906 3500 
L 3481 3500 
L 3481 434 
z
" transform="scale(0.015625)"/>
      <path id="DejaVuSans-73" d="M 2834 3397 
L 2834 2853 
Q 2591 2978 2328 3040 
Q 2066 3103 1784 3103 
Q 1356 3103 1142 2972 
Q 928 2841 928 2578 
Q 928 2378 1081 2264 
Q 1234 2150 1697 2047 
L 1894 2003 
Q 2506 1872 2764 1633 
Q 3022 1394 3022 966 
Q 3022 478 2636 193 
Q 2250 -91 1575 -91 
Q 1294 -91 989 -36 
Q 684 19 347 128 
L 347 722 
Q 666 556 975 473 
Q 1284 391 1588 391 
Q 1994 391 2212 530 
Q 2431 669 2431 922 
Q 2431 1156 2273 1281 
Q 2116 1406 1581 1522 
L 1381 1569 
Q 847 1681 609 1914 
Q 372 2147 372 2553 
Q 372 3047 722 3315 
Q 1072 3584 1716 3584 
Q 2034 3584 2315 3537 
Q 2597 3491 2834 3397 
z
" transform="scale(0.015625)"/>
     </defs>
     <use xlink:href="#DejaVuSans-53"/>
     <use xlink:href="#DejaVuSans-74" x="63.476562"/>
     <use xlink:href="#DejaVuSans-61" x="102.685547"/>
     <use xlink:href="#DejaVuSans-6e" x="163.964844"/>
     <use xlink:href="#DejaVuSans-64" x="227.34375"/>
     <use xlink:href="#DejaVuSans-69" x="290.820312"/>
     <use xlink:href="#DejaVuSans-6e" x="318.603516"/>
     <use xlink:href="#DejaVuSans-67" x="381.982422"/>
     <use xlink:href="#DejaVuSans-73" x="445.458984"/>
    </g>
   </g>
   <g id="legend_1">
    <g id="patch_7">
     <path d="M 57.87 122.94875 
L 143.37 122.94875 
Q 145.37 122.94875 145.37 120.94875 
L 145.37 33.88 
Q 145.37 31.88 143.37 31.88 
L 57.87 31.88 
Q 55.87 31.88 55.87 33.88 
L 55.87 120.94875 
Q 55.87 122.94875 57.87 122.94875 
z
" style="fill: #ffffff; opacity: 0.8; stroke: #cccccc; stroke-linejoin: miter"/>
    </g>
    <g id="line2d_33">
     <path d="M 59.87 39.978438 
L 69.87 39.978438 
L 79.87 39.978438 
" style="fill: none; stroke: #1f77b4; stroke-width: 1.5; stroke-linecap: square"/>
     <g>
      <use xlink:href="#m2c9a8e16b2" x="69.87" y="39.978438" style="fill: #1f77b4; stroke: #1f77b4"/>
     </g>
    </g>
    <g id="text_16">
     <!-- Matias BN -->
     <g transform="translate(87.87 43.478438) scale(0.1 -0.1)">
      <defs>
       <path id="DejaVuSans-4d" d="M 628 4666 
L 1569 4666 
L 2759 1491 
L 3956 4666 
L 4897 4666 
L 4897 0 
L 4281 0 
L 4281 4097 
L 3078 897 
L 2444 897 
L 1241 4097 
L 1241 0 
L 628 0 
L 628 4666 
z
" transform="scale(0.015625)"/>
       <path id="DejaVuSans-20" transform="scale(0.015625)"/>
       <path id="DejaVuSans-42" d="M 1259 2228 
L 1259 519 
L 2272 519 
Q 2781 519 3026 730 
Q 3272 941 3272 1375 
Q 3272 1813 3026 2020 
Q 2781 2228 2272 2228 
L 1259 2228 
z
M 1259 4147 
L 1259 2741 
L 2194 2741 
Q 2656 2741 2882 2914 
Q 3109 3088 3109 3444 
Q 3109 3797 2882 3972 
Q 2656 4147 2194 4147 
L 1259 4147 
z
M 628 4666 
L 2241 4666 
Q 2963 4666 3353 4366 
Q 3744 4066 3744 3513 
Q 3744 3084 3544 2831 
Q 3344 2578 2956 2516 
Q 3422 2416 3680 2098 
Q 3938 1781 3938 1306 
Q 3938 681 3513 340 
Q 3088 0 2303 0 
L 628 0 
L 628 4666 
z
" transform="scale(0.015625)"/>
       <path id="DejaVuSans-4e" d="M 628 4666 
L 1478 4666 
L 3547 763 
L 3547 4666 
L 4159 4666 
L 4159 0 
L 3309 0 
L 1241 3903 
L 1241 0 
L 628 0 
L 628 4666 
z
" transform="scale(0.015625)"/>
      </defs>
      <use xlink:href="#DejaVuSans-4d"/>
      <use xlink:href="#DejaVuSans-61" x="86.279297"/>
      <use xlink:href="#DejaVuSans-74" x="147.558594"/>
      <use xlink:href="#DejaVuSans-69" x="186.767578"/>
      <use xlink:href="#DejaVuSans-61" x="214.550781"/>
      <use xlink:href="#DejaVuSans-73" x="275.830078"/>
      <use xlink:href="#DejaVuSans-20" x="327.929688"/>
      <use xlink:href="#DejaVuSans-42" x="359.716797"/>
      <use xlink:href="#DejaVuSans-4e" x="428.320312"/>
     </g>
    </g>
    <g id="line2d_34">
     <path d="M 59.87 54.656563 
L 69.87 54.656563 
L 79.87 54.656563 
" style="fill: none; stroke: #ff7f0e; stroke-width: 1.5; stroke-linecap: square"/>
     <g>
      <use xlink:href="#m2575804ec8" x="69.87" y="54.656563" style="fill: #ff7f0e; stroke: #ff7f0e"/>
     </g>
    </g>
    <g id="text_17">
     <!-- Mattias Ra -->
     <g transform="translate(87.87 58.156563) scale(0.1 -0.1)">
      <defs>
       <path id="DejaVuSans-52" d="M 2841 2188 
Q 3044 2119 3236 1894 
Q 3428 1669 3622 1275 
L 4263 0 
L 3584 0 
L 2988 1197 
Q 2756 1666 2539 1819 
Q 2322 1972 1947 1972 
L 1259 1972 
L 1259 0 
L 628 0 
L 628 4666 
L 2053 4666 
Q 2853 4666 3247 4331 
Q 3641 3997 3641 3322 
Q 3641 2881 3436 2590 
Q 3231 2300 2841 2188 
z
M 1259 4147 
L 1259 2491 
L 2053 2491 
Q 2509 2491 2742 2702 
Q 2975 2913 2975 3322 
Q 2975 3731 2742 3939 
Q 2509 4147 2053 4147 
L 1259 4147 
z
" transform="scale(0.015625)"/>
      </defs>
      <use xlink:href="#DejaVuSans-4d"/>
      <use xlink:href="#DejaVuSans-61" x="86.279297"/>
      <use xlink:href="#DejaVuSans-74" x="147.558594"/>
      <use xlink:href="#DejaVuSans-74" x="186.767578"/>
      <use xlink:href="#DejaVuSans-69" x="225.976562"/>
      <use xlink:href="#DejaVuSans-61" x="253.759766"/>
      <use xlink:href="#DejaVuSans-73" x="315.039062"/>
      <use xlink:href="#DejaVuSans-20" x="367.138672"/>
      <use xlink:href="#DejaVuSans-52" x="398.925781"/>
      <use xlink:href="#DejaVuSans-61" x="466.158203"/>
     </g>
    </g>
    <g id="line2d_35">
     <path d="M 59.87 69.334688 
L 69.87 69.334688 
L 79.87 69.334688 
" style="fill: none; stroke: #2ca02c; stroke-width: 1.5; stroke-linecap: square"/>
     <g>
      <use xlink:href="#mefcbaea567" x="69.87" y="69.334688" style="fill: #2ca02c; stroke: #2ca02c"/>
     </g>
    </g>
    <g id="text_18">
     <!-- Simon Bo -->
     <g transform="translate(87.87 72.834688) scale(0.1 -0.1)">
      <defs>
       <path id="DejaVuSans-6d" d="M 3328 2828 
Q 3544 3216 3844 3400 
Q 4144 3584 4550 3584 
Q 5097 3584 5394 3201 
Q 5691 2819 5691 2113 
L 5691 0 
L 5113 0 
L 5113 2094 
Q 5113 2597 4934 2840 
Q 4756 3084 4391 3084 
Q 3944 3084 3684 2787 
Q 3425 2491 3425 1978 
L 3425 0 
L 2847 0 
L 2847 2094 
Q 2847 2600 2669 2842 
Q 2491 3084 2119 3084 
Q 1678 3084 1418 2786 
Q 1159 2488 1159 1978 
L 1159 0 
L 581 0 
L 581 3500 
L 1159 3500 
L 1159 2956 
Q 1356 3278 1631 3431 
Q 1906 3584 2284 3584 
Q 2666 3584 2933 3390 
Q 3200 3197 3328 2828 
z
" transform="scale(0.015625)"/>
      </defs>
      <use xlink:href="#DejaVuSans-53"/>
      <use xlink:href="#DejaVuSans-69" x="63.476562"/>
      <use xlink:href="#DejaVuSans-6d" x="91.259766"/>
      <use xlink:href="#DejaVuSans-6f" x="188.671875"/>
      <use xlink:href="#DejaVuSans-6e" x="249.853516"/>
      <use xlink:href="#DejaVuSans-20" x="313.232422"/>
      <use xlink:href="#DejaVuSans-42" x="345.019531"/>
      <use xlink:href="#DejaVuSans-6f" x="413.623047"/>
     </g>
    </g>
    <g id="line2d_36">
     <path d="M 59.87 84.012813 
L 69.87 84.012813 
L 79.87 84.012813 
" style="fill: none; stroke: #d62728; stroke-width: 1.5; stroke-linecap: square"/>
     <g>
      <use xlink:href="#m9613f1230e" x="69.87" y="84.012813" style="fill: #d62728; stroke: #d62728"/>
     </g>
    </g>
    <g id="text_19">
     <!-- Kristian Se -->
     <g transform="translate(87.87 87.512813) scale(0.1 -0.1)">
      <defs>
       <path id="DejaVuSans-4b" d="M 628 4666 
L 1259 4666 
L 1259 2694 
L 3353 4666 
L 4166 4666 
L 1850 2491 
L 4331 0 
L 3500 0 
L 1259 2247 
L 1259 0 
L 628 0 
L 628 4666 
z
" transform="scale(0.015625)"/>
      </defs>
      <use xlink:href="#DejaVuSans-4b"/>
      <use xlink:href="#DejaVuSans-72" x="65.576172"/>
      <use xlink:href="#DejaVuSans-69" x="106.689453"/>
      <use xlink:href="#DejaVuSans-73" x="134.472656"/>
      <use xlink:href="#DejaVuSans-74" x="186.572266"/>
      <use xlink:href="#DejaVuSans-69" x="225.78125"/>
      <use xlink:href="#DejaVuSans-61" x="253.564453"/>
      <use xlink:href="#DejaVuSans-6e" x="314.84375"/>
      <use xlink:href="#DejaVuSans-20" x="378.222656"/>
      <use xlink:href="#DejaVuSans-53" x="410.009766"/>
      <use xlink:href="#DejaVuSans-65" x="473.486328"/>
     </g>
    </g>
    <g id="line2d_37">
     <path d="M 59.87 98.690938 
L 69.87 98.690938 
L 79.87 98.690938 
" style="fill: none; stroke: #9467bd; stroke-width: 1.5; stroke-linecap: square"/>
     <g>
      <use xlink:href="#me2ceb50988" x="69.87" y="98.690938" style="fill: #9467bd; stroke: #9467bd"/>
     </g>
    </g>
    <g id="text_20">
     <!-- Jesper M -->
     <g transform="translate(87.87 102.190938) scale(0.1 -0.1)">
      <defs>
       <path id="DejaVuSans-4a" d="M 628 4666 
L 1259 4666 
L 1259 325 
Q 1259 -519 939 -900 
Q 619 -1281 -91 -1281 
L -331 -1281 
L -331 -750 
L -134 -750 
Q 284 -750 456 -515 
Q 628 -281 628 325 
L 628 4666 
z
" transform="scale(0.015625)"/>
       <path id="DejaVuSans-70" d="M 1159 525 
L 1159 -1331 
L 581 -1331 
L 581 3500 
L 1159 3500 
L 1159 2969 
Q 1341 3281 1617 3432 
Q 1894 3584 2278 3584 
Q 2916 3584 3314 3078 
Q 3713 2572 3713 1747 
Q 3713 922 3314 415 
Q 2916 -91 2278 -91 
Q 1894 -91 1617 61 
Q 1341 213 1159 525 
z
M 3116 1747 
Q 3116 2381 2855 2742 
Q 2594 3103 2138 3103 
Q 1681 3103 1420 2742 
Q 1159 2381 1159 1747 
Q 1159 1113 1420 752 
Q 1681 391 2138 391 
Q 2594 391 2855 752 
Q 3116 1113 3116 1747 
z
" transform="scale(0.015625)"/>
       <path id="DejaVuSans-f8" d="M 2828 2503 
L 1306 653 
Q 1434 522 1595 459 
Q 1756 397 1959 397 
Q 2419 397 2687 759 
Q 2956 1122 2956 1747 
Q 2956 1994 2925 2176 
Q 2894 2359 2828 2503 
z
M 2606 2841 
Q 2475 2969 2314 3033 
Q 2153 3097 1959 3097 
Q 1488 3097 1223 2730 
Q 959 2363 959 1703 
Q 959 1478 989 1306 
Q 1019 1134 1081 991 
L 2606 2841 
z
M 691 519 
Q 522 759 437 1067 
Q 353 1375 353 1747 
Q 353 2609 779 3096 
Q 1206 3584 1959 3584 
Q 2250 3584 2498 3504 
Q 2747 3425 2956 3263 
L 3391 3788 
L 3688 3541 
L 3231 2981 
Q 3397 2741 3481 2431 
Q 3566 2122 3566 1747 
Q 3566 888 3137 398 
Q 2709 -91 1959 -91 
Q 1659 -91 1407 -9 
Q 1156 72 959 231 
L 525 -294 
L 225 -50 
L 691 519 
z
" transform="scale(0.015625)"/>
      </defs>
      <use xlink:href="#DejaVuSans-4a"/>
      <use xlink:href="#DejaVuSans-65" x="29.492188"/>
      <use xlink:href="#DejaVuSans-73" x="91.015625"/>
      <use xlink:href="#DejaVuSans-70" x="143.115234"/>
      <use xlink:href="#DejaVuSans-65" x="206.591797"/>
      <use xlink:href="#DejaVuSans-72" x="268.115234"/>
      <use xlink:href="#DejaVuSans-20" x="309.228516"/>
      <use xlink:href="#DejaVuSans-4d" x="341.015625"/>
      <use xlink:href="#DejaVuSans-f8" x="427.294922"/>
     </g>
    </g>
    <g id="line2d_38">
     <path d="M 59.87 113.369063 
L 69.87 113.369063 
L 79.87 113.369063 
" style="fill: none; stroke: #8c564b; stroke-width: 1.5; stroke-linecap: square"/>
     <g>
      <use xlink:href="#m1174e28805" x="69.87" y="113.369063" style="fill: #8c564b; stroke: #8c564b"/>
     </g>
    </g>
    <g id="text_21">
     <!-- Ayman Ka -->
     <g transform="translate(87.87 116.869063) scale(0.1 -0.1)">
      <defs>
       <path id="DejaVuSans-41" d="M 2188 4044 
L 1331 1722 
L 3047 1722 
L 2188 4044 
z
M 1831 4666 
L 2547 4666 
L 4325 0 
L 3669 0 
L 3244 1197 
L 1141 1197 
L 716 0 
L 50 0 
L 1831 4666 
z
" transform="scale(0.015625)"/>
       <path id="DejaVuSans-79" d="M 2059 -325 
Q 1816 -950 1584 -1140 
Q 1353 -1331 966 -1331 
L 506 -1331 
L 506 -850 
L 844 -850 
Q 1081 -850 1212 -737 
Q 1344 -625 1503 -206 
L 1606 56 
L 191 3500 
L 800 3500 
L 1894 763 
L 2988 3500 
L 3597 3500 
L 2059 -325 
z
" transform="scale(0.015625)"/>
      </defs>
      <use xlink:href="#DejaVuSans-41"/>
      <use xlink:href="#DejaVuSans-79" x="61.658203"/>
      <use xlink:href="#DejaVuSans-6d" x="120.837891"/>
      <use xlink:href="#DejaVuSans-61" x="218.25"/>
      <use xlink:href="#DejaVuSans-6e" x="279.529297"/>
      <use xlink:href="#DejaVuSans-20" x="342.908203"/>
      <use xlink:href="#DejaVuSans-4b" x="374.695312"/>
      <use xlink:href="#DejaVuSans-61" x="438.521484"/>
     </g>
    </g>
   </g>
  </g>
 </g>
 <defs>
  <clipPath id="p3b1776b90e">
   <rect x="50.87" y="26.88" width="791.01472" height="377.24"/>
  </clipPath>
 </defs>
</svg>
