<?xml version="1.0" encoding="utf-8" standalone="no"?>
<!DOCTYPE svg PUBLIC "-//W3C//DTD SVG 1.1//EN"
  "http://www.w3.org/Graphics/SVG/1.1/DTD/svg11.dtd">
<svg xmlns:xlink="http://www.w3.org/1999/xlink" width="864pt" height="432pt" viewBox="0 0 864 432" xmlns="http://www.w3.org/2000/svg" version="1.1">
 <metadata>
  <rdf:RDF xmlns:dc="http://purl.org/dc/elements/1.1/" xmlns:cc="http://creativecommons.org/ns#" xmlns:rdf="http://www.w3.org/1999/02/22-rdf-syntax-ns#">
   <cc:Work>
    <dc:type rdf:resource="http://purl.org/dc/dcmitype/StillImage"/>
    <dc:date>2024-07-10T12:48:15.832462</dc:date>
    <dc:format>image/svg+xml</dc:format>
    <dc:creator>
     <cc:Agent>
      <dc:title>Matplotlib v3.9.1, https://matplotlib.org/</dc:title>
     </cc:Agent>
    </dc:creator>
   </cc:Work>
  </rdf:RDF>
 </metadata>
 <defs>
  <style type="text/css">*{stroke-linejoin: round; stroke-linecap: butt}</style>
 </defs>
 <g id="figure_1">
  <g id="patch_1">
   <path d="M 0 432 
L 864 432 
L 864 0 
L 0 0 
z
" style="fill: #ffffff"/>
  </g>
  <g id="axes_1">
   <g id="patch_2">
    <path d="M 50.87 404.12 
L 853.2 404.12 
L 853.2 26.88 
L 50.87 26.88 
z
" style="fill: #ffffff"/>
   </g>
   <g id="matplotlib.axis_1">
    <g id="xtick_1">
     <g id="line2d_1">
      <path d="M 59.286049 404.12 
L 59.286049 26.88 
" clip-path="url(#pb73bf0ed1b)" style="fill: none; stroke-dasharray: 2.96,1.28; stroke-dashoffset: 0; stroke: #b0b0b0; stroke-width: 0.8"/>
     </g>
     <g id="line2d_2">
      <defs>
       <path id="ma1919b3f6e" d="M 0 0 
L 0 3.5 
" style="stroke: #000000; stroke-width: 0.8"/>
      </defs>
      <g>
       <use xlink:href="#ma1919b3f6e" x="59.286049" y="404.12" style="stroke: #000000; stroke-width: 0.8"/>
      </g>
     </g>
     <g id="text_1">
      <!-- 2024-06-13 -->
      <g transform="translate(30.228236 418.718437) scale(0.1 -0.1)">
       <defs>
        <path id="DejaVuSans-32" d="M 1228 531 
L 3431 531 
L 3431 0 
L 469 0 
L 469 531 
Q 828 903 1448 1529 
Q 2069 2156 2228 2338 
Q 2531 2678 2651 2914 
Q 2772 3150 2772 3378 
Q 2772 3750 2511 3984 
Q 2250 4219 1831 4219 
Q 1534 4219 1204 4116 
Q 875 4013 500 3803 
L 500 4441 
Q 881 4594 1212 4672 
Q 1544 4750 1819 4750 
Q 2544 4750 2975 4387 
Q 3406 4025 3406 3419 
Q 3406 3131 3298 2873 
Q 3191 2616 2906 2266 
Q 2828 2175 2409 1742 
Q 1991 1309 1228 531 
z
" transform="scale(0.015625)"/>
        <path id="DejaVuSans-30" d="M 2034 4250 
Q 1547 4250 1301 3770 
Q 1056 3291 1056 2328 
Q 1056 1369 1301 889 
Q 1547 409 2034 409 
Q 2525 409 2770 889 
Q 3016 1369 3016 2328 
Q 3016 3291 2770 3770 
Q 2525 4250 2034 4250 
z
M 2034 4750 
Q 2819 4750 3233 4129 
Q 3647 3509 3647 2328 
Q 3647 1150 3233 529 
Q 2819 -91 2034 -91 
Q 1250 -91 836 529 
Q 422 1150 422 2328 
Q 422 3509 836 4129 
Q 1250 4750 2034 4750 
z
" transform="scale(0.015625)"/>
        <path id="DejaVuSans-34" d="M 2419 4116 
L 825 1625 
L 2419 1625 
L 2419 4116 
z
M 2253 4666 
L 3047 4666 
L 3047 1625 
L 3713 1625 
L 3713 1100 
L 3047 1100 
L 3047 0 
L 2419 0 
L 2419 1100 
L 313 1100 
L 313 1709 
L 2253 4666 
z
" transform="scale(0.015625)"/>
        <path id="DejaVuSans-2d" d="M 313 2009 
L 1997 2009 
L 1997 1497 
L 313 1497 
L 313 2009 
z
" transform="scale(0.015625)"/>
        <path id="DejaVuSans-36" d="M 2113 2584 
Q 1688 2584 1439 2293 
Q 1191 2003 1191 1497 
Q 1191 994 1439 701 
Q 1688 409 2113 409 
Q 2538 409 2786 701 
Q 3034 994 3034 1497 
Q 3034 2003 2786 2293 
Q 2538 2584 2113 2584 
z
M 3366 4563 
L 3366 3988 
Q 3128 4100 2886 4159 
Q 2644 4219 2406 4219 
Q 1781 4219 1451 3797 
Q 1122 3375 1075 2522 
Q 1259 2794 1537 2939 
Q 1816 3084 2150 3084 
Q 2853 3084 3261 2657 
Q 3669 2231 3669 1497 
Q 3669 778 3244 343 
Q 2819 -91 2113 -91 
Q 1303 -91 875 529 
Q 447 1150 447 2328 
Q 447 3434 972 4092 
Q 1497 4750 2381 4750 
Q 2619 4750 2861 4703 
Q 3103 4656 3366 4563 
z
" transform="scale(0.015625)"/>
        <path id="DejaVuSans-31" d="M 794 531 
L 1825 531 
L 1825 4091 
L 703 3866 
L 703 4441 
L 1819 4666 
L 2450 4666 
L 2450 531 
L 3481 531 
L 3481 0 
L 794 0 
L 794 531 
z
" transform="scale(0.015625)"/>
        <path id="DejaVuSans-33" d="M 2597 2516 
Q 3050 2419 3304 2112 
Q 3559 1806 3559 1356 
Q 3559 666 3084 287 
Q 2609 -91 1734 -91 
Q 1441 -91 1130 -33 
Q 819 25 488 141 
L 488 750 
Q 750 597 1062 519 
Q 1375 441 1716 441 
Q 2309 441 2620 675 
Q 2931 909 2931 1356 
Q 2931 1769 2642 2001 
Q 2353 2234 1838 2234 
L 1294 2234 
L 1294 2753 
L 1863 2753 
Q 2328 2753 2575 2939 
Q 2822 3125 2822 3475 
Q 2822 3834 2567 4026 
Q 2313 4219 1838 4219 
Q 1578 4219 1281 4162 
Q 984 4106 628 3988 
L 628 4550 
Q 988 4650 1302 4700 
Q 1616 4750 1894 4750 
Q 2613 4750 3031 4423 
Q 3450 4097 3450 3541 
Q 3450 3153 3228 2886 
Q 3006 2619 2597 2516 
z
" transform="scale(0.015625)"/>
       </defs>
       <use xlink:href="#DejaVuSans-32"/>
       <use xlink:href="#DejaVuSans-30" x="63.623047"/>
       <use xlink:href="#DejaVuSans-32" x="127.246094"/>
       <use xlink:href="#DejaVuSans-34" x="190.869141"/>
       <use xlink:href="#DejaVuSans-2d" x="254.492188"/>
       <use xlink:href="#DejaVuSans-30" x="290.576172"/>
       <use xlink:href="#DejaVuSans-36" x="354.199219"/>
       <use xlink:href="#DejaVuSans-2d" x="417.822266"/>
       <use xlink:href="#DejaVuSans-31" x="453.90625"/>
       <use xlink:href="#DejaVuSans-33" x="517.529297"/>
      </g>
     </g>
    </g>
    <g id="xtick_2">
     <g id="line2d_3">
      <path d="M 171.500035 404.12 
L 171.500035 26.88 
" clip-path="url(#pb73bf0ed1b)" style="fill: none; stroke-dasharray: 2.96,1.28; stroke-dashoffset: 0; stroke: #b0b0b0; stroke-width: 0.8"/>
     </g>
     <g id="line2d_4">
      <g>
       <use xlink:href="#ma1919b3f6e" x="171.500035" y="404.12" style="stroke: #000000; stroke-width: 0.8"/>
      </g>
     </g>
     <g id="text_2">
      <!-- 2024-06-17 -->
      <g transform="translate(142.442222 418.718437) scale(0.1 -0.1)">
       <defs>
        <path id="DejaVuSans-37" d="M 525 4666 
L 3525 4666 
L 3525 4397 
L 1831 0 
L 1172 0 
L 2766 4134 
L 525 4134 
L 525 4666 
z
" transform="scale(0.015625)"/>
       </defs>
       <use xlink:href="#DejaVuSans-32"/>
       <use xlink:href="#DejaVuSans-30" x="63.623047"/>
       <use xlink:href="#DejaVuSans-32" x="127.246094"/>
       <use xlink:href="#DejaVuSans-34" x="190.869141"/>
       <use xlink:href="#DejaVuSans-2d" x="254.492188"/>
       <use xlink:href="#DejaVuSans-30" x="290.576172"/>
       <use xlink:href="#DejaVuSans-36" x="354.199219"/>
       <use xlink:href="#DejaVuSans-2d" x="417.822266"/>
       <use xlink:href="#DejaVuSans-31" x="453.90625"/>
       <use xlink:href="#DejaVuSans-37" x="517.529297"/>
      </g>
     </g>
    </g>
    <g id="xtick_3">
     <g id="line2d_5">
      <path d="M 283.714021 404.12 
L 283.714021 26.88 
" clip-path="url(#pb73bf0ed1b)" style="fill: none; stroke-dasharray: 2.96,1.28; stroke-dashoffset: 0; stroke: #b0b0b0; stroke-width: 0.8"/>
     </g>
     <g id="line2d_6">
      <g>
       <use xlink:href="#ma1919b3f6e" x="283.714021" y="404.12" style="stroke: #000000; stroke-width: 0.8"/>
      </g>
     </g>
     <g id="text_3">
      <!-- 2024-06-21 -->
      <g transform="translate(254.656208 418.718437) scale(0.1 -0.1)">
       <use xlink:href="#DejaVuSans-32"/>
       <use xlink:href="#DejaVuSans-30" x="63.623047"/>
       <use xlink:href="#DejaVuSans-32" x="127.246094"/>
       <use xlink:href="#DejaVuSans-34" x="190.869141"/>
       <use xlink:href="#DejaVuSans-2d" x="254.492188"/>
       <use xlink:href="#DejaVuSans-30" x="290.576172"/>
       <use xlink:href="#DejaVuSans-36" x="354.199219"/>
       <use xlink:href="#DejaVuSans-2d" x="417.822266"/>
       <use xlink:href="#DejaVuSans-32" x="453.90625"/>
       <use xlink:href="#DejaVuSans-31" x="517.529297"/>
      </g>
     </g>
    </g>
    <g id="xtick_4">
     <g id="line2d_7">
      <path d="M 395.928007 404.12 
L 395.928007 26.88 
" clip-path="url(#pb73bf0ed1b)" style="fill: none; stroke-dasharray: 2.96,1.28; stroke-dashoffset: 0; stroke: #b0b0b0; stroke-width: 0.8"/>
     </g>
     <g id="line2d_8">
      <g>
       <use xlink:href="#ma1919b3f6e" x="395.928007" y="404.12" style="stroke: #000000; stroke-width: 0.8"/>
      </g>
     </g>
     <g id="text_4">
      <!-- 2024-06-25 -->
      <g transform="translate(366.870194 418.718437) scale(0.1 -0.1)">
       <defs>
        <path id="DejaVuSans-35" d="M 691 4666 
L 3169 4666 
L 3169 4134 
L 1269 4134 
L 1269 2991 
Q 1406 3038 1543 3061 
Q 1681 3084 1819 3084 
Q 2600 3084 3056 2656 
Q 3513 2228 3513 1497 
Q 3513 744 3044 326 
Q 2575 -91 1722 -91 
Q 1428 -91 1123 -41 
Q 819 9 494 109 
L 494 744 
Q 775 591 1075 516 
Q 1375 441 1709 441 
Q 2250 441 2565 725 
Q 2881 1009 2881 1497 
Q 2881 1984 2565 2268 
Q 2250 2553 1709 2553 
Q 1456 2553 1204 2497 
Q 953 2441 691 2322 
L 691 4666 
z
" transform="scale(0.015625)"/>
       </defs>
       <use xlink:href="#DejaVuSans-32"/>
       <use xlink:href="#DejaVuSans-30" x="63.623047"/>
       <use xlink:href="#DejaVuSans-32" x="127.246094"/>
       <use xlink:href="#DejaVuSans-34" x="190.869141"/>
       <use xlink:href="#DejaVuSans-2d" x="254.492188"/>
       <use xlink:href="#DejaVuSans-30" x="290.576172"/>
       <use xlink:href="#DejaVuSans-36" x="354.199219"/>
       <use xlink:href="#DejaVuSans-2d" x="417.822266"/>
       <use xlink:href="#DejaVuSans-32" x="453.90625"/>
       <use xlink:href="#DejaVuSans-35" x="517.529297"/>
      </g>
     </g>
    </g>
    <g id="xtick_5">
     <g id="line2d_9">
      <path d="M 508.141993 404.12 
L 508.141993 26.88 
" clip-path="url(#pb73bf0ed1b)" style="fill: none; stroke-dasharray: 2.96,1.28; stroke-dashoffset: 0; stroke: #b0b0b0; stroke-width: 0.8"/>
     </g>
     <g id="line2d_10">
      <g>
       <use xlink:href="#ma1919b3f6e" x="508.141993" y="404.12" style="stroke: #000000; stroke-width: 0.8"/>
      </g>
     </g>
     <g id="text_5">
      <!-- 2024-06-29 -->
      <g transform="translate(479.084181 418.718437) scale(0.1 -0.1)">
       <defs>
        <path id="DejaVuSans-39" d="M 703 97 
L 703 672 
Q 941 559 1184 500 
Q 1428 441 1663 441 
Q 2288 441 2617 861 
Q 2947 1281 2994 2138 
Q 2813 1869 2534 1725 
Q 2256 1581 1919 1581 
Q 1219 1581 811 2004 
Q 403 2428 403 3163 
Q 403 3881 828 4315 
Q 1253 4750 1959 4750 
Q 2769 4750 3195 4129 
Q 3622 3509 3622 2328 
Q 3622 1225 3098 567 
Q 2575 -91 1691 -91 
Q 1453 -91 1209 -44 
Q 966 3 703 97 
z
M 1959 2075 
Q 2384 2075 2632 2365 
Q 2881 2656 2881 3163 
Q 2881 3666 2632 3958 
Q 2384 4250 1959 4250 
Q 1534 4250 1286 3958 
Q 1038 3666 1038 3163 
Q 1038 2656 1286 2365 
Q 1534 2075 1959 2075 
z
" transform="scale(0.015625)"/>
       </defs>
       <use xlink:href="#DejaVuSans-32"/>
       <use xlink:href="#DejaVuSans-30" x="63.623047"/>
       <use xlink:href="#DejaVuSans-32" x="127.246094"/>
       <use xlink:href="#DejaVuSans-34" x="190.869141"/>
       <use xlink:href="#DejaVuSans-2d" x="254.492188"/>
       <use xlink:href="#DejaVuSans-30" x="290.576172"/>
       <use xlink:href="#DejaVuSans-36" x="354.199219"/>
       <use xlink:href="#DejaVuSans-2d" x="417.822266"/>
       <use xlink:href="#DejaVuSans-32" x="453.90625"/>
       <use xlink:href="#DejaVuSans-39" x="517.529297"/>
      </g>
     </g>
    </g>
    <g id="xtick_6">
     <g id="line2d_11">
      <path d="M 564.248986 404.12 
L 564.248986 26.88 
" clip-path="url(#pb73bf0ed1b)" style="fill: none; stroke-dasharray: 2.96,1.28; stroke-dashoffset: 0; stroke: #b0b0b0; stroke-width: 0.8"/>
     </g>
     <g id="line2d_12">
      <g>
       <use xlink:href="#ma1919b3f6e" x="564.248986" y="404.12" style="stroke: #000000; stroke-width: 0.8"/>
      </g>
     </g>
     <g id="text_6">
      <!-- 2024-07-01 -->
      <g transform="translate(535.191174 418.718437) scale(0.1 -0.1)">
       <use xlink:href="#DejaVuSans-32"/>
       <use xlink:href="#DejaVuSans-30" x="63.623047"/>
       <use xlink:href="#DejaVuSans-32" x="127.246094"/>
       <use xlink:href="#DejaVuSans-34" x="190.869141"/>
       <use xlink:href="#DejaVuSans-2d" x="254.492188"/>
       <use xlink:href="#DejaVuSans-30" x="290.576172"/>
       <use xlink:href="#DejaVuSans-37" x="354.199219"/>
       <use xlink:href="#DejaVuSans-2d" x="417.822266"/>
       <use xlink:href="#DejaVuSans-30" x="453.90625"/>
       <use xlink:href="#DejaVuSans-31" x="517.529297"/>
      </g>
     </g>
    </g>
    <g id="xtick_7">
     <g id="line2d_13">
      <path d="M 676.462972 404.12 
L 676.462972 26.88 
" clip-path="url(#pb73bf0ed1b)" style="fill: none; stroke-dasharray: 2.96,1.28; stroke-dashoffset: 0; stroke: #b0b0b0; stroke-width: 0.8"/>
     </g>
     <g id="line2d_14">
      <g>
       <use xlink:href="#ma1919b3f6e" x="676.462972" y="404.12" style="stroke: #000000; stroke-width: 0.8"/>
      </g>
     </g>
     <g id="text_7">
      <!-- 2024-07-05 -->
      <g transform="translate(647.40516 418.718437) scale(0.1 -0.1)">
       <use xlink:href="#DejaVuSans-32"/>
       <use xlink:href="#DejaVuSans-30" x="63.623047"/>
       <use xlink:href="#DejaVuSans-32" x="127.246094"/>
       <use xlink:href="#DejaVuSans-34" x="190.869141"/>
       <use xlink:href="#DejaVuSans-2d" x="254.492188"/>
       <use xlink:href="#DejaVuSans-30" x="290.576172"/>
       <use xlink:href="#DejaVuSans-37" x="354.199219"/>
       <use xlink:href="#DejaVuSans-2d" x="417.822266"/>
       <use xlink:href="#DejaVuSans-30" x="453.90625"/>
       <use xlink:href="#DejaVuSans-35" x="517.529297"/>
      </g>
     </g>
    </g>
    <g id="xtick_8">
     <g id="line2d_15">
      <path d="M 788.676958 404.12 
L 788.676958 26.88 
" clip-path="url(#pb73bf0ed1b)" style="fill: none; stroke-dasharray: 2.96,1.28; stroke-dashoffset: 0; stroke: #b0b0b0; stroke-width: 0.8"/>
     </g>
     <g id="line2d_16">
      <g>
       <use xlink:href="#ma1919b3f6e" x="788.676958" y="404.12" style="stroke: #000000; stroke-width: 0.8"/>
      </g>
     </g>
     <g id="text_8">
      <!-- 2024-07-09 -->
      <g transform="translate(759.619146 418.718437) scale(0.1 -0.1)">
       <use xlink:href="#DejaVuSans-32"/>
       <use xlink:href="#DejaVuSans-30" x="63.623047"/>
       <use xlink:href="#DejaVuSans-32" x="127.246094"/>
       <use xlink:href="#DejaVuSans-34" x="190.869141"/>
       <use xlink:href="#DejaVuSans-2d" x="254.492188"/>
       <use xlink:href="#DejaVuSans-30" x="290.576172"/>
       <use xlink:href="#DejaVuSans-37" x="354.199219"/>
       <use xlink:href="#DejaVuSans-2d" x="417.822266"/>
       <use xlink:href="#DejaVuSans-30" x="453.90625"/>
       <use xlink:href="#DejaVuSans-39" x="517.529297"/>
      </g>
     </g>
    </g>
   </g>
   <g id="matplotlib.axis_2">
    <g id="ytick_1">
     <g id="line2d_17">
      <path d="M 50.87 393.845406 
L 853.2 393.845406 
" clip-path="url(#pb73bf0ed1b)" style="fill: none; stroke-dasharray: 2.96,1.28; stroke-dashoffset: 0; stroke: #b0b0b0; stroke-width: 0.8"/>
     </g>
     <g id="line2d_18">
      <defs>
       <path id="m5090065a67" d="M 0 0 
L -3.5 0 
" style="stroke: #000000; stroke-width: 0.8"/>
      </defs>
      <g>
       <use xlink:href="#m5090065a67" x="50.87" y="393.845406" style="stroke: #000000; stroke-width: 0.8"/>
      </g>
     </g>
     <g id="text_9">
      <!-- 0 -->
      <g transform="translate(37.5075 397.644625) scale(0.1 -0.1)">
       <use xlink:href="#DejaVuSans-30"/>
      </g>
     </g>
    </g>
    <g id="ytick_2">
     <g id="line2d_19">
      <path d="M 50.87 323.891032 
L 853.2 323.891032 
" clip-path="url(#pb73bf0ed1b)" style="fill: none; stroke-dasharray: 2.96,1.28; stroke-dashoffset: 0; stroke: #b0b0b0; stroke-width: 0.8"/>
     </g>
     <g id="line2d_20">
      <g>
       <use xlink:href="#m5090065a67" x="50.87" y="323.891032" style="stroke: #000000; stroke-width: 0.8"/>
      </g>
     </g>
     <g id="text_10">
      <!-- 50 -->
      <g transform="translate(31.145 327.690251) scale(0.1 -0.1)">
       <use xlink:href="#DejaVuSans-35"/>
       <use xlink:href="#DejaVuSans-30" x="63.623047"/>
      </g>
     </g>
    </g>
    <g id="ytick_3">
     <g id="line2d_21">
      <path d="M 50.87 253.936658 
L 853.2 253.936658 
" clip-path="url(#pb73bf0ed1b)" style="fill: none; stroke-dasharray: 2.96,1.28; stroke-dashoffset: 0; stroke: #b0b0b0; stroke-width: 0.8"/>
     </g>
     <g id="line2d_22">
      <g>
       <use xlink:href="#m5090065a67" x="50.87" y="253.936658" style="stroke: #000000; stroke-width: 0.8"/>
      </g>
     </g>
     <g id="text_11">
      <!-- 100 -->
      <g transform="translate(24.7825 257.735877) scale(0.1 -0.1)">
       <use xlink:href="#DejaVuSans-31"/>
       <use xlink:href="#DejaVuSans-30" x="63.623047"/>
       <use xlink:href="#DejaVuSans-30" x="127.246094"/>
      </g>
     </g>
    </g>
    <g id="ytick_4">
     <g id="line2d_23">
      <path d="M 50.87 183.982284 
L 853.2 183.982284 
" clip-path="url(#pb73bf0ed1b)" style="fill: none; stroke-dasharray: 2.96,1.28; stroke-dashoffset: 0; stroke: #b0b0b0; stroke-width: 0.8"/>
     </g>
     <g id="line2d_24">
      <g>
       <use xlink:href="#m5090065a67" x="50.87" y="183.982284" style="stroke: #000000; stroke-width: 0.8"/>
      </g>
     </g>
     <g id="text_12">
      <!-- 150 -->
      <g transform="translate(24.7825 187.781503) scale(0.1 -0.1)">
       <use xlink:href="#DejaVuSans-31"/>
       <use xlink:href="#DejaVuSans-35" x="63.623047"/>
       <use xlink:href="#DejaVuSans-30" x="127.246094"/>
      </g>
     </g>
    </g>
    <g id="ytick_5">
     <g id="line2d_25">
      <path d="M 50.87 114.02791 
L 853.2 114.02791 
" clip-path="url(#pb73bf0ed1b)" style="fill: none; stroke-dasharray: 2.96,1.28; stroke-dashoffset: 0; stroke: #b0b0b0; stroke-width: 0.8"/>
     </g>
     <g id="line2d_26">
      <g>
       <use xlink:href="#m5090065a67" x="50.87" y="114.02791" style="stroke: #000000; stroke-width: 0.8"/>
      </g>
     </g>
     <g id="text_13">
      <!-- 200 -->
      <g transform="translate(24.7825 117.827129) scale(0.1 -0.1)">
       <use xlink:href="#DejaVuSans-32"/>
       <use xlink:href="#DejaVuSans-30" x="63.623047"/>
       <use xlink:href="#DejaVuSans-30" x="127.246094"/>
      </g>
     </g>
    </g>
    <g id="ytick_6">
     <g id="line2d_27">
      <path d="M 50.87 44.073536 
L 853.2 44.073536 
" clip-path="url(#pb73bf0ed1b)" style="fill: none; stroke-dasharray: 2.96,1.28; stroke-dashoffset: 0; stroke: #b0b0b0; stroke-width: 0.8"/>
     </g>
     <g id="line2d_28">
      <g>
       <use xlink:href="#m5090065a67" x="50.87" y="44.073536" style="stroke: #000000; stroke-width: 0.8"/>
      </g>
     </g>
     <g id="text_14">
      <!-- 250 -->
      <g transform="translate(24.7825 47.872755) scale(0.1 -0.1)">
       <use xlink:href="#DejaVuSans-32"/>
       <use xlink:href="#DejaVuSans-35" x="63.623047"/>
       <use xlink:href="#DejaVuSans-30" x="127.246094"/>
      </g>
     </g>
    </g>
    <g id="text_15">
     <!-- Score -->
     <g transform="translate(18.702813 229.502344) rotate(-90) scale(0.1 -0.1)">
      <defs>
       <path id="DejaVuSans-53" d="M 3425 4513 
L 3425 3897 
Q 3066 4069 2747 4153 
Q 2428 4238 2131 4238 
Q 1616 4238 1336 4038 
Q 1056 3838 1056 3469 
Q 1056 3159 1242 3001 
Q 1428 2844 1947 2747 
L 2328 2669 
Q 3034 2534 3370 2195 
Q 3706 1856 3706 1288 
Q 3706 609 3251 259 
Q 2797 -91 1919 -91 
Q 1588 -91 1214 -16 
Q 841 59 441 206 
L 441 856 
Q 825 641 1194 531 
Q 1563 422 1919 422 
Q 2459 422 2753 634 
Q 3047 847 3047 1241 
Q 3047 1584 2836 1778 
Q 2625 1972 2144 2069 
L 1759 2144 
Q 1053 2284 737 2584 
Q 422 2884 422 3419 
Q 422 4038 858 4394 
Q 1294 4750 2059 4750 
Q 2388 4750 2728 4690 
Q 3069 4631 3425 4513 
z
" transform="scale(0.015625)"/>
       <path id="DejaVuSans-63" d="M 3122 3366 
L 3122 2828 
Q 2878 2963 2633 3030 
Q 2388 3097 2138 3097 
Q 1578 3097 1268 2742 
Q 959 2388 959 1747 
Q 959 1106 1268 751 
Q 1578 397 2138 397 
Q 2388 397 2633 464 
Q 2878 531 3122 666 
L 3122 134 
Q 2881 22 2623 -34 
Q 2366 -91 2075 -91 
Q 1284 -91 818 406 
Q 353 903 353 1747 
Q 353 2603 823 3093 
Q 1294 3584 2113 3584 
Q 2378 3584 2631 3529 
Q 2884 3475 3122 3366 
z
" transform="scale(0.015625)"/>
       <path id="DejaVuSans-6f" d="M 1959 3097 
Q 1497 3097 1228 2736 
Q 959 2375 959 1747 
Q 959 1119 1226 758 
Q 1494 397 1959 397 
Q 2419 397 2687 759 
Q 2956 1122 2956 1747 
Q 2956 2369 2687 2733 
Q 2419 3097 1959 3097 
z
M 1959 3584 
Q 2709 3584 3137 3096 
Q 3566 2609 3566 1747 
Q 3566 888 3137 398 
Q 2709 -91 1959 -91 
Q 1206 -91 779 398 
Q 353 888 353 1747 
Q 353 2609 779 3096 
Q 1206 3584 1959 3584 
z
" transform="scale(0.015625)"/>
       <path id="DejaVuSans-72" d="M 2631 2963 
Q 2534 3019 2420 3045 
Q 2306 3072 2169 3072 
Q 1681 3072 1420 2755 
Q 1159 2438 1159 1844 
L 1159 0 
L 581 0 
L 581 3500 
L 1159 3500 
L 1159 2956 
Q 1341 3275 1631 3429 
Q 1922 3584 2338 3584 
Q 2397 3584 2469 3576 
Q 2541 3569 2628 3553 
L 2631 2963 
z
" transform="scale(0.015625)"/>
       <path id="DejaVuSans-65" d="M 3597 1894 
L 3597 1613 
L 953 1613 
Q 991 1019 1311 708 
Q 1631 397 2203 397 
Q 2534 397 2845 478 
Q 3156 559 3463 722 
L 3463 178 
Q 3153 47 2828 -22 
Q 2503 -91 2169 -91 
Q 1331 -91 842 396 
Q 353 884 353 1716 
Q 353 2575 817 3079 
Q 1281 3584 2069 3584 
Q 2775 3584 3186 3129 
Q 3597 2675 3597 1894 
z
M 3022 2063 
Q 3016 2534 2758 2815 
Q 2500 3097 2075 3097 
Q 1594 3097 1305 2825 
Q 1016 2553 972 2059 
L 3022 2063 
z
" transform="scale(0.015625)"/>
      </defs>
      <use xlink:href="#DejaVuSans-53"/>
      <use xlink:href="#DejaVuSans-63" x="63.476562"/>
      <use xlink:href="#DejaVuSans-6f" x="118.457031"/>
      <use xlink:href="#DejaVuSans-72" x="179.638672"/>
      <use xlink:href="#DejaVuSans-65" x="218.501953"/>
     </g>
    </g>
   </g>
   <g id="line2d_29">
    <path d="M 87.339545 379.987609 
L 115.393042 365.996734 
L 143.446538 338.014984 
L 171.500035 324.024109 
L 199.553531 303.037797 
L 227.607028 286.248747 
L 255.660524 255.468823 
L 283.714021 231.684336 
L 311.767517 203.702586 
L 339.821014 177.119924 
L 367.87451 153.335437 
L 395.928007 137.945474 
L 423.981503 58.197488 
L 508.141993 58.197488 
L 536.19549 58.197488 
L 564.248986 58.197488 
L 592.302483 58.197488 
L 620.355979 58.197488 
L 676.462972 58.197488 
L 704.516469 58.197488 
L 732.569965 58.197488 
L 760.623462 58.197488 
L 788.676958 58.197488 
L 816.730455 58.197488 
" clip-path="url(#pb73bf0ed1b)" style="fill: none; stroke: #1f77b4; stroke-width: 1.5; stroke-linecap: square"/>
    <defs>
     <path id="ma0ba863f19" d="M 0 3.5 
C 0.928211 3.5 1.81853 3.131218 2.474874 2.474874 
C 3.131218 1.81853 3.5 0.928211 3.5 0 
C 3.5 -0.928211 3.131218 -1.81853 2.474874 -2.474874 
C 1.81853 -3.131218 0.928211 -3.5 0 -3.5 
C -0.928211 -3.5 -1.81853 -3.131218 -2.474874 -2.474874 
C -3.131218 -1.81853 -3.5 -0.928211 -3.5 0 
C -3.5 0.928211 -3.131218 1.81853 -2.474874 2.474874 
C -1.81853 3.131218 -0.928211 3.5 0 3.5 
z
" style="stroke: #1f77b4"/>
    </defs>
    <g clip-path="url(#pb73bf0ed1b)">
     <use xlink:href="#ma0ba863f19" x="87.339545" y="379.987609" style="fill: #1f77b4; stroke: #1f77b4"/>
     <use xlink:href="#ma0ba863f19" x="115.393042" y="365.996734" style="fill: #1f77b4; stroke: #1f77b4"/>
     <use xlink:href="#ma0ba863f19" x="143.446538" y="338.014984" style="fill: #1f77b4; stroke: #1f77b4"/>
     <use xlink:href="#ma0ba863f19" x="171.500035" y="324.024109" style="fill: #1f77b4; stroke: #1f77b4"/>
     <use xlink:href="#ma0ba863f19" x="199.553531" y="303.037797" style="fill: #1f77b4; stroke: #1f77b4"/>
     <use xlink:href="#ma0ba863f19" x="227.607028" y="286.248747" style="fill: #1f77b4; stroke: #1f77b4"/>
     <use xlink:href="#ma0ba863f19" x="255.660524" y="255.468823" style="fill: #1f77b4; stroke: #1f77b4"/>
     <use xlink:href="#ma0ba863f19" x="283.714021" y="231.684336" style="fill: #1f77b4; stroke: #1f77b4"/>
     <use xlink:href="#ma0ba863f19" x="311.767517" y="203.702586" style="fill: #1f77b4; stroke: #1f77b4"/>
     <use xlink:href="#ma0ba863f19" x="339.821014" y="177.119924" style="fill: #1f77b4; stroke: #1f77b4"/>
     <use xlink:href="#ma0ba863f19" x="367.87451" y="153.335437" style="fill: #1f77b4; stroke: #1f77b4"/>
     <use xlink:href="#ma0ba863f19" x="395.928007" y="137.945474" style="fill: #1f77b4; stroke: #1f77b4"/>
     <use xlink:href="#ma0ba863f19" x="423.981503" y="58.197488" style="fill: #1f77b4; stroke: #1f77b4"/>
     <use xlink:href="#ma0ba863f19" x="508.141993" y="58.197488" style="fill: #1f77b4; stroke: #1f77b4"/>
     <use xlink:href="#ma0ba863f19" x="536.19549" y="58.197488" style="fill: #1f77b4; stroke: #1f77b4"/>
     <use xlink:href="#ma0ba863f19" x="564.248986" y="58.197488" style="fill: #1f77b4; stroke: #1f77b4"/>
     <use xlink:href="#ma0ba863f19" x="592.302483" y="58.197488" style="fill: #1f77b4; stroke: #1f77b4"/>
     <use xlink:href="#ma0ba863f19" x="620.355979" y="58.197488" style="fill: #1f77b4; stroke: #1f77b4"/>
     <use xlink:href="#ma0ba863f19" x="676.462972" y="58.197488" style="fill: #1f77b4; stroke: #1f77b4"/>
     <use xlink:href="#ma0ba863f19" x="704.516469" y="58.197488" style="fill: #1f77b4; stroke: #1f77b4"/>
     <use xlink:href="#ma0ba863f19" x="732.569965" y="58.197488" style="fill: #1f77b4; stroke: #1f77b4"/>
     <use xlink:href="#ma0ba863f19" x="760.623462" y="58.197488" style="fill: #1f77b4; stroke: #1f77b4"/>
     <use xlink:href="#ma0ba863f19" x="788.676958" y="58.197488" style="fill: #1f77b4; stroke: #1f77b4"/>
     <use xlink:href="#ma0ba863f19" x="816.730455" y="58.197488" style="fill: #1f77b4; stroke: #1f77b4"/>
    </g>
   </g>
   <g id="line2d_30">
    <path d="M 87.339545 379.951045 
L 115.393042 365.96017 
L 143.446538 321.189371 
L 171.500035 297.404884 
L 199.553531 262.427697 
L 227.607028 241.441385 
L 255.660524 224.652335 
L 283.714021 216.25781 
L 311.767517 195.271498 
L 339.821014 195.271498 
L 367.87451 171.487011 
L 395.928007 158.895223 
L 423.981503 100.133549 
L 508.141993 100.133549 
L 536.19549 100.133549 
L 564.248986 100.133549 
L 592.302483 100.133549 
L 620.355979 100.133549 
L 676.462972 100.133549 
L 704.516469 100.133549 
L 732.569965 100.133549 
L 760.623462 100.133549 
L 788.676958 100.133549 
L 816.730455 100.133549 
" clip-path="url(#pb73bf0ed1b)" style="fill: none; stroke: #ff7f0e; stroke-width: 1.5; stroke-linecap: square"/>
    <defs>
     <path id="m65ded663c7" d="M 0 3.5 
C 0.928211 3.5 1.81853 3.131218 2.474874 2.474874 
C 3.131218 1.81853 3.5 0.928211 3.5 0 
C 3.5 -0.928211 3.131218 -1.81853 2.474874 -2.474874 
C 1.81853 -3.131218 0.928211 -3.5 0 -3.5 
C -0.928211 -3.5 -1.81853 -3.131218 -2.474874 -2.474874 
C -3.131218 -1.81853 -3.5 -0.928211 -3.5 0 
C -3.5 0.928211 -3.131218 1.81853 -2.474874 2.474874 
C -1.81853 3.131218 -0.928211 3.5 0 3.5 
z
" style="stroke: #ff7f0e"/>
    </defs>
    <g clip-path="url(#pb73bf0ed1b)">
     <use xlink:href="#m65ded663c7" x="87.339545" y="379.951045" style="fill: #ff7f0e; stroke: #ff7f0e"/>
     <use xlink:href="#m65ded663c7" x="115.393042" y="365.96017" style="fill: #ff7f0e; stroke: #ff7f0e"/>
     <use xlink:href="#m65ded663c7" x="143.446538" y="321.189371" style="fill: #ff7f0e; stroke: #ff7f0e"/>
     <use xlink:href="#m65ded663c7" x="171.500035" y="297.404884" style="fill: #ff7f0e; stroke: #ff7f0e"/>
     <use xlink:href="#m65ded663c7" x="199.553531" y="262.427697" style="fill: #ff7f0e; stroke: #ff7f0e"/>
     <use xlink:href="#m65ded663c7" x="227.607028" y="241.441385" style="fill: #ff7f0e; stroke: #ff7f0e"/>
     <use xlink:href="#m65ded663c7" x="255.660524" y="224.652335" style="fill: #ff7f0e; stroke: #ff7f0e"/>
     <use xlink:href="#m65ded663c7" x="283.714021" y="216.25781" style="fill: #ff7f0e; stroke: #ff7f0e"/>
     <use xlink:href="#m65ded663c7" x="311.767517" y="195.271498" style="fill: #ff7f0e; stroke: #ff7f0e"/>
     <use xlink:href="#m65ded663c7" x="339.821014" y="195.271498" style="fill: #ff7f0e; stroke: #ff7f0e"/>
     <use xlink:href="#m65ded663c7" x="367.87451" y="171.487011" style="fill: #ff7f0e; stroke: #ff7f0e"/>
     <use xlink:href="#m65ded663c7" x="395.928007" y="158.895223" style="fill: #ff7f0e; stroke: #ff7f0e"/>
     <use xlink:href="#m65ded663c7" x="423.981503" y="100.133549" style="fill: #ff7f0e; stroke: #ff7f0e"/>
     <use xlink:href="#m65ded663c7" x="508.141993" y="100.133549" style="fill: #ff7f0e; stroke: #ff7f0e"/>
     <use xlink:href="#m65ded663c7" x="536.19549" y="100.133549" style="fill: #ff7f0e; stroke: #ff7f0e"/>
     <use xlink:href="#m65ded663c7" x="564.248986" y="100.133549" style="fill: #ff7f0e; stroke: #ff7f0e"/>
     <use xlink:href="#m65ded663c7" x="592.302483" y="100.133549" style="fill: #ff7f0e; stroke: #ff7f0e"/>
     <use xlink:href="#m65ded663c7" x="620.355979" y="100.133549" style="fill: #ff7f0e; stroke: #ff7f0e"/>
     <use xlink:href="#m65ded663c7" x="676.462972" y="100.133549" style="fill: #ff7f0e; stroke: #ff7f0e"/>
     <use xlink:href="#m65ded663c7" x="704.516469" y="100.133549" style="fill: #ff7f0e; stroke: #ff7f0e"/>
     <use xlink:href="#m65ded663c7" x="732.569965" y="100.133549" style="fill: #ff7f0e; stroke: #ff7f0e"/>
     <use xlink:href="#m65ded663c7" x="760.623462" y="100.133549" style="fill: #ff7f0e; stroke: #ff7f0e"/>
     <use xlink:href="#m65ded663c7" x="788.676958" y="100.133549" style="fill: #ff7f0e; stroke: #ff7f0e"/>
     <use xlink:href="#m65ded663c7" x="816.730455" y="100.133549" style="fill: #ff7f0e; stroke: #ff7f0e"/>
    </g>
   </g>
   <g id="line2d_31">
    <path d="M 87.339545 386.780091 
L 115.393042 369.991041 
L 143.446538 332.215679 
L 171.500035 304.233929 
L 199.553531 283.247617 
L 227.607028 262.261305 
L 255.660524 227.284118 
L 283.714021 214.69233 
L 311.767517 186.710581 
L 339.821014 162.926094 
L 367.87451 134.944344 
L 395.928007 112.558944 
L 423.981503 71.985407 
L 508.141993 71.985407 
L 536.19549 71.985407 
L 564.248986 71.985407 
L 592.302483 71.985407 
L 620.355979 71.985407 
L 676.462972 71.985407 
L 704.516469 71.985407 
L 732.569965 71.985407 
L 760.623462 71.985407 
L 788.676958 71.985407 
L 816.730455 71.985407 
" clip-path="url(#pb73bf0ed1b)" style="fill: none; stroke: #2ca02c; stroke-width: 1.5; stroke-linecap: square"/>
    <defs>
     <path id="m4e6938728a" d="M 0 3.5 
C 0.928211 3.5 1.81853 3.131218 2.474874 2.474874 
C 3.131218 1.81853 3.5 0.928211 3.5 0 
C 3.5 -0.928211 3.131218 -1.81853 2.474874 -2.474874 
C 1.81853 -3.131218 0.928211 -3.5 0 -3.5 
C -0.928211 -3.5 -1.81853 -3.131218 -2.474874 -2.474874 
C -3.131218 -1.81853 -3.5 -0.928211 -3.5 0 
C -3.5 0.928211 -3.131218 1.81853 -2.474874 2.474874 
C -1.81853 3.131218 -0.928211 3.5 0 3.5 
z
" style="stroke: #2ca02c"/>
    </defs>
    <g clip-path="url(#pb73bf0ed1b)">
     <use xlink:href="#m4e6938728a" x="87.339545" y="386.780091" style="fill: #2ca02c; stroke: #2ca02c"/>
     <use xlink:href="#m4e6938728a" x="115.393042" y="369.991041" style="fill: #2ca02c; stroke: #2ca02c"/>
     <use xlink:href="#m4e6938728a" x="143.446538" y="332.215679" style="fill: #2ca02c; stroke: #2ca02c"/>
     <use xlink:href="#m4e6938728a" x="171.500035" y="304.233929" style="fill: #2ca02c; stroke: #2ca02c"/>
     <use xlink:href="#m4e6938728a" x="199.553531" y="283.247617" style="fill: #2ca02c; stroke: #2ca02c"/>
     <use xlink:href="#m4e6938728a" x="227.607028" y="262.261305" style="fill: #2ca02c; stroke: #2ca02c"/>
     <use xlink:href="#m4e6938728a" x="255.660524" y="227.284118" style="fill: #2ca02c; stroke: #2ca02c"/>
     <use xlink:href="#m4e6938728a" x="283.714021" y="214.69233" style="fill: #2ca02c; stroke: #2ca02c"/>
     <use xlink:href="#m4e6938728a" x="311.767517" y="186.710581" style="fill: #2ca02c; stroke: #2ca02c"/>
     <use xlink:href="#m4e6938728a" x="339.821014" y="162.926094" style="fill: #2ca02c; stroke: #2ca02c"/>
     <use xlink:href="#m4e6938728a" x="367.87451" y="134.944344" style="fill: #2ca02c; stroke: #2ca02c"/>
     <use xlink:href="#m4e6938728a" x="395.928007" y="112.558944" style="fill: #2ca02c; stroke: #2ca02c"/>
     <use xlink:href="#m4e6938728a" x="423.981503" y="71.985407" style="fill: #2ca02c; stroke: #2ca02c"/>
     <use xlink:href="#m4e6938728a" x="508.141993" y="71.985407" style="fill: #2ca02c; stroke: #2ca02c"/>
     <use xlink:href="#m4e6938728a" x="536.19549" y="71.985407" style="fill: #2ca02c; stroke: #2ca02c"/>
     <use xlink:href="#m4e6938728a" x="564.248986" y="71.985407" style="fill: #2ca02c; stroke: #2ca02c"/>
     <use xlink:href="#m4e6938728a" x="592.302483" y="71.985407" style="fill: #2ca02c; stroke: #2ca02c"/>
     <use xlink:href="#m4e6938728a" x="620.355979" y="71.985407" style="fill: #2ca02c; stroke: #2ca02c"/>
     <use xlink:href="#m4e6938728a" x="676.462972" y="71.985407" style="fill: #2ca02c; stroke: #2ca02c"/>
     <use xlink:href="#m4e6938728a" x="704.516469" y="71.985407" style="fill: #2ca02c; stroke: #2ca02c"/>
     <use xlink:href="#m4e6938728a" x="732.569965" y="71.985407" style="fill: #2ca02c; stroke: #2ca02c"/>
     <use xlink:href="#m4e6938728a" x="760.623462" y="71.985407" style="fill: #2ca02c; stroke: #2ca02c"/>
     <use xlink:href="#m4e6938728a" x="788.676958" y="71.985407" style="fill: #2ca02c; stroke: #2ca02c"/>
     <use xlink:href="#m4e6938728a" x="816.730455" y="71.985407" style="fill: #2ca02c; stroke: #2ca02c"/>
    </g>
   </g>
   <g id="line2d_32">
    <path d="M 87.339545 386.800444 
L 115.393042 358.818694 
L 143.446538 330.836944 
L 171.500035 302.855195 
L 199.553531 281.868883 
L 227.607028 265.079833 
L 255.660524 259.483483 
L 283.714021 252.488046 
L 311.767517 221.708121 
L 339.821014 211.914509 
L 367.87451 183.932759 
L 395.928007 167.143709 
L 423.981503 115.377472 
L 508.141993 115.377472 
L 536.19549 115.377472 
L 564.248986 115.377472 
L 592.302483 115.377472 
L 620.355979 115.377472 
L 676.462972 115.377472 
L 704.516469 115.377472 
L 732.569965 115.377472 
L 760.623462 115.377472 
L 788.676958 115.377472 
L 816.730455 115.377472 
" clip-path="url(#pb73bf0ed1b)" style="fill: none; stroke: #d62728; stroke-width: 1.5; stroke-linecap: square"/>
    <defs>
     <path id="m8df8274bd2" d="M 0 3.5 
C 0.928211 3.5 1.81853 3.131218 2.474874 2.474874 
C 3.131218 1.81853 3.5 0.928211 3.5 0 
C 3.5 -0.928211 3.131218 -1.81853 2.474874 -2.474874 
C 1.81853 -3.131218 0.928211 -3.5 0 -3.5 
C -0.928211 -3.5 -1.81853 -3.131218 -2.474874 -2.474874 
C -3.131218 -1.81853 -3.5 -0.928211 -3.5 0 
C -3.5 0.928211 -3.131218 1.81853 -2.474874 2.474874 
C -1.81853 3.131218 -0.928211 3.5 0 3.5 
z
" style="stroke: #d62728"/>
    </defs>
    <g clip-path="url(#pb73bf0ed1b)">
     <use xlink:href="#m8df8274bd2" x="87.339545" y="386.800444" style="fill: #d62728; stroke: #d62728"/>
     <use xlink:href="#m8df8274bd2" x="115.393042" y="358.818694" style="fill: #d62728; stroke: #d62728"/>
     <use xlink:href="#m8df8274bd2" x="143.446538" y="330.836944" style="fill: #d62728; stroke: #d62728"/>
     <use xlink:href="#m8df8274bd2" x="171.500035" y="302.855195" style="fill: #d62728; stroke: #d62728"/>
     <use xlink:href="#m8df8274bd2" x="199.553531" y="281.868883" style="fill: #d62728; stroke: #d62728"/>
     <use xlink:href="#m8df8274bd2" x="227.607028" y="265.079833" style="fill: #d62728; stroke: #d62728"/>
     <use xlink:href="#m8df8274bd2" x="255.660524" y="259.483483" style="fill: #d62728; stroke: #d62728"/>
     <use xlink:href="#m8df8274bd2" x="283.714021" y="252.488046" style="fill: #d62728; stroke: #d62728"/>
     <use xlink:href="#m8df8274bd2" x="311.767517" y="221.708121" style="fill: #d62728; stroke: #d62728"/>
     <use xlink:href="#m8df8274bd2" x="339.821014" y="211.914509" style="fill: #d62728; stroke: #d62728"/>
     <use xlink:href="#m8df8274bd2" x="367.87451" y="183.932759" style="fill: #d62728; stroke: #d62728"/>
     <use xlink:href="#m8df8274bd2" x="395.928007" y="167.143709" style="fill: #d62728; stroke: #d62728"/>
     <use xlink:href="#m8df8274bd2" x="423.981503" y="115.377472" style="fill: #d62728; stroke: #d62728"/>
     <use xlink:href="#m8df8274bd2" x="508.141993" y="115.377472" style="fill: #d62728; stroke: #d62728"/>
     <use xlink:href="#m8df8274bd2" x="536.19549" y="115.377472" style="fill: #d62728; stroke: #d62728"/>
     <use xlink:href="#m8df8274bd2" x="564.248986" y="115.377472" style="fill: #d62728; stroke: #d62728"/>
     <use xlink:href="#m8df8274bd2" x="592.302483" y="115.377472" style="fill: #d62728; stroke: #d62728"/>
     <use xlink:href="#m8df8274bd2" x="620.355979" y="115.377472" style="fill: #d62728; stroke: #d62728"/>
     <use xlink:href="#m8df8274bd2" x="676.462972" y="115.377472" style="fill: #d62728; stroke: #d62728"/>
     <use xlink:href="#m8df8274bd2" x="704.516469" y="115.377472" style="fill: #d62728; stroke: #d62728"/>
     <use xlink:href="#m8df8274bd2" x="732.569965" y="115.377472" style="fill: #d62728; stroke: #d62728"/>
     <use xlink:href="#m8df8274bd2" x="760.623462" y="115.377472" style="fill: #d62728; stroke: #d62728"/>
     <use xlink:href="#m8df8274bd2" x="788.676958" y="115.377472" style="fill: #d62728; stroke: #d62728"/>
     <use xlink:href="#m8df8274bd2" x="816.730455" y="115.377472" style="fill: #d62728; stroke: #d62728"/>
    </g>
   </g>
   <g id="line2d_33">
    <path d="M 87.339545 386.936846 
L 115.393042 363.152359 
L 143.446538 332.372435 
L 171.500035 318.38156 
L 199.553531 308.587947 
L 227.607028 291.798898 
L 255.660524 261.018973 
L 283.714021 247.028098 
L 311.767517 216.248174 
L 339.821014 206.454561 
L 367.87451 199.459124 
L 395.928007 182.670074 
L 423.981503 149.091975 
L 508.141993 149.091975 
L 536.19549 149.091975 
L 564.248986 149.091975 
L 592.302483 149.091975 
L 620.355979 149.091975 
L 676.462972 149.091975 
L 704.516469 149.091975 
L 732.569965 149.091975 
L 760.623462 149.091975 
L 788.676958 149.091975 
L 816.730455 149.091975 
" clip-path="url(#pb73bf0ed1b)" style="fill: none; stroke: #9467bd; stroke-width: 1.5; stroke-linecap: square"/>
    <defs>
     <path id="m805548db9d" d="M 0 3.5 
C 0.928211 3.5 1.81853 3.131218 2.474874 2.474874 
C 3.131218 1.81853 3.5 0.928211 3.5 0 
C 3.5 -0.928211 3.131218 -1.81853 2.474874 -2.474874 
C 1.81853 -3.131218 0.928211 -3.5 0 -3.5 
C -0.928211 -3.5 -1.81853 -3.131218 -2.474874 -2.474874 
C -3.131218 -1.81853 -3.5 -0.928211 -3.5 0 
C -3.5 0.928211 -3.131218 1.81853 -2.474874 2.474874 
C -1.81853 3.131218 -0.928211 3.5 0 3.5 
z
" style="stroke: #9467bd"/>
    </defs>
    <g clip-path="url(#pb73bf0ed1b)">
     <use xlink:href="#m805548db9d" x="87.339545" y="386.936846" style="fill: #9467bd; stroke: #9467bd"/>
     <use xlink:href="#m805548db9d" x="115.393042" y="363.152359" style="fill: #9467bd; stroke: #9467bd"/>
     <use xlink:href="#m805548db9d" x="143.446538" y="332.372435" style="fill: #9467bd; stroke: #9467bd"/>
     <use xlink:href="#m805548db9d" x="171.500035" y="318.38156" style="fill: #9467bd; stroke: #9467bd"/>
     <use xlink:href="#m805548db9d" x="199.553531" y="308.587947" style="fill: #9467bd; stroke: #9467bd"/>
     <use xlink:href="#m805548db9d" x="227.607028" y="291.798898" style="fill: #9467bd; stroke: #9467bd"/>
     <use xlink:href="#m805548db9d" x="255.660524" y="261.018973" style="fill: #9467bd; stroke: #9467bd"/>
     <use xlink:href="#m805548db9d" x="283.714021" y="247.028098" style="fill: #9467bd; stroke: #9467bd"/>
     <use xlink:href="#m805548db9d" x="311.767517" y="216.248174" style="fill: #9467bd; stroke: #9467bd"/>
     <use xlink:href="#m805548db9d" x="339.821014" y="206.454561" style="fill: #9467bd; stroke: #9467bd"/>
     <use xlink:href="#m805548db9d" x="367.87451" y="199.459124" style="fill: #9467bd; stroke: #9467bd"/>
     <use xlink:href="#m805548db9d" x="395.928007" y="182.670074" style="fill: #9467bd; stroke: #9467bd"/>
     <use xlink:href="#m805548db9d" x="423.981503" y="149.091975" style="fill: #9467bd; stroke: #9467bd"/>
     <use xlink:href="#m805548db9d" x="508.141993" y="149.091975" style="fill: #9467bd; stroke: #9467bd"/>
     <use xlink:href="#m805548db9d" x="536.19549" y="149.091975" style="fill: #9467bd; stroke: #9467bd"/>
     <use xlink:href="#m805548db9d" x="564.248986" y="149.091975" style="fill: #9467bd; stroke: #9467bd"/>
     <use xlink:href="#m805548db9d" x="592.302483" y="149.091975" style="fill: #9467bd; stroke: #9467bd"/>
     <use xlink:href="#m805548db9d" x="620.355979" y="149.091975" style="fill: #9467bd; stroke: #9467bd"/>
     <use xlink:href="#m805548db9d" x="676.462972" y="149.091975" style="fill: #9467bd; stroke: #9467bd"/>
     <use xlink:href="#m805548db9d" x="704.516469" y="149.091975" style="fill: #9467bd; stroke: #9467bd"/>
     <use xlink:href="#m805548db9d" x="732.569965" y="149.091975" style="fill: #9467bd; stroke: #9467bd"/>
     <use xlink:href="#m805548db9d" x="760.623462" y="149.091975" style="fill: #9467bd; stroke: #9467bd"/>
     <use xlink:href="#m805548db9d" x="788.676958" y="149.091975" style="fill: #9467bd; stroke: #9467bd"/>
     <use xlink:href="#m805548db9d" x="816.730455" y="149.091975" style="fill: #9467bd; stroke: #9467bd"/>
    </g>
   </g>
   <g id="line2d_34">
    <path d="M 87.339545 379.811872 
L 115.393042 351.830122 
L 143.446538 337.839248 
L 171.500035 323.848373 
L 199.553531 309.857498 
L 227.607028 265.086699 
L 255.660524 259.490349 
L 283.714021 252.494911 
L 311.767517 221.714987 
L 339.821014 211.921374 
L 367.87451 155.957875 
L 395.928007 141.967 
L 423.981503 99.994376 
L 508.141993 99.994376 
L 536.19549 99.994376 
L 564.248986 99.994376 
L 592.302483 99.994376 
L 620.355979 99.994376 
L 676.462972 99.994376 
L 704.516469 99.994376 
L 732.569965 99.994376 
L 760.623462 99.994376 
L 788.676958 99.994376 
L 816.730455 99.994376 
" clip-path="url(#pb73bf0ed1b)" style="fill: none; stroke: #8c564b; stroke-width: 1.5; stroke-linecap: square"/>
    <defs>
     <path id="ma26ce8c161" d="M 0 3.5 
C 0.928211 3.5 1.81853 3.131218 2.474874 2.474874 
C 3.131218 1.81853 3.5 0.928211 3.5 0 
C 3.5 -0.928211 3.131218 -1.81853 2.474874 -2.474874 
C 1.81853 -3.131218 0.928211 -3.5 0 -3.5 
C -0.928211 -3.5 -1.81853 -3.131218 -2.474874 -2.474874 
C -3.131218 -1.81853 -3.5 -0.928211 -3.5 0 
C -3.5 0.928211 -3.131218 1.81853 -2.474874 2.474874 
C -1.81853 3.131218 -0.928211 3.5 0 3.5 
z
" style="stroke: #8c564b"/>
    </defs>
    <g clip-path="url(#pb73bf0ed1b)">
     <use xlink:href="#ma26ce8c161" x="87.339545" y="379.811872" style="fill: #8c564b; stroke: #8c564b"/>
     <use xlink:href="#ma26ce8c161" x="115.393042" y="351.830122" style="fill: #8c564b; stroke: #8c564b"/>
     <use xlink:href="#ma26ce8c161" x="143.446538" y="337.839248" style="fill: #8c564b; stroke: #8c564b"/>
     <use xlink:href="#ma26ce8c161" x="171.500035" y="323.848373" style="fill: #8c564b; stroke: #8c564b"/>
     <use xlink:href="#ma26ce8c161" x="199.553531" y="309.857498" style="fill: #8c564b; stroke: #8c564b"/>
     <use xlink:href="#ma26ce8c161" x="227.607028" y="265.086699" style="fill: #8c564b; stroke: #8c564b"/>
     <use xlink:href="#ma26ce8c161" x="255.660524" y="259.490349" style="fill: #8c564b; stroke: #8c564b"/>
     <use xlink:href="#ma26ce8c161" x="283.714021" y="252.494911" style="fill: #8c564b; stroke: #8c564b"/>
     <use xlink:href="#ma26ce8c161" x="311.767517" y="221.714987" style="fill: #8c564b; stroke: #8c564b"/>
     <use xlink:href="#ma26ce8c161" x="339.821014" y="211.921374" style="fill: #8c564b; stroke: #8c564b"/>
     <use xlink:href="#ma26ce8c161" x="367.87451" y="155.957875" style="fill: #8c564b; stroke: #8c564b"/>
     <use xlink:href="#ma26ce8c161" x="395.928007" y="141.967" style="fill: #8c564b; stroke: #8c564b"/>
     <use xlink:href="#ma26ce8c161" x="423.981503" y="99.994376" style="fill: #8c564b; stroke: #8c564b"/>
     <use xlink:href="#ma26ce8c161" x="508.141993" y="99.994376" style="fill: #8c564b; stroke: #8c564b"/>
     <use xlink:href="#ma26ce8c161" x="536.19549" y="99.994376" style="fill: #8c564b; stroke: #8c564b"/>
     <use xlink:href="#ma26ce8c161" x="564.248986" y="99.994376" style="fill: #8c564b; stroke: #8c564b"/>
     <use xlink:href="#ma26ce8c161" x="592.302483" y="99.994376" style="fill: #8c564b; stroke: #8c564b"/>
     <use xlink:href="#ma26ce8c161" x="620.355979" y="99.994376" style="fill: #8c564b; stroke: #8c564b"/>
     <use xlink:href="#ma26ce8c161" x="676.462972" y="99.994376" style="fill: #8c564b; stroke: #8c564b"/>
     <use xlink:href="#ma26ce8c161" x="704.516469" y="99.994376" style="fill: #8c564b; stroke: #8c564b"/>
     <use xlink:href="#ma26ce8c161" x="732.569965" y="99.994376" style="fill: #8c564b; stroke: #8c564b"/>
     <use xlink:href="#ma26ce8c161" x="760.623462" y="99.994376" style="fill: #8c564b; stroke: #8c564b"/>
     <use xlink:href="#ma26ce8c161" x="788.676958" y="99.994376" style="fill: #8c564b; stroke: #8c564b"/>
     <use xlink:href="#ma26ce8c161" x="816.730455" y="99.994376" style="fill: #8c564b; stroke: #8c564b"/>
    </g>
   </g>
   <g id="line2d_35">
    <path d="M 87.339545 386.781451 
L 115.393042 372.790576 
L 143.446538 342.010652 
L 171.500035 328.019777 
L 199.553531 314.028902 
L 227.607028 294.441678 
L 255.660524 277.652628 
L 283.714021 260.863578 
L 311.767517 225.886391 
L 339.821014 183.913767 
L 367.87451 127.950267 
L 395.928007 108.363043 
L 423.981503 63.592243 
L 508.141993 63.592243 
L 536.19549 63.592243 
L 564.248986 63.592243 
L 592.302483 63.592243 
L 620.355979 63.592243 
L 676.462972 63.592243 
L 704.516469 63.592243 
L 732.569965 63.592243 
L 760.623462 63.592243 
L 788.676958 63.592243 
L 816.730455 63.592243 
" clip-path="url(#pb73bf0ed1b)" style="fill: none; stroke: #e377c2; stroke-width: 1.5; stroke-linecap: square"/>
    <defs>
     <path id="m9163b0d100" d="M 0 3.5 
C 0.928211 3.5 1.81853 3.131218 2.474874 2.474874 
C 3.131218 1.81853 3.5 0.928211 3.5 0 
C 3.5 -0.928211 3.131218 -1.81853 2.474874 -2.474874 
C 1.81853 -3.131218 0.928211 -3.5 0 -3.5 
C -0.928211 -3.5 -1.81853 -3.131218 -2.474874 -2.474874 
C -3.131218 -1.81853 -3.5 -0.928211 -3.5 0 
C -3.5 0.928211 -3.131218 1.81853 -2.474874 2.474874 
C -1.81853 3.131218 -0.928211 3.5 0 3.5 
z
" style="stroke: #e377c2"/>
    </defs>
    <g clip-path="url(#pb73bf0ed1b)">
     <use xlink:href="#m9163b0d100" x="87.339545" y="386.781451" style="fill: #e377c2; stroke: #e377c2"/>
     <use xlink:href="#m9163b0d100" x="115.393042" y="372.790576" style="fill: #e377c2; stroke: #e377c2"/>
     <use xlink:href="#m9163b0d100" x="143.446538" y="342.010652" style="fill: #e377c2; stroke: #e377c2"/>
     <use xlink:href="#m9163b0d100" x="171.500035" y="328.019777" style="fill: #e377c2; stroke: #e377c2"/>
     <use xlink:href="#m9163b0d100" x="199.553531" y="314.028902" style="fill: #e377c2; stroke: #e377c2"/>
     <use xlink:href="#m9163b0d100" x="227.607028" y="294.441678" style="fill: #e377c2; stroke: #e377c2"/>
     <use xlink:href="#m9163b0d100" x="255.660524" y="277.652628" style="fill: #e377c2; stroke: #e377c2"/>
     <use xlink:href="#m9163b0d100" x="283.714021" y="260.863578" style="fill: #e377c2; stroke: #e377c2"/>
     <use xlink:href="#m9163b0d100" x="311.767517" y="225.886391" style="fill: #e377c2; stroke: #e377c2"/>
     <use xlink:href="#m9163b0d100" x="339.821014" y="183.913767" style="fill: #e377c2; stroke: #e377c2"/>
     <use xlink:href="#m9163b0d100" x="367.87451" y="127.950267" style="fill: #e377c2; stroke: #e377c2"/>
     <use xlink:href="#m9163b0d100" x="395.928007" y="108.363043" style="fill: #e377c2; stroke: #e377c2"/>
     <use xlink:href="#m9163b0d100" x="423.981503" y="63.592243" style="fill: #e377c2; stroke: #e377c2"/>
     <use xlink:href="#m9163b0d100" x="508.141993" y="63.592243" style="fill: #e377c2; stroke: #e377c2"/>
     <use xlink:href="#m9163b0d100" x="536.19549" y="63.592243" style="fill: #e377c2; stroke: #e377c2"/>
     <use xlink:href="#m9163b0d100" x="564.248986" y="63.592243" style="fill: #e377c2; stroke: #e377c2"/>
     <use xlink:href="#m9163b0d100" x="592.302483" y="63.592243" style="fill: #e377c2; stroke: #e377c2"/>
     <use xlink:href="#m9163b0d100" x="620.355979" y="63.592243" style="fill: #e377c2; stroke: #e377c2"/>
     <use xlink:href="#m9163b0d100" x="676.462972" y="63.592243" style="fill: #e377c2; stroke: #e377c2"/>
     <use xlink:href="#m9163b0d100" x="704.516469" y="63.592243" style="fill: #e377c2; stroke: #e377c2"/>
     <use xlink:href="#m9163b0d100" x="732.569965" y="63.592243" style="fill: #e377c2; stroke: #e377c2"/>
     <use xlink:href="#m9163b0d100" x="760.623462" y="63.592243" style="fill: #e377c2; stroke: #e377c2"/>
     <use xlink:href="#m9163b0d100" x="788.676958" y="63.592243" style="fill: #e377c2; stroke: #e377c2"/>
     <use xlink:href="#m9163b0d100" x="816.730455" y="63.592243" style="fill: #e377c2; stroke: #e377c2"/>
    </g>
   </g>
   <g id="line2d_36">
    <path d="M 87.339545 386.820735 
L 115.393042 349.045373 
L 143.446538 318.265449 
L 171.500035 301.476399 
L 199.553531 284.687349 
L 227.607028 267.898299 
L 255.660524 265.100124 
L 283.714021 241.315637 
L 311.767517 206.33845 
L 339.821014 179.755788 
L 367.87451 137.783164 
L 395.928007 120.994114 
L 423.981503 90.214189 
L 508.141993 90.214189 
L 536.19549 90.214189 
L 564.248986 90.214189 
L 592.302483 90.214189 
L 620.355979 90.214189 
L 676.462972 90.214189 
L 704.516469 90.214189 
L 732.569965 90.214189 
L 760.623462 90.214189 
L 788.676958 90.214189 
L 816.730455 90.214189 
" clip-path="url(#pb73bf0ed1b)" style="fill: none; stroke: #7f7f7f; stroke-width: 1.5; stroke-linecap: square"/>
    <defs>
     <path id="mba5f8e6acd" d="M 0 3.5 
C 0.928211 3.5 1.81853 3.131218 2.474874 2.474874 
C 3.131218 1.81853 3.5 0.928211 3.5 0 
C 3.5 -0.928211 3.131218 -1.81853 2.474874 -2.474874 
C 1.81853 -3.131218 0.928211 -3.5 0 -3.5 
C -0.928211 -3.5 -1.81853 -3.131218 -2.474874 -2.474874 
C -3.131218 -1.81853 -3.5 -0.928211 -3.5 0 
C -3.5 0.928211 -3.131218 1.81853 -2.474874 2.474874 
C -1.81853 3.131218 -0.928211 3.5 0 3.5 
z
" style="stroke: #7f7f7f"/>
    </defs>
    <g clip-path="url(#pb73bf0ed1b)">
     <use xlink:href="#mba5f8e6acd" x="87.339545" y="386.820735" style="fill: #7f7f7f; stroke: #7f7f7f"/>
     <use xlink:href="#mba5f8e6acd" x="115.393042" y="349.045373" style="fill: #7f7f7f; stroke: #7f7f7f"/>
     <use xlink:href="#mba5f8e6acd" x="143.446538" y="318.265449" style="fill: #7f7f7f; stroke: #7f7f7f"/>
     <use xlink:href="#mba5f8e6acd" x="171.500035" y="301.476399" style="fill: #7f7f7f; stroke: #7f7f7f"/>
     <use xlink:href="#mba5f8e6acd" x="199.553531" y="284.687349" style="fill: #7f7f7f; stroke: #7f7f7f"/>
     <use xlink:href="#mba5f8e6acd" x="227.607028" y="267.898299" style="fill: #7f7f7f; stroke: #7f7f7f"/>
     <use xlink:href="#mba5f8e6acd" x="255.660524" y="265.100124" style="fill: #7f7f7f; stroke: #7f7f7f"/>
     <use xlink:href="#mba5f8e6acd" x="283.714021" y="241.315637" style="fill: #7f7f7f; stroke: #7f7f7f"/>
     <use xlink:href="#mba5f8e6acd" x="311.767517" y="206.33845" style="fill: #7f7f7f; stroke: #7f7f7f"/>
     <use xlink:href="#mba5f8e6acd" x="339.821014" y="179.755788" style="fill: #7f7f7f; stroke: #7f7f7f"/>
     <use xlink:href="#mba5f8e6acd" x="367.87451" y="137.783164" style="fill: #7f7f7f; stroke: #7f7f7f"/>
     <use xlink:href="#mba5f8e6acd" x="395.928007" y="120.994114" style="fill: #7f7f7f; stroke: #7f7f7f"/>
     <use xlink:href="#mba5f8e6acd" x="423.981503" y="90.214189" style="fill: #7f7f7f; stroke: #7f7f7f"/>
     <use xlink:href="#mba5f8e6acd" x="508.141993" y="90.214189" style="fill: #7f7f7f; stroke: #7f7f7f"/>
     <use xlink:href="#mba5f8e6acd" x="536.19549" y="90.214189" style="fill: #7f7f7f; stroke: #7f7f7f"/>
     <use xlink:href="#mba5f8e6acd" x="564.248986" y="90.214189" style="fill: #7f7f7f; stroke: #7f7f7f"/>
     <use xlink:href="#mba5f8e6acd" x="592.302483" y="90.214189" style="fill: #7f7f7f; stroke: #7f7f7f"/>
     <use xlink:href="#mba5f8e6acd" x="620.355979" y="90.214189" style="fill: #7f7f7f; stroke: #7f7f7f"/>
     <use xlink:href="#mba5f8e6acd" x="676.462972" y="90.214189" style="fill: #7f7f7f; stroke: #7f7f7f"/>
     <use xlink:href="#mba5f8e6acd" x="704.516469" y="90.214189" style="fill: #7f7f7f; stroke: #7f7f7f"/>
     <use xlink:href="#mba5f8e6acd" x="732.569965" y="90.214189" style="fill: #7f7f7f; stroke: #7f7f7f"/>
     <use xlink:href="#mba5f8e6acd" x="760.623462" y="90.214189" style="fill: #7f7f7f; stroke: #7f7f7f"/>
     <use xlink:href="#mba5f8e6acd" x="788.676958" y="90.214189" style="fill: #7f7f7f; stroke: #7f7f7f"/>
     <use xlink:href="#mba5f8e6acd" x="816.730455" y="90.214189" style="fill: #7f7f7f; stroke: #7f7f7f"/>
    </g>
   </g>
   <g id="line2d_37">
    <path d="M 87.339545 386.972727 
L 115.393042 365.986415 
L 143.446538 331.009228 
L 171.500035 314.220178 
L 199.553531 279.242991 
L 227.607028 269.449379 
L 255.660524 261.054854 
L 283.714021 237.270367 
L 311.767517 216.284055 
L 339.821014 199.495005 
L 367.87451 168.71508 
L 395.928007 151.926031 
L 423.981503 95.962531 
L 508.141993 95.962531 
L 536.19549 95.962531 
L 564.248986 95.962531 
L 592.302483 95.962531 
L 620.355979 95.962531 
L 676.462972 95.962531 
L 704.516469 95.962531 
L 732.569965 95.962531 
L 760.623462 95.962531 
L 788.676958 95.962531 
L 816.730455 95.962531 
" clip-path="url(#pb73bf0ed1b)" style="fill: none; stroke: #bcbd22; stroke-width: 1.5; stroke-linecap: square"/>
    <defs>
     <path id="m8162267d28" d="M 0 3.5 
C 0.928211 3.5 1.81853 3.131218 2.474874 2.474874 
C 3.131218 1.81853 3.5 0.928211 3.5 0 
C 3.5 -0.928211 3.131218 -1.81853 2.474874 -2.474874 
C 1.81853 -3.131218 0.928211 -3.5 0 -3.5 
C -0.928211 -3.5 -1.81853 -3.131218 -2.474874 -2.474874 
C -3.131218 -1.81853 -3.5 -0.928211 -3.5 0 
C -3.5 0.928211 -3.131218 1.81853 -2.474874 2.474874 
C -1.81853 3.131218 -0.928211 3.5 0 3.5 
z
" style="stroke: #bcbd22"/>
    </defs>
    <g clip-path="url(#pb73bf0ed1b)">
     <use xlink:href="#m8162267d28" x="87.339545" y="386.972727" style="fill: #bcbd22; stroke: #bcbd22"/>
     <use xlink:href="#m8162267d28" x="115.393042" y="365.986415" style="fill: #bcbd22; stroke: #bcbd22"/>
     <use xlink:href="#m8162267d28" x="143.446538" y="331.009228" style="fill: #bcbd22; stroke: #bcbd22"/>
     <use xlink:href="#m8162267d28" x="171.500035" y="314.220178" style="fill: #bcbd22; stroke: #bcbd22"/>
     <use xlink:href="#m8162267d28" x="199.553531" y="279.242991" style="fill: #bcbd22; stroke: #bcbd22"/>
     <use xlink:href="#m8162267d28" x="227.607028" y="269.449379" style="fill: #bcbd22; stroke: #bcbd22"/>
     <use xlink:href="#m8162267d28" x="255.660524" y="261.054854" style="fill: #bcbd22; stroke: #bcbd22"/>
     <use xlink:href="#m8162267d28" x="283.714021" y="237.270367" style="fill: #bcbd22; stroke: #bcbd22"/>
     <use xlink:href="#m8162267d28" x="311.767517" y="216.284055" style="fill: #bcbd22; stroke: #bcbd22"/>
     <use xlink:href="#m8162267d28" x="339.821014" y="199.495005" style="fill: #bcbd22; stroke: #bcbd22"/>
     <use xlink:href="#m8162267d28" x="367.87451" y="168.71508" style="fill: #bcbd22; stroke: #bcbd22"/>
     <use xlink:href="#m8162267d28" x="395.928007" y="151.926031" style="fill: #bcbd22; stroke: #bcbd22"/>
     <use xlink:href="#m8162267d28" x="423.981503" y="95.962531" style="fill: #bcbd22; stroke: #bcbd22"/>
     <use xlink:href="#m8162267d28" x="508.141993" y="95.962531" style="fill: #bcbd22; stroke: #bcbd22"/>
     <use xlink:href="#m8162267d28" x="536.19549" y="95.962531" style="fill: #bcbd22; stroke: #bcbd22"/>
     <use xlink:href="#m8162267d28" x="564.248986" y="95.962531" style="fill: #bcbd22; stroke: #bcbd22"/>
     <use xlink:href="#m8162267d28" x="592.302483" y="95.962531" style="fill: #bcbd22; stroke: #bcbd22"/>
     <use xlink:href="#m8162267d28" x="620.355979" y="95.962531" style="fill: #bcbd22; stroke: #bcbd22"/>
     <use xlink:href="#m8162267d28" x="676.462972" y="95.962531" style="fill: #bcbd22; stroke: #bcbd22"/>
     <use xlink:href="#m8162267d28" x="704.516469" y="95.962531" style="fill: #bcbd22; stroke: #bcbd22"/>
     <use xlink:href="#m8162267d28" x="732.569965" y="95.962531" style="fill: #bcbd22; stroke: #bcbd22"/>
     <use xlink:href="#m8162267d28" x="760.623462" y="95.962531" style="fill: #bcbd22; stroke: #bcbd22"/>
     <use xlink:href="#m8162267d28" x="788.676958" y="95.962531" style="fill: #bcbd22; stroke: #bcbd22"/>
     <use xlink:href="#m8162267d28" x="816.730455" y="95.962531" style="fill: #bcbd22; stroke: #bcbd22"/>
    </g>
   </g>
   <g id="line2d_38">
    <path d="M 87.339545 386.765797 
L 115.393042 383.967622 
L 143.446538 346.19226 
L 171.500035 332.201385 
L 199.553531 290.228761 
L 227.607028 270.641536 
L 255.660524 260.847924 
L 283.714021 239.861611 
L 311.767517 202.08625 
L 339.821014 178.301762 
L 367.87451 161.512713 
L 395.928007 144.723663 
L 423.981503 116.741913 
L 508.141993 116.741913 
L 536.19549 116.741913 
L 564.248986 116.741913 
L 592.302483 116.741913 
L 620.355979 116.741913 
L 676.462972 116.741913 
L 704.516469 116.741913 
L 732.569965 116.741913 
L 760.623462 116.741913 
L 788.676958 116.741913 
L 816.730455 116.741913 
" clip-path="url(#pb73bf0ed1b)" style="fill: none; stroke: #17becf; stroke-width: 1.5; stroke-linecap: square"/>
    <defs>
     <path id="m519e2e1ce1" d="M 0 3.5 
C 0.928211 3.5 1.81853 3.131218 2.474874 2.474874 
C 3.131218 1.81853 3.5 0.928211 3.5 0 
C 3.5 -0.928211 3.131218 -1.81853 2.474874 -2.474874 
C 1.81853 -3.131218 0.928211 -3.5 0 -3.5 
C -0.928211 -3.5 -1.81853 -3.131218 -2.474874 -2.474874 
C -3.131218 -1.81853 -3.5 -0.928211 -3.5 0 
C -3.5 0.928211 -3.131218 1.81853 -2.474874 2.474874 
C -1.81853 3.131218 -0.928211 3.5 0 3.5 
z
" style="stroke: #17becf"/>
    </defs>
    <g clip-path="url(#pb73bf0ed1b)">
     <use xlink:href="#m519e2e1ce1" x="87.339545" y="386.765797" style="fill: #17becf; stroke: #17becf"/>
     <use xlink:href="#m519e2e1ce1" x="115.393042" y="383.967622" style="fill: #17becf; stroke: #17becf"/>
     <use xlink:href="#m519e2e1ce1" x="143.446538" y="346.19226" style="fill: #17becf; stroke: #17becf"/>
     <use xlink:href="#m519e2e1ce1" x="171.500035" y="332.201385" style="fill: #17becf; stroke: #17becf"/>
     <use xlink:href="#m519e2e1ce1" x="199.553531" y="290.228761" style="fill: #17becf; stroke: #17becf"/>
     <use xlink:href="#m519e2e1ce1" x="227.607028" y="270.641536" style="fill: #17becf; stroke: #17becf"/>
     <use xlink:href="#m519e2e1ce1" x="255.660524" y="260.847924" style="fill: #17becf; stroke: #17becf"/>
     <use xlink:href="#m519e2e1ce1" x="283.714021" y="239.861611" style="fill: #17becf; stroke: #17becf"/>
     <use xlink:href="#m519e2e1ce1" x="311.767517" y="202.08625" style="fill: #17becf; stroke: #17becf"/>
     <use xlink:href="#m519e2e1ce1" x="339.821014" y="178.301762" style="fill: #17becf; stroke: #17becf"/>
     <use xlink:href="#m519e2e1ce1" x="367.87451" y="161.512713" style="fill: #17becf; stroke: #17becf"/>
     <use xlink:href="#m519e2e1ce1" x="395.928007" y="144.723663" style="fill: #17becf; stroke: #17becf"/>
     <use xlink:href="#m519e2e1ce1" x="423.981503" y="116.741913" style="fill: #17becf; stroke: #17becf"/>
     <use xlink:href="#m519e2e1ce1" x="508.141993" y="116.741913" style="fill: #17becf; stroke: #17becf"/>
     <use xlink:href="#m519e2e1ce1" x="536.19549" y="116.741913" style="fill: #17becf; stroke: #17becf"/>
     <use xlink:href="#m519e2e1ce1" x="564.248986" y="116.741913" style="fill: #17becf; stroke: #17becf"/>
     <use xlink:href="#m519e2e1ce1" x="592.302483" y="116.741913" style="fill: #17becf; stroke: #17becf"/>
     <use xlink:href="#m519e2e1ce1" x="620.355979" y="116.741913" style="fill: #17becf; stroke: #17becf"/>
     <use xlink:href="#m519e2e1ce1" x="676.462972" y="116.741913" style="fill: #17becf; stroke: #17becf"/>
     <use xlink:href="#m519e2e1ce1" x="704.516469" y="116.741913" style="fill: #17becf; stroke: #17becf"/>
     <use xlink:href="#m519e2e1ce1" x="732.569965" y="116.741913" style="fill: #17becf; stroke: #17becf"/>
     <use xlink:href="#m519e2e1ce1" x="760.623462" y="116.741913" style="fill: #17becf; stroke: #17becf"/>
     <use xlink:href="#m519e2e1ce1" x="788.676958" y="116.741913" style="fill: #17becf; stroke: #17becf"/>
     <use xlink:href="#m519e2e1ce1" x="816.730455" y="116.741913" style="fill: #17becf; stroke: #17becf"/>
    </g>
   </g>
   <g id="line2d_39">
    <path d="M 87.339545 386.777208 
L 115.393042 351.800021 
L 143.446538 332.212797 
L 171.500035 311.226485 
L 199.553531 297.23561 
L 227.607028 276.249298 
L 255.660524 273.451123 
L 283.714021 249.666635 
L 311.767517 228.680323 
L 339.821014 179.712261 
L 367.87451 144.735074 
L 395.928007 106.959712 
L 423.981503 59.390738 
L 508.141993 59.390738 
L 536.19549 59.390738 
L 564.248986 59.390738 
L 592.302483 59.390738 
L 620.355979 59.390738 
L 676.462972 59.390738 
L 704.516469 59.390738 
L 732.569965 59.390738 
L 760.623462 59.390738 
L 788.676958 59.390738 
L 816.730455 59.390738 
" clip-path="url(#pb73bf0ed1b)" style="fill: none; stroke: #1f77b4; stroke-width: 1.5; stroke-linecap: square"/>
    <g clip-path="url(#pb73bf0ed1b)">
     <use xlink:href="#ma0ba863f19" x="87.339545" y="386.777208" style="fill: #1f77b4; stroke: #1f77b4"/>
     <use xlink:href="#ma0ba863f19" x="115.393042" y="351.800021" style="fill: #1f77b4; stroke: #1f77b4"/>
     <use xlink:href="#ma0ba863f19" x="143.446538" y="332.212797" style="fill: #1f77b4; stroke: #1f77b4"/>
     <use xlink:href="#ma0ba863f19" x="171.500035" y="311.226485" style="fill: #1f77b4; stroke: #1f77b4"/>
     <use xlink:href="#ma0ba863f19" x="199.553531" y="297.23561" style="fill: #1f77b4; stroke: #1f77b4"/>
     <use xlink:href="#ma0ba863f19" x="227.607028" y="276.249298" style="fill: #1f77b4; stroke: #1f77b4"/>
     <use xlink:href="#ma0ba863f19" x="255.660524" y="273.451123" style="fill: #1f77b4; stroke: #1f77b4"/>
     <use xlink:href="#ma0ba863f19" x="283.714021" y="249.666635" style="fill: #1f77b4; stroke: #1f77b4"/>
     <use xlink:href="#ma0ba863f19" x="311.767517" y="228.680323" style="fill: #1f77b4; stroke: #1f77b4"/>
     <use xlink:href="#ma0ba863f19" x="339.821014" y="179.712261" style="fill: #1f77b4; stroke: #1f77b4"/>
     <use xlink:href="#ma0ba863f19" x="367.87451" y="144.735074" style="fill: #1f77b4; stroke: #1f77b4"/>
     <use xlink:href="#ma0ba863f19" x="395.928007" y="106.959712" style="fill: #1f77b4; stroke: #1f77b4"/>
     <use xlink:href="#ma0ba863f19" x="423.981503" y="59.390738" style="fill: #1f77b4; stroke: #1f77b4"/>
     <use xlink:href="#ma0ba863f19" x="508.141993" y="59.390738" style="fill: #1f77b4; stroke: #1f77b4"/>
     <use xlink:href="#ma0ba863f19" x="536.19549" y="59.390738" style="fill: #1f77b4; stroke: #1f77b4"/>
     <use xlink:href="#ma0ba863f19" x="564.248986" y="59.390738" style="fill: #1f77b4; stroke: #1f77b4"/>
     <use xlink:href="#ma0ba863f19" x="592.302483" y="59.390738" style="fill: #1f77b4; stroke: #1f77b4"/>
     <use xlink:href="#ma0ba863f19" x="620.355979" y="59.390738" style="fill: #1f77b4; stroke: #1f77b4"/>
     <use xlink:href="#ma0ba863f19" x="676.462972" y="59.390738" style="fill: #1f77b4; stroke: #1f77b4"/>
     <use xlink:href="#ma0ba863f19" x="704.516469" y="59.390738" style="fill: #1f77b4; stroke: #1f77b4"/>
     <use xlink:href="#ma0ba863f19" x="732.569965" y="59.390738" style="fill: #1f77b4; stroke: #1f77b4"/>
     <use xlink:href="#ma0ba863f19" x="760.623462" y="59.390738" style="fill: #1f77b4; stroke: #1f77b4"/>
     <use xlink:href="#ma0ba863f19" x="788.676958" y="59.390738" style="fill: #1f77b4; stroke: #1f77b4"/>
     <use xlink:href="#ma0ba863f19" x="816.730455" y="59.390738" style="fill: #1f77b4; stroke: #1f77b4"/>
    </g>
   </g>
   <g id="line2d_40">
    <path d="M 87.339545 386.931532 
L 115.393042 365.94522 
L 143.446538 328.169858 
L 171.500035 314.178983 
L 199.553531 300.188108 
L 227.607028 276.403621 
L 255.660524 266.610009 
L 283.714021 245.623697 
L 311.767517 203.651072 
L 339.821014 179.866585 
L 367.87451 144.889398 
L 395.928007 129.499436 
L 423.981503 84.728636 
L 508.141993 84.728636 
L 536.19549 84.728636 
L 564.248986 84.728636 
L 592.302483 84.728636 
L 620.355979 84.728636 
L 676.462972 84.728636 
L 704.516469 84.728636 
L 732.569965 84.728636 
L 760.623462 84.728636 
L 788.676958 84.728636 
L 816.730455 84.728636 
" clip-path="url(#pb73bf0ed1b)" style="fill: none; stroke: #ff7f0e; stroke-width: 1.5; stroke-linecap: square"/>
    <g clip-path="url(#pb73bf0ed1b)">
     <use xlink:href="#m65ded663c7" x="87.339545" y="386.931532" style="fill: #ff7f0e; stroke: #ff7f0e"/>
     <use xlink:href="#m65ded663c7" x="115.393042" y="365.94522" style="fill: #ff7f0e; stroke: #ff7f0e"/>
     <use xlink:href="#m65ded663c7" x="143.446538" y="328.169858" style="fill: #ff7f0e; stroke: #ff7f0e"/>
     <use xlink:href="#m65ded663c7" x="171.500035" y="314.178983" style="fill: #ff7f0e; stroke: #ff7f0e"/>
     <use xlink:href="#m65ded663c7" x="199.553531" y="300.188108" style="fill: #ff7f0e; stroke: #ff7f0e"/>
     <use xlink:href="#m65ded663c7" x="227.607028" y="276.403621" style="fill: #ff7f0e; stroke: #ff7f0e"/>
     <use xlink:href="#m65ded663c7" x="255.660524" y="266.610009" style="fill: #ff7f0e; stroke: #ff7f0e"/>
     <use xlink:href="#m65ded663c7" x="283.714021" y="245.623697" style="fill: #ff7f0e; stroke: #ff7f0e"/>
     <use xlink:href="#m65ded663c7" x="311.767517" y="203.651072" style="fill: #ff7f0e; stroke: #ff7f0e"/>
     <use xlink:href="#m65ded663c7" x="339.821014" y="179.866585" style="fill: #ff7f0e; stroke: #ff7f0e"/>
     <use xlink:href="#m65ded663c7" x="367.87451" y="144.889398" style="fill: #ff7f0e; stroke: #ff7f0e"/>
     <use xlink:href="#m65ded663c7" x="395.928007" y="129.499436" style="fill: #ff7f0e; stroke: #ff7f0e"/>
     <use xlink:href="#m65ded663c7" x="423.981503" y="84.728636" style="fill: #ff7f0e; stroke: #ff7f0e"/>
     <use xlink:href="#m65ded663c7" x="508.141993" y="84.728636" style="fill: #ff7f0e; stroke: #ff7f0e"/>
     <use xlink:href="#m65ded663c7" x="536.19549" y="84.728636" style="fill: #ff7f0e; stroke: #ff7f0e"/>
     <use xlink:href="#m65ded663c7" x="564.248986" y="84.728636" style="fill: #ff7f0e; stroke: #ff7f0e"/>
     <use xlink:href="#m65ded663c7" x="592.302483" y="84.728636" style="fill: #ff7f0e; stroke: #ff7f0e"/>
     <use xlink:href="#m65ded663c7" x="620.355979" y="84.728636" style="fill: #ff7f0e; stroke: #ff7f0e"/>
     <use xlink:href="#m65ded663c7" x="676.462972" y="84.728636" style="fill: #ff7f0e; stroke: #ff7f0e"/>
     <use xlink:href="#m65ded663c7" x="704.516469" y="84.728636" style="fill: #ff7f0e; stroke: #ff7f0e"/>
     <use xlink:href="#m65ded663c7" x="732.569965" y="84.728636" style="fill: #ff7f0e; stroke: #ff7f0e"/>
     <use xlink:href="#m65ded663c7" x="760.623462" y="84.728636" style="fill: #ff7f0e; stroke: #ff7f0e"/>
     <use xlink:href="#m65ded663c7" x="788.676958" y="84.728636" style="fill: #ff7f0e; stroke: #ff7f0e"/>
     <use xlink:href="#m65ded663c7" x="816.730455" y="84.728636" style="fill: #ff7f0e; stroke: #ff7f0e"/>
    </g>
   </g>
   <g id="line2d_41">
    <path d="M 87.339545 386.803705 
L 115.393042 337.835644 
L 143.446538 300.060282 
L 171.500035 286.069407 
L 199.553531 276.275794 
L 227.607028 241.298607 
L 255.660524 217.51412 
L 283.714021 207.720508 
L 311.767517 169.945146 
L 339.821014 146.160659 
L 367.87451 111.183472 
L 395.928007 84.60081 
L 423.981503 44.027273 
L 508.141993 44.027273 
L 536.19549 44.027273 
L 564.248986 44.027273 
L 592.302483 44.027273 
L 620.355979 44.027273 
L 676.462972 44.027273 
L 704.516469 44.027273 
L 732.569965 44.027273 
L 760.623462 44.027273 
L 788.676958 44.027273 
L 816.730455 44.027273 
" clip-path="url(#pb73bf0ed1b)" style="fill: none; stroke: #2ca02c; stroke-width: 1.5; stroke-linecap: square"/>
    <g clip-path="url(#pb73bf0ed1b)">
     <use xlink:href="#m4e6938728a" x="87.339545" y="386.803705" style="fill: #2ca02c; stroke: #2ca02c"/>
     <use xlink:href="#m4e6938728a" x="115.393042" y="337.835644" style="fill: #2ca02c; stroke: #2ca02c"/>
     <use xlink:href="#m4e6938728a" x="143.446538" y="300.060282" style="fill: #2ca02c; stroke: #2ca02c"/>
     <use xlink:href="#m4e6938728a" x="171.500035" y="286.069407" style="fill: #2ca02c; stroke: #2ca02c"/>
     <use xlink:href="#m4e6938728a" x="199.553531" y="276.275794" style="fill: #2ca02c; stroke: #2ca02c"/>
     <use xlink:href="#m4e6938728a" x="227.607028" y="241.298607" style="fill: #2ca02c; stroke: #2ca02c"/>
     <use xlink:href="#m4e6938728a" x="255.660524" y="217.51412" style="fill: #2ca02c; stroke: #2ca02c"/>
     <use xlink:href="#m4e6938728a" x="283.714021" y="207.720508" style="fill: #2ca02c; stroke: #2ca02c"/>
     <use xlink:href="#m4e6938728a" x="311.767517" y="169.945146" style="fill: #2ca02c; stroke: #2ca02c"/>
     <use xlink:href="#m4e6938728a" x="339.821014" y="146.160659" style="fill: #2ca02c; stroke: #2ca02c"/>
     <use xlink:href="#m4e6938728a" x="367.87451" y="111.183472" style="fill: #2ca02c; stroke: #2ca02c"/>
     <use xlink:href="#m4e6938728a" x="395.928007" y="84.60081" style="fill: #2ca02c; stroke: #2ca02c"/>
     <use xlink:href="#m4e6938728a" x="423.981503" y="44.027273" style="fill: #2ca02c; stroke: #2ca02c"/>
     <use xlink:href="#m4e6938728a" x="508.141993" y="44.027273" style="fill: #2ca02c; stroke: #2ca02c"/>
     <use xlink:href="#m4e6938728a" x="536.19549" y="44.027273" style="fill: #2ca02c; stroke: #2ca02c"/>
     <use xlink:href="#m4e6938728a" x="564.248986" y="44.027273" style="fill: #2ca02c; stroke: #2ca02c"/>
     <use xlink:href="#m4e6938728a" x="592.302483" y="44.027273" style="fill: #2ca02c; stroke: #2ca02c"/>
     <use xlink:href="#m4e6938728a" x="620.355979" y="44.027273" style="fill: #2ca02c; stroke: #2ca02c"/>
     <use xlink:href="#m4e6938728a" x="676.462972" y="44.027273" style="fill: #2ca02c; stroke: #2ca02c"/>
     <use xlink:href="#m4e6938728a" x="704.516469" y="44.027273" style="fill: #2ca02c; stroke: #2ca02c"/>
     <use xlink:href="#m4e6938728a" x="732.569965" y="44.027273" style="fill: #2ca02c; stroke: #2ca02c"/>
     <use xlink:href="#m4e6938728a" x="760.623462" y="44.027273" style="fill: #2ca02c; stroke: #2ca02c"/>
     <use xlink:href="#m4e6938728a" x="788.676958" y="44.027273" style="fill: #2ca02c; stroke: #2ca02c"/>
     <use xlink:href="#m4e6938728a" x="816.730455" y="44.027273" style="fill: #2ca02c; stroke: #2ca02c"/>
    </g>
   </g>
   <g id="line2d_42">
    <path d="M 87.339545 386.719699 
L 115.393042 362.935212 
L 143.446538 348.944337 
L 171.500035 339.150725 
L 199.553531 318.164413 
L 227.607028 308.3708 
L 255.660524 284.586313 
L 283.714021 249.609126 
L 311.767517 200.641064 
L 339.821014 174.058402 
L 367.87451 143.278478 
L 395.928007 137.682128 
L 423.981503 81.718628 
L 508.141993 81.718628 
L 536.19549 81.718628 
L 564.248986 81.718628 
L 592.302483 81.718628 
L 620.355979 81.718628 
L 676.462972 81.718628 
L 704.516469 81.718628 
L 732.569965 81.718628 
L 760.623462 81.718628 
L 788.676958 81.718628 
L 816.730455 81.718628 
" clip-path="url(#pb73bf0ed1b)" style="fill: none; stroke: #d62728; stroke-width: 1.5; stroke-linecap: square"/>
    <g clip-path="url(#pb73bf0ed1b)">
     <use xlink:href="#m8df8274bd2" x="87.339545" y="386.719699" style="fill: #d62728; stroke: #d62728"/>
     <use xlink:href="#m8df8274bd2" x="115.393042" y="362.935212" style="fill: #d62728; stroke: #d62728"/>
     <use xlink:href="#m8df8274bd2" x="143.446538" y="348.944337" style="fill: #d62728; stroke: #d62728"/>
     <use xlink:href="#m8df8274bd2" x="171.500035" y="339.150725" style="fill: #d62728; stroke: #d62728"/>
     <use xlink:href="#m8df8274bd2" x="199.553531" y="318.164413" style="fill: #d62728; stroke: #d62728"/>
     <use xlink:href="#m8df8274bd2" x="227.607028" y="308.3708" style="fill: #d62728; stroke: #d62728"/>
     <use xlink:href="#m8df8274bd2" x="255.660524" y="284.586313" style="fill: #d62728; stroke: #d62728"/>
     <use xlink:href="#m8df8274bd2" x="283.714021" y="249.609126" style="fill: #d62728; stroke: #d62728"/>
     <use xlink:href="#m8df8274bd2" x="311.767517" y="200.641064" style="fill: #d62728; stroke: #d62728"/>
     <use xlink:href="#m8df8274bd2" x="339.821014" y="174.058402" style="fill: #d62728; stroke: #d62728"/>
     <use xlink:href="#m8df8274bd2" x="367.87451" y="143.278478" style="fill: #d62728; stroke: #d62728"/>
     <use xlink:href="#m8df8274bd2" x="395.928007" y="137.682128" style="fill: #d62728; stroke: #d62728"/>
     <use xlink:href="#m8df8274bd2" x="423.981503" y="81.718628" style="fill: #d62728; stroke: #d62728"/>
     <use xlink:href="#m8df8274bd2" x="508.141993" y="81.718628" style="fill: #d62728; stroke: #d62728"/>
     <use xlink:href="#m8df8274bd2" x="536.19549" y="81.718628" style="fill: #d62728; stroke: #d62728"/>
     <use xlink:href="#m8df8274bd2" x="564.248986" y="81.718628" style="fill: #d62728; stroke: #d62728"/>
     <use xlink:href="#m8df8274bd2" x="592.302483" y="81.718628" style="fill: #d62728; stroke: #d62728"/>
     <use xlink:href="#m8df8274bd2" x="620.355979" y="81.718628" style="fill: #d62728; stroke: #d62728"/>
     <use xlink:href="#m8df8274bd2" x="676.462972" y="81.718628" style="fill: #d62728; stroke: #d62728"/>
     <use xlink:href="#m8df8274bd2" x="704.516469" y="81.718628" style="fill: #d62728; stroke: #d62728"/>
     <use xlink:href="#m8df8274bd2" x="732.569965" y="81.718628" style="fill: #d62728; stroke: #d62728"/>
     <use xlink:href="#m8df8274bd2" x="760.623462" y="81.718628" style="fill: #d62728; stroke: #d62728"/>
     <use xlink:href="#m8df8274bd2" x="788.676958" y="81.718628" style="fill: #d62728; stroke: #d62728"/>
     <use xlink:href="#m8df8274bd2" x="816.730455" y="81.718628" style="fill: #d62728; stroke: #d62728"/>
    </g>
   </g>
   <g id="patch_3">
    <path d="M 50.87 404.12 
L 50.87 26.88 
" style="fill: none; stroke: #000000; stroke-width: 0.8; stroke-linejoin: miter; stroke-linecap: square"/>
   </g>
   <g id="patch_4">
    <path d="M 853.2 404.12 
L 853.2 26.88 
" style="fill: none; stroke: #000000; stroke-width: 0.8; stroke-linejoin: miter; stroke-linecap: square"/>
   </g>
   <g id="patch_5">
    <path d="M 50.87 404.12 
L 853.2 404.12 
" style="fill: none; stroke: #000000; stroke-width: 0.8; stroke-linejoin: miter; stroke-linecap: square"/>
   </g>
   <g id="patch_6">
    <path d="M 50.87 26.88 
L 853.2 26.88 
" style="fill: none; stroke: #000000; stroke-width: 0.8; stroke-linejoin: miter; stroke-linecap: square"/>
   </g>
   <g id="text_16">
    <!-- Standings -->
    <g transform="translate(422.18125 20.88) scale(0.12 -0.12)">
     <defs>
      <path id="DejaVuSans-74" d="M 1172 4494 
L 1172 3500 
L 2356 3500 
L 2356 3053 
L 1172 3053 
L 1172 1153 
Q 1172 725 1289 603 
Q 1406 481 1766 481 
L 2356 481 
L 2356 0 
L 1766 0 
Q 1100 0 847 248 
Q 594 497 594 1153 
L 594 3053 
L 172 3053 
L 172 3500 
L 594 3500 
L 594 4494 
L 1172 4494 
z
" transform="scale(0.015625)"/>
      <path id="DejaVuSans-61" d="M 2194 1759 
Q 1497 1759 1228 1600 
Q 959 1441 959 1056 
Q 959 750 1161 570 
Q 1363 391 1709 391 
Q 2188 391 2477 730 
Q 2766 1069 2766 1631 
L 2766 1759 
L 2194 1759 
z
M 3341 1997 
L 3341 0 
L 2766 0 
L 2766 531 
Q 2569 213 2275 61 
Q 1981 -91 1556 -91 
Q 1019 -91 701 211 
Q 384 513 384 1019 
Q 384 1609 779 1909 
Q 1175 2209 1959 2209 
L 2766 2209 
L 2766 2266 
Q 2766 2663 2505 2880 
Q 2244 3097 1772 3097 
Q 1472 3097 1187 3025 
Q 903 2953 641 2809 
L 641 3341 
Q 956 3463 1253 3523 
Q 1550 3584 1831 3584 
Q 2591 3584 2966 3190 
Q 3341 2797 3341 1997 
z
" transform="scale(0.015625)"/>
      <path id="DejaVuSans-6e" d="M 3513 2113 
L 3513 0 
L 2938 0 
L 2938 2094 
Q 2938 2591 2744 2837 
Q 2550 3084 2163 3084 
Q 1697 3084 1428 2787 
Q 1159 2491 1159 1978 
L 1159 0 
L 581 0 
L 581 3500 
L 1159 3500 
L 1159 2956 
Q 1366 3272 1645 3428 
Q 1925 3584 2291 3584 
Q 2894 3584 3203 3211 
Q 3513 2838 3513 2113 
z
" transform="scale(0.015625)"/>
      <path id="DejaVuSans-64" d="M 2906 2969 
L 2906 4863 
L 3481 4863 
L 3481 0 
L 2906 0 
L 2906 525 
Q 2725 213 2448 61 
Q 2172 -91 1784 -91 
Q 1150 -91 751 415 
Q 353 922 353 1747 
Q 353 2572 751 3078 
Q 1150 3584 1784 3584 
Q 2172 3584 2448 3432 
Q 2725 3281 2906 2969 
z
M 947 1747 
Q 947 1113 1208 752 
Q 1469 391 1925 391 
Q 2381 391 2643 752 
Q 2906 1113 2906 1747 
Q 2906 2381 2643 2742 
Q 2381 3103 1925 3103 
Q 1469 3103 1208 2742 
Q 947 2381 947 1747 
z
" transform="scale(0.015625)"/>
      <path id="DejaVuSans-69" d="M 603 3500 
L 1178 3500 
L 1178 0 
L 603 0 
L 603 3500 
z
M 603 4863 
L 1178 4863 
L 1178 4134 
L 603 4134 
L 603 4863 
z
" transform="scale(0.015625)"/>
      <path id="DejaVuSans-67" d="M 2906 1791 
Q 2906 2416 2648 2759 
Q 2391 3103 1925 3103 
Q 1463 3103 1205 2759 
Q 947 2416 947 1791 
Q 947 1169 1205 825 
Q 1463 481 1925 481 
Q 2391 481 2648 825 
Q 2906 1169 2906 1791 
z
M 3481 434 
Q 3481 -459 3084 -895 
Q 2688 -1331 1869 -1331 
Q 1566 -1331 1297 -1286 
Q 1028 -1241 775 -1147 
L 775 -588 
Q 1028 -725 1275 -790 
Q 1522 -856 1778 -856 
Q 2344 -856 2625 -561 
Q 2906 -266 2906 331 
L 2906 616 
Q 2728 306 2450 153 
Q 2172 0 1784 0 
Q 1141 0 747 490 
Q 353 981 353 1791 
Q 353 2603 747 3093 
Q 1141 3584 1784 3584 
Q 2172 3584 2450 3431 
Q 2728 3278 2906 2969 
L 2906 3500 
L 3481 3500 
L 3481 434 
z
" transform="scale(0.015625)"/>
      <path id="DejaVuSans-73" d="M 2834 3397 
L 2834 2853 
Q 2591 2978 2328 3040 
Q 2066 3103 1784 3103 
Q 1356 3103 1142 2972 
Q 928 2841 928 2578 
Q 928 2378 1081 2264 
Q 1234 2150 1697 2047 
L 1894 2003 
Q 2506 1872 2764 1633 
Q 3022 1394 3022 966 
Q 3022 478 2636 193 
Q 2250 -91 1575 -91 
Q 1294 -91 989 -36 
Q 684 19 347 128 
L 347 722 
Q 666 556 975 473 
Q 1284 391 1588 391 
Q 1994 391 2212 530 
Q 2431 669 2431 922 
Q 2431 1156 2273 1281 
Q 2116 1406 1581 1522 
L 1381 1569 
Q 847 1681 609 1914 
Q 372 2147 372 2553 
Q 372 3047 722 3315 
Q 1072 3584 1716 3584 
Q 2034 3584 2315 3537 
Q 2597 3491 2834 3397 
z
" transform="scale(0.015625)"/>
     </defs>
     <use xlink:href="#DejaVuSans-53"/>
     <use xlink:href="#DejaVuSans-74" x="63.476562"/>
     <use xlink:href="#DejaVuSans-61" x="102.685547"/>
     <use xlink:href="#DejaVuSans-6e" x="163.964844"/>
     <use xlink:href="#DejaVuSans-64" x="227.34375"/>
     <use xlink:href="#DejaVuSans-69" x="290.820312"/>
     <use xlink:href="#DejaVuSans-6e" x="318.603516"/>
     <use xlink:href="#DejaVuSans-67" x="381.982422"/>
     <use xlink:href="#DejaVuSans-73" x="445.458984"/>
    </g>
   </g>
   <g id="legend_1">
    <g id="patch_7">
     <path d="M 57.87 137.626875 
L 260.771563 137.626875 
Q 262.771563 137.626875 262.771563 135.626875 
L 262.771563 33.88 
Q 262.771563 31.88 260.771563 31.88 
L 57.87 31.88 
Q 55.87 31.88 55.87 33.88 
L 55.87 135.626875 
Q 55.87 137.626875 57.87 137.626875 
z
" style="fill: #ffffff; opacity: 0.8; stroke: #cccccc; stroke-linejoin: miter"/>
    </g>
    <g id="line2d_43">
     <path d="M 59.87 39.978437 
L 69.87 39.978437 
L 79.87 39.978437 
" style="fill: none; stroke: #1f77b4; stroke-width: 1.5; stroke-linecap: square"/>
     <g>
      <use xlink:href="#ma0ba863f19" x="69.87" y="39.978437" style="fill: #1f77b4; stroke: #1f77b4"/>
     </g>
    </g>
    <g id="text_17">
     <!-- Kenneth Sc -->
     <g transform="translate(87.87 43.478437) scale(0.1 -0.1)">
      <defs>
       <path id="DejaVuSans-4b" d="M 628 4666 
L 1259 4666 
L 1259 2694 
L 3353 4666 
L 4166 4666 
L 1850 2491 
L 4331 0 
L 3500 0 
L 1259 2247 
L 1259 0 
L 628 0 
L 628 4666 
z
" transform="scale(0.015625)"/>
       <path id="DejaVuSans-68" d="M 3513 2113 
L 3513 0 
L 2938 0 
L 2938 2094 
Q 2938 2591 2744 2837 
Q 2550 3084 2163 3084 
Q 1697 3084 1428 2787 
Q 1159 2491 1159 1978 
L 1159 0 
L 581 0 
L 581 4863 
L 1159 4863 
L 1159 2956 
Q 1366 3272 1645 3428 
Q 1925 3584 2291 3584 
Q 2894 3584 3203 3211 
Q 3513 2838 3513 2113 
z
" transform="scale(0.015625)"/>
       <path id="DejaVuSans-20" transform="scale(0.015625)"/>
      </defs>
      <use xlink:href="#DejaVuSans-4b"/>
      <use xlink:href="#DejaVuSans-65" x="60.576172"/>
      <use xlink:href="#DejaVuSans-6e" x="122.099609"/>
      <use xlink:href="#DejaVuSans-6e" x="185.478516"/>
      <use xlink:href="#DejaVuSans-65" x="248.857422"/>
      <use xlink:href="#DejaVuSans-74" x="310.380859"/>
      <use xlink:href="#DejaVuSans-68" x="349.589844"/>
      <use xlink:href="#DejaVuSans-20" x="412.96875"/>
      <use xlink:href="#DejaVuSans-53" x="444.755859"/>
      <use xlink:href="#DejaVuSans-63" x="508.232422"/>
     </g>
    </g>
    <g id="line2d_44">
     <path d="M 59.87 54.656563 
L 69.87 54.656563 
L 79.87 54.656563 
" style="fill: none; stroke: #ff7f0e; stroke-width: 1.5; stroke-linecap: square"/>
     <g>
      <use xlink:href="#m65ded663c7" x="69.87" y="54.656563" style="fill: #ff7f0e; stroke: #ff7f0e"/>
     </g>
    </g>
    <g id="text_18">
     <!-- Laurits Pi -->
     <g transform="translate(87.87 58.156563) scale(0.1 -0.1)">
      <defs>
       <path id="DejaVuSans-4c" d="M 628 4666 
L 1259 4666 
L 1259 531 
L 3531 531 
L 3531 0 
L 628 0 
L 628 4666 
z
" transform="scale(0.015625)"/>
       <path id="DejaVuSans-75" d="M 544 1381 
L 544 3500 
L 1119 3500 
L 1119 1403 
Q 1119 906 1312 657 
Q 1506 409 1894 409 
Q 2359 409 2629 706 
Q 2900 1003 2900 1516 
L 2900 3500 
L 3475 3500 
L 3475 0 
L 2900 0 
L 2900 538 
Q 2691 219 2414 64 
Q 2138 -91 1772 -91 
Q 1169 -91 856 284 
Q 544 659 544 1381 
z
M 1991 3584 
L 1991 3584 
z
" transform="scale(0.015625)"/>
       <path id="DejaVuSans-50" d="M 1259 4147 
L 1259 2394 
L 2053 2394 
Q 2494 2394 2734 2622 
Q 2975 2850 2975 3272 
Q 2975 3691 2734 3919 
Q 2494 4147 2053 4147 
L 1259 4147 
z
M 628 4666 
L 2053 4666 
Q 2838 4666 3239 4311 
Q 3641 3956 3641 3272 
Q 3641 2581 3239 2228 
Q 2838 1875 2053 1875 
L 1259 1875 
L 1259 0 
L 628 0 
L 628 4666 
z
" transform="scale(0.015625)"/>
      </defs>
      <use xlink:href="#DejaVuSans-4c"/>
      <use xlink:href="#DejaVuSans-61" x="55.712891"/>
      <use xlink:href="#DejaVuSans-75" x="116.992188"/>
      <use xlink:href="#DejaVuSans-72" x="180.371094"/>
      <use xlink:href="#DejaVuSans-69" x="221.484375"/>
      <use xlink:href="#DejaVuSans-74" x="249.267578"/>
      <use xlink:href="#DejaVuSans-73" x="288.476562"/>
      <use xlink:href="#DejaVuSans-20" x="340.576172"/>
      <use xlink:href="#DejaVuSans-50" x="372.363281"/>
      <use xlink:href="#DejaVuSans-69" x="430.416016"/>
     </g>
    </g>
    <g id="line2d_45">
     <path d="M 59.87 69.334687 
L 69.87 69.334687 
L 79.87 69.334687 
" style="fill: none; stroke: #2ca02c; stroke-width: 1.5; stroke-linecap: square"/>
     <g>
      <use xlink:href="#m4e6938728a" x="69.87" y="69.334687" style="fill: #2ca02c; stroke: #2ca02c"/>
     </g>
    </g>
    <g id="text_19">
     <!-- Ernst  B -->
     <g transform="translate(87.87 72.834687) scale(0.1 -0.1)">
      <defs>
       <path id="DejaVuSans-45" d="M 628 4666 
L 3578 4666 
L 3578 4134 
L 1259 4134 
L 1259 2753 
L 3481 2753 
L 3481 2222 
L 1259 2222 
L 1259 531 
L 3634 531 
L 3634 0 
L 628 0 
L 628 4666 
z
" transform="scale(0.015625)"/>
       <path id="DejaVuSans-42" d="M 1259 2228 
L 1259 519 
L 2272 519 
Q 2781 519 3026 730 
Q 3272 941 3272 1375 
Q 3272 1813 3026 2020 
Q 2781 2228 2272 2228 
L 1259 2228 
z
M 1259 4147 
L 1259 2741 
L 2194 2741 
Q 2656 2741 2882 2914 
Q 3109 3088 3109 3444 
Q 3109 3797 2882 3972 
Q 2656 4147 2194 4147 
L 1259 4147 
z
M 628 4666 
L 2241 4666 
Q 2963 4666 3353 4366 
Q 3744 4066 3744 3513 
Q 3744 3084 3544 2831 
Q 3344 2578 2956 2516 
Q 3422 2416 3680 2098 
Q 3938 1781 3938 1306 
Q 3938 681 3513 340 
Q 3088 0 2303 0 
L 628 0 
L 628 4666 
z
" transform="scale(0.015625)"/>
       <path id="DejaVuSans-f8" d="M 2828 2503 
L 1306 653 
Q 1434 522 1595 459 
Q 1756 397 1959 397 
Q 2419 397 2687 759 
Q 2956 1122 2956 1747 
Q 2956 1994 2925 2176 
Q 2894 2359 2828 2503 
z
M 2606 2841 
Q 2475 2969 2314 3033 
Q 2153 3097 1959 3097 
Q 1488 3097 1223 2730 
Q 959 2363 959 1703 
Q 959 1478 989 1306 
Q 1019 1134 1081 991 
L 2606 2841 
z
M 691 519 
Q 522 759 437 1067 
Q 353 1375 353 1747 
Q 353 2609 779 3096 
Q 1206 3584 1959 3584 
Q 2250 3584 2498 3504 
Q 2747 3425 2956 3263 
L 3391 3788 
L 3688 3541 
L 3231 2981 
Q 3397 2741 3481 2431 
Q 3566 2122 3566 1747 
Q 3566 888 3137 398 
Q 2709 -91 1959 -91 
Q 1659 -91 1407 -9 
Q 1156 72 959 231 
L 525 -294 
L 225 -50 
L 691 519 
z
" transform="scale(0.015625)"/>
      </defs>
      <use xlink:href="#DejaVuSans-45"/>
      <use xlink:href="#DejaVuSans-72" x="63.183594"/>
      <use xlink:href="#DejaVuSans-6e" x="102.546875"/>
      <use xlink:href="#DejaVuSans-73" x="165.925781"/>
      <use xlink:href="#DejaVuSans-74" x="218.025391"/>
      <use xlink:href="#DejaVuSans-20" x="257.234375"/>
      <use xlink:href="#DejaVuSans-20" x="289.021484"/>
      <use xlink:href="#DejaVuSans-42" x="320.808594"/>
      <use xlink:href="#DejaVuSans-f8" x="389.412109"/>
     </g>
    </g>
    <g id="line2d_46">
     <path d="M 59.87 84.012812 
L 69.87 84.012812 
L 79.87 84.012812 
" style="fill: none; stroke: #d62728; stroke-width: 1.5; stroke-linecap: square"/>
     <g>
      <use xlink:href="#m8df8274bd2" x="69.87" y="84.012812" style="fill: #d62728; stroke: #d62728"/>
     </g>
    </g>
    <g id="text_20">
     <!-- Mette Is -->
     <g transform="translate(87.87 87.512812) scale(0.1 -0.1)">
      <defs>
       <path id="DejaVuSans-4d" d="M 628 4666 
L 1569 4666 
L 2759 1491 
L 3956 4666 
L 4897 4666 
L 4897 0 
L 4281 0 
L 4281 4097 
L 3078 897 
L 2444 897 
L 1241 4097 
L 1241 0 
L 628 0 
L 628 4666 
z
" transform="scale(0.015625)"/>
       <path id="DejaVuSans-49" d="M 628 4666 
L 1259 4666 
L 1259 0 
L 628 0 
L 628 4666 
z
" transform="scale(0.015625)"/>
      </defs>
      <use xlink:href="#DejaVuSans-4d"/>
      <use xlink:href="#DejaVuSans-65" x="86.279297"/>
      <use xlink:href="#DejaVuSans-74" x="147.802734"/>
      <use xlink:href="#DejaVuSans-74" x="187.011719"/>
      <use xlink:href="#DejaVuSans-65" x="226.220703"/>
      <use xlink:href="#DejaVuSans-20" x="287.744141"/>
      <use xlink:href="#DejaVuSans-49" x="319.53125"/>
      <use xlink:href="#DejaVuSans-73" x="349.023438"/>
     </g>
    </g>
    <g id="line2d_47">
     <path d="M 59.87 98.690938 
L 69.87 98.690938 
L 79.87 98.690938 
" style="fill: none; stroke: #9467bd; stroke-width: 1.5; stroke-linecap: square"/>
     <g>
      <use xlink:href="#m805548db9d" x="69.87" y="98.690938" style="fill: #9467bd; stroke: #9467bd"/>
     </g>
    </g>
    <g id="text_21">
     <!-- Christian Is -->
     <g transform="translate(87.87 102.190938) scale(0.1 -0.1)">
      <defs>
       <path id="DejaVuSans-43" d="M 4122 4306 
L 4122 3641 
Q 3803 3938 3442 4084 
Q 3081 4231 2675 4231 
Q 1875 4231 1450 3742 
Q 1025 3253 1025 2328 
Q 1025 1406 1450 917 
Q 1875 428 2675 428 
Q 3081 428 3442 575 
Q 3803 722 4122 1019 
L 4122 359 
Q 3791 134 3420 21 
Q 3050 -91 2638 -91 
Q 1578 -91 968 557 
Q 359 1206 359 2328 
Q 359 3453 968 4101 
Q 1578 4750 2638 4750 
Q 3056 4750 3426 4639 
Q 3797 4528 4122 4306 
z
" transform="scale(0.015625)"/>
      </defs>
      <use xlink:href="#DejaVuSans-43"/>
      <use xlink:href="#DejaVuSans-68" x="69.824219"/>
      <use xlink:href="#DejaVuSans-72" x="133.203125"/>
      <use xlink:href="#DejaVuSans-69" x="174.316406"/>
      <use xlink:href="#DejaVuSans-73" x="202.099609"/>
      <use xlink:href="#DejaVuSans-74" x="254.199219"/>
      <use xlink:href="#DejaVuSans-69" x="293.408203"/>
      <use xlink:href="#DejaVuSans-61" x="321.191406"/>
      <use xlink:href="#DejaVuSans-6e" x="382.470703"/>
      <use xlink:href="#DejaVuSans-20" x="445.849609"/>
      <use xlink:href="#DejaVuSans-49" x="477.636719"/>
      <use xlink:href="#DejaVuSans-73" x="507.128906"/>
     </g>
    </g>
    <g id="line2d_48">
     <path d="M 59.87 113.369062 
L 69.87 113.369062 
L 79.87 113.369062 
" style="fill: none; stroke: #8c564b; stroke-width: 1.5; stroke-linecap: square"/>
     <g>
      <use xlink:href="#ma26ce8c161" x="69.87" y="113.369062" style="fill: #8c564b; stroke: #8c564b"/>
     </g>
    </g>
    <g id="text_22">
     <!-- Jonas Bo -->
     <g transform="translate(87.87 116.869062) scale(0.1 -0.1)">
      <defs>
       <path id="DejaVuSans-4a" d="M 628 4666 
L 1259 4666 
L 1259 325 
Q 1259 -519 939 -900 
Q 619 -1281 -91 -1281 
L -331 -1281 
L -331 -750 
L -134 -750 
Q 284 -750 456 -515 
Q 628 -281 628 325 
L 628 4666 
z
" transform="scale(0.015625)"/>
      </defs>
      <use xlink:href="#DejaVuSans-4a"/>
      <use xlink:href="#DejaVuSans-6f" x="29.492188"/>
      <use xlink:href="#DejaVuSans-6e" x="90.673828"/>
      <use xlink:href="#DejaVuSans-61" x="154.052734"/>
      <use xlink:href="#DejaVuSans-73" x="215.332031"/>
      <use xlink:href="#DejaVuSans-20" x="267.431641"/>
      <use xlink:href="#DejaVuSans-42" x="299.21875"/>
      <use xlink:href="#DejaVuSans-6f" x="367.822266"/>
     </g>
    </g>
    <g id="line2d_49">
     <path d="M 59.87 128.047187 
L 69.87 128.047187 
L 79.87 128.047187 
" style="fill: none; stroke: #e377c2; stroke-width: 1.5; stroke-linecap: square"/>
     <g>
      <use xlink:href="#m9163b0d100" x="69.87" y="128.047187" style="fill: #e377c2; stroke: #e377c2"/>
     </g>
    </g>
    <g id="text_23">
     <!-- Tobias Bo -->
     <g transform="translate(87.87 131.547187) scale(0.1 -0.1)">
      <defs>
       <path id="DejaVuSans-54" d="M -19 4666 
L 3928 4666 
L 3928 4134 
L 2272 4134 
L 2272 0 
L 1638 0 
L 1638 4134 
L -19 4134 
L -19 4666 
z
" transform="scale(0.015625)"/>
       <path id="DejaVuSans-62" d="M 3116 1747 
Q 3116 2381 2855 2742 
Q 2594 3103 2138 3103 
Q 1681 3103 1420 2742 
Q 1159 2381 1159 1747 
Q 1159 1113 1420 752 
Q 1681 391 2138 391 
Q 2594 391 2855 752 
Q 3116 1113 3116 1747 
z
M 1159 2969 
Q 1341 3281 1617 3432 
Q 1894 3584 2278 3584 
Q 2916 3584 3314 3078 
Q 3713 2572 3713 1747 
Q 3713 922 3314 415 
Q 2916 -91 2278 -91 
Q 1894 -91 1617 61 
Q 1341 213 1159 525 
L 1159 0 
L 581 0 
L 581 4863 
L 1159 4863 
L 1159 2969 
z
" transform="scale(0.015625)"/>
      </defs>
      <use xlink:href="#DejaVuSans-54"/>
      <use xlink:href="#DejaVuSans-6f" x="44.083984"/>
      <use xlink:href="#DejaVuSans-62" x="105.265625"/>
      <use xlink:href="#DejaVuSans-69" x="168.742188"/>
      <use xlink:href="#DejaVuSans-61" x="196.525391"/>
      <use xlink:href="#DejaVuSans-73" x="257.804688"/>
      <use xlink:href="#DejaVuSans-20" x="309.904297"/>
      <use xlink:href="#DejaVuSans-42" x="341.691406"/>
      <use xlink:href="#DejaVuSans-6f" x="410.294922"/>
     </g>
    </g>
    <g id="line2d_50">
     <path d="M 164.191875 39.978437 
L 174.191875 39.978437 
L 184.191875 39.978437 
" style="fill: none; stroke: #7f7f7f; stroke-width: 1.5; stroke-linecap: square"/>
     <g>
      <use xlink:href="#mba5f8e6acd" x="174.191875" y="39.978437" style="fill: #7f7f7f; stroke: #7f7f7f"/>
     </g>
    </g>
    <g id="text_24">
     <!-- Christian Gr -->
     <g transform="translate(192.191875 43.478437) scale(0.1 -0.1)">
      <defs>
       <path id="DejaVuSans-47" d="M 3809 666 
L 3809 1919 
L 2778 1919 
L 2778 2438 
L 4434 2438 
L 4434 434 
Q 4069 175 3628 42 
Q 3188 -91 2688 -91 
Q 1594 -91 976 548 
Q 359 1188 359 2328 
Q 359 3472 976 4111 
Q 1594 4750 2688 4750 
Q 3144 4750 3555 4637 
Q 3966 4525 4313 4306 
L 4313 3634 
Q 3963 3931 3569 4081 
Q 3175 4231 2741 4231 
Q 1884 4231 1454 3753 
Q 1025 3275 1025 2328 
Q 1025 1384 1454 906 
Q 1884 428 2741 428 
Q 3075 428 3337 486 
Q 3600 544 3809 666 
z
" transform="scale(0.015625)"/>
      </defs>
      <use xlink:href="#DejaVuSans-43"/>
      <use xlink:href="#DejaVuSans-68" x="69.824219"/>
      <use xlink:href="#DejaVuSans-72" x="133.203125"/>
      <use xlink:href="#DejaVuSans-69" x="174.316406"/>
      <use xlink:href="#DejaVuSans-73" x="202.099609"/>
      <use xlink:href="#DejaVuSans-74" x="254.199219"/>
      <use xlink:href="#DejaVuSans-69" x="293.408203"/>
      <use xlink:href="#DejaVuSans-61" x="321.191406"/>
      <use xlink:href="#DejaVuSans-6e" x="382.470703"/>
      <use xlink:href="#DejaVuSans-20" x="445.849609"/>
      <use xlink:href="#DejaVuSans-47" x="477.636719"/>
      <use xlink:href="#DejaVuSans-72" x="555.126953"/>
     </g>
    </g>
    <g id="line2d_51">
     <path d="M 164.191875 54.656563 
L 174.191875 54.656563 
L 184.191875 54.656563 
" style="fill: none; stroke: #bcbd22; stroke-width: 1.5; stroke-linecap: square"/>
     <g>
      <use xlink:href="#m8162267d28" x="174.191875" y="54.656563" style="fill: #bcbd22; stroke: #bcbd22"/>
     </g>
    </g>
    <g id="text_25">
     <!-- Oscar Kh -->
     <g transform="translate(192.191875 58.156563) scale(0.1 -0.1)">
      <defs>
       <path id="DejaVuSans-4f" d="M 2522 4238 
Q 1834 4238 1429 3725 
Q 1025 3213 1025 2328 
Q 1025 1447 1429 934 
Q 1834 422 2522 422 
Q 3209 422 3611 934 
Q 4013 1447 4013 2328 
Q 4013 3213 3611 3725 
Q 3209 4238 2522 4238 
z
M 2522 4750 
Q 3503 4750 4090 4092 
Q 4678 3434 4678 2328 
Q 4678 1225 4090 567 
Q 3503 -91 2522 -91 
Q 1538 -91 948 565 
Q 359 1222 359 2328 
Q 359 3434 948 4092 
Q 1538 4750 2522 4750 
z
" transform="scale(0.015625)"/>
      </defs>
      <use xlink:href="#DejaVuSans-4f"/>
      <use xlink:href="#DejaVuSans-73" x="78.710938"/>
      <use xlink:href="#DejaVuSans-63" x="130.810547"/>
      <use xlink:href="#DejaVuSans-61" x="185.791016"/>
      <use xlink:href="#DejaVuSans-72" x="247.070312"/>
      <use xlink:href="#DejaVuSans-20" x="288.183594"/>
      <use xlink:href="#DejaVuSans-4b" x="319.970703"/>
      <use xlink:href="#DejaVuSans-68" x="385.546875"/>
     </g>
    </g>
    <g id="line2d_52">
     <path d="M 164.191875 69.334687 
L 174.191875 69.334687 
L 184.191875 69.334687 
" style="fill: none; stroke: #17becf; stroke-width: 1.5; stroke-linecap: square"/>
     <g>
      <use xlink:href="#m519e2e1ce1" x="174.191875" y="69.334687" style="fill: #17becf; stroke: #17becf"/>
     </g>
    </g>
    <g id="text_26">
     <!-- Isabella Is -->
     <g transform="translate(192.191875 72.834687) scale(0.1 -0.1)">
      <defs>
       <path id="DejaVuSans-6c" d="M 603 4863 
L 1178 4863 
L 1178 0 
L 603 0 
L 603 4863 
z
" transform="scale(0.015625)"/>
      </defs>
      <use xlink:href="#DejaVuSans-49"/>
      <use xlink:href="#DejaVuSans-73" x="29.492188"/>
      <use xlink:href="#DejaVuSans-61" x="81.591797"/>
      <use xlink:href="#DejaVuSans-62" x="142.871094"/>
      <use xlink:href="#DejaVuSans-65" x="206.347656"/>
      <use xlink:href="#DejaVuSans-6c" x="267.871094"/>
      <use xlink:href="#DejaVuSans-6c" x="295.654297"/>
      <use xlink:href="#DejaVuSans-61" x="323.4375"/>
      <use xlink:href="#DejaVuSans-20" x="384.716797"/>
      <use xlink:href="#DejaVuSans-49" x="416.503906"/>
      <use xlink:href="#DejaVuSans-73" x="445.996094"/>
     </g>
    </g>
    <g id="line2d_53">
     <path d="M 164.191875 84.012812 
L 174.191875 84.012812 
L 184.191875 84.012812 
" style="fill: none; stroke: #1f77b4; stroke-width: 1.5; stroke-linecap: square"/>
     <g>
      <use xlink:href="#ma0ba863f19" x="174.191875" y="84.012812" style="fill: #1f77b4; stroke: #1f77b4"/>
     </g>
    </g>
    <g id="text_27">
     <!-- Frederik Ha -->
     <g transform="translate(192.191875 87.512812) scale(0.1 -0.1)">
      <defs>
       <path id="DejaVuSans-46" d="M 628 4666 
L 3309 4666 
L 3309 4134 
L 1259 4134 
L 1259 2759 
L 3109 2759 
L 3109 2228 
L 1259 2228 
L 1259 0 
L 628 0 
L 628 4666 
z
" transform="scale(0.015625)"/>
       <path id="DejaVuSans-6b" d="M 581 4863 
L 1159 4863 
L 1159 1991 
L 2875 3500 
L 3609 3500 
L 1753 1863 
L 3688 0 
L 2938 0 
L 1159 1709 
L 1159 0 
L 581 0 
L 581 4863 
z
" transform="scale(0.015625)"/>
       <path id="DejaVuSans-48" d="M 628 4666 
L 1259 4666 
L 1259 2753 
L 3553 2753 
L 3553 4666 
L 4184 4666 
L 4184 0 
L 3553 0 
L 3553 2222 
L 1259 2222 
L 1259 0 
L 628 0 
L 628 4666 
z
" transform="scale(0.015625)"/>
      </defs>
      <use xlink:href="#DejaVuSans-46"/>
      <use xlink:href="#DejaVuSans-72" x="50.269531"/>
      <use xlink:href="#DejaVuSans-65" x="89.132812"/>
      <use xlink:href="#DejaVuSans-64" x="150.65625"/>
      <use xlink:href="#DejaVuSans-65" x="214.132812"/>
      <use xlink:href="#DejaVuSans-72" x="275.65625"/>
      <use xlink:href="#DejaVuSans-69" x="316.769531"/>
      <use xlink:href="#DejaVuSans-6b" x="344.552734"/>
      <use xlink:href="#DejaVuSans-20" x="402.462891"/>
      <use xlink:href="#DejaVuSans-48" x="434.25"/>
      <use xlink:href="#DejaVuSans-61" x="509.445312"/>
     </g>
    </g>
    <g id="line2d_54">
     <path d="M 164.191875 98.690938 
L 174.191875 98.690938 
L 184.191875 98.690938 
" style="fill: none; stroke: #ff7f0e; stroke-width: 1.5; stroke-linecap: square"/>
     <g>
      <use xlink:href="#m65ded663c7" x="174.191875" y="98.690938" style="fill: #ff7f0e; stroke: #ff7f0e"/>
     </g>
    </g>
    <g id="text_28">
     <!-- CamJams Gr -->
     <g transform="translate(192.191875 102.190938) scale(0.1 -0.1)">
      <defs>
       <path id="DejaVuSans-6d" d="M 3328 2828 
Q 3544 3216 3844 3400 
Q 4144 3584 4550 3584 
Q 5097 3584 5394 3201 
Q 5691 2819 5691 2113 
L 5691 0 
L 5113 0 
L 5113 2094 
Q 5113 2597 4934 2840 
Q 4756 3084 4391 3084 
Q 3944 3084 3684 2787 
Q 3425 2491 3425 1978 
L 3425 0 
L 2847 0 
L 2847 2094 
Q 2847 2600 2669 2842 
Q 2491 3084 2119 3084 
Q 1678 3084 1418 2786 
Q 1159 2488 1159 1978 
L 1159 0 
L 581 0 
L 581 3500 
L 1159 3500 
L 1159 2956 
Q 1356 3278 1631 3431 
Q 1906 3584 2284 3584 
Q 2666 3584 2933 3390 
Q 3200 3197 3328 2828 
z
" transform="scale(0.015625)"/>
      </defs>
      <use xlink:href="#DejaVuSans-43"/>
      <use xlink:href="#DejaVuSans-61" x="69.824219"/>
      <use xlink:href="#DejaVuSans-6d" x="131.103516"/>
      <use xlink:href="#DejaVuSans-4a" x="228.515625"/>
      <use xlink:href="#DejaVuSans-61" x="258.007812"/>
      <use xlink:href="#DejaVuSans-6d" x="319.287109"/>
      <use xlink:href="#DejaVuSans-73" x="416.699219"/>
      <use xlink:href="#DejaVuSans-20" x="468.798828"/>
      <use xlink:href="#DejaVuSans-47" x="500.585938"/>
      <use xlink:href="#DejaVuSans-72" x="578.076172"/>
     </g>
    </g>
    <g id="line2d_55">
     <path d="M 164.191875 113.369062 
L 174.191875 113.369062 
L 184.191875 113.369062 
" style="fill: none; stroke: #2ca02c; stroke-width: 1.5; stroke-linecap: square"/>
     <g>
      <use xlink:href="#m4e6938728a" x="174.191875" y="113.369062" style="fill: #2ca02c; stroke: #2ca02c"/>
     </g>
    </g>
    <g id="text_29">
     <!-- Ebbe Ottar Je -->
     <g transform="translate(192.191875 116.869062) scale(0.1 -0.1)">
      <use xlink:href="#DejaVuSans-45"/>
      <use xlink:href="#DejaVuSans-62" x="63.183594"/>
      <use xlink:href="#DejaVuSans-62" x="126.660156"/>
      <use xlink:href="#DejaVuSans-65" x="190.136719"/>
      <use xlink:href="#DejaVuSans-20" x="251.660156"/>
      <use xlink:href="#DejaVuSans-4f" x="283.447266"/>
      <use xlink:href="#DejaVuSans-74" x="362.158203"/>
      <use xlink:href="#DejaVuSans-74" x="401.367188"/>
      <use xlink:href="#DejaVuSans-61" x="440.576172"/>
      <use xlink:href="#DejaVuSans-72" x="501.855469"/>
      <use xlink:href="#DejaVuSans-20" x="542.96875"/>
      <use xlink:href="#DejaVuSans-4a" x="574.755859"/>
      <use xlink:href="#DejaVuSans-65" x="604.248047"/>
     </g>
    </g>
    <g id="line2d_56">
     <path d="M 164.191875 128.047187 
L 174.191875 128.047187 
L 184.191875 128.047187 
" style="fill: none; stroke: #d62728; stroke-width: 1.5; stroke-linecap: square"/>
     <g>
      <use xlink:href="#m8df8274bd2" x="174.191875" y="128.047187" style="fill: #d62728; stroke: #d62728"/>
     </g>
    </g>
    <g id="text_30">
     <!-- Joachim Gl -->
     <g transform="translate(192.191875 131.547187) scale(0.1 -0.1)">
      <use xlink:href="#DejaVuSans-4a"/>
      <use xlink:href="#DejaVuSans-6f" x="29.492188"/>
      <use xlink:href="#DejaVuSans-61" x="90.673828"/>
      <use xlink:href="#DejaVuSans-63" x="151.953125"/>
      <use xlink:href="#DejaVuSans-68" x="206.933594"/>
      <use xlink:href="#DejaVuSans-69" x="270.3125"/>
      <use xlink:href="#DejaVuSans-6d" x="298.095703"/>
      <use xlink:href="#DejaVuSans-20" x="395.507812"/>
      <use xlink:href="#DejaVuSans-47" x="427.294922"/>
      <use xlink:href="#DejaVuSans-6c" x="504.785156"/>
     </g>
    </g>
   </g>
  </g>
 </g>
 <defs>
  <clipPath id="pb73bf0ed1b">
   <rect x="50.87" y="26.88" width="802.33" height="377.24"/>
  </clipPath>
 </defs>
</svg>
