<?xml version="1.0" encoding="utf-8" standalone="no"?>
<!DOCTYPE svg PUBLIC "-//W3C//DTD SVG 1.1//EN"
  "http://www.w3.org/Graphics/SVG/1.1/DTD/svg11.dtd">
<svg xmlns:xlink="http://www.w3.org/1999/xlink" width="864pt" height="432pt" viewBox="0 0 864 432" xmlns="http://www.w3.org/2000/svg" version="1.1">
 <metadata>
  <rdf:RDF xmlns:dc="http://purl.org/dc/elements/1.1/" xmlns:cc="http://creativecommons.org/ns#" xmlns:rdf="http://www.w3.org/1999/02/22-rdf-syntax-ns#">
   <cc:Work>
    <dc:type rdf:resource="http://purl.org/dc/dcmitype/StillImage"/>
    <dc:date>2024-07-08T22:30:46.319648</dc:date>
    <dc:format>image/svg+xml</dc:format>
    <dc:creator>
     <cc:Agent>
      <dc:title>Matplotlib v3.9.1, https://matplotlib.org/</dc:title>
     </cc:Agent>
    </dc:creator>
   </cc:Work>
  </rdf:RDF>
 </metadata>
 <defs>
  <style type="text/css">*{stroke-linejoin: round; stroke-linecap: butt}</style>
 </defs>
 <g id="figure_1">
  <g id="patch_1">
   <path d="M 0 432 
L 864 432 
L 864 0 
L 0 0 
z
" style="fill: #ffffff"/>
  </g>
  <g id="axes_1">
   <g id="patch_2">
    <path d="M 50.87 404.12 
L 829.517727 404.12 
L 829.517727 26.88 
L 50.87 26.88 
z
" style="fill: #ffffff"/>
   </g>
   <g id="matplotlib.axis_1">
    <g id="xtick_1">
     <g id="line2d_1">
      <path d="M 56.768846 404.12 
L 56.768846 26.88 
" clip-path="url(#p62d345a82f)" style="fill: none; stroke-dasharray: 2.96,1.28; stroke-dashoffset: 0; stroke: #b0b0b0; stroke-width: 0.8"/>
     </g>
     <g id="line2d_2">
      <defs>
       <path id="m3a36e7842e" d="M 0 0 
L 0 3.5 
" style="stroke: #000000; stroke-width: 0.8"/>
      </defs>
      <g>
       <use xlink:href="#m3a36e7842e" x="56.768846" y="404.12" style="stroke: #000000; stroke-width: 0.8"/>
      </g>
     </g>
     <g id="text_1">
      <!-- 2024-06-13 -->
      <g transform="translate(27.711034 418.718437) scale(0.1 -0.1)">
       <defs>
        <path id="DejaVuSans-32" d="M 1228 531 
L 3431 531 
L 3431 0 
L 469 0 
L 469 531 
Q 828 903 1448 1529 
Q 2069 2156 2228 2338 
Q 2531 2678 2651 2914 
Q 2772 3150 2772 3378 
Q 2772 3750 2511 3984 
Q 2250 4219 1831 4219 
Q 1534 4219 1204 4116 
Q 875 4013 500 3803 
L 500 4441 
Q 881 4594 1212 4672 
Q 1544 4750 1819 4750 
Q 2544 4750 2975 4387 
Q 3406 4025 3406 3419 
Q 3406 3131 3298 2873 
Q 3191 2616 2906 2266 
Q 2828 2175 2409 1742 
Q 1991 1309 1228 531 
z
" transform="scale(0.015625)"/>
        <path id="DejaVuSans-30" d="M 2034 4250 
Q 1547 4250 1301 3770 
Q 1056 3291 1056 2328 
Q 1056 1369 1301 889 
Q 1547 409 2034 409 
Q 2525 409 2770 889 
Q 3016 1369 3016 2328 
Q 3016 3291 2770 3770 
Q 2525 4250 2034 4250 
z
M 2034 4750 
Q 2819 4750 3233 4129 
Q 3647 3509 3647 2328 
Q 3647 1150 3233 529 
Q 2819 -91 2034 -91 
Q 1250 -91 836 529 
Q 422 1150 422 2328 
Q 422 3509 836 4129 
Q 1250 4750 2034 4750 
z
" transform="scale(0.015625)"/>
        <path id="DejaVuSans-34" d="M 2419 4116 
L 825 1625 
L 2419 1625 
L 2419 4116 
z
M 2253 4666 
L 3047 4666 
L 3047 1625 
L 3713 1625 
L 3713 1100 
L 3047 1100 
L 3047 0 
L 2419 0 
L 2419 1100 
L 313 1100 
L 313 1709 
L 2253 4666 
z
" transform="scale(0.015625)"/>
        <path id="DejaVuSans-2d" d="M 313 2009 
L 1997 2009 
L 1997 1497 
L 313 1497 
L 313 2009 
z
" transform="scale(0.015625)"/>
        <path id="DejaVuSans-36" d="M 2113 2584 
Q 1688 2584 1439 2293 
Q 1191 2003 1191 1497 
Q 1191 994 1439 701 
Q 1688 409 2113 409 
Q 2538 409 2786 701 
Q 3034 994 3034 1497 
Q 3034 2003 2786 2293 
Q 2538 2584 2113 2584 
z
M 3366 4563 
L 3366 3988 
Q 3128 4100 2886 4159 
Q 2644 4219 2406 4219 
Q 1781 4219 1451 3797 
Q 1122 3375 1075 2522 
Q 1259 2794 1537 2939 
Q 1816 3084 2150 3084 
Q 2853 3084 3261 2657 
Q 3669 2231 3669 1497 
Q 3669 778 3244 343 
Q 2819 -91 2113 -91 
Q 1303 -91 875 529 
Q 447 1150 447 2328 
Q 447 3434 972 4092 
Q 1497 4750 2381 4750 
Q 2619 4750 2861 4703 
Q 3103 4656 3366 4563 
z
" transform="scale(0.015625)"/>
        <path id="DejaVuSans-31" d="M 794 531 
L 1825 531 
L 1825 4091 
L 703 3866 
L 703 4441 
L 1819 4666 
L 2450 4666 
L 2450 531 
L 3481 531 
L 3481 0 
L 794 0 
L 794 531 
z
" transform="scale(0.015625)"/>
        <path id="DejaVuSans-33" d="M 2597 2516 
Q 3050 2419 3304 2112 
Q 3559 1806 3559 1356 
Q 3559 666 3084 287 
Q 2609 -91 1734 -91 
Q 1441 -91 1130 -33 
Q 819 25 488 141 
L 488 750 
Q 750 597 1062 519 
Q 1375 441 1716 441 
Q 2309 441 2620 675 
Q 2931 909 2931 1356 
Q 2931 1769 2642 2001 
Q 2353 2234 1838 2234 
L 1294 2234 
L 1294 2753 
L 1863 2753 
Q 2328 2753 2575 2939 
Q 2822 3125 2822 3475 
Q 2822 3834 2567 4026 
Q 2313 4219 1838 4219 
Q 1578 4219 1281 4162 
Q 984 4106 628 3988 
L 628 4550 
Q 988 4650 1302 4700 
Q 1616 4750 1894 4750 
Q 2613 4750 3031 4423 
Q 3450 4097 3450 3541 
Q 3450 3153 3228 2886 
Q 3006 2619 2597 2516 
z
" transform="scale(0.015625)"/>
       </defs>
       <use xlink:href="#DejaVuSans-32"/>
       <use xlink:href="#DejaVuSans-30" x="63.623047"/>
       <use xlink:href="#DejaVuSans-32" x="127.246094"/>
       <use xlink:href="#DejaVuSans-34" x="190.869141"/>
       <use xlink:href="#DejaVuSans-2d" x="254.492188"/>
       <use xlink:href="#DejaVuSans-30" x="290.576172"/>
       <use xlink:href="#DejaVuSans-36" x="354.199219"/>
       <use xlink:href="#DejaVuSans-2d" x="417.822266"/>
       <use xlink:href="#DejaVuSans-31" x="453.90625"/>
       <use xlink:href="#DejaVuSans-33" x="517.529297"/>
      </g>
     </g>
    </g>
    <g id="xtick_2">
     <g id="line2d_3">
      <path d="M 174.745775 404.12 
L 174.745775 26.88 
" clip-path="url(#p62d345a82f)" style="fill: none; stroke-dasharray: 2.96,1.28; stroke-dashoffset: 0; stroke: #b0b0b0; stroke-width: 0.8"/>
     </g>
     <g id="line2d_4">
      <g>
       <use xlink:href="#m3a36e7842e" x="174.745775" y="404.12" style="stroke: #000000; stroke-width: 0.8"/>
      </g>
     </g>
     <g id="text_2">
      <!-- 2024-06-17 -->
      <g transform="translate(145.687962 418.718437) scale(0.1 -0.1)">
       <defs>
        <path id="DejaVuSans-37" d="M 525 4666 
L 3525 4666 
L 3525 4397 
L 1831 0 
L 1172 0 
L 2766 4134 
L 525 4134 
L 525 4666 
z
" transform="scale(0.015625)"/>
       </defs>
       <use xlink:href="#DejaVuSans-32"/>
       <use xlink:href="#DejaVuSans-30" x="63.623047"/>
       <use xlink:href="#DejaVuSans-32" x="127.246094"/>
       <use xlink:href="#DejaVuSans-34" x="190.869141"/>
       <use xlink:href="#DejaVuSans-2d" x="254.492188"/>
       <use xlink:href="#DejaVuSans-30" x="290.576172"/>
       <use xlink:href="#DejaVuSans-36" x="354.199219"/>
       <use xlink:href="#DejaVuSans-2d" x="417.822266"/>
       <use xlink:href="#DejaVuSans-31" x="453.90625"/>
       <use xlink:href="#DejaVuSans-37" x="517.529297"/>
      </g>
     </g>
    </g>
    <g id="xtick_3">
     <g id="line2d_5">
      <path d="M 292.722703 404.12 
L 292.722703 26.88 
" clip-path="url(#p62d345a82f)" style="fill: none; stroke-dasharray: 2.96,1.28; stroke-dashoffset: 0; stroke: #b0b0b0; stroke-width: 0.8"/>
     </g>
     <g id="line2d_6">
      <g>
       <use xlink:href="#m3a36e7842e" x="292.722703" y="404.12" style="stroke: #000000; stroke-width: 0.8"/>
      </g>
     </g>
     <g id="text_3">
      <!-- 2024-06-21 -->
      <g transform="translate(263.664891 418.718437) scale(0.1 -0.1)">
       <use xlink:href="#DejaVuSans-32"/>
       <use xlink:href="#DejaVuSans-30" x="63.623047"/>
       <use xlink:href="#DejaVuSans-32" x="127.246094"/>
       <use xlink:href="#DejaVuSans-34" x="190.869141"/>
       <use xlink:href="#DejaVuSans-2d" x="254.492188"/>
       <use xlink:href="#DejaVuSans-30" x="290.576172"/>
       <use xlink:href="#DejaVuSans-36" x="354.199219"/>
       <use xlink:href="#DejaVuSans-2d" x="417.822266"/>
       <use xlink:href="#DejaVuSans-32" x="453.90625"/>
       <use xlink:href="#DejaVuSans-31" x="517.529297"/>
      </g>
     </g>
    </g>
    <g id="xtick_4">
     <g id="line2d_7">
      <path d="M 410.699632 404.12 
L 410.699632 26.88 
" clip-path="url(#p62d345a82f)" style="fill: none; stroke-dasharray: 2.96,1.28; stroke-dashoffset: 0; stroke: #b0b0b0; stroke-width: 0.8"/>
     </g>
     <g id="line2d_8">
      <g>
       <use xlink:href="#m3a36e7842e" x="410.699632" y="404.12" style="stroke: #000000; stroke-width: 0.8"/>
      </g>
     </g>
     <g id="text_4">
      <!-- 2024-06-25 -->
      <g transform="translate(381.641819 418.718437) scale(0.1 -0.1)">
       <defs>
        <path id="DejaVuSans-35" d="M 691 4666 
L 3169 4666 
L 3169 4134 
L 1269 4134 
L 1269 2991 
Q 1406 3038 1543 3061 
Q 1681 3084 1819 3084 
Q 2600 3084 3056 2656 
Q 3513 2228 3513 1497 
Q 3513 744 3044 326 
Q 2575 -91 1722 -91 
Q 1428 -91 1123 -41 
Q 819 9 494 109 
L 494 744 
Q 775 591 1075 516 
Q 1375 441 1709 441 
Q 2250 441 2565 725 
Q 2881 1009 2881 1497 
Q 2881 1984 2565 2268 
Q 2250 2553 1709 2553 
Q 1456 2553 1204 2497 
Q 953 2441 691 2322 
L 691 4666 
z
" transform="scale(0.015625)"/>
       </defs>
       <use xlink:href="#DejaVuSans-32"/>
       <use xlink:href="#DejaVuSans-30" x="63.623047"/>
       <use xlink:href="#DejaVuSans-32" x="127.246094"/>
       <use xlink:href="#DejaVuSans-34" x="190.869141"/>
       <use xlink:href="#DejaVuSans-2d" x="254.492188"/>
       <use xlink:href="#DejaVuSans-30" x="290.576172"/>
       <use xlink:href="#DejaVuSans-36" x="354.199219"/>
       <use xlink:href="#DejaVuSans-2d" x="417.822266"/>
       <use xlink:href="#DejaVuSans-32" x="453.90625"/>
       <use xlink:href="#DejaVuSans-35" x="517.529297"/>
      </g>
     </g>
    </g>
    <g id="xtick_5">
     <g id="line2d_9">
      <path d="M 528.67656 404.12 
L 528.67656 26.88 
" clip-path="url(#p62d345a82f)" style="fill: none; stroke-dasharray: 2.96,1.28; stroke-dashoffset: 0; stroke: #b0b0b0; stroke-width: 0.8"/>
     </g>
     <g id="line2d_10">
      <g>
       <use xlink:href="#m3a36e7842e" x="528.67656" y="404.12" style="stroke: #000000; stroke-width: 0.8"/>
      </g>
     </g>
     <g id="text_5">
      <!-- 2024-06-29 -->
      <g transform="translate(499.618747 418.718437) scale(0.1 -0.1)">
       <defs>
        <path id="DejaVuSans-39" d="M 703 97 
L 703 672 
Q 941 559 1184 500 
Q 1428 441 1663 441 
Q 2288 441 2617 861 
Q 2947 1281 2994 2138 
Q 2813 1869 2534 1725 
Q 2256 1581 1919 1581 
Q 1219 1581 811 2004 
Q 403 2428 403 3163 
Q 403 3881 828 4315 
Q 1253 4750 1959 4750 
Q 2769 4750 3195 4129 
Q 3622 3509 3622 2328 
Q 3622 1225 3098 567 
Q 2575 -91 1691 -91 
Q 1453 -91 1209 -44 
Q 966 3 703 97 
z
M 1959 2075 
Q 2384 2075 2632 2365 
Q 2881 2656 2881 3163 
Q 2881 3666 2632 3958 
Q 2384 4250 1959 4250 
Q 1534 4250 1286 3958 
Q 1038 3666 1038 3163 
Q 1038 2656 1286 2365 
Q 1534 2075 1959 2075 
z
" transform="scale(0.015625)"/>
       </defs>
       <use xlink:href="#DejaVuSans-32"/>
       <use xlink:href="#DejaVuSans-30" x="63.623047"/>
       <use xlink:href="#DejaVuSans-32" x="127.246094"/>
       <use xlink:href="#DejaVuSans-34" x="190.869141"/>
       <use xlink:href="#DejaVuSans-2d" x="254.492188"/>
       <use xlink:href="#DejaVuSans-30" x="290.576172"/>
       <use xlink:href="#DejaVuSans-36" x="354.199219"/>
       <use xlink:href="#DejaVuSans-2d" x="417.822266"/>
       <use xlink:href="#DejaVuSans-32" x="453.90625"/>
       <use xlink:href="#DejaVuSans-39" x="517.529297"/>
      </g>
     </g>
    </g>
    <g id="xtick_6">
     <g id="line2d_11">
      <path d="M 587.665024 404.12 
L 587.665024 26.88 
" clip-path="url(#p62d345a82f)" style="fill: none; stroke-dasharray: 2.96,1.28; stroke-dashoffset: 0; stroke: #b0b0b0; stroke-width: 0.8"/>
     </g>
     <g id="line2d_12">
      <g>
       <use xlink:href="#m3a36e7842e" x="587.665024" y="404.12" style="stroke: #000000; stroke-width: 0.8"/>
      </g>
     </g>
     <g id="text_6">
      <!-- 2024-07-01 -->
      <g transform="translate(558.607212 418.718437) scale(0.1 -0.1)">
       <use xlink:href="#DejaVuSans-32"/>
       <use xlink:href="#DejaVuSans-30" x="63.623047"/>
       <use xlink:href="#DejaVuSans-32" x="127.246094"/>
       <use xlink:href="#DejaVuSans-34" x="190.869141"/>
       <use xlink:href="#DejaVuSans-2d" x="254.492188"/>
       <use xlink:href="#DejaVuSans-30" x="290.576172"/>
       <use xlink:href="#DejaVuSans-37" x="354.199219"/>
       <use xlink:href="#DejaVuSans-2d" x="417.822266"/>
       <use xlink:href="#DejaVuSans-30" x="453.90625"/>
       <use xlink:href="#DejaVuSans-31" x="517.529297"/>
      </g>
     </g>
    </g>
    <g id="xtick_7">
     <g id="line2d_13">
      <path d="M 705.641952 404.12 
L 705.641952 26.88 
" clip-path="url(#p62d345a82f)" style="fill: none; stroke-dasharray: 2.96,1.28; stroke-dashoffset: 0; stroke: #b0b0b0; stroke-width: 0.8"/>
     </g>
     <g id="line2d_14">
      <g>
       <use xlink:href="#m3a36e7842e" x="705.641952" y="404.12" style="stroke: #000000; stroke-width: 0.8"/>
      </g>
     </g>
     <g id="text_7">
      <!-- 2024-07-05 -->
      <g transform="translate(676.58414 418.718437) scale(0.1 -0.1)">
       <use xlink:href="#DejaVuSans-32"/>
       <use xlink:href="#DejaVuSans-30" x="63.623047"/>
       <use xlink:href="#DejaVuSans-32" x="127.246094"/>
       <use xlink:href="#DejaVuSans-34" x="190.869141"/>
       <use xlink:href="#DejaVuSans-2d" x="254.492188"/>
       <use xlink:href="#DejaVuSans-30" x="290.576172"/>
       <use xlink:href="#DejaVuSans-37" x="354.199219"/>
       <use xlink:href="#DejaVuSans-2d" x="417.822266"/>
       <use xlink:href="#DejaVuSans-30" x="453.90625"/>
       <use xlink:href="#DejaVuSans-35" x="517.529297"/>
      </g>
     </g>
    </g>
    <g id="xtick_8">
     <g id="line2d_15">
      <path d="M 823.618881 404.12 
L 823.618881 26.88 
" clip-path="url(#p62d345a82f)" style="fill: none; stroke-dasharray: 2.96,1.28; stroke-dashoffset: 0; stroke: #b0b0b0; stroke-width: 0.8"/>
     </g>
     <g id="line2d_16">
      <g>
       <use xlink:href="#m3a36e7842e" x="823.618881" y="404.12" style="stroke: #000000; stroke-width: 0.8"/>
      </g>
     </g>
     <g id="text_8">
      <!-- 2024-07-09 -->
      <g transform="translate(794.561068 418.718437) scale(0.1 -0.1)">
       <use xlink:href="#DejaVuSans-32"/>
       <use xlink:href="#DejaVuSans-30" x="63.623047"/>
       <use xlink:href="#DejaVuSans-32" x="127.246094"/>
       <use xlink:href="#DejaVuSans-34" x="190.869141"/>
       <use xlink:href="#DejaVuSans-2d" x="254.492188"/>
       <use xlink:href="#DejaVuSans-30" x="290.576172"/>
       <use xlink:href="#DejaVuSans-37" x="354.199219"/>
       <use xlink:href="#DejaVuSans-2d" x="417.822266"/>
       <use xlink:href="#DejaVuSans-30" x="453.90625"/>
       <use xlink:href="#DejaVuSans-39" x="517.529297"/>
      </g>
     </g>
    </g>
   </g>
   <g id="matplotlib.axis_2">
    <g id="ytick_1">
     <g id="line2d_17">
      <path d="M 50.87 389.704678 
L 829.517727 389.704678 
" clip-path="url(#p62d345a82f)" style="fill: none; stroke-dasharray: 2.96,1.28; stroke-dashoffset: 0; stroke: #b0b0b0; stroke-width: 0.8"/>
     </g>
     <g id="line2d_18">
      <defs>
       <path id="m3873bea3b6" d="M 0 0 
L -3.5 0 
" style="stroke: #000000; stroke-width: 0.8"/>
      </defs>
      <g>
       <use xlink:href="#m3873bea3b6" x="50.87" y="389.704678" style="stroke: #000000; stroke-width: 0.8"/>
      </g>
     </g>
     <g id="text_9">
      <!-- 0 -->
      <g transform="translate(37.5075 393.503897) scale(0.1 -0.1)">
       <use xlink:href="#DejaVuSans-30"/>
      </g>
     </g>
    </g>
    <g id="ytick_2">
     <g id="line2d_19">
      <path d="M 50.87 320.28156 
L 829.517727 320.28156 
" clip-path="url(#p62d345a82f)" style="fill: none; stroke-dasharray: 2.96,1.28; stroke-dashoffset: 0; stroke: #b0b0b0; stroke-width: 0.8"/>
     </g>
     <g id="line2d_20">
      <g>
       <use xlink:href="#m3873bea3b6" x="50.87" y="320.28156" style="stroke: #000000; stroke-width: 0.8"/>
      </g>
     </g>
     <g id="text_10">
      <!-- 50 -->
      <g transform="translate(31.145 324.080779) scale(0.1 -0.1)">
       <use xlink:href="#DejaVuSans-35"/>
       <use xlink:href="#DejaVuSans-30" x="63.623047"/>
      </g>
     </g>
    </g>
    <g id="ytick_3">
     <g id="line2d_21">
      <path d="M 50.87 250.858442 
L 829.517727 250.858442 
" clip-path="url(#p62d345a82f)" style="fill: none; stroke-dasharray: 2.96,1.28; stroke-dashoffset: 0; stroke: #b0b0b0; stroke-width: 0.8"/>
     </g>
     <g id="line2d_22">
      <g>
       <use xlink:href="#m3873bea3b6" x="50.87" y="250.858442" style="stroke: #000000; stroke-width: 0.8"/>
      </g>
     </g>
     <g id="text_11">
      <!-- 100 -->
      <g transform="translate(24.7825 254.657661) scale(0.1 -0.1)">
       <use xlink:href="#DejaVuSans-31"/>
       <use xlink:href="#DejaVuSans-30" x="63.623047"/>
       <use xlink:href="#DejaVuSans-30" x="127.246094"/>
      </g>
     </g>
    </g>
    <g id="ytick_4">
     <g id="line2d_23">
      <path d="M 50.87 181.435324 
L 829.517727 181.435324 
" clip-path="url(#p62d345a82f)" style="fill: none; stroke-dasharray: 2.96,1.28; stroke-dashoffset: 0; stroke: #b0b0b0; stroke-width: 0.8"/>
     </g>
     <g id="line2d_24">
      <g>
       <use xlink:href="#m3873bea3b6" x="50.87" y="181.435324" style="stroke: #000000; stroke-width: 0.8"/>
      </g>
     </g>
     <g id="text_12">
      <!-- 150 -->
      <g transform="translate(24.7825 185.234543) scale(0.1 -0.1)">
       <use xlink:href="#DejaVuSans-31"/>
       <use xlink:href="#DejaVuSans-35" x="63.623047"/>
       <use xlink:href="#DejaVuSans-30" x="127.246094"/>
      </g>
     </g>
    </g>
    <g id="ytick_5">
     <g id="line2d_25">
      <path d="M 50.87 112.012206 
L 829.517727 112.012206 
" clip-path="url(#p62d345a82f)" style="fill: none; stroke-dasharray: 2.96,1.28; stroke-dashoffset: 0; stroke: #b0b0b0; stroke-width: 0.8"/>
     </g>
     <g id="line2d_26">
      <g>
       <use xlink:href="#m3873bea3b6" x="50.87" y="112.012206" style="stroke: #000000; stroke-width: 0.8"/>
      </g>
     </g>
     <g id="text_13">
      <!-- 200 -->
      <g transform="translate(24.7825 115.811425) scale(0.1 -0.1)">
       <use xlink:href="#DejaVuSans-32"/>
       <use xlink:href="#DejaVuSans-30" x="63.623047"/>
       <use xlink:href="#DejaVuSans-30" x="127.246094"/>
      </g>
     </g>
    </g>
    <g id="ytick_6">
     <g id="line2d_27">
      <path d="M 50.87 42.589088 
L 829.517727 42.589088 
" clip-path="url(#p62d345a82f)" style="fill: none; stroke-dasharray: 2.96,1.28; stroke-dashoffset: 0; stroke: #b0b0b0; stroke-width: 0.8"/>
     </g>
     <g id="line2d_28">
      <g>
       <use xlink:href="#m3873bea3b6" x="50.87" y="42.589088" style="stroke: #000000; stroke-width: 0.8"/>
      </g>
     </g>
     <g id="text_14">
      <!-- 250 -->
      <g transform="translate(24.7825 46.388307) scale(0.1 -0.1)">
       <use xlink:href="#DejaVuSans-32"/>
       <use xlink:href="#DejaVuSans-35" x="63.623047"/>
       <use xlink:href="#DejaVuSans-30" x="127.246094"/>
      </g>
     </g>
    </g>
    <g id="text_15">
     <!-- Score -->
     <g transform="translate(18.702813 229.502344) rotate(-90) scale(0.1 -0.1)">
      <defs>
       <path id="DejaVuSans-53" d="M 3425 4513 
L 3425 3897 
Q 3066 4069 2747 4153 
Q 2428 4238 2131 4238 
Q 1616 4238 1336 4038 
Q 1056 3838 1056 3469 
Q 1056 3159 1242 3001 
Q 1428 2844 1947 2747 
L 2328 2669 
Q 3034 2534 3370 2195 
Q 3706 1856 3706 1288 
Q 3706 609 3251 259 
Q 2797 -91 1919 -91 
Q 1588 -91 1214 -16 
Q 841 59 441 206 
L 441 856 
Q 825 641 1194 531 
Q 1563 422 1919 422 
Q 2459 422 2753 634 
Q 3047 847 3047 1241 
Q 3047 1584 2836 1778 
Q 2625 1972 2144 2069 
L 1759 2144 
Q 1053 2284 737 2584 
Q 422 2884 422 3419 
Q 422 4038 858 4394 
Q 1294 4750 2059 4750 
Q 2388 4750 2728 4690 
Q 3069 4631 3425 4513 
z
" transform="scale(0.015625)"/>
       <path id="DejaVuSans-63" d="M 3122 3366 
L 3122 2828 
Q 2878 2963 2633 3030 
Q 2388 3097 2138 3097 
Q 1578 3097 1268 2742 
Q 959 2388 959 1747 
Q 959 1106 1268 751 
Q 1578 397 2138 397 
Q 2388 397 2633 464 
Q 2878 531 3122 666 
L 3122 134 
Q 2881 22 2623 -34 
Q 2366 -91 2075 -91 
Q 1284 -91 818 406 
Q 353 903 353 1747 
Q 353 2603 823 3093 
Q 1294 3584 2113 3584 
Q 2378 3584 2631 3529 
Q 2884 3475 3122 3366 
z
" transform="scale(0.015625)"/>
       <path id="DejaVuSans-6f" d="M 1959 3097 
Q 1497 3097 1228 2736 
Q 959 2375 959 1747 
Q 959 1119 1226 758 
Q 1494 397 1959 397 
Q 2419 397 2687 759 
Q 2956 1122 2956 1747 
Q 2956 2369 2687 2733 
Q 2419 3097 1959 3097 
z
M 1959 3584 
Q 2709 3584 3137 3096 
Q 3566 2609 3566 1747 
Q 3566 888 3137 398 
Q 2709 -91 1959 -91 
Q 1206 -91 779 398 
Q 353 888 353 1747 
Q 353 2609 779 3096 
Q 1206 3584 1959 3584 
z
" transform="scale(0.015625)"/>
       <path id="DejaVuSans-72" d="M 2631 2963 
Q 2534 3019 2420 3045 
Q 2306 3072 2169 3072 
Q 1681 3072 1420 2755 
Q 1159 2438 1159 1844 
L 1159 0 
L 581 0 
L 581 3500 
L 1159 3500 
L 1159 2956 
Q 1341 3275 1631 3429 
Q 1922 3584 2338 3584 
Q 2397 3584 2469 3576 
Q 2541 3569 2628 3553 
L 2631 2963 
z
" transform="scale(0.015625)"/>
       <path id="DejaVuSans-65" d="M 3597 1894 
L 3597 1613 
L 953 1613 
Q 991 1019 1311 708 
Q 1631 397 2203 397 
Q 2534 397 2845 478 
Q 3156 559 3463 722 
L 3463 178 
Q 3153 47 2828 -22 
Q 2503 -91 2169 -91 
Q 1331 -91 842 396 
Q 353 884 353 1716 
Q 353 2575 817 3079 
Q 1281 3584 2069 3584 
Q 2775 3584 3186 3129 
Q 3597 2675 3597 1894 
z
M 3022 2063 
Q 3016 2534 2758 2815 
Q 2500 3097 2075 3097 
Q 1594 3097 1305 2825 
Q 1016 2553 972 2059 
L 3022 2063 
z
" transform="scale(0.015625)"/>
      </defs>
      <use xlink:href="#DejaVuSans-53"/>
      <use xlink:href="#DejaVuSans-63" x="63.476562"/>
      <use xlink:href="#DejaVuSans-6f" x="118.457031"/>
      <use xlink:href="#DejaVuSans-72" x="179.638672"/>
      <use xlink:href="#DejaVuSans-65" x="218.501953"/>
     </g>
    </g>
   </g>
   <g id="line2d_29">
    <path d="M 86.263079 382.668216 
L 115.757311 354.898969 
L 145.251543 342.402808 
L 174.745775 332.683571 
L 204.240007 318.798948 
L 233.734239 306.302787 
L 263.228471 306.302787 
L 292.722703 285.475851 
L 322.216935 247.987368 
L 351.711167 221.606583 
L 381.205399 191.060411 
L 410.699632 171.621938 
L 440.193864 138.298841 
L 528.67656 138.298841 
L 558.170792 138.298841 
L 587.665024 138.298841 
L 617.159256 138.298841 
L 646.653488 138.298841 
L 705.641952 138.298841 
L 735.136185 138.298841 
L 764.630417 138.298841 
L 794.124649 138.298841 
" clip-path="url(#p62d345a82f)" style="fill: none; stroke: #1f77b4; stroke-width: 1.5; stroke-linecap: square"/>
    <defs>
     <path id="m4565f65445" d="M 0 3.5 
C 0.928211 3.5 1.81853 3.131218 2.474874 2.474874 
C 3.131218 1.81853 3.5 0.928211 3.5 0 
C 3.5 -0.928211 3.131218 -1.81853 2.474874 -2.474874 
C 1.81853 -3.131218 0.928211 -3.5 0 -3.5 
C -0.928211 -3.5 -1.81853 -3.131218 -2.474874 -2.474874 
C -3.131218 -1.81853 -3.5 -0.928211 -3.5 0 
C -3.5 0.928211 -3.131218 1.81853 -2.474874 2.474874 
C -1.81853 3.131218 -0.928211 3.5 0 3.5 
z
" style="stroke: #1f77b4"/>
    </defs>
    <g clip-path="url(#p62d345a82f)">
     <use xlink:href="#m4565f65445" x="86.263079" y="382.668216" style="fill: #1f77b4; stroke: #1f77b4"/>
     <use xlink:href="#m4565f65445" x="115.757311" y="354.898969" style="fill: #1f77b4; stroke: #1f77b4"/>
     <use xlink:href="#m4565f65445" x="145.251543" y="342.402808" style="fill: #1f77b4; stroke: #1f77b4"/>
     <use xlink:href="#m4565f65445" x="174.745775" y="332.683571" style="fill: #1f77b4; stroke: #1f77b4"/>
     <use xlink:href="#m4565f65445" x="204.240007" y="318.798948" style="fill: #1f77b4; stroke: #1f77b4"/>
     <use xlink:href="#m4565f65445" x="233.734239" y="306.302787" style="fill: #1f77b4; stroke: #1f77b4"/>
     <use xlink:href="#m4565f65445" x="263.228471" y="306.302787" style="fill: #1f77b4; stroke: #1f77b4"/>
     <use xlink:href="#m4565f65445" x="292.722703" y="285.475851" style="fill: #1f77b4; stroke: #1f77b4"/>
     <use xlink:href="#m4565f65445" x="322.216935" y="247.987368" style="fill: #1f77b4; stroke: #1f77b4"/>
     <use xlink:href="#m4565f65445" x="351.711167" y="221.606583" style="fill: #1f77b4; stroke: #1f77b4"/>
     <use xlink:href="#m4565f65445" x="381.205399" y="191.060411" style="fill: #1f77b4; stroke: #1f77b4"/>
     <use xlink:href="#m4565f65445" x="410.699632" y="171.621938" style="fill: #1f77b4; stroke: #1f77b4"/>
     <use xlink:href="#m4565f65445" x="440.193864" y="138.298841" style="fill: #1f77b4; stroke: #1f77b4"/>
     <use xlink:href="#m4565f65445" x="528.67656" y="138.298841" style="fill: #1f77b4; stroke: #1f77b4"/>
     <use xlink:href="#m4565f65445" x="558.170792" y="138.298841" style="fill: #1f77b4; stroke: #1f77b4"/>
     <use xlink:href="#m4565f65445" x="587.665024" y="138.298841" style="fill: #1f77b4; stroke: #1f77b4"/>
     <use xlink:href="#m4565f65445" x="617.159256" y="138.298841" style="fill: #1f77b4; stroke: #1f77b4"/>
     <use xlink:href="#m4565f65445" x="646.653488" y="138.298841" style="fill: #1f77b4; stroke: #1f77b4"/>
     <use xlink:href="#m4565f65445" x="705.641952" y="138.298841" style="fill: #1f77b4; stroke: #1f77b4"/>
     <use xlink:href="#m4565f65445" x="735.136185" y="138.298841" style="fill: #1f77b4; stroke: #1f77b4"/>
     <use xlink:href="#m4565f65445" x="764.630417" y="138.298841" style="fill: #1f77b4; stroke: #1f77b4"/>
     <use xlink:href="#m4565f65445" x="794.124649" y="138.298841" style="fill: #1f77b4; stroke: #1f77b4"/>
    </g>
   </g>
   <g id="line2d_30">
    <path d="M 86.263079 386.972727 
L 115.757311 345.318857 
L 145.251543 314.772685 
L 174.745775 298.111136 
L 204.240007 277.284201 
L 233.734239 257.845728 
L 263.228471 231.464943 
L 292.722703 225.911094 
L 322.216935 188.42261 
L 351.711167 178.703373 
L 381.205399 155.099513 
L 410.699632 139.826427 
L 440.193864 99.561019 
L 528.67656 99.561019 
L 558.170792 99.561019 
L 587.665024 99.561019 
L 617.159256 99.561019 
L 646.653488 99.561019 
L 705.641952 99.561019 
L 735.136185 99.561019 
L 764.630417 99.561019 
L 794.124649 99.561019 
" clip-path="url(#p62d345a82f)" style="fill: none; stroke: #ff7f0e; stroke-width: 1.5; stroke-linecap: square"/>
    <defs>
     <path id="m4a02fbbb7a" d="M 0 3.5 
C 0.928211 3.5 1.81853 3.131218 2.474874 2.474874 
C 3.131218 1.81853 3.5 0.928211 3.5 0 
C 3.5 -0.928211 3.131218 -1.81853 2.474874 -2.474874 
C 1.81853 -3.131218 0.928211 -3.5 0 -3.5 
C -0.928211 -3.5 -1.81853 -3.131218 -2.474874 -2.474874 
C -3.131218 -1.81853 -3.5 -0.928211 -3.5 0 
C -3.5 0.928211 -3.131218 1.81853 -2.474874 2.474874 
C -1.81853 3.131218 -0.928211 3.5 0 3.5 
z
" style="stroke: #ff7f0e"/>
    </defs>
    <g clip-path="url(#p62d345a82f)">
     <use xlink:href="#m4a02fbbb7a" x="86.263079" y="386.972727" style="fill: #ff7f0e; stroke: #ff7f0e"/>
     <use xlink:href="#m4a02fbbb7a" x="115.757311" y="345.318857" style="fill: #ff7f0e; stroke: #ff7f0e"/>
     <use xlink:href="#m4a02fbbb7a" x="145.251543" y="314.772685" style="fill: #ff7f0e; stroke: #ff7f0e"/>
     <use xlink:href="#m4a02fbbb7a" x="174.745775" y="298.111136" style="fill: #ff7f0e; stroke: #ff7f0e"/>
     <use xlink:href="#m4a02fbbb7a" x="204.240007" y="277.284201" style="fill: #ff7f0e; stroke: #ff7f0e"/>
     <use xlink:href="#m4a02fbbb7a" x="233.734239" y="257.845728" style="fill: #ff7f0e; stroke: #ff7f0e"/>
     <use xlink:href="#m4a02fbbb7a" x="263.228471" y="231.464943" style="fill: #ff7f0e; stroke: #ff7f0e"/>
     <use xlink:href="#m4a02fbbb7a" x="292.722703" y="225.911094" style="fill: #ff7f0e; stroke: #ff7f0e"/>
     <use xlink:href="#m4a02fbbb7a" x="322.216935" y="188.42261" style="fill: #ff7f0e; stroke: #ff7f0e"/>
     <use xlink:href="#m4a02fbbb7a" x="351.711167" y="178.703373" style="fill: #ff7f0e; stroke: #ff7f0e"/>
     <use xlink:href="#m4a02fbbb7a" x="381.205399" y="155.099513" style="fill: #ff7f0e; stroke: #ff7f0e"/>
     <use xlink:href="#m4a02fbbb7a" x="410.699632" y="139.826427" style="fill: #ff7f0e; stroke: #ff7f0e"/>
     <use xlink:href="#m4a02fbbb7a" x="440.193864" y="99.561019" style="fill: #ff7f0e; stroke: #ff7f0e"/>
     <use xlink:href="#m4a02fbbb7a" x="528.67656" y="99.561019" style="fill: #ff7f0e; stroke: #ff7f0e"/>
     <use xlink:href="#m4a02fbbb7a" x="558.170792" y="99.561019" style="fill: #ff7f0e; stroke: #ff7f0e"/>
     <use xlink:href="#m4a02fbbb7a" x="587.665024" y="99.561019" style="fill: #ff7f0e; stroke: #ff7f0e"/>
     <use xlink:href="#m4a02fbbb7a" x="617.159256" y="99.561019" style="fill: #ff7f0e; stroke: #ff7f0e"/>
     <use xlink:href="#m4a02fbbb7a" x="646.653488" y="99.561019" style="fill: #ff7f0e; stroke: #ff7f0e"/>
     <use xlink:href="#m4a02fbbb7a" x="705.641952" y="99.561019" style="fill: #ff7f0e; stroke: #ff7f0e"/>
     <use xlink:href="#m4a02fbbb7a" x="735.136185" y="99.561019" style="fill: #ff7f0e; stroke: #ff7f0e"/>
     <use xlink:href="#m4a02fbbb7a" x="764.630417" y="99.561019" style="fill: #ff7f0e; stroke: #ff7f0e"/>
     <use xlink:href="#m4a02fbbb7a" x="794.124649" y="99.561019" style="fill: #ff7f0e; stroke: #ff7f0e"/>
    </g>
   </g>
   <g id="line2d_31">
    <path d="M 86.263079 375.908861 
L 115.757311 348.139614 
L 145.251543 327.312678 
L 174.745775 313.428055 
L 204.240007 278.716496 
L 233.734239 259.278023 
L 263.228471 246.781861 
L 292.722703 209.293378 
L 322.216935 174.581819 
L 351.711167 144.035647 
L 381.205399 120.431787 
L 410.699632 112.101013 
L 440.193864 49.620206 
L 528.67656 49.620206 
L 558.170792 49.620206 
L 587.665024 49.620206 
L 617.159256 49.620206 
L 646.653488 49.620206 
L 705.641952 49.620206 
L 735.136185 49.620206 
L 764.630417 49.620206 
L 794.124649 49.620206 
" clip-path="url(#p62d345a82f)" style="fill: none; stroke: #2ca02c; stroke-width: 1.5; stroke-linecap: square"/>
    <defs>
     <path id="ma4bc5eb282" d="M 0 3.5 
C 0.928211 3.5 1.81853 3.131218 2.474874 2.474874 
C 3.131218 1.81853 3.5 0.928211 3.5 0 
C 3.5 -0.928211 3.131218 -1.81853 2.474874 -2.474874 
C 1.81853 -3.131218 0.928211 -3.5 0 -3.5 
C -0.928211 -3.5 -1.81853 -3.131218 -2.474874 -2.474874 
C -3.131218 -1.81853 -3.5 -0.928211 -3.5 0 
C -3.5 0.928211 -3.131218 1.81853 -2.474874 2.474874 
C -1.81853 3.131218 -0.928211 3.5 0 3.5 
z
" style="stroke: #2ca02c"/>
    </defs>
    <g clip-path="url(#p62d345a82f)">
     <use xlink:href="#ma4bc5eb282" x="86.263079" y="375.908861" style="fill: #2ca02c; stroke: #2ca02c"/>
     <use xlink:href="#ma4bc5eb282" x="115.757311" y="348.139614" style="fill: #2ca02c; stroke: #2ca02c"/>
     <use xlink:href="#ma4bc5eb282" x="145.251543" y="327.312678" style="fill: #2ca02c; stroke: #2ca02c"/>
     <use xlink:href="#ma4bc5eb282" x="174.745775" y="313.428055" style="fill: #2ca02c; stroke: #2ca02c"/>
     <use xlink:href="#ma4bc5eb282" x="204.240007" y="278.716496" style="fill: #2ca02c; stroke: #2ca02c"/>
     <use xlink:href="#ma4bc5eb282" x="233.734239" y="259.278023" style="fill: #2ca02c; stroke: #2ca02c"/>
     <use xlink:href="#ma4bc5eb282" x="263.228471" y="246.781861" style="fill: #2ca02c; stroke: #2ca02c"/>
     <use xlink:href="#ma4bc5eb282" x="292.722703" y="209.293378" style="fill: #2ca02c; stroke: #2ca02c"/>
     <use xlink:href="#ma4bc5eb282" x="322.216935" y="174.581819" style="fill: #2ca02c; stroke: #2ca02c"/>
     <use xlink:href="#ma4bc5eb282" x="351.711167" y="144.035647" style="fill: #2ca02c; stroke: #2ca02c"/>
     <use xlink:href="#ma4bc5eb282" x="381.205399" y="120.431787" style="fill: #2ca02c; stroke: #2ca02c"/>
     <use xlink:href="#ma4bc5eb282" x="410.699632" y="112.101013" style="fill: #2ca02c; stroke: #2ca02c"/>
     <use xlink:href="#ma4bc5eb282" x="440.193864" y="49.620206" style="fill: #2ca02c; stroke: #2ca02c"/>
     <use xlink:href="#ma4bc5eb282" x="528.67656" y="49.620206" style="fill: #2ca02c; stroke: #2ca02c"/>
     <use xlink:href="#ma4bc5eb282" x="558.170792" y="49.620206" style="fill: #2ca02c; stroke: #2ca02c"/>
     <use xlink:href="#ma4bc5eb282" x="587.665024" y="49.620206" style="fill: #2ca02c; stroke: #2ca02c"/>
     <use xlink:href="#ma4bc5eb282" x="617.159256" y="49.620206" style="fill: #2ca02c; stroke: #2ca02c"/>
     <use xlink:href="#ma4bc5eb282" x="646.653488" y="49.620206" style="fill: #2ca02c; stroke: #2ca02c"/>
     <use xlink:href="#ma4bc5eb282" x="705.641952" y="49.620206" style="fill: #2ca02c; stroke: #2ca02c"/>
     <use xlink:href="#ma4bc5eb282" x="735.136185" y="49.620206" style="fill: #2ca02c; stroke: #2ca02c"/>
     <use xlink:href="#ma4bc5eb282" x="764.630417" y="49.620206" style="fill: #2ca02c; stroke: #2ca02c"/>
     <use xlink:href="#ma4bc5eb282" x="794.124649" y="49.620206" style="fill: #2ca02c; stroke: #2ca02c"/>
    </g>
   </g>
   <g id="line2d_32">
    <path d="M 86.263079 375.869776 
L 115.757311 352.265916 
L 145.251543 310.612046 
L 174.745775 300.892809 
L 204.240007 280.065874 
L 233.734239 259.238938 
L 263.228471 228.692766 
L 292.722703 216.196605 
L 322.216935 181.485046 
L 351.711167 168.988885 
L 381.205399 131.500401 
L 410.699632 109.285004 
L 440.193864 44.027273 
L 528.67656 44.027273 
L 558.170792 44.027273 
L 587.665024 44.027273 
L 617.159256 44.027273 
L 646.653488 44.027273 
L 705.641952 44.027273 
L 735.136185 44.027273 
L 764.630417 44.027273 
L 794.124649 44.027273 
" clip-path="url(#p62d345a82f)" style="fill: none; stroke: #d62728; stroke-width: 1.5; stroke-linecap: square"/>
    <defs>
     <path id="mfc007389d8" d="M 0 3.5 
C 0.928211 3.5 1.81853 3.131218 2.474874 2.474874 
C 3.131218 1.81853 3.5 0.928211 3.5 0 
C 3.5 -0.928211 3.131218 -1.81853 2.474874 -2.474874 
C 1.81853 -3.131218 0.928211 -3.5 0 -3.5 
C -0.928211 -3.5 -1.81853 -3.131218 -2.474874 -2.474874 
C -3.131218 -1.81853 -3.5 -0.928211 -3.5 0 
C -3.5 0.928211 -3.131218 1.81853 -2.474874 2.474874 
C -1.81853 3.131218 -0.928211 3.5 0 3.5 
z
" style="stroke: #d62728"/>
    </defs>
    <g clip-path="url(#p62d345a82f)">
     <use xlink:href="#mfc007389d8" x="86.263079" y="375.869776" style="fill: #d62728; stroke: #d62728"/>
     <use xlink:href="#mfc007389d8" x="115.757311" y="352.265916" style="fill: #d62728; stroke: #d62728"/>
     <use xlink:href="#mfc007389d8" x="145.251543" y="310.612046" style="fill: #d62728; stroke: #d62728"/>
     <use xlink:href="#mfc007389d8" x="174.745775" y="300.892809" style="fill: #d62728; stroke: #d62728"/>
     <use xlink:href="#mfc007389d8" x="204.240007" y="280.065874" style="fill: #d62728; stroke: #d62728"/>
     <use xlink:href="#mfc007389d8" x="233.734239" y="259.238938" style="fill: #d62728; stroke: #d62728"/>
     <use xlink:href="#mfc007389d8" x="263.228471" y="228.692766" style="fill: #d62728; stroke: #d62728"/>
     <use xlink:href="#mfc007389d8" x="292.722703" y="216.196605" style="fill: #d62728; stroke: #d62728"/>
     <use xlink:href="#mfc007389d8" x="322.216935" y="181.485046" style="fill: #d62728; stroke: #d62728"/>
     <use xlink:href="#mfc007389d8" x="351.711167" y="168.988885" style="fill: #d62728; stroke: #d62728"/>
     <use xlink:href="#mfc007389d8" x="381.205399" y="131.500401" style="fill: #d62728; stroke: #d62728"/>
     <use xlink:href="#mfc007389d8" x="410.699632" y="109.285004" style="fill: #d62728; stroke: #d62728"/>
     <use xlink:href="#mfc007389d8" x="440.193864" y="44.027273" style="fill: #d62728; stroke: #d62728"/>
     <use xlink:href="#mfc007389d8" x="528.67656" y="44.027273" style="fill: #d62728; stroke: #d62728"/>
     <use xlink:href="#mfc007389d8" x="558.170792" y="44.027273" style="fill: #d62728; stroke: #d62728"/>
     <use xlink:href="#mfc007389d8" x="587.665024" y="44.027273" style="fill: #d62728; stroke: #d62728"/>
     <use xlink:href="#mfc007389d8" x="617.159256" y="44.027273" style="fill: #d62728; stroke: #d62728"/>
     <use xlink:href="#mfc007389d8" x="646.653488" y="44.027273" style="fill: #d62728; stroke: #d62728"/>
     <use xlink:href="#mfc007389d8" x="705.641952" y="44.027273" style="fill: #d62728; stroke: #d62728"/>
     <use xlink:href="#mfc007389d8" x="735.136185" y="44.027273" style="fill: #d62728; stroke: #d62728"/>
     <use xlink:href="#mfc007389d8" x="764.630417" y="44.027273" style="fill: #d62728; stroke: #d62728"/>
     <use xlink:href="#mfc007389d8" x="794.124649" y="44.027273" style="fill: #d62728; stroke: #d62728"/>
    </g>
   </g>
   <g id="line2d_33">
    <path d="M 86.263079 382.851703 
L 115.757311 345.363219 
L 145.251543 314.817047 
L 174.745775 298.155499 
L 204.240007 281.49395 
L 233.734239 264.832402 
L 263.228471 262.055477 
L 292.722703 238.451617 
L 322.216935 203.740058 
L 351.711167 177.359274 
L 381.205399 135.705403 
L 410.699632 119.043854 
L 440.193864 88.497683 
L 528.67656 88.497683 
L 558.170792 88.497683 
L 587.665024 88.497683 
L 617.159256 88.497683 
L 646.653488 88.497683 
L 705.641952 88.497683 
L 735.136185 88.497683 
L 764.630417 88.497683 
L 794.124649 88.497683 
" clip-path="url(#p62d345a82f)" style="fill: none; stroke: #9467bd; stroke-width: 1.5; stroke-linecap: square"/>
    <defs>
     <path id="m06c5596415" d="M 0 3.5 
C 0.928211 3.5 1.81853 3.131218 2.474874 2.474874 
C 3.131218 1.81853 3.5 0.928211 3.5 0 
C 3.5 -0.928211 3.131218 -1.81853 2.474874 -2.474874 
C 1.81853 -3.131218 0.928211 -3.5 0 -3.5 
C -0.928211 -3.5 -1.81853 -3.131218 -2.474874 -2.474874 
C -3.131218 -1.81853 -3.5 -0.928211 -3.5 0 
C -3.5 0.928211 -3.131218 1.81853 -2.474874 2.474874 
C -1.81853 3.131218 -0.928211 3.5 0 3.5 
z
" style="stroke: #9467bd"/>
    </defs>
    <g clip-path="url(#p62d345a82f)">
     <use xlink:href="#m06c5596415" x="86.263079" y="382.851703" style="fill: #9467bd; stroke: #9467bd"/>
     <use xlink:href="#m06c5596415" x="115.757311" y="345.363219" style="fill: #9467bd; stroke: #9467bd"/>
     <use xlink:href="#m06c5596415" x="145.251543" y="314.817047" style="fill: #9467bd; stroke: #9467bd"/>
     <use xlink:href="#m06c5596415" x="174.745775" y="298.155499" style="fill: #9467bd; stroke: #9467bd"/>
     <use xlink:href="#m06c5596415" x="204.240007" y="281.49395" style="fill: #9467bd; stroke: #9467bd"/>
     <use xlink:href="#m06c5596415" x="233.734239" y="264.832402" style="fill: #9467bd; stroke: #9467bd"/>
     <use xlink:href="#m06c5596415" x="263.228471" y="262.055477" style="fill: #9467bd; stroke: #9467bd"/>
     <use xlink:href="#m06c5596415" x="292.722703" y="238.451617" style="fill: #9467bd; stroke: #9467bd"/>
     <use xlink:href="#m06c5596415" x="322.216935" y="203.740058" style="fill: #9467bd; stroke: #9467bd"/>
     <use xlink:href="#m06c5596415" x="351.711167" y="177.359274" style="fill: #9467bd; stroke: #9467bd"/>
     <use xlink:href="#m06c5596415" x="381.205399" y="135.705403" style="fill: #9467bd; stroke: #9467bd"/>
     <use xlink:href="#m06c5596415" x="410.699632" y="119.043854" style="fill: #9467bd; stroke: #9467bd"/>
     <use xlink:href="#m06c5596415" x="440.193864" y="88.497683" style="fill: #9467bd; stroke: #9467bd"/>
     <use xlink:href="#m06c5596415" x="528.67656" y="88.497683" style="fill: #9467bd; stroke: #9467bd"/>
     <use xlink:href="#m06c5596415" x="558.170792" y="88.497683" style="fill: #9467bd; stroke: #9467bd"/>
     <use xlink:href="#m06c5596415" x="587.665024" y="88.497683" style="fill: #9467bd; stroke: #9467bd"/>
     <use xlink:href="#m06c5596415" x="617.159256" y="88.497683" style="fill: #9467bd; stroke: #9467bd"/>
     <use xlink:href="#m06c5596415" x="646.653488" y="88.497683" style="fill: #9467bd; stroke: #9467bd"/>
     <use xlink:href="#m06c5596415" x="705.641952" y="88.497683" style="fill: #9467bd; stroke: #9467bd"/>
     <use xlink:href="#m06c5596415" x="735.136185" y="88.497683" style="fill: #9467bd; stroke: #9467bd"/>
     <use xlink:href="#m06c5596415" x="764.630417" y="88.497683" style="fill: #9467bd; stroke: #9467bd"/>
     <use xlink:href="#m06c5596415" x="794.124649" y="88.497683" style="fill: #9467bd; stroke: #9467bd"/>
    </g>
   </g>
   <g id="line2d_34">
    <path d="M 86.263079 375.825025 
L 115.757311 361.940401 
L 145.251543 338.336541 
L 174.745775 324.451918 
L 204.240007 296.68267 
L 233.734239 259.194187 
L 263.228471 239.755714 
L 292.722703 239.755714 
L 322.216935 205.044155 
L 351.711167 192.547993 
L 381.205399 162.001822 
L 410.699632 153.671047 
L 440.193864 110.628714 
L 528.67656 110.628714 
L 558.170792 110.628714 
L 587.665024 110.628714 
L 617.159256 110.628714 
L 646.653488 110.628714 
L 705.641952 110.628714 
L 735.136185 110.628714 
L 764.630417 110.628714 
L 794.124649 110.628714 
" clip-path="url(#p62d345a82f)" style="fill: none; stroke: #8c564b; stroke-width: 1.5; stroke-linecap: square"/>
    <defs>
     <path id="mdf47f245c6" d="M 0 3.5 
C 0.928211 3.5 1.81853 3.131218 2.474874 2.474874 
C 3.131218 1.81853 3.5 0.928211 3.5 0 
C 3.5 -0.928211 3.131218 -1.81853 2.474874 -2.474874 
C 1.81853 -3.131218 0.928211 -3.5 0 -3.5 
C -0.928211 -3.5 -1.81853 -3.131218 -2.474874 -2.474874 
C -3.131218 -1.81853 -3.5 -0.928211 -3.5 0 
C -3.5 0.928211 -3.131218 1.81853 -2.474874 2.474874 
C -1.81853 3.131218 -0.928211 3.5 0 3.5 
z
" style="stroke: #8c564b"/>
    </defs>
    <g clip-path="url(#p62d345a82f)">
     <use xlink:href="#mdf47f245c6" x="86.263079" y="375.825025" style="fill: #8c564b; stroke: #8c564b"/>
     <use xlink:href="#mdf47f245c6" x="115.757311" y="361.940401" style="fill: #8c564b; stroke: #8c564b"/>
     <use xlink:href="#mdf47f245c6" x="145.251543" y="338.336541" style="fill: #8c564b; stroke: #8c564b"/>
     <use xlink:href="#mdf47f245c6" x="174.745775" y="324.451918" style="fill: #8c564b; stroke: #8c564b"/>
     <use xlink:href="#mdf47f245c6" x="204.240007" y="296.68267" style="fill: #8c564b; stroke: #8c564b"/>
     <use xlink:href="#mdf47f245c6" x="233.734239" y="259.194187" style="fill: #8c564b; stroke: #8c564b"/>
     <use xlink:href="#mdf47f245c6" x="263.228471" y="239.755714" style="fill: #8c564b; stroke: #8c564b"/>
     <use xlink:href="#mdf47f245c6" x="292.722703" y="239.755714" style="fill: #8c564b; stroke: #8c564b"/>
     <use xlink:href="#mdf47f245c6" x="322.216935" y="205.044155" style="fill: #8c564b; stroke: #8c564b"/>
     <use xlink:href="#mdf47f245c6" x="351.711167" y="192.547993" style="fill: #8c564b; stroke: #8c564b"/>
     <use xlink:href="#mdf47f245c6" x="381.205399" y="162.001822" style="fill: #8c564b; stroke: #8c564b"/>
     <use xlink:href="#mdf47f245c6" x="410.699632" y="153.671047" style="fill: #8c564b; stroke: #8c564b"/>
     <use xlink:href="#mdf47f245c6" x="440.193864" y="110.628714" style="fill: #8c564b; stroke: #8c564b"/>
     <use xlink:href="#mdf47f245c6" x="528.67656" y="110.628714" style="fill: #8c564b; stroke: #8c564b"/>
     <use xlink:href="#mdf47f245c6" x="558.170792" y="110.628714" style="fill: #8c564b; stroke: #8c564b"/>
     <use xlink:href="#mdf47f245c6" x="587.665024" y="110.628714" style="fill: #8c564b; stroke: #8c564b"/>
     <use xlink:href="#mdf47f245c6" x="617.159256" y="110.628714" style="fill: #8c564b; stroke: #8c564b"/>
     <use xlink:href="#mdf47f245c6" x="646.653488" y="110.628714" style="fill: #8c564b; stroke: #8c564b"/>
     <use xlink:href="#mdf47f245c6" x="705.641952" y="110.628714" style="fill: #8c564b; stroke: #8c564b"/>
     <use xlink:href="#mdf47f245c6" x="735.136185" y="110.628714" style="fill: #8c564b; stroke: #8c564b"/>
     <use xlink:href="#mdf47f245c6" x="764.630417" y="110.628714" style="fill: #8c564b; stroke: #8c564b"/>
     <use xlink:href="#mdf47f245c6" x="794.124649" y="110.628714" style="fill: #8c564b; stroke: #8c564b"/>
    </g>
   </g>
   <g id="line2d_35">
    <path d="M 86.263079 375.889847 
L 115.757311 348.1206 
L 145.251543 324.51674 
L 174.745775 303.689804 
L 204.240007 293.970568 
L 233.734239 259.259009 
L 263.228471 250.928235 
L 292.722703 248.15131 
L 322.216935 217.605138 
L 351.711167 207.885902 
L 381.205399 170.397418 
L 410.699632 153.73587 
L 440.193864 109.305074 
L 528.67656 109.305074 
L 558.170792 109.305074 
L 587.665024 109.305074 
L 617.159256 109.305074 
L 646.653488 109.305074 
L 705.641952 109.305074 
L 735.136185 109.305074 
L 764.630417 109.305074 
L 794.124649 109.305074 
" clip-path="url(#p62d345a82f)" style="fill: none; stroke: #e377c2; stroke-width: 1.5; stroke-linecap: square"/>
    <defs>
     <path id="m50ea4e3b4d" d="M 0 3.5 
C 0.928211 3.5 1.81853 3.131218 2.474874 2.474874 
C 3.131218 1.81853 3.5 0.928211 3.5 0 
C 3.5 -0.928211 3.131218 -1.81853 2.474874 -2.474874 
C 1.81853 -3.131218 0.928211 -3.5 0 -3.5 
C -0.928211 -3.5 -1.81853 -3.131218 -2.474874 -2.474874 
C -3.131218 -1.81853 -3.5 -0.928211 -3.5 0 
C -3.5 0.928211 -3.131218 1.81853 -2.474874 2.474874 
C -1.81853 3.131218 -0.928211 3.5 0 3.5 
z
" style="stroke: #e377c2"/>
    </defs>
    <g clip-path="url(#p62d345a82f)">
     <use xlink:href="#m50ea4e3b4d" x="86.263079" y="375.889847" style="fill: #e377c2; stroke: #e377c2"/>
     <use xlink:href="#m50ea4e3b4d" x="115.757311" y="348.1206" style="fill: #e377c2; stroke: #e377c2"/>
     <use xlink:href="#m50ea4e3b4d" x="145.251543" y="324.51674" style="fill: #e377c2; stroke: #e377c2"/>
     <use xlink:href="#m50ea4e3b4d" x="174.745775" y="303.689804" style="fill: #e377c2; stroke: #e377c2"/>
     <use xlink:href="#m50ea4e3b4d" x="204.240007" y="293.970568" style="fill: #e377c2; stroke: #e377c2"/>
     <use xlink:href="#m50ea4e3b4d" x="233.734239" y="259.259009" style="fill: #e377c2; stroke: #e377c2"/>
     <use xlink:href="#m50ea4e3b4d" x="263.228471" y="250.928235" style="fill: #e377c2; stroke: #e377c2"/>
     <use xlink:href="#m50ea4e3b4d" x="292.722703" y="248.15131" style="fill: #e377c2; stroke: #e377c2"/>
     <use xlink:href="#m50ea4e3b4d" x="322.216935" y="217.605138" style="fill: #e377c2; stroke: #e377c2"/>
     <use xlink:href="#m50ea4e3b4d" x="351.711167" y="207.885902" style="fill: #e377c2; stroke: #e377c2"/>
     <use xlink:href="#m50ea4e3b4d" x="381.205399" y="170.397418" style="fill: #e377c2; stroke: #e377c2"/>
     <use xlink:href="#m50ea4e3b4d" x="410.699632" y="153.73587" style="fill: #e377c2; stroke: #e377c2"/>
     <use xlink:href="#m50ea4e3b4d" x="440.193864" y="109.305074" style="fill: #e377c2; stroke: #e377c2"/>
     <use xlink:href="#m50ea4e3b4d" x="528.67656" y="109.305074" style="fill: #e377c2; stroke: #e377c2"/>
     <use xlink:href="#m50ea4e3b4d" x="558.170792" y="109.305074" style="fill: #e377c2; stroke: #e377c2"/>
     <use xlink:href="#m50ea4e3b4d" x="587.665024" y="109.305074" style="fill: #e377c2; stroke: #e377c2"/>
     <use xlink:href="#m50ea4e3b4d" x="617.159256" y="109.305074" style="fill: #e377c2; stroke: #e377c2"/>
     <use xlink:href="#m50ea4e3b4d" x="646.653488" y="109.305074" style="fill: #e377c2; stroke: #e377c2"/>
     <use xlink:href="#m50ea4e3b4d" x="705.641952" y="109.305074" style="fill: #e377c2; stroke: #e377c2"/>
     <use xlink:href="#m50ea4e3b4d" x="735.136185" y="109.305074" style="fill: #e377c2; stroke: #e377c2"/>
     <use xlink:href="#m50ea4e3b4d" x="764.630417" y="109.305074" style="fill: #e377c2; stroke: #e377c2"/>
     <use xlink:href="#m50ea4e3b4d" x="794.124649" y="109.305074" style="fill: #e377c2; stroke: #e377c2"/>
    </g>
   </g>
   <g id="line2d_36">
    <path d="M 86.263079 382.829722 
L 115.757311 374.498948 
L 145.251543 353.672013 
L 174.745775 350.895088 
L 204.240007 330.068153 
L 233.734239 327.291228 
L 263.228471 303.687368 
L 292.722703 282.860432 
L 322.216935 234.26425 
L 351.711167 228.7104 
L 381.205399 214.825777 
L 410.699632 167.618057 
L 440.193864 127.352648 
L 528.67656 127.352648 
L 558.170792 127.352648 
L 587.665024 127.352648 
L 617.159256 127.352648 
L 646.653488 127.352648 
L 705.641952 127.352648 
L 735.136185 127.352648 
L 764.630417 127.352648 
L 794.124649 127.352648 
" clip-path="url(#p62d345a82f)" style="fill: none; stroke: #7f7f7f; stroke-width: 1.5; stroke-linecap: square"/>
    <defs>
     <path id="m53a16a9b7b" d="M 0 3.5 
C 0.928211 3.5 1.81853 3.131218 2.474874 2.474874 
C 3.131218 1.81853 3.5 0.928211 3.5 0 
C 3.5 -0.928211 3.131218 -1.81853 2.474874 -2.474874 
C 1.81853 -3.131218 0.928211 -3.5 0 -3.5 
C -0.928211 -3.5 -1.81853 -3.131218 -2.474874 -2.474874 
C -3.131218 -1.81853 -3.5 -0.928211 -3.5 0 
C -3.5 0.928211 -3.131218 1.81853 -2.474874 2.474874 
C -1.81853 3.131218 -0.928211 3.5 0 3.5 
z
" style="stroke: #7f7f7f"/>
    </defs>
    <g clip-path="url(#p62d345a82f)">
     <use xlink:href="#m53a16a9b7b" x="86.263079" y="382.829722" style="fill: #7f7f7f; stroke: #7f7f7f"/>
     <use xlink:href="#m53a16a9b7b" x="115.757311" y="374.498948" style="fill: #7f7f7f; stroke: #7f7f7f"/>
     <use xlink:href="#m53a16a9b7b" x="145.251543" y="353.672013" style="fill: #7f7f7f; stroke: #7f7f7f"/>
     <use xlink:href="#m53a16a9b7b" x="174.745775" y="350.895088" style="fill: #7f7f7f; stroke: #7f7f7f"/>
     <use xlink:href="#m53a16a9b7b" x="204.240007" y="330.068153" style="fill: #7f7f7f; stroke: #7f7f7f"/>
     <use xlink:href="#m53a16a9b7b" x="233.734239" y="327.291228" style="fill: #7f7f7f; stroke: #7f7f7f"/>
     <use xlink:href="#m53a16a9b7b" x="263.228471" y="303.687368" style="fill: #7f7f7f; stroke: #7f7f7f"/>
     <use xlink:href="#m53a16a9b7b" x="292.722703" y="282.860432" style="fill: #7f7f7f; stroke: #7f7f7f"/>
     <use xlink:href="#m53a16a9b7b" x="322.216935" y="234.26425" style="fill: #7f7f7f; stroke: #7f7f7f"/>
     <use xlink:href="#m53a16a9b7b" x="351.711167" y="228.7104" style="fill: #7f7f7f; stroke: #7f7f7f"/>
     <use xlink:href="#m53a16a9b7b" x="381.205399" y="214.825777" style="fill: #7f7f7f; stroke: #7f7f7f"/>
     <use xlink:href="#m53a16a9b7b" x="410.699632" y="167.618057" style="fill: #7f7f7f; stroke: #7f7f7f"/>
     <use xlink:href="#m53a16a9b7b" x="440.193864" y="127.352648" style="fill: #7f7f7f; stroke: #7f7f7f"/>
     <use xlink:href="#m53a16a9b7b" x="528.67656" y="127.352648" style="fill: #7f7f7f; stroke: #7f7f7f"/>
     <use xlink:href="#m53a16a9b7b" x="558.170792" y="127.352648" style="fill: #7f7f7f; stroke: #7f7f7f"/>
     <use xlink:href="#m53a16a9b7b" x="587.665024" y="127.352648" style="fill: #7f7f7f; stroke: #7f7f7f"/>
     <use xlink:href="#m53a16a9b7b" x="617.159256" y="127.352648" style="fill: #7f7f7f; stroke: #7f7f7f"/>
     <use xlink:href="#m53a16a9b7b" x="646.653488" y="127.352648" style="fill: #7f7f7f; stroke: #7f7f7f"/>
     <use xlink:href="#m53a16a9b7b" x="705.641952" y="127.352648" style="fill: #7f7f7f; stroke: #7f7f7f"/>
     <use xlink:href="#m53a16a9b7b" x="735.136185" y="127.352648" style="fill: #7f7f7f; stroke: #7f7f7f"/>
     <use xlink:href="#m53a16a9b7b" x="764.630417" y="127.352648" style="fill: #7f7f7f; stroke: #7f7f7f"/>
     <use xlink:href="#m53a16a9b7b" x="794.124649" y="127.352648" style="fill: #7f7f7f; stroke: #7f7f7f"/>
    </g>
   </g>
   <g id="line2d_37">
    <path d="M 86.263079 382.637632 
L 115.757311 354.868384 
L 145.251543 324.322213 
L 174.745775 314.602976 
L 204.240007 293.776041 
L 233.734239 263.229869 
L 263.228471 232.683697 
L 292.722703 229.906772 
L 322.216935 195.195213 
L 351.711167 150.764418 
L 381.205399 120.218246 
L 410.699632 89.672074 
L 440.193864 52.18359 
L 528.67656 52.18359 
L 558.170792 52.18359 
L 587.665024 52.18359 
L 617.159256 52.18359 
L 646.653488 52.18359 
L 705.641952 52.18359 
L 735.136185 52.18359 
L 764.630417 52.18359 
L 794.124649 52.18359 
" clip-path="url(#p62d345a82f)" style="fill: none; stroke: #bcbd22; stroke-width: 1.5; stroke-linecap: square"/>
    <defs>
     <path id="m33e9c7677b" d="M 0 3.5 
C 0.928211 3.5 1.81853 3.131218 2.474874 2.474874 
C 3.131218 1.81853 3.5 0.928211 3.5 0 
C 3.5 -0.928211 3.131218 -1.81853 2.474874 -2.474874 
C 1.81853 -3.131218 0.928211 -3.5 0 -3.5 
C -0.928211 -3.5 -1.81853 -3.131218 -2.474874 -2.474874 
C -3.131218 -1.81853 -3.5 -0.928211 -3.5 0 
C -3.5 0.928211 -3.131218 1.81853 -2.474874 2.474874 
C -1.81853 3.131218 -0.928211 3.5 0 3.5 
z
" style="stroke: #bcbd22"/>
    </defs>
    <g clip-path="url(#p62d345a82f)">
     <use xlink:href="#m33e9c7677b" x="86.263079" y="382.637632" style="fill: #bcbd22; stroke: #bcbd22"/>
     <use xlink:href="#m33e9c7677b" x="115.757311" y="354.868384" style="fill: #bcbd22; stroke: #bcbd22"/>
     <use xlink:href="#m33e9c7677b" x="145.251543" y="324.322213" style="fill: #bcbd22; stroke: #bcbd22"/>
     <use xlink:href="#m33e9c7677b" x="174.745775" y="314.602976" style="fill: #bcbd22; stroke: #bcbd22"/>
     <use xlink:href="#m33e9c7677b" x="204.240007" y="293.776041" style="fill: #bcbd22; stroke: #bcbd22"/>
     <use xlink:href="#m33e9c7677b" x="233.734239" y="263.229869" style="fill: #bcbd22; stroke: #bcbd22"/>
     <use xlink:href="#m33e9c7677b" x="263.228471" y="232.683697" style="fill: #bcbd22; stroke: #bcbd22"/>
     <use xlink:href="#m33e9c7677b" x="292.722703" y="229.906772" style="fill: #bcbd22; stroke: #bcbd22"/>
     <use xlink:href="#m33e9c7677b" x="322.216935" y="195.195213" style="fill: #bcbd22; stroke: #bcbd22"/>
     <use xlink:href="#m33e9c7677b" x="351.711167" y="150.764418" style="fill: #bcbd22; stroke: #bcbd22"/>
     <use xlink:href="#m33e9c7677b" x="381.205399" y="120.218246" style="fill: #bcbd22; stroke: #bcbd22"/>
     <use xlink:href="#m33e9c7677b" x="410.699632" y="89.672074" style="fill: #bcbd22; stroke: #bcbd22"/>
     <use xlink:href="#m33e9c7677b" x="440.193864" y="52.18359" style="fill: #bcbd22; stroke: #bcbd22"/>
     <use xlink:href="#m33e9c7677b" x="528.67656" y="52.18359" style="fill: #bcbd22; stroke: #bcbd22"/>
     <use xlink:href="#m33e9c7677b" x="558.170792" y="52.18359" style="fill: #bcbd22; stroke: #bcbd22"/>
     <use xlink:href="#m33e9c7677b" x="587.665024" y="52.18359" style="fill: #bcbd22; stroke: #bcbd22"/>
     <use xlink:href="#m33e9c7677b" x="617.159256" y="52.18359" style="fill: #bcbd22; stroke: #bcbd22"/>
     <use xlink:href="#m33e9c7677b" x="646.653488" y="52.18359" style="fill: #bcbd22; stroke: #bcbd22"/>
     <use xlink:href="#m33e9c7677b" x="705.641952" y="52.18359" style="fill: #bcbd22; stroke: #bcbd22"/>
     <use xlink:href="#m33e9c7677b" x="735.136185" y="52.18359" style="fill: #bcbd22; stroke: #bcbd22"/>
     <use xlink:href="#m33e9c7677b" x="764.630417" y="52.18359" style="fill: #bcbd22; stroke: #bcbd22"/>
     <use xlink:href="#m33e9c7677b" x="794.124649" y="52.18359" style="fill: #bcbd22; stroke: #bcbd22"/>
    </g>
   </g>
   <g id="patch_3">
    <path d="M 50.87 404.12 
L 50.87 26.88 
" style="fill: none; stroke: #000000; stroke-width: 0.8; stroke-linejoin: miter; stroke-linecap: square"/>
   </g>
   <g id="patch_4">
    <path d="M 829.517727 404.12 
L 829.517727 26.88 
" style="fill: none; stroke: #000000; stroke-width: 0.8; stroke-linejoin: miter; stroke-linecap: square"/>
   </g>
   <g id="patch_5">
    <path d="M 50.87 404.12 
L 829.517727 404.12 
" style="fill: none; stroke: #000000; stroke-width: 0.8; stroke-linejoin: miter; stroke-linecap: square"/>
   </g>
   <g id="patch_6">
    <path d="M 50.87 26.88 
L 829.517727 26.88 
" style="fill: none; stroke: #000000; stroke-width: 0.8; stroke-linejoin: miter; stroke-linecap: square"/>
   </g>
   <g id="text_16">
    <!-- Standings -->
    <g transform="translate(410.340114 20.88) scale(0.12 -0.12)">
     <defs>
      <path id="DejaVuSans-74" d="M 1172 4494 
L 1172 3500 
L 2356 3500 
L 2356 3053 
L 1172 3053 
L 1172 1153 
Q 1172 725 1289 603 
Q 1406 481 1766 481 
L 2356 481 
L 2356 0 
L 1766 0 
Q 1100 0 847 248 
Q 594 497 594 1153 
L 594 3053 
L 172 3053 
L 172 3500 
L 594 3500 
L 594 4494 
L 1172 4494 
z
" transform="scale(0.015625)"/>
      <path id="DejaVuSans-61" d="M 2194 1759 
Q 1497 1759 1228 1600 
Q 959 1441 959 1056 
Q 959 750 1161 570 
Q 1363 391 1709 391 
Q 2188 391 2477 730 
Q 2766 1069 2766 1631 
L 2766 1759 
L 2194 1759 
z
M 3341 1997 
L 3341 0 
L 2766 0 
L 2766 531 
Q 2569 213 2275 61 
Q 1981 -91 1556 -91 
Q 1019 -91 701 211 
Q 384 513 384 1019 
Q 384 1609 779 1909 
Q 1175 2209 1959 2209 
L 2766 2209 
L 2766 2266 
Q 2766 2663 2505 2880 
Q 2244 3097 1772 3097 
Q 1472 3097 1187 3025 
Q 903 2953 641 2809 
L 641 3341 
Q 956 3463 1253 3523 
Q 1550 3584 1831 3584 
Q 2591 3584 2966 3190 
Q 3341 2797 3341 1997 
z
" transform="scale(0.015625)"/>
      <path id="DejaVuSans-6e" d="M 3513 2113 
L 3513 0 
L 2938 0 
L 2938 2094 
Q 2938 2591 2744 2837 
Q 2550 3084 2163 3084 
Q 1697 3084 1428 2787 
Q 1159 2491 1159 1978 
L 1159 0 
L 581 0 
L 581 3500 
L 1159 3500 
L 1159 2956 
Q 1366 3272 1645 3428 
Q 1925 3584 2291 3584 
Q 2894 3584 3203 3211 
Q 3513 2838 3513 2113 
z
" transform="scale(0.015625)"/>
      <path id="DejaVuSans-64" d="M 2906 2969 
L 2906 4863 
L 3481 4863 
L 3481 0 
L 2906 0 
L 2906 525 
Q 2725 213 2448 61 
Q 2172 -91 1784 -91 
Q 1150 -91 751 415 
Q 353 922 353 1747 
Q 353 2572 751 3078 
Q 1150 3584 1784 3584 
Q 2172 3584 2448 3432 
Q 2725 3281 2906 2969 
z
M 947 1747 
Q 947 1113 1208 752 
Q 1469 391 1925 391 
Q 2381 391 2643 752 
Q 2906 1113 2906 1747 
Q 2906 2381 2643 2742 
Q 2381 3103 1925 3103 
Q 1469 3103 1208 2742 
Q 947 2381 947 1747 
z
" transform="scale(0.015625)"/>
      <path id="DejaVuSans-69" d="M 603 3500 
L 1178 3500 
L 1178 0 
L 603 0 
L 603 3500 
z
M 603 4863 
L 1178 4863 
L 1178 4134 
L 603 4134 
L 603 4863 
z
" transform="scale(0.015625)"/>
      <path id="DejaVuSans-67" d="M 2906 1791 
Q 2906 2416 2648 2759 
Q 2391 3103 1925 3103 
Q 1463 3103 1205 2759 
Q 947 2416 947 1791 
Q 947 1169 1205 825 
Q 1463 481 1925 481 
Q 2391 481 2648 825 
Q 2906 1169 2906 1791 
z
M 3481 434 
Q 3481 -459 3084 -895 
Q 2688 -1331 1869 -1331 
Q 1566 -1331 1297 -1286 
Q 1028 -1241 775 -1147 
L 775 -588 
Q 1028 -725 1275 -790 
Q 1522 -856 1778 -856 
Q 2344 -856 2625 -561 
Q 2906 -266 2906 331 
L 2906 616 
Q 2728 306 2450 153 
Q 2172 0 1784 0 
Q 1141 0 747 490 
Q 353 981 353 1791 
Q 353 2603 747 3093 
Q 1141 3584 1784 3584 
Q 2172 3584 2450 3431 
Q 2728 3278 2906 2969 
L 2906 3500 
L 3481 3500 
L 3481 434 
z
" transform="scale(0.015625)"/>
      <path id="DejaVuSans-73" d="M 2834 3397 
L 2834 2853 
Q 2591 2978 2328 3040 
Q 2066 3103 1784 3103 
Q 1356 3103 1142 2972 
Q 928 2841 928 2578 
Q 928 2378 1081 2264 
Q 1234 2150 1697 2047 
L 1894 2003 
Q 2506 1872 2764 1633 
Q 3022 1394 3022 966 
Q 3022 478 2636 193 
Q 2250 -91 1575 -91 
Q 1294 -91 989 -36 
Q 684 19 347 128 
L 347 722 
Q 666 556 975 473 
Q 1284 391 1588 391 
Q 1994 391 2212 530 
Q 2431 669 2431 922 
Q 2431 1156 2273 1281 
Q 2116 1406 1581 1522 
L 1381 1569 
Q 847 1681 609 1914 
Q 372 2147 372 2553 
Q 372 3047 722 3315 
Q 1072 3584 1716 3584 
Q 2034 3584 2315 3537 
Q 2597 3491 2834 3397 
z
" transform="scale(0.015625)"/>
     </defs>
     <use xlink:href="#DejaVuSans-53"/>
     <use xlink:href="#DejaVuSans-74" x="63.476562"/>
     <use xlink:href="#DejaVuSans-61" x="102.685547"/>
     <use xlink:href="#DejaVuSans-6e" x="163.964844"/>
     <use xlink:href="#DejaVuSans-64" x="227.34375"/>
     <use xlink:href="#DejaVuSans-69" x="290.820312"/>
     <use xlink:href="#DejaVuSans-6e" x="318.603516"/>
     <use xlink:href="#DejaVuSans-67" x="381.982422"/>
     <use xlink:href="#DejaVuSans-73" x="445.458984"/>
    </g>
   </g>
   <g id="legend_1">
    <g id="patch_7">
     <path d="M 57.87 166.983125 
L 153.949688 166.983125 
Q 155.949688 166.983125 155.949688 164.983125 
L 155.949688 33.88 
Q 155.949688 31.88 153.949688 31.88 
L 57.87 31.88 
Q 55.87 31.88 55.87 33.88 
L 55.87 164.983125 
Q 55.87 166.983125 57.87 166.983125 
z
" style="fill: #ffffff; opacity: 0.8; stroke: #cccccc; stroke-linejoin: miter"/>
    </g>
    <g id="line2d_38">
     <path d="M 59.87 39.978437 
L 69.87 39.978437 
L 79.87 39.978437 
" style="fill: none; stroke: #1f77b4; stroke-width: 1.5; stroke-linecap: square"/>
     <g>
      <use xlink:href="#m4565f65445" x="69.87" y="39.978437" style="fill: #1f77b4; stroke: #1f77b4"/>
     </g>
    </g>
    <g id="text_17">
     <!-- Alan Ce -->
     <g transform="translate(87.87 43.478437) scale(0.1 -0.1)">
      <defs>
       <path id="DejaVuSans-41" d="M 2188 4044 
L 1331 1722 
L 3047 1722 
L 2188 4044 
z
M 1831 4666 
L 2547 4666 
L 4325 0 
L 3669 0 
L 3244 1197 
L 1141 1197 
L 716 0 
L 50 0 
L 1831 4666 
z
" transform="scale(0.015625)"/>
       <path id="DejaVuSans-6c" d="M 603 4863 
L 1178 4863 
L 1178 0 
L 603 0 
L 603 4863 
z
" transform="scale(0.015625)"/>
       <path id="DejaVuSans-20" transform="scale(0.015625)"/>
       <path id="DejaVuSans-43" d="M 4122 4306 
L 4122 3641 
Q 3803 3938 3442 4084 
Q 3081 4231 2675 4231 
Q 1875 4231 1450 3742 
Q 1025 3253 1025 2328 
Q 1025 1406 1450 917 
Q 1875 428 2675 428 
Q 3081 428 3442 575 
Q 3803 722 4122 1019 
L 4122 359 
Q 3791 134 3420 21 
Q 3050 -91 2638 -91 
Q 1578 -91 968 557 
Q 359 1206 359 2328 
Q 359 3453 968 4101 
Q 1578 4750 2638 4750 
Q 3056 4750 3426 4639 
Q 3797 4528 4122 4306 
z
" transform="scale(0.015625)"/>
      </defs>
      <use xlink:href="#DejaVuSans-41"/>
      <use xlink:href="#DejaVuSans-6c" x="68.408203"/>
      <use xlink:href="#DejaVuSans-61" x="96.191406"/>
      <use xlink:href="#DejaVuSans-6e" x="157.470703"/>
      <use xlink:href="#DejaVuSans-20" x="220.849609"/>
      <use xlink:href="#DejaVuSans-43" x="252.636719"/>
      <use xlink:href="#DejaVuSans-65" x="322.460938"/>
     </g>
    </g>
    <g id="line2d_39">
     <path d="M 59.87 54.656563 
L 69.87 54.656563 
L 79.87 54.656563 
" style="fill: none; stroke: #ff7f0e; stroke-width: 1.5; stroke-linecap: square"/>
     <g>
      <use xlink:href="#m4a02fbbb7a" x="69.87" y="54.656563" style="fill: #ff7f0e; stroke: #ff7f0e"/>
     </g>
    </g>
    <g id="text_18">
     <!-- Sebastian Le -->
     <g transform="translate(87.87 58.156563) scale(0.1 -0.1)">
      <defs>
       <path id="DejaVuSans-62" d="M 3116 1747 
Q 3116 2381 2855 2742 
Q 2594 3103 2138 3103 
Q 1681 3103 1420 2742 
Q 1159 2381 1159 1747 
Q 1159 1113 1420 752 
Q 1681 391 2138 391 
Q 2594 391 2855 752 
Q 3116 1113 3116 1747 
z
M 1159 2969 
Q 1341 3281 1617 3432 
Q 1894 3584 2278 3584 
Q 2916 3584 3314 3078 
Q 3713 2572 3713 1747 
Q 3713 922 3314 415 
Q 2916 -91 2278 -91 
Q 1894 -91 1617 61 
Q 1341 213 1159 525 
L 1159 0 
L 581 0 
L 581 4863 
L 1159 4863 
L 1159 2969 
z
" transform="scale(0.015625)"/>
       <path id="DejaVuSans-4c" d="M 628 4666 
L 1259 4666 
L 1259 531 
L 3531 531 
L 3531 0 
L 628 0 
L 628 4666 
z
" transform="scale(0.015625)"/>
      </defs>
      <use xlink:href="#DejaVuSans-53"/>
      <use xlink:href="#DejaVuSans-65" x="63.476562"/>
      <use xlink:href="#DejaVuSans-62" x="125"/>
      <use xlink:href="#DejaVuSans-61" x="188.476562"/>
      <use xlink:href="#DejaVuSans-73" x="249.755859"/>
      <use xlink:href="#DejaVuSans-74" x="301.855469"/>
      <use xlink:href="#DejaVuSans-69" x="341.064453"/>
      <use xlink:href="#DejaVuSans-61" x="368.847656"/>
      <use xlink:href="#DejaVuSans-6e" x="430.126953"/>
      <use xlink:href="#DejaVuSans-20" x="493.505859"/>
      <use xlink:href="#DejaVuSans-4c" x="525.292969"/>
      <use xlink:href="#DejaVuSans-65" x="579.255859"/>
     </g>
    </g>
    <g id="line2d_40">
     <path d="M 59.87 69.334687 
L 69.87 69.334687 
L 79.87 69.334687 
" style="fill: none; stroke: #2ca02c; stroke-width: 1.5; stroke-linecap: square"/>
     <g>
      <use xlink:href="#ma4bc5eb282" x="69.87" y="69.334687" style="fill: #2ca02c; stroke: #2ca02c"/>
     </g>
    </g>
    <g id="text_19">
     <!-- Sarah Gy -->
     <g transform="translate(87.87 72.834687) scale(0.1 -0.1)">
      <defs>
       <path id="DejaVuSans-68" d="M 3513 2113 
L 3513 0 
L 2938 0 
L 2938 2094 
Q 2938 2591 2744 2837 
Q 2550 3084 2163 3084 
Q 1697 3084 1428 2787 
Q 1159 2491 1159 1978 
L 1159 0 
L 581 0 
L 581 4863 
L 1159 4863 
L 1159 2956 
Q 1366 3272 1645 3428 
Q 1925 3584 2291 3584 
Q 2894 3584 3203 3211 
Q 3513 2838 3513 2113 
z
" transform="scale(0.015625)"/>
       <path id="DejaVuSans-47" d="M 3809 666 
L 3809 1919 
L 2778 1919 
L 2778 2438 
L 4434 2438 
L 4434 434 
Q 4069 175 3628 42 
Q 3188 -91 2688 -91 
Q 1594 -91 976 548 
Q 359 1188 359 2328 
Q 359 3472 976 4111 
Q 1594 4750 2688 4750 
Q 3144 4750 3555 4637 
Q 3966 4525 4313 4306 
L 4313 3634 
Q 3963 3931 3569 4081 
Q 3175 4231 2741 4231 
Q 1884 4231 1454 3753 
Q 1025 3275 1025 2328 
Q 1025 1384 1454 906 
Q 1884 428 2741 428 
Q 3075 428 3337 486 
Q 3600 544 3809 666 
z
" transform="scale(0.015625)"/>
       <path id="DejaVuSans-79" d="M 2059 -325 
Q 1816 -950 1584 -1140 
Q 1353 -1331 966 -1331 
L 506 -1331 
L 506 -850 
L 844 -850 
Q 1081 -850 1212 -737 
Q 1344 -625 1503 -206 
L 1606 56 
L 191 3500 
L 800 3500 
L 1894 763 
L 2988 3500 
L 3597 3500 
L 2059 -325 
z
" transform="scale(0.015625)"/>
      </defs>
      <use xlink:href="#DejaVuSans-53"/>
      <use xlink:href="#DejaVuSans-61" x="63.476562"/>
      <use xlink:href="#DejaVuSans-72" x="124.755859"/>
      <use xlink:href="#DejaVuSans-61" x="165.869141"/>
      <use xlink:href="#DejaVuSans-68" x="227.148438"/>
      <use xlink:href="#DejaVuSans-20" x="290.527344"/>
      <use xlink:href="#DejaVuSans-47" x="322.314453"/>
      <use xlink:href="#DejaVuSans-79" x="399.804688"/>
     </g>
    </g>
    <g id="line2d_41">
     <path d="M 59.87 84.012812 
L 69.87 84.012812 
L 79.87 84.012812 
" style="fill: none; stroke: #d62728; stroke-width: 1.5; stroke-linecap: square"/>
     <g>
      <use xlink:href="#mfc007389d8" x="69.87" y="84.012812" style="fill: #d62728; stroke: #d62728"/>
     </g>
    </g>
    <g id="text_20">
     <!-- Matias BN -->
     <g transform="translate(87.87 87.512812) scale(0.1 -0.1)">
      <defs>
       <path id="DejaVuSans-4d" d="M 628 4666 
L 1569 4666 
L 2759 1491 
L 3956 4666 
L 4897 4666 
L 4897 0 
L 4281 0 
L 4281 4097 
L 3078 897 
L 2444 897 
L 1241 4097 
L 1241 0 
L 628 0 
L 628 4666 
z
" transform="scale(0.015625)"/>
       <path id="DejaVuSans-42" d="M 1259 2228 
L 1259 519 
L 2272 519 
Q 2781 519 3026 730 
Q 3272 941 3272 1375 
Q 3272 1813 3026 2020 
Q 2781 2228 2272 2228 
L 1259 2228 
z
M 1259 4147 
L 1259 2741 
L 2194 2741 
Q 2656 2741 2882 2914 
Q 3109 3088 3109 3444 
Q 3109 3797 2882 3972 
Q 2656 4147 2194 4147 
L 1259 4147 
z
M 628 4666 
L 2241 4666 
Q 2963 4666 3353 4366 
Q 3744 4066 3744 3513 
Q 3744 3084 3544 2831 
Q 3344 2578 2956 2516 
Q 3422 2416 3680 2098 
Q 3938 1781 3938 1306 
Q 3938 681 3513 340 
Q 3088 0 2303 0 
L 628 0 
L 628 4666 
z
" transform="scale(0.015625)"/>
       <path id="DejaVuSans-4e" d="M 628 4666 
L 1478 4666 
L 3547 763 
L 3547 4666 
L 4159 4666 
L 4159 0 
L 3309 0 
L 1241 3903 
L 1241 0 
L 628 0 
L 628 4666 
z
" transform="scale(0.015625)"/>
      </defs>
      <use xlink:href="#DejaVuSans-4d"/>
      <use xlink:href="#DejaVuSans-61" x="86.279297"/>
      <use xlink:href="#DejaVuSans-74" x="147.558594"/>
      <use xlink:href="#DejaVuSans-69" x="186.767578"/>
      <use xlink:href="#DejaVuSans-61" x="214.550781"/>
      <use xlink:href="#DejaVuSans-73" x="275.830078"/>
      <use xlink:href="#DejaVuSans-20" x="327.929688"/>
      <use xlink:href="#DejaVuSans-42" x="359.716797"/>
      <use xlink:href="#DejaVuSans-4e" x="428.320312"/>
     </g>
    </g>
    <g id="line2d_42">
     <path d="M 59.87 98.690938 
L 69.87 98.690938 
L 79.87 98.690938 
" style="fill: none; stroke: #9467bd; stroke-width: 1.5; stroke-linecap: square"/>
     <g>
      <use xlink:href="#m06c5596415" x="69.87" y="98.690938" style="fill: #9467bd; stroke: #9467bd"/>
     </g>
    </g>
    <g id="text_21">
     <!-- Christian Gr -->
     <g transform="translate(87.87 102.190938) scale(0.1 -0.1)">
      <use xlink:href="#DejaVuSans-43"/>
      <use xlink:href="#DejaVuSans-68" x="69.824219"/>
      <use xlink:href="#DejaVuSans-72" x="133.203125"/>
      <use xlink:href="#DejaVuSans-69" x="174.316406"/>
      <use xlink:href="#DejaVuSans-73" x="202.099609"/>
      <use xlink:href="#DejaVuSans-74" x="254.199219"/>
      <use xlink:href="#DejaVuSans-69" x="293.408203"/>
      <use xlink:href="#DejaVuSans-61" x="321.191406"/>
      <use xlink:href="#DejaVuSans-6e" x="382.470703"/>
      <use xlink:href="#DejaVuSans-20" x="445.849609"/>
      <use xlink:href="#DejaVuSans-47" x="477.636719"/>
      <use xlink:href="#DejaVuSans-72" x="555.126953"/>
     </g>
    </g>
    <g id="line2d_43">
     <path d="M 59.87 113.369062 
L 69.87 113.369062 
L 79.87 113.369062 
" style="fill: none; stroke: #8c564b; stroke-width: 1.5; stroke-linecap: square"/>
     <g>
      <use xlink:href="#mdf47f245c6" x="69.87" y="113.369062" style="fill: #8c564b; stroke: #8c564b"/>
     </g>
    </g>
    <g id="text_22">
     <!-- Oscar En -->
     <g transform="translate(87.87 116.869062) scale(0.1 -0.1)">
      <defs>
       <path id="DejaVuSans-4f" d="M 2522 4238 
Q 1834 4238 1429 3725 
Q 1025 3213 1025 2328 
Q 1025 1447 1429 934 
Q 1834 422 2522 422 
Q 3209 422 3611 934 
Q 4013 1447 4013 2328 
Q 4013 3213 3611 3725 
Q 3209 4238 2522 4238 
z
M 2522 4750 
Q 3503 4750 4090 4092 
Q 4678 3434 4678 2328 
Q 4678 1225 4090 567 
Q 3503 -91 2522 -91 
Q 1538 -91 948 565 
Q 359 1222 359 2328 
Q 359 3434 948 4092 
Q 1538 4750 2522 4750 
z
" transform="scale(0.015625)"/>
       <path id="DejaVuSans-45" d="M 628 4666 
L 3578 4666 
L 3578 4134 
L 1259 4134 
L 1259 2753 
L 3481 2753 
L 3481 2222 
L 1259 2222 
L 1259 531 
L 3634 531 
L 3634 0 
L 628 0 
L 628 4666 
z
" transform="scale(0.015625)"/>
      </defs>
      <use xlink:href="#DejaVuSans-4f"/>
      <use xlink:href="#DejaVuSans-73" x="78.710938"/>
      <use xlink:href="#DejaVuSans-63" x="130.810547"/>
      <use xlink:href="#DejaVuSans-61" x="185.791016"/>
      <use xlink:href="#DejaVuSans-72" x="247.070312"/>
      <use xlink:href="#DejaVuSans-20" x="288.183594"/>
      <use xlink:href="#DejaVuSans-45" x="319.970703"/>
      <use xlink:href="#DejaVuSans-6e" x="383.154297"/>
     </g>
    </g>
    <g id="line2d_44">
     <path d="M 59.87 128.047187 
L 69.87 128.047187 
L 79.87 128.047187 
" style="fill: none; stroke: #e377c2; stroke-width: 1.5; stroke-linecap: square"/>
     <g>
      <use xlink:href="#m50ea4e3b4d" x="69.87" y="128.047187" style="fill: #e377c2; stroke: #e377c2"/>
     </g>
    </g>
    <g id="text_23">
     <!-- Bjarke Ha -->
     <g transform="translate(87.87 131.547187) scale(0.1 -0.1)">
      <defs>
       <path id="DejaVuSans-6a" d="M 603 3500 
L 1178 3500 
L 1178 -63 
Q 1178 -731 923 -1031 
Q 669 -1331 103 -1331 
L -116 -1331 
L -116 -844 
L 38 -844 
Q 366 -844 484 -692 
Q 603 -541 603 -63 
L 603 3500 
z
M 603 4863 
L 1178 4863 
L 1178 4134 
L 603 4134 
L 603 4863 
z
" transform="scale(0.015625)"/>
       <path id="DejaVuSans-6b" d="M 581 4863 
L 1159 4863 
L 1159 1991 
L 2875 3500 
L 3609 3500 
L 1753 1863 
L 3688 0 
L 2938 0 
L 1159 1709 
L 1159 0 
L 581 0 
L 581 4863 
z
" transform="scale(0.015625)"/>
       <path id="DejaVuSans-48" d="M 628 4666 
L 1259 4666 
L 1259 2753 
L 3553 2753 
L 3553 4666 
L 4184 4666 
L 4184 0 
L 3553 0 
L 3553 2222 
L 1259 2222 
L 1259 0 
L 628 0 
L 628 4666 
z
" transform="scale(0.015625)"/>
      </defs>
      <use xlink:href="#DejaVuSans-42"/>
      <use xlink:href="#DejaVuSans-6a" x="68.603516"/>
      <use xlink:href="#DejaVuSans-61" x="96.386719"/>
      <use xlink:href="#DejaVuSans-72" x="157.666016"/>
      <use xlink:href="#DejaVuSans-6b" x="198.779297"/>
      <use xlink:href="#DejaVuSans-65" x="253.064453"/>
      <use xlink:href="#DejaVuSans-20" x="314.587891"/>
      <use xlink:href="#DejaVuSans-48" x="346.375"/>
      <use xlink:href="#DejaVuSans-61" x="421.570312"/>
     </g>
    </g>
    <g id="line2d_45">
     <path d="M 59.87 142.725312 
L 69.87 142.725312 
L 79.87 142.725312 
" style="fill: none; stroke: #7f7f7f; stroke-width: 1.5; stroke-linecap: square"/>
     <g>
      <use xlink:href="#m53a16a9b7b" x="69.87" y="142.725312" style="fill: #7f7f7f; stroke: #7f7f7f"/>
     </g>
    </g>
    <g id="text_24">
     <!-- Sif Ma -->
     <g transform="translate(87.87 146.225312) scale(0.1 -0.1)">
      <defs>
       <path id="DejaVuSans-66" d="M 2375 4863 
L 2375 4384 
L 1825 4384 
Q 1516 4384 1395 4259 
Q 1275 4134 1275 3809 
L 1275 3500 
L 2222 3500 
L 2222 3053 
L 1275 3053 
L 1275 0 
L 697 0 
L 697 3053 
L 147 3053 
L 147 3500 
L 697 3500 
L 697 3744 
Q 697 4328 969 4595 
Q 1241 4863 1831 4863 
L 2375 4863 
z
" transform="scale(0.015625)"/>
      </defs>
      <use xlink:href="#DejaVuSans-53"/>
      <use xlink:href="#DejaVuSans-69" x="63.476562"/>
      <use xlink:href="#DejaVuSans-66" x="91.259766"/>
      <use xlink:href="#DejaVuSans-20" x="126.464844"/>
      <use xlink:href="#DejaVuSans-4d" x="158.251953"/>
      <use xlink:href="#DejaVuSans-61" x="244.53125"/>
     </g>
    </g>
    <g id="line2d_46">
     <path d="M 59.87 157.403437 
L 69.87 157.403437 
L 79.87 157.403437 
" style="fill: none; stroke: #bcbd22; stroke-width: 1.5; stroke-linecap: square"/>
     <g>
      <use xlink:href="#m33e9c7677b" x="69.87" y="157.403437" style="fill: #bcbd22; stroke: #bcbd22"/>
     </g>
    </g>
    <g id="text_25">
     <!-- Helene Cl -->
     <g transform="translate(87.87 160.903437) scale(0.1 -0.1)">
      <use xlink:href="#DejaVuSans-48"/>
      <use xlink:href="#DejaVuSans-65" x="75.195312"/>
      <use xlink:href="#DejaVuSans-6c" x="136.71875"/>
      <use xlink:href="#DejaVuSans-65" x="164.501953"/>
      <use xlink:href="#DejaVuSans-6e" x="226.025391"/>
      <use xlink:href="#DejaVuSans-65" x="289.404297"/>
      <use xlink:href="#DejaVuSans-20" x="350.927734"/>
      <use xlink:href="#DejaVuSans-43" x="382.714844"/>
      <use xlink:href="#DejaVuSans-6c" x="452.539062"/>
     </g>
    </g>
   </g>
  </g>
 </g>
 <defs>
  <clipPath id="p62d345a82f">
   <rect x="50.87" y="26.88" width="778.647727" height="377.24"/>
  </clipPath>
 </defs>
</svg>
