<?xml version="1.0" encoding="utf-8" standalone="no"?>
<!DOCTYPE svg PUBLIC "-//W3C//DTD SVG 1.1//EN"
  "http://www.w3.org/Graphics/SVG/1.1/DTD/svg11.dtd">
<svg xmlns:xlink="http://www.w3.org/1999/xlink" width="864pt" height="432pt" viewBox="0 0 864 432" xmlns="http://www.w3.org/2000/svg" version="1.1">
 <metadata>
  <rdf:RDF xmlns:dc="http://purl.org/dc/elements/1.1/" xmlns:cc="http://creativecommons.org/ns#" xmlns:rdf="http://www.w3.org/1999/02/22-rdf-syntax-ns#">
   <cc:Work>
    <dc:type rdf:resource="http://purl.org/dc/dcmitype/StillImage"/>
    <dc:date>2024-08-23T08:34:01.655787</dc:date>
    <dc:format>image/svg+xml</dc:format>
    <dc:creator>
     <cc:Agent>
      <dc:title>Matplotlib v3.9.2, https://matplotlib.org/</dc:title>
     </cc:Agent>
    </dc:creator>
   </cc:Work>
  </rdf:RDF>
 </metadata>
 <defs>
  <style type="text/css">*{stroke-linejoin: round; stroke-linecap: butt}</style>
 </defs>
 <g id="figure_1">
  <g id="patch_1">
   <path d="M 0 432 
L 864 432 
L 864 0 
L 0 0 
z
" style="fill: #ffffff"/>
  </g>
  <g id="axes_1">
   <g id="patch_2">
    <path d="M 50.87 404.12 
L 853.2 404.12 
L 853.2 26.88 
L 50.87 26.88 
z
" style="fill: #ffffff"/>
   </g>
   <g id="matplotlib.axis_1">
    <g id="xtick_1">
     <g id="line2d_1">
      <path d="M 97.759416 404.12 
L 97.759416 26.88 
" clip-path="url(#pa73d2978d6)" style="fill: none; stroke-dasharray: 2.96,1.28; stroke-dashoffset: 0; stroke: #b0b0b0; stroke-width: 0.8"/>
     </g>
     <g id="line2d_2">
      <defs>
       <path id="m8653887502" d="M 0 0 
L 0 3.5 
" style="stroke: #000000; stroke-width: 0.8"/>
      </defs>
      <g>
       <use xlink:href="#m8653887502" x="97.759416" y="404.12" style="stroke: #000000; stroke-width: 0.8"/>
      </g>
     </g>
     <g id="text_1">
      <!-- 2024-06-15 -->
      <g transform="translate(68.701603 418.718437) scale(0.1 -0.1)">
       <defs>
        <path id="DejaVuSans-32" d="M 1228 531 
L 3431 531 
L 3431 0 
L 469 0 
L 469 531 
Q 828 903 1448 1529 
Q 2069 2156 2228 2338 
Q 2531 2678 2651 2914 
Q 2772 3150 2772 3378 
Q 2772 3750 2511 3984 
Q 2250 4219 1831 4219 
Q 1534 4219 1204 4116 
Q 875 4013 500 3803 
L 500 4441 
Q 881 4594 1212 4672 
Q 1544 4750 1819 4750 
Q 2544 4750 2975 4387 
Q 3406 4025 3406 3419 
Q 3406 3131 3298 2873 
Q 3191 2616 2906 2266 
Q 2828 2175 2409 1742 
Q 1991 1309 1228 531 
z
" transform="scale(0.015625)"/>
        <path id="DejaVuSans-30" d="M 2034 4250 
Q 1547 4250 1301 3770 
Q 1056 3291 1056 2328 
Q 1056 1369 1301 889 
Q 1547 409 2034 409 
Q 2525 409 2770 889 
Q 3016 1369 3016 2328 
Q 3016 3291 2770 3770 
Q 2525 4250 2034 4250 
z
M 2034 4750 
Q 2819 4750 3233 4129 
Q 3647 3509 3647 2328 
Q 3647 1150 3233 529 
Q 2819 -91 2034 -91 
Q 1250 -91 836 529 
Q 422 1150 422 2328 
Q 422 3509 836 4129 
Q 1250 4750 2034 4750 
z
" transform="scale(0.015625)"/>
        <path id="DejaVuSans-34" d="M 2419 4116 
L 825 1625 
L 2419 1625 
L 2419 4116 
z
M 2253 4666 
L 3047 4666 
L 3047 1625 
L 3713 1625 
L 3713 1100 
L 3047 1100 
L 3047 0 
L 2419 0 
L 2419 1100 
L 313 1100 
L 313 1709 
L 2253 4666 
z
" transform="scale(0.015625)"/>
        <path id="DejaVuSans-2d" d="M 313 2009 
L 1997 2009 
L 1997 1497 
L 313 1497 
L 313 2009 
z
" transform="scale(0.015625)"/>
        <path id="DejaVuSans-36" d="M 2113 2584 
Q 1688 2584 1439 2293 
Q 1191 2003 1191 1497 
Q 1191 994 1439 701 
Q 1688 409 2113 409 
Q 2538 409 2786 701 
Q 3034 994 3034 1497 
Q 3034 2003 2786 2293 
Q 2538 2584 2113 2584 
z
M 3366 4563 
L 3366 3988 
Q 3128 4100 2886 4159 
Q 2644 4219 2406 4219 
Q 1781 4219 1451 3797 
Q 1122 3375 1075 2522 
Q 1259 2794 1537 2939 
Q 1816 3084 2150 3084 
Q 2853 3084 3261 2657 
Q 3669 2231 3669 1497 
Q 3669 778 3244 343 
Q 2819 -91 2113 -91 
Q 1303 -91 875 529 
Q 447 1150 447 2328 
Q 447 3434 972 4092 
Q 1497 4750 2381 4750 
Q 2619 4750 2861 4703 
Q 3103 4656 3366 4563 
z
" transform="scale(0.015625)"/>
        <path id="DejaVuSans-31" d="M 794 531 
L 1825 531 
L 1825 4091 
L 703 3866 
L 703 4441 
L 1819 4666 
L 2450 4666 
L 2450 531 
L 3481 531 
L 3481 0 
L 794 0 
L 794 531 
z
" transform="scale(0.015625)"/>
        <path id="DejaVuSans-35" d="M 691 4666 
L 3169 4666 
L 3169 4134 
L 1269 4134 
L 1269 2991 
Q 1406 3038 1543 3061 
Q 1681 3084 1819 3084 
Q 2600 3084 3056 2656 
Q 3513 2228 3513 1497 
Q 3513 744 3044 326 
Q 2575 -91 1722 -91 
Q 1428 -91 1123 -41 
Q 819 9 494 109 
L 494 744 
Q 775 591 1075 516 
Q 1375 441 1709 441 
Q 2250 441 2565 725 
Q 2881 1009 2881 1497 
Q 2881 1984 2565 2268 
Q 2250 2553 1709 2553 
Q 1456 2553 1204 2497 
Q 953 2441 691 2322 
L 691 4666 
z
" transform="scale(0.015625)"/>
       </defs>
       <use xlink:href="#DejaVuSans-32"/>
       <use xlink:href="#DejaVuSans-30" x="63.623047"/>
       <use xlink:href="#DejaVuSans-32" x="127.246094"/>
       <use xlink:href="#DejaVuSans-34" x="190.869141"/>
       <use xlink:href="#DejaVuSans-2d" x="254.492188"/>
       <use xlink:href="#DejaVuSans-30" x="290.576172"/>
       <use xlink:href="#DejaVuSans-36" x="354.199219"/>
       <use xlink:href="#DejaVuSans-2d" x="417.822266"/>
       <use xlink:href="#DejaVuSans-31" x="453.90625"/>
       <use xlink:href="#DejaVuSans-35" x="517.529297"/>
      </g>
     </g>
    </g>
    <g id="xtick_2">
     <g id="line2d_3">
      <path d="M 264.477338 404.12 
L 264.477338 26.88 
" clip-path="url(#pa73d2978d6)" style="fill: none; stroke-dasharray: 2.96,1.28; stroke-dashoffset: 0; stroke: #b0b0b0; stroke-width: 0.8"/>
     </g>
     <g id="line2d_4">
      <g>
       <use xlink:href="#m8653887502" x="264.477338" y="404.12" style="stroke: #000000; stroke-width: 0.8"/>
      </g>
     </g>
     <g id="text_2">
      <!-- 2024-07-01 -->
      <g transform="translate(235.419525 418.718437) scale(0.1 -0.1)">
       <defs>
        <path id="DejaVuSans-37" d="M 525 4666 
L 3525 4666 
L 3525 4397 
L 1831 0 
L 1172 0 
L 2766 4134 
L 525 4134 
L 525 4666 
z
" transform="scale(0.015625)"/>
       </defs>
       <use xlink:href="#DejaVuSans-32"/>
       <use xlink:href="#DejaVuSans-30" x="63.623047"/>
       <use xlink:href="#DejaVuSans-32" x="127.246094"/>
       <use xlink:href="#DejaVuSans-34" x="190.869141"/>
       <use xlink:href="#DejaVuSans-2d" x="254.492188"/>
       <use xlink:href="#DejaVuSans-30" x="290.576172"/>
       <use xlink:href="#DejaVuSans-37" x="354.199219"/>
       <use xlink:href="#DejaVuSans-2d" x="417.822266"/>
       <use xlink:href="#DejaVuSans-30" x="453.90625"/>
       <use xlink:href="#DejaVuSans-31" x="517.529297"/>
      </g>
     </g>
    </g>
    <g id="xtick_3">
     <g id="line2d_5">
      <path d="M 410.355519 404.12 
L 410.355519 26.88 
" clip-path="url(#pa73d2978d6)" style="fill: none; stroke-dasharray: 2.96,1.28; stroke-dashoffset: 0; stroke: #b0b0b0; stroke-width: 0.8"/>
     </g>
     <g id="line2d_6">
      <g>
       <use xlink:href="#m8653887502" x="410.355519" y="404.12" style="stroke: #000000; stroke-width: 0.8"/>
      </g>
     </g>
     <g id="text_3">
      <!-- 2024-07-15 -->
      <g transform="translate(381.297707 418.718437) scale(0.1 -0.1)">
       <use xlink:href="#DejaVuSans-32"/>
       <use xlink:href="#DejaVuSans-30" x="63.623047"/>
       <use xlink:href="#DejaVuSans-32" x="127.246094"/>
       <use xlink:href="#DejaVuSans-34" x="190.869141"/>
       <use xlink:href="#DejaVuSans-2d" x="254.492188"/>
       <use xlink:href="#DejaVuSans-30" x="290.576172"/>
       <use xlink:href="#DejaVuSans-37" x="354.199219"/>
       <use xlink:href="#DejaVuSans-2d" x="417.822266"/>
       <use xlink:href="#DejaVuSans-31" x="453.90625"/>
       <use xlink:href="#DejaVuSans-35" x="517.529297"/>
      </g>
     </g>
    </g>
    <g id="xtick_4">
     <g id="line2d_7">
      <path d="M 587.493312 404.12 
L 587.493312 26.88 
" clip-path="url(#pa73d2978d6)" style="fill: none; stroke-dasharray: 2.96,1.28; stroke-dashoffset: 0; stroke: #b0b0b0; stroke-width: 0.8"/>
     </g>
     <g id="line2d_8">
      <g>
       <use xlink:href="#m8653887502" x="587.493312" y="404.12" style="stroke: #000000; stroke-width: 0.8"/>
      </g>
     </g>
     <g id="text_4">
      <!-- 2024-08-01 -->
      <g transform="translate(558.435499 418.718437) scale(0.1 -0.1)">
       <defs>
        <path id="DejaVuSans-38" d="M 2034 2216 
Q 1584 2216 1326 1975 
Q 1069 1734 1069 1313 
Q 1069 891 1326 650 
Q 1584 409 2034 409 
Q 2484 409 2743 651 
Q 3003 894 3003 1313 
Q 3003 1734 2745 1975 
Q 2488 2216 2034 2216 
z
M 1403 2484 
Q 997 2584 770 2862 
Q 544 3141 544 3541 
Q 544 4100 942 4425 
Q 1341 4750 2034 4750 
Q 2731 4750 3128 4425 
Q 3525 4100 3525 3541 
Q 3525 3141 3298 2862 
Q 3072 2584 2669 2484 
Q 3125 2378 3379 2068 
Q 3634 1759 3634 1313 
Q 3634 634 3220 271 
Q 2806 -91 2034 -91 
Q 1263 -91 848 271 
Q 434 634 434 1313 
Q 434 1759 690 2068 
Q 947 2378 1403 2484 
z
M 1172 3481 
Q 1172 3119 1398 2916 
Q 1625 2713 2034 2713 
Q 2441 2713 2670 2916 
Q 2900 3119 2900 3481 
Q 2900 3844 2670 4047 
Q 2441 4250 2034 4250 
Q 1625 4250 1398 4047 
Q 1172 3844 1172 3481 
z
" transform="scale(0.015625)"/>
       </defs>
       <use xlink:href="#DejaVuSans-32"/>
       <use xlink:href="#DejaVuSans-30" x="63.623047"/>
       <use xlink:href="#DejaVuSans-32" x="127.246094"/>
       <use xlink:href="#DejaVuSans-34" x="190.869141"/>
       <use xlink:href="#DejaVuSans-2d" x="254.492188"/>
       <use xlink:href="#DejaVuSans-30" x="290.576172"/>
       <use xlink:href="#DejaVuSans-38" x="354.199219"/>
       <use xlink:href="#DejaVuSans-2d" x="417.822266"/>
       <use xlink:href="#DejaVuSans-30" x="453.90625"/>
       <use xlink:href="#DejaVuSans-31" x="517.529297"/>
      </g>
     </g>
    </g>
    <g id="xtick_5">
     <g id="line2d_9">
      <path d="M 733.371494 404.12 
L 733.371494 26.88 
" clip-path="url(#pa73d2978d6)" style="fill: none; stroke-dasharray: 2.96,1.28; stroke-dashoffset: 0; stroke: #b0b0b0; stroke-width: 0.8"/>
     </g>
     <g id="line2d_10">
      <g>
       <use xlink:href="#m8653887502" x="733.371494" y="404.12" style="stroke: #000000; stroke-width: 0.8"/>
      </g>
     </g>
     <g id="text_5">
      <!-- 2024-08-15 -->
      <g transform="translate(704.313681 418.718437) scale(0.1 -0.1)">
       <use xlink:href="#DejaVuSans-32"/>
       <use xlink:href="#DejaVuSans-30" x="63.623047"/>
       <use xlink:href="#DejaVuSans-32" x="127.246094"/>
       <use xlink:href="#DejaVuSans-34" x="190.869141"/>
       <use xlink:href="#DejaVuSans-2d" x="254.492188"/>
       <use xlink:href="#DejaVuSans-30" x="290.576172"/>
       <use xlink:href="#DejaVuSans-38" x="354.199219"/>
       <use xlink:href="#DejaVuSans-2d" x="417.822266"/>
       <use xlink:href="#DejaVuSans-31" x="453.90625"/>
       <use xlink:href="#DejaVuSans-35" x="517.529297"/>
      </g>
     </g>
    </g>
   </g>
   <g id="matplotlib.axis_2">
    <g id="ytick_1">
     <g id="line2d_11">
      <path d="M 50.87 393.424628 
L 853.2 393.424628 
" clip-path="url(#pa73d2978d6)" style="fill: none; stroke-dasharray: 2.96,1.28; stroke-dashoffset: 0; stroke: #b0b0b0; stroke-width: 0.8"/>
     </g>
     <g id="line2d_12">
      <defs>
       <path id="m479f1d2772" d="M 0 0 
L -3.5 0 
" style="stroke: #000000; stroke-width: 0.8"/>
      </defs>
      <g>
       <use xlink:href="#m479f1d2772" x="50.87" y="393.424628" style="stroke: #000000; stroke-width: 0.8"/>
      </g>
     </g>
     <g id="text_6">
      <!-- 0 -->
      <g transform="translate(37.5075 397.223846) scale(0.1 -0.1)">
       <use xlink:href="#DejaVuSans-30"/>
      </g>
     </g>
    </g>
    <g id="ytick_2">
     <g id="line2d_13">
      <path d="M 50.87 330.111184 
L 853.2 330.111184 
" clip-path="url(#pa73d2978d6)" style="fill: none; stroke-dasharray: 2.96,1.28; stroke-dashoffset: 0; stroke: #b0b0b0; stroke-width: 0.8"/>
     </g>
     <g id="line2d_14">
      <g>
       <use xlink:href="#m479f1d2772" x="50.87" y="330.111184" style="stroke: #000000; stroke-width: 0.8"/>
      </g>
     </g>
     <g id="text_7">
      <!-- 50 -->
      <g transform="translate(31.145 333.910402) scale(0.1 -0.1)">
       <use xlink:href="#DejaVuSans-35"/>
       <use xlink:href="#DejaVuSans-30" x="63.623047"/>
      </g>
     </g>
    </g>
    <g id="ytick_3">
     <g id="line2d_15">
      <path d="M 50.87 266.79774 
L 853.2 266.79774 
" clip-path="url(#pa73d2978d6)" style="fill: none; stroke-dasharray: 2.96,1.28; stroke-dashoffset: 0; stroke: #b0b0b0; stroke-width: 0.8"/>
     </g>
     <g id="line2d_16">
      <g>
       <use xlink:href="#m479f1d2772" x="50.87" y="266.79774" style="stroke: #000000; stroke-width: 0.8"/>
      </g>
     </g>
     <g id="text_8">
      <!-- 100 -->
      <g transform="translate(24.7825 270.596958) scale(0.1 -0.1)">
       <use xlink:href="#DejaVuSans-31"/>
       <use xlink:href="#DejaVuSans-30" x="63.623047"/>
       <use xlink:href="#DejaVuSans-30" x="127.246094"/>
      </g>
     </g>
    </g>
    <g id="ytick_4">
     <g id="line2d_17">
      <path d="M 50.87 203.484296 
L 853.2 203.484296 
" clip-path="url(#pa73d2978d6)" style="fill: none; stroke-dasharray: 2.96,1.28; stroke-dashoffset: 0; stroke: #b0b0b0; stroke-width: 0.8"/>
     </g>
     <g id="line2d_18">
      <g>
       <use xlink:href="#m479f1d2772" x="50.87" y="203.484296" style="stroke: #000000; stroke-width: 0.8"/>
      </g>
     </g>
     <g id="text_9">
      <!-- 150 -->
      <g transform="translate(24.7825 207.283514) scale(0.1 -0.1)">
       <use xlink:href="#DejaVuSans-31"/>
       <use xlink:href="#DejaVuSans-35" x="63.623047"/>
       <use xlink:href="#DejaVuSans-30" x="127.246094"/>
      </g>
     </g>
    </g>
    <g id="ytick_5">
     <g id="line2d_19">
      <path d="M 50.87 140.170852 
L 853.2 140.170852 
" clip-path="url(#pa73d2978d6)" style="fill: none; stroke-dasharray: 2.96,1.28; stroke-dashoffset: 0; stroke: #b0b0b0; stroke-width: 0.8"/>
     </g>
     <g id="line2d_20">
      <g>
       <use xlink:href="#m479f1d2772" x="50.87" y="140.170852" style="stroke: #000000; stroke-width: 0.8"/>
      </g>
     </g>
     <g id="text_10">
      <!-- 200 -->
      <g transform="translate(24.7825 143.97007) scale(0.1 -0.1)">
       <use xlink:href="#DejaVuSans-32"/>
       <use xlink:href="#DejaVuSans-30" x="63.623047"/>
       <use xlink:href="#DejaVuSans-30" x="127.246094"/>
      </g>
     </g>
    </g>
    <g id="ytick_6">
     <g id="line2d_21">
      <path d="M 50.87 76.857408 
L 853.2 76.857408 
" clip-path="url(#pa73d2978d6)" style="fill: none; stroke-dasharray: 2.96,1.28; stroke-dashoffset: 0; stroke: #b0b0b0; stroke-width: 0.8"/>
     </g>
     <g id="line2d_22">
      <g>
       <use xlink:href="#m479f1d2772" x="50.87" y="76.857408" style="stroke: #000000; stroke-width: 0.8"/>
      </g>
     </g>
     <g id="text_11">
      <!-- 250 -->
      <g transform="translate(24.7825 80.656626) scale(0.1 -0.1)">
       <use xlink:href="#DejaVuSans-32"/>
       <use xlink:href="#DejaVuSans-35" x="63.623047"/>
       <use xlink:href="#DejaVuSans-30" x="127.246094"/>
      </g>
     </g>
    </g>
    <g id="text_12">
     <!-- Score -->
     <g transform="translate(18.702813 229.502344) rotate(-90) scale(0.1 -0.1)">
      <defs>
       <path id="DejaVuSans-53" d="M 3425 4513 
L 3425 3897 
Q 3066 4069 2747 4153 
Q 2428 4238 2131 4238 
Q 1616 4238 1336 4038 
Q 1056 3838 1056 3469 
Q 1056 3159 1242 3001 
Q 1428 2844 1947 2747 
L 2328 2669 
Q 3034 2534 3370 2195 
Q 3706 1856 3706 1288 
Q 3706 609 3251 259 
Q 2797 -91 1919 -91 
Q 1588 -91 1214 -16 
Q 841 59 441 206 
L 441 856 
Q 825 641 1194 531 
Q 1563 422 1919 422 
Q 2459 422 2753 634 
Q 3047 847 3047 1241 
Q 3047 1584 2836 1778 
Q 2625 1972 2144 2069 
L 1759 2144 
Q 1053 2284 737 2584 
Q 422 2884 422 3419 
Q 422 4038 858 4394 
Q 1294 4750 2059 4750 
Q 2388 4750 2728 4690 
Q 3069 4631 3425 4513 
z
" transform="scale(0.015625)"/>
       <path id="DejaVuSans-63" d="M 3122 3366 
L 3122 2828 
Q 2878 2963 2633 3030 
Q 2388 3097 2138 3097 
Q 1578 3097 1268 2742 
Q 959 2388 959 1747 
Q 959 1106 1268 751 
Q 1578 397 2138 397 
Q 2388 397 2633 464 
Q 2878 531 3122 666 
L 3122 134 
Q 2881 22 2623 -34 
Q 2366 -91 2075 -91 
Q 1284 -91 818 406 
Q 353 903 353 1747 
Q 353 2603 823 3093 
Q 1294 3584 2113 3584 
Q 2378 3584 2631 3529 
Q 2884 3475 3122 3366 
z
" transform="scale(0.015625)"/>
       <path id="DejaVuSans-6f" d="M 1959 3097 
Q 1497 3097 1228 2736 
Q 959 2375 959 1747 
Q 959 1119 1226 758 
Q 1494 397 1959 397 
Q 2419 397 2687 759 
Q 2956 1122 2956 1747 
Q 2956 2369 2687 2733 
Q 2419 3097 1959 3097 
z
M 1959 3584 
Q 2709 3584 3137 3096 
Q 3566 2609 3566 1747 
Q 3566 888 3137 398 
Q 2709 -91 1959 -91 
Q 1206 -91 779 398 
Q 353 888 353 1747 
Q 353 2609 779 3096 
Q 1206 3584 1959 3584 
z
" transform="scale(0.015625)"/>
       <path id="DejaVuSans-72" d="M 2631 2963 
Q 2534 3019 2420 3045 
Q 2306 3072 2169 3072 
Q 1681 3072 1420 2755 
Q 1159 2438 1159 1844 
L 1159 0 
L 581 0 
L 581 3500 
L 1159 3500 
L 1159 2956 
Q 1341 3275 1631 3429 
Q 1922 3584 2338 3584 
Q 2397 3584 2469 3576 
Q 2541 3569 2628 3553 
L 2631 2963 
z
" transform="scale(0.015625)"/>
       <path id="DejaVuSans-65" d="M 3597 1894 
L 3597 1613 
L 953 1613 
Q 991 1019 1311 708 
Q 1631 397 2203 397 
Q 2534 397 2845 478 
Q 3156 559 3463 722 
L 3463 178 
Q 3153 47 2828 -22 
Q 2503 -91 2169 -91 
Q 1331 -91 842 396 
Q 353 884 353 1716 
Q 353 2575 817 3079 
Q 1281 3584 2069 3584 
Q 2775 3584 3186 3129 
Q 3597 2675 3597 1894 
z
M 3022 2063 
Q 3016 2534 2758 2815 
Q 2500 3097 2075 3097 
Q 1594 3097 1305 2825 
Q 1016 2553 972 2059 
L 3022 2063 
z
" transform="scale(0.015625)"/>
      </defs>
      <use xlink:href="#DejaVuSans-53"/>
      <use xlink:href="#DejaVuSans-63" x="63.476562"/>
      <use xlink:href="#DejaVuSans-6f" x="118.457031"/>
      <use xlink:href="#DejaVuSans-72" x="179.638672"/>
      <use xlink:href="#DejaVuSans-65" x="218.501953"/>
     </g>
    </g>
   </g>
   <g id="line2d_23">
    <path d="M 87.339545 380.679137 
L 97.759416 359.152566 
L 108.179286 321.1645 
L 118.599156 312.300617 
L 129.019026 293.306584 
L 139.438896 274.312551 
L 149.858766 246.454636 
L 160.278636 235.058216 
L 170.698506 203.401494 
L 181.118377 192.005074 
L 191.538247 157.815814 
L 201.958117 137.555512 
L 212.377987 78.040875 
L 243.637597 78.040875 
L 254.057468 78.040875 
L 264.477338 78.040875 
L 274.897208 78.040875 
L 285.317078 78.040875 
L 306.156818 78.040875 
L 316.576688 78.040875 
L 326.996558 78.040875 
L 337.416429 78.040875 
L 347.836299 78.040875 
L 358.256169 59.046841 
L 368.676039 59.046841 
L 379.095909 59.046841 
L 389.515779 59.046841 
L 399.935649 59.046841 
L 410.355519 46.384153 
L 420.77539 46.384153 
L 431.19526 46.384153 
L 441.61513 46.384153 
L 452.035 46.384153 
L 462.45487 46.384153 
L 472.87474 46.384153 
L 483.29461 46.384153 
L 493.714481 46.384153 
L 504.134351 46.384153 
L 514.554221 46.384153 
L 524.974091 46.384153 
L 535.393961 46.384153 
L 545.813831 46.384153 
L 556.233701 46.384153 
L 566.653571 46.384153 
L 577.073442 46.384153 
L 587.493312 46.384153 
L 597.913182 46.384153 
L 608.333052 46.384153 
L 618.752922 46.384153 
L 629.172792 46.384153 
L 639.592662 46.384153 
L 650.012532 46.384153 
L 660.432403 46.384153 
L 670.852273 46.384153 
L 681.272143 46.384153 
L 691.692013 46.384153 
L 702.111883 46.384153 
L 712.531753 46.384153 
L 722.951623 46.384153 
L 733.371494 46.384153 
L 743.791364 46.384153 
L 754.211234 46.384153 
L 764.631104 46.384153 
L 775.050974 46.384153 
L 785.470844 46.384153 
L 795.890714 46.384153 
L 806.310584 46.384153 
L 816.730455 46.384153 
" clip-path="url(#pa73d2978d6)" style="fill: none; stroke: #1f77b4; stroke-width: 1.5; stroke-linecap: square"/>
    <defs>
     <path id="m7897be20cd" d="M 0 3.5 
C 0.928211 3.5 1.81853 3.131218 2.474874 2.474874 
C 3.131218 1.81853 3.5 0.928211 3.5 0 
C 3.5 -0.928211 3.131218 -1.81853 2.474874 -2.474874 
C 1.81853 -3.131218 0.928211 -3.5 0 -3.5 
C -0.928211 -3.5 -1.81853 -3.131218 -2.474874 -2.474874 
C -3.131218 -1.81853 -3.5 -0.928211 -3.5 0 
C -3.5 0.928211 -3.131218 1.81853 -2.474874 2.474874 
C -1.81853 3.131218 -0.928211 3.5 0 3.5 
z
" style="stroke: #1f77b4"/>
    </defs>
    <g clip-path="url(#pa73d2978d6)">
     <use xlink:href="#m7897be20cd" x="87.339545" y="380.679137" style="fill: #1f77b4; stroke: #1f77b4"/>
     <use xlink:href="#m7897be20cd" x="97.759416" y="359.152566" style="fill: #1f77b4; stroke: #1f77b4"/>
     <use xlink:href="#m7897be20cd" x="108.179286" y="321.1645" style="fill: #1f77b4; stroke: #1f77b4"/>
     <use xlink:href="#m7897be20cd" x="118.599156" y="312.300617" style="fill: #1f77b4; stroke: #1f77b4"/>
     <use xlink:href="#m7897be20cd" x="129.019026" y="293.306584" style="fill: #1f77b4; stroke: #1f77b4"/>
     <use xlink:href="#m7897be20cd" x="139.438896" y="274.312551" style="fill: #1f77b4; stroke: #1f77b4"/>
     <use xlink:href="#m7897be20cd" x="149.858766" y="246.454636" style="fill: #1f77b4; stroke: #1f77b4"/>
     <use xlink:href="#m7897be20cd" x="160.278636" y="235.058216" style="fill: #1f77b4; stroke: #1f77b4"/>
     <use xlink:href="#m7897be20cd" x="170.698506" y="203.401494" style="fill: #1f77b4; stroke: #1f77b4"/>
     <use xlink:href="#m7897be20cd" x="181.118377" y="192.005074" style="fill: #1f77b4; stroke: #1f77b4"/>
     <use xlink:href="#m7897be20cd" x="191.538247" y="157.815814" style="fill: #1f77b4; stroke: #1f77b4"/>
     <use xlink:href="#m7897be20cd" x="201.958117" y="137.555512" style="fill: #1f77b4; stroke: #1f77b4"/>
     <use xlink:href="#m7897be20cd" x="212.377987" y="78.040875" style="fill: #1f77b4; stroke: #1f77b4"/>
     <use xlink:href="#m7897be20cd" x="243.637597" y="78.040875" style="fill: #1f77b4; stroke: #1f77b4"/>
     <use xlink:href="#m7897be20cd" x="254.057468" y="78.040875" style="fill: #1f77b4; stroke: #1f77b4"/>
     <use xlink:href="#m7897be20cd" x="264.477338" y="78.040875" style="fill: #1f77b4; stroke: #1f77b4"/>
     <use xlink:href="#m7897be20cd" x="274.897208" y="78.040875" style="fill: #1f77b4; stroke: #1f77b4"/>
     <use xlink:href="#m7897be20cd" x="285.317078" y="78.040875" style="fill: #1f77b4; stroke: #1f77b4"/>
     <use xlink:href="#m7897be20cd" x="306.156818" y="78.040875" style="fill: #1f77b4; stroke: #1f77b4"/>
     <use xlink:href="#m7897be20cd" x="316.576688" y="78.040875" style="fill: #1f77b4; stroke: #1f77b4"/>
     <use xlink:href="#m7897be20cd" x="326.996558" y="78.040875" style="fill: #1f77b4; stroke: #1f77b4"/>
     <use xlink:href="#m7897be20cd" x="337.416429" y="78.040875" style="fill: #1f77b4; stroke: #1f77b4"/>
     <use xlink:href="#m7897be20cd" x="347.836299" y="78.040875" style="fill: #1f77b4; stroke: #1f77b4"/>
     <use xlink:href="#m7897be20cd" x="358.256169" y="59.046841" style="fill: #1f77b4; stroke: #1f77b4"/>
     <use xlink:href="#m7897be20cd" x="368.676039" y="59.046841" style="fill: #1f77b4; stroke: #1f77b4"/>
     <use xlink:href="#m7897be20cd" x="379.095909" y="59.046841" style="fill: #1f77b4; stroke: #1f77b4"/>
     <use xlink:href="#m7897be20cd" x="389.515779" y="59.046841" style="fill: #1f77b4; stroke: #1f77b4"/>
     <use xlink:href="#m7897be20cd" x="399.935649" y="59.046841" style="fill: #1f77b4; stroke: #1f77b4"/>
     <use xlink:href="#m7897be20cd" x="410.355519" y="46.384153" style="fill: #1f77b4; stroke: #1f77b4"/>
     <use xlink:href="#m7897be20cd" x="420.77539" y="46.384153" style="fill: #1f77b4; stroke: #1f77b4"/>
     <use xlink:href="#m7897be20cd" x="431.19526" y="46.384153" style="fill: #1f77b4; stroke: #1f77b4"/>
     <use xlink:href="#m7897be20cd" x="441.61513" y="46.384153" style="fill: #1f77b4; stroke: #1f77b4"/>
     <use xlink:href="#m7897be20cd" x="452.035" y="46.384153" style="fill: #1f77b4; stroke: #1f77b4"/>
     <use xlink:href="#m7897be20cd" x="462.45487" y="46.384153" style="fill: #1f77b4; stroke: #1f77b4"/>
     <use xlink:href="#m7897be20cd" x="472.87474" y="46.384153" style="fill: #1f77b4; stroke: #1f77b4"/>
     <use xlink:href="#m7897be20cd" x="483.29461" y="46.384153" style="fill: #1f77b4; stroke: #1f77b4"/>
     <use xlink:href="#m7897be20cd" x="493.714481" y="46.384153" style="fill: #1f77b4; stroke: #1f77b4"/>
     <use xlink:href="#m7897be20cd" x="504.134351" y="46.384153" style="fill: #1f77b4; stroke: #1f77b4"/>
     <use xlink:href="#m7897be20cd" x="514.554221" y="46.384153" style="fill: #1f77b4; stroke: #1f77b4"/>
     <use xlink:href="#m7897be20cd" x="524.974091" y="46.384153" style="fill: #1f77b4; stroke: #1f77b4"/>
     <use xlink:href="#m7897be20cd" x="535.393961" y="46.384153" style="fill: #1f77b4; stroke: #1f77b4"/>
     <use xlink:href="#m7897be20cd" x="545.813831" y="46.384153" style="fill: #1f77b4; stroke: #1f77b4"/>
     <use xlink:href="#m7897be20cd" x="556.233701" y="46.384153" style="fill: #1f77b4; stroke: #1f77b4"/>
     <use xlink:href="#m7897be20cd" x="566.653571" y="46.384153" style="fill: #1f77b4; stroke: #1f77b4"/>
     <use xlink:href="#m7897be20cd" x="577.073442" y="46.384153" style="fill: #1f77b4; stroke: #1f77b4"/>
     <use xlink:href="#m7897be20cd" x="587.493312" y="46.384153" style="fill: #1f77b4; stroke: #1f77b4"/>
     <use xlink:href="#m7897be20cd" x="597.913182" y="46.384153" style="fill: #1f77b4; stroke: #1f77b4"/>
     <use xlink:href="#m7897be20cd" x="608.333052" y="46.384153" style="fill: #1f77b4; stroke: #1f77b4"/>
     <use xlink:href="#m7897be20cd" x="618.752922" y="46.384153" style="fill: #1f77b4; stroke: #1f77b4"/>
     <use xlink:href="#m7897be20cd" x="629.172792" y="46.384153" style="fill: #1f77b4; stroke: #1f77b4"/>
     <use xlink:href="#m7897be20cd" x="639.592662" y="46.384153" style="fill: #1f77b4; stroke: #1f77b4"/>
     <use xlink:href="#m7897be20cd" x="650.012532" y="46.384153" style="fill: #1f77b4; stroke: #1f77b4"/>
     <use xlink:href="#m7897be20cd" x="660.432403" y="46.384153" style="fill: #1f77b4; stroke: #1f77b4"/>
     <use xlink:href="#m7897be20cd" x="670.852273" y="46.384153" style="fill: #1f77b4; stroke: #1f77b4"/>
     <use xlink:href="#m7897be20cd" x="681.272143" y="46.384153" style="fill: #1f77b4; stroke: #1f77b4"/>
     <use xlink:href="#m7897be20cd" x="691.692013" y="46.384153" style="fill: #1f77b4; stroke: #1f77b4"/>
     <use xlink:href="#m7897be20cd" x="702.111883" y="46.384153" style="fill: #1f77b4; stroke: #1f77b4"/>
     <use xlink:href="#m7897be20cd" x="712.531753" y="46.384153" style="fill: #1f77b4; stroke: #1f77b4"/>
     <use xlink:href="#m7897be20cd" x="722.951623" y="46.384153" style="fill: #1f77b4; stroke: #1f77b4"/>
     <use xlink:href="#m7897be20cd" x="733.371494" y="46.384153" style="fill: #1f77b4; stroke: #1f77b4"/>
     <use xlink:href="#m7897be20cd" x="743.791364" y="46.384153" style="fill: #1f77b4; stroke: #1f77b4"/>
     <use xlink:href="#m7897be20cd" x="754.211234" y="46.384153" style="fill: #1f77b4; stroke: #1f77b4"/>
     <use xlink:href="#m7897be20cd" x="764.631104" y="46.384153" style="fill: #1f77b4; stroke: #1f77b4"/>
     <use xlink:href="#m7897be20cd" x="775.050974" y="46.384153" style="fill: #1f77b4; stroke: #1f77b4"/>
     <use xlink:href="#m7897be20cd" x="785.470844" y="46.384153" style="fill: #1f77b4; stroke: #1f77b4"/>
     <use xlink:href="#m7897be20cd" x="795.890714" y="46.384153" style="fill: #1f77b4; stroke: #1f77b4"/>
     <use xlink:href="#m7897be20cd" x="806.310584" y="46.384153" style="fill: #1f77b4; stroke: #1f77b4"/>
     <use xlink:href="#m7897be20cd" x="816.730455" y="46.384153" style="fill: #1f77b4; stroke: #1f77b4"/>
    </g>
   </g>
   <g id="line2d_24">
    <path d="M 87.339545 380.675022 
L 97.759416 359.148451 
L 108.179286 340.154417 
L 118.599156 333.823073 
L 129.019026 327.491729 
L 139.438896 303.43262 
L 149.858766 292.0362 
L 160.278636 285.704856 
L 170.698506 254.048134 
L 181.118377 216.060067 
L 191.538247 190.73469 
L 201.958117 176.805732 
L 212.377987 129.953783 
L 243.637597 129.953783 
L 254.057468 129.953783 
L 264.477338 129.953783 
L 274.897208 129.953783 
L 285.317078 129.953783 
L 306.156818 129.953783 
L 316.576688 129.953783 
L 326.996558 129.953783 
L 337.416429 129.953783 
L 347.836299 129.953783 
L 358.256169 110.95975 
L 368.676039 110.95975 
L 379.095909 110.95975 
L 389.515779 110.95975 
L 399.935649 110.95975 
L 410.355519 79.303028 
L 420.77539 79.303028 
L 431.19526 79.303028 
L 441.61513 79.303028 
L 452.035 79.303028 
L 462.45487 79.303028 
L 472.87474 79.303028 
L 483.29461 79.303028 
L 493.714481 79.303028 
L 504.134351 79.303028 
L 514.554221 79.303028 
L 524.974091 79.303028 
L 535.393961 79.303028 
L 545.813831 79.303028 
L 556.233701 79.303028 
L 566.653571 79.303028 
L 577.073442 79.303028 
L 587.493312 79.303028 
L 597.913182 79.303028 
L 608.333052 79.303028 
L 618.752922 79.303028 
L 629.172792 79.303028 
L 639.592662 79.303028 
L 650.012532 79.303028 
L 660.432403 79.303028 
L 670.852273 79.303028 
L 681.272143 79.303028 
L 691.692013 79.303028 
L 702.111883 79.303028 
L 712.531753 79.303028 
L 722.951623 79.303028 
L 733.371494 79.303028 
L 743.791364 79.303028 
L 754.211234 79.303028 
L 764.631104 79.303028 
L 775.050974 79.303028 
L 785.470844 79.303028 
L 795.890714 79.303028 
L 806.310584 79.303028 
L 816.730455 79.303028 
" clip-path="url(#pa73d2978d6)" style="fill: none; stroke: #ff7f0e; stroke-width: 1.5; stroke-linecap: square"/>
    <defs>
     <path id="maf9aea93a8" d="M 0 3.5 
C 0.928211 3.5 1.81853 3.131218 2.474874 2.474874 
C 3.131218 1.81853 3.5 0.928211 3.5 0 
C 3.5 -0.928211 3.131218 -1.81853 2.474874 -2.474874 
C 1.81853 -3.131218 0.928211 -3.5 0 -3.5 
C -0.928211 -3.5 -1.81853 -3.131218 -2.474874 -2.474874 
C -3.131218 -1.81853 -3.5 -0.928211 -3.5 0 
C -3.5 0.928211 -3.131218 1.81853 -2.474874 2.474874 
C -1.81853 3.131218 -0.928211 3.5 0 3.5 
z
" style="stroke: #ff7f0e"/>
    </defs>
    <g clip-path="url(#pa73d2978d6)">
     <use xlink:href="#maf9aea93a8" x="87.339545" y="380.675022" style="fill: #ff7f0e; stroke: #ff7f0e"/>
     <use xlink:href="#maf9aea93a8" x="97.759416" y="359.148451" style="fill: #ff7f0e; stroke: #ff7f0e"/>
     <use xlink:href="#maf9aea93a8" x="108.179286" y="340.154417" style="fill: #ff7f0e; stroke: #ff7f0e"/>
     <use xlink:href="#maf9aea93a8" x="118.599156" y="333.823073" style="fill: #ff7f0e; stroke: #ff7f0e"/>
     <use xlink:href="#maf9aea93a8" x="129.019026" y="327.491729" style="fill: #ff7f0e; stroke: #ff7f0e"/>
     <use xlink:href="#maf9aea93a8" x="139.438896" y="303.43262" style="fill: #ff7f0e; stroke: #ff7f0e"/>
     <use xlink:href="#maf9aea93a8" x="149.858766" y="292.0362" style="fill: #ff7f0e; stroke: #ff7f0e"/>
     <use xlink:href="#maf9aea93a8" x="160.278636" y="285.704856" style="fill: #ff7f0e; stroke: #ff7f0e"/>
     <use xlink:href="#maf9aea93a8" x="170.698506" y="254.048134" style="fill: #ff7f0e; stroke: #ff7f0e"/>
     <use xlink:href="#maf9aea93a8" x="181.118377" y="216.060067" style="fill: #ff7f0e; stroke: #ff7f0e"/>
     <use xlink:href="#maf9aea93a8" x="191.538247" y="190.73469" style="fill: #ff7f0e; stroke: #ff7f0e"/>
     <use xlink:href="#maf9aea93a8" x="201.958117" y="176.805732" style="fill: #ff7f0e; stroke: #ff7f0e"/>
     <use xlink:href="#maf9aea93a8" x="212.377987" y="129.953783" style="fill: #ff7f0e; stroke: #ff7f0e"/>
     <use xlink:href="#maf9aea93a8" x="243.637597" y="129.953783" style="fill: #ff7f0e; stroke: #ff7f0e"/>
     <use xlink:href="#maf9aea93a8" x="254.057468" y="129.953783" style="fill: #ff7f0e; stroke: #ff7f0e"/>
     <use xlink:href="#maf9aea93a8" x="264.477338" y="129.953783" style="fill: #ff7f0e; stroke: #ff7f0e"/>
     <use xlink:href="#maf9aea93a8" x="274.897208" y="129.953783" style="fill: #ff7f0e; stroke: #ff7f0e"/>
     <use xlink:href="#maf9aea93a8" x="285.317078" y="129.953783" style="fill: #ff7f0e; stroke: #ff7f0e"/>
     <use xlink:href="#maf9aea93a8" x="306.156818" y="129.953783" style="fill: #ff7f0e; stroke: #ff7f0e"/>
     <use xlink:href="#maf9aea93a8" x="316.576688" y="129.953783" style="fill: #ff7f0e; stroke: #ff7f0e"/>
     <use xlink:href="#maf9aea93a8" x="326.996558" y="129.953783" style="fill: #ff7f0e; stroke: #ff7f0e"/>
     <use xlink:href="#maf9aea93a8" x="337.416429" y="129.953783" style="fill: #ff7f0e; stroke: #ff7f0e"/>
     <use xlink:href="#maf9aea93a8" x="347.836299" y="129.953783" style="fill: #ff7f0e; stroke: #ff7f0e"/>
     <use xlink:href="#maf9aea93a8" x="358.256169" y="110.95975" style="fill: #ff7f0e; stroke: #ff7f0e"/>
     <use xlink:href="#maf9aea93a8" x="368.676039" y="110.95975" style="fill: #ff7f0e; stroke: #ff7f0e"/>
     <use xlink:href="#maf9aea93a8" x="379.095909" y="110.95975" style="fill: #ff7f0e; stroke: #ff7f0e"/>
     <use xlink:href="#maf9aea93a8" x="389.515779" y="110.95975" style="fill: #ff7f0e; stroke: #ff7f0e"/>
     <use xlink:href="#maf9aea93a8" x="399.935649" y="110.95975" style="fill: #ff7f0e; stroke: #ff7f0e"/>
     <use xlink:href="#maf9aea93a8" x="410.355519" y="79.303028" style="fill: #ff7f0e; stroke: #ff7f0e"/>
     <use xlink:href="#maf9aea93a8" x="420.77539" y="79.303028" style="fill: #ff7f0e; stroke: #ff7f0e"/>
     <use xlink:href="#maf9aea93a8" x="431.19526" y="79.303028" style="fill: #ff7f0e; stroke: #ff7f0e"/>
     <use xlink:href="#maf9aea93a8" x="441.61513" y="79.303028" style="fill: #ff7f0e; stroke: #ff7f0e"/>
     <use xlink:href="#maf9aea93a8" x="452.035" y="79.303028" style="fill: #ff7f0e; stroke: #ff7f0e"/>
     <use xlink:href="#maf9aea93a8" x="462.45487" y="79.303028" style="fill: #ff7f0e; stroke: #ff7f0e"/>
     <use xlink:href="#maf9aea93a8" x="472.87474" y="79.303028" style="fill: #ff7f0e; stroke: #ff7f0e"/>
     <use xlink:href="#maf9aea93a8" x="483.29461" y="79.303028" style="fill: #ff7f0e; stroke: #ff7f0e"/>
     <use xlink:href="#maf9aea93a8" x="493.714481" y="79.303028" style="fill: #ff7f0e; stroke: #ff7f0e"/>
     <use xlink:href="#maf9aea93a8" x="504.134351" y="79.303028" style="fill: #ff7f0e; stroke: #ff7f0e"/>
     <use xlink:href="#maf9aea93a8" x="514.554221" y="79.303028" style="fill: #ff7f0e; stroke: #ff7f0e"/>
     <use xlink:href="#maf9aea93a8" x="524.974091" y="79.303028" style="fill: #ff7f0e; stroke: #ff7f0e"/>
     <use xlink:href="#maf9aea93a8" x="535.393961" y="79.303028" style="fill: #ff7f0e; stroke: #ff7f0e"/>
     <use xlink:href="#maf9aea93a8" x="545.813831" y="79.303028" style="fill: #ff7f0e; stroke: #ff7f0e"/>
     <use xlink:href="#maf9aea93a8" x="556.233701" y="79.303028" style="fill: #ff7f0e; stroke: #ff7f0e"/>
     <use xlink:href="#maf9aea93a8" x="566.653571" y="79.303028" style="fill: #ff7f0e; stroke: #ff7f0e"/>
     <use xlink:href="#maf9aea93a8" x="577.073442" y="79.303028" style="fill: #ff7f0e; stroke: #ff7f0e"/>
     <use xlink:href="#maf9aea93a8" x="587.493312" y="79.303028" style="fill: #ff7f0e; stroke: #ff7f0e"/>
     <use xlink:href="#maf9aea93a8" x="597.913182" y="79.303028" style="fill: #ff7f0e; stroke: #ff7f0e"/>
     <use xlink:href="#maf9aea93a8" x="608.333052" y="79.303028" style="fill: #ff7f0e; stroke: #ff7f0e"/>
     <use xlink:href="#maf9aea93a8" x="618.752922" y="79.303028" style="fill: #ff7f0e; stroke: #ff7f0e"/>
     <use xlink:href="#maf9aea93a8" x="629.172792" y="79.303028" style="fill: #ff7f0e; stroke: #ff7f0e"/>
     <use xlink:href="#maf9aea93a8" x="639.592662" y="79.303028" style="fill: #ff7f0e; stroke: #ff7f0e"/>
     <use xlink:href="#maf9aea93a8" x="650.012532" y="79.303028" style="fill: #ff7f0e; stroke: #ff7f0e"/>
     <use xlink:href="#maf9aea93a8" x="660.432403" y="79.303028" style="fill: #ff7f0e; stroke: #ff7f0e"/>
     <use xlink:href="#maf9aea93a8" x="670.852273" y="79.303028" style="fill: #ff7f0e; stroke: #ff7f0e"/>
     <use xlink:href="#maf9aea93a8" x="681.272143" y="79.303028" style="fill: #ff7f0e; stroke: #ff7f0e"/>
     <use xlink:href="#maf9aea93a8" x="691.692013" y="79.303028" style="fill: #ff7f0e; stroke: #ff7f0e"/>
     <use xlink:href="#maf9aea93a8" x="702.111883" y="79.303028" style="fill: #ff7f0e; stroke: #ff7f0e"/>
     <use xlink:href="#maf9aea93a8" x="712.531753" y="79.303028" style="fill: #ff7f0e; stroke: #ff7f0e"/>
     <use xlink:href="#maf9aea93a8" x="722.951623" y="79.303028" style="fill: #ff7f0e; stroke: #ff7f0e"/>
     <use xlink:href="#maf9aea93a8" x="733.371494" y="79.303028" style="fill: #ff7f0e; stroke: #ff7f0e"/>
     <use xlink:href="#maf9aea93a8" x="743.791364" y="79.303028" style="fill: #ff7f0e; stroke: #ff7f0e"/>
     <use xlink:href="#maf9aea93a8" x="754.211234" y="79.303028" style="fill: #ff7f0e; stroke: #ff7f0e"/>
     <use xlink:href="#maf9aea93a8" x="764.631104" y="79.303028" style="fill: #ff7f0e; stroke: #ff7f0e"/>
     <use xlink:href="#maf9aea93a8" x="775.050974" y="79.303028" style="fill: #ff7f0e; stroke: #ff7f0e"/>
     <use xlink:href="#maf9aea93a8" x="785.470844" y="79.303028" style="fill: #ff7f0e; stroke: #ff7f0e"/>
     <use xlink:href="#maf9aea93a8" x="795.890714" y="79.303028" style="fill: #ff7f0e; stroke: #ff7f0e"/>
     <use xlink:href="#maf9aea93a8" x="806.310584" y="79.303028" style="fill: #ff7f0e; stroke: #ff7f0e"/>
     <use xlink:href="#maf9aea93a8" x="816.730455" y="79.303028" style="fill: #ff7f0e; stroke: #ff7f0e"/>
    </g>
   </g>
   <g id="line2d_25">
    <path d="M 87.339545 380.79485 
L 97.759416 355.469472 
L 108.179286 331.410363 
L 118.599156 318.747675 
L 129.019026 293.422297 
L 139.438896 271.895726 
L 149.858766 250.369155 
L 160.278636 212.381089 
L 170.698506 190.854518 
L 181.118377 181.990636 
L 191.538247 154.13272 
L 201.958117 142.7363 
L 212.377987 99.683158 
L 243.637597 99.683158 
L 254.057468 99.683158 
L 264.477338 99.683158 
L 274.897208 99.683158 
L 285.317078 99.683158 
L 306.156818 99.683158 
L 316.576688 99.683158 
L 326.996558 99.683158 
L 337.416429 99.683158 
L 347.836299 99.683158 
L 358.256169 80.689125 
L 368.676039 80.689125 
L 379.095909 80.689125 
L 389.515779 80.689125 
L 399.935649 80.689125 
L 410.355519 80.689125 
L 420.77539 80.689125 
L 431.19526 80.689125 
L 441.61513 80.689125 
L 452.035 80.689125 
L 462.45487 80.689125 
L 472.87474 80.689125 
L 483.29461 80.689125 
L 493.714481 80.689125 
L 504.134351 80.689125 
L 514.554221 80.689125 
L 524.974091 80.689125 
L 535.393961 80.689125 
L 545.813831 80.689125 
L 556.233701 80.689125 
L 566.653571 80.689125 
L 577.073442 80.689125 
L 587.493312 80.689125 
L 597.913182 80.689125 
L 608.333052 80.689125 
L 618.752922 80.689125 
L 629.172792 80.689125 
L 639.592662 80.689125 
L 650.012532 80.689125 
L 660.432403 80.689125 
L 670.852273 80.689125 
L 681.272143 80.689125 
L 691.692013 80.689125 
L 702.111883 80.689125 
L 712.531753 80.689125 
L 722.951623 80.689125 
L 733.371494 80.689125 
L 743.791364 80.689125 
L 754.211234 80.689125 
L 764.631104 80.689125 
L 775.050974 80.689125 
L 785.470844 80.689125 
L 795.890714 80.689125 
L 806.310584 80.689125 
L 816.730455 80.689125 
" clip-path="url(#pa73d2978d6)" style="fill: none; stroke: #2ca02c; stroke-width: 1.5; stroke-linecap: square"/>
    <defs>
     <path id="mf09f8fb097" d="M 0 3.5 
C 0.928211 3.5 1.81853 3.131218 2.474874 2.474874 
C 3.131218 1.81853 3.5 0.928211 3.5 0 
C 3.5 -0.928211 3.131218 -1.81853 2.474874 -2.474874 
C 1.81853 -3.131218 0.928211 -3.5 0 -3.5 
C -0.928211 -3.5 -1.81853 -3.131218 -2.474874 -2.474874 
C -3.131218 -1.81853 -3.5 -0.928211 -3.5 0 
C -3.5 0.928211 -3.131218 1.81853 -2.474874 2.474874 
C -1.81853 3.131218 -0.928211 3.5 0 3.5 
z
" style="stroke: #2ca02c"/>
    </defs>
    <g clip-path="url(#pa73d2978d6)">
     <use xlink:href="#mf09f8fb097" x="87.339545" y="380.79485" style="fill: #2ca02c; stroke: #2ca02c"/>
     <use xlink:href="#mf09f8fb097" x="97.759416" y="355.469472" style="fill: #2ca02c; stroke: #2ca02c"/>
     <use xlink:href="#mf09f8fb097" x="108.179286" y="331.410363" style="fill: #2ca02c; stroke: #2ca02c"/>
     <use xlink:href="#mf09f8fb097" x="118.599156" y="318.747675" style="fill: #2ca02c; stroke: #2ca02c"/>
     <use xlink:href="#mf09f8fb097" x="129.019026" y="293.422297" style="fill: #2ca02c; stroke: #2ca02c"/>
     <use xlink:href="#mf09f8fb097" x="139.438896" y="271.895726" style="fill: #2ca02c; stroke: #2ca02c"/>
     <use xlink:href="#mf09f8fb097" x="149.858766" y="250.369155" style="fill: #2ca02c; stroke: #2ca02c"/>
     <use xlink:href="#mf09f8fb097" x="160.278636" y="212.381089" style="fill: #2ca02c; stroke: #2ca02c"/>
     <use xlink:href="#mf09f8fb097" x="170.698506" y="190.854518" style="fill: #2ca02c; stroke: #2ca02c"/>
     <use xlink:href="#mf09f8fb097" x="181.118377" y="181.990636" style="fill: #2ca02c; stroke: #2ca02c"/>
     <use xlink:href="#mf09f8fb097" x="191.538247" y="154.13272" style="fill: #2ca02c; stroke: #2ca02c"/>
     <use xlink:href="#mf09f8fb097" x="201.958117" y="142.7363" style="fill: #2ca02c; stroke: #2ca02c"/>
     <use xlink:href="#mf09f8fb097" x="212.377987" y="99.683158" style="fill: #2ca02c; stroke: #2ca02c"/>
     <use xlink:href="#mf09f8fb097" x="243.637597" y="99.683158" style="fill: #2ca02c; stroke: #2ca02c"/>
     <use xlink:href="#mf09f8fb097" x="254.057468" y="99.683158" style="fill: #2ca02c; stroke: #2ca02c"/>
     <use xlink:href="#mf09f8fb097" x="264.477338" y="99.683158" style="fill: #2ca02c; stroke: #2ca02c"/>
     <use xlink:href="#mf09f8fb097" x="274.897208" y="99.683158" style="fill: #2ca02c; stroke: #2ca02c"/>
     <use xlink:href="#mf09f8fb097" x="285.317078" y="99.683158" style="fill: #2ca02c; stroke: #2ca02c"/>
     <use xlink:href="#mf09f8fb097" x="306.156818" y="99.683158" style="fill: #2ca02c; stroke: #2ca02c"/>
     <use xlink:href="#mf09f8fb097" x="316.576688" y="99.683158" style="fill: #2ca02c; stroke: #2ca02c"/>
     <use xlink:href="#mf09f8fb097" x="326.996558" y="99.683158" style="fill: #2ca02c; stroke: #2ca02c"/>
     <use xlink:href="#mf09f8fb097" x="337.416429" y="99.683158" style="fill: #2ca02c; stroke: #2ca02c"/>
     <use xlink:href="#mf09f8fb097" x="347.836299" y="99.683158" style="fill: #2ca02c; stroke: #2ca02c"/>
     <use xlink:href="#mf09f8fb097" x="358.256169" y="80.689125" style="fill: #2ca02c; stroke: #2ca02c"/>
     <use xlink:href="#mf09f8fb097" x="368.676039" y="80.689125" style="fill: #2ca02c; stroke: #2ca02c"/>
     <use xlink:href="#mf09f8fb097" x="379.095909" y="80.689125" style="fill: #2ca02c; stroke: #2ca02c"/>
     <use xlink:href="#mf09f8fb097" x="389.515779" y="80.689125" style="fill: #2ca02c; stroke: #2ca02c"/>
     <use xlink:href="#mf09f8fb097" x="399.935649" y="80.689125" style="fill: #2ca02c; stroke: #2ca02c"/>
     <use xlink:href="#mf09f8fb097" x="410.355519" y="80.689125" style="fill: #2ca02c; stroke: #2ca02c"/>
     <use xlink:href="#mf09f8fb097" x="420.77539" y="80.689125" style="fill: #2ca02c; stroke: #2ca02c"/>
     <use xlink:href="#mf09f8fb097" x="431.19526" y="80.689125" style="fill: #2ca02c; stroke: #2ca02c"/>
     <use xlink:href="#mf09f8fb097" x="441.61513" y="80.689125" style="fill: #2ca02c; stroke: #2ca02c"/>
     <use xlink:href="#mf09f8fb097" x="452.035" y="80.689125" style="fill: #2ca02c; stroke: #2ca02c"/>
     <use xlink:href="#mf09f8fb097" x="462.45487" y="80.689125" style="fill: #2ca02c; stroke: #2ca02c"/>
     <use xlink:href="#mf09f8fb097" x="472.87474" y="80.689125" style="fill: #2ca02c; stroke: #2ca02c"/>
     <use xlink:href="#mf09f8fb097" x="483.29461" y="80.689125" style="fill: #2ca02c; stroke: #2ca02c"/>
     <use xlink:href="#mf09f8fb097" x="493.714481" y="80.689125" style="fill: #2ca02c; stroke: #2ca02c"/>
     <use xlink:href="#mf09f8fb097" x="504.134351" y="80.689125" style="fill: #2ca02c; stroke: #2ca02c"/>
     <use xlink:href="#mf09f8fb097" x="514.554221" y="80.689125" style="fill: #2ca02c; stroke: #2ca02c"/>
     <use xlink:href="#mf09f8fb097" x="524.974091" y="80.689125" style="fill: #2ca02c; stroke: #2ca02c"/>
     <use xlink:href="#mf09f8fb097" x="535.393961" y="80.689125" style="fill: #2ca02c; stroke: #2ca02c"/>
     <use xlink:href="#mf09f8fb097" x="545.813831" y="80.689125" style="fill: #2ca02c; stroke: #2ca02c"/>
     <use xlink:href="#mf09f8fb097" x="556.233701" y="80.689125" style="fill: #2ca02c; stroke: #2ca02c"/>
     <use xlink:href="#mf09f8fb097" x="566.653571" y="80.689125" style="fill: #2ca02c; stroke: #2ca02c"/>
     <use xlink:href="#mf09f8fb097" x="577.073442" y="80.689125" style="fill: #2ca02c; stroke: #2ca02c"/>
     <use xlink:href="#mf09f8fb097" x="587.493312" y="80.689125" style="fill: #2ca02c; stroke: #2ca02c"/>
     <use xlink:href="#mf09f8fb097" x="597.913182" y="80.689125" style="fill: #2ca02c; stroke: #2ca02c"/>
     <use xlink:href="#mf09f8fb097" x="608.333052" y="80.689125" style="fill: #2ca02c; stroke: #2ca02c"/>
     <use xlink:href="#mf09f8fb097" x="618.752922" y="80.689125" style="fill: #2ca02c; stroke: #2ca02c"/>
     <use xlink:href="#mf09f8fb097" x="629.172792" y="80.689125" style="fill: #2ca02c; stroke: #2ca02c"/>
     <use xlink:href="#mf09f8fb097" x="639.592662" y="80.689125" style="fill: #2ca02c; stroke: #2ca02c"/>
     <use xlink:href="#mf09f8fb097" x="650.012532" y="80.689125" style="fill: #2ca02c; stroke: #2ca02c"/>
     <use xlink:href="#mf09f8fb097" x="660.432403" y="80.689125" style="fill: #2ca02c; stroke: #2ca02c"/>
     <use xlink:href="#mf09f8fb097" x="670.852273" y="80.689125" style="fill: #2ca02c; stroke: #2ca02c"/>
     <use xlink:href="#mf09f8fb097" x="681.272143" y="80.689125" style="fill: #2ca02c; stroke: #2ca02c"/>
     <use xlink:href="#mf09f8fb097" x="691.692013" y="80.689125" style="fill: #2ca02c; stroke: #2ca02c"/>
     <use xlink:href="#mf09f8fb097" x="702.111883" y="80.689125" style="fill: #2ca02c; stroke: #2ca02c"/>
     <use xlink:href="#mf09f8fb097" x="712.531753" y="80.689125" style="fill: #2ca02c; stroke: #2ca02c"/>
     <use xlink:href="#mf09f8fb097" x="722.951623" y="80.689125" style="fill: #2ca02c; stroke: #2ca02c"/>
     <use xlink:href="#mf09f8fb097" x="733.371494" y="80.689125" style="fill: #2ca02c; stroke: #2ca02c"/>
     <use xlink:href="#mf09f8fb097" x="743.791364" y="80.689125" style="fill: #2ca02c; stroke: #2ca02c"/>
     <use xlink:href="#mf09f8fb097" x="754.211234" y="80.689125" style="fill: #2ca02c; stroke: #2ca02c"/>
     <use xlink:href="#mf09f8fb097" x="764.631104" y="80.689125" style="fill: #2ca02c; stroke: #2ca02c"/>
     <use xlink:href="#mf09f8fb097" x="775.050974" y="80.689125" style="fill: #2ca02c; stroke: #2ca02c"/>
     <use xlink:href="#mf09f8fb097" x="785.470844" y="80.689125" style="fill: #2ca02c; stroke: #2ca02c"/>
     <use xlink:href="#mf09f8fb097" x="795.890714" y="80.689125" style="fill: #2ca02c; stroke: #2ca02c"/>
     <use xlink:href="#mf09f8fb097" x="806.310584" y="80.689125" style="fill: #2ca02c; stroke: #2ca02c"/>
     <use xlink:href="#mf09f8fb097" x="816.730455" y="80.689125" style="fill: #2ca02c; stroke: #2ca02c"/>
    </g>
   </g>
   <g id="line2d_26">
    <path d="M 87.339545 380.854795 
L 97.759416 349.198073 
L 108.179286 317.541351 
L 118.599156 292.215973 
L 129.019026 279.553284 
L 139.438896 239.03268 
L 149.858766 214.973572 
L 160.278636 202.310883 
L 170.698506 180.784312 
L 181.118377 169.387892 
L 191.538247 135.198632 
L 201.958117 121.269674 
L 212.377987 82.015339 
L 243.637597 82.015339 
L 254.057468 82.015339 
L 264.477338 82.015339 
L 274.897208 82.015339 
L 285.317078 82.015339 
L 306.156818 82.015339 
L 316.576688 82.015339 
L 326.996558 82.015339 
L 337.416429 82.015339 
L 347.836299 82.015339 
L 358.256169 63.021306 
L 368.676039 63.021306 
L 379.095909 63.021306 
L 389.515779 63.021306 
L 399.935649 63.021306 
L 410.355519 44.027273 
L 420.77539 44.027273 
L 431.19526 44.027273 
L 441.61513 44.027273 
L 452.035 44.027273 
L 462.45487 44.027273 
L 472.87474 44.027273 
L 483.29461 44.027273 
L 493.714481 44.027273 
L 504.134351 44.027273 
L 514.554221 44.027273 
L 524.974091 44.027273 
L 535.393961 44.027273 
L 545.813831 44.027273 
L 556.233701 44.027273 
L 566.653571 44.027273 
L 577.073442 44.027273 
L 587.493312 44.027273 
L 597.913182 44.027273 
L 608.333052 44.027273 
L 618.752922 44.027273 
L 629.172792 44.027273 
L 639.592662 44.027273 
L 650.012532 44.027273 
L 660.432403 44.027273 
L 670.852273 44.027273 
L 681.272143 44.027273 
L 691.692013 44.027273 
L 702.111883 44.027273 
L 712.531753 44.027273 
L 722.951623 44.027273 
L 733.371494 44.027273 
L 743.791364 44.027273 
L 754.211234 44.027273 
L 764.631104 44.027273 
L 775.050974 44.027273 
L 785.470844 44.027273 
L 795.890714 44.027273 
L 806.310584 44.027273 
L 816.730455 44.027273 
" clip-path="url(#pa73d2978d6)" style="fill: none; stroke: #d62728; stroke-width: 1.5; stroke-linecap: square"/>
    <defs>
     <path id="m0455b9b4e7" d="M 0 3.5 
C 0.928211 3.5 1.81853 3.131218 2.474874 2.474874 
C 3.131218 1.81853 3.5 0.928211 3.5 0 
C 3.5 -0.928211 3.131218 -1.81853 2.474874 -2.474874 
C 1.81853 -3.131218 0.928211 -3.5 0 -3.5 
C -0.928211 -3.5 -1.81853 -3.131218 -2.474874 -2.474874 
C -3.131218 -1.81853 -3.5 -0.928211 -3.5 0 
C -3.5 0.928211 -3.131218 1.81853 -2.474874 2.474874 
C -1.81853 3.131218 -0.928211 3.5 0 3.5 
z
" style="stroke: #d62728"/>
    </defs>
    <g clip-path="url(#pa73d2978d6)">
     <use xlink:href="#m0455b9b4e7" x="87.339545" y="380.854795" style="fill: #d62728; stroke: #d62728"/>
     <use xlink:href="#m0455b9b4e7" x="97.759416" y="349.198073" style="fill: #d62728; stroke: #d62728"/>
     <use xlink:href="#m0455b9b4e7" x="108.179286" y="317.541351" style="fill: #d62728; stroke: #d62728"/>
     <use xlink:href="#m0455b9b4e7" x="118.599156" y="292.215973" style="fill: #d62728; stroke: #d62728"/>
     <use xlink:href="#m0455b9b4e7" x="129.019026" y="279.553284" style="fill: #d62728; stroke: #d62728"/>
     <use xlink:href="#m0455b9b4e7" x="139.438896" y="239.03268" style="fill: #d62728; stroke: #d62728"/>
     <use xlink:href="#m0455b9b4e7" x="149.858766" y="214.973572" style="fill: #d62728; stroke: #d62728"/>
     <use xlink:href="#m0455b9b4e7" x="160.278636" y="202.310883" style="fill: #d62728; stroke: #d62728"/>
     <use xlink:href="#m0455b9b4e7" x="170.698506" y="180.784312" style="fill: #d62728; stroke: #d62728"/>
     <use xlink:href="#m0455b9b4e7" x="181.118377" y="169.387892" style="fill: #d62728; stroke: #d62728"/>
     <use xlink:href="#m0455b9b4e7" x="191.538247" y="135.198632" style="fill: #d62728; stroke: #d62728"/>
     <use xlink:href="#m0455b9b4e7" x="201.958117" y="121.269674" style="fill: #d62728; stroke: #d62728"/>
     <use xlink:href="#m0455b9b4e7" x="212.377987" y="82.015339" style="fill: #d62728; stroke: #d62728"/>
     <use xlink:href="#m0455b9b4e7" x="243.637597" y="82.015339" style="fill: #d62728; stroke: #d62728"/>
     <use xlink:href="#m0455b9b4e7" x="254.057468" y="82.015339" style="fill: #d62728; stroke: #d62728"/>
     <use xlink:href="#m0455b9b4e7" x="264.477338" y="82.015339" style="fill: #d62728; stroke: #d62728"/>
     <use xlink:href="#m0455b9b4e7" x="274.897208" y="82.015339" style="fill: #d62728; stroke: #d62728"/>
     <use xlink:href="#m0455b9b4e7" x="285.317078" y="82.015339" style="fill: #d62728; stroke: #d62728"/>
     <use xlink:href="#m0455b9b4e7" x="306.156818" y="82.015339" style="fill: #d62728; stroke: #d62728"/>
     <use xlink:href="#m0455b9b4e7" x="316.576688" y="82.015339" style="fill: #d62728; stroke: #d62728"/>
     <use xlink:href="#m0455b9b4e7" x="326.996558" y="82.015339" style="fill: #d62728; stroke: #d62728"/>
     <use xlink:href="#m0455b9b4e7" x="337.416429" y="82.015339" style="fill: #d62728; stroke: #d62728"/>
     <use xlink:href="#m0455b9b4e7" x="347.836299" y="82.015339" style="fill: #d62728; stroke: #d62728"/>
     <use xlink:href="#m0455b9b4e7" x="358.256169" y="63.021306" style="fill: #d62728; stroke: #d62728"/>
     <use xlink:href="#m0455b9b4e7" x="368.676039" y="63.021306" style="fill: #d62728; stroke: #d62728"/>
     <use xlink:href="#m0455b9b4e7" x="379.095909" y="63.021306" style="fill: #d62728; stroke: #d62728"/>
     <use xlink:href="#m0455b9b4e7" x="389.515779" y="63.021306" style="fill: #d62728; stroke: #d62728"/>
     <use xlink:href="#m0455b9b4e7" x="399.935649" y="63.021306" style="fill: #d62728; stroke: #d62728"/>
     <use xlink:href="#m0455b9b4e7" x="410.355519" y="44.027273" style="fill: #d62728; stroke: #d62728"/>
     <use xlink:href="#m0455b9b4e7" x="420.77539" y="44.027273" style="fill: #d62728; stroke: #d62728"/>
     <use xlink:href="#m0455b9b4e7" x="431.19526" y="44.027273" style="fill: #d62728; stroke: #d62728"/>
     <use xlink:href="#m0455b9b4e7" x="441.61513" y="44.027273" style="fill: #d62728; stroke: #d62728"/>
     <use xlink:href="#m0455b9b4e7" x="452.035" y="44.027273" style="fill: #d62728; stroke: #d62728"/>
     <use xlink:href="#m0455b9b4e7" x="462.45487" y="44.027273" style="fill: #d62728; stroke: #d62728"/>
     <use xlink:href="#m0455b9b4e7" x="472.87474" y="44.027273" style="fill: #d62728; stroke: #d62728"/>
     <use xlink:href="#m0455b9b4e7" x="483.29461" y="44.027273" style="fill: #d62728; stroke: #d62728"/>
     <use xlink:href="#m0455b9b4e7" x="493.714481" y="44.027273" style="fill: #d62728; stroke: #d62728"/>
     <use xlink:href="#m0455b9b4e7" x="504.134351" y="44.027273" style="fill: #d62728; stroke: #d62728"/>
     <use xlink:href="#m0455b9b4e7" x="514.554221" y="44.027273" style="fill: #d62728; stroke: #d62728"/>
     <use xlink:href="#m0455b9b4e7" x="524.974091" y="44.027273" style="fill: #d62728; stroke: #d62728"/>
     <use xlink:href="#m0455b9b4e7" x="535.393961" y="44.027273" style="fill: #d62728; stroke: #d62728"/>
     <use xlink:href="#m0455b9b4e7" x="545.813831" y="44.027273" style="fill: #d62728; stroke: #d62728"/>
     <use xlink:href="#m0455b9b4e7" x="556.233701" y="44.027273" style="fill: #d62728; stroke: #d62728"/>
     <use xlink:href="#m0455b9b4e7" x="566.653571" y="44.027273" style="fill: #d62728; stroke: #d62728"/>
     <use xlink:href="#m0455b9b4e7" x="577.073442" y="44.027273" style="fill: #d62728; stroke: #d62728"/>
     <use xlink:href="#m0455b9b4e7" x="587.493312" y="44.027273" style="fill: #d62728; stroke: #d62728"/>
     <use xlink:href="#m0455b9b4e7" x="597.913182" y="44.027273" style="fill: #d62728; stroke: #d62728"/>
     <use xlink:href="#m0455b9b4e7" x="608.333052" y="44.027273" style="fill: #d62728; stroke: #d62728"/>
     <use xlink:href="#m0455b9b4e7" x="618.752922" y="44.027273" style="fill: #d62728; stroke: #d62728"/>
     <use xlink:href="#m0455b9b4e7" x="629.172792" y="44.027273" style="fill: #d62728; stroke: #d62728"/>
     <use xlink:href="#m0455b9b4e7" x="639.592662" y="44.027273" style="fill: #d62728; stroke: #d62728"/>
     <use xlink:href="#m0455b9b4e7" x="650.012532" y="44.027273" style="fill: #d62728; stroke: #d62728"/>
     <use xlink:href="#m0455b9b4e7" x="660.432403" y="44.027273" style="fill: #d62728; stroke: #d62728"/>
     <use xlink:href="#m0455b9b4e7" x="670.852273" y="44.027273" style="fill: #d62728; stroke: #d62728"/>
     <use xlink:href="#m0455b9b4e7" x="681.272143" y="44.027273" style="fill: #d62728; stroke: #d62728"/>
     <use xlink:href="#m0455b9b4e7" x="691.692013" y="44.027273" style="fill: #d62728; stroke: #d62728"/>
     <use xlink:href="#m0455b9b4e7" x="702.111883" y="44.027273" style="fill: #d62728; stroke: #d62728"/>
     <use xlink:href="#m0455b9b4e7" x="712.531753" y="44.027273" style="fill: #d62728; stroke: #d62728"/>
     <use xlink:href="#m0455b9b4e7" x="722.951623" y="44.027273" style="fill: #d62728; stroke: #d62728"/>
     <use xlink:href="#m0455b9b4e7" x="733.371494" y="44.027273" style="fill: #d62728; stroke: #d62728"/>
     <use xlink:href="#m0455b9b4e7" x="743.791364" y="44.027273" style="fill: #d62728; stroke: #d62728"/>
     <use xlink:href="#m0455b9b4e7" x="754.211234" y="44.027273" style="fill: #d62728; stroke: #d62728"/>
     <use xlink:href="#m0455b9b4e7" x="764.631104" y="44.027273" style="fill: #d62728; stroke: #d62728"/>
     <use xlink:href="#m0455b9b4e7" x="775.050974" y="44.027273" style="fill: #d62728; stroke: #d62728"/>
     <use xlink:href="#m0455b9b4e7" x="785.470844" y="44.027273" style="fill: #d62728; stroke: #d62728"/>
     <use xlink:href="#m0455b9b4e7" x="795.890714" y="44.027273" style="fill: #d62728; stroke: #d62728"/>
     <use xlink:href="#m0455b9b4e7" x="806.310584" y="44.027273" style="fill: #d62728; stroke: #d62728"/>
     <use xlink:href="#m0455b9b4e7" x="816.730455" y="44.027273" style="fill: #d62728; stroke: #d62728"/>
    </g>
   </g>
   <g id="line2d_27">
    <path d="M 87.339545 386.972727 
L 97.759416 361.64735 
L 108.179286 336.321972 
L 118.599156 323.659283 
L 129.019026 304.66525 
L 139.438896 283.138679 
L 149.858766 264.144646 
L 160.278636 251.481957 
L 170.698506 207.162546 
L 181.118377 200.831202 
L 191.538247 166.641942 
L 201.958117 155.245522 
L 212.377987 95.730885 
L 243.637597 95.730885 
L 254.057468 95.730885 
L 264.477338 95.730885 
L 274.897208 95.730885 
L 285.317078 95.730885 
L 306.156818 95.730885 
L 316.576688 95.730885 
L 326.996558 95.730885 
L 337.416429 95.730885 
L 347.836299 95.730885 
L 358.256169 95.730885 
L 368.676039 95.730885 
L 379.095909 95.730885 
L 389.515779 95.730885 
L 399.935649 95.730885 
L 410.355519 64.074163 
L 420.77539 64.074163 
L 431.19526 64.074163 
L 441.61513 64.074163 
L 452.035 64.074163 
L 462.45487 64.074163 
L 472.87474 64.074163 
L 483.29461 64.074163 
L 493.714481 64.074163 
L 504.134351 64.074163 
L 514.554221 64.074163 
L 524.974091 64.074163 
L 535.393961 64.074163 
L 545.813831 64.074163 
L 556.233701 64.074163 
L 566.653571 64.074163 
L 577.073442 64.074163 
L 587.493312 64.074163 
L 597.913182 64.074163 
L 608.333052 64.074163 
L 618.752922 64.074163 
L 629.172792 64.074163 
L 639.592662 64.074163 
L 650.012532 64.074163 
L 660.432403 64.074163 
L 670.852273 64.074163 
L 681.272143 64.074163 
L 691.692013 64.074163 
L 702.111883 64.074163 
L 712.531753 64.074163 
L 722.951623 64.074163 
L 733.371494 64.074163 
L 743.791364 64.074163 
L 754.211234 64.074163 
L 764.631104 64.074163 
L 775.050974 64.074163 
L 785.470844 64.074163 
L 795.890714 64.074163 
L 806.310584 64.074163 
L 816.730455 64.074163 
" clip-path="url(#pa73d2978d6)" style="fill: none; stroke: #9467bd; stroke-width: 1.5; stroke-linecap: square"/>
    <defs>
     <path id="m8e01f957fd" d="M 0 3.5 
C 0.928211 3.5 1.81853 3.131218 2.474874 2.474874 
C 3.131218 1.81853 3.5 0.928211 3.5 0 
C 3.5 -0.928211 3.131218 -1.81853 2.474874 -2.474874 
C 1.81853 -3.131218 0.928211 -3.5 0 -3.5 
C -0.928211 -3.5 -1.81853 -3.131218 -2.474874 -2.474874 
C -3.131218 -1.81853 -3.5 -0.928211 -3.5 0 
C -3.5 0.928211 -3.131218 1.81853 -2.474874 2.474874 
C -1.81853 3.131218 -0.928211 3.5 0 3.5 
z
" style="stroke: #9467bd"/>
    </defs>
    <g clip-path="url(#pa73d2978d6)">
     <use xlink:href="#m8e01f957fd" x="87.339545" y="386.972727" style="fill: #9467bd; stroke: #9467bd"/>
     <use xlink:href="#m8e01f957fd" x="97.759416" y="361.64735" style="fill: #9467bd; stroke: #9467bd"/>
     <use xlink:href="#m8e01f957fd" x="108.179286" y="336.321972" style="fill: #9467bd; stroke: #9467bd"/>
     <use xlink:href="#m8e01f957fd" x="118.599156" y="323.659283" style="fill: #9467bd; stroke: #9467bd"/>
     <use xlink:href="#m8e01f957fd" x="129.019026" y="304.66525" style="fill: #9467bd; stroke: #9467bd"/>
     <use xlink:href="#m8e01f957fd" x="139.438896" y="283.138679" style="fill: #9467bd; stroke: #9467bd"/>
     <use xlink:href="#m8e01f957fd" x="149.858766" y="264.144646" style="fill: #9467bd; stroke: #9467bd"/>
     <use xlink:href="#m8e01f957fd" x="160.278636" y="251.481957" style="fill: #9467bd; stroke: #9467bd"/>
     <use xlink:href="#m8e01f957fd" x="170.698506" y="207.162546" style="fill: #9467bd; stroke: #9467bd"/>
     <use xlink:href="#m8e01f957fd" x="181.118377" y="200.831202" style="fill: #9467bd; stroke: #9467bd"/>
     <use xlink:href="#m8e01f957fd" x="191.538247" y="166.641942" style="fill: #9467bd; stroke: #9467bd"/>
     <use xlink:href="#m8e01f957fd" x="201.958117" y="155.245522" style="fill: #9467bd; stroke: #9467bd"/>
     <use xlink:href="#m8e01f957fd" x="212.377987" y="95.730885" style="fill: #9467bd; stroke: #9467bd"/>
     <use xlink:href="#m8e01f957fd" x="243.637597" y="95.730885" style="fill: #9467bd; stroke: #9467bd"/>
     <use xlink:href="#m8e01f957fd" x="254.057468" y="95.730885" style="fill: #9467bd; stroke: #9467bd"/>
     <use xlink:href="#m8e01f957fd" x="264.477338" y="95.730885" style="fill: #9467bd; stroke: #9467bd"/>
     <use xlink:href="#m8e01f957fd" x="274.897208" y="95.730885" style="fill: #9467bd; stroke: #9467bd"/>
     <use xlink:href="#m8e01f957fd" x="285.317078" y="95.730885" style="fill: #9467bd; stroke: #9467bd"/>
     <use xlink:href="#m8e01f957fd" x="306.156818" y="95.730885" style="fill: #9467bd; stroke: #9467bd"/>
     <use xlink:href="#m8e01f957fd" x="316.576688" y="95.730885" style="fill: #9467bd; stroke: #9467bd"/>
     <use xlink:href="#m8e01f957fd" x="326.996558" y="95.730885" style="fill: #9467bd; stroke: #9467bd"/>
     <use xlink:href="#m8e01f957fd" x="337.416429" y="95.730885" style="fill: #9467bd; stroke: #9467bd"/>
     <use xlink:href="#m8e01f957fd" x="347.836299" y="95.730885" style="fill: #9467bd; stroke: #9467bd"/>
     <use xlink:href="#m8e01f957fd" x="358.256169" y="95.730885" style="fill: #9467bd; stroke: #9467bd"/>
     <use xlink:href="#m8e01f957fd" x="368.676039" y="95.730885" style="fill: #9467bd; stroke: #9467bd"/>
     <use xlink:href="#m8e01f957fd" x="379.095909" y="95.730885" style="fill: #9467bd; stroke: #9467bd"/>
     <use xlink:href="#m8e01f957fd" x="389.515779" y="95.730885" style="fill: #9467bd; stroke: #9467bd"/>
     <use xlink:href="#m8e01f957fd" x="399.935649" y="95.730885" style="fill: #9467bd; stroke: #9467bd"/>
     <use xlink:href="#m8e01f957fd" x="410.355519" y="64.074163" style="fill: #9467bd; stroke: #9467bd"/>
     <use xlink:href="#m8e01f957fd" x="420.77539" y="64.074163" style="fill: #9467bd; stroke: #9467bd"/>
     <use xlink:href="#m8e01f957fd" x="431.19526" y="64.074163" style="fill: #9467bd; stroke: #9467bd"/>
     <use xlink:href="#m8e01f957fd" x="441.61513" y="64.074163" style="fill: #9467bd; stroke: #9467bd"/>
     <use xlink:href="#m8e01f957fd" x="452.035" y="64.074163" style="fill: #9467bd; stroke: #9467bd"/>
     <use xlink:href="#m8e01f957fd" x="462.45487" y="64.074163" style="fill: #9467bd; stroke: #9467bd"/>
     <use xlink:href="#m8e01f957fd" x="472.87474" y="64.074163" style="fill: #9467bd; stroke: #9467bd"/>
     <use xlink:href="#m8e01f957fd" x="483.29461" y="64.074163" style="fill: #9467bd; stroke: #9467bd"/>
     <use xlink:href="#m8e01f957fd" x="493.714481" y="64.074163" style="fill: #9467bd; stroke: #9467bd"/>
     <use xlink:href="#m8e01f957fd" x="504.134351" y="64.074163" style="fill: #9467bd; stroke: #9467bd"/>
     <use xlink:href="#m8e01f957fd" x="514.554221" y="64.074163" style="fill: #9467bd; stroke: #9467bd"/>
     <use xlink:href="#m8e01f957fd" x="524.974091" y="64.074163" style="fill: #9467bd; stroke: #9467bd"/>
     <use xlink:href="#m8e01f957fd" x="535.393961" y="64.074163" style="fill: #9467bd; stroke: #9467bd"/>
     <use xlink:href="#m8e01f957fd" x="545.813831" y="64.074163" style="fill: #9467bd; stroke: #9467bd"/>
     <use xlink:href="#m8e01f957fd" x="556.233701" y="64.074163" style="fill: #9467bd; stroke: #9467bd"/>
     <use xlink:href="#m8e01f957fd" x="566.653571" y="64.074163" style="fill: #9467bd; stroke: #9467bd"/>
     <use xlink:href="#m8e01f957fd" x="577.073442" y="64.074163" style="fill: #9467bd; stroke: #9467bd"/>
     <use xlink:href="#m8e01f957fd" x="587.493312" y="64.074163" style="fill: #9467bd; stroke: #9467bd"/>
     <use xlink:href="#m8e01f957fd" x="597.913182" y="64.074163" style="fill: #9467bd; stroke: #9467bd"/>
     <use xlink:href="#m8e01f957fd" x="608.333052" y="64.074163" style="fill: #9467bd; stroke: #9467bd"/>
     <use xlink:href="#m8e01f957fd" x="618.752922" y="64.074163" style="fill: #9467bd; stroke: #9467bd"/>
     <use xlink:href="#m8e01f957fd" x="629.172792" y="64.074163" style="fill: #9467bd; stroke: #9467bd"/>
     <use xlink:href="#m8e01f957fd" x="639.592662" y="64.074163" style="fill: #9467bd; stroke: #9467bd"/>
     <use xlink:href="#m8e01f957fd" x="650.012532" y="64.074163" style="fill: #9467bd; stroke: #9467bd"/>
     <use xlink:href="#m8e01f957fd" x="660.432403" y="64.074163" style="fill: #9467bd; stroke: #9467bd"/>
     <use xlink:href="#m8e01f957fd" x="670.852273" y="64.074163" style="fill: #9467bd; stroke: #9467bd"/>
     <use xlink:href="#m8e01f957fd" x="681.272143" y="64.074163" style="fill: #9467bd; stroke: #9467bd"/>
     <use xlink:href="#m8e01f957fd" x="691.692013" y="64.074163" style="fill: #9467bd; stroke: #9467bd"/>
     <use xlink:href="#m8e01f957fd" x="702.111883" y="64.074163" style="fill: #9467bd; stroke: #9467bd"/>
     <use xlink:href="#m8e01f957fd" x="712.531753" y="64.074163" style="fill: #9467bd; stroke: #9467bd"/>
     <use xlink:href="#m8e01f957fd" x="722.951623" y="64.074163" style="fill: #9467bd; stroke: #9467bd"/>
     <use xlink:href="#m8e01f957fd" x="733.371494" y="64.074163" style="fill: #9467bd; stroke: #9467bd"/>
     <use xlink:href="#m8e01f957fd" x="743.791364" y="64.074163" style="fill: #9467bd; stroke: #9467bd"/>
     <use xlink:href="#m8e01f957fd" x="754.211234" y="64.074163" style="fill: #9467bd; stroke: #9467bd"/>
     <use xlink:href="#m8e01f957fd" x="764.631104" y="64.074163" style="fill: #9467bd; stroke: #9467bd"/>
     <use xlink:href="#m8e01f957fd" x="775.050974" y="64.074163" style="fill: #9467bd; stroke: #9467bd"/>
     <use xlink:href="#m8e01f957fd" x="785.470844" y="64.074163" style="fill: #9467bd; stroke: #9467bd"/>
     <use xlink:href="#m8e01f957fd" x="795.890714" y="64.074163" style="fill: #9467bd; stroke: #9467bd"/>
     <use xlink:href="#m8e01f957fd" x="806.310584" y="64.074163" style="fill: #9467bd; stroke: #9467bd"/>
     <use xlink:href="#m8e01f957fd" x="816.730455" y="64.074163" style="fill: #9467bd; stroke: #9467bd"/>
    </g>
   </g>
   <g id="line2d_28">
    <path d="M 87.339545 380.847234 
L 97.759416 365.652007 
L 108.179286 354.255587 
L 118.599156 328.93021 
L 129.019026 309.936176 
L 139.438896 304.871101 
L 149.858766 296.007219 
L 160.278636 280.811992 
L 170.698506 236.492581 
L 181.118377 204.835859 
L 191.538247 166.847793 
L 201.958117 142.788684 
L 212.377987 93.404198 
L 243.637597 93.404198 
L 254.057468 93.404198 
L 264.477338 93.404198 
L 274.897208 93.404198 
L 285.317078 93.404198 
L 306.156818 93.404198 
L 316.576688 93.404198 
L 326.996558 93.404198 
L 337.416429 93.404198 
L 347.836299 93.404198 
L 358.256169 93.404198 
L 368.676039 93.404198 
L 379.095909 93.404198 
L 389.515779 93.404198 
L 399.935649 93.404198 
L 410.355519 61.747476 
L 420.77539 61.747476 
L 431.19526 61.747476 
L 441.61513 61.747476 
L 452.035 61.747476 
L 462.45487 61.747476 
L 472.87474 61.747476 
L 483.29461 61.747476 
L 493.714481 61.747476 
L 504.134351 61.747476 
L 514.554221 61.747476 
L 524.974091 61.747476 
L 535.393961 61.747476 
L 545.813831 61.747476 
L 556.233701 61.747476 
L 566.653571 61.747476 
L 577.073442 61.747476 
L 587.493312 61.747476 
L 597.913182 61.747476 
L 608.333052 61.747476 
L 618.752922 61.747476 
L 629.172792 61.747476 
L 639.592662 61.747476 
L 650.012532 61.747476 
L 660.432403 61.747476 
L 670.852273 61.747476 
L 681.272143 61.747476 
L 691.692013 61.747476 
L 702.111883 61.747476 
L 712.531753 61.747476 
L 722.951623 61.747476 
L 733.371494 61.747476 
L 743.791364 61.747476 
L 754.211234 61.747476 
L 764.631104 61.747476 
L 775.050974 61.747476 
L 785.470844 61.747476 
L 795.890714 61.747476 
L 806.310584 61.747476 
L 816.730455 61.747476 
" clip-path="url(#pa73d2978d6)" style="fill: none; stroke: #8c564b; stroke-width: 1.5; stroke-linecap: square"/>
    <defs>
     <path id="maead8ef604" d="M 0 3.5 
C 0.928211 3.5 1.81853 3.131218 2.474874 2.474874 
C 3.131218 1.81853 3.5 0.928211 3.5 0 
C 3.5 -0.928211 3.131218 -1.81853 2.474874 -2.474874 
C 1.81853 -3.131218 0.928211 -3.5 0 -3.5 
C -0.928211 -3.5 -1.81853 -3.131218 -2.474874 -2.474874 
C -3.131218 -1.81853 -3.5 -0.928211 -3.5 0 
C -3.5 0.928211 -3.131218 1.81853 -2.474874 2.474874 
C -1.81853 3.131218 -0.928211 3.5 0 3.5 
z
" style="stroke: #8c564b"/>
    </defs>
    <g clip-path="url(#pa73d2978d6)">
     <use xlink:href="#maead8ef604" x="87.339545" y="380.847234" style="fill: #8c564b; stroke: #8c564b"/>
     <use xlink:href="#maead8ef604" x="97.759416" y="365.652007" style="fill: #8c564b; stroke: #8c564b"/>
     <use xlink:href="#maead8ef604" x="108.179286" y="354.255587" style="fill: #8c564b; stroke: #8c564b"/>
     <use xlink:href="#maead8ef604" x="118.599156" y="328.93021" style="fill: #8c564b; stroke: #8c564b"/>
     <use xlink:href="#maead8ef604" x="129.019026" y="309.936176" style="fill: #8c564b; stroke: #8c564b"/>
     <use xlink:href="#maead8ef604" x="139.438896" y="304.871101" style="fill: #8c564b; stroke: #8c564b"/>
     <use xlink:href="#maead8ef604" x="149.858766" y="296.007219" style="fill: #8c564b; stroke: #8c564b"/>
     <use xlink:href="#maead8ef604" x="160.278636" y="280.811992" style="fill: #8c564b; stroke: #8c564b"/>
     <use xlink:href="#maead8ef604" x="170.698506" y="236.492581" style="fill: #8c564b; stroke: #8c564b"/>
     <use xlink:href="#maead8ef604" x="181.118377" y="204.835859" style="fill: #8c564b; stroke: #8c564b"/>
     <use xlink:href="#maead8ef604" x="191.538247" y="166.847793" style="fill: #8c564b; stroke: #8c564b"/>
     <use xlink:href="#maead8ef604" x="201.958117" y="142.788684" style="fill: #8c564b; stroke: #8c564b"/>
     <use xlink:href="#maead8ef604" x="212.377987" y="93.404198" style="fill: #8c564b; stroke: #8c564b"/>
     <use xlink:href="#maead8ef604" x="243.637597" y="93.404198" style="fill: #8c564b; stroke: #8c564b"/>
     <use xlink:href="#maead8ef604" x="254.057468" y="93.404198" style="fill: #8c564b; stroke: #8c564b"/>
     <use xlink:href="#maead8ef604" x="264.477338" y="93.404198" style="fill: #8c564b; stroke: #8c564b"/>
     <use xlink:href="#maead8ef604" x="274.897208" y="93.404198" style="fill: #8c564b; stroke: #8c564b"/>
     <use xlink:href="#maead8ef604" x="285.317078" y="93.404198" style="fill: #8c564b; stroke: #8c564b"/>
     <use xlink:href="#maead8ef604" x="306.156818" y="93.404198" style="fill: #8c564b; stroke: #8c564b"/>
     <use xlink:href="#maead8ef604" x="316.576688" y="93.404198" style="fill: #8c564b; stroke: #8c564b"/>
     <use xlink:href="#maead8ef604" x="326.996558" y="93.404198" style="fill: #8c564b; stroke: #8c564b"/>
     <use xlink:href="#maead8ef604" x="337.416429" y="93.404198" style="fill: #8c564b; stroke: #8c564b"/>
     <use xlink:href="#maead8ef604" x="347.836299" y="93.404198" style="fill: #8c564b; stroke: #8c564b"/>
     <use xlink:href="#maead8ef604" x="358.256169" y="93.404198" style="fill: #8c564b; stroke: #8c564b"/>
     <use xlink:href="#maead8ef604" x="368.676039" y="93.404198" style="fill: #8c564b; stroke: #8c564b"/>
     <use xlink:href="#maead8ef604" x="379.095909" y="93.404198" style="fill: #8c564b; stroke: #8c564b"/>
     <use xlink:href="#maead8ef604" x="389.515779" y="93.404198" style="fill: #8c564b; stroke: #8c564b"/>
     <use xlink:href="#maead8ef604" x="399.935649" y="93.404198" style="fill: #8c564b; stroke: #8c564b"/>
     <use xlink:href="#maead8ef604" x="410.355519" y="61.747476" style="fill: #8c564b; stroke: #8c564b"/>
     <use xlink:href="#maead8ef604" x="420.77539" y="61.747476" style="fill: #8c564b; stroke: #8c564b"/>
     <use xlink:href="#maead8ef604" x="431.19526" y="61.747476" style="fill: #8c564b; stroke: #8c564b"/>
     <use xlink:href="#maead8ef604" x="441.61513" y="61.747476" style="fill: #8c564b; stroke: #8c564b"/>
     <use xlink:href="#maead8ef604" x="452.035" y="61.747476" style="fill: #8c564b; stroke: #8c564b"/>
     <use xlink:href="#maead8ef604" x="462.45487" y="61.747476" style="fill: #8c564b; stroke: #8c564b"/>
     <use xlink:href="#maead8ef604" x="472.87474" y="61.747476" style="fill: #8c564b; stroke: #8c564b"/>
     <use xlink:href="#maead8ef604" x="483.29461" y="61.747476" style="fill: #8c564b; stroke: #8c564b"/>
     <use xlink:href="#maead8ef604" x="493.714481" y="61.747476" style="fill: #8c564b; stroke: #8c564b"/>
     <use xlink:href="#maead8ef604" x="504.134351" y="61.747476" style="fill: #8c564b; stroke: #8c564b"/>
     <use xlink:href="#maead8ef604" x="514.554221" y="61.747476" style="fill: #8c564b; stroke: #8c564b"/>
     <use xlink:href="#maead8ef604" x="524.974091" y="61.747476" style="fill: #8c564b; stroke: #8c564b"/>
     <use xlink:href="#maead8ef604" x="535.393961" y="61.747476" style="fill: #8c564b; stroke: #8c564b"/>
     <use xlink:href="#maead8ef604" x="545.813831" y="61.747476" style="fill: #8c564b; stroke: #8c564b"/>
     <use xlink:href="#maead8ef604" x="556.233701" y="61.747476" style="fill: #8c564b; stroke: #8c564b"/>
     <use xlink:href="#maead8ef604" x="566.653571" y="61.747476" style="fill: #8c564b; stroke: #8c564b"/>
     <use xlink:href="#maead8ef604" x="577.073442" y="61.747476" style="fill: #8c564b; stroke: #8c564b"/>
     <use xlink:href="#maead8ef604" x="587.493312" y="61.747476" style="fill: #8c564b; stroke: #8c564b"/>
     <use xlink:href="#maead8ef604" x="597.913182" y="61.747476" style="fill: #8c564b; stroke: #8c564b"/>
     <use xlink:href="#maead8ef604" x="608.333052" y="61.747476" style="fill: #8c564b; stroke: #8c564b"/>
     <use xlink:href="#maead8ef604" x="618.752922" y="61.747476" style="fill: #8c564b; stroke: #8c564b"/>
     <use xlink:href="#maead8ef604" x="629.172792" y="61.747476" style="fill: #8c564b; stroke: #8c564b"/>
     <use xlink:href="#maead8ef604" x="639.592662" y="61.747476" style="fill: #8c564b; stroke: #8c564b"/>
     <use xlink:href="#maead8ef604" x="650.012532" y="61.747476" style="fill: #8c564b; stroke: #8c564b"/>
     <use xlink:href="#maead8ef604" x="660.432403" y="61.747476" style="fill: #8c564b; stroke: #8c564b"/>
     <use xlink:href="#maead8ef604" x="670.852273" y="61.747476" style="fill: #8c564b; stroke: #8c564b"/>
     <use xlink:href="#maead8ef604" x="681.272143" y="61.747476" style="fill: #8c564b; stroke: #8c564b"/>
     <use xlink:href="#maead8ef604" x="691.692013" y="61.747476" style="fill: #8c564b; stroke: #8c564b"/>
     <use xlink:href="#maead8ef604" x="702.111883" y="61.747476" style="fill: #8c564b; stroke: #8c564b"/>
     <use xlink:href="#maead8ef604" x="712.531753" y="61.747476" style="fill: #8c564b; stroke: #8c564b"/>
     <use xlink:href="#maead8ef604" x="722.951623" y="61.747476" style="fill: #8c564b; stroke: #8c564b"/>
     <use xlink:href="#maead8ef604" x="733.371494" y="61.747476" style="fill: #8c564b; stroke: #8c564b"/>
     <use xlink:href="#maead8ef604" x="743.791364" y="61.747476" style="fill: #8c564b; stroke: #8c564b"/>
     <use xlink:href="#maead8ef604" x="754.211234" y="61.747476" style="fill: #8c564b; stroke: #8c564b"/>
     <use xlink:href="#maead8ef604" x="764.631104" y="61.747476" style="fill: #8c564b; stroke: #8c564b"/>
     <use xlink:href="#maead8ef604" x="775.050974" y="61.747476" style="fill: #8c564b; stroke: #8c564b"/>
     <use xlink:href="#maead8ef604" x="785.470844" y="61.747476" style="fill: #8c564b; stroke: #8c564b"/>
     <use xlink:href="#maead8ef604" x="795.890714" y="61.747476" style="fill: #8c564b; stroke: #8c564b"/>
     <use xlink:href="#maead8ef604" x="806.310584" y="61.747476" style="fill: #8c564b; stroke: #8c564b"/>
     <use xlink:href="#maead8ef604" x="816.730455" y="61.747476" style="fill: #8c564b; stroke: #8c564b"/>
    </g>
   </g>
   <g id="patch_3">
    <path d="M 50.87 404.12 
L 50.87 26.88 
" style="fill: none; stroke: #000000; stroke-width: 0.8; stroke-linejoin: miter; stroke-linecap: square"/>
   </g>
   <g id="patch_4">
    <path d="M 853.2 404.12 
L 853.2 26.88 
" style="fill: none; stroke: #000000; stroke-width: 0.8; stroke-linejoin: miter; stroke-linecap: square"/>
   </g>
   <g id="patch_5">
    <path d="M 50.87 404.12 
L 853.2 404.12 
" style="fill: none; stroke: #000000; stroke-width: 0.8; stroke-linejoin: miter; stroke-linecap: square"/>
   </g>
   <g id="patch_6">
    <path d="M 50.87 26.88 
L 853.2 26.88 
" style="fill: none; stroke: #000000; stroke-width: 0.8; stroke-linejoin: miter; stroke-linecap: square"/>
   </g>
   <g id="text_13">
    <!-- Standings -->
    <g transform="translate(422.18125 20.88) scale(0.12 -0.12)">
     <defs>
      <path id="DejaVuSans-74" d="M 1172 4494 
L 1172 3500 
L 2356 3500 
L 2356 3053 
L 1172 3053 
L 1172 1153 
Q 1172 725 1289 603 
Q 1406 481 1766 481 
L 2356 481 
L 2356 0 
L 1766 0 
Q 1100 0 847 248 
Q 594 497 594 1153 
L 594 3053 
L 172 3053 
L 172 3500 
L 594 3500 
L 594 4494 
L 1172 4494 
z
" transform="scale(0.015625)"/>
      <path id="DejaVuSans-61" d="M 2194 1759 
Q 1497 1759 1228 1600 
Q 959 1441 959 1056 
Q 959 750 1161 570 
Q 1363 391 1709 391 
Q 2188 391 2477 730 
Q 2766 1069 2766 1631 
L 2766 1759 
L 2194 1759 
z
M 3341 1997 
L 3341 0 
L 2766 0 
L 2766 531 
Q 2569 213 2275 61 
Q 1981 -91 1556 -91 
Q 1019 -91 701 211 
Q 384 513 384 1019 
Q 384 1609 779 1909 
Q 1175 2209 1959 2209 
L 2766 2209 
L 2766 2266 
Q 2766 2663 2505 2880 
Q 2244 3097 1772 3097 
Q 1472 3097 1187 3025 
Q 903 2953 641 2809 
L 641 3341 
Q 956 3463 1253 3523 
Q 1550 3584 1831 3584 
Q 2591 3584 2966 3190 
Q 3341 2797 3341 1997 
z
" transform="scale(0.015625)"/>
      <path id="DejaVuSans-6e" d="M 3513 2113 
L 3513 0 
L 2938 0 
L 2938 2094 
Q 2938 2591 2744 2837 
Q 2550 3084 2163 3084 
Q 1697 3084 1428 2787 
Q 1159 2491 1159 1978 
L 1159 0 
L 581 0 
L 581 3500 
L 1159 3500 
L 1159 2956 
Q 1366 3272 1645 3428 
Q 1925 3584 2291 3584 
Q 2894 3584 3203 3211 
Q 3513 2838 3513 2113 
z
" transform="scale(0.015625)"/>
      <path id="DejaVuSans-64" d="M 2906 2969 
L 2906 4863 
L 3481 4863 
L 3481 0 
L 2906 0 
L 2906 525 
Q 2725 213 2448 61 
Q 2172 -91 1784 -91 
Q 1150 -91 751 415 
Q 353 922 353 1747 
Q 353 2572 751 3078 
Q 1150 3584 1784 3584 
Q 2172 3584 2448 3432 
Q 2725 3281 2906 2969 
z
M 947 1747 
Q 947 1113 1208 752 
Q 1469 391 1925 391 
Q 2381 391 2643 752 
Q 2906 1113 2906 1747 
Q 2906 2381 2643 2742 
Q 2381 3103 1925 3103 
Q 1469 3103 1208 2742 
Q 947 2381 947 1747 
z
" transform="scale(0.015625)"/>
      <path id="DejaVuSans-69" d="M 603 3500 
L 1178 3500 
L 1178 0 
L 603 0 
L 603 3500 
z
M 603 4863 
L 1178 4863 
L 1178 4134 
L 603 4134 
L 603 4863 
z
" transform="scale(0.015625)"/>
      <path id="DejaVuSans-67" d="M 2906 1791 
Q 2906 2416 2648 2759 
Q 2391 3103 1925 3103 
Q 1463 3103 1205 2759 
Q 947 2416 947 1791 
Q 947 1169 1205 825 
Q 1463 481 1925 481 
Q 2391 481 2648 825 
Q 2906 1169 2906 1791 
z
M 3481 434 
Q 3481 -459 3084 -895 
Q 2688 -1331 1869 -1331 
Q 1566 -1331 1297 -1286 
Q 1028 -1241 775 -1147 
L 775 -588 
Q 1028 -725 1275 -790 
Q 1522 -856 1778 -856 
Q 2344 -856 2625 -561 
Q 2906 -266 2906 331 
L 2906 616 
Q 2728 306 2450 153 
Q 2172 0 1784 0 
Q 1141 0 747 490 
Q 353 981 353 1791 
Q 353 2603 747 3093 
Q 1141 3584 1784 3584 
Q 2172 3584 2450 3431 
Q 2728 3278 2906 2969 
L 2906 3500 
L 3481 3500 
L 3481 434 
z
" transform="scale(0.015625)"/>
      <path id="DejaVuSans-73" d="M 2834 3397 
L 2834 2853 
Q 2591 2978 2328 3040 
Q 2066 3103 1784 3103 
Q 1356 3103 1142 2972 
Q 928 2841 928 2578 
Q 928 2378 1081 2264 
Q 1234 2150 1697 2047 
L 1894 2003 
Q 2506 1872 2764 1633 
Q 3022 1394 3022 966 
Q 3022 478 2636 193 
Q 2250 -91 1575 -91 
Q 1294 -91 989 -36 
Q 684 19 347 128 
L 347 722 
Q 666 556 975 473 
Q 1284 391 1588 391 
Q 1994 391 2212 530 
Q 2431 669 2431 922 
Q 2431 1156 2273 1281 
Q 2116 1406 1581 1522 
L 1381 1569 
Q 847 1681 609 1914 
Q 372 2147 372 2553 
Q 372 3047 722 3315 
Q 1072 3584 1716 3584 
Q 2034 3584 2315 3537 
Q 2597 3491 2834 3397 
z
" transform="scale(0.015625)"/>
     </defs>
     <use xlink:href="#DejaVuSans-53"/>
     <use xlink:href="#DejaVuSans-74" x="63.476562"/>
     <use xlink:href="#DejaVuSans-61" x="102.685547"/>
     <use xlink:href="#DejaVuSans-6e" x="163.964844"/>
     <use xlink:href="#DejaVuSans-64" x="227.34375"/>
     <use xlink:href="#DejaVuSans-69" x="290.820312"/>
     <use xlink:href="#DejaVuSans-6e" x="318.603516"/>
     <use xlink:href="#DejaVuSans-67" x="381.982422"/>
     <use xlink:href="#DejaVuSans-73" x="445.458984"/>
    </g>
   </g>
   <g id="legend_1">
    <g id="patch_7">
     <path d="M 57.87 122.94875 
L 143.37 122.94875 
Q 145.37 122.94875 145.37 120.94875 
L 145.37 33.88 
Q 145.37 31.88 143.37 31.88 
L 57.87 31.88 
Q 55.87 31.88 55.87 33.88 
L 55.87 120.94875 
Q 55.87 122.94875 57.87 122.94875 
z
" style="fill: #ffffff; opacity: 0.8; stroke: #cccccc; stroke-linejoin: miter"/>
    </g>
    <g id="line2d_29">
     <path d="M 59.87 39.978438 
L 69.87 39.978438 
L 79.87 39.978438 
" style="fill: none; stroke: #1f77b4; stroke-width: 1.5; stroke-linecap: square"/>
     <g>
      <use xlink:href="#m7897be20cd" x="69.87" y="39.978438" style="fill: #1f77b4; stroke: #1f77b4"/>
     </g>
    </g>
    <g id="text_14">
     <!-- Matias BN -->
     <g transform="translate(87.87 43.478438) scale(0.1 -0.1)">
      <defs>
       <path id="DejaVuSans-4d" d="M 628 4666 
L 1569 4666 
L 2759 1491 
L 3956 4666 
L 4897 4666 
L 4897 0 
L 4281 0 
L 4281 4097 
L 3078 897 
L 2444 897 
L 1241 4097 
L 1241 0 
L 628 0 
L 628 4666 
z
" transform="scale(0.015625)"/>
       <path id="DejaVuSans-20" transform="scale(0.015625)"/>
       <path id="DejaVuSans-42" d="M 1259 2228 
L 1259 519 
L 2272 519 
Q 2781 519 3026 730 
Q 3272 941 3272 1375 
Q 3272 1813 3026 2020 
Q 2781 2228 2272 2228 
L 1259 2228 
z
M 1259 4147 
L 1259 2741 
L 2194 2741 
Q 2656 2741 2882 2914 
Q 3109 3088 3109 3444 
Q 3109 3797 2882 3972 
Q 2656 4147 2194 4147 
L 1259 4147 
z
M 628 4666 
L 2241 4666 
Q 2963 4666 3353 4366 
Q 3744 4066 3744 3513 
Q 3744 3084 3544 2831 
Q 3344 2578 2956 2516 
Q 3422 2416 3680 2098 
Q 3938 1781 3938 1306 
Q 3938 681 3513 340 
Q 3088 0 2303 0 
L 628 0 
L 628 4666 
z
" transform="scale(0.015625)"/>
       <path id="DejaVuSans-4e" d="M 628 4666 
L 1478 4666 
L 3547 763 
L 3547 4666 
L 4159 4666 
L 4159 0 
L 3309 0 
L 1241 3903 
L 1241 0 
L 628 0 
L 628 4666 
z
" transform="scale(0.015625)"/>
      </defs>
      <use xlink:href="#DejaVuSans-4d"/>
      <use xlink:href="#DejaVuSans-61" x="86.279297"/>
      <use xlink:href="#DejaVuSans-74" x="147.558594"/>
      <use xlink:href="#DejaVuSans-69" x="186.767578"/>
      <use xlink:href="#DejaVuSans-61" x="214.550781"/>
      <use xlink:href="#DejaVuSans-73" x="275.830078"/>
      <use xlink:href="#DejaVuSans-20" x="327.929688"/>
      <use xlink:href="#DejaVuSans-42" x="359.716797"/>
      <use xlink:href="#DejaVuSans-4e" x="428.320312"/>
     </g>
    </g>
    <g id="line2d_30">
     <path d="M 59.87 54.656563 
L 69.87 54.656563 
L 79.87 54.656563 
" style="fill: none; stroke: #ff7f0e; stroke-width: 1.5; stroke-linecap: square"/>
     <g>
      <use xlink:href="#maf9aea93a8" x="69.87" y="54.656563" style="fill: #ff7f0e; stroke: #ff7f0e"/>
     </g>
    </g>
    <g id="text_15">
     <!-- Mattias Ra -->
     <g transform="translate(87.87 58.156563) scale(0.1 -0.1)">
      <defs>
       <path id="DejaVuSans-52" d="M 2841 2188 
Q 3044 2119 3236 1894 
Q 3428 1669 3622 1275 
L 4263 0 
L 3584 0 
L 2988 1197 
Q 2756 1666 2539 1819 
Q 2322 1972 1947 1972 
L 1259 1972 
L 1259 0 
L 628 0 
L 628 4666 
L 2053 4666 
Q 2853 4666 3247 4331 
Q 3641 3997 3641 3322 
Q 3641 2881 3436 2590 
Q 3231 2300 2841 2188 
z
M 1259 4147 
L 1259 2491 
L 2053 2491 
Q 2509 2491 2742 2702 
Q 2975 2913 2975 3322 
Q 2975 3731 2742 3939 
Q 2509 4147 2053 4147 
L 1259 4147 
z
" transform="scale(0.015625)"/>
      </defs>
      <use xlink:href="#DejaVuSans-4d"/>
      <use xlink:href="#DejaVuSans-61" x="86.279297"/>
      <use xlink:href="#DejaVuSans-74" x="147.558594"/>
      <use xlink:href="#DejaVuSans-74" x="186.767578"/>
      <use xlink:href="#DejaVuSans-69" x="225.976562"/>
      <use xlink:href="#DejaVuSans-61" x="253.759766"/>
      <use xlink:href="#DejaVuSans-73" x="315.039062"/>
      <use xlink:href="#DejaVuSans-20" x="367.138672"/>
      <use xlink:href="#DejaVuSans-52" x="398.925781"/>
      <use xlink:href="#DejaVuSans-61" x="466.158203"/>
     </g>
    </g>
    <g id="line2d_31">
     <path d="M 59.87 69.334688 
L 69.87 69.334688 
L 79.87 69.334688 
" style="fill: none; stroke: #2ca02c; stroke-width: 1.5; stroke-linecap: square"/>
     <g>
      <use xlink:href="#mf09f8fb097" x="69.87" y="69.334688" style="fill: #2ca02c; stroke: #2ca02c"/>
     </g>
    </g>
    <g id="text_16">
     <!-- Simon Bo -->
     <g transform="translate(87.87 72.834688) scale(0.1 -0.1)">
      <defs>
       <path id="DejaVuSans-6d" d="M 3328 2828 
Q 3544 3216 3844 3400 
Q 4144 3584 4550 3584 
Q 5097 3584 5394 3201 
Q 5691 2819 5691 2113 
L 5691 0 
L 5113 0 
L 5113 2094 
Q 5113 2597 4934 2840 
Q 4756 3084 4391 3084 
Q 3944 3084 3684 2787 
Q 3425 2491 3425 1978 
L 3425 0 
L 2847 0 
L 2847 2094 
Q 2847 2600 2669 2842 
Q 2491 3084 2119 3084 
Q 1678 3084 1418 2786 
Q 1159 2488 1159 1978 
L 1159 0 
L 581 0 
L 581 3500 
L 1159 3500 
L 1159 2956 
Q 1356 3278 1631 3431 
Q 1906 3584 2284 3584 
Q 2666 3584 2933 3390 
Q 3200 3197 3328 2828 
z
" transform="scale(0.015625)"/>
      </defs>
      <use xlink:href="#DejaVuSans-53"/>
      <use xlink:href="#DejaVuSans-69" x="63.476562"/>
      <use xlink:href="#DejaVuSans-6d" x="91.259766"/>
      <use xlink:href="#DejaVuSans-6f" x="188.671875"/>
      <use xlink:href="#DejaVuSans-6e" x="249.853516"/>
      <use xlink:href="#DejaVuSans-20" x="313.232422"/>
      <use xlink:href="#DejaVuSans-42" x="345.019531"/>
      <use xlink:href="#DejaVuSans-6f" x="413.623047"/>
     </g>
    </g>
    <g id="line2d_32">
     <path d="M 59.87 84.012813 
L 69.87 84.012813 
L 79.87 84.012813 
" style="fill: none; stroke: #d62728; stroke-width: 1.5; stroke-linecap: square"/>
     <g>
      <use xlink:href="#m0455b9b4e7" x="69.87" y="84.012813" style="fill: #d62728; stroke: #d62728"/>
     </g>
    </g>
    <g id="text_17">
     <!-- Kristian Se -->
     <g transform="translate(87.87 87.512813) scale(0.1 -0.1)">
      <defs>
       <path id="DejaVuSans-4b" d="M 628 4666 
L 1259 4666 
L 1259 2694 
L 3353 4666 
L 4166 4666 
L 1850 2491 
L 4331 0 
L 3500 0 
L 1259 2247 
L 1259 0 
L 628 0 
L 628 4666 
z
" transform="scale(0.015625)"/>
      </defs>
      <use xlink:href="#DejaVuSans-4b"/>
      <use xlink:href="#DejaVuSans-72" x="65.576172"/>
      <use xlink:href="#DejaVuSans-69" x="106.689453"/>
      <use xlink:href="#DejaVuSans-73" x="134.472656"/>
      <use xlink:href="#DejaVuSans-74" x="186.572266"/>
      <use xlink:href="#DejaVuSans-69" x="225.78125"/>
      <use xlink:href="#DejaVuSans-61" x="253.564453"/>
      <use xlink:href="#DejaVuSans-6e" x="314.84375"/>
      <use xlink:href="#DejaVuSans-20" x="378.222656"/>
      <use xlink:href="#DejaVuSans-53" x="410.009766"/>
      <use xlink:href="#DejaVuSans-65" x="473.486328"/>
     </g>
    </g>
    <g id="line2d_33">
     <path d="M 59.87 98.690938 
L 69.87 98.690938 
L 79.87 98.690938 
" style="fill: none; stroke: #9467bd; stroke-width: 1.5; stroke-linecap: square"/>
     <g>
      <use xlink:href="#m8e01f957fd" x="69.87" y="98.690938" style="fill: #9467bd; stroke: #9467bd"/>
     </g>
    </g>
    <g id="text_18">
     <!-- Jesper M -->
     <g transform="translate(87.87 102.190938) scale(0.1 -0.1)">
      <defs>
       <path id="DejaVuSans-4a" d="M 628 4666 
L 1259 4666 
L 1259 325 
Q 1259 -519 939 -900 
Q 619 -1281 -91 -1281 
L -331 -1281 
L -331 -750 
L -134 -750 
Q 284 -750 456 -515 
Q 628 -281 628 325 
L 628 4666 
z
" transform="scale(0.015625)"/>
       <path id="DejaVuSans-70" d="M 1159 525 
L 1159 -1331 
L 581 -1331 
L 581 3500 
L 1159 3500 
L 1159 2969 
Q 1341 3281 1617 3432 
Q 1894 3584 2278 3584 
Q 2916 3584 3314 3078 
Q 3713 2572 3713 1747 
Q 3713 922 3314 415 
Q 2916 -91 2278 -91 
Q 1894 -91 1617 61 
Q 1341 213 1159 525 
z
M 3116 1747 
Q 3116 2381 2855 2742 
Q 2594 3103 2138 3103 
Q 1681 3103 1420 2742 
Q 1159 2381 1159 1747 
Q 1159 1113 1420 752 
Q 1681 391 2138 391 
Q 2594 391 2855 752 
Q 3116 1113 3116 1747 
z
" transform="scale(0.015625)"/>
       <path id="DejaVuSans-f8" d="M 2828 2503 
L 1306 653 
Q 1434 522 1595 459 
Q 1756 397 1959 397 
Q 2419 397 2687 759 
Q 2956 1122 2956 1747 
Q 2956 1994 2925 2176 
Q 2894 2359 2828 2503 
z
M 2606 2841 
Q 2475 2969 2314 3033 
Q 2153 3097 1959 3097 
Q 1488 3097 1223 2730 
Q 959 2363 959 1703 
Q 959 1478 989 1306 
Q 1019 1134 1081 991 
L 2606 2841 
z
M 691 519 
Q 522 759 437 1067 
Q 353 1375 353 1747 
Q 353 2609 779 3096 
Q 1206 3584 1959 3584 
Q 2250 3584 2498 3504 
Q 2747 3425 2956 3263 
L 3391 3788 
L 3688 3541 
L 3231 2981 
Q 3397 2741 3481 2431 
Q 3566 2122 3566 1747 
Q 3566 888 3137 398 
Q 2709 -91 1959 -91 
Q 1659 -91 1407 -9 
Q 1156 72 959 231 
L 525 -294 
L 225 -50 
L 691 519 
z
" transform="scale(0.015625)"/>
      </defs>
      <use xlink:href="#DejaVuSans-4a"/>
      <use xlink:href="#DejaVuSans-65" x="29.492188"/>
      <use xlink:href="#DejaVuSans-73" x="91.015625"/>
      <use xlink:href="#DejaVuSans-70" x="143.115234"/>
      <use xlink:href="#DejaVuSans-65" x="206.591797"/>
      <use xlink:href="#DejaVuSans-72" x="268.115234"/>
      <use xlink:href="#DejaVuSans-20" x="309.228516"/>
      <use xlink:href="#DejaVuSans-4d" x="341.015625"/>
      <use xlink:href="#DejaVuSans-f8" x="427.294922"/>
     </g>
    </g>
    <g id="line2d_34">
     <path d="M 59.87 113.369063 
L 69.87 113.369063 
L 79.87 113.369063 
" style="fill: none; stroke: #8c564b; stroke-width: 1.5; stroke-linecap: square"/>
     <g>
      <use xlink:href="#maead8ef604" x="69.87" y="113.369063" style="fill: #8c564b; stroke: #8c564b"/>
     </g>
    </g>
    <g id="text_19">
     <!-- Ayman Ka -->
     <g transform="translate(87.87 116.869063) scale(0.1 -0.1)">
      <defs>
       <path id="DejaVuSans-41" d="M 2188 4044 
L 1331 1722 
L 3047 1722 
L 2188 4044 
z
M 1831 4666 
L 2547 4666 
L 4325 0 
L 3669 0 
L 3244 1197 
L 1141 1197 
L 716 0 
L 50 0 
L 1831 4666 
z
" transform="scale(0.015625)"/>
       <path id="DejaVuSans-79" d="M 2059 -325 
Q 1816 -950 1584 -1140 
Q 1353 -1331 966 -1331 
L 506 -1331 
L 506 -850 
L 844 -850 
Q 1081 -850 1212 -737 
Q 1344 -625 1503 -206 
L 1606 56 
L 191 3500 
L 800 3500 
L 1894 763 
L 2988 3500 
L 3597 3500 
L 2059 -325 
z
" transform="scale(0.015625)"/>
      </defs>
      <use xlink:href="#DejaVuSans-41"/>
      <use xlink:href="#DejaVuSans-79" x="61.658203"/>
      <use xlink:href="#DejaVuSans-6d" x="120.837891"/>
      <use xlink:href="#DejaVuSans-61" x="218.25"/>
      <use xlink:href="#DejaVuSans-6e" x="279.529297"/>
      <use xlink:href="#DejaVuSans-20" x="342.908203"/>
      <use xlink:href="#DejaVuSans-4b" x="374.695312"/>
      <use xlink:href="#DejaVuSans-61" x="438.521484"/>
     </g>
    </g>
   </g>
  </g>
 </g>
 <defs>
  <clipPath id="pa73d2978d6">
   <rect x="50.87" y="26.88" width="802.33" height="377.24"/>
  </clipPath>
 </defs>
</svg>
