<?xml version="1.0" encoding="utf-8" standalone="no"?>
<!DOCTYPE svg PUBLIC "-//W3C//DTD SVG 1.1//EN"
  "http://www.w3.org/Graphics/SVG/1.1/DTD/svg11.dtd">
<svg xmlns:xlink="http://www.w3.org/1999/xlink" width="239.21625pt" height="378.626925pt" viewBox="0 0 239.21625 378.626925" xmlns="http://www.w3.org/2000/svg" version="1.1">
 <metadata>
  <rdf:RDF xmlns:dc="http://purl.org/dc/elements/1.1/" xmlns:cc="http://creativecommons.org/ns#" xmlns:rdf="http://www.w3.org/1999/02/22-rdf-syntax-ns#">
   <cc:Work>
    <dc:type rdf:resource="http://purl.org/dc/dcmitype/StillImage"/>
    <dc:date>2024-09-04T18:34:40.116096</dc:date>
    <dc:format>image/svg+xml</dc:format>
    <dc:creator>
     <cc:Agent>
      <dc:title>Matplotlib v3.9.2, https://matplotlib.org/</dc:title>
     </cc:Agent>
    </dc:creator>
   </cc:Work>
  </rdf:RDF>
 </metadata>
 <defs>
  <style type="text/css">*{stroke-linejoin: round; stroke-linecap: butt}</style>
 </defs>
 <g id="figure_1">
  <g id="patch_1">
   <path d="M 0 378.626925 
L 239.21625 378.626925 
L 239.21625 0 
L 0 0 
z
" style="fill: #ffffff"/>
  </g>
  <g id="axes_1">
   <g id="table_1">
    <g id="patch_2">
     <path d="M 120.41625 35.426925 
L 232.01625 35.426925 
L 232.01625 23.426925 
L 120.41625 23.426925 
z
" style="fill: #1e90ff; stroke: #000000; stroke-linejoin: miter"/>
    </g>
    <g id="text_1">
     <!-- Points -->
     <g transform="translate(158.477188 32.1863) scale(0.1 -0.1)">
      <defs>
       <path id="DejaVuSans-Bold-50" d="M 588 4666 
L 2584 4666 
Q 3475 4666 3951 4270 
Q 4428 3875 4428 3144 
Q 4428 2409 3951 2014 
Q 3475 1619 2584 1619 
L 1791 1619 
L 1791 0 
L 588 0 
L 588 4666 
z
M 1791 3794 
L 1791 2491 
L 2456 2491 
Q 2806 2491 2997 2661 
Q 3188 2831 3188 3144 
Q 3188 3456 2997 3625 
Q 2806 3794 2456 3794 
L 1791 3794 
z
" transform="scale(0.015625)"/>
       <path id="DejaVuSans-Bold-6f" d="M 2203 2784 
Q 1831 2784 1636 2517 
Q 1441 2250 1441 1747 
Q 1441 1244 1636 976 
Q 1831 709 2203 709 
Q 2569 709 2762 976 
Q 2956 1244 2956 1747 
Q 2956 2250 2762 2517 
Q 2569 2784 2203 2784 
z
M 2203 3584 
Q 3106 3584 3614 3096 
Q 4122 2609 4122 1747 
Q 4122 884 3614 396 
Q 3106 -91 2203 -91 
Q 1297 -91 786 396 
Q 275 884 275 1747 
Q 275 2609 786 3096 
Q 1297 3584 2203 3584 
z
" transform="scale(0.015625)"/>
       <path id="DejaVuSans-Bold-69" d="M 538 3500 
L 1656 3500 
L 1656 0 
L 538 0 
L 538 3500 
z
M 538 4863 
L 1656 4863 
L 1656 3950 
L 538 3950 
L 538 4863 
z
" transform="scale(0.015625)"/>
       <path id="DejaVuSans-Bold-6e" d="M 4056 2131 
L 4056 0 
L 2931 0 
L 2931 347 
L 2931 1631 
Q 2931 2084 2911 2256 
Q 2891 2428 2841 2509 
Q 2775 2619 2662 2680 
Q 2550 2741 2406 2741 
Q 2056 2741 1856 2470 
Q 1656 2200 1656 1722 
L 1656 0 
L 538 0 
L 538 3500 
L 1656 3500 
L 1656 2988 
Q 1909 3294 2193 3439 
Q 2478 3584 2822 3584 
Q 3428 3584 3742 3212 
Q 4056 2841 4056 2131 
z
" transform="scale(0.015625)"/>
       <path id="DejaVuSans-Bold-74" d="M 1759 4494 
L 1759 3500 
L 2913 3500 
L 2913 2700 
L 1759 2700 
L 1759 1216 
Q 1759 972 1856 886 
Q 1953 800 2241 800 
L 2816 800 
L 2816 0 
L 1856 0 
Q 1194 0 917 276 
Q 641 553 641 1216 
L 641 2700 
L 84 2700 
L 84 3500 
L 641 3500 
L 641 4494 
L 1759 4494 
z
" transform="scale(0.015625)"/>
       <path id="DejaVuSans-Bold-73" d="M 3272 3391 
L 3272 2541 
Q 2913 2691 2578 2766 
Q 2244 2841 1947 2841 
Q 1628 2841 1473 2761 
Q 1319 2681 1319 2516 
Q 1319 2381 1436 2309 
Q 1553 2238 1856 2203 
L 2053 2175 
Q 2913 2066 3209 1816 
Q 3506 1566 3506 1031 
Q 3506 472 3093 190 
Q 2681 -91 1863 -91 
Q 1516 -91 1145 -36 
Q 775 19 384 128 
L 384 978 
Q 719 816 1070 734 
Q 1422 653 1784 653 
Q 2113 653 2278 743 
Q 2444 834 2444 1013 
Q 2444 1163 2330 1236 
Q 2216 1309 1875 1350 
L 1678 1375 
Q 931 1469 631 1722 
Q 331 1975 331 2491 
Q 331 3047 712 3315 
Q 1094 3584 1881 3584 
Q 2191 3584 2531 3537 
Q 2872 3491 3272 3391 
z
" transform="scale(0.015625)"/>
      </defs>
      <use xlink:href="#DejaVuSans-Bold-50"/>
      <use xlink:href="#DejaVuSans-Bold-6f" x="73.291016"/>
      <use xlink:href="#DejaVuSans-Bold-69" x="141.992188"/>
      <use xlink:href="#DejaVuSans-Bold-6e" x="176.269531"/>
      <use xlink:href="#DejaVuSans-Bold-74" x="247.460938"/>
      <use xlink:href="#DejaVuSans-Bold-73" x="295.263672"/>
     </g>
    </g>
    <g id="patch_3">
     <path d="M 7.2 47.426925 
L 120.41625 47.426925 
L 120.41625 35.426925 
L 7.2 35.426925 
z
" style="fill: #1e90ff; stroke: #000000; stroke-linejoin: miter"/>
    </g>
    <g id="text_2">
     <!-- Jeanett Ja -->
     <g transform="translate(18.521625 44.1863) scale(0.1 -0.1)">
      <defs>
       <path id="DejaVuSans-Bold-4a" d="M 588 4666 
L 1791 4666 
L 1791 453 
Q 1791 -419 1317 -850 
Q 844 -1281 -116 -1281 
L -359 -1281 
L -359 -372 
L -172 -372 
Q 203 -372 395 -162 
Q 588 47 588 453 
L 588 4666 
z
" transform="scale(0.015625)"/>
       <path id="DejaVuSans-Bold-65" d="M 4031 1759 
L 4031 1441 
L 1416 1441 
Q 1456 1047 1700 850 
Q 1944 653 2381 653 
Q 2734 653 3104 758 
Q 3475 863 3866 1075 
L 3866 213 
Q 3469 63 3072 -14 
Q 2675 -91 2278 -91 
Q 1328 -91 801 392 
Q 275 875 275 1747 
Q 275 2603 792 3093 
Q 1309 3584 2216 3584 
Q 3041 3584 3536 3087 
Q 4031 2591 4031 1759 
z
M 2881 2131 
Q 2881 2450 2695 2645 
Q 2509 2841 2209 2841 
Q 1884 2841 1681 2658 
Q 1478 2475 1428 2131 
L 2881 2131 
z
" transform="scale(0.015625)"/>
       <path id="DejaVuSans-Bold-61" d="M 2106 1575 
Q 1756 1575 1579 1456 
Q 1403 1338 1403 1106 
Q 1403 894 1545 773 
Q 1688 653 1941 653 
Q 2256 653 2472 879 
Q 2688 1106 2688 1447 
L 2688 1575 
L 2106 1575 
z
M 3816 1997 
L 3816 0 
L 2688 0 
L 2688 519 
Q 2463 200 2181 54 
Q 1900 -91 1497 -91 
Q 953 -91 614 226 
Q 275 544 275 1050 
Q 275 1666 698 1953 
Q 1122 2241 2028 2241 
L 2688 2241 
L 2688 2328 
Q 2688 2594 2478 2717 
Q 2269 2841 1825 2841 
Q 1466 2841 1156 2769 
Q 847 2697 581 2553 
L 581 3406 
Q 941 3494 1303 3539 
Q 1666 3584 2028 3584 
Q 2975 3584 3395 3211 
Q 3816 2838 3816 1997 
z
" transform="scale(0.015625)"/>
       <path id="DejaVuSans-Bold-20" transform="scale(0.015625)"/>
      </defs>
      <use xlink:href="#DejaVuSans-Bold-4a"/>
      <use xlink:href="#DejaVuSans-Bold-65" x="37.207031"/>
      <use xlink:href="#DejaVuSans-Bold-61" x="105.029297"/>
      <use xlink:href="#DejaVuSans-Bold-6e" x="172.509766"/>
      <use xlink:href="#DejaVuSans-Bold-65" x="243.701172"/>
      <use xlink:href="#DejaVuSans-Bold-74" x="311.523438"/>
      <use xlink:href="#DejaVuSans-Bold-74" x="359.326172"/>
      <use xlink:href="#DejaVuSans-Bold-20" x="407.128906"/>
      <use xlink:href="#DejaVuSans-Bold-4a" x="441.943359"/>
      <use xlink:href="#DejaVuSans-Bold-61" x="479.150391"/>
     </g>
    </g>
    <g id="patch_4">
     <path d="M 120.41625 47.426925 
L 232.01625 47.426925 
L 232.01625 35.426925 
L 120.41625 35.426925 
z
" style="fill: #ffffff; stroke: #000000; stroke-linejoin: miter"/>
    </g>
    <g id="text_3">
     <!-- 288.0 -->
     <g transform="translate(161.902187 44.1863) scale(0.1 -0.1)">
      <defs>
       <path id="DejaVuSans-32" d="M 1228 531 
L 3431 531 
L 3431 0 
L 469 0 
L 469 531 
Q 828 903 1448 1529 
Q 2069 2156 2228 2338 
Q 2531 2678 2651 2914 
Q 2772 3150 2772 3378 
Q 2772 3750 2511 3984 
Q 2250 4219 1831 4219 
Q 1534 4219 1204 4116 
Q 875 4013 500 3803 
L 500 4441 
Q 881 4594 1212 4672 
Q 1544 4750 1819 4750 
Q 2544 4750 2975 4387 
Q 3406 4025 3406 3419 
Q 3406 3131 3298 2873 
Q 3191 2616 2906 2266 
Q 2828 2175 2409 1742 
Q 1991 1309 1228 531 
z
" transform="scale(0.015625)"/>
       <path id="DejaVuSans-38" d="M 2034 2216 
Q 1584 2216 1326 1975 
Q 1069 1734 1069 1313 
Q 1069 891 1326 650 
Q 1584 409 2034 409 
Q 2484 409 2743 651 
Q 3003 894 3003 1313 
Q 3003 1734 2745 1975 
Q 2488 2216 2034 2216 
z
M 1403 2484 
Q 997 2584 770 2862 
Q 544 3141 544 3541 
Q 544 4100 942 4425 
Q 1341 4750 2034 4750 
Q 2731 4750 3128 4425 
Q 3525 4100 3525 3541 
Q 3525 3141 3298 2862 
Q 3072 2584 2669 2484 
Q 3125 2378 3379 2068 
Q 3634 1759 3634 1313 
Q 3634 634 3220 271 
Q 2806 -91 2034 -91 
Q 1263 -91 848 271 
Q 434 634 434 1313 
Q 434 1759 690 2068 
Q 947 2378 1403 2484 
z
M 1172 3481 
Q 1172 3119 1398 2916 
Q 1625 2713 2034 2713 
Q 2441 2713 2670 2916 
Q 2900 3119 2900 3481 
Q 2900 3844 2670 4047 
Q 2441 4250 2034 4250 
Q 1625 4250 1398 4047 
Q 1172 3844 1172 3481 
z
" transform="scale(0.015625)"/>
       <path id="DejaVuSans-2e" d="M 684 794 
L 1344 794 
L 1344 0 
L 684 0 
L 684 794 
z
" transform="scale(0.015625)"/>
       <path id="DejaVuSans-30" d="M 2034 4250 
Q 1547 4250 1301 3770 
Q 1056 3291 1056 2328 
Q 1056 1369 1301 889 
Q 1547 409 2034 409 
Q 2525 409 2770 889 
Q 3016 1369 3016 2328 
Q 3016 3291 2770 3770 
Q 2525 4250 2034 4250 
z
M 2034 4750 
Q 2819 4750 3233 4129 
Q 3647 3509 3647 2328 
Q 3647 1150 3233 529 
Q 2819 -91 2034 -91 
Q 1250 -91 836 529 
Q 422 1150 422 2328 
Q 422 3509 836 4129 
Q 1250 4750 2034 4750 
z
" transform="scale(0.015625)"/>
      </defs>
      <use xlink:href="#DejaVuSans-32"/>
      <use xlink:href="#DejaVuSans-38" x="63.623047"/>
      <use xlink:href="#DejaVuSans-38" x="127.246094"/>
      <use xlink:href="#DejaVuSans-2e" x="190.869141"/>
      <use xlink:href="#DejaVuSans-30" x="222.65625"/>
     </g>
    </g>
    <g id="patch_5">
     <path d="M 7.2 59.426925 
L 120.41625 59.426925 
L 120.41625 47.426925 
L 7.2 47.426925 
z
" style="fill: #1e90ff; stroke: #000000; stroke-linejoin: miter"/>
    </g>
    <g id="text_4">
     <!-- Kseniia Sv -->
     <g transform="translate(18.521625 56.1863) scale(0.1 -0.1)">
      <defs>
       <path id="DejaVuSans-Bold-4b" d="M 588 4666 
L 1791 4666 
L 1791 2963 
L 3525 4666 
L 4922 4666 
L 2675 2456 
L 5153 0 
L 3647 0 
L 1791 1838 
L 1791 0 
L 588 0 
L 588 4666 
z
" transform="scale(0.015625)"/>
       <path id="DejaVuSans-Bold-53" d="M 3834 4519 
L 3834 3531 
Q 3450 3703 3084 3790 
Q 2719 3878 2394 3878 
Q 1963 3878 1756 3759 
Q 1550 3641 1550 3391 
Q 1550 3203 1689 3098 
Q 1828 2994 2194 2919 
L 2706 2816 
Q 3484 2659 3812 2340 
Q 4141 2022 4141 1434 
Q 4141 663 3683 286 
Q 3225 -91 2284 -91 
Q 1841 -91 1394 -6 
Q 947 78 500 244 
L 500 1259 
Q 947 1022 1364 901 
Q 1781 781 2169 781 
Q 2563 781 2772 912 
Q 2981 1044 2981 1288 
Q 2981 1506 2839 1625 
Q 2697 1744 2272 1838 
L 1806 1941 
Q 1106 2091 782 2419 
Q 459 2747 459 3303 
Q 459 4000 909 4375 
Q 1359 4750 2203 4750 
Q 2588 4750 2994 4692 
Q 3400 4634 3834 4519 
z
" transform="scale(0.015625)"/>
       <path id="DejaVuSans-Bold-76" d="M 97 3500 
L 1216 3500 
L 2088 1081 
L 2956 3500 
L 4078 3500 
L 2700 0 
L 1472 0 
L 97 3500 
z
" transform="scale(0.015625)"/>
      </defs>
      <use xlink:href="#DejaVuSans-Bold-4b"/>
      <use xlink:href="#DejaVuSans-Bold-73" x="77.490234"/>
      <use xlink:href="#DejaVuSans-Bold-65" x="137.011719"/>
      <use xlink:href="#DejaVuSans-Bold-6e" x="204.833984"/>
      <use xlink:href="#DejaVuSans-Bold-69" x="276.025391"/>
      <use xlink:href="#DejaVuSans-Bold-69" x="310.302734"/>
      <use xlink:href="#DejaVuSans-Bold-61" x="344.580078"/>
      <use xlink:href="#DejaVuSans-Bold-20" x="412.060547"/>
      <use xlink:href="#DejaVuSans-Bold-53" x="446.875"/>
      <use xlink:href="#DejaVuSans-Bold-76" x="518.896484"/>
     </g>
    </g>
    <g id="patch_6">
     <path d="M 120.41625 59.426925 
L 232.01625 59.426925 
L 232.01625 47.426925 
L 120.41625 47.426925 
z
" style="fill: #ffffff; stroke: #000000; stroke-linejoin: miter"/>
    </g>
    <g id="text_5">
     <!-- 273.0 -->
     <g transform="translate(161.902187 56.1863) scale(0.1 -0.1)">
      <defs>
       <path id="DejaVuSans-37" d="M 525 4666 
L 3525 4666 
L 3525 4397 
L 1831 0 
L 1172 0 
L 2766 4134 
L 525 4134 
L 525 4666 
z
" transform="scale(0.015625)"/>
       <path id="DejaVuSans-33" d="M 2597 2516 
Q 3050 2419 3304 2112 
Q 3559 1806 3559 1356 
Q 3559 666 3084 287 
Q 2609 -91 1734 -91 
Q 1441 -91 1130 -33 
Q 819 25 488 141 
L 488 750 
Q 750 597 1062 519 
Q 1375 441 1716 441 
Q 2309 441 2620 675 
Q 2931 909 2931 1356 
Q 2931 1769 2642 2001 
Q 2353 2234 1838 2234 
L 1294 2234 
L 1294 2753 
L 1863 2753 
Q 2328 2753 2575 2939 
Q 2822 3125 2822 3475 
Q 2822 3834 2567 4026 
Q 2313 4219 1838 4219 
Q 1578 4219 1281 4162 
Q 984 4106 628 3988 
L 628 4550 
Q 988 4650 1302 4700 
Q 1616 4750 1894 4750 
Q 2613 4750 3031 4423 
Q 3450 4097 3450 3541 
Q 3450 3153 3228 2886 
Q 3006 2619 2597 2516 
z
" transform="scale(0.015625)"/>
      </defs>
      <use xlink:href="#DejaVuSans-32"/>
      <use xlink:href="#DejaVuSans-37" x="63.623047"/>
      <use xlink:href="#DejaVuSans-33" x="127.246094"/>
      <use xlink:href="#DejaVuSans-2e" x="190.869141"/>
      <use xlink:href="#DejaVuSans-30" x="222.65625"/>
     </g>
    </g>
    <g id="patch_7">
     <path d="M 7.2 71.426925 
L 120.41625 71.426925 
L 120.41625 59.426925 
L 7.2 59.426925 
z
" style="fill: #1e90ff; stroke: #000000; stroke-linejoin: miter"/>
    </g>
    <g id="text_6">
     <!-- Lukas Ha -->
     <g transform="translate(18.521625 68.1863) scale(0.1 -0.1)">
      <defs>
       <path id="DejaVuSans-Bold-4c" d="M 588 4666 
L 1791 4666 
L 1791 909 
L 3903 909 
L 3903 0 
L 588 0 
L 588 4666 
z
" transform="scale(0.015625)"/>
       <path id="DejaVuSans-Bold-75" d="M 500 1363 
L 500 3500 
L 1625 3500 
L 1625 3150 
Q 1625 2866 1622 2436 
Q 1619 2006 1619 1863 
Q 1619 1441 1641 1255 
Q 1663 1069 1716 984 
Q 1784 875 1895 815 
Q 2006 756 2150 756 
Q 2500 756 2700 1025 
Q 2900 1294 2900 1772 
L 2900 3500 
L 4019 3500 
L 4019 0 
L 2900 0 
L 2900 506 
Q 2647 200 2364 54 
Q 2081 -91 1741 -91 
Q 1134 -91 817 281 
Q 500 653 500 1363 
z
" transform="scale(0.015625)"/>
       <path id="DejaVuSans-Bold-6b" d="M 538 4863 
L 1656 4863 
L 1656 2216 
L 2944 3500 
L 4244 3500 
L 2534 1894 
L 4378 0 
L 3022 0 
L 1656 1459 
L 1656 0 
L 538 0 
L 538 4863 
z
" transform="scale(0.015625)"/>
       <path id="DejaVuSans-Bold-48" d="M 588 4666 
L 1791 4666 
L 1791 2888 
L 3566 2888 
L 3566 4666 
L 4769 4666 
L 4769 0 
L 3566 0 
L 3566 1978 
L 1791 1978 
L 1791 0 
L 588 0 
L 588 4666 
z
" transform="scale(0.015625)"/>
      </defs>
      <use xlink:href="#DejaVuSans-Bold-4c"/>
      <use xlink:href="#DejaVuSans-Bold-75" x="63.720703"/>
      <use xlink:href="#DejaVuSans-Bold-6b" x="134.912109"/>
      <use xlink:href="#DejaVuSans-Bold-61" x="201.416016"/>
      <use xlink:href="#DejaVuSans-Bold-73" x="268.896484"/>
      <use xlink:href="#DejaVuSans-Bold-20" x="328.417969"/>
      <use xlink:href="#DejaVuSans-Bold-48" x="363.232422"/>
      <use xlink:href="#DejaVuSans-Bold-61" x="446.923828"/>
     </g>
    </g>
    <g id="patch_8">
     <path d="M 120.41625 71.426925 
L 232.01625 71.426925 
L 232.01625 59.426925 
L 120.41625 59.426925 
z
" style="fill: #ffffff; stroke: #000000; stroke-linejoin: miter"/>
    </g>
    <g id="text_7">
     <!-- 267.0 -->
     <g transform="translate(161.902187 68.1863) scale(0.1 -0.1)">
      <defs>
       <path id="DejaVuSans-36" d="M 2113 2584 
Q 1688 2584 1439 2293 
Q 1191 2003 1191 1497 
Q 1191 994 1439 701 
Q 1688 409 2113 409 
Q 2538 409 2786 701 
Q 3034 994 3034 1497 
Q 3034 2003 2786 2293 
Q 2538 2584 2113 2584 
z
M 3366 4563 
L 3366 3988 
Q 3128 4100 2886 4159 
Q 2644 4219 2406 4219 
Q 1781 4219 1451 3797 
Q 1122 3375 1075 2522 
Q 1259 2794 1537 2939 
Q 1816 3084 2150 3084 
Q 2853 3084 3261 2657 
Q 3669 2231 3669 1497 
Q 3669 778 3244 343 
Q 2819 -91 2113 -91 
Q 1303 -91 875 529 
Q 447 1150 447 2328 
Q 447 3434 972 4092 
Q 1497 4750 2381 4750 
Q 2619 4750 2861 4703 
Q 3103 4656 3366 4563 
z
" transform="scale(0.015625)"/>
      </defs>
      <use xlink:href="#DejaVuSans-32"/>
      <use xlink:href="#DejaVuSans-36" x="63.623047"/>
      <use xlink:href="#DejaVuSans-37" x="127.246094"/>
      <use xlink:href="#DejaVuSans-2e" x="190.869141"/>
      <use xlink:href="#DejaVuSans-30" x="222.65625"/>
     </g>
    </g>
    <g id="patch_9">
     <path d="M 7.2 83.426925 
L 120.41625 83.426925 
L 120.41625 71.426925 
L 7.2 71.426925 
z
" style="fill: #1e90ff; stroke: #000000; stroke-linejoin: miter"/>
    </g>
    <g id="text_8">
     <!-- Christina Br -->
     <g transform="translate(18.521625 80.1863) scale(0.1 -0.1)">
      <defs>
       <path id="DejaVuSans-Bold-43" d="M 4288 256 
Q 3956 84 3597 -3 
Q 3238 -91 2847 -91 
Q 1681 -91 1000 561 
Q 319 1213 319 2328 
Q 319 3447 1000 4098 
Q 1681 4750 2847 4750 
Q 3238 4750 3597 4662 
Q 3956 4575 4288 4403 
L 4288 3438 
Q 3953 3666 3628 3772 
Q 3303 3878 2944 3878 
Q 2300 3878 1931 3465 
Q 1563 3053 1563 2328 
Q 1563 1606 1931 1193 
Q 2300 781 2944 781 
Q 3303 781 3628 887 
Q 3953 994 4288 1222 
L 4288 256 
z
" transform="scale(0.015625)"/>
       <path id="DejaVuSans-Bold-68" d="M 4056 2131 
L 4056 0 
L 2931 0 
L 2931 347 
L 2931 1625 
Q 2931 2084 2911 2256 
Q 2891 2428 2841 2509 
Q 2775 2619 2662 2680 
Q 2550 2741 2406 2741 
Q 2056 2741 1856 2470 
Q 1656 2200 1656 1722 
L 1656 0 
L 538 0 
L 538 4863 
L 1656 4863 
L 1656 2988 
Q 1909 3294 2193 3439 
Q 2478 3584 2822 3584 
Q 3428 3584 3742 3212 
Q 4056 2841 4056 2131 
z
" transform="scale(0.015625)"/>
       <path id="DejaVuSans-Bold-72" d="M 3138 2547 
Q 2991 2616 2845 2648 
Q 2700 2681 2553 2681 
Q 2122 2681 1889 2404 
Q 1656 2128 1656 1613 
L 1656 0 
L 538 0 
L 538 3500 
L 1656 3500 
L 1656 2925 
Q 1872 3269 2151 3426 
Q 2431 3584 2822 3584 
Q 2878 3584 2943 3579 
Q 3009 3575 3134 3559 
L 3138 2547 
z
" transform="scale(0.015625)"/>
       <path id="DejaVuSans-Bold-42" d="M 2456 2859 
Q 2741 2859 2887 2984 
Q 3034 3109 3034 3353 
Q 3034 3594 2887 3720 
Q 2741 3847 2456 3847 
L 1791 3847 
L 1791 2859 
L 2456 2859 
z
M 2497 819 
Q 2859 819 3042 972 
Q 3225 1125 3225 1434 
Q 3225 1738 3044 1889 
Q 2863 2041 2497 2041 
L 1791 2041 
L 1791 819 
L 2497 819 
z
M 3616 2497 
Q 4003 2384 4215 2081 
Q 4428 1778 4428 1338 
Q 4428 663 3972 331 
Q 3516 0 2584 0 
L 588 0 
L 588 4666 
L 2394 4666 
Q 3366 4666 3802 4372 
Q 4238 4078 4238 3431 
Q 4238 3091 4078 2852 
Q 3919 2613 3616 2497 
z
" transform="scale(0.015625)"/>
      </defs>
      <use xlink:href="#DejaVuSans-Bold-43"/>
      <use xlink:href="#DejaVuSans-Bold-68" x="73.388672"/>
      <use xlink:href="#DejaVuSans-Bold-72" x="144.580078"/>
      <use xlink:href="#DejaVuSans-Bold-69" x="193.896484"/>
      <use xlink:href="#DejaVuSans-Bold-73" x="228.173828"/>
      <use xlink:href="#DejaVuSans-Bold-74" x="287.695312"/>
      <use xlink:href="#DejaVuSans-Bold-69" x="335.498047"/>
      <use xlink:href="#DejaVuSans-Bold-6e" x="369.775391"/>
      <use xlink:href="#DejaVuSans-Bold-61" x="440.966797"/>
      <use xlink:href="#DejaVuSans-Bold-20" x="508.447266"/>
      <use xlink:href="#DejaVuSans-Bold-42" x="543.261719"/>
      <use xlink:href="#DejaVuSans-Bold-72" x="619.482422"/>
     </g>
    </g>
    <g id="patch_10">
     <path d="M 120.41625 83.426925 
L 232.01625 83.426925 
L 232.01625 71.426925 
L 120.41625 71.426925 
z
" style="fill: #ffffff; stroke: #000000; stroke-linejoin: miter"/>
    </g>
    <g id="text_9">
     <!-- 261.0 -->
     <g transform="translate(161.902187 80.1863) scale(0.1 -0.1)">
      <defs>
       <path id="DejaVuSans-31" d="M 794 531 
L 1825 531 
L 1825 4091 
L 703 3866 
L 703 4441 
L 1819 4666 
L 2450 4666 
L 2450 531 
L 3481 531 
L 3481 0 
L 794 0 
L 794 531 
z
" transform="scale(0.015625)"/>
      </defs>
      <use xlink:href="#DejaVuSans-32"/>
      <use xlink:href="#DejaVuSans-36" x="63.623047"/>
      <use xlink:href="#DejaVuSans-31" x="127.246094"/>
      <use xlink:href="#DejaVuSans-2e" x="190.869141"/>
      <use xlink:href="#DejaVuSans-30" x="222.65625"/>
     </g>
    </g>
    <g id="patch_11">
     <path d="M 7.2 95.426925 
L 120.41625 95.426925 
L 120.41625 83.426925 
L 7.2 83.426925 
z
" style="fill: #1e90ff; stroke: #000000; stroke-linejoin: miter"/>
    </g>
    <g id="text_10">
     <!-- Stinne Ra -->
     <g transform="translate(18.521625 92.1863) scale(0.1 -0.1)">
      <defs>
       <path id="DejaVuSans-Bold-52" d="M 2297 2597 
Q 2675 2597 2839 2737 
Q 3003 2878 3003 3200 
Q 3003 3519 2839 3656 
Q 2675 3794 2297 3794 
L 1791 3794 
L 1791 2597 
L 2297 2597 
z
M 1791 1766 
L 1791 0 
L 588 0 
L 588 4666 
L 2425 4666 
Q 3347 4666 3776 4356 
Q 4206 4047 4206 3378 
Q 4206 2916 3982 2619 
Q 3759 2322 3309 2181 
Q 3556 2125 3751 1926 
Q 3947 1728 4147 1325 
L 4800 0 
L 3519 0 
L 2950 1159 
Q 2778 1509 2601 1637 
Q 2425 1766 2131 1766 
L 1791 1766 
z
" transform="scale(0.015625)"/>
      </defs>
      <use xlink:href="#DejaVuSans-Bold-53"/>
      <use xlink:href="#DejaVuSans-Bold-74" x="72.021484"/>
      <use xlink:href="#DejaVuSans-Bold-69" x="119.824219"/>
      <use xlink:href="#DejaVuSans-Bold-6e" x="154.101562"/>
      <use xlink:href="#DejaVuSans-Bold-6e" x="225.292969"/>
      <use xlink:href="#DejaVuSans-Bold-65" x="296.484375"/>
      <use xlink:href="#DejaVuSans-Bold-20" x="364.306641"/>
      <use xlink:href="#DejaVuSans-Bold-52" x="399.121094"/>
      <use xlink:href="#DejaVuSans-Bold-61" x="476.123047"/>
     </g>
    </g>
    <g id="patch_12">
     <path d="M 120.41625 95.426925 
L 232.01625 95.426925 
L 232.01625 83.426925 
L 120.41625 83.426925 
z
" style="fill: #ffffff; stroke: #000000; stroke-linejoin: miter"/>
    </g>
    <g id="text_11">
     <!-- 260.0 -->
     <g transform="translate(161.902187 92.1863) scale(0.1 -0.1)">
      <use xlink:href="#DejaVuSans-32"/>
      <use xlink:href="#DejaVuSans-36" x="63.623047"/>
      <use xlink:href="#DejaVuSans-30" x="127.246094"/>
      <use xlink:href="#DejaVuSans-2e" x="190.869141"/>
      <use xlink:href="#DejaVuSans-30" x="222.65625"/>
     </g>
    </g>
    <g id="patch_13">
     <path d="M 7.2 107.426925 
L 120.41625 107.426925 
L 120.41625 95.426925 
L 7.2 95.426925 
z
" style="fill: #1e90ff; stroke: #000000; stroke-linejoin: miter"/>
    </g>
    <g id="text_12">
     <!-- Bart He -->
     <g transform="translate(18.521625 104.1863) scale(0.1 -0.1)">
      <use xlink:href="#DejaVuSans-Bold-42"/>
      <use xlink:href="#DejaVuSans-Bold-61" x="76.220703"/>
      <use xlink:href="#DejaVuSans-Bold-72" x="143.701172"/>
      <use xlink:href="#DejaVuSans-Bold-74" x="193.017578"/>
      <use xlink:href="#DejaVuSans-Bold-20" x="240.820312"/>
      <use xlink:href="#DejaVuSans-Bold-48" x="275.634766"/>
      <use xlink:href="#DejaVuSans-Bold-65" x="359.326172"/>
     </g>
    </g>
    <g id="patch_14">
     <path d="M 120.41625 107.426925 
L 232.01625 107.426925 
L 232.01625 95.426925 
L 120.41625 95.426925 
z
" style="fill: #ffffff; stroke: #000000; stroke-linejoin: miter"/>
    </g>
    <g id="text_13">
     <!-- 259.0 -->
     <g transform="translate(161.902187 104.1863) scale(0.1 -0.1)">
      <defs>
       <path id="DejaVuSans-35" d="M 691 4666 
L 3169 4666 
L 3169 4134 
L 1269 4134 
L 1269 2991 
Q 1406 3038 1543 3061 
Q 1681 3084 1819 3084 
Q 2600 3084 3056 2656 
Q 3513 2228 3513 1497 
Q 3513 744 3044 326 
Q 2575 -91 1722 -91 
Q 1428 -91 1123 -41 
Q 819 9 494 109 
L 494 744 
Q 775 591 1075 516 
Q 1375 441 1709 441 
Q 2250 441 2565 725 
Q 2881 1009 2881 1497 
Q 2881 1984 2565 2268 
Q 2250 2553 1709 2553 
Q 1456 2553 1204 2497 
Q 953 2441 691 2322 
L 691 4666 
z
" transform="scale(0.015625)"/>
       <path id="DejaVuSans-39" d="M 703 97 
L 703 672 
Q 941 559 1184 500 
Q 1428 441 1663 441 
Q 2288 441 2617 861 
Q 2947 1281 2994 2138 
Q 2813 1869 2534 1725 
Q 2256 1581 1919 1581 
Q 1219 1581 811 2004 
Q 403 2428 403 3163 
Q 403 3881 828 4315 
Q 1253 4750 1959 4750 
Q 2769 4750 3195 4129 
Q 3622 3509 3622 2328 
Q 3622 1225 3098 567 
Q 2575 -91 1691 -91 
Q 1453 -91 1209 -44 
Q 966 3 703 97 
z
M 1959 2075 
Q 2384 2075 2632 2365 
Q 2881 2656 2881 3163 
Q 2881 3666 2632 3958 
Q 2384 4250 1959 4250 
Q 1534 4250 1286 3958 
Q 1038 3666 1038 3163 
Q 1038 2656 1286 2365 
Q 1534 2075 1959 2075 
z
" transform="scale(0.015625)"/>
      </defs>
      <use xlink:href="#DejaVuSans-32"/>
      <use xlink:href="#DejaVuSans-35" x="63.623047"/>
      <use xlink:href="#DejaVuSans-39" x="127.246094"/>
      <use xlink:href="#DejaVuSans-2e" x="190.869141"/>
      <use xlink:href="#DejaVuSans-30" x="222.65625"/>
     </g>
    </g>
    <g id="patch_15">
     <path d="M 7.2 119.426925 
L 120.41625 119.426925 
L 120.41625 107.426925 
L 7.2 107.426925 
z
" style="fill: #1e90ff; stroke: #000000; stroke-linejoin: miter"/>
    </g>
    <g id="text_14">
     <!-- Signe Æb -->
     <g transform="translate(18.521625 116.147237) scale(0.1 -0.1)">
      <defs>
       <path id="DejaVuSans-Bold-67" d="M 2919 594 
Q 2688 288 2409 144 
Q 2131 0 1766 0 
Q 1125 0 706 504 
Q 288 1009 288 1791 
Q 288 2575 706 3076 
Q 1125 3578 1766 3578 
Q 2131 3578 2409 3434 
Q 2688 3291 2919 2981 
L 2919 3500 
L 4044 3500 
L 4044 353 
Q 4044 -491 3511 -936 
Q 2978 -1381 1966 -1381 
Q 1638 -1381 1331 -1331 
Q 1025 -1281 716 -1178 
L 716 -306 
Q 1009 -475 1290 -558 
Q 1572 -641 1856 -641 
Q 2406 -641 2662 -400 
Q 2919 -159 2919 353 
L 2919 594 
z
M 2181 2772 
Q 1834 2772 1640 2515 
Q 1447 2259 1447 1791 
Q 1447 1309 1634 1061 
Q 1822 813 2181 813 
Q 2531 813 2725 1069 
Q 2919 1325 2919 1791 
Q 2919 2259 2725 2515 
Q 2531 2772 2181 2772 
z
" transform="scale(0.015625)"/>
       <path id="DejaVuSans-Bold-c6" d="M 2784 3866 
L 1984 1959 
L 3163 1959 
L 3163 3866 
L 2784 3866 
z
M 1953 4666 
L 6406 4666 
L 6406 3756 
L 4366 3756 
L 4366 2888 
L 6284 2888 
L 6284 1978 
L 4366 1978 
L 4366 909 
L 6478 909 
L 6478 0 
L 3163 0 
L 3163 1094 
L 1619 1094 
L 1159 0 
L 0 0 
L 1953 4666 
z
" transform="scale(0.015625)"/>
       <path id="DejaVuSans-Bold-62" d="M 2400 722 
Q 2759 722 2948 984 
Q 3138 1247 3138 1747 
Q 3138 2247 2948 2509 
Q 2759 2772 2400 2772 
Q 2041 2772 1848 2508 
Q 1656 2244 1656 1747 
Q 1656 1250 1848 986 
Q 2041 722 2400 722 
z
M 1656 2988 
Q 1888 3294 2169 3439 
Q 2450 3584 2816 3584 
Q 3463 3584 3878 3070 
Q 4294 2556 4294 1747 
Q 4294 938 3878 423 
Q 3463 -91 2816 -91 
Q 2450 -91 2169 54 
Q 1888 200 1656 506 
L 1656 0 
L 538 0 
L 538 4863 
L 1656 4863 
L 1656 2988 
z
" transform="scale(0.015625)"/>
      </defs>
      <use xlink:href="#DejaVuSans-Bold-53"/>
      <use xlink:href="#DejaVuSans-Bold-69" x="72.021484"/>
      <use xlink:href="#DejaVuSans-Bold-67" x="106.298828"/>
      <use xlink:href="#DejaVuSans-Bold-6e" x="177.880859"/>
      <use xlink:href="#DejaVuSans-Bold-65" x="249.072266"/>
      <use xlink:href="#DejaVuSans-Bold-20" x="316.894531"/>
      <use xlink:href="#DejaVuSans-Bold-c6" x="351.708984"/>
      <use xlink:href="#DejaVuSans-Bold-62" x="460.205078"/>
     </g>
    </g>
    <g id="patch_16">
     <path d="M 120.41625 119.426925 
L 232.01625 119.426925 
L 232.01625 107.426925 
L 120.41625 107.426925 
z
" style="fill: #ffffff; stroke: #000000; stroke-linejoin: miter"/>
    </g>
    <g id="text_15">
     <!-- 259.0 -->
     <g transform="translate(161.902187 116.1863) scale(0.1 -0.1)">
      <use xlink:href="#DejaVuSans-32"/>
      <use xlink:href="#DejaVuSans-35" x="63.623047"/>
      <use xlink:href="#DejaVuSans-39" x="127.246094"/>
      <use xlink:href="#DejaVuSans-2e" x="190.869141"/>
      <use xlink:href="#DejaVuSans-30" x="222.65625"/>
     </g>
    </g>
    <g id="patch_17">
     <path d="M 7.2 131.426925 
L 120.41625 131.426925 
L 120.41625 119.426925 
L 7.2 119.426925 
z
" style="fill: #1e90ff; stroke: #000000; stroke-linejoin: miter"/>
    </g>
    <g id="text_16">
     <!-- Emma Hu -->
     <g transform="translate(18.521625 128.1863) scale(0.1 -0.1)">
      <defs>
       <path id="DejaVuSans-Bold-45" d="M 588 4666 
L 3834 4666 
L 3834 3756 
L 1791 3756 
L 1791 2888 
L 3713 2888 
L 3713 1978 
L 1791 1978 
L 1791 909 
L 3903 909 
L 3903 0 
L 588 0 
L 588 4666 
z
" transform="scale(0.015625)"/>
       <path id="DejaVuSans-Bold-6d" d="M 3781 2919 
Q 3994 3244 4286 3414 
Q 4578 3584 4928 3584 
Q 5531 3584 5847 3212 
Q 6163 2841 6163 2131 
L 6163 0 
L 5038 0 
L 5038 1825 
Q 5041 1866 5042 1909 
Q 5044 1953 5044 2034 
Q 5044 2406 4934 2573 
Q 4825 2741 4581 2741 
Q 4263 2741 4089 2478 
Q 3916 2216 3909 1719 
L 3909 0 
L 2784 0 
L 2784 1825 
Q 2784 2406 2684 2573 
Q 2584 2741 2328 2741 
Q 2006 2741 1831 2477 
Q 1656 2213 1656 1722 
L 1656 0 
L 531 0 
L 531 3500 
L 1656 3500 
L 1656 2988 
Q 1863 3284 2130 3434 
Q 2397 3584 2719 3584 
Q 3081 3584 3359 3409 
Q 3638 3234 3781 2919 
z
" transform="scale(0.015625)"/>
      </defs>
      <use xlink:href="#DejaVuSans-Bold-45"/>
      <use xlink:href="#DejaVuSans-Bold-6d" x="68.310547"/>
      <use xlink:href="#DejaVuSans-Bold-6d" x="172.509766"/>
      <use xlink:href="#DejaVuSans-Bold-61" x="276.708984"/>
      <use xlink:href="#DejaVuSans-Bold-20" x="344.189453"/>
      <use xlink:href="#DejaVuSans-Bold-48" x="379.003906"/>
      <use xlink:href="#DejaVuSans-Bold-75" x="462.695312"/>
     </g>
    </g>
    <g id="patch_18">
     <path d="M 120.41625 131.426925 
L 232.01625 131.426925 
L 232.01625 119.426925 
L 120.41625 119.426925 
z
" style="fill: #ffffff; stroke: #000000; stroke-linejoin: miter"/>
    </g>
    <g id="text_17">
     <!-- 256.0 -->
     <g transform="translate(161.902187 128.1863) scale(0.1 -0.1)">
      <use xlink:href="#DejaVuSans-32"/>
      <use xlink:href="#DejaVuSans-35" x="63.623047"/>
      <use xlink:href="#DejaVuSans-36" x="127.246094"/>
      <use xlink:href="#DejaVuSans-2e" x="190.869141"/>
      <use xlink:href="#DejaVuSans-30" x="222.65625"/>
     </g>
    </g>
    <g id="patch_19">
     <path d="M 7.2 143.426925 
L 120.41625 143.426925 
L 120.41625 131.426925 
L 7.2 131.426925 
z
" style="fill: #1e90ff; stroke: #000000; stroke-linejoin: miter"/>
    </g>
    <g id="text_18">
     <!-- Stinne Bi -->
     <g transform="translate(18.521625 140.1863) scale(0.1 -0.1)">
      <use xlink:href="#DejaVuSans-Bold-53"/>
      <use xlink:href="#DejaVuSans-Bold-74" x="72.021484"/>
      <use xlink:href="#DejaVuSans-Bold-69" x="119.824219"/>
      <use xlink:href="#DejaVuSans-Bold-6e" x="154.101562"/>
      <use xlink:href="#DejaVuSans-Bold-6e" x="225.292969"/>
      <use xlink:href="#DejaVuSans-Bold-65" x="296.484375"/>
      <use xlink:href="#DejaVuSans-Bold-20" x="364.306641"/>
      <use xlink:href="#DejaVuSans-Bold-42" x="399.121094"/>
      <use xlink:href="#DejaVuSans-Bold-69" x="475.341797"/>
     </g>
    </g>
    <g id="patch_20">
     <path d="M 120.41625 143.426925 
L 232.01625 143.426925 
L 232.01625 131.426925 
L 120.41625 131.426925 
z
" style="fill: #ffffff; stroke: #000000; stroke-linejoin: miter"/>
    </g>
    <g id="text_19">
     <!-- 250.0 -->
     <g transform="translate(161.902187 140.1863) scale(0.1 -0.1)">
      <use xlink:href="#DejaVuSans-32"/>
      <use xlink:href="#DejaVuSans-35" x="63.623047"/>
      <use xlink:href="#DejaVuSans-30" x="127.246094"/>
      <use xlink:href="#DejaVuSans-2e" x="190.869141"/>
      <use xlink:href="#DejaVuSans-30" x="222.65625"/>
     </g>
    </g>
    <g id="patch_21">
     <path d="M 7.2 155.426925 
L 120.41625 155.426925 
L 120.41625 143.426925 
L 7.2 143.426925 
z
" style="fill: #1e90ff; stroke: #000000; stroke-linejoin: miter"/>
    </g>
    <g id="text_20">
     <!-- Anne Hv -->
     <g transform="translate(18.521625 152.1863) scale(0.1 -0.1)">
      <defs>
       <path id="DejaVuSans-Bold-41" d="M 3419 850 
L 1538 850 
L 1241 0 
L 31 0 
L 1759 4666 
L 3194 4666 
L 4922 0 
L 3713 0 
L 3419 850 
z
M 1838 1716 
L 3116 1716 
L 2478 3572 
L 1838 1716 
z
" transform="scale(0.015625)"/>
      </defs>
      <use xlink:href="#DejaVuSans-Bold-41"/>
      <use xlink:href="#DejaVuSans-Bold-6e" x="77.392578"/>
      <use xlink:href="#DejaVuSans-Bold-6e" x="148.583984"/>
      <use xlink:href="#DejaVuSans-Bold-65" x="219.775391"/>
      <use xlink:href="#DejaVuSans-Bold-20" x="287.597656"/>
      <use xlink:href="#DejaVuSans-Bold-48" x="322.412109"/>
      <use xlink:href="#DejaVuSans-Bold-76" x="406.103516"/>
     </g>
    </g>
    <g id="patch_22">
     <path d="M 120.41625 155.426925 
L 232.01625 155.426925 
L 232.01625 143.426925 
L 120.41625 143.426925 
z
" style="fill: #ffffff; stroke: #000000; stroke-linejoin: miter"/>
    </g>
    <g id="text_21">
     <!-- 249.0 -->
     <g transform="translate(161.902187 152.1863) scale(0.1 -0.1)">
      <defs>
       <path id="DejaVuSans-34" d="M 2419 4116 
L 825 1625 
L 2419 1625 
L 2419 4116 
z
M 2253 4666 
L 3047 4666 
L 3047 1625 
L 3713 1625 
L 3713 1100 
L 3047 1100 
L 3047 0 
L 2419 0 
L 2419 1100 
L 313 1100 
L 313 1709 
L 2253 4666 
z
" transform="scale(0.015625)"/>
      </defs>
      <use xlink:href="#DejaVuSans-32"/>
      <use xlink:href="#DejaVuSans-34" x="63.623047"/>
      <use xlink:href="#DejaVuSans-39" x="127.246094"/>
      <use xlink:href="#DejaVuSans-2e" x="190.869141"/>
      <use xlink:href="#DejaVuSans-30" x="222.65625"/>
     </g>
    </g>
    <g id="patch_23">
     <path d="M 7.2 167.426925 
L 120.41625 167.426925 
L 120.41625 155.426925 
L 7.2 155.426925 
z
" style="fill: #1e90ff; stroke: #000000; stroke-linejoin: miter"/>
    </g>
    <g id="text_22">
     <!-- Carine Pl -->
     <g transform="translate(18.521625 164.1863) scale(0.1 -0.1)">
      <defs>
       <path id="DejaVuSans-Bold-6c" d="M 538 4863 
L 1656 4863 
L 1656 0 
L 538 0 
L 538 4863 
z
" transform="scale(0.015625)"/>
      </defs>
      <use xlink:href="#DejaVuSans-Bold-43"/>
      <use xlink:href="#DejaVuSans-Bold-61" x="73.388672"/>
      <use xlink:href="#DejaVuSans-Bold-72" x="140.869141"/>
      <use xlink:href="#DejaVuSans-Bold-69" x="190.185547"/>
      <use xlink:href="#DejaVuSans-Bold-6e" x="224.462891"/>
      <use xlink:href="#DejaVuSans-Bold-65" x="295.654297"/>
      <use xlink:href="#DejaVuSans-Bold-20" x="363.476562"/>
      <use xlink:href="#DejaVuSans-Bold-50" x="398.291016"/>
      <use xlink:href="#DejaVuSans-Bold-6c" x="471.582031"/>
     </g>
    </g>
    <g id="patch_24">
     <path d="M 120.41625 167.426925 
L 232.01625 167.426925 
L 232.01625 155.426925 
L 120.41625 155.426925 
z
" style="fill: #ffffff; stroke: #000000; stroke-linejoin: miter"/>
    </g>
    <g id="text_23">
     <!-- 244.0 -->
     <g transform="translate(161.902187 164.1863) scale(0.1 -0.1)">
      <use xlink:href="#DejaVuSans-32"/>
      <use xlink:href="#DejaVuSans-34" x="63.623047"/>
      <use xlink:href="#DejaVuSans-34" x="127.246094"/>
      <use xlink:href="#DejaVuSans-2e" x="190.869141"/>
      <use xlink:href="#DejaVuSans-30" x="222.65625"/>
     </g>
    </g>
    <g id="patch_25">
     <path d="M 7.2 179.426925 
L 120.41625 179.426925 
L 120.41625 167.426925 
L 7.2 167.426925 
z
" style="fill: #1e90ff; stroke: #000000; stroke-linejoin: miter"/>
    </g>
    <g id="text_24">
     <!-- Steffen Jø -->
     <g transform="translate(18.521625 176.1863) scale(0.1 -0.1)">
      <defs>
       <path id="DejaVuSans-Bold-66" d="M 2841 4863 
L 2841 4128 
L 2222 4128 
Q 1984 4128 1890 4042 
Q 1797 3956 1797 3744 
L 1797 3500 
L 2753 3500 
L 2753 2700 
L 1797 2700 
L 1797 0 
L 678 0 
L 678 2700 
L 122 2700 
L 122 3500 
L 678 3500 
L 678 3744 
Q 678 4316 997 4589 
Q 1316 4863 1984 4863 
L 2841 4863 
z
" transform="scale(0.015625)"/>
       <path id="DejaVuSans-Bold-f8" d="M 2675 2613 
Q 2584 2700 2467 2742 
Q 2350 2784 2203 2784 
Q 1831 2784 1636 2517 
Q 1441 2250 1441 1747 
Q 1441 1619 1452 1517 
Q 1463 1416 1484 1331 
L 2675 2613 
z
M 1709 897 
Q 1806 803 1929 756 
Q 2053 709 2203 709 
Q 2569 709 2762 976 
Q 2956 1244 2956 1747 
Q 2956 1881 2945 1986 
Q 2934 2091 2913 2181 
L 1709 897 
z
M 697 494 
Q 488 738 381 1050 
Q 275 1363 275 1747 
Q 275 2609 786 3096 
Q 1297 3584 2203 3584 
Q 2534 3584 2814 3515 
Q 3094 3447 3328 3309 
L 3788 3803 
L 4128 3488 
L 3688 3022 
Q 3906 2772 4014 2456 
Q 4122 2141 4122 1747 
Q 4122 884 3614 396 
Q 3106 -91 2203 -91 
Q 1866 -91 1581 -20 
Q 1297 50 1056 191 
L 594 -294 
L 244 0 
L 697 494 
z
" transform="scale(0.015625)"/>
      </defs>
      <use xlink:href="#DejaVuSans-Bold-53"/>
      <use xlink:href="#DejaVuSans-Bold-74" x="72.021484"/>
      <use xlink:href="#DejaVuSans-Bold-65" x="119.824219"/>
      <use xlink:href="#DejaVuSans-Bold-66" x="187.646484"/>
      <use xlink:href="#DejaVuSans-Bold-66" x="231.152344"/>
      <use xlink:href="#DejaVuSans-Bold-65" x="274.658203"/>
      <use xlink:href="#DejaVuSans-Bold-6e" x="342.480469"/>
      <use xlink:href="#DejaVuSans-Bold-20" x="413.671875"/>
      <use xlink:href="#DejaVuSans-Bold-4a" x="448.486328"/>
      <use xlink:href="#DejaVuSans-Bold-f8" x="485.693359"/>
     </g>
    </g>
    <g id="patch_26">
     <path d="M 120.41625 179.426925 
L 232.01625 179.426925 
L 232.01625 167.426925 
L 120.41625 167.426925 
z
" style="fill: #ffffff; stroke: #000000; stroke-linejoin: miter"/>
    </g>
    <g id="text_25">
     <!-- 230.0 -->
     <g transform="translate(161.902187 176.1863) scale(0.1 -0.1)">
      <use xlink:href="#DejaVuSans-32"/>
      <use xlink:href="#DejaVuSans-33" x="63.623047"/>
      <use xlink:href="#DejaVuSans-30" x="127.246094"/>
      <use xlink:href="#DejaVuSans-2e" x="190.869141"/>
      <use xlink:href="#DejaVuSans-30" x="222.65625"/>
     </g>
    </g>
    <g id="patch_27">
     <path d="M 7.2 191.426925 
L 120.41625 191.426925 
L 120.41625 179.426925 
L 7.2 179.426925 
z
" style="fill: #1e90ff; stroke: #000000; stroke-linejoin: miter"/>
    </g>
    <g id="text_26">
     <!-- Lars "Winner" Br -->
     <g transform="translate(18.521625 188.1863) scale(0.1 -0.1)">
      <defs>
       <path id="DejaVuSans-Bold-22" d="M 2725 4666 
L 2725 2931 
L 1984 2931 
L 1984 4666 
L 2725 4666 
z
M 1350 4666 
L 1350 2931 
L 609 2931 
L 609 4666 
L 1350 4666 
z
" transform="scale(0.015625)"/>
       <path id="DejaVuSans-Bold-57" d="M 191 4666 
L 1344 4666 
L 2150 1275 
L 2950 4666 
L 4109 4666 
L 4909 1275 
L 5716 4666 
L 6859 4666 
L 5759 0 
L 4372 0 
L 3525 3547 
L 2688 0 
L 1300 0 
L 191 4666 
z
" transform="scale(0.015625)"/>
      </defs>
      <use xlink:href="#DejaVuSans-Bold-4c"/>
      <use xlink:href="#DejaVuSans-Bold-61" x="63.720703"/>
      <use xlink:href="#DejaVuSans-Bold-72" x="131.201172"/>
      <use xlink:href="#DejaVuSans-Bold-73" x="180.517578"/>
      <use xlink:href="#DejaVuSans-Bold-20" x="240.039062"/>
      <use xlink:href="#DejaVuSans-Bold-22" x="274.853516"/>
      <use xlink:href="#DejaVuSans-Bold-57" x="326.953125"/>
      <use xlink:href="#DejaVuSans-Bold-69" x="437.255859"/>
      <use xlink:href="#DejaVuSans-Bold-6e" x="471.533203"/>
      <use xlink:href="#DejaVuSans-Bold-6e" x="542.724609"/>
      <use xlink:href="#DejaVuSans-Bold-65" x="613.916016"/>
      <use xlink:href="#DejaVuSans-Bold-72" x="681.738281"/>
      <use xlink:href="#DejaVuSans-Bold-22" x="731.054688"/>
      <use xlink:href="#DejaVuSans-Bold-20" x="783.154297"/>
      <use xlink:href="#DejaVuSans-Bold-42" x="817.96875"/>
      <use xlink:href="#DejaVuSans-Bold-72" x="894.189453"/>
     </g>
    </g>
    <g id="patch_28">
     <path d="M 120.41625 191.426925 
L 232.01625 191.426925 
L 232.01625 179.426925 
L 120.41625 179.426925 
z
" style="fill: #ffffff; stroke: #000000; stroke-linejoin: miter"/>
    </g>
    <g id="text_27">
     <!-- 229.0 -->
     <g transform="translate(161.902187 188.1863) scale(0.1 -0.1)">
      <use xlink:href="#DejaVuSans-32"/>
      <use xlink:href="#DejaVuSans-32" x="63.623047"/>
      <use xlink:href="#DejaVuSans-39" x="127.246094"/>
      <use xlink:href="#DejaVuSans-2e" x="190.869141"/>
      <use xlink:href="#DejaVuSans-30" x="222.65625"/>
     </g>
    </g>
    <g id="patch_29">
     <path d="M 7.2 203.426925 
L 120.41625 203.426925 
L 120.41625 191.426925 
L 7.2 191.426925 
z
" style="fill: #1e90ff; stroke: #000000; stroke-linejoin: miter"/>
    </g>
    <g id="text_28">
     <!-- Bettina Ag -->
     <g transform="translate(18.521625 200.147237) scale(0.1 -0.1)">
      <use xlink:href="#DejaVuSans-Bold-42"/>
      <use xlink:href="#DejaVuSans-Bold-65" x="76.220703"/>
      <use xlink:href="#DejaVuSans-Bold-74" x="144.042969"/>
      <use xlink:href="#DejaVuSans-Bold-74" x="191.845703"/>
      <use xlink:href="#DejaVuSans-Bold-69" x="239.648438"/>
      <use xlink:href="#DejaVuSans-Bold-6e" x="273.925781"/>
      <use xlink:href="#DejaVuSans-Bold-61" x="345.117188"/>
      <use xlink:href="#DejaVuSans-Bold-20" x="412.597656"/>
      <use xlink:href="#DejaVuSans-Bold-41" x="447.412109"/>
      <use xlink:href="#DejaVuSans-Bold-67" x="524.804688"/>
     </g>
    </g>
    <g id="patch_30">
     <path d="M 120.41625 203.426925 
L 232.01625 203.426925 
L 232.01625 191.426925 
L 120.41625 191.426925 
z
" style="fill: #ffffff; stroke: #000000; stroke-linejoin: miter"/>
    </g>
    <g id="text_29">
     <!-- 227.0 -->
     <g transform="translate(161.902187 200.1863) scale(0.1 -0.1)">
      <use xlink:href="#DejaVuSans-32"/>
      <use xlink:href="#DejaVuSans-32" x="63.623047"/>
      <use xlink:href="#DejaVuSans-37" x="127.246094"/>
      <use xlink:href="#DejaVuSans-2e" x="190.869141"/>
      <use xlink:href="#DejaVuSans-30" x="222.65625"/>
     </g>
    </g>
    <g id="patch_31">
     <path d="M 7.2 215.426925 
L 120.41625 215.426925 
L 120.41625 203.426925 
L 7.2 203.426925 
z
" style="fill: #1e90ff; stroke: #000000; stroke-linejoin: miter"/>
    </g>
    <g id="text_30">
     <!-- Hiroshi Hi -->
     <g transform="translate(18.521625 212.1863) scale(0.1 -0.1)">
      <use xlink:href="#DejaVuSans-Bold-48"/>
      <use xlink:href="#DejaVuSans-Bold-69" x="83.691406"/>
      <use xlink:href="#DejaVuSans-Bold-72" x="117.96875"/>
      <use xlink:href="#DejaVuSans-Bold-6f" x="167.285156"/>
      <use xlink:href="#DejaVuSans-Bold-73" x="235.986328"/>
      <use xlink:href="#DejaVuSans-Bold-68" x="295.507812"/>
      <use xlink:href="#DejaVuSans-Bold-69" x="366.699219"/>
      <use xlink:href="#DejaVuSans-Bold-20" x="400.976562"/>
      <use xlink:href="#DejaVuSans-Bold-48" x="435.791016"/>
      <use xlink:href="#DejaVuSans-Bold-69" x="519.482422"/>
     </g>
    </g>
    <g id="patch_32">
     <path d="M 120.41625 215.426925 
L 232.01625 215.426925 
L 232.01625 203.426925 
L 120.41625 203.426925 
z
" style="fill: #ffffff; stroke: #000000; stroke-linejoin: miter"/>
    </g>
    <g id="text_31">
     <!-- 227.0 -->
     <g transform="translate(161.902187 212.1863) scale(0.1 -0.1)">
      <use xlink:href="#DejaVuSans-32"/>
      <use xlink:href="#DejaVuSans-32" x="63.623047"/>
      <use xlink:href="#DejaVuSans-37" x="127.246094"/>
      <use xlink:href="#DejaVuSans-2e" x="190.869141"/>
      <use xlink:href="#DejaVuSans-30" x="222.65625"/>
     </g>
    </g>
    <g id="patch_33">
     <path d="M 7.2 227.426925 
L 120.41625 227.426925 
L 120.41625 215.426925 
L 7.2 215.426925 
z
" style="fill: #1e90ff; stroke: #000000; stroke-linejoin: miter"/>
    </g>
    <g id="text_32">
     <!-- Emma Fa -->
     <g transform="translate(18.521625 224.1863) scale(0.1 -0.1)">
      <defs>
       <path id="DejaVuSans-Bold-46" d="M 588 4666 
L 3834 4666 
L 3834 3756 
L 1791 3756 
L 1791 2888 
L 3713 2888 
L 3713 1978 
L 1791 1978 
L 1791 0 
L 588 0 
L 588 4666 
z
" transform="scale(0.015625)"/>
      </defs>
      <use xlink:href="#DejaVuSans-Bold-45"/>
      <use xlink:href="#DejaVuSans-Bold-6d" x="68.310547"/>
      <use xlink:href="#DejaVuSans-Bold-6d" x="172.509766"/>
      <use xlink:href="#DejaVuSans-Bold-61" x="276.708984"/>
      <use xlink:href="#DejaVuSans-Bold-20" x="344.189453"/>
      <use xlink:href="#DejaVuSans-Bold-46" x="379.003906"/>
      <use xlink:href="#DejaVuSans-Bold-61" x="441.439453"/>
     </g>
    </g>
    <g id="patch_34">
     <path d="M 120.41625 227.426925 
L 232.01625 227.426925 
L 232.01625 215.426925 
L 120.41625 215.426925 
z
" style="fill: #ffffff; stroke: #000000; stroke-linejoin: miter"/>
    </g>
    <g id="text_33">
     <!-- 225.0 -->
     <g transform="translate(161.902187 224.1863) scale(0.1 -0.1)">
      <use xlink:href="#DejaVuSans-32"/>
      <use xlink:href="#DejaVuSans-32" x="63.623047"/>
      <use xlink:href="#DejaVuSans-35" x="127.246094"/>
      <use xlink:href="#DejaVuSans-2e" x="190.869141"/>
      <use xlink:href="#DejaVuSans-30" x="222.65625"/>
     </g>
    </g>
    <g id="patch_35">
     <path d="M 7.2 239.426925 
L 120.41625 239.426925 
L 120.41625 227.426925 
L 7.2 227.426925 
z
" style="fill: #1e90ff; stroke: #000000; stroke-linejoin: miter"/>
    </g>
    <g id="text_34">
     <!-- Lennart Me -->
     <g transform="translate(18.521625 236.1863) scale(0.1 -0.1)">
      <defs>
       <path id="DejaVuSans-Bold-4d" d="M 588 4666 
L 2119 4666 
L 3181 2169 
L 4250 4666 
L 5778 4666 
L 5778 0 
L 4641 0 
L 4641 3413 
L 3566 897 
L 2803 897 
L 1728 3413 
L 1728 0 
L 588 0 
L 588 4666 
z
" transform="scale(0.015625)"/>
      </defs>
      <use xlink:href="#DejaVuSans-Bold-4c"/>
      <use xlink:href="#DejaVuSans-Bold-65" x="63.720703"/>
      <use xlink:href="#DejaVuSans-Bold-6e" x="131.542969"/>
      <use xlink:href="#DejaVuSans-Bold-6e" x="202.734375"/>
      <use xlink:href="#DejaVuSans-Bold-61" x="273.925781"/>
      <use xlink:href="#DejaVuSans-Bold-72" x="341.40625"/>
      <use xlink:href="#DejaVuSans-Bold-74" x="390.722656"/>
      <use xlink:href="#DejaVuSans-Bold-20" x="438.525391"/>
      <use xlink:href="#DejaVuSans-Bold-4d" x="473.339844"/>
      <use xlink:href="#DejaVuSans-Bold-65" x="572.851562"/>
     </g>
    </g>
    <g id="patch_36">
     <path d="M 120.41625 239.426925 
L 232.01625 239.426925 
L 232.01625 227.426925 
L 120.41625 227.426925 
z
" style="fill: #ffffff; stroke: #000000; stroke-linejoin: miter"/>
    </g>
    <g id="text_35">
     <!-- 222.0 -->
     <g transform="translate(161.902187 236.1863) scale(0.1 -0.1)">
      <use xlink:href="#DejaVuSans-32"/>
      <use xlink:href="#DejaVuSans-32" x="63.623047"/>
      <use xlink:href="#DejaVuSans-32" x="127.246094"/>
      <use xlink:href="#DejaVuSans-2e" x="190.869141"/>
      <use xlink:href="#DejaVuSans-30" x="222.65625"/>
     </g>
    </g>
    <g id="patch_37">
     <path d="M 7.2 251.426925 
L 120.41625 251.426925 
L 120.41625 239.426925 
L 7.2 239.426925 
z
" style="fill: #1e90ff; stroke: #000000; stroke-linejoin: miter"/>
    </g>
    <g id="text_36">
     <!-- Mads To -->
     <g transform="translate(18.521625 248.1863) scale(0.1 -0.1)">
      <defs>
       <path id="DejaVuSans-Bold-64" d="M 2919 2988 
L 2919 4863 
L 4044 4863 
L 4044 0 
L 2919 0 
L 2919 506 
Q 2688 197 2409 53 
Q 2131 -91 1766 -91 
Q 1119 -91 703 423 
Q 288 938 288 1747 
Q 288 2556 703 3070 
Q 1119 3584 1766 3584 
Q 2128 3584 2408 3439 
Q 2688 3294 2919 2988 
z
M 2181 722 
Q 2541 722 2730 984 
Q 2919 1247 2919 1747 
Q 2919 2247 2730 2509 
Q 2541 2772 2181 2772 
Q 1825 2772 1636 2509 
Q 1447 2247 1447 1747 
Q 1447 1247 1636 984 
Q 1825 722 2181 722 
z
" transform="scale(0.015625)"/>
       <path id="DejaVuSans-Bold-54" d="M 31 4666 
L 4331 4666 
L 4331 3756 
L 2784 3756 
L 2784 0 
L 1581 0 
L 1581 3756 
L 31 3756 
L 31 4666 
z
" transform="scale(0.015625)"/>
      </defs>
      <use xlink:href="#DejaVuSans-Bold-4d"/>
      <use xlink:href="#DejaVuSans-Bold-61" x="99.511719"/>
      <use xlink:href="#DejaVuSans-Bold-64" x="166.992188"/>
      <use xlink:href="#DejaVuSans-Bold-73" x="238.574219"/>
      <use xlink:href="#DejaVuSans-Bold-20" x="298.095703"/>
      <use xlink:href="#DejaVuSans-Bold-54" x="332.910156"/>
      <use xlink:href="#DejaVuSans-Bold-6f" x="387.873047"/>
     </g>
    </g>
    <g id="patch_38">
     <path d="M 120.41625 251.426925 
L 232.01625 251.426925 
L 232.01625 239.426925 
L 120.41625 239.426925 
z
" style="fill: #ffffff; stroke: #000000; stroke-linejoin: miter"/>
    </g>
    <g id="text_37">
     <!-- 213.0 -->
     <g transform="translate(161.902187 248.1863) scale(0.1 -0.1)">
      <use xlink:href="#DejaVuSans-32"/>
      <use xlink:href="#DejaVuSans-31" x="63.623047"/>
      <use xlink:href="#DejaVuSans-33" x="127.246094"/>
      <use xlink:href="#DejaVuSans-2e" x="190.869141"/>
      <use xlink:href="#DejaVuSans-30" x="222.65625"/>
     </g>
    </g>
    <g id="patch_39">
     <path d="M 7.2 263.426925 
L 120.41625 263.426925 
L 120.41625 251.426925 
L 7.2 251.426925 
z
" style="fill: #1e90ff; stroke: #000000; stroke-linejoin: miter"/>
    </g>
    <g id="text_38">
     <!-- Jonas  Co -->
     <g transform="translate(18.521625 260.1863) scale(0.1 -0.1)">
      <use xlink:href="#DejaVuSans-Bold-4a"/>
      <use xlink:href="#DejaVuSans-Bold-6f" x="37.207031"/>
      <use xlink:href="#DejaVuSans-Bold-6e" x="105.908203"/>
      <use xlink:href="#DejaVuSans-Bold-61" x="177.099609"/>
      <use xlink:href="#DejaVuSans-Bold-73" x="244.580078"/>
      <use xlink:href="#DejaVuSans-Bold-20" x="304.101562"/>
      <use xlink:href="#DejaVuSans-Bold-20" x="338.916016"/>
      <use xlink:href="#DejaVuSans-Bold-43" x="373.730469"/>
      <use xlink:href="#DejaVuSans-Bold-6f" x="447.119141"/>
     </g>
    </g>
    <g id="patch_40">
     <path d="M 120.41625 263.426925 
L 232.01625 263.426925 
L 232.01625 251.426925 
L 120.41625 251.426925 
z
" style="fill: #ffffff; stroke: #000000; stroke-linejoin: miter"/>
    </g>
    <g id="text_39">
     <!-- 210.0 -->
     <g transform="translate(161.902187 260.1863) scale(0.1 -0.1)">
      <use xlink:href="#DejaVuSans-32"/>
      <use xlink:href="#DejaVuSans-31" x="63.623047"/>
      <use xlink:href="#DejaVuSans-30" x="127.246094"/>
      <use xlink:href="#DejaVuSans-2e" x="190.869141"/>
      <use xlink:href="#DejaVuSans-30" x="222.65625"/>
     </g>
    </g>
    <g id="patch_41">
     <path d="M 7.2 275.426925 
L 120.41625 275.426925 
L 120.41625 263.426925 
L 7.2 263.426925 
z
" style="fill: #1e90ff; stroke: #000000; stroke-linejoin: miter"/>
    </g>
    <g id="text_40">
     <!-- Luhin Ak -->
     <g transform="translate(18.521625 272.1863) scale(0.1 -0.1)">
      <use xlink:href="#DejaVuSans-Bold-4c"/>
      <use xlink:href="#DejaVuSans-Bold-75" x="63.720703"/>
      <use xlink:href="#DejaVuSans-Bold-68" x="134.912109"/>
      <use xlink:href="#DejaVuSans-Bold-69" x="206.103516"/>
      <use xlink:href="#DejaVuSans-Bold-6e" x="240.380859"/>
      <use xlink:href="#DejaVuSans-Bold-20" x="311.572266"/>
      <use xlink:href="#DejaVuSans-Bold-41" x="346.386719"/>
      <use xlink:href="#DejaVuSans-Bold-6b" x="423.779297"/>
     </g>
    </g>
    <g id="patch_42">
     <path d="M 120.41625 275.426925 
L 232.01625 275.426925 
L 232.01625 263.426925 
L 120.41625 263.426925 
z
" style="fill: #ffffff; stroke: #000000; stroke-linejoin: miter"/>
    </g>
    <g id="text_41">
     <!-- 208.0 -->
     <g transform="translate(161.902187 272.1863) scale(0.1 -0.1)">
      <use xlink:href="#DejaVuSans-32"/>
      <use xlink:href="#DejaVuSans-30" x="63.623047"/>
      <use xlink:href="#DejaVuSans-38" x="127.246094"/>
      <use xlink:href="#DejaVuSans-2e" x="190.869141"/>
      <use xlink:href="#DejaVuSans-30" x="222.65625"/>
     </g>
    </g>
    <g id="patch_43">
     <path d="M 7.2 287.426925 
L 120.41625 287.426925 
L 120.41625 275.426925 
L 7.2 275.426925 
z
" style="fill: #1e90ff; stroke: #000000; stroke-linejoin: miter"/>
    </g>
    <g id="text_42">
     <!-- Ale Mo -->
     <g transform="translate(18.521625 284.1863) scale(0.1 -0.1)">
      <use xlink:href="#DejaVuSans-Bold-41"/>
      <use xlink:href="#DejaVuSans-Bold-6c" x="77.392578"/>
      <use xlink:href="#DejaVuSans-Bold-65" x="111.669922"/>
      <use xlink:href="#DejaVuSans-Bold-20" x="179.492188"/>
      <use xlink:href="#DejaVuSans-Bold-4d" x="214.306641"/>
      <use xlink:href="#DejaVuSans-Bold-6f" x="313.818359"/>
     </g>
    </g>
    <g id="patch_44">
     <path d="M 120.41625 287.426925 
L 232.01625 287.426925 
L 232.01625 275.426925 
L 120.41625 275.426925 
z
" style="fill: #ffffff; stroke: #000000; stroke-linejoin: miter"/>
    </g>
    <g id="text_43">
     <!-- 207.0 -->
     <g transform="translate(161.902187 284.1863) scale(0.1 -0.1)">
      <use xlink:href="#DejaVuSans-32"/>
      <use xlink:href="#DejaVuSans-30" x="63.623047"/>
      <use xlink:href="#DejaVuSans-37" x="127.246094"/>
      <use xlink:href="#DejaVuSans-2e" x="190.869141"/>
      <use xlink:href="#DejaVuSans-30" x="222.65625"/>
     </g>
    </g>
    <g id="patch_45">
     <path d="M 7.2 299.426925 
L 120.41625 299.426925 
L 120.41625 287.426925 
L 7.2 287.426925 
z
" style="fill: #1e90ff; stroke: #000000; stroke-linejoin: miter"/>
    </g>
    <g id="text_44">
     <!-- Petrica Ju -->
     <g transform="translate(18.521625 296.1863) scale(0.1 -0.1)">
      <defs>
       <path id="DejaVuSans-Bold-63" d="M 3366 3391 
L 3366 2478 
Q 3138 2634 2908 2709 
Q 2678 2784 2431 2784 
Q 1963 2784 1702 2511 
Q 1441 2238 1441 1747 
Q 1441 1256 1702 982 
Q 1963 709 2431 709 
Q 2694 709 2930 787 
Q 3166 866 3366 1019 
L 3366 103 
Q 3103 6 2833 -42 
Q 2563 -91 2291 -91 
Q 1344 -91 809 395 
Q 275 881 275 1747 
Q 275 2613 809 3098 
Q 1344 3584 2291 3584 
Q 2566 3584 2833 3536 
Q 3100 3488 3366 3391 
z
" transform="scale(0.015625)"/>
      </defs>
      <use xlink:href="#DejaVuSans-Bold-50"/>
      <use xlink:href="#DejaVuSans-Bold-65" x="73.291016"/>
      <use xlink:href="#DejaVuSans-Bold-74" x="141.113281"/>
      <use xlink:href="#DejaVuSans-Bold-72" x="188.916016"/>
      <use xlink:href="#DejaVuSans-Bold-69" x="238.232422"/>
      <use xlink:href="#DejaVuSans-Bold-63" x="272.509766"/>
      <use xlink:href="#DejaVuSans-Bold-61" x="331.787109"/>
      <use xlink:href="#DejaVuSans-Bold-20" x="399.267578"/>
      <use xlink:href="#DejaVuSans-Bold-4a" x="434.082031"/>
      <use xlink:href="#DejaVuSans-Bold-75" x="471.289062"/>
     </g>
    </g>
    <g id="patch_46">
     <path d="M 120.41625 299.426925 
L 232.01625 299.426925 
L 232.01625 287.426925 
L 120.41625 287.426925 
z
" style="fill: #ffffff; stroke: #000000; stroke-linejoin: miter"/>
    </g>
    <g id="text_45">
     <!-- 202.0 -->
     <g transform="translate(161.902187 296.1863) scale(0.1 -0.1)">
      <use xlink:href="#DejaVuSans-32"/>
      <use xlink:href="#DejaVuSans-30" x="63.623047"/>
      <use xlink:href="#DejaVuSans-32" x="127.246094"/>
      <use xlink:href="#DejaVuSans-2e" x="190.869141"/>
      <use xlink:href="#DejaVuSans-30" x="222.65625"/>
     </g>
    </g>
    <g id="patch_47">
     <path d="M 7.2 311.426925 
L 120.41625 311.426925 
L 120.41625 299.426925 
L 7.2 299.426925 
z
" style="fill: #1e90ff; stroke: #000000; stroke-linejoin: miter"/>
    </g>
    <g id="text_46">
     <!-- Pernille Li -->
     <g transform="translate(18.521625 308.1863) scale(0.1 -0.1)">
      <use xlink:href="#DejaVuSans-Bold-50"/>
      <use xlink:href="#DejaVuSans-Bold-65" x="73.291016"/>
      <use xlink:href="#DejaVuSans-Bold-72" x="141.113281"/>
      <use xlink:href="#DejaVuSans-Bold-6e" x="190.429688"/>
      <use xlink:href="#DejaVuSans-Bold-69" x="261.621094"/>
      <use xlink:href="#DejaVuSans-Bold-6c" x="295.898438"/>
      <use xlink:href="#DejaVuSans-Bold-6c" x="330.175781"/>
      <use xlink:href="#DejaVuSans-Bold-65" x="364.453125"/>
      <use xlink:href="#DejaVuSans-Bold-20" x="432.275391"/>
      <use xlink:href="#DejaVuSans-Bold-4c" x="467.089844"/>
      <use xlink:href="#DejaVuSans-Bold-69" x="530.810547"/>
     </g>
    </g>
    <g id="patch_48">
     <path d="M 120.41625 311.426925 
L 232.01625 311.426925 
L 232.01625 299.426925 
L 120.41625 299.426925 
z
" style="fill: #ffffff; stroke: #000000; stroke-linejoin: miter"/>
    </g>
    <g id="text_47">
     <!-- 195.0 -->
     <g transform="translate(161.902187 308.1863) scale(0.1 -0.1)">
      <use xlink:href="#DejaVuSans-31"/>
      <use xlink:href="#DejaVuSans-39" x="63.623047"/>
      <use xlink:href="#DejaVuSans-35" x="127.246094"/>
      <use xlink:href="#DejaVuSans-2e" x="190.869141"/>
      <use xlink:href="#DejaVuSans-30" x="222.65625"/>
     </g>
    </g>
    <g id="patch_49">
     <path d="M 7.2 323.426925 
L 120.41625 323.426925 
L 120.41625 311.426925 
L 7.2 311.426925 
z
" style="fill: #1e90ff; stroke: #000000; stroke-linejoin: miter"/>
    </g>
    <g id="text_48">
     <!-- Morten Sa -->
     <g transform="translate(18.521625 320.1863) scale(0.1 -0.1)">
      <use xlink:href="#DejaVuSans-Bold-4d"/>
      <use xlink:href="#DejaVuSans-Bold-6f" x="99.511719"/>
      <use xlink:href="#DejaVuSans-Bold-72" x="168.212891"/>
      <use xlink:href="#DejaVuSans-Bold-74" x="217.529297"/>
      <use xlink:href="#DejaVuSans-Bold-65" x="265.332031"/>
      <use xlink:href="#DejaVuSans-Bold-6e" x="333.154297"/>
      <use xlink:href="#DejaVuSans-Bold-20" x="404.345703"/>
      <use xlink:href="#DejaVuSans-Bold-53" x="439.160156"/>
      <use xlink:href="#DejaVuSans-Bold-61" x="511.181641"/>
     </g>
    </g>
    <g id="patch_50">
     <path d="M 120.41625 323.426925 
L 232.01625 323.426925 
L 232.01625 311.426925 
L 120.41625 311.426925 
z
" style="fill: #ffffff; stroke: #000000; stroke-linejoin: miter"/>
    </g>
    <g id="text_49">
     <!-- 193.0 -->
     <g transform="translate(161.902187 320.1863) scale(0.1 -0.1)">
      <use xlink:href="#DejaVuSans-31"/>
      <use xlink:href="#DejaVuSans-39" x="63.623047"/>
      <use xlink:href="#DejaVuSans-33" x="127.246094"/>
      <use xlink:href="#DejaVuSans-2e" x="190.869141"/>
      <use xlink:href="#DejaVuSans-30" x="222.65625"/>
     </g>
    </g>
    <g id="patch_51">
     <path d="M 7.2 335.426925 
L 120.41625 335.426925 
L 120.41625 323.426925 
L 7.2 323.426925 
z
" style="fill: #1e90ff; stroke: #000000; stroke-linejoin: miter"/>
    </g>
    <g id="text_50">
     <!-- Silje Br -->
     <g transform="translate(18.521625 332.147237) scale(0.1 -0.1)">
      <defs>
       <path id="DejaVuSans-Bold-6a" d="M 538 3500 
L 1656 3500 
L 1656 63 
Q 1656 -641 1318 -1011 
Q 981 -1381 341 -1381 
L -213 -1381 
L -213 -647 
L -19 -647 
Q 300 -647 419 -503 
Q 538 -359 538 63 
L 538 3500 
z
M 538 4863 
L 1656 4863 
L 1656 3950 
L 538 3950 
L 538 4863 
z
" transform="scale(0.015625)"/>
      </defs>
      <use xlink:href="#DejaVuSans-Bold-53"/>
      <use xlink:href="#DejaVuSans-Bold-69" x="72.021484"/>
      <use xlink:href="#DejaVuSans-Bold-6c" x="106.298828"/>
      <use xlink:href="#DejaVuSans-Bold-6a" x="140.576172"/>
      <use xlink:href="#DejaVuSans-Bold-65" x="174.853516"/>
      <use xlink:href="#DejaVuSans-Bold-20" x="242.675781"/>
      <use xlink:href="#DejaVuSans-Bold-42" x="277.490234"/>
      <use xlink:href="#DejaVuSans-Bold-72" x="353.710938"/>
     </g>
    </g>
    <g id="patch_52">
     <path d="M 120.41625 335.426925 
L 232.01625 335.426925 
L 232.01625 323.426925 
L 120.41625 323.426925 
z
" style="fill: #ffffff; stroke: #000000; stroke-linejoin: miter"/>
    </g>
    <g id="text_51">
     <!-- 190.0 -->
     <g transform="translate(161.902187 332.1863) scale(0.1 -0.1)">
      <use xlink:href="#DejaVuSans-31"/>
      <use xlink:href="#DejaVuSans-39" x="63.623047"/>
      <use xlink:href="#DejaVuSans-30" x="127.246094"/>
      <use xlink:href="#DejaVuSans-2e" x="190.869141"/>
      <use xlink:href="#DejaVuSans-30" x="222.65625"/>
     </g>
    </g>
    <g id="patch_53">
     <path d="M 7.2 347.426925 
L 120.41625 347.426925 
L 120.41625 335.426925 
L 7.2 335.426925 
z
" style="fill: #1e90ff; stroke: #000000; stroke-linejoin: miter"/>
    </g>
    <g id="text_52">
     <!-- Mikkel  Di -->
     <g transform="translate(18.521625 344.1863) scale(0.1 -0.1)">
      <defs>
       <path id="DejaVuSans-Bold-44" d="M 1791 3756 
L 1791 909 
L 2222 909 
Q 2959 909 3348 1275 
Q 3738 1641 3738 2338 
Q 3738 3031 3350 3393 
Q 2963 3756 2222 3756 
L 1791 3756 
z
M 588 4666 
L 1856 4666 
Q 2919 4666 3439 4514 
Q 3959 4363 4331 4000 
Q 4659 3684 4818 3271 
Q 4978 2859 4978 2338 
Q 4978 1809 4818 1395 
Q 4659 981 4331 666 
Q 3956 303 3431 151 
Q 2906 0 1856 0 
L 588 0 
L 588 4666 
z
" transform="scale(0.015625)"/>
      </defs>
      <use xlink:href="#DejaVuSans-Bold-4d"/>
      <use xlink:href="#DejaVuSans-Bold-69" x="99.511719"/>
      <use xlink:href="#DejaVuSans-Bold-6b" x="133.789062"/>
      <use xlink:href="#DejaVuSans-Bold-6b" x="200.292969"/>
      <use xlink:href="#DejaVuSans-Bold-65" x="264.171875"/>
      <use xlink:href="#DejaVuSans-Bold-6c" x="331.994141"/>
      <use xlink:href="#DejaVuSans-Bold-20" x="366.271484"/>
      <use xlink:href="#DejaVuSans-Bold-20" x="401.085938"/>
      <use xlink:href="#DejaVuSans-Bold-44" x="435.900391"/>
      <use xlink:href="#DejaVuSans-Bold-69" x="518.908203"/>
     </g>
    </g>
    <g id="patch_54">
     <path d="M 120.41625 347.426925 
L 232.01625 347.426925 
L 232.01625 335.426925 
L 120.41625 335.426925 
z
" style="fill: #ffffff; stroke: #000000; stroke-linejoin: miter"/>
    </g>
    <g id="text_53">
     <!-- 183.0 -->
     <g transform="translate(161.902187 344.1863) scale(0.1 -0.1)">
      <use xlink:href="#DejaVuSans-31"/>
      <use xlink:href="#DejaVuSans-38" x="63.623047"/>
      <use xlink:href="#DejaVuSans-33" x="127.246094"/>
      <use xlink:href="#DejaVuSans-2e" x="190.869141"/>
      <use xlink:href="#DejaVuSans-30" x="222.65625"/>
     </g>
    </g>
    <g id="patch_55">
     <path d="M 7.2 359.426925 
L 120.41625 359.426925 
L 120.41625 347.426925 
L 7.2 347.426925 
z
" style="fill: #1e90ff; stroke: #000000; stroke-linejoin: miter"/>
    </g>
    <g id="text_54">
     <!-- IT  Or -->
     <g transform="translate(18.521625 356.1863) scale(0.1 -0.1)">
      <defs>
       <path id="DejaVuSans-Bold-49" d="M 588 4666 
L 1791 4666 
L 1791 0 
L 588 0 
L 588 4666 
z
" transform="scale(0.015625)"/>
       <path id="DejaVuSans-Bold-4f" d="M 2719 3878 
Q 2169 3878 1866 3472 
Q 1563 3066 1563 2328 
Q 1563 1594 1866 1187 
Q 2169 781 2719 781 
Q 3272 781 3575 1187 
Q 3878 1594 3878 2328 
Q 3878 3066 3575 3472 
Q 3272 3878 2719 3878 
z
M 2719 4750 
Q 3844 4750 4481 4106 
Q 5119 3463 5119 2328 
Q 5119 1197 4481 553 
Q 3844 -91 2719 -91 
Q 1597 -91 958 553 
Q 319 1197 319 2328 
Q 319 3463 958 4106 
Q 1597 4750 2719 4750 
z
" transform="scale(0.015625)"/>
      </defs>
      <use xlink:href="#DejaVuSans-Bold-49"/>
      <use xlink:href="#DejaVuSans-Bold-54" x="37.207031"/>
      <use xlink:href="#DejaVuSans-Bold-20" x="105.419922"/>
      <use xlink:href="#DejaVuSans-Bold-20" x="140.234375"/>
      <use xlink:href="#DejaVuSans-Bold-4f" x="175.048828"/>
      <use xlink:href="#DejaVuSans-Bold-72" x="260.058594"/>
     </g>
    </g>
    <g id="patch_56">
     <path d="M 120.41625 359.426925 
L 232.01625 359.426925 
L 232.01625 347.426925 
L 120.41625 347.426925 
z
" style="fill: #ffffff; stroke: #000000; stroke-linejoin: miter"/>
    </g>
    <g id="text_55">
     <!-- 154.0 -->
     <g transform="translate(161.902187 356.1863) scale(0.1 -0.1)">
      <use xlink:href="#DejaVuSans-31"/>
      <use xlink:href="#DejaVuSans-35" x="63.623047"/>
      <use xlink:href="#DejaVuSans-34" x="127.246094"/>
      <use xlink:href="#DejaVuSans-2e" x="190.869141"/>
      <use xlink:href="#DejaVuSans-30" x="222.65625"/>
     </g>
    </g>
    <g id="patch_57">
     <path d="M 7.2 371.426925 
L 120.41625 371.426925 
L 120.41625 359.426925 
L 7.2 359.426925 
z
" style="fill: #1e90ff; stroke: #000000; stroke-linejoin: miter"/>
    </g>
    <g id="text_56">
     <!-- Julie Aa -->
     <g transform="translate(18.521625 368.1863) scale(0.1 -0.1)">
      <use xlink:href="#DejaVuSans-Bold-4a"/>
      <use xlink:href="#DejaVuSans-Bold-75" x="37.207031"/>
      <use xlink:href="#DejaVuSans-Bold-6c" x="108.398438"/>
      <use xlink:href="#DejaVuSans-Bold-69" x="142.675781"/>
      <use xlink:href="#DejaVuSans-Bold-65" x="176.953125"/>
      <use xlink:href="#DejaVuSans-Bold-20" x="244.775391"/>
      <use xlink:href="#DejaVuSans-Bold-41" x="279.589844"/>
      <use xlink:href="#DejaVuSans-Bold-61" x="356.982422"/>
     </g>
    </g>
    <g id="patch_58">
     <path d="M 120.41625 371.426925 
L 232.01625 371.426925 
L 232.01625 359.426925 
L 120.41625 359.426925 
z
" style="fill: #ffffff; stroke: #000000; stroke-linejoin: miter"/>
    </g>
    <g id="text_57">
     <!-- 128.0 -->
     <g transform="translate(161.902187 368.1863) scale(0.1 -0.1)">
      <use xlink:href="#DejaVuSans-31"/>
      <use xlink:href="#DejaVuSans-32" x="63.623047"/>
      <use xlink:href="#DejaVuSans-38" x="127.246094"/>
      <use xlink:href="#DejaVuSans-2e" x="190.869141"/>
      <use xlink:href="#DejaVuSans-30" x="222.65625"/>
     </g>
    </g>
   </g>
   <g id="text_58">
    <!-- Standings -->
    <g transform="translate(118.18425 16.318125) scale(0.12 -0.12)">
     <use xlink:href="#DejaVuSans-Bold-53"/>
     <use xlink:href="#DejaVuSans-Bold-74" x="72.021484"/>
     <use xlink:href="#DejaVuSans-Bold-61" x="119.824219"/>
     <use xlink:href="#DejaVuSans-Bold-6e" x="187.304688"/>
     <use xlink:href="#DejaVuSans-Bold-64" x="258.496094"/>
     <use xlink:href="#DejaVuSans-Bold-69" x="330.078125"/>
     <use xlink:href="#DejaVuSans-Bold-6e" x="364.355469"/>
     <use xlink:href="#DejaVuSans-Bold-67" x="435.546875"/>
     <use xlink:href="#DejaVuSans-Bold-73" x="507.128906"/>
    </g>
   </g>
  </g>
 </g>
</svg>
